<?xml version="1.0" encoding="utf-8" standalone="no"?>
<!DOCTYPE svg PUBLIC "-//W3C//DTD SVG 1.1//EN"
  "http://www.w3.org/Graphics/SVG/1.1/DTD/svg11.dtd">
<svg xmlns:xlink="http://www.w3.org/1999/xlink" width="241.454375pt" height="118.1925pt" viewBox="0 0 241.454375 118.1925" xmlns="http://www.w3.org/2000/svg" version="1.1">
 <metadata>
  <rdf:RDF xmlns:dc="http://purl.org/dc/elements/1.1/" xmlns:cc="http://creativecommons.org/ns#" xmlns:rdf="http://www.w3.org/1999/02/22-rdf-syntax-ns#">
   <cc:Work>
    <dc:type rdf:resource="http://purl.org/dc/dcmitype/StillImage"/>
    <dc:date>2022-08-07T13:51:40.062346</dc:date>
    <dc:format>image/svg+xml</dc:format>
    <dc:creator>
     <cc:Agent>
      <dc:title>Matplotlib v3.5.1, https://matplotlib.org/</dc:title>
     </cc:Agent>
    </dc:creator>
   </cc:Work>
  </rdf:RDF>
 </metadata>
 <defs>
  <style type="text/css">*{stroke-linejoin: round; stroke-linecap: butt}</style>
 </defs>
 <g id="figure_1">
  <g id="patch_1">
   <path d="M -0 118.1925 
L 241.454375 118.1925 
L 241.454375 -0 
L -0 -0 
z
" style="fill: #ffffff"/>
  </g>
  <g id="axes_1">
   <g id="patch_2">
    <path d="M 36.73 90.36 
L 232.03 90.36 
L 232.03 7.2 
L 36.73 7.2 
z
" style="fill: #ffffff"/>
   </g>
   <g id="matplotlib.axis_1">
    <g id="xtick_1">
     <g id="line2d_1">
      <defs>
       <path id="md77e1cfa45" d="M 0 0 
L 0 3.5 
" style="stroke: #000000; stroke-width: 1.5"/>
      </defs>
      <g>
       <use xlink:href="#md77e1cfa45" x="36.73" y="90.36" style="stroke: #000000; stroke-width: 1.5"/>
      </g>
     </g>
     <g id="text_1">
      <text style="font: 8px 'Arial'; text-anchor: middle" x="36.73" y="103.08625" transform="rotate(-0, 36.73, 103.08625)">−1</text>
     </g>
    </g>
    <g id="xtick_2">
     <g id="line2d_2">
      <g>
       <use xlink:href="#md77e1cfa45" x="232.03" y="90.36" style="stroke: #000000; stroke-width: 1.5"/>
      </g>
     </g>
     <g id="text_2">
      <text style="font: 8px 'Arial'; text-anchor: middle" x="232.03" y="103.08625" transform="rotate(-0, 232.03, 103.08625)">1</text>
     </g>
    </g>
    <g id="text_3">
     <!-- $\theta$ -->
     <g transform="translate(132.14 109.4025)">
      <text>
       <tspan style="font: 8px 'Arial'" x="0" y="-0.171875">θ</tspan>
      </text>
     </g>
    </g>
   </g>
   <g id="matplotlib.axis_2">
    <g id="ytick_1">
     <g id="line2d_3">
      <defs>
       <path id="m0f49a7643c" d="M 0 0 
L -3.5 0 
" style="stroke: #000000; stroke-width: 1.5"/>
      </defs>
      <g>
       <use xlink:href="#m0f49a7643c" x="36.73" y="86.58" style="stroke: #000000; stroke-width: 1.5"/>
      </g>
     </g>
     <g id="text_4">
      <text style="font: 8px 'Arial'; text-anchor: end" x="29.73" y="89.443125" transform="rotate(-0, 29.73, 89.443125)">0.0</text>
     </g>
    </g>
    <g id="ytick_2">
     <g id="line2d_4">
      <g>
       <use xlink:href="#m0f49a7643c" x="36.73" y="68.218897" style="stroke: #000000; stroke-width: 1.5"/>
      </g>
     </g>
     <g id="text_5">
      <text style="font: 8px 'Arial'; text-anchor: end" x="29.73" y="71.082022" transform="rotate(-0, 29.73, 71.082022)">0.5</text>
     </g>
    </g>
    <g id="ytick_3">
     <g id="line2d_5">
      <g>
       <use xlink:href="#m0f49a7643c" x="36.73" y="49.857794" style="stroke: #000000; stroke-width: 1.5"/>
      </g>
     </g>
     <g id="text_6">
      <text style="font: 8px 'Arial'; text-anchor: end" x="29.73" y="52.720919" transform="rotate(-0, 29.73, 52.720919)">1.0</text>
     </g>
    </g>
    <g id="ytick_4">
     <g id="line2d_6">
      <g>
       <use xlink:href="#m0f49a7643c" x="36.73" y="31.496691" style="stroke: #000000; stroke-width: 1.5"/>
      </g>
     </g>
     <g id="text_7">
      <text style="font: 8px 'Arial'; text-anchor: end" x="29.73" y="34.359816" transform="rotate(-0, 29.73, 34.359816)">1.5</text>
     </g>
    </g>
    <g id="ytick_5">
     <g id="line2d_7">
      <g>
       <use xlink:href="#m0f49a7643c" x="36.73" y="13.135588" style="stroke: #000000; stroke-width: 1.5"/>
      </g>
     </g>
     <g id="text_8">
      <text style="font: 8px 'Arial'; text-anchor: end" x="29.73" y="15.998713" transform="rotate(-0, 29.73, 15.998713)">2.0</text>
     </g>
    </g>
    <g id="text_9">
     <text style="font: 8px 'Arial'; text-anchor: middle" x="12.92625" y="48.78" transform="rotate(-90, 12.92625, 48.78)">Density</text>
    </g>
   </g>
   <g id="line2d_8">
    <path d="M 66.025001 86.569314 
L 68.490712 86.51318 
L 70.682451 86.181436 
L 72.326258 85.608455 
L 73.422134 85.705391 
L 74.791975 85.875158 
L 76.161816 85.829016 
L 77.805623 85.479913 
L 78.901493 84.998866 
L 80.545306 84.121277 
L 84.380852 82.993837 
L 87.942435 81.795767 
L 91.504016 79.970933 
L 93.147826 78.750666 
L 94.517667 77.478443 
L 95.887505 75.884727 
L 98.353216 72.44456 
L 100.544958 68.900282 
L 103.010672 64.380884 
L 104.380513 62.231678 
L 106.572255 59.901415 
L 111.777645 47.587806 
L 112.32558 44.961793 
L 115.06526 38.700253 
L 115.339229 38.189384 
L 119.174779 25.452009 
L 119.448747 25.126874 
L 120.818586 28.726896 
L 121.914457 32.030354 
L 122.188426 32.040292 
L 124.38017 25.80936 
L 124.928105 23.522053 
L 126.571913 12.731743 
L 127.119848 11.732068 
L 127.667785 11.143461 
L 128.21572 10.98 
L 128.763656 11.246063 
L 129.311592 11.936065 
L 129.859528 13.034929 
L 130.681432 15.395105 
L 131.229367 17.394285 
L 131.777303 16.314972 
L 132.599207 14.134344 
L 133.421111 12.804158 
L 133.695079 12.605019 
L 133.969047 12.618634 
L 134.243015 12.841972 
L 134.790951 13.892712 
L 135.338886 15.68532 
L 135.612854 16.829273 
L 135.886822 16.933075 
L 136.434761 16.079319 
L 136.708729 15.865748 
L 136.982697 15.798652 
L 137.256665 15.87963 
L 137.530633 16.108925 
L 138.078568 17.006794 
L 138.626505 18.467499 
L 139.448408 21.441831 
L 140.818248 20.666505 
L 141.366183 20.674726 
L 142.188087 21.062172 
L 142.736023 20.529284 
L 143.283959 20.341326 
L 143.831895 20.508625 
L 144.37983 21.033087 
L 144.927767 21.908022 
L 145.74967 23.842181 
L 146.571574 26.445232 
L 147.393477 29.421756 
L 147.667446 29.399207 
L 148.215381 28.963922 
L 148.48935 28.921678 
L 148.763317 28.996273 
L 149.311253 29.489535 
L 149.85919 30.421795 
L 150.407126 31.757357 
L 151.22903 34.412432 
L 153.146804 41.951587 
L 156.160451 54.74292 
L 156.708387 55.214752 
L 157.80426 56.080349 
L 159.1741 57.37825 
L 160.269969 57.155571 
L 160.817904 57.283221 
L 161.365842 57.5957 
L 161.913776 58.090727 
L 162.187745 58.674799 
L 163.557586 63.113917 
L 164.927425 66.854392 
L 165.475359 67.953442 
L 167.393136 70.95234 
L 169.858846 74.611675 
L 170.68075 76.328543 
L 171.502656 77.011806 
L 172.872495 77.870118 
L 174.242333 78.4829 
L 175.886143 78.975057 
L 178.351851 79.536711 
L 179.447724 80.769003 
L 180.543596 81.6946 
L 181.913437 82.556432 
L 183.009307 83.020091 
L 185.201052 83.60336 
L 186.844859 84.01939 
L 189.31057 85.202275 
L 192.050246 85.645493 
L 194.241991 85.839437 
L 196.707708 85.44136 
L 197.529606 85.658463 
L 199.72135 86.330573 
L 201.091192 86.513944 
L 202.734999 86.58 
L 202.734999 86.58 
" clip-path="url(#p3e3f4e8175)" style="fill: none; stroke: #810f7c; stroke-width: 1.5; stroke-linecap: square"/>
   </g>
   <g id="line2d_9">
    <path d="M 66.025001 86.58 
L 100.818927 86.58 
L 101.092896 49.857794 
L 165.475359 49.857794 
L 165.749328 86.58 
L 202.734999 86.58 
L 202.734999 86.58 
" clip-path="url(#p3e3f4e8175)" style="fill: none; stroke: #1f77b4; stroke-width: 1.5; stroke-linecap: square"/>
   </g>
   <g id="patch_3">
    <path d="M 36.73 90.36 
L 36.73 7.2 
" style="fill: none; stroke: #000000; stroke-width: 1.5; stroke-linejoin: miter; stroke-linecap: square"/>
   </g>
   <g id="patch_4">
    <path d="M 36.73 90.36 
L 232.03 90.36 
" style="fill: none; stroke: #000000; stroke-width: 1.5; stroke-linejoin: miter; stroke-linecap: square"/>
   </g>
   <g id="legend_1">
    <g id="line2d_10">
     <path d="M 170.8575 17.44 
L 178.8575 17.44 
L 186.8575 17.44 
" style="fill: none; stroke: #238b45; stroke-width: 1.5; stroke-linecap: square"/>
    </g>
    <g id="text_10">
     <!-- $p(\theta | x)$ -->
     <g transform="translate(193.2575 20.24)">
      <text>
       <tspan style="font: 8px 'Arial'" x="0 4.449219 7.113281 11.5625 13.640625 17.640625" y="-0.171875">p(θ|x)</tspan>
      </text>
     </g>
    </g>
    <g id="line2d_11">
     <path d="M 170.8575 29.04 
L 178.8575 29.04 
L 186.8575 29.04 
" style="fill: none; stroke: #810f7c; stroke-width: 1.5; stroke-linecap: square"/>
    </g>
    <g id="text_11">
     <!-- $q(\theta | x)$ -->
     <g transform="translate(193.2575 31.84)">
      <text>
       <tspan style="font: 8px 'Arial'" x="0 4.449219 7.113281 11.5625 13.640625 17.640625" y="-0.171875">q(θ|x)</tspan>
      </text>
     </g>
    </g>
    <g id="line2d_12">
     <path d="M 170.8575 40.52625 
L 178.8575 40.52625 
L 186.8575 40.52625 
" style="fill: none; stroke: #1f77b4; stroke-width: 1.5; stroke-linecap: square"/>
    </g>
    <g id="text_12">
     <text style="font: 8px 'Arial'; text-anchor: start" x="193.2575" y="43.32625" transform="rotate(-0, 193.2575, 43.32625)">Proposal</text>
    </g>
   </g>
   <g id="line2d_13">
    <path d="M 66.025001 86.419766 
L 71.778326 86.149775 
L 75.887844 85.753951 
L 79.175465 85.231628 
L 81.915141 84.595073 
L 84.380852 83.815738 
L 86.846566 82.79129 
L 89.038308 81.632572 
L 91.23005 80.200336 
L 93.147826 78.692722 
L 95.065602 76.92241 
L 96.983378 74.868222 
L 98.901151 72.513406 
L 101.092896 69.440659 
L 103.284641 65.958056 
L 105.750351 61.566813 
L 108.216059 56.720275 
L 111.229709 50.29773 
L 116.709067 37.935398 
L 120.27065 30.154694 
L 122.736362 25.256794 
L 124.654137 21.872248 
L 126.297945 19.340937 
L 127.941753 17.203831 
L 129.311592 15.755428 
L 130.681432 14.63162 
L 131.777303 13.977375 
L 132.873175 13.547492 
L 133.969047 13.346007 
L 135.064918 13.37483 
L 136.160793 13.633666 
L 137.256665 14.120103 
L 138.352536 14.829572 
L 139.722376 16.019749 
L 141.092216 17.530718 
L 142.736023 19.736723 
L 144.37983 22.329036 
L 146.297606 25.773511 
L 148.763317 30.729144 
L 152.050933 37.935398 
L 159.722034 55.016404 
L 162.461714 60.526873 
L 164.927425 65.024465 
L 167.11917 68.608237 
L 169.310912 71.783701 
L 171.502656 74.55055 
L 173.694398 76.92241 
L 175.612174 78.692722 
L 177.803916 80.395642 
L 179.995661 81.791579 
L 182.187403 82.918824 
L 184.653114 83.913513 
L 187.118831 84.668671 
L 189.858501 85.284176 
L 193.146122 85.788015 
L 197.25564 86.168733 
L 202.461033 86.411719 
L 202.734999 86.419766 
L 202.734999 86.419766 
" clip-path="url(#p3e3f4e8175)" style="fill: none; stroke: #238b45; stroke-width: 1.5; stroke-linecap: square"/>
   </g>
  </g>
 </g>
 <defs>
  <clipPath id="p3e3f4e8175">
   <rect x="36.73" y="7.2" width="195.3" height="83.16"/>
  </clipPath>
 </defs>
</svg>
