<?xml version="1.0" encoding="utf-8" standalone="no"?>
<!DOCTYPE svg PUBLIC "-//W3C//DTD SVG 1.1//EN"
  "http://www.w3.org/Graphics/SVG/1.1/DTD/svg11.dtd">
<svg xmlns:xlink="http://www.w3.org/1999/xlink" width="126pt" height="58.752pt" viewBox="0 0 126 58.752" xmlns="http://www.w3.org/2000/svg" version="1.1">
 <metadata>
  <rdf:RDF xmlns:dc="http://purl.org/dc/elements/1.1/" xmlns:cc="http://creativecommons.org/ns#" xmlns:rdf="http://www.w3.org/1999/02/22-rdf-syntax-ns#">
   <cc:Work>
    <dc:type rdf:resource="http://purl.org/dc/dcmitype/StillImage"/>
    <dc:date>2022-05-02T18:44:48.925479</dc:date>
    <dc:format>image/svg+xml</dc:format>
    <dc:creator>
     <cc:Agent>
      <dc:title>Matplotlib v3.5.1, https://matplotlib.org/</dc:title>
     </cc:Agent>
    </dc:creator>
   </cc:Work>
  </rdf:RDF>
 </metadata>
 <defs>
  <style type="text/css">*{stroke-linejoin: round; stroke-linecap: butt}</style>
 </defs>
 <g id="figure_1">
  <g id="patch_1">
   <path d="M 0 58.752 
L 126 58.752 
L 126 0 
L 0 0 
z
" style="fill: #ffffff"/>
  </g>
  <g id="axes_1">
   <g id="patch_2">
    <path d="M 7.2 51.552 
L 118.8 51.552 
L 118.8 7.2 
L 7.2 7.2 
z
" style="fill: #ffffff"/>
   </g>
   <g id="matplotlib.axis_1"/>
   <g id="matplotlib.axis_2"/>
   <g id="line2d_1">
    <path d="M 12.272727 49.535984 
L 34.230827 49.430222 
L 35.247403 49.246174 
L 35.857351 48.951878 
L 36.263982 48.559138 
L 36.670612 47.843518 
L 37.077243 46.53642 
L 37.483876 44.223749 
L 37.890507 40.466601 
L 40.330297 12.118307 
L 40.73693 9.661952 
L 40.940245 9.216 
L 41.14356 9.309872 
L 41.346876 9.927287 
L 41.753506 12.566182 
L 42.160139 16.66062 
L 42.56677 23.040538 
L 42.770085 40.768774 
L 42.973401 46.627833 
L 43.176717 48.108897 
L 43.583348 48.98587 
L 43.989979 49.252703 
L 44.803243 49.430577 
L 46.633084 49.502873 
L 55.985607 49.535999 
L 82.416652 49.467973 
L 82.619968 49.168059 
L 83.0266 43.810962 
L 83.43323 33.17694 
L 84.043176 13.949237 
L 84.246491 11.30192 
L 84.449809 11.855596 
L 84.85644 19.03905 
L 85.059755 14.323347 
L 85.26307 13.279596 
L 85.466388 15.226436 
L 85.669703 19.036174 
L 86.076336 18.355932 
L 86.279651 19.391253 
L 86.686282 24.532221 
L 87.296228 33.659707 
L 88.109491 39.592387 
L 89.12607 46.945963 
L 89.532703 48.300089 
L 89.939333 48.941912 
L 90.345964 49.239933 
L 90.955912 49.425139 
L 92.379121 49.524105 
L 100.715067 49.535969 
L 113.727273 49.535964 
L 113.727273 49.535964 
" clip-path="url(#pe0f30bd3f4)" style="fill: none; stroke: #000000; stroke-width: 1.5; stroke-linecap: square"/>
   </g>
  </g>
 </g>
 <defs>
  <clipPath id="pe0f30bd3f4">
   <rect x="7.2" y="7.2" width="111.6" height="44.352"/>
  </clipPath>
 </defs>
</svg>
