<?xml version="1.0" encoding="utf-8" standalone="no"?>
<!DOCTYPE svg PUBLIC "-//W3C//DTD SVG 1.1//EN"
  "http://www.w3.org/Graphics/SVG/1.1/DTD/svg11.dtd">
<svg xmlns:xlink="http://www.w3.org/1999/xlink" width="126pt" height="97.56pt" viewBox="0 0 126 97.56" xmlns="http://www.w3.org/2000/svg" version="1.1">
 <metadata>
  <rdf:RDF xmlns:dc="http://purl.org/dc/elements/1.1/" xmlns:cc="http://creativecommons.org/ns#" xmlns:rdf="http://www.w3.org/1999/02/22-rdf-syntax-ns#">
   <cc:Work>
    <dc:type rdf:resource="http://purl.org/dc/dcmitype/StillImage"/>
    <dc:date>2022-05-08T13:17:50.705379</dc:date>
    <dc:format>image/svg+xml</dc:format>
    <dc:creator>
     <cc:Agent>
      <dc:title>Matplotlib v3.5.1, https://matplotlib.org/</dc:title>
     </cc:Agent>
    </dc:creator>
   </cc:Work>
  </rdf:RDF>
 </metadata>
 <defs>
  <style type="text/css">*{stroke-linejoin: round; stroke-linecap: butt}</style>
 </defs>
 <g id="figure_1">
  <g id="patch_1">
   <path d="M 0 97.56 
L 126 97.56 
L 126 0 
L 0 0 
z
" style="fill: #ffffff"/>
  </g>
  <g id="axes_1">
   <g id="patch_2">
    <path d="M 7.2 45 
L 57.927273 45 
L 57.927273 7.2 
L 7.2 7.2 
z
" style="fill: #ffffff"/>
   </g>
   <g id="matplotlib.axis_1"/>
   <g id="matplotlib.axis_2"/>
   <g id="line2d_1">
    <path d="M 9.505785 38.25 
L 9.510076 38.290612 
L 9.526889 26.191989 
L 9.528829 10.37504 
L 9.634973 40.127976 
L 9.768199 40.285483 
L 9.775015 40.283747 
L 10.080163 40.089424 
L 10.595377 39.453016 
L 11.064777 38.449584 
L 11.550116 36.853494 
L 12.669377 32.603748 
L 12.708672 32.628008 
L 13.00971 32.763034 
L 13.574491 32.699272 
L 18.990104 32.606526 
L 20.267025 32.468056 
L 20.321496 31.883415 
L 20.382717 32.105774 
L 20.581217 32.885016 
L 20.686402 32.786639 
L 20.999165 32.488451 
L 21.394031 32.57589 
L 22.08078 32.557203 
L 25.217888 32.551203 
L 36.352802 32.600499 
L 45.819441 32.643276 
L 51.010828 32.78348 
L 51.1116 33.490211 
L 51.120379 33.487747 
L 51.24004 33.300418 
L 51.658854 32.618932 
L 51.913134 32.703779 
L 52.302032 32.718652 
L 52.945211 32.712833 
L 53.850766 32.712066 
L 55.621488 32.715247 
L 55.621488 32.715247 
" clip-path="url(#pbe5eccbbdc)" style="fill: none; stroke: #000000; stroke-linecap: square"/>
   </g>
  </g>
  <g id="axes_2">
   <g id="patch_3">
    <path d="M 68.072727 45 
L 118.8 45 
L 118.8 7.2 
L 68.072727 7.2 
z
" style="fill: #ffffff"/>
   </g>
   <g id="matplotlib.axis_3"/>
   <g id="matplotlib.axis_4"/>
   <g id="line2d_2">
    <path d="M 70.378512 38.25 
L 70.378903 38.261921 
L 70.390655 26.000081 
L 70.392638 9.585679 
L 70.43142 30.071199 
L 70.499195 27.495525 
L 70.624772 26.987601 
L 70.643086 26.990819 
L 72.659334 27.11011 
L 73.695244 27.161078 
L 74.032827 27.176429 
L 74.647668 27.21379 
L 77.239804 27.367417 
L 80.913025 27.582047 
L 81.138843 27.595624 
L 81.139313 27.50602 
L 81.149824 27.287117 
L 81.25105 27.372597 
L 82.399737 27.441814 
L 83.653793 27.507521 
L 85.719089 27.612075 
L 110.471862 28.598091 
L 111.882645 28.630347 
L 111.88294 28.698992 
L 111.905919 29.228412 
L 111.996319 29.045261 
L 112.359261 29.034286 
L 114.868973 29.076723 
L 116.494215 29.107795 
L 116.494215 29.107795 
" clip-path="url(#p3b7656c0d6)" style="fill: none; stroke: #000000; stroke-linecap: square"/>
   </g>
  </g>
  <g id="axes_3">
   <g id="patch_4">
    <path d="M 7.2 90.36 
L 57.927273 90.36 
L 57.927273 52.56 
L 7.2 52.56 
z
" style="fill: #ffffff"/>
   </g>
   <g id="matplotlib.axis_5"/>
   <g id="matplotlib.axis_6"/>
   <g id="line2d_3">
    <path d="M 9.505785 83.61 
L 9.506861 83.635376 
L 9.526125 69.261954 
L 9.528298 65.491946 
L 9.63195 82.496317 
L 9.767164 82.653743 
L 10.50706 82.513558 
L 11.111639 82.212984 
L 11.60418 81.700498 
L 12.086062 80.842499 
L 13.242283 78.504309 
L 13.644813 78.456139 
L 15.108038 78.429899 
L 16.637259 78.411317 
L 20.266411 78.319581 
L 20.321701 77.98563 
L 20.377872 78.032414 
L 20.781525 78.386116 
L 22.180726 78.347044 
L 26.549952 78.349484 
L 31.503684 78.370025 
L 37.585409 78.406312 
L 51.011801 78.651155 
L 51.087278 78.973963 
L 51.127904 78.958448 
L 51.892267 78.54178 
L 55.621488 78.536317 
L 55.621488 78.536317 
" clip-path="url(#p390810d69e)" style="fill: none; stroke: #000000; stroke-linecap: square"/>
   </g>
  </g>
  <g id="axes_4">
   <g id="patch_5">
    <path d="M 68.072727 90.36 
L 118.8 90.36 
L 118.8 52.56 
L 68.072727 52.56 
z
" style="fill: #ffffff"/>
   </g>
   <g id="matplotlib.axis_7"/>
   <g id="matplotlib.axis_8"/>
   <g id="line2d_4">
    <path d="M 70.378512 83.61 
L 70.382621 83.666632 
L 70.403273 69.213413 
L 70.405506 67.603254 
L 70.497226 87.074282 
L 70.64122 87.219507 
L 71.528149 87.176661 
L 75.362799 86.979051 
L 77.59338 86.695925 
L 79.124863 86.270814 
L 80.384691 85.682276 
L 81.139452 85.115772 
L 81.249769 84.931794 
L 82.543909 83.765883 
L 85.370358 81.076437 
L 86.283278 80.648089 
L 87.219203 80.44622 
L 88.862734 80.35605 
L 93.099411 80.383095 
L 111.882766 80.474992 
L 111.994008 80.956265 
L 112.300935 80.880407 
L 113.329314 80.662813 
L 115.23581 80.539893 
L 116.494215 80.518954 
L 116.494215 80.518954 
" clip-path="url(#p669cc1c2d2)" style="fill: none; stroke: #000000; stroke-linecap: square"/>
   </g>
  </g>
 </g>
 <defs>
  <clipPath id="pbe5eccbbdc">
   <rect x="7.2" y="7.2" width="50.727273" height="37.8"/>
  </clipPath>
  <clipPath id="p3b7656c0d6">
   <rect x="68.072727" y="7.2" width="50.727273" height="37.8"/>
  </clipPath>
  <clipPath id="p390810d69e">
   <rect x="7.2" y="52.56" width="50.727273" height="37.8"/>
  </clipPath>
  <clipPath id="p669cc1c2d2">
   <rect x="68.072727" y="52.56" width="50.727273" height="37.8"/>
  </clipPath>
 </defs>
</svg>
