<?xml version="1.0" encoding="utf-8" standalone="no"?>
<!DOCTYPE svg PUBLIC "-//W3C//DTD SVG 1.1//EN"
  "http://www.w3.org/Graphics/SVG/1.1/DTD/svg11.dtd">
<svg xmlns:xlink="http://www.w3.org/1999/xlink" width="126pt" height="69.84pt" viewBox="0 0 126 69.84" xmlns="http://www.w3.org/2000/svg" version="1.1">
 <metadata>
  <rdf:RDF xmlns:dc="http://purl.org/dc/elements/1.1/" xmlns:cc="http://creativecommons.org/ns#" xmlns:rdf="http://www.w3.org/1999/02/22-rdf-syntax-ns#">
   <cc:Work>
    <dc:type rdf:resource="http://purl.org/dc/dcmitype/StillImage"/>
    <dc:date>2022-05-02T15:12:57.737154</dc:date>
    <dc:format>image/svg+xml</dc:format>
    <dc:creator>
     <cc:Agent>
      <dc:title>Matplotlib v3.5.1, https://matplotlib.org/</dc:title>
     </cc:Agent>
    </dc:creator>
   </cc:Work>
  </rdf:RDF>
 </metadata>
 <defs>
  <style type="text/css">*{stroke-linejoin: round; stroke-linecap: butt}</style>
 </defs>
 <g id="figure_1">
  <g id="patch_1">
   <path d="M 0 69.84 
L 126 69.84 
L 126 0 
L 0 0 
z
" style="fill: #ffffff"/>
  </g>
  <g id="axes_1">
   <g id="patch_2">
    <path d="M 7.2 62.64 
L 118.8 62.64 
L 118.8 7.2 
L 7.2 7.2 
z
" style="fill: #ffffff"/>
   </g>
   <g id="matplotlib.axis_1"/>
   <g id="matplotlib.axis_2"/>
   <g id="line2d_1">
    <path d="M 12.272727 60.118389 
L 35.654036 60.039516 
L 36.467297 59.835796 
L 36.670612 59.687604 
L 36.873928 59.383966 
L 37.077243 58.600175 
L 37.483876 55.940707 
L 37.890507 53.550806 
L 38.70377 46.845673 
L 39.313718 42.677741 
L 39.517033 41.992457 
L 40.330297 33.706067 
L 40.533615 33.069905 
L 40.73693 33.427206 
L 40.940245 34.809432 
L 41.346876 38.796383 
L 43.786664 54.945658 
L 44.396611 56.805654 
L 45.006558 57.887158 
L 45.616506 58.550916 
L 46.429768 59.08633 
L 47.446347 59.465447 
L 48.869558 59.745882 
L 51.512661 59.994237 
L 55.782291 60.070906 
L 61.475132 60.037 
L 61.678447 59.953602 
L 61.881763 58.540601 
L 62.085079 9.72 
L 62.288394 46.730611 
L 62.49171 54.820844 
L 62.695026 57.273553 
L 63.101657 58.883492 
L 63.508289 59.415737 
L 64.118236 59.731119 
L 65.134816 59.917887 
L 67.371289 60.030025 
L 74.284023 60.068712 
L 78.553653 59.943422 
L 80.180179 59.616881 
L 80.58681 59.423636 
L 80.790126 59.163406 
L 81.400073 57.220669 
L 82.010021 54.552407 
L 82.619968 51.012023 
L 83.636546 43.415695 
L 84.246491 39.069246 
L 84.653124 37.260049 
L 84.85644 36.893242 
L 85.059755 36.948902 
L 85.26307 37.441095 
L 85.669703 39.623931 
L 86.279651 44.490689 
L 86.482967 44.975637 
L 86.889597 46.87458 
L 88.516122 56.70238 
L 89.12607 58.396864 
L 89.736018 59.274822 
L 90.345964 59.725729 
L 91.159227 60.014974 
L 92.175806 60.119005 
L 113.727273 60.118655 
L 113.727273 60.118655 
" clip-path="url(#p2dd78f80fe)" style="fill: none; stroke: #1f77b4; stroke-width: 1.5; stroke-linecap: square"/>
   </g>
  </g>
 </g>
 <defs>
  <clipPath id="p2dd78f80fe">
   <rect x="7.2" y="7.2" width="111.6" height="55.44"/>
  </clipPath>
 </defs>
</svg>
