<?xml version="1.0" encoding="utf-8" standalone="no"?>
<!DOCTYPE svg PUBLIC "-//W3C//DTD SVG 1.1//EN"
  "http://www.w3.org/Graphics/SVG/1.1/DTD/svg11.dtd">
<svg xmlns:xlink="http://www.w3.org/1999/xlink" width="126pt" height="58.752pt" viewBox="0 0 126 58.752" xmlns="http://www.w3.org/2000/svg" version="1.1">
 <metadata>
  <rdf:RDF xmlns:dc="http://purl.org/dc/elements/1.1/" xmlns:cc="http://creativecommons.org/ns#" xmlns:rdf="http://www.w3.org/1999/02/22-rdf-syntax-ns#">
   <cc:Work>
    <dc:type rdf:resource="http://purl.org/dc/dcmitype/StillImage"/>
    <dc:date>2022-07-31T16:23:44.861356</dc:date>
    <dc:format>image/svg+xml</dc:format>
    <dc:creator>
     <cc:Agent>
      <dc:title>Matplotlib v3.5.1, https://matplotlib.org/</dc:title>
     </cc:Agent>
    </dc:creator>
   </cc:Work>
  </rdf:RDF>
 </metadata>
 <defs>
  <style type="text/css">*{stroke-linejoin: round; stroke-linecap: butt}</style>
 </defs>
 <g id="figure_1">
  <g id="patch_1">
   <path d="M 0 58.752 
L 126 58.752 
L 126 0 
L 0 0 
z
" style="fill: #ffffff"/>
  </g>
  <g id="axes_1">
   <g id="patch_2">
    <path d="M 7.2 51.552 
L 118.8 51.552 
L 118.8 7.2 
L 7.2 7.2 
z
" style="fill: #ffffff"/>
   </g>
   <g id="matplotlib.axis_1"/>
   <g id="matplotlib.axis_2"/>
   <g id="line2d_1">
    <path d="M 12.272727 49.536 
L 35.044088 49.444981 
L 35.654036 49.186245 
L 36.060667 48.76527 
L 36.467297 47.971453 
L 36.873928 46.601024 
L 37.280561 44.431985 
L 37.890507 39.312714 
L 38.500455 31.970363 
L 39.923666 13.374216 
L 40.330297 10.363473 
L 40.533615 9.545933 
L 40.73693 9.216 
L 40.940245 9.372528 
L 41.14356 9.996825 
L 41.550191 12.498398 
L 42.160139 18.546797 
L 42.56677 23.35744 
L 42.770085 49.536 
L 83.229915 49.536 
L 83.43323 23.35744 
L 84.246491 14.271207 
L 84.653124 11.05456 
L 85.059755 9.372528 
L 85.26307 9.216 
L 85.466388 9.54594 
L 85.669703 10.363473 
L 86.076336 13.374245 
L 86.686282 20.565984 
L 88.109491 39.312695 
L 88.719439 44.431985 
L 89.329388 47.372312 
L 89.736018 48.426787 
L 90.142649 49.011342 
L 90.752594 49.390263 
L 91.565858 49.516667 
L 94.615594 49.536 
L 113.727273 49.536 
L 113.727273 49.536 
" clip-path="url(#p998470aee8)" style="fill: none; stroke: #000000; stroke-width: 1.5; stroke-linecap: square"/>
   </g>
   <g id="line2d_2">
    <path d="M 12.272727 49.536 
L 22.235195 49.536 
L 22.43851 41.971649 
L 42.56677 41.971649 
L 42.770085 49.536 
L 83.229915 49.536 
L 83.43323 41.971649 
L 103.561485 41.971649 
L 103.7648 49.536 
L 113.727273 49.536 
L 113.727273 49.536 
" clip-path="url(#p998470aee8)" style="fill: none; stroke: #808080; stroke-width: 1.5; stroke-linecap: square"/>
   </g>
  </g>
 </g>
 <defs>
  <clipPath id="p998470aee8">
   <rect x="7.2" y="7.2" width="111.6" height="44.352"/>
  </clipPath>
 </defs>
</svg>
