<?xml version="1.0" encoding="utf-8" standalone="no"?>
<!DOCTYPE svg PUBLIC "-//W3C//DTD SVG 1.1//EN"
  "http://www.w3.org/Graphics/SVG/1.1/DTD/svg11.dtd">
<svg xmlns:xlink="http://www.w3.org/1999/xlink" width="126pt" height="58.752pt" viewBox="0 0 126 58.752" xmlns="http://www.w3.org/2000/svg" version="1.1">
 <metadata>
  <rdf:RDF xmlns:dc="http://purl.org/dc/elements/1.1/" xmlns:cc="http://creativecommons.org/ns#" xmlns:rdf="http://www.w3.org/1999/02/22-rdf-syntax-ns#">
   <cc:Work>
    <dc:type rdf:resource="http://purl.org/dc/dcmitype/StillImage"/>
    <dc:date>2022-07-31T16:23:58.729902</dc:date>
    <dc:format>image/svg+xml</dc:format>
    <dc:creator>
     <cc:Agent>
      <dc:title>Matplotlib v3.5.1, https://matplotlib.org/</dc:title>
     </cc:Agent>
    </dc:creator>
   </cc:Work>
  </rdf:RDF>
 </metadata>
 <defs>
  <style type="text/css">*{stroke-linejoin: round; stroke-linecap: butt}</style>
 </defs>
 <g id="figure_1">
  <g id="patch_1">
   <path d="M 0 58.752 
L 126 58.752 
L 126 0 
L 0 0 
z
" style="fill: #ffffff"/>
  </g>
  <g id="axes_1">
   <g id="patch_2">
    <path d="M 7.2 51.552 
L 118.8 51.552 
L 118.8 7.2 
L 7.2 7.2 
z
" style="fill: #ffffff"/>
   </g>
   <g id="matplotlib.axis_1"/>
   <g id="matplotlib.axis_2"/>
   <g id="line2d_1">
    <path d="M 12.272727 49.535708 
L 37.077243 49.438546 
L 37.890507 49.203326 
L 38.500455 48.893671 
L 38.907088 48.588141 
L 39.923666 48.174708 
L 40.330297 48.062297 
L 40.940245 47.789091 
L 41.346876 47.783719 
L 41.956822 48.0421 
L 43.176717 48.694509 
L 44.599927 49.209747 
L 45.616506 49.386142 
L 48.056294 49.495311 
L 57.612133 49.519176 
L 61.475132 49.41757 
L 61.881763 49.210868 
L 62.085079 48.885743 
L 62.288394 9.216 
L 62.49171 48.446041 
L 62.695026 49.270709 
L 63.101657 49.467054 
L 64.524868 49.524228 
L 78.553653 49.520673 
L 80.993442 49.39921 
L 82.010021 49.093019 
L 83.0266 48.568076 
L 84.246491 47.895524 
L 84.85644 47.805464 
L 85.466388 47.977248 
L 87.906176 49.10038 
L 89.329388 49.452439 
L 91.159227 49.52677 
L 99.495173 49.535996 
L 113.727273 49.535687 
L 113.727273 49.535687 
" clip-path="url(#p46c2079fac)" style="fill: none; stroke: #000000; stroke-width: 1.5; stroke-linecap: square"/>
   </g>
  </g>
 </g>
 <defs>
  <clipPath id="p46c2079fac">
   <rect x="7.2" y="7.2" width="111.6" height="44.352"/>
  </clipPath>
 </defs>
</svg>
