<?xml version="1.0" encoding="utf-8" standalone="no"?>
<!DOCTYPE svg PUBLIC "-//W3C//DTD SVG 1.1//EN"
  "http://www.w3.org/Graphics/SVG/1.1/DTD/svg11.dtd">
<svg xmlns:xlink="http://www.w3.org/1999/xlink" width="126pt" height="58.752pt" viewBox="0 0 126 58.752" xmlns="http://www.w3.org/2000/svg" version="1.1">
 <metadata>
  <rdf:RDF xmlns:dc="http://purl.org/dc/elements/1.1/" xmlns:cc="http://creativecommons.org/ns#" xmlns:rdf="http://www.w3.org/1999/02/22-rdf-syntax-ns#">
   <cc:Work>
    <dc:type rdf:resource="http://purl.org/dc/dcmitype/StillImage"/>
    <dc:date>2022-05-02T18:39:21.699219</dc:date>
    <dc:format>image/svg+xml</dc:format>
    <dc:creator>
     <cc:Agent>
      <dc:title>Matplotlib v3.5.1, https://matplotlib.org/</dc:title>
     </cc:Agent>
    </dc:creator>
   </cc:Work>
  </rdf:RDF>
 </metadata>
 <defs>
  <style type="text/css">*{stroke-linejoin: round; stroke-linecap: butt}</style>
 </defs>
 <g id="figure_1">
  <g id="patch_1">
   <path d="M 0 58.752 
L 126 58.752 
L 126 0 
L 0 0 
z
" style="fill: #ffffff"/>
  </g>
  <g id="axes_1">
   <g id="patch_2">
    <path d="M 7.2 51.552 
L 118.8 51.552 
L 118.8 7.2 
L 7.2 7.2 
z
" style="fill: #ffffff"/>
   </g>
   <g id="matplotlib.axis_1"/>
   <g id="matplotlib.axis_2"/>
   <g id="line2d_1">
    <path d="M 12.272727 49.477703 
L 16.339042 49.525906 
L 33.01093 49.45929 
L 34.840773 49.314397 
L 35.450718 49.084624 
L 35.654036 48.887523 
L 36.263982 47.928382 
L 36.873928 46.721074 
L 37.280561 45.471641 
L 37.890507 42.644357 
L 38.70377 37.172955 
L 40.330297 25.379447 
L 40.533615 24.853999 
L 40.73693 24.692965 
L 40.940245 24.888069 
L 41.346876 26.214432 
L 41.956822 29.758729 
L 42.56677 34.154841 
L 43.176717 40.244735 
L 43.786664 43.623505 
L 44.803243 47.330613 
L 45.616506 48.827577 
L 46.023137 49.13436 
L 46.8364 49.33928 
L 48.666241 49.44884 
L 53.95245 49.450745 
L 58.018764 49.287643 
L 59.441974 49.042489 
L 60.255237 48.662545 
L 60.661869 48.249994 
L 61.0685 47.363002 
L 61.271816 46.425578 
L 61.475132 44.499671 
L 61.678447 39.14446 
L 61.881763 9.216 
L 62.49171 45.467961 
L 62.898342 48.126123 
L 63.304973 48.88071 
L 63.711604 49.157447 
L 64.524868 49.361962 
L 66.35471 49.475539 
L 71.844235 49.498904 
L 77.740391 49.309771 
L 79.1636 48.999006 
L 79.976863 48.648325 
L 80.58681 48.101545 
L 81.196757 47.170833 
L 81.603389 46.205164 
L 82.010021 44.829012 
L 82.619968 41.696031 
L 83.229915 37.097986 
L 84.043176 30.661848 
L 84.449809 29.288379 
L 85.059755 23.657849 
L 85.26307 23.435146 
L 85.466388 24.228119 
L 87.296228 38.004267 
L 88.516122 45.577792 
L 89.12607 47.836175 
L 89.532703 48.634228 
L 89.939333 49.088021 
L 90.549279 49.412816 
L 91.362543 49.531121 
L 113.727273 49.535413 
L 113.727273 49.535413 
" clip-path="url(#p6369742de6)" style="fill: none; stroke: #000000; stroke-width: 1.5; stroke-linecap: square"/>
   </g>
  </g>
 </g>
 <defs>
  <clipPath id="p6369742de6">
   <rect x="7.2" y="7.2" width="111.6" height="44.352"/>
  </clipPath>
 </defs>
</svg>
