<?xml version='1.0' encoding='ASCII' standalone='yes'?>
<svg xmlns="http://www.w3.org/2000/svg" xmlns:xlink="http://www.w3.org/1999/xlink" version="1.1" width="15.7cm" viewBox="0 0 15.7cm 7.6cm" height="7.6cm">
  <g>
    <g transform="translate(-5, -5) scale(1) ">
      <g transform="translate(0, 0) scale(1) translate(0, 0) scale(1.25) "><metadata>
  <rdf:RDF xmlns:dc="http://purl.org/dc/elements/1.1/" xmlns:cc="http://creativecommons.org/ns#" xmlns:rdf="http://www.w3.org/1999/02/22-rdf-syntax-ns#">
   <cc:Work>
    <dc:type rdf:resource="http://purl.org/dc/dcmitype/StillImage"/>
    <dc:date>2022-07-31T14:15:29.349483</dc:date>
    <dc:format>image/svg+xml</dc:format>
    <dc:creator>
     <cc:Agent>
      <dc:title>Matplotlib v3.5.1, https://matplotlib.org/</dc:title>
     </cc:Agent>
    </dc:creator>
   </cc:Work>
  </rdf:RDF>
 </metadata>
 <defs>
  <style type="text/css">*{stroke-linejoin: round; stroke-linecap: butt}</style>
 </defs>
 <g id="figure_1">
  <g id="patch_1">
   <path d="M 0 112.88375  L 482.444079 112.88375  L 482.444079 0  L 0 0  z " style="fill: #ffffff"/>
  </g>
  <g id="axes_1">
   <g id="patch_2">
    <path d="M 36.73 102.18375  L 151.266842 102.18375  L 151.266842 19.02375  L 36.73 19.02375  z " style="fill: #ffffff"/>
   </g>
   <g id="matplotlib.axis_1">
    <g id="xtick_1">
     <g id="line2d_1">
      <defs>
       <path id="md518c7ea69" d="M 0 0  L 0 3.5  " style="stroke: #000000; stroke-width: 1.5"/>
      </defs>
      <g>
       <use xlink:href="#md518c7ea69" x="59.290287" y="102.18375" style="stroke: #000000; stroke-width: 1.5"/>
      </g>
     </g>
    </g>
    <g id="xtick_2">
     <g id="line2d_2">
      <g>
       <use xlink:href="#md518c7ea69" x="93.998421" y="102.18375" style="stroke: #000000; stroke-width: 1.5"/>
      </g>
     </g>
    </g>
    <g id="xtick_3">
     <g id="line2d_3">
      <g>
       <use xlink:href="#md518c7ea69" x="128.706555" y="102.18375" style="stroke: #000000; stroke-width: 1.5"/>
      </g>
     </g>
    </g>
   </g>
   <g id="matplotlib.axis_2">
    <g id="ytick_1">
     <g id="line2d_4">
      <defs>
       <path id="m9901be19f1" d="M 0 0  L -3.5 0  " style="stroke: #000000; stroke-width: 1.5"/>
      </defs>
      <g>
       <use xlink:href="#m9901be19f1" x="36.73" y="98.40375" style="stroke: #000000; stroke-width: 1.5"/>
      </g>
     </g>
     <g id="text_1">
      <text style="font: 8px 'Arial'; text-anchor: end" x="29.73" y="101.266875" transform="rotate(-0, 29.73, 101.266875)">0.0</text>
     </g>
    </g>
    <g id="ytick_2">
     <g id="line2d_5">
      <g>
       <use xlink:href="#m9901be19f1" x="36.73" y="69.978586" style="stroke: #000000; stroke-width: 1.5"/>
      </g>
     </g>
     <g id="text_2">
      <text style="font: 8px 'Arial'; text-anchor: end" x="29.73" y="72.841711" transform="rotate(-0, 29.73, 72.841711)">0.5</text>
     </g>
    </g>
    <g id="ytick_3">
     <g id="line2d_6">
      <g>
       <use xlink:href="#m9901be19f1" x="36.73" y="41.553422" style="stroke: #000000; stroke-width: 1.5"/>
      </g>
     </g>
     <g id="text_3">
      <text style="font: 8px 'Arial'; text-anchor: end" x="29.73" y="44.416547" transform="rotate(-0, 29.73, 44.416547)">1.0</text>
     </g>
    </g>
    <g id="text_4">
     <text style="font: 8px 'Arial'; text-anchor: middle" x="12.92625" y="60.60375" transform="rotate(-90, 12.92625, 60.60375)">Density</text>
    </g>
   </g>
   <g id="line2d_7">
    <path d="M 41.93622 98.151798  L 42.977463 98.102651  L 44.018706 98.045211  L 45.059953 97.978346  L 46.101196 97.900826  L 47.142439 97.811316  L 48.183682 97.708384  L 49.22493 97.5905  L 50.266173 97.456049  L 51.307416 97.303339  L 52.348659 97.130614  L 53.389906 96.936069  L 54.431149 96.717877  L 55.472392 96.474207  L 56.513635 96.203253  L 57.554882 95.903267  L 58.596125 95.572598  L 59.637368 95.20972  L 60.678613 94.813278  L 61.719856 94.382135  L 62.761101 93.915408  L 63.802344 93.412515  L 64.843589 92.873221  L 65.884832 92.297679  L 66.926078 91.686468  L 67.967321 91.040633  L 69.008564 90.361705  L 70.049809 89.65174  L 71.091052 88.913326  L 72.132297 88.14959  L 73.17354 87.36421  L 74.214785 86.561383  L 75.256028 85.745827  L 76.297273 84.922719  L 77.338517 84.097687  L 78.379761 83.276715  L 79.421005 82.466113  L 80.462249 81.672411  L 81.503492 80.902304  L 82.544736 80.162537  L 83.58598 79.459821  L 84.627225 78.800734  L 85.668469 78.191609  L 86.709713 77.638447  L 87.750957 77.14681  L 88.792201 76.721727  L 89.833445 76.367619  L 90.874689 76.088206  L 91.915933 75.886459  L 92.957177 75.764538  L 93.998421 75.72375  L 95.039665 75.764538  L 96.080909 75.886459  L 97.122153 76.088206  L 98.163397 76.367619  L 99.204641 76.721727  L 100.245885 77.14681  L 101.287129 77.638447  L 102.328373 78.191609  L 103.369618 78.800734  L 104.410862 79.459821  L 105.452106 80.162537  L 106.49335 80.902304  L 107.534593 81.672411  L 108.575837 82.466113  L 109.617081 83.276715  L 110.658325 84.097687  L 111.699569 84.922719  L 112.740814 85.745827  L 113.782057 86.561383  L 114.823302 87.36421  L 115.864545 88.14959  L 116.90579 88.913326  L 117.947033 89.65174  L 118.988279 90.361705  L 120.029522 91.040633  L 121.070765 91.686468  L 122.11201 92.297679  L 123.153253 92.873221  L 124.194498 93.412515  L 125.235741 93.915408  L 126.276986 94.382135  L 127.318229 94.813278  L 128.359474 95.20972  L 129.400717 95.572598  L 130.44196 95.903267  L 131.483207 96.203253  L 132.52445 96.474207  L 133.565693 96.717877  L 134.606936 96.936069  L 135.648183 97.130614  L 136.689426 97.303339  L 137.73067 97.456049  L 138.771913 97.5905  L 139.81316 97.708384  L 140.854403 97.811316  L 141.895646 97.900826  L 142.936889 97.978346  L 143.978136 98.045211  L 145.019379 98.102651  L 146.060622 98.151798  " clip-path="url(#p8d8ccad756)" style="fill: none; stroke: #1f78b4; stroke-width: 1.5; stroke-linecap: square"/>
   </g>
   <g id="line2d_8">
    <path d="M 41.93622 98.40375  L 42.977463 98.40375  L 44.018706 98.40375  L 45.059953 98.40375  L 46.101196 98.40375  L 47.142439 98.40375  L 48.183682 98.40375  L 49.22493 98.40375  L 50.266173 98.40375  L 51.307416 98.40375  L 52.348659 98.40375  L 53.389906 98.40375  L 54.431149 98.40375  L 55.472392 98.40375  L 56.513635 98.40375  L 57.554882 98.40375  L 58.596125 98.40375  L 59.637368 98.40375  L 60.678613 98.40375  L 61.719856 98.40375  L 62.761101 98.40375  L 63.802344 98.40375  L 64.843589 98.40375  L 65.884832 98.40375  L 66.926078 98.40375  L 67.967321 98.403749  L 69.008564 98.403746  L 70.049809 98.403738  L 71.091052 98.403715  L 72.132297 98.403648  L 73.17354 98.403468  L 74.214785 98.402999  L 75.256028 98.401828  L 76.297273 98.399023  L 77.338517 98.39258  L 78.379761 98.378389  L 79.421005 98.348426  L 80.462249 98.287794  L 81.503492 98.170243  L 82.544736 97.951963  L 83.58598 97.56391  L 84.627225 96.903764  L 85.668469 95.829761  L 86.709713 94.159961  L 87.750957 91.681277  L 88.792201 88.172403  L 89.833445 83.442608  L 90.874689 77.38413  L 91.915933 70.030233  L 92.957177 61.605278  L 93.998421 52.550032  L 95.039665 43.506884  L 96.080909 35.257319  L 97.122153 28.616159  L 98.163397 24.300727  L 99.204641 22.80375  L 100.245885 24.300727  L 101.287129 28.616146  L 102.328373 35.257319  L 103.369618 43.506884  L 104.410862 52.550032  L 105.452106 61.605278  L 106.49335 70.030233  L 107.534593 77.384124  L 108.575837 83.442605  L 109.617081 88.172399  L 110.658325 91.681274  L 111.699569 94.159961  L 112.740814 95.829763  L 113.782057 96.903763  L 114.823302 97.56391  L 115.864545 97.951963  L 116.90579 98.170243  L 117.947033 98.287794  L 118.988279 98.348426  L 120.029522 98.378389  L 121.070765 98.39258  L 122.11201 98.399023  L 123.153253 98.401828  L 124.194498 98.402999  L 125.235741 98.403468  L 126.276986 98.403648  L 127.318229 98.403715  L 128.359474 98.403738  L 129.400717 98.403746  L 130.44196 98.403749  L 131.483207 98.40375  L 132.52445 98.40375  L 133.565693 98.40375  L 134.606936 98.40375  L 135.648183 98.40375  L 136.689426 98.40375  L 137.73067 98.40375  L 138.771913 98.40375  L 139.81316 98.40375  L 140.854403 98.40375  L 141.895646 98.40375  L 142.936889 98.40375  L 143.978136 98.40375  L 145.019379 98.40375  L 146.060622 98.40375  " clip-path="url(#p8d8ccad756)" style="fill: none; stroke: #fc8d59; stroke-width: 1.5; stroke-linecap: square"/>
   </g>
   <g id="line2d_9">
    <path d="M 41.93622 98.40375  L 42.977463 98.40375  L 44.018706 98.40375  L 45.059953 98.40375  L 46.101196 98.40375  L 47.142439 98.40375  L 48.183682 98.40375  L 49.22493 98.40375  L 50.266173 98.40375  L 51.307416 98.40375  L 52.348659 98.40375  L 53.389906 98.40375  L 54.431149 98.40375  L 55.472392 98.40375  L 56.513635 98.40375  L 57.554882 98.40375  L 58.596125 98.40375  L 59.637368 98.40375  L 60.678613 98.40375  L 61.719856 98.40375  L 62.761101 98.40375  L 63.802344 98.40375  L 64.843589 98.40375  L 65.884832 98.40375  L 66.926078 98.40375  L 67.967321 98.40375  L 69.008564 98.40375  L 70.049809 98.40375  L 71.091052 98.40375  L 72.132297 98.40375  L 73.17354 98.40375  L 74.214785 98.40375  L 75.256028 98.40375  L 76.297273 98.40375  L 77.338517 98.40375  L 78.379761 98.40375  L 79.421005 98.403749  L 80.462249 98.403748  L 81.503492 98.403744  L 82.544736 98.403733  L 83.58598 98.4037  L 84.627225 98.403607  L 85.668469 98.403358  L 86.709713 98.402719  L 87.750957 98.401144  L 88.792201 98.397426  L 89.833445 98.389004  L 90.874689 98.370712  L 91.915933 98.332633  L 92.957177 98.256668  L 93.998421 98.111486  L 95.039665 97.84577  L 96.080909 97.380244  L 97.122153 96.59994  L 98.163397 95.349398  L 99.204641 93.434672  L 100.245885 90.636618  L 101.287129 86.739051  L 102.328373 81.572551  L 103.369618 75.069997  L 104.410862 67.323659  L 105.452106 58.628924  L 106.49335 49.497714  L 107.534593 40.628106  L 108.575837 32.826161  L 109.617081 26.889215  L 110.658325 23.47277  L 111.699569 22.971557  L 112.740814 25.44453  L 113.782057 30.603398  L 114.823302 37.868008  L 115.864545 46.473537  L 116.90579 55.602504  L 117.947033 64.509883  L 118.988279 72.615976  L 120.029522 79.552721  L 121.070765 85.163857  L 122.11201 89.469424  L 123.153253 92.611227  L 124.194498 94.795459  L 125.235741 96.244197  L 126.276986 97.161943  L 127.318229 97.717673  L 128.359474 98.039567  L 129.400717 98.218015  L 130.44196 98.312738  L 131.483207 98.360902  L 132.52445 98.384368  L 133.565693 98.395327  L 134.606936 98.400233  L 135.648183 98.402339  L 136.689426 98.403206  L 137.73067 98.403549  L 138.771913 98.403678  L 139.81316 98.403725  L 140.854403 98.403742  L 141.895646 98.403747  L 142.936889 98.403749  L 143.978136 98.40375  L 145.019379 98.40375  L 146.060622 98.40375  " clip-path="url(#p8d8ccad756)" style="fill: none; stroke: #b30000; stroke-width: 1.5; stroke-linecap: square"/>
   </g>
   <g id="patch_3">
    <path d="M 36.73 102.18375  L 36.73 19.02375  " style="fill: none; stroke: #000000; stroke-width: 1.5; stroke-linejoin: miter; stroke-linecap: square"/>
   </g>
   <g id="patch_4">
    <path d="M 36.73 102.18375  L 151.266842 102.18375  " style="fill: none; stroke: #000000; stroke-width: 1.5; stroke-linejoin: miter; stroke-linecap: square"/>
   </g>
   <g id="text_5">
    <text style="font: 8px 'Arial'; text-anchor: middle" x="93.998421" y="13.02375" transform="rotate(-0, 93.998421, 13.02375)">Problem setup</text>
   </g>
   <g id="legend_1">
    <g id="line2d_10">
     <path d="M 43.93 29.15  L 45.53 29.15  L 47.13 29.15  " style="fill: none; stroke: #1f78b4; stroke-width: 1.5; stroke-linecap: square"/>
    </g>
    <g id="text_6">
     <text style="font: 8px 'Arial'; text-anchor: start" x="48.33" y="31.95" transform="rotate(-0, 48.33, 31.95)">Prior</text>
    </g>
    <g id="line2d_11">
     <path d="M 43.93 40.46625  L 45.53 40.46625  L 47.13 40.46625  " style="fill: none; stroke: #fc8d59; stroke-width: 1.5; stroke-linecap: square"/>
    </g>
    <g id="text_7">
     <text style="font: 8px 'Arial'; text-anchor: start" x="48.33" y="43.26625" transform="rotate(-0, 48.33, 43.26625)">Posterior A</text>
    </g>
    <g id="line2d_12">
     <path d="M 43.93 51.7825  L 45.53 51.7825  L 47.13 51.7825  " style="fill: none; stroke: #b30000; stroke-width: 1.5; stroke-linecap: square"/>
    </g>
    <g id="text_8">
     <text style="font: 8px 'Arial'; text-anchor: start" x="48.33" y="54.5825" transform="rotate(-0, 48.33, 54.5825)">Posterior B</text>
    </g>
   </g>
  </g>
  <g id="axes_2">
   <g id="patch_5">
    <path d="M 197.081579 102.18375  L 311.618421 102.18375  L 311.618421 19.02375  L 197.081579 19.02375  z " style="fill: #ffffff"/>
   </g>
   <g id="matplotlib.axis_3">
    <g id="xtick_4">
     <g id="line2d_13">
      <g>
       <use xlink:href="#md518c7ea69" x="219.817159" y="102.18375" style="stroke: #000000; stroke-width: 1.5"/>
      </g>
     </g>
    </g>
    <g id="xtick_5">
     <g id="line2d_14">
      <g>
       <use xlink:href="#md518c7ea69" x="254.87588" y="102.18375" style="stroke: #000000; stroke-width: 1.5"/>
      </g>
     </g>
    </g>
    <g id="xtick_6">
     <g id="line2d_15">
      <g>
       <use xlink:href="#md518c7ea69" x="289.934601" y="102.18375" style="stroke: #000000; stroke-width: 1.5"/>
      </g>
     </g>
    </g>
   </g>
   <g id="matplotlib.axis_4">
    <g id="ytick_4">
     <g id="line2d_16">
      <g>
       <use xlink:href="#m9901be19f1" x="197.081579" y="98.40375" style="stroke: #000000; stroke-width: 1.5"/>
      </g>
     </g>
     <g id="text_9">
      <text style="font: 8px 'Arial'; text-anchor: end" x="190.081579" y="101.266875" transform="rotate(-0, 190.081579, 101.266875)">0.0</text>
     </g>
    </g>
    <g id="ytick_5">
     <g id="line2d_17">
      <g>
       <use xlink:href="#m9901be19f1" x="197.081579" y="77.620249" style="stroke: #000000; stroke-width: 1.5"/>
      </g>
     </g>
     <g id="text_10">
      <text style="font: 8px 'Arial'; text-anchor: end" x="190.081579" y="80.483374" transform="rotate(-0, 190.081579, 80.483374)">0.2</text>
     </g>
    </g>
    <g id="ytick_6">
     <g id="line2d_18">
      <g>
       <use xlink:href="#m9901be19f1" x="197.081579" y="56.836748" style="stroke: #000000; stroke-width: 1.5"/>
      </g>
     </g>
     <g id="text_11">
      <text style="font: 8px 'Arial'; text-anchor: end" x="190.081579" y="59.699873" transform="rotate(-0, 190.081579, 59.699873)">0.4</text>
     </g>
    </g>
    <g id="ytick_7">
     <g id="line2d_19">
      <g>
       <use xlink:href="#m9901be19f1" x="197.081579" y="36.053248" style="stroke: #000000; stroke-width: 1.5"/>
      </g>
     </g>
     <g id="text_12">
      <text style="font: 8px 'Arial'; text-anchor: end" x="190.081579" y="38.916373" transform="rotate(-0, 190.081579, 38.916373)">0.6</text>
     </g>
    </g>
    <g id="text_13">
     <text style="font: 8px 'Arial'; text-anchor: middle" x="173.277829" y="60.60375" transform="rotate(-90, 173.277829, 60.60375)">Histogram density</text>
    </g>
   </g>
   <g id="line2d_20">
    <path d="M 202.287799 98.40375  L 203.33956 98.40375  L 204.39132 98.40375  L 205.443085 98.40375  L 206.494846 98.40375  L 207.546606 98.40375  L 208.598367 98.40375  L 209.650132 98.40375  L 210.701892 98.40375  L 211.753653 98.40375  L 212.805414 98.40375  L 213.857178 98.40375  L 214.908939 98.40375  L 215.9607 98.40375  L 217.01246 98.40375  L 218.064225 98.40375  L 219.115986 98.40375  L 220.167746 98.40375  L 221.219509 98.40375  L 222.27127 98.40375  L 223.323032 98.40375  L 224.374793 98.40375  L 225.426556 98.40375  L 226.478316 98.40375  L 227.530079 98.40375  L 228.58184 98.40375  L 229.6336 98.40375  L 230.685363 98.40375  L 231.737124 98.40375  L 232.788886 98.40375  L 233.840647 98.40375  L 234.89241 98.40375  L 235.94417 98.40375  L 236.995933 98.40375  L 238.047695 98.40375  L 239.099456 97.918802  L 240.151218 96.204163  L 241.20298 93.277148  L 242.25474 90.436742  L 243.306502 84.426846  L 244.358264 75.420663  L 245.410025 68.908514  L 246.461787 57.616131  L 247.513549 50.168686  L 248.56531 42.773248  L 249.617072 35.897389  L 250.668834 30.909317  L 251.720595 27.878415  L 252.772357 26.406238  L 253.824119 23.202115  L 254.87588 24.033455  L 255.927642 23.583145  L 256.979404 24.102747  L 258.031165 22.80375  L 259.082927 24.570385  L 260.134689 27.393458  L 261.18645 28.346001  L 262.238211 30.788097  L 263.289973 31.030604  L 264.341735 36.243765  L 265.393497 38.027683  L 266.445259 40.487063  L 267.49702 44.591751  L 268.548781 48.003763  L 269.600543 51.640875  L 270.652304 56.195925  L 271.704066 60.612419  L 272.755828 68.215746  L 273.80759 74.727856  L 274.859351 81.22274  L 275.911114 86.816937  L 276.962874 91.21613  L 278.014637 94.021891  L 279.066398 96.134887  L 280.11816 97.936121  L 281.169921 98.40375  L 282.221682 98.40375  L 283.273444 98.40375  L 284.325205 98.40375  L 285.376968 98.40375  L 286.428728 98.40375  L 287.480491 98.40375  L 288.532252 98.40375  L 289.584014 98.40375  L 290.635775 98.40375  L 291.687536 98.40375  L 292.7393 98.40375  L 293.791061 98.40375  L 294.842822 98.40375  L 295.894582 98.40375  L 296.946347 98.40375  L 297.998108 98.40375  L 299.049868 98.40375  L 300.101629 98.40375  L 301.153394 98.40375  L 302.205154 98.40375  L 303.256915 98.40375  L 304.308676 98.40375  L 305.36044 98.40375  L 306.412201 98.40375  " clip-path="url(#pda45c706f2)" style="fill: none; stroke: #9ebcda; stroke-width: 1.5; stroke-linecap: square"/>
   </g>
   <g id="line2d_21">
    <path d="M 202.287799 98.40375  L 203.33956 98.40375  L 204.39132 98.40375  L 205.443085 98.40375  L 206.494846 98.40375  L 207.546606 98.40375  L 208.598367 98.40375  L 209.650132 98.40375  L 210.701892 98.40375  L 211.753653 98.40375  L 212.805414 98.40375  L 213.857178 98.40375  L 214.908939 98.40375  L 215.9607 98.40375  L 217.01246 98.40375  L 218.064225 98.40375  L 219.115986 98.40375  L 220.167746 98.40375  L 221.219509 98.40375  L 222.27127 98.40375  L 223.323032 98.40375  L 224.374793 98.40375  L 225.426556 98.40375  L 226.478316 98.40375  L 227.530079 98.40375  L 228.58184 98.40375  L 229.6336 98.40375  L 230.685363 98.40375  L 231.737124 98.40375  L 232.788886 98.40375  L 233.840647 98.40375  L 234.89241 98.40375  L 235.94417 98.40375  L 236.995933 98.40375  L 238.047695 98.40375  L 239.099456 96.481276  L 240.151218 90.471381  L 241.20298 84.253636  L 242.25474 76.944786  L 243.306502 66.431799  L 244.358264 58.949739  L 245.410025 52.40296  L 246.461787 47.986443  L 247.513549 43.136932  L 248.56531 39.898198  L 249.617072 36.832647  L 250.668834 36.209111  L 251.720595 34.685011  L 252.772357 32.433453  L 253.824119 32.260257  L 254.87588 31.567474  L 255.927642 33.489948  L 256.979404 34.200063  L 258.031165 33.559214  L 259.082927 36.746049  L 260.134689 37.975724  L 261.18645 37.681261  L 262.238211 39.413249  L 263.289973 42.149771  L 264.341735 44.609124  L 265.393497 43.639228  L 266.445259 45.994691  L 267.49702 48.921651  L 268.548781 52.333658  L 269.600543 53.961699  L 270.652304 57.927884  L 271.704066 60.820254  L 272.755828 64.024411  L 273.80759 66.639603  L 274.859351 72.44172  L 275.911114 79.092395  L 276.962874 81.898203  L 278.014637 87.14601  L 279.066398 91.995511  L 280.11816 96.585192  L 281.169921 98.40375  L 282.221682 98.40375  L 283.273444 98.40375  L 284.325205 98.40375  L 285.376968 98.40375  L 286.428728 98.40375  L 287.480491 98.40375  L 288.532252 98.40375  L 289.584014 98.40375  L 290.635775 98.40375  L 291.687536 98.40375  L 292.7393 98.40375  L 293.791061 98.40375  L 294.842822 98.40375  L 295.894582 98.40375  L 296.946347 98.40375  L 297.998108 98.40375  L 299.049868 98.40375  L 300.101629 98.40375  L 301.153394 98.40375  L 302.205154 98.40375  L 303.256915 98.40375  L 304.308676 98.40375  L 305.36044 98.40375  L 306.412201 98.40375  " clip-path="url(#pda45c706f2)" style="fill: none; stroke: #8c6bb1; stroke-width: 1.5; stroke-linecap: square"/>
   </g>
   <g id="line2d_22">
    <path d="M 202.287799 98.40375  L 203.33956 98.40375  L 204.39132 98.40375  L 205.443085 98.40375  L 206.494846 98.40375  L 207.546606 98.40375  L 208.598367 98.40375  L 209.650132 98.40375  L 210.701892 98.40375  L 211.753653 98.40375  L 212.805414 98.40375  L 213.857178 98.40375  L 214.908939 98.40375  L 215.9607 98.40375  L 217.01246 98.40375  L 218.064225 98.40375  L 219.115986 98.40375  L 220.167746 98.40375  L 221.219509 98.40375  L 222.27127 98.40375  L 223.323032 98.40375  L 224.374793 98.40375  L 225.426556 98.40375  L 226.478316 98.40375  L 227.530079 98.40375  L 228.58184 98.40375  L 229.6336 98.40375  L 230.685363 98.40375  L 231.737124 98.40375  L 232.788886 98.40375  L 233.840647 98.40375  L 234.89241 98.40375  L 235.94417 98.40375  L 236.995933 98.40375  L 238.047695 98.40375  L 239.099456 93.103958  L 240.151218 78.815301  L 241.20298 70.553832  L 242.25474 61.80747  L 243.306502 56.784791  L 244.358264 51.658195  L 245.410025 48.436777  L 246.461787 44.106856  L 247.513549 42.669303  L 248.56531 41.249125  L 249.617072 42.600066  L 250.668834 41.907255  L 251.720595 39.343978  L 252.772357 37.612009  L 253.824119 38.200875  L 254.87588 38.599225  L 255.927642 38.876338  L 256.979404 39.880885  L 258.031165 37.750554  L 259.082927 40.539036  L 260.134689 40.331187  L 261.18645 43.22353  L 262.238211 43.621908  L 263.289973 46.410387  L 264.341735 47.761288  L 265.393497 49.631803  L 266.445259 51.398401  L 267.49702 53.805779  L 268.548781 55.451183  L 269.600543 56.83675  L 270.652304 59.988914  L 271.704066 62.690769  L 272.755828 63.955133  L 273.80759 66.708881  L 274.859351 70.190177  L 275.911114 73.307649  L 276.962874 75.767077  L 278.014637 80.131571  L 279.066398 84.84253  L 280.11816 93.64086  L 281.169921 98.40375  L 282.221682 98.40375  L 283.273444 98.40375  L 284.325205 98.40375  L 285.376968 98.40375  L 286.428728 98.40375  L 287.480491 98.40375  L 288.532252 98.40375  L 289.584014 98.40375  L 290.635775 98.40375  L 291.687536 98.40375  L 292.7393 98.40375  L 293.791061 98.40375  L 294.842822 98.40375  L 295.894582 98.40375  L 296.946347 98.40375  L 297.998108 98.40375  L 299.049868 98.40375  L 300.101629 98.40375  L 301.153394 98.40375  L 302.205154 98.40375  L 303.256915 98.40375  L 304.308676 98.40375  L 305.36044 98.40375  L 306.412201 98.40375  " clip-path="url(#pda45c706f2)" style="fill: none; stroke: #810f7c; stroke-width: 1.5; stroke-linecap: square"/>
   </g>
   <g id="line2d_23">
    <path d="M 202.287799 98.40375  L 203.33956 98.40375  L 204.39132 98.40375  L 205.443085 98.40375  L 206.494846 98.40375  L 207.546606 98.40375  L 208.598367 98.40375  L 209.650132 98.40375  L 210.701892 98.40375  L 211.753653 98.40375  L 212.805414 98.40375  L 213.857178 98.40375  L 214.908939 98.40375  L 215.9607 98.40375  L 217.01246 98.40375  L 218.064225 98.40375  L 219.115986 98.40375  L 220.167746 98.40375  L 221.219509 98.40375  L 222.27127 98.40375  L 223.323032 98.40375  L 224.374793 98.40375  L 225.426556 98.40375  L 226.478316 98.40375  L 227.530079 98.40375  L 228.58184 98.40375  L 229.6336 98.40375  L 230.685363 98.40375  L 231.737124 98.40375  L 232.788886 98.40375  L 233.840647 98.40375  L 234.89241 98.40375  L 235.94417 98.40375  L 236.995933 98.40375  L 238.047695 98.40375  L 239.099456 86.76499  L 240.151218 64.526645  L 241.20298 60.439186  L 242.25474 56.473039  L 243.306502 53.771184  L 244.358264 51.554277  L 245.410025 47.432242  L 246.461787 46.600876  L 247.513549 44.141468  L 248.56531 43.223558  L 249.617072 43.102334  L 250.668834 41.145193  L 251.720595 41.682122  L 252.772357 40.937369  L 253.824119 40.573658  L 254.87588 41.283761  L 255.927642 41.578194  L 256.979404 40.833462  L 258.031165 41.145193  L 259.082927 43.518004  L 260.134689 44.487887  L 261.18645 45.734871  L 262.238211 47.189742  L 263.289973 47.518839  L 264.341735 50.445824  L 265.393497 51.502318  L 266.445259 55.070153  L 267.49702 54.325367  L 268.548781 56.923348  L 269.600543 57.754688  L 270.652304 60.716337  L 271.704066 63.868501  L 272.755828 65.167503  L 273.80759 68.856511  L 274.859351 69.583992  L 275.911114 71.852802  L 276.962874 74.970377  L 278.014637 77.360435  L 279.066398 79.23099  L 280.11816 90.904363  L 281.169921 98.40375  L 282.221682 98.40375  L 283.273444 98.40375  L 284.325205 98.40375  L 285.376968 98.40375  L 286.428728 98.40375  L 287.480491 98.40375  L 288.532252 98.40375  L 289.584014 98.40375  L 290.635775 98.40375  L 291.687536 98.40375  L 292.7393 98.40375  L 293.791061 98.40375  L 294.842822 98.40375  L 295.894582 98.40375  L 296.946347 98.40375  L 297.998108 98.40375  L 299.049868 98.40375  L 300.101629 98.40375  L 301.153394 98.40375  L 302.205154 98.40375  L 303.256915 98.40375  L 304.308676 98.40375  L 305.36044 98.40375  L 306.412201 98.40375  " clip-path="url(#pda45c706f2)" style="fill: none; stroke: #4d004b; stroke-width: 1.5; stroke-linecap: square"/>
   </g>
   <g id="patch_6">
    <path d="M 197.081579 102.18375  L 197.081579 19.02375  " style="fill: none; stroke: #000000; stroke-width: 1.5; stroke-linejoin: miter; stroke-linecap: square"/>
   </g>
   <g id="patch_7">
    <path d="M 197.081579 102.18375  L 311.618421 102.18375  " style="fill: none; stroke: #000000; stroke-width: 1.5; stroke-linejoin: miter; stroke-linecap: square"/>
   </g>
   <g id="text_14">
    <text style="font: 8px 'Arial'; text-anchor: middle" x="254.35" y="13.02375" transform="rotate(-0, 254.35, 13.02375)">Truncated proposal for posterior A</text>
   </g>
   <g id="legend_2">
    <g id="line2d_24">
     <path d="M 204.281579 29.15  L 205.881579 29.15  L 207.481579 29.15  " style="fill: none; stroke: #238b45; stroke-width: 1.5; stroke-linecap: square"/>
    </g>
    <g id="text_15">
     <text style="font: 8px 'Arial'; text-anchor: start" x="208.681579" y="31.95" transform="rotate(-0, 208.681579, 31.95)">Rejection</text>
    </g>
    <g id="line2d_25">
     <path d="M 204.281579 40.56  L 205.881579 40.56  L 207.481579 40.56  " style="fill: none; stroke: #9ebcda; stroke-width: 1.5; stroke-linecap: square"/>
    </g>
    <g id="text_16">
     <text style="font: 8px 'Arial'; text-anchor: start" x="208.681579" y="43.36" transform="rotate(-0, 208.681579, 43.36)">K=16</text>
    </g>
    <g id="line2d_26">
     <path d="M 204.281579 51.87625  L 205.881579 51.87625  L 207.481579 51.87625  " style="fill: none; stroke: #8c6bb1; stroke-width: 1.5; stroke-linecap: square"/>
    </g>
    <g id="text_17">
     <text style="font: 8px 'Arial'; text-anchor: start" x="208.681579" y="54.67625" transform="rotate(-0, 208.681579, 54.67625)">K=64</text>
    </g>
    <g id="line2d_27">
     <path d="M 204.281579 63.1925  L 205.881579 63.1925  L 207.481579 63.1925  " style="fill: none; stroke: #810f7c; stroke-width: 1.5; stroke-linecap: square"/>
    </g>
    <g id="text_18">
     <text style="font: 8px 'Arial'; text-anchor: start" x="208.681579" y="65.9925" transform="rotate(-0, 208.681579, 65.9925)">K=256</text>
    </g>
    <g id="line2d_28">
     <path d="M 204.281579 74.50875  L 205.881579 74.50875  L 207.481579 74.50875  " style="fill: none; stroke: #4d004b; stroke-width: 1.5; stroke-linecap: square"/>
    </g>
    <g id="text_19">
     <text style="font: 8px 'Arial'; text-anchor: start" x="208.681579" y="77.30875" transform="rotate(-0, 208.681579, 77.30875)">K=1024</text>
    </g>
   </g>
   <g id="line2d_29">
    <path d="M 202.287799 98.40375  L 203.33956 98.40375  L 204.39132 98.40375  L 205.443085 98.40375  L 206.494846 98.40375  L 207.546606 98.40375  L 208.598367 98.40375  L 209.650132 98.40375  L 210.701892 98.40375  L 211.753653 98.40375  L 212.805414 98.40375  L 213.857178 98.40375  L 214.908939 98.40375  L 215.9607 98.40375  L 217.01246 98.40375  L 218.064225 98.40375  L 219.115986 98.40375  L 220.167746 98.40375  L 221.219509 98.40375  L 222.27127 98.40375  L 223.323032 98.40375  L 224.374793 98.40375  L 225.426556 98.40375  L 226.478316 98.40375  L 227.530079 98.40375  L 228.58184 98.40375  L 229.6336 98.40375  L 230.685363 98.40375  L 231.737124 98.40375  L 232.788886 98.40375  L 233.840647 98.40375  L 234.89241 98.40375  L 235.94417 98.40375  L 236.995933 98.40375  L 238.047695 98.40375  L 239.099456 82.123342  L 240.151218 58.49943  L 241.20298 55.624337  L 242.25474 52.212421  L 243.306502 52.870565  L 244.358264 51.052009  L 245.410025 49.441312  L 246.461787 46.063969  L 247.513549 45.024768  L 248.56531 45.838815  L 249.617072 42.617386  L 250.668834 43.119626  L 251.720595 43.188925  L 252.772357 43.188915  L 253.824119 41.197163  L 254.87588 42.652008  L 255.927642 40.157988  L 256.979404 42.461503  L 258.031165 42.565399  L 259.082927 42.652025  L 260.134689 43.621908  L 261.18645 46.496933  L 262.238211 47.69201  L 263.289973 48.228942  L 264.341735 52.887885  L 265.393497 53.961699  L 266.445259 54.030978  L 267.49702 56.663513  L 268.548781 56.074688  L 269.600543 59.452007  L 270.652304 62.829326  L 271.704066 63.556748  L 272.755828 65.66977  L 273.80759 68.163727  L 274.859351 70.692444  L 275.911114 71.991359  L 276.962874 74.520068  L 278.014637 76.425177  L 279.066398 78.105219  L 280.11816 90.575291  L 281.169921 98.40375  L 282.221682 98.40375  L 283.273444 98.40375  L 284.325205 98.40375  L 285.376968 98.40375  L 286.428728 98.40375  L 287.480491 98.40375  L 288.532252 98.40375  L 289.584014 98.40375  L 290.635775 98.40375  L 291.687536 98.40375  L 292.7393 98.40375  L 293.791061 98.40375  L 294.842822 98.40375  L 295.894582 98.40375  L 296.946347 98.40375  L 297.998108 98.40375  L 299.049868 98.40375  L 300.101629 98.40375  L 301.153394 98.40375  L 302.205154 98.40375  L 303.256915 98.40375  L 304.308676 98.40375  L 305.36044 98.40375  L 306.412201 98.40375  " clip-path="url(#pda45c706f2)" style="fill: none; stroke: #238b45; stroke-width: 1.5; stroke-linecap: square"/>
   </g>
  </g>
  <g id="axes_3">
   <g id="patch_8">
    <path d="M 357.433158 102.18375  L 471.97 102.18375  L 471.97 19.02375  L 357.433158 19.02375  z " style="fill: #ffffff"/>
   </g>
   <g id="matplotlib.axis_5">
    <g id="xtick_7">
     <g id="line2d_30">
      <g>
       <use xlink:href="#md518c7ea69" x="380.168738" y="102.18375" style="stroke: #000000; stroke-width: 1.5"/>
      </g>
     </g>
    </g>
    <g id="xtick_8">
     <g id="line2d_31">
      <g>
       <use xlink:href="#md518c7ea69" x="415.227459" y="102.18375" style="stroke: #000000; stroke-width: 1.5"/>
      </g>
     </g>
    </g>
    <g id="xtick_9">
     <g id="line2d_32">
      <g>
       <use xlink:href="#md518c7ea69" x="450.28618" y="102.18375" style="stroke: #000000; stroke-width: 1.5"/>
      </g>
     </g>
    </g>
   </g>
   <g id="matplotlib.axis_6">
    <g id="ytick_8">
     <g id="line2d_33">
      <g>
       <use xlink:href="#m9901be19f1" x="357.433158" y="98.40375" style="stroke: #000000; stroke-width: 1.5"/>
      </g>
     </g>
     <g id="text_20">
      <text style="font: 8px 'Arial'; text-anchor: end" x="350.433158" y="101.266875" transform="rotate(-0, 350.433158, 101.266875)">0.0</text>
     </g>
    </g>
    <g id="ytick_9">
     <g id="line2d_34">
      <g>
       <use xlink:href="#m9901be19f1" x="357.433158" y="80.859754" style="stroke: #000000; stroke-width: 1.5"/>
      </g>
     </g>
     <g id="text_21">
      <text style="font: 8px 'Arial'; text-anchor: end" x="350.433158" y="83.722879" transform="rotate(-0, 350.433158, 83.722879)">0.2</text>
     </g>
    </g>
    <g id="ytick_10">
     <g id="line2d_35">
      <g>
       <use xlink:href="#m9901be19f1" x="357.433158" y="63.315758" style="stroke: #000000; stroke-width: 1.5"/>
      </g>
     </g>
     <g id="text_22">
      <text style="font: 8px 'Arial'; text-anchor: end" x="350.433158" y="66.178883" transform="rotate(-0, 350.433158, 66.178883)">0.4</text>
     </g>
    </g>
    <g id="ytick_11">
     <g id="line2d_36">
      <g>
       <use xlink:href="#m9901be19f1" x="357.433158" y="45.771762" style="stroke: #000000; stroke-width: 1.5"/>
      </g>
     </g>
     <g id="text_23">
      <text style="font: 8px 'Arial'; text-anchor: end" x="350.433158" y="48.634887" transform="rotate(-0, 350.433158, 48.634887)">0.6</text>
     </g>
    </g>
    <g id="ytick_12">
     <g id="line2d_37">
      <g>
       <use xlink:href="#m9901be19f1" x="357.433158" y="28.227766" style="stroke: #000000; stroke-width: 1.5"/>
      </g>
     </g>
     <g id="text_24">
      <text style="font: 8px 'Arial'; text-anchor: end" x="350.433158" y="31.090891" transform="rotate(-0, 350.433158, 31.090891)">0.8</text>
     </g>
    </g>
    <g id="text_25">
     <text style="font: 8px 'Arial'; text-anchor: middle" x="333.629408" y="60.60375" transform="rotate(-90, 333.629408, 60.60375)">Histogram density</text>
    </g>
   </g>
   <g id="line2d_38">
    <path d="M 362.639378 98.40375  L 363.691139 98.40375  L 364.742899 98.40375  L 365.794664 98.40375  L 366.846425 98.40375  L 367.898185 98.40375  L 368.949946 98.40375  L 370.001711 98.40375  L 371.053471 98.40375  L 372.105232 98.40375  L 373.156993 98.40375  L 374.208757 98.40375  L 375.260518 98.40375  L 376.312279 98.40375  L 377.364039 98.40375  L 378.415804 98.40375  L 379.467565 98.40375  L 380.519325 98.40375  L 381.571088 98.40375  L 382.622849 98.40375  L 383.674611 98.40375  L 384.726372 98.40375  L 385.778135 98.40375  L 386.829895 98.40375  L 387.881658 98.40375  L 388.933419 98.40375  L 389.985179 98.40375  L 391.036942 98.40375  L 392.088703 98.40375  L 393.140465 98.40375  L 394.192226 98.40375  L 395.243989 98.40375  L 396.295749 98.40375  L 397.347512 98.40375  L 398.399274 98.40375  L 399.451035 98.40375  L 400.502797 98.40375  L 401.554559 98.40375  L 402.606319 98.40375  L 403.658081 98.40375  L 404.709843 98.40375  L 405.761604 98.40375  L 406.813366 98.40375  L 407.865128 98.40375  L 408.916889 98.40375  L 409.968651 98.40375  L 411.020413 98.40375  L 412.072174 97.24877  L 413.123936 96.23999  L 414.175698 93.666871  L 415.227459 89.266252  L 416.279221 83.125853  L 417.330982 74.821699  L 418.382744 64.953191  L 419.434506 52.409254  L 420.486268 41.020265  L 421.538029 33.373975  L 422.58979 27.730689  L 423.641552 24.368126  L 424.693314 22.80375  L 425.745076 22.86223  L 426.796838 24.11955  L 427.848599 26.575638  L 428.90036 30.011408  L 429.952122 31.882768  L 431.003883 35.932507  L 432.055645 38.300946  L 433.107407 41.561262  L 434.159169 46.868212  L 435.21093 47.380014  L 436.262693 52.438436  L 437.314453 55.157844  L 438.366216 59.075921  L 439.417977 62.131576  L 440.469739 66.342067  L 441.5215 69.938589  L 442.573261 71.795383  L 443.625023 77.131634  L 444.676784 79.207714  L 445.728547 82.248638  L 446.780307 86.210685  L 447.83207 89.485543  L 448.883831 91.473879  L 449.935593 94.061607  L 450.987354 95.742908  L 452.039114 96.941755  L 453.090879 98.24293  L 454.14264 98.40375  L 455.194401 98.40375  L 456.246161 98.40375  L 457.297926 98.40375  L 458.349687 98.40375  L 459.401447 98.40375  L 460.453208 98.40375  L 461.504973 98.40375  L 462.556733 98.40375  L 463.608494 98.40375  L 464.660254 98.40375  L 465.712019 98.40375  L 466.76378 98.40375  " clip-path="url(#p869e8d6771)" style="fill: none; stroke: #9ebcda; stroke-width: 1.5; stroke-linecap: square"/>
   </g>
   <g id="line2d_39">
    <path d="M 362.639378 98.40375  L 363.691139 98.40375  L 364.742899 98.40375  L 365.794664 98.40375  L 366.846425 98.40375  L 367.898185 98.40375  L 368.949946 98.40375  L 370.001711 98.40375  L 371.053471 98.40375  L 372.105232 98.40375  L 373.156993 98.40375  L 374.208757 98.40375  L 375.260518 98.40375  L 376.312279 98.40375  L 377.364039 98.40375  L 378.415804 98.40375  L 379.467565 98.40375  L 380.519325 98.40375  L 381.571088 98.40375  L 382.622849 98.40375  L 383.674611 98.40375  L 384.726372 98.40375  L 385.778135 98.40375  L 386.829895 98.40375  L 387.881658 98.40375  L 388.933419 98.40375  L 389.985179 98.40375  L 391.036942 98.40375  L 392.088703 98.40375  L 393.140465 98.40375  L 394.192226 98.40375  L 395.243989 98.40375  L 396.295749 98.40375  L 397.347512 98.40375  L 398.399274 98.40375  L 399.451035 98.40375  L 400.502797 98.40375  L 401.554559 98.40375  L 402.606319 98.40375  L 403.658081 98.40375  L 404.709843 98.40375  L 405.761604 98.40375  L 406.813366 98.40375  L 407.865128 98.40375  L 408.916889 98.40375  L 409.968651 98.40375  L 411.020413 98.40375  L 412.072174 93.915412  L 413.123936 89.280872  L 414.175698 82.131693  L 415.227459 72.921095  L 416.279221 60.932698  L 417.330982 49.923849  L 418.382744 41.970551  L 419.434506 34.178123  L 420.486268 29.645908  L 421.538029 28.461654  L 422.58979 28.373969  L 423.641552 27.979264  L 424.693314 32.365227  L 425.745076 32.686867  L 426.796838 33.461727  L 427.848599 38.081586  L 428.90036 41.371145  L 429.952122 42.730805  L 431.003883 44.689884  L 432.055645 49.368283  L 433.107407 51.07887  L 434.159169 55.552499  L 435.21093 57.804061  L 436.262693 60.420962  L 437.314453 63.330414  L 438.366216 66.181247  L 439.417977 68.271968  L 440.469739 70.93275  L 441.5215 73.374292  L 442.573261 75.874358  L 443.625023 77.731055  L 444.676784 79.821753  L 445.728547 82.058578  L 446.780307 85.158047  L 447.83207 86.503061  L 448.883831 88.374443  L 449.935593 91.298425  L 450.987354 93.330606  L 452.039114 94.894961  L 453.090879 97.687369  L 454.14264 98.40375  L 455.194401 98.40375  L 456.246161 98.40375  L 457.297926 98.40375  L 458.349687 98.40375  L 459.401447 98.40375  L 460.453208 98.40375  L 461.504973 98.40375  L 462.556733 98.40375  L 463.608494 98.40375  L 464.660254 98.40375  L 465.712019 98.40375  L 466.76378 98.40375  " clip-path="url(#p869e8d6771)" style="fill: none; stroke: #8c6bb1; stroke-width: 1.5; stroke-linecap: square"/>
   </g>
   <g id="line2d_40">
    <path d="M 362.639378 98.40375  L 363.691139 98.40375  L 364.742899 98.40375  L 365.794664 98.40375  L 366.846425 98.40375  L 367.898185 98.40375  L 368.949946 98.40375  L 370.001711 98.40375  L 371.053471 98.40375  L 372.105232 98.40375  L 373.156993 98.40375  L 374.208757 98.40375  L 375.260518 98.40375  L 376.312279 98.40375  L 377.364039 98.40375  L 378.415804 98.40375  L 379.467565 98.40375  L 380.519325 98.40375  L 381.571088 98.40375  L 382.622849 98.40375  L 383.674611 98.40375  L 384.726372 98.40375  L 385.778135 98.40375  L 386.829895 98.40375  L 387.881658 98.40375  L 388.933419 98.40375  L 389.985179 98.40375  L 391.036942 98.40375  L 392.088703 98.40375  L 393.140465 98.40375  L 394.192226 98.40375  L 395.243989 98.40375  L 396.295749 98.40375  L 397.347512 98.40375  L 398.399274 98.40375  L 399.451035 98.40375  L 400.502797 98.40375  L 401.554559 98.40375  L 402.606319 98.40375  L 403.658081 98.40375  L 404.709843 98.40375  L 405.761604 98.40375  L 406.813366 98.40375  L 407.865128 98.40375  L 408.916889 98.40375  L 409.968651 98.40375  L 411.020413 98.40375  L 412.072174 84.032296  L 413.123936 72.731035  L 414.175698 60.830358  L 415.227459 50.30396  L 416.279221 43.169401  L 417.330982 35.157655  L 418.382744 34.002651  L 419.434506 32.745364  L 420.486268 33.490967  L 421.538029 32.774555  L 422.58979 35.186887  L 423.641552 35.069958  L 424.693314 36.429586  L 425.745076 39.485166  L 426.796838 42.964725  L 427.848599 43.46175  L 428.90036 46.298084  L 429.952122 51.181162  L 431.003883 52.277662  L 432.055645 54.558382  L 433.107407 57.423942  L 434.159169 59.441422  L 435.21093 61.722216  L 436.262693 64.763105  L 437.314453 68.637467  L 438.366216 69.865489  L 439.417977 71.093624  L 440.469739 74.032192  L 441.5215 76.678414  L 442.573261 78.374375  L 443.625023 80.070257  L 444.676784 82.20481  L 445.728547 83.359759  L 446.780307 84.397808  L 447.83207 86.517681  L 448.883831 88.272103  L 449.935593 89.792564  L 450.987354 91.415385  L 452.039114 92.731208  L 453.090879 97.204909  L 454.14264 98.40375  L 455.194401 98.40375  L 456.246161 98.40375  L 457.297926 98.40375  L 458.349687 98.40375  L 459.401447 98.40375  L 460.453208 98.40375  L 461.504973 98.40375  L 462.556733 98.40375  L 463.608494 98.40375  L 464.660254 98.40375  L 465.712019 98.40375  L 466.76378 98.40375  " clip-path="url(#p869e8d6771)" style="fill: none; stroke: #810f7c; stroke-width: 1.5; stroke-linecap: square"/>
   </g>
   <g id="line2d_41">
    <path d="M 362.639378 98.40375  L 363.691139 98.40375  L 364.742899 98.40375  L 365.794664 98.40375  L 366.846425 98.40375  L 367.898185 98.40375  L 368.949946 98.40375  L 370.001711 98.40375  L 371.053471 98.40375  L 372.105232 98.40375  L 373.156993 98.40375  L 374.208757 98.40375  L 375.260518 98.40375  L 376.312279 98.40375  L 377.364039 98.40375  L 378.415804 98.40375  L 379.467565 98.40375  L 380.519325 98.40375  L 381.571088 98.40375  L 382.622849 98.40375  L 383.674611 98.40375  L 384.726372 98.40375  L 385.778135 98.40375  L 386.829895 98.40375  L 387.881658 98.40375  L 388.933419 98.40375  L 389.985179 98.40375  L 391.036942 98.40375  L 392.088703 98.40375  L 393.140465 98.40375  L 394.192226 98.40375  L 395.243989 98.40375  L 396.295749 98.40375  L 397.347512 98.40375  L 398.399274 98.40375  L 399.451035 98.40375  L 400.502797 98.40375  L 401.554559 98.40375  L 402.606319 98.40375  L 403.658081 98.40375  L 404.709843 98.40375  L 405.761604 98.40375  L 406.813366 98.40375  L 407.865128 98.40375  L 408.916889 98.40375  L 409.968651 98.40375  L 411.020413 98.40375  L 412.072174 66.488302  L 413.123936 53.037899  L 414.175698 42.935481  L 415.227459 38.286322  L 416.279221 35.786303  L 417.330982 34.821395  L 418.382744 35.757051  L 419.434506 35.596262  L 420.486268 37.789246  L 421.538029 37.716116  L 422.58979 36.985146  L 423.641552 40.289294  L 424.693314 42.935485  L 425.745076 44.163564  L 426.796838 45.333164  L 427.848599 48.023193  L 428.90036 51.312742  L 429.952122 51.371222  L 431.003883 54.280602  L 432.055645 56.839101  L 433.107407 60.494138  L 434.159169 62.716304  L 435.21093 64.280713  L 436.262693 68.228048  L 437.314453 69.470806  L 438.366216 71.37135  L 439.417977 72.935742  L 440.469739 75.742733  L 441.5215 78.432815  L 442.573261 80.026433  L 443.625023 81.649218  L 444.676784 82.89195  L 445.728547 83.929939  L 446.780307 86.269165  L 447.83207 87.058622  L 448.883831 88.637602  L 449.935593 90.216544  L 450.987354 90.479704  L 452.039114 92.38033  L 453.090879 97.190289  L 454.14264 98.40375  L 455.194401 98.40375  L 456.246161 98.40375  L 457.297926 98.40375  L 458.349687 98.40375  L 459.401447 98.40375  L 460.453208 98.40375  L 461.504973 98.40375  L 462.556733 98.40375  L 463.608494 98.40375  L 464.660254 98.40375  L 465.712019 98.40375  L 466.76378 98.40375  " clip-path="url(#p869e8d6771)" style="fill: none; stroke: #4d004b; stroke-width: 1.5; stroke-linecap: square"/>
   </g>
   <g id="patch_9">
    <path d="M 357.433158 102.18375  L 357.433158 19.02375  " style="fill: none; stroke: #000000; stroke-width: 1.5; stroke-linejoin: miter; stroke-linecap: square"/>
   </g>
   <g id="patch_10">
    <path d="M 357.433158 102.18375  L 471.97 102.18375  " style="fill: none; stroke: #000000; stroke-width: 1.5; stroke-linejoin: miter; stroke-linecap: square"/>
   </g>
   <g id="text_26">
    <text style="font: 8px 'Arial'; text-anchor: middle" x="414.701579" y="13.02375" transform="rotate(-0, 414.701579, 13.02375)">Truncated proposal for posterior B</text>
   </g>
   <g id="legend_3">
    <g id="line2d_42">
     <path d="M 364.633158 29.15  L 366.233158 29.15  L 367.833158 29.15  " style="fill: none; stroke: #238b45; stroke-width: 1.5; stroke-linecap: square"/>
    </g>
    <g id="text_27">
     <text style="font: 8px 'Arial'; text-anchor: start" x="369.033158" y="31.95" transform="rotate(-0, 369.033158, 31.95)">Rejection</text>
    </g>
    <g id="line2d_43">
     <path d="M 364.633158 40.56  L 366.233158 40.56  L 367.833158 40.56  " style="fill: none; stroke: #9ebcda; stroke-width: 1.5; stroke-linecap: square"/>
    </g>
    <g id="text_28">
     <text style="font: 8px 'Arial'; text-anchor: start" x="369.033158" y="43.36" transform="rotate(-0, 369.033158, 43.36)">K=16</text>
    </g>
    <g id="line2d_44">
     <path d="M 364.633158 51.87625  L 366.233158 51.87625  L 367.833158 51.87625  " style="fill: none; stroke: #8c6bb1; stroke-width: 1.5; stroke-linecap: square"/>
    </g>
    <g id="text_29">
     <text style="font: 8px 'Arial'; text-anchor: start" x="369.033158" y="54.67625" transform="rotate(-0, 369.033158, 54.67625)">K=64</text>
    </g>
    <g id="line2d_45">
     <path d="M 364.633158 63.1925  L 366.233158 63.1925  L 367.833158 63.1925  " style="fill: none; stroke: #810f7c; stroke-width: 1.5; stroke-linecap: square"/>
    </g>
    <g id="text_30">
     <text style="font: 8px 'Arial'; text-anchor: start" x="369.033158" y="65.9925" transform="rotate(-0, 369.033158, 65.9925)">K=256</text>
    </g>
    <g id="line2d_46">
     <path d="M 364.633158 74.50875  L 366.233158 74.50875  L 367.833158 74.50875  " style="fill: none; stroke: #4d004b; stroke-width: 1.5; stroke-linecap: square"/>
    </g>
    <g id="text_31">
     <text style="font: 8px 'Arial'; text-anchor: start" x="369.033158" y="77.30875" transform="rotate(-0, 369.033158, 77.30875)">K=1024</text>
    </g>
   </g>
   <g id="line2d_47">
    <path d="M 362.639378 98.40375  L 363.691139 98.40375  L 364.742899 98.40375  L 365.794664 98.40375  L 366.846425 98.40375  L 367.898185 98.40375  L 368.949946 98.40375  L 370.001711 98.40375  L 371.053471 98.40375  L 372.105232 98.40375  L 373.156993 98.40375  L 374.208757 98.40375  L 375.260518 98.40375  L 376.312279 98.40375  L 377.364039 98.40375  L 378.415804 98.40375  L 379.467565 98.40375  L 380.519325 98.40375  L 381.571088 98.40375  L 382.622849 98.40375  L 383.674611 98.40375  L 384.726372 98.40375  L 385.778135 98.40375  L 386.829895 98.40375  L 387.881658 98.40375  L 388.933419 98.40375  L 389.985179 98.40375  L 391.036942 98.40375  L 392.088703 98.40375  L 393.140465 98.40375  L 394.192226 98.40375  L 395.243989 98.40375  L 396.295749 98.40375  L 397.347512 98.40375  L 398.399274 98.40375  L 399.451035 98.40375  L 400.502797 98.40375  L 401.554559 98.40375  L 402.606319 98.40375  L 403.658081 98.40375  L 404.709843 98.40375  L 405.761604 98.40375  L 406.813366 98.40375  L 407.865128 98.40375  L 408.916889 98.40375  L 409.968651 98.40375  L 411.020413 98.40375  L 412.072174 41.634312  L 413.123936 33.257043  L 414.175698 36.853562  L 415.227459 33.929563  L 416.279221 34.675183  L 417.330982 36.955914  L 418.382744 36.765831  L 419.434506 36.137202  L 420.486268 38.666446  L 421.538029 40.450057  L 422.58979 42.014425  L 423.641552 43.154812  L 424.693314 46.473524  L 425.745076 47.146044  L 426.796838 47.745463  L 427.848599 50.727895  L 428.90036 53.549602  L 429.952122 53.461882  L 431.003883 57.497001  L 432.055645 58.94438  L 433.107407 61.020457  L 434.159169 63.637365  L 435.21093 66.195931  L 436.262693 69.543849  L 437.314453 71.605324  L 438.366216 73.505872  L 439.417977 75.274939  L 440.469739 77.204735  L 441.5215 79.368496  L 442.573261 80.289593  L 443.625023 82.321738  L 444.676784 84.880267  L 445.728547 85.15802  L 446.780307 86.897824  L 447.83207 88.286703  L 448.883831 88.915382  L 449.935593 90.275024  L 450.987354 91.371525  L 452.039114 91.663952  L 453.090879 96.693209  L 454.14264 98.40375  L 455.194401 98.40375  L 456.246161 98.40375  L 457.297926 98.40375  L 458.349687 98.40375  L 459.401447 98.40375  L 460.453208 98.40375  L 461.504973 98.40375  L 462.556733 98.40375  L 463.608494 98.40375  L 464.660254 98.40375  L 465.712019 98.40375  L 466.76378 98.40375  " clip-path="url(#p869e8d6771)" style="fill: none; stroke: #238b45; stroke-width: 1.5; stroke-linecap: square"/>
   </g>
  </g>
 </g>
 <defs>
  <clipPath id="p8d8ccad756">
   <rect x="36.73" y="19.02375" width="114.536842" height="83.16"/>
  </clipPath>
  <clipPath id="pda45c706f2">
   <rect x="197.081579" y="19.02375" width="114.536842" height="83.16"/>
  </clipPath>
  <clipPath id="p869e8d6771">
   <rect x="357.433158" y="19.02375" width="114.536842" height="83.16"/>
  </clipPath>
 </defs>
</g>
      <text x="5" y="16" font-size="12pt" font-family="Arial" font-weight="800" letter-spacing="0" text-anchor="start" fill="black">a</text>
    </g>
    <g transform="translate(-5, 140) scale(1) ">
      <g transform="translate(0, 0) scale(1) translate(0, 0) scale(1.25) "><metadata>
  <rdf:RDF xmlns:dc="http://purl.org/dc/elements/1.1/" xmlns:cc="http://creativecommons.org/ns#" xmlns:rdf="http://www.w3.org/1999/02/22-rdf-syntax-ns#">
   <cc:Work>
    <dc:type rdf:resource="http://purl.org/dc/dcmitype/StillImage"/>
    <dc:date>2022-07-31T14:15:25.894079</dc:date>
    <dc:format>image/svg+xml</dc:format>
    <dc:creator>
     <cc:Agent>
      <dc:title>Matplotlib v3.5.1, https://matplotlib.org/</dc:title>
     </cc:Agent>
    </dc:creator>
   </cc:Work>
  </rdf:RDF>
 </metadata>
 <defs>
  <style type="text/css">*{stroke-linejoin: round; stroke-linecap: butt}</style>
 </defs>
 <g id="figure_1">
  <g id="patch_1">
   <path d="M 0 123.1925  L 479.17 123.1925  L 479.17 0  L 0 0  z " style="fill: #ffffff"/>
  </g>
  <g id="axes_1">
   <g id="patch_2">
    <path d="M 36.73 90.36  L 151.266842 90.36  L 151.266842 7.2  L 36.73 7.2  z " style="fill: #ffffff"/>
   </g>
   <g id="matplotlib.axis_1">
    <g id="xtick_1">
     <g id="line2d_1">
      <defs>
       <path id="m4c0df21dc3" d="M 0 0  L 0 3.5  " style="stroke: #000000; stroke-width: 1.5"/>
      </defs>
      <g>
       <use xlink:href="#m4c0df21dc3" x="59.290287" y="90.36" style="stroke: #000000; stroke-width: 1.5"/>
      </g>
     </g>
     <g id="text_1">
      <text style="font: 8px 'Arial'; text-anchor: middle" x="59.290287" y="103.08625" transform="rotate(-0, 59.290287, 103.08625)">&#8722;2</text>
     </g>
    </g>
    <g id="xtick_2">
     <g id="line2d_2">
      <g>
       <use xlink:href="#m4c0df21dc3" x="93.998421" y="90.36" style="stroke: #000000; stroke-width: 1.5"/>
      </g>
     </g>
     <g id="text_2">
      <text style="font: 8px 'Arial'; text-anchor: middle" x="93.998421" y="103.08625" transform="rotate(-0, 93.998421, 103.08625)">0</text>
     </g>
    </g>
    <g id="xtick_3">
     <g id="line2d_3">
      <g>
       <use xlink:href="#m4c0df21dc3" x="128.706555" y="90.36" style="stroke: #000000; stroke-width: 1.5"/>
      </g>
     </g>
     <g id="text_3">
      <text style="font: 8px 'Arial'; text-anchor: middle" x="128.706555" y="103.08625" transform="rotate(-0, 128.706555, 103.08625)">2</text>
     </g>
    </g>
    <g id="text_4">
     <!-- $\theta$ -->
     <g transform="translate(91.758421 114.4025)">
      <text>
       <tspan style="font: 8px 'Arial'" x="0" y="-0.171875">&#952;</tspan>
      </text>
     </g>
    </g>
   </g>
   <g id="matplotlib.axis_2">
    <g id="ytick_1">
     <g id="line2d_4">
      <defs>
       <path id="m02d1ccd357" d="M 0 0  L -3.5 0  " style="stroke: #000000; stroke-width: 1.5"/>
      </defs>
      <g>
       <use xlink:href="#m02d1ccd357" x="36.73" y="86.58" style="stroke: #000000; stroke-width: 1.5"/>
      </g>
     </g>
     <g id="text_5">
      <text style="font: 8px 'Arial'; text-anchor: end" x="29.73" y="89.443125" transform="rotate(-0, 29.73, 89.443125)">0.0</text>
     </g>
    </g>
    <g id="ytick_2">
     <g id="line2d_5">
      <g>
       <use xlink:href="#m02d1ccd357" x="36.73" y="58.154836" style="stroke: #000000; stroke-width: 1.5"/>
      </g>
     </g>
     <g id="text_6">
      <text style="font: 8px 'Arial'; text-anchor: end" x="29.73" y="61.017961" transform="rotate(-0, 29.73, 61.017961)">0.5</text>
     </g>
    </g>
    <g id="ytick_3">
     <g id="line2d_6">
      <g>
       <use xlink:href="#m02d1ccd357" x="36.73" y="29.729672" style="stroke: #000000; stroke-width: 1.5"/>
      </g>
     </g>
     <g id="text_7">
      <text style="font: 8px 'Arial'; text-anchor: end" x="29.73" y="32.592797" transform="rotate(-0, 29.73, 32.592797)">1.0</text>
     </g>
    </g>
    <g id="text_8">
     <text style="font: 8px 'Arial'; text-anchor: middle" x="12.92625" y="48.78" transform="rotate(-90, 12.92625, 48.78)">Density</text>
    </g>
   </g>
   <g id="line2d_7">
    <path d="M 41.93622 86.58  L 42.977463 86.58  L 44.018706 86.58  L 45.059953 86.58  L 46.101196 86.58  L 47.142439 86.58  L 48.183682 86.58  L 49.22493 86.58  L 50.266173 86.58  L 51.307416 75.209935  L 52.348659 75.209935  L 53.389906 75.209935  L 54.431149 75.209935  L 55.472392 75.209935  L 56.513635 75.209935  L 57.554882 75.209935  L 58.596125 75.209935  L 59.637368 75.209935  L 60.678613 75.209935  L 61.719856 75.209935  L 62.761101 75.209935  L 63.802344 75.209935  L 64.843589 75.209935  L 65.884832 75.209935  L 66.926078 75.209935  L 67.967321 75.209935  L 69.008564 75.209935  L 70.049809 75.209935  L 71.091052 75.209935  L 72.132297 75.209935  L 73.17354 75.209935  L 74.214785 75.209935  L 75.256028 75.209935  L 76.297273 75.209935  L 77.338517 75.209935  L 78.379761 75.209935  L 79.421005 75.209935  L 80.462249 75.209935  L 81.503492 75.209935  L 82.544736 75.209935  L 83.58598 75.209935  L 84.627225 75.209935  L 85.668469 75.209935  L 86.709713 75.209935  L 87.750957 75.209935  L 88.792201 75.209935  L 89.833445 75.209935  L 90.874689 75.209935  L 91.915933 75.209935  L 92.957177 75.209935  L 93.998421 75.209935  L 95.039665 75.209935  L 96.080909 75.209935  L 97.122153 75.209935  L 98.163397 75.209935  L 99.204641 75.209935  L 100.245885 75.209935  L 101.287129 75.209935  L 102.328373 75.209935  L 103.369618 75.209935  L 104.410862 75.209935  L 105.452106 75.209935  L 106.49335 75.209935  L 107.534593 75.209935  L 108.575837 75.209935  L 109.617081 75.209935  L 110.658325 75.209935  L 111.699569 75.209935  L 112.740814 75.209935  L 113.782057 75.209935  L 114.823302 75.209935  L 115.864545 75.209935  L 116.90579 75.209935  L 117.947033 75.209935  L 118.988279 75.209935  L 120.029522 75.209935  L 121.070765 75.209935  L 122.11201 75.209935  L 123.153253 75.209935  L 124.194498 75.209935  L 125.235741 75.209935  L 126.276986 75.209935  L 127.318229 75.209935  L 128.359474 75.209935  L 129.400717 75.209935  L 130.44196 75.209935  L 131.483207 75.209935  L 132.52445 75.209935  L 133.565693 75.209935  L 134.606936 75.209935  L 135.648183 75.209935  L 136.689426 75.209935  L 137.73067 86.58  L 138.771913 86.58  L 139.81316 86.58  L 140.854403 86.58  L 141.895646 86.58  L 142.936889 86.58  L 143.978136 86.58  L 145.019379 86.58  L 146.060622 86.58  " clip-path="url(#pbd5fef4a0d)" style="fill: none; stroke: #1f78b4; stroke-width: 1.5; stroke-linecap: square"/>
   </g>
   <g id="line2d_8">
    <path d="M 41.93622 86.58  L 42.977463 86.58  L 44.018706 86.58  L 45.059953 86.58  L 46.101196 86.58  L 47.142439 86.58  L 48.183682 86.58  L 49.22493 86.58  L 50.266173 86.58  L 51.307416 86.58  L 52.348659 86.58  L 53.389906 86.58  L 54.431149 86.58  L 55.472392 86.58  L 56.513635 86.58  L 57.554882 86.58  L 58.596125 86.58  L 59.637368 86.58  L 60.678613 86.58  L 61.719856 86.58  L 62.761101 86.58  L 63.802344 86.58  L 64.843589 86.58  L 65.884832 86.58  L 66.926078 86.58  L 67.967321 86.579999  L 69.008564 86.579996  L 70.049809 86.579988  L 71.091052 86.579965  L 72.132297 86.579898  L 73.17354 86.579718  L 74.214785 86.579249  L 75.256028 86.578078  L 76.297273 86.575273  L 77.338517 86.56883  L 78.379761 86.554639  L 79.421005 86.524676  L 80.462249 86.464044  L 81.503492 86.346493  L 82.544736 86.128213  L 83.58598 85.74016  L 84.627225 85.080014  L 85.668469 84.006011  L 86.709713 82.336211  L 87.750957 79.857527  L 88.792201 76.348653  L 89.833445 71.618858  L 90.874689 65.56038  L 91.915933 58.206483  L 92.957177 49.781528  L 93.998421 40.726282  L 95.039665 31.683134  L 96.080909 23.433569  L 97.122153 16.792409  L 98.163397 12.476977  L 99.204641 10.98  L 100.245885 12.476977  L 101.287129 16.792396  L 102.328373 23.433569  L 103.369618 31.683134  L 104.410862 40.726282  L 105.452106 49.781528  L 106.49335 58.206483  L 107.534593 65.560374  L 108.575837 71.618855  L 109.617081 76.348649  L 110.658325 79.857524  L 111.699569 82.336211  L 112.740814 84.006013  L 113.782057 85.080013  L 114.823302 85.74016  L 115.864545 86.128213  L 116.90579 86.346493  L 117.947033 86.464044  L 118.988279 86.524676  L 120.029522 86.554639  L 121.070765 86.56883  L 122.11201 86.575273  L 123.153253 86.578078  L 124.194498 86.579249  L 125.235741 86.579718  L 126.276986 86.579898  L 127.318229 86.579965  L 128.359474 86.579988  L 129.400717 86.579996  L 130.44196 86.579999  L 131.483207 86.58  L 132.52445 86.58  L 133.565693 86.58  L 134.606936 86.58  L 135.648183 86.58  L 136.689426 86.58  L 137.73067 86.58  L 138.771913 86.58  L 139.81316 86.58  L 140.854403 86.58  L 141.895646 86.58  L 142.936889 86.58  L 143.978136 86.58  L 145.019379 86.58  L 146.060622 86.58  " clip-path="url(#pbd5fef4a0d)" style="fill: none; stroke: #fc8d59; stroke-width: 1.5; stroke-linecap: square"/>
   </g>
   <g id="line2d_9">
    <path d="M 41.93622 86.58  L 42.977463 86.58  L 44.018706 86.58  L 45.059953 86.58  L 46.101196 86.58  L 47.142439 86.58  L 48.183682 86.58  L 49.22493 86.58  L 50.266173 86.58  L 51.307416 86.58  L 52.348659 86.58  L 53.389906 86.58  L 54.431149 86.58  L 55.472392 86.58  L 56.513635 86.58  L 57.554882 86.58  L 58.596125 86.58  L 59.637368 86.58  L 60.678613 86.58  L 61.719856 86.58  L 62.761101 86.58  L 63.802344 86.58  L 64.843589 86.58  L 65.884832 86.58  L 66.926078 86.58  L 67.967321 86.58  L 69.008564 86.58  L 70.049809 86.58  L 71.091052 86.58  L 72.132297 86.58  L 73.17354 86.58  L 74.214785 86.58  L 75.256028 86.58  L 76.297273 86.58  L 77.338517 86.58  L 78.379761 86.58  L 79.421005 86.579999  L 80.462249 86.579998  L 81.503492 86.579994  L 82.544736 86.579983  L 83.58598 86.57995  L 84.627225 86.579857  L 85.668469 86.579608  L 86.709713 86.578969  L 87.750957 86.577394  L 88.792201 86.573676  L 89.833445 86.565254  L 90.874689 86.546962  L 91.915933 86.508883  L 92.957177 86.432918  L 93.998421 86.287736  L 95.039665 86.02202  L 96.080909 85.556494  L 97.122153 84.77619  L 98.163397 83.525648  L 99.204641 81.610922  L 100.245885 78.812868  L 101.287129 74.915301  L 102.328373 69.748801  L 103.369618 63.246247  L 104.410862 55.499909  L 105.452106 46.805174  L 106.49335 37.673964  L 107.534593 28.804356  L 108.575837 21.002411  L 109.617081 15.065465  L 110.658325 11.64902  L 111.699569 11.147807  L 112.740814 13.62078  L 113.782057 18.779648  L 114.823302 26.044258  L 115.864545 34.649787  L 116.90579 43.778754  L 117.947033 52.686133  L 118.988279 60.792226  L 120.029522 67.728971  L 121.070765 73.340107  L 122.11201 77.645674  L 123.153253 80.787477  L 124.194498 82.971709  L 125.235741 84.420447  L 126.276986 85.338193  L 127.318229 85.893923  L 128.359474 86.215817  L 129.400717 86.394265  L 130.44196 86.488988  L 131.483207 86.537152  L 132.52445 86.560618  L 133.565693 86.571577  L 134.606936 86.576483  L 135.648183 86.578589  L 136.689426 86.579456  L 137.73067 86.579799  L 138.771913 86.579928  L 139.81316 86.579975  L 140.854403 86.579992  L 141.895646 86.579997  L 142.936889 86.579999  L 143.978136 86.58  L 145.019379 86.58  L 146.060622 86.58  " clip-path="url(#pbd5fef4a0d)" style="fill: none; stroke: #b30000; stroke-width: 1.5; stroke-linecap: square"/>
   </g>
   <g id="patch_3">
    <path d="M 36.73 90.36  L 36.73 7.2  " style="fill: none; stroke: #000000; stroke-width: 1.5; stroke-linejoin: miter; stroke-linecap: square"/>
   </g>
   <g id="patch_4">
    <path d="M 36.73 90.36  L 151.266842 90.36  " style="fill: none; stroke: #000000; stroke-width: 1.5; stroke-linejoin: miter; stroke-linecap: square"/>
   </g>
  </g>
  <g id="axes_2">
   <g id="patch_5">
    <path d="M 197.081579 90.36  L 311.618421 90.36  L 311.618421 7.2  L 197.081579 7.2  z " style="fill: #ffffff"/>
   </g>
   <g id="matplotlib.axis_3">
    <g id="xtick_4">
     <g id="line2d_10">
      <g>
       <use xlink:href="#m4c0df21dc3" x="219.817159" y="90.36" style="stroke: #000000; stroke-width: 1.5"/>
      </g>
     </g>
     <g id="text_9">
      <text style="font: 8px 'Arial'; text-anchor: middle" x="219.817159" y="103.08625" transform="rotate(-0, 219.817159, 103.08625)">&#8722;2</text>
     </g>
    </g>
    <g id="xtick_5">
     <g id="line2d_11">
      <g>
       <use xlink:href="#m4c0df21dc3" x="254.87588" y="90.36" style="stroke: #000000; stroke-width: 1.5"/>
      </g>
     </g>
     <g id="text_10">
      <text style="font: 8px 'Arial'; text-anchor: middle" x="254.87588" y="103.08625" transform="rotate(-0, 254.87588, 103.08625)">0</text>
     </g>
    </g>
    <g id="xtick_6">
     <g id="line2d_12">
      <g>
       <use xlink:href="#m4c0df21dc3" x="289.934601" y="90.36" style="stroke: #000000; stroke-width: 1.5"/>
      </g>
     </g>
     <g id="text_11">
      <text style="font: 8px 'Arial'; text-anchor: middle" x="289.934601" y="103.08625" transform="rotate(-0, 289.934601, 103.08625)">2</text>
     </g>
    </g>
    <g id="text_12">
     <!-- $\theta$ -->
     <g transform="translate(252.11 114.4025)">
      <text>
       <tspan style="font: 8px 'Arial'" x="0" y="-0.171875">&#952;</tspan>
      </text>
     </g>
    </g>
   </g>
   <g id="matplotlib.axis_4">
    <g id="ytick_4">
     <g id="line2d_13">
      <g>
       <use xlink:href="#m02d1ccd357" x="197.081579" y="86.58" style="stroke: #000000; stroke-width: 1.5"/>
      </g>
     </g>
     <g id="text_13">
      <text style="font: 8px 'Arial'; text-anchor: end" x="190.081579" y="89.443125" transform="rotate(-0, 190.081579, 89.443125)">0.0</text>
     </g>
    </g>
    <g id="ytick_5">
     <g id="line2d_14">
      <g>
       <use xlink:href="#m02d1ccd357" x="197.081579" y="63.950903" style="stroke: #000000; stroke-width: 1.5"/>
      </g>
     </g>
     <g id="text_14">
      <text style="font: 8px 'Arial'; text-anchor: end" x="190.081579" y="66.814028" transform="rotate(-0, 190.081579, 66.814028)">0.2</text>
     </g>
    </g>
    <g id="ytick_6">
     <g id="line2d_15">
      <g>
       <use xlink:href="#m02d1ccd357" x="197.081579" y="41.321807" style="stroke: #000000; stroke-width: 1.5"/>
      </g>
     </g>
     <g id="text_15">
      <text style="font: 8px 'Arial'; text-anchor: end" x="190.081579" y="44.184932" transform="rotate(-0, 190.081579, 44.184932)">0.4</text>
     </g>
    </g>
    <g id="ytick_7">
     <g id="line2d_16">
      <g>
       <use xlink:href="#m02d1ccd357" x="197.081579" y="18.69271" style="stroke: #000000; stroke-width: 1.5"/>
      </g>
     </g>
     <g id="text_16">
      <text style="font: 8px 'Arial'; text-anchor: end" x="190.081579" y="21.555835" transform="rotate(-0, 190.081579, 21.555835)">0.6</text>
     </g>
    </g>
    <g id="text_17">
     <text style="font: 8px 'Arial'; text-anchor: middle" x="173.277829" y="48.78" transform="rotate(-90, 173.277829, 48.78)">Histogram density</text>
    </g>
   </g>
   <g id="line2d_17">
    <path d="M 202.287799 86.58  L 203.33956 86.58  L 204.39132 86.58  L 205.443085 86.58  L 206.494846 86.58  L 207.546606 86.58  L 208.598367 86.58  L 209.650132 86.58  L 210.701892 86.58  L 211.753653 86.58  L 212.805414 86.58  L 213.857178 86.58  L 214.908939 86.58  L 215.9607 86.58  L 217.01246 86.58  L 218.064225 86.58  L 219.115986 86.58  L 220.167746 86.58  L 221.219509 86.58  L 222.27127 86.58  L 223.323032 86.58  L 224.374793 86.58  L 225.426556 86.58  L 226.478316 86.58  L 227.530079 86.58  L 228.58184 86.58  L 229.6336 86.58  L 230.685363 86.58  L 231.737124 86.58  L 232.788886 86.58  L 233.840647 86.58  L 234.89241 86.58  L 235.94417 86.58  L 236.995933 86.58  L 238.047695 86.58  L 239.099456 85.825697  L 240.151218 83.902224  L 241.20298 82.18618  L 242.25474 77.283213  L 243.306502 71.361933  L 244.358264 63.140028  L 245.410025 55.163288  L 246.461787 44.58417  L 247.513549 35.306215  L 248.56531 27.687778  L 249.617072 23.520269  L 250.668834 20.672742  L 251.720595 18.617291  L 252.772357 14.129174  L 253.824119 14.619471  L 254.87588 15.034338  L 255.927642 14.46861  L 256.979404 13.110878  L 258.031165 12.450835  L 259.082927 11.338275  L 260.134689 12.960008  L 261.18645 12.733681  L 262.238211 15.637785  L 263.289973 10.98  L 264.341735 14.148036  L 265.393497 15.317206  L 266.445259 16.674952  L 267.49702 21.332709  L 268.548781 22.200222  L 269.600543 22.558516  L 270.652304 29.083239  L 271.704066 34.627368  L 272.755828 44.150488  L 273.80759 54.559798  L 274.859351 63.290912  L 275.911114 72.549947  L 276.962874 78.508964  L 278.014637 81.601594  L 279.066398 84.203947  L 280.11816 85.919984  L 281.169921 86.58  L 282.221682 86.58  L 283.273444 86.58  L 284.325205 86.58  L 285.376968 86.58  L 286.428728 86.58  L 287.480491 86.58  L 288.532252 86.58  L 289.584014 86.58  L 290.635775 86.58  L 291.687536 86.58  L 292.7393 86.58  L 293.791061 86.58  L 294.842822 86.58  L 295.894582 86.58  L 296.946347 86.58  L 297.998108 86.58  L 299.049868 86.58  L 300.101629 86.58  L 301.153394 86.58  L 302.205154 86.58  L 303.256915 86.58  L 304.308676 86.58  L 305.36044 86.58  L 306.412201 86.58  " clip-path="url(#p826c05d9f8)" style="fill: none; stroke: #9ebcda; stroke-width: 1.5; stroke-linecap: square"/>
   </g>
   <g id="line2d_18">
    <path d="M 202.287799 86.58  L 203.33956 86.58  L 204.39132 86.58  L 205.443085 86.58  L 206.494846 86.58  L 207.546606 86.58  L 208.598367 86.58  L 209.650132 86.58  L 210.701892 86.58  L 211.753653 86.58  L 212.805414 86.58  L 213.857178 86.58  L 214.908939 86.58  L 215.9607 86.58  L 217.01246 86.58  L 218.064225 86.58  L 219.115986 86.58  L 220.167746 86.58  L 221.219509 86.58  L 222.27127 86.58  L 223.323032 86.58  L 224.374793 86.58  L 225.426556 86.58  L 226.478316 86.58  L 227.530079 86.58  L 228.58184 86.58  L 229.6336 86.58  L 230.685363 86.58  L 231.737124 86.58  L 232.788886 86.58  L 233.840647 86.58  L 234.89241 86.58  L 235.94417 86.58  L 236.995933 86.58  L 238.047695 86.58  L 239.099456 84.392521  L 240.151218 77.905513  L 241.20298 71.229915  L 242.25474 62.159434  L 243.306502 54.050675  L 244.358264 44.357879  L 245.410025 39.134353  L 246.461787 34.005067  L 247.513549 30.554102  L 248.56531 30.4787  L 249.617072 29.347259  L 250.668834 27.668906  L 251.720595 25.896316  L 252.772357 24.953425  L 253.824119 26.650608  L 254.87588 23.840828  L 255.927642 27.989496  L 256.979404 24.161419  L 258.031165 27.668906  L 259.082927 25.255166  L 260.134689 26.009454  L 261.18645 25.820848  L 262.238211 26.575181  L 263.289973 24.25573  L 264.341735 25.481441  L 265.393497 26.443178  L 266.445259 23.180817  L 267.49702 26.537406  L 268.548781 26.179172  L 269.600543 27.895212  L 270.652304 29.120954  L 271.704066 31.044427  L 272.755828 33.703399  L 273.80759 40.71832  L 274.859351 44.923648  L 275.911114 53.05119  L 276.962874 62.838331  L 278.014637 70.155032  L 279.066398 77.641516  L 280.11816 84.166227  L 281.169921 86.58  L 282.221682 86.58  L 283.273444 86.58  L 284.325205 86.58  L 285.376968 86.58  L 286.428728 86.58  L 287.480491 86.58  L 288.532252 86.58  L 289.584014 86.58  L 290.635775 86.58  L 291.687536 86.58  L 292.7393 86.58  L 293.791061 86.58  L 294.842822 86.58  L 295.894582 86.58  L 296.946347 86.58  L 297.998108 86.58  L 299.049868 86.58  L 300.101629 86.58  L 301.153394 86.58  L 302.205154 86.58  L 303.256915 86.58  L 304.308676 86.58  L 305.36044 86.58  L 306.412201 86.58  " clip-path="url(#p826c05d9f8)" style="fill: none; stroke: #8c6bb1; stroke-width: 1.5; stroke-linecap: square"/>
   </g>
   <g id="line2d_19">
    <path d="M 202.287799 86.58  L 203.33956 86.58  L 204.39132 86.58  L 205.443085 86.58  L 206.494846 86.58  L 207.546606 86.58  L 208.598367 86.58  L 209.650132 86.58  L 210.701892 86.58  L 211.753653 86.58  L 212.805414 86.58  L 213.857178 86.58  L 214.908939 86.58  L 215.9607 86.58  L 217.01246 86.58  L 218.064225 86.58  L 219.115986 86.58  L 220.167746 86.58  L 221.219509 86.58  L 222.27127 86.58  L 223.323032 86.58  L 224.374793 86.58  L 225.426556 86.58  L 226.478316 86.58  L 227.530079 86.58  L 228.58184 86.58  L 229.6336 86.58  L 230.685363 86.58  L 231.737124 86.58  L 232.788886 86.58  L 233.840647 86.58  L 234.89241 86.58  L 235.94417 86.58  L 236.995933 86.58  L 238.047695 86.58  L 239.099456 79.904417  L 240.151218 63.234316  L 241.20298 54.258076  L 242.25474 45.432761  L 243.306502 41.491527  L 244.358264 37.229714  L 245.410025 34.627393  L 246.461787 34.665083  L 247.513549 32.647295  L 248.56531 34.155928  L 249.617072 32.760481  L 250.668834 31.911862  L 251.720595 32.421037  L 252.772357 34.702795  L 253.824119 32.515315  L 254.87588 31.987303  L 255.927642 33.609055  L 256.979404 35.023383  L 258.031165 32.496448  L 259.082927 32.571905  L 260.134689 33.533628  L 261.18645 33.062162  L 262.238211 33.118761  L 263.289973 32.383342  L 264.341735 32.760467  L 265.393497 32.307885  L 266.445259 33.099904  L 267.49702 32.062683  L 268.548781 34.042783  L 269.600543 34.401077  L 270.652304 35.23081  L 271.704066 33.175334  L 272.755828 35.7023  L 273.80759 34.91018  L 274.859351 37.24862  L 275.911114 42.472077  L 276.962874 46.564255  L 278.014637 51.900876  L 279.066398 62.725185  L 280.11816 79.093533  L 281.169921 86.58  L 282.221682 86.58  L 283.273444 86.58  L 284.325205 86.58  L 285.376968 86.58  L 286.428728 86.58  L 287.480491 86.58  L 288.532252 86.58  L 289.584014 86.58  L 290.635775 86.58  L 291.687536 86.58  L 292.7393 86.58  L 293.791061 86.58  L 294.842822 86.58  L 295.894582 86.58  L 296.946347 86.58  L 297.998108 86.58  L 299.049868 86.58  L 300.101629 86.58  L 301.153394 86.58  L 302.205154 86.58  L 303.256915 86.58  L 304.308676 86.58  L 305.36044 86.58  L 306.412201 86.58  " clip-path="url(#p826c05d9f8)" style="fill: none; stroke: #810f7c; stroke-width: 1.5; stroke-linecap: square"/>
   </g>
   <g id="line2d_20">
    <path d="M 202.287799 86.58  L 203.33956 86.58  L 204.39132 86.58  L 205.443085 86.58  L 206.494846 86.58  L 207.546606 86.58  L 208.598367 86.58  L 209.650132 86.58  L 210.701892 86.58  L 211.753653 86.58  L 212.805414 86.58  L 213.857178 86.58  L 214.908939 86.58  L 215.9607 86.58  L 217.01246 86.58  L 218.064225 86.58  L 219.115986 86.58  L 220.167746 86.58  L 221.219509 86.58  L 222.27127 86.58  L 223.323032 86.58  L 224.374793 86.58  L 225.426556 86.58  L 226.478316 86.58  L 227.530079 86.58  L 228.58184 86.58  L 229.6336 86.58  L 230.685363 86.58  L 231.737124 86.58  L 232.788886 86.58  L 233.840647 86.58  L 234.89241 86.58  L 235.94417 86.58  L 236.995933 86.58  L 238.047695 86.58  L 239.099456 72.493388  L 240.151218 47.356234  L 241.20298 42.208071  L 242.25474 39.90749  L 243.306502 38.436599  L 244.358264 36.927992  L 245.410025 34.853684  L 246.461787 36.720559  L 247.513549 37.097686  L 248.56531 36.814847  L 249.617072 36.286847  L 250.668834 38.304584  L 251.720595 35.702256  L 252.772357 36.663983  L 253.824119 36.833701  L 254.87588 35.494813  L 255.927642 34.683937  L 256.979404 36.720565  L 258.031165 36.984553  L 259.082927 36.041699  L 260.134689 35.570247  L 261.18645 37.53141  L 262.238211 36.965707  L 263.289973 37.550317  L 264.341735 36.362265  L 265.393497 36.701701  L 266.445259 36.267977  L 267.49702 35.777629  L 268.548781 35.758822  L 269.600543 35.438243  L 270.652304 36.437695  L 271.704066 35.513674  L 272.755828 35.966306  L 273.80759 37.531386  L 274.859351 37.361766  L 275.911114 38.738272  L 276.962874 39.322952  L 278.014637 43.245238  L 279.066398 49.751183  L 280.11816 73.115675  L 281.169921 86.58  L 282.221682 86.58  L 283.273444 86.58  L 284.325205 86.58  L 285.376968 86.58  L 286.428728 86.58  L 287.480491 86.58  L 288.532252 86.58  L 289.584014 86.58  L 290.635775 86.58  L 291.687536 86.58  L 292.7393 86.58  L 293.791061 86.58  L 294.842822 86.58  L 295.894582 86.58  L 296.946347 86.58  L 297.998108 86.58  L 299.049868 86.58  L 300.101629 86.58  L 301.153394 86.58  L 302.205154 86.58  L 303.256915 86.58  L 304.308676 86.58  L 305.36044 86.58  L 306.412201 86.58  " clip-path="url(#p826c05d9f8)" style="fill: none; stroke: #4d004b; stroke-width: 1.5; stroke-linecap: square"/>
   </g>
   <g id="patch_6">
    <path d="M 197.081579 90.36  L 197.081579 7.2  " style="fill: none; stroke: #000000; stroke-width: 1.5; stroke-linejoin: miter; stroke-linecap: square"/>
   </g>
   <g id="patch_7">
    <path d="M 197.081579 90.36  L 311.618421 90.36  " style="fill: none; stroke: #000000; stroke-width: 1.5; stroke-linejoin: miter; stroke-linecap: square"/>
   </g>
   <g id="line2d_21">
    <path d="M 202.287799 86.58  L 203.33956 86.58  L 204.39132 86.58  L 205.443085 86.58  L 206.494846 86.58  L 207.546606 86.58  L 208.598367 86.58  L 209.650132 86.58  L 210.701892 86.58  L 211.753653 86.58  L 212.805414 86.58  L 213.857178 86.58  L 214.908939 86.58  L 215.9607 86.58  L 217.01246 86.58  L 218.064225 86.58  L 219.115986 86.58  L 220.167746 86.58  L 221.219509 86.58  L 222.27127 86.58  L 223.323032 86.58  L 224.374793 86.58  L 225.426556 86.58  L 226.478316 86.58  L 227.530079 86.58  L 228.58184 86.58  L 229.6336 86.58  L 230.685363 86.58  L 231.737124 86.58  L 232.788886 86.58  L 233.840647 86.58  L 234.89241 86.58  L 235.94417 86.58  L 236.995933 86.58  L 238.047695 86.58  L 239.099456 66.817256  L 240.151218 39.549196  L 241.20298 39.379431  L 242.25474 36.965707  L 243.306502 38.776035  L 244.358264 37.908586  L 245.410025 38.964635  L 246.461787 37.229714  L 247.513549 37.474838  L 248.56531 37.248571  L 249.617072 38.304608  L 250.668834 37.795429  L 251.720595 37.493726  L 252.772357 37.512574  L 253.824119 38.285735  L 254.87588 37.456001  L 255.927642 37.965156  L 256.979404 37.682302  L 258.031165 38.794881  L 259.082927 37.493732  L 260.134689 38.66289  L 261.18645 39.718891  L 262.238211 38.700605  L 263.289973 38.53091  L 264.341735 38.380026  L 265.393497 38.323453  L 266.445259 37.324001  L 267.49702 38.040541  L 268.548781 37.56915  L 269.600543 36.626271  L 270.652304 36.758274  L 271.704066 37.399432  L 272.755828 37.550341  L 273.80759 38.191402  L 274.859351 38.587507  L 275.911114 37.26738  L 276.962874 37.060045  L 278.014637 37.889681  L 279.066398 39.209807  L 280.11816 66.55323  L 281.169921 86.58  L 282.221682 86.58  L 283.273444 86.58  L 284.325205 86.58  L 285.376968 86.58  L 286.428728 86.58  L 287.480491 86.58  L 288.532252 86.58  L 289.584014 86.58  L 290.635775 86.58  L 291.687536 86.58  L 292.7393 86.58  L 293.791061 86.58  L 294.842822 86.58  L 295.894582 86.58  L 296.946347 86.58  L 297.998108 86.58  L 299.049868 86.58  L 300.101629 86.58  L 301.153394 86.58  L 302.205154 86.58  L 303.256915 86.58  L 304.308676 86.58  L 305.36044 86.58  L 306.412201 86.58  " clip-path="url(#p826c05d9f8)" style="fill: none; stroke: #238b45; stroke-width: 1.5; stroke-linecap: square"/>
   </g>
  </g>
  <g id="axes_3">
   <g id="patch_8">
    <path d="M 357.433158 90.36  L 471.97 90.36  L 471.97 7.2  L 357.433158 7.2  z " style="fill: #ffffff"/>
   </g>
   <g id="matplotlib.axis_5">
    <g id="xtick_7">
     <g id="line2d_22">
      <g>
       <use xlink:href="#m4c0df21dc3" x="380.168738" y="90.36" style="stroke: #000000; stroke-width: 1.5"/>
      </g>
     </g>
     <g id="text_18">
      <text style="font: 8px 'Arial'; text-anchor: middle" x="380.168738" y="103.08625" transform="rotate(-0, 380.168738, 103.08625)">&#8722;2</text>
     </g>
    </g>
    <g id="xtick_8">
     <g id="line2d_23">
      <g>
       <use xlink:href="#m4c0df21dc3" x="415.227459" y="90.36" style="stroke: #000000; stroke-width: 1.5"/>
      </g>
     </g>
     <g id="text_19">
      <text style="font: 8px 'Arial'; text-anchor: middle" x="415.227459" y="103.08625" transform="rotate(-0, 415.227459, 103.08625)">0</text>
     </g>
    </g>
    <g id="xtick_9">
     <g id="line2d_24">
      <g>
       <use xlink:href="#m4c0df21dc3" x="450.28618" y="90.36" style="stroke: #000000; stroke-width: 1.5"/>
      </g>
     </g>
     <g id="text_20">
      <text style="font: 8px 'Arial'; text-anchor: middle" x="450.28618" y="103.08625" transform="rotate(-0, 450.28618, 103.08625)">2</text>
     </g>
    </g>
    <g id="text_21">
     <!-- $\theta$ -->
     <g transform="translate(412.461579 114.4025)">
      <text>
       <tspan style="font: 8px 'Arial'" x="0" y="-0.171875">&#952;</tspan>
      </text>
     </g>
    </g>
   </g>
   <g id="matplotlib.axis_6">
    <g id="ytick_8">
     <g id="line2d_25">
      <g>
       <use xlink:href="#m02d1ccd357" x="357.433158" y="86.58" style="stroke: #000000; stroke-width: 1.5"/>
      </g>
     </g>
     <g id="text_22">
      <text style="font: 8px 'Arial'; text-anchor: end" x="350.433158" y="89.443125" transform="rotate(-0, 350.433158, 89.443125)">0.0</text>
     </g>
    </g>
    <g id="ytick_9">
     <g id="line2d_26">
      <g>
       <use xlink:href="#m02d1ccd357" x="357.433158" y="63.61291" style="stroke: #000000; stroke-width: 1.5"/>
      </g>
     </g>
     <g id="text_23">
      <text style="font: 8px 'Arial'; text-anchor: end" x="350.433158" y="66.476035" transform="rotate(-0, 350.433158, 66.476035)">0.2</text>
     </g>
    </g>
    <g id="ytick_10">
     <g id="line2d_27">
      <g>
       <use xlink:href="#m02d1ccd357" x="357.433158" y="40.645821" style="stroke: #000000; stroke-width: 1.5"/>
      </g>
     </g>
     <g id="text_24">
      <text style="font: 8px 'Arial'; text-anchor: end" x="350.433158" y="43.508946" transform="rotate(-0, 350.433158, 43.508946)">0.4</text>
     </g>
    </g>
    <g id="ytick_11">
     <g id="line2d_28">
      <g>
       <use xlink:href="#m02d1ccd357" x="357.433158" y="17.678731" style="stroke: #000000; stroke-width: 1.5"/>
      </g>
     </g>
     <g id="text_25">
      <text style="font: 8px 'Arial'; text-anchor: end" x="350.433158" y="20.541856" transform="rotate(-0, 350.433158, 20.541856)">0.6</text>
     </g>
    </g>
    <g id="text_26">
     <text style="font: 8px 'Arial'; text-anchor: middle" x="333.629408" y="48.78" transform="rotate(-90, 333.629408, 48.78)">Histogram density</text>
    </g>
   </g>
   <g id="line2d_29">
    <path d="M 362.639378 86.58  L 363.691139 86.58  L 364.742899 86.58  L 365.794664 86.58  L 366.846425 86.58  L 367.898185 86.58  L 368.949946 86.58  L 370.001711 86.58  L 371.053471 86.58  L 372.105232 86.58  L 373.156993 86.58  L 374.208757 86.58  L 375.260518 86.58  L 376.312279 86.58  L 377.364039 86.58  L 378.415804 86.58  L 379.467565 86.58  L 380.519325 86.58  L 381.571088 86.58  L 382.622849 86.58  L 383.674611 86.58  L 384.726372 86.58  L 385.778135 86.58  L 386.829895 86.58  L 387.881658 86.58  L 388.933419 86.58  L 389.985179 86.58  L 391.036942 86.58  L 392.088703 86.58  L 393.140465 86.58  L 394.192226 86.58  L 395.243989 86.58  L 396.295749 86.58  L 397.347512 86.58  L 398.399274 86.58  L 399.451035 86.58  L 400.502797 86.58  L 401.554559 86.58  L 402.606319 86.58  L 403.658081 86.58  L 404.709843 86.58  L 405.761604 86.58  L 406.813366 86.58  L 407.865128 86.58  L 408.916889 86.58  L 409.968651 86.58  L 411.020413 86.58  L 412.072174 85.068  L 413.123936 83.154076  L 414.175698 80.091797  L 415.227459 74.96248  L 416.279221 69.4121  L 417.330982 60.608054  L 418.382744 48.378066  L 419.434506 39.229531  L 420.486268 33.219797  L 421.538029 28.300984  L 422.58979 20.721873  L 423.641552 19.860641  L 424.693314 15.649975  L 425.745076 16.205013  L 426.796838 13.295848  L 427.848599 12.568483  L 428.90036 11.649873  L 429.952122 12.24319  L 431.003883 10.98  L 432.055645 11.975241  L 433.107407 13.429895  L 434.159169 13.1618  L 435.21093 12.071011  L 436.262693 11.936888  L 437.314453 13.525592  L 438.366216 15.094866  L 439.417977 14.080629  L 440.469739 18.520793  L 441.5215 20.798365  L 442.573261 24.722036  L 443.625023 31.612047  L 444.676784 36.971138  L 445.728547 46.177023  L 446.780307 57.31613  L 447.83207 65.947878  L 448.883831 73.603608  L 449.935593 79.07741  L 450.987354 82.96268  L 452.039114 84.47469  L 453.090879 86.216354  L 454.14264 86.58  L 455.194401 86.58  L 456.246161 86.58  L 457.297926 86.58  L 458.349687 86.58  L 459.401447 86.58  L 460.453208 86.58  L 461.504973 86.58  L 462.556733 86.58  L 463.608494 86.58  L 464.660254 86.58  L 465.712019 86.58  L 466.76378 86.58  " clip-path="url(#p7d3e76d83c)" style="fill: none; stroke: #9ebcda; stroke-width: 1.5; stroke-linecap: square"/>
   </g>
   <g id="line2d_30">
    <path d="M 362.639378 86.58  L 363.691139 86.58  L 364.742899 86.58  L 365.794664 86.58  L 366.846425 86.58  L 367.898185 86.58  L 368.949946 86.58  L 370.001711 86.58  L 371.053471 86.58  L 372.105232 86.58  L 373.156993 86.58  L 374.208757 86.58  L 375.260518 86.58  L 376.312279 86.58  L 377.364039 86.58  L 378.415804 86.58  L 379.467565 86.58  L 380.519325 86.58  L 381.571088 86.58  L 382.622849 86.58  L 383.674611 86.58  L 384.726372 86.58  L 385.778135 86.58  L 386.829895 86.58  L 387.881658 86.58  L 388.933419 86.58  L 389.985179 86.58  L 391.036942 86.58  L 392.088703 86.58  L 393.140465 86.58  L 394.192226 86.58  L 395.243989 86.58  L 396.295749 86.58  L 397.347512 86.58  L 398.399274 86.58  L 399.451035 86.58  L 400.502797 86.58  L 401.554559 86.58  L 402.606319 86.58  L 403.658081 86.58  L 404.709843 86.58  L 405.761604 86.58  L 406.813366 86.58  L 407.865128 86.58  L 408.916889 86.58  L 409.968651 86.58  L 411.020413 86.58  L 412.072174 81.29757  L 413.123936 76.053417  L 414.175698 67.689568  L 415.227459 59.82334  L 416.279221 49.143643  L 417.330982 41.10517  L 418.382744 35.803582  L 419.434506 31.707811  L 420.486268 29.468506  L 421.538029 29.181389  L 422.58979 25.621519  L 423.641552 26.367979  L 424.693314 25.028203  L 425.745076 25.123899  L 426.796838 25.927747  L 427.848599 25.83199  L 428.90036 24.989924  L 429.952122 25.870329  L 431.003883 24.434886  L 432.055645 23.037722  L 433.107407 24.147859  L 434.159169 25.717155  L 435.21093 23.439708  L 436.262693 26.88465  L 437.314453 25.506744  L 438.366216 24.415685  L 439.417977 26.712515  L 440.469739 24.186014  L 441.5215 25.487484  L 442.573261 26.750794  L 443.625023 28.243537  L 444.676784 30.329828  L 445.728547 34.980556  L 446.780307 41.239184  L 447.83207 46.444973  L 448.883831 56.531422  L 449.935593 66.368942  L 450.987354 73.565304  L 452.039114 79.364528  L 453.090879 85.450784  L 454.14264 86.58  L 455.194401 86.58  L 456.246161 86.58  L 457.297926 86.58  L 458.349687 86.58  L 459.401447 86.58  L 460.453208 86.58  L 461.504973 86.58  L 462.556733 86.58  L 463.608494 86.58  L 464.660254 86.58  L 465.712019 86.58  L 466.76378 86.58  " clip-path="url(#p7d3e76d83c)" style="fill: none; stroke: #8c6bb1; stroke-width: 1.5; stroke-linecap: square"/>
   </g>
   <g id="line2d_31">
    <path d="M 362.639378 86.58  L 363.691139 86.58  L 364.742899 86.58  L 365.794664 86.58  L 366.846425 86.58  L 367.898185 86.58  L 368.949946 86.58  L 370.001711 86.58  L 371.053471 86.58  L 372.105232 86.58  L 373.156993 86.58  L 374.208757 86.58  L 375.260518 86.58  L 376.312279 86.58  L 377.364039 86.58  L 378.415804 86.58  L 379.467565 86.58  L 380.519325 86.58  L 381.571088 86.58  L 382.622849 86.58  L 383.674611 86.58  L 384.726372 86.58  L 385.778135 86.58  L 386.829895 86.58  L 387.881658 86.58  L 388.933419 86.58  L 389.985179 86.58  L 391.036942 86.58  L 392.088703 86.58  L 393.140465 86.58  L 394.192226 86.58  L 395.243989 86.58  L 396.295749 86.58  L 397.347512 86.58  L 398.399274 86.58  L 399.451035 86.58  L 400.502797 86.58  L 401.554559 86.58  L 402.606319 86.58  L 403.658081 86.58  L 404.709843 86.58  L 405.761604 86.58  L 406.813366 86.58  L 407.865128 86.58  L 408.916889 86.58  L 409.968651 86.58  L 411.020413 86.58  L 412.072174 69.316407  L 413.123936 59.363998  L 414.175698 51.114985  L 415.227459 43.708099  L 416.279221 39.995086  L 417.330982 35.152867  L 418.382744 34.693506  L 419.434506 34.023659  L 420.486268 33.104962  L 421.538029 33.793948  L 422.58979 33.698278  L 423.641552 34.100229  L 424.693314 33.277215  L 425.745076 31.631241  L 426.796838 32.569063  L 427.848599 32.913516  L 428.90036 31.267595  L 429.952122 31.726937  L 431.003883 32.415949  L 432.055645 29.698177  L 433.107407 32.224611  L 434.159169 31.248401  L 435.21093 31.99494  L 436.262693 33.832201  L 437.314453 31.229371  L 438.366216 32.932656  L 439.417977 31.248511  L 440.469739 32.875238  L 441.5215 32.913516  L 442.573261 33.774888  L 443.625023 31.51635  L 444.676784 33.755749  L 445.728547 33.793922  L 446.780307 35.382583  L 447.83207 36.301165  L 448.883831 41.8325  L 449.935593 47.746442  L 450.987354 57.6223  L 452.039114 66.349883  L 453.090879 83.134933  L 454.14264 86.58  L 455.194401 86.58  L 456.246161 86.58  L 457.297926 86.58  L 458.349687 86.58  L 459.401447 86.58  L 460.453208 86.58  L 461.504973 86.58  L 462.556733 86.58  L 463.608494 86.58  L 464.660254 86.58  L 465.712019 86.58  L 466.76378 86.58  " clip-path="url(#p7d3e76d83c)" style="fill: none; stroke: #810f7c; stroke-width: 1.5; stroke-linecap: square"/>
   </g>
   <g id="line2d_32">
    <path d="M 362.639378 86.58  L 363.691139 86.58  L 364.742899 86.58  L 365.794664 86.58  L 366.846425 86.58  L 367.898185 86.58  L 368.949946 86.58  L 370.001711 86.58  L 371.053471 86.58  L 372.105232 86.58  L 373.156993 86.58  L 374.208757 86.58  L 375.260518 86.58  L 376.312279 86.58  L 377.364039 86.58  L 378.415804 86.58  L 379.467565 86.58  L 380.519325 86.58  L 381.571088 86.58  L 382.622849 86.58  L 383.674611 86.58  L 384.726372 86.58  L 385.778135 86.58  L 386.829895 86.58  L 387.881658 86.58  L 388.933419 86.58  L 389.985179 86.58  L 391.036942 86.58  L 392.088703 86.58  L 393.140465 86.58  L 394.192226 86.58  L 395.243989 86.58  L 396.295749 86.58  L 397.347512 86.58  L 398.399274 86.58  L 399.451035 86.58  L 400.502797 86.58  L 401.554559 86.58  L 402.606319 86.58  L 403.658081 86.58  L 404.709843 86.58  L 405.761604 86.58  L 406.813366 86.58  L 407.865128 86.58  L 408.916889 86.58  L 409.968651 86.58  L 411.020413 86.58  L 412.072174 56.416561  L 413.123936 45.851694  L 414.175698 41.526225  L 415.227459 37.277313  L 416.279221 37.334731  L 417.330982 38.215145  L 418.382744 37.449557  L 419.434506 35.995  L 420.486268 33.966228  L 421.538029 35.994962  L 422.58979 37.640962  L 423.641552 36.511772  L 424.693314 34.387291  L 425.745076 37.200759  L 426.796838 38.042886  L 427.848599 34.999696  L 428.90036 33.755696  L 429.952122 36.052405  L 431.003883 36.43519  L 432.055645 35.439949  L 433.107407 35.459139  L 434.159169 35.860962  L 435.21093 34.999798  L 436.262693 35.573873  L 437.314453 34.904102  L 438.366216 35.535595  L 439.417977 36.645771  L 440.469739 35.746127  L 441.5215 35.688709  L 442.573261 36.071594  L 443.625023 36.416001  L 444.676784 35.612253  L 445.728547 36.511697  L 446.780307 37.717568  L 447.83207 36.932761  L 448.883831 36.301265  L 449.935593 39.420865  L 450.987354 44.320515  L 452.039114 50.330387  L 453.090879 78.732904  L 454.14264 86.58  L 455.194401 86.58  L 456.246161 86.58  L 457.297926 86.58  L 458.349687 86.58  L 459.401447 86.58  L 460.453208 86.58  L 461.504973 86.58  L 462.556733 86.58  L 463.608494 86.58  L 464.660254 86.58  L 465.712019 86.58  L 466.76378 86.58  " clip-path="url(#p7d3e76d83c)" style="fill: none; stroke: #4d004b; stroke-width: 1.5; stroke-linecap: square"/>
   </g>
   <g id="patch_9">
    <path d="M 357.433158 90.36  L 357.433158 7.2  " style="fill: none; stroke: #000000; stroke-width: 1.5; stroke-linejoin: miter; stroke-linecap: square"/>
   </g>
   <g id="patch_10">
    <path d="M 357.433158 90.36  L 471.97 90.36  " style="fill: none; stroke: #000000; stroke-width: 1.5; stroke-linejoin: miter; stroke-linecap: square"/>
   </g>
   <g id="line2d_33">
    <path d="M 362.639378 86.58  L 363.691139 86.58  L 364.742899 86.58  L 365.794664 86.58  L 366.846425 86.58  L 367.898185 86.58  L 368.949946 86.58  L 370.001711 86.58  L 371.053471 86.58  L 372.105232 86.58  L 373.156993 86.58  L 374.208757 86.58  L 375.260518 86.58  L 376.312279 86.58  L 377.364039 86.58  L 378.415804 86.58  L 379.467565 86.58  L 380.519325 86.58  L 381.571088 86.58  L 382.622849 86.58  L 383.674611 86.58  L 384.726372 86.58  L 385.778135 86.58  L 386.829895 86.58  L 387.881658 86.58  L 388.933419 86.58  L 389.985179 86.58  L 391.036942 86.58  L 392.088703 86.58  L 393.140465 86.58  L 394.192226 86.58  L 395.243989 86.58  L 396.295749 86.58  L 397.347512 86.58  L 398.399274 86.58  L 399.451035 86.58  L 400.502797 86.58  L 401.554559 86.58  L 402.606319 86.58  L 403.658081 86.58  L 404.709843 86.58  L 405.761604 86.58  L 406.813366 86.58  L 407.865128 86.58  L 408.916889 86.58  L 409.968651 86.58  L 411.020413 86.58  L 412.072174 42.062132  L 413.123936 38.789313  L 414.175698 39.88025  L 415.227459 36.722275  L 416.279221 37.813212  L 417.330982 36.530892  L 418.382744 37.085912  L 419.434506 36.99024  L 420.486268 37.124203  L 421.538029 38.636179  L 422.58979 37.889772  L 423.641552 38.463973  L 424.693314 39.325215  L 425.745076 35.765316  L 426.796838 38.904152  L 427.848599 35.899241  L 428.90036 37.066785  L 429.952122 36.741418  L 431.003883 37.985468  L 432.055645 37.602684  L 433.107407 39.229566  L 434.159169 37.506939  L 435.21093 37.373062  L 436.262693 39.401725  L 437.314453 38.368301  L 438.366216 39.325168  L 439.417977 38.88506  L 440.469739 37.047596  L 441.5215 37.640913  L 442.573261 37.16253  L 443.625023 35.095392  L 444.676784 37.066834  L 445.728547 38.042838  L 446.780307 37.028556  L 447.83207 35.803544  L 448.883831 38.578832  L 449.935593 38.999801  L 450.987354 37.181571  L 452.039114 38.808598  L 453.090879 73.450468  L 454.14264 86.58  L 455.194401 86.58  L 456.246161 86.58  L 457.297926 86.58  L 458.349687 86.58  L 459.401447 86.58  L 460.453208 86.58  L 461.504973 86.58  L 462.556733 86.58  L 463.608494 86.58  L 464.660254 86.58  L 465.712019 86.58  L 466.76378 86.58  " clip-path="url(#p7d3e76d83c)" style="fill: none; stroke: #238b45; stroke-width: 1.5; stroke-linecap: square"/>
   </g>
  </g>
 </g>
 <defs>
  <clipPath id="pbd5fef4a0d">
   <rect x="36.73" y="7.2" width="114.536842" height="83.16"/>
  </clipPath>
  <clipPath id="p826c05d9f8">
   <rect x="197.081579" y="7.2" width="114.536842" height="83.16"/>
  </clipPath>
  <clipPath id="p7d3e76d83c">
   <rect x="357.433158" y="7.2" width="114.536842" height="83.16"/>
  </clipPath>
 </defs>
</g>
      <text x="5" y="16" font-size="12pt" font-family="Arial" font-weight="800" letter-spacing="0" text-anchor="start" fill="black">b</text>
    </g>
  </g>
</svg>
