<?xml version='1.0' encoding='ASCII' standalone='yes'?>
<svg xmlns="http://www.w3.org/2000/svg" xmlns:xlink="http://www.w3.org/1999/xlink" version="1.1" width="15.7cm" viewBox="0 0 15.7cm 3.9cm" height="3.9cm">
  <g>
    <g transform="translate(-5, -5) scale(1) ">
      <g transform="translate(0, 0) scale(1) translate(0, 0) scale(1.25) "><metadata>
  <rdf:RDF xmlns:dc="http://purl.org/dc/elements/1.1/" xmlns:cc="http://creativecommons.org/ns#" xmlns:rdf="http://www.w3.org/1999/02/22-rdf-syntax-ns#">
   <cc:Work>
    <dc:type rdf:resource="http://purl.org/dc/dcmitype/StillImage"/>
    <dc:date>2022-08-05T14:23:26.885264</dc:date>
    <dc:format>image/svg+xml</dc:format>
    <dc:creator>
     <cc:Agent>
      <dc:title>Matplotlib v3.5.1, https://matplotlib.org/</dc:title>
     </cc:Agent>
    </dc:creator>
   </cc:Work>
  </rdf:RDF>
 </metadata>
 <defs>
  <style type="text/css">*{stroke-linejoin: round; stroke-linecap: butt}</style>
 </defs>
 <g id="figure_1">
  <g id="patch_1">
   <path d="M 0 129.91875  L 477.1375 129.91875  L 477.1375 0  L 0 0  z " style="fill: #ffffff"/>
  </g>
  <g id="axes_1">
   <g id="patch_2">
    <path d="M 34.6975 102.08625  L 109.738879 102.08625  L 109.738879 18.92625  L 34.6975 18.92625  z " style="fill: #ffffff"/>
   </g>
   <g id="matplotlib.axis_1">
    <g id="xtick_1">
     <g id="line2d_1">
      <defs>
       <path id="m936dbe4585" d="M 0 0  L 0 3.5  " style="stroke: #000000; stroke-width: 1.5"/>
      </defs>
      <g>
       <use xlink:href="#m936dbe4585" x="38.108472" y="102.08625" style="stroke: #000000; stroke-width: 1.5"/>
      </g>
     </g>
     <g id="text_1">
      <text style="font: 8px 'Arial'; text-anchor: middle" x="38.108472" y="114.8125" transform="rotate(-0, 38.108472, 114.8125)">&#8722;1</text>
     </g>
    </g>
    <g id="xtick_2">
     <g id="line2d_2">
      <g>
       <use xlink:href="#m936dbe4585" x="106.327908" y="102.08625" style="stroke: #000000; stroke-width: 1.5"/>
      </g>
     </g>
     <g id="text_2">
      <text style="font: 8px 'Arial'; text-anchor: middle" x="106.327908" y="114.8125" transform="rotate(-0, 106.327908, 114.8125)">1</text>
     </g>
    </g>
    <g id="text_3">
     <!-- $\theta$ -->
     <g transform="translate(69.97819 121.12875)">
      <text>
       <tspan style="font: 8px 'Arial'" x="0" y="-0.171875">&#952;</tspan>
      </text>
     </g>
    </g>
   </g>
   <g id="matplotlib.axis_2">
    <g id="ytick_1">
     <g id="line2d_3">
      <defs>
       <path id="mc5378da890" d="M 0 0  L -3.5 0  " style="stroke: #000000; stroke-width: 1.5"/>
      </defs>
      <g>
       <use xlink:href="#mc5378da890" x="34.6975" y="102.08625" style="stroke: #000000; stroke-width: 1.5"/>
      </g>
     </g>
     <g id="text_4">
      <text style="font: 8px 'Arial'; text-anchor: end" x="27.6975" y="104.949375" transform="rotate(-0, 27.6975, 104.949375)">0</text>
     </g>
    </g>
    <g id="ytick_2">
     <g id="line2d_4">
      <g>
       <use xlink:href="#mc5378da890" x="34.6975" y="18.92625" style="stroke: #000000; stroke-width: 1.5"/>
      </g>
     </g>
     <g id="text_5">
      <text style="font: 8px 'Arial'; text-anchor: end" x="27.6975" y="21.789375" transform="rotate(-0, 27.6975, 21.789375)">12</text>
     </g>
    </g>
    <g id="text_6">
     <!-- $p(\theta | x)$ -->
     <g transform="translate(13.04 70.66625)rotate(-90)">
      <text>
       <tspan style="font: 8px 'Arial'" x="0 4.449219 7.113281 11.5625 13.640625 17.640625" y="-0.171875">p(&#952;|x)</tspan>
      </text>
     </g>
    </g>
   </g>
   <g id="line2d_5">
    <path d="M 38.108472 102.086222  L 38.797558 102.086202  L 39.486642 102.08617  L 40.175727 102.086118  L 40.864813 102.086034  L 41.553897 102.085901  L 42.242983 102.085691  L 42.932069 102.085365  L 43.621153 102.084862  L 44.310239 102.084098  L 44.999323 102.082949  L 45.688409 102.08124  L 46.377495 102.078728  L 47.066578 102.075074  L 47.755664 102.069823  L 48.444748 102.06236  L 49.133834 102.051876  L 49.82292 102.037316  L 50.512004 102.017328  L 51.20109 101.990208  L 51.890176 101.953837  L 52.57926 101.905631  L 53.268345 101.842492  L 53.957431 101.760773  L 54.646517 101.656275  L 55.335602 101.524259  L 56.024688 101.359509  L 56.713773 101.156441  L 57.402858 100.909265  L 58.091943 100.6122  L 58.781029 100.259764  L 59.470114 99.847094  L 60.159198 99.370338  L 60.848283 98.827053  L 61.537369 98.216622  L 62.226454 97.540651  L 62.915539 96.803299  L 63.604624 96.011539  L 64.29371 95.175293  L 64.982795 94.30742  L 65.67188 93.423539  L 66.360966 92.541667  L 67.05005 91.681693  L 67.739136 90.864677  L 68.428221 90.112025  L 69.117306 89.444576  L 69.806392 88.881648  L 70.495476 88.44012  L 71.184562 88.133582  L 71.873647 87.971651  L 72.562732 87.959466  L 73.251818 88.097413  L 73.940903 88.381112  L 74.629988 88.801642  L 75.319073 89.34601  L 76.008158 89.997817  L 76.697243 90.738079  L 77.386329 91.546136  L 78.075414 92.400612  L 78.764499 93.280331  L 79.453585 94.165165  L 80.142669 95.036753  L 80.831755 95.879058  L 81.520839 96.67876  L 82.209925 97.425457  L 82.89901 98.111706  L 83.588096 98.732905  L 84.277181 99.287056  L 84.966266 99.774445  L 85.655351 100.197247  L 86.344437 100.559114  L 87.033521 100.864769  L 87.722607 101.119623  L 88.411692 101.329427  L 89.100778 101.499985  L 89.789862 101.636929  L 90.478948 101.745542  L 91.168034 101.830643  L 91.85712 101.896525  L 92.546204 101.946921  L 93.23529 101.985017  L 93.924375 102.013478  L 94.613459 102.034492  L 95.302545 102.04983  L 95.991631 102.060894  L 96.680715 102.068785  L 97.369801 102.074347  L 98.058885 102.078225  L 98.747971 102.080896  L 99.437057 102.082717  L 100.12614 102.083943  L 100.815226 102.084759  L 101.504312 102.085297  L 102.193396 102.085647  L 102.882482 102.085873  L 103.571568 102.086017  L 104.260652 102.086107  L 104.949738 102.086163  L 105.638822 102.086198  L 106.327908 102.08625  " clip-path="url(#p6adca0c505)" style="fill: none; stroke: #9ebcda; stroke-width: 1.5; stroke-linecap: square"/>
   </g>
   <g id="line2d_6">
    <path d="M 38.108472 102.086044  L 38.797558 102.085925  L 39.486642 102.085742  L 40.175727 102.085464  L 40.864813 102.085044  L 41.553897 102.084418  L 42.242983 102.083493  L 42.932069 102.082142  L 43.621153 102.080186  L 44.310239 102.077384  L 44.999323 102.073412  L 45.688409 102.067838  L 46.377495 102.060096  L 47.066578 102.049454  L 47.755664 102.034977  L 48.444748 102.015486  L 49.133834 101.98952  L 49.82292 101.955289  L 50.512004 101.910639  L 51.20109 101.853017  L 51.890176 101.779449  L 52.57926 101.686532  L 53.268345 101.570451  L 53.957431 101.427021  L 54.646517 101.251759  L 55.335602 101.04  L 56.024688 100.78704  L 56.713773 100.48834  L 57.402858 100.13975  L 58.091943 99.737775  L 58.781029 99.279868  L 59.470114 98.764728  L 60.159198 98.192604  L 60.848283 97.565554  L 61.537369 96.887685  L 62.226454 96.165304  L 62.915539 95.407001  L 63.604624 94.62359  L 64.29371 93.827979  L 64.982795 93.034891  L 65.67188 92.260453  L 66.360966 91.521697  L 67.05005 90.835959  L 67.739136 90.220213  L 68.428221 89.690379  L 69.117306 89.260654  L 69.806392 88.942859  L 70.495476 88.745919  L 71.184562 88.675436  L 71.873647 88.73343  L 72.562732 88.918241  L 73.251818 89.224603  L 73.940903 89.643901  L 74.629988 90.164571  L 75.319073 90.772623  L 76.008158 91.452277  L 76.697243 92.186629  L 77.386329 92.958349  L 78.075414 93.750349  L 78.764499 94.546386  L 79.453585 95.331585  L 80.142669 96.092848  L 80.831755 96.819144  L 81.520839 97.501659  L 82.209925 98.133876  L 82.89901 98.711474  L 83.588096 99.232203  L 84.277181 99.695652  L 84.966266 100.102982  L 85.655351 100.456633  L 86.344437 100.76002  L 87.033521 101.017242  L 87.722607 101.232809  L 88.411692 101.411419  L 89.100778 101.557749  L 89.789862 101.676305  L 90.478948 101.771305  L 91.168034 101.846602  L 91.85712 101.90564  L 92.546204 101.951435  L 93.23529 101.98658  L 93.924375 102.013267  L 94.613459 102.033319  L 95.302545 102.048229  L 95.991631 102.0592  L 96.680715 102.067189  L 97.369801 102.072947  L 98.058885 102.077055  L 98.747971 102.079954  L 99.437057 102.081981  L 100.12614 102.083383  L 100.815226 102.084343  L 101.504312 102.084993  L 102.193396 102.08543  L 102.882482 102.08572  L 103.571568 102.085911  L 104.260652 102.086035  L 104.949738 102.086115  L 105.638822 102.086166  L 106.327908 102.08625  " clip-path="url(#p6adca0c505)" style="fill: none; stroke: #8c6bb1; stroke-width: 1.5; stroke-linecap: square"/>
   </g>
   <g id="line2d_7">
    <path d="M 38.108472 102.086142  L 38.797558 102.086077  L 39.486642 102.085977  L 40.175727 102.085821  L 40.864813 102.085585  L 41.553897 102.085227  L 42.242983 102.084692  L 42.932069 102.0839  L 43.621153 102.082738  L 44.310239 102.081052  L 44.999323 102.078631  L 45.688409 102.075187  L 46.377495 102.070339  L 47.066578 102.063585  L 47.755664 102.054269  L 48.444748 102.041554  L 49.133834 102.024378  L 49.82292 102.001415  L 50.512004 101.971034  L 51.20109 101.931261  L 51.890176 101.879739  L 52.57926 101.813705  L 53.268345 101.729975  L 53.957431 101.624947  L 54.646517 101.494634  L 55.335602 101.334721  L 56.024688 101.140655  L 56.713773 100.907782  L 57.402858 100.631518  L 58.091943 100.307556  L 58.781029 99.932117  L 59.470114 99.502225  L 60.159198 99.016  L 60.848283 98.472951  L 61.537369 97.874265  L 62.226454 97.223043  L 62.915539 96.524496  L 63.604624 95.786061  L 64.29371 95.017405  L 64.982795 94.230345  L 65.67188 93.438623  L 66.360966 92.657576  L 67.05005 91.903684  L 67.739136 91.194021  L 68.428221 90.545627  L 69.117306 89.974839  L 69.806392 89.496614  L 70.495476 89.123877  L 71.184562 88.866939  L 71.873647 88.733027  L 72.562732 88.725947  L 73.251818 88.8459  L 73.940903 89.089476  L 74.629988 89.449812  L 75.319073 89.91692  L 76.008158 90.478136  L 76.697243 91.118701  L 77.386329 91.822397  L 78.075414 92.572226  L 78.764499 93.351087  L 79.453585 94.142406  L 80.142669 94.930694  L 80.831755 95.702014  L 81.520839 96.444321  L 82.209925 97.147704  L 82.89901 97.804478  L 83.588096 98.409187  L 84.277181 98.958504  L 84.966266 99.451043  L 85.655351 99.887119  L 86.344437 100.268475  L 87.033521 100.597978  L 87.722607 100.879333  L 88.411692 101.1168  L 89.100778 101.314944  L 89.789862 101.478422  L 90.478948 101.611803  L 91.168034 101.719435  L 91.85712 101.805345  L 92.546204 101.873178  L 93.23529 101.926167  L 93.924375 101.967121  L 94.613459 101.998441  L 95.302545 102.022141  L 95.991631 102.039889  L 96.680715 102.053043  L 97.369801 102.06269  L 98.058885 102.069694  L 98.747971 102.074726  L 99.437057 102.078305  L 100.12614 102.080824  L 100.815226 102.08258  L 101.504312 102.083791  L 102.193396 102.084618  L 102.882482 102.085178  L 103.571568 102.085552  L 104.260652 102.0858  L 104.949738 102.085962  L 105.638822 102.086068  L 106.327908 102.08625  " clip-path="url(#p6adca0c505)" style="fill: none; stroke: #810f7c; stroke-width: 1.5; stroke-linecap: square"/>
   </g>
   <g id="line2d_8">
    <path d="M 38.108472 102.083329  L 38.797558 102.082215  L 39.486642 102.080713  L 40.175727 102.078699  L 40.864813 102.07602  L 41.553897 102.07248  L 42.242983 102.067833  L 42.932069 102.061778  L 43.621153 102.053941  L 44.310239 102.04387  L 44.999323 102.031017  L 45.688409 102.014731  L 46.377495 101.994238  L 47.066578 101.968637  L 47.755664 101.936882  L 48.444748 101.897774  L 49.133834 101.84996  L 49.82292 101.791926  L 50.512004 101.722  L 51.20109 101.638365  L 51.890176 101.539077  L 52.57926 101.422085  L 53.268345 101.285275  L 53.957431 101.126507  L 54.646517 100.943679  L 55.335602 100.734788  L 56.024688 100.498008  L 56.713773 100.231771  L 57.402858 99.934858  L 58.091943 99.60649  L 58.781029 99.246422  L 59.470114 98.855027  L 60.159198 98.433382  L 60.848283 97.983325  L 61.537369 97.507514  L 62.226454 97.009452  L 62.915539 96.493484  L 63.604624 95.964779  L 64.29371 95.42927  L 64.982795 94.893564  L 65.67188 94.364826  L 66.360966 93.850634  L 67.05005 93.358806  L 67.739136 92.897203  L 68.428221 92.473531  L 69.117306 92.095125  L 69.806392 91.768738  L 70.495476 91.500347  L 71.184562 91.294963  L 71.873647 91.156482  L 72.562732 91.087558  L 73.251818 91.089522  L 73.940903 91.162334  L 74.629988 91.304591  L 75.319073 91.513567  L 76.008158 91.785302  L 76.697243 92.114725  L 77.386329 92.495814  L 78.075414 92.921777  L 78.764499 93.385253  L 79.453585 93.878523  L 80.142669 94.393719  L 80.831755 94.923035  L 81.520839 95.458914  L 82.209925 95.994214  L 82.89901 96.522363  L 83.588096 97.03747  L 84.277181 97.534409  L 84.966266 98.00888  L 85.655351 98.457429  L 86.344437 98.877446  L 87.033521 99.267131  L 87.722607 99.625453  L 88.411692 99.952072  L 89.100778 100.247266  L 89.789862 100.51184  L 90.478948 100.747037  L 91.168034 100.954439  L 91.85712 101.135884  L 92.546204 101.293383  L 93.23529 101.429043  L 93.924375 101.545003  L 94.613459 101.643374  L 95.302545 101.726202  L 95.991631 101.795425  L 96.680715 101.852853  L 97.369801 101.900148  L 98.058885 101.938815  L 98.747971 101.970201  L 99.437057 101.995494  L 100.12614 102.015732  L 100.815226 102.03181  L 101.504312 102.044493  L 102.193396 102.054428  L 102.882482 102.062155  L 103.571568 102.068124  L 104.260652 102.072702  L 104.949738 102.076188  L 105.638822 102.078826  L 106.327908 102.08625  " clip-path="url(#p6adca0c505)" style="fill: none; stroke: #4d004b; stroke-width: 1.5; stroke-linecap: square"/>
   </g>
   <g id="patch_3">
    <path d="M 34.6975 102.08625  L 34.6975 18.92625  " style="fill: none; stroke: #000000; stroke-width: 1.5; stroke-linejoin: miter; stroke-linecap: square"/>
   </g>
   <g id="patch_4">
    <path d="M 34.6975 102.08625  L 109.738879 102.08625  " style="fill: none; stroke: #000000; stroke-width: 1.5; stroke-linejoin: miter; stroke-linecap: square"/>
   </g>
   <g id="text_7">
    <text style="font: 8px 'Arial'; text-anchor: middle" x="72.21819" y="12.92625" transform="rotate(-0, 72.21819, 12.92625)">Round 1</text>
   </g>
   <g id="legend_1">
    <g id="line2d_9">
     <path d="M 41.8975 29.0525  L 49.8975 29.0525  L 57.8975 29.0525  " style="fill: none; stroke: #238b45; stroke-width: 1.5; stroke-linecap: square"/>
    </g>
    <g id="text_8">
     <text style="font: 8px 'Arial'; text-anchor: start" x="64.2975" y="31.8525" transform="rotate(-0, 64.2975, 31.8525)">Ground truth</text>
    </g>
    <g id="line2d_10">
     <path d="M 41.8975 40.36875  L 49.8975 40.36875  L 57.8975 40.36875  " style="fill: none; stroke: #9ebcda; stroke-width: 1.5; stroke-linecap: square"/>
    </g>
    <g id="text_9">
     <text style="font: 8px 'Arial'; text-anchor: start" x="64.2975" y="43.16875" transform="rotate(-0, 64.2975, 43.16875)">K=1</text>
    </g>
    <g id="line2d_11">
     <path d="M 41.8975 51.685  L 49.8975 51.685  L 57.8975 51.685  " style="fill: none; stroke: #8c6bb1; stroke-width: 1.5; stroke-linecap: square"/>
    </g>
    <g id="text_10">
     <text style="font: 8px 'Arial'; text-anchor: start" x="64.2975" y="54.485" transform="rotate(-0, 64.2975, 54.485)">K=2</text>
    </g>
    <g id="line2d_12">
     <path d="M 41.8975 63.00125  L 49.8975 63.00125  L 57.8975 63.00125  " style="fill: none; stroke: #810f7c; stroke-width: 1.5; stroke-linecap: square"/>
    </g>
    <g id="text_11">
     <text style="font: 8px 'Arial'; text-anchor: start" x="64.2975" y="65.80125" transform="rotate(-0, 64.2975, 65.80125)">K=8</text>
    </g>
    <g id="line2d_13">
     <path d="M 41.8975 74.3175  L 49.8975 74.3175  L 57.8975 74.3175  " style="fill: none; stroke: #4d004b; stroke-width: 1.5; stroke-linecap: square"/>
    </g>
    <g id="text_12">
     <text style="font: 8px 'Arial'; text-anchor: start" x="64.2975" y="77.1175" transform="rotate(-0, 64.2975, 77.1175)">K=64</text>
    </g>
   </g>
   <g id="line2d_14">
    <path d="M 38.108472 102.086198  L 38.797558 102.086165  L 39.486642 102.086111  L 40.175727 102.086026  L 40.864813 102.085892  L 41.553897 102.085683  L 42.242983 102.085362  L 42.932069 102.084874  L 43.621153 102.084137  L 44.310239 102.08304  L 44.999323 102.081422  L 45.688409 102.079062  L 46.377495 102.075658  L 47.066578 102.0708  L 47.755664 102.063942  L 48.444748 102.054368  L 49.133834 102.041148  L 49.82292 102.023092  L 50.512004 101.998707  L 51.20109 101.966138  L 51.890176 101.923125  L 52.57926 101.866958  L 53.268345 101.794444  L 53.957431 101.701893  L 54.646517 101.585127  L 55.335602 101.439521  L 56.024688 101.26008  L 56.713773 101.041565  L 57.402858 100.778665  L 58.091943 100.466219  L 58.781029 100.099487  L 59.470114 99.674472  L 60.159198 99.188256  L 60.848283 98.639367  L 61.537369 98.028133  L 62.226454 97.357009  L 62.915539 96.630843  L 63.604624 95.857058  L 64.29371 95.045722  L 64.982795 94.20949  L 65.67188 93.36339  L 66.360966 92.524464  L 67.05005 91.711253  L 67.739136 90.943155  L 68.428221 90.239681  L 69.117306 89.619646  L 69.806392 89.10033  L 70.495476 88.696698  L 71.184562 88.420663  L 71.873647 88.280519  L 72.562732 88.280519  L 73.251818 88.420663  L 73.940903 88.696698  L 74.629988 89.10033  L 75.319073 89.619646  L 76.008158 90.239681  L 76.697243 90.943155  L 77.386329 91.711253  L 78.075414 92.524464  L 78.764499 93.36339  L 79.453585 94.20949  L 80.142669 95.045722  L 80.831755 95.857058  L 81.520839 96.630842  L 82.209925 97.357009  L 82.89901 98.028133  L 83.588096 98.639367  L 84.277181 99.188256  L 84.966266 99.674472  L 85.655351 100.099487  L 86.344437 100.466219  L 87.033521 100.778665  L 87.722607 101.041566  L 88.411692 101.26008  L 89.100778 101.439521  L 89.789862 101.585127  L 90.478948 101.701893  L 91.168034 101.794444  L 91.85712 101.866958  L 92.546204 101.923125  L 93.23529 101.966138  L 93.924375 101.998707  L 94.613459 102.023092  L 95.302545 102.041148  L 95.991631 102.054368  L 96.680715 102.063942  L 97.369801 102.0708  L 98.058885 102.075658  L 98.747971 102.079062  L 99.437057 102.081422  L 100.12614 102.08304  L 100.815226 102.084137  L 101.504312 102.084874  L 102.193396 102.085362  L 102.882482 102.085683  L 103.571568 102.085892  L 104.260652 102.086026  L 104.949738 102.086111  L 105.638822 102.086165  L 106.327908 102.086198  " clip-path="url(#p6adca0c505)" style="fill: none; stroke: #238b45; stroke-width: 1.5; stroke-linecap: square"/>
   </g>
  </g>
  <g id="axes_2">
   <g id="patch_5">
    <path d="M 124.747155 102.08625  L 199.788534 102.08625  L 199.788534 18.92625  L 124.747155 18.92625  z " style="fill: #ffffff"/>
   </g>
   <g id="matplotlib.axis_3">
    <g id="xtick_3">
     <g id="line2d_15">
      <g>
       <use xlink:href="#m936dbe4585" x="128.158127" y="102.08625" style="stroke: #000000; stroke-width: 1.5"/>
      </g>
     </g>
     <g id="text_13">
      <text style="font: 8px 'Arial'; text-anchor: middle" x="128.158127" y="114.8125" transform="rotate(-0, 128.158127, 114.8125)">&#8722;1</text>
     </g>
    </g>
    <g id="xtick_4">
     <g id="line2d_16">
      <g>
       <use xlink:href="#m936dbe4585" x="196.377563" y="102.08625" style="stroke: #000000; stroke-width: 1.5"/>
      </g>
     </g>
     <g id="text_14">
      <text style="font: 8px 'Arial'; text-anchor: middle" x="196.377563" y="114.8125" transform="rotate(-0, 196.377563, 114.8125)">1</text>
     </g>
    </g>
    <g id="text_15">
     <!-- $\theta$ -->
     <g transform="translate(160.027845 121.12875)">
      <text>
       <tspan style="font: 8px 'Arial'" x="0" y="-0.171875">&#952;</tspan>
      </text>
     </g>
    </g>
   </g>
   <g id="matplotlib.axis_4">
    <g id="ytick_3">
     <g id="line2d_17">
      <g>
       <use xlink:href="#mc5378da890" x="124.747155" y="102.08625" style="stroke: #000000; stroke-width: 1.5"/>
      </g>
     </g>
    </g>
    <g id="ytick_4">
     <g id="line2d_18">
      <g>
       <use xlink:href="#mc5378da890" x="124.747155" y="18.92625" style="stroke: #000000; stroke-width: 1.5"/>
      </g>
     </g>
    </g>
   </g>
   <g id="line2d_19">
    <path d="M 128.158127 102.08625  L 128.847213 102.08625  L 129.536297 102.08625  L 130.225383 102.08625  L 130.914469 102.08625  L 131.603552 102.08625  L 132.292638 102.08625  L 132.981724 102.08625  L 133.670808 102.086249  L 134.359894 102.086249  L 135.048978 102.086247  L 135.738064 102.086244  L 136.42715 102.086238  L 137.116234 102.086224  L 137.80532 102.086198  L 138.494403 102.086145  L 139.183489 102.086043  L 139.872575 102.085851  L 140.561659 102.085495  L 141.250745 102.084847  L 141.939831 102.083695  L 142.628915 102.081687  L 143.318001 102.078258  L 144.007087 102.072523  L 144.696172 102.063125  L 145.385257 102.048046  L 146.074343 102.024353  L 146.763428 101.987903  L 147.452513 101.933005  L 148.141598 101.852074  L 148.830684 101.73531  L 149.519769 101.570479  L 150.208854 101.342866  L 150.897939 101.035494  L 151.587024 100.629702  L 152.276109 100.106178  L 152.965194 99.446469  L 153.654279 98.634901  L 154.343365 97.660947  L 155.03245 96.521704  L 155.721535 95.224268  L 156.410621 93.787698  L 157.099706 92.244144  L 157.788791 90.638856  L 158.477876 89.028797  L 159.166961 87.479868  L 159.856047 86.062654  L 160.545132 84.84732  L 161.234217 83.89789  L 161.923302 83.266681  L 162.612387 82.989531  L 163.301473 83.082436  L 163.990558 83.540018  L 164.679643 84.336044  L 165.368728 85.425892  L 166.057813 86.750746  L 166.746899 88.242789  L 167.435984 89.830942  L 168.125069 91.44637  L 168.814154 93.027211  L 169.50324 94.522094  L 170.192325 95.892242  L 170.881411 97.11214  L 171.570494 98.168893  L 172.25958 99.060708  L 172.948665 99.794611  L 173.637751 100.384006  L 174.326836 100.846224  L 175.015921 101.200375  L 175.705006 101.465599  L 176.394092 101.659813  L 177.083177 101.798911  L 177.772263 101.896375  L 178.461347 101.963202  L 179.150433 102.008049  L 179.839517 102.03751  L 180.528603 102.056459  L 181.217689 102.068392  L 181.906775 102.075752  L 182.595859 102.080198  L 183.284945 102.082828  L 183.974031 102.084353  L 184.663114 102.085218  L 185.3522 102.0857  L 186.041286 102.085962  L 186.73037 102.086102  L 187.419456 102.086176  L 188.10854 102.086213  L 188.797626 102.086232  L 189.486712 102.086242  L 190.175796 102.086246  L 190.864882 102.086248  L 191.553967 102.086249  L 192.243051 102.08625  L 192.932137 102.08625  L 193.621223 102.08625  L 194.310307 102.08625  L 194.999393 102.08625  L 195.688477 102.08625  L 196.377563 102.08625  " clip-path="url(#p7122cf8753)" style="fill: none; stroke: #9ebcda; stroke-width: 1.5; stroke-linecap: square"/>
   </g>
   <g id="line2d_20">
    <path d="M 128.158127 102.086189  L 128.847213 102.086148  L 129.536297 102.086083  L 130.225383 102.085978  L 130.914469 102.085812  L 131.603552 102.085554  L 132.292638 102.085154  L 132.981724 102.084542  L 133.670808 102.083618  L 134.359894 102.082236  L 135.048978 102.080194  L 135.738064 102.077209  L 136.42715 102.072895  L 137.116234 102.066732  L 137.80532 102.058026  L 138.494403 102.045869  L 139.183489 102.029085  L 139.872575 102.006182  L 140.561659 101.97529  L 141.250745 101.934103  L 141.939831 101.879836  L 142.628915 101.809174  L 143.318001 101.718256  L 144.007087 101.602673  L 144.696172 101.457506  L 145.385257 101.277408  L 146.074343 101.056725  L 146.763428 100.789691  L 147.452513 100.470662  L 148.141598 100.094422  L 148.830684 99.656534  L 149.519769 99.153723  L 150.208854 98.584291  L 150.897939 97.948512  L 151.587024 97.24901  L 152.276109 96.491061  L 152.965194 95.682789  L 153.654279 94.835258  L 154.343365 93.96238  L 155.03245 93.080685  L 155.721535 92.208869  L 156.410621 91.367224  L 157.099706 90.576881  L 157.788791 89.858952  L 158.477876 89.23362  L 159.166961 88.719174  L 159.856047 88.33116  L 160.545132 88.08157  L 161.234217 87.978245  L 161.923302 88.024455  L 162.612387 88.218737  L 163.301473 88.554962  L 163.990558 89.022664  L 164.679643 89.607579  L 165.368728 90.292361  L 166.057813 91.057447  L 166.746899 91.881968  L 167.435984 92.744694  L 168.125069 93.624919  L 168.814154 94.503252  L 169.50324 95.362279  L 170.192325 96.187047  L 170.881411 96.965379  L 171.570494 97.688033  L 172.25958 98.348655  L 172.948665 98.943638  L 173.637751 99.471851  L 174.326836 99.934283  L 175.015921 100.333652  L 175.705006 100.674  L 176.394092 100.960289  L 177.083177 101.198035  L 177.772263 101.392992  L 178.461347 101.550879  L 179.150433 101.67718  L 179.839517 101.77699  L 180.528603 101.85492  L 181.217689 101.915043  L 181.906775 101.960879  L 182.595859 101.995415  L 183.284945 102.021133  L 183.974031 102.040064  L 184.663114 102.053837  L 185.3522 102.063744  L 186.041286 102.070788  L 186.73037 102.075739  L 187.419456 102.079181  L 188.10854 102.081546  L 188.797626 102.083153  L 189.486712 102.084232  L 190.175796 102.084949  L 190.864882 102.085421  L 191.553967 102.085727  L 192.243051 102.085923  L 192.932137 102.086048  L 193.621223 102.086127  L 194.310307 102.086175  L 194.999393 102.086205  L 195.688477 102.086224  L 196.377563 102.08625  " clip-path="url(#p7122cf8753)" style="fill: none; stroke: #8c6bb1; stroke-width: 1.5; stroke-linecap: square"/>
   </g>
   <g id="line2d_21">
    <path d="M 128.158127 102.086249  L 128.847213 102.086247  L 129.536297 102.086245  L 130.225383 102.086241  L 130.914469 102.086234  L 131.603552 102.08622  L 132.292638 102.086197  L 132.981724 102.086156  L 133.670808 102.086086  L 134.359894 102.085969  L 135.048978 102.085772  L 135.738064 102.085449  L 136.42715 102.084926  L 137.116234 102.084089  L 137.80532 102.082769  L 138.494403 102.080715  L 139.183489 102.077564  L 139.872575 102.072799  L 140.561659 102.06569  L 141.250745 102.055236  L 141.939831 102.040075  L 142.628915 102.018402  L 143.318001 101.987858  L 144.007087 101.945426  L 144.696172 101.887327  L 145.385257 101.808927  L 146.074343 101.704676  L 146.763428 101.568091  L 147.452513 101.391801  L 148.141598 101.167686  L 148.830684 100.887108  L 149.519769 100.541265  L 150.208854 100.121669  L 150.897939 99.620734  L 151.587024 99.032469  L 152.276109 98.353231  L 152.965194 97.582496  L 153.654279 96.723579  L 154.343365 95.784226  L 155.03245 94.777031  L 155.721535 93.719551  L 156.410621 92.634126  L 157.099706 91.547311  L 157.788791 90.48896  L 158.477876 89.490954  L 159.166961 88.585672  L 159.856047 87.804266  L 160.545132 87.174903  L 161.234217 86.721077  L 161.923302 86.460167  L 162.612387 86.402315  L 163.301473 86.549791  L 163.990558 86.896826  L 164.679643 87.430005  L 165.368728 88.129115  L 166.057813 88.968418  L 166.746899 89.918229  L 167.435984 90.946639  L 168.125069 92.021283  L 168.814154 93.110995  L 169.50324 94.187226  L 170.192325 95.225174  L 170.881411 96.204547  L 171.570494 97.109952  L 172.25958 97.930958  L 172.948665 98.661813  L 173.637751 99.30097  L 174.326836 99.85041  L 175.015921 100.314899  L 175.705006 100.701214  L 176.394092 101.017419  L 177.083177 101.272202  L 177.772263 101.474347  L 178.461347 101.632301  L 179.150433 101.753878  L 179.839517 101.846072  L 180.528603 101.914959  L 181.217689 101.965683  L 181.906775 102.002494  L 182.595859 102.028826  L 183.284945 102.047394  L 183.974031 102.060301  L 184.663114 102.069147  L 185.3522 102.075124  L 186.041286 102.079107  L 186.73037 102.081724  L 187.419456 102.08342  L 188.10854 102.084503  L 188.797626 102.085186  L 189.486712 102.08561  L 190.175796 102.08587  L 190.864882 102.086028  L 191.553967 102.086122  L 192.243051 102.086177  L 192.932137 102.086209  L 193.621223 102.086227  L 194.310307 102.086237  L 194.999393 102.086243  L 195.688477 102.086246  L 196.377563 102.08625  " clip-path="url(#p7122cf8753)" style="fill: none; stroke: #810f7c; stroke-width: 1.5; stroke-linecap: square"/>
   </g>
   <g id="line2d_22">
    <path d="M 128.158127 102.086219  L 128.847213 102.086198  L 129.536297 102.086164  L 130.225383 102.086108  L 130.914469 102.086019  L 131.603552 102.085878  L 132.292638 102.085658  L 132.981724 102.085317  L 133.670808 102.084796  L 134.359894 102.084006  L 135.048978 102.082824  L 135.738064 102.081073  L 136.42715 102.07851  L 137.116234 102.074799  L 137.80532 102.069486  L 138.494403 102.061963  L 139.183489 102.051431  L 139.872575 102.036855  L 140.561659 102.016908  L 141.250745 101.989924  L 141.939831 101.953836  L 142.628915 101.90613  L 143.318001 101.843797  L 144.007087 101.7633  L 144.696172 101.660572  L 145.385257 101.53103  L 146.074343 101.36963  L 146.763428 101.170974  L 147.452513 100.929462  L 148.141598 100.639494  L 148.830684 100.295746  L 149.519769 99.893472  L 150.208854 99.428875  L 150.897939 98.899484  L 151.587024 98.304552  L 152.276109 97.645437  L 152.965194 96.925922  L 153.654279 96.152474  L 154.343365 95.334379  L 155.03245 94.483754  L 155.721535 93.615393  L 156.410621 92.74645  L 157.099706 91.895951  L 157.788791 91.084156  L 158.477876 90.331786  L 159.166961 89.659158  L 159.856047 89.085295  L 160.545132 88.627023  L 161.234217 88.298161  L 161.923302 88.108829  L 162.612387 88.06492  L 163.301473 88.167814  L 163.990558 88.41429  L 164.679643 88.796701  L 165.368728 89.30337  L 166.057813 89.919171  L 166.746899 90.626291  L 167.435984 91.405079  L 168.125069 92.234944  L 168.814154 93.095253  L 169.50324 93.966158  L 170.192325 94.829316  L 170.881411 95.668474  L 171.570494 96.46989  L 172.25958 97.222575  L 172.948665 97.918391  L 173.637751 98.551972  L 174.326836 99.120547  L 175.015921 99.623652  L 175.705006 100.062771  L 176.394092 100.440959  L 177.083177 100.762439  L 177.772263 101.032232  L 178.461347 101.255808  L 179.150433 101.438794  L 179.839517 101.586733  L 180.528603 101.704896  L 181.217689 101.798148  L 181.906775 101.870871  L 182.595859 101.926919  L 183.284945 101.969613  L 183.974031 102.001759  L 184.663114 102.025685  L 185.3522 102.043289  L 186.041286 102.056095  L 186.73037 102.065304  L 187.419456 102.071853  L 188.10854 102.076458  L 188.797626 102.079659  L 189.486712 102.081861  L 190.175796 102.083357  L 190.864882 102.084363  L 191.553967 102.085032  L 192.243051 102.085472  L 192.932137 102.085759  L 193.621223 102.085943  L 194.310307 102.08606  L 194.999393 102.086134  L 195.688477 102.086179  L 196.377563 102.08625  " clip-path="url(#p7122cf8753)" style="fill: none; stroke: #4d004b; stroke-width: 1.5; stroke-linecap: square"/>
   </g>
   <g id="patch_6">
    <path d="M 124.747155 102.08625  L 124.747155 18.92625  " style="fill: none; stroke: #000000; stroke-width: 1.5; stroke-linejoin: miter; stroke-linecap: square"/>
   </g>
   <g id="patch_7">
    <path d="M 124.747155 102.08625  L 199.788534 102.08625  " style="fill: none; stroke: #000000; stroke-width: 1.5; stroke-linejoin: miter; stroke-linecap: square"/>
   </g>
   <g id="text_16">
    <text style="font: 8px 'Arial'; text-anchor: middle" x="162.267845" y="12.92625" transform="rotate(-0, 162.267845, 12.92625)">Round 2</text>
   </g>
   <g id="line2d_23">
    <path d="M 128.158127 102.086198  L 128.847213 102.086165  L 129.536297 102.086111  L 130.225383 102.086026  L 130.914469 102.085892  L 131.603552 102.085683  L 132.292638 102.085362  L 132.981724 102.084874  L 133.670808 102.084137  L 134.359894 102.08304  L 135.048978 102.081422  L 135.738064 102.079062  L 136.42715 102.075658  L 137.116234 102.0708  L 137.80532 102.063942  L 138.494403 102.054368  L 139.183489 102.041148  L 139.872575 102.023092  L 140.561659 101.998707  L 141.250745 101.966138  L 141.939831 101.923125  L 142.628915 101.866958  L 143.318001 101.794444  L 144.007087 101.701893  L 144.696172 101.585127  L 145.385257 101.439521  L 146.074343 101.26008  L 146.763428 101.041565  L 147.452513 100.778665  L 148.141598 100.466219  L 148.830684 100.099487  L 149.519769 99.674472  L 150.208854 99.188256  L 150.897939 98.639367  L 151.587024 98.028133  L 152.276109 97.357009  L 152.965194 96.630843  L 153.654279 95.857058  L 154.343365 95.045722  L 155.03245 94.20949  L 155.721535 93.36339  L 156.410621 92.524464  L 157.099706 91.711253  L 157.788791 90.943155  L 158.477876 90.239681  L 159.166961 89.619646  L 159.856047 89.10033  L 160.545132 88.696698  L 161.234217 88.420663  L 161.923302 88.280519  L 162.612387 88.280519  L 163.301473 88.420663  L 163.990558 88.696698  L 164.679643 89.10033  L 165.368728 89.619646  L 166.057813 90.239681  L 166.746899 90.943155  L 167.435984 91.711253  L 168.125069 92.524464  L 168.814154 93.36339  L 169.50324 94.20949  L 170.192325 95.045722  L 170.881411 95.857058  L 171.570494 96.630842  L 172.25958 97.357009  L 172.948665 98.028133  L 173.637751 98.639367  L 174.326836 99.188256  L 175.015921 99.674472  L 175.705006 100.099487  L 176.394092 100.466219  L 177.083177 100.778665  L 177.772263 101.041566  L 178.461347 101.26008  L 179.150433 101.439521  L 179.839517 101.585127  L 180.528603 101.701893  L 181.217689 101.794444  L 181.906775 101.866958  L 182.595859 101.923125  L 183.284945 101.966138  L 183.974031 101.998707  L 184.663114 102.023092  L 185.3522 102.041148  L 186.041286 102.054368  L 186.73037 102.063942  L 187.419456 102.0708  L 188.10854 102.075658  L 188.797626 102.079062  L 189.486712 102.081422  L 190.175796 102.08304  L 190.864882 102.084137  L 191.553967 102.084874  L 192.243051 102.085362  L 192.932137 102.085683  L 193.621223 102.085892  L 194.310307 102.086026  L 194.999393 102.086111  L 195.688477 102.086165  L 196.377563 102.086198  " clip-path="url(#p7122cf8753)" style="fill: none; stroke: #238b45; stroke-width: 1.5; stroke-linecap: square"/>
   </g>
  </g>
  <g id="axes_3">
   <g id="patch_8">
    <path d="M 214.79681 102.08625  L 289.83819 102.08625  L 289.83819 18.92625  L 214.79681 18.92625  z " style="fill: #ffffff"/>
   </g>
   <g id="matplotlib.axis_5">
    <g id="xtick_5">
     <g id="line2d_24">
      <g>
       <use xlink:href="#m936dbe4585" x="218.207782" y="102.08625" style="stroke: #000000; stroke-width: 1.5"/>
      </g>
     </g>
     <g id="text_17">
      <text style="font: 8px 'Arial'; text-anchor: middle" x="218.207782" y="114.8125" transform="rotate(-0, 218.207782, 114.8125)">&#8722;1</text>
     </g>
    </g>
    <g id="xtick_6">
     <g id="line2d_25">
      <g>
       <use xlink:href="#m936dbe4585" x="286.427218" y="102.08625" style="stroke: #000000; stroke-width: 1.5"/>
      </g>
     </g>
     <g id="text_18">
      <text style="font: 8px 'Arial'; text-anchor: middle" x="286.427218" y="114.8125" transform="rotate(-0, 286.427218, 114.8125)">1</text>
     </g>
    </g>
    <g id="text_19">
     <!-- $\theta$ -->
     <g transform="translate(250.0775 121.12875)">
      <text>
       <tspan style="font: 8px 'Arial'" x="0" y="-0.171875">&#952;</tspan>
      </text>
     </g>
    </g>
   </g>
   <g id="matplotlib.axis_6">
    <g id="ytick_5">
     <g id="line2d_26">
      <g>
       <use xlink:href="#mc5378da890" x="214.79681" y="102.08625" style="stroke: #000000; stroke-width: 1.5"/>
      </g>
     </g>
    </g>
    <g id="ytick_6">
     <g id="line2d_27">
      <g>
       <use xlink:href="#mc5378da890" x="214.79681" y="18.92625" style="stroke: #000000; stroke-width: 1.5"/>
      </g>
     </g>
    </g>
   </g>
   <g id="line2d_28">
    <path d="M 218.207782 102.08625  L 218.896868 102.08625  L 219.585952 102.08625  L 220.275038 102.08625  L 220.964124 102.08625  L 221.653208 102.08625  L 222.342294 102.08625  L 223.031379 102.08625  L 223.720463 102.08625  L 224.409549 102.08625  L 225.098633 102.08625  L 225.787719 102.08625  L 226.476805 102.08625  L 227.165889 102.08625  L 227.854975 102.08625  L 228.544059 102.08625  L 229.233144 102.08625  L 229.92223 102.08625  L 230.611314 102.08625  L 231.3004 102.08625  L 231.989486 102.08625  L 232.67857 102.08625  L 233.367656 102.08625  L 234.056742 102.086248  L 234.745828 102.086244  L 235.434913 102.086229  L 236.123998 102.086182  L 236.813083 102.086045  L 237.502168 102.085662  L 238.191253 102.08464  L 238.880339 102.082055  L 239.569424 102.075842  L 240.258509 102.061659  L 240.947594 102.03093  L 241.63668 101.967753  L 242.325765 101.84457  L 243.014849 101.616914  L 243.703934 101.21841  L 244.39302 100.558304  L 245.082105 99.524796  L 245.77119 97.997625  L 246.460276 95.872133  L 247.149361 93.093488  L 247.838446 89.694907  L 248.527531 85.828688  L 249.216616 81.77656  L 249.905702 77.928131  L 250.594787 74.725097  L 251.283872 72.579778  L 251.972957 71.788414  L 252.662043 72.464032  L 253.351128 74.510018  L 254.040213 77.642721  L 254.729298 81.456015  L 255.418384 85.507323  L 256.107468 89.400387  L 256.796554 92.84363  L 257.485639 95.674424  L 258.174724 97.850992  L 258.86381 99.422524  L 259.552895 100.491067  L 260.24198 101.176665  L 260.931066 101.592409  L 261.62015 101.830954  L 262.309235 101.960586  L 262.99832 102.027353  L 263.687406 102.059967  L 264.376491 102.075082  L 265.065576 102.081731  L 265.754661 102.084509  L 266.443747 102.085612  L 267.132832 102.086027  L 267.821918 102.086176  L 268.511003 102.086227  L 269.200088 102.086243  L 269.889172 102.086248  L 270.578258 102.086249  L 271.267344 102.08625  L 271.95643 102.08625  L 272.645514 102.08625  L 273.3346 102.08625  L 274.023686 102.08625  L 274.71277 102.08625  L 275.401856 102.08625  L 276.090941 102.08625  L 276.780025 102.08625  L 277.469111 102.08625  L 278.158195 102.08625  L 278.847281 102.08625  L 279.536367 102.08625  L 280.225451 102.08625  L 280.914537 102.08625  L 281.603623 102.08625  L 282.292706 102.08625  L 282.981792 102.08625  L 283.670878 102.08625  L 284.359962 102.08625  L 285.049048 102.08625  L 285.738132 102.08625  L 286.427218 102.08625  " clip-path="url(#pd78cfa5158)" style="fill: none; stroke: #9ebcda; stroke-width: 1.5; stroke-linecap: square"/>
   </g>
   <g id="line2d_29">
    <path d="M 218.207782 102.08625  L 218.896868 102.08625  L 219.585952 102.08625  L 220.275038 102.08625  L 220.964124 102.08625  L 221.653208 102.08625  L 222.342294 102.08625  L 223.031379 102.08625  L 223.720463 102.08625  L 224.409549 102.086249  L 225.098633 102.086248  L 225.787719 102.086246  L 226.476805 102.086241  L 227.165889 102.086231  L 227.854975 102.086208  L 228.544059 102.086163  L 229.233144 102.086072  L 229.92223 102.085894  L 230.611314 102.085553  L 231.3004 102.084912  L 231.989486 102.083736  L 232.67857 102.081627  L 233.367656 102.07793  L 234.056742 102.071593  L 234.745828 102.060975  L 235.434913 102.043588  L 236.123998 102.015761  L 236.813083 101.972248  L 237.502168 101.905775  L 238.191253 101.806585  L 238.880339 101.662046  L 239.569424 101.456417  L 240.258509 101.170891  L 240.947594 100.784064  L 241.63668 100.272948  L 242.325765 99.614627  L 243.014849 98.788565  L 243.703934 97.779482  L 244.39302 96.580593  L 245.082105 95.196844  L 245.77119 93.647666  L 246.460276 91.968764  L 247.149361 90.212423  L 247.838446 88.445947  L 248.527531 86.748114  L 249.216616 85.203771  L 249.905702 83.896989  L 250.594787 82.90358  L 251.283872 82.283834  L 251.972957 82.07646  L 252.662043 82.294595  L 253.351128 82.924431  L 254.040213 83.926637  L 254.729298 85.240451  L 255.418384 86.789759  L 256.107468 88.490374  L 256.796554 90.257532  L 257.485639 92.012681  L 258.174724 93.688861  L 258.86381 95.234204  L 259.552895 96.613426  L 260.24198 97.80749  L 260.931066 98.811793  L 261.62015 99.63337  L 262.309235 100.287679  L 262.99832 100.795342  L 263.687406 101.179313  L 264.376491 101.462552  L 265.065576 101.666407  L 265.754661 101.80961  L 266.443747 101.907824  L 267.132832 101.973604  L 267.821918 102.016637  L 268.511003 102.044141  L 269.200088 102.061317  L 269.889172 102.071799  L 270.578258 102.078052  L 271.267344 102.081697  L 271.95643 102.083775  L 272.645514 102.084933  L 273.3346 102.085564  L 274.023686 102.0859  L 274.71277 102.086076  L 275.401856 102.086165  L 276.090941 102.086209  L 276.780025 102.086231  L 277.469111 102.086241  L 278.158195 102.086246  L 278.847281 102.086248  L 279.536367 102.086249  L 280.225451 102.08625  L 280.914537 102.08625  L 281.603623 102.08625  L 282.292706 102.08625  L 282.981792 102.08625  L 283.670878 102.08625  L 284.359962 102.08625  L 285.049048 102.08625  L 285.738132 102.08625  L 286.427218 102.08625  " clip-path="url(#pd78cfa5158)" style="fill: none; stroke: #8c6bb1; stroke-width: 1.5; stroke-linecap: square"/>
   </g>
   <g id="line2d_30">
    <path d="M 218.207782 102.08625  L 218.896868 102.08625  L 219.585952 102.08625  L 220.275038 102.08625  L 220.964124 102.086249  L 221.653208 102.086248  L 222.342294 102.086246  L 223.031379 102.086242  L 223.720463 102.086235  L 224.409549 102.086222  L 225.098633 102.086197  L 225.787719 102.086153  L 226.476805 102.086074  L 227.165889 102.085937  L 227.854975 102.085699  L 228.544059 102.085296  L 229.233144 102.084622  L 229.92223 102.083515  L 230.611314 102.081721  L 231.3004 102.078864  L 231.989486 102.074384  L 232.67857 102.06747  L 233.367656 102.056971  L 234.056742 102.041281  L 234.745828 102.018212  L 235.434913 101.984843  L 236.123998 101.937359  L 236.813083 101.870898  L 237.502168 101.77941  L 238.191253 101.655568  L 238.880339 101.490747  L 239.569424 101.275118  L 240.258509 100.997868  L 240.947594 100.647608  L 241.63668 100.212957  L 242.325765 99.683323  L 243.014849 99.049864  L 243.703934 98.306571  L 244.39302 97.45141  L 245.082105 96.487438  L 245.77119 95.423726  L 246.460276 94.276029  L 247.149361 93.067019  L 247.838446 91.826014  L 248.527531 90.588131  L 249.216616 89.392849  L 249.905702 88.282065  L 250.594787 87.297714  L 251.283872 86.479184  L 251.972957 85.860715  L 252.662043 85.46903  L 253.351128 85.321411  L 254.040213 85.424446  L 254.729298 85.773532  L 255.418384 86.353224  L 256.107468 87.138362  L 256.796554 88.095883  L 257.485639 89.187133  L 258.174724 90.370436  L 258.86381 91.603706  L 259.552895 92.846878  L 260.24198 94.063931  L 260.931066 95.224434  L 261.62015 96.304493  L 262.309235 97.287125  L 262.99832 98.162094  L 263.687406 98.925341  L 264.376491 99.578066  L 265.065576 100.125652  L 265.754661 100.576521  L 266.443747 100.941024  L 267.132832 101.230464  L 267.821918 101.456279  L 268.511003 101.629416  L 269.200088 101.759905  L 269.889172 101.856594  L 270.578258 101.927044  L 271.267344 101.977527  L 271.95643 102.013108  L 272.645514 102.037777  L 273.3346 102.054605  L 274.023686 102.065899  L 274.71277 102.073357  L 275.401856 102.078203  L 276.090941 102.081303  L 276.780025 102.083254  L 277.469111 102.084462  L 278.158195 102.085199  L 278.847281 102.085642  L 279.536367 102.085903  L 280.225451 102.086055  L 280.914537 102.086142  L 281.603623 102.086191  L 282.292706 102.086218  L 282.981792 102.086233  L 283.670878 102.086241  L 284.359962 102.086246  L 285.049048 102.086248  L 285.738132 102.086249  L 286.427218 102.08625  " clip-path="url(#pd78cfa5158)" style="fill: none; stroke: #810f7c; stroke-width: 1.5; stroke-linecap: square"/>
   </g>
   <g id="line2d_31">
    <path d="M 218.207782 102.08625  L 218.896868 102.08625  L 219.585952 102.086249  L 220.275038 102.086248  L 220.964124 102.086246  L 221.653208 102.086243  L 222.342294 102.086237  L 223.031379 102.086225  L 223.720463 102.086204  L 224.409549 102.086165  L 225.098633 102.086096  L 225.787719 102.085975  L 226.476805 102.085767  L 227.165889 102.085414  L 227.854975 102.084824  L 228.544059 102.083854  L 229.233144 102.082282  L 229.92223 102.079776  L 230.611314 102.075841  L 231.3004 102.069762  L 231.989486 102.060516  L 232.67857 102.046675  L 233.367656 102.026285  L 234.056742 101.996723  L 234.745828 101.954553  L 235.434913 101.895366  L 236.123998 101.813646  L 236.813083 101.702662  L 237.502168 101.554426  L 238.191253 101.35974  L 238.880339 101.108372  L 239.569424 100.789375  L 240.258509 100.391595  L 240.947594 99.90435  L 241.63668 99.318299  L 242.325765 98.626444  L 243.014849 97.825211  L 243.703934 96.915553  L 244.39302 95.90391  L 245.082105 94.802973  L 245.77119 93.632088  L 246.460276 92.417183  L 247.149361 91.190214  L 247.838446 89.987998  L 248.527531 88.850557  L 249.216616 87.818979  L 249.905702 86.933021  L 250.594787 86.228577  L 251.283872 85.735267  L 251.972957 85.474389  L 252.662043 85.457377  L 253.351128 85.684985  L 254.040213 86.147216  L 254.729298 86.824064  L 255.418384 87.686947  L 256.107468 88.700698  L 256.796554 89.825947  L 257.485639 91.021639  L 258.174724 92.247473  L 258.86381 93.466072  L 259.552895 94.644735  L 260.24198 95.756645  L 260.931066 96.781538  L 261.62015 97.705815  L 262.309235 98.522209  L 262.99832 99.229067  L 263.687406 99.829396  L 264.376491 100.329786  L 265.065576 100.73932  L 265.754661 101.068548  L 266.443747 101.328604  L 267.132832 101.530496  L 267.821918 101.684581  L 268.511003 101.800212  L 269.200088 101.885549  L 269.889172 101.947496  L 270.578258 101.991732  L 271.267344 102.022812  L 271.95643 102.044298  L 272.645514 102.058914  L 273.3346 102.0687  L 274.023686 102.075148  L 274.71277 102.07933  L 275.401856 102.082001  L 276.090941 102.083679  L 276.780025 102.084717  L 277.469111 102.085349  L 278.158195 102.085729  L 278.847281 102.085953  L 279.536367 102.086083  L 280.225451 102.086158  L 280.914537 102.0862  L 281.603623 102.086223  L 282.292706 102.086236  L 282.981792 102.086243  L 283.670878 102.086246  L 284.359962 102.086248  L 285.049048 102.086249  L 285.738132 102.08625  L 286.427218 102.08625  " clip-path="url(#pd78cfa5158)" style="fill: none; stroke: #4d004b; stroke-width: 1.5; stroke-linecap: square"/>
   </g>
   <g id="patch_9">
    <path d="M 214.79681 102.08625  L 214.79681 18.92625  " style="fill: none; stroke: #000000; stroke-width: 1.5; stroke-linejoin: miter; stroke-linecap: square"/>
   </g>
   <g id="patch_10">
    <path d="M 214.79681 102.08625  L 289.83819 102.08625  " style="fill: none; stroke: #000000; stroke-width: 1.5; stroke-linejoin: miter; stroke-linecap: square"/>
   </g>
   <g id="text_20">
    <text style="font: 8px 'Arial'; text-anchor: middle" x="252.3175" y="12.92625" transform="rotate(-0, 252.3175, 12.92625)">Round 5</text>
   </g>
   <g id="line2d_32">
    <path d="M 218.207782 102.086198  L 218.896868 102.086165  L 219.585952 102.086111  L 220.275038 102.086026  L 220.964124 102.085892  L 221.653208 102.085683  L 222.342294 102.085362  L 223.031379 102.084874  L 223.720463 102.084137  L 224.409549 102.08304  L 225.098633 102.081422  L 225.787719 102.079062  L 226.476805 102.075658  L 227.165889 102.0708  L 227.854975 102.063942  L 228.544059 102.054368  L 229.233144 102.041148  L 229.92223 102.023092  L 230.611314 101.998707  L 231.3004 101.966138  L 231.989486 101.923125  L 232.67857 101.866958  L 233.367656 101.794444  L 234.056742 101.701893  L 234.745828 101.585127  L 235.434913 101.439521  L 236.123998 101.26008  L 236.813083 101.041565  L 237.502168 100.778665  L 238.191253 100.466219  L 238.880339 100.099487  L 239.569424 99.674472  L 240.258509 99.188256  L 240.947594 98.639367  L 241.63668 98.028133  L 242.325765 97.357009  L 243.014849 96.630843  L 243.703934 95.857058  L 244.39302 95.045722  L 245.082105 94.20949  L 245.77119 93.36339  L 246.460276 92.524464  L 247.149361 91.711253  L 247.838446 90.943155  L 248.527531 90.239681  L 249.216616 89.619646  L 249.905702 89.10033  L 250.594787 88.696698  L 251.283872 88.420663  L 251.972957 88.280519  L 252.662043 88.280519  L 253.351128 88.420663  L 254.040213 88.696698  L 254.729298 89.10033  L 255.418384 89.619646  L 256.107468 90.239681  L 256.796554 90.943155  L 257.485639 91.711253  L 258.174724 92.524464  L 258.86381 93.36339  L 259.552895 94.20949  L 260.24198 95.045722  L 260.931066 95.857058  L 261.62015 96.630842  L 262.309235 97.357009  L 262.99832 98.028133  L 263.687406 98.639367  L 264.376491 99.188256  L 265.065576 99.674472  L 265.754661 100.099487  L 266.443747 100.466219  L 267.132832 100.778665  L 267.821918 101.041566  L 268.511003 101.26008  L 269.200088 101.439521  L 269.889172 101.585127  L 270.578258 101.701893  L 271.267344 101.794444  L 271.95643 101.866958  L 272.645514 101.923125  L 273.3346 101.966138  L 274.023686 101.998707  L 274.71277 102.023092  L 275.401856 102.041148  L 276.090941 102.054368  L 276.780025 102.063942  L 277.469111 102.0708  L 278.158195 102.075658  L 278.847281 102.079062  L 279.536367 102.081422  L 280.225451 102.08304  L 280.914537 102.084137  L 281.603623 102.084874  L 282.292706 102.085362  L 282.981792 102.085683  L 283.670878 102.085892  L 284.359962 102.086026  L 285.049048 102.086111  L 285.738132 102.086165  L 286.427218 102.086198  " clip-path="url(#pd78cfa5158)" style="fill: none; stroke: #238b45; stroke-width: 1.5; stroke-linecap: square"/>
   </g>
  </g>
  <g id="axes_4">
   <g id="patch_11">
    <path d="M 304.846466 102.08625  L 379.887845 102.08625  L 379.887845 18.92625  L 304.846466 18.92625  z " style="fill: #ffffff"/>
   </g>
   <g id="matplotlib.axis_7">
    <g id="xtick_7">
     <g id="line2d_33">
      <g>
       <use xlink:href="#m936dbe4585" x="308.257437" y="102.08625" style="stroke: #000000; stroke-width: 1.5"/>
      </g>
     </g>
     <g id="text_21">
      <text style="font: 8px 'Arial'; text-anchor: middle" x="308.257437" y="114.8125" transform="rotate(-0, 308.257437, 114.8125)">&#8722;1</text>
     </g>
    </g>
    <g id="xtick_8">
     <g id="line2d_34">
      <g>
       <use xlink:href="#m936dbe4585" x="376.476873" y="102.08625" style="stroke: #000000; stroke-width: 1.5"/>
      </g>
     </g>
     <g id="text_22">
      <text style="font: 8px 'Arial'; text-anchor: middle" x="376.476873" y="114.8125" transform="rotate(-0, 376.476873, 114.8125)">1</text>
     </g>
    </g>
    <g id="text_23">
     <!-- $\theta$ -->
     <g transform="translate(340.127155 121.12875)">
      <text>
       <tspan style="font: 8px 'Arial'" x="0" y="-0.171875">&#952;</tspan>
      </text>
     </g>
    </g>
   </g>
   <g id="matplotlib.axis_8">
    <g id="ytick_7">
     <g id="line2d_35">
      <g>
       <use xlink:href="#mc5378da890" x="304.846466" y="102.08625" style="stroke: #000000; stroke-width: 1.5"/>
      </g>
     </g>
    </g>
    <g id="ytick_8">
     <g id="line2d_36">
      <g>
       <use xlink:href="#mc5378da890" x="304.846466" y="18.92625" style="stroke: #000000; stroke-width: 1.5"/>
      </g>
     </g>
    </g>
   </g>
   <g id="line2d_37">
    <path d="M 308.257437 102.08625  L 308.946523 102.08625  L 309.635607 102.08625  L 310.324693 102.08625  L 311.013779 102.08625  L 311.702863 102.08625  L 312.391949 102.08625  L 313.081035 102.08625  L 313.770118 102.08625  L 314.459204 102.08625  L 315.148288 102.08625  L 315.837374 102.08625  L 316.52646 102.08625  L 317.215544 102.08625  L 317.90463 102.08625  L 318.593714 102.08625  L 319.2828 102.08625  L 319.971886 102.08625  L 320.660969 102.08625  L 321.350055 102.08625  L 322.039141 102.08625  L 322.728225 102.08625  L 323.417311 102.08625  L 324.106397 102.08625  L 324.795483 102.08625  L 325.484568 102.08625  L 326.173654 102.08625  L 326.862739 102.08625  L 327.551823 102.08625  L 328.240908 102.08625  L 328.929994 102.08625  L 329.619079 102.086248  L 330.308164 102.086239  L 330.997249 102.086194  L 331.686335 102.085994  L 332.37542 102.085189  L 333.064505 102.082223  L 333.753589 102.07228  L 334.442675 102.041962  L 335.13176 101.957924  L 335.820846 101.746423  L 336.509931 101.263777  L 337.199016 100.266944  L 337.888101 98.408266  L 338.577186 95.290558  L 339.266272 90.61058  L 339.955357 84.375278  L 340.644442 77.104277  L 341.333527 69.880661  L 342.022613 64.141147  L 342.711698 61.226055  L 343.400783 61.87337  L 344.089868 65.916129  L 344.778953 72.352142  L 345.468039 79.746423  L 346.157124 86.746264  L 346.846209 92.459269  L 347.535294 96.564518  L 348.224379 99.191702  L 348.913465 100.699475  L 349.60255 101.479022  L 350.291635 101.843244  L 350.980721 101.99737  L 351.669805 102.05654  L 352.358891 102.077173  L 353.047976 102.083716  L 353.737061 102.085603  L 354.426146 102.086099  L 355.115231 102.086218  L 355.804316 102.086244  L 356.493402 102.086249  L 357.182487 102.08625  L 357.871573 102.08625  L 358.560658 102.08625  L 359.249744 102.08625  L 359.938828 102.08625  L 360.627913 102.08625  L 361.316999 102.08625  L 362.006085 102.08625  L 362.695169 102.08625  L 363.384255 102.08625  L 364.073341 102.08625  L 364.762425 102.08625  L 365.451511 102.08625  L 366.140597 102.08625  L 366.82968 102.08625  L 367.518766 102.08625  L 368.20785 102.08625  L 368.896936 102.08625  L 369.586022 102.08625  L 370.275106 102.08625  L 370.964192 102.08625  L 371.653278 102.08625  L 372.342362 102.08625  L 373.031448 102.08625  L 373.720533 102.08625  L 374.409617 102.08625  L 375.098703 102.08625  L 375.787787 102.08625  L 376.476873 102.08625  " clip-path="url(#pef17f8372e)" style="fill: none; stroke: #9ebcda; stroke-width: 1.5; stroke-linecap: square"/>
   </g>
   <g id="line2d_38">
    <path d="M 308.257437 102.08625  L 308.946523 102.08625  L 309.635607 102.08625  L 310.324693 102.08625  L 311.013779 102.08625  L 311.702863 102.08625  L 312.391949 102.08625  L 313.081035 102.08625  L 313.770118 102.08625  L 314.459204 102.08625  L 315.148288 102.08625  L 315.837374 102.08625  L 316.52646 102.08625  L 317.215544 102.08625  L 317.90463 102.086249  L 318.593714 102.086247  L 319.2828 102.086243  L 319.971886 102.086232  L 320.660969 102.08621  L 321.350055 102.086159  L 322.039141 102.086051  L 322.728225 102.085824  L 323.417311 102.085363  L 324.106397 102.08445  L 324.795483 102.08269  L 325.484568 102.079386  L 326.173654 102.073353  L 326.862739 102.062632  L 327.551823 102.044092  L 328.240908 102.012906  L 328.929994 101.961883  L 329.619079 101.88071  L 330.308164 101.755161  L 330.997249 101.566438  L 331.686335 101.290818  L 332.37542 100.899898  L 333.064505 100.361691  L 333.753589 99.642838  L 334.442675 98.712056  L 335.13176 97.544771  L 335.820846 96.128544  L 336.509931 94.468707  L 337.199016 92.593218  L 337.888101 90.555718  L 338.577186 88.435767  L 339.266272 86.335517  L 339.955357 84.372607  L 340.644442 82.669829  L 341.333527 81.34262  L 342.022613 80.486211  L 342.711698 80.164328  L 343.400783 80.401375  L 344.089868 81.179357  L 344.778953 82.440157  L 345.468039 84.092682  L 346.157124 86.023772  L 346.846209 88.11092  L 347.535294 90.234955  L 348.224379 92.290812  L 348.913465 94.195175  L 349.60255 95.890376  L 350.291635 97.344666  L 350.980721 98.549551  L 351.669805 99.515098  L 352.358891 100.264407  L 353.047976 100.828052  L 353.737061 101.239334  L 354.426146 101.530619  L 355.115231 101.730956  L 355.804316 101.864817  L 356.493402 101.951741  L 357.182487 102.006613  L 357.871573 102.040295  L 358.560658 102.060403  L 359.249744 102.072081  L 359.938828 102.07868  L 360.627913 102.082308  L 361.316999 102.084249  L 362.006085 102.08526  L 362.695169 102.085773  L 363.384255 102.086026  L 364.073341 102.086147  L 364.762425 102.086204  L 365.451511 102.08623  L 366.140597 102.086242  L 366.82968 102.086247  L 367.518766 102.086249  L 368.20785 102.086249  L 368.896936 102.08625  L 369.586022 102.08625  L 370.275106 102.08625  L 370.964192 102.08625  L 371.653278 102.08625  L 372.342362 102.08625  L 373.031448 102.08625  L 373.720533 102.08625  L 374.409617 102.08625  L 375.098703 102.08625  L 375.787787 102.08625  L 376.476873 102.08625  " clip-path="url(#pef17f8372e)" style="fill: none; stroke: #8c6bb1; stroke-width: 1.5; stroke-linecap: square"/>
   </g>
   <g id="line2d_39">
    <path d="M 308.257437 102.08625  L 308.946523 102.08625  L 309.635607 102.086249  L 310.324693 102.086249  L 311.013779 102.086248  L 311.702863 102.086245  L 312.391949 102.08624  L 313.081035 102.086231  L 313.770118 102.086213  L 314.459204 102.086181  L 315.148288 102.086121  L 315.837374 102.086014  L 316.52646 102.085824  L 317.215544 102.085494  L 317.90463 102.08493  L 318.593714 102.083981  L 319.2828 102.082411  L 319.971886 102.079857  L 320.660969 102.075772  L 321.350055 102.06935  L 322.039141 102.059423  L 322.728225 102.044337  L 323.417311 102.021804  L 324.106397 101.988725  L 324.795483 101.941002  L 325.484568 101.873346  L 326.173654 101.779114  L 326.862739 101.650181  L 327.551823 101.476918  L 328.240908 101.248279  L 328.929994 100.952076  L 329.619079 100.575454  L 330.308164 100.105599  L 330.997249 99.530693  L 331.686335 98.841069  L 332.37542 98.03053  L 333.064505 97.097715  L 333.753589 96.047412  L 334.442675 94.891602  L 335.13176 93.650157  L 335.820846 92.350959  L 336.509931 91.029383  L 337.199016 89.727032  L 337.888101 88.489799  L 338.577186 87.3653  L 339.266272 86.399904  L 339.955357 85.635586  L 340.644442 85.106912  L 341.333527 84.838446  L 342.022613 84.842866  L 342.711698 85.119958  L 343.400783 85.656649  L 344.089868 86.428014  L 344.778953 87.399208  L 345.468039 88.528067  L 346.157124 89.768133  L 346.846209 91.071799  L 347.535294 92.393275  L 348.224379 93.691128  L 348.913465 94.930212  L 349.60255 96.082897  L 350.291635 97.12957  L 350.980721 98.058491  L 351.669805 98.865092  L 352.358891 99.550912  L 353.047976 100.122275  L 353.737061 100.588941  L 354.426146 100.962777  L 355.115231 101.25661  L 355.804316 101.483285  L 356.493402 101.654959  L 357.182487 101.782635  L 357.871573 101.875895  L 358.560658 101.942814  L 359.249744 101.989991  L 359.938828 102.022674  L 360.627913 102.044923  L 361.316999 102.059812  L 362.006085 102.069604  L 362.695169 102.075935  L 363.384255 102.079959  L 364.073341 102.082474  L 364.762425 102.084019  L 365.451511 102.084953  L 366.140597 102.085508  L 366.82968 102.085832  L 367.518766 102.086018  L 368.20785 102.086124  L 368.896936 102.086182  L 369.586022 102.086214  L 370.275106 102.086231  L 370.964192 102.08624  L 371.653278 102.086245  L 372.342362 102.086248  L 373.031448 102.086249  L 373.720533 102.086249  L 374.409617 102.08625  L 375.098703 102.08625  L 375.787787 102.08625  L 376.476873 102.08625  " clip-path="url(#pef17f8372e)" style="fill: none; stroke: #810f7c; stroke-width: 1.5; stroke-linecap: square"/>
   </g>
   <g id="line2d_40">
    <path d="M 308.257437 102.086215  L 308.946523 102.086192  L 309.635607 102.086155  L 310.324693 102.086095  L 311.013779 102.086001  L 311.702863 102.085854  L 312.391949 102.085625  L 313.081035 102.085276  L 313.770118 102.084746  L 314.459204 102.083951  L 315.148288 102.08277  L 315.837374 102.081038  L 316.52646 102.07852  L 317.215544 102.074903  L 317.90463 102.069759  L 318.593714 102.062526  L 319.2828 102.052463  L 319.971886 102.038615  L 320.660969 102.019766  L 321.350055 101.994393  L 322.039141 101.960613  L 322.728225 101.916139  L 323.417311 101.858238  L 324.106397 101.783702  L 324.795483 101.688837  L 325.484568 101.569478  L 326.173654 101.421029  L 326.862739 101.238547  L 327.551823 101.01687  L 328.240908 100.750792  L 328.929994 100.435282  L 329.619079 100.065757  L 330.308164 99.638392  L 330.997249 99.150456  L 331.686335 98.600669  L 332.37542 97.989543  L 333.064505 97.31969  L 333.753589 96.596085  L 334.442675 95.826225  L 335.13176 95.020197  L 335.820846 94.190597  L 336.509931 93.352325  L 337.199016 92.522216  L 337.888101 91.718536  L 338.577186 90.960352  L 339.266272 90.266789  L 339.955357 89.65627  L 340.644442 89.14568  L 341.333527 88.749602  L 342.022613 88.479631  L 342.711698 88.343804  L 343.400783 88.346208  L 344.089868 88.486767  L 344.778953 88.761257  L 345.468039 89.161508  L 346.157124 89.675815  L 346.846209 90.2895  L 347.535294 90.985609  L 348.224379 91.745692  L 348.913465 92.550603  L 349.60255 93.381293  L 350.291635 94.219535  L 350.980721 95.048555  L 351.669805 95.853529  L 352.358891 96.621942  L 353.047976 97.343797  L 353.737061 98.011687  L 354.426146 98.620723  L 355.115231 99.168366  L 355.804316 99.654175  L 356.493402 100.079487  L 357.182487 100.447074  L 357.871573 100.760795  L 358.560658 101.025251  L 359.249744 101.245484  L 359.938828 101.426703  L 360.627913 101.574065  L 361.316999 101.692503  L 362.006085 101.786597  L 362.695169 101.860499  L 363.384255 101.917885  L 364.073341 101.961946  L 364.762425 101.9954  L 365.451511 102.020518  L 366.140597 102.03917  L 366.82968 102.052868  L 367.518766 102.062819  L 368.20785 102.069969  L 368.896936 102.075051  L 369.586022 102.078624  L 370.275106 102.081109  L 370.964192 102.082819  L 371.653278 102.083984  L 372.342362 102.084768  L 373.031448 102.085291  L 373.720533 102.085635  L 374.409617 102.08586  L 375.098703 102.086005  L 375.787787 102.086098  L 376.476873 102.08625  " clip-path="url(#pef17f8372e)" style="fill: none; stroke: #4d004b; stroke-width: 1.5; stroke-linecap: square"/>
   </g>
   <g id="patch_12">
    <path d="M 304.846466 102.08625  L 304.846466 18.92625  " style="fill: none; stroke: #000000; stroke-width: 1.5; stroke-linejoin: miter; stroke-linecap: square"/>
   </g>
   <g id="patch_13">
    <path d="M 304.846466 102.08625  L 379.887845 102.08625  " style="fill: none; stroke: #000000; stroke-width: 1.5; stroke-linejoin: miter; stroke-linecap: square"/>
   </g>
   <g id="text_24">
    <text style="font: 8px 'Arial'; text-anchor: middle" x="342.367155" y="12.92625" transform="rotate(-0, 342.367155, 12.92625)">Round 10</text>
   </g>
   <g id="line2d_41">
    <path d="M 308.257437 102.086198  L 308.946523 102.086165  L 309.635607 102.086111  L 310.324693 102.086026  L 311.013779 102.085892  L 311.702863 102.085683  L 312.391949 102.085362  L 313.081035 102.084874  L 313.770118 102.084137  L 314.459204 102.08304  L 315.148288 102.081422  L 315.837374 102.079062  L 316.52646 102.075658  L 317.215544 102.0708  L 317.90463 102.063942  L 318.593714 102.054368  L 319.2828 102.041148  L 319.971886 102.023092  L 320.660969 101.998707  L 321.350055 101.966138  L 322.039141 101.923125  L 322.728225 101.866958  L 323.417311 101.794444  L 324.106397 101.701893  L 324.795483 101.585127  L 325.484568 101.439521  L 326.173654 101.26008  L 326.862739 101.041565  L 327.551823 100.778665  L 328.240908 100.466219  L 328.929994 100.099487  L 329.619079 99.674472  L 330.308164 99.188256  L 330.997249 98.639367  L 331.686335 98.028133  L 332.37542 97.357009  L 333.064505 96.630843  L 333.753589 95.857058  L 334.442675 95.045722  L 335.13176 94.20949  L 335.820846 93.36339  L 336.509931 92.524464  L 337.199016 91.711253  L 337.888101 90.943155  L 338.577186 90.239681  L 339.266272 89.619646  L 339.955357 89.10033  L 340.644442 88.696698  L 341.333527 88.420663  L 342.022613 88.280519  L 342.711698 88.280519  L 343.400783 88.420663  L 344.089868 88.696698  L 344.778953 89.10033  L 345.468039 89.619646  L 346.157124 90.239681  L 346.846209 90.943155  L 347.535294 91.711253  L 348.224379 92.524464  L 348.913465 93.36339  L 349.60255 94.20949  L 350.291635 95.045722  L 350.980721 95.857058  L 351.669805 96.630842  L 352.358891 97.357009  L 353.047976 98.028133  L 353.737061 98.639367  L 354.426146 99.188256  L 355.115231 99.674472  L 355.804316 100.099487  L 356.493402 100.466219  L 357.182487 100.778665  L 357.871573 101.041566  L 358.560658 101.26008  L 359.249744 101.439521  L 359.938828 101.585127  L 360.627913 101.701893  L 361.316999 101.794444  L 362.006085 101.866958  L 362.695169 101.923125  L 363.384255 101.966138  L 364.073341 101.998707  L 364.762425 102.023092  L 365.451511 102.041148  L 366.140597 102.054368  L 366.82968 102.063942  L 367.518766 102.0708  L 368.20785 102.075658  L 368.896936 102.079062  L 369.586022 102.081422  L 370.275106 102.08304  L 370.964192 102.084137  L 371.653278 102.084874  L 372.342362 102.085362  L 373.031448 102.085683  L 373.720533 102.085892  L 374.409617 102.086026  L 375.098703 102.086111  L 375.787787 102.086165  L 376.476873 102.086198  " clip-path="url(#pef17f8372e)" style="fill: none; stroke: #238b45; stroke-width: 1.5; stroke-linecap: square"/>
   </g>
  </g>
  <g id="axes_5">
   <g id="patch_14">
    <path d="M 394.896121 102.08625  L 469.9375 102.08625  L 469.9375 18.92625  L 394.896121 18.92625  z " style="fill: #ffffff"/>
   </g>
   <g id="matplotlib.axis_9">
    <g id="xtick_9">
     <g id="line2d_42">
      <g>
       <use xlink:href="#m936dbe4585" x="398.307092" y="102.08625" style="stroke: #000000; stroke-width: 1.5"/>
      </g>
     </g>
     <g id="text_25">
      <text style="font: 8px 'Arial'; text-anchor: middle" x="398.307092" y="114.8125" transform="rotate(-0, 398.307092, 114.8125)">&#8722;1</text>
     </g>
    </g>
    <g id="xtick_10">
     <g id="line2d_43">
      <g>
       <use xlink:href="#m936dbe4585" x="466.526528" y="102.08625" style="stroke: #000000; stroke-width: 1.5"/>
      </g>
     </g>
     <g id="text_26">
      <text style="font: 8px 'Arial'; text-anchor: middle" x="466.526528" y="114.8125" transform="rotate(-0, 466.526528, 114.8125)">1</text>
     </g>
    </g>
    <g id="text_27">
     <!-- $\theta$ -->
     <g transform="translate(430.17681 121.12875)">
      <text>
       <tspan style="font: 8px 'Arial'" x="0" y="-0.171875">&#952;</tspan>
      </text>
     </g>
    </g>
   </g>
   <g id="matplotlib.axis_10">
    <g id="ytick_9">
     <g id="line2d_44">
      <g>
       <use xlink:href="#mc5378da890" x="394.896121" y="102.08625" style="stroke: #000000; stroke-width: 1.5"/>
      </g>
     </g>
    </g>
    <g id="ytick_10">
     <g id="line2d_45">
      <g>
       <use xlink:href="#mc5378da890" x="394.896121" y="18.92625" style="stroke: #000000; stroke-width: 1.5"/>
      </g>
     </g>
    </g>
   </g>
   <g id="line2d_46">
    <path d="M 398.307092 102.08625  L 398.996178 102.08625  L 399.685262 102.08625  L 400.374348 102.08625  L 401.063434 102.08625  L 401.752518 102.08625  L 402.441604 102.08625  L 403.13069 102.08625  L 403.819774 102.08625  L 404.50886 102.08625  L 405.197943 102.08625  L 405.887029 102.08625  L 406.576115 102.08625  L 407.265199 102.08625  L 407.954285 102.08625  L 408.643369 102.08625  L 409.332455 102.08625  L 410.021541 102.08625  L 410.710625 102.08625  L 411.39971 102.08625  L 412.088796 102.08625  L 412.77788 102.08625  L 413.466966 102.08625  L 414.156052 102.08625  L 414.845138 102.08625  L 415.534223 102.08625  L 416.223309 102.08625  L 416.912394 102.08625  L 417.601479 102.08625  L 418.290563 102.08625  L 418.979649 102.08625  L 419.668734 102.08625  L 420.357819 102.08625  L 421.046904 102.08625  L 421.73599 102.08625  L 422.425075 102.08625  L 423.11416 102.08625  L 423.803245 102.08625  L 424.492331 102.08625  L 425.181415 102.08624  L 425.870501 102.086004  L 426.559586 102.081934  L 427.248671 102.033637  L 427.937757 101.641038  L 428.626842 99.4711  L 429.315927 91.423347  L 430.005012 71.906969  L 430.694097 42.794421  L 431.383182 21.226242  L 432.072268 25.539714  L 432.761353 51.786031  L 433.450438 79.142363  L 434.139523 94.821566  L 434.828608 100.489572  L 435.517694 101.842652  L 436.206779 102.060452  L 436.895864 102.084354  L 437.58495 102.086153  L 438.274034 102.086247  L 438.96312 102.08625  L 439.652205 102.08625  L 440.34129 102.08625  L 441.030376 102.08625  L 441.71946 102.08625  L 442.408546 102.08625  L 443.097631 102.08625  L 443.786717 102.08625  L 444.475802 102.08625  L 445.164886 102.08625  L 445.853971 102.08625  L 446.543057 102.08625  L 447.232142 102.08625  L 447.921228 102.08625  L 448.610313 102.08625  L 449.299399 102.08625  L 449.988483 102.08625  L 450.677569 102.08625  L 451.366655 102.08625  L 452.05574 102.08625  L 452.744824 102.08625  L 453.43391 102.08625  L 454.122996 102.08625  L 454.81208 102.08625  L 455.501166 102.08625  L 456.190252 102.08625  L 456.879336 102.08625  L 457.568422 102.08625  L 458.257505 102.08625  L 458.946591 102.08625  L 459.635677 102.08625  L 460.324761 102.08625  L 461.013847 102.08625  L 461.702933 102.08625  L 462.392017 102.08625  L 463.081103 102.08625  L 463.770189 102.08625  L 464.459273 102.08625  L 465.148358 102.08625  L 465.837442 102.08625  L 466.526528 102.08625  " clip-path="url(#pdbaceb6bee)" style="fill: none; stroke: #9ebcda; stroke-width: 1.5; stroke-linecap: square"/>
   </g>
   <g id="line2d_47">
    <path d="M 398.307092 102.08625  L 398.996178 102.08625  L 399.685262 102.08625  L 400.374348 102.08625  L 401.063434 102.08625  L 401.752518 102.08625  L 402.441604 102.08625  L 403.13069 102.08625  L 403.819774 102.08625  L 404.50886 102.08625  L 405.197943 102.08625  L 405.887029 102.08625  L 406.576115 102.08625  L 407.265199 102.08625  L 407.954285 102.08625  L 408.643369 102.08625  L 409.332455 102.086249  L 410.021541 102.086248  L 410.710625 102.086245  L 411.39971 102.086237  L 412.088796 102.086219  L 412.77788 102.086175  L 413.466966 102.086073  L 414.156052 102.085849  L 414.845138 102.085365  L 415.534223 102.084355  L 416.223309 102.082309  L 416.912394 102.078296  L 417.601479 102.070662  L 418.290563 102.056592  L 418.979649 102.031467  L 419.668734 101.988005  L 420.357819 101.9152  L 421.046904 101.797119  L 421.73599 101.611768  L 422.425075 101.330289  L 423.11416 100.916924  L 423.803245 100.330242  L 424.492331 99.526057  L 425.181415 98.462371  L 425.870501 97.106241  L 426.559586 95.442069  L 427.248671 93.480118  L 427.937757 91.263696  L 428.626842 88.873095  L 429.315927 86.424557  L 430.005012 84.063301  L 430.694097 81.950486  L 431.383182 80.245597  L 432.072268 79.08676  L 432.761353 78.57228  L 433.450438 78.746894  L 434.139523 79.595347  L 434.828608 81.044582  L 435.517694 82.974148  L 436.206779 85.232679  L 436.895864 87.65744  L 437.58495 90.093349  L 438.274034 92.408527  L 438.96312 94.504363  L 439.652205 96.31943  L 440.34129 97.827806  L 441.030376 99.033294  L 441.71946 99.961317  L 442.408546 100.650349  L 443.097631 101.144231  L 443.786717 101.486252  L 444.475802 101.715232  L 445.164886 101.863511  L 445.853971 101.956427  L 446.543057 102.012788  L 447.232142 102.045892  L 447.921228 102.064725  L 448.610313 102.075104  L 449.299399 102.080647  L 449.988483 102.083515  L 450.677569 102.084954  L 451.366655 102.085654  L 452.05574 102.085984  L 452.744824 102.086135  L 453.43391 102.086201  L 454.122996 102.08623  L 454.81208 102.086242  L 455.501166 102.086247  L 456.190252 102.086249  L 456.879336 102.08625  L 457.568422 102.08625  L 458.257505 102.08625  L 458.946591 102.08625  L 459.635677 102.08625  L 460.324761 102.08625  L 461.013847 102.08625  L 461.702933 102.08625  L 462.392017 102.08625  L 463.081103 102.08625  L 463.770189 102.08625  L 464.459273 102.08625  L 465.148358 102.08625  L 465.837442 102.08625  L 466.526528 102.08625  " clip-path="url(#pdbaceb6bee)" style="fill: none; stroke: #8c6bb1; stroke-width: 1.5; stroke-linecap: square"/>
   </g>
   <g id="line2d_48">
    <path d="M 398.307092 102.086249  L 398.996178 102.086248  L 399.685262 102.086247  L 400.374348 102.086244  L 401.063434 102.08624  L 401.752518 102.086231  L 402.441604 102.086216  L 403.13069 102.086189  L 403.819774 102.086143  L 404.50886 102.086066  L 405.197943 102.085936  L 405.887029 102.085721  L 406.576115 102.08537  L 407.265199 102.084805  L 407.954285 102.083909  L 408.643369 102.082505  L 409.332455 102.080336  L 410.021541 102.07703  L 410.710625 102.07206  L 411.39971 102.06469  L 412.088796 102.053912  L 412.77788 102.038368  L 413.466966 102.016259  L 414.156052 101.985251  L 414.845138 101.942374  L 415.534223 101.883917  L 416.223309 101.805355  L 416.912394 101.701281  L 417.601479 101.565404  L 418.290563 101.390591  L 418.979649 101.169005  L 419.668734 100.892326  L 420.357819 100.552089  L 421.046904 100.140139  L 421.73599 99.649187  L 422.425075 99.073463  L 423.11416 98.409424  L 423.803245 97.656494  L 424.492331 96.817721  L 425.181415 95.900371  L 425.870501 94.916301  L 426.559586 93.882108  L 427.248671 92.818958  L 427.937757 91.752091  L 428.626842 90.70998  L 429.315927 89.723152  L 430.005012 88.822777  L 430.694097 88.039051  L 431.383182 87.399532  L 432.072268 86.927534  L 432.761353 86.640728  L 433.450438 86.550032  L 434.139523 86.658928  L 434.828608 86.963234  L 435.517694 87.451382  L 436.206779 88.105136  L 436.895864 88.900729  L 437.58495 89.810294  L 438.274034 90.803474  L 438.96312 91.849098  L 439.652205 92.916766  L 440.34129 93.978259  L 441.030376 95.008683  L 441.71946 95.987266  L 442.408546 96.89785  L 443.097631 97.729005  L 443.786717 98.473873  L 444.475802 99.129758  L 445.164886 99.697542  L 445.853971 100.181001  L 446.543057 100.586072  L 447.232142 100.920147  L 447.921228 101.191435  L 448.610313 101.408402  L 449.299399 101.579337  L 449.988483 101.71202  L 450.677569 101.813513  L 451.366655 101.890025  L 452.05574 101.946881  L 452.744824 101.988531  L 453.43391 102.018611  L 454.122996 102.040031  L 454.81208 102.055073  L 455.501166 102.065488  L 456.190252 102.072601  L 456.879336 102.077392  L 457.568422 102.080575  L 458.257505 102.082661  L 458.946591 102.084009  L 459.635677 102.084869  L 460.324761 102.08541  L 461.013847 102.085745  L 461.702933 102.085951  L 462.392017 102.086075  L 463.081103 102.086149  L 463.770189 102.086192  L 464.459273 102.086217  L 465.148358 102.086232  L 465.837442 102.08624  L 466.526528 102.08625  " clip-path="url(#pdbaceb6bee)" style="fill: none; stroke: #810f7c; stroke-width: 1.5; stroke-linecap: square"/>
   </g>
   <g id="line2d_49">
    <path d="M 398.307092 102.086238  L 398.996178 102.08623  L 399.685262 102.086215  L 400.374348 102.086192  L 401.063434 102.086152  L 401.752518 102.086089  L 402.441604 102.085987  L 403.13069 102.085824  L 403.819774 102.085569  L 404.50886 102.085173  L 405.197943 102.084564  L 405.887029 102.08364  L 406.576115 102.082252  L 407.265199 102.080193  L 407.954285 102.077172  L 408.643369 102.072792  L 409.332455 102.066512  L 410.021541 102.057614  L 410.710625 102.045151  L 411.39971 102.027901  L 412.088796 102.004303  L 412.77788 101.9724  L 413.466966 101.92978  L 414.156052 101.873522  L 414.845138 101.800152  L 415.534223 101.70562  L 416.223309 101.585307  L 416.912394 101.434066  L 417.601479 101.246307  L 418.290563 101.016144  L 418.979649 100.737597  L 419.668734 100.404849  L 420.357819 100.012582  L 421.046904 99.556344  L 421.73599 99.032968  L 422.425075 98.441006  L 423.11416 97.78115  L 423.803245 97.056607  L 424.492331 96.273411  L 425.181415 95.440615  L 425.870501 94.570335  L 426.559586 93.677637  L 427.248671 92.780229  L 427.937757 91.89797  L 428.626842 91.052204  L 429.315927 90.264929  L 430.005012 89.557887  L 430.694097 88.951561  L 431.383182 88.464202  L 432.072268 88.110915  L 432.761353 87.902888  L 433.450438 87.846796  L 434.139523 87.944454  L 434.828608 88.192706  L 435.517694 88.583612  L 436.206779 89.104856  L 436.895864 89.740392  L 437.58495 90.471274  L 438.274034 91.276577  L 438.96312 92.134398  L 439.652205 93.022822  L 440.34129 93.920837  L 441.030376 94.809105  L 441.71946 95.670594  L 442.408546 96.491016  L 443.097631 97.259081  L 443.786717 97.966565  L 444.475802 98.608225  L 445.164886 99.181568  L 445.853971 99.686524  L 446.543057 100.12505  L 447.232142 100.500703  L 447.921228 100.818209  L 448.610313 101.083056  L 449.299399 101.301134  L 449.988483 101.478423  L 450.677569 101.620746  L 451.366655 101.733585  L 452.05574 101.821948  L 452.744824 101.890304  L 453.43391 101.942547  L 454.122996 101.981995  L 454.81208 102.011429  L 455.501166 102.033132  L 456.190252 102.048945  L 456.879336 102.060333  L 457.568422 102.068439  L 458.257505 102.074141  L 458.946591 102.078106  L 459.635677 102.080832  L 460.324761 102.082684  L 461.013847 102.083929  L 461.702933 102.084755  L 462.392017 102.085298  L 463.081103 102.08565  L 463.770189 102.085876  L 464.459273 102.086019  L 465.148358 102.086109  L 465.837442 102.086165  L 466.526528 102.08625  " clip-path="url(#pdbaceb6bee)" style="fill: none; stroke: #4d004b; stroke-width: 1.5; stroke-linecap: square"/>
   </g>
   <g id="patch_15">
    <path d="M 394.896121 102.08625  L 394.896121 18.92625  " style="fill: none; stroke: #000000; stroke-width: 1.5; stroke-linejoin: miter; stroke-linecap: square"/>
   </g>
   <g id="patch_16">
    <path d="M 394.896121 102.08625  L 469.9375 102.08625  " style="fill: none; stroke: #000000; stroke-width: 1.5; stroke-linejoin: miter; stroke-linecap: square"/>
   </g>
   <g id="text_28">
    <text style="font: 8px 'Arial'; text-anchor: middle" x="432.41681" y="12.92625" transform="rotate(-0, 432.41681, 12.92625)">Round 50</text>
   </g>
   <g id="line2d_50">
    <path d="M 398.307092 102.086198  L 398.996178 102.086165  L 399.685262 102.086111  L 400.374348 102.086026  L 401.063434 102.085892  L 401.752518 102.085683  L 402.441604 102.085362  L 403.13069 102.084874  L 403.819774 102.084137  L 404.50886 102.08304  L 405.197943 102.081422  L 405.887029 102.079062  L 406.576115 102.075658  L 407.265199 102.0708  L 407.954285 102.063942  L 408.643369 102.054368  L 409.332455 102.041148  L 410.021541 102.023092  L 410.710625 101.998707  L 411.39971 101.966138  L 412.088796 101.923125  L 412.77788 101.866958  L 413.466966 101.794444  L 414.156052 101.701893  L 414.845138 101.585127  L 415.534223 101.439521  L 416.223309 101.26008  L 416.912394 101.041565  L 417.601479 100.778665  L 418.290563 100.466219  L 418.979649 100.099487  L 419.668734 99.674472  L 420.357819 99.188256  L 421.046904 98.639367  L 421.73599 98.028133  L 422.425075 97.357009  L 423.11416 96.630843  L 423.803245 95.857058  L 424.492331 95.045722  L 425.181415 94.20949  L 425.870501 93.36339  L 426.559586 92.524464  L 427.248671 91.711253  L 427.937757 90.943155  L 428.626842 90.239681  L 429.315927 89.619646  L 430.005012 89.10033  L 430.694097 88.696698  L 431.383182 88.420663  L 432.072268 88.280519  L 432.761353 88.280519  L 433.450438 88.420663  L 434.139523 88.696698  L 434.828608 89.10033  L 435.517694 89.619646  L 436.206779 90.239681  L 436.895864 90.943155  L 437.58495 91.711253  L 438.274034 92.524464  L 438.96312 93.36339  L 439.652205 94.20949  L 440.34129 95.045722  L 441.030376 95.857058  L 441.71946 96.630842  L 442.408546 97.357009  L 443.097631 98.028133  L 443.786717 98.639367  L 444.475802 99.188256  L 445.164886 99.674472  L 445.853971 100.099487  L 446.543057 100.466219  L 447.232142 100.778665  L 447.921228 101.041566  L 448.610313 101.26008  L 449.299399 101.439521  L 449.988483 101.585127  L 450.677569 101.701893  L 451.366655 101.794444  L 452.05574 101.866958  L 452.744824 101.923125  L 453.43391 101.966138  L 454.122996 101.998707  L 454.81208 102.023092  L 455.501166 102.041148  L 456.190252 102.054368  L 456.879336 102.063942  L 457.568422 102.0708  L 458.257505 102.075658  L 458.946591 102.079062  L 459.635677 102.081422  L 460.324761 102.08304  L 461.013847 102.084137  L 461.702933 102.084874  L 462.392017 102.085362  L 463.081103 102.085683  L 463.770189 102.085892  L 464.459273 102.086026  L 465.148358 102.086111  L 465.837442 102.086165  L 466.526528 102.086198  " clip-path="url(#pdbaceb6bee)" style="fill: none; stroke: #238b45; stroke-width: 1.5; stroke-linecap: square"/>
   </g>
  </g>
 </g>
 <defs>
  <clipPath id="p6adca0c505">
   <rect x="34.6975" y="18.92625" width="75.041379" height="83.16"/>
  </clipPath>
  <clipPath id="p7122cf8753">
   <rect x="124.747155" y="18.92625" width="75.041379" height="83.16"/>
  </clipPath>
  <clipPath id="pd78cfa5158">
   <rect x="214.79681" y="18.92625" width="75.041379" height="83.16"/>
  </clipPath>
  <clipPath id="pef17f8372e">
   <rect x="304.846466" y="18.92625" width="75.041379" height="83.16"/>
  </clipPath>
  <clipPath id="pdbaceb6bee">
   <rect x="394.896121" y="18.92625" width="75.041379" height="83.16"/>
  </clipPath>
 </defs>
</g>
    </g>
  </g>
</svg>
