<?xml version='1.0' encoding='ASCII' standalone='yes'?>
<svg xmlns="http://www.w3.org/2000/svg" xmlns:xlink="http://www.w3.org/1999/xlink" version="1.1" width="15.7cm" viewBox="0 0 15.7cm 4.2cm" height="4.2cm">
  <g>
    <g transform="translate(-5, -5) scale(1) ">
      <g transform="translate(0, 0) scale(1) translate(0, 0) scale(1.25) "><metadata>
  <rdf:RDF xmlns:dc="http://purl.org/dc/elements/1.1/" xmlns:cc="http://creativecommons.org/ns#" xmlns:rdf="http://www.w3.org/1999/02/22-rdf-syntax-ns#">
   <cc:Work>
    <dc:type rdf:resource="http://purl.org/dc/dcmitype/StillImage"/>
    <dc:date>2022-08-07T14:13:28.880776</dc:date>
    <dc:format>image/svg+xml</dc:format>
    <dc:creator>
     <cc:Agent>
      <dc:title>Matplotlib v3.5.1, https://matplotlib.org/</dc:title>
     </cc:Agent>
    </dc:creator>
   </cc:Work>
  </rdf:RDF>
 </metadata>
 <defs>
  <style type="text/css">*{stroke-linejoin: round; stroke-linecap: butt}</style>
 </defs>
 <g id="figure_1">
  <g id="patch_1">
   <path d="M 0 129.91875  L 170.545 129.91875  L 170.545 0  L 0 0  z " style="fill: #ffffff"/>
  </g>
  <g id="axes_1">
   <g id="patch_2">
    <path d="M 36.73 102.08625  L 159.49 102.08625  L 159.49 18.92625  L 36.73 18.92625  z " style="fill: #ffffff"/>
   </g>
   <g id="matplotlib.axis_1">
    <g id="xtick_1">
     <g id="line2d_1">
      <defs>
       <path id="m7e351b9a12" d="M 0 0  L 0 3.5  " style="stroke: #000000; stroke-width: 1.5"/>
      </defs>
      <g>
       <use xlink:href="#m7e351b9a12" x="38.435" y="102.08625" style="stroke: #000000; stroke-width: 1.5"/>
      </g>
     </g>
     <g id="text_1">
      <text style="font: 8px 'Arial'; text-anchor: middle" x="38.435" y="114.8125" transform="rotate(-0, 38.435, 114.8125)">&#8722;0.7</text>
     </g>
    </g>
    <g id="xtick_2">
     <g id="line2d_2">
      <g>
       <use xlink:href="#m7e351b9a12" x="157.785" y="102.08625" style="stroke: #000000; stroke-width: 1.5"/>
      </g>
     </g>
     <g id="text_2">
      <text style="font: 8px 'Arial'; text-anchor: middle" x="157.785" y="114.8125" transform="rotate(-0, 157.785, 114.8125)">0.7</text>
     </g>
    </g>
    <g id="text_3">
     <!-- $\theta$ -->
     <g transform="translate(95.87 121.12875)">
      <text>
       <tspan style="font: 8px 'Arial'" x="0" y="-0.171875">&#952;</tspan>
      </text>
     </g>
    </g>
   </g>
   <g id="matplotlib.axis_2">
    <g id="ytick_1">
     <g id="line2d_3">
      <defs>
       <path id="me818a38cd3" d="M 0 0  L -3.5 0  " style="stroke: #000000; stroke-width: 1.5"/>
      </defs>
      <g>
       <use xlink:href="#me818a38cd3" x="36.73" y="102.08625" style="stroke: #000000; stroke-width: 1.5"/>
      </g>
     </g>
     <g id="text_4">
      <text style="font: 8px 'Arial'; text-anchor: end" x="29.73" y="104.949375" transform="rotate(-0, 29.73, 104.949375)">0.0</text>
     </g>
    </g>
    <g id="ytick_2">
     <g id="line2d_4">
      <g>
       <use xlink:href="#me818a38cd3" x="36.73" y="18.92625" style="stroke: #000000; stroke-width: 1.5"/>
      </g>
     </g>
     <g id="text_5">
      <text style="font: 8px 'Arial'; text-anchor: end" x="29.73" y="21.789375" transform="rotate(-0, 29.73, 21.789375)">2.5</text>
     </g>
    </g>
    <g id="text_6">
     <text style="font: 8px 'Arial'; text-anchor: middle" x="12.92625" y="60.50625" transform="rotate(-90, 12.92625, 60.50625)">Density</text>
    </g>
   </g>
   <g id="line2d_5">
    <path d="M 36.729998 102.08625  L 38.327476 102.08625  L 38.450357 78.326249  L 157.769638 78.326249  L 157.892524 102.08625  L 159.490002 102.08625  L 159.490002 102.08625  " clip-path="url(#pbd5aaf1b91)" style="fill: none; stroke: #1f77b4; stroke-width: 1.5; stroke-linecap: square"/>
   </g>
   <g id="line2d_6">
    <path d="M 36.729998 102.08625  L 40.908017 101.989855  L 42.751257 101.627675  L 43.980087 101.206474  L 45.086036 101.329577  L 46.19198 101.452138  L 47.297924 101.40374  L 48.895403 101.025521  L 49.878466 100.527762  L 50.984415 99.89362  L 54.425133 98.849208  L 57.74297 97.665935  L 60.815043 96.005017  L 62.289638 94.839631  L 63.641349 93.474466  L 64.870179 91.884052  L 66.713422 89.194611  L 68.556664 86.100632  L 71.014322 81.477168  L 72.120269 79.814388  L 73.840628 77.90244  L 78.387295 66.711103  L 78.878827 64.322843  L 79.370358 63.261307  L 79.739008 62.354802  L 80.844953 59.564964  L 81.705134 57.478403  L 84.900089 46.507776  L 85.022972 46.293583  L 86.128918 49.264348  L 87.357747 52.994159  L 89.446756 46.782978  L 89.815404 45.251906  L 91.412882 34.93222  L 92.027296 33.954477  L 92.518828 33.622384  L 92.887476 33.642322  L 93.256125 33.89314  L 93.747657 34.580729  L 94.362071 35.983719  L 95.099368 38.395676  L 95.345134 39.357478  L 95.468017 39.317547  L 96.696846 36.186897  L 97.434143 35.115206  L 97.679909 35.066329  L 97.925675 35.219099  L 98.294323 35.815107  L 98.785857 37.250578  L 99.277388 39.334313  L 99.76892 38.391516  L 100.137569 38.034276  L 100.506217 37.991818  L 100.874866 38.268312  L 101.243515 38.861077  L 101.735046 40.125909  L 102.349461 42.40963  L 102.595226 43.034918  L 102.963875 42.871822  L 103.086758 42.860925  L 103.578289 42.443328  L 103.946938 42.344526  L 104.315587 42.431768  L 104.930001 42.73395  L 105.421533 42.244579  L 105.913064 42.085559  L 106.281713 42.189226  L 106.773244 42.626619  L 107.264776 43.400554  L 107.87919 44.819247  L 108.616488 47.122319  L 109.599552 50.315166  L 109.845317 50.136351  L 110.213966 49.887059  L 110.582615 49.889673  L 110.951263 50.141764  L 111.442795 50.852673  L 112.05721 52.298981  L 112.794506 54.73741  L 114.391984 61.212397  L 117.21829 73.420038  L 118.201353 74.141447  L 119.430183 75.332526  L 119.798831 75.623006  L 120.904778 75.459148  L 121.51919 75.724753  L 122.133605 76.264624  L 122.256489 76.404665  L 125.205678 85.124864  L 127.048921 88.1087  L 129.13793 91.382873  L 129.875229 92.893242  L 131.104056 93.830496  L 132.332884 94.506737  L 133.807481 95.05594  L 135.404957 95.396048  L 136.265136 95.611575  L 136.510903 95.723436  L 137.493967 96.861523  L 138.599913 97.80093  L 139.828741 98.561489  L 140.688923 98.9019  L 142.77793 99.456751  L 144.006755 99.793512  L 145.358471 100.587577  L 146.341529 100.894392  L 148.92207 101.296654  L 150.519549 101.387649  L 152.731442 101.083628  L 154.083153 101.504732  L 155.55775 101.940463  L 157.032342 102.059111  L 159.490002 102.08625  L 159.490002 102.08625  " clip-path="url(#pbd5aaf1b91)" style="fill: none; stroke: #810f7c; stroke-width: 1.5; stroke-linecap: square"/>
   </g>
   <g id="patch_3">
    <path d="M 36.73 102.08625  L 36.73 18.92625  " style="fill: none; stroke: #000000; stroke-width: 1.5; stroke-linejoin: miter; stroke-linecap: square"/>
   </g>
   <g id="patch_4">
    <path d="M 36.73 102.08625  L 159.49 102.08625  " style="fill: none; stroke: #000000; stroke-width: 1.5; stroke-linejoin: miter; stroke-linecap: square"/>
   </g>
   <g id="text_7">
    <text style="font: 8px 'Arial'; text-anchor: middle" x="98.11" y="12.92625" transform="rotate(-0, 98.11, 12.92625)">Round 1</text>
   </g>
   <g id="legend_1">
    <g id="line2d_7">
     <path d="M 43.93 29.0525  L 46.73 29.0525  L 49.53 29.0525  " style="fill: none; stroke: #1f77b4; stroke-width: 1.5; stroke-linecap: square"/>
    </g>
    <g id="text_8">
     <text style="font: 8px 'Arial'; text-anchor: start" x="52.73" y="31.8525" transform="rotate(-0, 52.73, 31.8525)">Proposal</text>
    </g>
    <g id="line2d_8">
     <path d="M 43.93 40.4825  L 46.73 40.4825  L 49.53 40.4825  " style="fill: none; stroke: #238b45; stroke-width: 1.5; stroke-linecap: square"/>
    </g>
    <g id="text_9">
     <!-- $p(\theta | x)$ -->
     <g transform="translate(52.73 43.2825)">
      <text>
       <tspan style="font: 8px 'Arial'" x="0 4.449219 7.113281 11.5625 13.640625 17.640625" y="-0.171875">p(&#952;|x)</tspan>
      </text>
     </g>
    </g>
    <g id="line2d_9">
     <path d="M 43.93 52.0825  L 46.73 52.0825  L 49.53 52.0825  " style="fill: none; stroke: #810f7c; stroke-width: 1.5; stroke-linecap: square"/>
    </g>
    <g id="text_10">
     <!-- $q(\theta | x)$ -->
     <g transform="translate(52.73 54.8825)">
      <text>
       <tspan style="font: 8px 'Arial'" x="0 4.449219 7.113281 11.5625 13.640625 17.640625" y="-0.171875">q(&#952;|x)</tspan>
      </text>
     </g>
    </g>
   </g>
   <g id="line2d_10">
    <path d="M 36.729998 101.984478  L 42.751257 101.745304  L 46.806395 101.368829  L 49.878466 100.87235  L 52.459007 100.244838  L 54.793781 99.454098  L 56.882791 98.519805  L 58.848917 97.404111  L 60.69216 96.11562  L 62.535405 94.561012  L 64.378648 92.711829  L 66.22189 90.543937  L 68.065133 88.039834  L 70.031259 84.988913  L 72.120269 81.32283  L 74.455043 76.741966  L 77.158468 70.900384  L 80.967836 62.059215  L 85.637386 51.311161  L 87.972161 46.485106  L 89.815404 43.13914  L 91.412882 40.660319  L 92.887476 38.77498  L 94.116305 37.529649  L 95.345134 36.600875  L 96.45108 36.047498  L 97.434143 35.786279  L 98.417206 35.74494  L 99.400271 35.92389  L 100.383334 36.321347  L 101.48928 37.02469  L 102.595226 37.990756  L 103.824055 39.357661  L 105.175767 41.194027  L 106.773244 43.769568  L 108.616488 47.208177  L 110.82838 51.84897  L 113.900452 58.874164  L 120.290362 73.617599  L 122.870904 78.971829  L 125.205678 83.317112  L 127.294688 86.753417  L 129.260814 89.583344  L 131.22694 92.025638  L 133.070183 93.978654  L 134.913425 95.628457  L 136.879551 97.08482  L 138.845678 98.263912  L 140.934685 99.255257  L 143.146578 100.059632  L 145.604233 100.715673  L 148.430541 101.23433  L 151.87126 101.626104  L 156.295046 101.889926  L 159.490002 101.984478  L 159.490002 101.984478  " clip-path="url(#pbd5aaf1b91)" style="fill: none; stroke: #238b45; stroke-width: 1.5; stroke-linecap: square"/>
   </g>
  </g>
 </g>
 <defs>
  <clipPath id="pbd5aaf1b91">
   <rect x="36.73" y="18.92625" width="122.76" height="83.16"/>
  </clipPath>
 </defs>
</g>
      <text x="5" y="19" font-size="12pt" font-family="Arial" font-weight="800" letter-spacing="0" text-anchor="start" fill="black">a</text>
    </g>
    <g transform="translate(220, -5) scale(1) ">
      <g transform="translate(0, 0) scale(1) translate(0, 0) scale(1.25) "><metadata>
  <rdf:RDF xmlns:dc="http://purl.org/dc/elements/1.1/" xmlns:cc="http://creativecommons.org/ns#" xmlns:rdf="http://www.w3.org/1999/02/22-rdf-syntax-ns#">
   <cc:Work>
    <dc:type rdf:resource="http://purl.org/dc/dcmitype/StillImage"/>
    <dc:date>2022-08-07T14:18:36.047804</dc:date>
    <dc:format>image/svg+xml</dc:format>
    <dc:creator>
     <cc:Agent>
      <dc:title>Matplotlib v3.5.1, https://matplotlib.org/</dc:title>
     </cc:Agent>
    </dc:creator>
   </cc:Work>
  </rdf:RDF>
 </metadata>
 <defs>
  <style type="text/css">*{stroke-linejoin: round; stroke-linecap: butt}</style>
 </defs>
 <g id="figure_1">
  <g id="patch_1">
   <path d="M 0 129.91875  L 147.20625 129.91875  L 147.20625 0  L 0 0  z " style="fill: #ffffff"/>
  </g>
  <g id="axes_1">
   <g id="patch_2">
    <path d="M 13.39125 102.08625  L 136.15125 102.08625  L 136.15125 18.92625  L 13.39125 18.92625  z " style="fill: #ffffff"/>
   </g>
   <g id="matplotlib.axis_1">
    <g id="xtick_1">
     <g id="line2d_1">
      <defs>
       <path id="ma7ca950b95" d="M 0 0  L 0 3.5  " style="stroke: #000000; stroke-width: 1.5"/>
      </defs>
      <g>
       <use xlink:href="#ma7ca950b95" x="15.09625" y="102.08625" style="stroke: #000000; stroke-width: 1.5"/>
      </g>
     </g>
     <g id="text_1">
      <text style="font: 8px 'Arial'; text-anchor: middle" x="15.09625" y="114.8125" transform="rotate(-0, 15.09625, 114.8125)">&#8722;0.7</text>
     </g>
    </g>
    <g id="xtick_2">
     <g id="line2d_2">
      <g>
       <use xlink:href="#ma7ca950b95" x="134.44625" y="102.08625" style="stroke: #000000; stroke-width: 1.5"/>
      </g>
     </g>
     <g id="text_2">
      <text style="font: 8px 'Arial'; text-anchor: middle" x="134.44625" y="114.8125" transform="rotate(-0, 134.44625, 114.8125)">0.7</text>
     </g>
    </g>
    <g id="text_3">
     <!-- $\theta$ -->
     <g transform="translate(72.53125 121.12875)">
      <text>
       <tspan style="font: 8px 'Arial'" x="0" y="-0.171875">&#952;</tspan>
      </text>
     </g>
    </g>
   </g>
   <g id="matplotlib.axis_2">
    <g id="ytick_1">
     <g id="line2d_3">
      <defs>
       <path id="m23a1b44480" d="M 0 0  L -3.5 0  " style="stroke: #000000; stroke-width: 1.5"/>
      </defs>
      <g>
       <use xlink:href="#m23a1b44480" x="13.39125" y="102.08625" style="stroke: #000000; stroke-width: 1.5"/>
      </g>
     </g>
    </g>
    <g id="ytick_2">
     <g id="line2d_4">
      <g>
       <use xlink:href="#m23a1b44480" x="13.39125" y="18.92625" style="stroke: #000000; stroke-width: 1.5"/>
      </g>
     </g>
    </g>
   </g>
   <g id="line2d_5">
    <path d="M 13.391248 102.08625  L 17.692148 101.976609  L 20.026922 101.89816  L 24.204942 101.801703  L 27.03125 101.530319  L 28.87449 101.139036  L 29.857553 100.942992  L 32.315213 100.730514  L 33.175393 100.58181  L 38.828004 100.207121  L 40.548366 99.860977  L 41.65431 99.18869  L 42.514492 98.402008  L 43.251788 97.435048  L 43.989087 96.04998  L 44.603499 94.414908  L 45.217914 92.134057  L 45.955213 89.066878  L 46.692509 85.957042  L 47.429808 82.518758  L 49.395934 76.329559  L 50.501878 73.470692  L 50.747645 73.08749  L 50.993412 73.186505  L 51.116293 73.056722  L 52.345123 70.209169  L 53.328186 68.431906  L 54.311249 67.108953  L 54.925663 66.542891  L 55.171429 66.431548  L 55.294312 66.5754  L 55.66296 65.331183  L 57.137555 60.113273  L 58.735033 54.819605  L 59.963861 50.584252  L 60.824042 48.309882  L 61.561339 46.917003  L 62.175754 46.188782  L 62.91305 45.515385  L 63.527465 44.786085  L 64.264762 44.265173  L 64.756294 44.124406  L 65.124943 44.059374  L 66.230888 41.042352  L 67.213952 37.469288  L 68.565663 34.100173  L 69.425844 32.458308  L 70.408907 31.009636  L 71.269087 30.087036  L 72.006384 29.570593  L 72.497916 29.430694  L 73.11233 29.497186  L 73.97251 30.354144  L 74.709808 31.062217  L 75.447107 31.869576  L 76.307287 33.147673  L 77.29035 35.038889  L 77.781882 36.149052  L 78.15053 35.499245  L 79.256476 33.612098  L 79.625125 33.131764  L 80.239539 33.694507  L 80.731071 34.710246  L 81.9599 37.805644  L 82.82008 40.041292  L 83.311612 39.828898  L 83.803143 39.856739  L 84.294675 40.126159  L 84.786206 40.634854  L 85.400621 41.597968  L 86.137919 43.207388  L 86.875216 45.348776  L 87.243865 46.457131  L 87.858279 47.735644  L 88.595576 49.943602  L 89.455756 53.348672  L 90.684586 58.376053  L 92.404945 64.722414  L 93.142244 65.363136  L 93.510892 65.37753  L 93.87954 65.58894  L 94.371071 66.19767  L 94.985486 67.066547  L 95.599901 67.880865  L 96.214314 69.099261  L 96.951612 71.131767  L 97.811792 73.871187  L 98.057559 73.802685  L 98.303324 73.941485  L 98.671974 74.557848  L 99.163503 76.118936  L 99.532154 77.620644  L 99.900802 77.448045  L 100.023685 77.483997  L 101.49828 89.239706  L 102.235576 92.096513  L 102.972875 94.152133  L 103.833054 95.859348  L 104.693234 97.060247  L 105.676297 98.016221  L 106.65936 98.668962  L 107.765306 99.152879  L 108.74837 99.36624  L 110.714496 99.515768  L 112.18909 99.752376  L 114.2781 100.356509  L 117.104406 101.147877  L 119.684942 101.555811  L 123.862961 101.476944  L 125.706207 101.718009  L 130.007107 101.949811  L 131.850352 102.027285  L 133.693592 102.084563  L 136.151252 102.08625  L 136.151252 102.08625  " clip-path="url(#pf0ca4445f2)" style="fill: none; stroke: #810f7c; stroke-width: 1.5; stroke-linecap: square"/>
   </g>
   <g id="line2d_6">
    <path d="M 13.391248 102.08625  L 14.988726 102.08625  L 15.111607 90.20625  L 45.586562 90.20625  L 45.709446 64.98332  L 101.866928 64.98332  L 101.989811 90.20625  L 134.430888 90.20625  L 134.553774 102.08625  L 136.151252 102.08625  L 136.151252 102.08625  " clip-path="url(#pf0ca4445f2)" style="fill: none; stroke: #1f77b4; stroke-width: 1.5; stroke-linecap: square"/>
   </g>
   <g id="patch_3">
    <path d="M 13.39125 102.08625  L 13.39125 18.92625  " style="fill: none; stroke: #000000; stroke-width: 1.5; stroke-linejoin: miter; stroke-linecap: square"/>
   </g>
   <g id="patch_4">
    <path d="M 13.39125 102.08625  L 136.15125 102.08625  " style="fill: none; stroke: #000000; stroke-width: 1.5; stroke-linejoin: miter; stroke-linecap: square"/>
   </g>
   <g id="text_4">
    <!-- Round 2 with $\epsilon=0.1$ -->
    <g transform="translate(39.29125 12.92625)">
     <text>
      <tspan style="font: 8px 'Arial'" x="0 5.777344 10.226562 14.675781 19.125 23.574219 25.796875 30.246094 32.46875 38.246094 40.023438 42.246094 46.695312 48.917969 53.817188 59.821875 64.271094 66.49375" y="-0.25">Round&#160;2&#160;with&#160;&#949;=0.1</tspan>
     </text>
    </g>
   </g>
   <g id="line2d_7">
    <path d="M 13.391248 101.984478  L 19.412507 101.745304  L 23.467645 101.368829  L 26.539716 100.87235  L 29.120257 100.244838  L 31.455031 99.454098  L 33.544041 98.519805  L 35.510167 97.404111  L 37.35341 96.11562  L 39.196655 94.561012  L 41.039898 92.711829  L 42.88314 90.543937  L 44.726383 88.039834  L 46.692509 84.988913  L 48.781519 81.32283  L 51.116293 76.741966  L 53.819718 70.900384  L 57.629086 62.059215  L 62.298636 51.311161  L 64.633411 46.485106  L 66.476654 43.13914  L 68.074132 40.660319  L 69.548726 38.77498  L 70.777555 37.529649  L 72.006384 36.600875  L 73.11233 36.047498  L 74.095393 35.786279  L 75.078456 35.74494  L 76.061521 35.92389  L 77.044584 36.321347  L 78.15053 37.02469  L 79.256476 37.990756  L 80.485305 39.357661  L 81.837017 41.194027  L 83.434494 43.769568  L 85.277738 47.208177  L 87.48963 51.84897  L 90.561702 58.874164  L 96.951612 73.617599  L 99.532154 78.971829  L 101.866928 83.317112  L 103.955938 86.753417  L 105.922064 89.583344  L 107.88819 92.025638  L 109.731433 93.978654  L 111.574675 95.628457  L 113.540801 97.08482  L 115.506928 98.263912  L 117.595935 99.255257  L 119.807828 100.059632  L 122.265483 100.715673  L 125.091791 101.23433  L 128.53251 101.626104  L 132.956296 101.889926  L 136.151252 101.984478  L 136.151252 101.984478  " clip-path="url(#pf0ca4445f2)" style="fill: none; stroke: #238b45; stroke-width: 1.5; stroke-linecap: square"/>
   </g>
  </g>
 </g>
 <defs>
  <clipPath id="pf0ca4445f2">
   <rect x="13.39125" y="18.92625" width="122.76" height="83.16"/>
  </clipPath>
 </defs>
</g>
      <text x="-5" y="19" font-size="12pt" font-family="Arial" font-weight="800" letter-spacing="0" text-anchor="start" fill="black">b</text>
    </g>
    <g transform="translate(410, -5) scale(1) ">
      <g transform="translate(0, 0) scale(1) translate(0, 0) scale(1.25) "><metadata>
  <rdf:RDF xmlns:dc="http://purl.org/dc/elements/1.1/" xmlns:cc="http://creativecommons.org/ns#" xmlns:rdf="http://www.w3.org/1999/02/22-rdf-syntax-ns#">
   <cc:Work>
    <dc:type rdf:resource="http://purl.org/dc/dcmitype/StillImage"/>
    <dc:date>2022-08-07T14:25:58.657610</dc:date>
    <dc:format>image/svg+xml</dc:format>
    <dc:creator>
     <cc:Agent>
      <dc:title>Matplotlib v3.5.1, https://matplotlib.org/</dc:title>
     </cc:Agent>
    </dc:creator>
   </cc:Work>
  </rdf:RDF>
 </metadata>
 <defs>
  <style type="text/css">*{stroke-linejoin: round; stroke-linecap: butt}</style>
 </defs>
 <g id="figure_1">
  <g id="patch_1">
   <path d="M 0 129.91875  L 147.20625 129.91875  L 147.20625 0  L 0 0  z " style="fill: #ffffff"/>
  </g>
  <g id="axes_1">
   <g id="patch_2">
    <path d="M 13.39125 102.08625  L 136.15125 102.08625  L 136.15125 18.92625  L 13.39125 18.92625  z " style="fill: #ffffff"/>
   </g>
   <g id="matplotlib.axis_1">
    <g id="xtick_1">
     <g id="line2d_1">
      <defs>
       <path id="m3df5f9a842" d="M 0 0  L 0 3.5  " style="stroke: #000000; stroke-width: 1.5"/>
      </defs>
      <g>
       <use xlink:href="#m3df5f9a842" x="15.09625" y="102.08625" style="stroke: #000000; stroke-width: 1.5"/>
      </g>
     </g>
     <g id="text_1">
      <text style="font: 8px 'Arial'; text-anchor: middle" x="15.09625" y="114.8125" transform="rotate(-0, 15.09625, 114.8125)">&#8722;0.7</text>
     </g>
    </g>
    <g id="xtick_2">
     <g id="line2d_2">
      <g>
       <use xlink:href="#m3df5f9a842" x="134.44625" y="102.08625" style="stroke: #000000; stroke-width: 1.5"/>
      </g>
     </g>
     <g id="text_2">
      <text style="font: 8px 'Arial'; text-anchor: middle" x="134.44625" y="114.8125" transform="rotate(-0, 134.44625, 114.8125)">0.7</text>
     </g>
    </g>
    <g id="text_3">
     <!-- $\theta$ -->
     <g transform="translate(72.53125 121.12875)">
      <text>
       <tspan style="font: 8px 'Arial'" x="0" y="-0.171875">&#952;</tspan>
      </text>
     </g>
    </g>
   </g>
   <g id="matplotlib.axis_2">
    <g id="ytick_1">
     <g id="line2d_3">
      <defs>
       <path id="mee5e10c4bb" d="M 0 0  L -3.5 0  " style="stroke: #000000; stroke-width: 1.5"/>
      </defs>
      <g>
       <use xlink:href="#mee5e10c4bb" x="13.39125" y="102.08625" style="stroke: #000000; stroke-width: 1.5"/>
      </g>
     </g>
    </g>
    <g id="ytick_2">
     <g id="line2d_4">
      <g>
       <use xlink:href="#mee5e10c4bb" x="13.39125" y="18.92625" style="stroke: #000000; stroke-width: 1.5"/>
      </g>
     </g>
    </g>
   </g>
   <g id="line2d_5">
    <path d="M 13.391248 102.08625  L 17.446381 101.989043  L 20.149808 101.753348  L 21.009985 101.840095  L 22.976111 101.862975  L 25.679539 101.567388  L 27.154131 101.198029  L 28.137194 100.729601  L 28.751609 100.443202  L 31.946565 99.676499  L 33.052509 98.905991  L 34.281339 97.700501  L 34.772868 97.321493  L 36.370347 96.662618  L 37.722058 95.88715  L 38.950888 94.944895  L 40.179718 93.709225  L 40.671247 92.995598  L 41.531429 91.654587  L 42.760257 90.474714  L 43.866203 89.071587  L 44.234851 88.662543  L 44.726383 88.368108  L 45.955213 86.834594  L 47.06116 85.075945  L 48.044223 83.099428  L 49.887465 78.820409  L 51.484941 74.585831  L 52.468004 72.574253  L 53.205303 71.509943  L 53.819718 70.963651  L 54.065482 70.837334  L 55.417195 66.003124  L 56.154492 63.412535  L 56.891789 61.423402  L 57.874852 59.132544  L 58.980798 55.774297  L 59.840978 53.782738  L 60.578276 52.593973  L 61.561339 51.580668  L 62.05287 51.266464  L 62.421518 51.235609  L 62.790168 51.380968  L 63.281699 51.845341  L 63.773231 52.497864  L 65.00206 47.704884  L 66.108006 45.381439  L 66.353771 44.807434  L 67.213952 42.29388  L 67.951249 40.280547  L 68.688546 38.354809  L 69.302961 37.235724  L 69.794492 36.686174  L 70.286024 36.457276  L 70.654672 36.499242  L 71.146204 36.838912  L 71.637735 37.495282  L 72.129267 38.178663  L 72.866564 34.882153  L 73.358096 33.580565  L 73.603862 33.34821  L 73.97251 33.467608  L 74.341159 33.846151  L 74.83269 34.730485  L 75.447107 36.391075  L 76.184404 39.082852  L 76.307287 39.595167  L 77.044584 38.755011  L 77.536116 38.555092  L 77.904765 38.623907  L 78.273413 38.884254  L 78.764945 39.531638  L 79.256476 40.255335  L 79.748008 38.419068  L 80.239539 37.993103  L 80.608188 37.925608  L 80.976837 38.074623  L 81.468368 38.60458  L 81.9599 39.245064  L 82.451431 39.683278  L 83.065846 40.594704  L 83.803143 42.189845  L 84.663323 44.668598  L 85.769269 48.653093  L 86.62945 51.736353  L 87.120982 52.685145  L 87.858279 53.042683  L 88.595576 53.639492  L 89.455756 54.629164  L 90.438819 56.130769  L 90.807468 56.807786  L 92.527829 64.183166  L 93.388008 67.15622  L 94.862603 70.464824  L 96.091433 73.33486  L 97.197377 75.45735  L 97.811792 76.075876  L 99.777918 78.519728  L 104.078819 86.993999  L 105.79918 89.922086  L 109.117018 93.842493  L 110.100081 94.992446  L 111.206027 95.944761  L 112.680622 96.888024  L 114.646748 97.442533  L 116.121343 98.077488  L 116.858639 98.588398  L 117.227289 99.185189  L 117.964583 100.167035  L 118.21035 100.310719  L 121.773954 101.267791  L 124.108728 101.561957  L 128.040981 101.791539  L 130.744403 101.796832  L 131.727466 102.002611  L 133.447825 102.078141  L 136.151252 102.08625  L 136.151252 102.08625  " clip-path="url(#pf0fc542f1e)" style="fill: none; stroke: #810f7c; stroke-width: 1.5; stroke-linecap: square"/>
   </g>
   <g id="line2d_6">
    <path d="M 13.391248 102.08625  L 14.988726 102.08625  L 15.111607 90.20625  L 29.611791 90.20625  L 29.734672 74.281318  L 118.701879 74.281318  L 118.824765 90.20625  L 134.430888 90.20625  L 134.553774 102.08625  L 136.151252 102.08625  L 136.151252 102.08625  " clip-path="url(#pf0fc542f1e)" style="fill: none; stroke: #1f77b4; stroke-width: 1.5; stroke-linecap: square"/>
   </g>
   <g id="patch_3">
    <path d="M 13.39125 102.08625  L 13.39125 18.92625  " style="fill: none; stroke: #000000; stroke-width: 1.5; stroke-linejoin: miter; stroke-linecap: square"/>
   </g>
   <g id="patch_4">
    <path d="M 13.39125 102.08625  L 136.15125 102.08625  " style="fill: none; stroke: #000000; stroke-width: 1.5; stroke-linejoin: miter; stroke-linecap: square"/>
   </g>
   <g id="text_4">
    <!-- Round 2 with $\epsilon=0.01$ -->
    <g transform="translate(37.05125 12.92625)">
     <text>
      <tspan style="font: 8px 'Arial'" x="0 5.777344 10.226562 14.675781 19.125 23.574219 25.796875 30.246094 32.46875 38.246094 40.023438 42.246094 46.695312 48.917969 53.817188 59.821875 64.271094 66.49375 70.942969" y="-0.25">Round&#160;2&#160;with&#160;&#949;=0.01</tspan>
     </text>
    </g>
   </g>
   <g id="line2d_7">
    <path d="M 13.391248 101.984478  L 19.412507 101.745304  L 23.467645 101.368829  L 26.539716 100.87235  L 29.120257 100.244838  L 31.455031 99.454098  L 33.544041 98.519805  L 35.510167 97.404111  L 37.35341 96.11562  L 39.196655 94.561012  L 41.039898 92.711829  L 42.88314 90.543937  L 44.726383 88.039834  L 46.692509 84.988913  L 48.781519 81.32283  L 51.116293 76.741966  L 53.819718 70.900384  L 57.629086 62.059215  L 62.298636 51.311161  L 64.633411 46.485106  L 66.476654 43.13914  L 68.074132 40.660319  L 69.548726 38.77498  L 70.777555 37.529649  L 72.006384 36.600875  L 73.11233 36.047498  L 74.095393 35.786279  L 75.078456 35.74494  L 76.061521 35.92389  L 77.044584 36.321347  L 78.15053 37.02469  L 79.256476 37.990756  L 80.485305 39.357661  L 81.837017 41.194027  L 83.434494 43.769568  L 85.277738 47.208177  L 87.48963 51.84897  L 90.561702 58.874164  L 96.951612 73.617599  L 99.532154 78.971829  L 101.866928 83.317112  L 103.955938 86.753417  L 105.922064 89.583344  L 107.88819 92.025638  L 109.731433 93.978654  L 111.574675 95.628457  L 113.540801 97.08482  L 115.506928 98.263912  L 117.595935 99.255257  L 119.807828 100.059632  L 122.265483 100.715673  L 125.091791 101.23433  L 128.53251 101.626104  L 132.956296 101.889926  L 136.151252 101.984478  L 136.151252 101.984478  " clip-path="url(#pf0fc542f1e)" style="fill: none; stroke: #238b45; stroke-width: 1.5; stroke-linecap: square"/>
   </g>
  </g>
 </g>
 <defs>
  <clipPath id="pf0fc542f1e">
   <rect x="13.39125" y="18.92625" width="122.76" height="83.16"/>
  </clipPath>
 </defs>
</g>
      <text x="-5" y="19" font-size="12pt" font-family="Arial" font-weight="800" letter-spacing="0" text-anchor="start" fill="black">c</text>
    </g>
    <g transform="translate(530, 20) scale(1) ">
      <g transform="translate(0, 0) scale(1) translate(0, 0) scale(1.25) "><metadata>
  <rdf:RDF xmlns:dc="http://purl.org/dc/elements/1.1/" xmlns:cc="http://creativecommons.org/ns#" xmlns:rdf="http://www.w3.org/1999/02/22-rdf-syntax-ns#">
   <cc:Work>
    <dc:type rdf:resource="http://purl.org/dc/dcmitype/StillImage"/>
    <dc:date>2022-08-07T14:44:31.364005</dc:date>
    <dc:format>image/svg+xml</dc:format>
    <dc:creator>
     <cc:Agent>
      <dc:title>Matplotlib v3.5.1, https://matplotlib.org/</dc:title>
     </cc:Agent>
    </dc:creator>
   </cc:Work>
  </rdf:RDF>
 </metadata>
 <defs>
  <style type="text/css">*{stroke-linejoin: round; stroke-linecap: butt}</style>
 </defs>
 <g id="figure_1">
  <g id="patch_1">
   <path d="M 0 42.12  L 45.09 42.12  L 45.09 0  L 0 0  z " style="fill: #ffffff"/>
  </g>
  <g id="axes_1">
   <g id="patch_2">
    <path d="M 7.2 34.92  L 37.89 34.92  L 37.89 7.2  L 7.2 7.2  z " style="fill: #ffffff"/>
   </g>
   <g id="matplotlib.axis_1"/>
   <g id="matplotlib.axis_2"/>
   <g id="line2d_1">
    <path d="M 8.595 9.597845  L 9.740046 12.308081  L 10.940943 14.581378  L 12.225628 16.536193  L 13.622024 18.254382  L 13.901307 18.726543  L 14.37608 19.386564  L 16.358964 20.241918  L 18.146352 21.252627  L 19.710317 22.393427  L 21.078783 23.668006  L 21.441846 24.198312  L 21.88869 25.080715  L 22.698606 27.48517  L 23.536444 29.30118  L 23.787793 29.561203  L 29.205814 32.250086  L 31.188697 32.825427  L 33.67428 33.303497  L 36.495 33.66  L 36.495 33.66  " clip-path="url(#p42d144707b)" style="fill: none; stroke: #810f7c; stroke-width: 1.5; stroke-linecap: square"/>
   </g>
   <g id="line2d_2">
    <path d="M 8.595 8.46  L 10.773382 12.339599  L 12.92383 15.723556  L 15.046349 18.658146  L 17.168875 21.220714  L 19.319324 23.470113  L 21.497705 25.426737  L 23.704013 27.112924  L 25.994105 28.585133  L 28.395898 29.864  L 30.937339 30.964022  L 33.67428 31.904427  L 36.495 32.65616  L 36.495 32.65616  " clip-path="url(#p42d144707b)" style="fill: none; stroke: #238b45; stroke-width: 1.5; stroke-linecap: square"/>
   </g>
  </g>
 </g>
 <defs>
  <clipPath id="p42d144707b">
   <rect x="7.2" y="7.2" width="30.69" height="27.72"/>
  </clipPath>
 </defs>
</g>
    </g>
    <path d="M538 68 L578 68" stroke-width="1.5" stroke="grey"/>
    <path d="M538 68 L538 28" stroke-width="1.5" stroke="grey"/>
    <path d="M538 28 L578 28" stroke-width="1.5" stroke="grey"/>
    <path d="M578 28 L578 68" stroke-width="1.5" stroke="grey"/>
    <path d="M538 68 L550 113" stroke-width="1.5" stroke="grey"/>
    <path d="M578 68 L566 113" stroke-width="1.5" stroke="grey"/>
    <path d="M566 123 L550 123" stroke-width="1.5" stroke="grey"/>
    <path d="M566 113 L550 113" stroke-width="1.5" stroke="grey"/>
    <path d="M566 113 L566 124" stroke-width="1.5" stroke="grey"/>
    <path d="M550 113 L550 124" stroke-width="1.5" stroke="grey"/>
  </g>
</svg>
