<svg xmlns="http://www.w3.org/2000/svg" xmlns:xlink="http://www.w3.org/1999/xlink" version="1.1" class="marks" width="352" height="202" viewBox="0 0 352 202"><rect width="352" height="202" fill="white"/><g fill="none" stroke-miterlimit="10" transform="translate(37,25)"><g class="mark-group role-frame root" role="graphics-object" aria-roledescription="group mark container"><g transform="translate(0,0)"><path class="background" aria-hidden="true" d="M0,0h0v0h0Z"/><g><g class="mark-group role-column-title column-title" role="graphics-object" aria-roledescription="group mark container"><g transform="translate(155,151)"><path class="background" aria-hidden="true" d="M0,0h0v0h0Z"/><g><g class="mark-group role-title"><g transform="translate(0,10)"><path class="background" aria-hidden="true" d="M0,0h0v0h0Z" pointer-events="none"/><g><g class="mark-text role-title-text" role="graphics-symbol" aria-roledescription="title" aria-label="Title text 'Number of Simulations'" pointer-events="none"><text text-anchor="middle" transform="translate(0,9)" font-family="sans-serif" font-size="11px" font-weight="normal" fill="#000" opacity="1">Number of Simulations</text></g></g><path class="foreground" aria-hidden="true" d="" pointer-events="none" display="none"/></g></g></g><path class="foreground" aria-hidden="true" d="" display="none"/></g></g><g class="mark-group role-row-header row_header" role="graphics-object" aria-roledescription="group mark container"><g transform="translate(0,0)"><path class="background" aria-hidden="true" d="M0,0h0v100h0Z"/><g><g class="mark-group role-axis" role="graphics-symbol" aria-roledescription="axis" aria-label="Y-axis titled 'C2ST' for a linear scale with values from 0.5 to 1.0"><g transform="translate(0.5,0.5)"><path class="background" aria-hidden="true" d="M0,0h0v0h0Z" pointer-events="none"/><g><g class="mark-rule role-axis-tick" pointer-events="none"><line transform="translate(0,100)" x2="-5" y2="0" stroke="#888" stroke-width="0" opacity="1"/><line transform="translate(0,80)" x2="-5" y2="0" stroke="#888" stroke-width="0" opacity="1"/><line transform="translate(0,60)" x2="-5" y2="0" stroke="#888" stroke-width="0" opacity="1"/><line transform="translate(0,40)" x2="-5" y2="0" stroke="#888" stroke-width="0" opacity="1"/><line transform="translate(0,20)" x2="-5" y2="0" stroke="#888" stroke-width="0" opacity="1"/><line transform="translate(0,0)" x2="-5" y2="0" stroke="#888" stroke-width="0" opacity="1"/></g><g class="mark-text role-axis-label" pointer-events="none"><text text-anchor="end" transform="translate(-7,103)" font-family="sans-serif" font-size="10px" font-weight="normal" fill="#000" opacity="1">0.5</text><text text-anchor="end" transform="translate(-7,83)" font-family="sans-serif" font-size="10px" font-weight="normal" fill="#000" opacity="1">0.6</text><text text-anchor="end" transform="translate(-7,63.00000000000001)" font-family="sans-serif" font-size="10px" font-weight="normal" fill="#000" opacity="1">0.7</text><text text-anchor="end" transform="translate(-7,42.99999999999999)" font-family="sans-serif" font-size="10px" font-weight="normal" fill="#000" opacity="1">0.8</text><text text-anchor="end" transform="translate(-7,22.999999999999996)" font-family="sans-serif" font-size="10px" font-weight="normal" fill="#000" opacity="1">0.9</text><text text-anchor="end" transform="translate(-7,3)" font-family="sans-serif" font-size="10px" font-weight="normal" fill="#000" opacity="1">1.0</text></g><g class="mark-text role-axis-title" pointer-events="none"><text text-anchor="middle" transform="translate(-20.9013671875,50) rotate(-90) translate(0,-2)" font-family="sans-serif" font-size="11px" font-weight="normal" fill="#000" opacity="1">C2ST</text></g></g><path class="foreground" aria-hidden="true" d="" pointer-events="none" display="none"/></g></g></g><path class="foreground" aria-hidden="true" d="" display="none"/></g></g><g class="mark-group role-column-header column_header" role="graphics-object" aria-roledescription="group mark container"><g transform="translate(0,0)"><path class="background" aria-hidden="true" d="M0,0h100v0h-100Z"/><g><g class="mark-group role-title"><g transform="translate(50,-20)"><path class="background" aria-hidden="true" d="M0,0h0v0h0Z" pointer-events="none"/><g><g class="mark-text role-title-text" role="graphics-symbol" aria-roledescription="title" aria-label="Title text 'NPE'" pointer-events="none"><text text-anchor="middle" transform="translate(0,8)" font-family="sans-serif" font-size="10px" font-weight="normal" fill="#000" opacity="1">NPE</text></g></g><path class="foreground" aria-hidden="true" d="" pointer-events="none" display="none"/></g></g></g><path class="foreground" aria-hidden="true" d="" display="none"/></g><g transform="translate(105,0)"><path class="background" aria-hidden="true" d="M0,0h100v0h-100Z"/><g><g class="mark-group role-title"><g transform="translate(50,-20)"><path class="background" aria-hidden="true" d="M0,0h0v0h0Z" pointer-events="none"/><g><g class="mark-text role-title-text" role="graphics-symbol" aria-roledescription="title" aria-label="Title text 'SNPE'" pointer-events="none"><text text-anchor="middle" transform="translate(0,8)" font-family="sans-serif" font-size="10px" font-weight="normal" fill="#000" opacity="1">SNPE</text></g></g><path class="foreground" aria-hidden="true" d="" pointer-events="none" display="none"/></g></g></g><path class="foreground" aria-hidden="true" d="" display="none"/></g><g transform="translate(210,0)"><path class="background" aria-hidden="true" d="M0,0h100v0h-100Z"/><g><g class="mark-group role-title"><g transform="translate(50,-20)"><path class="background" aria-hidden="true" d="M0,0h0v0h0Z" pointer-events="none"/><g><g class="mark-text role-title-text" role="graphics-symbol" aria-roledescription="title" aria-label="Title text 'tsnpe'" pointer-events="none"><text text-anchor="middle" transform="translate(0,8)" font-family="sans-serif" font-size="10px" font-weight="normal" fill="#000" opacity="1">tsnpe</text></g></g><path class="foreground" aria-hidden="true" d="" pointer-events="none" display="none"/></g></g></g><path class="foreground" aria-hidden="true" d="" display="none"/></g></g><g class="mark-group role-scope cell" role="graphics-object" aria-roledescription="group mark container"><g transform="translate(0,0)"><path class="background" aria-hidden="true" d="M0,0h100v100h-100Z" stroke="#ddd" stroke-width="0"/><g><g class="mark-group role-axis" aria-hidden="true"><g transform="translate(0.5,0.5)"><path class="background" aria-hidden="true" d="M0,0h0v0h0Z" pointer-events="none"/><g><g class="mark-rule role-axis-grid" pointer-events="none"><line transform="translate(0,100)" x2="100" y2="0" stroke="#ddd" stroke-width="1" opacity="1"/><line transform="translate(0,80)" x2="100" y2="0" stroke="#ddd" stroke-width="1" opacity="1"/><line transform="translate(0,60)" x2="100" y2="0" stroke="#ddd" stroke-width="1" opacity="1"/><line transform="translate(0,40)" x2="100" y2="0" stroke="#ddd" stroke-width="1" opacity="1"/><line transform="translate(0,20)" x2="100" y2="0" stroke="#ddd" stroke-width="1" opacity="1"/><line transform="translate(0,0)" x2="100" y2="0" stroke="#ddd" stroke-width="1" opacity="1"/></g></g><path class="foreground" aria-hidden="true" d="" pointer-events="none" display="none"/></g></g><g class="mark-group role-axis" role="graphics-symbol" aria-roledescription="axis" aria-label="X-axis for a discrete scale with 3 values: 10³, 10⁴, 10⁵"><g transform="translate(0.5,100.5)"><path class="background" aria-hidden="true" d="M0,0h0v0h0Z" pointer-events="none"/><g><g class="mark-rule role-axis-tick" pointer-events="none"><line transform="translate(16,0)" x2="0" y2="5" stroke="#888" stroke-width="0" opacity="1"/><line transform="translate(50,0)" x2="0" y2="5" stroke="#888" stroke-width="0" opacity="1"/><line transform="translate(83,0)" x2="0" y2="5" stroke="#888" stroke-width="0" opacity="1"/></g><g class="mark-text role-axis-label" pointer-events="none"><text text-anchor="end" transform="translate(16.166666666666668,7) rotate(270) translate(0,3)" font-family="sans-serif" font-size="10px" font-weight="normal" fill="#000" opacity="1">10³</text><text text-anchor="end" transform="translate(49.5,7) rotate(270) translate(0,3)" font-family="sans-serif" font-size="10px" font-weight="normal" fill="#000" opacity="1">10⁴</text><text text-anchor="end" transform="translate(82.83333333333334,7) rotate(270) translate(0,3)" font-family="sans-serif" font-size="10px" font-weight="normal" fill="#000" opacity="1">10⁵</text></g></g><path class="foreground" aria-hidden="true" d="" pointer-events="none" display="none"/></g></g><g class="mark-group role-scope child_layer_0_pathgroup" role="graphics-object" aria-roledescription="group mark container"><g transform="translate(0,0)"><path class="background" aria-hidden="true" d="M0,0h100v100h-100Z"/><g><g class="mark-line role-mark child_layer_0_marks" role="graphics-object" aria-roledescription="line mark container"><path aria-label="algorithm: NPE; num_simulations: 10³; Mean of C2ST: 0.694495" role="graphics-symbol" aria-roledescription="line mark" d="M16.666666666666668,61.101000000000006L50,89.56199999999998L83.33333333333334,98.79799999999999" stroke="#000000" stroke-width="1.5"/></g></g><path class="foreground" aria-hidden="true" d="" display="none"/></g></g><g class="mark-symbol role-mark child_layer_1_marks" role="graphics-object" aria-roledescription="symbol mark container"><path aria-label="algorithm: NPE; num_simulations: 10³; Mean of C2ST: 0.694495" role="graphics-symbol" aria-roledescription="point" transform="translate(16.666666666666668,61.101000000000006)" d="M3.5355339059327378,0A3.5355339059327378,3.5355339059327378,0,1,1,-3.5355339059327378,0A3.5355339059327378,3.5355339059327378,0,1,1,3.5355339059327378,0" fill="#000000" stroke-width="2"/><path aria-label="algorithm: NPE; num_simulations: 10⁴; Mean of C2ST: 0.55219" role="graphics-symbol" aria-roledescription="point" transform="translate(50,89.56199999999998)" d="M3.5355339059327378,0A3.5355339059327378,3.5355339059327378,0,1,1,-3.5355339059327378,0A3.5355339059327378,3.5355339059327378,0,1,1,3.5355339059327378,0" fill="#000000" stroke-width="2"/><path aria-label="algorithm: NPE; num_simulations: 10⁵; Mean of C2ST: 0.50601" role="graphics-symbol" aria-roledescription="point" transform="translate(83.33333333333334,98.79799999999999)" d="M3.5355339059327378,0A3.5355339059327378,3.5355339059327378,0,1,1,-3.5355339059327378,0A3.5355339059327378,3.5355339059327378,0,1,1,3.5355339059327378,0" fill="#000000" stroke-width="2"/></g><g class="mark-rule role-mark child_layer_2_marks" role="graphics-object" aria-roledescription="rule mark container"><line aria-label="C2ST: 0.669817625; upper_C2ST: 0.719774875; algorithm: NPE; num_simulations: 10³; Ci1 of C2ST: 0.719774875; Ci0 of C2ST: 0.669817625; Mean of C2ST: 0.694495" role="graphics-symbol" aria-roledescription="errorbar" transform="translate(16.666666666666668,66.03647500000001)" x2="0" y2="-9.991449999999993" stroke="#000000"/><line aria-label="C2ST: 0.53558875; upper_C2ST: 0.571943625; algorithm: NPE; num_simulations: 10⁴; Ci1 of C2ST: 0.571943625; Ci0 of C2ST: 0.53558875; Mean of C2ST: 0.55219" role="graphics-symbol" aria-roledescription="errorbar" transform="translate(50,92.88225000000001)" x2="0" y2="-7.270975000000021" stroke="#000000"/><line aria-label="C2ST: 0.503385; upper_C2ST: 0.50829; algorithm: NPE; num_simulations: 10⁵; Ci1 of C2ST: 0.50829; Ci0 of C2ST: 0.503385; Mean of C2ST: 0.50601" role="graphics-symbol" aria-roledescription="errorbar" transform="translate(83.33333333333334,99.32299999999998)" x2="0" y2="-0.9809999999999661" stroke="#000000"/></g></g><path class="foreground" aria-hidden="true" d="" display="none"/></g><g transform="translate(105,0)"><path class="background" aria-hidden="true" d="M0,0h100v100h-100Z" stroke="#ddd" stroke-width="0"/><g><g class="mark-group role-axis" aria-hidden="true"><g transform="translate(0.5,0.5)"><path class="background" aria-hidden="true" d="M0,0h0v0h0Z" pointer-events="none"/><g><g class="mark-rule role-axis-grid" pointer-events="none"><line transform="translate(0,100)" x2="100" y2="0" stroke="#ddd" stroke-width="1" opacity="1"/><line transform="translate(0,80)" x2="100" y2="0" stroke="#ddd" stroke-width="1" opacity="1"/><line transform="translate(0,60)" x2="100" y2="0" stroke="#ddd" stroke-width="1" opacity="1"/><line transform="translate(0,40)" x2="100" y2="0" stroke="#ddd" stroke-width="1" opacity="1"/><line transform="translate(0,20)" x2="100" y2="0" stroke="#ddd" stroke-width="1" opacity="1"/><line transform="translate(0,0)" x2="100" y2="0" stroke="#ddd" stroke-width="1" opacity="1"/></g></g><path class="foreground" aria-hidden="true" d="" pointer-events="none" display="none"/></g></g><g class="mark-group role-axis" role="graphics-symbol" aria-roledescription="axis" aria-label="X-axis for a discrete scale with 3 values: 10³, 10⁴, 10⁵"><g transform="translate(0.5,100.5)"><path class="background" aria-hidden="true" d="M0,0h0v0h0Z" pointer-events="none"/><g><g class="mark-rule role-axis-tick" pointer-events="none"><line transform="translate(16,0)" x2="0" y2="5" stroke="#888" stroke-width="0" opacity="1"/><line transform="translate(50,0)" x2="0" y2="5" stroke="#888" stroke-width="0" opacity="1"/><line transform="translate(83,0)" x2="0" y2="5" stroke="#888" stroke-width="0" opacity="1"/></g><g class="mark-text role-axis-label" pointer-events="none"><text text-anchor="end" transform="translate(16.166666666666668,7) rotate(270) translate(0,3)" font-family="sans-serif" font-size="10px" font-weight="normal" fill="#000" opacity="1">10³</text><text text-anchor="end" transform="translate(49.5,7) rotate(270) translate(0,3)" font-family="sans-serif" font-size="10px" font-weight="normal" fill="#000" opacity="1">10⁴</text><text text-anchor="end" transform="translate(82.83333333333334,7) rotate(270) translate(0,3)" font-family="sans-serif" font-size="10px" font-weight="normal" fill="#000" opacity="1">10⁵</text></g></g><path class="foreground" aria-hidden="true" d="" pointer-events="none" display="none"/></g></g><g class="mark-group role-scope child_layer_0_pathgroup" role="graphics-object" aria-roledescription="group mark container"><g transform="translate(0,0)"><path class="background" aria-hidden="true" d="M0,0h100v100h-100Z"/><g><g class="mark-line role-mark child_layer_0_marks" role="graphics-object" aria-roledescription="line mark container"><path aria-label="algorithm: SNPE; num_simulations: 10³; Mean of C2ST: 0.65234" role="graphics-symbol" aria-roledescription="line mark" d="M16.666666666666668,69.532L50,91.184L83.33333333333334,98.56200000000001" stroke="#000000" stroke-width="1.5"/></g></g><path class="foreground" aria-hidden="true" d="" display="none"/></g></g><g class="mark-symbol role-mark child_layer_1_marks" role="graphics-object" aria-roledescription="symbol mark container"><path aria-label="algorithm: SNPE; num_simulations: 10³; Mean of C2ST: 0.65234" role="graphics-symbol" aria-roledescription="point" transform="translate(16.666666666666668,69.532)" d="M3.5355339059327378,0A3.5355339059327378,3.5355339059327378,0,1,1,-3.5355339059327378,0A3.5355339059327378,3.5355339059327378,0,1,1,3.5355339059327378,0" fill="#000000" stroke-width="2"/><path aria-label="algorithm: SNPE; num_simulations: 10⁴; Mean of C2ST: 0.54408" role="graphics-symbol" aria-roledescription="point" transform="translate(50,91.184)" d="M3.5355339059327378,0A3.5355339059327378,3.5355339059327378,0,1,1,-3.5355339059327378,0A3.5355339059327378,3.5355339059327378,0,1,1,3.5355339059327378,0" fill="#000000" stroke-width="2"/><path aria-label="algorithm: SNPE; num_simulations: 10⁵; Mean of C2ST: 0.50719" role="graphics-symbol" aria-roledescription="point" transform="translate(83.33333333333334,98.56200000000001)" d="M3.5355339059327378,0A3.5355339059327378,3.5355339059327378,0,1,1,-3.5355339059327378,0A3.5355339059327378,3.5355339059327378,0,1,1,3.5355339059327378,0" fill="#000000" stroke-width="2"/></g><g class="mark-rule role-mark child_layer_2_marks" role="graphics-object" aria-roledescription="rule mark container"><line aria-label="C2ST: 0.6243575; upper_C2ST: 0.682365625; algorithm: SNPE; num_simulations: 10³; Ci1 of C2ST: 0.682365625; Ci0 of C2ST: 0.6243575; Mean of C2ST: 0.65234" role="graphics-symbol" aria-roledescription="errorbar" transform="translate(16.666666666666668,75.12849999999997)" x2="0" y2="-11.601624999999991" stroke="#000000"/><line aria-label="C2ST: 0.5358875; upper_C2ST: 0.552376875; algorithm: SNPE; num_simulations: 10⁴; Ci1 of C2ST: 0.552376875; Ci0 of C2ST: 0.5358875; Mean of C2ST: 0.54408" role="graphics-symbol" aria-roledescription="errorbar" transform="translate(50,92.8225)" x2="0" y2="-3.2978750000000048" stroke="#000000"/><line aria-label="C2ST: 0.50448425; upper_C2ST: 0.509470625; algorithm: SNPE; num_simulations: 10⁵; Ci1 of C2ST: 0.509470625; Ci0 of C2ST: 0.50448425; Mean of C2ST: 0.50719" role="graphics-symbol" aria-roledescription="errorbar" transform="translate(83.33333333333334,99.10314999999999)" x2="0" y2="-0.9972750000000019" stroke="#000000"/></g></g><path class="foreground" aria-hidden="true" d="" display="none"/></g><g transform="translate(210,0)"><path class="background" aria-hidden="true" d="M0,0h100v100h-100Z" stroke="#ddd" stroke-width="0"/><g><g class="mark-group role-axis" aria-hidden="true"><g transform="translate(0.5,0.5)"><path class="background" aria-hidden="true" d="M0,0h0v0h0Z" pointer-events="none"/><g><g class="mark-rule role-axis-grid" pointer-events="none"><line transform="translate(0,100)" x2="100" y2="0" stroke="#ddd" stroke-width="1" opacity="1"/><line transform="translate(0,80)" x2="100" y2="0" stroke="#ddd" stroke-width="1" opacity="1"/><line transform="translate(0,60)" x2="100" y2="0" stroke="#ddd" stroke-width="1" opacity="1"/><line transform="translate(0,40)" x2="100" y2="0" stroke="#ddd" stroke-width="1" opacity="1"/><line transform="translate(0,20)" x2="100" y2="0" stroke="#ddd" stroke-width="1" opacity="1"/><line transform="translate(0,0)" x2="100" y2="0" stroke="#ddd" stroke-width="1" opacity="1"/></g></g><path class="foreground" aria-hidden="true" d="" pointer-events="none" display="none"/></g></g><g class="mark-group role-axis" role="graphics-symbol" aria-roledescription="axis" aria-label="X-axis for a discrete scale with 3 values: 1000, 10000, 100000"><g transform="translate(0.5,100.5)"><path class="background" aria-hidden="true" d="M0,0h0v0h0Z" pointer-events="none"/><g><g class="mark-rule role-axis-tick" pointer-events="none"><line transform="translate(16,0)" x2="0" y2="5" stroke="#888" stroke-width="0" opacity="1"/><line transform="translate(50,0)" x2="0" y2="5" stroke="#888" stroke-width="0" opacity="1"/><line transform="translate(83,0)" x2="0" y2="5" stroke="#888" stroke-width="0" opacity="1"/></g><g class="mark-text role-axis-label" pointer-events="none"><text text-anchor="end" transform="translate(16.166666666666668,7) rotate(270) translate(0,3)" font-family="sans-serif" font-size="10px" font-weight="normal" fill="#000" opacity="1">1000</text><text text-anchor="end" transform="translate(49.5,7) rotate(270) translate(0,3)" font-family="sans-serif" font-size="10px" font-weight="normal" fill="#000" opacity="1">10000</text><text text-anchor="end" transform="translate(82.83333333333334,7) rotate(270) translate(0,3)" font-family="sans-serif" font-size="10px" font-weight="normal" fill="#000" opacity="1">100000</text></g></g><path class="foreground" aria-hidden="true" d="" pointer-events="none" display="none"/></g></g><g class="mark-group role-scope child_layer_0_pathgroup" role="graphics-object" aria-roledescription="group mark container"><g transform="translate(0,0)"><path class="background" aria-hidden="true" d="M0,0h100v100h-100Z"/><g><g class="mark-line role-mark child_layer_0_marks" role="graphics-object" aria-roledescription="line mark container"><path aria-label="algorithm: tsnpe; num_simulations: 1000; Mean of C2ST: 0.75444" role="graphics-symbol" aria-roledescription="line mark" d="M16.666666666666668,49.112L50,85.056L83.33333333333334,95.57100000000001" stroke="#000000" stroke-width="1.5"/></g></g><path class="foreground" aria-hidden="true" d="" display="none"/></g></g><g class="mark-symbol role-mark child_layer_1_marks" role="graphics-object" aria-roledescription="symbol mark container"><path aria-label="algorithm: tsnpe; num_simulations: 1000; Mean of C2ST: 0.75444" role="graphics-symbol" aria-roledescription="point" transform="translate(16.666666666666668,49.112)" d="M3.5355339059327378,0A3.5355339059327378,3.5355339059327378,0,1,1,-3.5355339059327378,0A3.5355339059327378,3.5355339059327378,0,1,1,3.5355339059327378,0" fill="#000000" stroke-width="2"/><path aria-label="algorithm: tsnpe; num_simulations: 10000; Mean of C2ST: 0.57472" role="graphics-symbol" aria-roledescription="point" transform="translate(50,85.056)" d="M3.5355339059327378,0A3.5355339059327378,3.5355339059327378,0,1,1,-3.5355339059327378,0A3.5355339059327378,3.5355339059327378,0,1,1,3.5355339059327378,0" fill="#000000" stroke-width="2"/><path aria-label="algorithm: tsnpe; num_simulations: 100000; Mean of C2ST: 0.522145" role="graphics-symbol" aria-roledescription="point" transform="translate(83.33333333333334,95.57100000000001)" d="M3.5355339059327378,0A3.5355339059327378,3.5355339059327378,0,1,1,-3.5355339059327378,0A3.5355339059327378,3.5355339059327378,0,1,1,3.5355339059327378,0" fill="#000000" stroke-width="2"/></g><g class="mark-rule role-mark child_layer_2_marks" role="graphics-object" aria-roledescription="rule mark container"><line aria-label="C2ST: 0.709130125; upper_C2ST: 0.80071025; algorithm: tsnpe; num_simulations: 1000; Ci1 of C2ST: 0.80071025; Ci0 of C2ST: 0.709130125; Mean of C2ST: 0.75444" role="graphics-symbol" aria-roledescription="errorbar" transform="translate(16.666666666666668,58.17397499999999)" x2="0" y2="-18.316024999999982" stroke="#000000"/><line aria-label="C2ST: 0.55382825; upper_C2ST: 0.59908325; algorithm: tsnpe; num_simulations: 10000; Ci1 of C2ST: 0.59908325; Ci0 of C2ST: 0.55382825; Mean of C2ST: 0.57472" role="graphics-symbol" aria-roledescription="errorbar" transform="translate(50,89.23435000000002)" x2="0" y2="-9.051000000000016" stroke="#000000"/><line aria-label="C2ST: 0.514749625; upper_C2ST: 0.529077; algorithm: tsnpe; num_simulations: 100000; Ci1 of C2ST: 0.529077; Ci0 of C2ST: 0.514749625; Mean of C2ST: 0.522145" role="graphics-symbol" aria-roledescription="errorbar" transform="translate(83.33333333333334,97.050075)" x2="0" y2="-2.8654750000000178" stroke="#000000"/></g></g><path class="foreground" aria-hidden="true" d="" display="none"/></g></g></g><path class="foreground" aria-hidden="true" d="" display="none"/></g></g></g></svg>