<?xml version="1.0" encoding="utf-8" standalone="no"?>
<!DOCTYPE svg PUBLIC "-//W3C//DTD SVG 1.1//EN"
  "http://www.w3.org/Graphics/SVG/1.1/DTD/svg11.dtd">
<svg xmlns:xlink="http://www.w3.org/1999/xlink" width="147.20625pt" height="129.91875pt" viewBox="0 0 147.20625 129.91875" xmlns="http://www.w3.org/2000/svg" version="1.1">
 <metadata>
  <rdf:RDF xmlns:dc="http://purl.org/dc/elements/1.1/" xmlns:cc="http://creativecommons.org/ns#" xmlns:rdf="http://www.w3.org/1999/02/22-rdf-syntax-ns#">
   <cc:Work>
    <dc:type rdf:resource="http://purl.org/dc/dcmitype/StillImage"/>
    <dc:date>2022-08-07T14:25:58.657610</dc:date>
    <dc:format>image/svg+xml</dc:format>
    <dc:creator>
     <cc:Agent>
      <dc:title>Matplotlib v3.5.1, https://matplotlib.org/</dc:title>
     </cc:Agent>
    </dc:creator>
   </cc:Work>
  </rdf:RDF>
 </metadata>
 <defs>
  <style type="text/css">*{stroke-linejoin: round; stroke-linecap: butt}</style>
 </defs>
 <g id="figure_1">
  <g id="patch_1">
   <path d="M 0 129.91875 
L 147.20625 129.91875 
L 147.20625 0 
L 0 0 
z
" style="fill: #ffffff"/>
  </g>
  <g id="axes_1">
   <g id="patch_2">
    <path d="M 13.39125 102.08625 
L 136.15125 102.08625 
L 136.15125 18.92625 
L 13.39125 18.92625 
z
" style="fill: #ffffff"/>
   </g>
   <g id="matplotlib.axis_1">
    <g id="xtick_1">
     <g id="line2d_1">
      <defs>
       <path id="m3df5f9a842" d="M 0 0 
L 0 3.5 
" style="stroke: #000000; stroke-width: 1.5"/>
      </defs>
      <g>
       <use xlink:href="#m3df5f9a842" x="15.09625" y="102.08625" style="stroke: #000000; stroke-width: 1.5"/>
      </g>
     </g>
     <g id="text_1">
      <text style="font: 8px 'Arial'; text-anchor: middle" x="15.09625" y="114.8125" transform="rotate(-0, 15.09625, 114.8125)">−0.7</text>
     </g>
    </g>
    <g id="xtick_2">
     <g id="line2d_2">
      <g>
       <use xlink:href="#m3df5f9a842" x="134.44625" y="102.08625" style="stroke: #000000; stroke-width: 1.5"/>
      </g>
     </g>
     <g id="text_2">
      <text style="font: 8px 'Arial'; text-anchor: middle" x="134.44625" y="114.8125" transform="rotate(-0, 134.44625, 114.8125)">0.7</text>
     </g>
    </g>
    <g id="text_3">
     <!-- $\theta$ -->
     <g transform="translate(72.53125 121.12875)">
      <text>
       <tspan style="font: 8px 'Arial'" x="0" y="-0.171875">θ</tspan>
      </text>
     </g>
    </g>
   </g>
   <g id="matplotlib.axis_2">
    <g id="ytick_1">
     <g id="line2d_3">
      <defs>
       <path id="mee5e10c4bb" d="M 0 0 
L -3.5 0 
" style="stroke: #000000; stroke-width: 1.5"/>
      </defs>
      <g>
       <use xlink:href="#mee5e10c4bb" x="13.39125" y="102.08625" style="stroke: #000000; stroke-width: 1.5"/>
      </g>
     </g>
    </g>
    <g id="ytick_2">
     <g id="line2d_4">
      <g>
       <use xlink:href="#mee5e10c4bb" x="13.39125" y="18.92625" style="stroke: #000000; stroke-width: 1.5"/>
      </g>
     </g>
    </g>
   </g>
   <g id="line2d_5">
    <path d="M 13.391248 102.08625 
L 17.446381 101.989043 
L 20.149808 101.753348 
L 21.009985 101.840095 
L 22.976111 101.862975 
L 25.679539 101.567388 
L 27.154131 101.198029 
L 28.137194 100.729601 
L 28.751609 100.443202 
L 31.946565 99.676499 
L 33.052509 98.905991 
L 34.281339 97.700501 
L 34.772868 97.321493 
L 36.370347 96.662618 
L 37.722058 95.88715 
L 38.950888 94.944895 
L 40.179718 93.709225 
L 40.671247 92.995598 
L 41.531429 91.654587 
L 42.760257 90.474714 
L 43.866203 89.071587 
L 44.234851 88.662543 
L 44.726383 88.368108 
L 45.955213 86.834594 
L 47.06116 85.075945 
L 48.044223 83.099428 
L 49.887465 78.820409 
L 51.484941 74.585831 
L 52.468004 72.574253 
L 53.205303 71.509943 
L 53.819718 70.963651 
L 54.065482 70.837334 
L 55.417195 66.003124 
L 56.154492 63.412535 
L 56.891789 61.423402 
L 57.874852 59.132544 
L 58.980798 55.774297 
L 59.840978 53.782738 
L 60.578276 52.593973 
L 61.561339 51.580668 
L 62.05287 51.266464 
L 62.421518 51.235609 
L 62.790168 51.380968 
L 63.281699 51.845341 
L 63.773231 52.497864 
L 65.00206 47.704884 
L 66.108006 45.381439 
L 66.353771 44.807434 
L 67.213952 42.29388 
L 67.951249 40.280547 
L 68.688546 38.354809 
L 69.302961 37.235724 
L 69.794492 36.686174 
L 70.286024 36.457276 
L 70.654672 36.499242 
L 71.146204 36.838912 
L 71.637735 37.495282 
L 72.129267 38.178663 
L 72.866564 34.882153 
L 73.358096 33.580565 
L 73.603862 33.34821 
L 73.97251 33.467608 
L 74.341159 33.846151 
L 74.83269 34.730485 
L 75.447107 36.391075 
L 76.184404 39.082852 
L 76.307287 39.595167 
L 77.044584 38.755011 
L 77.536116 38.555092 
L 77.904765 38.623907 
L 78.273413 38.884254 
L 78.764945 39.531638 
L 79.256476 40.255335 
L 79.748008 38.419068 
L 80.239539 37.993103 
L 80.608188 37.925608 
L 80.976837 38.074623 
L 81.468368 38.60458 
L 81.9599 39.245064 
L 82.451431 39.683278 
L 83.065846 40.594704 
L 83.803143 42.189845 
L 84.663323 44.668598 
L 85.769269 48.653093 
L 86.62945 51.736353 
L 87.120982 52.685145 
L 87.858279 53.042683 
L 88.595576 53.639492 
L 89.455756 54.629164 
L 90.438819 56.130769 
L 90.807468 56.807786 
L 92.527829 64.183166 
L 93.388008 67.15622 
L 94.862603 70.464824 
L 96.091433 73.33486 
L 97.197377 75.45735 
L 97.811792 76.075876 
L 99.777918 78.519728 
L 104.078819 86.993999 
L 105.79918 89.922086 
L 109.117018 93.842493 
L 110.100081 94.992446 
L 111.206027 95.944761 
L 112.680622 96.888024 
L 114.646748 97.442533 
L 116.121343 98.077488 
L 116.858639 98.588398 
L 117.227289 99.185189 
L 117.964583 100.167035 
L 118.21035 100.310719 
L 121.773954 101.267791 
L 124.108728 101.561957 
L 128.040981 101.791539 
L 130.744403 101.796832 
L 131.727466 102.002611 
L 133.447825 102.078141 
L 136.151252 102.08625 
L 136.151252 102.08625 
" clip-path="url(#pf0fc542f1e)" style="fill: none; stroke: #810f7c; stroke-width: 1.5; stroke-linecap: square"/>
   </g>
   <g id="line2d_6">
    <path d="M 13.391248 102.08625 
L 14.988726 102.08625 
L 15.111607 90.20625 
L 29.611791 90.20625 
L 29.734672 74.281318 
L 118.701879 74.281318 
L 118.824765 90.20625 
L 134.430888 90.20625 
L 134.553774 102.08625 
L 136.151252 102.08625 
L 136.151252 102.08625 
" clip-path="url(#pf0fc542f1e)" style="fill: none; stroke: #1f77b4; stroke-width: 1.5; stroke-linecap: square"/>
   </g>
   <g id="patch_3">
    <path d="M 13.39125 102.08625 
L 13.39125 18.92625 
" style="fill: none; stroke: #000000; stroke-width: 1.5; stroke-linejoin: miter; stroke-linecap: square"/>
   </g>
   <g id="patch_4">
    <path d="M 13.39125 102.08625 
L 136.15125 102.08625 
" style="fill: none; stroke: #000000; stroke-width: 1.5; stroke-linejoin: miter; stroke-linecap: square"/>
   </g>
   <g id="text_4">
    <!-- Round 2 with $\epsilon=0.01$ -->
    <g transform="translate(37.05125 12.92625)">
     <text>
      <tspan style="font: 8px 'Arial'" x="0 5.777344 10.226562 14.675781 19.125 23.574219 25.796875 30.246094 32.46875 38.246094 40.023438 42.246094 46.695312 48.917969 53.817188 59.821875 64.271094 66.49375 70.942969" y="-0.25">Round 2 with ε=0.01</tspan>
     </text>
    </g>
   </g>
   <g id="line2d_7">
    <path d="M 13.391248 101.984478 
L 19.412507 101.745304 
L 23.467645 101.368829 
L 26.539716 100.87235 
L 29.120257 100.244838 
L 31.455031 99.454098 
L 33.544041 98.519805 
L 35.510167 97.404111 
L 37.35341 96.11562 
L 39.196655 94.561012 
L 41.039898 92.711829 
L 42.88314 90.543937 
L 44.726383 88.039834 
L 46.692509 84.988913 
L 48.781519 81.32283 
L 51.116293 76.741966 
L 53.819718 70.900384 
L 57.629086 62.059215 
L 62.298636 51.311161 
L 64.633411 46.485106 
L 66.476654 43.13914 
L 68.074132 40.660319 
L 69.548726 38.77498 
L 70.777555 37.529649 
L 72.006384 36.600875 
L 73.11233 36.047498 
L 74.095393 35.786279 
L 75.078456 35.74494 
L 76.061521 35.92389 
L 77.044584 36.321347 
L 78.15053 37.02469 
L 79.256476 37.990756 
L 80.485305 39.357661 
L 81.837017 41.194027 
L 83.434494 43.769568 
L 85.277738 47.208177 
L 87.48963 51.84897 
L 90.561702 58.874164 
L 96.951612 73.617599 
L 99.532154 78.971829 
L 101.866928 83.317112 
L 103.955938 86.753417 
L 105.922064 89.583344 
L 107.88819 92.025638 
L 109.731433 93.978654 
L 111.574675 95.628457 
L 113.540801 97.08482 
L 115.506928 98.263912 
L 117.595935 99.255257 
L 119.807828 100.059632 
L 122.265483 100.715673 
L 125.091791 101.23433 
L 128.53251 101.626104 
L 132.956296 101.889926 
L 136.151252 101.984478 
L 136.151252 101.984478 
" clip-path="url(#pf0fc542f1e)" style="fill: none; stroke: #238b45; stroke-width: 1.5; stroke-linecap: square"/>
   </g>
  </g>
 </g>
 <defs>
  <clipPath id="pf0fc542f1e">
   <rect x="13.39125" y="18.92625" width="122.76" height="83.16"/>
  </clipPath>
 </defs>
</svg>
