<?xml version="1.0" encoding="utf-8" standalone="no"?>
<!DOCTYPE svg PUBLIC "-//W3C//DTD SVG 1.1//EN"
  "http://www.w3.org/Graphics/SVG/1.1/DTD/svg11.dtd">
<svg xmlns:xlink="http://www.w3.org/1999/xlink" width="479.17pt" height="123.1925pt" viewBox="0 0 479.17 123.1925" xmlns="http://www.w3.org/2000/svg" version="1.1">
 <metadata>
  <rdf:RDF xmlns:dc="http://purl.org/dc/elements/1.1/" xmlns:cc="http://creativecommons.org/ns#" xmlns:rdf="http://www.w3.org/1999/02/22-rdf-syntax-ns#">
   <cc:Work>
    <dc:type rdf:resource="http://purl.org/dc/dcmitype/StillImage"/>
    <dc:date>2022-07-31T14:15:25.894079</dc:date>
    <dc:format>image/svg+xml</dc:format>
    <dc:creator>
     <cc:Agent>
      <dc:title>Matplotlib v3.5.1, https://matplotlib.org/</dc:title>
     </cc:Agent>
    </dc:creator>
   </cc:Work>
  </rdf:RDF>
 </metadata>
 <defs>
  <style type="text/css">*{stroke-linejoin: round; stroke-linecap: butt}</style>
 </defs>
 <g id="figure_1">
  <g id="patch_1">
   <path d="M 0 123.1925 
L 479.17 123.1925 
L 479.17 0 
L 0 0 
z
" style="fill: #ffffff"/>
  </g>
  <g id="axes_1">
   <g id="patch_2">
    <path d="M 36.73 90.36 
L 151.266842 90.36 
L 151.266842 7.2 
L 36.73 7.2 
z
" style="fill: #ffffff"/>
   </g>
   <g id="matplotlib.axis_1">
    <g id="xtick_1">
     <g id="line2d_1">
      <defs>
       <path id="m4c0df21dc3" d="M 0 0 
L 0 3.5 
" style="stroke: #000000; stroke-width: 1.5"/>
      </defs>
      <g>
       <use xlink:href="#m4c0df21dc3" x="59.290287" y="90.36" style="stroke: #000000; stroke-width: 1.5"/>
      </g>
     </g>
     <g id="text_1">
      <text style="font: 8px 'Arial'; text-anchor: middle" x="59.290287" y="103.08625" transform="rotate(-0, 59.290287, 103.08625)">−2</text>
     </g>
    </g>
    <g id="xtick_2">
     <g id="line2d_2">
      <g>
       <use xlink:href="#m4c0df21dc3" x="93.998421" y="90.36" style="stroke: #000000; stroke-width: 1.5"/>
      </g>
     </g>
     <g id="text_2">
      <text style="font: 8px 'Arial'; text-anchor: middle" x="93.998421" y="103.08625" transform="rotate(-0, 93.998421, 103.08625)">0</text>
     </g>
    </g>
    <g id="xtick_3">
     <g id="line2d_3">
      <g>
       <use xlink:href="#m4c0df21dc3" x="128.706555" y="90.36" style="stroke: #000000; stroke-width: 1.5"/>
      </g>
     </g>
     <g id="text_3">
      <text style="font: 8px 'Arial'; text-anchor: middle" x="128.706555" y="103.08625" transform="rotate(-0, 128.706555, 103.08625)">2</text>
     </g>
    </g>
    <g id="text_4">
     <!-- $\theta$ -->
     <g transform="translate(91.758421 114.4025)">
      <text>
       <tspan style="font: 8px 'Arial'" x="0" y="-0.171875">θ</tspan>
      </text>
     </g>
    </g>
   </g>
   <g id="matplotlib.axis_2">
    <g id="ytick_1">
     <g id="line2d_4">
      <defs>
       <path id="m02d1ccd357" d="M 0 0 
L -3.5 0 
" style="stroke: #000000; stroke-width: 1.5"/>
      </defs>
      <g>
       <use xlink:href="#m02d1ccd357" x="36.73" y="86.58" style="stroke: #000000; stroke-width: 1.5"/>
      </g>
     </g>
     <g id="text_5">
      <text style="font: 8px 'Arial'; text-anchor: end" x="29.73" y="89.443125" transform="rotate(-0, 29.73, 89.443125)">0.0</text>
     </g>
    </g>
    <g id="ytick_2">
     <g id="line2d_5">
      <g>
       <use xlink:href="#m02d1ccd357" x="36.73" y="58.154836" style="stroke: #000000; stroke-width: 1.5"/>
      </g>
     </g>
     <g id="text_6">
      <text style="font: 8px 'Arial'; text-anchor: end" x="29.73" y="61.017961" transform="rotate(-0, 29.73, 61.017961)">0.5</text>
     </g>
    </g>
    <g id="ytick_3">
     <g id="line2d_6">
      <g>
       <use xlink:href="#m02d1ccd357" x="36.73" y="29.729672" style="stroke: #000000; stroke-width: 1.5"/>
      </g>
     </g>
     <g id="text_7">
      <text style="font: 8px 'Arial'; text-anchor: end" x="29.73" y="32.592797" transform="rotate(-0, 29.73, 32.592797)">1.0</text>
     </g>
    </g>
    <g id="text_8">
     <text style="font: 8px 'Arial'; text-anchor: middle" x="12.92625" y="48.78" transform="rotate(-90, 12.92625, 48.78)">Density</text>
    </g>
   </g>
   <g id="line2d_7">
    <path d="M 41.93622 86.58 
L 42.977463 86.58 
L 44.018706 86.58 
L 45.059953 86.58 
L 46.101196 86.58 
L 47.142439 86.58 
L 48.183682 86.58 
L 49.22493 86.58 
L 50.266173 86.58 
L 51.307416 75.209935 
L 52.348659 75.209935 
L 53.389906 75.209935 
L 54.431149 75.209935 
L 55.472392 75.209935 
L 56.513635 75.209935 
L 57.554882 75.209935 
L 58.596125 75.209935 
L 59.637368 75.209935 
L 60.678613 75.209935 
L 61.719856 75.209935 
L 62.761101 75.209935 
L 63.802344 75.209935 
L 64.843589 75.209935 
L 65.884832 75.209935 
L 66.926078 75.209935 
L 67.967321 75.209935 
L 69.008564 75.209935 
L 70.049809 75.209935 
L 71.091052 75.209935 
L 72.132297 75.209935 
L 73.17354 75.209935 
L 74.214785 75.209935 
L 75.256028 75.209935 
L 76.297273 75.209935 
L 77.338517 75.209935 
L 78.379761 75.209935 
L 79.421005 75.209935 
L 80.462249 75.209935 
L 81.503492 75.209935 
L 82.544736 75.209935 
L 83.58598 75.209935 
L 84.627225 75.209935 
L 85.668469 75.209935 
L 86.709713 75.209935 
L 87.750957 75.209935 
L 88.792201 75.209935 
L 89.833445 75.209935 
L 90.874689 75.209935 
L 91.915933 75.209935 
L 92.957177 75.209935 
L 93.998421 75.209935 
L 95.039665 75.209935 
L 96.080909 75.209935 
L 97.122153 75.209935 
L 98.163397 75.209935 
L 99.204641 75.209935 
L 100.245885 75.209935 
L 101.287129 75.209935 
L 102.328373 75.209935 
L 103.369618 75.209935 
L 104.410862 75.209935 
L 105.452106 75.209935 
L 106.49335 75.209935 
L 107.534593 75.209935 
L 108.575837 75.209935 
L 109.617081 75.209935 
L 110.658325 75.209935 
L 111.699569 75.209935 
L 112.740814 75.209935 
L 113.782057 75.209935 
L 114.823302 75.209935 
L 115.864545 75.209935 
L 116.90579 75.209935 
L 117.947033 75.209935 
L 118.988279 75.209935 
L 120.029522 75.209935 
L 121.070765 75.209935 
L 122.11201 75.209935 
L 123.153253 75.209935 
L 124.194498 75.209935 
L 125.235741 75.209935 
L 126.276986 75.209935 
L 127.318229 75.209935 
L 128.359474 75.209935 
L 129.400717 75.209935 
L 130.44196 75.209935 
L 131.483207 75.209935 
L 132.52445 75.209935 
L 133.565693 75.209935 
L 134.606936 75.209935 
L 135.648183 75.209935 
L 136.689426 75.209935 
L 137.73067 86.58 
L 138.771913 86.58 
L 139.81316 86.58 
L 140.854403 86.58 
L 141.895646 86.58 
L 142.936889 86.58 
L 143.978136 86.58 
L 145.019379 86.58 
L 146.060622 86.58 
" clip-path="url(#pbd5fef4a0d)" style="fill: none; stroke: #1f78b4; stroke-width: 1.5; stroke-linecap: square"/>
   </g>
   <g id="line2d_8">
    <path d="M 41.93622 86.58 
L 42.977463 86.58 
L 44.018706 86.58 
L 45.059953 86.58 
L 46.101196 86.58 
L 47.142439 86.58 
L 48.183682 86.58 
L 49.22493 86.58 
L 50.266173 86.58 
L 51.307416 86.58 
L 52.348659 86.58 
L 53.389906 86.58 
L 54.431149 86.58 
L 55.472392 86.58 
L 56.513635 86.58 
L 57.554882 86.58 
L 58.596125 86.58 
L 59.637368 86.58 
L 60.678613 86.58 
L 61.719856 86.58 
L 62.761101 86.58 
L 63.802344 86.58 
L 64.843589 86.58 
L 65.884832 86.58 
L 66.926078 86.58 
L 67.967321 86.579999 
L 69.008564 86.579996 
L 70.049809 86.579988 
L 71.091052 86.579965 
L 72.132297 86.579898 
L 73.17354 86.579718 
L 74.214785 86.579249 
L 75.256028 86.578078 
L 76.297273 86.575273 
L 77.338517 86.56883 
L 78.379761 86.554639 
L 79.421005 86.524676 
L 80.462249 86.464044 
L 81.503492 86.346493 
L 82.544736 86.128213 
L 83.58598 85.74016 
L 84.627225 85.080014 
L 85.668469 84.006011 
L 86.709713 82.336211 
L 87.750957 79.857527 
L 88.792201 76.348653 
L 89.833445 71.618858 
L 90.874689 65.56038 
L 91.915933 58.206483 
L 92.957177 49.781528 
L 93.998421 40.726282 
L 95.039665 31.683134 
L 96.080909 23.433569 
L 97.122153 16.792409 
L 98.163397 12.476977 
L 99.204641 10.98 
L 100.245885 12.476977 
L 101.287129 16.792396 
L 102.328373 23.433569 
L 103.369618 31.683134 
L 104.410862 40.726282 
L 105.452106 49.781528 
L 106.49335 58.206483 
L 107.534593 65.560374 
L 108.575837 71.618855 
L 109.617081 76.348649 
L 110.658325 79.857524 
L 111.699569 82.336211 
L 112.740814 84.006013 
L 113.782057 85.080013 
L 114.823302 85.74016 
L 115.864545 86.128213 
L 116.90579 86.346493 
L 117.947033 86.464044 
L 118.988279 86.524676 
L 120.029522 86.554639 
L 121.070765 86.56883 
L 122.11201 86.575273 
L 123.153253 86.578078 
L 124.194498 86.579249 
L 125.235741 86.579718 
L 126.276986 86.579898 
L 127.318229 86.579965 
L 128.359474 86.579988 
L 129.400717 86.579996 
L 130.44196 86.579999 
L 131.483207 86.58 
L 132.52445 86.58 
L 133.565693 86.58 
L 134.606936 86.58 
L 135.648183 86.58 
L 136.689426 86.58 
L 137.73067 86.58 
L 138.771913 86.58 
L 139.81316 86.58 
L 140.854403 86.58 
L 141.895646 86.58 
L 142.936889 86.58 
L 143.978136 86.58 
L 145.019379 86.58 
L 146.060622 86.58 
" clip-path="url(#pbd5fef4a0d)" style="fill: none; stroke: #fc8d59; stroke-width: 1.5; stroke-linecap: square"/>
   </g>
   <g id="line2d_9">
    <path d="M 41.93622 86.58 
L 42.977463 86.58 
L 44.018706 86.58 
L 45.059953 86.58 
L 46.101196 86.58 
L 47.142439 86.58 
L 48.183682 86.58 
L 49.22493 86.58 
L 50.266173 86.58 
L 51.307416 86.58 
L 52.348659 86.58 
L 53.389906 86.58 
L 54.431149 86.58 
L 55.472392 86.58 
L 56.513635 86.58 
L 57.554882 86.58 
L 58.596125 86.58 
L 59.637368 86.58 
L 60.678613 86.58 
L 61.719856 86.58 
L 62.761101 86.58 
L 63.802344 86.58 
L 64.843589 86.58 
L 65.884832 86.58 
L 66.926078 86.58 
L 67.967321 86.58 
L 69.008564 86.58 
L 70.049809 86.58 
L 71.091052 86.58 
L 72.132297 86.58 
L 73.17354 86.58 
L 74.214785 86.58 
L 75.256028 86.58 
L 76.297273 86.58 
L 77.338517 86.58 
L 78.379761 86.58 
L 79.421005 86.579999 
L 80.462249 86.579998 
L 81.503492 86.579994 
L 82.544736 86.579983 
L 83.58598 86.57995 
L 84.627225 86.579857 
L 85.668469 86.579608 
L 86.709713 86.578969 
L 87.750957 86.577394 
L 88.792201 86.573676 
L 89.833445 86.565254 
L 90.874689 86.546962 
L 91.915933 86.508883 
L 92.957177 86.432918 
L 93.998421 86.287736 
L 95.039665 86.02202 
L 96.080909 85.556494 
L 97.122153 84.77619 
L 98.163397 83.525648 
L 99.204641 81.610922 
L 100.245885 78.812868 
L 101.287129 74.915301 
L 102.328373 69.748801 
L 103.369618 63.246247 
L 104.410862 55.499909 
L 105.452106 46.805174 
L 106.49335 37.673964 
L 107.534593 28.804356 
L 108.575837 21.002411 
L 109.617081 15.065465 
L 110.658325 11.64902 
L 111.699569 11.147807 
L 112.740814 13.62078 
L 113.782057 18.779648 
L 114.823302 26.044258 
L 115.864545 34.649787 
L 116.90579 43.778754 
L 117.947033 52.686133 
L 118.988279 60.792226 
L 120.029522 67.728971 
L 121.070765 73.340107 
L 122.11201 77.645674 
L 123.153253 80.787477 
L 124.194498 82.971709 
L 125.235741 84.420447 
L 126.276986 85.338193 
L 127.318229 85.893923 
L 128.359474 86.215817 
L 129.400717 86.394265 
L 130.44196 86.488988 
L 131.483207 86.537152 
L 132.52445 86.560618 
L 133.565693 86.571577 
L 134.606936 86.576483 
L 135.648183 86.578589 
L 136.689426 86.579456 
L 137.73067 86.579799 
L 138.771913 86.579928 
L 139.81316 86.579975 
L 140.854403 86.579992 
L 141.895646 86.579997 
L 142.936889 86.579999 
L 143.978136 86.58 
L 145.019379 86.58 
L 146.060622 86.58 
" clip-path="url(#pbd5fef4a0d)" style="fill: none; stroke: #b30000; stroke-width: 1.5; stroke-linecap: square"/>
   </g>
   <g id="patch_3">
    <path d="M 36.73 90.36 
L 36.73 7.2 
" style="fill: none; stroke: #000000; stroke-width: 1.5; stroke-linejoin: miter; stroke-linecap: square"/>
   </g>
   <g id="patch_4">
    <path d="M 36.73 90.36 
L 151.266842 90.36 
" style="fill: none; stroke: #000000; stroke-width: 1.5; stroke-linejoin: miter; stroke-linecap: square"/>
   </g>
  </g>
  <g id="axes_2">
   <g id="patch_5">
    <path d="M 197.081579 90.36 
L 311.618421 90.36 
L 311.618421 7.2 
L 197.081579 7.2 
z
" style="fill: #ffffff"/>
   </g>
   <g id="matplotlib.axis_3">
    <g id="xtick_4">
     <g id="line2d_10">
      <g>
       <use xlink:href="#m4c0df21dc3" x="219.817159" y="90.36" style="stroke: #000000; stroke-width: 1.5"/>
      </g>
     </g>
     <g id="text_9">
      <text style="font: 8px 'Arial'; text-anchor: middle" x="219.817159" y="103.08625" transform="rotate(-0, 219.817159, 103.08625)">−2</text>
     </g>
    </g>
    <g id="xtick_5">
     <g id="line2d_11">
      <g>
       <use xlink:href="#m4c0df21dc3" x="254.87588" y="90.36" style="stroke: #000000; stroke-width: 1.5"/>
      </g>
     </g>
     <g id="text_10">
      <text style="font: 8px 'Arial'; text-anchor: middle" x="254.87588" y="103.08625" transform="rotate(-0, 254.87588, 103.08625)">0</text>
     </g>
    </g>
    <g id="xtick_6">
     <g id="line2d_12">
      <g>
       <use xlink:href="#m4c0df21dc3" x="289.934601" y="90.36" style="stroke: #000000; stroke-width: 1.5"/>
      </g>
     </g>
     <g id="text_11">
      <text style="font: 8px 'Arial'; text-anchor: middle" x="289.934601" y="103.08625" transform="rotate(-0, 289.934601, 103.08625)">2</text>
     </g>
    </g>
    <g id="text_12">
     <!-- $\theta$ -->
     <g transform="translate(252.11 114.4025)">
      <text>
       <tspan style="font: 8px 'Arial'" x="0" y="-0.171875">θ</tspan>
      </text>
     </g>
    </g>
   </g>
   <g id="matplotlib.axis_4">
    <g id="ytick_4">
     <g id="line2d_13">
      <g>
       <use xlink:href="#m02d1ccd357" x="197.081579" y="86.58" style="stroke: #000000; stroke-width: 1.5"/>
      </g>
     </g>
     <g id="text_13">
      <text style="font: 8px 'Arial'; text-anchor: end" x="190.081579" y="89.443125" transform="rotate(-0, 190.081579, 89.443125)">0.0</text>
     </g>
    </g>
    <g id="ytick_5">
     <g id="line2d_14">
      <g>
       <use xlink:href="#m02d1ccd357" x="197.081579" y="63.950903" style="stroke: #000000; stroke-width: 1.5"/>
      </g>
     </g>
     <g id="text_14">
      <text style="font: 8px 'Arial'; text-anchor: end" x="190.081579" y="66.814028" transform="rotate(-0, 190.081579, 66.814028)">0.2</text>
     </g>
    </g>
    <g id="ytick_6">
     <g id="line2d_15">
      <g>
       <use xlink:href="#m02d1ccd357" x="197.081579" y="41.321807" style="stroke: #000000; stroke-width: 1.5"/>
      </g>
     </g>
     <g id="text_15">
      <text style="font: 8px 'Arial'; text-anchor: end" x="190.081579" y="44.184932" transform="rotate(-0, 190.081579, 44.184932)">0.4</text>
     </g>
    </g>
    <g id="ytick_7">
     <g id="line2d_16">
      <g>
       <use xlink:href="#m02d1ccd357" x="197.081579" y="18.69271" style="stroke: #000000; stroke-width: 1.5"/>
      </g>
     </g>
     <g id="text_16">
      <text style="font: 8px 'Arial'; text-anchor: end" x="190.081579" y="21.555835" transform="rotate(-0, 190.081579, 21.555835)">0.6</text>
     </g>
    </g>
    <g id="text_17">
     <text style="font: 8px 'Arial'; text-anchor: middle" x="173.277829" y="48.78" transform="rotate(-90, 173.277829, 48.78)">Histogram density</text>
    </g>
   </g>
   <g id="line2d_17">
    <path d="M 202.287799 86.58 
L 203.33956 86.58 
L 204.39132 86.58 
L 205.443085 86.58 
L 206.494846 86.58 
L 207.546606 86.58 
L 208.598367 86.58 
L 209.650132 86.58 
L 210.701892 86.58 
L 211.753653 86.58 
L 212.805414 86.58 
L 213.857178 86.58 
L 214.908939 86.58 
L 215.9607 86.58 
L 217.01246 86.58 
L 218.064225 86.58 
L 219.115986 86.58 
L 220.167746 86.58 
L 221.219509 86.58 
L 222.27127 86.58 
L 223.323032 86.58 
L 224.374793 86.58 
L 225.426556 86.58 
L 226.478316 86.58 
L 227.530079 86.58 
L 228.58184 86.58 
L 229.6336 86.58 
L 230.685363 86.58 
L 231.737124 86.58 
L 232.788886 86.58 
L 233.840647 86.58 
L 234.89241 86.58 
L 235.94417 86.58 
L 236.995933 86.58 
L 238.047695 86.58 
L 239.099456 85.825697 
L 240.151218 83.902224 
L 241.20298 82.18618 
L 242.25474 77.283213 
L 243.306502 71.361933 
L 244.358264 63.140028 
L 245.410025 55.163288 
L 246.461787 44.58417 
L 247.513549 35.306215 
L 248.56531 27.687778 
L 249.617072 23.520269 
L 250.668834 20.672742 
L 251.720595 18.617291 
L 252.772357 14.129174 
L 253.824119 14.619471 
L 254.87588 15.034338 
L 255.927642 14.46861 
L 256.979404 13.110878 
L 258.031165 12.450835 
L 259.082927 11.338275 
L 260.134689 12.960008 
L 261.18645 12.733681 
L 262.238211 15.637785 
L 263.289973 10.98 
L 264.341735 14.148036 
L 265.393497 15.317206 
L 266.445259 16.674952 
L 267.49702 21.332709 
L 268.548781 22.200222 
L 269.600543 22.558516 
L 270.652304 29.083239 
L 271.704066 34.627368 
L 272.755828 44.150488 
L 273.80759 54.559798 
L 274.859351 63.290912 
L 275.911114 72.549947 
L 276.962874 78.508964 
L 278.014637 81.601594 
L 279.066398 84.203947 
L 280.11816 85.919984 
L 281.169921 86.58 
L 282.221682 86.58 
L 283.273444 86.58 
L 284.325205 86.58 
L 285.376968 86.58 
L 286.428728 86.58 
L 287.480491 86.58 
L 288.532252 86.58 
L 289.584014 86.58 
L 290.635775 86.58 
L 291.687536 86.58 
L 292.7393 86.58 
L 293.791061 86.58 
L 294.842822 86.58 
L 295.894582 86.58 
L 296.946347 86.58 
L 297.998108 86.58 
L 299.049868 86.58 
L 300.101629 86.58 
L 301.153394 86.58 
L 302.205154 86.58 
L 303.256915 86.58 
L 304.308676 86.58 
L 305.36044 86.58 
L 306.412201 86.58 
" clip-path="url(#p826c05d9f8)" style="fill: none; stroke: #9ebcda; stroke-width: 1.5; stroke-linecap: square"/>
   </g>
   <g id="line2d_18">
    <path d="M 202.287799 86.58 
L 203.33956 86.58 
L 204.39132 86.58 
L 205.443085 86.58 
L 206.494846 86.58 
L 207.546606 86.58 
L 208.598367 86.58 
L 209.650132 86.58 
L 210.701892 86.58 
L 211.753653 86.58 
L 212.805414 86.58 
L 213.857178 86.58 
L 214.908939 86.58 
L 215.9607 86.58 
L 217.01246 86.58 
L 218.064225 86.58 
L 219.115986 86.58 
L 220.167746 86.58 
L 221.219509 86.58 
L 222.27127 86.58 
L 223.323032 86.58 
L 224.374793 86.58 
L 225.426556 86.58 
L 226.478316 86.58 
L 227.530079 86.58 
L 228.58184 86.58 
L 229.6336 86.58 
L 230.685363 86.58 
L 231.737124 86.58 
L 232.788886 86.58 
L 233.840647 86.58 
L 234.89241 86.58 
L 235.94417 86.58 
L 236.995933 86.58 
L 238.047695 86.58 
L 239.099456 84.392521 
L 240.151218 77.905513 
L 241.20298 71.229915 
L 242.25474 62.159434 
L 243.306502 54.050675 
L 244.358264 44.357879 
L 245.410025 39.134353 
L 246.461787 34.005067 
L 247.513549 30.554102 
L 248.56531 30.4787 
L 249.617072 29.347259 
L 250.668834 27.668906 
L 251.720595 25.896316 
L 252.772357 24.953425 
L 253.824119 26.650608 
L 254.87588 23.840828 
L 255.927642 27.989496 
L 256.979404 24.161419 
L 258.031165 27.668906 
L 259.082927 25.255166 
L 260.134689 26.009454 
L 261.18645 25.820848 
L 262.238211 26.575181 
L 263.289973 24.25573 
L 264.341735 25.481441 
L 265.393497 26.443178 
L 266.445259 23.180817 
L 267.49702 26.537406 
L 268.548781 26.179172 
L 269.600543 27.895212 
L 270.652304 29.120954 
L 271.704066 31.044427 
L 272.755828 33.703399 
L 273.80759 40.71832 
L 274.859351 44.923648 
L 275.911114 53.05119 
L 276.962874 62.838331 
L 278.014637 70.155032 
L 279.066398 77.641516 
L 280.11816 84.166227 
L 281.169921 86.58 
L 282.221682 86.58 
L 283.273444 86.58 
L 284.325205 86.58 
L 285.376968 86.58 
L 286.428728 86.58 
L 287.480491 86.58 
L 288.532252 86.58 
L 289.584014 86.58 
L 290.635775 86.58 
L 291.687536 86.58 
L 292.7393 86.58 
L 293.791061 86.58 
L 294.842822 86.58 
L 295.894582 86.58 
L 296.946347 86.58 
L 297.998108 86.58 
L 299.049868 86.58 
L 300.101629 86.58 
L 301.153394 86.58 
L 302.205154 86.58 
L 303.256915 86.58 
L 304.308676 86.58 
L 305.36044 86.58 
L 306.412201 86.58 
" clip-path="url(#p826c05d9f8)" style="fill: none; stroke: #8c6bb1; stroke-width: 1.5; stroke-linecap: square"/>
   </g>
   <g id="line2d_19">
    <path d="M 202.287799 86.58 
L 203.33956 86.58 
L 204.39132 86.58 
L 205.443085 86.58 
L 206.494846 86.58 
L 207.546606 86.58 
L 208.598367 86.58 
L 209.650132 86.58 
L 210.701892 86.58 
L 211.753653 86.58 
L 212.805414 86.58 
L 213.857178 86.58 
L 214.908939 86.58 
L 215.9607 86.58 
L 217.01246 86.58 
L 218.064225 86.58 
L 219.115986 86.58 
L 220.167746 86.58 
L 221.219509 86.58 
L 222.27127 86.58 
L 223.323032 86.58 
L 224.374793 86.58 
L 225.426556 86.58 
L 226.478316 86.58 
L 227.530079 86.58 
L 228.58184 86.58 
L 229.6336 86.58 
L 230.685363 86.58 
L 231.737124 86.58 
L 232.788886 86.58 
L 233.840647 86.58 
L 234.89241 86.58 
L 235.94417 86.58 
L 236.995933 86.58 
L 238.047695 86.58 
L 239.099456 79.904417 
L 240.151218 63.234316 
L 241.20298 54.258076 
L 242.25474 45.432761 
L 243.306502 41.491527 
L 244.358264 37.229714 
L 245.410025 34.627393 
L 246.461787 34.665083 
L 247.513549 32.647295 
L 248.56531 34.155928 
L 249.617072 32.760481 
L 250.668834 31.911862 
L 251.720595 32.421037 
L 252.772357 34.702795 
L 253.824119 32.515315 
L 254.87588 31.987303 
L 255.927642 33.609055 
L 256.979404 35.023383 
L 258.031165 32.496448 
L 259.082927 32.571905 
L 260.134689 33.533628 
L 261.18645 33.062162 
L 262.238211 33.118761 
L 263.289973 32.383342 
L 264.341735 32.760467 
L 265.393497 32.307885 
L 266.445259 33.099904 
L 267.49702 32.062683 
L 268.548781 34.042783 
L 269.600543 34.401077 
L 270.652304 35.23081 
L 271.704066 33.175334 
L 272.755828 35.7023 
L 273.80759 34.91018 
L 274.859351 37.24862 
L 275.911114 42.472077 
L 276.962874 46.564255 
L 278.014637 51.900876 
L 279.066398 62.725185 
L 280.11816 79.093533 
L 281.169921 86.58 
L 282.221682 86.58 
L 283.273444 86.58 
L 284.325205 86.58 
L 285.376968 86.58 
L 286.428728 86.58 
L 287.480491 86.58 
L 288.532252 86.58 
L 289.584014 86.58 
L 290.635775 86.58 
L 291.687536 86.58 
L 292.7393 86.58 
L 293.791061 86.58 
L 294.842822 86.58 
L 295.894582 86.58 
L 296.946347 86.58 
L 297.998108 86.58 
L 299.049868 86.58 
L 300.101629 86.58 
L 301.153394 86.58 
L 302.205154 86.58 
L 303.256915 86.58 
L 304.308676 86.58 
L 305.36044 86.58 
L 306.412201 86.58 
" clip-path="url(#p826c05d9f8)" style="fill: none; stroke: #810f7c; stroke-width: 1.5; stroke-linecap: square"/>
   </g>
   <g id="line2d_20">
    <path d="M 202.287799 86.58 
L 203.33956 86.58 
L 204.39132 86.58 
L 205.443085 86.58 
L 206.494846 86.58 
L 207.546606 86.58 
L 208.598367 86.58 
L 209.650132 86.58 
L 210.701892 86.58 
L 211.753653 86.58 
L 212.805414 86.58 
L 213.857178 86.58 
L 214.908939 86.58 
L 215.9607 86.58 
L 217.01246 86.58 
L 218.064225 86.58 
L 219.115986 86.58 
L 220.167746 86.58 
L 221.219509 86.58 
L 222.27127 86.58 
L 223.323032 86.58 
L 224.374793 86.58 
L 225.426556 86.58 
L 226.478316 86.58 
L 227.530079 86.58 
L 228.58184 86.58 
L 229.6336 86.58 
L 230.685363 86.58 
L 231.737124 86.58 
L 232.788886 86.58 
L 233.840647 86.58 
L 234.89241 86.58 
L 235.94417 86.58 
L 236.995933 86.58 
L 238.047695 86.58 
L 239.099456 72.493388 
L 240.151218 47.356234 
L 241.20298 42.208071 
L 242.25474 39.90749 
L 243.306502 38.436599 
L 244.358264 36.927992 
L 245.410025 34.853684 
L 246.461787 36.720559 
L 247.513549 37.097686 
L 248.56531 36.814847 
L 249.617072 36.286847 
L 250.668834 38.304584 
L 251.720595 35.702256 
L 252.772357 36.663983 
L 253.824119 36.833701 
L 254.87588 35.494813 
L 255.927642 34.683937 
L 256.979404 36.720565 
L 258.031165 36.984553 
L 259.082927 36.041699 
L 260.134689 35.570247 
L 261.18645 37.53141 
L 262.238211 36.965707 
L 263.289973 37.550317 
L 264.341735 36.362265 
L 265.393497 36.701701 
L 266.445259 36.267977 
L 267.49702 35.777629 
L 268.548781 35.758822 
L 269.600543 35.438243 
L 270.652304 36.437695 
L 271.704066 35.513674 
L 272.755828 35.966306 
L 273.80759 37.531386 
L 274.859351 37.361766 
L 275.911114 38.738272 
L 276.962874 39.322952 
L 278.014637 43.245238 
L 279.066398 49.751183 
L 280.11816 73.115675 
L 281.169921 86.58 
L 282.221682 86.58 
L 283.273444 86.58 
L 284.325205 86.58 
L 285.376968 86.58 
L 286.428728 86.58 
L 287.480491 86.58 
L 288.532252 86.58 
L 289.584014 86.58 
L 290.635775 86.58 
L 291.687536 86.58 
L 292.7393 86.58 
L 293.791061 86.58 
L 294.842822 86.58 
L 295.894582 86.58 
L 296.946347 86.58 
L 297.998108 86.58 
L 299.049868 86.58 
L 300.101629 86.58 
L 301.153394 86.58 
L 302.205154 86.58 
L 303.256915 86.58 
L 304.308676 86.58 
L 305.36044 86.58 
L 306.412201 86.58 
" clip-path="url(#p826c05d9f8)" style="fill: none; stroke: #4d004b; stroke-width: 1.5; stroke-linecap: square"/>
   </g>
   <g id="patch_6">
    <path d="M 197.081579 90.36 
L 197.081579 7.2 
" style="fill: none; stroke: #000000; stroke-width: 1.5; stroke-linejoin: miter; stroke-linecap: square"/>
   </g>
   <g id="patch_7">
    <path d="M 197.081579 90.36 
L 311.618421 90.36 
" style="fill: none; stroke: #000000; stroke-width: 1.5; stroke-linejoin: miter; stroke-linecap: square"/>
   </g>
   <g id="line2d_21">
    <path d="M 202.287799 86.58 
L 203.33956 86.58 
L 204.39132 86.58 
L 205.443085 86.58 
L 206.494846 86.58 
L 207.546606 86.58 
L 208.598367 86.58 
L 209.650132 86.58 
L 210.701892 86.58 
L 211.753653 86.58 
L 212.805414 86.58 
L 213.857178 86.58 
L 214.908939 86.58 
L 215.9607 86.58 
L 217.01246 86.58 
L 218.064225 86.58 
L 219.115986 86.58 
L 220.167746 86.58 
L 221.219509 86.58 
L 222.27127 86.58 
L 223.323032 86.58 
L 224.374793 86.58 
L 225.426556 86.58 
L 226.478316 86.58 
L 227.530079 86.58 
L 228.58184 86.58 
L 229.6336 86.58 
L 230.685363 86.58 
L 231.737124 86.58 
L 232.788886 86.58 
L 233.840647 86.58 
L 234.89241 86.58 
L 235.94417 86.58 
L 236.995933 86.58 
L 238.047695 86.58 
L 239.099456 66.817256 
L 240.151218 39.549196 
L 241.20298 39.379431 
L 242.25474 36.965707 
L 243.306502 38.776035 
L 244.358264 37.908586 
L 245.410025 38.964635 
L 246.461787 37.229714 
L 247.513549 37.474838 
L 248.56531 37.248571 
L 249.617072 38.304608 
L 250.668834 37.795429 
L 251.720595 37.493726 
L 252.772357 37.512574 
L 253.824119 38.285735 
L 254.87588 37.456001 
L 255.927642 37.965156 
L 256.979404 37.682302 
L 258.031165 38.794881 
L 259.082927 37.493732 
L 260.134689 38.66289 
L 261.18645 39.718891 
L 262.238211 38.700605 
L 263.289973 38.53091 
L 264.341735 38.380026 
L 265.393497 38.323453 
L 266.445259 37.324001 
L 267.49702 38.040541 
L 268.548781 37.56915 
L 269.600543 36.626271 
L 270.652304 36.758274 
L 271.704066 37.399432 
L 272.755828 37.550341 
L 273.80759 38.191402 
L 274.859351 38.587507 
L 275.911114 37.26738 
L 276.962874 37.060045 
L 278.014637 37.889681 
L 279.066398 39.209807 
L 280.11816 66.55323 
L 281.169921 86.58 
L 282.221682 86.58 
L 283.273444 86.58 
L 284.325205 86.58 
L 285.376968 86.58 
L 286.428728 86.58 
L 287.480491 86.58 
L 288.532252 86.58 
L 289.584014 86.58 
L 290.635775 86.58 
L 291.687536 86.58 
L 292.7393 86.58 
L 293.791061 86.58 
L 294.842822 86.58 
L 295.894582 86.58 
L 296.946347 86.58 
L 297.998108 86.58 
L 299.049868 86.58 
L 300.101629 86.58 
L 301.153394 86.58 
L 302.205154 86.58 
L 303.256915 86.58 
L 304.308676 86.58 
L 305.36044 86.58 
L 306.412201 86.58 
" clip-path="url(#p826c05d9f8)" style="fill: none; stroke: #238b45; stroke-width: 1.5; stroke-linecap: square"/>
   </g>
  </g>
  <g id="axes_3">
   <g id="patch_8">
    <path d="M 357.433158 90.36 
L 471.97 90.36 
L 471.97 7.2 
L 357.433158 7.2 
z
" style="fill: #ffffff"/>
   </g>
   <g id="matplotlib.axis_5">
    <g id="xtick_7">
     <g id="line2d_22">
      <g>
       <use xlink:href="#m4c0df21dc3" x="380.168738" y="90.36" style="stroke: #000000; stroke-width: 1.5"/>
      </g>
     </g>
     <g id="text_18">
      <text style="font: 8px 'Arial'; text-anchor: middle" x="380.168738" y="103.08625" transform="rotate(-0, 380.168738, 103.08625)">−2</text>
     </g>
    </g>
    <g id="xtick_8">
     <g id="line2d_23">
      <g>
       <use xlink:href="#m4c0df21dc3" x="415.227459" y="90.36" style="stroke: #000000; stroke-width: 1.5"/>
      </g>
     </g>
     <g id="text_19">
      <text style="font: 8px 'Arial'; text-anchor: middle" x="415.227459" y="103.08625" transform="rotate(-0, 415.227459, 103.08625)">0</text>
     </g>
    </g>
    <g id="xtick_9">
     <g id="line2d_24">
      <g>
       <use xlink:href="#m4c0df21dc3" x="450.28618" y="90.36" style="stroke: #000000; stroke-width: 1.5"/>
      </g>
     </g>
     <g id="text_20">
      <text style="font: 8px 'Arial'; text-anchor: middle" x="450.28618" y="103.08625" transform="rotate(-0, 450.28618, 103.08625)">2</text>
     </g>
    </g>
    <g id="text_21">
     <!-- $\theta$ -->
     <g transform="translate(412.461579 114.4025)">
      <text>
       <tspan style="font: 8px 'Arial'" x="0" y="-0.171875">θ</tspan>
      </text>
     </g>
    </g>
   </g>
   <g id="matplotlib.axis_6">
    <g id="ytick_8">
     <g id="line2d_25">
      <g>
       <use xlink:href="#m02d1ccd357" x="357.433158" y="86.58" style="stroke: #000000; stroke-width: 1.5"/>
      </g>
     </g>
     <g id="text_22">
      <text style="font: 8px 'Arial'; text-anchor: end" x="350.433158" y="89.443125" transform="rotate(-0, 350.433158, 89.443125)">0.0</text>
     </g>
    </g>
    <g id="ytick_9">
     <g id="line2d_26">
      <g>
       <use xlink:href="#m02d1ccd357" x="357.433158" y="63.61291" style="stroke: #000000; stroke-width: 1.5"/>
      </g>
     </g>
     <g id="text_23">
      <text style="font: 8px 'Arial'; text-anchor: end" x="350.433158" y="66.476035" transform="rotate(-0, 350.433158, 66.476035)">0.2</text>
     </g>
    </g>
    <g id="ytick_10">
     <g id="line2d_27">
      <g>
       <use xlink:href="#m02d1ccd357" x="357.433158" y="40.645821" style="stroke: #000000; stroke-width: 1.5"/>
      </g>
     </g>
     <g id="text_24">
      <text style="font: 8px 'Arial'; text-anchor: end" x="350.433158" y="43.508946" transform="rotate(-0, 350.433158, 43.508946)">0.4</text>
     </g>
    </g>
    <g id="ytick_11">
     <g id="line2d_28">
      <g>
       <use xlink:href="#m02d1ccd357" x="357.433158" y="17.678731" style="stroke: #000000; stroke-width: 1.5"/>
      </g>
     </g>
     <g id="text_25">
      <text style="font: 8px 'Arial'; text-anchor: end" x="350.433158" y="20.541856" transform="rotate(-0, 350.433158, 20.541856)">0.6</text>
     </g>
    </g>
    <g id="text_26">
     <text style="font: 8px 'Arial'; text-anchor: middle" x="333.629408" y="48.78" transform="rotate(-90, 333.629408, 48.78)">Histogram density</text>
    </g>
   </g>
   <g id="line2d_29">
    <path d="M 362.639378 86.58 
L 363.691139 86.58 
L 364.742899 86.58 
L 365.794664 86.58 
L 366.846425 86.58 
L 367.898185 86.58 
L 368.949946 86.58 
L 370.001711 86.58 
L 371.053471 86.58 
L 372.105232 86.58 
L 373.156993 86.58 
L 374.208757 86.58 
L 375.260518 86.58 
L 376.312279 86.58 
L 377.364039 86.58 
L 378.415804 86.58 
L 379.467565 86.58 
L 380.519325 86.58 
L 381.571088 86.58 
L 382.622849 86.58 
L 383.674611 86.58 
L 384.726372 86.58 
L 385.778135 86.58 
L 386.829895 86.58 
L 387.881658 86.58 
L 388.933419 86.58 
L 389.985179 86.58 
L 391.036942 86.58 
L 392.088703 86.58 
L 393.140465 86.58 
L 394.192226 86.58 
L 395.243989 86.58 
L 396.295749 86.58 
L 397.347512 86.58 
L 398.399274 86.58 
L 399.451035 86.58 
L 400.502797 86.58 
L 401.554559 86.58 
L 402.606319 86.58 
L 403.658081 86.58 
L 404.709843 86.58 
L 405.761604 86.58 
L 406.813366 86.58 
L 407.865128 86.58 
L 408.916889 86.58 
L 409.968651 86.58 
L 411.020413 86.58 
L 412.072174 85.068 
L 413.123936 83.154076 
L 414.175698 80.091797 
L 415.227459 74.96248 
L 416.279221 69.4121 
L 417.330982 60.608054 
L 418.382744 48.378066 
L 419.434506 39.229531 
L 420.486268 33.219797 
L 421.538029 28.300984 
L 422.58979 20.721873 
L 423.641552 19.860641 
L 424.693314 15.649975 
L 425.745076 16.205013 
L 426.796838 13.295848 
L 427.848599 12.568483 
L 428.90036 11.649873 
L 429.952122 12.24319 
L 431.003883 10.98 
L 432.055645 11.975241 
L 433.107407 13.429895 
L 434.159169 13.1618 
L 435.21093 12.071011 
L 436.262693 11.936888 
L 437.314453 13.525592 
L 438.366216 15.094866 
L 439.417977 14.080629 
L 440.469739 18.520793 
L 441.5215 20.798365 
L 442.573261 24.722036 
L 443.625023 31.612047 
L 444.676784 36.971138 
L 445.728547 46.177023 
L 446.780307 57.31613 
L 447.83207 65.947878 
L 448.883831 73.603608 
L 449.935593 79.07741 
L 450.987354 82.96268 
L 452.039114 84.47469 
L 453.090879 86.216354 
L 454.14264 86.58 
L 455.194401 86.58 
L 456.246161 86.58 
L 457.297926 86.58 
L 458.349687 86.58 
L 459.401447 86.58 
L 460.453208 86.58 
L 461.504973 86.58 
L 462.556733 86.58 
L 463.608494 86.58 
L 464.660254 86.58 
L 465.712019 86.58 
L 466.76378 86.58 
" clip-path="url(#p7d3e76d83c)" style="fill: none; stroke: #9ebcda; stroke-width: 1.5; stroke-linecap: square"/>
   </g>
   <g id="line2d_30">
    <path d="M 362.639378 86.58 
L 363.691139 86.58 
L 364.742899 86.58 
L 365.794664 86.58 
L 366.846425 86.58 
L 367.898185 86.58 
L 368.949946 86.58 
L 370.001711 86.58 
L 371.053471 86.58 
L 372.105232 86.58 
L 373.156993 86.58 
L 374.208757 86.58 
L 375.260518 86.58 
L 376.312279 86.58 
L 377.364039 86.58 
L 378.415804 86.58 
L 379.467565 86.58 
L 380.519325 86.58 
L 381.571088 86.58 
L 382.622849 86.58 
L 383.674611 86.58 
L 384.726372 86.58 
L 385.778135 86.58 
L 386.829895 86.58 
L 387.881658 86.58 
L 388.933419 86.58 
L 389.985179 86.58 
L 391.036942 86.58 
L 392.088703 86.58 
L 393.140465 86.58 
L 394.192226 86.58 
L 395.243989 86.58 
L 396.295749 86.58 
L 397.347512 86.58 
L 398.399274 86.58 
L 399.451035 86.58 
L 400.502797 86.58 
L 401.554559 86.58 
L 402.606319 86.58 
L 403.658081 86.58 
L 404.709843 86.58 
L 405.761604 86.58 
L 406.813366 86.58 
L 407.865128 86.58 
L 408.916889 86.58 
L 409.968651 86.58 
L 411.020413 86.58 
L 412.072174 81.29757 
L 413.123936 76.053417 
L 414.175698 67.689568 
L 415.227459 59.82334 
L 416.279221 49.143643 
L 417.330982 41.10517 
L 418.382744 35.803582 
L 419.434506 31.707811 
L 420.486268 29.468506 
L 421.538029 29.181389 
L 422.58979 25.621519 
L 423.641552 26.367979 
L 424.693314 25.028203 
L 425.745076 25.123899 
L 426.796838 25.927747 
L 427.848599 25.83199 
L 428.90036 24.989924 
L 429.952122 25.870329 
L 431.003883 24.434886 
L 432.055645 23.037722 
L 433.107407 24.147859 
L 434.159169 25.717155 
L 435.21093 23.439708 
L 436.262693 26.88465 
L 437.314453 25.506744 
L 438.366216 24.415685 
L 439.417977 26.712515 
L 440.469739 24.186014 
L 441.5215 25.487484 
L 442.573261 26.750794 
L 443.625023 28.243537 
L 444.676784 30.329828 
L 445.728547 34.980556 
L 446.780307 41.239184 
L 447.83207 46.444973 
L 448.883831 56.531422 
L 449.935593 66.368942 
L 450.987354 73.565304 
L 452.039114 79.364528 
L 453.090879 85.450784 
L 454.14264 86.58 
L 455.194401 86.58 
L 456.246161 86.58 
L 457.297926 86.58 
L 458.349687 86.58 
L 459.401447 86.58 
L 460.453208 86.58 
L 461.504973 86.58 
L 462.556733 86.58 
L 463.608494 86.58 
L 464.660254 86.58 
L 465.712019 86.58 
L 466.76378 86.58 
" clip-path="url(#p7d3e76d83c)" style="fill: none; stroke: #8c6bb1; stroke-width: 1.5; stroke-linecap: square"/>
   </g>
   <g id="line2d_31">
    <path d="M 362.639378 86.58 
L 363.691139 86.58 
L 364.742899 86.58 
L 365.794664 86.58 
L 366.846425 86.58 
L 367.898185 86.58 
L 368.949946 86.58 
L 370.001711 86.58 
L 371.053471 86.58 
L 372.105232 86.58 
L 373.156993 86.58 
L 374.208757 86.58 
L 375.260518 86.58 
L 376.312279 86.58 
L 377.364039 86.58 
L 378.415804 86.58 
L 379.467565 86.58 
L 380.519325 86.58 
L 381.571088 86.58 
L 382.622849 86.58 
L 383.674611 86.58 
L 384.726372 86.58 
L 385.778135 86.58 
L 386.829895 86.58 
L 387.881658 86.58 
L 388.933419 86.58 
L 389.985179 86.58 
L 391.036942 86.58 
L 392.088703 86.58 
L 393.140465 86.58 
L 394.192226 86.58 
L 395.243989 86.58 
L 396.295749 86.58 
L 397.347512 86.58 
L 398.399274 86.58 
L 399.451035 86.58 
L 400.502797 86.58 
L 401.554559 86.58 
L 402.606319 86.58 
L 403.658081 86.58 
L 404.709843 86.58 
L 405.761604 86.58 
L 406.813366 86.58 
L 407.865128 86.58 
L 408.916889 86.58 
L 409.968651 86.58 
L 411.020413 86.58 
L 412.072174 69.316407 
L 413.123936 59.363998 
L 414.175698 51.114985 
L 415.227459 43.708099 
L 416.279221 39.995086 
L 417.330982 35.152867 
L 418.382744 34.693506 
L 419.434506 34.023659 
L 420.486268 33.104962 
L 421.538029 33.793948 
L 422.58979 33.698278 
L 423.641552 34.100229 
L 424.693314 33.277215 
L 425.745076 31.631241 
L 426.796838 32.569063 
L 427.848599 32.913516 
L 428.90036 31.267595 
L 429.952122 31.726937 
L 431.003883 32.415949 
L 432.055645 29.698177 
L 433.107407 32.224611 
L 434.159169 31.248401 
L 435.21093 31.99494 
L 436.262693 33.832201 
L 437.314453 31.229371 
L 438.366216 32.932656 
L 439.417977 31.248511 
L 440.469739 32.875238 
L 441.5215 32.913516 
L 442.573261 33.774888 
L 443.625023 31.51635 
L 444.676784 33.755749 
L 445.728547 33.793922 
L 446.780307 35.382583 
L 447.83207 36.301165 
L 448.883831 41.8325 
L 449.935593 47.746442 
L 450.987354 57.6223 
L 452.039114 66.349883 
L 453.090879 83.134933 
L 454.14264 86.58 
L 455.194401 86.58 
L 456.246161 86.58 
L 457.297926 86.58 
L 458.349687 86.58 
L 459.401447 86.58 
L 460.453208 86.58 
L 461.504973 86.58 
L 462.556733 86.58 
L 463.608494 86.58 
L 464.660254 86.58 
L 465.712019 86.58 
L 466.76378 86.58 
" clip-path="url(#p7d3e76d83c)" style="fill: none; stroke: #810f7c; stroke-width: 1.5; stroke-linecap: square"/>
   </g>
   <g id="line2d_32">
    <path d="M 362.639378 86.58 
L 363.691139 86.58 
L 364.742899 86.58 
L 365.794664 86.58 
L 366.846425 86.58 
L 367.898185 86.58 
L 368.949946 86.58 
L 370.001711 86.58 
L 371.053471 86.58 
L 372.105232 86.58 
L 373.156993 86.58 
L 374.208757 86.58 
L 375.260518 86.58 
L 376.312279 86.58 
L 377.364039 86.58 
L 378.415804 86.58 
L 379.467565 86.58 
L 380.519325 86.58 
L 381.571088 86.58 
L 382.622849 86.58 
L 383.674611 86.58 
L 384.726372 86.58 
L 385.778135 86.58 
L 386.829895 86.58 
L 387.881658 86.58 
L 388.933419 86.58 
L 389.985179 86.58 
L 391.036942 86.58 
L 392.088703 86.58 
L 393.140465 86.58 
L 394.192226 86.58 
L 395.243989 86.58 
L 396.295749 86.58 
L 397.347512 86.58 
L 398.399274 86.58 
L 399.451035 86.58 
L 400.502797 86.58 
L 401.554559 86.58 
L 402.606319 86.58 
L 403.658081 86.58 
L 404.709843 86.58 
L 405.761604 86.58 
L 406.813366 86.58 
L 407.865128 86.58 
L 408.916889 86.58 
L 409.968651 86.58 
L 411.020413 86.58 
L 412.072174 56.416561 
L 413.123936 45.851694 
L 414.175698 41.526225 
L 415.227459 37.277313 
L 416.279221 37.334731 
L 417.330982 38.215145 
L 418.382744 37.449557 
L 419.434506 35.995 
L 420.486268 33.966228 
L 421.538029 35.994962 
L 422.58979 37.640962 
L 423.641552 36.511772 
L 424.693314 34.387291 
L 425.745076 37.200759 
L 426.796838 38.042886 
L 427.848599 34.999696 
L 428.90036 33.755696 
L 429.952122 36.052405 
L 431.003883 36.43519 
L 432.055645 35.439949 
L 433.107407 35.459139 
L 434.159169 35.860962 
L 435.21093 34.999798 
L 436.262693 35.573873 
L 437.314453 34.904102 
L 438.366216 35.535595 
L 439.417977 36.645771 
L 440.469739 35.746127 
L 441.5215 35.688709 
L 442.573261 36.071594 
L 443.625023 36.416001 
L 444.676784 35.612253 
L 445.728547 36.511697 
L 446.780307 37.717568 
L 447.83207 36.932761 
L 448.883831 36.301265 
L 449.935593 39.420865 
L 450.987354 44.320515 
L 452.039114 50.330387 
L 453.090879 78.732904 
L 454.14264 86.58 
L 455.194401 86.58 
L 456.246161 86.58 
L 457.297926 86.58 
L 458.349687 86.58 
L 459.401447 86.58 
L 460.453208 86.58 
L 461.504973 86.58 
L 462.556733 86.58 
L 463.608494 86.58 
L 464.660254 86.58 
L 465.712019 86.58 
L 466.76378 86.58 
" clip-path="url(#p7d3e76d83c)" style="fill: none; stroke: #4d004b; stroke-width: 1.5; stroke-linecap: square"/>
   </g>
   <g id="patch_9">
    <path d="M 357.433158 90.36 
L 357.433158 7.2 
" style="fill: none; stroke: #000000; stroke-width: 1.5; stroke-linejoin: miter; stroke-linecap: square"/>
   </g>
   <g id="patch_10">
    <path d="M 357.433158 90.36 
L 471.97 90.36 
" style="fill: none; stroke: #000000; stroke-width: 1.5; stroke-linejoin: miter; stroke-linecap: square"/>
   </g>
   <g id="line2d_33">
    <path d="M 362.639378 86.58 
L 363.691139 86.58 
L 364.742899 86.58 
L 365.794664 86.58 
L 366.846425 86.58 
L 367.898185 86.58 
L 368.949946 86.58 
L 370.001711 86.58 
L 371.053471 86.58 
L 372.105232 86.58 
L 373.156993 86.58 
L 374.208757 86.58 
L 375.260518 86.58 
L 376.312279 86.58 
L 377.364039 86.58 
L 378.415804 86.58 
L 379.467565 86.58 
L 380.519325 86.58 
L 381.571088 86.58 
L 382.622849 86.58 
L 383.674611 86.58 
L 384.726372 86.58 
L 385.778135 86.58 
L 386.829895 86.58 
L 387.881658 86.58 
L 388.933419 86.58 
L 389.985179 86.58 
L 391.036942 86.58 
L 392.088703 86.58 
L 393.140465 86.58 
L 394.192226 86.58 
L 395.243989 86.58 
L 396.295749 86.58 
L 397.347512 86.58 
L 398.399274 86.58 
L 399.451035 86.58 
L 400.502797 86.58 
L 401.554559 86.58 
L 402.606319 86.58 
L 403.658081 86.58 
L 404.709843 86.58 
L 405.761604 86.58 
L 406.813366 86.58 
L 407.865128 86.58 
L 408.916889 86.58 
L 409.968651 86.58 
L 411.020413 86.58 
L 412.072174 42.062132 
L 413.123936 38.789313 
L 414.175698 39.88025 
L 415.227459 36.722275 
L 416.279221 37.813212 
L 417.330982 36.530892 
L 418.382744 37.085912 
L 419.434506 36.99024 
L 420.486268 37.124203 
L 421.538029 38.636179 
L 422.58979 37.889772 
L 423.641552 38.463973 
L 424.693314 39.325215 
L 425.745076 35.765316 
L 426.796838 38.904152 
L 427.848599 35.899241 
L 428.90036 37.066785 
L 429.952122 36.741418 
L 431.003883 37.985468 
L 432.055645 37.602684 
L 433.107407 39.229566 
L 434.159169 37.506939 
L 435.21093 37.373062 
L 436.262693 39.401725 
L 437.314453 38.368301 
L 438.366216 39.325168 
L 439.417977 38.88506 
L 440.469739 37.047596 
L 441.5215 37.640913 
L 442.573261 37.16253 
L 443.625023 35.095392 
L 444.676784 37.066834 
L 445.728547 38.042838 
L 446.780307 37.028556 
L 447.83207 35.803544 
L 448.883831 38.578832 
L 449.935593 38.999801 
L 450.987354 37.181571 
L 452.039114 38.808598 
L 453.090879 73.450468 
L 454.14264 86.58 
L 455.194401 86.58 
L 456.246161 86.58 
L 457.297926 86.58 
L 458.349687 86.58 
L 459.401447 86.58 
L 460.453208 86.58 
L 461.504973 86.58 
L 462.556733 86.58 
L 463.608494 86.58 
L 464.660254 86.58 
L 465.712019 86.58 
L 466.76378 86.58 
" clip-path="url(#p7d3e76d83c)" style="fill: none; stroke: #238b45; stroke-width: 1.5; stroke-linecap: square"/>
   </g>
  </g>
 </g>
 <defs>
  <clipPath id="pbd5fef4a0d">
   <rect x="36.73" y="7.2" width="114.536842" height="83.16"/>
  </clipPath>
  <clipPath id="p826c05d9f8">
   <rect x="197.081579" y="7.2" width="114.536842" height="83.16"/>
  </clipPath>
  <clipPath id="p7d3e76d83c">
   <rect x="357.433158" y="7.2" width="114.536842" height="83.16"/>
  </clipPath>
 </defs>
</svg>
