<?xml version="1.0" encoding="utf-8" standalone="no"?>
<!DOCTYPE svg PUBLIC "-//W3C//DTD SVG 1.1//EN"
  "http://www.w3.org/Graphics/SVG/1.1/DTD/svg11.dtd">
<svg xmlns:xlink="http://www.w3.org/1999/xlink" width="225.5975pt" height="81.664856pt" viewBox="0 0 225.5975 81.664856" xmlns="http://www.w3.org/2000/svg" version="1.1">
 <metadata>
  <rdf:RDF xmlns:dc="http://purl.org/dc/elements/1.1/" xmlns:cc="http://creativecommons.org/ns#" xmlns:rdf="http://www.w3.org/1999/02/22-rdf-syntax-ns#">
   <cc:Work>
    <dc:type rdf:resource="http://purl.org/dc/dcmitype/StillImage"/>
    <dc:date>2022-05-19T12:32:42.624922</dc:date>
    <dc:format>image/svg+xml</dc:format>
    <dc:creator>
     <cc:Agent>
      <dc:title>Matplotlib v3.5.1, https://matplotlib.org/</dc:title>
     </cc:Agent>
    </dc:creator>
   </cc:Work>
  </rdf:RDF>
 </metadata>
 <defs>
  <style type="text/css">*{stroke-linejoin: round; stroke-linecap: butt}</style>
 </defs>
 <g id="figure_1">
  <g id="patch_1">
   <path d="M 0 81.664856 
L 225.5975 81.664856 
L 225.5975 0 
L 0 0 
L 0 81.664856 
z
" style="fill: none"/>
  </g>
  <g id="axes_1">
   <g id="patch_2">
    <path d="M 18.64875 48.832356 
L 88.39875 48.832356 
L 88.39875 10.024356 
L 18.64875 10.024356 
L 18.64875 48.832356 
z
" style="fill: none"/>
   </g>
   <g id="matplotlib.axis_1">
    <g id="xtick_1">
     <g id="line2d_1">
      <defs>
       <path id="m6fb6f910e7" d="M 0 0 
L 0 3.5 
" style="stroke: #000000; stroke-width: 1.5"/>
      </defs>
      <g>
       <use xlink:href="#m6fb6f910e7" x="18.64875" y="48.832356" style="stroke: #000000; stroke-width: 1.5"/>
      </g>
     </g>
     <g id="text_1">
      <text style="font: 8px 'Arial'; text-anchor: middle" x="18.64875" y="61.558606" transform="rotate(-0, 18.64875, 61.558606)">1</text>
     </g>
    </g>
    <g id="xtick_2">
     <g id="line2d_2">
      <g>
       <use xlink:href="#m6fb6f910e7" x="26.39875" y="48.832356" style="stroke: #000000; stroke-width: 1.5"/>
      </g>
     </g>
     <g id="text_2">
      <text style="font: 8px 'Arial'; text-anchor: middle" x="26.39875" y="61.558606" transform="rotate(-0, 26.39875, 61.558606)">2</text>
     </g>
    </g>
    <g id="xtick_3">
     <g id="line2d_3">
      <g>
       <use xlink:href="#m6fb6f910e7" x="34.14875" y="48.832356" style="stroke: #000000; stroke-width: 1.5"/>
      </g>
     </g>
     <g id="text_3">
      <text style="font: 8px 'Arial'; text-anchor: middle" x="34.14875" y="61.558606" transform="rotate(-0, 34.14875, 61.558606)">3</text>
     </g>
    </g>
    <g id="xtick_4">
     <g id="line2d_4">
      <g>
       <use xlink:href="#m6fb6f910e7" x="41.89875" y="48.832356" style="stroke: #000000; stroke-width: 1.5"/>
      </g>
     </g>
     <g id="text_4">
      <text style="font: 8px 'Arial'; text-anchor: middle" x="41.89875" y="61.558606" transform="rotate(-0, 41.89875, 61.558606)">4</text>
     </g>
    </g>
    <g id="xtick_5">
     <g id="line2d_5">
      <g>
       <use xlink:href="#m6fb6f910e7" x="49.64875" y="48.832356" style="stroke: #000000; stroke-width: 1.5"/>
      </g>
     </g>
     <g id="text_5">
      <text style="font: 8px 'Arial'; text-anchor: middle" x="49.64875" y="61.558606" transform="rotate(-0, 49.64875, 61.558606)">5</text>
     </g>
    </g>
    <g id="xtick_6">
     <g id="line2d_6">
      <g>
       <use xlink:href="#m6fb6f910e7" x="57.39875" y="48.832356" style="stroke: #000000; stroke-width: 1.5"/>
      </g>
     </g>
     <g id="text_6">
      <text style="font: 8px 'Arial'; text-anchor: middle" x="57.39875" y="61.558606" transform="rotate(-0, 57.39875, 61.558606)">6</text>
     </g>
    </g>
    <g id="xtick_7">
     <g id="line2d_7">
      <g>
       <use xlink:href="#m6fb6f910e7" x="65.14875" y="48.832356" style="stroke: #000000; stroke-width: 1.5"/>
      </g>
     </g>
     <g id="text_7">
      <text style="font: 8px 'Arial'; text-anchor: middle" x="65.14875" y="61.558606" transform="rotate(-0, 65.14875, 61.558606)">7</text>
     </g>
    </g>
    <g id="xtick_8">
     <g id="line2d_8">
      <g>
       <use xlink:href="#m6fb6f910e7" x="72.89875" y="48.832356" style="stroke: #000000; stroke-width: 1.5"/>
      </g>
     </g>
     <g id="text_8">
      <text style="font: 8px 'Arial'; text-anchor: middle" x="72.89875" y="61.558606" transform="rotate(-0, 72.89875, 61.558606)">8</text>
     </g>
    </g>
    <g id="xtick_9">
     <g id="line2d_9">
      <g>
       <use xlink:href="#m6fb6f910e7" x="80.64875" y="48.832356" style="stroke: #000000; stroke-width: 1.5"/>
      </g>
     </g>
     <g id="text_9">
      <text style="font: 8px 'Arial'; text-anchor: middle" x="80.64875" y="61.558606" transform="rotate(-0, 80.64875, 61.558606)">9</text>
     </g>
    </g>
    <g id="xtick_10">
     <g id="line2d_10">
      <g>
       <use xlink:href="#m6fb6f910e7" x="88.39875" y="48.832356" style="stroke: #000000; stroke-width: 1.5"/>
      </g>
     </g>
     <g id="text_10">
      <text style="font: 8px 'Arial'; text-anchor: middle" x="88.39875" y="61.558606" transform="rotate(-0, 88.39875, 61.558606)">10</text>
     </g>
    </g>
    <g id="text_11">
     <text style="font: 8px 'Arial'; text-anchor: middle" x="53.52375" y="72.874856" transform="rotate(-0, 53.52375, 72.874856)">Round</text>
    </g>
   </g>
   <g id="matplotlib.axis_2">
    <g id="ytick_1">
     <g id="line2d_11">
      <defs>
       <path id="m3a241df063" d="M 0 0 
L -3.5 0 
" style="stroke: #000000; stroke-width: 1.5"/>
      </defs>
      <g>
       <use xlink:href="#m3a241df063" x="18.64875" y="48.832356" style="stroke: #000000; stroke-width: 1.5"/>
      </g>
     </g>
     <g id="text_12">
      <text style="font: 8px 'Arial'; text-anchor: end" x="11.64875" y="51.695481" transform="rotate(-0, 11.64875, 51.695481)">0</text>
     </g>
    </g>
    <g id="ytick_2">
     <g id="line2d_12">
      <g>
       <use xlink:href="#m3a241df063" x="18.64875" y="10.408593" style="stroke: #000000; stroke-width: 1.5"/>
      </g>
     </g>
     <g id="text_13">
      <text style="font: 8px 'Arial'; text-anchor: end" x="11.64875" y="13.271718" transform="rotate(-0, 11.64875, 13.271718)">1</text>
     </g>
    </g>
   </g>
   <g id="line2d_13">
    <path d="M 18.64875 10.408593 
L 26.39875 15.542201 
L 34.14875 19.476922 
L 41.89875 32.677515 
L 49.64875 34.026464 
L 57.39875 39.714044 
L 65.14875 42.358642 
L 72.89875 44.128949 
L 80.64875 44.687116 
L 88.39875 45.112402 
" clip-path="url(#pc95d84f0ba)" style="fill: none; stroke: #000000; stroke-opacity: 0.3; stroke-width: 1.5; stroke-linecap: square"/>
   </g>
   <g id="line2d_14">
    <path d="M 18.64875 10.408593 
L 26.39875 44.126234 
L 34.14875 46.308118 
L 41.89875 47.335961 
L 49.64875 47.891318 
L 57.39875 48.135095 
L 65.14875 48.300165 
L 72.89875 48.346361 
L 80.64875 48.383334 
L 88.39875 48.485089 
" clip-path="url(#pc95d84f0ba)" style="fill: none; stroke: #000000; stroke-opacity: 0.55; stroke-width: 1.5; stroke-linecap: square"/>
   </g>
   <g id="line2d_15">
    <path d="M 18.64875 10.408593 
L 26.39875 48.136791 
L 34.14875 48.442763 
L 41.89875 48.510755 
L 49.64875 48.518711 
L 57.39875 48.525929 
L 65.14875 48.531114 
L 72.89875 48.528032 
L 80.64875 48.520812 
L 88.39875 48.514347 
" clip-path="url(#pc95d84f0ba)" style="fill: none; stroke: #000000; stroke-width: 1.5; stroke-linecap: square"/>
   </g>
   <g id="patch_3">
    <path d="M 18.64875 48.832356 
L 18.64875 10.024356 
" style="fill: none; stroke: #000000; stroke-width: 1.5; stroke-linejoin: miter; stroke-linecap: square"/>
   </g>
   <g id="patch_4">
    <path d="M 18.64875 48.832356 
L 88.39875 48.832356 
" style="fill: none; stroke: #000000; stroke-width: 1.5; stroke-linejoin: miter; stroke-linecap: square"/>
   </g>
  </g>
  <g id="axes_2">
   <g id="patch_5">
    <path d="M 144.19875 48.832356 
L 213.94875 48.832356 
L 213.94875 10.024356 
L 144.19875 10.024356 
L 144.19875 48.832356 
z
" style="fill: none"/>
   </g>
   <g id="matplotlib.axis_3">
    <g id="xtick_11">
     <g id="line2d_16">
      <g>
       <use xlink:href="#m6fb6f910e7" x="144.19875" y="48.832356" style="stroke: #000000; stroke-width: 1.5"/>
      </g>
     </g>
     <g id="text_14">
      <text style="font: 8px 'Arial'; text-anchor: middle" x="144.19875" y="61.558606" transform="rotate(-0, 144.19875, 61.558606)">1</text>
     </g>
    </g>
    <g id="xtick_12">
     <g id="line2d_17">
      <g>
       <use xlink:href="#m6fb6f910e7" x="151.94875" y="48.832356" style="stroke: #000000; stroke-width: 1.5"/>
      </g>
     </g>
     <g id="text_15">
      <text style="font: 8px 'Arial'; text-anchor: middle" x="151.94875" y="61.558606" transform="rotate(-0, 151.94875, 61.558606)">2</text>
     </g>
    </g>
    <g id="xtick_13">
     <g id="line2d_18">
      <g>
       <use xlink:href="#m6fb6f910e7" x="159.69875" y="48.832356" style="stroke: #000000; stroke-width: 1.5"/>
      </g>
     </g>
     <g id="text_16">
      <text style="font: 8px 'Arial'; text-anchor: middle" x="159.69875" y="61.558606" transform="rotate(-0, 159.69875, 61.558606)">3</text>
     </g>
    </g>
    <g id="xtick_14">
     <g id="line2d_19">
      <g>
       <use xlink:href="#m6fb6f910e7" x="167.44875" y="48.832356" style="stroke: #000000; stroke-width: 1.5"/>
      </g>
     </g>
     <g id="text_17">
      <text style="font: 8px 'Arial'; text-anchor: middle" x="167.44875" y="61.558606" transform="rotate(-0, 167.44875, 61.558606)">4</text>
     </g>
    </g>
    <g id="xtick_15">
     <g id="line2d_20">
      <g>
       <use xlink:href="#m6fb6f910e7" x="175.19875" y="48.832356" style="stroke: #000000; stroke-width: 1.5"/>
      </g>
     </g>
     <g id="text_18">
      <text style="font: 8px 'Arial'; text-anchor: middle" x="175.19875" y="61.558606" transform="rotate(-0, 175.19875, 61.558606)">5</text>
     </g>
    </g>
    <g id="xtick_16">
     <g id="line2d_21">
      <g>
       <use xlink:href="#m6fb6f910e7" x="182.94875" y="48.832356" style="stroke: #000000; stroke-width: 1.5"/>
      </g>
     </g>
     <g id="text_19">
      <text style="font: 8px 'Arial'; text-anchor: middle" x="182.94875" y="61.558606" transform="rotate(-0, 182.94875, 61.558606)">6</text>
     </g>
    </g>
    <g id="xtick_17">
     <g id="line2d_22">
      <g>
       <use xlink:href="#m6fb6f910e7" x="190.69875" y="48.832356" style="stroke: #000000; stroke-width: 1.5"/>
      </g>
     </g>
     <g id="text_20">
      <text style="font: 8px 'Arial'; text-anchor: middle" x="190.69875" y="61.558606" transform="rotate(-0, 190.69875, 61.558606)">7</text>
     </g>
    </g>
    <g id="xtick_18">
     <g id="line2d_23">
      <g>
       <use xlink:href="#m6fb6f910e7" x="198.44875" y="48.832356" style="stroke: #000000; stroke-width: 1.5"/>
      </g>
     </g>
     <g id="text_21">
      <text style="font: 8px 'Arial'; text-anchor: middle" x="198.44875" y="61.558606" transform="rotate(-0, 198.44875, 61.558606)">8</text>
     </g>
    </g>
    <g id="xtick_19">
     <g id="line2d_24">
      <g>
       <use xlink:href="#m6fb6f910e7" x="206.19875" y="48.832356" style="stroke: #000000; stroke-width: 1.5"/>
      </g>
     </g>
     <g id="text_22">
      <text style="font: 8px 'Arial'; text-anchor: middle" x="206.19875" y="61.558606" transform="rotate(-0, 206.19875, 61.558606)">9</text>
     </g>
    </g>
    <g id="xtick_20">
     <g id="line2d_25">
      <g>
       <use xlink:href="#m6fb6f910e7" x="213.94875" y="48.832356" style="stroke: #000000; stroke-width: 1.5"/>
      </g>
     </g>
     <g id="text_23">
      <text style="font: 8px 'Arial'; text-anchor: middle" x="213.94875" y="61.558606" transform="rotate(-0, 213.94875, 61.558606)">10</text>
     </g>
    </g>
    <g id="text_24">
     <text style="font: 8px 'Arial'; text-anchor: middle" x="179.07375" y="72.874856" transform="rotate(-0, 179.07375, 72.874856)">Round</text>
    </g>
   </g>
   <g id="matplotlib.axis_4">
    <g id="ytick_3">
     <g id="line2d_26">
      <g>
       <use xlink:href="#m3a241df063" x="144.19875" y="48.832356" style="stroke: #000000; stroke-width: 1.5"/>
      </g>
     </g>
     <g id="text_25">
      <text style="font: 8px 'Arial'; text-anchor: end" x="137.19875" y="51.695481" transform="rotate(-0, 137.19875, 51.695481)">0.9</text>
     </g>
    </g>
    <g id="ytick_4">
     <g id="line2d_27">
      <g>
       <use xlink:href="#m3a241df063" x="144.19875" y="10.063125" style="stroke: #000000; stroke-width: 1.5"/>
      </g>
     </g>
     <g id="text_26">
      <text style="font: 8px 'Arial'; text-anchor: end" x="137.19875" y="12.92625" transform="rotate(-0, 137.19875, 12.92625)">1.0</text>
     </g>
    </g>
   </g>
   <g id="line2d_28">
    <path d="M 144.19875 10.063125 
L 151.94875 34.193094 
L 159.69875 38.197954 
L 167.44875 43.993957 
L 175.19875 41.532111 
L 182.94875 35.243741 
L 190.69875 33.188975 
L 198.44875 34.825033 
L 206.19875 31.95223 
L 213.94875 30.692236 
" clip-path="url(#p9190daa7c4)" style="fill: none; stroke: #000000; stroke-opacity: 0.3; stroke-width: 1.5; stroke-linecap: square"/>
   </g>
   <g id="line2d_29">
    <path d="M 144.19875 10.063125 
L 151.94875 29.160847 
L 159.69875 23.403622 
L 167.44875 23.682756 
L 175.19875 21.728788 
L 182.94875 21.69777 
L 190.69875 21.953648 
L 198.44875 22.383986 
L 206.19875 20.806078 
L 213.94875 20.821588 
" clip-path="url(#p9190daa7c4)" style="fill: none; stroke: #000000; stroke-opacity: 0.55; stroke-width: 1.5; stroke-linecap: square"/>
   </g>
   <g id="line2d_30">
    <path d="M 144.19875 10.063125 
L 151.94875 17.580478 
L 159.69875 16.452294 
L 167.44875 15.99482 
L 175.19875 14.773589 
L 182.94875 14.056353 
L 190.69875 13.641525 
L 198.44875 13.071615 
L 206.19875 12.571497 
L 213.94875 12.315617 
" clip-path="url(#p9190daa7c4)" style="fill: none; stroke: #000000; stroke-width: 1.5; stroke-linecap: square"/>
   </g>
   <g id="patch_6">
    <path d="M 144.19875 48.832356 
L 144.19875 10.024356 
" style="fill: none; stroke: #000000; stroke-width: 1.5; stroke-linejoin: miter; stroke-linecap: square"/>
   </g>
   <g id="patch_7">
    <path d="M 144.19875 48.832356 
L 213.94875 48.832356 
" style="fill: none; stroke: #000000; stroke-width: 1.5; stroke-linejoin: miter; stroke-linecap: square"/>
   </g>
  </g>
 </g>
 <defs>
  <clipPath id="pc95d84f0ba">
   <rect x="18.64875" y="10.024356" width="69.75" height="38.808"/>
  </clipPath>
  <clipPath id="p9190daa7c4">
   <rect x="144.19875" y="10.024356" width="69.75" height="38.808"/>
  </clipPath>
 </defs>
</svg>
