<?xml version="1.0" encoding="utf-8" standalone="no"?>
<!DOCTYPE svg PUBLIC "-//W3C//DTD SVG 1.1//EN"
  "http://www.w3.org/Graphics/SVG/1.1/DTD/svg11.dtd">
<svg xmlns:xlink="http://www.w3.org/1999/xlink" width="170.545pt" height="129.91875pt" viewBox="0 0 170.545 129.91875" xmlns="http://www.w3.org/2000/svg" version="1.1">
 <metadata>
  <rdf:RDF xmlns:dc="http://purl.org/dc/elements/1.1/" xmlns:cc="http://creativecommons.org/ns#" xmlns:rdf="http://www.w3.org/1999/02/22-rdf-syntax-ns#">
   <cc:Work>
    <dc:type rdf:resource="http://purl.org/dc/dcmitype/StillImage"/>
    <dc:date>2022-08-07T14:13:28.880776</dc:date>
    <dc:format>image/svg+xml</dc:format>
    <dc:creator>
     <cc:Agent>
      <dc:title>Matplotlib v3.5.1, https://matplotlib.org/</dc:title>
     </cc:Agent>
    </dc:creator>
   </cc:Work>
  </rdf:RDF>
 </metadata>
 <defs>
  <style type="text/css">*{stroke-linejoin: round; stroke-linecap: butt}</style>
 </defs>
 <g id="figure_1">
  <g id="patch_1">
   <path d="M 0 129.91875 
L 170.545 129.91875 
L 170.545 0 
L 0 0 
z
" style="fill: #ffffff"/>
  </g>
  <g id="axes_1">
   <g id="patch_2">
    <path d="M 36.73 102.08625 
L 159.49 102.08625 
L 159.49 18.92625 
L 36.73 18.92625 
z
" style="fill: #ffffff"/>
   </g>
   <g id="matplotlib.axis_1">
    <g id="xtick_1">
     <g id="line2d_1">
      <defs>
       <path id="m7e351b9a12" d="M 0 0 
L 0 3.5 
" style="stroke: #000000; stroke-width: 1.5"/>
      </defs>
      <g>
       <use xlink:href="#m7e351b9a12" x="38.435" y="102.08625" style="stroke: #000000; stroke-width: 1.5"/>
      </g>
     </g>
     <g id="text_1">
      <text style="font: 8px 'Arial'; text-anchor: middle" x="38.435" y="114.8125" transform="rotate(-0, 38.435, 114.8125)">−0.7</text>
     </g>
    </g>
    <g id="xtick_2">
     <g id="line2d_2">
      <g>
       <use xlink:href="#m7e351b9a12" x="157.785" y="102.08625" style="stroke: #000000; stroke-width: 1.5"/>
      </g>
     </g>
     <g id="text_2">
      <text style="font: 8px 'Arial'; text-anchor: middle" x="157.785" y="114.8125" transform="rotate(-0, 157.785, 114.8125)">0.7</text>
     </g>
    </g>
    <g id="text_3">
     <!-- $\theta$ -->
     <g transform="translate(95.87 121.12875)">
      <text>
       <tspan style="font: 8px 'Arial'" x="0" y="-0.171875">θ</tspan>
      </text>
     </g>
    </g>
   </g>
   <g id="matplotlib.axis_2">
    <g id="ytick_1">
     <g id="line2d_3">
      <defs>
       <path id="me818a38cd3" d="M 0 0 
L -3.5 0 
" style="stroke: #000000; stroke-width: 1.5"/>
      </defs>
      <g>
       <use xlink:href="#me818a38cd3" x="36.73" y="102.08625" style="stroke: #000000; stroke-width: 1.5"/>
      </g>
     </g>
     <g id="text_4">
      <text style="font: 8px 'Arial'; text-anchor: end" x="29.73" y="104.949375" transform="rotate(-0, 29.73, 104.949375)">0.0</text>
     </g>
    </g>
    <g id="ytick_2">
     <g id="line2d_4">
      <g>
       <use xlink:href="#me818a38cd3" x="36.73" y="18.92625" style="stroke: #000000; stroke-width: 1.5"/>
      </g>
     </g>
     <g id="text_5">
      <text style="font: 8px 'Arial'; text-anchor: end" x="29.73" y="21.789375" transform="rotate(-0, 29.73, 21.789375)">2.5</text>
     </g>
    </g>
    <g id="text_6">
     <text style="font: 8px 'Arial'; text-anchor: middle" x="12.92625" y="60.50625" transform="rotate(-90, 12.92625, 60.50625)">Density</text>
    </g>
   </g>
   <g id="line2d_5">
    <path d="M 36.729998 102.08625 
L 38.327476 102.08625 
L 38.450357 78.326249 
L 157.769638 78.326249 
L 157.892524 102.08625 
L 159.490002 102.08625 
L 159.490002 102.08625 
" clip-path="url(#pbd5aaf1b91)" style="fill: none; stroke: #1f77b4; stroke-width: 1.5; stroke-linecap: square"/>
   </g>
   <g id="line2d_6">
    <path d="M 36.729998 102.08625 
L 40.908017 101.989855 
L 42.751257 101.627675 
L 43.980087 101.206474 
L 45.086036 101.329577 
L 46.19198 101.452138 
L 47.297924 101.40374 
L 48.895403 101.025521 
L 49.878466 100.527762 
L 50.984415 99.89362 
L 54.425133 98.849208 
L 57.74297 97.665935 
L 60.815043 96.005017 
L 62.289638 94.839631 
L 63.641349 93.474466 
L 64.870179 91.884052 
L 66.713422 89.194611 
L 68.556664 86.100632 
L 71.014322 81.477168 
L 72.120269 79.814388 
L 73.840628 77.90244 
L 78.387295 66.711103 
L 78.878827 64.322843 
L 79.370358 63.261307 
L 79.739008 62.354802 
L 80.844953 59.564964 
L 81.705134 57.478403 
L 84.900089 46.507776 
L 85.022972 46.293583 
L 86.128918 49.264348 
L 87.357747 52.994159 
L 89.446756 46.782978 
L 89.815404 45.251906 
L 91.412882 34.93222 
L 92.027296 33.954477 
L 92.518828 33.622384 
L 92.887476 33.642322 
L 93.256125 33.89314 
L 93.747657 34.580729 
L 94.362071 35.983719 
L 95.099368 38.395676 
L 95.345134 39.357478 
L 95.468017 39.317547 
L 96.696846 36.186897 
L 97.434143 35.115206 
L 97.679909 35.066329 
L 97.925675 35.219099 
L 98.294323 35.815107 
L 98.785857 37.250578 
L 99.277388 39.334313 
L 99.76892 38.391516 
L 100.137569 38.034276 
L 100.506217 37.991818 
L 100.874866 38.268312 
L 101.243515 38.861077 
L 101.735046 40.125909 
L 102.349461 42.40963 
L 102.595226 43.034918 
L 102.963875 42.871822 
L 103.086758 42.860925 
L 103.578289 42.443328 
L 103.946938 42.344526 
L 104.315587 42.431768 
L 104.930001 42.73395 
L 105.421533 42.244579 
L 105.913064 42.085559 
L 106.281713 42.189226 
L 106.773244 42.626619 
L 107.264776 43.400554 
L 107.87919 44.819247 
L 108.616488 47.122319 
L 109.599552 50.315166 
L 109.845317 50.136351 
L 110.213966 49.887059 
L 110.582615 49.889673 
L 110.951263 50.141764 
L 111.442795 50.852673 
L 112.05721 52.298981 
L 112.794506 54.73741 
L 114.391984 61.212397 
L 117.21829 73.420038 
L 118.201353 74.141447 
L 119.430183 75.332526 
L 119.798831 75.623006 
L 120.904778 75.459148 
L 121.51919 75.724753 
L 122.133605 76.264624 
L 122.256489 76.404665 
L 125.205678 85.124864 
L 127.048921 88.1087 
L 129.13793 91.382873 
L 129.875229 92.893242 
L 131.104056 93.830496 
L 132.332884 94.506737 
L 133.807481 95.05594 
L 135.404957 95.396048 
L 136.265136 95.611575 
L 136.510903 95.723436 
L 137.493967 96.861523 
L 138.599913 97.80093 
L 139.828741 98.561489 
L 140.688923 98.9019 
L 142.77793 99.456751 
L 144.006755 99.793512 
L 145.358471 100.587577 
L 146.341529 100.894392 
L 148.92207 101.296654 
L 150.519549 101.387649 
L 152.731442 101.083628 
L 154.083153 101.504732 
L 155.55775 101.940463 
L 157.032342 102.059111 
L 159.490002 102.08625 
L 159.490002 102.08625 
" clip-path="url(#pbd5aaf1b91)" style="fill: none; stroke: #810f7c; stroke-width: 1.5; stroke-linecap: square"/>
   </g>
   <g id="patch_3">
    <path d="M 36.73 102.08625 
L 36.73 18.92625 
" style="fill: none; stroke: #000000; stroke-width: 1.5; stroke-linejoin: miter; stroke-linecap: square"/>
   </g>
   <g id="patch_4">
    <path d="M 36.73 102.08625 
L 159.49 102.08625 
" style="fill: none; stroke: #000000; stroke-width: 1.5; stroke-linejoin: miter; stroke-linecap: square"/>
   </g>
   <g id="text_7">
    <text style="font: 8px 'Arial'; text-anchor: middle" x="98.11" y="12.92625" transform="rotate(-0, 98.11, 12.92625)">Round 1</text>
   </g>
   <g id="legend_1">
    <g id="line2d_7">
     <path d="M 43.93 29.0525 
L 46.73 29.0525 
L 49.53 29.0525 
" style="fill: none; stroke: #1f77b4; stroke-width: 1.5; stroke-linecap: square"/>
    </g>
    <g id="text_8">
     <text style="font: 8px 'Arial'; text-anchor: start" x="52.73" y="31.8525" transform="rotate(-0, 52.73, 31.8525)">Proposal</text>
    </g>
    <g id="line2d_8">
     <path d="M 43.93 40.4825 
L 46.73 40.4825 
L 49.53 40.4825 
" style="fill: none; stroke: #238b45; stroke-width: 1.5; stroke-linecap: square"/>
    </g>
    <g id="text_9">
     <!-- $p(\theta | x)$ -->
     <g transform="translate(52.73 43.2825)">
      <text>
       <tspan style="font: 8px 'Arial'" x="0 4.449219 7.113281 11.5625 13.640625 17.640625" y="-0.171875">p(θ|x)</tspan>
      </text>
     </g>
    </g>
    <g id="line2d_9">
     <path d="M 43.93 52.0825 
L 46.73 52.0825 
L 49.53 52.0825 
" style="fill: none; stroke: #810f7c; stroke-width: 1.5; stroke-linecap: square"/>
    </g>
    <g id="text_10">
     <!-- $q(\theta | x)$ -->
     <g transform="translate(52.73 54.8825)">
      <text>
       <tspan style="font: 8px 'Arial'" x="0 4.449219 7.113281 11.5625 13.640625 17.640625" y="-0.171875">q(θ|x)</tspan>
      </text>
     </g>
    </g>
   </g>
   <g id="line2d_10">
    <path d="M 36.729998 101.984478 
L 42.751257 101.745304 
L 46.806395 101.368829 
L 49.878466 100.87235 
L 52.459007 100.244838 
L 54.793781 99.454098 
L 56.882791 98.519805 
L 58.848917 97.404111 
L 60.69216 96.11562 
L 62.535405 94.561012 
L 64.378648 92.711829 
L 66.22189 90.543937 
L 68.065133 88.039834 
L 70.031259 84.988913 
L 72.120269 81.32283 
L 74.455043 76.741966 
L 77.158468 70.900384 
L 80.967836 62.059215 
L 85.637386 51.311161 
L 87.972161 46.485106 
L 89.815404 43.13914 
L 91.412882 40.660319 
L 92.887476 38.77498 
L 94.116305 37.529649 
L 95.345134 36.600875 
L 96.45108 36.047498 
L 97.434143 35.786279 
L 98.417206 35.74494 
L 99.400271 35.92389 
L 100.383334 36.321347 
L 101.48928 37.02469 
L 102.595226 37.990756 
L 103.824055 39.357661 
L 105.175767 41.194027 
L 106.773244 43.769568 
L 108.616488 47.208177 
L 110.82838 51.84897 
L 113.900452 58.874164 
L 120.290362 73.617599 
L 122.870904 78.971829 
L 125.205678 83.317112 
L 127.294688 86.753417 
L 129.260814 89.583344 
L 131.22694 92.025638 
L 133.070183 93.978654 
L 134.913425 95.628457 
L 136.879551 97.08482 
L 138.845678 98.263912 
L 140.934685 99.255257 
L 143.146578 100.059632 
L 145.604233 100.715673 
L 148.430541 101.23433 
L 151.87126 101.626104 
L 156.295046 101.889926 
L 159.490002 101.984478 
L 159.490002 101.984478 
" clip-path="url(#pbd5aaf1b91)" style="fill: none; stroke: #238b45; stroke-width: 1.5; stroke-linecap: square"/>
   </g>
  </g>
 </g>
 <defs>
  <clipPath id="pbd5aaf1b91">
   <rect x="36.73" y="18.92625" width="122.76" height="83.16"/>
  </clipPath>
 </defs>
</svg>
