<?xml version="1.0" encoding="utf-8" standalone="no"?>
<!DOCTYPE svg PUBLIC "-//W3C//DTD SVG 1.1//EN"
  "http://www.w3.org/Graphics/SVG/1.1/DTD/svg11.dtd">
<svg xmlns:xlink="http://www.w3.org/1999/xlink" width="45.09pt" height="42.12pt" viewBox="0 0 45.09 42.12" xmlns="http://www.w3.org/2000/svg" version="1.1">
 <metadata>
  <rdf:RDF xmlns:dc="http://purl.org/dc/elements/1.1/" xmlns:cc="http://creativecommons.org/ns#" xmlns:rdf="http://www.w3.org/1999/02/22-rdf-syntax-ns#">
   <cc:Work>
    <dc:type rdf:resource="http://purl.org/dc/dcmitype/StillImage"/>
    <dc:date>2022-08-07T14:44:31.364005</dc:date>
    <dc:format>image/svg+xml</dc:format>
    <dc:creator>
     <cc:Agent>
      <dc:title>Matplotlib v3.5.1, https://matplotlib.org/</dc:title>
     </cc:Agent>
    </dc:creator>
   </cc:Work>
  </rdf:RDF>
 </metadata>
 <defs>
  <style type="text/css">*{stroke-linejoin: round; stroke-linecap: butt}</style>
 </defs>
 <g id="figure_1">
  <g id="patch_1">
   <path d="M 0 42.12 
L 45.09 42.12 
L 45.09 0 
L 0 0 
z
" style="fill: #ffffff"/>
  </g>
  <g id="axes_1">
   <g id="patch_2">
    <path d="M 7.2 34.92 
L 37.89 34.92 
L 37.89 7.2 
L 7.2 7.2 
z
" style="fill: #ffffff"/>
   </g>
   <g id="matplotlib.axis_1"/>
   <g id="matplotlib.axis_2"/>
   <g id="line2d_1">
    <path d="M 8.595 9.597845 
L 9.740046 12.308081 
L 10.940943 14.581378 
L 12.225628 16.536193 
L 13.622024 18.254382 
L 13.901307 18.726543 
L 14.37608 19.386564 
L 16.358964 20.241918 
L 18.146352 21.252627 
L 19.710317 22.393427 
L 21.078783 23.668006 
L 21.441846 24.198312 
L 21.88869 25.080715 
L 22.698606 27.48517 
L 23.536444 29.30118 
L 23.787793 29.561203 
L 29.205814 32.250086 
L 31.188697 32.825427 
L 33.67428 33.303497 
L 36.495 33.66 
L 36.495 33.66 
" clip-path="url(#p42d144707b)" style="fill: none; stroke: #810f7c; stroke-width: 1.5; stroke-linecap: square"/>
   </g>
   <g id="line2d_2">
    <path d="M 8.595 8.46 
L 10.773382 12.339599 
L 12.92383 15.723556 
L 15.046349 18.658146 
L 17.168875 21.220714 
L 19.319324 23.470113 
L 21.497705 25.426737 
L 23.704013 27.112924 
L 25.994105 28.585133 
L 28.395898 29.864 
L 30.937339 30.964022 
L 33.67428 31.904427 
L 36.495 32.65616 
L 36.495 32.65616 
" clip-path="url(#p42d144707b)" style="fill: none; stroke: #238b45; stroke-width: 1.5; stroke-linecap: square"/>
   </g>
  </g>
 </g>
 <defs>
  <clipPath id="p42d144707b">
   <rect x="7.2" y="7.2" width="30.69" height="27.72"/>
  </clipPath>
 </defs>
</svg>
