<?xml version="1.0" encoding="utf-8" standalone="no"?>
<!DOCTYPE svg PUBLIC "-//W3C//DTD SVG 1.1//EN"
  "http://www.w3.org/Graphics/SVG/1.1/DTD/svg11.dtd">
<svg xmlns:xlink="http://www.w3.org/1999/xlink" width="482.444079pt" height="112.88375pt" viewBox="0 0 482.444079 112.88375" xmlns="http://www.w3.org/2000/svg" version="1.1">
 <metadata>
  <rdf:RDF xmlns:dc="http://purl.org/dc/elements/1.1/" xmlns:cc="http://creativecommons.org/ns#" xmlns:rdf="http://www.w3.org/1999/02/22-rdf-syntax-ns#">
   <cc:Work>
    <dc:type rdf:resource="http://purl.org/dc/dcmitype/StillImage"/>
    <dc:date>2022-07-31T14:15:29.349483</dc:date>
    <dc:format>image/svg+xml</dc:format>
    <dc:creator>
     <cc:Agent>
      <dc:title>Matplotlib v3.5.1, https://matplotlib.org/</dc:title>
     </cc:Agent>
    </dc:creator>
   </cc:Work>
  </rdf:RDF>
 </metadata>
 <defs>
  <style type="text/css">*{stroke-linejoin: round; stroke-linecap: butt}</style>
 </defs>
 <g id="figure_1">
  <g id="patch_1">
   <path d="M 0 112.88375 
L 482.444079 112.88375 
L 482.444079 0 
L 0 0 
z
" style="fill: #ffffff"/>
  </g>
  <g id="axes_1">
   <g id="patch_2">
    <path d="M 36.73 102.18375 
L 151.266842 102.18375 
L 151.266842 19.02375 
L 36.73 19.02375 
z
" style="fill: #ffffff"/>
   </g>
   <g id="matplotlib.axis_1">
    <g id="xtick_1">
     <g id="line2d_1">
      <defs>
       <path id="md518c7ea69" d="M 0 0 
L 0 3.5 
" style="stroke: #000000; stroke-width: 1.5"/>
      </defs>
      <g>
       <use xlink:href="#md518c7ea69" x="59.290287" y="102.18375" style="stroke: #000000; stroke-width: 1.5"/>
      </g>
     </g>
    </g>
    <g id="xtick_2">
     <g id="line2d_2">
      <g>
       <use xlink:href="#md518c7ea69" x="93.998421" y="102.18375" style="stroke: #000000; stroke-width: 1.5"/>
      </g>
     </g>
    </g>
    <g id="xtick_3">
     <g id="line2d_3">
      <g>
       <use xlink:href="#md518c7ea69" x="128.706555" y="102.18375" style="stroke: #000000; stroke-width: 1.5"/>
      </g>
     </g>
    </g>
   </g>
   <g id="matplotlib.axis_2">
    <g id="ytick_1">
     <g id="line2d_4">
      <defs>
       <path id="m9901be19f1" d="M 0 0 
L -3.5 0 
" style="stroke: #000000; stroke-width: 1.5"/>
      </defs>
      <g>
       <use xlink:href="#m9901be19f1" x="36.73" y="98.40375" style="stroke: #000000; stroke-width: 1.5"/>
      </g>
     </g>
     <g id="text_1">
      <text style="font: 8px 'Arial'; text-anchor: end" x="29.73" y="101.266875" transform="rotate(-0, 29.73, 101.266875)">0.0</text>
     </g>
    </g>
    <g id="ytick_2">
     <g id="line2d_5">
      <g>
       <use xlink:href="#m9901be19f1" x="36.73" y="69.978586" style="stroke: #000000; stroke-width: 1.5"/>
      </g>
     </g>
     <g id="text_2">
      <text style="font: 8px 'Arial'; text-anchor: end" x="29.73" y="72.841711" transform="rotate(-0, 29.73, 72.841711)">0.5</text>
     </g>
    </g>
    <g id="ytick_3">
     <g id="line2d_6">
      <g>
       <use xlink:href="#m9901be19f1" x="36.73" y="41.553422" style="stroke: #000000; stroke-width: 1.5"/>
      </g>
     </g>
     <g id="text_3">
      <text style="font: 8px 'Arial'; text-anchor: end" x="29.73" y="44.416547" transform="rotate(-0, 29.73, 44.416547)">1.0</text>
     </g>
    </g>
    <g id="text_4">
     <text style="font: 8px 'Arial'; text-anchor: middle" x="12.92625" y="60.60375" transform="rotate(-90, 12.92625, 60.60375)">Density</text>
    </g>
   </g>
   <g id="line2d_7">
    <path d="M 41.93622 98.151798 
L 42.977463 98.102651 
L 44.018706 98.045211 
L 45.059953 97.978346 
L 46.101196 97.900826 
L 47.142439 97.811316 
L 48.183682 97.708384 
L 49.22493 97.5905 
L 50.266173 97.456049 
L 51.307416 97.303339 
L 52.348659 97.130614 
L 53.389906 96.936069 
L 54.431149 96.717877 
L 55.472392 96.474207 
L 56.513635 96.203253 
L 57.554882 95.903267 
L 58.596125 95.572598 
L 59.637368 95.20972 
L 60.678613 94.813278 
L 61.719856 94.382135 
L 62.761101 93.915408 
L 63.802344 93.412515 
L 64.843589 92.873221 
L 65.884832 92.297679 
L 66.926078 91.686468 
L 67.967321 91.040633 
L 69.008564 90.361705 
L 70.049809 89.65174 
L 71.091052 88.913326 
L 72.132297 88.14959 
L 73.17354 87.36421 
L 74.214785 86.561383 
L 75.256028 85.745827 
L 76.297273 84.922719 
L 77.338517 84.097687 
L 78.379761 83.276715 
L 79.421005 82.466113 
L 80.462249 81.672411 
L 81.503492 80.902304 
L 82.544736 80.162537 
L 83.58598 79.459821 
L 84.627225 78.800734 
L 85.668469 78.191609 
L 86.709713 77.638447 
L 87.750957 77.14681 
L 88.792201 76.721727 
L 89.833445 76.367619 
L 90.874689 76.088206 
L 91.915933 75.886459 
L 92.957177 75.764538 
L 93.998421 75.72375 
L 95.039665 75.764538 
L 96.080909 75.886459 
L 97.122153 76.088206 
L 98.163397 76.367619 
L 99.204641 76.721727 
L 100.245885 77.14681 
L 101.287129 77.638447 
L 102.328373 78.191609 
L 103.369618 78.800734 
L 104.410862 79.459821 
L 105.452106 80.162537 
L 106.49335 80.902304 
L 107.534593 81.672411 
L 108.575837 82.466113 
L 109.617081 83.276715 
L 110.658325 84.097687 
L 111.699569 84.922719 
L 112.740814 85.745827 
L 113.782057 86.561383 
L 114.823302 87.36421 
L 115.864545 88.14959 
L 116.90579 88.913326 
L 117.947033 89.65174 
L 118.988279 90.361705 
L 120.029522 91.040633 
L 121.070765 91.686468 
L 122.11201 92.297679 
L 123.153253 92.873221 
L 124.194498 93.412515 
L 125.235741 93.915408 
L 126.276986 94.382135 
L 127.318229 94.813278 
L 128.359474 95.20972 
L 129.400717 95.572598 
L 130.44196 95.903267 
L 131.483207 96.203253 
L 132.52445 96.474207 
L 133.565693 96.717877 
L 134.606936 96.936069 
L 135.648183 97.130614 
L 136.689426 97.303339 
L 137.73067 97.456049 
L 138.771913 97.5905 
L 139.81316 97.708384 
L 140.854403 97.811316 
L 141.895646 97.900826 
L 142.936889 97.978346 
L 143.978136 98.045211 
L 145.019379 98.102651 
L 146.060622 98.151798 
" clip-path="url(#p8d8ccad756)" style="fill: none; stroke: #1f78b4; stroke-width: 1.5; stroke-linecap: square"/>
   </g>
   <g id="line2d_8">
    <path d="M 41.93622 98.40375 
L 42.977463 98.40375 
L 44.018706 98.40375 
L 45.059953 98.40375 
L 46.101196 98.40375 
L 47.142439 98.40375 
L 48.183682 98.40375 
L 49.22493 98.40375 
L 50.266173 98.40375 
L 51.307416 98.40375 
L 52.348659 98.40375 
L 53.389906 98.40375 
L 54.431149 98.40375 
L 55.472392 98.40375 
L 56.513635 98.40375 
L 57.554882 98.40375 
L 58.596125 98.40375 
L 59.637368 98.40375 
L 60.678613 98.40375 
L 61.719856 98.40375 
L 62.761101 98.40375 
L 63.802344 98.40375 
L 64.843589 98.40375 
L 65.884832 98.40375 
L 66.926078 98.40375 
L 67.967321 98.403749 
L 69.008564 98.403746 
L 70.049809 98.403738 
L 71.091052 98.403715 
L 72.132297 98.403648 
L 73.17354 98.403468 
L 74.214785 98.402999 
L 75.256028 98.401828 
L 76.297273 98.399023 
L 77.338517 98.39258 
L 78.379761 98.378389 
L 79.421005 98.348426 
L 80.462249 98.287794 
L 81.503492 98.170243 
L 82.544736 97.951963 
L 83.58598 97.56391 
L 84.627225 96.903764 
L 85.668469 95.829761 
L 86.709713 94.159961 
L 87.750957 91.681277 
L 88.792201 88.172403 
L 89.833445 83.442608 
L 90.874689 77.38413 
L 91.915933 70.030233 
L 92.957177 61.605278 
L 93.998421 52.550032 
L 95.039665 43.506884 
L 96.080909 35.257319 
L 97.122153 28.616159 
L 98.163397 24.300727 
L 99.204641 22.80375 
L 100.245885 24.300727 
L 101.287129 28.616146 
L 102.328373 35.257319 
L 103.369618 43.506884 
L 104.410862 52.550032 
L 105.452106 61.605278 
L 106.49335 70.030233 
L 107.534593 77.384124 
L 108.575837 83.442605 
L 109.617081 88.172399 
L 110.658325 91.681274 
L 111.699569 94.159961 
L 112.740814 95.829763 
L 113.782057 96.903763 
L 114.823302 97.56391 
L 115.864545 97.951963 
L 116.90579 98.170243 
L 117.947033 98.287794 
L 118.988279 98.348426 
L 120.029522 98.378389 
L 121.070765 98.39258 
L 122.11201 98.399023 
L 123.153253 98.401828 
L 124.194498 98.402999 
L 125.235741 98.403468 
L 126.276986 98.403648 
L 127.318229 98.403715 
L 128.359474 98.403738 
L 129.400717 98.403746 
L 130.44196 98.403749 
L 131.483207 98.40375 
L 132.52445 98.40375 
L 133.565693 98.40375 
L 134.606936 98.40375 
L 135.648183 98.40375 
L 136.689426 98.40375 
L 137.73067 98.40375 
L 138.771913 98.40375 
L 139.81316 98.40375 
L 140.854403 98.40375 
L 141.895646 98.40375 
L 142.936889 98.40375 
L 143.978136 98.40375 
L 145.019379 98.40375 
L 146.060622 98.40375 
" clip-path="url(#p8d8ccad756)" style="fill: none; stroke: #fc8d59; stroke-width: 1.5; stroke-linecap: square"/>
   </g>
   <g id="line2d_9">
    <path d="M 41.93622 98.40375 
L 42.977463 98.40375 
L 44.018706 98.40375 
L 45.059953 98.40375 
L 46.101196 98.40375 
L 47.142439 98.40375 
L 48.183682 98.40375 
L 49.22493 98.40375 
L 50.266173 98.40375 
L 51.307416 98.40375 
L 52.348659 98.40375 
L 53.389906 98.40375 
L 54.431149 98.40375 
L 55.472392 98.40375 
L 56.513635 98.40375 
L 57.554882 98.40375 
L 58.596125 98.40375 
L 59.637368 98.40375 
L 60.678613 98.40375 
L 61.719856 98.40375 
L 62.761101 98.40375 
L 63.802344 98.40375 
L 64.843589 98.40375 
L 65.884832 98.40375 
L 66.926078 98.40375 
L 67.967321 98.40375 
L 69.008564 98.40375 
L 70.049809 98.40375 
L 71.091052 98.40375 
L 72.132297 98.40375 
L 73.17354 98.40375 
L 74.214785 98.40375 
L 75.256028 98.40375 
L 76.297273 98.40375 
L 77.338517 98.40375 
L 78.379761 98.40375 
L 79.421005 98.403749 
L 80.462249 98.403748 
L 81.503492 98.403744 
L 82.544736 98.403733 
L 83.58598 98.4037 
L 84.627225 98.403607 
L 85.668469 98.403358 
L 86.709713 98.402719 
L 87.750957 98.401144 
L 88.792201 98.397426 
L 89.833445 98.389004 
L 90.874689 98.370712 
L 91.915933 98.332633 
L 92.957177 98.256668 
L 93.998421 98.111486 
L 95.039665 97.84577 
L 96.080909 97.380244 
L 97.122153 96.59994 
L 98.163397 95.349398 
L 99.204641 93.434672 
L 100.245885 90.636618 
L 101.287129 86.739051 
L 102.328373 81.572551 
L 103.369618 75.069997 
L 104.410862 67.323659 
L 105.452106 58.628924 
L 106.49335 49.497714 
L 107.534593 40.628106 
L 108.575837 32.826161 
L 109.617081 26.889215 
L 110.658325 23.47277 
L 111.699569 22.971557 
L 112.740814 25.44453 
L 113.782057 30.603398 
L 114.823302 37.868008 
L 115.864545 46.473537 
L 116.90579 55.602504 
L 117.947033 64.509883 
L 118.988279 72.615976 
L 120.029522 79.552721 
L 121.070765 85.163857 
L 122.11201 89.469424 
L 123.153253 92.611227 
L 124.194498 94.795459 
L 125.235741 96.244197 
L 126.276986 97.161943 
L 127.318229 97.717673 
L 128.359474 98.039567 
L 129.400717 98.218015 
L 130.44196 98.312738 
L 131.483207 98.360902 
L 132.52445 98.384368 
L 133.565693 98.395327 
L 134.606936 98.400233 
L 135.648183 98.402339 
L 136.689426 98.403206 
L 137.73067 98.403549 
L 138.771913 98.403678 
L 139.81316 98.403725 
L 140.854403 98.403742 
L 141.895646 98.403747 
L 142.936889 98.403749 
L 143.978136 98.40375 
L 145.019379 98.40375 
L 146.060622 98.40375 
" clip-path="url(#p8d8ccad756)" style="fill: none; stroke: #b30000; stroke-width: 1.5; stroke-linecap: square"/>
   </g>
   <g id="patch_3">
    <path d="M 36.73 102.18375 
L 36.73 19.02375 
" style="fill: none; stroke: #000000; stroke-width: 1.5; stroke-linejoin: miter; stroke-linecap: square"/>
   </g>
   <g id="patch_4">
    <path d="M 36.73 102.18375 
L 151.266842 102.18375 
" style="fill: none; stroke: #000000; stroke-width: 1.5; stroke-linejoin: miter; stroke-linecap: square"/>
   </g>
   <g id="text_5">
    <text style="font: 8px 'Arial'; text-anchor: middle" x="93.998421" y="13.02375" transform="rotate(-0, 93.998421, 13.02375)">Problem setup</text>
   </g>
   <g id="legend_1">
    <g id="line2d_10">
     <path d="M 43.93 29.15 
L 45.53 29.15 
L 47.13 29.15 
" style="fill: none; stroke: #1f78b4; stroke-width: 1.5; stroke-linecap: square"/>
    </g>
    <g id="text_6">
     <text style="font: 8px 'Arial'; text-anchor: start" x="48.33" y="31.95" transform="rotate(-0, 48.33, 31.95)">Prior</text>
    </g>
    <g id="line2d_11">
     <path d="M 43.93 40.46625 
L 45.53 40.46625 
L 47.13 40.46625 
" style="fill: none; stroke: #fc8d59; stroke-width: 1.5; stroke-linecap: square"/>
    </g>
    <g id="text_7">
     <text style="font: 8px 'Arial'; text-anchor: start" x="48.33" y="43.26625" transform="rotate(-0, 48.33, 43.26625)">Posterior A</text>
    </g>
    <g id="line2d_12">
     <path d="M 43.93 51.7825 
L 45.53 51.7825 
L 47.13 51.7825 
" style="fill: none; stroke: #b30000; stroke-width: 1.5; stroke-linecap: square"/>
    </g>
    <g id="text_8">
     <text style="font: 8px 'Arial'; text-anchor: start" x="48.33" y="54.5825" transform="rotate(-0, 48.33, 54.5825)">Posterior B</text>
    </g>
   </g>
  </g>
  <g id="axes_2">
   <g id="patch_5">
    <path d="M 197.081579 102.18375 
L 311.618421 102.18375 
L 311.618421 19.02375 
L 197.081579 19.02375 
z
" style="fill: #ffffff"/>
   </g>
   <g id="matplotlib.axis_3">
    <g id="xtick_4">
     <g id="line2d_13">
      <g>
       <use xlink:href="#md518c7ea69" x="219.817159" y="102.18375" style="stroke: #000000; stroke-width: 1.5"/>
      </g>
     </g>
    </g>
    <g id="xtick_5">
     <g id="line2d_14">
      <g>
       <use xlink:href="#md518c7ea69" x="254.87588" y="102.18375" style="stroke: #000000; stroke-width: 1.5"/>
      </g>
     </g>
    </g>
    <g id="xtick_6">
     <g id="line2d_15">
      <g>
       <use xlink:href="#md518c7ea69" x="289.934601" y="102.18375" style="stroke: #000000; stroke-width: 1.5"/>
      </g>
     </g>
    </g>
   </g>
   <g id="matplotlib.axis_4">
    <g id="ytick_4">
     <g id="line2d_16">
      <g>
       <use xlink:href="#m9901be19f1" x="197.081579" y="98.40375" style="stroke: #000000; stroke-width: 1.5"/>
      </g>
     </g>
     <g id="text_9">
      <text style="font: 8px 'Arial'; text-anchor: end" x="190.081579" y="101.266875" transform="rotate(-0, 190.081579, 101.266875)">0.0</text>
     </g>
    </g>
    <g id="ytick_5">
     <g id="line2d_17">
      <g>
       <use xlink:href="#m9901be19f1" x="197.081579" y="77.620249" style="stroke: #000000; stroke-width: 1.5"/>
      </g>
     </g>
     <g id="text_10">
      <text style="font: 8px 'Arial'; text-anchor: end" x="190.081579" y="80.483374" transform="rotate(-0, 190.081579, 80.483374)">0.2</text>
     </g>
    </g>
    <g id="ytick_6">
     <g id="line2d_18">
      <g>
       <use xlink:href="#m9901be19f1" x="197.081579" y="56.836748" style="stroke: #000000; stroke-width: 1.5"/>
      </g>
     </g>
     <g id="text_11">
      <text style="font: 8px 'Arial'; text-anchor: end" x="190.081579" y="59.699873" transform="rotate(-0, 190.081579, 59.699873)">0.4</text>
     </g>
    </g>
    <g id="ytick_7">
     <g id="line2d_19">
      <g>
       <use xlink:href="#m9901be19f1" x="197.081579" y="36.053248" style="stroke: #000000; stroke-width: 1.5"/>
      </g>
     </g>
     <g id="text_12">
      <text style="font: 8px 'Arial'; text-anchor: end" x="190.081579" y="38.916373" transform="rotate(-0, 190.081579, 38.916373)">0.6</text>
     </g>
    </g>
    <g id="text_13">
     <text style="font: 8px 'Arial'; text-anchor: middle" x="173.277829" y="60.60375" transform="rotate(-90, 173.277829, 60.60375)">Histogram density</text>
    </g>
   </g>
   <g id="line2d_20">
    <path d="M 202.287799 98.40375 
L 203.33956 98.40375 
L 204.39132 98.40375 
L 205.443085 98.40375 
L 206.494846 98.40375 
L 207.546606 98.40375 
L 208.598367 98.40375 
L 209.650132 98.40375 
L 210.701892 98.40375 
L 211.753653 98.40375 
L 212.805414 98.40375 
L 213.857178 98.40375 
L 214.908939 98.40375 
L 215.9607 98.40375 
L 217.01246 98.40375 
L 218.064225 98.40375 
L 219.115986 98.40375 
L 220.167746 98.40375 
L 221.219509 98.40375 
L 222.27127 98.40375 
L 223.323032 98.40375 
L 224.374793 98.40375 
L 225.426556 98.40375 
L 226.478316 98.40375 
L 227.530079 98.40375 
L 228.58184 98.40375 
L 229.6336 98.40375 
L 230.685363 98.40375 
L 231.737124 98.40375 
L 232.788886 98.40375 
L 233.840647 98.40375 
L 234.89241 98.40375 
L 235.94417 98.40375 
L 236.995933 98.40375 
L 238.047695 98.40375 
L 239.099456 97.918802 
L 240.151218 96.204163 
L 241.20298 93.277148 
L 242.25474 90.436742 
L 243.306502 84.426846 
L 244.358264 75.420663 
L 245.410025 68.908514 
L 246.461787 57.616131 
L 247.513549 50.168686 
L 248.56531 42.773248 
L 249.617072 35.897389 
L 250.668834 30.909317 
L 251.720595 27.878415 
L 252.772357 26.406238 
L 253.824119 23.202115 
L 254.87588 24.033455 
L 255.927642 23.583145 
L 256.979404 24.102747 
L 258.031165 22.80375 
L 259.082927 24.570385 
L 260.134689 27.393458 
L 261.18645 28.346001 
L 262.238211 30.788097 
L 263.289973 31.030604 
L 264.341735 36.243765 
L 265.393497 38.027683 
L 266.445259 40.487063 
L 267.49702 44.591751 
L 268.548781 48.003763 
L 269.600543 51.640875 
L 270.652304 56.195925 
L 271.704066 60.612419 
L 272.755828 68.215746 
L 273.80759 74.727856 
L 274.859351 81.22274 
L 275.911114 86.816937 
L 276.962874 91.21613 
L 278.014637 94.021891 
L 279.066398 96.134887 
L 280.11816 97.936121 
L 281.169921 98.40375 
L 282.221682 98.40375 
L 283.273444 98.40375 
L 284.325205 98.40375 
L 285.376968 98.40375 
L 286.428728 98.40375 
L 287.480491 98.40375 
L 288.532252 98.40375 
L 289.584014 98.40375 
L 290.635775 98.40375 
L 291.687536 98.40375 
L 292.7393 98.40375 
L 293.791061 98.40375 
L 294.842822 98.40375 
L 295.894582 98.40375 
L 296.946347 98.40375 
L 297.998108 98.40375 
L 299.049868 98.40375 
L 300.101629 98.40375 
L 301.153394 98.40375 
L 302.205154 98.40375 
L 303.256915 98.40375 
L 304.308676 98.40375 
L 305.36044 98.40375 
L 306.412201 98.40375 
" clip-path="url(#pda45c706f2)" style="fill: none; stroke: #9ebcda; stroke-width: 1.5; stroke-linecap: square"/>
   </g>
   <g id="line2d_21">
    <path d="M 202.287799 98.40375 
L 203.33956 98.40375 
L 204.39132 98.40375 
L 205.443085 98.40375 
L 206.494846 98.40375 
L 207.546606 98.40375 
L 208.598367 98.40375 
L 209.650132 98.40375 
L 210.701892 98.40375 
L 211.753653 98.40375 
L 212.805414 98.40375 
L 213.857178 98.40375 
L 214.908939 98.40375 
L 215.9607 98.40375 
L 217.01246 98.40375 
L 218.064225 98.40375 
L 219.115986 98.40375 
L 220.167746 98.40375 
L 221.219509 98.40375 
L 222.27127 98.40375 
L 223.323032 98.40375 
L 224.374793 98.40375 
L 225.426556 98.40375 
L 226.478316 98.40375 
L 227.530079 98.40375 
L 228.58184 98.40375 
L 229.6336 98.40375 
L 230.685363 98.40375 
L 231.737124 98.40375 
L 232.788886 98.40375 
L 233.840647 98.40375 
L 234.89241 98.40375 
L 235.94417 98.40375 
L 236.995933 98.40375 
L 238.047695 98.40375 
L 239.099456 96.481276 
L 240.151218 90.471381 
L 241.20298 84.253636 
L 242.25474 76.944786 
L 243.306502 66.431799 
L 244.358264 58.949739 
L 245.410025 52.40296 
L 246.461787 47.986443 
L 247.513549 43.136932 
L 248.56531 39.898198 
L 249.617072 36.832647 
L 250.668834 36.209111 
L 251.720595 34.685011 
L 252.772357 32.433453 
L 253.824119 32.260257 
L 254.87588 31.567474 
L 255.927642 33.489948 
L 256.979404 34.200063 
L 258.031165 33.559214 
L 259.082927 36.746049 
L 260.134689 37.975724 
L 261.18645 37.681261 
L 262.238211 39.413249 
L 263.289973 42.149771 
L 264.341735 44.609124 
L 265.393497 43.639228 
L 266.445259 45.994691 
L 267.49702 48.921651 
L 268.548781 52.333658 
L 269.600543 53.961699 
L 270.652304 57.927884 
L 271.704066 60.820254 
L 272.755828 64.024411 
L 273.80759 66.639603 
L 274.859351 72.44172 
L 275.911114 79.092395 
L 276.962874 81.898203 
L 278.014637 87.14601 
L 279.066398 91.995511 
L 280.11816 96.585192 
L 281.169921 98.40375 
L 282.221682 98.40375 
L 283.273444 98.40375 
L 284.325205 98.40375 
L 285.376968 98.40375 
L 286.428728 98.40375 
L 287.480491 98.40375 
L 288.532252 98.40375 
L 289.584014 98.40375 
L 290.635775 98.40375 
L 291.687536 98.40375 
L 292.7393 98.40375 
L 293.791061 98.40375 
L 294.842822 98.40375 
L 295.894582 98.40375 
L 296.946347 98.40375 
L 297.998108 98.40375 
L 299.049868 98.40375 
L 300.101629 98.40375 
L 301.153394 98.40375 
L 302.205154 98.40375 
L 303.256915 98.40375 
L 304.308676 98.40375 
L 305.36044 98.40375 
L 306.412201 98.40375 
" clip-path="url(#pda45c706f2)" style="fill: none; stroke: #8c6bb1; stroke-width: 1.5; stroke-linecap: square"/>
   </g>
   <g id="line2d_22">
    <path d="M 202.287799 98.40375 
L 203.33956 98.40375 
L 204.39132 98.40375 
L 205.443085 98.40375 
L 206.494846 98.40375 
L 207.546606 98.40375 
L 208.598367 98.40375 
L 209.650132 98.40375 
L 210.701892 98.40375 
L 211.753653 98.40375 
L 212.805414 98.40375 
L 213.857178 98.40375 
L 214.908939 98.40375 
L 215.9607 98.40375 
L 217.01246 98.40375 
L 218.064225 98.40375 
L 219.115986 98.40375 
L 220.167746 98.40375 
L 221.219509 98.40375 
L 222.27127 98.40375 
L 223.323032 98.40375 
L 224.374793 98.40375 
L 225.426556 98.40375 
L 226.478316 98.40375 
L 227.530079 98.40375 
L 228.58184 98.40375 
L 229.6336 98.40375 
L 230.685363 98.40375 
L 231.737124 98.40375 
L 232.788886 98.40375 
L 233.840647 98.40375 
L 234.89241 98.40375 
L 235.94417 98.40375 
L 236.995933 98.40375 
L 238.047695 98.40375 
L 239.099456 93.103958 
L 240.151218 78.815301 
L 241.20298 70.553832 
L 242.25474 61.80747 
L 243.306502 56.784791 
L 244.358264 51.658195 
L 245.410025 48.436777 
L 246.461787 44.106856 
L 247.513549 42.669303 
L 248.56531 41.249125 
L 249.617072 42.600066 
L 250.668834 41.907255 
L 251.720595 39.343978 
L 252.772357 37.612009 
L 253.824119 38.200875 
L 254.87588 38.599225 
L 255.927642 38.876338 
L 256.979404 39.880885 
L 258.031165 37.750554 
L 259.082927 40.539036 
L 260.134689 40.331187 
L 261.18645 43.22353 
L 262.238211 43.621908 
L 263.289973 46.410387 
L 264.341735 47.761288 
L 265.393497 49.631803 
L 266.445259 51.398401 
L 267.49702 53.805779 
L 268.548781 55.451183 
L 269.600543 56.83675 
L 270.652304 59.988914 
L 271.704066 62.690769 
L 272.755828 63.955133 
L 273.80759 66.708881 
L 274.859351 70.190177 
L 275.911114 73.307649 
L 276.962874 75.767077 
L 278.014637 80.131571 
L 279.066398 84.84253 
L 280.11816 93.64086 
L 281.169921 98.40375 
L 282.221682 98.40375 
L 283.273444 98.40375 
L 284.325205 98.40375 
L 285.376968 98.40375 
L 286.428728 98.40375 
L 287.480491 98.40375 
L 288.532252 98.40375 
L 289.584014 98.40375 
L 290.635775 98.40375 
L 291.687536 98.40375 
L 292.7393 98.40375 
L 293.791061 98.40375 
L 294.842822 98.40375 
L 295.894582 98.40375 
L 296.946347 98.40375 
L 297.998108 98.40375 
L 299.049868 98.40375 
L 300.101629 98.40375 
L 301.153394 98.40375 
L 302.205154 98.40375 
L 303.256915 98.40375 
L 304.308676 98.40375 
L 305.36044 98.40375 
L 306.412201 98.40375 
" clip-path="url(#pda45c706f2)" style="fill: none; stroke: #810f7c; stroke-width: 1.5; stroke-linecap: square"/>
   </g>
   <g id="line2d_23">
    <path d="M 202.287799 98.40375 
L 203.33956 98.40375 
L 204.39132 98.40375 
L 205.443085 98.40375 
L 206.494846 98.40375 
L 207.546606 98.40375 
L 208.598367 98.40375 
L 209.650132 98.40375 
L 210.701892 98.40375 
L 211.753653 98.40375 
L 212.805414 98.40375 
L 213.857178 98.40375 
L 214.908939 98.40375 
L 215.9607 98.40375 
L 217.01246 98.40375 
L 218.064225 98.40375 
L 219.115986 98.40375 
L 220.167746 98.40375 
L 221.219509 98.40375 
L 222.27127 98.40375 
L 223.323032 98.40375 
L 224.374793 98.40375 
L 225.426556 98.40375 
L 226.478316 98.40375 
L 227.530079 98.40375 
L 228.58184 98.40375 
L 229.6336 98.40375 
L 230.685363 98.40375 
L 231.737124 98.40375 
L 232.788886 98.40375 
L 233.840647 98.40375 
L 234.89241 98.40375 
L 235.94417 98.40375 
L 236.995933 98.40375 
L 238.047695 98.40375 
L 239.099456 86.76499 
L 240.151218 64.526645 
L 241.20298 60.439186 
L 242.25474 56.473039 
L 243.306502 53.771184 
L 244.358264 51.554277 
L 245.410025 47.432242 
L 246.461787 46.600876 
L 247.513549 44.141468 
L 248.56531 43.223558 
L 249.617072 43.102334 
L 250.668834 41.145193 
L 251.720595 41.682122 
L 252.772357 40.937369 
L 253.824119 40.573658 
L 254.87588 41.283761 
L 255.927642 41.578194 
L 256.979404 40.833462 
L 258.031165 41.145193 
L 259.082927 43.518004 
L 260.134689 44.487887 
L 261.18645 45.734871 
L 262.238211 47.189742 
L 263.289973 47.518839 
L 264.341735 50.445824 
L 265.393497 51.502318 
L 266.445259 55.070153 
L 267.49702 54.325367 
L 268.548781 56.923348 
L 269.600543 57.754688 
L 270.652304 60.716337 
L 271.704066 63.868501 
L 272.755828 65.167503 
L 273.80759 68.856511 
L 274.859351 69.583992 
L 275.911114 71.852802 
L 276.962874 74.970377 
L 278.014637 77.360435 
L 279.066398 79.23099 
L 280.11816 90.904363 
L 281.169921 98.40375 
L 282.221682 98.40375 
L 283.273444 98.40375 
L 284.325205 98.40375 
L 285.376968 98.40375 
L 286.428728 98.40375 
L 287.480491 98.40375 
L 288.532252 98.40375 
L 289.584014 98.40375 
L 290.635775 98.40375 
L 291.687536 98.40375 
L 292.7393 98.40375 
L 293.791061 98.40375 
L 294.842822 98.40375 
L 295.894582 98.40375 
L 296.946347 98.40375 
L 297.998108 98.40375 
L 299.049868 98.40375 
L 300.101629 98.40375 
L 301.153394 98.40375 
L 302.205154 98.40375 
L 303.256915 98.40375 
L 304.308676 98.40375 
L 305.36044 98.40375 
L 306.412201 98.40375 
" clip-path="url(#pda45c706f2)" style="fill: none; stroke: #4d004b; stroke-width: 1.5; stroke-linecap: square"/>
   </g>
   <g id="patch_6">
    <path d="M 197.081579 102.18375 
L 197.081579 19.02375 
" style="fill: none; stroke: #000000; stroke-width: 1.5; stroke-linejoin: miter; stroke-linecap: square"/>
   </g>
   <g id="patch_7">
    <path d="M 197.081579 102.18375 
L 311.618421 102.18375 
" style="fill: none; stroke: #000000; stroke-width: 1.5; stroke-linejoin: miter; stroke-linecap: square"/>
   </g>
   <g id="text_14">
    <text style="font: 8px 'Arial'; text-anchor: middle" x="254.35" y="13.02375" transform="rotate(-0, 254.35, 13.02375)">Truncated proposal for posterior A</text>
   </g>
   <g id="legend_2">
    <g id="line2d_24">
     <path d="M 204.281579 29.15 
L 205.881579 29.15 
L 207.481579 29.15 
" style="fill: none; stroke: #238b45; stroke-width: 1.5; stroke-linecap: square"/>
    </g>
    <g id="text_15">
     <text style="font: 8px 'Arial'; text-anchor: start" x="208.681579" y="31.95" transform="rotate(-0, 208.681579, 31.95)">Rejection</text>
    </g>
    <g id="line2d_25">
     <path d="M 204.281579 40.56 
L 205.881579 40.56 
L 207.481579 40.56 
" style="fill: none; stroke: #9ebcda; stroke-width: 1.5; stroke-linecap: square"/>
    </g>
    <g id="text_16">
     <text style="font: 8px 'Arial'; text-anchor: start" x="208.681579" y="43.36" transform="rotate(-0, 208.681579, 43.36)">K=16</text>
    </g>
    <g id="line2d_26">
     <path d="M 204.281579 51.87625 
L 205.881579 51.87625 
L 207.481579 51.87625 
" style="fill: none; stroke: #8c6bb1; stroke-width: 1.5; stroke-linecap: square"/>
    </g>
    <g id="text_17">
     <text style="font: 8px 'Arial'; text-anchor: start" x="208.681579" y="54.67625" transform="rotate(-0, 208.681579, 54.67625)">K=64</text>
    </g>
    <g id="line2d_27">
     <path d="M 204.281579 63.1925 
L 205.881579 63.1925 
L 207.481579 63.1925 
" style="fill: none; stroke: #810f7c; stroke-width: 1.5; stroke-linecap: square"/>
    </g>
    <g id="text_18">
     <text style="font: 8px 'Arial'; text-anchor: start" x="208.681579" y="65.9925" transform="rotate(-0, 208.681579, 65.9925)">K=256</text>
    </g>
    <g id="line2d_28">
     <path d="M 204.281579 74.50875 
L 205.881579 74.50875 
L 207.481579 74.50875 
" style="fill: none; stroke: #4d004b; stroke-width: 1.5; stroke-linecap: square"/>
    </g>
    <g id="text_19">
     <text style="font: 8px 'Arial'; text-anchor: start" x="208.681579" y="77.30875" transform="rotate(-0, 208.681579, 77.30875)">K=1024</text>
    </g>
   </g>
   <g id="line2d_29">
    <path d="M 202.287799 98.40375 
L 203.33956 98.40375 
L 204.39132 98.40375 
L 205.443085 98.40375 
L 206.494846 98.40375 
L 207.546606 98.40375 
L 208.598367 98.40375 
L 209.650132 98.40375 
L 210.701892 98.40375 
L 211.753653 98.40375 
L 212.805414 98.40375 
L 213.857178 98.40375 
L 214.908939 98.40375 
L 215.9607 98.40375 
L 217.01246 98.40375 
L 218.064225 98.40375 
L 219.115986 98.40375 
L 220.167746 98.40375 
L 221.219509 98.40375 
L 222.27127 98.40375 
L 223.323032 98.40375 
L 224.374793 98.40375 
L 225.426556 98.40375 
L 226.478316 98.40375 
L 227.530079 98.40375 
L 228.58184 98.40375 
L 229.6336 98.40375 
L 230.685363 98.40375 
L 231.737124 98.40375 
L 232.788886 98.40375 
L 233.840647 98.40375 
L 234.89241 98.40375 
L 235.94417 98.40375 
L 236.995933 98.40375 
L 238.047695 98.40375 
L 239.099456 82.123342 
L 240.151218 58.49943 
L 241.20298 55.624337 
L 242.25474 52.212421 
L 243.306502 52.870565 
L 244.358264 51.052009 
L 245.410025 49.441312 
L 246.461787 46.063969 
L 247.513549 45.024768 
L 248.56531 45.838815 
L 249.617072 42.617386 
L 250.668834 43.119626 
L 251.720595 43.188925 
L 252.772357 43.188915 
L 253.824119 41.197163 
L 254.87588 42.652008 
L 255.927642 40.157988 
L 256.979404 42.461503 
L 258.031165 42.565399 
L 259.082927 42.652025 
L 260.134689 43.621908 
L 261.18645 46.496933 
L 262.238211 47.69201 
L 263.289973 48.228942 
L 264.341735 52.887885 
L 265.393497 53.961699 
L 266.445259 54.030978 
L 267.49702 56.663513 
L 268.548781 56.074688 
L 269.600543 59.452007 
L 270.652304 62.829326 
L 271.704066 63.556748 
L 272.755828 65.66977 
L 273.80759 68.163727 
L 274.859351 70.692444 
L 275.911114 71.991359 
L 276.962874 74.520068 
L 278.014637 76.425177 
L 279.066398 78.105219 
L 280.11816 90.575291 
L 281.169921 98.40375 
L 282.221682 98.40375 
L 283.273444 98.40375 
L 284.325205 98.40375 
L 285.376968 98.40375 
L 286.428728 98.40375 
L 287.480491 98.40375 
L 288.532252 98.40375 
L 289.584014 98.40375 
L 290.635775 98.40375 
L 291.687536 98.40375 
L 292.7393 98.40375 
L 293.791061 98.40375 
L 294.842822 98.40375 
L 295.894582 98.40375 
L 296.946347 98.40375 
L 297.998108 98.40375 
L 299.049868 98.40375 
L 300.101629 98.40375 
L 301.153394 98.40375 
L 302.205154 98.40375 
L 303.256915 98.40375 
L 304.308676 98.40375 
L 305.36044 98.40375 
L 306.412201 98.40375 
" clip-path="url(#pda45c706f2)" style="fill: none; stroke: #238b45; stroke-width: 1.5; stroke-linecap: square"/>
   </g>
  </g>
  <g id="axes_3">
   <g id="patch_8">
    <path d="M 357.433158 102.18375 
L 471.97 102.18375 
L 471.97 19.02375 
L 357.433158 19.02375 
z
" style="fill: #ffffff"/>
   </g>
   <g id="matplotlib.axis_5">
    <g id="xtick_7">
     <g id="line2d_30">
      <g>
       <use xlink:href="#md518c7ea69" x="380.168738" y="102.18375" style="stroke: #000000; stroke-width: 1.5"/>
      </g>
     </g>
    </g>
    <g id="xtick_8">
     <g id="line2d_31">
      <g>
       <use xlink:href="#md518c7ea69" x="415.227459" y="102.18375" style="stroke: #000000; stroke-width: 1.5"/>
      </g>
     </g>
    </g>
    <g id="xtick_9">
     <g id="line2d_32">
      <g>
       <use xlink:href="#md518c7ea69" x="450.28618" y="102.18375" style="stroke: #000000; stroke-width: 1.5"/>
      </g>
     </g>
    </g>
   </g>
   <g id="matplotlib.axis_6">
    <g id="ytick_8">
     <g id="line2d_33">
      <g>
       <use xlink:href="#m9901be19f1" x="357.433158" y="98.40375" style="stroke: #000000; stroke-width: 1.5"/>
      </g>
     </g>
     <g id="text_20">
      <text style="font: 8px 'Arial'; text-anchor: end" x="350.433158" y="101.266875" transform="rotate(-0, 350.433158, 101.266875)">0.0</text>
     </g>
    </g>
    <g id="ytick_9">
     <g id="line2d_34">
      <g>
       <use xlink:href="#m9901be19f1" x="357.433158" y="80.859754" style="stroke: #000000; stroke-width: 1.5"/>
      </g>
     </g>
     <g id="text_21">
      <text style="font: 8px 'Arial'; text-anchor: end" x="350.433158" y="83.722879" transform="rotate(-0, 350.433158, 83.722879)">0.2</text>
     </g>
    </g>
    <g id="ytick_10">
     <g id="line2d_35">
      <g>
       <use xlink:href="#m9901be19f1" x="357.433158" y="63.315758" style="stroke: #000000; stroke-width: 1.5"/>
      </g>
     </g>
     <g id="text_22">
      <text style="font: 8px 'Arial'; text-anchor: end" x="350.433158" y="66.178883" transform="rotate(-0, 350.433158, 66.178883)">0.4</text>
     </g>
    </g>
    <g id="ytick_11">
     <g id="line2d_36">
      <g>
       <use xlink:href="#m9901be19f1" x="357.433158" y="45.771762" style="stroke: #000000; stroke-width: 1.5"/>
      </g>
     </g>
     <g id="text_23">
      <text style="font: 8px 'Arial'; text-anchor: end" x="350.433158" y="48.634887" transform="rotate(-0, 350.433158, 48.634887)">0.6</text>
     </g>
    </g>
    <g id="ytick_12">
     <g id="line2d_37">
      <g>
       <use xlink:href="#m9901be19f1" x="357.433158" y="28.227766" style="stroke: #000000; stroke-width: 1.5"/>
      </g>
     </g>
     <g id="text_24">
      <text style="font: 8px 'Arial'; text-anchor: end" x="350.433158" y="31.090891" transform="rotate(-0, 350.433158, 31.090891)">0.8</text>
     </g>
    </g>
    <g id="text_25">
     <text style="font: 8px 'Arial'; text-anchor: middle" x="333.629408" y="60.60375" transform="rotate(-90, 333.629408, 60.60375)">Histogram density</text>
    </g>
   </g>
   <g id="line2d_38">
    <path d="M 362.639378 98.40375 
L 363.691139 98.40375 
L 364.742899 98.40375 
L 365.794664 98.40375 
L 366.846425 98.40375 
L 367.898185 98.40375 
L 368.949946 98.40375 
L 370.001711 98.40375 
L 371.053471 98.40375 
L 372.105232 98.40375 
L 373.156993 98.40375 
L 374.208757 98.40375 
L 375.260518 98.40375 
L 376.312279 98.40375 
L 377.364039 98.40375 
L 378.415804 98.40375 
L 379.467565 98.40375 
L 380.519325 98.40375 
L 381.571088 98.40375 
L 382.622849 98.40375 
L 383.674611 98.40375 
L 384.726372 98.40375 
L 385.778135 98.40375 
L 386.829895 98.40375 
L 387.881658 98.40375 
L 388.933419 98.40375 
L 389.985179 98.40375 
L 391.036942 98.40375 
L 392.088703 98.40375 
L 393.140465 98.40375 
L 394.192226 98.40375 
L 395.243989 98.40375 
L 396.295749 98.40375 
L 397.347512 98.40375 
L 398.399274 98.40375 
L 399.451035 98.40375 
L 400.502797 98.40375 
L 401.554559 98.40375 
L 402.606319 98.40375 
L 403.658081 98.40375 
L 404.709843 98.40375 
L 405.761604 98.40375 
L 406.813366 98.40375 
L 407.865128 98.40375 
L 408.916889 98.40375 
L 409.968651 98.40375 
L 411.020413 98.40375 
L 412.072174 97.24877 
L 413.123936 96.23999 
L 414.175698 93.666871 
L 415.227459 89.266252 
L 416.279221 83.125853 
L 417.330982 74.821699 
L 418.382744 64.953191 
L 419.434506 52.409254 
L 420.486268 41.020265 
L 421.538029 33.373975 
L 422.58979 27.730689 
L 423.641552 24.368126 
L 424.693314 22.80375 
L 425.745076 22.86223 
L 426.796838 24.11955 
L 427.848599 26.575638 
L 428.90036 30.011408 
L 429.952122 31.882768 
L 431.003883 35.932507 
L 432.055645 38.300946 
L 433.107407 41.561262 
L 434.159169 46.868212 
L 435.21093 47.380014 
L 436.262693 52.438436 
L 437.314453 55.157844 
L 438.366216 59.075921 
L 439.417977 62.131576 
L 440.469739 66.342067 
L 441.5215 69.938589 
L 442.573261 71.795383 
L 443.625023 77.131634 
L 444.676784 79.207714 
L 445.728547 82.248638 
L 446.780307 86.210685 
L 447.83207 89.485543 
L 448.883831 91.473879 
L 449.935593 94.061607 
L 450.987354 95.742908 
L 452.039114 96.941755 
L 453.090879 98.24293 
L 454.14264 98.40375 
L 455.194401 98.40375 
L 456.246161 98.40375 
L 457.297926 98.40375 
L 458.349687 98.40375 
L 459.401447 98.40375 
L 460.453208 98.40375 
L 461.504973 98.40375 
L 462.556733 98.40375 
L 463.608494 98.40375 
L 464.660254 98.40375 
L 465.712019 98.40375 
L 466.76378 98.40375 
" clip-path="url(#p869e8d6771)" style="fill: none; stroke: #9ebcda; stroke-width: 1.5; stroke-linecap: square"/>
   </g>
   <g id="line2d_39">
    <path d="M 362.639378 98.40375 
L 363.691139 98.40375 
L 364.742899 98.40375 
L 365.794664 98.40375 
L 366.846425 98.40375 
L 367.898185 98.40375 
L 368.949946 98.40375 
L 370.001711 98.40375 
L 371.053471 98.40375 
L 372.105232 98.40375 
L 373.156993 98.40375 
L 374.208757 98.40375 
L 375.260518 98.40375 
L 376.312279 98.40375 
L 377.364039 98.40375 
L 378.415804 98.40375 
L 379.467565 98.40375 
L 380.519325 98.40375 
L 381.571088 98.40375 
L 382.622849 98.40375 
L 383.674611 98.40375 
L 384.726372 98.40375 
L 385.778135 98.40375 
L 386.829895 98.40375 
L 387.881658 98.40375 
L 388.933419 98.40375 
L 389.985179 98.40375 
L 391.036942 98.40375 
L 392.088703 98.40375 
L 393.140465 98.40375 
L 394.192226 98.40375 
L 395.243989 98.40375 
L 396.295749 98.40375 
L 397.347512 98.40375 
L 398.399274 98.40375 
L 399.451035 98.40375 
L 400.502797 98.40375 
L 401.554559 98.40375 
L 402.606319 98.40375 
L 403.658081 98.40375 
L 404.709843 98.40375 
L 405.761604 98.40375 
L 406.813366 98.40375 
L 407.865128 98.40375 
L 408.916889 98.40375 
L 409.968651 98.40375 
L 411.020413 98.40375 
L 412.072174 93.915412 
L 413.123936 89.280872 
L 414.175698 82.131693 
L 415.227459 72.921095 
L 416.279221 60.932698 
L 417.330982 49.923849 
L 418.382744 41.970551 
L 419.434506 34.178123 
L 420.486268 29.645908 
L 421.538029 28.461654 
L 422.58979 28.373969 
L 423.641552 27.979264 
L 424.693314 32.365227 
L 425.745076 32.686867 
L 426.796838 33.461727 
L 427.848599 38.081586 
L 428.90036 41.371145 
L 429.952122 42.730805 
L 431.003883 44.689884 
L 432.055645 49.368283 
L 433.107407 51.07887 
L 434.159169 55.552499 
L 435.21093 57.804061 
L 436.262693 60.420962 
L 437.314453 63.330414 
L 438.366216 66.181247 
L 439.417977 68.271968 
L 440.469739 70.93275 
L 441.5215 73.374292 
L 442.573261 75.874358 
L 443.625023 77.731055 
L 444.676784 79.821753 
L 445.728547 82.058578 
L 446.780307 85.158047 
L 447.83207 86.503061 
L 448.883831 88.374443 
L 449.935593 91.298425 
L 450.987354 93.330606 
L 452.039114 94.894961 
L 453.090879 97.687369 
L 454.14264 98.40375 
L 455.194401 98.40375 
L 456.246161 98.40375 
L 457.297926 98.40375 
L 458.349687 98.40375 
L 459.401447 98.40375 
L 460.453208 98.40375 
L 461.504973 98.40375 
L 462.556733 98.40375 
L 463.608494 98.40375 
L 464.660254 98.40375 
L 465.712019 98.40375 
L 466.76378 98.40375 
" clip-path="url(#p869e8d6771)" style="fill: none; stroke: #8c6bb1; stroke-width: 1.5; stroke-linecap: square"/>
   </g>
   <g id="line2d_40">
    <path d="M 362.639378 98.40375 
L 363.691139 98.40375 
L 364.742899 98.40375 
L 365.794664 98.40375 
L 366.846425 98.40375 
L 367.898185 98.40375 
L 368.949946 98.40375 
L 370.001711 98.40375 
L 371.053471 98.40375 
L 372.105232 98.40375 
L 373.156993 98.40375 
L 374.208757 98.40375 
L 375.260518 98.40375 
L 376.312279 98.40375 
L 377.364039 98.40375 
L 378.415804 98.40375 
L 379.467565 98.40375 
L 380.519325 98.40375 
L 381.571088 98.40375 
L 382.622849 98.40375 
L 383.674611 98.40375 
L 384.726372 98.40375 
L 385.778135 98.40375 
L 386.829895 98.40375 
L 387.881658 98.40375 
L 388.933419 98.40375 
L 389.985179 98.40375 
L 391.036942 98.40375 
L 392.088703 98.40375 
L 393.140465 98.40375 
L 394.192226 98.40375 
L 395.243989 98.40375 
L 396.295749 98.40375 
L 397.347512 98.40375 
L 398.399274 98.40375 
L 399.451035 98.40375 
L 400.502797 98.40375 
L 401.554559 98.40375 
L 402.606319 98.40375 
L 403.658081 98.40375 
L 404.709843 98.40375 
L 405.761604 98.40375 
L 406.813366 98.40375 
L 407.865128 98.40375 
L 408.916889 98.40375 
L 409.968651 98.40375 
L 411.020413 98.40375 
L 412.072174 84.032296 
L 413.123936 72.731035 
L 414.175698 60.830358 
L 415.227459 50.30396 
L 416.279221 43.169401 
L 417.330982 35.157655 
L 418.382744 34.002651 
L 419.434506 32.745364 
L 420.486268 33.490967 
L 421.538029 32.774555 
L 422.58979 35.186887 
L 423.641552 35.069958 
L 424.693314 36.429586 
L 425.745076 39.485166 
L 426.796838 42.964725 
L 427.848599 43.46175 
L 428.90036 46.298084 
L 429.952122 51.181162 
L 431.003883 52.277662 
L 432.055645 54.558382 
L 433.107407 57.423942 
L 434.159169 59.441422 
L 435.21093 61.722216 
L 436.262693 64.763105 
L 437.314453 68.637467 
L 438.366216 69.865489 
L 439.417977 71.093624 
L 440.469739 74.032192 
L 441.5215 76.678414 
L 442.573261 78.374375 
L 443.625023 80.070257 
L 444.676784 82.20481 
L 445.728547 83.359759 
L 446.780307 84.397808 
L 447.83207 86.517681 
L 448.883831 88.272103 
L 449.935593 89.792564 
L 450.987354 91.415385 
L 452.039114 92.731208 
L 453.090879 97.204909 
L 454.14264 98.40375 
L 455.194401 98.40375 
L 456.246161 98.40375 
L 457.297926 98.40375 
L 458.349687 98.40375 
L 459.401447 98.40375 
L 460.453208 98.40375 
L 461.504973 98.40375 
L 462.556733 98.40375 
L 463.608494 98.40375 
L 464.660254 98.40375 
L 465.712019 98.40375 
L 466.76378 98.40375 
" clip-path="url(#p869e8d6771)" style="fill: none; stroke: #810f7c; stroke-width: 1.5; stroke-linecap: square"/>
   </g>
   <g id="line2d_41">
    <path d="M 362.639378 98.40375 
L 363.691139 98.40375 
L 364.742899 98.40375 
L 365.794664 98.40375 
L 366.846425 98.40375 
L 367.898185 98.40375 
L 368.949946 98.40375 
L 370.001711 98.40375 
L 371.053471 98.40375 
L 372.105232 98.40375 
L 373.156993 98.40375 
L 374.208757 98.40375 
L 375.260518 98.40375 
L 376.312279 98.40375 
L 377.364039 98.40375 
L 378.415804 98.40375 
L 379.467565 98.40375 
L 380.519325 98.40375 
L 381.571088 98.40375 
L 382.622849 98.40375 
L 383.674611 98.40375 
L 384.726372 98.40375 
L 385.778135 98.40375 
L 386.829895 98.40375 
L 387.881658 98.40375 
L 388.933419 98.40375 
L 389.985179 98.40375 
L 391.036942 98.40375 
L 392.088703 98.40375 
L 393.140465 98.40375 
L 394.192226 98.40375 
L 395.243989 98.40375 
L 396.295749 98.40375 
L 397.347512 98.40375 
L 398.399274 98.40375 
L 399.451035 98.40375 
L 400.502797 98.40375 
L 401.554559 98.40375 
L 402.606319 98.40375 
L 403.658081 98.40375 
L 404.709843 98.40375 
L 405.761604 98.40375 
L 406.813366 98.40375 
L 407.865128 98.40375 
L 408.916889 98.40375 
L 409.968651 98.40375 
L 411.020413 98.40375 
L 412.072174 66.488302 
L 413.123936 53.037899 
L 414.175698 42.935481 
L 415.227459 38.286322 
L 416.279221 35.786303 
L 417.330982 34.821395 
L 418.382744 35.757051 
L 419.434506 35.596262 
L 420.486268 37.789246 
L 421.538029 37.716116 
L 422.58979 36.985146 
L 423.641552 40.289294 
L 424.693314 42.935485 
L 425.745076 44.163564 
L 426.796838 45.333164 
L 427.848599 48.023193 
L 428.90036 51.312742 
L 429.952122 51.371222 
L 431.003883 54.280602 
L 432.055645 56.839101 
L 433.107407 60.494138 
L 434.159169 62.716304 
L 435.21093 64.280713 
L 436.262693 68.228048 
L 437.314453 69.470806 
L 438.366216 71.37135 
L 439.417977 72.935742 
L 440.469739 75.742733 
L 441.5215 78.432815 
L 442.573261 80.026433 
L 443.625023 81.649218 
L 444.676784 82.89195 
L 445.728547 83.929939 
L 446.780307 86.269165 
L 447.83207 87.058622 
L 448.883831 88.637602 
L 449.935593 90.216544 
L 450.987354 90.479704 
L 452.039114 92.38033 
L 453.090879 97.190289 
L 454.14264 98.40375 
L 455.194401 98.40375 
L 456.246161 98.40375 
L 457.297926 98.40375 
L 458.349687 98.40375 
L 459.401447 98.40375 
L 460.453208 98.40375 
L 461.504973 98.40375 
L 462.556733 98.40375 
L 463.608494 98.40375 
L 464.660254 98.40375 
L 465.712019 98.40375 
L 466.76378 98.40375 
" clip-path="url(#p869e8d6771)" style="fill: none; stroke: #4d004b; stroke-width: 1.5; stroke-linecap: square"/>
   </g>
   <g id="patch_9">
    <path d="M 357.433158 102.18375 
L 357.433158 19.02375 
" style="fill: none; stroke: #000000; stroke-width: 1.5; stroke-linejoin: miter; stroke-linecap: square"/>
   </g>
   <g id="patch_10">
    <path d="M 357.433158 102.18375 
L 471.97 102.18375 
" style="fill: none; stroke: #000000; stroke-width: 1.5; stroke-linejoin: miter; stroke-linecap: square"/>
   </g>
   <g id="text_26">
    <text style="font: 8px 'Arial'; text-anchor: middle" x="414.701579" y="13.02375" transform="rotate(-0, 414.701579, 13.02375)">Truncated proposal for posterior B</text>
   </g>
   <g id="legend_3">
    <g id="line2d_42">
     <path d="M 364.633158 29.15 
L 366.233158 29.15 
L 367.833158 29.15 
" style="fill: none; stroke: #238b45; stroke-width: 1.5; stroke-linecap: square"/>
    </g>
    <g id="text_27">
     <text style="font: 8px 'Arial'; text-anchor: start" x="369.033158" y="31.95" transform="rotate(-0, 369.033158, 31.95)">Rejection</text>
    </g>
    <g id="line2d_43">
     <path d="M 364.633158 40.56 
L 366.233158 40.56 
L 367.833158 40.56 
" style="fill: none; stroke: #9ebcda; stroke-width: 1.5; stroke-linecap: square"/>
    </g>
    <g id="text_28">
     <text style="font: 8px 'Arial'; text-anchor: start" x="369.033158" y="43.36" transform="rotate(-0, 369.033158, 43.36)">K=16</text>
    </g>
    <g id="line2d_44">
     <path d="M 364.633158 51.87625 
L 366.233158 51.87625 
L 367.833158 51.87625 
" style="fill: none; stroke: #8c6bb1; stroke-width: 1.5; stroke-linecap: square"/>
    </g>
    <g id="text_29">
     <text style="font: 8px 'Arial'; text-anchor: start" x="369.033158" y="54.67625" transform="rotate(-0, 369.033158, 54.67625)">K=64</text>
    </g>
    <g id="line2d_45">
     <path d="M 364.633158 63.1925 
L 366.233158 63.1925 
L 367.833158 63.1925 
" style="fill: none; stroke: #810f7c; stroke-width: 1.5; stroke-linecap: square"/>
    </g>
    <g id="text_30">
     <text style="font: 8px 'Arial'; text-anchor: start" x="369.033158" y="65.9925" transform="rotate(-0, 369.033158, 65.9925)">K=256</text>
    </g>
    <g id="line2d_46">
     <path d="M 364.633158 74.50875 
L 366.233158 74.50875 
L 367.833158 74.50875 
" style="fill: none; stroke: #4d004b; stroke-width: 1.5; stroke-linecap: square"/>
    </g>
    <g id="text_31">
     <text style="font: 8px 'Arial'; text-anchor: start" x="369.033158" y="77.30875" transform="rotate(-0, 369.033158, 77.30875)">K=1024</text>
    </g>
   </g>
   <g id="line2d_47">
    <path d="M 362.639378 98.40375 
L 363.691139 98.40375 
L 364.742899 98.40375 
L 365.794664 98.40375 
L 366.846425 98.40375 
L 367.898185 98.40375 
L 368.949946 98.40375 
L 370.001711 98.40375 
L 371.053471 98.40375 
L 372.105232 98.40375 
L 373.156993 98.40375 
L 374.208757 98.40375 
L 375.260518 98.40375 
L 376.312279 98.40375 
L 377.364039 98.40375 
L 378.415804 98.40375 
L 379.467565 98.40375 
L 380.519325 98.40375 
L 381.571088 98.40375 
L 382.622849 98.40375 
L 383.674611 98.40375 
L 384.726372 98.40375 
L 385.778135 98.40375 
L 386.829895 98.40375 
L 387.881658 98.40375 
L 388.933419 98.40375 
L 389.985179 98.40375 
L 391.036942 98.40375 
L 392.088703 98.40375 
L 393.140465 98.40375 
L 394.192226 98.40375 
L 395.243989 98.40375 
L 396.295749 98.40375 
L 397.347512 98.40375 
L 398.399274 98.40375 
L 399.451035 98.40375 
L 400.502797 98.40375 
L 401.554559 98.40375 
L 402.606319 98.40375 
L 403.658081 98.40375 
L 404.709843 98.40375 
L 405.761604 98.40375 
L 406.813366 98.40375 
L 407.865128 98.40375 
L 408.916889 98.40375 
L 409.968651 98.40375 
L 411.020413 98.40375 
L 412.072174 41.634312 
L 413.123936 33.257043 
L 414.175698 36.853562 
L 415.227459 33.929563 
L 416.279221 34.675183 
L 417.330982 36.955914 
L 418.382744 36.765831 
L 419.434506 36.137202 
L 420.486268 38.666446 
L 421.538029 40.450057 
L 422.58979 42.014425 
L 423.641552 43.154812 
L 424.693314 46.473524 
L 425.745076 47.146044 
L 426.796838 47.745463 
L 427.848599 50.727895 
L 428.90036 53.549602 
L 429.952122 53.461882 
L 431.003883 57.497001 
L 432.055645 58.94438 
L 433.107407 61.020457 
L 434.159169 63.637365 
L 435.21093 66.195931 
L 436.262693 69.543849 
L 437.314453 71.605324 
L 438.366216 73.505872 
L 439.417977 75.274939 
L 440.469739 77.204735 
L 441.5215 79.368496 
L 442.573261 80.289593 
L 443.625023 82.321738 
L 444.676784 84.880267 
L 445.728547 85.15802 
L 446.780307 86.897824 
L 447.83207 88.286703 
L 448.883831 88.915382 
L 449.935593 90.275024 
L 450.987354 91.371525 
L 452.039114 91.663952 
L 453.090879 96.693209 
L 454.14264 98.40375 
L 455.194401 98.40375 
L 456.246161 98.40375 
L 457.297926 98.40375 
L 458.349687 98.40375 
L 459.401447 98.40375 
L 460.453208 98.40375 
L 461.504973 98.40375 
L 462.556733 98.40375 
L 463.608494 98.40375 
L 464.660254 98.40375 
L 465.712019 98.40375 
L 466.76378 98.40375 
" clip-path="url(#p869e8d6771)" style="fill: none; stroke: #238b45; stroke-width: 1.5; stroke-linecap: square"/>
   </g>
  </g>
 </g>
 <defs>
  <clipPath id="p8d8ccad756">
   <rect x="36.73" y="19.02375" width="114.536842" height="83.16"/>
  </clipPath>
  <clipPath id="pda45c706f2">
   <rect x="197.081579" y="19.02375" width="114.536842" height="83.16"/>
  </clipPath>
  <clipPath id="p869e8d6771">
   <rect x="357.433158" y="19.02375" width="114.536842" height="83.16"/>
  </clipPath>
 </defs>
</svg>
