<?xml version="1.0" encoding="utf-8" standalone="no"?>
<!DOCTYPE svg PUBLIC "-//W3C//DTD SVG 1.1//EN"
  "http://www.w3.org/Graphics/SVG/1.1/DTD/svg11.dtd">
<svg xmlns:xlink="http://www.w3.org/1999/xlink" width="147.20625pt" height="129.91875pt" viewBox="0 0 147.20625 129.91875" xmlns="http://www.w3.org/2000/svg" version="1.1">
 <metadata>
  <rdf:RDF xmlns:dc="http://purl.org/dc/elements/1.1/" xmlns:cc="http://creativecommons.org/ns#" xmlns:rdf="http://www.w3.org/1999/02/22-rdf-syntax-ns#">
   <cc:Work>
    <dc:type rdf:resource="http://purl.org/dc/dcmitype/StillImage"/>
    <dc:date>2022-08-07T14:18:36.047804</dc:date>
    <dc:format>image/svg+xml</dc:format>
    <dc:creator>
     <cc:Agent>
      <dc:title>Matplotlib v3.5.1, https://matplotlib.org/</dc:title>
     </cc:Agent>
    </dc:creator>
   </cc:Work>
  </rdf:RDF>
 </metadata>
 <defs>
  <style type="text/css">*{stroke-linejoin: round; stroke-linecap: butt}</style>
 </defs>
 <g id="figure_1">
  <g id="patch_1">
   <path d="M 0 129.91875 
L 147.20625 129.91875 
L 147.20625 0 
L 0 0 
z
" style="fill: #ffffff"/>
  </g>
  <g id="axes_1">
   <g id="patch_2">
    <path d="M 13.39125 102.08625 
L 136.15125 102.08625 
L 136.15125 18.92625 
L 13.39125 18.92625 
z
" style="fill: #ffffff"/>
   </g>
   <g id="matplotlib.axis_1">
    <g id="xtick_1">
     <g id="line2d_1">
      <defs>
       <path id="ma7ca950b95" d="M 0 0 
L 0 3.5 
" style="stroke: #000000; stroke-width: 1.5"/>
      </defs>
      <g>
       <use xlink:href="#ma7ca950b95" x="15.09625" y="102.08625" style="stroke: #000000; stroke-width: 1.5"/>
      </g>
     </g>
     <g id="text_1">
      <text style="font: 8px 'Arial'; text-anchor: middle" x="15.09625" y="114.8125" transform="rotate(-0, 15.09625, 114.8125)">−0.7</text>
     </g>
    </g>
    <g id="xtick_2">
     <g id="line2d_2">
      <g>
       <use xlink:href="#ma7ca950b95" x="134.44625" y="102.08625" style="stroke: #000000; stroke-width: 1.5"/>
      </g>
     </g>
     <g id="text_2">
      <text style="font: 8px 'Arial'; text-anchor: middle" x="134.44625" y="114.8125" transform="rotate(-0, 134.44625, 114.8125)">0.7</text>
     </g>
    </g>
    <g id="text_3">
     <!-- $\theta$ -->
     <g transform="translate(72.53125 121.12875)">
      <text>
       <tspan style="font: 8px 'Arial'" x="0" y="-0.171875">θ</tspan>
      </text>
     </g>
    </g>
   </g>
   <g id="matplotlib.axis_2">
    <g id="ytick_1">
     <g id="line2d_3">
      <defs>
       <path id="m23a1b44480" d="M 0 0 
L -3.5 0 
" style="stroke: #000000; stroke-width: 1.5"/>
      </defs>
      <g>
       <use xlink:href="#m23a1b44480" x="13.39125" y="102.08625" style="stroke: #000000; stroke-width: 1.5"/>
      </g>
     </g>
    </g>
    <g id="ytick_2">
     <g id="line2d_4">
      <g>
       <use xlink:href="#m23a1b44480" x="13.39125" y="18.92625" style="stroke: #000000; stroke-width: 1.5"/>
      </g>
     </g>
    </g>
   </g>
   <g id="line2d_5">
    <path d="M 13.391248 102.08625 
L 17.692148 101.976609 
L 20.026922 101.89816 
L 24.204942 101.801703 
L 27.03125 101.530319 
L 28.87449 101.139036 
L 29.857553 100.942992 
L 32.315213 100.730514 
L 33.175393 100.58181 
L 38.828004 100.207121 
L 40.548366 99.860977 
L 41.65431 99.18869 
L 42.514492 98.402008 
L 43.251788 97.435048 
L 43.989087 96.04998 
L 44.603499 94.414908 
L 45.217914 92.134057 
L 45.955213 89.066878 
L 46.692509 85.957042 
L 47.429808 82.518758 
L 49.395934 76.329559 
L 50.501878 73.470692 
L 50.747645 73.08749 
L 50.993412 73.186505 
L 51.116293 73.056722 
L 52.345123 70.209169 
L 53.328186 68.431906 
L 54.311249 67.108953 
L 54.925663 66.542891 
L 55.171429 66.431548 
L 55.294312 66.5754 
L 55.66296 65.331183 
L 57.137555 60.113273 
L 58.735033 54.819605 
L 59.963861 50.584252 
L 60.824042 48.309882 
L 61.561339 46.917003 
L 62.175754 46.188782 
L 62.91305 45.515385 
L 63.527465 44.786085 
L 64.264762 44.265173 
L 64.756294 44.124406 
L 65.124943 44.059374 
L 66.230888 41.042352 
L 67.213952 37.469288 
L 68.565663 34.100173 
L 69.425844 32.458308 
L 70.408907 31.009636 
L 71.269087 30.087036 
L 72.006384 29.570593 
L 72.497916 29.430694 
L 73.11233 29.497186 
L 73.97251 30.354144 
L 74.709808 31.062217 
L 75.447107 31.869576 
L 76.307287 33.147673 
L 77.29035 35.038889 
L 77.781882 36.149052 
L 78.15053 35.499245 
L 79.256476 33.612098 
L 79.625125 33.131764 
L 80.239539 33.694507 
L 80.731071 34.710246 
L 81.9599 37.805644 
L 82.82008 40.041292 
L 83.311612 39.828898 
L 83.803143 39.856739 
L 84.294675 40.126159 
L 84.786206 40.634854 
L 85.400621 41.597968 
L 86.137919 43.207388 
L 86.875216 45.348776 
L 87.243865 46.457131 
L 87.858279 47.735644 
L 88.595576 49.943602 
L 89.455756 53.348672 
L 90.684586 58.376053 
L 92.404945 64.722414 
L 93.142244 65.363136 
L 93.510892 65.37753 
L 93.87954 65.58894 
L 94.371071 66.19767 
L 94.985486 67.066547 
L 95.599901 67.880865 
L 96.214314 69.099261 
L 96.951612 71.131767 
L 97.811792 73.871187 
L 98.057559 73.802685 
L 98.303324 73.941485 
L 98.671974 74.557848 
L 99.163503 76.118936 
L 99.532154 77.620644 
L 99.900802 77.448045 
L 100.023685 77.483997 
L 101.49828 89.239706 
L 102.235576 92.096513 
L 102.972875 94.152133 
L 103.833054 95.859348 
L 104.693234 97.060247 
L 105.676297 98.016221 
L 106.65936 98.668962 
L 107.765306 99.152879 
L 108.74837 99.36624 
L 110.714496 99.515768 
L 112.18909 99.752376 
L 114.2781 100.356509 
L 117.104406 101.147877 
L 119.684942 101.555811 
L 123.862961 101.476944 
L 125.706207 101.718009 
L 130.007107 101.949811 
L 131.850352 102.027285 
L 133.693592 102.084563 
L 136.151252 102.08625 
L 136.151252 102.08625 
" clip-path="url(#pf0ca4445f2)" style="fill: none; stroke: #810f7c; stroke-width: 1.5; stroke-linecap: square"/>
   </g>
   <g id="line2d_6">
    <path d="M 13.391248 102.08625 
L 14.988726 102.08625 
L 15.111607 90.20625 
L 45.586562 90.20625 
L 45.709446 64.98332 
L 101.866928 64.98332 
L 101.989811 90.20625 
L 134.430888 90.20625 
L 134.553774 102.08625 
L 136.151252 102.08625 
L 136.151252 102.08625 
" clip-path="url(#pf0ca4445f2)" style="fill: none; stroke: #1f77b4; stroke-width: 1.5; stroke-linecap: square"/>
   </g>
   <g id="patch_3">
    <path d="M 13.39125 102.08625 
L 13.39125 18.92625 
" style="fill: none; stroke: #000000; stroke-width: 1.5; stroke-linejoin: miter; stroke-linecap: square"/>
   </g>
   <g id="patch_4">
    <path d="M 13.39125 102.08625 
L 136.15125 102.08625 
" style="fill: none; stroke: #000000; stroke-width: 1.5; stroke-linejoin: miter; stroke-linecap: square"/>
   </g>
   <g id="text_4">
    <!-- Round 2 with $\epsilon=0.1$ -->
    <g transform="translate(39.29125 12.92625)">
     <text>
      <tspan style="font: 8px 'Arial'" x="0 5.777344 10.226562 14.675781 19.125 23.574219 25.796875 30.246094 32.46875 38.246094 40.023438 42.246094 46.695312 48.917969 53.817188 59.821875 64.271094 66.49375" y="-0.25">Round 2 with ε=0.1</tspan>
     </text>
    </g>
   </g>
   <g id="line2d_7">
    <path d="M 13.391248 101.984478 
L 19.412507 101.745304 
L 23.467645 101.368829 
L 26.539716 100.87235 
L 29.120257 100.244838 
L 31.455031 99.454098 
L 33.544041 98.519805 
L 35.510167 97.404111 
L 37.35341 96.11562 
L 39.196655 94.561012 
L 41.039898 92.711829 
L 42.88314 90.543937 
L 44.726383 88.039834 
L 46.692509 84.988913 
L 48.781519 81.32283 
L 51.116293 76.741966 
L 53.819718 70.900384 
L 57.629086 62.059215 
L 62.298636 51.311161 
L 64.633411 46.485106 
L 66.476654 43.13914 
L 68.074132 40.660319 
L 69.548726 38.77498 
L 70.777555 37.529649 
L 72.006384 36.600875 
L 73.11233 36.047498 
L 74.095393 35.786279 
L 75.078456 35.74494 
L 76.061521 35.92389 
L 77.044584 36.321347 
L 78.15053 37.02469 
L 79.256476 37.990756 
L 80.485305 39.357661 
L 81.837017 41.194027 
L 83.434494 43.769568 
L 85.277738 47.208177 
L 87.48963 51.84897 
L 90.561702 58.874164 
L 96.951612 73.617599 
L 99.532154 78.971829 
L 101.866928 83.317112 
L 103.955938 86.753417 
L 105.922064 89.583344 
L 107.88819 92.025638 
L 109.731433 93.978654 
L 111.574675 95.628457 
L 113.540801 97.08482 
L 115.506928 98.263912 
L 117.595935 99.255257 
L 119.807828 100.059632 
L 122.265483 100.715673 
L 125.091791 101.23433 
L 128.53251 101.626104 
L 132.956296 101.889926 
L 136.151252 101.984478 
L 136.151252 101.984478 
" clip-path="url(#pf0ca4445f2)" style="fill: none; stroke: #238b45; stroke-width: 1.5; stroke-linecap: square"/>
   </g>
  </g>
 </g>
 <defs>
  <clipPath id="pf0ca4445f2">
   <rect x="13.39125" y="18.92625" width="122.76" height="83.16"/>
  </clipPath>
 </defs>
</svg>
