<?xml version='1.0' encoding='ASCII' standalone='yes'?>
<svg xmlns="http://www.w3.org/2000/svg" xmlns:xlink="http://www.w3.org/1999/xlink" version="1.1" width="3.611cm" viewBox="0 0 3.611cm 5.8cm" height="5.8cm">
  <g>
    <g transform="translate(-10, 0) scale(1) ">
      <g transform="translate(0, 0) scale(1) translate(0, 0) scale(1.25) "><metadata>
  <rdf:RDF xmlns:dc="http://purl.org/dc/elements/1.1/" xmlns:cc="http://creativecommons.org/ns#" xmlns:rdf="http://www.w3.org/1999/02/22-rdf-syntax-ns#">
   <cc:Work>
    <dc:type rdf:resource="http://purl.org/dc/dcmitype/StillImage"/>
    <dc:date>2022-10-12T12:04:17.897112</dc:date>
    <dc:format>image/svg+xml</dc:format>
    <dc:creator>
     <cc:Agent>
      <dc:title>Matplotlib v3.5.1, https://matplotlib.org/</dc:title>
     </cc:Agent>
    </dc:creator>
   </cc:Work>
  </rdf:RDF>
 </metadata>
 <defs>
  <style type="text/css">*{stroke-linejoin: round; stroke-linecap: butt}</style>
 </defs>
 <g id="figure_1">
  <g id="patch_1">
   <path d="M 0 58.752  L 126 58.752  L 126 0  L 0 0  z " style="fill: #ffffff"/>
  </g>
  <g id="axes_1">
   <g id="patch_2">
    <path d="M 7.2 51.552  L 118.8 51.552  L 118.8 7.2  L 7.2 7.2  z " style="fill: #ffffff"/>
   </g>
   <g id="matplotlib.axis_1"/>
   <g id="matplotlib.axis_2"/>
   <g id="line2d_1">
    <path d="M 12.272727 49.536  L 35.044088 49.444981  L 35.654036 49.186245  L 36.060667 48.76527  L 36.467297 47.971453  L 36.873928 46.601024  L 37.280561 44.431985  L 37.890507 39.312714  L 38.500455 31.970363  L 39.923666 13.374216  L 40.330297 10.363473  L 40.533615 9.545933  L 40.73693 9.216  L 40.940245 9.372528  L 41.14356 9.996825  L 41.550191 12.498398  L 42.160139 18.546797  L 42.56677 23.35744  L 42.770085 49.536  L 83.229915 49.536  L 83.43323 23.35744  L 84.246491 14.271207  L 84.653124 11.05456  L 85.059755 9.372528  L 85.26307 9.216  L 85.466388 9.54594  L 85.669703 10.363473  L 86.076336 13.374245  L 86.686282 20.565984  L 88.109491 39.312695  L 88.719439 44.431985  L 89.329388 47.372312  L 89.736018 48.426787  L 90.142649 49.011342  L 90.752594 49.390263  L 91.565858 49.516667  L 94.615594 49.536  L 113.727273 49.536  L 113.727273 49.536  " clip-path="url(#p773666354e)" style="fill: none; stroke: #000000; stroke-width: 1.5; stroke-linecap: square"/>
   </g>
   <g id="line2d_2">
    <path d="M 12.272727 49.536  L 22.235195 49.536  L 22.43851 41.971649  L 42.56677 41.971649  L 42.770085 49.536  L 83.229915 49.536  L 83.43323 41.971649  L 103.561485 41.971649  L 103.7648 49.536  L 113.727273 49.536  L 113.727273 49.536  " clip-path="url(#p773666354e)" style="fill: none; stroke: #808080; stroke-width: 1.5; stroke-linecap: square"/>
   </g>
  </g>
 </g>
 <defs>
  <clipPath id="p773666354e">
   <rect x="7.2" y="7.2" width="111.6" height="44.352"/>
  </clipPath>
 </defs>
</g>
      <text x="11" y="12.0" font-size="7.7pt" font-family="Arial" font-weight="normal" letter-spacing="0" text-anchor="start" fill="black">Ground</text>
      <text x="11" y="26.0" font-size="7.7pt" font-family="Arial" font-weight="normal" letter-spacing="0" text-anchor="start" fill="black">truth</text>
    </g>
    <g transform="translate(-10, 75) scale(1) ">
      <g transform="translate(0, 0) scale(1) translate(0, 0) scale(1.25) "><metadata>
  <rdf:RDF xmlns:dc="http://purl.org/dc/elements/1.1/" xmlns:cc="http://creativecommons.org/ns#" xmlns:rdf="http://www.w3.org/1999/02/22-rdf-syntax-ns#">
   <cc:Work>
    <dc:type rdf:resource="http://purl.org/dc/dcmitype/StillImage"/>
    <dc:date>2022-10-12T12:12:18.037696</dc:date>
    <dc:format>image/svg+xml</dc:format>
    <dc:creator>
     <cc:Agent>
      <dc:title>Matplotlib v3.5.1, https://matplotlib.org/</dc:title>
     </cc:Agent>
    </dc:creator>
   </cc:Work>
  </rdf:RDF>
 </metadata>
 <defs>
  <style type="text/css">*{stroke-linejoin: round; stroke-linecap: butt}</style>
 </defs>
 <g id="figure_1">
  <g id="patch_1">
   <path d="M 0 58.752  L 126 58.752  L 126 0  L 0 0  z " style="fill: #ffffff"/>
  </g>
  <g id="axes_1">
   <g id="patch_2">
    <path d="M 7.2 51.552  L 118.8 51.552  L 118.8 7.2  L 7.2 7.2  z " style="fill: #ffffff"/>
   </g>
   <g id="matplotlib.axis_1"/>
   <g id="matplotlib.axis_2"/>
   <g id="line2d_1">
    <path d="M 12.272727 49.534156  L 34.434142 49.449178  L 35.654036 49.24189  L 36.060667 49.025363  L 36.467297 48.453705  L 36.670612 47.730037  L 37.077243 45.759769  L 37.483876 44.142683  L 38.093822 40.516663  L 38.907088 33.51408  L 39.720349 26.75723  L 40.126982 24.973795  L 40.330297 24.653424  L 40.533615 24.715808  L 40.73693 25.132612  L 41.14356 26.834267  L 41.956822 32.068803  L 42.973401 38.450231  L 43.786664 42.127774  L 44.599927 44.601434  L 45.209874 45.850581  L 46.633084 47.914016  L 47.039715 48.476379  L 47.649662 48.894496  L 48.462926 49.14397  L 50.089452 49.351251  L 53.342503 49.438866  L 59.441974 49.386176  L 61.271816 49.207068  L 61.881763 48.99507  L 62.288394 48.649741  L 62.49171 48.298131  L 62.695026 47.631933  L 62.898342 46.103767  L 63.101657 41.256365  L 63.304973 9.216  L 63.508289 42.122539  L 63.711604 46.46177  L 63.91492 47.813336  L 64.321553 48.725452  L 64.728184 49.039885  L 65.541447 49.272192  L 67.167973 49.403594  L 71.640919 49.461959  L 77.130444 49.35135  L 78.756969 49.096476  L 79.366916 48.852788  L 79.773548 48.537607  L 80.180179 47.998063  L 80.58681 46.852554  L 80.993442 45.746232  L 81.400073 44.805278  L 81.806704 43.433307  L 82.213336 41.463525  L 82.619968 38.511481  L 83.229915 33.077456  L 84.449809 24.529983  L 84.85644 23.027553  L 85.059755 22.748168  L 85.26307 22.826119  L 85.466388 23.27357  L 85.873018 25.227971  L 86.482967 30.142832  L 87.702861 40.742906  L 88.719439 46.809675  L 89.12607 48.035415  L 89.532703 48.608968  L 90.549279 49.387489  L 91.565858 49.487283  L 96.038806 49.533463  L 113.727273 49.532109  L 113.727273 49.532109  " clip-path="url(#pefc64cc9b4)" style="fill: none; stroke: #000000; stroke-width: 1.5; stroke-linecap: square"/>
   </g>
  </g>
 </g>
 <defs>
  <clipPath id="pefc64cc9b4">
   <rect x="7.2" y="7.2" width="111.6" height="44.352"/>
  </clipPath>
 </defs>
</g>
      <text x="11" y="12.0" font-size="7.7pt" font-family="Arial" font-weight="normal" letter-spacing="0" text-anchor="start" fill="black">APT</text>
    </g>
    <g transform="translate(-10, 150) scale(1) ">
      <g transform="translate(0, 0) scale(1) translate(0, 0) scale(1.25) "><metadata>
  <rdf:RDF xmlns:dc="http://purl.org/dc/elements/1.1/" xmlns:cc="http://creativecommons.org/ns#" xmlns:rdf="http://www.w3.org/1999/02/22-rdf-syntax-ns#">
   <cc:Work>
    <dc:type rdf:resource="http://purl.org/dc/dcmitype/StillImage"/>
    <dc:date>2022-10-12T12:14:18.248060</dc:date>
    <dc:format>image/svg+xml</dc:format>
    <dc:creator>
     <cc:Agent>
      <dc:title>Matplotlib v3.5.1, https://matplotlib.org/</dc:title>
     </cc:Agent>
    </dc:creator>
   </cc:Work>
  </rdf:RDF>
 </metadata>
 <defs>
  <style type="text/css">*{stroke-linejoin: round; stroke-linecap: butt}</style>
 </defs>
 <g id="figure_1">
  <g id="patch_1">
   <path d="M 0 58.752  L 126 58.752  L 126 0  L 0 0  z " style="fill: #ffffff"/>
  </g>
  <g id="axes_1">
   <g id="patch_2">
    <path d="M 7.2 51.552  L 118.8 51.552  L 118.8 7.2  L 7.2 7.2  z " style="fill: #ffffff"/>
   </g>
   <g id="matplotlib.axis_1"/>
   <g id="matplotlib.axis_2"/>
   <g id="line2d_1">
    <path d="M 12.272727 49.535899  L 35.044088 49.450465  L 35.857351 49.279357  L 36.467297 48.93323  L 36.873928 48.440967  L 37.280561 47.518137  L 37.687191 45.862622  L 38.093822 43.210183  L 38.500455 39.19471  L 39.720349 23.414005  L 40.330297 12.590823  L 40.73693 9.216  L 40.940245 9.235908  L 41.14356 10.357163  L 41.550191 15.152903  L 42.973401 38.88385  L 43.176717 46.513043  L 43.380032 48.135626  L 43.786664 49.018446  L 44.193296 49.262071  L 45.006558 49.416399  L 47.039715 49.492812  L 58.425396 49.535357  L 82.010021 49.530058  L 82.213336 49.314737  L 82.619968 47.635235  L 83.0266 44.453117  L 83.43323 39.275254  L 83.839861 31.651605  L 84.653124 11.620842  L 84.85644 10.604431  L 85.059755 11.632823  L 85.466388 17.674637  L 85.669703 17.686799  L 85.873018 18.500613  L 86.279651 22.205262  L 87.092912 32.108544  L 87.296228 32.657269  L 87.499543 33.569347  L 87.906176 37.000567  L 88.719439 44.898075  L 89.12607 47.146369  L 89.532703 48.339077  L 89.939333 48.930681  L 90.549279 49.312075  L 91.362543 49.480836  L 92.98907 49.535627  L 113.727273 49.534069  L 113.727273 49.534069  " clip-path="url(#p550567c04a)" style="fill: none; stroke: #000000; stroke-width: 1.5; stroke-linecap: square"/>
   </g>
  </g>
 </g>
 <defs>
  <clipPath id="p550567c04a">
   <rect x="7.2" y="7.2" width="111.6" height="44.352"/>
  </clipPath>
 </defs>
</g>
      <text x="11" y="12.0" font-size="7.7pt" font-family="Arial" font-weight="normal" letter-spacing="0" text-anchor="start" fill="black">TSNPE</text>
    </g>
  </g>
</svg>
