<?xml version="1.0" encoding="utf-8" standalone="no"?>
<!DOCTYPE svg PUBLIC "-//W3C//DTD SVG 1.1//EN"
  "http://www.w3.org/Graphics/SVG/1.1/DTD/svg11.dtd">
<svg xmlns:xlink="http://www.w3.org/1999/xlink" width="181.8pt" height="97.56pt" viewBox="0 0 181.8 97.56" xmlns="http://www.w3.org/2000/svg" version="1.1">
 <metadata>
  <rdf:RDF xmlns:dc="http://purl.org/dc/elements/1.1/" xmlns:cc="http://creativecommons.org/ns#" xmlns:rdf="http://www.w3.org/1999/02/22-rdf-syntax-ns#">
   <cc:Work>
    <dc:type rdf:resource="http://purl.org/dc/dcmitype/StillImage"/>
    <dc:date>2022-05-08T13:17:40.314162</dc:date>
    <dc:format>image/svg+xml</dc:format>
    <dc:creator>
     <cc:Agent>
      <dc:title>Matplotlib v3.5.1, https://matplotlib.org/</dc:title>
     </cc:Agent>
    </dc:creator>
   </cc:Work>
  </rdf:RDF>
 </metadata>
 <defs>
  <style type="text/css">*{stroke-linejoin: round; stroke-linecap: butt}</style>
 </defs>
 <g id="figure_1">
  <g id="patch_1">
   <path d="M 0 97.56 
L 181.8 97.56 
L 181.8 0 
L 0 0 
z
" style="fill: #ffffff"/>
  </g>
  <g id="axes_1">
   <g id="patch_2">
    <path d="M 7.2 45 
L 56.435294 45 
L 56.435294 7.2 
L 7.2 7.2 
z
" style="fill: #ffffff"/>
   </g>
   <g id="matplotlib.axis_1"/>
   <g id="matplotlib.axis_2"/>
   <g id="line2d_1">
    <path d="M 9.437968 38.25 
L 9.547993 39.280834 
L 9.861039 40.667902 
L 10.183809 41.325779 
L 10.518669 41.647648 
L 10.981484 41.79591 
L 11.82435 41.770516 
L 14.005834 41.71201 
L 19.882418 41.60421 
L 20.009147 39.082542 
L 20.372159 32.795515 
L 20.378579 12.112081 
L 20.479006 36.845771 
L 20.628134 37.04417 
L 20.661347 37.018237 
L 20.914117 36.519913 
L 21.366357 35.191183 
L 21.374446 27.301861 
L 21.37682 12.800345 
L 21.480834 37.213196 
L 21.676307 37.749846 
L 21.854809 37.657747 
L 22.810315 36.738774 
L 23.690666 35.745023 
L 23.829485 35.221456 
L 23.83635 31.313886 
L 23.841419 12.881151 
L 23.938389 37.124849 
L 24.129325 37.676252 
L 24.297466 37.625226 
L 25.790577 36.213788 
L 26.225594 35.574441 
L 26.286473 35.05056 
L 26.295866 12.875435 
L 26.386008 37.045125 
L 26.576677 37.596687 
L 26.734241 37.566729 
L 27.495094 36.892847 
L 28.48935 35.842221 
L 28.672209 35.375462 
L 28.688151 34.33126 
L 28.696086 12.874506 
L 28.795618 37.073944 
L 29.003973 37.552815 
L 29.190341 37.47045 
L 30.473515 36.285713 
L 30.965341 35.616436 
L 31.045835 35.098539 
L 31.053947 22.558541 
L 31.055636 12.883466 
L 31.159422 37.073682 
L 31.360625 37.508434 
L 31.541219 37.435448 
L 31.728916 37.282955 
L 33.058402 35.992557 
L 33.340652 35.47159 
L 33.375869 34.818675 
L 33.384538 12.88902 
L 33.481992 37.028407 
L 33.690459 37.481212 
L 33.866895 37.4121 
L 34.910446 36.475757 
L 35.548753 35.710372 
L 35.670508 35.260757 
L 35.678073 33.083565 
L 35.684998 12.900279 
L 35.783601 37.022243 
L 35.986215 37.459221 
L 36.156189 37.401124 
L 37.0884 36.576788 
L 37.824892 35.726136 
L 37.955376 35.234169 
L 37.961939 32.479463 
L 37.968443 12.8929 
L 38.06652 37.01534 
L 38.27576 37.447427 
L 38.471887 37.363756 
L 39.393467 36.544575 
L 40.119206 35.705281 
L 40.238985 35.181626 
L 40.246381 30.35734 
L 40.250268 12.890842 
L 40.348881 37.010809 
L 40.559419 37.433459 
L 40.75673 37.346817 
L 41.704317 36.501629 
L 42.37101 35.71621 
L 42.500796 35.218645 
L 42.507232 32.178764 
L 42.513466 12.90374 
L 42.608332 36.990265 
L 42.82155 37.426264 
L 43.022107 37.338222 
L 44.127523 36.339479 
L 44.644833 35.689733 
L 44.771278 35.163658 
L 44.778961 29.560744 
L 44.78224 12.900685 
L 44.883168 37.014405 
L 45.101435 37.419231 
L 45.298293 37.322406 
L 46.415896 36.304729 
L 46.943212 35.594809 
L 47.021116 35.091469 
L 47.029295 22.994802 
L 47.031074 12.915767 
L 47.138854 37.034824 
L 47.343879 37.414491 
L 47.539291 37.324674 
L 48.418751 36.546943 
L 49.141424 35.704813 
L 49.269609 35.214584 
L 49.276205 32.138268 
L 49.282359 12.912169 
L 49.379773 36.991768 
L 49.585042 37.406125 
L 49.722519 37.531412 
L 49.848242 39.576932 
L 50.113057 41.298449 
L 50.415484 42.066598 
L 50.688811 42.30527 
L 51.122158 42.314676 
L 53.341781 41.84478 
L 54.197326 41.794914 
L 54.197326 41.794914 
" clip-path="url(#p7de908f3f9)" style="fill: none; stroke: #000000; stroke-linecap: square"/>
   </g>
  </g>
  <g id="axes_2">
   <g id="patch_3">
    <path d="M 66.282353 45 
L 115.517647 45 
L 115.517647 7.2 
L 66.282353 7.2 
z
" style="fill: #ffffff"/>
   </g>
   <g id="matplotlib.axis_3"/>
   <g id="matplotlib.axis_4"/>
   <g id="line2d_2">
    <path d="M 68.520321 38.25 
L 68.630346 39.280834 
L 68.943392 40.667902 
L 69.266162 41.325779 
L 69.601022 41.647648 
L 70.063837 41.79591 
L 70.906703 41.770516 
L 73.088187 41.71201 
L 78.964562 41.611519 
L 79.087172 38.563462 
L 79.300467 33.215979 
L 79.307025 11.914363 
L 79.406225 36.613714 
L 79.520016 36.651659 
L 79.543845 36.62487 
L 79.722557 36.152444 
L 79.963055 34.921296 
L 79.970891 26.503413 
L 79.973124 13.150849 
L 80.074239 36.984963 
L 80.243413 37.345699 
L 80.390046 37.204795 
L 81.802844 35.068718 
L 81.819783 33.996782 
L 81.827493 13.420859 
L 81.924314 36.91565 
L 82.100247 37.350776 
L 82.246694 37.258056 
L 83.607844 35.616555 
L 83.807132 35.038979 
L 83.821588 33.94836 
L 83.829255 13.430409 
L 83.929016 36.893815 
L 84.108424 37.273715 
L 84.274642 37.155386 
L 85.721912 35.223273 
L 85.769404 34.570807 
L 85.778143 13.438164 
L 85.872232 36.833721 
L 86.050209 37.212232 
L 86.209448 37.110085 
L 87.529807 35.491668 
L 87.674022 34.946574 
L 87.682083 33.018097 
L 87.689004 13.438541 
L 87.790413 36.847296 
L 87.975952 37.165093 
L 88.170207 37.010937 
L 89.482057 35.308085 
L 89.557704 34.732161 
L 89.565927 18.004763 
L 89.567229 13.45847 
L 89.674042 36.846193 
L 89.861192 37.124777 
L 90.069953 36.948697 
L 91.259879 35.488684 
L 91.408237 34.918936 
L 91.415835 32.564962 
L 91.422384 13.466763 
L 91.521883 36.800807 
L 91.708018 37.096479 
L 91.884564 36.964924 
L 93.15716 35.34845 
L 93.253015 34.759683 
L 93.26093 24.557078 
L 93.262873 13.482116 
L 93.370191 36.816297 
L 93.55111 37.072655 
L 93.74382 36.920838 
L 94.96994 35.369295 
L 95.074263 34.803592 
L 95.081714 29.608114 
L 95.085228 13.50712 
L 95.186903 36.779411 
L 95.37837 37.050071 
L 95.58156 36.884479 
L 96.614296 35.682074 
L 96.860268 35.09052 
L 96.887122 34.226513 
L 96.895264 13.494863 
L 96.9926 36.761132 
L 97.18254 37.040575 
L 97.375952 36.892018 
L 98.618391 35.269904 
L 98.688609 34.683987 
L 98.6968 16.847371 
L 98.697916 13.502191 
L 98.801788 36.778935 
L 98.983988 37.02986 
L 99.168312 36.891196 
L 100.29748 35.534658 
L 100.470537 35.000915 
L 100.485698 33.801517 
L 100.493199 13.504676 
L 100.593552 36.760862 
L 100.778303 37.020992 
L 100.972075 36.871493 
L 102.00808 35.666221 
L 102.254163 35.059794 
L 102.277095 34.068279 
L 102.285008 13.504527 
L 102.38326 36.75107 
L 102.567284 37.014702 
L 102.749294 36.880885 
L 103.949655 35.381442 
L 104.059722 34.832724 
L 104.067282 30.35676 
L 104.071428 13.506848 
L 104.167169 36.739183 
L 104.341519 37.009452 
L 104.513719 36.898819 
L 105.6326 35.573937 
L 105.836294 34.97229 
L 105.849428 33.73516 
L 105.856873 13.521402 
L 105.954188 36.7402 
L 106.142168 37.003155 
L 106.332417 36.857775 
L 107.442371 35.521725 
L 107.618486 34.947304 
L 107.629543 33.403975 
L 107.636737 13.517808 
L 107.736612 36.747561 
L 107.925352 36.999569 
L 108.12171 36.84482 
L 108.803743 36.096225 
L 108.804493 36.254982 
L 108.925677 38.767646 
L 109.205579 40.982162 
L 109.501516 41.890938 
L 109.803019 42.227203 
L 110.14432 42.290113 
L 110.950534 42.077466 
L 112.102268 41.864524 
L 113.279679 41.788902 
L 113.279679 41.788902 
" clip-path="url(#p0d7fd9f7a9)" style="fill: none; stroke: #000000; stroke-linecap: square"/>
   </g>
  </g>
  <g id="axes_3">
   <g id="patch_4">
    <path d="M 125.364706 45 
L 174.6 45 
L 174.6 7.2 
L 125.364706 7.2 
z
" style="fill: #ffffff"/>
   </g>
   <g id="matplotlib.axis_5"/>
   <g id="matplotlib.axis_6"/>
   <g id="line2d_3">
    <path d="M 127.602674 38.25 
L 127.712699 39.280834 
L 128.025745 40.667902 
L 128.348515 41.325779 
L 128.683375 41.647648 
L 129.14619 41.79591 
L 129.989056 41.770516 
L 132.17054 41.71201 
L 138.04669 41.617806 
L 138.167641 36.437185 
L 138.198837 32.045316 
L 138.203837 11.236854 
L 138.261375 36.195476 
L 138.303898 35.939848 
L 138.512368 33.070321 
L 138.519395 14.896738 
L 138.618209 35.974517 
L 138.662975 36.028657 
L 138.719803 35.940863 
L 138.946485 35.025436 
L 139.104696 33.880916 
L 139.116593 31.05521 
L 139.122338 15.609836 
L 139.220698 35.860476 
L 139.333177 36.133667 
L 139.370669 36.109404 
L 140.039533 34.323443 
L 140.104261 33.350499 
L 140.112626 15.850118 
L 140.202144 35.791753 
L 140.35353 36.244552 
L 140.365585 36.239785 
L 140.51025 36.024828 
L 141.151085 34.519478 
L 141.261145 33.648207 
L 141.269431 28.397066 
L 141.272794 15.864191 
L 141.370963 35.836759 
L 141.508285 36.190572 
L 141.526621 36.184548 
L 141.667627 35.982233 
L 142.330541 34.365296 
L 142.40672 33.448485 
L 142.414781 17.336907 
L 142.415729 15.880292 
L 142.517522 35.824297 
L 142.647886 36.120432 
L 142.676959 36.106637 
L 142.822767 35.883452 
L 143.44854 34.317019 
L 143.516182 33.448912 
L 143.524046 18.421245 
L 143.525266 15.891012 
L 143.626805 35.790001 
L 143.757729 36.059491 
L 143.780825 36.05014 
L 143.954046 35.779978 
L 144.537701 34.28322 
L 144.602115 33.267068 
L 144.610399 15.924238 
L 144.705588 35.716741 
L 144.846451 35.999359 
L 144.858026 35.993899 
L 145.008511 35.781928 
L 145.536007 34.542473 
L 145.657549 33.70498 
L 145.667582 30.272895 
L 145.672557 15.96804 
L 145.771971 35.703677 
L 145.895926 35.947692 
L 145.929808 35.932922 
L 146.061862 35.741134 
L 146.593128 34.477031 
L 146.701994 33.611996 
L 146.710838 28.443707 
L 146.714356 15.979127 
L 146.817944 35.701148 
L 146.944294 35.903983 
L 146.974912 35.887967 
L 147.150033 35.604688 
L 147.643791 34.364049 
L 147.728337 33.528542 
L 147.736382 26.433989 
L 147.739092 15.998293 
L 147.841135 35.669922 
L 147.955084 35.866908 
L 147.993942 35.852112 
L 148.170001 35.575021 
L 148.638203 34.42324 
L 148.739815 33.522835 
L 148.748017 27.027117 
L 148.751001 16.052048 
L 148.853304 35.63915 
L 148.976988 35.828145 
L 149.009254 35.81129 
L 149.169303 35.563664 
L 149.61975 34.481702 
L 149.737181 33.624574 
L 149.746573 29.74285 
L 149.751116 16.067803 
L 149.851115 35.611776 
L 149.97883 35.797621 
L 150.00107 35.787344 
L 150.15654 35.558026 
L 150.627445 34.407908 
L 150.731127 33.483089 
L 150.739357 25.992872 
L 150.741977 16.100753 
L 150.846184 35.605201 
L 150.970544 35.768199 
L 150.993697 35.756359 
L 151.155772 35.510116 
L 151.614235 34.371264 
L 151.711085 33.479715 
L 151.719448 25.906004 
L 151.722109 16.124536 
L 151.825823 35.586435 
L 151.949352 35.744211 
L 151.975358 35.731281 
L 152.163761 35.430027 
L 152.632417 34.144204 
L 152.686262 33.029534 
L 152.694221 16.134422 
L 152.789992 35.542 
L 152.917033 35.724105 
L 152.946025 35.709735 
L 153.141941 35.397637 
L 153.623338 33.954326 
L 153.65326 32.503477 
L 153.660462 16.148422 
L 153.75887 35.540006 
L 153.887145 35.705636 
L 153.909782 35.694007 
L 154.06484 35.465527 
L 154.537172 34.248948 
L 154.611696 33.276926 
L 154.620589 16.170687 
L 154.707047 35.47056 
L 154.849067 35.686614 
L 154.856431 35.681937 
L 155.029355 35.439395 
L 155.499649 34.201451 
L 155.565801 33.218464 
L 155.574346 16.19201 
L 155.662405 35.468014 
L 155.787857 35.676629 
L 155.812063 35.668262 
L 155.963205 35.463023 
L 156.388692 34.456145 
L 156.510822 33.587479 
L 156.520895 29.930971 
L 156.525671 16.209118 
L 156.624775 35.504585 
L 156.752971 35.65614 
L 156.778122 35.642577 
L 156.953638 35.372282 
L 157.378505 34.283062 
L 157.462573 33.362835 
L 157.470326 23.609861 
L 157.472412 16.213629 
L 157.576054 35.514399 
L 157.693937 35.648421 
L 157.728184 35.629864 
L 157.915928 35.329757 
L 158.325239 34.264001 
L 158.406352 33.304882 
L 158.413948 21.065883 
L 158.415627 16.219249 
L 158.51974 35.510881 
L 158.632561 35.642095 
L 158.673042 35.620249 
L 158.869879 35.29591 
L 159.266292 34.250784 
L 159.345314 33.307442 
L 159.353189 20.048824 
L 159.354754 16.234468 
L 159.460901 35.508016 
L 159.580694 35.628069 
L 159.611505 35.606763 
L 159.72301 35.454339 
L 160.193497 34.296104 
L 160.281944 33.375672 
L 160.289891 24.765459 
L 160.29231 16.254504 
L 160.398366 35.496378 
L 160.523522 35.616351 
L 160.546277 35.602031 
L 160.695315 35.380331 
L 161.129768 34.282068 
L 161.216182 33.393914 
L 161.224069 26.164974 
L 161.226786 16.253847 
L 161.332611 35.495036 
L 161.448849 35.615034 
L 161.483037 35.594203 
L 161.693444 35.248039 
L 162.07216 34.248022 
L 162.151144 33.331746 
L 162.158951 22.284732 
L 162.160926 16.249584 
L 162.263942 35.484054 
L 162.383922 35.606467 
L 162.406765 35.5953 
L 162.578197 35.339532 
L 162.988876 34.299307 
L 163.082026 33.389709 
L 163.090133 25.856589 
L 163.092753 16.280508 
L 163.197364 35.474623 
L 163.31502 35.597597 
L 163.347703 35.577469 
L 163.495573 35.360769 
L 163.936014 34.22208 
L 164.013594 33.241897 
L 164.02264 16.27887 
L 164.10803 35.399235 
L 164.239651 35.595611 
L 164.26071 35.58772 
L 164.472667 35.261286 
L 164.869674 34.192899 
L 164.941693 33.21052 
L 164.950562 16.28754 
L 165.037081 35.403246 
L 165.159763 35.592996 
L 165.18739 35.583758 
L 165.335281 35.384002 
L 165.732646 34.449692 
L 165.860894 33.598795 
L 165.872468 30.242265 
L 165.877656 16.301594 
L 165.976402 35.446459 
L 166.094474 35.585575 
L 166.122318 35.573544 
L 166.392262 35.1171 
L 166.727656 34.165106 
L 166.795277 33.133344 
L 166.803645 16.298636 
L 166.896434 35.421988 
L 167.023309 35.581015 
L 167.048959 35.568613 
L 167.214598 35.326027 
L 167.621742 34.3072 
L 167.71701 33.420501 
L 167.725386 27.234595 
L 167.72843 16.297101 
L 167.832922 35.460627 
L 167.887356 35.919143 
L 168.012497 39.584802 
L 168.245507 41.716393 
L 168.497145 42.500679 
L 168.731893 42.74687 
L 169.056073 42.784287 
L 170.144068 42.458599 
L 172.283837 42.045631 
L 172.362032 42.033424 
L 172.362032 42.033424 
" clip-path="url(#p399bc173e2)" style="fill: none; stroke: #000000; stroke-linecap: square"/>
   </g>
  </g>
  <g id="axes_4">
   <g id="patch_5">
    <path d="M 7.2 90.36 
L 56.435294 90.36 
L 56.435294 52.56 
L 7.2 52.56 
z
" style="fill: #ffffff"/>
   </g>
   <g id="matplotlib.axis_7"/>
   <g id="matplotlib.axis_8"/>
   <g id="line2d_4">
    <path d="M 9.437968 83.61 
L 9.583162 83.740832 
L 10.360366 84.167994 
L 11.405322 84.477967 
L 13.15254 84.713172 
L 16.478853 84.867225 
L 24.564753 84.901621 
L 31.444969 84.808573 
L 31.572402 80.996831 
L 31.597192 77.951089 
L 31.619138 55.406137 
L 31.709768 76.666153 
L 31.84676 82.451441 
L 32.023736 83.32496 
L 32.311983 83.61978 
L 33.139094 84.174139 
L 34.380353 84.680434 
L 36.003871 85.130541 
L 37.496341 85.323444 
L 39.80549 85.351153 
L 54.197326 85.003777 
L 54.197326 85.003777 
" clip-path="url(#pdfe939dda5)" style="fill: none; stroke: #000000; stroke-linecap: square"/>
   </g>
  </g>
  <g id="axes_5">
   <g id="patch_6">
    <path d="M 66.282353 90.36 
L 115.517647 90.36 
L 115.517647 52.56 
L 66.282353 52.56 
z
" style="fill: #ffffff"/>
   </g>
   <g id="matplotlib.axis_9"/>
   <g id="matplotlib.axis_10"/>
   <g id="line2d_5">
    <path d="M 68.520321 83.61 
L 68.927711 83.561861 
L 70.069692 83.457315 
L 72.234893 83.569012 
L 75.561206 83.706023 
L 84.933463 83.721213 
L 90.756211 83.61091 
L 90.832634 83.101062 
L 90.936821 80.594773 
L 91.092857 70.034345 
L 91.123731 69.339163 
L 91.178214 70.716254 
L 91.459502 77.541547 
L 91.749409 79.516837 
L 92.17411 80.88299 
L 92.711314 81.941048 
L 93.273417 82.676417 
L 94.030574 83.317156 
L 94.787731 83.698153 
L 95.683212 83.932025 
L 97.175681 84.031603 
L 100.960586 83.885188 
L 106.233927 83.78459 
L 113.279679 83.754325 
L 113.279679 83.754325 
" clip-path="url(#p039646c61c)" style="fill: none; stroke: #000000; stroke-linecap: square"/>
   </g>
  </g>
  <g id="axes_6">
   <g id="patch_7">
    <path d="M 125.364706 90.36 
L 174.6 90.36 
L 174.6 52.56 
L 125.364706 52.56 
z
" style="fill: #ffffff"/>
   </g>
   <g id="matplotlib.axis_11"/>
   <g id="matplotlib.axis_12"/>
   <g id="line2d_6">
    <path d="M 127.602674 83.61 
L 128.096677 83.393433 
L 128.943054 83.2085 
L 130.320319 83.205891 
L 135.488925 83.41314 
L 149.845214 83.388113 
L 149.935688 83.216041 
L 150.038443 82.362926 
L 150.166388 78.979492 
L 150.260567 75.14771 
L 150.329318 76.124518 
L 150.558378 78.224855 
L 150.957104 79.589579 
L 151.643409 81.163185 
L 152.35577 82.247258 
L 153.112927 82.961496 
L 153.870084 83.377354 
L 154.765565 83.622112 
L 155.95954 83.711087 
L 158.488382 83.611773 
L 162.938702 83.478469 
L 172.362032 83.437734 
L 172.362032 83.437734 
" clip-path="url(#p250bf7e10f)" style="fill: none; stroke: #000000; stroke-linecap: square"/>
   </g>
  </g>
 </g>
 <defs>
  <clipPath id="p7de908f3f9">
   <rect x="7.2" y="7.2" width="49.235294" height="37.8"/>
  </clipPath>
  <clipPath id="p0d7fd9f7a9">
   <rect x="66.282353" y="7.2" width="49.235294" height="37.8"/>
  </clipPath>
  <clipPath id="p399bc173e2">
   <rect x="125.364706" y="7.2" width="49.235294" height="37.8"/>
  </clipPath>
  <clipPath id="pdfe939dda5">
   <rect x="7.2" y="52.56" width="49.235294" height="37.8"/>
  </clipPath>
  <clipPath id="p039646c61c">
   <rect x="66.282353" y="52.56" width="49.235294" height="37.8"/>
  </clipPath>
  <clipPath id="p250bf7e10f">
   <rect x="125.364706" y="52.56" width="49.235294" height="37.8"/>
  </clipPath>
 </defs>
</svg>
