<?xml version="1.0" encoding="utf-8" standalone="no"?>
<!DOCTYPE svg PUBLIC "-//W3C//DTD SVG 1.1//EN"
  "http://www.w3.org/Graphics/SVG/1.1/DTD/svg11.dtd">
<svg xmlns:xlink="http://www.w3.org/1999/xlink" width="181.8pt" height="97.56pt" viewBox="0 0 181.8 97.56" xmlns="http://www.w3.org/2000/svg" version="1.1">
 <metadata>
  <rdf:RDF xmlns:dc="http://purl.org/dc/elements/1.1/" xmlns:cc="http://creativecommons.org/ns#" xmlns:rdf="http://www.w3.org/1999/02/22-rdf-syntax-ns#">
   <cc:Work>
    <dc:type rdf:resource="http://purl.org/dc/dcmitype/StillImage"/>
    <dc:date>2022-05-08T13:27:58.144170</dc:date>
    <dc:format>image/svg+xml</dc:format>
    <dc:creator>
     <cc:Agent>
      <dc:title>Matplotlib v3.5.1, https://matplotlib.org/</dc:title>
     </cc:Agent>
    </dc:creator>
   </cc:Work>
  </rdf:RDF>
 </metadata>
 <defs>
  <style type="text/css">*{stroke-linejoin: round; stroke-linecap: butt}</style>
 </defs>
 <g id="figure_1">
  <g id="patch_1">
   <path d="M 0 97.56 
L 181.8 97.56 
L 181.8 0 
L 0 0 
z
" style="fill: #ffffff"/>
  </g>
  <g id="axes_1">
   <g id="patch_2">
    <path d="M 7.2 45 
L 56.435294 45 
L 56.435294 7.2 
L 7.2 7.2 
z
" style="fill: #ffffff"/>
   </g>
   <g id="matplotlib.axis_1"/>
   <g id="matplotlib.axis_2"/>
   <g id="line2d_1">
    <path d="M 9.437968 38.25 
L 9.554608 39.28988 
L 9.876467 40.666747 
L 10.228413 41.348115 
L 10.59192 41.660509 
L 11.051684 41.781318 
L 12.257228 41.723936 
L 15.07183 41.68988 
L 19.882275 41.595734 
L 20.009158 39.039955 
L 20.377587 32.525105 
L 20.38433 13.098504 
L 20.483118 36.153996 
L 20.613167 36.57635 
L 20.650229 36.545677 
L 20.783804 36.139102 
L 20.951719 34.969706 
L 20.960189 19.42719 
L 20.961692 13.631972 
L 21.066597 36.298489 
L 21.186306 36.663975 
L 21.224053 36.637747 
L 21.371878 36.215801 
L 21.577792 34.993112 
L 21.585916 25.871613 
L 21.588284 13.698785 
L 21.69291 36.304657 
L 21.830149 36.718335 
L 21.858571 36.700061 
L 22.020907 36.302613 
L 22.307648 34.991826 
L 22.315614 28.832446 
L 22.318898 13.830526 
L 22.421015 36.287789 
L 22.576133 36.766724 
L 22.601479 36.753123 
L 22.746865 36.473872 
L 23.231777 35.019821 
L 23.241054 33.398937 
L 23.24878 14.085795 
L 23.349853 36.257391 
L 23.514728 36.79118 
L 23.526074 36.788373 
L 23.663597 36.598209 
L 24.508481 34.741067 
L 24.516758 26.241351 
L 24.519252 14.36243 
L 24.622059 36.217538 
L 24.801494 36.776177 
L 24.93722 36.627849 
L 25.558699 35.77555 
L 26.213236 35.014014 
L 26.254286 34.460144 
L 26.263841 14.521726 
L 26.357919 36.08266 
L 26.546133 36.732691 
L 26.680287 36.617371 
L 27.221469 35.944382 
L 28.354304 34.844404 
L 28.365853 33.483182 
L 28.373983 14.556124 
L 28.471854 36.063216 
L 28.662953 36.684977 
L 28.801877 36.571999 
L 29.638152 35.745257 
L 30.5147 35.096089 
L 30.602068 34.707243 
L 30.610008 29.346424 
L 30.613874 14.564103 
L 30.713569 36.039333 
L 30.897823 36.640403 
L 31.025481 36.559751 
L 31.858669 35.754349 
L 32.787731 35.077838 
L 32.87524 34.682899 
L 32.883568 27.633956 
L 32.88657 14.566851 
L 32.990841 36.042896 
L 33.180096 36.611346 
L 33.32221 36.507665 
L 34.069412 35.783746 
L 35.046786 35.049981 
L 35.115022 34.654147 
L 35.123459 26.034962 
L 35.125973 14.571088 
L 35.231437 36.019675 
L 35.42171 36.578665 
L 35.564808 36.479951 
L 36.249734 35.813954 
L 37.299731 35.007507 
L 37.351586 34.57968 
L 37.36089 15.768544 
L 37.361804 14.578688 
L 37.461771 35.965515 
L 37.655968 36.559795 
L 37.785088 36.485494 
L 38.468576 35.820221 
L 39.537014 34.994833 
L 39.584969 34.547826 
L 39.594904 14.574382 
L 39.68857 35.908183 
L 39.885997 36.547797 
L 40.026593 36.464741 
L 40.887392 35.700474 
L 41.704721 35.106652 
L 41.806483 34.732113 
L 41.813104 31.52395 
L 41.819361 14.580987 
L 41.917522 35.932639 
L 42.116112 36.538352 
L 42.255172 36.451626 
L 43.068622 35.721213 
L 43.9442 35.070711 
L 44.027389 34.702394 
L 44.034637 30.435057 
L 44.039387 14.588435 
L 44.137888 35.926725 
L 44.33609 36.529335 
L 44.479612 36.439876 
L 45.265932 35.730914 
L 46.1609 35.068686 
L 46.244869 34.681195 
L 46.252864 28.993583 
L 46.256353 14.594135 
L 46.357453 35.940536 
L 46.550048 36.524362 
L 46.685805 36.448765 
L 47.334488 35.822449 
L 48.4131 34.986413 
L 48.461591 34.54067 
L 48.471587 14.594563 
L 48.564315 35.874259 
L 48.761107 36.515363 
L 48.90537 36.439025 
L 49.453696 35.886236 
L 49.72139 35.712019 
L 49.72199 35.82543 
L 49.843742 38.142718 
L 50.161937 40.631995 
L 50.489607 41.689209 
L 50.80551 42.100614 
L 51.180507 42.225922 
L 52.008928 42.114181 
L 53.412922 41.985268 
L 54.197326 41.954798 
L 54.197326 41.954798 
" clip-path="url(#p032b549846)" style="fill: none; stroke: #000000; stroke-linecap: square"/>
   </g>
  </g>
  <g id="axes_2">
   <g id="patch_3">
    <path d="M 66.282353 45 
L 115.517647 45 
L 115.517647 7.2 
L 66.282353 7.2 
z
" style="fill: #ffffff"/>
   </g>
   <g id="matplotlib.axis_3"/>
   <g id="matplotlib.axis_4"/>
   <g id="line2d_2">
    <path d="M 68.520321 38.25 
L 68.636961 39.28988 
L 68.95882 40.666747 
L 69.310765 41.348115 
L 69.674273 41.660509 
L 70.134037 41.781318 
L 71.339581 41.723936 
L 74.154183 41.68988 
L 78.964562 41.585196 
L 79.087168 38.516709 
L 79.305018 33.025415 
L 79.311837 12.80166 
L 79.410946 35.940557 
L 79.507545 36.161379 
L 79.552157 36.100684 
L 79.685992 35.45563 
L 79.74241 34.168242 
L 79.750732 13.946719 
L 79.846999 36.067365 
L 79.937424 36.290677 
L 79.98978 36.220152 
L 80.141138 35.521151 
L 80.210725 34.352253 
L 80.21932 13.998949 
L 80.317948 36.09574 
L 80.414239 36.336493 
L 80.455193 36.29695 
L 80.601341 35.75646 
L 80.726928 34.58881 
L 80.736135 14.092782 
L 80.831745 36.07559 
L 80.944503 36.374913 
L 80.979005 36.345842 
L 81.124945 35.904354 
L 81.317538 34.581595 
L 81.32723 14.296496 
L 81.418754 36.014848 
L 81.544649 36.382523 
L 81.568921 36.369053 
L 81.702419 36.054568 
L 81.990305 34.749151 
L 81.999787 32.987415 
L 82.00732 14.551343 
L 82.104396 35.991848 
L 82.229951 36.361821 
L 82.265699 36.34252 
L 82.420605 35.990424 
L 82.76417 34.642144 
L 82.772621 32.659878 
L 82.779974 14.768304 
L 82.879852 35.949213 
L 83.019509 36.329926 
L 83.04479 36.315617 
L 83.204654 35.990205 
L 83.599126 34.804337 
L 83.638839 33.96174 
L 83.647694 14.979511 
L 83.745432 35.867011 
L 83.891227 36.290919 
L 83.913519 36.282551 
L 84.056357 36.03872 
L 84.556132 34.695326 
L 84.58488 33.775462 
L 84.593494 15.108072 
L 84.688503 35.788821 
L 84.838785 36.252632 
L 84.860321 36.246837 
L 84.989061 36.059038 
L 85.574847 34.611907 
L 85.595701 33.706045 
L 85.604229 15.180557 
L 85.700414 35.756946 
L 85.862269 36.223366 
L 85.869546 36.22201 
L 85.99418 36.059967 
L 86.638629 34.595595 
L 86.664064 33.652333 
L 86.672711 15.281266 
L 86.767591 35.697345 
L 86.939095 36.186074 
L 87.084589 36.000082 
L 87.741721 34.600823 
L 87.770555 33.804126 
L 87.779487 15.331658 
L 87.875065 35.664684 
L 88.043776 36.152611 
L 88.052096 36.151059 
L 88.183893 35.994908 
L 88.901976 34.139032 
L 88.911718 15.329766 
L 89.004702 35.628212 
L 89.180083 36.134159 
L 89.30314 36.0062 
L 90.023881 34.623017 
L 90.063217 33.920428 
L 90.072347 15.379465 
L 90.170095 35.631905 
L 90.338219 36.106956 
L 90.346743 36.105074 
L 90.492485 35.937157 
L 91.231996 34.190314 
L 91.240639 19.951923 
L 91.242288 15.383028 
L 91.345238 35.649478 
L 91.517717 36.082344 
L 91.523281 36.081356 
L 91.632902 35.969111 
L 92.360267 34.671852 
L 92.413379 34.089838 
L 92.422989 15.395549 
L 92.514815 35.551075 
L 92.693689 36.064721 
L 92.821939 35.940725 
L 93.548885 34.660265 
L 93.601141 34.078345 
L 93.610778 15.415203 
L 93.702373 35.527067 
L 93.87792 36.041558 
L 93.881386 36.040721 
L 94.057466 35.85041 
L 94.778681 34.46535 
L 94.794368 33.447437 
L 94.802788 15.423378 
L 94.898402 35.546608 
L 95.079549 36.025152 
L 95.208762 35.902371 
L 95.953304 34.583407 
L 95.989339 33.903901 
L 95.998492 15.438934 
L 96.093943 35.530773 
L 96.270795 36.011519 
L 96.429624 35.85413 
L 97.166818 34.493363 
L 97.187076 33.584488 
L 97.19566 15.439315 
L 97.294654 35.549296 
L 97.477472 36.000187 
L 97.590274 35.899362 
L 98.359379 34.529135 
L 98.386183 33.744411 
L 98.395078 15.45156 
L 98.49228 35.524447 
L 98.667597 35.987914 
L 98.802799 35.870674 
L 99.540434 34.616366 
L 99.586507 34.014315 
L 99.595931 15.456926 
L 99.69113 35.505225 
L 99.872296 35.982802 
L 99.989075 35.887046 
L 100.727902 34.667337 
L 100.789169 34.092219 
L 100.799056 15.465961 
L 100.890501 35.468328 
L 101.068591 35.97188 
L 101.196089 35.872384 
L 101.885168 34.777948 
L 101.987099 34.27036 
L 101.99492 29.723076 
L 101.999352 15.469858 
L 102.09767 35.511928 
L 102.279586 35.965641 
L 102.413632 35.843086 
L 103.181366 34.443946 
L 103.197203 33.405501 
L 103.205516 15.481957 
L 103.302593 35.497721 
L 103.484567 35.959279 
L 103.614021 35.845352 
L 104.085221 35.13282 
L 104.373699 34.513918 
L 104.40047 33.757208 
L 104.409324 15.48857 
L 104.507034 35.495046 
L 104.689307 35.952873 
L 104.821754 35.835999 
L 105.565625 34.568611 
L 105.604007 33.91565 
L 105.61334 15.498698 
L 105.707723 35.466643 
L 105.888695 35.948763 
L 106.027708 35.829654 
L 106.754394 34.625047 
L 106.809777 34.050142 
L 106.819587 15.519686 
L 106.910109 35.431359 
L 107.08792 35.940119 
L 107.220573 35.84223 
L 107.963614 34.624373 
L 108.018282 34.006244 
L 108.027782 15.509335 
L 108.123123 35.466113 
L 108.301162 35.940074 
L 108.433937 35.833851 
L 108.803743 35.273061 
L 108.804901 35.477931 
L 108.940094 38.329786 
L 109.208208 40.666271 
L 109.506546 41.78548 
L 109.786618 42.225958 
L 110.105123 42.382976 
L 110.635963 42.344849 
L 112.122317 42.182851 
L 113.279679 42.153262 
L 113.279679 42.153262 
" clip-path="url(#p30010c1a55)" style="fill: none; stroke: #000000; stroke-linecap: square"/>
   </g>
  </g>
  <g id="axes_3">
   <g id="patch_4">
    <path d="M 125.364706 45 
L 174.6 45 
L 174.6 7.2 
L 125.364706 7.2 
z
" style="fill: #ffffff"/>
   </g>
   <g id="matplotlib.axis_5"/>
   <g id="matplotlib.axis_6"/>
   <g id="line2d_3">
    <path d="M 127.602674 38.25 
L 127.719314 39.28988 
L 128.041173 40.666747 
L 128.393118 41.348115 
L 128.756626 41.660509 
L 129.21639 41.781318 
L 130.421934 41.723936 
L 133.236536 41.68988 
L 138.04669 41.591486 
L 138.167662 36.362995 
L 138.200417 31.949771 
L 138.205647 11.900093 
L 138.270752 35.43924 
L 138.308623 35.176049 
L 138.426316 32.750411 
L 138.433725 16.447 
L 138.533319 35.208559 
L 138.563399 35.265554 
L 138.616888 35.114734 
L 138.719566 33.962378 
L 138.72807 29.635056 
L 138.732582 15.726081 
L 138.832086 35.325235 
L 138.854643 35.34977 
L 138.897511 35.243604 
L 139.013209 34.192484 
L 139.029705 32.00058 
L 139.036384 15.76515 
L 139.134039 35.269811 
L 139.161102 35.295958 
L 139.208165 35.170726 
L 139.330812 34.044568 
L 139.343668 31.452042 
L 139.349968 15.95617 
L 139.450534 35.20421 
L 139.473547 35.229917 
L 139.525325 35.110095 
L 139.650563 34.026268 
L 139.666043 31.831733 
L 139.672722 16.152518 
L 139.77089 35.114629 
L 139.799005 35.155838 
L 139.855631 35.025303 
L 139.980574 33.962311 
L 139.996219 31.501142 
L 140.002841 16.324038 
L 140.103906 35.056211 
L 140.132927 35.094749 
L 140.188982 34.96549 
L 140.308033 34.024363 
L 140.3295 32.100771 
L 140.336714 16.449701 
L 140.43633 34.996956 
L 140.47066 35.044714 
L 140.522388 34.931355 
L 140.641533 34.052587 
L 140.666689 32.208557 
L 140.673906 16.526117 
L 140.77217 34.955123 
L 140.810637 35.011369 
L 140.865579 34.884756 
L 140.981742 34.020041 
L 141.006044 32.146431 
L 141.013309 16.582308 
L 141.112597 34.925671 
L 141.148129 34.981056 
L 141.205999 34.854209 
L 141.323682 33.975414 
L 141.345699 31.992735 
L 141.352837 16.61363 
L 141.451842 34.906762 
L 141.487106 34.964221 
L 141.546778 34.838966 
L 141.663016 33.990123 
L 141.68722 32.029442 
L 141.694435 16.648507 
L 141.792006 34.877886 
L 141.830025 34.941938 
L 141.887052 34.823204 
L 141.998617 34.052479 
L 142.02744 32.25226 
L 142.03478 16.668234 
L 142.131241 34.854361 
L 142.169308 34.924481 
L 142.229128 34.80452 
L 142.350715 33.890255 
L 142.368577 31.803198 
L 142.375555 16.677439 
L 142.476909 34.864127 
L 142.515247 34.913577 
L 142.569857 34.798881 
L 142.694981 33.834217 
L 142.709944 31.423733 
L 142.716625 16.673169 
L 142.812844 34.835433 
L 142.855175 34.904569 
L 142.9096 34.795772 
L 143.03167 33.910258 
L 143.050288 31.895223 
L 143.057437 16.664293 
L 143.155708 34.839972 
L 143.196966 34.899642 
L 143.249151 34.794828 
L 143.371334 33.924513 
L 143.391193 31.931962 
L 143.398407 16.675949 
L 143.498394 34.833011 
L 143.535469 34.887035 
L 143.591729 34.779184 
L 143.702176 34.055411 
L 143.731141 32.401381 
L 143.738721 16.658156 
L 143.838753 34.830842 
L 143.876262 34.885452 
L 143.934708 34.768788 
L 144.048738 33.98547 
L 144.072219 32.154553 
L 144.079602 16.661121 
L 144.17976 34.825178 
L 144.219453 34.876435 
L 144.27358 34.767313 
L 144.392659 33.93528 
L 144.412344 31.980074 
L 144.419545 16.651053 
L 144.52097 34.827528 
L 144.557088 34.873359 
L 144.613875 34.76462 
L 144.728241 34.00922 
L 144.753566 32.18491 
L 144.76104 16.672356 
L 144.858314 34.79532 
L 144.899996 34.857219 
L 144.953187 34.75669 
L 145.074287 33.920937 
L 145.093331 31.982794 
L 145.100547 16.670539 
L 145.199505 34.79749 
L 145.240762 34.853308 
L 145.297436 34.738697 
L 145.423098 33.76109 
L 145.434022 30.860439 
L 145.440272 16.659104 
L 145.540341 34.800302 
L 145.580764 34.85106 
L 145.636012 34.741211 
L 145.760203 33.825107 
L 145.773519 31.398544 
L 145.780247 16.656158 
L 145.880302 34.795168 
L 145.918671 34.845842 
L 145.973393 34.745641 
L 146.097383 33.868915 
L 146.112636 31.705003 
L 146.119607 16.646949 
L 146.219644 34.792576 
L 146.255731 34.844397 
L 146.315869 34.734687 
L 146.436688 33.884524 
L 146.452522 31.700036 
L 146.459506 16.637356 
L 146.558723 34.786628 
L 146.594306 34.839439 
L 146.654968 34.733336 
L 146.769981 33.981343 
L 146.791776 32.150213 
L 146.799143 16.632064 
L 146.899387 34.788499 
L 146.936924 34.835945 
L 146.995315 34.728949 
L 147.092598 34.170673 
L 147.130895 32.748781 
L 147.138878 16.628934 
L 147.238427 34.779742 
L 147.274122 34.832769 
L 147.33596 34.720217 
L 147.452293 33.940682 
L 147.472041 31.940445 
L 147.47929 16.659136 
L 147.579138 34.763819 
L 147.614461 34.812896 
L 147.674749 34.708433 
L 147.793225 33.903022 
L 147.8103 31.735496 
L 147.817358 16.651738 
L 147.91634 34.763009 
L 147.954725 34.815237 
L 148.013081 34.714426 
L 148.136961 33.832826 
L 148.14974 31.376142 
L 148.156411 16.626982 
L 148.254783 34.763045 
L 148.293193 34.819509 
L 148.353768 34.710311 
L 148.457875 34.089894 
L 148.488711 32.545674 
L 148.496419 16.645562 
L 148.596518 34.758275 
L 148.636568 34.810204 
L 148.69364 34.699792 
L 148.810629 33.915038 
L 148.827545 31.953901 
L 148.834876 16.632423 
L 148.935961 34.766501 
L 148.973763 34.811563 
L 149.031633 34.706941 
L 149.138798 34.063937 
L 149.165877 32.497907 
L 149.173523 16.611148 
L 149.272627 34.764256 
L 149.315784 34.813851 
L 149.367738 34.717445 
L 149.488342 33.930925 
L 149.506482 31.895161 
L 149.513615 16.634952 
L 149.612502 34.746527 
L 149.650996 34.797828 
L 149.711206 34.691844 
L 149.819816 34.024111 
L 149.843878 32.331518 
L 149.851456 16.617047 
L 149.950426 34.753804 
L 149.987557 34.806047 
L 150.048626 34.701831 
L 150.165844 33.94151 
L 150.183686 32.068622 
L 150.19102 16.609337 
L 150.290355 34.753583 
L 150.333197 34.802009 
L 150.388108 34.701236 
L 150.503972 33.959509 
L 150.523084 32.09477 
L 150.530456 16.608531 
L 150.629644 34.750511 
L 150.668678 34.799919 
L 150.727232 34.695984 
L 150.811577 34.272999 
L 150.861059 33.049936 
L 150.869442 16.608088 
L 150.969404 34.748851 
L 151.007821 34.796059 
L 151.06702 34.693397 
L 151.17687 34.032987 
L 151.200774 32.351968 
L 151.208301 16.585872 
L 151.30577 34.748233 
L 151.349847 34.801938 
L 151.404511 34.700709 
L 151.509692 34.103482 
L 151.539492 32.734682 
L 151.547392 16.581114 
L 151.646963 34.755648 
L 151.684628 34.802565 
L 151.741125 34.711453 
L 151.8592 33.992797 
L 151.880024 32.157619 
L 151.887456 16.591409 
L 151.986348 34.744203 
L 152.026441 34.793678 
L 152.084594 34.69274 
L 152.198174 33.994238 
L 152.218608 32.282124 
L 152.225996 16.59306 
L 152.325899 34.752571 
L 152.36504 34.798625 
L 152.423431 34.696673 
L 152.534182 34.043103 
L 152.558903 32.447971 
L 152.566571 16.594916 
L 152.66578 34.738637 
L 152.700756 34.788028 
L 152.764252 34.685899 
L 152.877016 33.999977 
L 152.898278 32.286341 
L 152.905802 16.59403 
L 153.006905 34.743607 
L 153.05266 34.782848 
L 153.103665 34.684789 
L 153.222731 33.906337 
L 153.237368 31.860706 
L 153.244499 16.576835 
L 153.34325 34.743779 
L 153.382193 34.791957 
L 153.441705 34.693138 
L 153.550694 34.06302 
L 153.576232 32.499743 
L 153.583903 16.567767 
L 153.681727 34.739951 
L 153.724525 34.791743 
L 153.78171 34.690964 
L 153.883272 34.135062 
L 153.915616 32.681082 
L 153.92353 16.569357 
L 154.023251 34.744089 
L 154.064283 34.787442 
L 154.120979 34.687945 
L 154.215056 34.203739 
L 154.255089 32.907342 
L 154.263221 16.581302 
L 154.363425 34.736391 
L 154.405929 34.779872 
L 154.45699 34.695657 
L 154.575118 33.987473 
L 154.594932 32.168585 
L 154.602354 16.578593 
L 154.702594 34.738699 
L 154.738728 34.782727 
L 154.79895 34.685701 
L 154.913373 34.000363 
L 154.933652 32.300584 
L 154.941254 16.56553 
L 155.039814 34.739178 
L 155.075112 34.789266 
L 155.139172 34.688648 
L 155.248638 34.056538 
L 155.273664 32.473727 
L 155.281378 16.559954 
L 155.382124 34.740298 
L 155.421453 34.781261 
L 155.479292 34.683191 
L 155.593962 33.99304 
L 155.613941 32.29089 
L 155.621494 16.574223 
L 155.721351 34.733023 
L 155.759251 34.778963 
L 155.819585 34.678807 
L 155.930285 34.037492 
L 155.954885 32.393933 
L 155.96253 16.592716 
L 156.061835 34.723742 
L 156.101972 34.772526 
L 156.160181 34.673994 
L 156.257543 34.165129 
L 156.293197 32.76944 
L 156.30114 16.573138 
L 156.402106 34.739769 
L 156.447374 34.778303 
L 156.498744 34.684617 
L 156.594396 34.195718 
L 156.632934 32.905713 
L 156.641087 16.558777 
L 156.739038 34.729809 
L 156.779746 34.782174 
L 156.838837 34.683223 
L 156.939465 34.148335 
L 156.973162 32.823458 
L 156.981203 16.568565 
L 157.079904 34.72596 
L 157.12305 34.772944 
L 157.176401 34.686617 
L 157.290767 34.027503 
L 157.31306 32.505928 
L 157.320831 16.570686 
L 157.419871 34.724235 
L 157.46069 34.770741 
L 157.518657 34.674494 
L 157.636273 33.946092 
L 157.65309 31.991839 
L 157.660463 16.580881 
L 157.758482 34.719747 
L 157.802207 34.769059 
L 157.858426 34.671113 
L 157.965565 34.073392 
L 157.991822 32.742207 
L 157.999891 16.572646 
L 158.097218 34.725212 
L 158.140713 34.775839 
L 158.19319 34.693515 
L 158.313072 33.991187 
L 158.33213 32.312759 
L 158.339695 16.55576 
L 158.439734 34.731516 
L 158.475441 34.775572 
L 158.538111 34.676847 
L 158.646757 34.065253 
L 158.671924 32.534963 
L 158.679632 16.562014 
L 158.778311 34.724274 
L 158.813331 34.773547 
L 158.877341 34.678206 
L 158.997596 33.927777 
L 159.012649 31.903034 
L 159.019842 16.560425 
L 159.118607 34.723868 
L 159.163332 34.769483 
L 159.214446 34.686384 
L 159.328773 34.04466 
L 159.351974 32.453584 
L 159.359652 16.550104 
L 159.459901 34.733043 
L 159.498744 34.776049 
L 159.557812 34.678817 
L 159.667672 34.061307 
L 159.693101 32.536043 
L 159.700885 16.576378 
L 159.800459 34.715788 
L 159.841093 34.759812 
L 159.898458 34.667082 
L 160.011671 34.00797 
L 160.032409 32.388417 
L 160.040049 16.570738 
L 160.136143 34.709515 
L 160.177015 34.765356 
L 160.238669 34.668449 
L 160.352217 34.000947 
L 160.372471 32.264451 
L 160.380018 16.568816 
L 160.481358 34.725387 
L 160.519469 34.765052 
L 160.578662 34.668521 
L 160.683555 34.098337 
L 160.712104 32.666139 
L 160.720036 16.56811 
L 160.819709 34.719981 
L 160.864105 34.762251 
L 160.918911 34.666821 
L 161.031805 34.007237 
L 161.0522 32.388139 
L 161.059787 16.562512 
L 161.160843 34.726653 
L 161.204923 34.764786 
L 161.258103 34.672349 
L 161.379282 33.905773 
L 161.392951 31.733741 
L 161.399988 16.561001 
L 161.500297 34.724779 
L 161.539503 34.765508 
L 161.597486 34.673 
L 161.707062 34.067763 
L 161.733048 32.618504 
L 161.740885 16.577879 
L 161.839457 34.70867 
L 161.877299 34.755512 
L 161.938791 34.662946 
L 162.044824 34.088827 
L 162.073297 32.587478 
L 162.081119 16.5783 
L 162.181651 34.71927 
L 162.22217 34.759418 
L 162.27923 34.667083 
L 162.401216 33.890414 
L 162.414072 31.878656 
L 162.421278 16.570048 
L 162.5197 34.712527 
L 162.566922 34.75852 
L 162.620773 34.665412 
L 162.735886 33.974908 
L 162.753908 32.190197 
L 162.761475 16.570632 
L 162.862461 34.723845 
L 162.904386 34.760937 
L 162.958741 34.669971 
L 163.076052 33.978656 
L 163.094095 32.281835 
L 163.101669 16.5573 
L 163.20037 34.717293 
L 163.243964 34.761632 
L 163.297902 34.675971 
L 163.417305 33.976129 
L 163.43556 32.233435 
L 163.442988 16.56939 
L 163.543799 34.718815 
L 163.585371 34.757014 
L 163.64133 34.66462 
L 163.744089 34.123935 
L 163.775186 32.774215 
L 163.783223 16.568377 
L 163.881373 34.710891 
L 163.925602 34.75756 
L 163.982483 34.661984 
L 164.092236 34.044511 
L 164.115934 32.454165 
L 164.123653 16.561605 
L 164.224068 34.715927 
L 164.267506 34.757219 
L 164.323026 34.662157 
L 164.435523 34.011623 
L 164.45679 32.299945 
L 164.46434 16.574134 
L 164.564098 34.711294 
L 164.605722 34.754274 
L 164.663046 34.65987 
L 164.776056 34.010376 
L 164.797093 32.408379 
L 164.804731 16.577272 
L 164.904359 34.707718 
L 164.949625 34.751979 
L 165.003319 34.658507 
L 165.118207 33.983078 
L 165.136624 32.259518 
L 165.144189 16.562033 
L 165.243914 34.71763 
L 165.291127 34.759735 
L 165.341434 34.670811 
L 165.455065 34.032414 
L 165.4771 32.563259 
L 165.484973 16.556345 
L 165.583911 34.718637 
L 165.622958 34.765154 
L 165.683582 34.669563 
L 165.802923 33.943381 
L 165.818517 32.01841 
L 165.825838 16.553738 
L 165.925579 34.719801 
L 165.968604 34.761083 
L 166.023993 34.668727 
L 166.134889 34.052617 
L 166.158848 32.59315 
L 166.166618 16.561102 
L 166.265105 34.712471 
L 166.307898 34.759353 
L 166.364273 34.663862 
L 166.465178 34.151575 
L 166.500082 32.830686 
L 166.50823 16.583346 
L 166.607542 34.70593 
L 166.652276 34.748075 
L 166.704854 34.658356 
L 166.807024 34.13729 
L 166.83983 32.756931 
L 166.847795 16.570754 
L 166.947227 34.713462 
L 166.989141 34.756107 
L 167.045974 34.664162 
L 167.14756 34.144179 
L 167.18108 32.812941 
L 167.18916 16.574276 
L 167.287693 34.70518 
L 167.329126 34.750835 
L 167.386999 34.659645 
L 167.509257 33.890747 
L 167.522013 31.675124 
L 167.529014 16.566894 
L 167.626086 34.704837 
L 167.666946 34.756602 
L 167.728389 34.660795 
L 167.839985 34.033758 
L 167.862367 32.449424 
L 167.870021 16.565744 
L 167.966639 37.261606 
L 168.181683 40.488007 
L 168.466506 41.952343 
L 168.732119 42.478426 
L 169.016849 42.65469 
L 169.462855 42.617002 
L 170.718997 42.395939 
L 172.362032 42.327353 
L 172.362032 42.327353 
" clip-path="url(#p9341599850)" style="fill: none; stroke: #000000; stroke-linecap: square"/>
   </g>
  </g>
  <g id="axes_4">
   <g id="patch_5">
    <path d="M 7.2 90.36 
L 56.435294 90.36 
L 56.435294 52.56 
L 7.2 52.56 
z
" style="fill: #ffffff"/>
   </g>
   <g id="matplotlib.axis_7"/>
   <g id="matplotlib.axis_8"/>
   <g id="line2d_4">
    <path d="M 9.437968 83.61 
L 9.57643 83.718263 
L 10.309857 84.093808 
L 11.415848 84.404423 
L 13.066974 84.618761 
L 16.03642 84.768588 
L 22.630521 84.815551 
L 31.444969 84.71626 
L 31.572381 80.875103 
L 31.593922 77.649243 
L 31.616736 55.794376 
L 31.709856 75.839323 
L 31.8567 81.93889 
L 32.050225 82.990442 
L 32.442198 83.706542 
L 32.83971 84.055799 
L 33.474884 84.285913 
L 35.839265 84.764366 
L 37.750653 84.916236 
L 41.320033 84.902216 
L 51.792626 84.8409 
L 54.197326 84.840412 
L 54.197326 84.840412 
" clip-path="url(#p1eb82dd20c)" style="fill: none; stroke: #000000; stroke-linecap: square"/>
   </g>
  </g>
  <g id="axes_5">
   <g id="patch_6">
    <path d="M 66.282353 90.36 
L 115.517647 90.36 
L 115.517647 52.56 
L 66.282353 52.56 
z
" style="fill: #ffffff"/>
   </g>
   <g id="matplotlib.axis_9"/>
   <g id="matplotlib.axis_10"/>
   <g id="line2d_5">
    <path d="M 68.520321 83.61 
L 68.964123 83.552596 
L 69.957702 83.442995 
L 71.729138 83.505478 
L 75.763118 83.676738 
L 83.721234 83.690904 
L 90.755161 83.575432 
L 90.829956 83.033799 
L 90.921178 80.323241 
L 91.022512 69.20991 
L 91.066135 66.654554 
L 91.132578 69.126795 
L 91.360416 75.122176 
L 91.747722 77.07951 
L 92.312939 80.153093 
L 92.827544 82.055544 
L 93.32293 83.058608 
L 93.686056 83.456685 
L 94.303837 83.798872 
L 95.127544 83.956597 
L 96.470445 83.95354 
L 102.111486 83.718812 
L 113.279679 83.698699 
L 113.279679 83.698699 
" clip-path="url(#p678bd97d41)" style="fill: none; stroke: #000000; stroke-linecap: square"/>
   </g>
  </g>
  <g id="axes_6">
   <g id="patch_7">
    <path d="M 125.364706 90.36 
L 174.6 90.36 
L 174.6 52.56 
L 125.364706 52.56 
z
" style="fill: #ffffff"/>
   </g>
   <g id="matplotlib.axis_11"/>
   <g id="matplotlib.axis_12"/>
   <g id="line2d_6">
    <path d="M 127.602674 83.61 
L 128.046476 83.411277 
L 128.769805 83.221159 
L 129.850803 83.170387 
L 140.795227 83.394991 
L 149.905466 83.276643 
L 149.993646 82.725847 
L 150.092592 80.197932 
L 150.210778 72.217493 
L 150.32172 73.554323 
L 150.391116 73.901611 
L 150.442769 73.688891 
L 150.55699 73.209561 
L 150.606904 73.305782 
L 150.756281 74.268159 
L 151.493011 79.265598 
L 151.984766 81.603678 
L 152.405283 82.676406 
L 152.768409 83.179311 
L 153.38619 83.581348 
L 154.209897 83.7419 
L 155.552798 83.703309 
L 159.484739 83.44943 
L 166.060027 83.394288 
L 172.362032 83.398382 
L 172.362032 83.398382 
" clip-path="url(#pb8aadd162b)" style="fill: none; stroke: #000000; stroke-linecap: square"/>
   </g>
  </g>
 </g>
 <defs>
  <clipPath id="p032b549846">
   <rect x="7.2" y="7.2" width="49.235294" height="37.8"/>
  </clipPath>
  <clipPath id="p30010c1a55">
   <rect x="66.282353" y="7.2" width="49.235294" height="37.8"/>
  </clipPath>
  <clipPath id="p9341599850">
   <rect x="125.364706" y="7.2" width="49.235294" height="37.8"/>
  </clipPath>
  <clipPath id="p1eb82dd20c">
   <rect x="7.2" y="52.56" width="49.235294" height="37.8"/>
  </clipPath>
  <clipPath id="p678bd97d41">
   <rect x="66.282353" y="52.56" width="49.235294" height="37.8"/>
  </clipPath>
  <clipPath id="pb8aadd162b">
   <rect x="125.364706" y="52.56" width="49.235294" height="37.8"/>
  </clipPath>
 </defs>
</svg>
