<?xml version="1.0" encoding="utf-8" standalone="no"?>
<!DOCTYPE svg PUBLIC "-//W3C//DTD SVG 1.1//EN"
  "http://www.w3.org/Graphics/SVG/1.1/DTD/svg11.dtd">
<svg xmlns:xlink="http://www.w3.org/1999/xlink" width="261.48375pt" height="45.62pt" viewBox="0 0 261.48375 45.62" xmlns="http://www.w3.org/2000/svg" version="1.1">
 <metadata>
  <rdf:RDF xmlns:dc="http://purl.org/dc/elements/1.1/" xmlns:cc="http://creativecommons.org/ns#" xmlns:rdf="http://www.w3.org/1999/02/22-rdf-syntax-ns#">
   <cc:Work>
    <dc:type rdf:resource="http://purl.org/dc/dcmitype/StillImage"/>
    <dc:date>2022-04-19T15:52:57.383244</dc:date>
    <dc:format>image/svg+xml</dc:format>
    <dc:creator>
     <cc:Agent>
      <dc:title>Matplotlib v3.5.1, https://matplotlib.org/</dc:title>
     </cc:Agent>
    </dc:creator>
   </cc:Work>
  </rdf:RDF>
 </metadata>
 <defs>
  <style type="text/css">*{stroke-linejoin: round; stroke-linecap: butt}</style>
 </defs>
 <g id="figure_1">
  <g id="patch_1">
   <path d="M 0 45.62 
L 261.48375 45.62 
L 261.48375 0 
L 0 0 
z
" style="fill: #ffffff"/>
  </g>
  <g id="axes_1">
   <g id="patch_2">
    <path d="M 31.08375 34.92 
L 79.605489 34.92 
L 79.605489 7.2 
L 31.08375 7.2 
z
" style="fill: #ffffff"/>
   </g>
   <g id="matplotlib.axis_1"/>
   <g id="matplotlib.axis_2">
    <g id="ytick_1">
     <g id="line2d_1">
      <defs>
       <path id="mc50eecb028" d="M 0 0 
L -3.5 0 
" style="stroke: #000000; stroke-width: 1.5"/>
      </defs>
      <g>
       <use xlink:href="#mc50eecb028" x="31.08375" y="27.238864" style="stroke: #000000; stroke-width: 1.5"/>
      </g>
     </g>
     <g id="text_1">
      <text style="font: 8px 'serif'; text-anchor: end" x="24.08375" y="30.278239" transform="rotate(-0, 24.08375, 30.278239)">−50</text>
     </g>
    </g>
    <g id="ytick_2">
     <g id="line2d_2">
      <g>
       <use xlink:href="#mc50eecb028" x="31.08375" y="16.067725" style="stroke: #000000; stroke-width: 1.5"/>
      </g>
     </g>
     <g id="text_2">
      <text style="font: 8px 'serif'; text-anchor: end" x="24.08375" y="19.1071" transform="rotate(-0, 24.08375, 19.1071)">0</text>
     </g>
    </g>
   </g>
   <g id="line2d_3">
    <path d="M 33.289284 30.590206 
L 33.396557 31.464938 
L 33.690413 32.625224 
L 34.012604 33.21291 
L 34.433304 33.520755 
L 35.022283 33.593409 
L 40.486735 33.510512 
L 43.582505 33.403 
L 43.707252 31.335337 
L 43.95603 27.439852 
L 43.96282 8.46 
L 44.004816 28.88462 
L 44.066995 27.617892 
L 44.15305 21.537155 
L 44.157489 17.20286 
L 44.239946 25.446613 
L 44.260357 25.365346 
L 44.318344 24.062314 
L 44.338718 21.345696 
L 44.41617 24.983743 
L 44.513863 25.469811 
L 44.559453 25.37183 
L 44.634147 24.647261 
L 44.673564 21.93461 
L 44.740902 24.662 
L 44.827501 25.041104 
L 44.876449 24.941916 
L 44.940457 24.149731 
L 44.971079 22.686541 
L 45.034421 24.649339 
L 45.135935 25.252748 
L 45.176651 25.177753 
L 45.246451 24.475291 
L 45.284229 22.238683 
L 45.349156 24.661367 
L 45.438501 25.113226 
L 45.48394 25.021728 
L 45.549386 24.230734 
L 45.580867 22.502921 
L 45.645347 24.654012 
L 45.739184 25.180466 
L 45.786103 25.081363 
L 45.850225 24.298296 
L 45.882376 22.303315 
L 45.94744 24.680179 
L 46.033537 25.131527 
L 46.084156 25.019346 
L 46.148372 24.10922 
L 46.175197 22.402226 
L 46.243826 24.723395 
L 46.327791 25.158403 
L 46.375186 25.060737 
L 46.442367 24.190314 
L 46.47133 22.321553 
L 46.53847 24.710141 
L 46.621454 25.12541 
L 46.673223 24.999592 
L 46.734156 24.115067 
L 46.761818 22.364015 
L 46.828551 24.71826 
L 46.915034 25.16242 
L 46.965102 25.040244 
L 47.019723 24.36765 
L 47.053553 22.241412 
L 47.1184 24.703533 
L 47.201828 25.139794 
L 47.253504 25.008729 
L 47.314342 24.086865 
L 47.341193 22.303788 
L 47.410248 24.768801 
L 47.490474 25.165131 
L 47.543681 25.031647 
L 47.606671 24.028335 
L 47.631793 22.228709 
L 47.70196 24.783349 
L 47.779647 25.147725 
L 47.828991 25.028215 
L 47.889511 24.170812 
L 47.916917 22.232029 
L 47.985906 24.772429 
L 48.068975 25.178175 
L 48.120379 25.050185 
L 48.182978 24.059479 
L 48.2077 22.154337 
L 48.278001 24.793787 
L 48.353402 25.166229 
L 48.408246 25.038358 
L 48.468869 24.137371 
L 48.495727 22.165257 
L 48.563585 24.775812 
L 48.647934 25.200236 
L 48.696636 25.086536 
L 48.759293 24.26873 
L 48.788488 22.081771 
L 48.856464 24.775673 
L 48.943101 25.191623 
L 48.990873 25.0647 
L 49.053181 24.097815 
L 49.077684 22.064092 
L 49.148094 24.816144 
L 49.23178 25.2247 
L 49.282793 25.11329 
L 49.346475 24.298661 
L 49.376533 22.011842 
L 49.443497 24.782122 
L 49.532797 25.227748 
L 49.57916 25.124192 
L 49.637887 24.494855 
L 49.673432 21.963107 
L 49.737087 24.742477 
L 49.830414 25.257939 
L 49.876831 25.171087 
L 49.944184 24.470496 
L 49.978445 21.907073 
L 50.044535 24.782598 
L 50.13579 25.264872 
L 50.184923 25.175972 
L 50.250473 24.500201 
L 50.284941 21.869637 
L 50.351135 24.788415 
L 50.447049 25.298892 
L 50.493599 25.226664 
L 50.562668 24.629132 
L 50.601619 21.792827 
L 50.666269 24.769814 
L 50.767718 25.31289 
L 50.810863 25.249281 
L 50.878699 24.749897 
L 50.919692 21.997681 
L 50.924225 21.746077 
L 51.002097 24.956139 
L 51.09807 25.349986 
L 51.141578 25.288141 
L 51.21409 24.74887 
L 51.255 21.810443 
L 51.258111 21.667582 
L 51.326921 24.839891 
L 51.43989 25.36019 
L 51.472656 25.324138 
L 51.546978 24.921534 
L 51.590219 23.068122 
L 51.601748 21.590525 
L 51.687455 25.050369 
L 51.789978 25.422907 
L 51.832367 25.372694 
L 51.903683 24.978196 
L 51.948318 23.167367 
L 51.959984 21.494221 
L 52.047172 25.054309 
L 52.160114 25.424482 
L 52.195706 25.389135 
L 52.271459 25.002122 
L 52.317369 23.17571 
L 52.328867 21.450574 
L 52.415653 25.061302 
L 52.549297 25.496927 
L 52.571625 25.479085 
L 52.642329 25.238298 
L 52.700845 24.099505 
L 52.721791 21.279259 
L 52.798807 24.95899 
L 52.948682 25.492331 
L 52.955435 25.489938 
L 53.029714 25.315261 
L 53.093865 24.457379 
L 53.121322 21.216395 
L 53.192606 24.899104 
L 53.359096 25.598138 
L 53.428467 25.520204 
L 53.431936 25.510486 
L 53.508244 24.912848 
L 53.543532 22.095153 
L 53.549817 20.984834 
L 53.641736 25.102701 
L 53.789317 25.494878 
L 53.801682 25.489794 
L 53.874327 25.301937 
L 53.935324 24.349117 
L 53.959814 21.117068 
L 54.032542 24.938351 
L 54.208924 25.798644 
L 54.269353 25.834943 
L 54.310587 25.760814 
L 54.387728 25.170235 
L 54.425708 22.6713 
L 54.434222 20.422369 
L 54.528366 25.085301 
L 54.573675 25.191394 
L 54.629262 25.029943 
L 54.680715 24.024378 
L 54.701717 21.634357 
L 54.775889 25.054176 
L 54.969755 30.088519 
L 55.148706 32.281048 
L 55.354415 32.694364 
L 55.548985 32.720102 
L 55.831098 32.531484 
L 56.147102 32.090585 
L 56.688992 30.850942 
L 57.468604 28.452399 
L 57.476507 17.938116 
L 57.478061 9.18928 
L 57.515306 28.696348 
L 57.586294 27.287143 
L 57.695841 22.482981 
L 57.702283 18.736862 
L 57.79982 25.806808 
L 57.929995 26.148006 
L 57.953863 26.126532 
L 58.019522 25.820884 
L 58.090176 24.277393 
L 58.107353 19.986062 
L 58.193283 24.989887 
L 58.225201 25.070008 
L 58.2749 24.846436 
L 58.318515 23.246373 
L 58.331386 21.784544 
L 58.412489 25.21286 
L 58.551751 29.383767 
L 58.724627 32.197652 
L 58.938212 32.71655 
L 59.18709 32.759522 
L 59.511545 32.544295 
L 59.931546 31.923303 
L 60.481508 30.605347 
L 61.171749 28.44964 
L 61.179433 19.367497 
L 61.18117 9.19093 
L 61.288968 29.027162 
L 61.436143 31.909998 
L 61.61927 32.41601 
L 61.778907 32.440193 
L 62.043064 32.179217 
L 62.479214 31.373201 
L 63.489961 28.838525 
L 63.523919 28.080687 
L 63.532001 9.228409 
L 63.633072 28.82954 
L 63.788746 31.972192 
L 63.990725 32.426234 
L 64.16674 32.432546 
L 64.421165 32.192111 
L 64.882265 31.35431 
L 65.87759 28.85512 
L 65.913065 28.157966 
L 65.921199 9.213353 
L 66.021071 29.385613 
L 66.165085 31.970138 
L 66.366925 32.477733 
L 66.558481 32.48768 
L 66.802639 32.249362 
L 67.216228 31.519868 
L 68.234585 29.052777 
L 68.319757 28.374439 
L 68.328626 9.200755 
L 68.425531 29.26015 
L 68.5729 32.006784 
L 68.764467 32.515669 
L 68.959448 32.535842 
L 69.213469 32.295545 
L 69.646824 31.541083 
L 70.675155 29.053431 
L 70.757453 28.370417 
L 70.766237 9.191054 
L 70.863924 29.184402 
L 71.017914 32.06259 
L 71.211627 32.55754 
L 71.378475 32.580189 
L 71.604211 32.398701 
L 72.002338 31.774579 
L 72.665884 30.247655 
L 72.988888 29.471499 
L 72.99256 29.728778 
L 73.139678 31.427939 
L 73.453187 32.835532 
L 73.797162 33.423474 
L 74.13586 33.624065 
L 74.722255 33.642452 
L 76.843419 33.513874 
L 77.399956 33.511627 
L 77.399956 33.511627 
" clip-path="url(#pdac8815ee2)" style="fill: none; stroke: #1f77b4; stroke-width: 1.5; stroke-linecap: square"/>
   </g>
   <g id="patch_3">
    <path d="M 31.08375 34.92 
L 31.08375 7.2 
" style="fill: none; stroke: #000000; stroke-width: 1.5; stroke-linejoin: miter; stroke-linecap: square"/>
   </g>
   <g id="patch_4">
    <path d="M 31.08375 34.92 
L 79.605489 34.92 
" style="fill: none; stroke: #000000; stroke-width: 1.5; stroke-linejoin: miter; stroke-linecap: square"/>
   </g>
  </g>
  <g id="axes_2">
   <g id="patch_5">
    <path d="M 89.309837 34.92 
L 137.831576 34.92 
L 137.831576 7.2 
L 89.309837 7.2 
z
" style="fill: #ffffff"/>
   </g>
   <g id="matplotlib.axis_3"/>
   <g id="matplotlib.axis_4">
    <g id="ytick_3">
     <g id="line2d_4">
      <g>
       <use xlink:href="#mc50eecb028" x="89.309837" y="26.276768" style="stroke: #000000; stroke-width: 1.5"/>
      </g>
     </g>
     <g id="text_3">
      <text style="font: 8px 'serif'; text-anchor: end" x="82.309837" y="29.316143" transform="rotate(-0, 82.309837, 29.316143)">−50</text>
     </g>
    </g>
    <g id="ytick_4">
     <g id="line2d_5">
      <g>
       <use xlink:href="#mc50eecb028" x="89.309837" y="15.57803" style="stroke: #000000; stroke-width: 1.5"/>
      </g>
     </g>
     <g id="text_4">
      <text style="font: 8px 'serif'; text-anchor: end" x="82.309837" y="18.617405" transform="rotate(-0, 82.309837, 18.617405)">0</text>
     </g>
    </g>
   </g>
   <g id="line2d_6">
    <path d="M 91.515371 29.486389 
L 91.631712 30.319636 
L 91.952036 31.415621 
L 92.294227 31.943764 
L 92.726621 32.220058 
L 93.335465 32.295461 
L 99.68077 32.248394 
L 101.808592 32.15508 
L 101.933364 30.176093 
L 102.120639 27.001905 
L 102.131216 8.46 
L 102.219663 32.620684 
L 102.370393 32.816418 
L 103.052426 32.843832 
L 111.250308 33.066515 
L 111.478987 33.553085 
L 124.746508 33.50358 
L 128.615195 33.231943 
L 131.214975 32.898365 
L 131.217245 33.063168 
L 131.329933 33.521428 
L 131.554153 33.576151 
L 134.023996 33.460275 
L 135.626042 33.376709 
L 135.626042 33.376709 
" clip-path="url(#p0b6e5a9fad)" style="fill: none; stroke: #1f77b4; stroke-width: 1.5; stroke-linecap: square"/>
   </g>
   <g id="patch_6">
    <path d="M 89.309837 34.92 
L 89.309837 7.2 
" style="fill: none; stroke: #000000; stroke-width: 1.5; stroke-linejoin: miter; stroke-linecap: square"/>
   </g>
   <g id="patch_7">
    <path d="M 89.309837 34.92 
L 137.831576 34.92 
" style="fill: none; stroke: #000000; stroke-width: 1.5; stroke-linejoin: miter; stroke-linecap: square"/>
   </g>
  </g>
  <g id="axes_3">
   <g id="patch_8">
    <path d="M 147.535924 34.92 
L 196.057663 34.92 
L 196.057663 7.2 
L 147.535924 7.2 
z
" style="fill: #ffffff"/>
   </g>
   <g id="matplotlib.axis_5"/>
   <g id="matplotlib.axis_6">
    <g id="ytick_5">
     <g id="line2d_7">
      <g>
       <use xlink:href="#mc50eecb028" x="147.535924" y="26.218451" style="stroke: #000000; stroke-width: 1.5"/>
      </g>
     </g>
     <g id="text_5">
      <text style="font: 8px 'serif'; text-anchor: end" x="140.535924" y="29.257826" transform="rotate(-0, 140.535924, 29.257826)">−50</text>
     </g>
    </g>
    <g id="ytick_6">
     <g id="line2d_8">
      <g>
       <use xlink:href="#mc50eecb028" x="147.535924" y="14.655542" style="stroke: #000000; stroke-width: 1.5"/>
      </g>
     </g>
     <g id="text_6">
      <text style="font: 8px 'serif'; text-anchor: end" x="140.535924" y="17.694917" transform="rotate(-0, 140.535924, 17.694917)">0</text>
     </g>
    </g>
   </g>
   <g id="line2d_9">
    <path d="M 149.741458 29.687324 
L 149.846384 30.66136 
L 150.155701 31.928763 
L 150.520389 32.542038 
L 150.89998 32.778316 
L 151.431331 32.831713 
L 155.78841 32.746317 
L 160.034539 32.651647 
L 160.159393 30.531301 
L 160.44686 28.473667 
L 160.571902 27.492248 
L 160.582265 8.46 
L 160.668169 32.58649 
L 160.825544 33.546875 
L 161.046822 33.65418 
L 161.860199 33.620825 
L 163.009793 33.409526 
L 163.69955 33.064715 
L 164.389306 32.461031 
L 166.343617 30.52605 
L 167.263292 30.069514 
L 168.622103 29.687733 
L 172.253899 28.9945 
L 176.664308 28.354184 
L 178.78134 27.98215 
L 178.887393 27.769673 
L 178.897329 26.466168 
L 178.906299 8.763391 
L 179.002305 31.938685 
L 179.187111 33.376467 
L 179.381728 33.503818 
L 179.797088 33.39252 
L 180.43363 33.011423 
L 181.157316 32.326578 
L 182.709548 30.765955 
L 183.485663 30.322459 
L 184.603141 29.966301 
L 187.142921 29.489914 
L 189.441062 29.089769 
L 189.441653 29.186998 
L 189.565541 30.974494 
L 189.861489 32.520347 
L 190.173839 33.086813 
L 190.467814 33.24649 
L 190.963471 33.229684 
L 192.828612 33.007975 
L 193.852129 32.958586 
L 193.852129 32.958586 
" clip-path="url(#pc737f95f36)" style="fill: none; stroke: #1f77b4; stroke-width: 1.5; stroke-linecap: square"/>
   </g>
   <g id="patch_9">
    <path d="M 147.535924 34.92 
L 147.535924 7.2 
" style="fill: none; stroke: #000000; stroke-width: 1.5; stroke-linejoin: miter; stroke-linecap: square"/>
   </g>
   <g id="patch_10">
    <path d="M 147.535924 34.92 
L 196.057663 34.92 
" style="fill: none; stroke: #000000; stroke-width: 1.5; stroke-linejoin: miter; stroke-linecap: square"/>
   </g>
  </g>
  <g id="axes_4">
   <g id="patch_11">
    <path d="M 205.762011 34.92 
L 254.28375 34.92 
L 254.28375 7.2 
L 205.762011 7.2 
z
" style="fill: #ffffff"/>
   </g>
   <g id="matplotlib.axis_7"/>
   <g id="matplotlib.axis_8">
    <g id="ytick_7">
     <g id="line2d_10">
      <g>
       <use xlink:href="#mc50eecb028" x="205.762011" y="30.997636" style="stroke: #000000; stroke-width: 1.5"/>
      </g>
     </g>
     <g id="text_7">
      <text style="font: 8px 'serif'; text-anchor: end" x="198.762011" y="34.037011" transform="rotate(-0, 198.762011, 34.037011)">−75</text>
     </g>
    </g>
    <g id="ytick_8">
     <g id="line2d_11">
      <g>
       <use xlink:href="#mc50eecb028" x="205.762011" y="15.837225" style="stroke: #000000; stroke-width: 1.5"/>
      </g>
     </g>
     <g id="text_8">
      <text style="font: 8px 'serif'; text-anchor: end" x="198.762011" y="18.8766" transform="rotate(-0, 198.762011, 18.8766)">−50</text>
     </g>
    </g>
   </g>
   <g id="line2d_12">
    <path d="M 207.967544 24.933472 
L 208.075005 27.259847 
L 208.381108 30.397403 
L 208.69543 31.888021 
L 209.021045 32.617598 
L 209.360872 32.917311 
L 209.76229 32.97945 
L 212.909896 32.80961 
L 218.260035 32.826319 
L 218.26015 32.742635 
L 218.371215 27.401232 
L 218.703988 13.340019 
L 218.71253 8.71124 
L 218.808663 19.886806 
L 219.034466 21.206032 
L 219.249923 21.554931 
L 219.567992 21.694801 
L 220.203916 21.705035 
L 221.096373 21.518651 
L 221.694976 21.151443 
L 222.122986 20.566623 
L 222.398312 19.769156 
L 222.479462 18.711807 
L 222.49232 8.473836 
L 222.587501 19.102183 
L 222.824499 20.81387 
L 223.080923 21.367042 
L 223.415762 21.550211 
L 223.857167 21.542124 
L 224.397777 21.35159 
L 224.830266 20.993168 
L 225.224847 20.341585 
L 225.450159 19.471984 
L 225.489944 18.041539 
L 225.500376 8.46 
L 225.597746 19.050798 
L 225.843948 20.781491 
L 226.120176 21.359717 
L 226.414417 21.520789 
L 227.15903 21.434766 
L 227.58538 21.178715 
L 228.053765 20.58606 
L 228.355211 19.741853 
L 228.43598 18.731972 
L 228.449282 8.465876 
L 228.542604 19.013243 
L 228.77804 20.705039 
L 229.025036 21.29524 
L 229.350568 21.510855 
L 229.871418 21.493717 
L 230.411184 21.236216 
L 230.766232 20.883887 
L 231.059072 20.378884 
L 231.285332 19.616361 
L 231.349366 18.355261 
L 231.360458 8.461734 
L 231.457108 19.057653 
L 231.696724 20.724664 
L 231.957949 21.314347 
L 232.256708 21.503379 
L 232.696069 21.503289 
L 233.208235 21.295213 
L 233.694994 20.809328 
L 234.07262 20.004835 
L 234.218896 19.027427 
L 234.229374 15.374195 
L 234.238796 8.472468 
L 234.337242 19.08892 
L 234.590904 20.780933 
L 234.86628 21.344887 
L 235.19899 21.512826 
L 235.646245 21.484809 
L 236.143196 21.248208 
L 236.590451 20.761036 
L 236.925893 20.030233 
L 237.063989 19.267071 
L 237.087733 17.26491 
L 237.097601 8.464588 
L 237.197193 19.091874 
L 237.4401 20.737569 
L 237.717237 21.328627 
L 238.012849 21.500812 
L 238.382365 21.507731 
L 238.862736 21.32978 
L 239.235262 21.019979 
L 239.579363 20.509515 
L 239.841226 19.758799 
L 239.929071 18.827212 
L 239.935794 11.709134 
L 239.943549 8.475004 
L 240.041734 19.104817 
L 240.288411 20.758754 
L 240.551373 21.321926 
L 240.850396 21.499456 
L 241.29893 21.489593 
L 241.749019 21.294443 
L 242.16376 20.904397 
L 242.540781 20.218328 
L 242.746314 19.295018 
L 242.771587 17.644534 
L 242.78206 8.474554 
L 242.879135 19.122271 
L 243.129647 20.780135 
L 243.386432 21.324206 
L 243.737822 21.509455 
L 244.305451 21.433749 
L 244.958105 20.945199 
L 245.283269 20.416971 
L 245.539037 19.567977 
L 245.596919 18.472616 
L 245.608227 8.479576 
L 245.704231 19.094279 
L 245.94903 20.750372 
L 246.20902 21.317375 
L 246.520425 21.502787 
L 246.975827 21.483665 
L 247.450795 21.264247 
L 247.667149 21.078153 
L 247.667348 21.203486 
L 247.778436 25.979279 
L 248.048402 30.608819 
L 248.340817 32.679618 
L 248.604706 33.430732 
L 248.918741 33.66 
L 249.232776 33.561182 
L 250.370413 32.974007 
L 251.345531 32.847988 
L 252.078216 32.834423 
L 252.078216 32.834423 
" clip-path="url(#p62773c2cc5)" style="fill: none; stroke: #1f77b4; stroke-width: 1.5; stroke-linecap: square"/>
   </g>
   <g id="patch_12">
    <path d="M 205.762011 34.92 
L 205.762011 7.2 
" style="fill: none; stroke: #000000; stroke-width: 1.5; stroke-linejoin: miter; stroke-linecap: square"/>
   </g>
   <g id="patch_13">
    <path d="M 205.762011 34.92 
L 254.28375 34.92 
" style="fill: none; stroke: #000000; stroke-width: 1.5; stroke-linejoin: miter; stroke-linecap: square"/>
   </g>
  </g>
 </g>
 <defs>
  <clipPath id="pdac8815ee2">
   <rect x="31.08375" y="7.2" width="48.521739" height="27.72"/>
  </clipPath>
  <clipPath id="p0b6e5a9fad">
   <rect x="89.309837" y="7.2" width="48.521739" height="27.72"/>
  </clipPath>
  <clipPath id="pc737f95f36">
   <rect x="147.535924" y="7.2" width="48.521739" height="27.72"/>
  </clipPath>
  <clipPath id="p62773c2cc5">
   <rect x="205.762011" y="7.2" width="48.521739" height="27.72"/>
  </clipPath>
 </defs>
</svg>
