<?xml version="1.0" encoding="utf-8" standalone="no"?>
<!DOCTYPE svg PUBLIC "-//W3C//DTD SVG 1.1//EN"
  "http://www.w3.org/Graphics/SVG/1.1/DTD/svg11.dtd">
<svg xmlns:xlink="http://www.w3.org/1999/xlink" width="73.073125pt" height="75.028875pt" viewBox="0 0 73.073125 75.028875" xmlns="http://www.w3.org/2000/svg" version="1.1">
 <metadata>
  <rdf:RDF xmlns:dc="http://purl.org/dc/elements/1.1/" xmlns:cc="http://creativecommons.org/ns#" xmlns:rdf="http://www.w3.org/1999/02/22-rdf-syntax-ns#">
   <cc:Work>
    <dc:type rdf:resource="http://purl.org/dc/dcmitype/StillImage"/>
    <dc:date>2022-05-08T13:22:35.096867</dc:date>
    <dc:format>image/svg+xml</dc:format>
    <dc:creator>
     <cc:Agent>
      <dc:title>Matplotlib v3.5.1, https://matplotlib.org/</dc:title>
     </cc:Agent>
    </dc:creator>
   </cc:Work>
  </rdf:RDF>
 </metadata>
 <defs>
  <style type="text/css">*{stroke-linejoin: round; stroke-linecap: butt}</style>
 </defs>
 <g id="figure_1">
  <g id="patch_1">
   <path d="M 0 75.028875 
L 73.073125 75.028875 
L 73.073125 0 
L 0 0 
z
" style="fill: #ffffff"/>
  </g>
  <g id="axes_1">
   <g id="patch_2">
    <path d="M 18.64875 63.37575 
L 63.28875 63.37575 
L 63.28875 19.02375 
L 18.64875 19.02375 
z
" style="fill: #ffffff"/>
   </g>
   <g id="matplotlib.axis_1">
    <g id="xtick_1">
     <g id="line2d_1">
      <defs>
       <path id="m125dd52a00" d="M 0 0 
L 0 3.5 
" style="stroke: #000000; stroke-width: 1.5"/>
      </defs>
      <g>
       <use xlink:href="#m125dd52a00" x="18.64875" y="63.37575" style="stroke: #000000; stroke-width: 1.5"/>
      </g>
     </g>
    </g>
    <g id="xtick_2">
     <g id="line2d_2">
      <g>
       <use xlink:href="#m125dd52a00" x="63.28875" y="63.37575" style="stroke: #000000; stroke-width: 1.5"/>
      </g>
     </g>
    </g>
   </g>
   <g id="matplotlib.axis_2">
    <g id="ytick_1">
     <g id="line2d_3">
      <defs>
       <path id="meebaebf84c" d="M 0 0 
L -3.5 0 
" style="stroke: #000000; stroke-width: 1.5"/>
      </defs>
      <g>
       <use xlink:href="#meebaebf84c" x="18.64875" y="63.37575" style="stroke: #000000; stroke-width: 1.5"/>
      </g>
     </g>
     <g id="text_1">
      <text style="font: 8px 'Arial'; text-anchor: end" x="11.64875" y="66.238875" transform="rotate(-0, 11.64875, 66.238875)">0</text>
     </g>
    </g>
    <g id="ytick_2">
     <g id="line2d_4">
      <g>
       <use xlink:href="#meebaebf84c" x="18.64875" y="19.02375" style="stroke: #000000; stroke-width: 1.5"/>
      </g>
     </g>
     <g id="text_2">
      <text style="font: 8px 'Arial'; text-anchor: end" x="11.64875" y="21.886875" transform="rotate(-0, 11.64875, 21.886875)">1</text>
     </g>
    </g>
   </g>
   <g id="line2d_5">
    <path d="M 18.64875 63.37575 
L 63.28875 19.02375 
" clip-path="url(#p7a1aa7beb9)" style="fill: none; stroke: #808080; stroke-width: 1.5; stroke-linecap: square"/>
   </g>
   <g id="line2d_6">
    <path d="M 18.64875 63.37575 
L 19.55977 63.37575 
L 20.470791 63.37575 
L 21.381811 62.93223 
L 22.292832 62.48871 
L 23.203852 60.71463 
L 24.114873 60.27111 
L 25.025892 59.82759 
L 25.936913 59.82759 
L 26.847934 59.82759 
L 27.758954 59.82759 
L 28.669974 59.82759 
L 29.580995 58.94055 
L 30.492015 58.94055 
L 31.403035 58.05351 
L 32.314055 57.60999 
L 33.225076 57.60999 
L 34.136096 56.27943 
L 35.047118 56.27943 
L 35.958137 56.27943 
L 36.869157 55.39239 
L 37.780177 54.50535 
L 38.691199 53.17479 
L 39.602219 52.73127 
L 40.51324 51.40071 
L 41.42426 49.18311 
L 42.33528 47.85255 
L 43.2463 46.078471 
L 44.157323 45.63495 
L 45.068343 45.63495 
L 45.979363 44.747911 
L 46.890382 43.417351 
L 47.801402 42.97383 
L 48.712422 42.53031 
L 49.623442 40.75623 
L 50.534465 39.869191 
L 51.445485 38.982149 
L 52.356505 38.09511 
L 53.267525 37.208071 
L 54.178545 34.546951 
L 55.089568 31.442309 
L 56.000588 30.55527 
L 56.911608 30.11175 
L 57.82263 29.224711 
L 58.73365 28.781191 
L 59.64467 27.00711 
L 60.55569 24.78951 
L 61.46671 21.68487 
L 62.37773 20.797831 
L 63.28875 19.46727 
" clip-path="url(#p7a1aa7beb9)" style="fill: none; stroke: #000000; stroke-linecap: square"/>
   </g>
   <g id="line2d_7">
    <path d="M 18.64875 63.37575 
L 19.55977 63.37575 
L 20.470791 63.37575 
L 21.381811 63.37575 
L 22.292832 63.37575 
L 23.203852 62.93223 
L 24.114873 62.48871 
L 25.025892 62.04519 
L 25.936913 61.15815 
L 26.847934 60.27111 
L 27.758954 59.82759 
L 28.669974 59.38407 
L 29.580995 58.49703 
L 30.492015 58.49703 
L 31.403035 58.05351 
L 32.314055 57.60999 
L 33.225076 56.72295 
L 34.136096 56.27943 
L 35.047118 56.27943 
L 35.958137 55.83591 
L 36.869157 54.94887 
L 37.780177 54.06183 
L 38.691199 54.06183 
L 39.602219 53.17479 
L 40.51324 52.73127 
L 41.42426 52.28775 
L 42.33528 50.95719 
L 43.2463 50.070149 
L 44.157323 47.85255 
L 45.068343 46.52199 
L 45.979363 45.19143 
L 46.890382 43.86087 
L 47.801402 42.53031 
L 48.712422 41.19975 
L 49.623442 39.869191 
L 50.534465 38.982149 
L 51.445485 37.208071 
L 52.356505 34.990471 
L 53.267525 34.546951 
L 54.178545 32.77287 
L 55.089568 30.998789 
L 56.000588 29.66823 
L 56.911608 29.224711 
L 57.82263 28.781191 
L 58.73365 27.894149 
L 59.64467 27.00711 
L 60.55569 26.120071 
L 61.46671 21.68487 
L 62.37773 19.46727 
L 63.28875 19.02375 
" clip-path="url(#p7a1aa7beb9)" style="fill: none; stroke: #000000; stroke-linecap: square"/>
   </g>
   <g id="line2d_8">
    <path d="M 18.64875 63.37575 
L 19.55977 62.93223 
L 20.470791 62.93223 
L 21.381811 62.93223 
L 22.292832 62.93223 
L 23.203852 62.48871 
L 24.114873 62.04519 
L 25.025892 62.04519 
L 25.936913 61.15815 
L 26.847934 61.15815 
L 27.758954 60.71463 
L 28.669974 60.71463 
L 29.580995 60.27111 
L 30.492015 59.38407 
L 31.403035 58.05351 
L 32.314055 57.60999 
L 33.225076 56.72295 
L 34.136096 55.83591 
L 35.047118 55.83591 
L 35.958137 55.83591 
L 36.869157 55.39239 
L 37.780177 54.94887 
L 38.691199 54.50535 
L 39.602219 54.06183 
L 40.51324 51.40071 
L 41.42426 50.070149 
L 42.33528 48.29607 
L 43.2463 47.85255 
L 44.157323 45.63495 
L 45.068343 45.63495 
L 45.979363 45.63495 
L 46.890382 44.30439 
L 47.801402 42.97383 
L 48.712422 42.08679 
L 49.623442 41.19975 
L 50.534465 40.312711 
L 51.445485 38.09511 
L 52.356505 37.208071 
L 53.267525 36.764549 
L 54.178545 34.103429 
L 55.089568 31.885831 
L 56.000588 31.442309 
L 56.911608 28.781191 
L 57.82263 27.45063 
L 58.73365 24.78951 
L 59.64467 24.34599 
L 60.55569 22.12839 
L 61.46671 21.241351 
L 62.37773 20.797831 
L 63.28875 19.02375 
" clip-path="url(#p7a1aa7beb9)" style="fill: none; stroke: #000000; stroke-linecap: square"/>
   </g>
   <g id="line2d_9">
    <path d="M 18.64875 63.37575 
L 19.55977 63.37575 
L 20.470791 63.37575 
L 21.381811 62.93223 
L 22.292832 62.48871 
L 23.203852 61.60167 
L 24.114873 61.60167 
L 25.025892 61.15815 
L 25.936913 60.71463 
L 26.847934 60.27111 
L 27.758954 59.82759 
L 28.669974 59.82759 
L 29.580995 59.82759 
L 30.492015 59.38407 
L 31.403035 58.49703 
L 32.314055 57.60999 
L 33.225076 57.60999 
L 34.136096 56.72295 
L 35.047118 55.83591 
L 35.958137 55.83591 
L 36.869157 55.39239 
L 37.780177 53.61831 
L 38.691199 53.61831 
L 39.602219 52.73127 
L 40.51324 51.84423 
L 41.42426 50.51367 
L 42.33528 49.62663 
L 43.2463 49.18311 
L 44.157323 47.409029 
L 45.068343 46.078471 
L 45.979363 45.63495 
L 46.890382 42.97383 
L 47.801402 41.19975 
L 48.712422 41.19975 
L 49.623442 39.425669 
L 50.534465 37.651591 
L 51.445485 37.651591 
L 52.356505 36.321029 
L 53.267525 34.546951 
L 54.178545 33.659909 
L 55.089568 32.77287 
L 56.000588 31.885831 
L 56.911608 30.11175 
L 57.82263 28.337669 
L 58.73365 26.563591 
L 59.64467 25.233029 
L 60.55569 24.34599 
L 61.46671 22.12839 
L 62.37773 20.797831 
L 63.28875 19.02375 
" clip-path="url(#p7a1aa7beb9)" style="fill: none; stroke: #000000; stroke-linecap: square"/>
   </g>
   <g id="line2d_10">
    <path d="M 18.64875 63.37575 
L 19.55977 63.37575 
L 20.470791 63.37575 
L 21.381811 63.37575 
L 22.292832 62.93223 
L 23.203852 62.48871 
L 24.114873 62.04519 
L 25.025892 61.60167 
L 25.936913 61.15815 
L 26.847934 60.71463 
L 27.758954 60.27111 
L 28.669974 60.27111 
L 29.580995 57.60999 
L 30.492015 57.16647 
L 31.403035 57.16647 
L 32.314055 55.39239 
L 33.225076 55.39239 
L 34.136096 54.50535 
L 35.047118 53.61831 
L 35.958137 52.73127 
L 36.869157 52.28775 
L 37.780177 51.84423 
L 38.691199 51.40071 
L 39.602219 50.51367 
L 40.51324 49.18311 
L 41.42426 48.29607 
L 42.33528 47.409029 
L 43.2463 46.52199 
L 44.157323 46.078471 
L 45.068343 45.19143 
L 45.979363 44.30439 
L 46.890382 42.97383 
L 47.801402 41.64327 
L 48.712422 40.75623 
L 49.623442 39.425669 
L 50.534465 38.982149 
L 51.445485 38.09511 
L 52.356505 35.87751 
L 53.267525 34.103429 
L 54.178545 33.659909 
L 55.089568 32.77287 
L 56.000588 31.885831 
L 56.911608 30.55527 
L 57.82263 27.45063 
L 58.73365 26.563591 
L 59.64467 25.676549 
L 60.55569 24.34599 
L 61.46671 21.68487 
L 62.37773 20.354309 
L 63.28875 19.46727 
" clip-path="url(#p7a1aa7beb9)" style="fill: none; stroke: #000000; stroke-linecap: square"/>
   </g>
   <g id="line2d_11">
    <path d="M 18.64875 63.37575 
L 19.55977 62.93223 
L 20.470791 62.93223 
L 21.381811 62.93223 
L 22.292832 62.04519 
L 23.203852 62.04519 
L 24.114873 61.60167 
L 25.025892 61.15815 
L 25.936913 60.27111 
L 26.847934 59.82759 
L 27.758954 59.38407 
L 28.669974 58.05351 
L 29.580995 57.60999 
L 30.492015 57.16647 
L 31.403035 56.27943 
L 32.314055 55.83591 
L 33.225076 54.94887 
L 34.136096 54.50535 
L 35.047118 52.73127 
L 35.958137 51.40071 
L 36.869157 51.40071 
L 37.780177 50.95719 
L 38.691199 50.51367 
L 39.602219 50.51367 
L 40.51324 49.18311 
L 41.42426 48.29607 
L 42.33528 47.409029 
L 43.2463 46.96551 
L 44.157323 45.63495 
L 45.068343 44.747911 
L 45.979363 43.86087 
L 46.890382 42.53031 
L 47.801402 40.75623 
L 48.712422 39.869191 
L 49.623442 38.982149 
L 50.534465 36.764549 
L 51.445485 36.321029 
L 52.356505 35.87751 
L 53.267525 34.990471 
L 54.178545 33.659909 
L 55.089568 32.77287 
L 56.000588 30.55527 
L 56.911608 29.66823 
L 57.82263 28.781191 
L 58.73365 27.45063 
L 59.64467 24.34599 
L 60.55569 23.015429 
L 61.46671 21.68487 
L 62.37773 20.354309 
L 63.28875 19.02375 
" clip-path="url(#p7a1aa7beb9)" style="fill: none; stroke: #000000; stroke-linecap: square"/>
   </g>
   <g id="line2d_12">
    <path d="M 18.64875 63.37575 
L 19.55977 63.37575 
L 20.470791 63.37575 
L 21.381811 63.37575 
L 22.292832 62.93223 
L 23.203852 62.48871 
L 24.114873 62.04519 
L 25.025892 61.60167 
L 25.936913 61.15815 
L 26.847934 60.27111 
L 27.758954 59.38407 
L 28.669974 58.49703 
L 29.580995 58.49703 
L 30.492015 58.49703 
L 31.403035 57.16647 
L 32.314055 56.27943 
L 33.225076 55.39239 
L 34.136096 54.50535 
L 35.047118 54.06183 
L 35.958137 54.06183 
L 36.869157 52.28775 
L 37.780177 51.40071 
L 38.691199 50.95719 
L 39.602219 50.070149 
L 40.51324 49.62663 
L 41.42426 48.739589 
L 42.33528 47.85255 
L 43.2463 47.409029 
L 44.157323 45.63495 
L 45.068343 44.747911 
L 45.979363 42.53031 
L 46.890382 41.64327 
L 47.801402 40.312711 
L 48.712422 39.425669 
L 49.623442 38.53863 
L 50.534465 38.53863 
L 51.445485 37.208071 
L 52.356505 34.546951 
L 53.267525 33.659909 
L 54.178545 33.21639 
L 55.089568 31.885831 
L 56.000588 30.55527 
L 56.911608 27.894149 
L 57.82263 27.45063 
L 58.73365 26.120071 
L 59.64467 24.78951 
L 60.55569 23.458951 
L 61.46671 22.571909 
L 62.37773 20.797831 
L 63.28875 19.02375 
" clip-path="url(#p7a1aa7beb9)" style="fill: none; stroke: #000000; stroke-linecap: square"/>
   </g>
   <g id="line2d_13">
    <path d="M 18.64875 63.37575 
L 19.55977 63.37575 
L 20.470791 63.37575 
L 21.381811 63.37575 
L 22.292832 63.37575 
L 23.203852 63.37575 
L 24.114873 62.48871 
L 25.025892 62.04519 
L 25.936913 61.60167 
L 26.847934 61.15815 
L 27.758954 61.15815 
L 28.669974 61.15815 
L 29.580995 61.15815 
L 30.492015 61.15815 
L 31.403035 60.27111 
L 32.314055 59.82759 
L 33.225076 58.94055 
L 34.136096 58.49703 
L 35.047118 57.16647 
L 35.958137 56.72295 
L 36.869157 55.83591 
L 37.780177 54.06183 
L 38.691199 52.73127 
L 39.602219 51.40071 
L 40.51324 50.51367 
L 41.42426 49.18311 
L 42.33528 48.739589 
L 43.2463 48.739589 
L 44.157323 46.96551 
L 45.068343 46.52199 
L 45.979363 44.747911 
L 46.890382 43.417351 
L 47.801402 42.08679 
L 48.712422 40.75623 
L 49.623442 38.53863 
L 50.534465 37.208071 
L 51.445485 35.87751 
L 52.356505 34.103429 
L 53.267525 33.21639 
L 54.178545 30.55527 
L 55.089568 29.66823 
L 56.000588 29.66823 
L 56.911608 28.337669 
L 57.82263 26.120071 
L 58.73365 25.676549 
L 59.64467 25.233029 
L 60.55569 23.902471 
L 61.46671 21.241351 
L 62.37773 20.354309 
L 63.28875 19.02375 
" clip-path="url(#p7a1aa7beb9)" style="fill: none; stroke: #000000; stroke-linecap: square"/>
   </g>
   <g id="line2d_14">
    <path d="M 18.64875 63.37575 
L 19.55977 63.37575 
L 20.470791 62.93223 
L 21.381811 62.04519 
L 22.292832 61.60167 
L 23.203852 61.60167 
L 24.114873 61.15815 
L 25.025892 61.15815 
L 25.936913 60.71463 
L 26.847934 60.27111 
L 27.758954 60.27111 
L 28.669974 59.82759 
L 29.580995 59.38407 
L 30.492015 59.38407 
L 31.403035 59.38407 
L 32.314055 59.38407 
L 33.225076 59.38407 
L 34.136096 57.60999 
L 35.047118 57.16647 
L 35.958137 56.72295 
L 36.869157 55.83591 
L 37.780177 54.94887 
L 38.691199 54.50535 
L 39.602219 52.28775 
L 40.51324 51.40071 
L 41.42426 51.40071 
L 42.33528 50.51367 
L 43.2463 48.29607 
L 44.157323 47.85255 
L 45.068343 46.96551 
L 45.979363 45.19143 
L 46.890382 44.747911 
L 47.801402 43.86087 
L 48.712422 42.53031 
L 49.623442 41.19975 
L 50.534465 39.869191 
L 51.445485 37.651591 
L 52.356505 36.764549 
L 53.267525 35.87751 
L 54.178545 34.103429 
L 55.089568 32.329351 
L 56.000588 31.442309 
L 56.911608 29.66823 
L 57.82263 28.781191 
L 58.73365 27.00711 
L 59.64467 24.78951 
L 60.55569 23.458951 
L 61.46671 21.68487 
L 62.37773 21.241351 
L 63.28875 19.46727 
" clip-path="url(#p7a1aa7beb9)" style="fill: none; stroke: #000000; stroke-linecap: square"/>
   </g>
   <g id="line2d_15">
    <path d="M 18.64875 63.37575 
L 19.55977 63.37575 
L 20.470791 63.37575 
L 21.381811 63.37575 
L 22.292832 63.37575 
L 23.203852 62.93223 
L 24.114873 62.48871 
L 25.025892 62.48871 
L 25.936913 62.48871 
L 26.847934 62.04519 
L 27.758954 61.60167 
L 28.669974 60.71463 
L 29.580995 60.27111 
L 30.492015 60.27111 
L 31.403035 60.27111 
L 32.314055 59.38407 
L 33.225076 58.49703 
L 34.136096 58.49703 
L 35.047118 57.60999 
L 35.958137 57.60999 
L 36.869157 57.16647 
L 37.780177 55.39239 
L 38.691199 54.94887 
L 39.602219 53.17479 
L 40.51324 52.28775 
L 41.42426 50.51367 
L 42.33528 49.18311 
L 43.2463 47.85255 
L 44.157323 46.96551 
L 45.068343 45.63495 
L 45.979363 44.747911 
L 46.890382 44.30439 
L 47.801402 42.97383 
L 48.712422 42.53031 
L 49.623442 40.75623 
L 50.534465 39.425669 
L 51.445485 38.09511 
L 52.356505 36.321029 
L 53.267525 35.43399 
L 54.178545 33.659909 
L 55.089568 33.21639 
L 56.000588 31.885831 
L 56.911608 29.66823 
L 57.82263 28.781191 
L 58.73365 27.00711 
L 59.64467 26.120071 
L 60.55569 24.78951 
L 61.46671 23.458951 
L 62.37773 21.68487 
L 63.28875 19.46727 
" clip-path="url(#p7a1aa7beb9)" style="fill: none; stroke: #000000; stroke-linecap: square"/>
   </g>
   <g id="patch_3">
    <path d="M 18.64875 63.37575 
L 18.64875 19.02375 
" style="fill: none; stroke: #000000; stroke-width: 1.5; stroke-linejoin: miter; stroke-linecap: square"/>
   </g>
   <g id="patch_4">
    <path d="M 18.64875 63.37575 
L 63.28875 63.37575 
" style="fill: none; stroke: #000000; stroke-width: 1.5; stroke-linejoin: miter; stroke-linecap: square"/>
   </g>
   <g id="text_3">
    <text style="font: 8px 'Arial'; text-anchor: middle" x="40.96875" y="13.02375" transform="rotate(-0, 40.96875, 13.02375)">Separate nets</text>
   </g>
  </g>
 </g>
 <defs>
  <clipPath id="p7a1aa7beb9">
   <rect x="18.64875" y="19.02375" width="44.64" height="44.352"/>
  </clipPath>
 </defs>
</svg>
