<?xml version="1.0" encoding="utf-8" standalone="no"?>
<!DOCTYPE svg PUBLIC "-//W3C//DTD SVG 1.1//EN"
  "http://www.w3.org/Graphics/SVG/1.1/DTD/svg11.dtd">
<svg xmlns:xlink="http://www.w3.org/1999/xlink" width="181.8pt" height="55.98pt" viewBox="0 0 181.8 55.98" xmlns="http://www.w3.org/2000/svg" version="1.1">
 <metadata>
  <rdf:RDF xmlns:dc="http://purl.org/dc/elements/1.1/" xmlns:cc="http://creativecommons.org/ns#" xmlns:rdf="http://www.w3.org/1999/02/22-rdf-syntax-ns#">
   <cc:Work>
    <dc:type rdf:resource="http://purl.org/dc/dcmitype/StillImage"/>
    <dc:date>2022-05-08T13:28:23.313492</dc:date>
    <dc:format>image/svg+xml</dc:format>
    <dc:creator>
     <cc:Agent>
      <dc:title>Matplotlib v3.5.1, https://matplotlib.org/</dc:title>
     </cc:Agent>
    </dc:creator>
   </cc:Work>
  </rdf:RDF>
 </metadata>
 <defs>
  <style type="text/css">*{stroke-linejoin: round; stroke-linecap: butt}</style>
 </defs>
 <g id="figure_1">
  <g id="patch_1">
   <path d="M 0 55.98 
L 181.8 55.98 
L 181.8 -0 
L 0 -0 
z
" style="fill: #ffffff"/>
  </g>
  <g id="axes_1">
   <g id="patch_2">
    <path d="M 7.2 48.78 
L 56.435294 48.78 
L 56.435294 7.2 
L 7.2 7.2 
z
" style="fill: #ffffff"/>
   </g>
   <g id="matplotlib.axis_1"/>
   <g id="matplotlib.axis_2"/>
   <g id="line2d_1">
    <path d="M 9.437968 41.355 
L 9.552679 42.548473 
L 9.879001 44.105264 
L 10.214599 44.816719 
L 10.570374 45.154897 
L 11.00071 45.28602 
L 12.138422 45.242195 
L 14.576377 45.229706 
L 19.881818 45.254389 
L 19.882105 45.176157 
L 20.009138 42.390002 
L 20.332211 39.284046 
L 20.446412 37.792264 
L 20.45774 13.182407 
L 20.521315 39.601346 
L 20.549727 39.511466 
L 20.591085 39.443403 
L 20.652239 39.533802 
L 20.884864 39.779697 
L 21.147379 39.638781 
L 21.750536 38.984496 
L 21.900195 38.502602 
L 21.915603 36.789555 
L 21.92566 13.386399 
L 22.004594 39.813274 
L 22.018956 39.806161 
L 22.074383 39.838192 
L 22.095886 39.879849 
L 22.338345 40.14832 
L 22.582459 40.031306 
L 23.332745 39.332756 
L 23.759799 38.714155 
L 23.826366 38.146953 
L 23.838164 28.484973 
L 23.840384 13.471236 
L 23.915886 39.759428 
L 23.946801 39.732956 
L 24.003551 39.764389 
L 24.027765 39.804239 
L 24.266995 40.001625 
L 24.63404 39.806298 
L 25.487587 39.04296 
L 25.760753 38.532824 
L 25.795853 37.785154 
L 25.808024 13.565565 
L 25.884862 39.713504 
L 25.900197 39.69619 
L 25.954496 39.668717 
L 26.00206 39.725366 
L 26.247801 39.8824 
L 26.5714 39.729531 
L 27.405973 39.065878 
L 27.725408 38.601233 
L 27.788476 38.05539 
L 27.800239 29.244637 
L 27.802592 13.627669 
L 27.875869 39.67775 
L 27.908587 39.632625 
L 27.958007 39.615811 
L 28.011285 39.673914 
L 28.242152 39.796216 
L 28.575659 39.647206 
L 29.439546 38.995745 
L 29.732994 38.562173 
L 29.792839 38.008976 
L 29.804394 28.59614 
L 29.806623 13.667213 
L 29.880888 39.655268 
L 29.912541 39.602711 
L 29.966474 39.576019 
L 30.020406 39.628503 
L 30.254706 39.732113 
L 30.639958 39.557566 
L 31.479232 38.932597 
L 31.757196 38.475444 
L 31.798974 37.872692 
L 31.811315 14.09581 
L 31.811798 13.702326 
L 31.885725 39.638802 
L 31.905646 39.606336 
L 31.970729 39.544947 
L 32.030469 39.595791 
L 32.27409 39.685857 
L 32.742158 39.463251 
L 33.531891 38.858189 
L 33.758732 38.442939 
L 33.797313 37.741885 
L 33.80957 13.724886 
L 33.882678 39.625453 
L 33.899409 39.600059 
L 33.973343 39.524353 
L 34.028717 39.569968 
L 34.266701 39.656516 
L 34.659344 39.483157 
L 35.497975 38.874529 
L 35.775401 38.389997 
L 35.805964 37.600459 
L 35.817782 13.74028 
L 35.891547 39.617906 
L 35.911644 39.58108 
L 35.988036 39.509783 
L 36.041952 39.553512 
L 36.280723 39.629033 
L 36.640122 39.472521 
L 37.464199 38.89156 
L 37.737228 38.477562 
L 37.790391 37.879608 
L 37.80195 22.228349 
L 37.803519 13.768853 
L 37.875133 39.609328 
L 37.908175 39.546022 
L 37.974872 39.497994 
L 38.029442 39.540031 
L 38.280694 39.609669 
L 38.740566 39.394428 
L 39.506806 38.826379 
L 39.731272 38.431633 
L 39.773921 37.763966 
L 39.786384 13.777391 
L 39.858583 39.602753 
L 39.875235 39.576861 
L 39.955684 39.487275 
L 40.013715 39.531632 
L 40.273315 39.596015 
L 40.83399 39.319375 
L 41.539176 38.757362 
L 41.715141 38.383842 
L 41.748481 37.588989 
L 41.760371 13.781849 
L 41.833484 39.599426 
L 41.851326 39.567924 
L 41.929514 39.480764 
L 41.984103 39.521521 
L 42.248738 39.586331 
L 42.630842 39.41462 
L 43.29975 38.964354 
L 43.643285 38.53543 
L 43.71872 38.044199 
L 43.729789 33.477647 
L 43.734581 13.79528 
L 43.80786 39.595178 
L 43.831301 39.548897 
L 43.90214 39.474756 
L 43.958153 39.513787 
L 44.193015 39.586389 
L 44.642446 39.388032 
L 45.386663 38.858665 
L 45.65155 38.437198 
L 45.700212 37.796767 
L 45.712875 13.81201 
L 45.785886 39.591981 
L 45.800989 39.567116 
L 45.889384 39.472449 
L 45.939344 39.508993 
L 46.180781 39.576537 
L 46.629279 39.37489 
L 47.407173 38.80411 
L 47.625654 38.418831 
L 47.669326 37.753336 
L 47.681869 13.81473 
L 47.755013 39.589312 
L 47.77011 39.56387 
L 47.854204 39.466536 
L 47.910957 39.50611 
L 48.124489 39.576798 
L 48.542222 39.403108 
L 49.360792 38.815596 
L 49.584706 38.442426 
L 49.636063 37.798473 
L 49.648119 15.064961 
L 49.648842 13.821706 
L 49.751991 40.490208 
L 50.057277 43.792894 
L 50.360421 45.106583 
L 50.704957 45.687158 
L 50.969427 45.814577 
L 51.425737 45.766939 
L 52.83342 45.47495 
L 54.197326 45.385753 
L 54.197326 45.385753 
" clip-path="url(#p9bd549524b)" style="fill: none; stroke: #000000; stroke-linecap: square"/>
   </g>
  </g>
  <g id="axes_2">
   <g id="patch_3">
    <path d="M 66.282353 48.78 
L 115.517647 48.78 
L 115.517647 7.2 
L 66.282353 7.2 
z
" style="fill: #ffffff"/>
   </g>
   <g id="matplotlib.axis_3"/>
   <g id="matplotlib.axis_4"/>
   <g id="line2d_2">
    <path d="M 68.520321 41.355 
L 68.632516 42.509354 
L 68.956083 44.085184 
L 69.286403 44.813789 
L 69.655717 45.171952 
L 70.0991 45.296212 
L 71.081457 45.244456 
L 73.237357 45.203042 
L 78.964171 45.234385 
L 78.964628 45.128738 
L 79.091501 42.345943 
L 79.408848 39.152298 
L 79.531546 37.612656 
L 79.542877 14.757767 
L 79.63682 39.917397 
L 79.807998 40.605401 
L 79.930072 40.47461 
L 80.568679 39.660296 
L 82.205783 38.469397 
L 82.399806 38.074181 
L 82.42961 37.303104 
L 82.441487 15.620715 
L 82.53197 40.052253 
L 82.727516 41.358432 
L 82.921779 41.505263 
L 83.210734 41.386548 
L 83.805427 40.884311 
L 85.156239 39.748103 
L 87.146234 38.191567 
L 87.206693 37.660065 
L 87.218203 25.883173 
L 87.220339 15.623786 
L 87.325176 40.156948 
L 87.525853 41.284364 
L 87.708157 41.394254 
L 88.01321 41.261586 
L 88.777435 40.603079 
L 90.074387 39.567832 
L 91.741587 38.332736 
L 91.86179 37.906329 
L 91.874284 36.179162 
L 91.884097 15.628882 
L 91.979816 39.99496 
L 92.182126 41.204744 
L 92.355578 41.32726 
L 92.647613 41.212725 
L 93.329403 40.642004 
L 94.580047 39.629575 
L 96.369591 38.272852 
L 96.464463 37.811945 
L 96.473492 34.849625 
L 96.481924 15.640048 
L 96.574673 39.93178 
L 96.778376 41.162803 
L 96.950217 41.2865 
L 97.234945 41.177604 
L 97.932316 40.598193 
L 99.217008 39.568845 
L 100.805476 38.462942 
L 101.013416 38.054549 
L 101.045148 37.279182 
L 101.056985 15.66149 
L 101.148786 39.90232 
L 101.347604 41.124529 
L 101.547326 41.256964 
L 101.84786 41.123336 
L 102.665743 40.42861 
L 103.919772 39.468201 
L 105.467591 38.310148 
L 105.580095 37.892523 
L 105.592392 36.238983 
L 105.602415 15.648759 
L 105.69814 39.945622 
L 105.895749 41.116933 
L 106.092854 41.24234 
L 106.412518 41.094886 
L 107.469093 40.193518 
L 108.803743 39.233035 
L 108.916562 41.647443 
L 109.192241 43.987894 
L 109.490224 45.078354 
L 109.758537 45.506874 
L 110.096518 45.682042 
L 110.65982 45.627235 
L 112.011744 45.414854 
L 113.279679 45.359793 
L 113.279679 45.359793 
" clip-path="url(#pb4f39e09e1)" style="fill: none; stroke: #000000; stroke-linecap: square"/>
   </g>
  </g>
  <g id="axes_3">
   <g id="patch_4">
    <path d="M 125.364706 48.78 
L 174.6 48.78 
L 174.6 7.2 
L 125.364706 7.2 
z
" style="fill: #ffffff"/>
   </g>
   <g id="matplotlib.axis_5"/>
   <g id="matplotlib.axis_6"/>
   <g id="line2d_3">
    <path d="M 127.602674 41.355 
L 127.714853 42.491585 
L 128.037833 44.036359 
L 128.367683 44.755785 
L 128.708814 45.101689 
L 129.186982 45.25468 
L 130.210387 45.205902 
L 132.560432 45.156227 
L 138.046981 45.05151 
L 138.173853 42.250702 
L 138.483481 39.050356 
L 138.741142 36.688031 
L 138.75218 14.932591 
L 138.846073 38.77872 
L 139.040962 39.624161 
L 139.143436 39.519011 
L 139.436189 38.798645 
L 139.860294 37.37393 
L 139.877682 36.037207 
L 139.887746 15.233529 
L 139.982234 39.198502 
L 140.173338 40.530033 
L 140.258159 40.518969 
L 140.281292 40.490186 
L 140.520174 39.93847 
L 141.361905 37.324212 
L 141.374822 35.294332 
L 141.38372 15.181732 
L 141.478508 39.152321 
L 141.670928 40.411301 
L 141.754076 40.397802 
L 141.77595 40.370695 
L 141.976286 39.930479 
L 142.810194 37.422528 
L 142.829771 36.1511 
L 142.839964 15.16306 
L 142.932037 39.056339 
L 143.128975 40.295071 
L 143.232478 40.249998 
L 143.236035 40.245026 
L 143.478839 39.694248 
L 144.229012 37.394974 
L 144.245705 35.937948 
L 144.255473 15.156613 
L 144.34746 39.010978 
L 144.545652 40.200533 
L 144.650148 40.151165 
L 144.899159 39.593644 
L 145.607647 37.457175 
L 145.629903 36.262175 
L 145.640255 15.143664 
L 145.732749 38.981478 
L 145.926244 40.117632 
L 146.024842 40.083945 
L 146.032636 40.073685 
L 146.274253 39.540695 
L 146.959525 37.502888 
L 146.98671 36.499561 
L 146.997602 15.139618 
L 147.089906 38.949036 
L 147.289373 40.055677 
L 147.395191 39.999725 
L 147.63801 39.464038 
L 148.299561 37.473878 
L 148.32398 36.317555 
L 148.334481 15.14984 
L 148.425464 38.904711 
L 148.626941 40.000748 
L 148.736106 39.938147 
L 149.02631 39.277685 
L 149.621108 37.43535 
L 149.642596 36.139092 
L 149.652726 15.180936 
L 149.747618 38.919482 
L 149.948742 39.953783 
L 150.060764 39.881377 
L 150.329618 39.278603 
L 150.933815 37.384346 
L 150.949514 35.85709 
L 150.959107 15.139791 
L 151.055275 38.928312 
L 151.25391 39.916872 
L 151.362328 39.84959 
L 151.641118 39.227169 
L 152.21219 37.490428 
L 152.238367 36.387947 
L 152.249094 15.148351 
L 152.342485 38.883193 
L 152.530714 39.877019 
L 152.646995 39.828779 
L 152.937697 39.182811 
L 153.491481 37.508348 
L 153.519928 36.525964 
L 153.530924 15.141986 
L 153.623199 38.85815 
L 153.824255 39.857942 
L 153.932153 39.795313 
L 154.215527 39.16797 
L 154.771914 37.453364 
L 154.795029 36.260916 
L 154.805491 15.165745 
L 154.896718 38.827379 
L 155.096698 39.830874 
L 155.20562 39.771569 
L 155.613194 38.833452 
L 156.037105 37.466858 
L 156.061035 36.416988 
L 156.071715 15.159583 
L 156.165894 38.854508 
L 156.362105 39.812675 
L 156.464456 39.763306 
L 156.742556 39.164441 
L 157.294003 37.497583 
L 157.321962 36.496127 
L 157.332929 15.160768 
L 157.423322 38.805431 
L 157.624914 39.796357 
L 157.74038 39.726219 
L 158.014928 39.119929 
L 158.551654 37.491211 
L 158.579563 36.456312 
L 158.590379 15.174885 
L 158.683304 38.821438 
L 158.874498 39.773851 
L 158.982914 39.730103 
L 159.241732 39.181496 
L 159.794592 37.56002 
L 159.836571 36.55406 
L 159.847813 15.236888 
L 159.94124 38.804817 
L 160.143709 39.758593 
L 160.25671 39.686055 
L 160.517337 39.118517 
L 161.065202 37.418816 
L 161.085418 36.171903 
L 161.095656 15.177967 
L 161.189055 38.814808 
L 161.391332 39.757735 
L 161.49934 39.691894 
L 161.763958 39.120087 
L 162.314592 37.400567 
L 162.332921 36.114819 
L 162.343002 15.176483 
L 162.436552 38.813313 
L 162.636546 39.747123 
L 162.747164 39.680087 
L 163.038795 39.041084 
L 163.552955 37.443411 
L 163.57663 36.305159 
L 163.587136 15.201915 
L 163.67932 38.788536 
L 163.880588 39.736564 
L 163.9873 39.678335 
L 164.292796 39.009286 
L 164.793338 37.476484 
L 164.820216 36.42931 
L 164.830988 15.189378 
L 164.923713 38.795601 
L 165.126349 39.732689 
L 165.234883 39.666233 
L 165.408174 39.315875 
L 165.91765 37.989363 
L 166.057644 37.166308 
L 166.068824 32.161635 
L 166.072956 15.196448 
L 166.17278 38.861168 
L 166.376124 39.728406 
L 166.487378 39.643398 
L 166.7689 39.019405 
L 167.275754 37.4747 
L 167.303466 36.44849 
L 167.314297 15.211849 
L 167.407146 38.784908 
L 167.610476 39.718737 
L 167.720389 39.649709 
L 167.886096 39.316658 
L 167.88841 39.584182 
L 168.038158 41.996924 
L 168.35376 44.042671 
L 168.704156 44.974 
L 169.044677 45.314948 
L 169.353988 45.390658 
L 170.299456 45.258214 
L 171.717656 45.163521 
L 172.362032 45.158778 
L 172.362032 45.158778 
" clip-path="url(#p4133f514d0)" style="fill: none; stroke: #000000; stroke-linecap: square"/>
   </g>
  </g>
 </g>
 <defs>
  <clipPath id="p9bd549524b">
   <rect x="7.2" y="7.2" width="49.235294" height="41.58"/>
  </clipPath>
  <clipPath id="pb4f39e09e1">
   <rect x="66.282353" y="7.2" width="49.235294" height="41.58"/>
  </clipPath>
  <clipPath id="p4133f514d0">
   <rect x="125.364706" y="7.2" width="49.235294" height="41.58"/>
  </clipPath>
 </defs>
</svg>
