<?xml version="1.0" encoding="utf-8" standalone="no"?>
<!DOCTYPE svg PUBLIC "-//W3C//DTD SVG 1.1//EN"
  "http://www.w3.org/Graphics/SVG/1.1/DTD/svg11.dtd">
<svg xmlns:xlink="http://www.w3.org/1999/xlink" width="113.9575pt" height="94.87625pt" viewBox="0 0 113.9575 94.87625" xmlns="http://www.w3.org/2000/svg" version="1.1">
 <metadata>
  <rdf:RDF xmlns:dc="http://purl.org/dc/elements/1.1/" xmlns:cc="http://creativecommons.org/ns#" xmlns:rdf="http://www.w3.org/1999/02/22-rdf-syntax-ns#">
   <cc:Work>
    <dc:type rdf:resource="http://purl.org/dc/dcmitype/StillImage"/>
    <dc:date>2022-10-11T15:25:52.065258</dc:date>
    <dc:format>image/svg+xml</dc:format>
    <dc:creator>
     <cc:Agent>
      <dc:title>Matplotlib v3.5.1, https://matplotlib.org/</dc:title>
     </cc:Agent>
    </dc:creator>
   </cc:Work>
  </rdf:RDF>
 </metadata>
 <defs>
  <style type="text/css">*{stroke-linejoin: round; stroke-linecap: butt}</style>
 </defs>
 <g id="figure_1">
  <g id="patch_1">
   <path d="M 0 94.87625 
L 113.9575 94.87625 
L 113.9575 0 
L 0 0 
z
" style="fill: #ffffff"/>
  </g>
  <g id="axes_1">
   <g id="patch_2">
    <path d="M 34.2175 62.64 
L 106.7575 62.64 
L 106.7575 7.2 
L 34.2175 7.2 
z
" style="fill: #ffffff"/>
   </g>
   <g id="patch_3">
    <path d="M 37.514773 62.64 
L 38.833682 62.64 
L 38.833682 62.44612 
L 37.514773 62.44612 
z
" clip-path="url(#p02c95fb9b5)" style="opacity: 0.6"/>
   </g>
   <g id="patch_4">
    <path d="M 38.833682 62.64 
L 40.152591 62.64 
L 40.152591 62.381493 
L 38.833682 62.381493 
z
" clip-path="url(#p02c95fb9b5)" style="opacity: 0.6"/>
   </g>
   <g id="patch_5">
    <path d="M 40.152591 62.64 
L 41.4715 62.64 
L 41.4715 62.575373 
L 40.152591 62.575373 
z
" clip-path="url(#p02c95fb9b5)" style="opacity: 0.6"/>
   </g>
   <g id="patch_6">
    <path d="M 41.4715 62.64 
L 42.790409 62.64 
L 42.790409 62.316867 
L 41.4715 62.316867 
z
" clip-path="url(#p02c95fb9b5)" style="opacity: 0.6"/>
   </g>
   <g id="patch_7">
    <path d="M 42.790409 62.64 
L 44.109318 62.64 
L 44.109318 61.412093 
L 42.790409 61.412093 
z
" clip-path="url(#p02c95fb9b5)" style="opacity: 0.6"/>
   </g>
   <g id="patch_8">
    <path d="M 44.109318 62.64 
L 45.428227 62.64 
L 45.428227 57.146732 
L 44.109318 57.146732 
z
" clip-path="url(#p02c95fb9b5)" style="opacity: 0.6"/>
   </g>
   <g id="patch_9">
    <path d="M 45.428227 62.64 
L 46.747136 62.64 
L 46.747136 58.116132 
L 45.428227 58.116132 
z
" clip-path="url(#p02c95fb9b5)" style="opacity: 0.6"/>
   </g>
   <g id="patch_10">
    <path d="M 46.747136 62.64 
L 48.066045 62.64 
L 48.066045 59.925679 
L 46.747136 59.925679 
z
" clip-path="url(#p02c95fb9b5)" style="opacity: 0.6"/>
   </g>
   <g id="patch_11">
    <path d="M 48.066045 62.64 
L 49.384955 62.64 
L 49.384955 61.08896 
L 48.066045 61.08896 
z
" clip-path="url(#p02c95fb9b5)" style="opacity: 0.6"/>
   </g>
   <g id="patch_12">
    <path d="M 49.384955 62.64 
L 50.703864 62.64 
L 50.703864 60.313439 
L 49.384955 60.313439 
z
" clip-path="url(#p02c95fb9b5)" style="opacity: 0.6"/>
   </g>
   <g id="patch_13">
    <path d="M 50.703864 62.64 
L 52.022773 62.64 
L 52.022773 57.792999 
L 50.703864 57.792999 
z
" clip-path="url(#p02c95fb9b5)" style="opacity: 0.6"/>
   </g>
   <g id="patch_14">
    <path d="M 52.022773 62.64 
L 53.341682 62.64 
L 53.341682 45.190796 
L 52.022773 45.190796 
z
" clip-path="url(#p02c95fb9b5)" style="opacity: 0.6"/>
   </g>
   <g id="patch_15">
    <path d="M 53.341682 62.64 
L 54.660591 62.64 
L 54.660591 33.170233 
L 53.341682 33.170233 
z
" clip-path="url(#p02c95fb9b5)" style="opacity: 0.6"/>
   </g>
   <g id="patch_16">
    <path d="M 54.660591 62.64 
L 55.9795 62.64 
L 55.9795 34.139633 
L 54.660591 34.139633 
z
" clip-path="url(#p02c95fb9b5)" style="opacity: 0.6"/>
   </g>
   <g id="patch_17">
    <path d="M 55.9795 62.64 
L 57.298409 62.64 
L 57.298409 38.146487 
L 55.9795 38.146487 
z
" clip-path="url(#p02c95fb9b5)" style="opacity: 0.6"/>
   </g>
   <g id="patch_18">
    <path d="M 57.298409 62.64 
L 58.617318 62.64 
L 58.617318 39.826781 
L 57.298409 39.826781 
z
" clip-path="url(#p02c95fb9b5)" style="opacity: 0.6"/>
   </g>
   <g id="patch_19">
    <path d="M 58.617318 62.64 
L 59.936227 62.64 
L 59.936227 39.891408 
L 58.617318 39.891408 
z
" clip-path="url(#p02c95fb9b5)" style="opacity: 0.6"/>
   </g>
   <g id="patch_20">
    <path d="M 59.936227 62.64 
L 61.255136 62.64 
L 61.255136 40.731554 
L 59.936227 40.731554 
z
" clip-path="url(#p02c95fb9b5)" style="opacity: 0.6"/>
   </g>
   <g id="patch_21">
    <path d="M 61.255136 62.64 
L 62.574045 62.64 
L 62.574045 42.411848 
L 61.255136 42.411848 
z
" clip-path="url(#p02c95fb9b5)" style="opacity: 0.6"/>
   </g>
   <g id="patch_22">
    <path d="M 62.574045 62.64 
L 63.892955 62.64 
L 63.892955 41.894835 
L 62.574045 41.894835 
z
" clip-path="url(#p02c95fb9b5)" style="opacity: 0.6"/>
   </g>
   <g id="patch_23">
    <path d="M 63.892955 62.64 
L 65.211864 62.64 
L 65.211864 43.381248 
L 63.892955 43.381248 
z
" clip-path="url(#p02c95fb9b5)" style="opacity: 0.6"/>
   </g>
   <g id="patch_24">
    <path d="M 65.211864 62.64 
L 66.530773 62.64 
L 66.530773 46.806463 
L 65.211864 46.806463 
z
" clip-path="url(#p02c95fb9b5)" style="opacity: 0.6"/>
   </g>
   <g id="patch_25">
    <path d="M 66.530773 62.64 
L 67.849682 62.64 
L 67.849682 47.194223 
L 66.530773 47.194223 
z
" clip-path="url(#p02c95fb9b5)" style="opacity: 0.6"/>
   </g>
   <g id="patch_26">
    <path d="M 67.849682 62.64 
L 69.168591 62.64 
L 69.168591 44.867662 
L 67.849682 44.867662 
z
" clip-path="url(#p02c95fb9b5)" style="opacity: 0.6"/>
   </g>
   <g id="patch_27">
    <path d="M 69.168591 62.64 
L 70.4875 62.64 
L 70.4875 46.095569 
L 69.168591 46.095569 
z
" clip-path="url(#p02c95fb9b5)" style="opacity: 0.6"/>
   </g>
   <g id="patch_28">
    <path d="M 70.4875 62.64 
L 71.806409 62.64 
L 71.806409 50.102424 
L 70.4875 50.102424 
z
" clip-path="url(#p02c95fb9b5)" style="opacity: 0.6"/>
   </g>
   <g id="patch_29">
    <path d="M 71.806409 62.64 
L 73.125318 62.64 
L 73.125318 48.42213 
L 71.806409 48.42213 
z
" clip-path="url(#p02c95fb9b5)" style="opacity: 0.6"/>
   </g>
   <g id="patch_30">
    <path d="M 73.125318 62.64 
L 74.444227 62.64 
L 74.444227 49.650037 
L 73.125318 49.650037 
z
" clip-path="url(#p02c95fb9b5)" style="opacity: 0.6"/>
   </g>
   <g id="patch_31">
    <path d="M 74.444227 62.64 
L 75.763136 62.64 
L 75.763136 50.877944 
L 74.444227 50.877944 
z
" clip-path="url(#p02c95fb9b5)" style="opacity: 0.6"/>
   </g>
   <g id="patch_32">
    <path d="M 75.763136 62.64 
L 77.082045 62.64 
L 77.082045 51.265704 
L 75.763136 51.265704 
z
" clip-path="url(#p02c95fb9b5)" style="opacity: 0.6"/>
   </g>
   <g id="patch_33">
    <path d="M 77.082045 62.64 
L 78.400955 62.64 
L 78.400955 51.718091 
L 77.082045 51.718091 
z
" clip-path="url(#p02c95fb9b5)" style="opacity: 0.6"/>
   </g>
   <g id="patch_34">
    <path d="M 78.400955 62.64 
L 79.719864 62.64 
L 79.719864 51.524211 
L 78.400955 51.524211 
z
" clip-path="url(#p02c95fb9b5)" style="opacity: 0.6"/>
   </g>
   <g id="patch_35">
    <path d="M 79.719864 62.64 
L 81.038773 62.64 
L 81.038773 51.718091 
L 79.719864 51.718091 
z
" clip-path="url(#p02c95fb9b5)" style="opacity: 0.6"/>
   </g>
   <g id="patch_36">
    <path d="M 81.038773 62.64 
L 82.357682 62.64 
L 82.357682 51.007197 
L 81.038773 51.007197 
z
" clip-path="url(#p02c95fb9b5)" style="opacity: 0.6"/>
   </g>
   <g id="patch_37">
    <path d="M 82.357682 62.64 
L 83.676591 62.64 
L 83.676591 50.55481 
L 82.357682 50.55481 
z
" clip-path="url(#p02c95fb9b5)" style="opacity: 0.6"/>
   </g>
   <g id="patch_38">
    <path d="M 83.676591 62.64 
L 84.9955 62.64 
L 84.9955 47.064969 
L 83.676591 47.064969 
z
" clip-path="url(#p02c95fb9b5)" style="opacity: 0.6"/>
   </g>
   <g id="patch_39">
    <path d="M 84.9955 62.64 
L 86.314409 62.64 
L 86.314409 30.391285 
L 84.9955 30.391285 
z
" clip-path="url(#p02c95fb9b5)" style="opacity: 0.6"/>
   </g>
   <g id="patch_40">
    <path d="M 86.314409 62.64 
L 87.633318 62.64 
L 87.633318 9.84 
L 86.314409 9.84 
z
" clip-path="url(#p02c95fb9b5)" style="opacity: 0.6"/>
   </g>
   <g id="patch_41">
    <path d="M 87.633318 62.64 
L 88.952227 62.64 
L 88.952227 17.272069 
L 87.633318 17.272069 
z
" clip-path="url(#p02c95fb9b5)" style="opacity: 0.6"/>
   </g>
   <g id="patch_42">
    <path d="M 88.952227 62.64 
L 90.271136 62.64 
L 90.271136 42.282595 
L 88.952227 42.282595 
z
" clip-path="url(#p02c95fb9b5)" style="opacity: 0.6"/>
   </g>
   <g id="patch_43">
    <path d="M 90.271136 62.64 
L 91.590045 62.64 
L 91.590045 53.656891 
L 90.271136 53.656891 
z
" clip-path="url(#p02c95fb9b5)" style="opacity: 0.6"/>
   </g>
   <g id="patch_44">
    <path d="M 91.590045 62.64 
L 92.908955 62.64 
L 92.908955 55.078678 
L 91.590045 55.078678 
z
" clip-path="url(#p02c95fb9b5)" style="opacity: 0.6"/>
   </g>
   <g id="patch_45">
    <path d="M 92.908955 62.64 
L 94.227864 62.64 
L 94.227864 53.139878 
L 92.908955 53.139878 
z
" clip-path="url(#p02c95fb9b5)" style="opacity: 0.6"/>
   </g>
   <g id="patch_46">
    <path d="M 94.227864 62.64 
L 95.546773 62.64 
L 95.546773 55.983452 
L 94.227864 55.983452 
z
" clip-path="url(#p02c95fb9b5)" style="opacity: 0.6"/>
   </g>
   <g id="patch_47">
    <path d="M 95.546773 62.64 
L 96.865682 62.64 
L 96.865682 59.279412 
L 95.546773 59.279412 
z
" clip-path="url(#p02c95fb9b5)" style="opacity: 0.6"/>
   </g>
   <g id="patch_48">
    <path d="M 96.865682 62.64 
L 98.184591 62.64 
L 98.184591 60.636573 
L 96.865682 60.636573 
z
" clip-path="url(#p02c95fb9b5)" style="opacity: 0.6"/>
   </g>
   <g id="patch_49">
    <path d="M 98.184591 62.64 
L 99.5035 62.64 
L 99.5035 60.959706 
L 98.184591 60.959706 
z
" clip-path="url(#p02c95fb9b5)" style="opacity: 0.6"/>
   </g>
   <g id="patch_50">
    <path d="M 99.5035 62.64 
L 100.822409 62.64 
L 100.822409 61.347466 
L 99.5035 61.347466 
z
" clip-path="url(#p02c95fb9b5)" style="opacity: 0.6"/>
   </g>
   <g id="patch_51">
    <path d="M 100.822409 62.64 
L 102.141318 62.64 
L 102.141318 61.799853 
L 100.822409 61.799853 
z
" clip-path="url(#p02c95fb9b5)" style="opacity: 0.6"/>
   </g>
   <g id="patch_52">
    <path d="M 102.141318 62.64 
L 103.460227 62.64 
L 103.460227 62.05836 
L 102.141318 62.05836 
z
" clip-path="url(#p02c95fb9b5)" style="opacity: 0.6"/>
   </g>
   <g id="matplotlib.axis_1">
    <g id="xtick_1">
     <g id="line2d_1">
      <defs>
       <path id="m6c84390fe9" d="M 0 0 
L 0 3.5 
" style="stroke: #000000; stroke-width: 1.5"/>
      </defs>
      <g>
       <use xlink:href="#m6c84390fe9" x="50.703864" y="62.64" style="stroke: #000000; stroke-width: 1.5"/>
      </g>
     </g>
     <g id="text_1">
      <text style="font: 8px 'Arial'; text-anchor: middle" x="50.703864" y="75.36625" transform="rotate(-0, 50.703864, 75.36625)">0</text>
     </g>
    </g>
    <g id="xtick_2">
     <g id="line2d_2">
      <g>
       <use xlink:href="#m6c84390fe9" x="83.676591" y="62.64" style="stroke: #000000; stroke-width: 1.5"/>
      </g>
     </g>
     <g id="text_2">
      <text style="font: 8px 'Arial'; text-anchor: middle" x="83.676591" y="75.36625" transform="rotate(-0, 83.676591, 75.36625)">500</text>
     </g>
    </g>
    <g id="text_3">
     <!-- AB/PD $\overline{g}_{\mathrm{Na}}$ -->
     <g transform="translate(51.0475 85.19625)">
      <text>
       <tspan style="font: 8px 'Arial'" x="0 5.335938 10.671875 12.894531 18.230469 24.007812 26.230469" y="-0.7699999999999996 -0.7699999999999996 -0.7699999999999996 -0.7699999999999996 -0.7699999999999996 -0.7699999999999996 -1.25">AB/PD g</tspan>
       <tspan style="font: 5.6px 'DejaVu Sans'" x="30.819075 35.008137" y="1.6195000000000004">Na</tspan>
      </text>
      <rect x="26.230469" y="-7" width="4.449219" height="0.5"/>
     </g>
    </g>
   </g>
   <g id="matplotlib.axis_2">
    <g id="ytick_1">
     <g id="line2d_3">
      <defs>
       <path id="mf2ac963b55" d="M 0 0 
L -3.5 0 
" style="stroke: #000000; stroke-width: 1.5"/>
      </defs>
      <g>
       <use xlink:href="#mf2ac963b55" x="34.2175" y="62.64" style="stroke: #000000; stroke-width: 1.5"/>
      </g>
     </g>
     <g id="text_4">
      <text style="font: 8px 'Arial'; text-anchor: end" x="27.2175" y="65.503125" transform="rotate(-0, 27.2175, 65.503125)">0.000</text>
     </g>
    </g>
    <g id="ytick_2">
     <g id="line2d_4">
      <g>
       <use xlink:href="#mf2ac963b55" x="34.2175" y="11.031716" style="stroke: #000000; stroke-width: 1.5"/>
      </g>
     </g>
     <g id="text_5">
      <text style="font: 8px 'Arial'; text-anchor: end" x="27.2175" y="13.894841" transform="rotate(-0, 27.2175, 13.894841)">0.004</text>
     </g>
    </g>
    <g id="text_6">
     <!-- $q(\theta | x)$ -->
     <g transform="translate(13.44 45.08)rotate(-90)">
      <text>
       <tspan style="font: 8px 'Arial'" x="0 4.449219 7.113281 11.5625 13.640625 17.640625" y="-0.171875">q(θ|x)</tspan>
      </text>
     </g>
    </g>
   </g>
   <g id="line2d_5">
    <path d="M 50.703864 62.64 
L 50.703864 57.096 
" clip-path="url(#p02c95fb9b5)" style="fill: none; stroke: #d7301f; stroke-width: 2; stroke-linecap: square"/>
   </g>
   <g id="line2d_6">
    <path d="M 83.676591 62.64 
L 83.676591 57.096 
" clip-path="url(#p02c95fb9b5)" style="fill: none; stroke: #d7301f; stroke-width: 2; stroke-linecap: square"/>
   </g>
   <g id="patch_53">
    <path d="M 34.2175 62.64 
L 34.2175 7.2 
" style="fill: none; stroke: #000000; stroke-width: 1.5; stroke-linejoin: miter; stroke-linecap: square"/>
   </g>
   <g id="patch_54">
    <path d="M 34.2175 62.64 
L 106.7575 62.64 
" style="fill: none; stroke: #000000; stroke-width: 1.5; stroke-linejoin: miter; stroke-linecap: square"/>
   </g>
  </g>
 </g>
 <defs>
  <clipPath id="p02c95fb9b5">
   <rect x="34.2175" y="7.2" width="72.54" height="55.44"/>
  </clipPath>
 </defs>
</svg>
