<?xml version="1.0" encoding="utf-8" standalone="no"?>
<!DOCTYPE svg PUBLIC "-//W3C//DTD SVG 1.1//EN"
  "http://www.w3.org/Graphics/SVG/1.1/DTD/svg11.dtd">
<svg xmlns:xlink="http://www.w3.org/1999/xlink" width="261.48375pt" height="45.62pt" viewBox="0 0 261.48375 45.62" xmlns="http://www.w3.org/2000/svg" version="1.1">
 <metadata>
  <rdf:RDF xmlns:dc="http://purl.org/dc/elements/1.1/" xmlns:cc="http://creativecommons.org/ns#" xmlns:rdf="http://www.w3.org/1999/02/22-rdf-syntax-ns#">
   <cc:Work>
    <dc:type rdf:resource="http://purl.org/dc/dcmitype/StillImage"/>
    <dc:date>2022-04-19T15:53:16.118806</dc:date>
    <dc:format>image/svg+xml</dc:format>
    <dc:creator>
     <cc:Agent>
      <dc:title>Matplotlib v3.5.1, https://matplotlib.org/</dc:title>
     </cc:Agent>
    </dc:creator>
   </cc:Work>
  </rdf:RDF>
 </metadata>
 <defs>
  <style type="text/css">*{stroke-linejoin: round; stroke-linecap: butt}</style>
 </defs>
 <g id="figure_1">
  <g id="patch_1">
   <path d="M 0 45.62 
L 261.48375 45.62 
L 261.48375 0 
L 0 0 
z
" style="fill: #ffffff"/>
  </g>
  <g id="axes_1">
   <g id="patch_2">
    <path d="M 31.08375 34.92 
L 79.605489 34.92 
L 79.605489 7.2 
L 31.08375 7.2 
z
" style="fill: #ffffff"/>
   </g>
   <g id="matplotlib.axis_1"/>
   <g id="matplotlib.axis_2">
    <g id="ytick_1">
     <g id="line2d_1">
      <defs>
       <path id="m6bbf034613" d="M 0 0 
L -3.5 0 
" style="stroke: #000000; stroke-width: 1.5"/>
      </defs>
      <g>
       <use xlink:href="#m6bbf034613" x="31.08375" y="26.570435" style="stroke: #000000; stroke-width: 1.5"/>
      </g>
     </g>
     <g id="text_1">
      <text style="font: 8px 'serif'; text-anchor: end" x="24.08375" y="29.60981" transform="rotate(-0, 24.08375, 29.60981)">−50</text>
     </g>
    </g>
    <g id="ytick_2">
     <g id="line2d_2">
      <g>
       <use xlink:href="#m6bbf034613" x="31.08375" y="16.009786" style="stroke: #000000; stroke-width: 1.5"/>
      </g>
     </g>
     <g id="text_2">
      <text style="font: 8px 'serif'; text-anchor: end" x="24.08375" y="19.049161" transform="rotate(-0, 24.08375, 19.049161)">0</text>
     </g>
    </g>
   </g>
   <g id="line2d_3">
    <path d="M 33.289284 29.738629 
L 33.406398 30.601645 
L 33.734543 31.725315 
L 34.101117 32.271558 
L 34.453347 32.495181 
L 34.983723 32.580302 
L 43.582224 32.435988 
L 43.70726 30.469149 
L 43.950517 26.835916 
L 43.956782 8.46 
L 44.05784 33.241013 
L 44.196065 33.65303 
L 44.361129 33.597244 
L 44.596529 33.242199 
L 45.102741 32.505957 
L 45.546945 32.338517 
L 46.620454 32.291402 
L 52.366783 32.116563 
L 55.537121 31.802052 
L 58.131034 31.32664 
L 60.724947 30.624512 
L 67.462202 28.423036 
L 67.801426 28.053365 
L 67.826895 27.449491 
L 67.834219 9.182582 
L 67.929789 32.10171 
L 68.086348 33.016809 
L 68.215455 32.999058 
L 68.933444 32.423875 
L 69.675846 32.312661 
L 72.988888 32.24277 
L 72.988929 32.255145 
L 73.09875 33.286905 
L 73.29937 33.590385 
L 73.628317 33.638568 
L 77.399956 33.543932 
L 77.399956 33.543932 
" clip-path="url(#p2b680510fd)" style="fill: none; stroke: #1f77b4; stroke-width: 1.5; stroke-linecap: square"/>
   </g>
   <g id="patch_3">
    <path d="M 31.08375 34.92 
L 31.08375 7.2 
" style="fill: none; stroke: #000000; stroke-width: 1.5; stroke-linejoin: miter; stroke-linecap: square"/>
   </g>
   <g id="patch_4">
    <path d="M 31.08375 34.92 
L 79.605489 34.92 
" style="fill: none; stroke: #000000; stroke-width: 1.5; stroke-linejoin: miter; stroke-linecap: square"/>
   </g>
  </g>
  <g id="axes_2">
   <g id="patch_5">
    <path d="M 89.309837 34.92 
L 137.831576 34.92 
L 137.831576 7.2 
L 89.309837 7.2 
z
" style="fill: #ffffff"/>
   </g>
   <g id="matplotlib.axis_3"/>
   <g id="matplotlib.axis_4">
    <g id="ytick_3">
     <g id="line2d_4">
      <g>
       <use xlink:href="#m6bbf034613" x="89.309837" y="25.637829" style="stroke: #000000; stroke-width: 1.5"/>
      </g>
     </g>
     <g id="text_3">
      <text style="font: 8px 'serif'; text-anchor: end" x="82.309837" y="28.677204" transform="rotate(-0, 82.309837, 28.677204)">−50</text>
     </g>
    </g>
    <g id="ytick_4">
     <g id="line2d_5">
      <g>
       <use xlink:href="#m6bbf034613" x="89.309837" y="13.958636" style="stroke: #000000; stroke-width: 1.5"/>
      </g>
     </g>
     <g id="text_4">
      <text style="font: 8px 'serif'; text-anchor: end" x="82.309837" y="16.998011" transform="rotate(-0, 82.309837, 16.998011)">0</text>
     </g>
    </g>
   </g>
   <g id="line2d_6">
    <path d="M 91.515371 29.141587 
L 91.627892 30.062795 
L 91.952429 31.320636 
L 92.280402 31.891642 
L 92.693962 32.18407 
L 93.26225 32.254806 
L 98.604151 32.177391 
L 101.808452 32.084249 
L 101.933344 29.903041 
L 102.259817 24.855809 
L 102.270314 8.46 
L 102.361631 31.797978 
L 102.502043 33.272109 
L 102.688922 33.389481 
L 103.521987 33.326504 
L 105.292893 33.106827 
L 106.387699 32.755327 
L 107.420232 32.161192 
L 108.452764 31.293032 
L 112.066629 27.924233 
L 112.552553 27.407373 
L 112.595186 26.92364 
L 112.611251 8.776228 
L 112.68547 30.247134 
L 112.828883 33.037977 
L 112.998229 33.268026 
L 113.384931 33.242577 
L 114.836251 32.877073 
L 115.739192 32.443124 
L 116.642132 31.759985 
L 117.880121 30.510462 
L 119.699801 28.682928 
L 121.203645 27.293306 
L 121.222126 26.377881 
L 121.236256 8.766471 
L 121.321359 30.887497 
L 121.468432 33.074785 
L 121.639835 33.265172 
L 122.054915 33.226887 
L 123.446298 32.863519 
L 124.337302 32.429243 
L 125.228305 31.749532 
L 126.575542 30.37432 
L 128.242327 28.703891 
L 129.768756 27.29572 
L 129.787239 26.308938 
L 129.80114 8.767227 
L 129.886799 30.898653 
L 130.031747 33.066625 
L 130.214399 33.265127 
L 130.635891 33.22182 
L 131.214975 33.0962 
L 131.216082 33.220528 
L 131.326968 33.635289 
L 131.59751 33.654819 
L 133.449323 33.432022 
L 135.626042 32.971873 
L 135.626042 32.971873 
" clip-path="url(#p7819789ba9)" style="fill: none; stroke: #1f77b4; stroke-width: 1.5; stroke-linecap: square"/>
   </g>
   <g id="patch_6">
    <path d="M 89.309837 34.92 
L 89.309837 7.2 
" style="fill: none; stroke: #000000; stroke-width: 1.5; stroke-linejoin: miter; stroke-linecap: square"/>
   </g>
   <g id="patch_7">
    <path d="M 89.309837 34.92 
L 137.831576 34.92 
" style="fill: none; stroke: #000000; stroke-width: 1.5; stroke-linejoin: miter; stroke-linecap: square"/>
   </g>
  </g>
  <g id="axes_3">
   <g id="patch_8">
    <path d="M 147.535924 34.92 
L 196.057663 34.92 
L 196.057663 7.2 
L 147.535924 7.2 
z
" style="fill: #ffffff"/>
   </g>
   <g id="matplotlib.axis_5"/>
   <g id="matplotlib.axis_6">
    <g id="ytick_5">
     <g id="line2d_7">
      <g>
       <use xlink:href="#m6bbf034613" x="147.535924" y="26.458217" style="stroke: #000000; stroke-width: 1.5"/>
      </g>
     </g>
     <g id="text_5">
      <text style="font: 8px 'serif'; text-anchor: end" x="140.535924" y="29.497592" transform="rotate(-0, 140.535924, 29.497592)">−50</text>
     </g>
    </g>
    <g id="ytick_6">
     <g id="line2d_8">
      <g>
       <use xlink:href="#m6bbf034613" x="147.535924" y="15.174153" style="stroke: #000000; stroke-width: 1.5"/>
      </g>
     </g>
     <g id="text_6">
      <text style="font: 8px 'serif'; text-anchor: end" x="140.535924" y="18.213528" transform="rotate(-0, 140.535924, 18.213528)">0</text>
     </g>
    </g>
   </g>
   <g id="line2d_9">
    <path d="M 149.741458 29.843436 
L 149.856074 30.729812 
L 150.170045 31.887589 
L 150.514177 32.456807 
L 150.960265 32.750691 
L 151.538707 32.819515 
L 156.888672 32.749898 
L 160.034679 32.643204 
L 160.159444 30.551263 
L 160.333192 27.417317 
L 160.34322 8.46 
L 160.448183 22.180591 
L 160.527917 21.821798 
L 160.563616 21.845695 
L 161.019619 22.095214 
L 161.364645 22.110439 
L 161.608428 22.115083 
L 161.993174 22.141089 
L 163.531596 22.280023 
L 168.058177 22.8071 
L 170.465601 23.29914 
L 171.862122 23.818579 
L 174.059536 24.650816 
L 175.7451 24.997938 
L 176.852182 24.980357 
L 177.560715 24.772079 
L 178.907118 24.378607 
L 179.839858 24.352801 
L 180.397145 24.346333 
L 181.02978 24.346565 
L 182.015948 24.383326 
L 183.644054 24.275888 
L 183.960372 24.360133 
L 184.315379 24.460743 
L 184.582313 24.291201 
L 184.853671 24.210919 
L 185.074149 24.432146 
L 185.337027 24.593315 
L 185.515106 24.419701 
L 185.871263 24.015242 
L 185.896703 24.038546 
L 186.049342 24.374826 
L 186.34614 24.92867 
L 186.35462 24.925544 
L 186.473339 24.721177 
L 186.835225 23.52977 
L 186.921162 23.746606 
L 187.152422 25.290344 
L 187.211808 26.605168 
L 187.368752 31.86327 
L 187.557405 32.619188 
L 187.75717 32.740183 
L 188.135944 32.66013 
L 188.764783 32.277487 
L 189.441062 31.613253 
L 189.444713 31.866386 
L 189.588785 33.11263 
L 189.809275 33.576676 
L 190.070042 33.66 
L 190.618341 33.505665 
L 191.952711 33.047174 
L 193.378607 32.851498 
L 193.852129 32.824743 
L 193.852129 32.824743 
" clip-path="url(#pb69b1526b6)" style="fill: none; stroke: #1f77b4; stroke-width: 1.5; stroke-linecap: square"/>
   </g>
   <g id="patch_9">
    <path d="M 147.535924 34.92 
L 147.535924 7.2 
" style="fill: none; stroke: #000000; stroke-width: 1.5; stroke-linejoin: miter; stroke-linecap: square"/>
   </g>
   <g id="patch_10">
    <path d="M 147.535924 34.92 
L 196.057663 34.92 
" style="fill: none; stroke: #000000; stroke-width: 1.5; stroke-linejoin: miter; stroke-linecap: square"/>
   </g>
  </g>
  <g id="axes_4">
   <g id="patch_11">
    <path d="M 205.762011 34.92 
L 254.28375 34.92 
L 254.28375 7.2 
L 205.762011 7.2 
z
" style="fill: #ffffff"/>
   </g>
   <g id="matplotlib.axis_7"/>
   <g id="matplotlib.axis_8">
    <g id="ytick_7">
     <g id="line2d_10">
      <g>
       <use xlink:href="#m6bbf034613" x="205.762011" y="27.213568" style="stroke: #000000; stroke-width: 1.5"/>
      </g>
     </g>
     <g id="text_7">
      <text style="font: 8px 'serif'; text-anchor: end" x="198.762011" y="30.252943" transform="rotate(-0, 198.762011, 30.252943)">−50</text>
     </g>
    </g>
    <g id="ytick_8">
     <g id="line2d_11">
      <g>
       <use xlink:href="#m6bbf034613" x="205.762011" y="15.928039" style="stroke: #000000; stroke-width: 1.5"/>
      </g>
     </g>
     <g id="text_8">
      <text style="font: 8px 'serif'; text-anchor: end" x="198.762011" y="18.967414" transform="rotate(-0, 198.762011, 18.967414)">0</text>
     </g>
    </g>
   </g>
   <g id="line2d_12">
    <path d="M 207.967544 30.599226 
L 208.075907 31.502198 
L 208.383858 32.728895 
L 208.70093 33.30015 
L 209.087332 33.585121 
L 209.572489 33.66 
L 218.261851 33.389533 
L 218.411657 31.082664 
L 218.617893 27.897987 
L 218.626147 8.46 
L 218.659947 28.559268 
L 218.729851 26.712019 
L 218.768715 26.416511 
L 218.836067 26.762516 
L 219.021389 27.229835 
L 219.191223 27.127135 
L 219.702787 26.434571 
L 220.497926 24.996675 
L 220.809428 24.687735 
L 221.558707 24.594816 
L 223.091022 24.507942 
L 226.04409 24.413585 
L 228.895319 24.368256 
L 234.177221 24.362009 
L 236.628914 24.381172 
L 236.850916 24.376326 
L 237.275107 24.359527 
L 237.336899 24.346427 
L 237.379174 24.389507 
L 237.471053 24.416428 
L 237.508811 24.375903 
L 237.603236 24.360919 
L 237.637271 24.400561 
L 237.76502 24.379263 
L 237.768296 24.375685 
L 237.865238 24.372532 
L 237.895323 24.405855 
L 237.981281 24.418514 
L 238.019962 24.38181 
L 238.116811 24.378133 
L 238.147561 24.408164 
L 238.271609 24.383256 
L 238.374387 24.386739 
L 238.398515 24.411496 
L 238.503069 24.402442 
L 238.523175 24.384112 
L 238.619686 24.382908 
L 238.64563 24.407665 
L 238.7788 24.386365 
L 238.913024 24.421106 
L 239.043499 24.383191 
L 239.163938 24.416765 
L 239.264154 24.426289 
L 239.290516 24.396522 
L 239.391571 24.380987 
L 239.42672 24.423439 
L 239.514593 24.437637 
L 239.545349 24.404316 
L 239.64201 24.375954 
L 239.672766 24.412968 
L 239.760639 24.453159 
L 239.804576 24.408186 
L 239.888055 24.363907 
L 239.931992 24.4149 
L 240.019866 24.457993 
L 240.059409 24.414053 
L 240.147282 24.363538 
L 240.195612 24.42537 
L 240.270305 24.473135 
L 240.318635 24.423253 
L 240.406509 24.355067 
L 240.450445 24.415052 
L 240.542712 24.476781 
L 240.582255 24.424999 
L 240.665735 24.347087 
L 240.714066 24.41556 
L 240.803651 24.493538 
L 240.844297 24.441994 
L 240.932105 24.342132 
L 240.983479 24.41747 
L 241.069102 24.503151 
L 241.114768 24.447095 
L 241.200391 24.337049 
L 241.251765 24.412719 
L 241.343096 24.512786 
L 241.388762 24.450759 
L 241.475625 24.323799 
L 241.523311 24.408812 
L 241.612191 24.53853 
L 241.659052 24.467351 
L 241.748947 24.300698 
L 241.801555 24.414576 
L 241.884599 24.565974 
L 241.934425 24.48122 
L 242.022643 24.270612 
L 242.0755 24.410611 
L 242.158274 24.602908 
L 242.210753 24.504026 
L 242.29907 24.245254 
L 242.350463 24.396521 
L 242.436544 24.630478 
L 242.487583 24.52287 
L 242.578405 24.199997 
L 242.632087 24.400743 
L 242.715801 24.681272 
L 242.77071 24.556416 
L 242.863183 24.143442 
L 242.915451 24.398799 
L 242.99399 24.728003 
L 243.053237 24.588303 
L 243.150483 24.083737 
L 243.198889 24.384017 
L 243.284382 24.774115 
L 243.336192 24.634636 
L 243.434117 24.032803 
L 243.487912 24.422009 
L 243.56692 24.816359 
L 243.622331 24.669599 
L 243.726532 23.97726 
L 243.777009 24.428637 
L 243.857643 24.858718 
L 243.909462 24.712242 
L 244.013601 23.932576 
L 244.067918 24.451202 
L 244.14578 24.889888 
L 244.200939 24.731929 
L 244.306661 23.896481 
L 244.3589 24.445815 
L 244.436717 24.919609 
L 244.491322 24.774469 
L 244.601865 23.879943 
L 244.65523 24.45318 
L 244.732252 24.931811 
L 244.791394 24.768969 
L 244.90154 23.857408 
L 244.951791 24.446085 
L 245.032062 24.953341 
L 245.083922 24.816086 
L 245.200126 23.838292 
L 245.255226 24.501902 
L 245.3298 24.971033 
L 245.388232 24.816554 
L 245.500868 23.810558 
L 245.557458 24.511935 
L 245.636049 24.9856 
L 245.690018 24.834681 
L 245.805596 23.800284 
L 245.862369 24.507319 
L 245.940151 25.000658 
L 245.994515 24.859746 
L 246.118069 23.790844 
L 246.171188 24.503742 
L 246.244163 25.007702 
L 246.304732 24.865587 
L 246.429039 23.7898 
L 246.484059 24.54337 
L 246.56298 25.022907 
L 246.613843 24.891088 
L 246.740888 23.785482 
L 246.794453 24.504457 
L 246.875385 25.028586 
L 246.92952 24.892921 
L 247.036924 23.903928 
L 247.056271 23.764744 
L 247.103259 24.392794 
L 247.193003 25.044389 
L 247.244866 24.912353 
L 247.35255 23.935455 
L 247.374771 23.759866 
L 247.422292 24.40641 
L 247.508631 25.051257 
L 247.564751 24.918546 
L 247.667149 24.001323 
L 247.679891 24.792689 
L 247.82041 26.581145 
L 247.921385 26.492893 
L 248.543053 25.617151 
L 249.110799 25.157911 
L 249.782904 25.038305 
L 252.078216 25.001976 
L 252.078216 25.001976 
" clip-path="url(#p2241eca029)" style="fill: none; stroke: #1f77b4; stroke-width: 1.5; stroke-linecap: square"/>
   </g>
   <g id="patch_12">
    <path d="M 205.762011 34.92 
L 205.762011 7.2 
" style="fill: none; stroke: #000000; stroke-width: 1.5; stroke-linejoin: miter; stroke-linecap: square"/>
   </g>
   <g id="patch_13">
    <path d="M 205.762011 34.92 
L 254.28375 34.92 
" style="fill: none; stroke: #000000; stroke-width: 1.5; stroke-linejoin: miter; stroke-linecap: square"/>
   </g>
  </g>
 </g>
 <defs>
  <clipPath id="p2b680510fd">
   <rect x="31.08375" y="7.2" width="48.521739" height="27.72"/>
  </clipPath>
  <clipPath id="p7819789ba9">
   <rect x="89.309837" y="7.2" width="48.521739" height="27.72"/>
  </clipPath>
  <clipPath id="pb69b1526b6">
   <rect x="147.535924" y="7.2" width="48.521739" height="27.72"/>
  </clipPath>
  <clipPath id="p2241eca029">
   <rect x="205.762011" y="7.2" width="48.521739" height="27.72"/>
  </clipPath>
 </defs>
</svg>
