<?xml version="1.0" encoding="utf-8" standalone="no"?>
<!DOCTYPE svg PUBLIC "-//W3C//DTD SVG 1.1//EN"
  "http://www.w3.org/Graphics/SVG/1.1/DTD/svg11.dtd">
<svg xmlns:xlink="http://www.w3.org/1999/xlink" width="103.68pt" height="69.84pt" viewBox="0 0 103.68 69.84" xmlns="http://www.w3.org/2000/svg" version="1.1">
 <metadata>
  <rdf:RDF xmlns:dc="http://purl.org/dc/elements/1.1/" xmlns:cc="http://creativecommons.org/ns#" xmlns:rdf="http://www.w3.org/1999/02/22-rdf-syntax-ns#">
   <cc:Work>
    <dc:type rdf:resource="http://purl.org/dc/dcmitype/StillImage"/>
    <dc:date>2022-05-10T10:56:12.926893</dc:date>
    <dc:format>image/svg+xml</dc:format>
    <dc:creator>
     <cc:Agent>
      <dc:title>Matplotlib v3.5.1, https://matplotlib.org/</dc:title>
     </cc:Agent>
    </dc:creator>
   </cc:Work>
  </rdf:RDF>
 </metadata>
 <defs>
  <style type="text/css">*{stroke-linejoin: round; stroke-linecap: butt}</style>
 </defs>
 <g id="figure_1">
  <g id="patch_1">
   <path d="M 0 69.84 
L 103.68 69.84 
L 103.68 0 
L 0 0 
z
" style="fill: #ffffff"/>
  </g>
  <g id="axes_1">
   <g id="patch_2">
    <path d="M 7.2 62.64 
L 96.48 62.64 
L 96.48 7.2 
L 7.2 7.2 
z
" style="fill: #ffffff"/>
   </g>
   <g id="matplotlib.axis_1"/>
   <g id="matplotlib.axis_2"/>
   <g id="line2d_1">
    <path d="M 9.905557 22.11178 
L 10.088182 21.925309 
L 10.10171 21.953821 
L 10.115238 21.930597 
L 10.247134 21.995054 
L 10.34521 21.862023 
L 10.372266 21.868538 
L 10.406085 21.911914 
L 10.446668 21.781532 
L 10.46696 21.818005 
L 10.761189 21.177146 
L 10.764571 21.1813 
L 10.791627 21.049706 
L 10.886321 19.72808 
L 10.899849 8.611381 
L 10.984398 20.579632 
L 11.001308 22.709521 
L 11.096002 21.662066 
L 11.200842 19.704247 
L 11.21437 9.395428 
L 11.295537 21.181497 
L 11.309065 23.197392 
L 11.407141 22.003602 
L 11.525509 18.358389 
L 11.535655 9.446725 
L 11.63035 23.441873 
L 11.633732 23.454256 
L 11.660787 23.194477 
L 11.863704 18.487968 
L 11.87385 9.379635 
L 11.968544 23.612905 
L 11.971926 23.655495 
L 12.032801 23.031302 
L 12.22219 19.942246 
L 12.232336 16.806397 
L 12.2391 9.261348 
L 12.337176 23.777189 
L 12.340558 23.807378 
L 12.394669 23.301161 
L 12.617878 20.145471 
L 12.631406 17.207271 
L 12.63817 9.172773 
L 12.736246 23.896968 
L 12.739628 23.933049 
L 12.800503 23.413268 
L 13.074441 18.489122 
L 13.084587 9.137833 
L 13.179281 23.954182 
L 13.186045 23.997526 
L 13.24692 23.475051 
L 13.564823 18.987735 
L 13.574969 9.067067 
L 13.669663 23.987996 
L 13.673045 24.018904 
L 13.730538 23.575634 
L 14.112698 17.993135 
L 14.119462 9.061906 
L 14.217539 24.002236 
L 14.261504 23.672192 
L 14.640282 20.759414 
L 14.670719 20.604113 
L 14.72483 18.601182 
L 14.734976 9.038612 
L 14.829671 23.911515 
L 15.353872 20.106752 
L 15.370782 18.013959 
L 15.380928 9.060131 
L 15.472241 23.87403 
L 15.475623 23.861022 
L 16.064081 19.378377 
L 16.077609 9.020728 
L 16.155394 23.497461 
L 16.168922 23.811387 
L 16.256852 23.032992 
L 16.554463 21.087419 
L 16.828401 20.033604 
L 16.845311 18.432202 
L 16.855457 9.0582 
L 16.940005 23.663649 
L 16.950151 23.622498 
L 17.393186 20.83664 
L 17.396568 20.840078 
L 17.427006 20.741756 
L 17.541992 19.098691 
L 17.55552 9.035728 
L 17.640068 23.758503 
L 17.64345 23.784333 
L 17.694179 23.333554 
L 18.184562 20.782937 
L 18.279256 20.690967 
L 18.329985 20.752557 
L 18.488937 21.032225 
L 18.492319 21.022318 
L 18.553194 21.182044 
L 18.559958 21.171308 
L 18.614069 21.27796 
L 19.023284 22.035628 
L 18.63436 21.268159 
L 19.030048 22.029859 
L 19.040194 22.025099 
L 19.084159 22.145354 
L 19.243111 22.442624 
L 20.274604 24.737274 
L 19.249875 22.435351 
L 20.281368 24.718985 
L 20.288132 24.683106 
L 20.321952 24.756568 
L 20.386209 24.747371 
L 20.56207 24.986964 
L 20.565452 24.983455 
L 20.595889 25.068297 
L 20.612799 25.08195 
L 20.768368 25.255187 
L 20.656764 25.045768 
L 20.781896 25.228794 
L 20.832625 25.23756 
L 20.808952 25.261505 
L 20.863063 25.281647 
L 20.886737 25.341652 
L 20.978049 25.318547 
L 21.302716 25.058686 
L 21.32639 25.109481 
L 21.458286 25.207113 
L 21.600327 25.319356 
L 21.607091 25.295712 
L 21.965577 25.069272 
L 21.972341 25.109622 
L 21.982487 25.141568 
L 22.012925 25.085956 
L 22.077182 25.079691 
L 22.368029 24.904797 
L 22.391703 24.960812 
L 22.395085 24.969716 
L 22.442432 24.785462 
L 22.526981 24.774998 
L 22.469487 24.751255 
L 22.54389 24.74238 
L 22.645349 24.655177 
L 22.662258 24.667386 
L 22.66564 24.684624 
L 22.71637 24.575041 
L 22.756953 24.575643 
L 22.834738 24.521802 
L 22.871939 24.593418 
L 22.976779 24.56812 
L 22.95987 24.618794 
L 22.983543 24.5886 
L 23.017363 24.607109 
L 23.061328 24.513542 
L 23.091766 24.566763 
L 23.095148 24.571931 
L 23.145877 24.446841 
L 23.149259 24.45111 
L 23.196606 24.340171 
L 23.199988 24.320568 
L 23.294682 24.415272 
L 23.406287 24.436948 
L 23.409669 24.429765 
L 23.507745 24.379082 
L 23.477307 24.489021 
L 23.528037 24.396798 
L 23.602439 24.390141 
L 23.544946 24.451599 
L 23.636259 24.429975 
L 23.785065 24.513387 
L 23.653169 24.386795 
L 23.818884 24.47294 
L 23.913579 24.4718 
L 23.869613 24.51925 
L 23.927106 24.496006 
L 24.59335 24.590934 
L 24.701572 24.628975 
L 24.627169 24.552724 
L 24.711718 24.61 
L 24.914635 24.753359 
L 24.985656 24.732577 
L 24.9586 24.776259 
L 25.022857 24.775893 
L 25.060058 24.830859 
L 25.134461 24.769302 
L 25.141225 24.742224 
L 25.34076 24.781281 
L 25.438836 24.718249 
L 25.415163 24.819604 
L 25.46251 24.754305 
L 25.56735 24.776218 
L 25.550441 24.719184 
L 25.574114 24.747476 
L 25.919073 24.763432 
L 26.064496 24.717723 
L 26.074642 24.727539 
L 26.138899 24.790496 
L 26.189628 24.744119 
L 26.318142 24.762662 
L 26.324906 24.749607 
L 26.534587 24.743891 
L 26.933657 24.763138 
L 26.967476 24.814912 
L 27.041879 24.747704 
L 27.09599 24.721347 
L 27.065552 24.760382 
L 27.150101 24.75566 
L 27.224504 24.790809 
L 27.177157 24.729953 
L 27.271851 24.74417 
L 29.067665 24.70317 
L 29.179269 24.690341 
L 29.115012 24.757742 
L 29.182651 24.696163 
L 29.189415 24.67956 
L 29.246908 24.74856 
L 29.280727 24.749019 
L 29.368658 24.799602 
L 29.307783 24.722531 
L 29.395713 24.781723 
L 29.652741 24.765135 
L 29.733908 24.747617 
L 29.713616 24.794114 
L 29.760964 24.776844 
L 29.862422 24.813057 
L 29.815075 24.716055 
L 29.886096 24.791604 
L 29.96388 24.717218 
L 29.9977 24.796232 
L 30.001082 24.815167 
L 30.065339 24.710717 
L 30.10254 24.780647 
L 30.176943 24.789154 
L 30.214144 24.733406 
L 30.244582 24.692034 
L 30.329131 24.764199 
L 30.383242 24.689065 
L 30.437353 24.756381 
L 30.535429 24.80753 
L 30.511756 24.731379 
L 30.548957 24.754543 
L 30.60645 24.71127 
L 30.653797 24.79128 
L 30.657179 24.773732 
L 30.863478 24.760336 
L 30.964937 24.702723 
L 30.917589 24.78656 
L 30.978464 24.747475 
L 31.150944 24.799567 
L 30.985228 24.740614 
L 31.154326 24.795948 
L 31.252402 24.709139 
L 31.272694 24.739978 
L 31.394444 24.786005 
L 31.299749 24.718554 
L 31.397826 24.782257 
L 31.472228 24.787849 
L 31.499284 24.717756 
L 31.607506 24.691654 
L 31.529722 24.745275 
L 31.610888 24.703639 
L 31.746166 24.796568 
L 31.76984 24.757225 
L 31.847625 24.714715 
L 31.864534 24.784558 
L 31.881444 24.763045 
L 32.020104 24.806403 
L 31.905118 24.721259 
L 32.037014 24.784642 
L 32.138472 24.690701 
L 32.168909 24.711087 
L 32.808097 24.579567 
L 32.814861 24.543097 
L 32.902792 24.617283 
L 32.919702 24.580246 
L 33.014396 24.631562 
L 33.031306 24.595907 
L 33.139528 24.545555 
L 33.058361 24.640555 
L 33.149674 24.56135 
L 33.207167 24.567378 
L 33.173347 24.525913 
L 33.251132 24.521676 
L 33.26466 24.460549 
L 33.410084 24.467592 
L 33.440521 24.42237 
L 33.477723 24.50739 
L 33.521688 24.45125 
L 33.569035 24.530082 
L 33.606237 24.414421 
L 33.623146 24.422132 
L 33.690785 24.366468 
L 33.64682 24.454594 
L 33.731369 24.416111 
L 33.775334 24.46163 
L 33.802389 24.38049 
L 33.842973 24.417745 
L 33.981633 24.297423 
L 34.042508 24.395019 
L 34.120292 24.330926 
L 34.137202 24.305969 
L 34.198077 24.453177 
L 34.576855 24.287821 
L 34.580237 24.3037 
L 34.583619 24.32656 
L 34.661404 24.145308 
L 34.668168 24.167174 
L 34.786536 24.121504 
L 34.705369 24.205008 
L 34.803446 24.12857 
L 34.816973 24.109452 
L 34.850793 24.198038 
L 34.901522 24.173467 
L 34.996217 24.209704 
L 34.911668 24.150577 
L 35.013126 24.167732 
L 35.043564 24.117664 
L 35.107821 24.289185 
L 35.128112 24.233529 
L 35.219425 24.292851 
L 35.26339 24.200706 
L 35.327647 24.29477 
L 35.337793 24.352267 
L 35.40205 24.232725 
L 35.429106 24.246719 
L 35.547474 24.152143 
L 35.567765 24.183915 
L 35.635404 24.209732 
L 35.581293 24.142087 
L 35.669224 24.147601 
L 35.78421 24.064553 
L 35.689516 24.166097 
L 35.797738 24.100909 
L 35.824793 24.128488 
L 35.885668 24.026922 
L 35.902578 24.075813 
L 36.017564 23.93544 
L 36.031092 24.004584 
L 36.098731 24.05005 
L 36.051384 23.956781 
L 36.13255 23.990516 
L 36.240773 23.901293 
L 36.159606 23.996823 
L 36.250919 23.936594 
L 36.284738 23.884441 
L 36.321939 23.968051 
L 36.365905 23.903657 
L 36.54853 23.743876 
L 36.589113 23.797372 
L 36.697336 23.88188 
L 36.707481 23.864354 
L 36.724391 23.83215 
L 36.80894 23.899083 
L 36.812322 23.890636 
L 37.022002 23.98468 
L 36.829231 23.862275 
L 37.03553 23.944427 
L 37.17419 23.861709 
L 37.204627 23.902241 
L 37.275648 23.916213 
L 37.235065 23.880911 
L 37.31285 23.870593 
L 37.437982 23.735929 
L 37.45151 23.765624 
L 37.519148 23.766652 
L 37.529294 23.720876 
L 37.552968 23.724232 
L 37.732211 23.568894 
L 37.735593 23.570734 
L 38.648719 23.221862 
L 38.729885 23.153876 
L 38.767087 23.204625 
L 38.851635 23.117405 
L 38.892219 23.081795 
L 38.956476 23.160411 
L 39.05117 23.146978 
L 38.980149 23.123973 
L 39.057934 23.10296 
L 39.17292 23.073145 
L 39.179684 23.03279 
L 39.270997 22.911251 
L 39.298052 22.940477 
L 39.43333 23.048678 
L 39.544934 23.026092 
L 39.473913 23.117555 
L 39.548316 23.03364 
L 39.697122 22.816683 
L 39.703886 22.848963 
L 39.81549 22.781749 
L 39.714032 22.869501 
L 39.825636 22.824033 
L 39.930476 22.830658 
L 39.8324 22.809603 
L 39.960914 22.793548 
L 40.069136 22.739173 
L 40.089428 22.779194 
L 40.116483 22.813235 
L 40.106337 22.756642 
L 40.19765 22.768843 
L 40.285581 22.633129 
L 40.326164 22.666951 
L 40.329546 22.678724 
L 40.414094 22.589261 
L 40.444532 22.651907 
L 40.515553 22.609537 
L 40.59672 22.618857 
L 40.549372 22.567305 
L 40.617011 22.58776 
L 40.650831 22.547017 
L 40.70156 22.635238 
L 40.725234 22.613935 
L 40.745525 22.571895 
L 40.846984 22.628194 
L 40.982261 22.574081 
L 40.995789 22.585428 
L 41.002553 22.623456 
L 41.053282 22.482618 
L 41.087102 22.514191 
L 41.202088 22.416702 
L 41.110775 22.568656 
L 41.218998 22.454536 
L 41.594394 22.347986 
L 41.695852 22.258683 
L 41.716144 22.265935 
L 41.854804 22.233202 
L 41.963026 22.258139 
L 41.902151 22.192997 
L 41.973172 22.23065 
L 42.09154 22.189404 
L 42.006991 22.27566 
L 42.105068 22.198356 
L 42.446644 22.005794 
L 42.453408 22.008746 
L 42.629269 21.801784 
L 42.639415 21.819109 
L 42.713818 21.690102 
L 42.7172 21.701504 
L 42.859242 21.536496 
L 42.862624 21.537166 
L 42.879533 21.539441 
L 42.923499 21.436871 
L 43.166999 19.779718 
L 43.183908 8.608772 
L 43.265075 19.807097 
L 43.281985 22.685892 
L 43.376679 21.647937 
L 43.478138 19.487403 
L 43.491666 9.438426 
L 43.572832 22.084283 
L 43.58636 23.182287 
L 43.681055 21.967858 
L 43.792659 19.181393 
L 43.802805 9.435353 
L 43.894117 23.235619 
L 43.900881 23.42941 
L 43.98543 22.421447 
L 44.12409 19.38556 
L 44.134235 9.398724 
L 44.222166 22.606302 
L 44.235694 23.644604 
L 44.330388 22.556393 
L 44.482576 19.530473 
L 44.496104 9.29545 
L 44.580652 22.211747 
L 44.597562 23.806069 
L 44.692257 22.807321 
L 44.878264 19.319489 
L 44.888409 9.20005 
L 44.979722 23.513867 
L 44.99325 23.927403 
L 45.08118 23.075569 
L 45.311153 19.665153 
L 45.32468 9.121435 
L 45.405847 20.52877 
L 45.426139 23.999817 
L 45.520833 23.159124 
L 45.801535 19.062366 
L 45.811681 9.067584 
L 45.902993 23.888835 
L 45.909757 24.011655 
L 45.990924 23.359368 
L 46.339264 18.748913 
L 46.34941 9.054513 
L 46.444105 23.988275 
L 46.447487 23.999979 
L 46.481306 23.733515 
L 46.565855 22.984723 
L 46.812737 21.046094 
L 46.920959 20.18786 
L 46.937869 19.027578 
L 46.948015 9.035286 
L 47.039327 23.920878 
L 47.042709 23.932132 
L 47.076529 23.668159 
L 47.577057 19.817993 
L 47.590584 11.005072 
L 47.593966 9.041989 
L 47.678515 23.75295 
L 47.688661 23.878075 
L 47.766446 23.214937 
L 48.047147 21.185161 
L 48.050529 21.191528 
L 48.182425 20.614553 
L 48.256828 19.462584 
L 48.270356 9.042876 
L 48.344759 23.0606 
L 48.361668 23.814972 
L 48.452981 23.015943 
L 48.757356 21.089863 
L 48.760738 21.096168 
L 48.801321 20.946591 
L 49.00762 19.331633 
L 49.021148 9.038993 
L 49.098933 23.530767 
L 49.109078 23.713965 
L 49.193627 22.976681 
L 49.775322 20.563952 
L 49.782086 20.589612 
L 50.411128 21.824553 
L 49.819287 20.561834 
L 50.417892 21.783449 
L 50.421274 21.777349 
L 50.461857 21.915243 
L 50.630954 22.261626 
L 50.634336 22.248137 
L 50.705357 22.40377 
L 50.857545 22.701166 
L 50.722267 22.359851 
L 50.860927 22.690073 
L 51.746996 24.83194 
L 51.763906 24.82424 
L 51.777434 24.794459 
L 51.861983 24.896869 
L 51.865365 24.884559 
L 52.024316 25.165707 
L 52.044608 25.158466 
L 52.616157 25.178154 
L 52.707469 25.071704 
L 52.731143 25.127511 
L 52.77849 25.215186 
L 52.829219 25.089308 
L 52.835983 25.10418 
L 52.961115 25.006763 
L 52.964497 25.01785 
L 53.069337 25.028554 
L 53.079483 25.009433 
L 53.26549 24.949488 
L 53.109921 25.072348 
L 53.272254 24.993033 
L 53.427824 24.998876 
L 53.431206 24.981988 
L 53.512372 24.874503 
L 53.454879 24.99842 
L 53.55972 24.897264 
L 53.904678 24.746058 
L 53.938498 24.713972 
L 53.985845 24.793401 
L 54.006137 24.781832 
L 54.053484 24.823243 
L 54.104213 24.703877 
L 54.442408 24.370873 
L 54.466081 24.410184 
L 54.486373 24.453218 
L 54.56754 24.396855 
L 54.577686 24.418409 
L 54.692672 24.236027 
L 54.736637 24.357813 
L 54.851623 24.387655 
L 54.804276 24.291594 
L 54.858387 24.373536 
L 54.997047 24.239893 
L 55.007193 24.245501 
L 55.03763 24.297847 
L 55.061304 24.311724 
L 55.07145 24.364165 
L 55.135707 24.211223 
L 55.166144 24.244215 
L 55.267603 24.223011 
L 55.17629 24.263115 
L 55.274366 24.262621 
L 55.328478 24.285498 
L 55.345387 24.202309 
L 55.382589 24.22419 
L 55.392735 24.210308 
L 55.460373 24.307943 
L 55.473901 24.290084 
L 55.528012 24.376115 
L 55.595651 24.344803 
L 55.605797 24.307826 
L 55.670054 24.424905 
L 55.703874 24.490846 
L 55.778276 24.404541 
L 55.872971 24.297351 
L 55.808714 24.427943 
L 55.90679 24.334634 
L 55.987957 24.398766 
L 56.021777 24.385805 
L 56.238221 24.353792 
L 56.255131 24.387268 
L 56.312624 24.31769 
L 56.343061 24.315565 
L 56.346443 24.305928 
L 56.417464 24.433211 
L 56.535832 24.438166 
L 56.556124 24.395592 
L 56.613617 24.390723 
L 56.637291 24.458937 
L 56.650819 24.44743 
L 56.708312 24.630678 
L 56.833444 24.776919 
L 56.846971 24.768392 
L 56.961958 24.733121 
L 56.972103 24.760914 
L 57.066798 24.79189 
L 57.012687 24.720305 
L 57.080326 24.739944 
L 57.17502 24.756252 
L 57.185166 24.769074 
L 57.279861 24.791099 
L 57.259569 24.749074 
L 57.29677 24.783148 
L 57.432048 24.729142 
L 57.533507 24.769363 
L 57.442194 24.719432 
L 57.547034 24.757823 
L 57.634965 24.739015 
L 57.604527 24.785687 
L 57.655257 24.775013 
L 57.672166 24.809834 
L 57.749951 24.724213 
L 57.766861 24.783972 
L 57.888611 24.751197 
L 57.891993 24.764017 
L 57.969778 24.794689 
L 57.942722 24.734534 
L 58.003597 24.785559 
L 58.047562 24.738969 
L 58.118583 24.756438 
L 58.226806 24.774605 
L 58.149021 24.732938 
L 58.233569 24.742821 
L 58.236951 24.728619 
L 58.324882 24.826227 
L 58.331646 24.840755 
L 58.362083 24.751613 
L 58.416195 24.757436 
L 58.422958 24.717812 
L 58.521035 24.786774 
L 58.652931 24.757072 
L 58.551472 24.727089 
L 58.656313 24.736364 
L 58.669841 24.754225 
L 58.801736 24.704488 
L 58.872757 24.781387 
L 58.913341 24.73416 
L 59.011417 24.710776 
L 58.987743 24.787661 
L 59.021563 24.755054 
L 59.187278 24.781402 
L 59.19066 24.774035 
L 59.285355 24.727643 
L 59.305646 24.74649 
L 59.410487 24.794222 
L 59.420633 24.767252 
L 59.566056 24.755757 
L 59.569438 24.767136 
L 59.623549 24.801899 
L 59.660751 24.740046 
L 59.677661 24.748038 
L 59.697952 24.713282 
L 59.762209 24.797297 
L 59.785883 24.76563 
L 59.924543 24.758135 
L 59.792647 24.746997 
L 59.927925 24.737238 
L 60.042911 24.726659 
L 60.049675 24.745875 
L 60.262737 24.776688 
L 60.989856 24.721119 
L 61.074404 24.734604 
L 61.023675 24.802545 
L 61.087932 24.769105 
L 61.358488 24.788376 
L 61.365252 24.740797 
L 61.453182 24.722202 
L 61.372016 24.771815 
L 61.480238 24.757541 
L 61.558023 24.77096 
L 61.497148 24.739785 
L 61.581696 24.725598 
L 61.615516 24.654702 
L 61.645953 24.765437 
L 61.686537 24.756408 
L 61.886071 24.767874 
L 61.977384 24.706895 
L 61.936801 24.796957 
L 62.00444 24.723516 
L 62.105898 24.693359 
L 62.122808 24.753337 
L 62.237794 24.743615 
L 62.173537 24.775099 
L 62.241176 24.756344 
L 62.373072 24.731766 
L 62.376454 24.70568 
L 62.393363 24.681136 
L 62.437329 24.748223 
L 62.477912 24.752267 
L 62.59628 24.779639 
L 62.498204 24.718709 
L 62.603044 24.769339 
L 62.667301 24.704924 
L 62.6301 24.793643 
L 62.714648 24.774508 
L 62.833016 24.726476 
L 62.836398 24.732974 
L 63.066371 24.731176 
L 63.073135 24.722082 
L 63.106954 24.797259 
L 63.161065 24.78107 
L 63.208412 24.793334 
L 63.225322 24.734981 
L 63.262524 24.742723 
L 63.353836 24.65727 
L 63.387656 24.705759 
L 63.414711 24.783777 
L 63.49926 24.710758 
L 63.634538 24.671345 
L 63.512788 24.730192 
L 63.651447 24.686516 
L 63.664975 24.715207 
L 63.702177 24.647936 
L 63.763052 24.687557 
L 63.925385 24.728521 
L 64.006552 24.681161 
L 64.043753 24.711332 
L 64.168885 24.710524 
L 64.179031 24.683927 
L 64.273726 24.666796 
L 64.243288 24.71614 
L 64.283871 24.702465 
L 64.35151 24.799924 
L 64.402239 24.749714 
L 64.486788 24.6296 
L 64.520608 24.71965 
L 64.537517 24.748117 
L 64.59501 24.641573 
L 64.632212 24.719729 
L 64.797927 24.630205 
L 64.655885 24.761519 
L 64.811455 24.650967 
L 64.818219 24.676744 
L 64.899386 24.559373 
L 65.224052 24.682412 
L 65.23758 24.637723 
L 65.264636 24.58147 
L 65.339039 24.696046 
L 65.447261 24.694099 
L 65.345802 24.687564 
L 65.457407 24.668601 
L 65.477698 24.595205 
L 65.572393 24.640509 
L 65.650178 24.660978 
L 65.599448 24.628521 
L 65.683997 24.643852 
L 65.853094 24.530481 
L 65.856476 24.544592 
L 65.910588 24.556814 
L 65.951171 24.459809 
L 66.039101 24.332573 
L 66.083067 24.363846 
L 66.191289 24.430236 
L 66.201435 24.376623 
L 66.265692 24.344581 
L 66.299511 24.421127 
L 66.407734 24.495357 
L 66.313039 24.414995 
L 66.421261 24.454856 
L 66.502428 24.422395 
L 66.461845 24.482597 
L 66.536248 24.452567 
L 66.64447 24.480553 
L 66.586977 24.415563 
L 66.66138 24.455836 
L 66.681671 24.404307 
L 66.742546 24.494721 
L 66.769602 24.463198 
L 66.833859 24.546305 
L 66.78313 24.427624 
L 66.884588 24.457483 
L 66.901498 24.486116 
L 66.969137 24.388878 
L 67.006338 24.309489 
L 67.084123 24.377915 
L 67.290422 24.185156 
L 67.090887 24.392775 
L 67.324241 24.247254 
L 67.331005 24.305326 
L 67.415554 24.216544 
L 67.432463 24.243877 
L 67.517012 24.210851 
L 67.469665 24.176426 
L 67.523776 24.190703 
L 67.550831 24.249258 
L 67.642144 24.174464 
L 68.159582 23.889949 
L 67.648908 24.185436 
L 68.169728 23.926212 
L 68.281332 24.034163 
L 68.291478 24.002691 
L 68.328679 24.036867 
L 68.480867 23.850476 
L 68.511304 23.936241 
L 68.595853 23.877097 
L 68.697311 23.800698 
L 68.710839 23.838976 
L 68.792006 23.799267 
L 68.741277 23.887998 
L 68.822443 23.844929 
L 68.863027 23.894064 
L 68.92052 23.768498 
L 69.00845 23.666452 
L 69.035506 23.697507 
L 69.049034 23.74001 
L 69.106527 23.627942 
L 69.136964 23.641366 
L 69.235041 23.644513 
L 69.157256 23.585344 
L 69.25195 23.579127 
L 69.380464 23.52973 
L 69.383846 23.538999 
L 69.454867 23.418309 
L 69.465013 23.404439 
L 69.51236 23.497662 
L 69.549562 23.479339 
L 69.745715 23.491452 
L 69.749097 23.480487 
L 69.837027 23.57034 
L 69.847173 23.536022 
L 69.864083 23.588269 
L 69.938486 23.412815 
L 70.05009 23.313133 
L 70.107583 23.245622 
L 70.148166 23.375257 
L 70.15493 23.35482 
L 70.499889 23.282623 
L 70.506653 23.321176 
L 70.587819 23.126699 
L 70.668986 23.09626 
L 70.601347 23.146601 
L 70.699423 23.138659 
L 70.740007 23.140774 
L 70.767062 23.217372 
L 70.878667 23.306212 
L 70.90234 23.291824 
L 71.193188 23.261717 
L 71.291264 23.325976 
L 71.304792 23.279704 
L 71.494181 23.075174 
L 71.524618 23.110605 
L 71.592257 23.164492 
L 71.642986 23.100401 
L 72.03191 23.126563 
L 72.157042 22.970686 
L 72.177334 23.016147 
L 72.285556 23.089062 
L 72.18748 23.005749 
L 72.299084 23.030492 
L 72.407306 22.984792 
L 72.437744 23.025079 
L 72.508765 23.155593 
L 72.562876 23.078974 
L 72.620369 23.113321 
L 72.650806 22.993926 
L 72.81314 23.071062 
L 72.684626 22.970182 
L 72.816522 23.046958 
L 72.941654 22.919569 
L 73.066786 23.087894 
L 73.090459 23.028816 
L 73.337342 22.958779 
L 73.347487 22.989082 
L 73.350869 23.02347 
L 73.452328 22.952949 
L 73.45571 22.978106 
L 73.628189 22.847703 
L 73.689064 22.913235 
L 73.733029 22.814842 
L 73.810814 22.90037 
L 73.935946 22.948564 
L 74.04755 22.835419 
L 74.067842 22.858523 
L 74.209884 22.743096 
L 74.243703 22.783165 
L 74.32487 22.816355 
L 74.270759 22.762447 
L 74.34178 22.74641 
L 74.531169 22.488654 
L 74.534551 22.510508 
L 74.602189 22.367598 
L 74.622481 22.374835 
L 74.625863 22.358414 
L 74.69012 22.463848 
L 74.727321 22.400784 
L 74.754377 22.421866 
L 74.79496 22.328593 
L 74.801724 22.328102 
L 74.903183 22.256212 
L 74.82878 22.34073 
L 74.920092 22.2921 
L 74.970822 22.200757 
L 75.011405 22.085645 
L 75.085808 22.165753 
L 75.19403 22.183755 
L 75.099336 22.155558 
L 75.197412 22.164867 
L 75.339454 21.952257 
L 75.366509 21.968054 
L 75.464586 22.037093 
L 75.478114 21.977025 
L 75.57619 21.965455 
L 75.505169 21.908858 
L 75.586336 21.922242 
L 75.718232 21.770754 
L 75.728378 21.793441 
L 75.775725 21.879027 
L 75.826454 21.752901 
L 75.843364 21.791044 
L 75.971878 21.721172 
L 75.887329 21.843642 
L 75.97526 21.730465 
L 75.982024 21.746301 
L 76.012461 21.672234 
L 76.066572 21.665078 
L 76.401385 20.33441 
L 76.418295 18.676407 
L 76.42844 8.598456 
L 76.523135 22.661063 
L 76.529899 22.70037 
L 76.580628 22.172754 
L 76.72267 19.883465 
L 76.73958 9.399081 
L 76.817364 19.432852 
L 76.834274 23.191967 
L 76.928969 22.01813 
L 77.043955 19.300024 
L 77.054101 9.43127 
L 77.145413 23.212318 
L 77.155559 23.448666 
L 77.240108 22.426748 
L 77.382149 18.148696 
L 77.388913 9.379214 
L 77.490372 23.662944 
L 77.493754 23.665046 
L 77.507281 23.543254 
L 77.740636 19.764982 
L 77.754163 9.264387 
L 77.838712 20.695196 
L 77.859004 23.82447 
L 77.950316 22.873994 
L 78.143087 19.32144 
L 78.153233 9.178814 
L 78.244546 23.522919 
L 78.258073 23.945004 
L 78.346004 23.104335 
L 78.586122 19.413345 
L 78.596268 9.134258 
L 78.684199 23.295133 
L 78.697726 24.011516 
L 78.792421 23.182064 
L 79.079886 19.283355 
L 79.090032 9.069267 
L 79.177963 23.630872 
L 79.191491 24.024869 
L 79.282803 23.266607 
L 79.631144 18.662768 
L 79.641289 9.052567 
L 79.735984 23.998504 
L 79.773185 23.725313 
L 80.23313 20.010482 
L 80.246658 17.705843 
L 80.253422 9.065867 
L 80.348116 23.914778 
L 80.351498 23.909217 
L 80.889228 18.797235 
L 80.899373 9.024135 
L 80.990686 23.87141 
L 80.994068 23.846284 
L 81.024505 23.62143 
L 81.281533 21.576851 
L 81.504742 20.684584 
L 81.585909 20.126216 
L 81.6062 17.253658 
L 81.612964 9.071659 
L 81.704277 23.773927 
L 81.711041 23.747891 
L 82.201423 20.741352 
L 82.204805 20.742755 
L 82.218333 20.676279 
L 82.235242 20.641219 
L 82.360374 20.128572 
L 82.380666 18.534085 
L 82.390812 9.039881 
L 82.47536 23.680782 
L 82.485506 23.635577 
L 83.077347 19.291594 
L 83.090875 9.01494 
L 83.168659 23.536032 
L 83.182187 23.762469 
L 83.263354 23.028838 
L 83.62184 21.068499 
L 83.767264 20.683996 
L 83.872104 20.841126 
L 84.004 21.069359 
L 84.007382 21.063264 
L 84.014146 21.058844 
L 84.064875 21.169812 
L 84.078403 21.153785 
L 84.551875 21.980443 
L 84.690535 22.218001 
L 85.059167 22.974262 
L 85.265466 23.4976 
L 85.333105 23.691044 
L 85.563077 24.256539 
L 85.569841 24.245999 
L 85.613807 24.3532 
L 85.837015 24.764836 
L 85.924946 24.747691 
L 85.843779 24.776578 
L 85.941855 24.796944 
L 86.273286 25.074986 
L 86.317251 25.122076 
L 86.381508 25.079107 
L 86.442383 24.981682 
L 86.493113 25.06629 
L 86.530314 25.021189 
L 86.648682 25.11434 
L 86.675738 25.080443 
L 86.739995 25.163023 
L 86.756904 25.133021 
L 86.868509 25.151484 
L 86.76705 25.120584 
L 86.882036 25.11783 
L 86.976731 25.070149 
L 86.926002 25.139166 
L 86.997023 25.097157 
L 87.155974 25.091734 
L 87.159356 25.073978 
L 87.277724 25.007922 
L 87.30478 25.054637 
L 87.369037 24.90614 
L 87.375801 24.916228 
L 87.419766 24.849918 
L 87.470495 24.958474 
L 87.477259 24.951563 
L 87.612537 25.04947 
L 87.710613 25.004225 
L 87.656502 25.088558 
L 87.720759 25.073351 
L 87.727523 25.100005 
L 87.781634 25.005903 
L 87.828981 25.05302 
L 87.832363 25.061354 
L 87.876329 24.962939 
L 87.916912 24.986787 
L 88.180704 24.730781 
L 88.211141 24.76995 
L 88.241579 24.809477 
L 88.3126 24.688515 
L 88.704905 24.564484 
L 88.830038 24.2794 
L 88.840183 24.317915 
L 89.053246 24.383141 
L 89.066774 24.333888 
L 89.202052 24.168552 
L 89.205434 24.175311 
L 89.279836 24.264759 
L 89.327184 24.240967 
L 89.347475 24.269088 
L 89.452316 24.25637 
L 89.553774 24.374107 
L 89.570684 24.337624 
L 89.577448 24.369719 
L 89.66876 24.261355 
L 89.739781 24.221363 
L 89.770219 24.293581 
L 89.773601 24.286865 
L 89.885205 24.383708 
L 89.817566 24.257239 
L 89.905496 24.343206 
L 89.91226 24.333369 
L 89.996809 24.575662 
L 90.142233 24.685374 
L 90.186198 24.580346 
L 90.253837 24.655323 
L 90.284274 24.735172 
L 90.348531 24.60756 
L 90.362059 24.64146 
L 90.368823 24.623458 
L 90.41617 24.763772 
L 90.446608 24.752454 
L 90.504101 24.80917 
L 90.551448 24.726711 
L 90.55483 24.727821 
L 90.578504 24.745133 
L 90.632615 24.641453 
L 90.646143 24.660047 
L 90.7104 24.788987 
L 90.801712 24.799358 
L 90.754365 24.7518 
L 90.818622 24.778527 
L 90.859205 24.734134 
L 90.916698 24.821075 
L 90.923462 24.817985 
L 91.068886 24.762806 
L 91.068886 24.762806 
" clip-path="url(#p0b45e9ece5)" style="fill: none; stroke: #000000; stroke-width: 0.6; stroke-linecap: square"/>
   </g>
   <g id="line2d_2">
    <path d="M 9.905557 41.765123 
L 9.939376 41.783767 
L 9.97996 41.727179 
L 10.010397 41.730032 
L 10.788245 41.852749 
L 11.014835 42.33911 
L 10.855884 41.807186 
L 11.031745 42.330423 
L 11.183933 42.282238 
L 11.309065 42.323049 
L 11.204224 42.252181 
L 11.315829 42.307455 
L 11.440961 42.195309 
L 11.444343 42.201985 
L 11.572857 42.325303 
L 11.57962 42.318232 
L 11.748718 42.209263 
L 11.769009 42.264558 
L 11.907669 42.349162 
L 11.911051 42.327148 
L 11.934725 42.334077 
L 12.036183 42.224247 
L 12.171461 42.221808 
L 12.042947 42.240398 
L 12.174843 42.24565 
L 12.296593 42.328036 
L 12.188371 42.226814 
L 12.299975 42.32334 
L 12.411579 42.232887 
L 12.421725 42.266682 
L 12.617878 42.240319 
L 12.62126 42.252526 
L 12.732864 42.283436 
L 12.631406 42.238276 
L 12.746392 42.271403 
L 12.901961 42.211544 
L 12.905343 42.193909 
L 12.983128 42.311022 
L 13.000038 42.26309 
L 13.027093 42.286768 
L 13.077823 42.180038 
L 13.101496 42.220364 
L 13.179281 42.213221 
L 13.12517 42.261891 
L 13.206337 42.254158 
L 13.429545 42.264664 
L 13.432927 42.275427 
L 13.436309 42.284846 
L 13.480274 42.211109 
L 13.534385 42.23152 
L 13.720392 42.307361 
L 13.737302 42.286516 
L 13.862434 42.197503 
L 13.997712 42.193883 
L 13.899636 42.249269 
L 14.001094 42.208492 
L 14.01124 42.266629 
L 14.112698 42.224817 
L 14.258122 42.305561 
L 14.366344 42.210709 
L 14.379872 42.219226 
L 14.491476 42.288075 
L 14.450893 42.189343 
L 14.494858 42.276675 
L 14.53206 42.187731 
L 14.61999 42.236005 
L 14.731594 42.265043 
L 14.674101 42.193019 
L 14.738358 42.243766 
L 14.75865 42.217262 
L 14.802615 42.285302 
L 14.846581 42.260547 
L 14.958185 42.293536 
L 14.961567 42.278286 
L 15.03597 42.160883 
L 15.086699 42.211849 
L 15.181393 42.280801 
L 15.205067 42.272901 
L 15.333581 42.155755 
L 15.343727 42.186871 
L 15.472241 42.360586 
L 15.370782 42.175825 
L 15.485768 42.322598 
L 15.607518 42.229428 
L 15.736032 42.26683 
L 15.617664 42.206527 
L 15.739414 42.255346 
L 15.837491 42.196282 
L 15.840873 42.154494 
L 15.898366 42.233642 
L 15.942331 42.231485 
L 16.003206 42.163319 
L 16.087755 42.275241 
L 16.091137 42.252736 
L 16.111428 42.307993 
L 16.195977 42.28273 
L 16.358311 42.32519 
L 16.206123 42.250424 
L 16.37522 42.284581 
L 16.425949 42.229339 
L 16.490206 42.264192 
L 16.848693 42.189994 
L 16.852075 42.200958 
L 16.936623 42.284727 
L 16.899422 42.184402 
L 16.973825 42.256952 
L 17.044846 42.185868 
L 17.098957 42.232065 
L 17.217325 42.257601 
L 17.227471 42.210247 
L 17.264672 42.156393 
L 17.2782 42.241514 
L 17.339075 42.205489 
L 17.443915 42.247066 
L 17.352603 42.196472 
L 17.470971 42.211662 
L 17.5217 42.171973 
L 17.575811 42.238709 
L 17.579193 42.227513 
L 17.623158 42.306955 
L 17.687415 42.211084 
L 17.785492 42.280796 
L 17.700943 42.189318 
L 17.829457 42.24411 
L 18.14736 42.226897 
L 18.150742 42.201658 
L 18.18118 42.235815 
L 18.265728 42.199156 
L 18.904916 42.042826 
L 18.979319 41.987118 
L 18.918444 42.063666 
L 19.019902 42.027033 
L 19.15518 42.162531 
L 19.161944 42.141578 
L 19.27693 41.973577 
L 19.287076 41.988837 
L 19.290458 42.00388 
L 19.375007 41.928263 
L 19.388534 41.941493 
L 19.557632 41.936287 
L 19.412208 41.983964 
L 19.561014 41.944174 
L 19.598215 41.967633 
L 19.652326 41.893958 
L 19.665854 41.92118 
L 19.774076 41.904191 
L 19.719965 41.966106 
L 19.777458 41.919153 
L 19.831569 41.813941 
L 19.845097 41.776241 
L 19.892444 41.896804 
L 19.93641 41.847671 
L 19.960083 41.908615 
L 20.017576 41.789968 
L 20.132563 41.736103 
L 20.037868 41.810295 
L 20.135945 41.747751 
L 20.315188 41.523376 
L 20.31857 41.541786 
L 20.369299 41.532148 
L 20.396354 41.451885 
L 20.426792 41.408317 
L 20.470757 41.488758 
L 20.507959 41.447878 
L 20.521486 41.488967 
L 20.599271 41.375699 
L 20.707493 41.327728 
L 20.636473 41.394736 
L 20.724403 41.343618 
L 20.737931 41.363369 
L 20.80557 41.215648 
L 20.808952 41.224881 
L 20.930702 41.179134 
L 20.819098 41.26484 
L 20.934084 41.190359 
L 21.126855 41.095448 
L 21.160674 41.125967 
L 21.18773 41.055535 
L 21.235077 41.101545 
L 21.248605 41.107861 
L 21.387265 40.921617 
L 21.515779 41.016146 
L 21.404174 40.899241 
L 21.519161 40.995318 
L 21.539452 41.052638 
L 21.600327 40.923884 
L 21.603709 40.922308 
L 21.67473 40.787586 
L 21.617237 40.934283 
L 21.749133 40.834768 
L 22.029834 40.63173 
L 21.782952 40.871298 
L 22.046744 40.680046 
L 22.104237 40.707686 
L 22.070418 40.644627 
L 22.144821 40.646333 
L 22.253043 40.538044 
L 22.16173 40.661991 
L 22.273335 40.553225 
L 22.293626 40.586599 
L 22.364647 40.45072 
L 22.418758 40.478331 
L 22.445814 40.374149 
L 22.631821 40.222782 
L 22.655495 40.174122 
L 22.723133 40.185083 
L 22.831356 40.024865 
L 22.851647 40.040386 
L 22.882085 40.086167 
L 22.861793 40.034455 
L 22.956488 40.007039 
L 23.06471 39.919262 
L 23.199988 39.845633 
L 23.216898 39.827924 
L 23.321738 39.843293 
L 23.487453 39.658971 
L 23.511127 39.68602 
L 23.575384 39.540358 
L 23.578766 39.547113 
L 23.734335 39.496892 
L 23.737717 39.472424 
L 23.84594 39.427707 
L 23.768155 39.478297 
L 23.852704 39.450625 
L 23.940634 39.349224 
L 24.065766 39.232822 
L 24.069148 39.238705 
L 24.187516 39.364722 
L 24.082676 39.226634 
L 24.197662 39.34006 
L 24.620405 38.454698 
L 24.786121 37.214353 
L 24.80303 30.501809 
L 24.809794 26.664995 
L 24.894343 40.958838 
L 24.901107 40.926608 
L 25.104024 37.055766 
L 25.117551 26.916018 
L 25.195336 40.21224 
L 25.208864 41.241827 
L 25.303558 40.070378 
L 25.432072 36.264734 
L 25.442218 27.210289 
L 25.533531 41.215785 
L 25.631607 39.875285 
L 25.746593 37.06042 
L 25.763503 27.377666 
L 25.834524 39.190286 
L 25.851434 41.263305 
L 25.946128 40.024407 
L 26.074642 36.915409 
L 26.08817 27.314615 
L 26.162573 40.04128 
L 26.176101 41.357216 
L 26.274177 40.192641 
L 26.419601 36.377019 
L 26.429747 27.258448 
L 26.521059 41.491323 
L 26.57517 40.97219 
L 26.791615 36.404074 
L 26.801761 27.193789 
L 26.893073 41.59131 
L 26.94042 41.240849 
L 27.197448 37.082616 
L 27.214358 27.071132 
L 27.285379 39.998417 
L 27.302289 41.709514 
L 27.396983 41.00135 
L 27.670921 35.718925 
L 27.681067 26.98276 
L 27.772379 41.785974 
L 27.775761 41.775148 
L 27.890747 40.937154 
L 28.20865 36.891855 
L 28.22556 27.004422 
L 28.293199 40.843324 
L 28.310109 41.805722 
L 28.404803 41.221537 
L 28.776817 37.875433 
L 28.814019 36.410219 
L 28.827546 26.963004 
L 28.908713 41.848693 
L 28.918859 41.844787 
L 28.932387 41.769513 
L 28.935769 41.763802 
L 29.223234 39.756313 
L 29.257054 39.513689 
L 29.544519 35.953658 
L 29.558047 27.06607 
L 29.639214 41.834858 
L 29.642596 41.826117 
L 29.7542 41.187041 
L 30.37986 36.879062 
L 30.400152 27.300704 
L 30.454263 39.062651 
L 30.488082 41.762425 
L 30.569249 41.27111 
L 30.978464 38.671088 
L 31.164471 38.128952 
L 31.167853 38.136236 
L 31.208437 38.020402 
L 31.269312 37.889336 
L 31.286221 38.152185 
L 31.462083 39.274481 
L 31.468847 39.252932 
L 31.729256 39.514016 
L 31.945701 40.073422 
L 31.955847 40.061159 
L 32.625472 41.467648 
L 32.74384 41.626843 
L 32.757368 41.604617 
L 32.939993 41.823554 
L 32.781042 41.560371 
L 32.953521 41.79011 
L 32.960285 41.744482 
L 33.044834 41.872323 
L 33.054979 41.857486 
L 33.176729 41.951839 
L 33.183493 41.919883 
L 33.254514 41.910002 
L 33.203785 41.860132 
L 33.278188 41.860913 
L 33.301861 41.842414 
L 33.308625 41.90038 
L 33.3695 41.919807 
L 33.433757 41.981393 
L 33.487868 41.957418 
L 33.498014 41.932604 
L 33.579181 42.064851 
L 33.690785 42.108566 
L 33.697549 42.093459 
L 33.744896 42.138189 
L 33.815917 42.06478 
L 33.839591 42.115329 
L 33.90723 41.970704 
L 34.086473 41.890185 
L 34.093237 41.918727 
L 34.15073 41.80731 
L 34.174404 41.826811 
L 34.181167 41.808412 
L 34.242043 41.926745 
L 34.245424 41.92706 
L 34.282626 41.89164 
L 34.370556 41.981409 
L 34.492307 41.882595 
L 34.495688 41.883287 
L 34.887994 41.791142 
L 35.006362 41.750267 
L 34.938723 41.847776 
L 35.009744 41.766741 
L 35.111203 41.782412 
L 35.040182 41.740618 
L 35.12473 41.767139 
L 35.199133 41.902863 
L 35.26339 41.849798 
L 35.351321 41.80818 
L 35.388522 41.88456 
L 35.571147 41.943111 
L 35.584675 41.887196 
L 35.760536 41.812108 
L 35.868759 41.756693 
L 35.818029 41.841349 
L 35.875523 41.781163 
L 35.929634 41.690505 
L 35.946543 41.649514 
L 36.020946 41.796377 
L 36.024328 41.785609 
L 36.119023 41.950892 
L 36.152842 41.893842 
L 36.203571 41.909018 
L 36.240773 41.83036 
L 36.359141 41.779668 
L 36.257682 41.854325 
L 36.372669 41.804975 
L 36.487655 41.817274 
L 36.386196 41.778836 
L 36.497801 41.776228 
L 36.595877 41.720369 
L 36.616169 41.756192 
L 36.754829 41.872383 
L 36.761592 41.842595 
L 36.859669 41.752254 
L 36.876579 41.780883 
L 37.015238 41.922076 
L 37.022002 41.907894 
L 37.143752 41.89312 
L 37.055822 41.85382 
L 37.150516 41.879277 
L 37.153898 41.867464 
L 37.184336 41.951884 
L 37.251975 41.923467 
L 37.475183 41.76642 
L 37.478565 41.774486 
L 37.576642 41.830312 
L 37.509003 41.764717 
L 37.593551 41.806147 
L 37.688246 41.779518 
L 37.623989 41.823178 
L 37.705155 41.791878 
L 37.722065 41.818523 
L 37.79985 41.709647 
L 37.864107 41.663398 
L 37.823524 41.739408 
L 37.908072 41.714879 
L 37.989239 41.799818 
L 38.023058 41.743031 
L 38.02644 41.724052 
L 38.100843 41.832484 
L 38.124517 41.80275 
L 38.300378 41.672177 
L 38.313906 41.704311 
L 38.418746 41.718244 
L 38.391691 41.674827 
L 38.428892 41.701705 
L 38.483003 41.627946 
L 38.540496 41.689559 
L 38.729885 41.605918 
L 38.736649 41.615749 
L 38.79076 41.61679 
L 38.814434 41.543127 
L 38.821198 41.547938 
L 38.827962 41.523275 
L 38.895601 41.625326 
L 39.041024 41.796868 
L 39.044406 41.790709 
L 39.122191 41.790868 
L 39.139101 41.731694 
L 39.149247 41.758154 
L 39.237177 41.74161 
L 39.186448 41.69361 
L 39.247323 41.715729 
L 39.277761 41.6629 
L 39.345399 41.750313 
L 39.355545 41.732765 
L 39.358927 41.741535 
L 39.409656 41.648586 
L 39.443476 41.667919 
L 39.490823 41.611629 
L 39.524643 41.731575 
L 39.548316 41.694937 
L 39.575372 41.697046 
L 39.615955 41.62086 
L 39.71065 41.4682 
L 39.744469 41.539211 
L 39.991351 41.600675 
L 40.153685 41.770704 
L 40.015025 41.573091 
L 40.157067 41.764471 
L 40.305872 41.724944 
L 40.167212 41.778897 
L 40.3194 41.753582 
L 40.410713 41.79173 
L 40.370129 41.743824 
L 40.431004 41.751713 
L 40.451296 41.71556 
L 40.552754 41.758885 
L 40.559518 41.741791 
L 40.606865 41.816795 
L 40.650831 41.804818 
L 40.674504 41.856766 
L 40.711706 41.758535 
L 40.755671 41.778633 
L 40.968734 41.533721 
L 40.765817 41.792172 
L 40.985643 41.558524 
L 41.005935 41.532762 
L 41.137831 41.616366 
L 41.141213 41.596049 
L 41.225762 41.715069 
L 41.239289 41.658686 
L 41.337366 41.692269 
L 41.293401 41.577994 
L 41.371185 41.661441 
L 41.394859 41.617075 
L 41.455734 41.735865 
L 41.476026 41.695348 
L 41.506463 41.742777 
L 41.580866 41.718308 
L 41.594394 41.748692 
L 41.678942 41.682939 
L 41.685706 41.689341 
L 41.807456 41.553599 
L 41.84804 41.621622 
L 41.919061 41.735907 
L 41.966408 41.646266 
L 41.979936 41.660415 
L 42.017137 41.578978 
L 42.037429 41.569628 
L 42.064484 41.514527 
L 42.125359 41.63307 
L 42.206526 41.757974 
L 42.243727 41.698752 
L 42.368859 41.661662 
L 42.270783 41.754371 
L 42.382387 41.701884 
L 42.544721 41.859002 
L 42.571776 41.768663 
L 42.659707 41.671378 
L 42.693526 41.714751 
L 42.730728 41.754672 
L 42.808512 41.710324 
L 42.83895 41.655042 
L 42.899825 41.76155 
L 42.909971 41.760073 
L 43.045249 41.72313 
L 42.916735 41.769943 
L 43.055395 41.753071 
L 43.430791 42.252722 
L 43.062158 41.74632 
L 43.4477 42.233629 
L 43.576214 42.256999 
L 43.582978 42.29736 
L 43.640471 42.304997 
L 43.599888 42.279696 
L 43.687818 42.260953 
L 43.802805 42.268215 
L 43.697964 42.274307 
L 43.806187 42.284373 
L 43.917791 42.323063 
L 43.850152 42.248603 
L 43.921173 42.307459 
L 44.046305 42.202654 
L 44.154527 42.285319 
L 44.056451 42.198302 
L 44.174819 42.252003 
L 44.249222 42.250002 
L 44.198492 42.265215 
L 44.272895 42.286208 
L 44.360826 42.299609 
L 44.343916 42.240637 
L 44.377736 42.258194 
L 44.48934 42.235944 
L 44.398027 42.269277 
L 44.492722 42.257164 
L 44.499486 42.291241 
L 44.540069 42.220196 
L 44.600944 42.237032 
L 44.736222 42.275405 
L 44.885027 42.18314 
L 44.74975 42.281894 
L 44.888409 42.191523 
L 44.996632 42.271366 
L 45.016923 42.245016 
L 45.355118 42.257412 
L 45.446431 42.29742 
L 45.368646 42.24802 
L 45.466722 42.266623 
L 45.554653 42.23531 
L 45.483632 42.275057 
L 45.581708 42.254062 
L 45.63582 42.251841 
L 45.598618 42.232111 
L 45.662875 42.204527 
L 45.686549 42.157656 
L 45.733896 42.229067 
L 45.774479 42.191291 
L 45.882702 42.346722 
L 45.788007 42.177892 
L 45.909757 42.288203 
L 45.923285 42.320919 
L 46.12282 42.239482 
L 46.220896 42.277211 
L 46.180313 42.220715 
L 46.231042 42.243975 
L 46.335882 42.205692 
L 46.288535 42.316518 
L 46.346028 42.230628 
L 46.454251 42.305276 
L 46.484688 42.239967 
L 46.917577 42.254583 
L 46.937869 42.311318 
L 47.019036 42.228911 
L 47.025799 42.23165 
L 47.056237 42.308331 
L 47.150931 42.26817 
L 47.262536 42.244085 
L 47.198279 42.319616 
L 47.272682 42.267563 
L 47.350466 42.278074 
L 47.326793 42.228016 
L 47.377522 42.221967 
L 47.380904 42.21759 
L 47.431633 42.298844 
L 47.462071 42.284561 
L 47.465452 42.29973 
L 47.519564 42.233084 
L 47.566911 42.253151 
L 47.593966 42.19281 
L 47.678515 42.252469 
L 47.776592 42.212979 
L 47.692043 42.272234 
L 47.800265 42.243498 
L 47.891578 42.269248 
L 47.847612 42.21638 
L 47.908487 42.236972 
L 48.182425 42.234159 
L 48.229772 42.167494 
L 48.294029 42.233687 
L 48.442835 42.24918 
L 48.449599 42.223505 
L 48.551057 42.208557 
L 48.507092 42.282696 
L 48.564585 42.215744 
L 48.872342 42.265923 
L 48.88587 42.202917 
L 48.896016 42.153969 
L 48.919689 42.225062 
L 48.994092 42.218416 
L 49.359342 42.217708 
L 49.366106 42.250535 
L 49.477711 42.298964 
L 49.38978 42.238486 
L 49.484474 42.289434 
L 49.717829 42.190069 
L 49.78885 42.251663 
L 49.73812 42.179896 
L 49.829433 42.194352 
L 49.913982 42.123856 
L 49.954565 42.182167 
L 50.086461 42.217974 
L 50.093225 42.206317 
L 50.147336 42.120322 
L 50.208211 42.17435 
L 50.214975 42.203379 
L 50.248794 42.094776 
L 50.309669 42.121376 
L 50.390836 42.052467 
L 50.357017 42.154094 
L 50.438183 42.113123 
L 50.485531 42.163532 
L 50.495676 42.102965 
L 50.546406 42.119829 
L 50.563315 42.046417 
L 50.654628 42.13623 
L 50.739176 42.093662 
L 50.67492 42.074866 
L 50.74594 42.073631 
L 50.8846 42.067084 
L 50.887982 42.075341 
L 50.979295 42.056094 
L 50.965767 41.996614 
L 50.986059 42.036129 
L 51.104427 41.919803 
L 51.046934 42.067772 
L 51.114573 41.955447 
L 51.219413 41.897095 
L 51.141628 41.979152 
L 51.239705 41.92845 
L 51.287052 41.90847 
L 51.263378 41.865853 
L 51.314107 41.856252 
L 51.446003 41.691823 
L 51.452767 41.716158 
L 51.591427 41.776341 
L 51.479823 41.68765 
L 51.594809 41.771172 
L 51.601573 41.750984 
L 51.66583 41.826601 
L 51.703031 41.793845 
L 52.064899 41.561704 
L 52.068281 41.578005 
L 52.132538 41.475146 
L 52.156212 41.477774 
L 52.247525 41.421244 
L 52.230615 41.500173 
L 52.264434 41.498302 
L 52.338837 41.438123 
L 52.342219 41.424414 
L 52.365893 41.335434 
L 52.463969 41.400877 
L 52.467351 41.415509 
L 52.5519 41.298695 
L 52.714233 41.297883 
L 52.724379 41.258332 
L 52.832601 41.129022 
L 52.846129 41.134334 
L 52.886712 41.18894 
L 52.923914 41.072437 
L 52.944205 41.076657 
L 53.103157 40.971071 
L 53.238435 40.829788 
L 53.309456 40.727838 
L 53.465025 40.549494 
L 53.478553 40.560194 
L 53.674706 40.404035 
L 53.688234 40.437924 
L 53.830275 40.485933 
L 53.833657 40.469411 
L 53.955407 40.358415 
L 53.968935 40.362547 
L 54.043338 40.389074 
L 54.002755 40.32215 
L 54.073776 40.341948 
L 54.178616 40.261499 
L 54.195526 40.303229 
L 54.266546 40.294496 
L 54.249637 40.236738 
L 54.293602 40.253339 
L 54.418734 40.170765 
L 54.422116 40.172677 
L 54.425498 40.178883 
L 54.486373 40.066966 
L 54.489755 40.074186 
L 54.611505 40.000505 
L 54.520192 40.115621 
L 54.618269 40.007296 
L 54.712963 40.096085 
L 54.753547 40.048747 
L 54.824568 40.076365 
L 54.875297 39.965047 
L 55.003811 39.97414 
L 55.118797 39.818481 
L 55.139089 39.863452 
L 55.294658 39.782759 
L 55.199964 39.909481 
L 55.301422 39.793264 
L 55.342005 39.793784 
L 55.358915 39.716743 
L 55.372443 39.712566 
L 55.406262 39.728328 
L 55.517867 39.563361 
L 55.57536 39.53649 
L 55.551686 39.493196 
L 55.592269 39.496311 
L 55.690346 39.458883 
L 55.639617 39.53037 
L 55.707256 39.466407 
L 55.747839 39.474561 
L 55.774895 39.422607 
L 55.798568 39.423389 
L 55.927082 39.263817 
L 55.933846 39.27023 
L 55.94061 39.28991 
L 56.021777 39.171395 
L 56.126617 39.155469 
L 56.096179 39.063647 
L 56.129999 39.150718 
L 56.420846 38.805431 
L 56.458048 38.862118 
L 56.498631 38.673451 
L 56.502013 38.673552 
L 56.677874 37.536951 
L 56.698166 35.370308 
L 56.711694 26.52008 
L 56.79286 41.080514 
L 56.803006 41.048095 
L 57.009305 37.458456 
L 57.022833 32.544615 
L 57.029597 26.848298 
L 57.124291 41.287275 
L 57.127673 41.269069 
L 57.31368 38.259183 
L 57.350881 36.220096 
L 57.361027 27.174813 
L 57.45234 41.282274 
L 57.516597 40.519864 
L 57.675548 36.673728 
L 57.689076 27.304631 
L 57.770243 41.212299 
L 57.777007 41.314822 
L 57.848028 40.517757 
L 58.010361 36.721964 
L 58.023889 27.269821 
L 58.105055 41.307424 
L 58.115201 41.411032 
L 58.186222 40.648674 
L 58.35532 37.591392 
L 58.372229 34.135131 
L 58.378993 27.201125 
L 58.470306 41.542549 
L 58.47707 41.520138 
L 58.744243 37.539491 
L 58.761153 33.036753 
L 58.767917 27.093071 
L 58.862611 41.659177 
L 58.865993 41.629164 
L 59.177132 37.561884 
L 59.194042 34.4364 
L 59.200806 27.08332 
L 59.292119 41.75312 
L 59.298883 41.732793 
L 59.43416 40.60463 
L 59.684424 36.578819 
L 59.697952 26.980687 
L 59.779119 41.735181 
L 59.785883 41.804311 
L 59.860286 41.344656 
L 60.171425 38.390176 
L 60.242446 36.749474 
L 60.255973 26.996735 
L 60.330376 41.488793 
L 60.347286 41.86938 
L 60.438598 41.333124 
L 60.925599 37.192603 
L 60.942508 29.717497 
L 60.949272 27.075135 
L 61.033821 41.789495 
L 61.071022 41.597451 
L 61.676391 36.977897 
L 61.696682 27.217204 
L 61.754176 39.707099 
L 61.777849 41.756568 
L 61.869162 41.227309 
L 61.990912 40.420167 
L 62.278377 38.541097 
L 62.413655 37.919586 
L 62.481294 36.06826 
L 62.494822 27.244081 
L 62.575988 41.804715 
L 62.57937 41.796148 
L 62.582752 41.798651 
L 62.603044 41.710802 
L 62.812725 40.433748 
L 62.816107 40.434639 
L 62.826253 40.336002 
L 62.829634 40.328284 
L 62.870218 40.101625 
L 63.130628 38.765597 
L 63.167829 39.020111 
L 63.296343 39.32887 
L 63.347072 39.284832 
L 63.421475 39.212142 
L 63.475586 39.249042 
L 63.614246 39.468493 
L 63.790107 39.827954 
L 63.807017 39.814404 
L 63.86451 39.93201 
L 64.064045 40.189072 
L 64.070809 40.162277 
L 64.135066 40.428585 
L 64.138448 40.415158 
L 64.260198 40.759032 
L 64.49017 41.297468 
L 64.730288 41.667343 
L 64.73367 41.655364 
L 64.865566 41.802789 
L 64.980552 41.813381 
L 64.87233 41.797256 
L 64.990698 41.807804 
L 65.065101 41.837345 
L 65.075247 41.870121 
L 65.156414 41.985479 
L 65.200379 41.950015 
L 65.315365 42.002596 
L 65.349184 42.053158 
L 65.328893 41.99238 
L 65.426969 42.000918 
L 65.470935 41.969387 
L 65.501372 42.046354 
L 65.528428 42.045007 
L 65.612976 42.053764 
L 65.555483 42.017326 
L 65.63665 42.041302 
L 65.670469 42.009357 
L 65.734726 42.107873 
L 65.815893 42.044263 
L 65.761782 42.032303 
L 65.819275 42.033171 
L 65.944407 41.954595 
L 65.826039 42.047678 
L 65.964699 41.982515 
L 66.056011 41.94382 
L 66.008664 41.925134 
L 66.062775 41.93676 
L 66.116886 41.844089 
L 66.187907 41.910671 
L 66.292747 41.968695 
L 66.313039 41.892114 
L 66.326567 41.86648 
L 66.377296 41.986866 
L 66.411116 41.951523 
L 66.576831 41.864747 
L 66.7324 41.703097 
L 66.884588 41.693919 
L 66.898116 41.723902 
L 67.073977 41.942391 
L 66.908262 41.713767 
L 67.104415 41.890561 
L 67.195727 41.860514 
L 67.141616 41.910517 
L 67.216019 41.876938 
L 67.361442 41.820932 
L 67.364824 41.833516 
L 67.388498 41.760793 
L 67.452755 41.748605 
L 67.581269 41.602481 
L 67.74022 41.666811 
L 67.892408 41.765793 
L 67.89579 41.751543 
L 67.939755 41.721917 
L 67.987103 41.806696 
L 67.990484 41.80347 
L 68.081797 41.864477 
L 68.007394 41.78477 
L 68.105471 41.798701 
L 68.223839 41.759453 
L 68.271186 41.715331 
L 68.301624 41.82899 
L 68.338825 41.74835 
L 68.345589 41.73117 
L 68.487631 41.717072 
L 68.565415 41.61669 
L 68.514686 41.731477 
L 68.609381 41.631432 
L 68.697311 41.654275 
L 68.727749 41.633969 
L 68.771714 41.577494 
L 68.825825 41.660395 
L 68.832589 41.66137 
L 69.224895 41.813006 
L 68.839353 41.649808 
L 69.231659 41.782812 
L 69.258714 41.674311 
L 69.343263 41.766247 
L 69.66793 41.491435 
L 69.350027 41.774217 
L 69.681458 41.53422 
L 69.705131 41.506626 
L 69.823499 41.624155 
L 69.843791 41.610245 
L 69.860701 41.664884 
L 69.914812 41.682722 
L 69.955395 41.731095 
L 70.019652 41.638067 
L 70.023034 41.628083 
L 70.097437 41.745208 
L 70.18875 41.706542 
L 70.192132 41.685896 
L 70.269916 41.667017 
L 70.198895 41.700208 
L 70.300354 41.713842 
L 70.303736 41.745265 
L 70.378139 41.58822 
L 70.39843 41.616845 
L 70.408576 41.58771 
L 70.482979 41.735468 
L 70.496507 41.712138 
L 70.577673 41.699092 
L 70.513416 41.681008 
L 70.591201 41.661464 
L 70.716333 41.552311 
L 70.719715 41.556439 
L 70.831319 41.576631 
L 70.733243 41.543173 
L 70.834701 41.566485 
L 70.844847 41.54571 
L 70.90234 41.717659 
L 70.905722 41.707383 
L 71.027472 41.777418 
L 70.915868 41.700245 
L 71.030854 41.773567 
L 71.118785 41.728437 
L 71.05791 41.793675 
L 71.142458 41.785083 
L 71.210097 41.855708 
L 71.277736 41.77419 
L 71.392722 41.687536 
L 71.308174 41.791862 
L 71.413014 41.734295 
L 71.747827 41.598939 
L 71.849285 41.660101 
L 71.757973 41.594214 
L 71.866195 41.63472 
L 71.916924 41.722524 
L 71.971035 41.739025 
L 71.984563 41.654427 
L 72.018383 41.670438 
L 72.146896 41.669747 
L 72.150278 41.676454 
L 72.241591 41.693091 
L 72.261883 41.647517 
L 72.315994 41.595138 
L 72.353195 41.67818 
L 72.370105 41.665367 
L 72.44789 41.660245 
L 72.471563 41.617776 
L 72.600077 41.492559 
L 72.846959 41.299774 
L 72.887543 41.444408 
L 73.07355 41.769643 
L 73.080314 41.753837 
L 73.202064 41.666112 
L 73.093841 41.760734 
L 73.218973 41.67277 
L 73.394835 41.63804 
L 73.415126 41.68768 
L 73.469237 41.732272 
L 73.496293 41.664898 
L 73.526731 41.693278 
L 73.685682 41.610744 
L 73.692446 41.639181 
L 73.760085 41.707918 
L 73.807432 41.671284 
L 73.888599 41.66358 
L 73.824342 41.614427 
L 73.902127 41.632346 
L 73.969766 41.532517 
L 74.013731 41.631685 
L 74.020495 41.611151 
L 74.067842 41.727762 
L 74.105043 41.716712 
L 74.213266 41.731954 
L 74.132099 41.762767 
L 74.22003 41.73729 
L 74.301196 41.789273 
L 74.34178 41.710775 
L 74.345162 41.688833 
L 74.419564 41.835992 
L 74.436474 41.810917 
L 74.439856 41.834645 
L 74.521023 41.703487 
L 74.534551 41.713173 
L 74.649537 41.736154 
L 74.67321 41.693456 
L 74.808488 41.619243 
L 75.031697 41.656694 
L 75.038461 41.630698 
L 75.119627 41.624631 
L 75.068898 41.662799 
L 75.143301 41.66547 
L 75.258287 41.785718 
L 75.268433 41.77512 
L 75.325926 41.677789 
L 75.403711 41.72916 
L 75.525461 41.668858 
L 75.417239 41.765809 
L 75.552516 41.708979 
L 75.637065 41.766753 
L 75.667503 41.709373 
L 75.748669 41.702533 
L 75.694558 41.744398 
L 75.765579 41.747945 
L 75.775725 41.792217 
L 75.863655 41.669521 
L 76.019225 41.566744 
L 76.032753 41.59496 
L 76.036135 41.609741 
L 76.127447 41.519939 
L 76.134211 41.476302 
L 76.215378 41.617184 
L 76.222142 41.611989 
L 76.23567 41.598318 
L 76.448732 42.113805 
L 76.550191 42.315961 
L 76.594156 42.278669 
L 76.692232 42.227273 
L 76.621211 42.297844 
L 76.70576 42.255457 
L 76.813982 42.322115 
L 76.736198 42.236068 
L 76.824128 42.275132 
L 76.837656 42.242127 
L 76.871475 42.311773 
L 76.928969 42.285313 
L 76.93235 42.307312 
L 77.010135 42.216481 
L 77.033809 42.243292 
L 77.148795 42.294671 
L 77.155559 42.246344 
L 77.169087 42.296854 
L 77.287455 42.292419 
L 77.361858 42.317065 
L 77.382149 42.254489 
L 77.399059 42.302855 
L 77.48699 42.236991 
L 77.510663 42.29633 
L 77.581684 42.321348 
L 77.598594 42.239183 
L 77.618886 42.282764 
L 77.740636 42.210532 
L 77.629031 42.30384 
L 77.771073 42.233702 
L 77.875913 42.268923 
L 77.815038 42.201932 
L 77.892823 42.26319 
L 77.977372 42.209518 
L 78.004427 42.260705 
L 78.09574 42.267611 
L 78.068684 42.209939 
L 78.102504 42.249124 
L 78.116032 42.203845 
L 78.197198 42.292302 
L 78.214108 42.244884 
L 78.271601 42.232852 
L 78.281747 42.288156 
L 78.315566 42.279278 
L 78.329094 42.300804 
L 78.366296 42.214634 
L 78.417025 42.231859 
L 78.866824 42.260534 
L 78.870206 42.240887 
L 78.978428 42.174553 
L 78.991956 42.189821 
L 79.090032 42.275059 
L 79.029157 42.176156 
L 79.117088 42.234732 
L 79.262511 42.231756 
L 79.154289 42.312776 
L 79.279421 42.259986 
L 79.370734 42.276349 
L 79.394407 42.236093 
L 79.506012 42.21736 
L 79.441755 42.279944 
L 79.509394 42.223041 
L 79.560123 42.199037 
L 79.529685 42.239343 
L 79.617616 42.247712 
L 79.928755 42.271295 
L 80.020067 42.314964 
L 80.030213 42.253181 
L 80.131672 42.188871 
L 80.053887 42.28083 
L 80.145199 42.232818 
L 80.246658 42.137886 
L 80.202693 42.252737 
L 80.263568 42.185777 
L 80.405609 42.311238 
L 80.537505 42.200942 
L 80.415755 42.323847 
L 80.540887 42.203204 
L 80.655873 42.246802 
L 80.794533 42.192908 
L 80.96363 42.291021 
L 80.98054 42.273309 
L 81.027887 42.306517 
L 81.095526 42.235967 
L 81.142874 42.344642 
L 81.169929 42.219791 
L 81.203749 42.247855 
L 81.274769 42.299871 
L 81.322117 42.176594 
L 81.413429 42.228119 
L 81.372846 42.144023 
L 81.437103 42.192008 
L 81.541943 42.131723 
L 81.555471 42.153313 
L 81.670457 42.289811 
L 81.562235 42.149374 
L 81.707659 42.250642 
L 81.903812 42.197661 
L 81.913957 42.239621 
L 81.930867 42.28691 
L 82.008652 42.206745 
L 82.02218 42.224314 
L 82.174367 42.262036 
L 82.059381 42.169726 
L 82.177749 42.252294 
L 82.255534 42.144911 
L 82.201423 42.314329 
L 82.296117 42.198948 
L 82.434777 42.282062 
L 82.319791 42.147261 
L 82.438159 42.277812 
L 82.50918 42.221677 
L 82.455069 42.28583 
L 82.559909 42.251256 
L 82.681659 42.275064 
L 82.63093 42.19121 
L 82.685041 42.264029 
L 82.691805 42.284444 
L 82.823701 42.210431 
L 82.877812 42.249254 
L 82.935305 42.206989 
L 83.019854 42.153669 
L 82.952215 42.224407 
L 83.060437 42.186267 
L 83.172041 42.272043 
L 83.178805 42.244524 
L 85.441327 41.777678 
L 85.536022 41.767174 
L 85.485293 41.831647 
L 85.54955 41.795021 
L 85.617189 41.780545 
L 85.600279 41.718209 
L 85.651008 41.751445 
L 85.691591 41.68766 
L 85.755848 41.772884 
L 85.803196 41.818522 
L 85.837015 41.710548 
L 85.843779 41.714678 
L 85.857307 41.671042 
L 85.89789 41.771506 
L 85.948619 41.735677 
L 86.012876 41.735873 
L 85.955383 41.727757 
L 86.050078 41.704826 
L 86.198883 41.388437 
L 86.209029 41.4068 
L 86.276668 41.474609 
L 86.249612 41.388746 
L 86.320633 41.409603 
L 86.388272 41.355682 
L 86.442383 41.408026 
L 86.452529 41.428794 
L 86.496495 41.306201 
L 86.533696 41.323797 
L 86.611481 41.298736 
L 86.62839 41.241577 
L 86.895564 41.079884 
L 87.220231 41.014687 
L 87.226995 41.067149 
L 87.281106 40.971523 
L 87.331835 41.043033 
L 87.477259 40.79645 
L 87.517842 40.841966 
L 87.571953 40.9181 
L 87.629447 40.876635 
L 87.747815 40.764444 
L 87.751197 40.789475 
L 87.79178 40.82135 
L 87.845891 40.743201 
L 88.0691 40.335336 
L 88.082627 40.354965 
L 88.15703 40.343357 
L 88.123211 40.301449 
L 88.177322 40.304948 
L 88.272016 40.345333 
L 88.292308 40.295488 
L 88.430968 40.20539 
L 88.437732 40.212504 
L 88.545954 40.263295 
L 88.454641 40.180031 
L 88.552718 40.233777 
L 88.860475 40.035282 
L 88.863857 40.043067 
L 88.874003 40.082723 
L 88.965315 39.993441 
L 88.968697 39.9981 
L 89.083683 40.00225 
L 89.100593 39.945038 
L 89.246017 39.776474 
L 89.256163 39.801115 
L 89.283218 39.823885 
L 89.32042 39.722182 
L 89.354239 39.748595 
L 89.519955 39.54036 
L 89.526718 39.553677 
L 89.533482 39.573194 
L 89.577448 39.439529 
L 89.996809 39.090615 
L 90.077976 38.992239 
L 90.121941 39.00462 
L 90.128705 39.017171 
L 90.192962 38.926882 
L 90.20649 38.927428 
L 90.341767 38.741087 
L 90.595413 38.06141 
L 90.656288 36.171016 
L 90.673198 26.615388 
L 90.754365 40.991165 
L 90.794948 40.564711 
L 90.849059 39.796231 
L 90.967428 36.589759 
L 90.980955 26.932106 
L 91.065504 41.205512 
L 91.068886 41.256216 
L 91.068886 41.256216 
" clip-path="url(#p0b45e9ece5)" style="fill: none; stroke: #000000; stroke-width: 0.6; stroke-linecap: square"/>
   </g>
   <g id="line2d_3">
    <path d="M 9.905557 57.184589 
L 9.942758 57.081163 
L 10.108474 56.717967 
L 10.111856 56.721056 
L 10.115238 56.755543 
L 10.209932 56.590911 
L 10.216696 56.601375 
L 10.257279 56.441008 
L 10.301245 56.273779 
L 10.412849 54.813843 
L 10.426377 43.802101 
L 10.507543 56.609122 
L 10.531217 59.690311 
L 10.62253 59.067063 
L 10.842356 57.695819 
L 10.893085 57.515359 
L 10.906613 57.766603 
L 11.048655 58.480555 
L 11.052037 58.476681 
L 11.079092 58.576184 
L 11.09262 58.584868 
L 11.566093 60.28908 
L 11.569475 60.280023 
L 11.623586 60.439401 
L 11.63035 60.43416 
L 11.836648 60.752069 
L 11.867086 60.696976 
L 11.880614 60.684164 
L 11.911051 60.803802 
L 12.009128 60.929721 
L 11.938107 60.773971 
L 12.046329 60.883816 
L 12.144405 60.794661 
L 12.161315 60.835422 
L 12.2391 60.881127 
L 12.272919 60.845715 
L 12.347322 60.867112 
L 12.374378 60.7759 
L 12.489364 60.739084 
L 12.394669 60.808884 
L 12.492746 60.758246 
L 12.577295 60.803403 
L 12.536711 60.731135 
L 12.614496 60.79136 
L 12.715954 60.793385 
L 12.634788 60.838377 
L 12.7261 60.807735 
L 12.84785 60.932608 
L 12.756538 60.792729 
L 12.86476 60.925013 
L 13.111642 60.757039 
L 13.115024 60.761125 
L 13.23001 60.827523 
L 13.12517 60.741439 
L 13.267212 60.76499 
L 13.294267 60.795712 
L 13.388962 60.771073 
L 13.497184 60.85967 
L 13.416017 60.740334 
L 13.520858 60.823732 
L 13.632462 60.832025 
L 13.541149 60.873658 
L 13.635844 60.844301 
L 13.784649 60.953683 
L 13.788031 60.92908 
L 13.913163 60.815545 
L 14.018004 60.788801 
L 14.02815 60.800373 
L 14.112698 60.850045 
L 14.058587 60.788943 
L 14.143136 60.819084 
L 14.25474 60.849577 
L 14.200629 60.786653 
L 14.268268 60.838808 
L 14.379872 60.837198 
L 14.302087 60.865009 
L 14.386636 60.861448 
L 14.491476 60.947624 
L 14.410309 60.822992 
L 14.518532 60.888288 
L 14.630136 60.803236 
L 14.643664 60.809564 
L 14.866872 60.904651 
L 14.870254 60.924385 
L 14.951421 60.800139 
L 14.961567 60.822081 
L 15.178011 60.719333 
L 15.181393 60.729707 
L 15.225359 60.683685 
L 15.303143 60.794303 
L 15.414748 60.755419 
L 15.316671 60.804908 
L 15.418129 60.777555 
L 15.479005 60.885404 
L 15.533116 60.80075 
L 15.536498 60.770959 
L 15.597373 60.833209 
L 15.641338 60.807312 
L 15.715741 60.797638 
L 15.739414 60.837438 
L 15.742796 60.865758 
L 15.76647 60.780954 
L 15.844255 60.790827 
L 15.982915 60.729197 
L 15.854401 60.813179 
L 15.989678 60.732206 
L 16.212887 60.863148 
L 16.226415 60.834627 
L 16.317727 60.850932 
L 16.246706 60.869385 
L 16.324491 60.884238 
L 16.537554 60.76687 
L 16.544318 60.738438 
L 16.598429 60.840745 
L 16.645776 60.780946 
L 16.865602 60.699239 
L 16.655922 60.806321 
L 16.875748 60.738809 
L 17.663742 60.691868 
L 17.741527 60.700294 
L 17.778728 60.630461 
L 17.934298 60.73445 
L 18.0087 60.810035 
L 18.045902 60.751483 
L 18.184562 60.67765 
L 18.282638 60.763151 
L 18.306312 60.730653 
L 18.421298 60.630507 
L 18.434826 60.664216 
L 18.664798 60.711508 
L 18.729055 60.785191 
L 18.759492 60.665831 
L 18.769638 60.66932 
L 19.01652 60.598737 
L 19.03343 60.634742 
L 19.101069 60.548622 
L 19.124743 60.596839 
L 19.178854 60.463515 
L 19.243111 60.551673 
L 19.29384 60.615341 
L 19.256639 60.529201 
L 19.361479 60.594306 
L 19.41559 60.62786 
L 19.476465 60.547594 
L 19.79775 60.457932 
L 19.486611 60.574931 
L 19.807896 60.490195 
L 19.831569 60.53081 
L 19.868771 60.462862 
L 19.922882 60.495472 
L 19.929646 60.480263 
L 20.004049 60.562435 
L 20.031104 60.51121 
L 20.078451 60.531805 
L 20.125799 60.428847 
L 20.17991 60.378283 
L 20.237403 60.428907 
L 20.376063 60.490247 
L 20.244167 60.402835 
L 20.409882 60.433847 
L 20.521486 60.319132 
L 20.541778 60.355317 
L 20.606035 60.451979 
L 20.555306 60.352173 
L 20.653382 60.383083 
L 20.781896 60.181319 
L 20.78866 60.194766 
L 20.866445 60.298745 
L 20.940848 60.210685 
L 21.04907 60.039611 
L 21.06598 60.095832 
L 21.231695 59.939584 
L 21.089653 60.141542 
L 21.248605 59.956863 
L 21.363591 59.991029 
L 21.295952 59.8875 
L 21.370355 59.984419 
L 21.512397 59.997737 
L 21.515779 59.973844 
L 21.603709 59.826438 
L 21.637529 59.892326 
L 21.651056 59.929946 
L 21.681494 59.859312 
L 21.745751 59.870087 
L 21.850591 59.810323 
L 21.782952 59.88264 
L 21.870883 59.840691 
L 21.992633 59.902242 
L 22.114383 59.779762 
L 23.227043 59.243428 
L 23.243953 59.326049 
L 23.274391 59.362695 
L 23.318356 59.235959 
L 23.335266 59.247521 
L 23.555092 59.18287 
L 23.352175 59.284504 
L 23.565238 59.244919 
L 23.717426 59.193767 
L 23.852704 59.020942 
L 23.998127 59.035972 
L 24.001509 58.996049 
L 24.109731 58.986014 
L 24.028565 59.034387 
L 24.116495 59.010958 
L 24.133405 59.065607 
L 24.417489 58.721161 
L 24.502037 58.814617 
L 24.535857 58.796429 
L 24.644079 58.692339 
L 24.660989 58.735875 
L 24.718482 58.798718 
L 24.762447 58.696402 
L 24.765829 58.700186 
L 24.890961 58.671476 
L 24.775975 58.722402 
L 24.901107 58.680561 
L 25.012711 58.738207 
L 24.94169 58.620619 
L 25.019475 58.725729 
L 25.134461 58.65293 
L 25.141225 58.668277 
L 25.276503 58.728261 
L 25.286649 58.764124 
L 25.377961 58.628151 
L 25.513239 58.525182 
L 25.709392 58.322148 
L 25.523385 58.546339 
L 25.726302 58.348239 
L 25.746593 58.371209 
L 25.797323 58.242681 
L 26.067878 58.215585 
L 26.20992 58.069032 
L 26.45342 58.047912 
L 26.578552 57.907631 
L 26.581934 57.925326 
L 26.619136 57.901868 
L 26.666483 57.995261 
L 26.778087 57.992754 
L 26.693538 57.943821 
L 26.781469 57.981973 
L 26.94042 57.868757 
L 26.947184 57.891363 
L 26.95733 57.924662 
L 27.031733 57.796204 
L 27.041879 57.798748 
L 27.167011 57.841671 
L 27.187303 57.820958 
L 27.194066 57.798671 
L 27.261705 57.924369 
L 27.37331 57.985788 
L 27.305671 57.896456 
L 27.380073 57.976151 
L 27.424039 58.02351 
L 27.468004 57.903407 
L 27.681067 57.873028 
L 27.718268 57.913331 
L 27.806199 57.778188 
L 27.897511 57.901051 
L 27.816345 57.772912 
L 27.931331 57.842342 
L 28.066609 57.71665 
L 28.134248 57.6172 
L 28.198504 57.540831 
L 28.245852 57.614469 
L 28.367602 57.519084 
L 28.38113 57.561353 
L 28.50288 57.604961 
L 28.391275 57.555201 
L 28.509644 57.584615 
L 28.665213 57.443464 
L 28.742998 57.520807 
L 28.776817 57.439734 
L 28.786963 57.424915 
L 28.861366 57.522708 
L 28.878276 57.572185 
L 28.976352 57.515421 
L 29.131922 57.518907 
L 29.135304 57.548728 
L 29.145449 57.565549 
L 29.219852 57.428862 
L 29.226616 57.437273 
L 30.342658 56.889925 
L 30.349422 56.907958 
L 30.36295 56.915491 
L 30.437353 56.837499 
L 30.450881 56.867923 
L 30.721436 56.769076 
L 30.839805 56.712858 
L 30.785693 56.786842 
L 30.843186 56.715315 
L 30.84995 56.728608 
L 31.134034 56.350935 
L 31.255784 55.229282 
L 31.269312 48.256996 
L 31.276076 43.759003 
L 31.37077 58.62208 
L 31.380916 58.813097 
L 31.465465 58.054217 
L 31.692055 54.30125 
L 31.702201 44.02386 
L 31.796895 58.709829 
L 31.813805 59.379543 
L 31.905118 58.580972 
L 31.999812 57.663277 
L 32.199347 54.147668 
L 32.209493 43.996358 
L 32.304187 58.951609 
L 32.321097 59.536427 
L 32.41241 58.833584 
L 32.774278 54.874168 
L 32.787806 43.938064 
L 32.872354 54.792872 
L 32.896028 59.636774 
L 32.98734 58.998759 
L 33.051597 58.480506 
L 33.430375 55.366835 
L 33.443903 51.893603 
L 33.450667 43.892446 
L 33.548744 59.491737 
L 33.562271 59.693768 
L 33.64682 59.122354 
L 33.954577 57.073522 
L 33.981633 56.94489 
L 34.130438 56.110722 
L 34.187931 55.137749 
L 34.198077 51.129528 
L 34.204841 43.867118 
L 34.302918 59.603223 
L 34.313063 59.708113 
L 34.390848 59.193155 
L 34.725661 57.185478 
L 34.729043 57.192017 
L 34.75948 57.030275 
L 35.043564 54.645557 
L 35.057092 43.857373 
L 35.138258 57.612849 
L 35.161932 59.701072 
L 35.253244 59.084251 
L 35.648932 56.991234 
L 35.875523 55.879127 
L 35.916106 54.557439 
L 35.926252 43.84083 
L 36.014182 58.7661 
L 36.034474 59.729811 
L 36.125787 59.11309 
L 36.376051 57.585357 
L 36.80894 55.974764 
L 36.856287 54.770319 
L 36.869815 43.82488 
L 36.950981 57.209984 
L 36.978037 59.711142 
L 37.065968 59.112138 
L 37.306086 57.673071 
L 37.823524 55.60029 
L 37.847197 52.144111 
L 37.853961 43.816954 
L 37.952038 59.629071 
L 37.962183 59.693628 
L 38.033204 59.202585 
L 38.462711 57.074323 
L 38.466093 57.079805 
L 38.469475 57.086602 
L 38.516823 56.937051 
L 38.696066 56.336902 
L 38.80767 55.823246 
L 38.841489 54.732556 
L 38.855017 43.821116 
L 38.936184 57.620131 
L 38.959858 59.704179 
L 39.05117 59.060812 
L 39.29467 57.62088 
L 39.298052 57.627842 
L 39.342018 57.474674 
L 39.568608 56.861213 
L 39.57199 56.872878 
L 39.622719 56.663757 
L 39.933858 55.205649 
L 39.947386 48.55737 
L 39.95415 43.826173 
L 40.048844 59.576454 
L 40.055608 59.650001 
L 40.126629 59.1633 
L 40.427622 57.373066 
L 40.468206 57.230629 
L 40.681268 56.652094 
L 40.68465 56.656107 
L 40.694796 56.603658 
L 40.735379 56.568779 
L 40.982261 55.227789 
L 40.995789 49.079225 
L 41.002553 43.817458 
L 41.097248 59.566693 
L 41.104012 59.661776 
L 41.185178 59.092161 
L 41.503081 57.341479 
L 41.506463 57.345816 
L 41.530137 57.236694 
L 41.550428 57.23325 
L 41.810838 56.599722 
L 41.81422 56.604223 
L 41.871713 56.454246 
L 42.061102 54.715937 
L 42.07463 43.807891 
L 42.155797 57.81658 
L 42.176088 59.653913 
L 42.270783 59.028045 
L 42.480464 57.7132 
L 42.801749 56.842062 
L 42.80513 56.844295 
L 42.811894 56.851703 
L 42.842332 56.760628 
L 42.889679 56.785297 
L 43.045249 56.517402 
L 43.072304 56.569622 
L 43.177145 56.401555 
L 43.366534 59.622152 
L 43.775749 60.759218 
L 43.789277 60.744994 
L 43.792659 60.733795 
L 43.819714 60.819539 
L 43.883971 60.802154 
L 44.049687 60.940258 
L 44.059833 60.922513 
L 44.232312 60.848135 
L 44.255985 60.889889 
L 44.327006 60.931165 
L 44.303333 60.851032 
L 44.364208 60.900501 
L 44.381117 60.851329 
L 44.431847 60.911129 
L 44.479194 60.866244 
L 44.499486 60.797078 
L 44.587416 60.868513 
L 44.628 60.931909 
L 44.695638 60.872228 
L 44.739604 60.884694 
L 44.817389 60.805339 
L 44.847826 60.773792 
L 44.935757 60.849974 
L 45.067653 60.732807 
L 45.104854 60.783027 
L 45.158965 60.854574 
L 45.223222 60.810696 
L 45.23675 60.799361 
L 45.304389 60.889553 
L 45.321299 60.859807 
L 45.409229 60.861774 
L 45.334826 60.82114 
L 45.429521 60.82925 
L 45.537743 60.76202 
L 45.470104 60.841724 
L 45.547889 60.795033 
L 45.629056 60.780529 
L 45.561417 60.862307 
L 45.649347 60.836163 
L 45.683167 60.906189 
L 45.764333 60.82475 
L 46.291917 60.83023 
L 46.413667 60.885128 
L 46.312209 60.811588 
L 46.420431 60.866146 
L 46.521889 60.817053 
L 46.538799 60.84765 
L 46.728188 60.906316 
L 46.548945 60.83148 
L 46.738334 60.860847 
L 46.846556 60.8245 
L 46.856702 60.848964 
L 46.944633 60.858645 
L 46.890522 60.927722 
L 46.954779 60.882779 
L 47.019036 60.915199 
L 46.998744 60.837664 
L 47.059619 60.848773 
L 47.066383 60.865604 
L 47.255772 60.782476 
L 47.292973 60.738762 
L 47.380904 60.9116 
L 47.5128 60.803927 
L 47.61764 60.741947 
L 47.573675 60.816556 
L 47.624404 60.774953 
L 47.658223 60.833552 
L 47.742772 60.817623 
L 47.752918 60.790264 
L 47.827321 60.917706 
L 47.837467 60.889548 
L 47.854376 60.893215 
L 47.87805 60.806764 
L 47.969362 60.692337 
L 47.996418 60.734934 
L 48.01671 60.708897 
L 48.124932 60.757059 
L 48.195953 60.696864 
L 48.233154 60.765579 
L 48.371814 60.836515 
L 48.524002 60.772897 
L 48.39887 60.886243 
L 48.540911 60.794659 
L 48.60855 60.888325 
L 48.649134 60.777353 
L 48.662661 60.834197 
L 48.753974 60.751308 
L 48.882488 60.697302 
L 48.88587 60.704622 
L 48.923071 60.765729 
L 49.000856 60.744706 
L 49.02453 60.720351 
L 49.092169 60.813132 
L 49.095551 60.812438 
L 49.166571 60.831897 
L 49.12937 60.733817 
L 49.197009 60.767797 
L 49.200391 60.772469 
L 49.247738 60.68492 
L 49.26803 60.689966 
L 49.281558 60.657766 
L 49.369488 60.764934 
L 50.272468 60.699772 
L 50.279232 60.736122 
L 50.357017 60.547555 
L 50.367162 60.555726 
L 50.492294 60.43653 
L 50.38069 60.590696 
L 50.543024 60.480415 
L 50.678301 60.606695 
L 50.556551 60.475065 
L 50.681683 60.5946 
L 50.820343 60.643547 
L 50.945475 60.589211 
L 50.996204 60.69533 
L 51.060461 60.642732 
L 51.090899 60.589423 
L 51.121336 60.681473 
L 51.172066 60.616888 
L 51.24985 60.650021 
L 51.232941 60.662566 
L 51.263378 60.677808 
L 52.068281 60.247742 
L 52.071663 60.269434 
L 52.125774 60.293659 
L 52.159594 60.214659 
L 52.176504 60.23682 
L 52.328691 60.089164 
L 52.39633 60.148431 
L 52.338837 60.063003 
L 52.440295 60.085434 
L 52.531608 60.068928 
L 52.491025 60.042265 
L 52.53499 60.043942 
L 52.643212 60.029125 
L 52.589101 60.094542 
L 52.646594 60.037671 
L 52.677032 60.048407 
L 52.690559 59.987098 
L 52.751435 60.008815 
L 52.7954 59.944155 
L 52.768344 60.021597 
L 52.852893 60.040992 
L 52.957733 60.101946 
L 52.863039 60.032888 
L 52.971261 60.07121 
L 53.079483 60.005768 
L 53.086247 60.028151 
L 53.336511 59.808901 
L 53.373713 59.844305 
L 53.390622 59.859212 
L 53.434588 59.796094 
L 53.478553 59.821064 
L 53.549574 59.841754 
L 53.603685 59.748456 
L 53.708525 59.669859 
L 53.627359 59.781744 
L 53.718671 59.717072 
L 53.762636 59.74337 
L 53.813366 59.66411 
L 53.823511 59.677301 
L 53.850567 59.625281 
L 53.870859 59.697205 
L 53.935116 59.678846 
L 53.982463 59.725644 
L 54.036574 59.631899 
L 54.154942 59.471005 
L 54.056866 59.640379 
L 54.16847 59.498669 
L 54.171852 59.527419 
L 54.263165 59.405368 
L 54.27331 59.444004 
L 54.283456 59.460855 
L 54.763693 59.183492 
L 54.868533 59.219809 
L 54.817804 59.160453 
L 54.885443 59.201679 
L 55.078214 59.159167 
L 55.17629 59.090792 
L 55.189818 59.123329 
L 55.223637 59.150851 
L 55.294658 59.07792 
L 55.328478 59.079241 
L 55.369061 59.000175 
L 55.389353 59.026089 
L 55.443464 58.924292 
L 55.528012 58.990391 
L 55.534776 58.981023 
L 55.653144 58.949686 
L 55.666672 58.929158 
L 55.720783 59.021165 
L 55.744457 59.006355 
L 55.754603 59.015191 
L 55.808714 58.903076 
L 55.815478 58.91272 
L 55.886499 58.821559 
L 55.947374 58.841923 
L 56.035304 58.707302 
L 56.055596 58.760681 
L 56.126617 58.640259 
L 56.129999 58.648514 
L 56.244985 58.460724 
L 56.268659 58.502687 
L 56.373499 58.572862 
L 56.28895 58.476543 
L 56.390409 58.548248 
L 56.46143 58.443435 
L 56.512159 58.499335 
L 56.674492 58.697997 
L 56.70493 58.662285 
L 56.853735 58.394822 
L 56.941666 58.38117 
L 56.955194 58.433856 
L 56.982249 58.514306 
L 57.05327 58.395642 
L 57.063416 58.410491 
L 57.215604 58.339947 
L 57.076944 58.463317 
L 57.218986 58.348895 
L 57.29677 58.385836 
L 57.33059 58.34642 
L 57.445576 58.225801 
L 57.472632 58.237111 
L 57.482777 58.255438 
L 57.519979 58.182121 
L 57.567326 58.204646 
L 57.601145 58.176743 
L 57.638347 58.249592 
L 57.67893 58.205556 
L 57.719514 58.158184 
L 57.685694 58.221173 
L 57.780389 58.223653 
L 57.841264 58.170781 
L 57.905521 58.312033 
L 58.017125 58.273275 
L 57.97316 58.342395 
L 58.020507 58.282561 
L 58.291063 58.212518 
L 58.382375 58.143329 
L 58.402667 58.200637 
L 58.416195 58.231612 
L 58.46016 58.085771 
L 58.47707 58.085859 
L 58.588674 58.042414 
L 58.524417 58.113721 
L 58.595438 58.057703 
L 58.615729 58.110915 
L 58.652931 58.036955 
L 58.710424 58.098518 
L 58.815264 57.95612 
L 58.730716 58.111056 
L 58.84232 58.015875 
L 58.893049 58.044279 
L 58.872757 57.978295 
L 58.940396 57.972387 
L 59.072292 57.919958 
L 58.957306 57.993223 
L 59.075674 57.943846 
L 59.156841 57.991683 
L 59.187278 57.947672 
L 59.315792 57.987123 
L 59.200806 57.933771 
L 59.325938 57.976317 
L 59.403723 57.869974 
L 59.444306 57.879487 
L 59.569438 57.928807 
L 59.501799 57.834319 
L 59.57282 57.916897 
L 59.670897 57.821048 
L 59.582966 57.926543 
L 59.697952 57.887617 
L 59.745299 57.989241 
L 59.81632 57.906031 
L 59.958362 57.785359 
L 59.965126 57.802802 
L 60.005709 57.85053 
L 60.063202 57.758166 
L 60.07673 57.803558 
L 60.283029 57.680811 
L 60.364196 57.750928 
L 60.303321 57.671295 
L 60.411543 57.718299 
L 60.665189 57.514963 
L 60.756501 57.575757 
L 60.688862 57.469488 
L 60.790321 57.517473 
L 60.9628 57.437337 
L 60.969564 57.455765 
L 60.97971 57.477704 
L 61.027057 57.377813 
L 61.037203 57.384821 
L 61.155571 57.269993 
L 61.165717 57.274889 
L 61.317904 57.332195 
L 61.321286 57.31969 
L 61.341578 57.259338 
L 61.436273 57.312547 
L 61.439655 57.321248 
L 61.510675 57.217408 
L 61.517439 57.233178 
L 61.537731 57.185774 
L 61.618898 57.261268 
L 61.629044 57.235103 
L 61.649335 57.289841 
L 61.723738 57.150791 
L 61.72712 57.15857 
L 62.552315 56.966966 
L 62.789051 56.588961 
L 62.795815 56.592221 
L 62.802579 56.615781 
L 62.890509 56.501329 
L 62.97844 56.369046 
L 63.127246 53.92103 
L 63.137392 43.755293 
L 63.232086 58.646655 
L 63.242232 58.800955 
L 63.320017 58.100729 
L 63.560135 53.071884 
L 63.566899 44.003841 
L 63.668357 59.193613 
L 63.678503 59.36972 
L 63.763052 58.67162 
L 63.905093 57.326414 
L 64.074191 53.740236 
L 64.080955 43.992978 
L 64.179031 59.072608 
L 64.192559 59.52738 
L 64.283871 58.846539 
L 64.652504 55.01649 
L 64.666031 43.931749 
L 64.75058 54.249022 
L 64.777636 59.627759 
L 64.865566 58.989612 
L 65.000844 57.933202 
L 65.318747 54.700413 
L 65.328893 43.916144 
L 65.416823 57.740617 
L 65.440497 59.681562 
L 65.53181 59.049874 
L 66.056011 54.809583 
L 66.069539 43.875915 
L 66.150706 55.013833 
L 66.177761 59.727478 
L 66.265692 59.153339 
L 66.475373 57.760123 
L 66.898116 55.463794 
L 66.915026 53.232528 
L 66.921789 43.846177 
L 67.019866 59.580927 
L 67.030012 59.707512 
L 67.111178 59.161395 
L 67.533922 56.825777 
L 67.719929 56.171257 
L 67.801095 55.076294 
L 67.818005 43.837115 
L 67.89579 54.666688 
L 67.922846 59.705639 
L 68.010776 59.120104 
L 68.470721 56.822007 
L 68.474103 56.830166 
L 68.531596 56.688226 
L 68.53836 56.715834 
L 68.778478 54.352424 
L 68.788624 43.817865 
L 68.879936 59.321839 
L 68.893464 59.693213 
L 68.984777 59.067947 
L 69.197839 57.681593 
L 69.201221 57.68425 
L 69.397374 56.987548 
L 69.725423 54.824138 
L 69.738951 43.818377 
L 69.820117 56.741339 
L 69.843791 59.724151 
L 69.935104 59.09905 
L 70.591201 56.453682 
L 70.594583 56.462574 
L 70.740007 55.860139 
L 70.78059 53.593424 
L 70.790736 43.823473 
L 70.885431 59.579913 
L 70.892194 59.680807 
L 70.973361 59.161082 
L 71.26759 57.413031 
L 71.270972 57.417737 
L 71.308174 57.297038 
L 71.548292 56.645074 
L 71.558438 56.641843 
L 71.582111 56.54422 
L 71.78841 55.089023 
L 71.80532 43.810919 
L 71.883105 54.63491 
L 71.91016 59.695202 
L 71.998091 59.067338 
L 72.339667 57.20868 
L 72.769175 56.040331 
L 72.833432 54.70527 
L 72.846959 43.816568 
L 72.928126 57.935241 
L 72.9518 59.684071 
L 73.043112 59.026171 
L 73.533494 56.883205 
L 73.536876 56.888641 
L 73.939328 55.725689 
L 73.969766 54.486386 
L 73.979911 43.812262 
L 74.067842 58.903489 
L 74.084752 59.649564 
L 74.179446 58.990807 
L 74.436474 57.465523 
L 74.439856 57.46653 
L 74.72394 56.751636 
L 74.757759 56.762979 
L 74.778051 56.668509 
L 74.784815 56.672429 
L 74.953912 56.078808 
L 75.031697 54.992906 
L 75.048606 43.819685 
L 75.126391 56.201379 
L 75.153447 59.657988 
L 75.241377 59.026416 
L 75.495023 57.499068 
L 75.505169 57.49698 
L 75.522079 57.401182 
L 75.525461 57.399464 
L 75.735141 56.925417 
L 75.758815 56.971331 
L 75.829836 56.809893 
L 76.21876 55.795583 
L 76.255961 54.807308 
L 76.269489 43.80078 
L 76.347274 56.057556 
L 76.370947 59.593215 
L 76.46226 59.002576 
L 76.526517 58.595861 
L 76.685468 58.052973 
L 76.692232 58.074981 
L 76.824128 58.341464 
L 76.729434 58.032313 
L 76.841038 58.321682 
L 76.851184 58.303219 
L 76.871475 58.432841 
L 76.874857 58.427655 
L 77.463316 60.526373 
L 77.466698 60.501839 
L 77.615504 60.708826 
L 77.629031 60.700133 
L 77.679761 60.697031 
L 77.666233 60.753669 
L 77.716962 60.744601 
L 77.787983 60.788169 
L 77.825184 60.753017 
L 77.845476 60.729233 
L 77.889441 60.79393 
L 77.930025 60.779556 
L 78.102504 60.910698 
L 78.139705 60.869781 
L 78.25131 60.757448 
L 78.268219 60.783287 
L 78.396733 60.736163 
L 78.281747 60.796393 
L 78.406879 60.762011 
L 78.552303 60.940237 
L 78.572594 60.910987 
L 78.603032 60.828587 
L 78.694344 60.882737 
L 78.701108 60.899978 
L 78.84315 60.900498 
L 78.863442 60.932651 
L 78.941227 60.871302 
L 78.954754 60.903287 
L 78.961518 60.920549 
L 79.022393 60.82757 
L 79.056213 60.863836 
L 79.536449 60.867455 
L 79.648053 60.761064 
L 79.566887 60.894355 
L 79.664963 60.798076 
L 79.773185 60.820705 
L 79.698783 60.785261 
L 79.779949 60.80997 
L 79.823915 60.760211 
L 79.878026 60.864054 
L 79.942283 60.759597 
L 79.98963 60.852205 
L 80.030213 60.807033 
L 80.064033 60.875496 
L 80.104616 60.841097 
L 80.212838 60.873868 
L 80.12829 60.781805 
L 80.222984 60.87154 
L 81.010978 60.787502 
L 81.024505 60.756639 
L 81.149637 60.883513 
L 81.268006 60.884098 
L 81.183457 60.925926 
L 81.281533 60.909049 
L 81.298443 60.940657 
L 81.355936 60.822357 
L 81.366082 60.838935 
L 81.46754 60.763556 
L 81.443867 60.86107 
L 81.487832 60.789675 
L 81.633256 60.869488 
L 81.717804 60.736428 
L 81.646784 60.872003 
L 81.76177 60.762313 
L 81.842936 60.771672 
L 81.819263 60.841468 
L 81.859846 60.804702 
L 81.934249 60.879817 
L 81.876756 60.801568 
L 81.974832 60.816185 
L 82.008652 60.780816 
L 82.093201 60.832678 
L 82.225096 60.705953 
L 82.228478 60.715776 
L 82.319791 60.842409 
L 82.384048 60.758788 
L 82.512562 60.653431 
L 82.515944 60.660321 
L 82.634312 60.742758 
L 82.651222 60.714886 
L 82.705333 60.661407 
L 82.661367 60.74108 
L 82.772972 60.712618 
L 82.969125 60.681837 
L 82.972507 60.671061 
L 82.975888 60.658777 
L 83.019854 60.738848 
L 83.073965 60.699574 
L 83.080729 60.698147 
L 83.212625 60.832885 
L 83.243062 60.764103 
L 83.280264 60.857223 
L 83.324229 60.809896 
L 83.374958 60.877854 
L 83.347903 60.800844 
L 83.435833 60.807808 
L 83.851813 60.696893 
L 83.892396 60.647556 
L 83.943125 60.756335 
L 83.949889 60.747904 
L 84.034438 60.779901 
L 84.051347 60.708711 
L 84.054729 60.709729 
L 84.15957 60.609862 
L 84.186625 60.672562 
L 84.271174 60.709672 
L 84.200153 60.658567 
L 84.301611 60.655453 
L 84.338813 60.628491 
L 84.392924 60.725362 
L 85.16739 60.442002 
L 85.258702 60.413661 
L 85.184299 60.4809 
L 85.278994 60.440382 
L 85.404126 60.493949 
L 85.424418 60.481296 
L 85.53264 60.392089 
L 85.448091 60.50059 
L 85.556313 60.424491 
L 85.661154 60.48306 
L 85.603661 60.409789 
L 85.6713 60.48093 
L 85.9148 60.325291 
L 85.979057 60.2354 
L 86.03655 60.264762 
L 86.290196 60.303531 
L 86.300342 60.268707 
L 86.41871 60.121813 
L 86.432238 60.127418 
L 86.482967 60.042831 
L 86.533696 60.080788 
L 86.682502 60.000845 
L 86.696029 60.013246 
L 86.773814 60.04573 
L 86.706175 59.994588 
L 86.804252 59.996973 
L 86.92262 59.951245 
L 86.898946 60.042112 
L 86.929384 59.961323 
L 87.051134 60.051034 
L 86.980113 59.933916 
L 87.06128 60.019991 
L 87.078189 60.025176 
L 87.213467 59.865848 
L 87.247287 59.911611 
L 87.294634 59.812609 
L 87.321689 59.85279 
L 87.335217 59.812619 
L 87.460349 59.784545 
L 88.5561 59.273311 
L 88.593301 59.36758 
L 88.715051 59.35399 
L 88.718433 59.338246 
L 88.860475 59.217153 
L 88.867239 59.236288 
L 89.032954 59.23958 
L 89.0431 59.20724 
L 89.049864 59.173051 
L 89.114121 59.265544 
L 89.154704 59.209585 
L 89.364385 59.115556 
L 89.367767 59.119744 
L 89.377913 59.118262 
L 89.394823 59.052245 
L 89.418496 59.036954 
L 89.489517 58.954292 
L 89.536864 59.002882 
L 89.665378 59.037437 
L 89.54701 58.996437 
L 89.672142 59.023126 
L 89.935934 58.917584 
L 89.952844 58.960565 
L 89.983281 58.867637 
L 90.030628 58.85843 
L 90.20649 58.698824 
L 90.236927 58.77189 
L 90.253837 58.753082 
L 90.355295 58.825839 
L 90.470281 58.719854 
L 90.483809 58.737952 
L 90.605559 58.687558 
L 90.608941 58.706198 
L 90.656288 58.657379 
L 90.7104 58.654216 
L 90.764511 58.554674 
L 90.835532 58.574925 
L 91.068886 58.326831 
L 91.068886 58.326831 
" clip-path="url(#p0b45e9ece5)" style="fill: none; stroke: #000000; stroke-width: 0.6; stroke-linecap: square"/>
   </g>
   <g id="line2d_4">
    <path d="M 95.127221 15.313171 
L 95.127221 8.552195 
" clip-path="url(#p0b45e9ece5)" style="fill: none; stroke: #000000; stroke-width: 1.5; stroke-linecap: square"/>
   </g>
  </g>
 </g>
 <defs>
  <clipPath id="p0b45e9ece5">
   <rect x="7.2" y="7.2" width="89.28" height="55.44"/>
  </clipPath>
 </defs>
</svg>
