<?xml version="1.0" encoding="utf-8" standalone="no"?>
<!DOCTYPE svg PUBLIC "-//W3C//DTD SVG 1.1//EN"
  "http://www.w3.org/Graphics/SVG/1.1/DTD/svg11.dtd">
<svg xmlns:xlink="http://www.w3.org/1999/xlink" width="103.68pt" height="69.84pt" viewBox="0 0 103.68 69.84" xmlns="http://www.w3.org/2000/svg" version="1.1">
 <metadata>
  <rdf:RDF xmlns:dc="http://purl.org/dc/elements/1.1/" xmlns:cc="http://creativecommons.org/ns#" xmlns:rdf="http://www.w3.org/1999/02/22-rdf-syntax-ns#">
   <cc:Work>
    <dc:type rdf:resource="http://purl.org/dc/dcmitype/StillImage"/>
    <dc:date>2022-05-08T14:50:37.138139</dc:date>
    <dc:format>image/svg+xml</dc:format>
    <dc:creator>
     <cc:Agent>
      <dc:title>Matplotlib v3.5.1, https://matplotlib.org/</dc:title>
     </cc:Agent>
    </dc:creator>
   </cc:Work>
  </rdf:RDF>
 </metadata>
 <defs>
  <style type="text/css">*{stroke-linejoin: round; stroke-linecap: butt}</style>
 </defs>
 <g id="figure_1">
  <g id="patch_1">
   <path d="M 0 69.84 
L 103.68 69.84 
L 103.68 0 
L 0 0 
z
" style="fill: #ffffff"/>
  </g>
  <g id="axes_1">
   <g id="patch_2">
    <path d="M 7.2 62.64 
L 96.48 62.64 
L 96.48 7.2 
L 7.2 7.2 
z
" style="fill: #ffffff"/>
   </g>
   <g id="matplotlib.axis_1"/>
   <g id="matplotlib.axis_2"/>
   <g id="line2d_1">
    <path d="M 9.905557 24.539559 
L 10.057745 24.371096 
L 10.108474 24.322162 
L 10.06789 24.381484 
L 10.162585 24.411887 
L 10.243752 24.509692 
L 10.274189 24.457743 
L 11.275245 23.832618 
L 11.315829 23.767144 
L 11.393613 23.80882 
L 11.931343 23.538646 
L 11.934725 23.550426 
L 11.955016 23.576441 
L 11.992218 23.489836 
L 12.039565 23.53294 
L 12.090294 23.448149 
L 12.157933 23.508052 
L 12.357468 23.362329 
L 12.4826 23.261828 
L 12.418343 23.394727 
L 12.489364 23.280648 
L 12.607732 23.402944 
L 12.611114 23.401383 
L 12.776829 23.360613 
L 12.841086 23.421182 
L 12.790357 23.328155 
L 12.88167 23.34546 
L 12.912107 23.37619 
L 13.013566 23.271952 
L 13.071059 23.284927 
L 13.101496 23.203215 
L 13.104878 23.187612 
L 13.145462 23.282716 
L 13.199573 23.271641 
L 13.487038 23.163999 
L 13.206337 23.282241 
L 13.497184 23.181524 
L 13.568205 23.159458 
L 13.585115 23.115511 
L 13.649372 23.084489 
L 13.693337 23.138475 
L 13.808323 23.254262 
L 13.720392 23.117968 
L 13.818469 23.244655 
L 13.879344 23.191559 
L 13.933455 23.218666 
L 14.1499 23.357516 
L 14.153282 23.330462 
L 14.234448 23.226168 
L 14.278414 23.278033 
L 14.437365 23.383864 
L 14.447511 23.419763 
L 14.491476 23.30358 
L 14.535441 23.319895 
L 14.684247 23.243577 
L 14.552351 23.353527 
L 14.687629 23.254911 
L 14.691011 23.265565 
L 14.77556 23.17094 
L 14.789087 23.145293 
L 14.849962 23.253988 
L 14.873636 23.198749 
L 14.924365 23.258068 
L 14.978476 23.167919 
L 14.98524 23.203837 
L 14.988622 23.197881 
L 15.032588 23.272003 
L 15.073171 23.263336 
L 15.194921 23.274046 
L 15.198303 23.257654 
L 15.24565 23.2507 
L 15.286234 23.322526 
L 15.377546 23.392223 
L 15.323435 23.311418 
L 15.40122 23.355726 
L 15.435039 23.300672 
L 15.479005 23.428813 
L 15.512824 23.337944 
L 15.62781 23.352824 
L 15.52297 23.325702 
L 15.631192 23.34197 
L 15.736032 23.31379 
L 15.685303 23.390993 
L 15.746178 23.320561 
L 15.76647 23.315103 
L 15.800289 23.374091 
L 15.830727 23.366933 
L 15.837491 23.403165 
L 15.881456 23.334585 
L 15.938949 23.349114 
L 16.077609 23.273331 
L 16.080991 23.295303 
L 16.179067 23.484059 
L 16.206123 23.442309 
L 16.310963 23.4426 
L 16.246706 23.49236 
L 16.321109 23.461253 
L 16.37522 23.485766 
L 16.405658 23.405784 
L 16.425949 23.433819 
L 16.449623 23.439718 
L 16.473297 23.516436 
L 16.483443 23.499961 
L 16.571373 23.634189 
L 16.601811 23.576545 
L 16.693123 23.532073 
L 16.659304 23.588673 
L 16.713415 23.571187 
L 17.284964 23.516686 
L 17.291728 23.492783 
L 17.376276 23.585976 
L 17.386422 23.578456 
L 17.403332 23.629759 
L 17.498026 23.575251 
L 17.528464 23.529761 
L 17.599485 23.615015 
L 17.721235 23.79609 
L 17.738145 23.768112 
L 17.839603 23.804054 
L 17.778728 23.719456 
L 17.849749 23.763734 
L 17.893714 23.747561 
L 17.917388 23.807617 
L 17.957971 23.78322 
L 18.015464 23.77773 
L 17.998554 23.829918 
L 18.04252 23.849376 
L 18.103395 23.969998 
L 18.157506 23.909468 
L 18.187943 23.826237 
L 18.242055 23.943326 
L 18.262346 23.942523 
L 18.671562 23.862377 
L 18.68509 23.840727 
L 18.759492 23.98007 
L 18.89477 24.227163 
L 18.92859 24.164563 
L 18.938736 24.137482 
L 19.026666 24.249164 
L 19.121361 24.311774 
L 19.13827 24.283509 
L 19.192382 24.198872 
L 19.161944 24.298805 
L 19.249875 24.286903 
L 19.358097 24.356677 
L 19.381771 24.339347 
L 19.459555 24.233674 
L 19.530576 24.278947 
L 19.632035 24.285943 
L 19.601597 24.225475 
L 19.638798 24.26711 
L 20.05816 24.441371 
L 20.311806 24.696876 
L 20.315188 24.682451 
L 20.467375 24.566659 
L 20.491049 24.598535 
L 20.606035 24.674298 
L 20.616181 24.643632 
L 20.727785 24.534237 
L 20.792042 24.501249 
L 20.825862 24.581173 
L 20.829244 24.571514 
L 20.920556 24.670169 
L 20.954376 24.629959 
L 21.028778 24.505978 
L 21.076126 24.54882 
L 21.126855 24.460702 
L 21.184348 24.556881 
L 21.339917 24.650101 
L 21.214785 24.499464 
L 21.343299 24.630119 
L 21.346681 24.605592 
L 21.383883 24.679298 
L 21.451522 24.65547 
L 21.769425 24.747674 
L 21.881029 24.79921 
L 21.77957 24.732677 
L 21.901321 24.783529 
L 21.921612 24.739227 
L 22.012925 24.786041 
L 22.141439 24.726666 
L 22.489779 24.756602 
L 22.604765 24.796951 
L 22.54389 24.71005 
L 22.608147 24.793491 
L 22.719752 24.726079 
L 22.726515 24.745213 
L 22.851647 24.756604 
L 22.736661 24.711629 
L 22.855029 24.738312 
L 22.885467 24.747737 
L 22.970016 24.714574 
L 23.08162 24.793171 
L 23.101911 24.786682 
L 23.199988 24.733022 
L 23.132349 24.802982 
L 23.22028 24.74692 
L 23.264245 24.798 
L 23.298064 24.735344 
L 23.331884 24.776101 
L 23.46378 24.750095 
L 23.480689 24.782176 
L 23.56862 24.812911 
L 23.588912 24.763979 
L 24.113113 24.74401 
L 24.146933 24.720606 
L 24.180752 24.78496 
L 24.224718 24.746988 
L 24.336322 24.734391 
L 24.268683 24.779039 
L 24.339704 24.751496 
L 24.343086 24.769875 
L 24.407343 24.700386 
L 24.441162 24.70165 
L 24.647461 24.816128 
L 24.664371 24.76319 
L 24.69819 24.770947 
L 24.779357 24.695339 
L 24.85376 24.786536 
L 24.786121 24.689967 
L 24.897725 24.720994 
L 24.961982 24.695613 
L 24.989037 24.764373 
L 25.012711 24.731521 
L 25.043149 24.773402 
L 25.09726 24.675705 
L 25.107406 24.677131 
L 25.127697 24.654822 
L 25.168281 24.728044 
L 25.212246 24.713727 
L 25.333996 24.796155 
L 25.350906 24.742148 
L 25.452364 24.639689 
L 25.472656 24.664536 
L 25.516621 24.752051 
L 25.587642 24.691544 
L 25.709392 24.633784 
L 25.726302 24.673643 
L 25.787177 24.560551 
L 25.807468 24.582209 
L 26.044205 24.662979 
L 26.061114 24.62047 
L 26.101698 24.562079 
L 26.162573 24.648777 
L 26.165955 24.629238 
L 26.169337 24.654147 
L 26.257267 24.498734 
L 26.510913 24.399155 
L 26.700302 24.652025 
L 26.751031 24.570313 
L 26.805143 24.68603 
L 26.862636 24.686449 
L 26.815288 24.669141 
L 26.882927 24.63537 
L 27.004677 24.529783 
L 27.20083 24.358593 
L 27.238032 24.450004 
L 27.309053 24.501711 
L 27.258323 24.433739 
L 27.346254 24.450225 
L 27.424039 24.308721 
L 27.508587 24.45229 
L 27.714886 24.546438 
L 27.518733 24.441279 
L 27.725032 24.524703 
L 27.792671 24.439026 
L 27.840018 24.484031 
L 27.934713 24.472194 
L 27.867074 24.499663 
L 27.94824 24.499788 
L 27.955004 24.514139 
L 28.009115 24.420182 
L 28.022643 24.42393 
L 28.141011 24.265153 
L 28.144393 24.283134 
L 28.252616 24.181547 
L 28.276289 24.203464 
L 28.499498 24.318065 
L 28.296581 24.132294 
L 28.506262 24.310076 
L 28.62463 24.230308 
L 28.560373 24.328156 
L 28.628012 24.232345 
L 28.661831 24.340597 
L 28.742998 24.297373 
L 28.776817 24.228772 
L 28.83431 24.35116 
L 28.841074 24.346142 
L 29.416005 24.012225 
L 29.466734 24.124046 
L 29.524227 24.198349 
L 29.574957 24.09869 
L 29.666269 24.061895 
L 29.602012 24.115314 
L 29.686561 24.09814 
L 29.85904 24.045049 
L 29.98079 23.94705 
L 29.987554 23.956961 
L 30.099158 24.033443 
L 30.001082 23.93965 
L 30.109304 23.995422 
L 30.227672 23.900709 
L 30.231054 23.909413 
L 30.352804 23.901264 
L 30.254728 23.858516 
L 30.36295 23.875589 
L 30.474554 23.856738 
L 30.488082 23.870478 
L 30.528665 23.942865 
L 30.60645 23.904269 
L 30.694381 23.853865 
L 30.718054 23.914991 
L 30.748492 23.931957 
L 30.768784 23.841675 
L 30.805985 23.845098 
L 31.069777 23.661567 
L 30.812749 23.860349 
L 31.083305 23.692075 
L 31.198291 23.782134 
L 31.205055 23.762889 
L 32.537542 23.990507 
L 32.60518 23.93067 
L 32.65591 23.969479 
L 32.703257 24.054793 
L 32.774278 23.991182 
L 32.77766 23.968961 
L 32.855445 24.085678 
L 32.872354 24.067177 
L 33.433757 23.734027 
L 33.437139 23.749393 
L 33.596091 23.94304 
L 33.761806 23.863913 
L 33.765188 23.876152 
L 33.866646 23.990886 
L 33.897084 23.982839 
L 33.941049 23.899924 
L 34.015452 23.974133 
L 34.093237 24.018423 
L 34.035744 23.94895 
L 34.127056 23.968453 
L 34.211605 23.892887 
L 34.235279 23.985819 
L 35.057092 24.091371 
L 35.168696 24.175497 
L 35.063855 24.084824 
L 35.188987 24.141621 
L 35.266772 24.089461 
L 35.232953 24.161615 
L 35.300592 24.137595 
L 35.408814 24.183539 
L 35.422342 24.149644 
L 35.473071 24.128429 
L 35.452779 24.163416 
L 35.527182 24.172299 
L 35.696279 24.277482 
L 35.703043 24.257177 
L 35.753772 24.3628 
L 35.774064 24.355486 
L 35.777446 24.366475 
L 35.855231 24.272984 
L 35.868759 24.296328 
L 35.875523 24.265916 
L 35.943161 24.33643 
L 35.973599 24.328552 
L 36.017564 24.38718 
L 36.068293 24.277609 
L 36.081821 24.306273 
L 36.162988 24.234427 
L 36.125787 24.342761 
L 36.206953 24.318034 
L 36.267828 24.36709 
L 36.220481 24.298326 
L 36.311794 24.294129 
L 36.457217 24.137897 
L 36.362523 24.330295 
L 36.480891 24.150219 
L 36.551912 24.05306 
L 36.609405 24.024913 
L 36.592495 24.10063 
L 36.660134 24.057024 
L 36.998329 23.943663 
L 37.076113 23.835767 
L 37.109933 23.895724 
L 37.329759 24.272564 
L 37.336523 24.262795 
L 37.339905 24.253741 
L 37.41769 24.347098 
L 37.427836 24.342112 
L 37.542822 24.404896 
L 37.647662 24.391945 
L 37.55635 24.4465 
L 37.664572 24.439145 
L 37.725447 24.538547 
L 37.681482 24.408194 
L 37.789704 24.501219 
L 37.864107 24.508367 
L 37.823524 24.528237 
L 37.887781 24.535203 
L 37.996003 24.598042 
L 37.93851 24.515144 
L 38.009531 24.58587 
L 38.094079 24.539786 
L 38.117753 24.609933 
L 38.239503 24.557353 
L 38.19892 24.680021 
L 38.242885 24.559333 
L 38.334198 24.555274 
L 38.28685 24.498358 
L 38.344343 24.516166 
L 38.476239 24.419476 
L 38.364635 24.538322 
L 38.483003 24.44061 
L 38.625045 24.4712 
L 38.635191 24.454557 
L 38.709594 24.426016 
L 38.736649 24.504366 
L 38.875309 24.647747 
L 38.983531 24.561023 
L 38.898983 24.660388 
L 39.013969 24.586605 
L 39.057934 24.579726 
L 39.078226 24.514496 
L 39.108663 24.471865 
L 39.159392 24.563995 
L 39.186448 24.51896 
L 39.345399 24.584521 
L 39.362309 24.614969 
L 39.399511 24.533556 
L 39.457004 24.58027 
L 39.578754 24.655557 
L 39.500969 24.534208 
L 39.5889 24.623657 
L 39.673448 24.62696 
L 39.626101 24.715524 
L 39.690358 24.676404 
L 39.741087 24.729071 
L 39.795198 24.640183 
L 39.79858 24.66607 
L 39.95415 24.545902 
L 39.957532 24.554319 
L 40.021789 24.596587 
L 39.964296 24.528268 
L 40.062372 24.526318 
L 40.217942 24.423624 
L 40.234851 24.474575 
L 40.349837 24.720133 
L 40.380275 24.657105 
L 40.481733 24.566804 
L 40.393803 24.707623 
L 40.515553 24.61377 
L 40.623775 24.639877 
L 40.589956 24.570286 
L 40.627157 24.608835 
L 40.71847 24.536307 
L 40.735379 24.532182 
L 40.799636 24.617888 
L 40.803018 24.618955 
L 40.951824 24.727204 
L 40.819928 24.591271 
L 40.958588 24.71913 
L 40.965352 24.69537 
L 41.032991 24.788934 
L 41.056664 24.751692 
L 41.08372 24.809997 
L 41.17165 24.766963 
L 41.266345 24.768409 
L 41.235907 24.715175 
L 41.279873 24.74974 
L 41.283255 24.72397 
L 41.374567 24.787956 
L 41.391477 24.747257 
L 41.459116 24.84397 
L 41.415151 24.735673 
L 41.503081 24.746537 
L 41.506463 24.7294 
L 41.536901 24.795448 
L 41.611303 24.756876 
L 41.69247 24.795167 
L 41.729672 24.750081 
L 41.756727 24.696738 
L 41.824366 24.773382 
L 41.841276 24.746993 
L 42.003609 24.776042 
L 41.861567 24.716691 
L 42.013755 24.762782 
L 42.128741 24.733879 
L 42.135505 24.749712 
L 42.443262 24.826128 
L 42.463554 24.774206 
L 42.521047 24.71369 
L 42.575158 24.766695 
L 42.59545 24.788161 
L 42.713818 24.745391 
L 43.035103 24.769478 
L 43.038485 24.753376 
L 43.068922 24.775385 
L 43.160235 24.704155 
L 43.292131 24.794402 
L 43.312422 24.750523 
L 43.369916 24.792206 
L 43.424027 24.744729 
L 43.495048 24.807684 
L 43.471374 24.722557 
L 43.535631 24.736358 
L 43.664145 24.77477 
L 43.545777 24.72297 
L 43.670909 24.762887 
L 43.850152 24.752006 
L 43.853534 24.74496 
L 43.877207 24.710912 
L 43.948228 24.795291 
L 44.032777 24.796011 
L 44.059833 24.755584 
L 44.137617 24.663276 
L 44.174819 24.759727 
L 44.188347 24.773118 
L 44.21202 24.696025 
L 44.276277 24.723612 
L 44.482576 24.647677 
L 44.48934 24.673453 
L 44.584034 24.814895 
L 44.617854 24.780491 
L 44.685493 24.718892 
L 44.631381 24.797907 
L 44.726076 24.770898 
L 44.73284 24.808537 
L 44.780187 24.720261 
L 44.834298 24.750224 
L 44.885027 24.786738 
L 44.922229 24.696297 
L 44.945902 24.746364 
L 45.155583 24.706404 
L 45.290861 24.847075 
L 45.412611 24.675737 
L 45.419375 24.693193 
L 45.490396 24.751294 
L 45.449812 24.652662 
L 45.530979 24.692877 
L 45.632438 24.561684 
L 45.676403 24.64645 
L 45.720368 24.602801 
L 45.801535 24.694348 
L 45.896229 24.616123 
L 45.913139 24.664003 
L 45.970632 24.711597 
L 46.024743 24.684705 
L 46.143111 24.651368 
L 46.160021 24.68458 
L 46.217514 24.729226 
L 46.254716 24.63344 
L 46.26148 24.652525 
L 46.389994 24.582535 
L 46.275007 24.694759 
L 46.396757 24.605763 
L 46.430577 24.643654 
L 46.484688 24.561227 
L 46.521889 24.580854 
L 46.599674 24.513299 
L 46.677459 24.524677 
L 46.630112 24.477686 
L 46.707897 24.488535 
L 46.914195 24.601823 
L 46.728188 24.446776 
L 46.927723 24.552073 
L 47.046091 24.531109 
L 47.049473 24.537152 
L 47.150931 24.542852 
L 47.134022 24.509563 
L 47.161077 24.522153 
L 47.164459 24.505234 
L 47.194897 24.589556 
L 47.259154 24.586148 
L 47.404577 24.647118 
L 47.265918 24.552892 
L 47.421487 24.585149 
L 47.431633 24.635659 
L 47.610876 24.485707 
L 47.681897 24.505191 
L 47.641314 24.435718 
L 47.719098 24.486091 
L 47.86114 24.34868 
L 47.864522 24.357704 
L 47.898342 24.375336 
L 47.955835 24.298518 
L 48.033619 24.216985 
L 47.965981 24.333333 
L 48.084349 24.319554 
L 48.128314 24.397679 
L 48.195953 24.322897 
L 48.321085 24.172914 
L 48.358286 24.189933 
L 48.463127 24.24389 
L 48.412397 24.174048 
L 48.473272 24.193201 
L 48.554439 24.101199 
L 48.595023 24.139102 
L 48.753974 24.106845 
L 48.611932 24.178964 
L 48.757356 24.129938 
L 48.889252 24.032685 
L 49.318759 23.886564 
L 49.328905 23.92869 
L 49.37287 23.838537 
L 49.420217 23.853784 
L 49.481092 23.75256 
L 49.541967 23.818373 
L 49.775322 23.840357 
L 49.778704 23.808959 
L 49.785468 23.796825 
L 49.846343 23.91484 
L 49.849725 23.902782 
L 49.978239 23.974824 
L 49.981621 23.969353 
L 49.985002 23.94829 
L 50.076315 24.015274 
L 50.093225 23.967876 
L 50.198065 24.059615 
L 50.099989 23.957017 
L 50.214975 24.010524 
L 50.384072 23.87146 
L 50.428037 23.935697 
L 50.499058 23.859008 
L 50.607281 23.820587 
L 50.563315 23.89973 
L 50.617426 23.842537 
L 50.651246 23.882159 
L 50.732413 23.818792 
L 50.857545 23.701968 
L 50.969149 23.577781 
L 51.009732 23.633225 
L 51.117954 23.677723 
L 51.036788 23.604173 
L 51.124718 23.672537 
L 51.834927 23.630619 
L 51.865365 23.568784 
L 51.933004 23.655097 
L 51.943149 23.6532 
L 52.075045 23.513312 
L 51.973587 23.669046 
L 52.102101 23.573891 
L 52.233997 23.629925 
L 52.25767 23.595979 
L 52.345601 23.601387 
L 52.3084 23.661519 
L 52.362511 23.612765 
L 52.406476 23.59804 
L 52.487643 23.695127 
L 52.595865 23.588828 
L 52.514698 23.707115 
L 52.619539 23.601693 
L 52.727761 23.599233 
L 52.629684 23.642172 
L 52.741289 23.635341 
L 52.869803 23.722375 
L 52.947587 23.671928 
L 52.886712 23.760549 
L 52.978025 23.735501 
L 53.130213 23.892609 
L 53.133594 23.882591 
L 53.140358 23.892788 
L 53.164032 23.782515 
L 53.207997 23.79983 
L 53.366949 23.894215 
L 53.397386 23.877919 
L 53.519136 24.05176 
L 53.877623 24.137274 
L 53.985845 24.225432 
L 53.914824 24.119157 
L 53.999373 24.219216 
L 54.073776 24.188757 
L 54.016282 24.182665 
L 54.090685 24.158288 
L 54.117741 24.145919 
L 54.175234 24.245077 
L 54.249637 24.297288 
L 54.286838 24.258683 
L 54.29022 24.243751 
L 54.364623 24.399835 
L 54.452554 24.457757 
L 54.401824 24.377348 
L 54.482991 24.429548 
L 54.77722 24.528983 
L 54.787366 24.492517 
L 54.841477 24.418493 
L 54.885443 24.532181 
L 54.895588 24.510254 
L 54.983519 24.590382 
L 55.013957 24.574416 
L 55.112033 24.50321 
L 55.132325 24.558965 
L 55.352151 24.452719 
L 55.385971 24.528211 
L 55.41979 24.501549 
L 55.500957 24.535271 
L 55.578742 24.467145 
L 55.544922 24.561552 
L 55.615943 24.493433 
L 55.717401 24.492196 
L 55.659908 24.44771 
L 55.727547 24.467458 
L 55.832388 24.446189 
L 55.774895 24.51848 
L 55.839151 24.45452 
L 55.933846 24.531846 
L 55.852679 24.440242 
L 55.954138 24.472988 
L 56.126617 24.54173 
L 55.971047 24.442348 
L 56.133381 24.517101 
L 56.214548 24.444772 
L 56.244985 24.516036 
L 56.261895 24.519431 
L 56.282186 24.427291 
L 56.292332 24.436433 
L 56.376881 24.292145 
L 56.407318 24.346735 
L 56.414082 24.375149 
L 56.491867 24.262323 
L 56.505395 24.283737 
L 56.94843 24.451332 
L 56.955194 24.403623 
L 57.009305 24.359394 
L 56.961958 24.409682 
L 57.060034 24.420461 
L 57.158111 24.439512 
L 57.120909 24.310467 
L 57.168256 24.402287 
L 57.178402 24.389344 
L 57.249423 24.476118 
L 57.256187 24.477475 
L 57.377937 24.544727 
L 57.381319 24.5296 
L 57.411757 24.500836 
L 57.459104 24.60872 
L 57.486159 24.563798 
L 57.496305 24.597353 
L 57.57409 24.477057 
L 57.591 24.524534 
L 57.675548 24.549565 
L 57.631583 24.592301 
L 57.682312 24.579933 
L 57.743187 24.544556 
L 57.807444 24.627089 
L 58.101674 24.53243 
L 58.111819 24.55536 
L 58.128729 24.569701 
L 58.169312 24.448613 
L 58.453396 24.442297 
L 58.456778 24.418223 
L 58.47707 24.48658 
L 58.561618 24.466015 
L 58.619111 24.401768 
L 58.676604 24.48731 
L 58.710424 24.577399 
L 58.835556 24.722793 
L 58.950542 24.769683 
L 58.869375 24.687543 
L 58.957306 24.749223 
L 59.079056 24.641918 
L 59.092584 24.658415 
L 59.170369 24.610521 
L 59.180514 24.574269 
L 59.339466 24.535548 
L 59.34623 24.544323 
L 59.427396 24.570571 
L 59.393577 24.513216 
L 59.45107 24.534507 
L 59.488272 24.482477 
L 59.55591 24.563428 
L 59.566056 24.610189 
L 59.653987 24.4988 
L 59.660751 24.523494 
L 59.779119 24.406373 
L 59.789265 24.450622 
L 59.873813 24.355947 
L 59.921161 24.373534 
L 60.069966 24.538564 
L 60.208626 24.442051 
L 60.212008 24.443663 
L 60.323612 24.541939 
L 60.330376 24.517907 
L 60.374341 24.591234 
L 60.428453 24.559691 
L 60.540057 24.574219 
L 60.44198 24.535523 
L 60.543439 24.55763 
L 60.56373 24.542035 
L 60.587404 24.646568 
L 60.611078 24.653502 
L 60.617842 24.642673 
L 60.847814 24.714708 
L 60.935745 24.556735 
L 60.87487 24.748001 
L 60.969564 24.644945 
L 61.209682 24.700199 
L 61.263793 24.810361 
L 61.32805 24.770058 
L 61.392307 24.720012 
L 61.334814 24.778592 
L 61.443036 24.763114 
L 61.524203 24.743416 
L 61.558023 24.822279 
L 61.618898 24.703079 
L 61.676391 24.73315 
L 61.686537 24.713692 
L 61.794759 24.754088 
L 61.97062 24.782621 
L 61.977384 24.76236 
L 62.072078 24.737382 
L 61.994294 24.778981 
L 62.09237 24.752668 
L 62.217502 24.785252 
L 62.224266 24.767025 
L 62.315579 24.699277 
L 62.268231 24.780227 
L 62.33587 24.767537 
L 62.433947 24.778189 
L 62.359544 24.71375 
L 62.447475 24.753342 
L 62.559079 24.786831 
L 62.454238 24.748399 
L 62.565843 24.75958 
L 62.57937 24.700935 
L 62.626718 24.809291 
L 62.670683 24.791408 
L 62.680829 24.800096 
L 62.714648 24.736007 
L 62.765377 24.736863 
L 62.772141 24.709758 
L 62.833016 24.787651 
L 62.863454 24.78747 
L 62.890509 24.789949 
L 62.937857 24.710182 
L 63.005496 24.700134 
L 62.96153 24.759429 
L 63.032551 24.762677 
L 63.093426 24.810025 
L 63.150919 24.768669 
L 63.269287 24.740456 
L 63.184739 24.790508 
L 63.272669 24.747578 
L 63.418093 24.781671 
L 63.424857 24.76034 
L 63.485732 24.6917 
L 63.455295 24.768574 
L 63.539843 24.737496 
L 63.675121 24.809797 
L 63.695413 24.780102 
L 63.989642 24.768366 
L 64.036989 24.780753 
L 64.067427 24.694364 
L 64.080955 24.686887 
L 64.155357 24.766567 
L 64.158739 24.779991 
L 64.202705 24.672331 
L 64.256816 24.730025 
L 64.378566 24.690502 
L 64.618684 24.807686 
L 64.635594 24.778901 
L 64.76749 24.720218 
L 64.652504 24.822717 
L 64.770872 24.725704 
L 64.838511 24.802783 
L 64.892622 24.791345 
L 65.13274 24.686128 
L 65.146268 24.708737 
L 65.14965 24.721382 
L 65.196997 24.608826 
L 65.251108 24.683807 
L 65.345802 24.616326 
L 65.264636 24.711039 
L 65.37624 24.668652 
L 65.383004 24.660292 
L 65.504754 24.767377 
L 65.633268 24.616827 
L 65.694143 24.688709 
L 65.744872 24.624471 
L 65.846331 24.652747 
L 65.768546 24.5795 
L 65.856476 24.618894 
L 65.917351 24.693826 
L 65.974845 24.643644 
L 66.008664 24.624024 
L 66.066157 24.730063 
L 66.116886 24.706578 
L 66.089831 24.666647 
L 66.150706 24.664005 
L 66.282602 24.552958 
L 66.170997 24.68116 
L 66.292747 24.557761 
L 66.428025 24.631739 
L 66.313039 24.540131 
L 66.438171 24.618533 
L 66.61065 24.505614 
L 66.614032 24.511571 
L 66.87106 24.598722 
L 66.874442 24.588133 
L 66.996192 24.468919 
L 66.999574 24.474078 
L 67.040158 24.449689 
L 67.121324 24.508189 
L 67.219401 24.469722 
L 67.14838 24.56368 
L 67.232929 24.489206 
L 67.246456 24.537429 
L 67.324241 24.397522 
L 67.331005 24.440601 
L 67.445991 24.312489 
L 67.466283 24.342964 
L 67.855207 24.185437 
L 67.872116 24.236788 
L 67.885644 24.262859 
L 67.960047 24.182607 
L 67.970193 24.181931 
L 68.78186 23.855103 
L 68.852881 23.838899 
L 68.866409 23.896227 
L 68.883318 23.90032 
L 68.906992 23.942023 
L 68.981395 23.855771 
L 69.04227 23.823783 
L 69.086235 23.903063 
L 69.299298 23.861846 
L 69.417666 23.810487 
L 69.441339 23.824681 
L 69.573235 23.688141 
L 69.600291 23.719356 
L 69.671312 23.622436 
L 69.799826 23.571407 
L 69.80659 23.606855 
L 70.110965 23.508103 
L 70.185368 23.37904 
L 70.222569 23.475829 
L 70.249625 23.555109 
L 70.303736 23.467362 
L 70.337555 23.508913 
L 70.449159 23.483624 
L 70.459305 23.504023 
L 70.462687 23.516278 
L 70.506653 23.435379 
L 70.557382 23.452295 
L 70.942924 23.258451 
L 70.959833 23.304484 
L 71.027472 23.325845 
L 70.990271 23.271527 
L 71.068056 23.290993 
L 71.071438 23.272844 
L 71.132313 23.430905 
L 71.159368 23.395082 
L 71.751209 23.155484 
L 71.876341 23.059387 
L 72.001473 23.028153 
L 72.008237 22.986056 
L 72.089403 22.946964 
L 72.069112 23.045583 
L 72.123223 22.98259 
L 72.464799 22.855735 
L 72.485091 22.930723 
L 72.583168 23.042146 
L 72.603459 22.976274 
L 72.694772 22.945212 
L 72.627133 23.027153 
L 72.711682 22.981758 
L 72.823286 23.08167 
L 72.728591 22.958668 
L 72.857105 23.030228 
L 72.890925 23.062748 
L 72.978855 22.960003 
L 73.144571 23.191671 
L 73.239265 23.229241 
L 73.168244 23.261404 
L 73.246029 23.268473 
L 73.374543 23.286556 
L 73.286612 23.207026 
L 73.381307 23.26153 
L 73.384689 23.244719 
L 73.418508 23.317439 
L 73.486147 23.292911 
L 73.651863 23.40271 
L 73.678918 23.300504 
L 73.6823 23.271708 
L 73.780377 23.369341 
L 73.783758 23.357908 
L 73.827724 23.374327 
L 73.841252 23.294869 
L 73.858161 23.297718 
L 73.864925 23.250542 
L 73.902127 23.313609 
L 73.969766 23.267696 
L 73.979911 23.302559 
L 74.010349 23.238393 
L 74.074606 23.233341 
L 74.22003 23.287551 
L 74.250467 23.252077 
L 74.32487 23.321142 
L 74.328252 23.307072 
L 75.068898 23.99449 
L 75.08919 23.972864 
L 75.163593 23.898805 
L 75.200794 23.982456 
L 75.29887 24.059267 
L 75.319162 24.01043 
L 75.356363 23.994011 
L 75.417239 24.061998 
L 75.694558 24.042391 
L 75.69794 24.030341 
L 76.06319 24.176542 
L 76.127447 24.199902 
L 76.154503 24.097255 
L 76.18494 24.066589 
L 76.232288 24.170143 
L 76.255961 24.129636 
L 76.303308 24.179493 
L 76.367565 24.114293 
L 76.482552 24.117562 
L 76.492697 24.134552 
L 76.533281 24.18513 
L 76.506225 24.124476 
L 76.60092 24.111728 
L 76.73958 24.180706 
L 76.665177 24.072716 
L 76.746343 24.160323 
L 76.780163 24.124403 
L 76.820746 24.215871 
L 76.84442 24.196969 
L 76.996607 24.337912 
L 77.101448 24.429198 
L 77.030427 24.30264 
L 77.135267 24.384583 
L 77.240108 24.375036 
L 77.152177 24.397204 
L 77.24349 24.398292 
L 77.355094 24.46825 
L 77.372003 24.424924 
L 77.497135 24.318975 
L 77.500517 24.325747 
L 77.544483 24.404137 
L 77.612122 24.348046 
L 77.629031 24.312987 
L 77.706816 24.446263 
L 77.744018 24.502273 
L 77.815038 24.417321 
L 77.967226 24.340435 
L 77.97399 24.361212 
L 78.038247 24.453168 
L 78.088976 24.370065 
L 78.187053 24.355955 
L 78.143087 24.409526 
L 78.197198 24.388623 
L 78.231018 24.423173 
L 78.258073 24.346428 
L 78.308803 24.381684 
L 78.406879 24.367986 
L 78.332476 24.419747 
L 78.423789 24.373754 
L 78.768747 24.584539 
L 78.802567 24.524804 
L 78.951372 24.369711 
L 79.073122 24.409514 
L 79.079886 24.394123 
L 79.08665 24.375343 
L 79.117088 24.453201 
L 79.191491 24.399793 
L 79.215164 24.427756 
L 79.262511 24.313859 
L 79.289567 24.362203 
L 79.414699 24.302133 
L 79.299713 24.372723 
L 79.418081 24.311738 
L 79.546595 24.385442 
L 79.549977 24.382223 
L 79.563505 24.370944 
L 79.593942 24.445241 
L 79.637907 24.4458 
L 79.654817 24.495286 
L 79.692019 24.403995 
L 79.742748 24.416594 
L 79.86788 24.410743 
L 79.871262 24.417653 
L 79.979484 24.502726 
L 79.905081 24.391541 
L 79.993012 24.463956 
L 80.060651 24.528656 
L 80.118144 24.470391 
L 80.124908 24.447212 
L 80.199311 24.589303 
L 80.209456 24.575293 
L 80.273713 24.618342 
L 80.310915 24.535717 
L 80.321061 24.570899 
L 80.37179 24.454884 
L 80.452957 24.348119 
L 80.49354 24.360521 
L 80.571325 24.394575 
L 80.527359 24.334795 
L 80.594998 24.334963 
L 80.682929 24.294528 
L 80.628818 24.349398 
L 80.703221 24.359913 
L 80.895992 24.480081 
L 80.923047 24.49437 
L 80.939957 24.421756 
L 80.987304 24.419789 
L 81.017742 24.368731 
L 81.088762 24.438573 
L 81.095526 24.486752 
L 81.13611 24.41782 
L 81.200367 24.436857 
L 81.349172 24.55027 
L 81.531797 24.451231 
L 81.552089 24.506844 
L 81.568999 24.495814 
L 81.687367 24.627435 
L 82.069527 24.586764 
L 82.072909 24.596494 
L 82.204805 24.733985 
L 82.313027 24.72496 
L 82.228478 24.784524 
L 82.329937 24.752638 
L 82.377284 24.804198 
L 82.431395 24.714527 
L 82.559909 24.614875 
L 82.570055 24.64286 
L 82.661367 24.72016 
L 82.580201 24.611135 
L 82.695187 24.684334 
L 82.712097 24.639759 
L 82.759444 24.763095 
L 82.806791 24.684398 
L 83.341139 24.743698 
L 83.347903 24.708942 
L 83.452743 24.705147 
L 83.37834 24.755001 
L 83.476417 24.742916 
L 83.588021 24.789349 
L 83.60493 24.766942 
L 83.679333 24.807529 
L 83.730063 24.709488 
L 83.753736 24.787182 
L 83.824757 24.670575 
L 83.838285 24.699261 
L 83.91607 24.800801 
L 83.919451 24.830776 
L 83.997236 24.748664 
L 84.02091 24.756218 
L 85.069313 24.801623 
L 85.076077 24.827375 
L 85.153862 24.743096 
L 85.16739 24.765662 
L 85.268848 24.734618 
L 85.211355 24.796266 
L 85.282376 24.754217 
L 85.475147 24.776538 
L 85.478529 24.739735 
L 85.508966 24.70124 
L 85.579987 24.771559 
L 85.583369 24.763869 
L 85.593515 24.786935 
L 85.661154 24.686723 
L 85.691591 24.767973 
L 85.765994 24.698803 
L 85.803196 24.741747 
L 85.877598 24.779247 
L 85.9148 24.732711 
L 86.009494 24.676921 
L 85.93171 24.741724 
L 86.029786 24.722473 
L 86.066987 24.763938 
L 86.110953 24.678311 
L 86.134626 24.696997 
L 86.144772 24.707065 
L 86.252994 24.715682 
L 86.324015 24.781044 
L 86.28005 24.697407 
L 86.367981 24.734587 
L 86.43562 24.71629 
L 86.469439 24.785781 
L 86.472821 24.76547 
L 86.526932 24.772638 
L 86.564133 24.718947 
L 86.570897 24.730264 
L 86.601335 24.637969 
L 86.672356 24.764339 
L 86.682502 24.733324 
L 87.084953 24.636788 
L 87.115391 24.553445 
L 87.18303 24.689161 
L 87.189794 24.671855 
L 87.247287 24.739657 
L 87.30478 24.667968 
L 87.595627 24.679794 
L 87.602391 24.65891 
L 87.697085 24.569798 
L 87.632829 24.69098 
L 87.734287 24.607637 
L 87.828981 24.677845 
L 87.852655 24.661764 
L 87.859419 24.63685 
L 87.933822 24.755932 
L 87.954113 24.717201 
L 87.957495 24.746494 
L 87.994697 24.686435 
L 88.062336 24.702386 
L 88.261871 24.51759 
L 88.275398 24.558861 
L 88.299072 24.53408 
L 88.403912 24.646389 
L 88.478315 24.761605 
L 88.485079 24.792178 
L 88.562864 24.682152 
L 88.69476 24.590644 
L 88.708287 24.611239 
L 88.887531 24.435507 
L 89.022808 24.397835 
L 89.039718 24.454032 
L 89.16485 24.521899 
L 89.053246 24.420526 
L 89.168232 24.502057 
L 89.202052 24.438503 
L 89.174996 24.506489 
L 89.273072 24.519295 
L 89.289982 24.551305 
L 89.32042 24.433714 
L 89.371149 24.44925 
L 89.465843 24.371819 
L 89.489517 24.387514 
L 89.621413 24.44431 
L 89.634941 24.417013 
L 89.770219 24.27888 
L 89.780364 24.329491 
L 89.898733 24.513608 
L 89.919024 24.471731 
L 89.949462 24.416307 
L 90.027246 24.487178 
L 90.098267 24.434176 
L 90.077976 24.417537 
L 90.105031 24.4116 
L 90.199726 24.34274 
L 90.230163 24.389097 
L 90.280892 24.385371 
L 90.240309 24.371338 
L 90.32824 24.338088 
L 90.483809 24.219251 
L 90.487191 24.221289 
L 91.068886 23.7683 
L 90.493955 24.230033 
L 91.068886 23.7683 
" clip-path="url(#pbb77e150f3)" style="fill: none; stroke: #000000; stroke-width: 0.6; stroke-linecap: square"/>
   </g>
   <g id="line2d_2">
    <path d="M 9.905557 41.84856 
L 10.098328 41.932898 
L 10.10171 41.921822 
L 10.169349 41.852076 
L 10.216696 41.927314 
L 10.260661 41.8923 
L 10.34521 41.944234 
L 10.514307 41.76727 
L 10.639439 41.705836 
L 10.673259 41.72127 
L 10.764571 41.677995 
L 10.808537 41.729697 
L 10.852502 41.632736 
L 10.872794 41.654067 
L 10.876176 41.655705 
L 10.893085 41.589059 
L 10.906613 41.567614 
L 11.018217 41.408632 
L 10.940433 41.587595 
L 11.031745 41.447166 
L 11.112912 41.369161 
L 11.254954 41.13097 
L 11.275245 41.163118 
L 11.346266 41.020587 
L 11.464634 40.911993 
L 11.47478 40.927234 
L 11.542419 40.942432 
L 11.525509 40.880121 
L 11.586384 40.929656 
L 11.593148 40.90005 
L 11.681079 41.01465 
L 11.691225 40.960399 
L 11.87385 40.877214 
L 11.697989 40.968863 
L 11.883996 40.911597 
L 12.042947 40.929843 
L 12.046329 40.917001 
L 12.161315 40.775667 
L 12.184989 40.789895 
L 12.529947 40.772475 
L 12.533329 40.737614 
L 12.60435 40.828546 
L 12.63817 40.772544 
L 12.682135 40.839748 
L 12.749774 40.777161 
L 13.216482 40.523607 
L 13.324705 40.433566 
L 13.253684 40.556016 
L 13.331469 40.438912 
L 13.561441 40.388775 
L 13.568205 40.412264 
L 13.676427 40.545903 
L 13.588497 40.394001 
L 13.696719 40.466099 
L 13.818469 40.357116 
L 14.102552 40.434947 
L 14.207393 40.484135 
L 14.11608 40.408732 
L 14.214157 40.44313 
L 14.406928 40.328817 
L 14.535441 40.202539 
L 14.538823 40.216176 
L 14.677483 40.130796 
L 14.680865 40.118063 
L 14.711303 40.186147 
L 14.778942 40.172016 
L 14.924365 40.273442 
L 14.971713 40.398569 
L 15.042733 40.381109 
L 15.049497 40.352765 
L 15.090081 40.436161 
L 15.147574 40.421946 
L 15.326817 40.151027 
L 15.15772 40.428646 
L 15.340345 40.194722 
L 15.380928 40.170958 
L 15.424893 40.25074 
L 15.441803 40.302047 
L 15.492532 40.183181 
L 15.529734 40.233681 
L 15.533116 40.21708 
L 15.624428 40.302991 
L 15.62781 40.299067 
L 15.752942 40.351727 
L 15.759706 40.316817 
L 15.76647 40.303094 
L 15.810435 40.414044 
L 15.844255 40.41091 
L 15.959241 40.493751 
L 15.979533 40.464891 
L 16.239942 40.204421 
L 16.243324 40.223207 
L 16.27038 40.300131 
L 16.351547 40.201317 
L 16.37522 40.262052 
L 16.571373 40.132893 
L 16.628866 40.06458 
L 16.578137 40.110938 
L 16.632248 40.051535 
L 16.710033 39.9493 
L 16.743852 40.02484 
L 16.838547 40.107137 
L 16.858839 40.041915 
L 17.41686 40.019199 
L 17.440533 40.030352 
L 17.481117 39.924158 
L 17.487881 39.924427 
L 17.596103 39.850384 
L 17.541992 39.943537 
L 17.606249 39.889224 
L 17.656978 39.947492 
L 17.721235 39.896232 
L 17.731381 39.922965 
L 17.941061 39.922862 
L 17.985027 39.883415 
L 18.052666 39.914143 
L 18.661416 39.737976 
L 18.674944 39.762517 
L 18.745965 39.644068 
L 18.844041 39.645933 
L 18.762874 39.617165 
L 18.850805 39.618652 
L 18.881242 39.533501 
L 18.952263 39.653399 
L 18.955645 39.652456 
L 19.117979 39.635451 
L 19.121361 39.649238 
L 19.15518 39.579561 
L 19.216055 39.571994 
L 19.405444 39.427894 
L 19.523812 39.376604 
L 19.466319 39.47845 
L 19.530576 39.385176 
L 19.655708 39.417073 
L 19.544104 39.374466 
L 19.669236 39.40236 
L 19.807896 39.308597 
L 19.811278 39.295104 
L 19.868771 39.407006 
L 19.905972 39.36154 
L 19.973611 39.39654 
L 19.9195 39.351853 
L 20.014194 39.358357 
L 20.250931 39.13905 
L 20.28475 39.112187 
L 20.372681 39.148619 
L 20.507959 39.0406 
L 20.514723 39.055451 
L 20.572216 39.038704 
L 20.592507 38.985355 
L 20.599271 38.98649 
L 20.616181 39.000358 
L 20.751459 38.844987 
L 20.754841 38.852522 
L 20.792042 38.765733 
L 20.846153 38.80336 
L 20.947612 38.662155 
L 20.974667 38.666544 
L 21.400792 38.33833 
L 21.586799 37.889189 
L 21.630765 37.72557 
L 21.752515 36.180945 
L 21.789716 31.235723 
L 21.837064 37.98097 
L 21.870883 38.543037 
L 21.945286 37.922141 
L 22.046744 35.873911 
L 22.0738 32.337205 
L 22.131293 38.28676 
L 22.141439 38.417127 
L 22.21246 37.701574 
L 22.303772 34.275597 
L 22.3173 32.960168 
L 22.388321 38.143987 
L 22.391703 38.150521 
L 22.415376 37.958975 
L 22.533744 35.109798 
L 22.554036 33.619618 
L 22.618293 37.767461 
L 22.631821 37.813484 
L 22.679168 37.328746 
L 22.767099 35.401117 
L 22.790772 34.461889 
L 22.848265 37.077349 
L 22.875321 37.408429 
L 22.946342 36.818299 
L 23.034273 35.322481 
L 23.08162 36.391074 
L 23.135731 36.994823 
L 23.20337 36.685533 
L 23.287918 36.1563 
L 23.355557 36.491204 
L 23.477307 36.909089 
L 23.544946 36.817392 
L 23.619349 36.67507 
L 23.663315 36.715752 
L 23.859467 37.341207 
L 23.872995 37.33915 
L 23.886523 37.417039 
L 23.903433 37.436493 
L 25.181808 40.563234 
L 25.313704 40.850434 
L 25.330614 40.839378 
L 25.523385 41.067863 
L 25.526767 41.054493 
L 25.591024 41.230462 
L 25.716156 41.47039 
L 25.726302 41.462553 
L 25.729684 41.441604 
L 25.81085 41.615041 
L 26.010385 41.987359 
L 26.061114 41.928876 
L 26.067878 41.905086 
L 26.152427 42.029336 
L 26.155809 42.029762 
L 26.510913 42.307484 
L 26.186246 41.98528 
L 26.527823 42.265024 
L 26.663101 42.211399 
L 26.551497 42.319656 
L 26.673247 42.221117 
L 26.740886 42.265263 
L 26.693538 42.204214 
L 26.781469 42.224054 
L 26.862636 42.144117 
L 26.899837 42.170192 
L 26.964094 42.305131 
L 27.041879 42.217739 
L 27.173775 42.090662 
L 27.062171 42.253023 
L 27.207594 42.144446 
L 27.214358 42.166911 
L 27.281997 42.057253 
L 27.298907 42.0913 
L 27.410511 41.931454 
L 27.427421 41.944487 
L 27.819727 41.516205 
L 27.829872 41.527926 
L 27.86031 41.609609 
L 27.924567 41.491923 
L 27.938095 41.499043 
L 28.029407 41.482096 
L 27.958386 41.550616 
L 28.039553 41.543454 
L 28.262761 41.472911 
L 28.387893 41.331764 
L 28.283053 41.508133 
L 28.414949 41.366911 
L 28.462296 41.394313 
L 28.438623 41.342046 
L 28.526553 41.37606 
L 28.594192 41.442908 
L 28.651685 41.333091 
L 28.749762 41.348841 
L 28.675359 41.284989 
L 28.773435 41.317014 
L 28.901949 41.200589 
L 28.942533 41.246076 
L 29.003408 41.136649 
L 29.148831 40.98892 
L 29.273963 40.917432 
L 29.405859 40.84669 
L 29.412623 40.870889 
L 29.835366 40.683387 
L 29.845512 40.720905 
L 29.930061 40.595909 
L 30.109304 40.245235 
L 30.146506 40.2718 
L 30.25811 40.280778 
L 30.231054 40.226046 
L 30.261492 40.278813 
L 30.599686 40.071976 
L 30.60645 40.099638 
L 30.751874 40.323909 
L 30.758638 40.307281 
L 30.917589 40.26761 
L 30.920971 40.258156 
L 31.076541 40.054857 
L 31.086687 40.096629 
L 31.482374 40.185294 
L 31.489138 40.158511 
L 31.539867 40.1491 
L 31.580451 40.218705 
L 31.587215 40.203058 
L 31.779986 40.22907 
L 31.593979 40.18519 
L 31.783368 40.212946 
L 31.800277 40.183119 
L 31.881444 40.277494 
L 31.884826 40.271821 
L 32.053923 40.088945 
L 32.263604 40.219605 
L 32.321097 40.158535 
L 32.381972 40.191127 
L 32.530778 40.283827 
L 32.540924 40.277819 
L 32.672819 40.170693 
L 32.801333 40.214358 
L 32.679583 40.1596 
L 32.811479 40.162163 
L 32.814861 40.145589 
L 32.902792 40.262163 
L 32.906174 40.251498 
L 33.007632 40.352736 
L 33.031306 40.297454 
L 33.308625 40.249348 
L 33.38641 40.107541 
L 33.426993 40.17362 
L 33.50816 40.190957 
L 33.52507 40.120361 
L 33.528452 40.133004 
L 33.866646 40.041923 
L 33.880174 40.075642 
L 33.947813 40.149934 
L 34.001924 40.095065 
L 34.089855 40.113155 
L 34.04589 40.037083 
L 34.113529 40.095365 
L 34.245424 40.010414 
L 34.143966 40.107959 
L 34.248806 40.016437 
L 34.265716 40.055323 
L 34.323209 39.934293 
L 34.329973 39.942776 
L 34.340119 39.899827 
L 34.424668 40.006698 
L 34.434813 40.003148 
L 34.762862 39.8998 
L 34.877848 39.799295 
L 34.884612 39.800624 
L 35.216043 39.944704 
L 35.293828 39.966235 
L 35.249862 39.903507 
L 35.320883 39.922752 
L 35.38514 39.87998 
L 35.41896 39.948497 
L 35.429106 39.948908 
L 35.432488 39.934569 
L 35.466307 40.009207 
L 35.527182 39.996726 
L 35.544092 40.020343 
L 35.594821 39.902396 
L 35.608349 39.910161 
L 35.669224 39.81277 
L 35.740245 39.870745 
L 35.743627 39.892133 
L 35.7673 39.835609 
L 35.845085 39.848243 
L 35.990509 39.770022 
L 36.051384 39.789594 
L 36.071675 39.727811 
L 36.102113 39.776205 
L 36.16637 39.721129 
L 36.135932 39.814935 
L 36.213717 39.767044 
L 36.220481 39.777971 
L 36.27121 39.689747 
L 36.301648 39.700691 
L 36.372669 39.690736 
L 36.382815 39.742062 
L 36.40987 39.71592 
L 36.592495 39.682641 
L 36.714245 39.551721 
L 36.788648 39.562561 
L 36.754829 39.502683 
L 36.819086 39.525276 
L 37.038912 39.537668 
L 37.042294 39.558679 
L 37.049058 39.54811 
L 37.201246 39.647249 
L 37.292558 39.596851 
L 37.228301 39.680114 
L 37.319614 39.630817 
L 37.576642 39.56478 
L 37.583405 39.581857 
L 37.623989 39.599697 
L 37.6781 39.512998 
L 37.691628 39.567432 
L 37.698392 39.577892 
L 37.762649 39.483744 
L 37.772794 39.498255 
L 37.776176 39.494148 
L 37.789704 39.555617 
L 37.833669 39.591248 
L 37.884399 39.649063 
L 37.850579 39.572792 
L 37.941892 39.570134 
L 38.127899 39.4548 
L 38.131281 39.461653 
L 38.195538 39.503324 
L 38.168482 39.425525 
L 38.232739 39.417704 
L 38.351107 39.297802 
L 38.388309 39.314732 
L 38.499913 39.36237 
L 38.503295 39.357996 
L 38.601371 39.309699 
L 38.574316 39.373273 
L 38.621663 39.316567 
L 38.773851 39.293282 
L 38.631809 39.332185 
L 38.783996 39.322537 
L 38.804288 39.375637 
L 38.888837 39.289334 
L 39.369073 39.029014 
L 39.46715 38.9931 
L 39.419802 39.050507 
L 39.477295 39.034822 
L 39.494205 39.045054 
L 39.541552 38.913379 
L 39.544934 38.888725 
L 39.629483 39.020993 
L 39.643011 38.984867 
L 39.781671 38.971349 
L 39.663302 38.917599 
L 39.795198 38.928869 
L 39.933858 38.828265 
L 39.940622 38.833028 
L 40.018407 38.863614 
L 40.001497 38.797042 
L 40.055608 38.812953 
L 40.170594 38.716954 
L 40.201032 38.776201 
L 40.204414 38.789946 
L 40.248379 38.708028 
L 40.299108 38.72522 
L 40.434386 38.48209 
L 40.45806 38.510045 
L 40.573046 38.378505 
L 40.715088 38.246834 
L 40.721852 38.262635 
L 40.748907 38.148051 
L 40.96197 35.799419 
L 40.992407 31.03913 
L 41.046518 38.355636 
L 41.073574 38.629475 
L 41.147977 38.047033 
L 41.252817 35.901831 
L 41.276491 32.066851 
L 41.337366 38.566964 
L 41.350894 38.686 
L 41.405005 38.125829 
L 41.509845 35.166845 
L 41.530137 32.267542 
L 41.597776 38.686867 
L 41.601158 38.673896 
L 41.624831 38.496317 
L 41.743199 35.992336 
L 41.770255 32.347647 
L 41.824366 38.608543 
L 41.837894 38.741697 
L 41.902151 38.062551 
L 41.990081 35.913786 
L 42.013755 32.267617 
L 42.071248 38.773671 
L 42.084776 38.906506 
L 42.152415 38.139702 
L 42.253873 35.212259 
L 42.270783 32.076348 
L 42.338422 39.169332 
L 42.341804 39.168754 
L 42.409443 38.444602 
L 42.524429 36.107575 
L 42.551485 31.578635 
L 42.598832 39.141124 
L 42.619123 39.555326 
L 42.70029 38.660995 
L 42.845714 36.222731 
L 42.872769 31.213039 
L 42.920117 39.298354 
L 42.94379 39.85731 
L 43.024957 38.979278 
L 43.261693 33.732224 
L 43.275221 31.810062 
L 43.346242 39.579425 
L 43.353006 39.618002 
L 43.403735 39.23382 
L 43.613416 37.63554 
L 43.623561 37.654565 
L 43.735166 37.41268 
L 43.772367 37.452875 
L 43.782513 37.423165 
L 43.84677 37.567624 
L 43.853534 37.560081 
L 44.056451 38.180943 
L 44.059833 38.179006 
L 44.086888 38.282378 
L 44.283041 38.890945 
L 44.286423 38.886247 
L 44.327006 38.992446 
L 44.33377 38.988673 
L 44.475812 39.284578 
L 44.482576 39.27975 
L 44.516395 39.400124 
L 44.523159 39.386543 
L 44.648291 39.558754 
L 44.665201 39.532892 
L 44.726076 39.694868 
L 44.952666 40.248002 
L 45.027069 40.220954 
L 44.962812 40.278756 
L 45.050743 40.292619 
L 45.152201 40.609765 
L 45.34159 41.006169 
L 45.344972 41.000228 
L 45.351736 40.985137 
L 45.415993 41.145641 
L 45.544507 41.279429 
L 45.554653 41.24969 
L 45.591854 41.381071 
L 45.595236 41.380673 
L 45.716986 41.542792 
L 45.72375 41.531823 
L 45.886084 41.56693 
L 45.892847 41.602623 
L 46.021361 41.765272 
L 46.024743 41.762035 
L 46.041653 41.740582 
L 46.082236 41.83175 
L 46.126202 41.805123 
L 46.312209 41.736029 
L 46.329119 41.764435 
L 46.420431 41.958766 
L 46.457632 41.864039 
L 46.525271 41.871361 
L 46.47116 41.841919 
L 46.562473 41.829088 
L 46.978452 41.887272 
L 47.063001 41.961581 
L 47.100202 41.947857 
L 47.110348 41.986747 
L 47.191515 41.863347 
L 47.347084 41.739214 
L 47.350466 41.753251 
L 47.35723 41.786095 
L 47.414723 41.673744 
L 47.428251 41.680326 
L 47.448543 41.699915 
L 47.553383 41.613602 
L 47.708953 41.501488 
L 47.732626 41.562416 
L 47.905105 41.537915 
L 47.908487 41.505761 
L 48.009946 41.408854 
L 48.033619 41.447267 
L 48.111404 41.384409 
L 48.148606 41.454022 
L 48.263592 41.362283 
L 48.158751 41.469028 
L 48.280502 41.384118 
L 48.344759 41.426957 
L 48.307557 41.360928 
L 48.395488 41.374323 
L 48.628842 41.110498 
L 48.652516 41.146014 
L 48.662661 41.158014 
L 48.720155 41.029518 
L 48.831759 40.971389 
L 48.835141 40.980177 
L 48.99071 40.781443 
L 49.014384 40.80985 
L 49.034676 40.839688 
L 49.082023 40.786708 
L 49.125988 40.805516 
L 49.240974 40.649719 
L 49.301849 40.739274 
L 49.369488 40.771085 
L 49.332287 40.716491 
L 49.416835 40.752025 
L 49.541967 40.615389 
L 49.548731 40.653711 
L 49.656954 40.731353 
L 49.670481 40.697843 
L 49.778704 40.587785 
L 49.697537 40.718604 
L 49.792232 40.617723 
L 49.900454 40.710073 
L 49.920745 40.647705 
L 50.028968 40.501206 
L 50.039114 40.559461 
L 50.12028 40.409051 
L 50.181155 40.466169 
L 50.252176 40.507443 
L 50.29276 40.459385 
L 50.316433 40.432532 
L 50.350253 40.511368 
L 50.390836 40.514509 
L 50.600517 40.417118 
L 50.735795 40.306405 
L 50.74594 40.342887 
L 50.874454 40.463959 
L 50.881218 40.443541 
L 51.019878 40.377315 
L 50.921802 40.480325 
L 51.02326 40.387843 
L 51.141628 40.367518 
L 51.14501 40.364631 
L 51.246468 40.37042 
L 51.158538 40.394237 
L 51.24985 40.389321 
L 51.290434 40.442917 
L 51.3716 40.394299 
L 51.479823 40.336992 
L 51.385128 40.413437 
L 51.496732 40.368093 
L 51.513642 40.410705 
L 51.598191 40.326753 
L 51.807872 40.111124 
L 51.855219 40.19669 
L 51.872128 40.238371 
L 51.92624 40.129556 
L 51.949913 40.144758 
L 52.244143 39.984373 
L 52.261052 40.044778 
L 52.271198 40.064573 
L 52.321927 39.933431 
L 52.345601 39.939418 
L 52.477497 39.758274 
L 52.480879 39.769169 
L 52.815692 39.528938 
L 52.491025 39.780572 
L 52.832601 39.582874 
L 52.927296 39.621863 
L 52.856275 39.564894 
L 52.940824 39.579378 
L 53.011844 39.52751 
L 53.065956 39.579896 
L 53.16065 39.580861 
L 53.174178 39.547933 
L 53.180942 39.512475 
L 53.268872 39.600016 
L 53.2824 39.568908 
L 53.380477 39.492063 
L 53.306074 39.605842 
L 53.424442 39.574519 
L 53.498845 39.656812 
L 53.539428 39.608299 
L 53.694998 39.445723 
L 53.549574 39.634531 
L 53.705143 39.450685 
L 53.809984 39.630075 
L 53.718671 39.438463 
L 53.840421 39.580028 
L 53.884387 39.516412 
L 53.914824 39.606046 
L 53.952025 39.567678 
L 53.958789 39.548345 
L 54.019664 39.621899 
L 54.053484 39.599777 
L 54.171852 39.605607 
L 54.175234 39.58387 
L 54.246255 39.668592 
L 54.27331 39.64165 
L 54.374769 39.721358 
L 54.39506 39.697671 
L 54.719727 39.648269 
L 54.723109 39.662911 
L 54.834713 39.730977 
L 54.838095 39.709852 
L 54.953082 39.600468 
L 54.851623 39.713698 
L 54.956464 39.603442 
L 55.027484 39.661306 
L 55.05454 39.531051 
L 55.112033 39.394502 
L 55.172908 39.495781 
L 55.548304 39.63415 
L 55.55845 39.583274 
L 55.636235 39.52565 
L 55.609179 39.592151 
L 55.670054 39.562425 
L 56.272041 39.422773 
L 56.285568 39.376036 
L 56.32277 39.448472 
L 56.380263 39.437096 
L 56.417464 39.462129 
L 56.464812 39.365556 
L 56.529069 39.418065 
L 56.502013 39.454676 
L 56.53245 39.432332 
L 56.596707 39.493928 
L 56.542596 39.430067 
L 56.647437 39.480569 
L 56.772569 39.439143 
L 56.887555 39.536195 
L 56.894319 39.527665 
L 56.917992 39.594874 
L 56.982249 39.462698 
L 57.083708 39.399307 
L 57.097236 39.422663 
L 57.235895 39.459526 
L 57.252805 39.439265 
L 57.320444 39.395411 
L 57.266333 39.456583 
L 57.364409 39.436653 
L 57.401611 39.406898 
L 57.377937 39.39326 
L 57.428666 39.35562 
L 57.523361 39.380578 
L 57.442194 39.403897 
L 57.530125 39.391127 
L 57.550416 39.468911 
L 57.631583 39.376654 
L 57.641729 39.387876 
L 57.736423 39.389456 
L 57.668784 39.439438 
L 57.749951 39.407269 
L 57.804062 39.328151 
L 57.766861 39.353504 
L 57.807444 39.315734 
L 57.925812 39.226403 
L 58.050944 39.326957 
L 58.06109 39.309043 
L 58.088146 39.292778 
L 58.128729 39.395367 
L 58.159167 39.370165 
L 58.230188 39.362854 
L 58.176076 39.331396 
L 58.250479 39.311294 
L 58.348556 39.204233 
L 58.270771 39.348891 
L 58.368847 39.258913 
L 58.372229 39.274998 
L 58.412813 39.209826 
L 58.473688 39.226549 
L 58.541327 39.239286 
L 58.585292 39.194049 
L 58.744243 39.106142 
L 58.761153 39.126924 
L 58.893049 39.220419 
L 59.011417 39.147261 
L 59.024945 39.172315 
L 59.028327 39.194725 
L 59.058764 39.124958 
L 59.129785 39.126301 
L 59.187278 39.11193 
L 59.150077 39.150443 
L 59.238008 39.138748 
L 59.268445 39.155092 
L 59.305646 39.088757 
L 59.342848 39.107909 
L 59.697952 38.948946 
L 59.775737 38.907528 
L 59.708098 38.960315 
L 59.812938 38.936301 
L 59.911015 38.997936 
L 59.843376 38.92569 
L 59.924543 38.968152 
L 60.032765 38.939826 
L 60.005709 39.008308 
L 60.036147 38.954 
L 60.053057 38.913951 
L 60.127459 38.879903 
L 60.276265 38.695353 
L 60.283029 38.726133 
L 60.364196 38.5755 
L 60.367578 38.58266 
L 60.445362 38.562093 
L 60.384487 38.541455 
L 60.452126 38.531555 
L 60.479182 38.48298 
L 60.553585 38.602866 
L 60.722682 38.381381 
L 60.834286 38.258196 
L 60.847814 38.297216 
L 60.851196 38.315525 
L 60.901925 38.189505 
L 60.935745 38.1837 
L 61.189391 35.424361 
L 61.216446 30.988676 
L 61.277321 38.671613 
L 61.290849 38.793639 
L 61.36187 38.295786 
L 61.497148 35.519705 
L 61.517439 31.65994 
L 61.585078 38.98938 
L 61.591842 39.023447 
L 61.625662 38.715361 
L 61.771085 35.838129 
L 61.794759 31.534495 
L 61.855634 39.221113 
L 61.862398 39.225016 
L 61.899599 38.890758 
L 62.055169 34.718067 
L 62.072078 31.369931 
L 62.139717 39.495809 
L 62.146481 39.467547 
L 62.339252 35.491773 
L 62.359544 31.016685 
L 62.427183 39.821315 
L 62.430565 39.78442 
L 62.461002 39.509116 
L 62.677447 30.677818 
L 62.70112 35.361856 
L 62.741704 40.091692 
L 62.829634 39.144237 
L 63.032551 35.187511 
L 63.049461 30.801931 
L 63.123864 40.099763 
L 63.201649 39.299287 
L 63.485732 34.806935 
L 63.506024 31.794377 
L 63.573663 39.605814 
L 63.580427 39.639639 
L 63.634538 39.303 
L 63.955823 37.500408 
L 63.959205 37.505792 
L 63.982878 37.473686 
L 64.425913 38.548835 
L 64.605156 38.970746 
L 64.666031 39.125849 
L 64.848656 39.574209 
L 64.946733 39.746923 
L 65.105684 40.041011 
L 65.112448 40.02356 
L 65.13274 40.129179 
L 65.342421 40.409554 
L 65.565629 40.863495 
L 65.727962 41.028273 
L 65.572393 40.853052 
L 65.734726 40.99346 
L 65.738108 40.984528 
L 65.788837 41.12858 
L 65.802365 41.120957 
L 65.890296 41.21845 
L 66.032338 41.377017 
L 66.056011 41.368621 
L 66.072921 41.383095 
L 66.110122 41.458098 
L 66.265692 41.630244 
L 66.272456 41.590987 
L 66.275838 41.578651 
L 66.350241 41.714461 
L 66.509192 41.736857 
L 66.512574 41.714527 
L 66.526102 41.688871 
L 66.580213 41.825959 
L 66.583595 41.827254 
L 66.695199 41.924195 
L 66.701963 41.906305 
L 66.735782 41.928706 
L 66.850769 41.855355 
L 66.962373 41.894899 
L 66.891352 41.842537 
L 66.965755 41.8846 
L 67.117942 41.998147 
L 67.128088 41.964388 
L 67.266748 41.799387 
L 67.27013 41.812058 
L 67.317477 41.867083 
L 67.381734 41.823748 
L 67.469665 41.811132 
L 67.445991 41.880396 
L 67.489956 41.838395 
L 67.588033 41.854586 
L 67.571123 41.798224 
L 67.611707 41.837874 
L 67.828151 41.761358 
L 67.956665 41.611473 
L 67.970193 41.642561 
L 68.00063 41.519585 
L 68.149436 41.31534 
L 68.206929 41.319332 
L 68.237367 41.231385 
L 68.24413 41.25505 
L 68.457193 41.139025 
L 68.477485 41.179289 
L 68.558651 41.201122 
L 68.53836 41.14017 
L 68.582325 41.173702 
L 68.67702 41.090595 
L 68.619526 41.19555 
L 68.700693 41.122261 
L 68.825825 41.136445 
L 69.126818 41.014202 
L 69.177548 41.057089 
L 69.228277 40.941412 
L 69.373701 40.795765 
L 69.393992 40.864039 
L 69.454867 40.899968 
L 69.488687 40.837493 
L 69.505596 40.860241 
L 70.023034 40.803371 
L 70.151548 40.715036 
L 70.15493 40.721219 
L 70.354465 40.670025 
L 70.408576 40.587503 
L 70.466069 40.657184 
L 70.516798 40.729015 
L 70.479597 40.704553 
L 70.52018 40.748127 
L 70.69266 40.835114 
L 70.794118 40.716531 
L 70.81441 40.760769 
L 70.892194 40.849896 
L 70.932778 40.779176 
L 70.966597 40.842645 
L 71.112021 40.748941 
L 71.16275 40.827114 
L 71.220243 40.746472 
L 71.382577 40.59469 
L 71.396104 40.604459 
L 71.463743 40.669787 
L 71.511091 40.602565 
L 71.859431 40.362709 
L 71.984563 40.226645 
L 71.903396 40.393139 
L 71.987945 40.229264 
L 72.113077 40.324643 
L 72.17057 40.405146 
L 72.126605 40.291145 
L 72.224681 40.294558 
L 72.255119 40.236653 
L 72.288938 40.312891 
L 72.336285 40.268378 
L 72.343049 40.297251 
L 72.424216 40.205466 
L 72.437744 40.220106 
L 72.495237 40.335472 
L 72.542584 40.264585 
L 72.620369 40.331436 
L 72.69139 40.268918 
L 72.738737 40.290342 
L 72.816522 40.223306 
L 72.860487 40.345742 
L 73.053258 40.135865 
L 73.063404 40.179361 
L 73.144571 40.199744 
L 73.120897 40.147027 
L 73.171626 40.154255 
L 73.279848 40.043555 
L 73.293376 40.064751 
L 73.377925 40.119659 
L 73.344105 40.048905 
L 73.411744 40.101417 
L 73.418508 40.116806 
L 73.459092 40.03504 
L 73.499675 40.042373 
L 73.597751 40.015802 
L 73.557168 40.060027 
L 73.607897 40.035381 
L 73.618043 40.066878 
L 73.702592 39.969336 
L 73.712738 39.984292 
L 73.871689 39.929584 
L 73.726265 40.020982 
L 73.875071 39.940466 
L 73.966384 39.987217 
L 73.996821 39.971115 
L 74.006967 39.966026 
L 74.044168 40.045151 
L 74.06446 40.044588 
L 74.074606 40.069947 
L 74.165918 39.971926 
L 74.263995 39.915297 
L 74.18621 40.008179 
L 74.287668 39.932929 
L 74.378981 40.049829 
L 74.416182 40.006572 
L 74.483821 39.975929 
L 74.439856 40.045459 
L 74.527787 39.994483 
L 74.652919 40.074983 
L 74.534551 39.991388 
L 74.663065 40.065462 
L 74.781433 39.992781 
L 74.740849 40.088426 
L 74.784815 39.999514 
L 75.640447 39.751417 
L 75.643829 39.764684 
L 75.73176 39.878358 
L 75.758815 39.82706 
L 75.911003 39.716783 
L 75.921149 39.750769 
L 76.053044 39.822801 
L 76.059808 39.793899 
L 76.154503 39.675458 
L 76.174794 39.734989 
L 76.286399 39.819906 
L 76.293163 39.793317 
L 76.354038 39.759823 
L 76.404767 39.772871 
L 76.44535 39.791098 
L 76.431822 39.761874 
L 76.516371 39.756937 
L 76.624593 39.736399 
L 76.631357 39.748142 
L 76.698996 39.813679 
L 76.753107 39.7755 
L 76.763253 39.73828 
L 76.857948 39.821625 
L 76.989844 39.823161 
L 76.996607 39.838112 
L 77.016899 39.874188 
L 77.050719 39.749313 
L 77.054101 39.74596 
L 77.169087 39.668368 
L 77.179233 39.696201 
L 77.24349 39.636229 
L 77.277309 39.758813 
L 77.36524 39.820898 
L 77.392295 39.80456 
L 77.480226 39.842288 
L 77.503899 39.798606 
L 77.842094 39.912327 
L 77.865768 39.859103 
L 77.9909 39.76464 
L 78.007809 39.780227 
L 78.11265 39.782339 
L 78.085594 39.734851 
L 78.116032 39.758195 
L 78.244546 39.670104 
L 78.122796 39.768912 
L 78.25131 39.698965 
L 78.386587 39.726218 
L 78.288511 39.623156 
L 78.393351 39.720181 
L 78.46099 39.710107 
L 78.498192 39.750753 
L 78.562449 39.787039 
L 78.535393 39.708901 
L 78.592886 39.700333 
L 78.61656 39.746343 
L 78.819476 39.666435 
L 78.920935 39.70427 
L 78.870206 39.640425 
L 78.931081 39.67848 
L 79.100178 39.59121 
L 78.944609 39.695115 
L 79.10356 39.613301 
L 79.161053 39.62715 
L 79.137379 39.585019 
L 79.2084 39.592093 
L 79.38088 39.421284 
L 79.397789 39.456756 
L 79.478956 39.558107 
L 79.411317 39.41857 
L 79.526303 39.508793 
L 79.637907 39.591158 
L 79.698783 39.602165 
L 79.722456 39.5295 
L 79.72922 39.536575 
L 79.807005 39.54201 
L 79.756276 39.567046 
L 79.820533 39.596603 
L 79.844206 39.523889 
L 79.959192 39.554337 
L 80.091088 39.498474 
L 79.97272 39.581249 
L 80.101234 39.513708 
L 80.148581 39.595505 
L 80.212838 39.516944 
L 80.341352 39.395991 
L 80.219602 39.52385 
L 80.358262 39.437314 
L 80.422519 39.424944 
L 80.3887 39.393709 
L 80.446193 39.380933 
L 80.564561 39.262121 
L 80.473248 39.392951 
L 80.574707 39.281443 
L 80.584852 39.316781 
L 80.625436 39.220625 
L 80.676165 39.235947 
L 80.757332 39.208682 
L 80.723512 39.271843 
L 80.791151 39.230844 
L 80.889228 39.254452 
L 80.804679 39.250587 
L 80.899373 39.278495 
L 80.912901 39.294833 
L 80.990686 39.211654 
L 81.156401 39.190901 
L 81.159783 39.225495 
L 81.244332 39.170105 
L 81.264624 39.172949 
L 81.443867 39.164805 
L 81.450631 39.120481 
L 81.629874 38.835934 
L 81.653547 38.866034 
L 81.741478 38.870171 
L 81.687367 38.815049 
L 81.76177 38.841842 
L 81.792207 38.775204 
L 81.869992 38.862829 
L 81.934249 38.868118 
L 81.890284 38.840666 
L 81.97145 38.822134 
L 82.079673 38.741965 
L 82.214951 38.580152 
L 82.221714 38.595235 
L 82.384048 38.428901 
L 82.624166 37.93303 
L 82.705333 37.651922 
L 82.800027 35.532705 
L 82.827083 31.001377 
L 82.887958 38.548604 
L 82.90825 38.714611 
L 82.975888 38.167282 
L 83.090875 36.19085 
L 83.121312 32.000825 
L 83.172041 38.453057 
L 83.188951 38.737122 
L 83.266736 37.946 
L 83.354666 35.736243 
L 83.37834 32.123769 
L 83.442597 38.763163 
L 83.452743 38.772588 
L 83.48318 38.468338 
L 83.608312 34.900856 
L 83.625222 32.144825 
L 83.689479 38.868549 
L 83.699625 38.85818 
L 83.804465 37.48533 
L 83.86534 34.146599 
L 83.878868 32.074678 
L 83.946507 39.052729 
L 83.953271 39.052133 
L 84.115604 36.117635 
L 84.139278 31.671585 
L 84.193389 39.201864 
L 84.217063 39.416071 
L 84.28132 38.592151 
L 84.409834 35.221641 
L 84.426743 31.140544 
L 84.494382 39.855722 
L 84.501146 39.843818 
L 84.737882 36.723968 
L 84.764938 32.379023 
L 84.775084 31.070953 
L 84.842723 39.959227 
L 84.849487 39.977265 
L 84.883306 39.643929 
L 85.177536 34.606146 
L 85.194445 31.705104 
L 85.265466 39.660004 
L 85.27223 39.698446 
L 85.326341 39.262169 
L 85.556313 37.68249 
L 85.559695 37.691125 
L 85.603661 37.514743 
L 85.667918 37.443137 
L 85.715265 37.495163 
L 86.543842 39.557971 
L 86.560752 39.5395 
L 86.692647 39.760436 
L 86.831307 40.02549 
L 86.838071 39.997636 
L 86.919238 40.21124 
L 86.929384 40.18688 
L 87.003787 40.339554 
L 87.139064 40.577243 
L 87.281106 40.773291 
L 87.301398 40.764915 
L 87.30478 40.761785 
L 87.331835 40.824879 
L 87.358891 40.853967 
L 87.538134 41.224022 
L 87.63621 41.30208 
L 87.764724 41.569679 
L 87.771488 41.549103 
L 88.014988 41.604741 
L 88.136739 41.729081 
L 88.143502 41.702239 
L 88.214523 41.683755 
L 88.268634 41.761883 
L 88.329509 41.782093 
L 88.285544 41.736196 
L 88.370093 41.722742 
L 88.424204 41.649011 
L 88.485079 41.713606 
L 88.583155 41.840084 
L 88.613593 41.805714 
L 88.633885 41.795618 
L 88.775926 41.916305 
L 88.90444 41.792148 
L 88.914586 41.820433 
L 88.917968 41.837706 
L 88.972079 41.729964 
L 89.009281 41.726112 
L 89.093829 41.602202 
L 89.141177 41.627484 
L 89.242635 41.727815 
L 89.16485 41.615926 
L 89.266309 41.691968 
L 89.350857 41.673734 
L 89.300128 41.708702 
L 89.377913 41.700291 
L 89.881823 41.489671 
L 89.91226 41.500153 
L 89.94608 41.406571 
L 89.956226 41.407932 
L 90.027246 41.289557 
L 89.96299 41.411981 
L 90.094885 41.380966 
L 90.236927 41.404316 
L 90.297802 41.44455 
L 90.335004 41.382957 
L 90.348531 41.438384 
L 90.351913 41.44552 
L 90.41617 41.326995 
L 90.422934 41.337912 
L 90.531156 41.17829 
L 90.561594 41.209035 
L 90.7104 41.247081 
L 90.808476 41.128608 
L 90.771275 41.256092 
L 90.828768 41.179263 
L 90.835532 41.193214 
L 90.862587 41.089059 
L 90.923462 41.129001 
L 90.926844 41.107345 
L 91.014775 41.186281 
L 91.028303 41.175664 
L 91.068886 41.15843 
L 91.068886 41.15843 
" clip-path="url(#pbb77e150f3)" style="fill: none; stroke: #000000; stroke-width: 0.6; stroke-linecap: square"/>
   </g>
   <g id="line2d_3">
    <path d="M 9.905557 56.495939 
L 10.111856 56.188709 
L 10.216696 55.400397 
L 10.233606 52.563342 
L 10.24037 43.768982 
L 10.338446 59.465182 
L 10.355356 59.798604 
L 10.443286 59.240159 
L 10.680023 57.999699 
L 10.842356 57.671614 
L 10.845738 57.672509 
L 10.886321 57.700785 
L 10.940433 57.601273 
L 10.950578 57.64206 
L 10.98778 57.542986 
L 11.123058 57.304233 
L 11.143349 57.331654 
L 11.187315 57.221703 
L 11.424051 56.864552 
L 11.427433 56.870784 
L 11.45787 56.880169 
L 11.495072 56.783355 
L 11.498454 56.781181 
L 11.63035 56.594836 
L 11.633732 56.610271 
L 11.708134 56.436076 
L 11.819739 56.237927 
L 11.958398 54.384931 
L 11.968544 43.774431 
L 12.059857 58.743642 
L 12.08353 59.843152 
L 12.174843 59.283735 
L 12.364232 58.275694 
L 12.367614 58.281569 
L 12.370996 58.293657 
L 12.435253 58.113786 
L 12.479218 57.995517 
L 12.4826 58.011666 
L 12.624642 57.758186 
L 12.705809 57.625791 
L 12.834323 57.45968 
L 12.841086 57.474465 
L 12.912107 57.348198 
L 13.081205 57.000337 
L 13.101496 57.008161 
L 13.128552 56.900794 
L 13.165753 56.935505 
L 13.348378 56.643417 
L 13.361906 56.673947 
L 13.372052 56.693365 
L 13.436309 56.584107 
L 13.459983 56.610099 
L 13.514094 56.651806 
L 13.544531 56.535859 
L 13.683191 56.367652 
L 13.710247 56.412799 
L 13.713629 56.416604 
L 13.757594 56.313855 
L 13.76774 56.321857 
L 13.957129 54.611498 
L 13.970656 43.766947 
L 14.055205 57.138592 
L 14.082261 59.834209 
L 14.170191 59.302505 
L 14.383254 58.172504 
L 14.433983 58.112423 
L 14.403546 58.131228 
L 14.440747 58.079753 
L 14.579407 57.792591 
L 14.589553 57.803086 
L 14.691011 57.790579 
L 14.6369 57.731809 
L 14.694393 57.780142 
L 14.839817 57.488724 
L 14.843199 57.497245 
L 14.893928 57.334259 
L 14.89731 57.346055 
L 15.10699 57.161124 
L 15.110372 57.163334 
L 15.113754 57.202714 
L 15.147574 57.118016 
L 15.218595 57.127914 
L 15.340345 56.905472 
L 15.462095 56.808812 
L 15.62781 56.770472 
L 15.631192 56.794869 
L 15.739414 56.777233 
L 15.698831 56.747965 
L 15.742796 56.773372 
L 15.867928 56.662639 
L 15.938949 56.510711 
L 16.003206 56.567326 
L 16.016734 56.581868 
L 16.053935 56.478874 
L 16.074227 56.485535 
L 16.216269 56.26842 
L 16.094519 56.514701 
L 16.223033 56.273237 
L 16.226415 56.291934 
L 16.321109 56.226868 
L 16.327873 56.245808 
L 16.500352 55.976595 
L 16.557845 54.611956 
L 16.571373 43.770512 
L 16.655922 57.12029 
L 16.679595 59.775545 
L 16.770908 59.206548 
L 16.997498 57.964501 
L 17.00088 57.970376 
L 17.291728 57.372851 
L 17.007644 57.9744 
L 17.318783 57.383007 
L 17.322165 57.394516 
L 17.393186 57.249211 
L 17.464207 57.183459 
L 17.410096 57.213308 
L 17.467589 57.165731 
L 17.623158 56.877742 
L 17.62654 56.88311 
L 17.829457 56.587156 
L 18.049284 55.050269 
L 18.066193 43.760579 
L 18.150742 55.185901 
L 18.18118 59.882436 
L 18.265728 59.367555 
L 18.739201 57.823774 
L 18.742583 57.828348 
L 18.745965 57.841874 
L 18.786548 57.72095 
L 18.827131 57.719531 
L 19.134888 57.211189 
L 18.854187 57.749589 
L 19.13827 57.219245 
L 19.17209 57.243786 
L 19.222819 57.158755 
L 19.229583 57.163541 
L 19.239729 57.177744 
L 19.371625 57.064139 
L 19.510284 57.05776 
L 19.523812 57.035738 
L 19.645562 56.935977 
L 19.970229 56.569914 
L 19.983757 56.587861 
L 20.054778 56.451929 
L 20.193438 56.238474 
L 20.206965 56.256976 
L 20.261077 56.052248 
L 20.325334 55.427654 
L 20.342243 53.589592 
L 20.352389 43.770118 
L 20.447084 59.384265 
L 20.463993 59.827088 
L 20.555306 59.267494 
L 20.764987 58.190948 
L 20.768368 58.198563 
L 20.815716 58.068371 
L 20.819098 58.07337 
L 20.934084 57.742848 
L 20.954376 57.800483 
L 21.140383 57.430962 
L 21.164056 57.449497 
L 21.191112 57.462207 
L 21.20464 57.41036 
L 21.251987 57.392661 
L 21.387265 57.209769 
L 21.390647 57.231593 
L 21.404174 57.252152 
L 21.475195 57.121395 
L 21.647675 56.772521 
L 21.651056 56.779234 
L 21.718695 56.823236 
L 21.752515 56.742983 
L 21.894557 56.457354 
L 21.95205 56.412775 
L 21.965577 56.367651 
L 22.080564 56.044257 
L 22.16173 54.51225 
L 22.175258 43.777916 
L 22.259807 57.620236 
L 22.286862 59.850057 
L 22.374793 59.299511 
L 22.5608 58.29512 
L 22.564182 58.296592 
L 22.78739 57.760866 
L 22.800918 57.811308 
L 22.973397 57.636354 
L 22.976779 57.639375 
L 22.980161 57.657165 
L 23.037654 57.549366 
L 23.068092 57.549787 
L 23.20337 57.380432 
L 23.216898 57.408287 
L 23.264245 57.290387 
L 23.406287 57.067936 
L 23.41305 57.088795 
L 23.497599 57.083598 
L 23.440106 57.042278 
L 23.511127 57.045194 
L 23.727571 56.79264 
L 23.751245 56.858799 
L 23.84594 56.903006 
L 23.764773 56.854298 
L 23.869613 56.879413 
L 24.116495 56.650036 
L 24.133405 56.661807 
L 24.221336 56.742016 
L 24.265301 56.699986 
L 24.275447 56.675913 
L 24.326176 56.794273 
L 24.353232 56.760901 
L 24.376905 56.794096 
L 24.45469 56.71784 
L 24.721864 56.67646 
L 24.73201 56.698244 
L 24.826704 56.751828 
L 24.752301 56.678133 
L 24.867287 56.690066 
L 25.049912 56.301206 
L 25.056676 56.31772 
L 25.090496 56.329644 
L 25.114169 56.223711 
L 25.191954 55.965297 
L 25.239301 55.066269 
L 25.256211 43.756578 
L 25.34076 54.928224 
L 25.371197 59.771964 
L 25.455746 59.222834 
L 25.665427 58.042093 
L 25.668809 58.044306 
L 25.919073 57.427354 
L 25.935982 57.463409 
L 26.000239 57.330373 
L 26.132135 57.140043 
L 26.138899 57.137495 
L 26.149045 57.090612 
L 26.182865 57.044132 
L 26.274177 56.943181 
L 26.301233 56.99733 
L 26.335052 57.018346 
L 26.382399 56.884232 
L 26.463566 56.773642 
L 26.605608 56.497789 
L 26.60899 56.501556 
L 26.646191 56.392688 
L 26.781469 54.908428 
L 26.794997 43.765172 
L 26.882927 56.245027 
L 26.906601 59.864036 
L 26.997914 59.327038 
L 27.511969 57.797088 
L 27.515351 57.808053 
L 27.58299 57.685714 
L 27.596518 57.700113 
L 27.728414 57.474148 
L 27.73856 57.511636 
L 27.968532 57.160083 
L 27.971914 57.162107 
L 28.009115 57.177531 
L 28.056463 57.107254 
L 28.066609 57.106312 
L 28.966206 55.811247 
L 29.00679 54.495619 
L 29.020317 43.787463 
L 29.104866 57.931073 
L 29.12854 59.80543 
L 29.219852 59.249413 
L 29.432915 58.159664 
L 29.436297 58.165522 
L 29.463352 58.058415 
L 29.635832 57.701437 
L 29.933443 57.471899 
L 30.400152 56.613948 
L 30.406915 56.618377 
L 30.410297 56.629075 
L 30.464409 56.498561 
L 30.488082 56.513364 
L 30.77893 55.762756 
L 30.812749 54.727622 
L 30.826277 43.772874 
L 30.910825 57.353261 
L 30.941263 59.828219 
L 31.025812 59.265713 
L 31.073159 58.993546 
L 31.340333 57.939367 
L 31.347096 57.959998 
L 31.350478 57.969983 
L 31.421499 57.83374 
L 31.431645 57.859345 
L 31.495902 57.736673 
L 31.668381 57.491011 
L 31.50943 57.741911 
L 31.678527 57.512085 
L 31.729256 57.392998 
L 31.888208 57.185575 
L 31.898354 57.20262 
L 31.901736 57.212245 
L 31.962611 57.127039 
L 31.993048 57.139446 
L 32.388736 56.664054 
L 32.398882 56.699982 
L 32.463139 56.701807 
L 32.429319 56.635594 
L 32.476667 56.626278 
L 32.571361 56.559813 
L 32.48343 56.632218 
L 32.601799 56.583991 
L 32.750604 56.488605 
L 32.76075 56.497641 
L 32.767514 56.514488 
L 32.811479 56.414576 
L 32.835153 56.4214 
L 33.041452 55.381062 
L 33.058361 51.606072 
L 33.065125 43.759718 
L 33.163202 59.500781 
L 33.176729 59.811184 
L 33.268042 59.25509 
L 33.548744 57.940437 
L 33.558889 57.968086 
L 33.640056 57.819797 
L 33.778716 57.646231 
L 33.978251 57.313929 
L 33.99516 57.347786 
L 34.701987 56.014949 
L 34.762862 55.025728 
L 34.779772 43.764291 
L 34.860939 54.173305 
L 34.891376 59.858141 
L 34.975925 59.352332 
L 35.178842 58.326019 
L 35.185606 58.335286 
L 35.232953 58.15661 
L 35.364849 57.954541 
L 35.368231 57.958878 
L 35.567765 57.722675 
L 35.581293 57.753162 
L 35.584675 57.775406 
L 35.665842 57.59283 
L 35.804502 57.369321 
L 35.811266 57.377283 
L 35.818029 57.397999 
L 35.861995 57.335458 
L 35.90596 57.34024 
L 36.058148 57.1302 
L 36.098731 57.125896 
L 36.119023 57.014993 
L 36.254301 56.749767 
L 36.264446 56.784396 
L 36.595877 56.75845 
L 36.27121 56.803246 
L 36.599259 56.778448 
L 36.724391 56.838798 
L 36.629697 56.738633 
L 36.744683 56.800818 
L 36.846141 56.693311 
L 36.863051 56.710098 
L 36.869815 56.739206 
L 36.961127 56.626627 
L 37.008475 56.528406 
L 37.05244 56.675396 
L 37.065968 56.657135 
L 37.126843 56.720634 
L 37.180954 56.646308 
L 37.363579 56.544151 
L 37.370343 56.563068 
L 37.441364 56.705548 
L 37.498857 56.640032 
L 37.610461 56.558135 
L 37.620607 56.592328 
L 37.887781 56.53744 
L 37.931746 56.578569 
L 38.073788 56.185047 
L 38.1651 55.963763 
L 38.222593 54.325878 
L 38.232739 43.758501 
L 38.324052 58.515063 
L 38.347725 59.744142 
L 38.439038 59.114205 
L 38.526968 58.529591 
L 38.726503 57.643546 
L 38.736649 57.64767 
L 38.885455 57.489338 
L 38.892219 57.50775 
L 38.936184 57.392751 
L 38.966621 57.393639 
L 39.220267 56.925097 
L 39.223649 56.935138 
L 39.284524 56.783393 
L 39.632865 55.164236 
L 39.646393 46.599591 
L 39.653157 43.780048 
L 39.741087 58.519499 
L 39.761379 59.845341 
L 39.856073 59.28558 
L 40.16383 57.954877 
L 40.312636 57.764529 
L 40.322782 57.794396 
L 40.603483 57.349819 
L 40.738761 57.081303 
L 41.202088 56.566912 
L 41.20547 56.587842 
L 41.239289 56.624968 
L 41.293401 56.516499 
L 41.300164 56.519931 
L 41.638359 55.378972 
L 41.655269 51.991096 
L 41.662033 43.765285 
L 41.760109 59.526902 
L 41.773637 59.842213 
L 41.864949 59.290153 
L 42.395915 57.624628 
L 42.399297 57.631868 
L 42.487228 57.647967 
L 42.416207 57.613982 
L 42.504137 57.614265 
L 42.666471 57.322353 
L 42.757783 57.363796 
L 42.676617 57.297374 
L 42.791603 57.320034 
L 42.845714 57.385983 
L 42.909971 57.275899 
L 42.994519 57.073662 
L 43.045249 57.004194 
L 43.119652 57.039811 
L 43.190672 56.932687 
L 43.833242 56.737948 
L 43.954992 56.577192 
L 43.965138 56.600432 
L 44.059833 56.489211 
L 44.103798 56.538649 
L 44.222166 56.559873 
L 44.12409 56.509568 
L 44.22893 56.55667 
L 44.347298 56.551892 
L 44.47243 56.421637 
L 44.475812 56.427206 
L 44.746368 55.321721 
L 44.759895 53.242878 
L 44.770041 43.77009 
L 44.864736 59.292952 
L 44.881646 59.7666 
L 44.972958 59.156106 
L 45.250278 57.777693 
L 45.25366 57.785519 
L 45.429521 57.439398 
L 45.608764 57.191248 
L 45.61891 57.223756 
L 45.686549 57.037153 
L 45.974014 56.652101 
L 45.977396 56.657256 
L 46.011216 56.666035 
L 46.038271 56.565173 
L 46.234424 56.100499 
L 46.315591 54.25987 
L 46.325737 43.760602 
L 46.417049 58.640777 
L 46.440723 59.846312 
L 46.532035 59.288664 
L 46.799209 58.09684 
L 46.998744 57.654722 
L 47.005508 57.656772 
L 47.079911 57.691207 
L 47.106966 57.620923 
L 47.631168 56.940506 
L 47.184751 57.677607 
L 47.63455 56.95665 
L 47.637932 56.973474 
L 47.712335 56.789923 
L 47.881432 56.535435 
L 47.942307 56.554017 
L 47.962599 56.484476 
L 47.979508 56.482667 
L 48.033619 56.45222 
L 47.989654 56.447693 
L 48.043765 56.392835 
L 48.307557 55.308702 
L 48.321085 53.210268 
L 48.331231 43.77718 
L 48.425925 59.496325 
L 48.439453 59.828499 
L 48.530766 59.286294 
L 48.737064 58.193591 
L 48.740446 58.198464 
L 48.797939 58.087863 
L 48.919689 57.953408 
L 49.048203 57.771011 
L 49.203773 57.543565 
L 49.349197 57.32844 
L 49.447273 57.306647 
L 49.383016 57.251022 
L 49.450655 57.290179 
L 49.609606 57.014625 
L 49.629898 57.022899 
L 49.636662 57.039493 
L 49.684009 56.920703 
L 49.897072 56.627752 
L 49.900454 56.636812 
L 50.563315 56.318794 
L 50.789906 54.937943 
L 50.806815 43.773788 
L 50.887982 54.934613 
L 50.921802 59.777869 
L 51.002968 59.25024 
L 51.381746 57.773613 
L 51.473059 57.576615 
L 51.588045 57.407184 
L 51.611719 57.417435 
L 51.686121 57.399361 
L 51.642156 57.363277 
L 51.703031 57.356522 
L 51.922858 56.966741 
L 51.92624 56.985543 
L 51.987115 56.877137 
L 52.027698 56.923619 
L 52.196795 56.751699 
L 52.217087 56.790164 
L 52.233997 56.794834 
L 52.25767 56.715994 
L 52.267816 56.707846 
L 52.457205 56.353227 
L 52.460587 56.361924 
L 52.50117 56.179487 
L 52.606011 55.46152 
L 52.622921 53.577283 
L 52.633066 43.765876 
L 52.727761 59.346358 
L 52.744671 59.848435 
L 52.835983 59.265934 
L 53.136976 57.97476 
L 53.140358 57.976087 
L 53.14374 57.985149 
L 53.218143 57.870663 
L 54.537102 56.109952 
L 54.625033 54.701576 
L 54.638561 43.763865 
L 54.723109 56.49929 
L 54.746783 59.831418 
L 54.838095 59.313079 
L 55.034248 58.294212 
L 55.183054 57.91117 
L 55.189818 57.934377 
L 55.270985 57.825912 
L 55.28113 57.855672 
L 55.480665 57.61356 
L 56.086034 56.9698 
L 55.487429 57.619547 
L 56.089416 56.98186 
L 56.180728 56.956772 
L 56.143527 56.890999 
L 56.187492 56.926809 
L 56.397173 56.682916 
L 56.197638 56.951005 
L 56.430992 56.711991 
L 56.464812 56.748312 
L 56.529069 56.665643 
L 56.711694 56.619359 
L 56.721839 56.64677 
L 56.762423 56.565243 
L 56.816534 56.579677 
L 56.819916 56.570092 
L 56.894319 56.691384 
L 56.985631 56.799934 
L 56.941666 56.665413 
L 57.009305 56.732174 
L 57.039742 56.648254 
L 57.127673 56.678602 
L 57.168256 56.666543 
L 57.134437 56.661367 
L 57.19193 56.587963 
L 57.536889 55.320148 
L 57.550416 53.642711 
L 57.560562 43.765352 
L 57.655257 59.336001 
L 57.668784 59.750076 
L 57.760097 59.174061 
L 58.138875 57.560088 
L 58.142257 57.582703 
L 58.155785 57.605762 
L 58.203132 57.473159 
L 58.230188 57.476288 
L 58.531181 56.960571 
L 58.534563 56.976285 
L 58.578528 56.959604 
L 58.561618 56.930675 
L 58.605584 56.897757 
L 58.865993 56.316168 
L 58.872757 56.337219 
L 58.940396 56.093527 
L 59.008035 54.941837 
L 59.021563 43.780171 
L 59.106112 53.923903 
L 59.139931 59.852308 
L 59.22448 59.34761 
L 59.454452 58.193479 
L 59.457834 58.199112 
L 59.620167 57.820346 
L 59.677661 57.947299 
L 59.721626 57.792132 
L 59.72839 57.807379 
L 59.924543 57.646562 
L 59.931306 57.656284 
L 59.97189 57.528958 
L 59.975272 57.537358 
L 60.107168 57.262552 
L 60.134223 57.311498 
L 60.137605 57.315058 
L 60.181571 57.225843 
L 60.195098 57.225623 
L 60.323612 57.041499 
L 60.333758 57.051144 
L 60.350668 57.08422 
L 60.99662 56.228385 
L 61.131897 55.08917 
L 61.145425 44.918925 
L 61.148807 43.770547 
L 61.229974 53.914853 
L 61.260411 59.84117 
L 61.348342 59.305544 
L 61.703446 57.872077 
L 61.730502 57.879828 
L 61.733884 57.887274 
L 61.794759 57.760818 
L 61.798141 57.769526 
L 61.963856 57.613894 
L 61.97062 57.618055 
L 62.031495 57.501212 
L 62.149863 57.42267 
L 62.170155 57.394357 
L 62.237794 57.362633 
L 62.379836 57.14523 
L 62.274995 57.374623 
L 62.383218 57.152629 
L 62.433947 57.131429 
L 62.447475 57.064432 
L 62.609808 56.812509 
L 62.484676 57.089143 
L 62.61319 56.817596 
L 62.6301 56.858755 
L 62.690975 56.753649 
L 62.697739 56.755246 
L 62.846544 56.532315 
L 62.75185 56.793287 
L 62.85669 56.545688 
L 62.971676 56.509351 
L 62.931093 56.602456 
L 62.988586 56.521375 
L 62.99535 56.535955 
L 63.08328 56.442285 
L 63.086662 56.457766 
L 63.188121 56.401659 
L 63.191503 56.38756 
L 63.404565 55.047994 
L 63.421475 43.765757 
L 63.502642 53.930706 
L 63.529697 59.814198 
L 63.62101 59.275474 
L 63.867892 58.075954 
L 64.077573 57.650425 
L 64.080955 57.660696 
L 64.145212 57.712659 
L 64.185795 57.625767 
L 64.24667 57.537271 
L 64.392094 57.259737 
L 64.571337 57.014278 
L 64.59501 57.027377 
L 64.693087 56.91976 
L 64.71676 56.946136 
L 64.770872 56.825502 
L 64.906149 56.644014 
L 65.051573 56.348752 
L 65.054955 56.359021 
L 65.129358 56.24638 
L 65.257872 55.65476 
L 65.284927 53.364779 
L 65.295073 43.776196 
L 65.389768 59.418795 
L 65.406678 59.843031 
L 65.49799 59.284447 
L 65.538573 59.044145 
L 65.826039 57.938738 
L 66.127032 57.516914 
L 66.133796 57.543743 
L 66.160852 57.541023 
L 66.184525 57.447617 
L 66.198053 57.453222 
L 66.360386 57.19504 
L 66.671525 57.07678 
L 66.674907 57.091139 
L 66.678289 57.114127 
L 66.735782 56.979892 
L 66.776366 57.040362 
L 66.786512 57.089654 
L 66.884588 56.898461 
L 66.979283 56.810141 
L 67.002956 56.839037 
L 67.013102 56.877243 
L 67.097651 56.71369 
L 67.246456 56.598225 
L 67.425699 56.33382 
L 67.442609 56.343338 
L 67.445991 56.352219 
L 67.49672 56.17844 
L 67.51363 56.105859 
L 67.601561 53.907866 
L 67.611707 43.761732 
L 67.706401 59.250649 
L 67.723311 59.832573 
L 67.814623 59.261882 
L 68.13929 57.816438 
L 68.288096 57.657316 
L 68.376026 57.550664 
L 68.616145 57.107725 
L 68.62629 57.119554 
L 68.670256 57.14692 
L 68.700693 57.06738 
L 68.727749 57.077689 
L 68.950957 56.704171 
L 68.751422 57.103787 
L 68.971249 56.726378 
L 68.974631 56.730976 
L 69.028742 56.621238 
L 69.370319 55.385491 
L 69.387228 51.600957 
L 69.393992 43.764145 
L 69.492069 59.517341 
L 69.505596 59.851191 
L 69.596909 59.306316 
L 69.826881 58.177016 
L 70.296972 57.446623 
L 70.320645 57.503125 
L 70.344319 57.530488 
L 70.401812 57.36821 
L 70.523562 57.269198 
L 70.469451 57.405879 
L 70.526944 57.286821 
L 70.533708 57.302302 
L 70.608111 57.153755 
L 71.233771 56.564968 
L 71.254063 56.598632 
L 71.277736 56.610116 
L 71.314938 56.527723 
L 71.345375 56.544799 
L 71.497563 56.302086 
L 71.504327 56.315926 
L 71.548292 56.186442 
L 71.646368 55.038444 
L 71.663278 43.76269 
L 71.747827 55.984742 
L 71.774882 59.828653 
L 71.862813 59.28008 
L 72.211153 57.868508 
L 72.217917 57.891071 
L 72.265265 57.777698 
L 72.288938 57.79147 
L 72.43098 57.599115 
L 72.434362 57.609324 
L 72.745501 57.137099 
L 73.076932 56.612007 
L 73.080314 56.618166 
L 73.083696 56.640764 
L 73.17839 56.528239 
L 73.350869 56.376354 
L 73.557168 55.734342 
L 73.594369 53.407204 
L 73.604515 43.781641 
L 73.69921 59.499771 
L 73.712738 59.803629 
L 73.80405 59.216497 
L 74.365453 57.566208 
L 74.399273 57.599021 
L 74.450002 57.441149 
L 74.757759 56.942318 
L 74.761141 56.944769 
L 74.767905 56.962539 
L 74.84569 56.854434 
L 74.855835 56.879859 
L 74.991113 56.673646 
L 75.004641 56.70316 
L 75.008023 56.718818 
L 75.079044 56.525305 
L 75.217704 56.309423 
L 75.22785 56.316595 
L 75.237995 56.323273 
L 75.400329 55.499734 
L 75.42062 52.609707 
L 75.427384 43.768275 
L 75.525461 59.50883 
L 75.542371 59.844168 
L 75.630301 59.310369 
L 75.988787 57.884139 
L 75.992169 57.897123 
L 76.066572 57.753818 
L 76.069954 57.760867 
L 76.164649 57.711438 
L 76.137593 57.79467 
L 76.18494 57.742289 
L 76.188322 57.757751 
L 76.262725 57.59638 
L 76.438586 57.293775 
L 77.240108 56.470487 
L 77.304365 56.504898 
L 77.358476 56.420598 
L 77.36524 56.442996 
L 77.422733 56.281129 
L 77.426115 56.281836 
L 77.625649 54.324033 
L 77.635795 43.778957 
L 77.727108 58.912173 
L 77.7474 59.800468 
L 77.838712 59.248058 
L 78.045011 58.180257 
L 78.35615 57.580501 
L 78.379823 57.599608 
L 78.383205 57.616542 
L 78.454226 57.440777 
L 78.457608 57.441613 
L 79.154289 55.627718 
L 79.177963 54.304866 
L 79.188109 43.768006 
L 79.279421 58.82577 
L 79.303095 59.867064 
L 79.394407 59.332188 
L 79.397789 59.336691 
L 79.414699 59.194978 
L 79.685255 58.128464 
L 80.080942 57.513987 
L 80.091088 57.533388 
L 80.168873 57.41853 
L 80.307533 57.244152 
L 80.348116 57.263884 
L 80.378554 57.16644 
L 80.385318 57.17177 
L 80.581471 56.730687 
L 80.652491 56.670995 
L 80.699839 56.754558 
L 80.784387 56.784388 
L 80.811443 56.698065 
L 80.950103 56.485508 
L 81.000832 56.530087 
L 81.054943 56.447 
L 81.166547 56.396766 
L 81.065089 56.478641 
L 81.173311 56.409077 
L 81.24095 56.388084 
L 81.220658 56.333673 
L 81.254478 56.329483 
L 81.389756 56.173998 
L 81.271388 56.341195 
L 81.39652 56.195569 
L 81.399902 56.205789 
L 81.454013 56.047048 
L 81.535179 54.768542 
L 81.548707 43.766887 
L 81.633256 56.857364 
L 81.660311 59.807796 
L 81.748242 59.249535 
L 81.815881 58.850342 
L 81.998506 58.048755 
L 83.236298 55.830656 
L 83.2735 54.629497 
L 83.287028 43.764582 
L 83.371576 56.886428 
L 83.398632 59.854068 
L 83.486562 59.308938 
L 83.618458 58.59696 
L 83.780792 58.027932 
L 83.784174 58.032487 
L 83.821375 57.912244 
L 83.831521 57.914241 
L 83.983708 57.782375 
L 83.990472 57.794713 
L 83.997236 57.826217 
L 84.054729 57.712663 
L 84.081785 57.711363 
L 84.28132 57.430196 
L 84.352341 57.380435 
L 84.301611 57.386896 
L 84.355723 57.353371 
L 84.521438 57.167919 
L 84.52482 57.186336 
L 84.599223 56.995722 
L 84.78523 56.687062 
L 84.92389 56.46574 
L 85.01182 56.450223 
L 84.957709 56.425579 
L 85.021966 56.416117 
L 85.089605 56.290324 
L 85.238411 54.122653 
L 85.248556 43.759194 
L 85.339869 58.943847 
L 85.360161 59.86308 
L 85.451473 59.323867 
L 85.833633 57.895797 
L 85.837015 57.898886 
L 85.847161 57.926383 
L 85.921564 57.838698 
L 85.938473 57.851672 
L 86.178592 57.465169 
L 86.181974 57.469772 
L 86.229321 57.369767 
L 86.239467 57.362675 
L 86.327397 57.261518 
L 87.071425 56.556306 
L 87.098481 56.602084 
L 87.176266 56.703738 
L 87.115391 56.593108 
L 87.230377 56.639052 
L 87.639592 55.503314 
L 87.659884 53.495842 
L 87.67003 43.773959 
L 87.764724 59.387709 
L 87.785016 59.807158 
L 87.872947 59.226203 
L 88.123211 57.94768 
L 88.180704 57.826226 
L 88.315982 57.525075 
L 88.332891 57.539633 
L 88.359947 57.574705 
L 88.346419 57.508914 
L 88.427586 57.4862 
L 88.586537 57.257055 
L 88.681232 57.146664 
L 88.627121 57.274175 
L 88.708287 57.20534 
L 88.772544 57.113776 
L 88.988989 56.665714 
L 89.022808 56.543861 
L 89.269691 54.901323 
L 89.283218 43.778514 
L 89.367767 54.973107 
L 89.394823 59.848344 
L 89.482753 59.341131 
L 89.959608 57.794539 
L 89.966371 57.800711 
L 89.996809 57.729038 
L 90.03401 57.718588 
L 90.18958 57.545849 
L 90.040774 57.727232 
L 90.199726 57.565448 
L 90.203108 57.578128 
L 90.277511 57.470891 
L 90.284274 57.473065 
L 90.470281 57.15797 
L 90.473663 57.163925 
L 90.477045 57.183748 
L 90.53792 56.990897 
L 90.551448 56.992246 
L 90.713782 56.767413 
L 90.727309 56.803877 
L 90.79833 56.666262 
L 90.801712 56.670486 
L 90.92008 56.457687 
L 90.93699 56.480712 
L 90.947136 56.494324 
L 91.011393 56.38775 
L 91.014775 56.39653 
L 91.062122 56.283144 
L 91.068886 56.300173 
" clip-path="url(#pbb77e150f3)" style="fill: none; stroke: #000000; stroke-width: 0.6; stroke-linecap: square"/>
   </g>
   <g id="line2d_4">
    <path d="M 95.127221 15.313171 
L 95.127221 8.552195 
" clip-path="url(#pbb77e150f3)" style="fill: none; stroke: #000000; stroke-width: 1.5; stroke-linecap: square"/>
   </g>
  </g>
 </g>
 <defs>
  <clipPath id="pbb77e150f3">
   <rect x="7.2" y="7.2" width="89.28" height="55.44"/>
  </clipPath>
 </defs>
</svg>
