<?xml version="1.0" encoding="utf-8" standalone="no"?>
<!DOCTYPE svg PUBLIC "-//W3C//DTD SVG 1.1//EN"
  "http://www.w3.org/Graphics/SVG/1.1/DTD/svg11.dtd">
<svg xmlns:xlink="http://www.w3.org/1999/xlink" width="103.68pt" height="69.84pt" viewBox="0 0 103.68 69.84" xmlns="http://www.w3.org/2000/svg" version="1.1">
 <metadata>
  <rdf:RDF xmlns:dc="http://purl.org/dc/elements/1.1/" xmlns:cc="http://creativecommons.org/ns#" xmlns:rdf="http://www.w3.org/1999/02/22-rdf-syntax-ns#">
   <cc:Work>
    <dc:type rdf:resource="http://purl.org/dc/dcmitype/StillImage"/>
    <dc:date>2022-05-08T14:49:29.265918</dc:date>
    <dc:format>image/svg+xml</dc:format>
    <dc:creator>
     <cc:Agent>
      <dc:title>Matplotlib v3.5.1, https://matplotlib.org/</dc:title>
     </cc:Agent>
    </dc:creator>
   </cc:Work>
  </rdf:RDF>
 </metadata>
 <defs>
  <style type="text/css">*{stroke-linejoin: round; stroke-linecap: butt}</style>
 </defs>
 <g id="figure_1">
  <g id="patch_1">
   <path d="M 0 69.84 
L 103.68 69.84 
L 103.68 0 
L 0 0 
z
" style="fill: #ffffff"/>
  </g>
  <g id="axes_1">
   <g id="patch_2">
    <path d="M 7.2 62.64 
L 96.48 62.64 
L 96.48 7.2 
L 7.2 7.2 
z
" style="fill: #ffffff"/>
   </g>
   <g id="matplotlib.axis_1"/>
   <g id="matplotlib.axis_2"/>
   <g id="line2d_1">
    <path d="M 9.905557 24.555838 
L 10.037453 24.462746 
L 9.949522 24.617575 
L 10.044217 24.491344 
L 10.155821 24.544169 
L 10.078036 24.472265 
L 10.162585 24.513675 
L 10.284335 24.487111 
L 10.368884 24.546809 
L 10.335064 24.467126 
L 10.402703 24.501808 
L 10.416231 24.526727 
L 10.446668 24.402324 
L 10.487252 24.41025 
L 10.527835 24.352271 
L 10.598856 24.429916 
L 10.707078 24.4541 
L 10.693551 24.389077 
L 10.71046 24.451038 
L 10.778099 24.470658 
L 10.751044 24.517405 
L 10.791627 24.511389 
L 10.899849 24.649754 
L 10.926905 24.627643 
L 10.964106 24.608058 
L 11.021599 24.6903 
L 11.085856 24.658312 
L 11.052037 24.635005 
L 11.102766 24.615351 
L 11.106148 24.5879 
L 11.160259 24.651281 
L 11.207606 24.638076 
L 11.339502 24.718645 
L 11.349648 24.695428 
L 11.484926 24.530881 
L 11.488308 24.534629 
L 11.515363 24.531848 
L 11.559329 24.450202 
L 11.664169 24.397538 
L 11.589766 24.477452 
L 11.677697 24.424818 
L 11.775773 24.543426 
L 11.701371 24.41278 
L 11.806211 24.51795 
L 11.860322 24.460419 
L 11.917815 24.51669 
L 12.049711 24.622774 
L 12.195135 24.518725 
L 12.205281 24.533768 
L 12.316885 24.570086 
L 12.289829 24.512897 
L 12.320267 24.567117 
L 12.357468 24.56513 
L 12.401433 24.667413 
L 12.428489 24.636413 
L 12.584058 24.771369 
L 12.820795 24.766272 
L 12.891816 24.752546 
L 12.939163 24.800978 
L 13.067677 24.776209 
L 12.962836 24.761681 
L 13.071059 24.768152 
L 13.344996 24.8072 
L 13.392344 24.824752 
L 13.375434 24.78241 
L 13.449837 24.781671 
L 13.591878 24.707056 
L 13.456601 24.788656 
L 13.59526 24.717951 
L 13.710247 24.780007 
L 13.720392 24.752289 
L 13.781267 24.832337 
L 13.831997 24.763471 
L 14.234448 24.738842 
L 14.352816 24.727708 
L 14.413691 24.780941 
L 14.467803 24.748749 
L 14.51515 24.716739 
L 14.494858 24.772333 
L 14.579407 24.744799 
L 14.613226 24.770104 
L 14.650428 24.716386 
L 14.691011 24.74835 
L 14.728212 24.811948 
L 14.795851 24.718756 
L 15.357254 24.801256 
L 15.360636 24.813946 
L 15.424893 24.671075 
L 15.438421 24.683042 
L 15.445185 24.661165 
L 15.499296 24.772281 
L 15.53988 24.718225 
L 15.66163 24.799498 
L 15.668393 24.790412 
L 16.263616 24.790541 
L 16.280526 24.873096 
L 16.365074 24.741586 
L 16.368456 24.752221 
L 16.500352 24.820363 
L 16.507116 24.806724 
L 16.622102 24.73487 
L 16.628866 24.760028 
L 16.642394 24.793424 
L 16.835165 24.765264 
L 16.909568 24.853729 
L 16.855457 24.737354 
L 16.950151 24.777239 
L 17.021172 24.713494 
L 17.068519 24.780067 
L 17.071901 24.805766 
L 17.12263 24.681979 
L 17.176742 24.772169 
L 17.318783 24.667916 
L 17.237617 24.814896 
L 17.322165 24.680405 
L 17.454061 24.742324 
L 17.525082 24.757592 
L 17.464207 24.723777 
L 17.552138 24.702955 
L 17.66036 24.673473 
L 17.592721 24.739443 
L 17.667124 24.688189 
L 17.755054 24.704994 
L 17.697561 24.758208 
L 17.7652 24.736377 
L 17.890332 24.764781 
L 17.792256 24.716912 
L 17.893714 24.758804 
L 17.924152 24.828747 
L 17.900478 24.754915 
L 18.001936 24.7314 
L 18.340131 24.636685 
L 18.343513 24.622193 
L 18.428062 24.711862 
L 18.488937 24.800025 
L 18.539666 24.71609 
L 18.573485 24.697375 
L 18.671562 24.771651 
L 18.759492 24.621603 
L 18.833895 24.671411 
L 19.361479 24.773278 
L 19.405444 24.810889 
L 19.459555 24.680003 
L 19.486611 24.662508 
L 19.527194 24.767251 
L 19.530576 24.762948 
L 19.581305 24.787706 
L 19.598215 24.72898 
L 19.635416 24.741685 
L 19.760549 24.707629 
L 19.64218 24.750133 
L 19.76393 24.724419 
L 19.767312 24.739664 
L 19.848479 24.610653 
L 19.851861 24.62274 
L 19.970229 24.539896 
L 19.862007 24.63538 
L 19.993903 24.612239 
L 20.338861 24.677655 
L 20.345625 24.645498 
L 20.392972 24.753589 
L 20.447084 24.686632 
L 20.68382 24.771218 
L 20.704112 24.852192 
L 20.761605 24.715102 
L 20.775132 24.720167 
L 20.852917 24.640802 
L 20.893501 24.689316 
L 20.907028 24.681029 
L 20.954376 24.788352 
L 21.028778 24.774796 
L 20.971285 24.757556 
L 21.042306 24.74639 
L 21.045688 24.715336 
L 21.130237 24.807704 
L 21.147146 24.794768 
L 21.157292 24.824489 
L 21.302716 24.733603 
L 21.306098 24.762008 
L 21.350063 24.67715 
L 21.41432 24.743244 
L 21.532688 24.694548 
L 21.684876 24.796212 
L 21.79648 24.752318 
L 21.810008 24.78911 
L 21.887793 24.798265 
L 21.911466 24.731622 
L 21.91823 24.713763 
L 21.95205 24.766797 
L 22.016307 24.760963 
L 22.036598 24.71976 
L 22.131293 24.745641 
L 22.209078 24.711509 
L 22.246279 24.745976 
L 22.28348 24.713282 
L 22.368029 24.780618 
L 22.493161 24.803867 
L 22.388321 24.740896 
L 22.499925 24.77119 
L 22.601383 24.719664 
L 22.554036 24.784792 
L 22.614911 24.739082 
L 22.740043 24.77325 
L 22.753571 24.723155 
L 22.807682 24.819696 
L 22.848265 24.798028 
L 22.990307 24.720765 
L 22.997071 24.747414 
L 23.034273 24.831903 
L 23.112057 24.788313 
L 23.206752 24.784452 
L 23.122203 24.782439 
L 23.223662 24.776885 
L 23.375849 24.750556 
L 23.473926 24.861545 
L 23.497599 24.807708 
L 23.609203 24.71532 
L 23.622731 24.736412 
L 23.643023 24.734699 
L 23.693752 24.66246 
L 23.714044 24.678423 
L 23.91696 24.702081 
L 23.920342 24.714401 
L 24.018419 24.749016 
L 23.944016 24.700443 
L 24.035329 24.71765 
L 24.08944 24.621513 
L 24.150315 24.691882 
L 24.255155 24.774151 
L 24.265301 24.747738 
L 24.288975 24.732468 
L 24.346468 24.860219 
L 24.359995 24.876685 
L 24.518947 24.734384 
L 24.633933 24.803567 
L 24.660989 24.775098 
L 24.779357 24.740847 
L 24.782739 24.743479 
L 24.951836 24.690684 
L 24.965364 24.733439 
L 24.97551 24.770344 
L 25.033003 24.703659 
L 25.073586 24.708765 
L 25.607934 24.712337 
L 25.685718 24.803879 
L 25.733066 24.788256 
L 25.820996 24.715353 
L 25.854816 24.755525 
L 25.864962 24.783221 
L 25.905545 24.712254 
L 25.959656 24.728838 
L 26.027295 24.657812 
L 26.067878 24.735919 
L 26.081406 24.76446 
L 26.149045 24.616393 
L 26.162573 24.636907 
L 26.287705 24.628812 
L 26.186246 24.662287 
L 26.291087 24.634079 
L 26.402691 24.76054 
L 26.31476 24.586942 
L 26.429747 24.732341 
L 26.548115 24.704514 
L 26.676629 24.64275 
L 26.700302 24.672083 
L 26.74765 24.592101 
L 26.784851 24.63848 
L 26.862636 24.6052 
L 26.896455 24.647134 
L 26.984386 24.677497 
L 27.004677 24.635294 
L 27.021587 24.651477 
L 27.160247 24.611035 
L 27.281997 24.687239 
L 27.315817 24.648024 
L 27.386837 24.7141 
L 27.491678 24.784209 
L 27.410511 24.655843 
L 27.501824 24.751375 
L 27.697976 24.574889 
L 27.522115 24.790534 
L 27.72165 24.611737 
L 27.748706 24.604082 
L 27.8434 24.696595 
L 27.958386 24.647394 
L 27.971914 24.663096 
L 27.978678 24.690051 
L 28.053081 24.616781 
L 28.080136 24.639805 
L 28.161303 24.598649 
L 28.117338 24.671005 
L 28.195123 24.626452 
L 28.249234 24.5777 
L 28.286435 24.680837 
L 28.374366 24.783966 
L 28.404803 24.730952 
L 28.499498 24.703746 
L 28.462296 24.761233 
L 28.516407 24.714604 
L 28.658449 24.815263 
L 28.661831 24.813913 
L 28.719324 24.7779 
L 28.685505 24.752101 
L 28.736234 24.732541 
L 28.830928 24.754529 
L 28.74638 24.746855 
L 28.837692 24.76814 
L 28.847838 24.784803 
L 28.888422 24.642909 
L 28.942533 24.751153 
L 29.057519 24.67212 
L 29.064283 24.680212 
L 30.143124 24.73912 
L 30.146506 24.724709 
L 30.237818 24.818931 
L 30.2412 24.824123 
L 30.295311 24.726353 
L 30.322367 24.75966 
L 30.400152 24.705177 
L 30.359568 24.774292 
L 30.440735 24.730031 
L 30.508374 24.671469 
L 30.555721 24.765183 
L 30.674089 24.693692 
L 30.680853 24.696069 
L 30.816131 24.808018 
L 30.920971 24.809854 
L 30.829659 24.797654 
L 30.927735 24.79041 
L 31.046103 24.72131 
L 30.944645 24.820138 
L 31.066395 24.749178 
L 31.495902 24.779783 
L 31.529722 24.820889 
L 31.583833 24.726274 
L 31.600742 24.747096 
L 31.692055 24.660516 
L 31.725874 24.710685 
L 31.813805 24.764507 
L 31.844243 24.75113 
L 31.901736 24.71206 
L 31.955847 24.749818 
L 31.999812 24.828149 
L 32.080979 24.796316 
L 32.104652 24.730382 
L 32.155382 24.817596 
L 32.192583 24.798395 
L 32.277132 24.74892 
L 32.229784 24.72331 
L 32.283896 24.724731 
L 32.314333 24.646779 
L 32.398882 24.685847 
L 32.463139 24.677702 
L 32.439465 24.651866 
L 32.496958 24.635391 
L 32.578125 24.657158 
L 32.527396 24.716903 
L 32.591653 24.693879 
L 32.696493 24.836082 
L 32.740458 24.787351 
L 32.814861 24.740172 
L 32.855445 24.776057 
L 32.862208 24.798874 
L 32.946757 24.733529 
L 32.963667 24.760482 
L 33.02116 24.788739 
L 33.03807 24.838867 
L 33.105709 24.884846 
L 33.14291 24.808937 
L 33.278188 24.655753 
L 33.288334 24.668139 
L 33.359355 24.600966 
L 33.305243 24.676918 
L 33.410084 24.658656 
L 33.504778 24.645158 
L 33.481105 24.585153 
L 33.511542 24.624715 
L 33.531834 24.652805 
L 33.653584 24.507238 
L 33.809153 24.456853 
L 33.815917 24.469444 
L 33.961341 24.582949 
L 33.974869 24.538598 
L 33.978251 24.533186 
L 34.025598 24.642284 
L 34.035744 24.63653 
L 34.093237 24.679883 
L 34.137202 24.604812 
L 34.140584 24.610903 
L 34.252188 24.700036 
L 34.336737 24.834531 
L 34.373938 24.771161 
L 34.461869 24.641922 
L 34.49907 24.680776 
L 34.722279 24.624026 
L 34.75948 24.571661 
L 34.820355 24.652871 
L 34.827119 24.644358 
L 34.874466 24.578195 
L 34.948869 24.67742 
L 35.101057 24.725969 
L 35.107821 24.767353 
L 35.192369 24.669527 
L 35.209279 24.711896 
L 35.324265 24.699252 
L 35.253244 24.814571 
L 35.327647 24.705676 
L 35.415578 24.718184 
L 35.388522 24.674499 
L 35.442633 24.709095 
L 35.489981 24.756395 
L 35.533946 24.654075 
L 35.62864 24.528234 
L 35.655696 24.55929 
L 35.780828 24.505223 
L 35.818029 24.580508 
L 35.93978 24.661726 
L 35.993891 24.564899 
L 36.054766 24.632274 
L 36.102113 24.59927 
L 36.146078 24.702976 
L 36.14946 24.69763 
L 36.284738 24.774795 
L 36.28812 24.756391 
L 37.180954 24.523546 
L 37.258739 24.542222 
L 37.224919 24.56412 
L 37.272266 24.575902 
L 37.326378 24.615399 
L 37.360197 24.556809 
L 37.383871 24.589342 
L 37.394016 24.55118 
L 37.4346 24.644406 
L 37.481947 24.627678 
L 37.57326 24.663435 
L 37.596933 24.65007 
L 37.857343 24.586955 
L 37.891163 24.554849 
L 37.93851 24.698863 
L 37.958801 24.626344 
L 38.053496 24.603026 
L 38.006149 24.545445 
L 38.06026 24.5844 
L 38.293614 24.6999 
L 38.090697 24.518981 
L 38.324052 24.6527 
L 38.435656 24.600045 
L 38.371399 24.691402 
L 38.44242 24.614836 
L 38.520205 24.66136 
L 38.560788 24.604704 
L 38.638573 24.70713 
L 38.699448 24.665837 
L 38.82458 24.576106 
L 38.922656 24.61518 
L 38.92942 24.661129 
L 38.970003 24.711017 
L 38.939566 24.639894 
L 39.041024 24.667014 
L 39.071462 24.627612 
L 39.108663 24.744265 
L 39.135719 24.733315 
L 39.17292 24.773897 
L 39.227031 24.668934 
L 39.385983 24.672306 
L 39.396129 24.637539 
L 39.399511 24.624013 
L 39.460386 24.726103 
L 39.484059 24.722363 
L 39.558462 24.75091 
L 39.504351 24.681142 
L 39.5889 24.693407 
L 39.683594 24.679987 
L 39.612573 24.731921 
L 39.690358 24.694948 
L 39.774907 24.745698 
L 39.730941 24.681341 
L 39.79858 24.719419 
L 39.913566 24.6502 
L 39.842546 24.74754 
L 39.916948 24.663437 
L 40.011643 24.689154 
L 40.031935 24.682659 
L 40.109719 24.640102 
L 40.052226 24.699407 
L 40.143539 24.696821 
L 40.150303 24.7015 
L 40.16383 24.648245 
L 40.217942 24.619203 
L 40.224705 24.59935 
L 40.285581 24.694918 
L 40.316018 24.667759 
L 40.400567 24.597474 
L 40.444532 24.724153 
L 40.498643 24.676254 
L 40.451296 24.738987 
L 40.549372 24.754467 
L 40.576428 24.822028 
L 40.660977 24.759362 
L 40.8064 24.807271 
L 40.681268 24.735233 
L 40.809782 24.784308 
L 40.904477 24.750342 
L 40.819928 24.797943 
L 40.918004 24.808769 
L 40.921386 24.819459 
L 40.96197 24.698011 
L 41.005935 24.732491 
L 41.090484 24.787154 
L 41.120921 24.715234 
L 41.202088 24.762304 
L 41.235907 24.732664 
L 41.367803 24.814614 
L 41.266345 24.71058 
L 41.401623 24.776097 
L 41.557192 24.703974 
L 41.411769 24.782491 
L 41.560574 24.711137 
L 41.607922 24.769547 
L 41.668797 24.704622 
L 41.780401 24.664489 
L 41.67556 24.716671 
L 41.804074 24.682504 
L 41.902151 24.767361 
L 41.919061 24.730951 
L 42.047575 24.670118 
L 41.93597 24.773377 
L 42.07463 24.695919 
L 42.676617 24.753907 
L 42.784839 24.715106 
L 42.7172 24.793445 
L 42.791603 24.742258 
L 42.80513 24.728502 
L 42.930263 24.811716 
L 43.035103 24.703429 
L 43.058776 24.735942 
L 43.917791 24.694923 
L 43.95161 24.67328 
L 43.998958 24.760471 
L 44.09027 24.812844 
L 44.022631 24.752824 
L 44.10718 24.757468 
L 44.198492 24.813425 
L 44.225548 24.725767 
L 44.431847 24.826585 
L 44.479194 24.729814 
L 44.550215 24.760488 
L 44.800479 24.633957 
L 44.57727 24.810194 
L 44.807243 24.641689 
L 44.878264 24.692289 
L 44.834298 24.601052 
L 44.922229 24.664434 
L 44.95943 24.61069 
L 45.020305 24.756356 
L 45.027069 24.720807 
L 45.060889 24.727469 
L 45.067653 24.659833 
L 45.091326 24.640909 
L 45.09809 24.610292 
L 45.179257 24.71512 
L 45.192785 24.683551 
L 45.314535 24.710159 
L 45.250278 24.621094 
L 45.328062 24.68211 
L 45.382174 24.705543 
L 45.459958 24.641367 
L 45.693313 24.749547 
L 45.696695 24.74032 
L 45.798153 24.687315 
L 45.818445 24.729123 
L 45.923285 24.770434 
L 45.848882 24.705837 
L 45.933431 24.732232 
L 46.00107 24.642303 
L 46.055181 24.703223 
L 46.061945 24.724939 
L 46.153257 24.619217 
L 46.156639 24.645106 
L 46.163403 24.627976 
L 46.241188 24.742209 
L 46.254716 24.711907 
L 46.346028 24.702871 
L 46.271625 24.6912 
L 46.359556 24.681981 
L 46.393376 24.631857 
L 46.450869 24.71938 
L 46.467778 24.707816 
L 46.74848 24.664144 
L 46.751862 24.678733 
L 46.856702 24.685421 
L 46.816119 24.632696 
L 46.863466 24.677281 
L 46.910813 24.57211 
L 46.99198 24.704765 
L 47.046091 24.773198 
L 47.110348 24.719194 
L 47.458689 24.696041 
L 47.465452 24.736072 
L 47.556765 24.812042 
L 47.577057 24.745627 
L 47.648078 24.715105 
L 47.621022 24.773136 
L 47.688661 24.754519 
L 47.742772 24.83505 
L 47.708953 24.733787 
L 47.800265 24.76765 
L 47.89496 24.710558 
L 47.911869 24.770926 
L 48.091113 24.784285 
L 48.172279 24.801139 
L 48.135078 24.762038 
L 48.199335 24.764095 
L 48.337995 24.761548 
L 48.246682 24.81399 
L 48.341377 24.765526 
L 48.344759 24.779901 
L 48.412397 24.691772 
L 48.446217 24.735749 
L 48.459745 24.686277 
L 48.510474 24.793907 
L 48.554439 24.758369 
L 48.561203 24.794574 
L 48.638988 24.710734 
L 48.655898 24.724202 
L 48.750592 24.695762 
L 48.672807 24.744989 
L 48.767502 24.712055 
L 48.794557 24.747254 
L 48.872342 24.678455 
L 48.970419 24.684711 
L 48.88587 24.713137 
L 48.980564 24.711363 
L 49.048203 24.799924 
L 49.098933 24.727938 
L 49.77194 24.744855 
L 49.900454 24.640486 
L 49.903836 24.646876 
L 50.012058 24.704498 
L 49.913982 24.625133 
L 50.035732 24.667214 
L 50.096607 24.639854 
L 50.052641 24.691064 
L 50.127044 24.720399 
L 50.1541 24.808755 
L 50.24203 24.730349 
L 50.431419 24.641072 
L 50.438183 24.665225 
L 50.505822 24.754872 
L 50.556551 24.692144 
L 50.661392 24.657908 
L 50.668156 24.682056 
L 50.712121 24.741514 
L 50.759468 24.639817 
L 50.77976 24.699931 
L 50.783142 24.675105 
L 50.857545 24.743277 
L 50.8846 24.724912 
L 50.894746 24.744044 
L 50.955621 24.642081 
L 50.979295 24.674908 
L 51.057079 24.666689 
L 51.002968 24.727666 
L 51.073989 24.722534 
L 51.084135 24.749883 
L 51.1281 24.686962 
L 51.182211 24.703844 
L 51.293816 24.740827 
L 51.30058 24.720068 
L 51.347927 24.696836 
L 51.395274 24.783252 
L 51.486587 24.757261 
L 51.40542 24.808283 
L 51.506878 24.792573 
L 51.513642 24.829672 
L 51.604955 24.69696 
L 51.686121 24.736855 
L 51.615101 24.685709 
L 51.719941 24.696104 
L 51.824781 24.644583 
L 51.790962 24.71092 
L 51.838309 24.647549 
L 51.872128 24.655761 
L 51.919476 24.575236 
L 51.939767 24.605711 
L 52.693941 24.668905 
L 52.741289 24.657414 
L 52.764962 24.749285 
L 52.771726 24.741634 
L 52.876567 24.777784 
L 52.805546 24.713276 
L 52.886712 24.750922 
L 53.076101 24.593258 
L 52.944205 24.786836 
L 53.082865 24.612715 
L 53.089629 24.628486 
L 53.157268 24.539875 
L 53.174178 24.547888 
L 53.214761 24.598638 
L 53.285782 24.542008 
L 53.309456 24.508854 
L 53.400768 24.553916 
L 53.495463 24.543962 
L 53.42106 24.571099 
L 53.519136 24.572302 
L 53.640886 24.622125 
L 53.549574 24.529418 
L 53.644268 24.616324 
L 53.657796 24.590958 
L 53.989227 24.697288 
L 54.094067 24.658585 
L 54.026428 24.736257 
L 54.104213 24.678386 
L 54.134651 24.656516 
L 54.246255 24.740555 
L 54.415352 24.660082 
L 54.259783 24.753923 
L 54.418734 24.664615 
L 54.503283 24.715329 
L 54.53372 24.65521 
L 54.597977 24.625165 
L 54.618269 24.71045 
L 54.648706 24.650613 
L 54.750165 24.581896 
L 54.787366 24.646487 
L 54.902352 24.67613 
L 54.800894 24.604527 
L 54.919262 24.635292 
L 54.926026 24.607892 
L 54.973373 24.682555 
L 55.024102 24.66061 
L 55.112033 24.728887 
L 55.145852 24.706204 
L 55.152616 24.711507 
L 55.257457 24.716595 
L 55.372443 24.803326 
L 55.379207 24.788259 
L 55.507721 24.689006 
L 55.511103 24.699572 
L 55.588887 24.591566 
L 55.592269 24.603313 
L 55.686964 24.570749 
L 55.622707 24.633638 
L 55.700492 24.614162 
L 55.930464 24.597052 
L 55.933846 24.605441 
L 56.038686 24.696607 
L 56.058978 24.647763 
L 56.119853 24.5781 
L 56.170582 24.631649 
L 56.207784 24.691198 
L 56.278805 24.64024 
L 56.370117 24.596198 
L 56.393791 24.613622 
L 56.515541 24.586777 
L 56.430992 24.634155 
L 56.518923 24.588642 
L 56.674492 24.700403 
L 56.68802 24.67939 
L 56.830062 24.524649 
L 56.728603 24.704126 
L 56.833444 24.527398 
L 56.91461 24.643415 
L 56.846971 24.51776 
L 56.955194 24.625455 
L 56.978867 24.592775 
L 57.03636 24.745591 
L 57.043124 24.743882 
L 57.090472 24.783531 
L 57.147965 24.711126 
L 57.276479 24.652789 
L 57.279861 24.668548 
L 57.310298 24.731359 
L 57.391465 24.655932 
L 57.563944 24.557016 
L 57.580854 24.602099 
L 57.587618 24.626345 
L 57.672166 24.533401 
L 57.689076 24.521609 
L 57.753333 24.643522 
L 57.756715 24.664996 
L 57.814208 24.599088 
L 57.861555 24.631788 
L 57.881847 24.622241 
L 57.935958 24.723529 
L 57.949486 24.709996 
L 57.966396 24.750823 
L 58.037417 24.650928 
L 58.04418 24.649517 
L 58.050944 24.627164 
L 58.128729 24.756128 
L 58.142257 24.720474 
L 58.169312 24.751439 
L 58.230188 24.662825 
L 58.233569 24.668997 
L 58.314736 24.582467 
L 58.362083 24.617582 
L 58.473688 24.667007 
L 58.436486 24.586923 
L 58.480452 24.652659 
L 58.54809 24.616515 
L 58.592056 24.640055 
L 58.679986 24.708701 
L 58.70366 24.664803 
L 58.774681 24.613866 
L 58.8085 24.699004 
L 58.849084 24.749527 
L 58.923486 24.702883 
L 59.021563 24.693026 
L 58.977598 24.732803 
L 59.038473 24.709116 
L 59.427396 24.801842 
L 59.430778 24.819647 
L 59.471362 24.742102 
L 59.532237 24.777474 
L 59.650605 24.739096 
L 59.562674 24.806447 
L 59.657369 24.748566 
L 59.667515 24.771515 
L 59.741917 24.704274 
L 59.765591 24.729724 
L 59.860286 24.705615 
L 59.823084 24.79161 
L 59.877195 24.738249 
L 60.33714 24.693707 
L 60.343904 24.658204 
L 60.384487 24.762165 
L 60.438598 24.756657 
L 60.445362 24.748021 
L 60.59755 24.770396 
L 60.671953 24.790602 
L 60.715918 24.715384 
L 60.932363 24.787885 
L 60.739592 24.680934 
L 60.939126 24.751224 
L 61.010147 24.783802 
L 61.054113 24.73398 
L 61.158953 24.787711 
L 61.08455 24.710115 
L 61.169099 24.766156 
L 61.307759 24.711452 
L 61.331432 24.756693 
L 61.338196 24.791614 
L 61.399071 24.716889 
L 61.439655 24.736479 
L 61.558023 24.689067 
L 61.480238 24.799778 
L 61.568168 24.699085 
L 61.686537 24.818341 
L 61.62228 24.668788 
L 61.696682 24.809501 
L 61.862398 24.802823 
L 61.923273 24.697256 
L 61.97062 24.651073 
L 62.034877 24.701688 
L 62.146481 24.746517 
L 62.153245 24.765971 
L 62.274995 24.766004 
L 62.163391 24.755963 
L 62.278377 24.758511 
L 62.484676 24.684807 
L 62.50835 24.72315 
L 62.511732 24.750515 
L 62.603044 24.666421 
L 62.61319 24.67044 
L 62.684211 24.593379 
L 62.73494 24.674334 
L 62.768759 24.75959 
L 62.846544 24.680942 
L 62.958148 24.650588 
L 62.968294 24.663657 
L 63.08328 24.808031 
L 63.10019 24.768367 
L 63.123864 24.727966 
L 63.198267 24.792476 
L 63.215176 24.756716 
L 63.323399 24.765482 
L 63.225322 24.736442 
L 63.330163 24.751273 
L 63.370746 24.711412 
L 63.445149 24.741213 
L 63.546607 24.823475 
L 63.566899 24.782815 
L 63.58719 24.736426 
L 63.634538 24.806697 
L 63.681885 24.764392 
L 63.901711 24.81101 
L 63.908475 24.766861 
L 64.00317 24.755127 
L 63.979496 24.811237 
L 64.016698 24.766215 
L 64.043753 24.807902 
L 64.094482 24.702356 
L 64.121538 24.711118 
L 64.294017 24.767454 
L 64.135066 24.670548 
L 64.297399 24.75645 
L 64.314309 24.705562 
L 64.36842 24.777131 
L 64.405621 24.764687 
L 64.409003 24.778293 
L 64.503698 24.701331 
L 64.50708 24.716161 
L 64.902768 24.690471 
L 64.970406 24.599868 
L 65.024518 24.667738 
L 65.5149 24.737108 
L 65.521664 24.700852 
L 65.626504 24.65513 
L 65.63665 24.669662 
L 65.798983 24.816279 
L 65.805747 24.795343 
L 65.927497 24.665911 
L 65.829421 24.80445 
L 65.934261 24.682456 
L 66.052629 24.806487 
L 66.083067 24.742491 
L 66.191289 24.701538 
L 66.201435 24.715593 
L 66.695199 24.678284 
L 66.725637 24.623719 
L 66.779748 24.715086 
L 66.810185 24.672832 
L 66.898116 24.747901 
L 66.948845 24.705737 
L 67.002956 24.795716 
L 67.060449 24.707719 
L 67.205873 24.740882 
L 67.216019 24.700808 
L 67.222783 24.673657 
L 67.320859 24.740251 
L 67.442609 24.696859 
L 67.334387 24.752795 
L 67.452755 24.72852 
L 67.533922 24.821237 
L 67.577887 24.756834 
L 67.692873 24.754966 
L 67.696255 24.738101 
L 67.784186 24.713987 
L 67.736839 24.784149 
L 67.804477 24.752718 
L 68.014158 24.708182 
L 68.01754 24.716806 
L 68.098707 24.758331 
L 68.129144 24.711443 
L 68.142672 24.688278 
L 68.274568 24.802182 
L 68.6432 24.780031 
L 68.76495 24.821153 
L 68.66011 24.767131 
L 68.778478 24.810486 
L 68.812297 24.822659 
L 68.906992 24.698232 
L 69.089617 24.752306 
L 69.194457 24.792249 
L 69.116673 24.737961 
L 69.207985 24.781628 
L 69.326353 24.703657 
L 69.339881 24.731994 
L 69.458249 24.760881 
L 69.370319 24.694914 
L 69.465013 24.739825 
L 69.556326 24.637012 
L 69.583381 24.688614 
L 69.627346 24.75368 
L 69.681458 24.646421 
L 69.701749 24.690239 
L 69.809972 24.661866 
L 69.728805 24.71104 
L 69.816735 24.679334 
L 69.840409 24.797337 
L 69.935104 24.704719 
L 70.043326 24.743431 
L 69.975687 24.653303 
L 70.080527 24.690135 
L 70.178604 24.610776 
L 70.198895 24.694862 
L 70.320645 24.725001 
L 70.212423 24.668329 
L 70.324027 24.710793 
L 70.364611 24.619599 
L 70.482979 24.724744 
L 70.523562 24.70607 
L 70.530326 24.760223 
L 70.587819 24.762166 
L 70.631785 24.708802 
L 70.696042 24.786697 
L 70.76368 24.849893 
L 70.807646 24.761476 
L 70.915868 24.637855 
L 70.841465 24.808633 
L 70.929396 24.664225 
L 71.287882 24.782086 
L 71.298028 24.763954 
L 71.396104 24.70123 
L 71.409632 24.743289 
L 71.571966 24.797649 
L 71.426542 24.723135 
L 71.575348 24.774902 
L 71.582111 24.794936 
L 71.70048 24.765962 
L 71.808702 24.788019 
L 71.754591 24.733032 
L 71.818848 24.77992 
L 71.92707 24.751491 
L 71.930452 24.76985 
L 72.008237 24.794995 
L 71.954126 24.719294 
L 72.042056 24.750812 
L 72.15366 24.739503 
L 72.04882 24.758069 
L 72.167188 24.762677 
L 72.17057 24.786287 
L 72.207772 24.717402 
L 72.272028 24.752743 
L 72.305848 24.700862 
L 72.370105 24.780491 
L 72.380251 24.76329 
L 72.518911 24.814081 
L 72.407306 24.728904 
L 72.532438 24.786574 
L 72.664334 24.686888 
L 72.671098 24.727831 
L 72.941654 24.795532 
L 72.948418 24.767122 
L 73.032966 24.730852 
L 72.989001 24.784277 
L 73.060022 24.76455 
L 73.117515 24.805919 
L 73.1953 24.725446 
L 73.225737 24.78216 
L 73.293376 24.682247 
L 73.296758 24.682033 
L 73.442182 24.645368 
L 73.313668 24.717283 
L 73.445564 24.65729 
L 73.57746 24.758863 
L 73.618043 24.705643 
L 73.601133 24.766597 
L 73.695828 24.740291 
L 73.770231 24.708466 
L 73.800668 24.761669 
L 73.854779 24.818816 
L 73.902127 24.702738 
L 73.952856 24.575772 
L 74.030641 24.672484 
L 74.077988 24.748616 
L 74.142245 24.670458 
L 74.801724 24.652414 
L 74.906565 24.593647 
L 74.849072 24.677171 
L 74.930238 24.602211 
L 75.05537 24.738604 
L 75.065516 24.715396 
L 75.180502 24.589753 
L 75.221086 24.612433 
L 75.254905 24.532912 
L 75.33269 24.612199 
L 75.691176 24.730783 
L 75.701322 24.688465 
L 75.73176 24.711372 
L 75.826454 24.627381 
L 75.938058 24.670099 
L 75.944822 24.659773 
L 75.948204 24.67004 
L 76.036135 24.593665 
L 76.127447 24.55406 
L 76.100392 24.61455 
L 76.147739 24.577257 
L 76.195086 24.62284 
L 76.215378 24.540243 
L 76.255961 24.552962 
L 76.266107 24.5163 
L 76.326982 24.598601 
L 76.350656 24.593811 
L 76.438586 24.666564 
L 76.46226 24.655434 
L 76.465642 24.629188 
L 76.533281 24.70212 
L 76.5671 24.693149 
L 76.627975 24.633414 
L 76.675323 24.705197 
L 76.698996 24.793315 
L 76.783545 24.697391 
L 76.895149 24.613914 
L 76.912059 24.656997 
L 76.996607 24.708783 
L 76.93235 24.641084 
L 77.027045 24.682507 
L 77.040573 24.643357 
L 77.111594 24.77165 
L 77.128503 24.75273 
L 77.236726 24.802124 
L 77.202906 24.696701 
L 77.24349 24.756244 
L 77.358476 24.748724 
L 77.280691 24.802673 
L 77.361858 24.75731 
L 77.388913 24.735962 
L 77.483608 24.794305 
L 77.517427 24.766534 
L 77.561392 24.821412 
L 77.59183 24.804433 
L 77.595212 24.812935 
L 77.615504 24.72628 
L 77.683143 24.755166 
L 77.787983 24.690531 
L 77.798129 24.707682 
L 77.913115 24.646892 
L 77.919879 24.652331 
L 78.055157 24.747587 
L 78.058539 24.729413 
L 78.116032 24.819533 
L 78.156615 24.80627 
L 78.244546 24.72017 
L 78.285129 24.779319 
L 78.288511 24.819216 
L 78.35615 24.707911 
L 78.396733 24.781715 
L 78.528629 24.547696 
L 78.535393 24.574156 
L 78.572594 24.638934 
L 78.646997 24.5673 
L 78.765365 24.596478 
L 78.802567 24.528172 
L 78.880352 24.548624 
L 78.94799 24.685322 
L 79.090032 24.86336 
L 79.150907 24.802987 
L 79.245602 24.577628 
L 79.292949 24.602271 
L 79.441755 24.761734 
L 79.306477 24.583454 
L 79.492484 24.669572 
L 79.59056 24.531123 
L 79.634526 24.580057 
L 79.739366 24.622398 
L 79.74613 24.649626 
L 79.766421 24.697925 
L 79.83406 24.593975 
L 79.854352 24.62362 
L 79.952429 24.530326 
L 79.894935 24.651756 
L 79.979484 24.584627 
L 80.33797 24.67328 
L 80.341352 24.660027 
L 80.351498 24.620882 
L 80.392082 24.703748 
L 80.452957 24.655522 
L 80.537505 24.586341 
L 80.45972 24.662131 
L 80.567943 24.687697 
L 80.686311 24.711732 
L 80.618672 24.651648 
L 80.689693 24.699703 
L 80.818207 24.656625 
L 80.824971 24.665549 
L 81.061707 24.683999 
L 80.831735 24.64655 
L 81.068471 24.668664 
L 81.1192 24.709846 
L 81.213894 24.580328 
L 81.281533 24.685834 
L 81.335645 24.638279 
L 81.37961 24.662361 
L 81.450631 24.62144 
L 81.48445 24.676988 
L 81.538561 24.581444 
L 81.568999 24.622024 
L 81.697513 24.58764 
L 81.596054 24.641961 
L 81.700895 24.598671 
L 81.86661 24.740214 
L 81.876756 24.706135 
L 81.886902 24.672523 
L 81.947777 24.793789 
L 81.981596 24.74548 
L 82.191277 24.694403 
L 82.194659 24.716973 
L 82.214951 24.704744 
L 82.319791 24.768565 
L 82.397576 24.67433 
L 82.438159 24.747693 
L 82.461833 24.791273 
L 82.546381 24.72653 
L 82.691805 24.660235 
L 82.695187 24.663193 
L 82.800027 24.574822 
L 82.830465 24.646403 
L 82.871048 24.69384 
L 82.938687 24.633871 
L 82.948833 24.602501 
L 83.002944 24.70736 
L 83.036764 24.690723 
L 83.10102 24.789076 
L 83.155132 24.716963 
L 83.25659 24.747394 
L 83.161896 24.737527 
L 83.259972 24.758511 
L 83.429069 24.681209 
L 83.445979 24.725085 
L 83.493326 24.760493 
L 83.530528 24.634091 
L 83.540674 24.653136 
L 83.665806 24.530302 
L 83.669187 24.541043 
L 83.713153 24.510172 
L 83.794319 24.619486 
L 83.817993 24.646289 
L 83.912688 24.55752 
L 83.976945 24.66751 
L 83.946507 24.546246 
L 84.041202 24.614684 
L 84.044584 24.599592 
L 84.135896 24.688952 
L 84.139278 24.683445 
L 84.301611 24.780842 
L 84.308375 24.752169 
L 84.416598 24.632694 
L 84.321903 24.77499 
L 84.450417 24.660462 
L 84.605987 24.791388 
L 84.463945 24.654314 
L 84.609369 24.789343 
L 84.75141 24.753957 
L 84.805521 24.79777 
L 84.849487 24.736772 
L 84.863015 24.781726 
L 84.967855 24.758948 
L 84.900216 24.81268 
L 84.971237 24.780269 
L 85.01182 24.793796 
L 85.059167 24.723995 
L 85.072695 24.746383 
L 85.103133 24.691026 
L 85.180917 24.767229 
L 85.306049 24.788006 
L 85.316195 24.739576 
L 85.434563 24.722808 
L 85.407508 24.80667 
L 85.437945 24.725567 
L 85.583369 24.783866 
L 85.586751 24.811628 
L 85.63748 24.741597 
L 85.688209 24.740946 
L 85.840397 24.781421 
L 85.860689 24.75231 
L 85.948619 24.683623 
L 85.88098 24.797324 
L 85.975675 24.738396 
L 86.026404 24.675214 
L 86.097425 24.768375 
L 86.107571 24.7321 
L 86.154918 24.818506 
L 86.205647 24.776195 
L 86.408564 24.742416 
L 86.415328 24.783206 
L 86.449147 24.81421 
L 86.496495 24.738898 
L 86.52355 24.78281 
L 86.62839 24.766349 
L 86.537078 24.799244 
L 86.638536 24.788086 
L 86.919238 24.714636 
L 86.92262 24.727839 
L 86.946293 24.783482 
L 87.030842 24.738881 
L 87.034224 24.714728 
L 87.112009 24.784177 
L 87.135682 24.780105 
L 87.321689 24.733787 
L 87.338599 24.679064 
L 87.399474 24.782276 
L 87.429912 24.742349 
L 87.568572 24.758708 
L 87.575335 24.741025 
L 87.79178 24.72928 
L 87.798544 24.761253 
L 87.852655 24.804699 
L 87.805308 24.7493 
L 87.91353 24.756547 
L 87.971023 24.739831 
L 87.954113 24.804456 
L 88.01837 24.768392 
L 88.045426 24.791432 
L 88.058954 24.748658 
L 88.126593 24.746586 
L 88.228051 24.825694 
L 88.14012 24.694362 
L 88.272016 24.7059 
L 88.299072 24.708565 
L 88.349801 24.782997 
L 88.461405 24.766897 
L 88.356565 24.749439 
L 88.468169 24.752117 
L 88.508753 24.684118 
L 88.583155 24.736839 
L 88.769162 24.753299 
L 88.593301 24.710851 
L 88.78269 24.707956 
L 88.877385 24.731816 
L 88.789454 24.722791 
L 88.887531 24.769854 
L 88.917968 24.793278 
L 88.978843 24.706182 
L 89.036336 24.693981 
L 88.999135 24.726461 
L 89.080302 24.732862 
L 89.103975 24.696606 
L 89.205434 24.803411 
L 89.313656 24.73394 
L 89.229107 24.818704 
L 89.327184 24.771751 
L 89.452316 24.831253 
L 89.455698 24.819757 
L 89.628177 24.69852 
L 89.475989 24.844225 
L 89.638323 24.720688 
L 89.776982 24.831354 
L 90.000191 24.744604 
L 89.783746 24.840305 
L 90.023865 24.780341 
L 90.054302 24.811601 
L 90.081358 24.745592 
L 90.121941 24.734248 
L 90.318094 24.696797 
L 90.128705 24.757995 
L 90.32824 24.724152 
L 90.406024 24.865734 
L 90.460136 24.817267 
L 90.619087 24.694029 
L 90.629233 24.734917 
L 91.068886 24.722223 
L 91.068886 24.722223 
" clip-path="url(#p3300cc0b16)" style="fill: none; stroke: #000000; stroke-width: 0.6; stroke-linecap: square"/>
   </g>
   <g id="line2d_2">
    <path d="M 9.905557 39.235809 
L 9.959668 39.263105 
L 9.99687 39.180848 
L 10.000252 39.187478 
L 10.047599 39.120416 
L 10.017161 39.202756 
L 10.11862 39.185801 
L 10.24037 39.222492 
L 10.149057 39.15897 
L 10.250516 39.210073 
L 10.422995 39.09343 
L 10.260661 39.219146 
L 10.429759 39.127517 
L 10.504162 39.24863 
L 10.561655 39.187866 
L 10.707078 39.091885 
L 10.713842 39.106413 
L 10.757807 39.092996 
L 10.845738 39.191952 
L 10.906613 39.188565 
L 10.933669 39.129297 
L 10.950578 39.080799 
L 11.011453 39.203365 
L 11.048655 39.107355 
L 11.197461 39.03015 
L 11.204224 39.066665 
L 11.305683 39.185984 
L 11.325974 39.14468 
L 11.427433 39.174642 
L 11.359794 39.216442 
L 11.430815 39.186574 
L 11.464634 39.24622 
L 11.532273 39.161207 
L 11.539037 39.17556 
L 11.721662 38.939928 
L 11.765627 38.990324 
L 11.826503 38.888624 
L 11.833266 38.90242 
L 11.900905 38.788685 
L 11.907669 38.79999 
L 12.039565 38.661645 
L 12.046329 38.689904 
L 12.144405 38.582834 
L 12.269537 38.387256 
L 12.289829 38.408048 
L 12.445399 37.534106 
L 12.469072 35.041863 
L 12.4826 26.649029 
L 12.560385 42.568462 
L 12.570531 42.542141 
L 13.260448 39.374773 
L 13.903018 38.038292 
L 13.960511 36.014634 
L 13.974038 26.591843 
L 14.055205 42.650273 
L 14.058587 42.646255 
L 14.061969 42.651382 
L 14.095788 42.51544 
L 14.53206 40.310205 
L 14.535441 40.317326 
L 14.538823 40.326542 
L 14.592935 40.165138 
L 14.596317 40.16451 
L 14.904074 39.430624 
L 14.907456 39.443246 
L 15.364018 38.867964 
L 15.411366 38.925534 
L 15.451949 38.919481 
L 15.492532 38.853835 
L 15.499296 38.85444 
L 15.617664 38.68062 
L 15.658248 38.717921 
L 15.773234 38.769265 
L 15.719123 38.644644 
L 15.776616 38.768309 
L 15.918658 38.634512 
L 15.922039 38.641608 
L 16.195977 38.190521 
L 16.297436 37.061837 
L 16.314345 28.808233 
L 16.321109 26.704889 
L 16.398894 42.593663 
L 16.402276 42.606091 
L 16.456387 42.3886 
L 16.554463 41.829678 
L 16.892658 40.307194 
L 16.89604 40.31066 
L 16.929859 40.213756 
L 17.092193 39.846711 
L 17.095575 39.855358 
L 17.15645 39.725754 
L 17.163214 39.737869 
L 17.345839 39.411761 
L 17.38304 39.399755 
L 17.403332 39.319259 
L 17.406714 39.309627 
L 17.430388 39.372899 
L 17.50479 39.354614 
L 17.592721 39.391241 
L 17.613013 39.33909 
L 17.775346 39.080432 
L 17.778728 39.093992 
L 17.900478 39.123619 
L 17.79902 39.060355 
L 17.907242 39.090762 
L 17.974881 38.931986 
L 18.039138 39.015153 
L 18.086485 39.029569 
L 18.13045 38.955321 
L 18.137214 38.96944 
L 18.275874 38.93843 
L 18.279256 38.949656 
L 18.340131 39.063946 
L 18.404388 39.014435 
L 18.495701 38.964219 
L 18.522756 38.988014 
L 18.52952 39.00318 
L 18.769638 38.855702 
L 18.810222 38.913504 
L 18.860951 38.796239 
L 18.935354 38.716535 
L 18.982701 38.776438 
L 19.036812 38.847905 
L 19.094305 38.773722 
L 19.270166 38.837877 
L 19.337805 38.874124 
L 19.290458 38.797105 
L 19.381771 38.832851 
L 19.489993 38.766519 
L 19.503521 38.791595 
L 19.55425 38.90666 
L 19.615125 38.797834 
L 19.81466 38.919228 
L 19.821424 38.888847 
L 19.838333 38.862692 
L 19.892444 38.986995 
L 20.054778 39.005789 
L 20.061542 39.023528 
L 20.135945 39.089833 
L 20.176528 39.024631 
L 20.386209 38.766742 
L 20.389591 38.786725 
L 20.876591 38.638965 
L 20.886737 38.667589 
L 20.893501 38.699615 
L 20.94423 38.591526 
L 20.991577 38.625884 
L 21.18773 38.652448 
L 21.191112 38.670796 
L 21.197876 38.691005 
L 21.258751 38.568374 
L 21.272278 38.58251 
L 21.620619 37.521799 
L 21.644293 35.459509 
L 21.65782 26.735619 
L 21.738987 42.624229 
L 21.745751 42.605187 
L 22.239515 40.075674 
L 22.242897 40.092072 
L 22.69946 39.586212 
L 22.712988 39.632196 
L 22.861793 39.547921 
L 22.970016 39.437477 
L 22.980161 39.466053 
L 23.078238 39.374768 
L 23.179696 39.229622 
L 23.210134 39.264484 
L 23.227043 39.313081 
L 23.287918 39.226092 
L 23.314974 39.231966 
L 23.406287 39.214486 
L 23.331884 39.265209 
L 23.42996 39.261076 
L 23.534801 39.255784 
L 23.473926 39.226322 
L 23.544946 39.241211 
L 23.683606 39.116333 
L 23.56862 39.257413 
L 23.693752 39.120138 
L 23.697134 39.12794 
L 23.744481 38.962647 
L 23.856085 38.902776 
L 23.758009 38.974829 
L 23.859467 38.903545 
L 23.957544 38.948598 
L 23.971072 38.912651 
L 23.987981 38.849093 
L 24.05562 38.927247 
L 24.082676 38.913575 
L 24.204426 38.778453 
L 24.2281 38.813747 
L 24.231481 38.808183 
L 24.275447 38.902672 
L 24.309266 38.880941 
L 24.376905 38.950306 
L 24.427634 38.915314 
L 24.532475 38.862502 
L 24.495273 38.973422 
L 24.556148 38.915535 
L 24.613641 38.993081 
L 24.671135 38.933724 
L 25.066822 39.190539 
L 25.08035 39.171167 
L 25.215628 39.067062 
L 25.21901 39.070694 
L 25.401635 39.040334 
L 25.225774 39.095795 
L 25.408399 39.06777 
L 25.499711 39.122863 
L 25.425309 39.021703 
L 25.526767 39.101655 
L 25.665427 38.961754 
L 25.672191 38.969979 
L 25.753357 39.070202 
L 25.6891 38.964681 
L 25.787177 38.992909 
L 25.837906 38.998696 
L 25.814232 39.02924 
L 25.878489 39.048444 
L 26.020531 39.199638 
L 26.034059 39.17864 
L 26.138899 39.135389 
L 26.145663 39.147474 
L 26.216684 39.110301 
L 26.176101 39.090241 
L 26.233594 39.082175 
L 26.737504 38.845124 
L 26.240358 39.101025 
L 26.74765 38.897413 
L 26.849108 38.98564 
L 26.872782 38.953856 
L 27.011441 38.853289 
L 27.035115 38.895994 
L 27.126428 38.858949 
L 27.204212 38.827328 
L 27.241414 38.881509 
L 27.265087 38.827744 
L 27.329344 38.943214 
L 27.33949 38.929876 
L 27.508587 39.028813 
L 27.525497 39.014133 
L 27.745324 38.806584 
L 27.752088 38.826694 
L 27.819727 38.752859 
L 27.8434 38.765269 
L 27.938095 38.641154 
L 27.968532 38.665762 
L 28.046317 38.782412 
L 27.988824 38.64908 
L 28.080136 38.67651 
L 28.178213 38.531891 
L 28.12072 38.699731 
L 28.20865 38.589784 
L 28.320255 38.65827 
L 28.333782 38.647687 
L 28.384512 38.619043 
L 28.438623 38.676555 
L 28.814019 38.751127 
L 28.83431 38.684582 
L 28.969588 38.485689 
L 29.121776 38.320361 
L 29.145449 38.338624 
L 29.189415 38.241526 
L 29.311165 37.3226 
L 29.328075 34.452095 
L 29.33822 26.738345 
L 29.429533 42.648052 
L 29.831985 40.488884 
L 29.835366 40.502487 
L 29.899623 40.297097 
L 30.183707 39.717285 
L 30.187089 39.720866 
L 30.450881 39.492249 
L 30.477936 39.515692 
L 30.542193 39.503437 
L 30.511756 39.44399 
L 30.569249 39.456938 
L 30.738346 39.252126 
L 30.785693 39.254326 
L 30.812749 39.177187 
L 30.836423 39.206582 
L 30.964937 38.987532 
L 31.100214 39.0761 
L 31.106978 39.056049 
L 31.157707 39.014272 
L 31.225346 39.062864 
L 31.316659 39.025571 
L 31.255784 39.109323 
L 31.336951 39.065691 
L 31.380916 39.103545 
L 31.438409 39.041632 
L 31.448555 39.083443 
L 31.570305 38.935144 
L 31.462083 39.099822 
L 31.577069 38.957443 
L 31.675145 38.930214 
L 31.641326 38.887505 
L 31.678527 38.92159 
L 31.725874 38.820135 
L 31.800277 38.887638 
L 32.003194 39.141118 
L 32.020104 39.104756 
L 32.023486 39.093315 
L 32.064069 39.179773 
L 32.124944 39.131673 
L 32.304187 39.214996 
L 32.405646 39.342637 
L 32.432701 39.285941 
L 32.452993 39.311553 
L 32.469903 39.253411 
L 32.53416 39.252822 
L 32.666056 39.09793 
L 32.713403 39.156004 
L 32.747222 39.2136 
L 32.767514 39.134993 
L 32.831771 39.176824 
L 32.868972 39.17337 
L 32.845299 39.142222 
L 32.923083 39.115727 
L 33.065125 39.173623 
L 33.068507 39.187878 
L 33.095563 39.215376 
L 33.132764 39.091294 
L 33.153056 39.129126 
L 33.166584 39.095518 
L 33.254514 39.188524 
L 33.261278 39.153792 
L 33.40332 39.293475 
L 33.268042 39.144613 
L 33.416848 39.274922 
L 33.552125 39.217312 
L 33.558889 39.243873 
L 33.606237 39.268398 
L 33.636674 39.181504 
L 33.66373 39.201582 
L 33.809153 39.305882 
L 33.704313 39.129811 
L 33.832827 39.277669 
L 34.130438 39.176015 
L 34.137202 39.208704 
L 34.225133 39.283073 
L 34.174404 39.16104 
L 34.25557 39.247706 
L 34.482161 39.253393 
L 34.488925 39.230256 
L 34.590383 39.167735 
L 34.522744 39.255539 
L 34.603911 39.203995 
L 34.607293 39.227629 
L 34.701987 39.139876 
L 34.708751 39.153835 
L 34.783154 39.197675 
L 34.827119 39.147187 
L 34.969161 39.102731 
L 35.077383 39.167667 
L 35.087529 39.158641 
L 35.222807 39.318444 
L 35.283682 39.177605 
L 35.442633 39.141116 
L 35.561002 39.204233 
L 35.486599 39.094692 
L 35.571147 39.17333 
L 35.591439 39.133815 
L 35.655696 39.230419 
L 35.67937 39.187106 
L 35.780828 39.298479 
L 35.80112 39.261677 
L 35.902578 39.368666 
L 35.936398 39.330003 
L 35.997273 39.282086 
L 36.048002 39.348812 
L 36.108877 39.278307 
L 36.179898 39.369917 
L 36.308412 39.351001 
L 36.220481 39.415071 
L 36.315176 39.366585 
L 36.362523 39.338462 
L 36.44369 39.499991 
L 36.592495 39.352716 
L 36.721009 39.365936 
L 36.606023 39.335051 
L 36.724391 39.361329 
L 36.819086 39.3431 
L 36.798794 39.407174 
L 36.832613 39.371239 
L 36.978037 39.353079 
L 36.981419 39.330183 
L 37.116697 39.196304 
L 37.123461 39.213697 
L 37.133607 39.223688 
L 37.197864 39.142189 
L 37.204627 39.140023 
L 37.208009 39.122031 
L 37.255357 39.194609 
L 37.306086 39.187184 
L 37.41769 39.255663 
L 37.346669 39.163441 
L 37.431218 39.235997 
L 37.454891 39.206148 
L 37.515767 39.293109 
L 37.519148 39.321987 
L 37.603697 39.202461 
L 37.620607 39.233817 
L 37.840433 39.06903 
L 37.887781 39.168252 
L 38.056878 39.198812 
L 38.06026 39.177798 
L 38.067024 39.130868 
L 38.161718 39.229768 
L 38.1651 39.208366 
L 38.19892 39.160371 
L 38.28685 39.234063 
L 38.347725 39.117946 
L 38.401836 39.242546 
L 38.411982 39.275515 
L 38.472857 39.137868 
L 38.510059 39.232077 
L 38.628427 39.232077 
L 38.533732 39.262662 
L 38.631809 39.24323 
L 38.68592 39.257014 
L 38.665628 39.190386 
L 38.709594 39.167331 
L 38.868545 39.060924 
L 38.885455 39.091003 
L 38.895601 39.116151 
L 38.956476 38.98419 
L 38.986913 39.027894 
L 39.162774 38.836265 
L 39.010587 39.041438 
L 39.176302 38.876903 
L 39.402893 38.821824 
L 39.514497 38.901006 
L 40.052226 38.794216 
L 40.241615 38.595272 
L 40.05899 38.797658 
L 40.258525 38.607888 
L 40.261907 38.625687 
L 40.339692 38.447413 
L 40.502025 36.545818 
L 40.518935 26.546613 
L 40.586574 42.438918 
L 40.603483 42.654476 
L 40.688032 42.20831 
L 41.178414 39.898207 
L 41.185178 39.926648 
L 41.472644 39.442322 
L 41.479408 39.464052 
L 41.526755 39.296972 
L 41.557192 39.308487 
L 41.854804 38.868964 
L 41.868331 38.882442 
L 41.959644 38.912126 
L 41.885241 38.84755 
L 41.983318 38.889505 
L 42.402679 37.562003 
L 42.426353 35.46035 
L 42.43988 26.610409 
L 42.524429 42.673533 
L 42.527811 42.665133 
L 42.575158 42.442698 
L 42.933644 40.6292 
L 42.947172 40.650984 
L 43.474756 39.517448 
L 43.488284 39.555746 
L 43.555923 39.413732 
L 43.56945 39.431005 
L 44.053069 39.178285 
L 44.056451 39.194332 
L 44.110562 39.260571 
L 44.164673 39.168667 
L 44.239076 39.196983 
L 44.181583 39.132012 
L 44.279659 39.160078 
L 44.310097 39.103732 
L 44.370972 39.21361 
L 44.401409 39.157381 
L 44.411555 39.145112 
L 44.573888 39.170399 
L 44.678729 39.068655 
L 44.590798 39.179046 
L 44.695638 39.11083 
L 44.736222 39.224899 
L 44.773423 39.085137 
L 44.814007 39.156805 
L 44.898555 39.041441 
L 45.003396 38.889834 
L 45.033833 38.961285 
L 45.148819 39.038563 
L 45.155583 39.035003 
L 45.246896 38.952043 
L 45.307771 38.880738 
L 45.260424 38.956719 
L 45.361882 38.92097 
L 45.503924 39.05965 
L 45.534361 39.016762 
L 45.558035 38.951081 
L 45.642583 39.044565 
L 45.686549 39.075678 
L 45.764333 38.999506 
L 45.774479 39.041415 
L 45.82859 38.918562 
L 45.86241 38.937972 
L 45.980778 38.709251 
L 46.011216 38.767757 
L 46.055181 38.817574 
L 46.021361 38.761521 
L 46.112674 38.728286 
L 46.180313 38.690068 
L 46.143111 38.756768 
L 46.217514 38.754799 
L 46.34941 38.844345 
L 46.224278 38.744507 
L 46.389994 38.774841 
L 46.417049 38.731882 
L 46.494834 38.810527 
L 46.50498 38.768718 
L 46.978452 38.635552 
L 47.205043 38.390059 
L 47.215188 38.399247 
L 47.21857 38.408362 
L 47.279445 38.302544 
L 47.292973 38.303861 
L 47.424869 37.463155 
L 47.445161 35.652648 
L 47.458689 26.669652 
L 47.539855 42.619369 
L 47.543237 42.615543 
L 47.61764 42.238245 
L 47.867904 40.752788 
L 47.87805 40.75236 
L 47.905105 40.641449 
L 48.263592 39.600706 
L 48.270356 39.609816 
L 48.331231 39.494717 
L 48.341377 39.504445 
L 48.652516 39.292632 
L 48.662661 39.338644 
L 48.676189 39.367789 
L 48.740446 39.246289 
L 48.743828 39.250525 
L 48.76412 39.258176 
L 48.808085 39.34452 
L 48.831759 39.39397 
L 48.896016 39.284561 
L 48.909544 39.299057 
L 49.078641 39.01671 
L 49.153044 39.109872 
L 49.237592 39.082474 
L 49.190245 39.032022 
L 49.240974 39.042816 
L 49.366106 38.988432 
L 49.278176 39.090386 
L 49.379634 39.01775 
L 49.481092 38.989182 
L 49.393162 38.98784 
L 49.487856 38.973385 
L 49.751648 39.056111 
L 49.832815 39.085777 
L 49.802377 39.030888 
L 49.863252 39.05754 
L 49.995148 38.901641 
L 50.096607 38.940351 
L 50.103371 38.963613 
L 50.252176 39.131911 
L 51.141628 39.213335 
L 51.216031 39.153094 
L 51.253232 39.218693 
L 51.310725 39.140761 
L 51.28367 39.234227 
L 51.381746 39.17664 
L 51.520406 39.242558 
L 51.402038 39.158485 
L 51.52717 39.226051 
L 51.628628 39.213555 
L 51.571135 39.300676 
L 51.63201 39.24056 
L 51.760524 39.310929 
L 51.763906 39.303366 
L 51.818017 39.412616 
L 51.831545 39.406259 
L 51.983733 39.641631 
L 51.997261 39.599444 
L 52.017552 39.5863 
L 52.064899 39.68429 
L 52.068281 39.684879 
L 52.190031 39.773735 
L 52.193413 39.767684 
L 52.288108 39.623327 
L 52.325309 39.682132 
L 52.754816 39.530164 
L 52.869803 39.507833 
L 52.798782 39.569983 
L 52.873185 39.509077 
L 52.886712 39.53858 
L 52.91715 39.467723 
L 52.978025 39.471648 
L 53.045664 39.378891 
L 53.116685 39.415906 
L 53.120067 39.426485 
L 53.197851 39.317978 
L 53.218143 39.368434 
L 53.350039 39.438141 
L 53.235053 39.357027 
L 53.373713 39.417785 
L 53.600303 39.498881 
L 53.613831 39.523559 
L 53.698379 39.435233 
L 53.793074 39.438902 
L 53.742345 39.380636 
L 53.806602 39.415049 
L 53.897914 39.343193 
L 53.931734 39.375578 
L 54.06363 39.462411 
L 54.178616 39.527813 
L 54.195526 39.507208 
L 54.225963 39.571091 
L 54.30713 39.495509 
L 54.364623 39.585513 
L 54.415352 39.46142 
L 54.499901 39.409713 
L 54.530338 39.473919 
L 54.692672 39.544591 
L 54.55063 39.457105 
L 54.696054 39.525223 
L 54.706199 39.557988 
L 54.861769 39.578441 
L 54.959845 39.603286 
L 54.929408 39.521803 
L 54.973373 39.580075 
L 55.084977 39.484474 
L 55.105269 39.5029 
L 55.118797 39.524476 
L 55.189818 39.356931 
L 55.196582 39.379049 
L 55.206728 39.358816 
L 55.223637 39.423303 
L 55.274366 39.443993 
L 55.406262 39.5689 
L 55.409644 39.556333 
L 55.500957 39.604688 
L 55.528012 39.565368 
L 55.744457 39.297772 
L 55.534776 39.573873 
L 55.805332 39.390893 
L 55.842533 39.442186 
L 55.825624 39.383526 
L 55.913554 39.388032 
L 55.960902 39.333204 
L 56.001485 39.474637 
L 56.004867 39.464 
L 56.035304 39.56268 
L 56.119853 39.490254 
L 56.123235 39.494802 
L 56.157054 39.400741 
L 56.194256 39.417039 
L 56.207784 39.403549 
L 56.275423 39.501597 
L 56.299096 39.451222 
L 56.366735 39.531536 
L 56.312624 39.442886 
L 56.414082 39.451997 
L 56.647437 39.309031 
L 56.684638 39.345518 
L 56.657582 39.288707 
L 56.752277 39.267656 
L 56.904465 39.04405 
L 57.03636 39.15454 
L 57.171638 39.182204 
L 57.185166 39.1539 
L 57.364409 39.219312 
L 57.374555 39.150048 
L 57.46925 39.05597 
L 57.496305 39.078991 
L 57.709368 39.164947 
L 57.726278 39.1279 
L 57.861555 38.958379 
L 57.878465 38.991816 
L 57.898757 38.937388 
L 57.966396 38.93946 
L 58.006979 38.894453 
L 58.064472 38.976313 
L 58.074618 39.003708 
L 58.155785 38.895159 
L 58.159167 38.895376 
L 58.46016 38.690559 
L 58.463542 38.711206 
L 58.480452 38.733942 
L 58.544709 38.564414 
L 58.551472 38.568887 
L 58.558236 38.546729 
L 58.585292 38.617366 
L 58.656313 38.59202 
L 58.700278 38.624492 
L 58.72057 38.574017 
L 58.764535 38.572668 
L 58.791591 38.606317 
L 58.84232 38.487564 
L 58.845702 38.487389 
L 59.08582 38.119722 
L 59.089202 38.132952 
L 59.133167 37.887275 
L 59.183896 36.681827 
L 59.204188 26.752074 
L 59.261681 41.96021 
L 59.285355 42.563527 
L 59.373285 42.096801 
L 59.856904 39.692736 
L 59.860286 39.700038 
L 59.911015 39.555561 
L 60.360814 38.894299 
L 60.364196 38.921814 
L 60.367578 38.939571 
L 60.425071 38.726937 
L 60.448744 38.782344 
L 60.577258 38.495973 
L 60.59755 38.505023 
L 60.651661 38.385771 
L 60.817376 35.176083 
L 60.830904 26.670344 
L 60.912071 42.658384 
L 60.918835 42.634624 
L 61.003383 42.202719 
L 61.334814 40.46796 
L 61.561405 39.847131 
L 61.568168 39.853991 
L 61.784613 39.3694 
L 61.855634 39.416922 
L 61.859016 39.419721 
L 61.882689 39.350633 
L 61.906363 39.326225 
L 62.034877 39.161794 
L 62.045023 39.175745 
L 62.12619 39.132152 
L 62.07546 39.124106 
L 62.132954 39.122201 
L 62.251322 38.982744 
L 62.264849 39.009012 
L 62.359544 39.056376 
L 62.376454 38.995007 
L 62.525259 38.759047 
L 62.663919 38.541883 
L 62.670683 38.550846 
L 62.785669 38.586701 
L 62.97844 38.17989 
L 62.981822 38.184806 
L 63.019023 38.047709 
L 63.062989 37.731572 
L 63.096808 36.398768 
L 63.113718 26.717563 
L 63.184739 42.576445 
L 63.191503 42.640489 
L 63.272669 42.279151 
L 63.468822 41.209602 
L 63.719086 40.262877 
L 63.810399 39.948761 
L 63.938913 39.72099 
L 63.942295 39.739074 
L 63.945677 39.758548 
L 64.033607 39.643697 
L 64.175649 39.397388 
L 64.500316 39.219339 
L 64.547663 39.170815 
L 64.591628 39.25747 
L 64.601774 39.242685 
L 64.666031 39.368695 
L 64.720142 39.312128 
L 65.203761 38.921743 
L 65.210525 38.941637 
L 65.318747 38.962706 
L 65.247726 38.900478 
L 65.322129 38.955073 
L 65.457407 38.878196 
L 65.491226 38.926968 
L 65.521664 38.90336 
L 65.606212 38.970349 
L 65.731344 38.901352 
L 65.836185 38.915587 
L 65.771928 38.85844 
L 65.842949 38.910681 
L 65.974845 38.8776 
L 65.98499 38.924072 
L 66.028956 38.845859 
L 66.086449 38.882 
L 66.127032 38.972278 
L 66.231872 39.047943 
L 66.170997 38.927948 
L 66.242018 39.027685 
L 66.417879 38.956097 
L 66.431407 38.997157 
L 66.519338 39.042413 
L 66.451699 38.972088 
L 66.543011 39.017059 
L 66.688435 38.874825 
L 66.556539 39.049317 
L 66.691817 38.877127 
L 66.718873 38.899082 
L 66.78313 38.745368 
L 66.860914 38.762266 
L 66.928553 38.591306 
L 66.969137 38.589323 
L 66.99281 38.491793 
L 66.999574 38.494604 
L 67.226165 38.017782 
L 67.229547 38.027531 
L 67.232929 38.028215 
L 67.243074 37.954488 
L 67.246456 37.941818 
L 67.300567 36.297146 
L 67.317477 26.728812 
L 67.39188 42.572573 
L 67.405408 42.593919 
L 67.452755 42.382271 
L 67.692873 40.952618 
L 68.102089 39.690628 
L 68.118998 39.700998 
L 68.193401 39.617821 
L 68.203547 39.65326 
L 68.450429 39.193771 
L 68.460575 39.219381 
L 68.528214 39.096701 
L 68.6432 38.901281 
L 68.687165 38.970257 
L 68.704075 38.927789 
L 68.808915 39.030362 
L 68.866409 39.080535 
L 68.92052 39.0136 
L 69.055798 39.135011 
L 68.934048 39.002828 
L 69.065943 39.120857 
L 69.363555 38.844397 
L 69.072707 39.129791 
L 69.370319 38.850753 
L 69.387228 38.885545 
L 69.475159 38.794117 
L 69.607055 38.603839 
L 69.613819 38.622822 
L 69.711895 38.625026 
L 69.637492 38.598968 
L 69.725423 38.618107 
L 70.026416 38.70083 
L 70.036562 38.680687 
L 70.104201 38.628959 
L 70.151548 38.673459 
L 70.168458 38.675789 
L 70.18875 38.585065 
L 70.195513 38.582248 
L 70.232715 38.527225 
L 70.296972 38.613128 
L 70.303736 38.587163 
L 70.361229 38.637891 
L 70.41534 38.590075 
L 70.486361 38.559249 
L 70.442396 38.596676 
L 70.530326 38.572898 
L 70.645312 38.50383 
L 70.679132 38.555083 
L 70.773826 38.416407 
L 70.966597 36.343385 
L 70.983507 26.685618 
L 71.054528 42.601271 
L 71.064674 42.652501 
L 71.128931 42.357736 
L 71.193188 41.966372 
L 71.599021 40.270562 
L 71.64975 40.218679 
L 71.632841 40.182117 
L 71.663278 40.188685 
L 71.818848 39.902461 
L 71.82223 39.914518 
L 71.825612 39.925832 
L 71.889869 39.800886 
L 71.91016 39.835604 
L 72.045438 39.608369 
L 72.640661 39.212873 
L 72.055584 39.624232 
L 72.644043 39.23622 
L 72.728591 39.305729 
L 72.671098 39.216977 
L 72.769175 39.261579 
L 72.894307 39.209187 
L 72.775938 39.283957 
L 72.907834 39.220722 
L 73.432036 39.18792 
L 73.489529 39.069754 
L 73.550404 39.113379 
L 73.672154 39.197616 
L 73.749939 39.238092 
L 73.702592 39.176183 
L 73.780377 39.187759 
L 73.895363 39.074442 
L 73.80405 39.192229 
L 73.90889 39.090029 
L 74.074606 39.02298 
L 74.077988 39.047832 
L 74.4128 39.281972 
L 74.436474 39.24405 
L 74.541314 39.164043 
L 74.554842 39.1849 
L 74.649537 39.154774 
L 74.592044 39.144882 
L 74.652919 39.148917 
L 74.740849 38.970914 
L 74.784815 39.031479 
L 74.818634 39.07542 
L 74.876127 38.986899 
L 74.896419 39.038644 
L 75.021551 39.114644 
L 74.960676 39.006882 
L 75.028315 39.110149 
L 75.079044 38.989911 
L 75.163593 39.068857 
L 75.166975 39.08751 
L 75.231231 38.939523 
L 75.251523 38.94492 
L 75.3496 38.932343 
L 75.359745 38.989254 
L 75.982024 39.267321 
L 76.083482 39.19297 
L 76.110538 39.212269 
L 76.252579 39.403302 
L 76.262725 39.383737 
L 76.350656 39.381581 
L 76.333746 39.446187 
L 76.367565 39.401027 
L 76.47917 39.486111 
L 76.485934 39.47573 
L 76.489316 39.487644 
L 76.560336 39.357295 
L 76.58401 39.417159 
L 76.685468 39.358522 
L 76.68885 39.343355 
L 76.776781 39.320149 
L 76.73958 39.393504 
L 76.793691 39.376739 
L 76.817364 39.413908 
L 76.881621 39.251258 
L 76.888385 39.256136 
L 76.915441 39.264758 
L 76.935732 39.214674 
L 76.989844 39.218954 
L 77.013517 39.249468 
L 77.19276 39.107647 
L 77.270545 39.287098 
L 77.33142 39.243868 
L 77.520809 39.178276 
L 77.547865 39.149456 
L 77.601976 39.254644 
L 77.618886 39.240455 
L 78.146469 39.385316 
L 78.254691 39.304812 
L 78.203962 39.40448 
L 78.261455 39.345039 
L 78.305421 39.397588 
L 78.359532 39.29995 
L 78.362914 39.279795 
L 78.454226 39.395266 
L 78.457608 39.384421 
L 78.511719 39.377753 
L 78.498192 39.3126 
L 78.552303 39.329554 
L 78.660525 39.282193 
L 78.606414 39.379102 
L 78.670671 39.305849 
L 78.920935 39.365895 
L 78.924317 39.354123 
L 78.988574 39.296139 
L 79.029157 39.370102 
L 79.117088 39.438383 
L 79.144143 39.389184 
L 79.248984 39.308915 
L 79.262511 39.31598 
L 79.428227 39.364146 
L 79.519539 39.272487 
L 79.438373 39.37183 
L 79.566887 39.30493 
L 79.634526 39.244289 
L 79.678491 39.306156 
L 79.820533 39.319027 
L 79.827296 39.306347 
L 79.857734 39.284207 
L 79.915227 39.38064 
L 79.918609 39.375292 
L 79.959192 39.45483 
L 80.030213 39.392887 
L 80.165491 39.203865 
L 80.168873 39.213073 
L 80.199311 39.239612 
L 80.260186 39.132315 
L 80.304151 39.146398 
L 80.321061 39.223294 
L 80.425901 39.266539 
L 80.351498 39.16929 
L 80.432665 39.242222 
L 80.496922 39.314107 
L 80.540887 39.263535 
L 80.611908 39.306962 
L 80.645727 39.221793 
L 80.649109 39.241877 
L 80.733658 39.140432 
L 80.760714 39.247956 
L 81.369464 39.360871 
L 81.372846 39.338648 
L 81.619728 39.264554 
L 81.626492 39.288544 
L 81.646784 39.327009 
L 81.711041 39.214921 
L 81.72795 39.232022 
L 81.829409 39.25109 
L 81.771916 39.18741 
L 81.842936 39.227473 
L 81.876756 39.194276 
L 81.937631 39.28703 
L 81.947777 39.266319 
L 82.028944 39.271988 
L 81.961305 39.290417 
L 82.039089 39.304247 
L 82.116874 39.379168 
L 82.157457 39.362138 
L 82.302881 39.176548 
L 82.201423 39.372484 
L 82.306263 39.183895 
L 82.356992 39.126593 
L 82.438159 39.211919 
L 82.455069 39.226774 
L 82.583583 39.089242 
L 82.793263 38.946573 
L 82.806791 38.980308 
L 82.867666 39.041453 
L 82.833847 38.959962 
L 82.928541 38.999528 
L 82.972507 38.966525 
L 83.023236 39.039989 
L 83.033382 39.03071 
L 83.036764 39.060771 
L 83.13484 38.963181 
L 83.138222 38.972874 
L 83.226153 38.914807 
L 83.155132 38.986832 
L 83.253208 38.929144 
L 83.341139 38.9031 
L 83.266736 38.886764 
L 83.358048 38.886222 
L 83.418923 38.898338 
L 83.371576 38.923384 
L 83.449361 38.948563 
L 83.456125 38.966722 
L 83.506854 38.840705 
L 83.544055 38.869904 
L 83.679333 38.704157 
L 83.682715 38.713731 
L 83.740208 38.799399 
L 83.699625 38.709438 
L 83.790938 38.70659 
L 83.794319 38.699846 
L 83.841667 38.808308 
L 83.868722 38.775915 
L 83.872104 38.803008 
L 83.949889 38.593191 
L 83.956653 38.601852 
L 84.068257 38.535513 
L 83.976945 38.616872 
L 84.071639 38.540439 
L 84.254264 38.437249 
L 84.257646 38.467667 
L 84.345577 38.268332 
L 84.491 36.437429 
L 84.50791 26.672938 
L 84.578931 42.515363 
L 84.592459 42.583419 
L 84.660098 42.239908 
L 84.971237 40.407186 
L 85.062549 40.10744 
L 85.248556 39.58647 
L 85.285758 39.609883 
L 85.28914 39.615192 
L 85.353397 39.525419 
L 85.360161 39.528206 
L 85.366925 39.530731 
L 85.559695 39.204971 
L 85.563077 39.208761 
L 85.593515 39.127226 
L 85.634098 39.124728 
L 85.722029 38.946241 
L 85.772758 39.012969 
L 85.789668 39.0262 
L 85.93171 38.879533 
L 85.999348 38.757501 
L 86.134626 38.54089 
L 86.14139 38.551882 
L 86.144772 38.560689 
L 86.222557 38.470792 
L 86.391654 37.99039 
L 86.415328 37.86384 
L 86.455911 36.568106 
L 86.472821 26.698997 
L 86.537078 42.336886 
L 86.553988 42.644104 
L 86.641918 42.208417 
L 87.473877 39.360994 
L 87.477259 39.380416 
L 87.490787 39.432205 
L 87.558426 39.316835 
L 87.56519 39.316445 
L 87.602391 39.351007 
L 87.68694 39.195487 
L 87.876329 38.918793 
L 88.089391 38.793426 
L 88.214523 38.595228 
L 88.261871 38.651764 
L 88.29569 38.540421 
L 88.326128 38.588046 
L 88.420822 38.489658 
L 88.468169 38.554776 
L 88.583155 38.723345 
L 88.600065 38.70356 
L 88.809746 38.431562 
L 88.637267 38.74051 
L 88.819892 38.446171 
L 88.897676 38.377235 
L 88.867239 38.369798 
L 88.901058 38.369906 
L 89.039718 38.153222 
L 89.0431 38.154406 
L 89.154704 37.898495 
L 89.205434 36.735695 
L 89.225725 26.832201 
L 89.279836 41.616351 
L 89.306892 42.605098 
L 89.394823 42.181271 
L 89.590975 40.997228 
L 89.763455 40.331088 
L 89.780364 40.356174 
L 89.837857 40.191425 
L 90.18958 39.70743 
L 90.192962 39.711412 
L 90.260601 39.614277 
L 90.382351 39.475086 
L 90.277511 39.673009 
L 90.402643 39.494893 
L 90.933608 39.304247 
L 90.412788 39.529943 
L 90.93699 39.31864 
L 91.035066 39.351377 
L 91.004629 39.28498 
L 91.051976 39.346475 
L 91.068886 39.296896 
L 91.068886 39.296896 
" clip-path="url(#p3300cc0b16)" style="fill: none; stroke: #000000; stroke-width: 0.6; stroke-linecap: square"/>
   </g>
   <g id="line2d_3">
    <path d="M 9.905557 57.765337 
L 10.094946 56.686365 
L 10.220078 56.465819 
L 10.341828 56.388945 
L 10.34521 56.393813 
L 10.375648 56.433917 
L 10.399321 56.362723 
L 10.446668 56.349866 
L 10.494016 56.344253 
L 10.517689 56.26732 
L 10.521071 56.269475 
L 10.551509 56.325873 
L 10.791627 55.410322 
L 10.811919 52.857253 
L 10.822064 43.897593 
L 10.909995 58.865084 
L 10.916759 58.807916 
L 11.244808 56.6008 
L 11.24819 56.608536 
L 11.298919 56.505395 
L 11.319211 56.512098 
L 11.45787 56.312555 
L 11.33612 56.516185 
L 11.468016 56.326138 
L 11.471398 56.337545 
L 11.549183 56.225226 
L 11.769009 55.130399 
L 11.782537 51.757168 
L 11.789301 43.894831 
L 11.877232 58.869916 
L 11.887378 58.800158 
L 12.171461 56.774242 
L 12.276301 56.556318 
L 12.414961 56.375154 
L 12.431871 56.389441 
L 12.573913 56.343242 
L 12.675371 56.235666 
L 12.695663 56.246811 
L 12.699045 56.260694 
L 12.756538 56.068715 
L 12.766684 56.076976 
L 12.844468 55.958462 
L 12.935781 55.077053 
L 12.949309 49.784069 
L 12.956073 43.883822 
L 13.044003 58.817943 
L 13.054149 58.727136 
L 13.375434 56.600723 
L 13.382198 56.606962 
L 13.520858 56.353408 
L 13.561441 56.381095 
L 13.581733 56.409828 
L 13.615552 56.301022 
L 13.777886 55.982546 
L 13.781267 55.985517 
L 13.801559 55.872542 
L 13.862434 55.042499 
L 13.875962 48.040778 
L 13.882726 43.930781 
L 13.963893 58.874361 
L 13.97742 58.830184 
L 14.22092 56.941181 
L 14.224302 56.941873 
L 14.244594 56.85795 
L 14.25474 56.836375 
L 14.437365 56.4709 
L 14.450893 56.494874 
L 15.022442 55.838749 
L 15.073171 54.456797 
L 15.086699 43.87019 
L 15.167865 58.818027 
L 15.171247 58.849084 
L 15.225359 58.382391 
L 15.475623 56.774252 
L 15.668393 56.443303 
L 15.671775 56.467406 
L 15.729269 56.455969 
L 15.742796 56.392062 
L 15.74956 56.38855 
L 15.901748 56.122418 
L 15.90513 56.131858 
L 15.966005 55.991601 
L 16.060699 55.008924 
L 16.074227 47.199868 
L 16.080991 43.941541 
L 16.16554 58.854677 
L 16.172303 58.816932 
L 16.53079 56.615105 
L 16.581519 56.616153 
L 16.608575 56.551282 
L 16.622102 56.556526 
L 16.787818 56.254986 
L 16.794582 56.265605 
L 16.852075 56.285452 
L 16.875748 56.212946 
L 16.89604 56.224802 
L 16.902804 56.232593 
L 17.065137 55.855865 
L 17.126012 54.136392 
L 17.136158 43.895714 
L 17.224089 58.861403 
L 17.227471 58.851273 
L 17.339075 57.826747 
L 17.616395 56.582797 
L 17.619777 56.583393 
L 17.62654 56.613326 
L 17.697561 56.519956 
L 17.721235 56.535758 
L 17.978263 56.123327 
L 17.727999 56.540528 
L 17.988409 56.137587 
L 18.089867 56.023949 
L 18.184562 55.160865 
L 18.198089 52.557962 
L 18.204853 43.931582 
L 18.292784 58.848518 
L 18.30293 58.780646 
L 18.52952 56.980468 
L 18.908298 56.368261 
L 18.91168 56.377108 
L 18.931972 56.409206 
L 19.006374 56.303249 
L 19.009756 56.304751 
L 19.243111 54.782025 
L 19.26002 43.910154 
L 19.327659 57.577343 
L 19.344569 58.866432 
L 19.439264 58.01863 
L 19.652326 56.716379 
L 19.79775 56.505626 
L 19.939792 56.317241 
L 19.811278 56.520214 
L 19.956701 56.336531 
L 20.044632 56.370293 
L 20.064924 56.317144 
L 20.200202 56.046697 
L 20.081833 56.323942 
L 20.206965 56.074808 
L 20.305042 55.704594 
L 20.342243 54.692428 
L 20.355771 43.888664 
L 20.430174 58.406847 
L 20.44032 58.846976 
L 20.535014 58.012631 
L 20.781896 56.644806 
L 20.78866 56.662651 
L 20.792042 56.66471 
L 20.825862 56.559599 
L 20.961139 56.475128 
L 20.876591 56.606939 
L 20.964521 56.483639 
L 20.967903 56.501178 
L 21.035542 56.352258 
L 21.04907 56.36517 
L 21.191112 56.197125 
L 21.201258 56.202366 
L 21.208022 56.224081 
L 21.265515 56.084194 
L 21.272278 56.086351 
L 21.346681 55.730842 
L 21.387265 54.242547 
L 21.397411 43.919558 
L 21.485341 58.877249 
L 21.522543 58.568059 
L 21.749133 56.890907 
L 22.046744 56.436619 
L 22.050126 56.448256 
L 22.053508 56.464165 
L 22.117765 56.324008 
L 22.144821 56.360203 
L 22.205696 56.290167 
L 22.259807 56.340801 
L 22.30039 56.314023 
L 22.378175 56.391438 
L 22.526981 56.128135 
L 22.533744 56.152367 
L 22.537126 56.156084 
L 22.557418 56.031724 
L 22.564182 56.032098 
L 22.641967 54.759104 
L 22.655495 43.853815 
L 22.729897 58.156524 
L 22.746807 58.885033 
L 22.83812 58.031072 
L 23.041036 56.739573 
L 23.389377 56.323034 
L 23.396141 56.353113 
L 23.402905 56.36169 
L 23.46378 56.260503 
L 23.470544 56.271019 
L 23.693752 55.052951 
L 23.70728 48.000274 
L 23.714044 43.896354 
L 23.801974 58.840548 
L 23.808738 58.797301 
L 24.326176 56.326108 
L 24.33294 56.339531 
L 24.535857 56.154512 
L 24.546003 56.171129 
L 24.603496 56.049021 
L 24.617023 56.047685 
L 24.745537 54.913977 
L 24.762447 43.898717 
L 24.830086 57.236174 
L 24.850378 58.825508 
L 24.94169 57.964287 
L 25.212246 56.611473 
L 25.21901 56.614412 
L 25.405017 56.250405 
L 25.455746 56.312654 
L 25.47942 56.346322 
L 25.533531 56.217755 
L 25.547059 56.239436 
L 25.753357 55.305618 
L 25.770267 52.698765 
L 25.780413 43.927559 
L 25.864962 58.873379 
L 25.875107 58.806435 
L 26.399309 56.314186 
L 26.422983 56.351882 
L 26.439892 56.374997 
L 26.460184 56.280323 
L 26.517677 56.304049 
L 26.683393 56.149282 
L 26.693538 56.163016 
L 26.703684 56.164207 
L 26.737504 56.048868 
L 26.85249 55.262511 
L 26.8694 51.256331 
L 26.876163 43.878244 
L 26.964094 58.852831 
L 26.97424 58.759677 
L 27.37331 56.506917 
L 27.393601 56.517117 
L 27.579608 56.315066 
L 27.410511 56.528089 
L 27.586372 56.321357 
L 27.640483 56.324817 
L 27.670921 56.24425 
L 27.674303 56.249631 
L 27.792671 55.967519 
L 27.87722 54.39394 
L 27.890747 43.902584 
L 27.971914 58.851359 
L 27.975296 58.881719 
L 28.029407 58.410123 
L 28.354074 56.597517 
L 28.357456 56.598054 
L 28.36422 56.607456 
L 28.435241 56.507999 
L 28.442005 56.519148 
L 28.560373 56.355245 
L 28.580664 56.379293 
L 28.587428 56.397034 
L 28.638158 56.272026 
L 28.651685 56.288443 
L 28.702414 56.255384 
L 28.72947 56.31253 
L 28.76329 56.27366 
L 28.857984 56.167479 
L 28.986498 55.142775 
L 29.000026 51.772961 
L 29.00679 43.875981 
L 29.098102 58.852595 
L 29.104866 58.806227 
L 29.402477 56.730788 
L 29.416005 56.73762 
L 29.419387 56.747932 
L 29.463352 56.554832 
L 29.470116 56.56026 
L 29.574957 56.433005 
L 29.595248 56.452781 
L 29.696707 56.532585 
L 29.618922 56.43131 
L 29.727144 56.475699 
L 29.950353 56.012733 
L 30.017992 55.626093 
L 30.051811 54.182006 
L 30.061957 43.909135 
L 30.149887 58.863899 
L 30.153269 58.859849 
L 30.508374 56.591358 
L 30.515138 56.602576 
L 31.049485 55.605552 
L 31.079923 54.477015 
L 31.093451 43.893701 
L 31.174617 58.847207 
L 31.177999 58.87488 
L 31.23211 58.404878 
L 31.485756 56.692647 
L 31.522958 56.704938 
L 31.678527 56.499467 
L 31.692055 56.510355 
L 31.695437 56.514159 
L 31.729256 56.426777 
L 31.759694 56.424998 
L 31.918645 56.163541 
L 31.952465 56.179956 
L 31.962611 56.203878 
L 32.040395 56.052405 
L 32.043777 56.055231 
L 32.074215 55.945137 
L 32.084361 55.944676 
L 32.168909 55.409038 
L 32.189201 54.031555 
L 32.199347 43.88822 
L 32.283896 58.826963 
L 32.290659 58.824394 
L 32.608562 56.655559 
L 32.611944 56.663617 
L 32.652528 56.533173 
L 32.672819 56.526582 
L 32.753986 56.391481 
L 32.801333 56.418825 
L 32.818243 56.450049 
L 32.885882 56.376004 
L 32.906174 56.386123 
L 33.169966 55.649667 
L 33.203785 53.806841 
L 33.213931 43.870836 
L 33.301861 58.89921 
L 33.308625 58.860887 
L 33.613 56.742173 
L 33.802389 56.445033 
L 33.812535 56.450095 
L 33.853119 56.468742 
L 33.893702 56.377265 
L 33.910612 56.396405 
L 33.92414 56.404677 
L 34.110147 56.141756 
L 34.113529 56.165894 
L 34.181167 55.873489 
L 34.242043 54.206026 
L 34.252188 43.891471 
L 34.340119 58.896619 
L 34.343501 58.889382 
L 34.367175 58.679338 
L 34.712133 56.607914 
L 34.718897 56.612548 
L 34.752716 56.641642 
L 34.803446 56.542309 
L 34.816973 56.562986 
L 34.965779 56.338779 
L 34.975925 56.373674 
L 34.982689 56.39931 
L 35.040182 56.267456 
L 35.070619 56.273037 
L 35.273536 55.708871 
L 35.300592 55.276182 
L 35.317501 50.996254 
L 35.324265 43.866788 
L 35.412196 58.887695 
L 35.422342 58.824222 
L 35.949925 56.371463 
L 35.973599 56.429979 
L 36.04462 56.481718 
L 36.071675 56.373876 
L 36.075057 56.386701 
L 36.119023 56.336419 
L 36.169752 56.433257 
L 36.176516 56.449171 
L 36.227245 56.292675 
L 36.254301 56.313461 
L 36.264446 56.319479 
L 36.291502 56.216315 
L 36.308412 56.228747 
L 36.494419 53.45542 
L 36.504565 43.870899 
L 36.589113 58.850474 
L 36.599259 58.79877 
L 36.998329 56.524948 
L 37.059204 56.551212 
L 37.042294 56.500226 
L 37.103169 56.50752 
L 37.116697 56.517278 
L 37.414308 55.478927 
L 37.437982 53.391182 
L 37.448128 43.905645 
L 37.536058 58.907513 
L 37.542822 58.867812 
L 37.809996 56.888827 
L 37.81676 56.903754 
L 37.833669 56.768143 
L 38.012913 56.580538 
L 38.016295 56.586314 
L 38.023058 56.606709 
L 38.056878 56.523811 
L 38.100843 56.521989 
L 38.253031 56.396642 
L 38.317288 56.300399 
L 38.506677 55.319594 
L 38.523586 52.831121 
L 38.533732 43.908762 
L 38.618281 58.899261 
L 38.628427 58.852101 
L 38.936184 56.706045 
L 38.959858 56.743921 
L 39.020733 56.632782 
L 39.149247 56.496775 
L 39.169538 56.511737 
L 39.237177 56.410019 
L 39.240559 56.421996 
L 39.521261 54.947055 
L 39.53817 43.88178 
L 39.605809 56.515009 
L 39.626101 58.895885 
L 39.717414 58.070006 
L 39.930476 56.753738 
L 39.940622 56.78433 
L 39.950768 56.788787 
L 39.981205 56.694702 
L 40.086046 56.502109 
L 40.113101 56.546927 
L 40.119865 56.553804 
L 40.177358 56.44938 
L 40.356601 56.213098 
L 40.207796 56.478623 
L 40.363365 56.235618 
L 40.400567 56.260503 
L 40.461442 56.16786 
L 40.485115 56.189663 
L 40.681268 55.66121 
L 40.71847 53.755768 
L 40.728615 43.873989 
L 40.813164 58.820228 
L 40.82331 58.768267 
L 41.246053 56.43492 
L 41.401623 56.238665 
L 41.418533 56.250226 
L 41.560574 55.967307 
L 41.631595 55.226121 
L 41.645123 53.277303 
L 41.655269 43.906934 
L 41.739817 58.897999 
L 41.749963 58.852511 
L 42.050956 56.786305 
L 42.182852 56.559971 
L 42.199762 56.573272 
L 42.21329 56.579997 
L 42.253873 56.473902 
L 42.402679 56.398721 
L 42.412825 56.432997 
L 42.453408 56.492486 
L 42.510901 56.35484 
L 42.521047 56.407992 
L 42.615742 56.347259 
L 42.639415 56.380142 
L 42.68338 56.420366 
L 42.730728 56.298543 
L 42.930263 54.785806 
L 42.947172 43.88848 
L 43.014811 57.244131 
L 43.031721 58.840391 
L 43.126415 57.976558 
L 43.373297 56.606798 
L 43.376679 56.619213 
L 43.437554 56.450365 
L 43.440936 56.46959 
L 43.56945 56.340719 
L 43.606652 56.361928 
L 43.643853 56.23577 
L 43.653999 56.250277 
L 43.806187 55.251949 
L 43.823096 50.3558 
L 43.82986 43.895205 
L 43.914409 58.901982 
L 43.927937 58.833424 
L 44.255985 56.696177 
L 44.266131 56.705845 
L 44.296569 56.584599 
L 44.303333 56.587054 
L 44.425083 56.457902 
L 44.431847 56.470686 
L 44.445374 56.499595 
L 44.516395 56.366226 
L 44.523159 56.378407 
L 44.638145 56.259159 
L 44.793715 55.780872 
L 44.807243 55.705793 
L 44.844444 54.140476 
L 44.85459 43.912167 
L 44.942521 58.866553 
L 44.945902 58.860236 
L 45.331444 56.614705 
L 45.578326 56.383701 
L 45.591854 56.427662 
L 45.629056 56.440543 
L 45.669639 56.348601 
L 46.00107 55.972149 
L 46.075473 55.256901 
L 46.092382 50.832459 
L 46.099146 43.856112 
L 46.183695 58.842049 
L 46.197223 58.76722 
L 46.515126 56.665078 
L 46.684223 56.373479 
L 46.795827 56.388043 
L 46.802591 56.378646 
L 46.958161 55.996233 
L 46.978452 55.988505 
L 47.00889 55.899052 
L 47.039327 55.758667 
L 47.079911 55.112847 
L 47.093438 50.855757 
L 47.100202 43.894124 
L 47.184751 58.826794 
L 47.198279 58.753078 
L 47.593966 56.515268 
L 47.597348 56.528786 
L 47.729244 56.50734 
L 47.732626 56.49538 
L 47.800265 56.353141 
L 47.854376 56.363223 
L 47.89496 56.269515 
L 48.097876 54.848307 
L 48.114786 43.882471 
L 48.182425 57.091344 
L 48.199335 58.889683 
L 48.294029 58.052868 
L 48.645752 56.517886 
L 48.703245 56.517469 
L 48.652516 56.497136 
L 48.726918 56.472503 
L 48.804703 56.269886 
L 48.855432 56.291891 
L 49.004238 56.159087 
L 49.011002 56.180209 
L 49.061731 56.010929 
L 49.092169 56.057019 
L 49.257884 54.235234 
L 49.271412 43.93228 
L 49.352579 58.811342 
L 49.35596 58.805964 
L 49.437127 58.051108 
L 49.6671 56.670766 
L 49.812523 56.399594 
L 49.849725 56.415085 
L 49.853107 56.448072 
L 49.937655 56.288777 
L 49.947801 56.297839 
L 49.954565 56.312602 
L 50.01544 56.197435 
L 50.025586 56.195203 
L 50.133808 55.952409 
L 50.231885 54.22649 
L 50.24203 43.947245 
L 50.329961 58.858748 
L 50.482149 57.52296 
L 50.67492 56.636432 
L 50.685065 56.647267 
L 50.820343 56.476398 
L 50.823725 56.490871 
L 50.864308 56.428629 
L 50.911656 56.420067 
L 51.036788 56.237225 
L 51.043552 56.239335 
L 51.202503 56.283468 
L 51.212649 56.245312 
L 51.402038 54.670387 
L 51.415566 43.866864 
L 51.489969 58.404018 
L 51.503496 58.84472 
L 51.594809 58.013146 
L 51.828163 56.650986 
L 51.878892 56.528021 
L 52.034462 56.368148 
L 52.382802 55.976941 
L 52.463969 55.17238 
L 52.477497 52.61292 
L 52.484261 43.929704 
L 52.572191 58.844943 
L 52.582337 58.76963 
L 53.02199 56.446586 
L 53.116685 56.400195 
L 53.05581 56.403842 
L 53.120067 56.394076 
L 53.26549 56.135392 
L 53.279018 56.140993 
L 53.285782 56.153094 
L 53.356803 56.038917 
L 53.417678 55.725926 
L 53.458261 53.931261 
L 53.468407 43.879254 
L 53.556338 58.882251 
L 53.563102 58.841404 
L 53.688234 57.706527 
L 53.918206 56.573638 
L 53.948644 56.586998 
L 53.992609 56.586928 
L 54.026428 56.508548 
L 54.033192 56.5168 
L 54.171852 56.412059 
L 54.188762 56.454941 
L 54.195526 56.469336 
L 54.229345 56.405579 
L 54.27331 56.39062 
L 54.455935 56.023672 
L 54.523574 55.711981 
L 54.564158 54.449618 
L 54.577686 43.887855 
L 54.658852 58.817137 
L 54.662234 58.847999 
L 54.716345 58.376668 
L 55.05454 56.534544 
L 55.07145 56.559559 
L 55.118797 56.420873 
L 55.145852 56.451131 
L 55.287894 56.344687 
L 55.473901 56.150378 
L 55.646381 54.480861 
L 55.659908 43.877294 
L 55.741075 58.814634 
L 55.747839 58.857426 
L 55.808714 58.293483 
L 56.069124 56.665923 
L 56.072506 56.672744 
L 56.187492 56.479491 
L 56.224693 56.373671 
L 56.299096 56.461171 
L 56.302478 56.470595 
L 56.326152 56.390151 
L 56.387027 56.393308 
L 56.620381 54.963457 
L 56.637291 43.878903 
L 56.70493 56.422485 
L 56.721839 58.893135 
L 56.816534 58.047603 
L 57.080326 56.674938 
L 57.090472 56.68993 
L 57.134437 56.587129 
L 57.137819 56.587572 
L 57.293388 56.387182 
L 57.303534 56.402341 
L 57.377937 56.415498 
L 57.327208 56.368913 
L 57.408375 56.35577 
L 57.550416 56.112892 
L 57.580854 56.147387 
L 57.641729 56.054545 
L 57.651875 56.062475 
L 57.668784 56.055408 
L 57.71275 55.975032 
L 57.722896 55.986056 
L 57.804062 55.150958 
L 57.81759 52.091603 
L 57.824354 43.899835 
L 57.912285 58.811602 
L 57.92243 58.746642 
L 58.260625 56.55639 
L 58.264007 56.576719 
L 58.294444 56.591727 
L 58.351938 56.484453 
L 58.358701 56.495137 
L 58.517653 56.212415 
L 58.527799 56.22999 
L 58.534563 56.249189 
L 58.561618 56.170111 
L 58.629257 56.182122 
L 58.781445 55.612368 
L 58.815264 53.883167 
L 58.82541 43.896248 
L 58.909959 58.856656 
L 58.920105 58.805433 
L 59.420633 56.420214 
L 59.427396 56.422928 
L 59.454452 56.437832 
L 59.478126 56.381403 
L 59.525473 56.375347 
L 59.674279 56.158965 
L 59.681042 56.169389 
L 59.684424 56.174037 
L 59.708098 56.092219 
L 59.745299 56.075668 
L 59.823084 55.757359 
L 59.86705 54.583284 
L 59.880577 43.876156 
L 59.958362 58.7194 
L 59.968508 58.861237 
L 60.049675 58.115578 
L 60.546821 56.34756 
L 60.634751 56.184371 
L 60.871488 55.021604 
L 60.885015 47.336517 
L 60.891779 43.93156 
L 60.976328 58.860776 
L 60.983092 58.831832 
L 61.273939 56.785274 
L 61.287467 56.798159 
L 61.290849 56.808129 
L 61.348342 56.645366 
L 61.879308 55.743722 
L 61.923273 54.512687 
L 61.936801 43.889614 
L 62.017967 58.839708 
L 62.024731 58.870703 
L 62.058551 58.554289 
L 62.35278 56.685502 
L 62.362926 56.705594 
L 62.389981 56.600057 
L 62.410273 56.604685 
L 62.450856 56.617183 
L 62.525259 56.561218 
L 62.542169 56.577577 
L 62.59628 56.445303 
L 62.619954 56.479671 
L 62.789051 56.227597 
L 62.792433 56.232636 
L 62.805961 56.278309 
L 62.887128 56.158722 
L 62.988586 55.184392 
L 63.002114 52.028693 
L 63.008878 43.866449 
L 63.096808 58.903819 
L 63.106954 58.837515 
L 63.411329 56.72052 
L 63.593954 56.466669 
L 63.651447 56.512739 
L 63.695413 56.420761 
L 63.698795 56.430239 
L 63.813781 56.454762 
L 63.739378 56.392942 
L 63.817163 56.439105 
L 63.955823 56.268408 
L 64.040371 56.075773 
L 64.151975 54.601418 
L 64.165503 43.848918 
L 64.243288 58.686251 
L 64.253434 58.868686 
L 64.337982 58.093945 
L 64.561191 56.748208 
L 64.61192 56.591207 
L 64.743816 56.424449 
L 64.75058 56.434058 
L 64.946733 56.227305 
L 64.956879 56.260015 
L 64.960261 56.267225 
L 65.034663 56.173411 
L 65.044809 56.182 
L 65.169941 55.570912 
L 65.196997 54.000475 
L 65.207143 43.870921 
L 65.295073 58.874056 
L 65.298455 58.865176 
L 65.663705 56.612135 
L 65.957935 56.30002 
L 65.961317 56.332508 
L 66.052629 56.139974 
L 66.056011 56.152506 
L 66.12365 55.977516 
L 66.194671 55.44045 
L 66.214963 53.695472 
L 66.225109 43.884585 
L 66.316421 58.881056 
L 66.319803 58.847608 
L 66.668143 56.642455 
L 66.671525 56.662043 
L 66.725637 56.557665 
L 66.769602 56.578965 
L 66.857532 56.425654 
L 67.04354 56.086228 
L 67.046921 56.100796 
L 67.050303 56.129427 
L 67.121324 55.812798 
L 67.168672 55.148264 
L 67.182199 51.987149 
L 67.188963 43.902124 
L 67.276894 58.884058 
L 67.28704 58.831078 
L 67.571123 56.831629 
L 67.655672 56.635942 
L 67.794332 56.444825 
L 67.943137 56.413309 
L 67.966811 56.457763 
L 67.976957 56.479923 
L 68.061505 56.369806 
L 68.325297 55.42354 
L 68.345589 53.280915 
L 68.355735 43.882434 
L 68.443665 58.863983 
L 68.450429 58.806972 
L 68.717603 56.818547 
L 68.967867 56.454885 
L 68.971249 56.460024 
L 69.018596 56.533543 
L 69.072707 56.405616 
L 69.25195 56.166351 
L 69.295916 56.17388 
L 69.322971 56.070606 
L 69.444721 54.567931 
L 69.458249 43.867999 
L 69.536034 58.708215 
L 69.542798 58.8404 
L 69.623965 58.128231 
L 69.877611 56.599825 
L 69.880992 56.611588 
L 69.938486 56.479221 
L 69.962159 56.509761 
L 70.127875 56.331621 
L 70.134638 56.33812 
L 70.15493 56.354952 
L 70.178604 56.279498 
L 70.225951 56.278948 
L 70.388284 54.437524 
L 70.401812 43.902057 
L 70.482979 58.884179 
L 70.489743 58.927824 
L 70.550618 58.366924 
L 71.013944 56.50524 
L 71.078201 56.511982 
L 71.112021 56.447325 
L 71.115403 56.459261 
L 71.128931 56.469593 
L 71.16275 56.372641 
L 71.291264 56.195322 
L 71.193188 56.393695 
L 71.308174 56.217316 
L 71.311556 56.223247 
L 71.352139 56.085283 
L 71.355521 56.095191 
L 71.490799 55.17307 
L 71.504327 52.220011 
L 71.511091 43.88401 
L 71.599021 58.871145 
L 71.609167 58.804137 
L 71.964271 56.579731 
L 71.967653 56.590337 
L 72.045438 56.48515 
L 72.177334 56.383949 
L 72.055584 56.489058 
L 72.18748 56.397811 
L 72.272028 56.415964 
L 72.201008 56.374526 
L 72.299084 56.3432 
L 72.623751 55.326282 
L 72.640661 53.525617 
L 72.650806 43.878071 
L 72.735355 58.841937 
L 72.745501 58.793338 
L 73.07355 56.634219 
L 73.076932 56.63737 
L 73.103987 56.540137 
L 73.117515 56.539307 
L 73.262939 56.387336 
L 73.266321 56.395568 
L 73.273085 56.40905 
L 73.594369 55.400502 
L 73.614661 53.398763 
L 73.624807 43.907072 
L 73.709356 58.864092 
L 73.719501 58.80842 
L 74.044168 56.693692 
L 74.050932 56.717456 
L 74.054314 56.722177 
L 74.094898 56.590972 
L 74.372217 56.284106 
L 74.385745 56.307272 
L 74.470294 56.209518 
L 74.602189 55.976529 
L 74.608953 55.979417 
L 74.652919 55.943889 
L 74.666446 55.897762 
L 74.734085 54.766035 
L 74.750995 43.9155 
L 74.818634 57.787587 
L 74.835544 58.825255 
L 74.930238 57.956437 
L 75.116245 56.741691 
L 75.129773 56.754836 
L 75.163593 56.630517 
L 75.173738 56.637394 
L 75.31578 56.466406 
L 75.511933 56.246864 
L 75.518697 56.253268 
L 75.538989 56.201674 
L 75.596482 56.183307 
L 75.806162 54.806684 
L 75.823072 43.900606 
L 75.890711 57.465136 
L 75.907621 58.854935 
L 76.002315 58.013065 
L 76.245815 56.681125 
L 76.249197 56.685072 
L 76.394621 56.46704 
L 76.398003 56.470568 
L 76.401385 56.48441 
L 76.482552 56.361484 
L 76.614448 56.267886 
L 76.627975 56.29725 
L 76.634739 56.28324 
L 76.719288 56.237452 
L 76.864712 54.889071 
L 76.881621 43.865132 
L 76.94926 56.327085 
L 76.969552 58.907155 
L 77.060864 58.077574 
L 77.273927 56.786626 
L 77.277309 56.790159 
L 77.317892 56.673279 
L 77.328038 56.659388 
L 77.344948 56.579593 
L 77.34833 56.582415 
L 77.446406 56.411705 
L 77.476844 56.467361 
L 77.527573 56.433205 
L 77.493754 56.396183 
L 77.537719 56.388046 
L 77.672997 56.264882 
L 77.689906 56.331355 
L 77.7474 56.145674 
L 77.879295 55.63618 
L 77.909733 54.424829 
L 77.923261 43.892907 
L 78.004427 58.842275 
L 78.011191 58.876856 
L 78.065302 58.383625 
L 78.298657 56.814505 
L 78.552303 56.33491 
L 78.559067 56.349766 
L 78.663907 56.350066 
L 78.640233 56.311154 
L 78.670671 56.331152 
L 78.822858 56.012228 
L 78.917553 54.51604 
L 78.931081 43.880938 
L 79.012247 58.861163 
L 79.015629 58.892113 
L 79.069741 58.427581 
L 79.360588 56.70171 
L 79.533067 56.427938 
L 79.556741 56.462009 
L 79.560123 56.474079 
L 79.62438 56.296856 
L 79.86788 56.064925 
L 80.003158 54.549201 
L 80.016685 43.877001 
L 80.09447 58.733756 
L 80.101234 58.856142 
L 80.179019 58.155401 
L 80.270331 57.415918 
L 80.449575 56.630203 
L 80.45972 56.636063 
L 80.463102 56.649959 
L 80.544269 56.531411 
L 80.946721 56.151139 
L 80.554415 56.549026 
L 80.950103 56.174525 
L 80.953485 56.181889 
L 81.007596 56.035374 
L 81.115818 54.813025 
L 81.132728 43.895777 
L 81.200367 57.562651 
L 81.217276 58.831655 
L 81.311971 57.956916 
L 81.660311 56.448952 
L 81.687367 56.482253 
L 81.751624 56.506964 
L 81.782061 56.394302 
L 81.785443 56.39571 
L 81.802353 56.411748 
L 82.103346 55.276116 
L 82.120256 51.210085 
L 82.12702 43.872681 
L 82.214951 58.891239 
L 82.225096 58.842345 
L 82.519326 56.752317 
L 83.043527 56.150028 
L 82.529472 56.763774 
L 83.046909 56.154355 
L 83.077347 56.21313 
L 83.144986 56.033567 
L 83.287028 54.562702 
L 83.300555 43.873997 
L 83.37834 58.696328 
L 83.388486 58.829815 
L 83.466271 58.096737 
L 83.730063 56.587433 
L 83.733444 56.597691 
L 83.838285 56.381958 
L 83.976945 56.195685 
L 83.98709 56.218201 
L 84.058111 56.274755 
L 84.095313 56.209201 
L 84.308375 54.316564 
L 84.321903 43.923526 
L 84.406452 58.869863 
L 84.460563 58.389473 
L 84.720973 56.72468 
L 84.950945 56.364876 
L 84.974619 56.39275 
L 84.981383 56.411875 
L 85.042258 56.277695 
L 85.062549 56.304467 
L 85.11666 56.272857 
L 85.130188 56.214922 
L 85.174154 56.141621 
L 85.177536 56.122042 
L 85.356779 55.026176 
L 85.370306 48.072941 
L 85.37707 43.915159 
L 85.461619 58.83547 
L 85.471765 58.765994 
L 85.847161 56.494162 
L 85.88098 56.523432 
L 85.884362 56.545801 
L 85.972293 56.423238 
L 85.979057 56.444245 
L 86.303724 55.056698 
L 86.317251 48.707773 
L 86.324015 43.914721 
L 86.408564 58.890859 
L 86.41871 58.836644 
L 86.699411 56.859022 
L 86.885418 56.453896 
L 86.929384 56.496375 
L 87.125537 56.406387 
L 87.155974 56.453399 
L 87.389328 56.419952 
L 87.39271 56.40171 
L 87.68694 55.736455 
L 87.724141 54.385646 
L 87.737669 43.865942 
L 87.822218 58.832496 
L 87.825599 58.840982 
L 87.849273 58.636343 
L 88.102919 56.732039 
L 88.106301 56.734652 
L 88.129975 56.64545 
L 88.143502 56.644085 
L 88.272016 56.394701 
L 88.282162 56.420494 
L 88.45126 56.255677 
L 88.302454 56.443904 
L 88.461405 56.268981 
L 88.464787 56.285123 
L 88.549336 56.188062 
L 88.562864 56.212955 
L 88.603447 56.109903 
L 88.725197 54.738995 
L 88.738725 43.906257 
L 88.813128 58.342507 
L 88.826656 58.860171 
L 88.917968 58.042031 
L 89.266309 56.482319 
L 89.273072 56.505343 
L 89.306892 56.501281 
L 89.330566 56.407914 
L 89.472607 56.224342 
L 89.475989 56.23683 
L 89.68567 55.875029 
L 89.746545 54.122648 
L 89.756691 43.904103 
L 89.844621 58.861395 
L 89.848003 58.850109 
L 89.939316 57.994138 
L 90.176052 56.647834 
L 90.179434 56.664856 
L 90.341767 56.442411 
L 90.368823 56.438772 
L 90.409406 56.358132 
L 90.41617 56.373476 
L 90.548066 56.238628 
L 90.568358 56.279137 
L 90.723927 55.930961 
L 90.801712 54.824746 
L 90.818622 43.903094 
L 90.886261 57.482965 
L 90.903171 58.842999 
L 90.997865 57.976742 
L 91.068886 57.40854 
L 91.068886 57.40854 
" clip-path="url(#p3300cc0b16)" style="fill: none; stroke: #000000; stroke-width: 0.6; stroke-linecap: square"/>
   </g>
   <g id="line2d_4">
    <path d="M 95.127221 15.313171 
L 95.127221 8.552195 
" clip-path="url(#p3300cc0b16)" style="fill: none; stroke: #000000; stroke-width: 1.5; stroke-linecap: square"/>
   </g>
  </g>
 </g>
 <defs>
  <clipPath id="p3300cc0b16">
   <rect x="7.2" y="7.2" width="89.28" height="55.44"/>
  </clipPath>
 </defs>
</svg>
