<?xml version="1.0" encoding="utf-8" standalone="no"?>
<!DOCTYPE svg PUBLIC "-//W3C//DTD SVG 1.1//EN"
  "http://www.w3.org/Graphics/SVG/1.1/DTD/svg11.dtd">
<svg xmlns:xlink="http://www.w3.org/1999/xlink" width="103.68pt" height="69.84pt" viewBox="0 0 103.68 69.84" xmlns="http://www.w3.org/2000/svg" version="1.1">
 <metadata>
  <rdf:RDF xmlns:dc="http://purl.org/dc/elements/1.1/" xmlns:cc="http://creativecommons.org/ns#" xmlns:rdf="http://www.w3.org/1999/02/22-rdf-syntax-ns#">
   <cc:Work>
    <dc:type rdf:resource="http://purl.org/dc/dcmitype/StillImage"/>
    <dc:date>2022-05-08T14:50:37.029268</dc:date>
    <dc:format>image/svg+xml</dc:format>
    <dc:creator>
     <cc:Agent>
      <dc:title>Matplotlib v3.5.1, https://matplotlib.org/</dc:title>
     </cc:Agent>
    </dc:creator>
   </cc:Work>
  </rdf:RDF>
 </metadata>
 <defs>
  <style type="text/css">*{stroke-linejoin: round; stroke-linecap: butt}</style>
 </defs>
 <g id="figure_1">
  <g id="patch_1">
   <path d="M 0 69.84 
L 103.68 69.84 
L 103.68 0 
L 0 0 
z
" style="fill: #ffffff"/>
  </g>
  <g id="axes_1">
   <g id="patch_2">
    <path d="M 7.2 62.64 
L 96.48 62.64 
L 96.48 7.2 
L 7.2 7.2 
z
" style="fill: #ffffff"/>
   </g>
   <g id="matplotlib.axis_1"/>
   <g id="matplotlib.axis_2"/>
   <g id="line2d_1">
    <path d="M 9.905557 25.502026 
L 10.020543 25.321646 
L 10.037453 25.373214 
L 10.10171 25.429502 
L 10.145675 25.358422 
L 10.845738 25.126582 
L 10.84912 25.152797 
L 10.859266 25.180285 
L 10.88294 25.122097 
L 10.95396 25.144407 
L 11.018217 25.009904 
L 11.072328 25.088798 
L 11.146731 25.146616 
L 11.082474 25.07295 
L 11.173787 25.044883 
L 11.187315 25.00187 
L 11.261717 24.998128 
L 11.383468 24.867012 
L 11.407141 24.897225 
L 11.478162 24.797542 
L 11.620204 24.703602 
L 11.63035 24.736136 
L 11.758864 24.838485 
L 11.779155 24.779509 
L 11.782537 24.75769 
L 11.85694 24.866008 
L 11.887378 24.784955 
L 11.890759 24.804448 
L 11.955016 24.7227 
L 11.992218 24.743847 
L 12.276301 24.698779 
L 12.323649 24.786436 
L 12.387906 24.711943 
L 12.519802 24.557322 
L 12.523183 24.567244 
L 12.611114 24.529899 
L 12.570531 24.60204 
L 12.648315 24.55556 
L 12.722718 24.660998 
L 12.7261 24.686743 
L 12.800503 24.581096 
L 12.834323 24.663362 
L 13.00342 24.539353 
L 12.844468 24.678046 
L 13.037239 24.629571 
L 13.155607 24.701221 
L 13.382198 24.559125 
L 13.392344 24.592205 
L 13.429545 24.548507 
L 13.537767 24.754716 
L 13.727156 24.670102 
L 13.73392 24.677362 
L 13.831997 24.81259 
L 13.859052 24.787626 
L 14.075497 24.932979 
L 14.105934 24.868285 
L 14.153282 24.956735 
L 14.183719 24.940336 
L 14.187101 24.951957 
L 14.261504 24.816373 
L 14.444129 24.701065 
L 14.318997 24.882345 
L 14.450893 24.710036 
L 14.454275 24.724713 
L 14.535441 24.599482 
L 14.542205 24.614988 
L 14.833053 24.791183 
L 14.548969 24.60571 
L 14.856726 24.73855 
L 14.981858 24.637854 
L 15.032588 24.666177 
L 15.073171 24.570311 
L 15.391074 24.467176 
L 15.462095 24.410798 
L 15.502678 24.450324 
L 15.6109 24.366863 
L 15.624428 24.373478 
L 15.719123 24.406641 
L 15.675157 24.452246 
L 15.722505 24.425896 
L 15.729269 24.435766 
L 15.752942 24.346759 
L 15.796907 24.349225 
L 15.901748 24.315964 
L 15.881456 24.39122 
L 15.908512 24.352032 
L 15.915276 24.365217 
L 16.314345 24.233772 
L 16.439477 24.355698 
L 16.567991 24.571909 
L 16.598429 24.537867 
L 16.710033 24.492298 
L 16.682977 24.562468 
L 16.713415 24.504789 
L 16.737089 24.519847 
L 16.760762 24.442373 
L 16.811491 24.459485 
L 16.821637 24.405188 
L 16.916332 24.489127 
L 16.953533 24.513369 
L 17.014408 24.445408 
L 17.01779 24.427482 
L 17.068519 24.515178 
L 17.12263 24.463654 
L 17.623158 24.567628 
L 17.629922 24.528361 
L 17.640068 24.597198 
L 17.734763 24.555943 
L 17.856513 24.518894 
L 17.859895 24.538912 
L 17.985027 24.630148 
L 17.988409 24.617931 
L 18.028992 24.726353 
L 18.103395 24.60052 
L 18.245437 24.694388 
L 18.116923 24.592143 
L 18.248819 24.689646 
L 18.319839 24.785527 
L 18.353659 24.818201 
L 18.411152 24.742985 
L 18.42468 24.74489 
L 18.590395 24.586273 
L 18.708763 24.739597 
L 18.597159 24.576315 
L 18.742583 24.646689 
L 18.830513 24.551206 
L 18.786548 24.655697 
L 18.857569 24.590912 
L 18.860951 24.595652 
L 18.904916 24.483722 
L 18.92859 24.536733 
L 19.01652 24.459982 
L 19.057104 24.483669 
L 19.107833 24.394576 
L 19.114597 24.412068 
L 19.232965 24.346322 
L 19.239729 24.351262 
L 19.486611 24.399393 
L 19.489993 24.393674 
L 19.561014 24.242198 
L 19.611743 24.312068 
L 19.777458 24.206973 
L 19.638798 24.335286 
L 19.78084 24.211138 
L 20.081833 23.91517 
L 19.787604 24.227116 
L 20.115653 24.058233 
L 20.169764 24.154157 
L 20.139326 24.029855 
L 20.237403 24.051341 
L 20.291514 23.959195 
L 20.359153 23.989132 
L 20.734549 24.218969 
L 20.78866 24.265194 
L 20.825862 24.146873 
L 20.91041 24.146945 
L 20.842771 24.186454 
L 20.917174 24.194533 
L 20.934084 24.260886 
L 21.018633 24.135426 
L 21.103181 24.170484 
L 21.130237 24.123499 
L 21.137001 24.117711 
L 21.184348 24.24514 
L 21.194494 24.235717 
L 21.30948 24.215816 
L 21.238459 24.304257 
L 21.32639 24.235708 
L 21.404174 24.284303 
L 21.437994 24.23868 
L 21.576654 24.203121 
L 21.444758 24.245925 
L 21.590181 24.215246 
L 21.678112 24.321743 
L 21.630765 24.17374 
L 21.722077 24.264519 
L 21.772807 24.302665 
L 21.833682 24.241465 
L 21.840445 24.238814 
L 21.972341 24.337602 
L 22.087328 24.274087 
L 21.992633 24.384966 
L 22.090709 24.275397 
L 22.246279 24.121531 
L 22.253043 24.146343 
L 22.310536 24.167399 
L 22.344355 24.084469 
L 22.452578 24.056256 
L 22.411994 24.128766 
L 22.466106 24.06937 
L 22.57771 24.132366 
L 22.530363 24.044506 
L 22.594619 24.114562 
L 22.702842 24.103117 
L 22.655495 24.211461 
L 22.706224 24.110142 
L 22.831356 24.278744 
L 22.83812 24.260632 
L 22.875321 24.327872 
L 22.949724 24.229991 
L 23.074856 24.186418 
L 23.078238 24.170735 
L 23.223662 23.979966 
L 23.227043 23.983783 
L 23.328502 23.947008 
L 23.243953 24.011842 
L 23.352175 23.981616 
L 23.358939 24.01562 
L 23.433342 23.848601 
L 23.440106 23.860879 
L 23.457016 23.843862 
L 23.507745 23.932557 
L 23.544946 23.89404 
L 23.730953 23.693165 
L 23.758009 23.744513 
L 23.774919 23.713688 
L 23.906815 23.763676 
L 23.920342 23.722682 
L 24.004891 23.825714 
L 24.008273 23.8146 
L 24.092822 23.857527 
L 24.025183 23.798195 
L 24.119877 23.815179 
L 24.295738 23.921737 
L 24.133405 23.800119 
L 24.302502 23.906658 
L 24.397197 23.822084 
L 24.312648 23.924205 
L 24.444544 23.866164 
L 24.451308 23.887181 
L 24.525711 23.796031 
L 24.532475 23.805943 
L 24.552766 23.733099 
L 24.647461 23.782781 
L 24.650843 23.789254 
L 24.694808 23.660173 
L 24.7151 23.693033 
L 24.725246 23.667269 
L 24.806412 23.756862 
L 24.809794 23.755215 
L 24.816558 23.790091 
L 24.904489 23.638286 
L 25.090496 23.581891 
L 25.134461 23.550812 
L 25.151371 23.59188 
L 25.198718 23.594097 
L 25.266357 23.591816 
L 25.300177 23.645385 
L 25.377961 23.697721 
L 25.421927 23.633841 
L 25.482802 23.557543 
L 25.523385 23.664446 
L 25.570732 23.699701 
L 25.611316 23.600164 
L 25.634989 23.647606 
L 25.692482 23.470925 
L 25.753357 23.598288 
L 25.780413 23.569792 
L 25.895399 23.686844 
L 25.956274 23.625479 
L 26.010385 23.63789 
L 26.318142 23.677132 
L 26.416219 23.676933 
L 26.338434 23.64831 
L 26.429747 23.66364 
L 26.500767 23.589879 
L 26.544733 23.668304 
L 26.693538 23.676723 
L 26.700302 23.690642 
L 26.761177 23.813349 
L 26.81867 23.773106 
L 27.596518 23.888793 
L 27.637101 23.94388 
L 27.708122 23.878455 
L 27.816345 23.86587 
L 27.785907 23.915674 
L 27.819727 23.874464 
L 27.897511 23.908545 
L 27.921185 23.829186 
L 27.931331 23.861992 
L 28.255998 23.918004 
L 28.316873 24.006773 
L 28.374366 23.962048 
L 28.570519 23.9982 
L 28.573901 24.012983 
L 28.668595 24.054833 
L 28.580664 24.006109 
L 28.692269 24.033848 
L 28.695651 24.014249 
L 28.780199 24.134794 
L 28.800491 24.032994 
L 28.962824 24.259168 
L 29.000026 24.236206 
L 29.115012 24.184751 
L 29.121776 24.201791 
L 29.2672 24.324573 
L 29.375422 24.328701 
L 29.314547 24.414333 
L 29.378804 24.333595 
L 29.426151 24.325206 
L 29.385568 24.307135 
L 29.463352 24.265577 
L 29.568193 24.168948 
L 29.588484 24.193096 
L 29.662887 24.114232 
L 29.700089 24.172825 
L 29.760964 24.136111 
L 29.818457 24.17696 
L 29.953735 24.276476 
L 29.825221 24.156723 
L 29.957117 24.274368 
L 29.990936 24.215641 
L 30.041665 24.305819 
L 30.061957 24.304881 
L 30.504992 24.606556 
L 30.508374 24.592225 
L 30.677471 24.498232 
L 30.680853 24.515214 
L 30.714673 24.494203 
L 30.792457 24.533706 
L 30.870242 24.573669 
L 30.826277 24.590543 
L 30.880388 24.602164 
L 30.931117 24.563834 
L 30.998756 24.632527 
L 31.035957 24.556039 
L 31.123888 24.626737 
L 31.259166 24.704449 
L 31.336951 24.573473 
L 31.374152 24.658448 
L 31.560159 24.616233 
L 31.681909 24.549318 
L 31.962611 24.716357 
L 31.729256 24.495711 
L 31.965993 24.706886 
L 32.074215 24.564246 
L 32.11818 24.598306 
L 32.195965 24.657599 
L 32.152 24.544029 
L 32.233166 24.619629 
L 32.260222 24.656661 
L 32.290659 24.526329 
L 32.307569 24.501024 
L 32.341389 24.643145 
L 32.358298 24.635102 
L 32.567979 24.582508 
L 32.578125 24.607763 
L 32.801333 24.504249 
L 32.912938 24.568121 
L 32.919702 24.553101 
L 32.946757 24.575489 
L 32.956903 24.651818 
L 33.078653 24.70784 
L 33.082035 24.70289 
L 33.102327 24.725229 
L 33.230841 24.60335 
L 33.28157 24.630509 
L 33.251132 24.56148 
L 33.339063 24.578835 
L 33.460813 24.717232 
L 33.345827 24.573351 
L 33.481105 24.70304 
L 33.609619 24.461877 
L 33.66373 24.532168 
L 33.826063 24.592081 
L 33.839591 24.543243 
L 33.863265 24.580556 
L 33.99516 24.413865 
L 34.11691 24.467165 
L 34.127056 24.452304 
L 34.296154 24.358603 
L 34.309681 24.41012 
L 34.363793 24.427202 
L 34.407758 24.360713 
L 34.543036 24.208746 
L 34.651258 24.203127 
L 34.624202 24.152237 
L 34.65464 24.194527 
L 34.779772 24.168949 
L 34.661404 24.182454 
L 34.783154 24.161201 
L 34.789918 24.148251 
L 34.860939 24.273653 
L 34.955633 24.324516 
L 34.88123 24.240878 
L 34.975925 24.2803 
L 35.033418 24.163828 
L 35.097675 24.189823 
L 35.192369 24.186466 
L 35.111203 24.218393 
L 35.202515 24.209855 
L 35.320883 24.276871 
L 35.283682 24.179283 
L 35.327647 24.267129 
L 35.459543 24.218146 
L 35.391904 24.321646 
L 35.473071 24.235938 
L 35.55762 24.214014 
L 35.571147 24.163835 
L 35.591439 24.121508 
L 35.638786 24.250096 
L 35.652314 24.238613 
L 35.686134 24.309293 
L 35.757154 24.220089 
L 35.834939 24.107929 
L 35.774064 24.236134 
L 35.88905 24.160459 
L 35.912724 24.240375 
L 35.980363 24.103057 
L 36.007418 24.190115 
L 36.142696 23.946813 
L 36.156224 23.970914 
L 36.223863 23.988991 
L 36.162988 23.986009 
L 36.250919 24.031877 
L 36.328703 24.113609 
L 36.355759 23.994546 
L 36.430162 23.993214 
L 36.44369 24.062839 
L 36.447071 24.053397 
L 36.524856 24.153939 
L 36.589113 24.110393 
L 36.602641 24.124097 
L 36.727773 24.049599 
L 37.258739 24.112456 
L 37.262121 24.090238 
L 37.265502 24.077748 
L 37.316232 24.158483 
L 37.356815 24.15707 
L 37.593551 24.084969 
L 37.610461 24.173025 
L 37.742357 24.253867 
L 37.864107 24.122878 
L 37.931746 24.108344 
L 37.914836 24.057856 
L 37.962183 24.071329 
L 38.114371 24.163016 
L 38.134663 24.123443 
L 38.253031 24.049037 
L 38.1651 24.135738 
L 38.256413 24.077452 
L 38.648719 23.870465 
L 38.655482 23.838419 
L 38.68592 23.908517 
L 38.753559 23.912817 
L 38.875309 23.942468 
L 38.878691 23.935951 
L 39.301434 23.638539 
L 39.308198 23.64874 
L 39.32849 23.683413 
L 39.372455 23.582935 
L 39.409656 23.608077 
L 39.473913 23.487179 
L 39.534788 23.534908 
L 39.670066 23.634023 
L 39.67683 23.627306 
L 40.366747 23.331388 
L 40.397185 23.402977 
L 40.45806 23.46154 
L 40.508789 23.400538 
L 40.54599 23.358028 
L 40.603483 23.446055 
L 40.610247 23.434847 
L 40.708324 23.549564 
L 40.620393 23.428934 
L 40.728615 23.489212 
L 40.762435 23.475058 
L 40.809782 23.546109 
L 40.830074 23.531822 
L 40.921386 23.574261 
L 40.846984 23.494086 
L 40.94506 23.547864 
L 40.972116 23.592144 
L 41.08372 23.583082 
L 41.239289 23.620537 
L 41.242671 23.617791 
L 41.361039 23.592066 
L 41.364421 23.601643 
L 41.469262 23.6035 
L 41.401623 23.558264 
L 41.472644 23.596583 
L 41.58763 23.534129 
L 41.597776 23.572128 
L 41.70938 23.643962 
L 41.719526 23.623372 
L 41.83113 23.708991 
L 41.905533 23.77464 
L 41.864949 23.686094 
L 41.946116 23.728187 
L 41.979936 23.701503 
L 42.003609 23.771738 
L 42.054338 23.752109 
L 42.223436 23.639825 
L 42.240345 23.669461 
L 42.243727 23.676116 
L 42.301221 23.556726 
L 42.331658 23.617669 
L 42.385769 23.507569 
L 42.446644 23.603364 
L 42.632651 23.675475 
L 42.727346 23.64051 
L 42.751019 23.694097 
L 43.058776 23.874779 
L 43.08245 23.818811 
L 43.190672 23.802362 
L 43.109506 23.853588 
L 43.194054 23.813313 
L 43.23802 23.858541 
L 43.302277 23.785188 
L 43.417263 23.788837 
L 43.420645 23.799101 
L 43.424027 23.813907 
L 43.474756 23.72255 
L 43.528867 23.77507 
L 43.633707 23.763578 
L 43.539013 23.751037 
L 43.637089 23.757716 
L 43.714874 23.666672 
L 43.762221 23.694272 
L 43.911027 23.734891 
L 43.927937 23.71616 
L 44.026013 23.647728 
L 43.961756 23.740059 
L 44.049687 23.686905 
L 44.157909 23.718925 
L 44.066596 23.658474 
L 44.168055 23.704839 
L 44.222166 23.736376 
L 44.296569 23.642687 
L 44.408173 23.675501 
L 44.414937 23.66722 
L 44.529923 23.657285 
L 44.438611 23.702102 
L 44.546833 23.701338 
L 44.624618 23.899566 
L 44.712548 23.781458 
L 44.824152 23.732801 
L 44.736222 23.819546 
L 44.834298 23.743624 
L 45.246896 23.726879 
L 45.260424 23.69678 
L 45.304389 23.765308 
L 45.351736 23.753649 
L 45.355118 23.770152 
L 45.432903 23.667331 
L 45.449812 23.681587 
L 45.48025 23.668953 
L 45.459958 23.709248 
L 45.517451 23.756575 
L 45.629056 23.796906 
L 45.578326 23.707528 
L 45.632438 23.781777 
L 45.639201 23.825743 
L 45.70684 23.65066 
L 45.727132 23.589852 
L 45.811681 23.674462 
L 45.815063 23.668546 
L 45.936813 23.816721 
L 45.98416 23.790176 
L 45.987542 23.766995 
L 46.034889 23.885651 
L 46.085618 23.856077 
L 46.312209 23.873555 
L 46.322355 23.846195 
L 46.325737 23.826126 
L 46.393376 23.949725 
L 46.417049 23.941614 
L 46.778917 23.861758 
L 46.789063 23.901563 
L 46.978452 24.312761 
L 46.998744 24.305065 
L 47.035945 24.268868 
L 47.056237 24.384331 
L 47.106966 24.327183 
L 47.282827 24.588586 
L 47.120494 24.318046 
L 47.313265 24.568606 
L 47.465452 24.377142 
L 47.556765 24.503944 
L 47.60073 24.475258 
L 47.675133 24.404921 
L 47.712335 24.478063 
L 47.719098 24.471723 
L 47.840849 24.518621 
L 47.84423 24.510987 
L 47.918633 24.613139 
L 48.023474 24.751459 
L 48.037001 24.724636 
L 48.158751 24.672401 
L 48.256828 24.654904 
L 48.266974 24.687877 
L 48.361668 24.662821 
L 48.371814 24.611107 
L 48.402252 24.572736 
L 48.429307 24.691203 
L 48.469891 24.669003 
L 48.547675 24.656005 
L 48.513856 24.623397 
L 48.571349 24.626476 
L 48.679571 24.64918 
L 48.686335 24.670527 
L 48.750592 24.473038 
L 48.757356 24.477215 
L 48.862196 24.417468 
L 48.770884 24.504772 
L 48.882488 24.44623 
L 49.02453 24.598903 
L 49.027912 24.590681 
L 49.14628 24.465742 
L 49.149662 24.485625 
L 49.342433 24.618495 
L 49.396544 24.709071 
L 49.467565 24.731276 
L 49.49462 24.659494 
L 49.498002 24.667492 
L 49.518294 24.63947 
L 49.558877 24.746302 
L 49.585933 24.715912 
L 49.680627 24.882734 
L 49.714447 24.827503 
L 49.849725 24.706099 
L 49.748266 24.852264 
L 49.853107 24.71647 
L 50.12028 24.780756 
L 49.863252 24.697391 
L 50.130426 24.759487 
L 50.198065 24.7047 
L 50.238648 24.75891 
L 50.302905 24.813022 
L 50.245412 24.747763 
L 50.360398 24.773421 
L 50.428037 24.836809 
L 50.478767 24.736651 
L 50.603899 24.635882 
L 50.610663 24.638492 
L 50.698593 24.668619 
L 50.661392 24.588528 
L 50.722267 24.646678 
L 50.854163 24.547027 
L 50.881218 24.562749 
L 50.942093 24.589783 
L 50.91842 24.518156 
L 50.986059 24.538813 
L 51.053697 24.514554 
L 51.026642 24.566226 
L 51.097663 24.53775 
L 51.1281 24.616391 
L 51.192357 24.484005 
L 51.314107 24.366035 
L 51.320871 24.368724 
L 51.364837 24.372413 
L 51.378364 24.334185 
L 51.418948 24.326453 
L 51.489969 24.35434 
L 51.537316 24.288401 
L 51.689503 24.394004 
L 51.547462 24.280152 
L 51.696267 24.388961 
L 51.801108 24.346139 
L 51.703031 24.393128 
L 51.818017 24.373727 
L 51.895802 24.42705 
L 51.929622 24.386472 
L 52.004024 24.226487 
L 52.061517 24.325792 
L 52.078427 24.403053 
L 52.146066 24.283621 
L 52.16974 24.3333 
L 52.25767 24.189638 
L 52.288108 24.240702 
L 52.338837 24.249422 
L 52.372657 24.149953 
L 52.37942 24.151296 
L 52.477497 24.198476 
L 52.436914 24.212711 
L 52.480879 24.201325 
L 52.504552 24.241382 
L 52.575573 24.173893 
L 52.592483 24.198123 
L 52.720997 24.123466 
L 52.737907 24.068015 
L 52.832601 24.120475 
L 52.913768 24.136324 
L 52.852893 24.090471 
L 52.944205 24.108816 
L 52.978025 24.113884 
L 53.018608 24.182571 
L 53.052428 24.260854 
L 53.130213 24.183157 
L 53.224907 24.090138 
L 53.258726 24.145835 
L 53.38724 24.205192 
L 53.394004 24.172362 
L 53.481935 24.298416 
L 53.485317 24.275449 
L 53.505609 24.309041 
L 53.536046 24.225456 
L 53.583393 24.215707 
L 54.27331 24.000639 
L 54.455935 23.819278 
L 54.459317 23.829524 
L 54.520192 23.68194 
L 54.523574 23.683277 
L 54.682526 23.571974 
L 54.55063 23.727312 
L 54.692672 23.604205 
L 54.824568 23.687148 
L 54.709581 23.576913 
L 54.834713 23.67568 
L 54.983519 23.553165 
L 55.044394 23.627222 
L 55.095123 23.539841 
L 55.098505 23.543987 
L 55.118797 23.451863 
L 55.145852 23.444512 
L 55.189818 23.421188 
L 55.227019 23.518313 
L 55.250693 23.480118 
L 55.4367 23.23061 
L 55.477283 23.276496 
L 55.57536 23.245117 
L 55.578742 23.235681 
L 55.588887 23.207774 
L 55.642999 23.29694 
L 55.686964 23.26011 
L 55.849297 23.140415 
L 55.856061 23.160907 
L 55.960902 23.274195 
L 55.994721 23.248628 
L 56.133381 23.147976 
L 56.001485 23.251251 
L 56.143527 23.152103 
L 56.309242 23.212874 
L 56.33968 23.270056 
L 56.363353 23.165484 
L 56.417464 23.194302 
L 56.437756 23.238104 
L 56.512159 23.136241 
L 56.542596 23.160207 
L 56.752277 22.896245 
L 56.79286 22.925432 
L 56.816534 22.863829 
L 56.857117 22.861752 
L 57.019451 22.909018 
L 56.880791 22.803869 
L 57.032979 22.857948 
L 57.117527 22.784031 
L 57.144583 22.852451 
L 57.303534 22.795251 
L 57.306916 22.807389 
L 57.550416 22.836034 
L 57.560562 22.792468 
L 57.705986 22.744496 
L 57.580854 22.872322 
L 57.722896 22.768607 
L 57.726278 22.778301 
L 57.756715 22.69576 
L 57.81759 22.71687 
L 57.932576 22.519409 
L 57.979923 22.574563 
L 58.050944 22.572754 
L 58.000215 22.548662 
L 58.071236 22.522939 
L 58.19975 22.420635 
L 58.331646 22.464537 
L 58.33841 22.459927 
L 58.47707 22.334588 
L 58.351938 22.474057 
L 58.483833 22.350114 
L 58.554854 22.357972 
L 58.521035 22.290226 
L 58.571764 22.308816 
L 58.679986 22.052501 
L 58.710424 22.063951 
L 58.744243 22.027266 
L 58.832174 22.033974 
L 58.987743 21.864854 
L 58.865993 22.074473 
L 58.994507 21.874521 
L 58.997889 21.879138 
L 59.062146 21.788919 
L 59.376667 20.531085 
L 59.400341 19.176852 
L 59.410487 8.590492 
L 59.505181 22.6045 
L 59.522091 23.329268 
L 59.613404 22.446834 
L 59.72839 20.926726 
L 59.775737 19.298407 
L 59.785883 9.08324 
L 59.880577 21.508814 
L 59.897487 23.608562 
L 59.992182 22.670651 
L 60.154515 19.286951 
L 60.164661 9.18101 
L 60.259355 20.590846 
L 60.279647 23.763258 
L 60.37096 22.882915 
L 60.550203 19.318339 
L 60.560348 9.156419 
L 60.655043 20.321673 
L 60.675335 23.90878 
L 60.770029 23.097518 
L 60.97971 19.203157 
L 60.989856 9.072553 
L 61.08455 20.955861 
L 61.104842 24.050807 
L 61.199536 23.333702 
L 61.4498 20.264452 
L 61.463328 18.879091 
L 61.473474 9.003976 
L 61.568168 22.775757 
L 61.58846 24.173526 
L 61.679773 23.55089 
L 61.808287 22.466952 
L 62.017967 19.438734 
L 62.028113 8.957216 
L 62.119426 20.834723 
L 62.139717 24.248174 
L 62.234412 23.69065 
L 62.680829 19.902613 
L 62.690975 15.938656 
L 62.697739 8.882819 
L 62.795815 24.079571 
L 62.812725 24.264392 
L 62.893891 23.7739 
L 63.485732 19.045119 
L 63.495878 8.858656 
L 63.58719 23.847019 
L 63.600718 24.229956 
L 63.695413 23.701633 
L 63.952441 22.293529 
L 64.446205 19.752788 
L 64.463115 8.833426 
L 64.537517 19.19444 
L 64.564573 24.173059 
L 64.652504 23.662692 
L 64.845274 22.542483 
L 64.848656 22.54377 
L 64.868948 22.434023 
L 64.997462 21.757312 
L 65.278164 20.87632 
L 65.281546 20.893792 
L 65.355948 20.70465 
L 65.460789 19.381573 
L 65.474316 8.841106 
L 65.555483 23.280394 
L 65.575775 24.140713 
L 65.667087 23.555545 
L 65.890296 22.304542 
L 66.083067 21.420162 
L 66.137178 21.240513 
L 66.299511 20.803215 
L 66.313039 20.806697 
L 66.343477 20.658193 
L 66.40097 19.709543 
L 66.417879 8.810202 
L 66.495664 21.40923 
L 66.52272 24.220492 
L 66.61065 23.659249 
L 66.664762 23.343335 
L 66.918408 22.135348 
L 67.080741 21.558195 
L 67.243074 21.236581 
L 67.266748 21.264704 
L 67.273512 21.290812 
L 67.341151 21.187915 
L 67.364824 21.189801 
L 67.39188 21.133527 
L 67.449373 21.218601 
L 67.479811 21.160148 
L 67.557595 21.213421 
L 67.615088 21.127178 
L 67.625234 21.113816 
L 67.686109 21.216992 
L 67.831533 21.454463 
L 67.845061 21.432691 
L 67.963429 21.668162 
L 68.091943 21.834055 
L 68.102089 21.821252 
L 68.105471 21.807984 
L 68.183255 21.932804 
L 68.186637 21.933039 
L 68.332061 22.13376 
L 68.338825 22.125861 
L 68.345589 22.111002 
L 68.396318 22.253588 
L 68.541742 22.506683 
L 68.545124 22.498477 
L 68.595853 22.607305 
L 68.616145 22.60639 
L 69.032124 23.561923 
L 69.035506 23.559101 
L 69.038888 23.554287 
L 69.065943 23.674845 
L 69.076089 23.672707 
L 69.214749 24.066126 
L 69.228277 24.048731 
L 69.25195 24.047071 
L 69.289152 24.147265 
L 69.421048 24.542238 
L 69.454867 24.526414 
L 70.144784 25.360582 
L 70.165076 25.330634 
L 70.168458 25.300131 
L 70.266534 25.423197 
L 70.290208 25.465731 
L 70.347701 25.491114 
L 70.489743 25.630006 
L 70.53709 25.584982 
L 70.584437 25.698567 
L 70.69266 25.781416 
L 70.699423 25.745507 
L 70.702805 25.73987 
L 70.729861 25.80533 
L 70.787354 25.804587 
L 70.90234 25.861767 
L 70.922632 25.851156 
L 71.068056 25.653418 
L 71.128931 25.733175 
L 71.17966 25.756687 
L 71.220243 25.66409 
L 71.250681 25.604504 
L 71.308174 25.72373 
L 71.325084 25.701832 
L 71.500945 25.918536 
L 71.555056 25.813636 
L 71.609167 25.925667 
L 71.714007 25.99519 
L 71.730917 25.968007 
L 71.812084 26.018682 
L 71.818848 26.053969 
L 71.893251 26.142177 
L 71.960889 26.028828 
L 72.214535 26.007698 
L 71.974417 26.064666 
L 72.217917 26.034303 
L 72.238209 26.064081 
L 72.305848 25.994297 
L 72.329522 26.035291 
L 72.478327 25.899458 
L 72.53582 25.881968 
L 72.545966 25.936209 
L 72.579786 25.934904 
L 72.7083 25.985179 
L 72.853723 25.801686 
L 72.880779 25.838554 
L 72.884161 25.861574 
L 72.982237 25.777473 
L 72.985619 25.78595 
L 73.019439 25.716881 
L 73.070168 25.707342 
L 73.239265 25.468041 
L 73.093841 25.727756 
L 73.246029 25.513372 
L 73.350869 25.529285 
L 73.256175 25.503417 
L 73.377925 25.493175 
L 73.719501 25.267054 
L 73.384689 25.502211 
L 73.722883 25.275339 
L 73.739793 25.295997 
L 73.770231 25.219751 
L 73.824342 25.238686 
L 74.074606 25.090648 
L 74.101661 25.111305 
L 74.226793 24.968414 
L 74.230175 24.984462 
L 74.32487 24.90166 
L 74.443238 24.888133 
L 74.378981 24.81009 
L 74.453384 24.85933 
L 74.521023 24.767312 
L 74.56837 24.823757 
L 74.67321 24.911014 
L 74.581898 24.802969 
L 74.696884 24.863961 
L 74.717176 24.823953 
L 74.79496 24.923474 
L 74.798342 24.946524 
L 74.896419 24.860863 
L 74.937002 24.918939 
L 75.008023 24.855786 
L 75.112863 24.820649 
L 75.075662 24.872155 
L 75.123009 24.82833 
L 75.254905 24.935027 
L 75.505169 24.828097 
L 75.265051 24.947767 
L 75.515315 24.848072 
L 75.69794 25.001286 
L 75.711468 25.022511 
L 75.867037 24.920686 
L 75.883947 24.951078 
L 75.95835 24.845201 
L 75.965114 24.864375 
L 76.661795 24.552832 
L 76.746343 24.508959 
L 76.776781 24.548432 
L 76.939114 24.505274 
L 76.786927 24.576564 
L 76.945878 24.52816 
L 77.037191 24.556222 
L 77.020281 24.48966 
L 77.057482 24.537933 
L 77.064246 24.528104 
L 77.111594 24.606502 
L 77.142031 24.599464 
L 77.202906 24.6547 
L 77.240108 24.570211 
L 77.250253 24.582986 
L 77.311128 24.607879 
L 77.270545 24.540046 
L 77.351712 24.539658 
L 77.388913 24.511345 
L 77.443024 24.596639 
L 77.456552 24.566104 
L 77.916497 24.512685 
L 77.960462 24.444278 
L 78.034865 24.456378 
L 78.07883 24.438352 
L 78.163379 24.578376 
L 78.349386 24.730036 
L 78.369678 24.697393 
L 78.491428 24.612467 
L 78.498192 24.614439 
L 78.694344 24.642236 
L 78.795803 24.606933 
L 78.75522 24.679612 
L 78.812713 24.631009 
L 78.951372 24.760277 
L 79.076504 24.635 
L 79.191491 24.516559 
L 79.201636 24.555174 
L 79.888172 24.470049 
L 79.891553 24.44521 
L 79.959192 24.52079 
L 79.993012 24.516295 
L 80.162109 24.620905 
L 80.165491 24.641849 
L 80.219602 24.59093 
L 80.26695 24.592677 
L 80.419137 24.514166 
L 80.280477 24.606246 
L 80.436047 24.556601 
L 80.554415 24.628903 
L 80.442811 24.546656 
L 80.557797 24.613129 
L 80.669401 24.570032 
L 80.652491 24.640713 
L 80.676165 24.578454 
L 80.828353 24.506652 
L 80.831735 24.517439 
L 80.912901 24.489281 
L 80.879082 24.450799 
L 80.926429 24.469944 
L 81.027887 24.408789 
L 80.96363 24.487976 
L 81.041415 24.454466 
L 81.193603 24.450188 
L 81.203749 24.382773 
L 81.217276 24.364607 
L 81.284915 24.454797 
L 81.298443 24.440834 
L 81.339026 24.492375 
L 81.382992 24.381434 
L 81.48445 24.324654 
L 81.420193 24.400404 
L 81.494596 24.350845 
L 81.619728 24.451889 
L 81.62311 24.439196 
L 81.724568 24.387242 
L 81.768534 24.499164 
L 81.853082 24.65426 
L 81.897048 24.603019 
L 82.052617 24.611112 
L 82.059381 24.594122 
L 82.116874 24.592024 
L 82.150694 24.666651 
L 82.177749 24.718872 
L 82.269062 24.683213 
L 82.417867 24.576587 
L 82.590347 24.663613 
L 82.729006 24.726508 
L 82.617402 24.630119 
L 82.732388 24.709855 
L 82.776354 24.726813 
L 82.850756 24.611022 
L 82.965743 24.683596 
L 82.969125 24.650811 
L 83.097639 24.522497 
L 83.128076 24.583949 
L 83.15175 24.463658 
L 83.202479 24.498244 
L 83.337757 24.399547 
L 83.36143 24.419527 
L 83.371576 24.41171 
L 83.48318 24.431001 
L 83.567729 24.294748 
L 83.601549 24.403627 
L 83.686097 24.415147 
L 83.611694 24.425577 
L 83.699625 24.453263 
L 83.757118 24.516768 
L 83.804465 24.422516 
L 83.905924 24.326086 
L 83.838285 24.443347 
L 83.936361 24.370411 
L 83.939743 24.393465 
L 83.980327 24.298192 
L 84.044584 24.351336 
L 84.132514 24.114003 
L 84.186625 24.164359 
L 84.304993 24.11485 
L 84.321903 24.144916 
L 84.474091 24.236925 
L 84.487618 24.264867 
L 84.724355 24.199773 
L 84.727737 24.216563 
L 84.798758 24.130153 
L 84.825813 24.148179 
L 84.89007 24.092747 
L 84.937417 24.161721 
L 84.981383 24.244633 
L 85.035494 24.1146 
L 85.123424 24.084789 
L 85.055785 24.131633 
L 85.147098 24.121286 
L 85.235029 24.05988 
L 85.170772 24.155264 
L 85.275612 24.096088 
L 85.339869 24.071511 
L 85.417654 24.172139 
L 85.569841 24.098716 
L 85.607043 24.191551 
L 85.644244 24.249344 
L 85.711883 24.141289 
L 85.833633 24.215664 
L 85.718647 24.136683 
L 85.847161 24.157329 
L 85.904654 24.202031 
L 85.979057 24.098139 
L 86.090661 24.147726 
L 86.009494 24.069263 
L 86.100807 24.113405 
L 86.266522 24.008928 
L 86.276668 24.067685 
L 86.378126 24.150584 
L 86.290196 24.04055 
L 86.395036 24.049306 
L 86.560752 24.04375 
L 86.564133 24.063261 
L 86.652064 24.16407 
L 86.675738 24.080776 
L 86.729849 24.045851 
L 86.763668 24.136332 
L 86.848217 24.294989 
L 86.892182 24.242951 
L 87.02746 24.071818 
L 87.142446 23.996574 
L 87.14921 24.002883 
L 87.223613 23.966179 
L 87.230377 23.929568 
L 87.365655 23.774673 
L 87.375801 23.801759 
L 87.433294 23.69053 
L 87.467113 23.735679 
L 87.473877 23.712736 
L 87.54828 23.838614 
L 87.551662 23.827739 
L 87.605773 23.861722 
L 87.659884 23.823212 
L 87.798544 23.650638 
L 87.916912 23.762587 
L 87.822218 23.606549 
L 87.93044 23.755584 
L 87.940586 23.765649 
L 88.102919 23.616564 
L 88.228051 23.680732 
L 88.150266 23.59241 
L 88.238197 23.674093 
L 88.251725 23.611394 
L 88.322746 23.732406 
L 88.339655 23.728506 
L 88.53919 23.696471 
L 88.593301 23.642719 
L 88.559482 23.72174 
L 88.650794 23.704729 
L 88.654176 23.728653 
L 88.742107 23.621276 
L 88.748871 23.634921 
L 88.860475 23.628914 
L 88.833419 23.712369 
L 88.863857 23.637448 
L 88.874003 23.663903 
L 88.934878 23.564491 
L 88.961933 23.580328 
L 89.195288 23.620802 
L 89.19867 23.607554 
L 89.2866 23.521669 
L 89.313656 23.552035 
L 89.401586 23.581708 
L 89.333947 23.527999 
L 89.421878 23.53083 
L 90.950518 23.547387 
L 91.021539 23.59089 
L 91.062122 23.550054 
L 91.065504 23.544618 
L 91.068886 23.548014 
" clip-path="url(#p8d83fd50e7)" style="fill: none; stroke: #000000; stroke-width: 0.6; stroke-linecap: square"/>
   </g>
   <g id="line2d_2">
    <path d="M 9.905557 39.623494 
L 10.274189 39.459051 
L 10.406085 39.310617 
L 10.409467 39.322545 
L 10.422995 39.342671 
L 10.446668 39.260113 
L 10.504162 39.288691 
L 10.585328 39.130048 
L 10.629294 39.167108 
L 10.72737 39.247849 
L 10.673259 39.130348 
L 10.747662 39.205473 
L 10.818683 39.077687 
L 10.984398 38.843102 
L 11.058801 38.835708 
L 11.035127 38.770251 
L 11.07571 38.782134 
L 11.099384 38.858168 
L 11.49169 37.980179 
L 11.626968 35.998139 
L 11.654023 29.722891 
L 11.721662 38.089175 
L 11.725044 38.107034 
L 11.762246 37.738757 
L 11.843412 35.316698 
L 11.863704 33.307295 
L 11.938107 36.802697 
L 11.941489 36.770359 
L 12.039565 35.632973 
L 12.141024 35.755534 
L 12.242482 35.728065 
L 12.198517 35.697866 
L 12.245864 35.72163 
L 12.401433 35.688723 
L 12.431871 35.674461 
L 12.529947 35.726291 
L 12.607732 35.671658 
L 12.651697 35.724765 
L 12.773447 35.717943 
L 12.675371 35.702645 
L 12.776829 35.709717 
L 12.857996 35.72694 
L 12.88167 35.754435 
L 13.554677 35.997766 
L 13.683191 36.092336 
L 13.686573 36.081291 
L 13.703483 36.033456 
L 13.744066 36.148445 
L 13.784649 36.136369 
L 13.963893 36.290105 
L 13.794795 36.124482 
L 13.967275 36.284118 
L 13.97742 36.266537 
L 14.051823 36.374789 
L 14.055205 36.362885 
L 14.264886 36.610025 
L 14.288559 36.579775 
L 14.332525 36.722823 
L 14.660574 37.513038 
L 14.663955 37.510344 
L 14.826289 37.967249 
L 15.150956 38.795885 
L 15.235504 38.968983 
L 15.380928 39.360735 
L 15.397838 39.337042 
L 15.451949 39.493962 
L 15.458713 39.48458 
L 15.583845 39.812155 
L 15.607518 39.801693 
L 15.6109 39.797273 
L 15.64472 39.931463 
L 15.982915 40.712253 
L 16.23656 41.207927 
L 16.239942 41.198487 
L 16.300817 41.33502 
L 16.439477 41.626497 
L 16.459769 41.608725 
L 16.716797 42.039952 
L 16.466533 41.602562 
L 16.733707 42.011475 
L 16.747234 41.996182 
L 16.821637 42.078803 
L 16.828401 42.073341 
L 16.977207 42.230292 
L 17.061755 42.183635 
L 17.092193 42.213278 
L 17.098957 42.255054 
L 17.183505 42.072884 
L 17.376276 42.052523 
L 17.386422 42.077943 
L 17.433769 42.174836 
L 17.501408 42.061355 
L 17.552138 41.990708 
L 17.616395 42.031038 
L 18.035756 41.642061 
L 18.04252 41.671264 
L 18.062811 41.71343 
L 18.140596 41.608425 
L 18.143978 41.60872 
L 18.309694 41.440135 
L 18.313075 41.459495 
L 18.39086 41.518834 
L 18.323221 41.449901 
L 18.428062 41.45444 
L 18.458499 41.440579 
L 18.509228 41.526097 
L 18.52952 41.490017 
L 18.532902 41.502732 
L 18.597159 41.325698 
L 18.600541 41.328621 
L 18.725673 41.139117 
L 18.735819 41.168179 
L 18.742583 41.191073 
L 18.759492 41.127487 
L 18.840659 41.139768 
L 18.945499 41.024686 
L 18.972555 41.051197 
L 19.063868 41.093519 
L 19.094305 41.067089 
L 19.205909 40.913188 
L 19.219437 40.935986 
L 19.249875 40.905268 
L 19.300604 41.036655 
L 19.320895 40.98359 
L 19.378389 40.999446 
L 19.408826 40.906423 
L 19.425736 40.952704 
L 19.933028 40.706278 
L 19.943174 40.730495 
L 19.987139 40.791029 
L 20.054778 40.73962 
L 20.190056 40.478908 
L 20.193438 40.494057 
L 20.19682 40.501053 
L 20.274604 40.411121 
L 20.288132 40.443685 
L 20.656764 40.125582 
L 20.328715 40.519788 
L 20.66691 40.156775 
L 20.758223 40.170153 
L 20.673674 40.145221 
L 20.77175 40.118862 
L 20.842771 40.036061 
L 20.886737 40.05996 
L 21.319626 40.123191 
L 21.336535 40.131767 
L 21.44814 40.033416 
L 21.475195 40.092414 
L 21.522543 39.991356 
L 21.556362 40.009121 
L 21.715313 40.175033 
L 21.566508 39.988666 
L 21.718695 40.160367 
L 21.833682 40.126697 
L 21.749133 40.185961 
L 21.840445 40.132112 
L 21.931758 40.147559 
L 21.914848 40.188544 
L 21.941904 40.160115 
L 21.945286 40.178174 
L 22.019689 40.019902 
L 22.029834 40.028095 
L 22.083946 39.949897 
L 22.144821 40.031513 
L 22.286862 40.158568 
L 22.290244 40.155356 
L 22.442432 39.920171 
L 22.54389 39.989486 
L 22.557418 39.944991 
L 22.648731 39.900451 
L 22.574328 39.872711 
L 22.655495 39.867569 
L 22.740043 39.761965 
L 22.8043 39.848145 
L 22.824592 39.861473 
L 22.841502 39.801665 
L 22.888849 39.801334 
L 22.895613 39.768121 
L 22.94296 39.854183 
L 23.000453 39.794236 
L 23.024127 39.742598 
L 23.074856 39.830057 
L 23.108675 39.814622 
L 23.223662 39.868518 
L 23.18646 39.781716 
L 23.227043 39.846033 
L 23.301446 39.795623 
L 23.243953 39.874286 
L 23.345412 39.838586 
L 23.41305 39.913777 
L 23.460398 39.867731 
L 23.612585 39.725513 
L 23.622731 39.729048 
L 23.653169 39.661001 
L 23.680224 39.64799 
L 23.734335 39.568903 
L 23.791828 39.647561 
L 24.221336 39.577136 
L 24.329558 39.522398 
L 24.275447 39.597561 
L 24.336322 39.535383 
L 24.346468 39.506501 
L 24.427634 39.609863 
L 24.434398 39.590935 
L 24.505419 39.495755 
L 24.542621 39.41128 
L 24.623787 39.43132 
L 24.7151 39.485567 
L 24.742155 39.461532 
L 24.806412 39.547883 
L 24.894343 39.578962 
L 24.911253 39.528358 
L 25.036385 39.354979 
L 25.046531 39.403601 
L 25.049912 39.441123 
L 25.110788 39.387668 
L 25.158135 39.404872 
L 25.262975 39.432952 
L 25.279885 39.393654 
L 25.330614 39.261262 
L 25.401635 39.35264 
L 25.425309 39.300165 
L 25.455746 39.385291 
L 25.509857 39.377574 
L 25.611316 39.447806 
L 25.631607 39.429072 
L 25.651899 39.479281 
L 25.746593 39.417269 
L 25.969802 39.358165 
L 26.081406 39.324859 
L 26.010385 39.389408 
L 26.084788 39.331482 
L 26.145663 39.219168 
L 26.253885 39.216867 
L 26.199774 39.282819 
L 26.257267 39.230467 
L 26.321524 39.340532 
L 26.274177 39.208317 
L 26.372253 39.273717 
L 26.531205 39.180948 
L 26.534587 39.192147 
L 26.585316 39.255534 
L 26.649573 39.215499 
L 26.652955 39.176383 
L 26.690156 39.246031 
L 26.761177 39.213307 
L 26.791615 39.146838 
L 26.876163 39.193777 
L 26.882927 39.219489 
L 26.937039 39.120033 
L 26.967476 39.13254 
L 26.97424 39.109782 
L 27.055407 39.209131 
L 27.221122 39.357978 
L 27.396983 39.270133 
L 27.508587 39.002802 
L 27.555935 39.077922 
L 27.589754 39.11156 
L 27.620192 39.037894 
L 27.650629 39.029245 
L 27.697976 38.916244 
L 27.768997 38.948544 
L 27.850164 38.94814 
L 27.819727 38.993242 
L 27.87722 38.986368 
L 28.124102 38.841161 
L 28.134248 38.854576 
L 28.340546 39.075367 
L 28.475824 38.952373 
L 28.496116 39.027366 
L 28.577282 39.018572 
L 28.540081 38.986131 
L 28.587428 38.966664 
L 28.783581 38.788593 
L 28.617866 38.987608 
L 28.786963 38.795681 
L 28.827546 38.841469 
L 28.864748 38.719837 
L 28.88504 38.724147 
L 29.010172 38.569207 
L 29.585102 38.049274 
L 29.821839 35.895172 
L 29.852276 30.259836 
L 29.909769 38.462817 
L 29.926679 38.726851 
L 29.9977 37.870785 
L 30.065339 35.339635 
L 30.082249 31.031883 
L 30.146506 38.717369 
L 30.160033 38.680839 
L 30.25811 36.934813 
L 30.291929 32.129431 
L 30.298693 31.50768 
L 30.359568 38.520208 
L 30.366332 38.55605 
L 30.400152 38.089718 
L 30.481318 35.285639 
L 30.498228 32.099686 
L 30.569249 38.264561 
L 30.576013 38.215423 
L 30.674089 35.937361 
L 30.701145 32.769264 
L 30.76202 37.862723 
L 30.772166 37.905556 
L 30.819513 37.334468 
L 30.887152 34.038441 
L 30.897298 33.439166 
L 30.958173 37.459436 
L 30.975082 37.607046 
L 31.035957 36.833519 
L 31.093451 34.511323 
L 31.103596 34.191665 
L 31.154326 36.721575 
L 31.181381 37.235666 
L 31.259166 36.533572 
L 31.323423 34.918668 
L 31.374152 36.413161 
L 31.411353 37.028944 
L 31.489138 36.658676 
L 31.583833 35.73507 
L 31.634562 36.305445 
L 31.749548 37.037189 
L 31.776604 36.93282 
L 31.840861 36.80411 
L 31.901736 36.917151 
L 32.791188 39.499787 
L 32.801333 39.473218 
L 32.804715 39.458184 
L 32.872354 39.6507 
L 32.875736 39.63468 
L 32.973813 39.744932 
L 33.210549 40.250244 
L 32.980577 39.732191 
L 33.213931 40.245564 
L 33.876792 41.318452 
L 33.880174 41.316011 
L 33.883556 41.303708 
L 33.964723 41.409341 
L 33.971487 41.401541 
L 33.981633 41.398614 
L 34.123674 41.553231 
L 34.171022 41.511024 
L 34.269098 41.584872 
L 34.27248 41.568814 
L 34.343501 41.681532 
L 34.363793 41.664865 
L 34.485543 41.729598 
L 34.529508 41.646659 
L 34.600529 41.724115 
L 34.668168 41.889826 
L 34.722279 41.834066 
L 34.938723 41.671389 
L 34.952251 41.690951 
L 34.975925 41.69659 
L 35.01989 41.588123 
L 35.033418 41.589525 
L 35.077383 41.579631 
L 35.097675 41.496045 
L 35.219425 41.411979 
L 35.310738 41.377965 
L 35.2803 41.334167 
L 35.320883 41.368379 
L 35.364849 41.389675 
L 35.459543 41.310158 
L 35.544092 41.308197 
L 35.503508 41.233262 
L 35.55762 41.265543 
L 35.709807 41.216868 
L 35.713189 41.244202 
L 35.821411 41.327072 
L 35.834939 41.262993 
L 37.336523 40.271399 
L 37.350051 40.302922 
L 37.481947 40.437491 
L 37.502239 40.394103 
L 37.630753 40.289026 
L 37.52253 40.43275 
L 37.634135 40.305645 
L 37.803232 40.413094 
L 37.806614 40.409892 
L 37.860725 40.379191 
L 37.81676 40.41856 
L 37.918218 40.427234 
L 38.006149 40.313687 
L 38.046732 40.288784 
L 38.012913 40.324656 
L 38.100843 40.371455 
L 38.151572 40.434672 
L 38.212447 40.375571 
L 38.351107 40.234934 
L 38.381545 40.168842 
L 38.466093 40.230145 
L 38.601371 40.033765 
L 38.604753 40.052197 
L 38.675774 39.8873 
L 38.68592 39.889788 
L 38.719739 39.784905 
L 38.804288 39.889818 
L 38.841489 39.971979 
L 38.915892 39.904686 
L 38.966621 39.794422 
L 39.030878 39.877157 
L 39.149247 39.837209 
L 39.152629 39.859527 
L 40.062372 39.706474 
L 40.069136 39.681446 
L 40.126629 39.787141 
L 40.143539 39.767725 
L 40.18074 39.722084 
L 40.258525 39.8043 
L 40.349837 39.772433 
L 40.305872 39.837014 
L 40.370129 39.806476 
L 40.508789 39.877691 
L 40.387039 39.776636 
L 40.518935 39.866924 
L 40.525699 39.848004 
L 40.583192 39.960965 
L 40.606865 39.930158 
L 40.654213 39.974428 
L 40.620393 39.90304 
L 40.721852 39.929453 
L 40.887567 39.731323 
L 41.053282 39.787647 
L 41.060046 39.779984 
L 41.168268 39.649323 
L 41.08372 39.800666 
L 41.18856 39.690422 
L 41.242671 39.748797 
L 41.293401 39.652754 
L 41.398241 39.568474 
L 41.31031 39.662003 
L 41.415151 39.612648 
L 41.530137 39.639881 
L 41.435442 39.59952 
L 41.533519 39.618615 
L 41.536901 39.594904 
L 41.560574 39.678532 
L 41.641741 39.64633 
L 41.858186 39.838497 
L 41.966408 39.898378 
L 41.864949 39.834405 
L 41.973172 39.86836 
L 42.328276 39.707085 
L 42.933644 39.503739 
L 43.072304 39.482481 
L 43.079068 39.503966 
L 43.194054 39.517328 
L 43.200818 39.484888 
L 43.346242 39.29866 
L 43.366534 39.336423 
L 43.393589 39.288604 
L 43.48152 39.366799 
L 43.593124 39.340103 
L 43.555923 39.415069 
L 43.599888 39.348944 
L 43.626943 39.384645 
L 43.704728 39.309457 
L 43.809569 39.337593 
L 43.731784 39.260112 
L 43.823096 39.303715 
L 44.039541 39.268519 
L 44.049687 39.303027 
L 44.080124 39.330448 
L 44.137617 39.234844 
L 44.140999 39.238922 
L 44.327006 39.042264 
L 44.458902 39.1568 
L 44.340534 39.033265 
L 44.462284 39.135018 
L 44.529923 39.065356 
L 44.57727 39.125625 
L 44.614472 39.149833 
L 44.641527 39.074769 
L 44.675347 39.081948 
L 44.753132 39.01978 
L 44.790333 39.089347 
L 44.8715 39.10731 
L 44.891791 39.059588 
L 44.895173 39.066324 
L 44.972958 38.990195 
L 45.016923 39.031023 
L 45.206312 38.958766 
L 45.023687 39.042535 
L 45.209694 38.97643 
L 45.280715 39.035701 
L 45.348354 38.955781 
L 45.514069 38.747577 
L 45.520833 38.761114 
L 45.537743 38.802217 
L 45.581708 38.692055 
L 45.632438 38.759726 
L 45.673021 38.730405 
L 45.656111 38.786207 
L 45.74066 38.778583 
L 46.051799 38.593943 
L 46.061945 38.629263 
L 46.160021 38.729066 
L 46.187077 38.69031 
L 46.200605 38.694827 
L 46.379848 38.390092 
L 46.386612 38.413402 
L 46.454251 38.223507 
L 46.596292 37.978878 
L 46.599674 38.0045 
L 46.670695 37.735865 
L 46.778917 35.840215 
L 46.805973 30.023403 
L 46.866848 38.627304 
L 46.88714 38.807197 
L 46.951397 38.125425 
L 47.035945 34.851208 
L 47.052855 30.679631 
L 47.123876 38.969567 
L 47.134022 38.87741 
L 47.255772 35.347678 
L 47.272682 30.963712 
L 47.34032 38.90643 
L 47.350466 38.832736 
L 47.448543 36.936861 
L 47.485744 31.257936 
L 47.529709 37.608506 
L 47.550001 38.829532 
L 47.637932 37.467012 
L 47.685279 34.516863 
L 47.698807 31.522526 
L 47.763064 38.757882 
L 47.779973 38.630136 
L 47.854376 37.340228 
L 47.898342 34.355415 
L 47.911869 31.686546 
L 47.979508 38.745589 
L 47.993036 38.64663 
L 48.101258 36.427228 
L 48.131696 31.66594 
L 48.179043 38.295678 
L 48.202717 38.871102 
L 48.280502 37.676755 
L 48.344759 35.124604 
L 48.361668 31.4521 
L 48.432689 39.082139 
L 48.439453 39.049343 
L 48.571349 36.955256 
L 48.598404 34.132317 
L 48.611932 30.975082 
L 48.682953 39.449551 
L 48.693099 39.380475 
L 48.879106 36.232603 
L 48.90278 30.577502 
L 48.956891 39.291949 
L 48.977182 39.776535 
L 49.058349 38.826099 
L 49.23421 36.1111 
L 49.257884 30.535392 
L 49.315377 39.542596 
L 49.335669 39.871944 
L 49.413454 39.11468 
L 49.626516 37.610672 
L 49.629898 37.619615 
L 49.6671 37.533847 
L 49.744884 37.622765 
L 49.748266 37.617737 
L 49.785468 37.744736 
L 50.028968 38.262991 
L 50.03235 38.254126 
L 50.086461 38.412491 
L 50.089843 38.405853 
L 50.214975 38.65402 
L 50.539642 39.42067 
L 50.549787 39.405043 
L 50.942093 39.974269 
L 50.952239 39.944137 
L 50.972531 39.941928 
L 51.02326 40.05149 
L 51.030024 40.026016 
L 51.236323 40.432956 
L 51.28367 40.421036 
L 51.324253 40.513529 
L 51.550844 40.932198 
L 51.571135 40.913053 
L 51.638774 40.991678 
L 51.64892 40.992867 
L 51.733469 41.147413 
L 51.87551 41.336307 
L 52.443677 41.569997 
L 52.463969 41.505838 
L 52.504552 41.485572 
L 52.474115 41.530196 
L 52.575573 41.510673 
L 52.609393 41.5585 
L 52.677032 41.448117 
L 52.700705 41.467497 
L 52.751435 41.378697 
L 52.768344 41.382482 
L 52.839365 41.457712 
L 52.896858 41.328554 
L 52.988171 41.373245 
L 53.008462 41.348675 
L 53.180942 41.105918 
L 53.255345 40.96126 
L 53.306074 41.011747 
L 53.370331 41.062018 
L 53.414296 40.991449 
L 53.468407 40.997642 
L 53.427824 40.973426 
L 53.505609 40.940639 
L 53.580011 41.046286 
L 53.620595 40.929178 
L 53.833657 40.887708 
L 53.952025 40.797038 
L 53.965553 40.801282 
L 54.154942 40.697356 
L 53.975699 40.821016 
L 54.171852 40.739572 
L 54.178616 40.78605 
L 54.276692 40.708535 
L 54.398442 40.667039 
L 54.418734 40.690381 
L 54.510047 40.656236 
L 54.493137 40.598102 
L 54.513429 40.638889 
L 54.658852 40.569324 
L 54.520192 40.647578 
L 54.665616 40.587298 
L 54.740019 40.684782 
L 54.675762 40.580053 
L 54.79413 40.584857 
L 54.882061 40.580646 
L 54.841477 40.658981 
L 54.909116 40.616855 
L 54.997047 40.506668 
L 55.108651 40.376273 
L 55.125561 40.417599 
L 55.1932 40.384642 
L 55.139089 40.425094 
L 55.233783 40.443122 
L 55.270985 40.460365 
L 55.325096 40.397422 
L 55.342005 40.423706 
L 55.446846 40.307623 
L 55.494193 40.217473 
L 55.55845 40.313101 
L 55.717401 40.194898 
L 55.879735 40.110337 
L 56.015013 40.214216 
L 56.058978 40.175849 
L 56.02854 40.167187 
L 56.07927 40.12435 
L 56.140145 40.038528 
L 56.204402 40.06439 
L 56.258513 40.158475 
L 56.211166 40.06069 
L 56.332916 40.11841 
L 56.366735 40.140688 
L 56.464812 40.006977 
L 56.593326 40.076392 
L 56.630527 40.053509 
L 56.674492 40.166162 
L 56.677874 40.14607 
L 56.765805 40.202604 
L 56.708312 40.126987 
L 56.79286 40.176974 
L 56.890937 40.073568 
L 56.921374 40.089733 
L 57.232513 40.117615 
L 57.239277 40.080239 
L 57.357645 39.947069 
L 57.374555 39.95288 
L 57.479395 40.034435 
L 57.492923 40.005321 
L 57.597764 40.085821 
L 57.634965 40.003285 
L 57.672166 39.964746 
L 57.702604 40.05404 
L 57.746569 40.009355 
L 58.037417 39.964583 
L 58.105055 39.8198 
L 58.159167 39.898554 
L 58.267389 39.933576 
L 58.209896 39.838954 
L 58.277535 39.930367 
L 58.429722 39.786746 
L 58.534563 39.811011 
L 58.44325 39.832681 
L 58.537945 39.824381 
L 58.632639 39.863058 
L 58.551472 39.811556 
L 58.646167 39.831573 
L 58.710424 39.90804 
L 58.757771 39.808122 
L 58.811882 39.817431 
L 58.781445 39.791208 
L 58.862611 39.780043 
L 58.893049 39.760854 
L 58.923486 39.865266 
L 58.93025 39.86291 
L 58.937014 39.877605 
L 58.974216 39.79989 
L 59.028327 39.817628 
L 59.156841 39.782556 
L 59.210952 39.735069 
L 59.265063 39.814837 
L 59.332702 39.926979 
L 59.376667 39.821842 
L 59.380049 39.81031 
L 59.420633 40.061368 
L 59.637077 41.393077 
L 59.853522 41.79392 
L 59.880577 41.77094 
L 60.073348 41.90973 
L 60.127459 41.819328 
L 60.191716 41.889657 
L 60.218772 41.938619 
L 60.249209 41.876523 
L 60.306703 41.905908 
L 60.607696 41.879695 
L 60.611078 41.898503 
L 60.688862 41.881675 
L 60.665189 41.822889 
L 60.699008 41.846577 
L 60.732828 41.807586 
L 60.803849 41.894179 
L 60.905307 41.94599 
L 60.84105 41.842993 
L 60.935745 41.870953 
L 61.006765 41.849176 
L 60.956036 41.913427 
L 61.050731 41.861395 
L 61.355106 41.83985 
L 61.358488 41.810345 
L 61.382161 41.72566 
L 61.446418 41.84772 
L 61.470092 41.785395 
L 61.673009 41.726184 
L 61.480238 41.808369 
L 61.686537 41.75584 
L 61.960474 41.850982 
L 62.031495 41.783275 
L 62.058551 41.883033 
L 62.065315 41.879519 
L 62.183683 42.029413 
L 62.190447 42.013672 
L 62.295287 42.011039 
L 62.302051 42.022356 
L 62.305433 42.039811 
L 62.389981 41.906129 
L 62.481294 41.90878 
L 62.430565 41.958501 
L 62.501586 41.922352 
L 62.599662 41.917115 
L 62.515113 41.908073 
L 62.61319 41.903614 
L 62.711266 41.803376 
L 62.738322 41.839461 
L 62.745086 41.865399 
L 62.782287 41.780087 
L 62.836398 41.787896 
L 62.83978 41.767694 
L 62.917565 41.908396 
L 62.931093 41.88673 
L 62.998732 41.860534 
L 62.941239 41.923366 
L 63.035933 41.911051 
L 63.056225 41.935076 
L 63.130628 41.825772 
L 63.49926 41.64142 
L 63.140774 41.853389 
L 63.533079 41.773069 
L 63.668357 41.950108 
L 63.692031 41.875441 
L 63.776579 41.960507 
L 63.793489 41.995372 
L 63.857746 41.86218 
L 63.867892 41.868257 
L 63.898329 41.811803 
L 63.952441 41.910315 
L 63.972732 41.911516 
L 63.976114 41.928307 
L 64.043753 41.835972 
L 64.070809 41.835932 
L 64.162121 41.797433 
L 64.165503 41.763111 
L 64.294017 41.67259 
L 64.452969 41.579012 
L 64.466496 41.618713 
L 64.743816 41.857542 
L 64.777636 41.8745 
L 64.865566 41.798008 
L 64.929823 41.83714 
L 64.970406 41.76337 
L 64.980552 41.787999 
L 65.021136 41.705663 
L 65.065101 41.703736 
L 65.183469 41.632944 
L 65.190233 41.646986 
L 65.224052 41.673455 
L 65.295073 41.608642 
L 65.366094 41.556989 
L 65.413441 41.571506 
L 65.548719 41.691134 
L 65.450643 41.552728 
L 65.555483 41.688645 
L 65.558865 41.682248 
L 65.575775 41.72833 
L 65.640032 41.758461 
L 65.853094 41.838147 
L 65.856476 41.825868 
L 65.924115 41.775689 
L 65.89706 41.835245 
L 65.964699 41.826308 
L 65.998518 41.782009 
L 66.083067 41.830438 
L 66.218345 41.644356 
L 66.231872 41.670914 
L 66.296129 41.682008 
L 66.27922 41.640283 
L 66.336713 41.664601 
L 66.411116 41.567683 
L 66.451699 41.645232 
L 66.580213 41.719827 
L 66.64447 41.848177 
L 66.712109 41.83382 
L 66.786512 41.790393 
L 66.827095 41.829008 
L 66.860914 41.861257 
L 66.925171 41.771878 
L 67.006338 41.712245 
L 66.942081 41.803539 
L 67.057067 41.76185 
L 67.063831 41.788403 
L 67.11456 41.656168 
L 67.128088 41.661895 
L 67.195727 41.564645 
L 67.249838 41.591343 
L 67.337769 41.645454 
L 67.358061 41.585288 
L 67.489956 41.534311 
L 67.598179 41.568485 
L 67.61847 41.514998 
L 67.74022 41.484411 
L 67.746984 41.488245 
L 67.75713 41.520854 
L 67.807859 41.424414 
L 67.848443 41.42659 
L 68.00063 41.195968 
L 68.146054 41.332342 
L 68.162964 41.293424 
L 68.281332 41.233357 
L 68.284714 41.249773 
L 68.534978 41.139678 
L 68.842735 41.033585 
L 68.846117 41.047333 
L 68.859645 41.08803 
L 68.940811 40.979682 
L 68.944193 40.991017 
L 68.998304 40.9273 
L 69.038888 41.026336 
L 69.05918 40.953008 
L 69.333117 40.946955 
L 69.488687 40.823574 
L 69.356791 40.991793 
L 69.492069 40.828618 
L 69.579999 40.828666 
L 69.52927 40.748655 
L 69.596909 40.79607 
L 69.678076 40.678917 
L 69.732187 40.724859 
L 69.833645 40.732585 
L 69.738951 40.717846 
L 69.847173 40.710524 
L 70.060236 40.538628 
L 70.070381 40.554368 
L 70.094055 40.616256 
L 70.151548 40.503277 
L 70.178604 40.537295 
L 70.222569 40.538904 
L 70.25977 40.62517 
L 70.27668 40.591145 
L 70.364611 40.544689 
L 70.286826 40.556173 
L 70.371375 40.529643 
L 70.516798 40.382336 
L 70.557382 40.480008 
L 70.628403 40.404182 
L 70.773826 40.328545 
L 70.794118 40.39864 
L 70.875285 40.290105 
L 71.02409 40.069536 
L 71.128931 40.14767 
L 71.149222 40.119741 
L 71.314938 39.869036 
L 71.321702 39.889781 
L 71.385959 39.934419 
L 71.335229 39.885279 
L 71.433306 39.896526 
L 71.538146 39.734387 
L 71.565202 39.781635 
L 71.646368 39.841467 
L 71.592257 39.767267 
L 71.680188 39.803097 
L 72.015001 39.798656 
L 72.055584 39.846029 
L 72.035292 39.770656 
L 72.109695 39.742478 
L 72.167188 39.665947 
L 72.217917 39.741393 
L 72.302466 39.77965 
L 72.255119 39.666236 
L 72.332904 39.73839 
L 72.481709 39.572826 
L 72.373487 39.777321 
L 72.491855 39.584681 
L 72.613605 39.518409 
L 72.671098 39.568158 
L 72.731973 39.468603 
L 72.735355 39.496823 
L 72.826668 39.338527 
L 72.945036 39.368484 
L 72.887543 39.236728 
L 72.9518 39.358904 
L 73.489529 38.648639 
L 73.499675 38.683915 
L 73.503057 38.693831 
L 73.567314 38.549135 
L 73.570696 38.552158 
L 73.648481 38.495494 
L 73.651863 38.480986 
L 73.790522 38.111768 
L 73.797286 38.113447 
L 73.800668 38.120634 
L 73.831106 37.946277 
L 73.976529 36.630039 
L 74.013731 30.031001 
L 74.067842 37.553831 
L 74.084752 37.938347 
L 74.162536 36.873638 
L 74.209884 34.280055 
L 74.22003 33.71806 
L 74.29105 36.613446 
L 74.389127 35.619569 
L 74.558224 35.74107 
L 74.91671 35.691618 
L 74.923474 35.716811 
L 75.014787 35.746809 
L 74.970822 35.67628 
L 75.045224 35.726489 
L 75.173738 35.787741 
L 75.051988 35.718215 
L 75.19403 35.741372 
L 75.214322 35.70671 
L 75.292107 35.797648 
L 75.33269 35.751006 
L 75.430766 35.830268 
L 75.505169 35.78927 
L 75.467968 35.857956 
L 75.535607 35.856058 
L 76.046281 36.122483 
L 76.134211 36.196815 
L 76.083482 36.098503 
L 76.168031 36.185219 
L 76.370947 36.365542 
L 76.374329 36.360674 
L 76.377711 36.355167 
L 76.431822 36.472077 
L 76.469024 36.442867 
L 76.668559 36.856738 
L 76.671941 36.82572 
L 76.766635 36.94489 
L 76.770017 36.930486 
L 77.094684 37.829661 
L 77.098066 37.816905 
L 77.277309 38.350054 
L 77.422733 38.708243 
L 77.426115 38.702513 
L 77.480226 38.822786 
L 77.662851 39.222208 
L 77.865768 39.612073 
L 77.86915 39.602903 
L 77.950316 39.854584 
L 78.274983 40.557797 
L 78.281747 40.539063 
L 78.285129 40.536369 
L 78.315566 40.635879 
L 78.467754 40.99408 
L 78.474518 40.985619 
L 79.164435 42.07463 
L 79.167817 42.050469 
L 79.205018 42.131908 
L 79.272657 42.074664 
L 79.391025 42.11436 
L 79.465428 42.162085 
L 79.46881 42.189232 
L 79.50263 42.246199 
L 79.563505 42.144498 
L 79.570269 42.159701 
L 79.658199 42.062951 
L 79.692019 42.113136 
L 79.898317 42.04742 
L 79.911845 42.067172 
L 79.949047 42.139613 
L 80.009922 41.995099 
L 80.162109 41.825025 
L 80.256804 41.792116 
L 80.185783 41.759775 
L 80.260186 41.781498 
L 80.463102 41.405063 
L 80.500304 41.486105 
L 80.574707 41.538656 
L 80.530741 41.467594 
L 80.611908 41.473645 
L 80.77086 41.328682 
L 80.774241 41.343036 
L 80.814825 41.350971 
L 80.794533 41.318014 
L 80.8757 41.305216 
L 81.017742 41.1319 
L 81.031269 41.154097 
L 81.048179 41.110947 
L 81.146256 41.177646 
L 81.149637 41.191053 
L 81.217276 41.040149 
L 81.220658 41.045668 
L 81.332263 41.026341 
L 81.295061 41.088657 
L 81.335645 41.032291 
L 81.48445 40.82414 
L 81.355936 41.044751 
L 81.487832 40.833825 
L 81.511506 40.848723 
L 81.555471 40.746567 
L 81.572381 40.755479 
L 81.582527 40.779158 
L 81.758388 40.746752 
L 81.819263 40.793919 
L 81.859846 40.72047 
L 81.86661 40.724875 
L 81.890284 40.780212 
L 81.951159 40.634292 
L 82.089819 40.498361 
L 81.978214 40.683723 
L 82.116874 40.523023 
L 82.279208 40.435991 
L 82.282589 40.438903 
L 82.363756 40.509906 
L 82.407722 40.464313 
L 82.438159 40.402924 
L 82.47536 40.484553 
L 82.512562 40.468759 
L 82.573437 40.532862 
L 82.624166 40.466355 
L 82.674895 40.51151 
L 82.76959 40.431471 
L 82.850756 40.475894 
L 82.800027 40.391957 
L 82.881194 40.434213 
L 83.01309 40.307191 
L 83.023236 40.317488 
L 83.185569 40.304043 
L 83.199097 40.36182 
L 83.209243 40.376797 
L 83.25659 40.278071 
L 83.283646 40.274313 
L 83.449361 40.214445 
L 83.564347 40.241791 
L 83.513618 40.186767 
L 83.567729 40.238175 
L 83.703007 40.121274 
L 83.730063 40.161345 
L 83.801083 40.070007 
L 83.804465 40.077697 
L 83.889014 40.08684 
L 83.912688 40.043499 
L 84.014146 39.972888 
L 83.922833 40.06234 
L 84.044584 40.007357 
L 84.132514 40.142072 
L 84.173097 40.13341 
L 84.301611 40.125797 
L 84.315139 40.091251 
L 84.318521 40.075019 
L 84.392924 40.194579 
L 84.409834 40.174368 
L 84.531584 40.264764 
L 84.548494 40.230392 
L 84.643188 40.144575 
L 84.562021 40.258898 
L 84.66348 40.207092 
L 84.670244 40.193124 
L 84.791994 40.193847 
L 84.886688 40.069073 
L 84.802139 40.199037 
L 84.927271 40.130235 
L 85.143716 40.083943 
L 85.265466 39.985543 
L 85.275612 40.009542 
L 85.370306 40.11224 
L 85.397362 40.10186 
L 85.465001 40.061851 
L 85.41089 40.05452 
L 85.481911 40.031555 
L 85.610425 39.943148 
L 85.505584 40.044707 
L 85.617189 39.948858 
L 86.016258 39.819496 
L 86.117717 39.739684 
L 86.14139 39.757043 
L 86.26314 39.829342 
L 86.28005 39.796723 
L 86.290196 39.782973 
L 86.340925 39.886109 
L 86.378126 39.849945 
L 86.411946 39.891171 
L 86.459293 39.810296 
L 86.486349 39.838602 
L 86.499877 39.847361 
L 86.621627 39.769126 
L 86.631772 39.787672 
L 86.67912 39.683764 
L 86.706175 39.68933 
L 86.709557 39.667683 
L 86.787342 39.804373 
L 86.80087 39.78734 
L 87.203321 39.577121 
L 87.216849 39.631802 
L 87.372419 39.722838 
L 87.223613 39.626491 
L 87.385946 39.701243 
L 87.571953 39.731494 
L 87.39271 39.675738 
L 87.588863 39.683926 
L 87.619301 39.749558 
L 87.710613 39.700033 
L 87.713995 39.731199 
L 87.781634 39.6138 
L 87.815454 39.668696 
L 87.886474 39.555518 
L 87.943968 39.642561 
L 88.011607 39.576772 
L 88.072482 39.689293 
L 88.096155 39.669944 
L 88.211141 39.780933 
L 88.309218 39.757183 
L 88.251725 39.79816 
L 88.326128 39.785127 
L 88.346419 39.827611 
L 88.420822 39.711237 
L 88.427586 39.720651 
L 88.518898 39.782847 
L 88.559482 39.762525 
L 88.704905 39.847937 
L 88.566246 39.757309 
L 88.718433 39.799646 
L 88.762399 39.728335 
L 88.833419 39.750432 
L 88.836801 39.772266 
L 88.934878 39.695035 
L 89.039718 39.625161 
L 88.982225 39.74291 
L 89.049864 39.635568 
L 89.246017 39.744262 
L 89.262927 39.726391 
L 89.398204 39.606809 
L 89.411732 39.634017 
L 89.415114 39.64414 
L 89.475989 39.477423 
L 89.570684 39.550447 
L 89.604503 39.451977 
L 89.729635 39.383735 
L 89.614649 39.463409 
L 89.739781 39.394846 
L 89.820948 39.507555 
L 89.861531 39.438204 
L 89.868295 39.396248 
L 89.91226 39.471365 
L 89.966371 39.473761 
L 90.088122 39.522392 
L 90.145615 39.548281 
L 90.105031 39.489819 
L 90.179434 39.471886 
L 90.240309 39.427244 
L 90.287656 39.491263 
L 90.67658 39.260516 
L 90.683344 39.23547 
L 90.767893 39.346698 
L 90.852441 39.424049 
L 90.774657 39.328624 
L 90.893025 39.336649 
L 90.997865 39.340489 
L 90.960664 39.395277 
L 91.008011 39.347612 
L 91.055358 39.406707 
L 91.024921 39.328928 
L 91.068886 39.387265 
" clip-path="url(#p8d83fd50e7)" style="fill: none; stroke: #000000; stroke-width: 0.6; stroke-linecap: square"/>
   </g>
   <g id="line2d_3">
    <path d="M 9.905557 58.060491 
L 10.253897 56.068973 
L 10.301245 55.806507 
L 10.338446 54.890326 
L 10.351974 43.943546 
L 10.429759 56.143156 
L 10.45005 58.705147 
L 10.541363 57.800471 
L 10.774717 56.372952 
L 10.801773 56.285529 
L 10.947196 54.338383 
L 10.957342 43.949296 
L 11.048655 58.656422 
L 11.055419 58.697053 
L 11.10953 58.142911 
L 11.407141 56.211443 
L 11.413905 56.233906 
L 11.464634 56.055388 
L 11.532273 55.242426 
L 11.545801 50.079311 
L 11.552565 43.975153 
L 11.647259 58.717671 
L 11.650641 58.706404 
L 11.73519 57.871579 
L 11.985454 56.329547 
L 12.144405 55.266739 
L 12.157933 51.545944 
L 12.164697 43.953654 
L 12.259392 58.685591 
L 12.262774 58.681123 
L 12.766684 54.631018 
L 12.780211 43.989402 
L 12.861378 58.194595 
L 12.871524 58.675397 
L 12.966218 57.759383 
L 13.361906 55.397022 
L 13.378816 52.399497 
L 13.38558 43.949308 
L 13.480274 58.691508 
L 13.483656 58.686775 
L 13.848906 56.193428 
L 13.852288 56.212097 
L 13.990948 54.942877 
L 14.004476 43.961321 
L 14.082261 56.237665 
L 14.102552 58.651981 
L 14.193865 57.732918 
L 14.440747 56.203184 
L 14.454275 56.234721 
L 14.521914 55.983293 
L 14.525296 55.993684 
L 14.559115 55.742737 
L 14.589553 54.591935 
L 14.599698 43.976607 
L 14.687629 58.483837 
L 14.697775 58.684442 
L 14.782324 57.842417 
L 15.174629 54.200238 
L 15.184775 43.974168 
L 15.27947 58.70339 
L 15.282852 58.711147 
L 15.303143 58.517715 
L 15.634574 56.251475 
L 15.668393 56.157991 
L 15.779998 54.284709 
L 15.790144 43.951231 
L 15.881456 58.662549 
L 15.884838 58.69841 
L 15.942331 58.154153 
L 16.182449 56.445562 
L 16.185831 56.452827 
L 16.223033 56.276784 
L 16.344783 55.653529 
L 16.371838 54.188046 
L 16.381984 43.963582 
L 16.476679 58.708567 
L 16.503734 58.486633 
L 16.811491 56.361584 
L 16.818255 56.367065 
L 16.987353 55.214514 
L 17.00088 49.73932 
L 17.007644 43.973265 
L 17.102339 58.657567 
L 17.105721 58.651327 
L 17.433769 56.262826 
L 17.55552 55.787961 
L 17.589339 54.755834 
L 17.602867 43.972138 
L 17.684033 58.084743 
L 17.697561 58.690429 
L 17.788874 57.801692 
L 18.015464 56.334176 
L 18.174416 55.636716 
L 18.198089 54.245761 
L 18.208235 43.948171 
L 18.299548 58.652739 
L 18.30293 58.692597 
L 18.363805 58.105876 
L 18.678326 56.208237 
L 18.722291 55.996657 
L 18.786548 54.635003 
L 18.796694 43.989148 
L 18.884624 58.482677 
L 18.89477 58.722573 
L 18.979319 57.889549 
L 19.236347 56.297891 
L 19.239729 56.306493 
L 19.27693 56.127887 
L 19.280312 56.128076 
L 19.378389 55.118138 
L 19.388534 52.048846 
L 19.395298 43.956919 
L 19.489993 58.721259 
L 19.493375 58.716097 
L 19.993903 54.747836 
L 20.007431 43.969923 
L 20.088597 58.065879 
L 20.105507 58.691288 
L 20.19682 57.781866 
L 20.484285 56.199961 
L 20.487667 56.20643 
L 20.52825 56.049655 
L 20.602653 55.001945 
L 20.619563 43.985747 
L 20.693966 55.243862 
L 20.714257 58.687029 
L 20.808952 57.756366 
L 21.03216 56.381891 
L 21.201258 54.709945 
L 21.214785 43.978748 
L 21.295952 58.085576 
L 21.30948 58.707832 
L 21.404174 57.79021 
L 21.70855 56.084327 
L 21.711932 56.090386 
L 21.752515 55.937031 
L 21.806626 55.380193 
L 21.823536 51.041559 
L 21.8303 43.964921 
L 21.924994 58.669974 
L 21.928376 58.664147 
L 22.425522 54.700665 
L 22.43905 43.972084 
L 22.520217 58.125104 
L 22.533744 58.68417 
L 22.625057 57.787595 
L 23.024127 54.547343 
L 23.034273 43.965732 
L 23.122203 58.499807 
L 23.132349 58.699141 
L 23.216898 57.851636 
L 23.626113 54.269816 
L 23.636259 43.963013 
L 23.727571 58.661284 
L 23.730953 58.700078 
L 23.788447 58.15536 
L 24.018419 56.471559 
L 24.092822 56.225277 
L 24.096204 56.228418 
L 24.221336 54.744256 
L 24.234863 43.971306 
L 24.31603 58.057845 
L 24.329558 58.710769 
L 24.424252 57.786666 
L 24.735391 56.095591 
L 24.738773 56.102947 
L 24.786121 55.951309 
L 24.840232 55.19328 
L 24.85376 48.273742 
L 24.860524 43.992066 
L 24.951836 58.658279 
L 24.955218 58.651861 
L 25.073586 57.5141 
L 25.391489 55.779224 
L 25.394871 55.78198 
L 25.408399 55.663179 
L 25.435454 54.643755 
L 25.448982 44.006631 
L 25.530149 58.239292 
L 25.540295 58.673931 
L 25.634989 57.776031 
L 25.919073 56.144474 
L 26.007003 55.573711 
L 26.030677 53.555534 
L 26.037441 43.993985 
L 26.135517 58.702359 
L 26.615754 54.292462 
L 26.625899 43.951085 
L 26.717212 58.693402 
L 26.723976 58.740908 
L 26.778087 58.203308 
L 27.126428 56.049454 
L 27.129809 56.057531 
L 27.177157 55.891526 
L 27.238032 54.734642 
L 27.25156 43.973817 
L 27.332726 58.181053 
L 27.346254 58.649074 
L 27.437567 57.743112 
L 27.643865 56.404446 
L 27.816345 55.106033 
L 27.833254 43.965311 
L 27.907657 54.251279 
L 27.927949 58.72033 
L 28.022643 57.798355 
L 28.327018 56.145202 
L 28.333782 56.167955 
L 28.408185 55.991289 
L 28.465678 55.010019 
L 28.482588 43.965147 
L 28.556991 55.278858 
L 28.577282 58.663653 
L 28.671977 57.732027 
L 29.064283 54.697797 
L 29.077811 43.98838 
L 29.158977 58.154913 
L 29.172505 58.678268 
L 29.263818 57.791575 
L 29.537755 56.161982 
L 29.656123 55.089979 
L 29.666269 52.070956 
L 29.673033 43.964036 
L 29.77111 58.685496 
L 30.112686 56.286708 
L 30.251346 55.088245 
L 30.261492 51.555929 
L 30.268256 43.967891 
L 30.36295 58.70073 
L 30.366332 58.688962 
L 30.525284 57.196941 
L 30.765402 56.086587 
L 30.826277 55.659542 
L 30.853332 54.690038 
L 30.86686 43.991217 
L 30.948027 58.159559 
L 30.961555 58.695225 
L 31.052867 57.795533 
L 31.330187 56.197878 
L 31.472228 55.316856 
L 31.485756 53.399438 
L 31.49252 43.968123 
L 31.587215 58.649216 
L 31.590597 58.6475 
L 32.060687 54.946734 
L 32.074215 43.969029 
L 32.152 55.984833 
L 32.172291 58.685188 
L 32.263604 57.805282 
L 32.473285 56.441687 
L 32.480048 56.456243 
L 32.544305 56.148422 
L 32.649146 54.262654 
L 32.659292 43.963288 
L 32.750604 58.682814 
L 32.753986 58.717323 
L 32.811479 58.178947 
L 33.166584 56.052094 
L 33.173347 56.057957 
L 33.186875 56.083328 
L 33.237604 55.846563 
L 33.284952 54.938305 
L 33.298479 43.952613 
L 33.376264 56.541625 
L 33.396556 58.64291 
L 33.487868 57.726304 
L 33.687403 56.396724 
L 33.690785 56.397346 
L 33.870028 55.339703 
L 33.883556 53.649847 
L 33.893702 44.004109 
L 33.988397 58.687229 
L 34.049272 58.095426 
L 34.319827 56.312811 
L 34.323209 56.315603 
L 34.343501 56.18893 
L 34.461869 55.452719 
L 34.478779 53.889253 
L 34.488925 43.989655 
L 34.583619 58.671064 
L 34.587001 58.675551 
L 34.600529 58.53957 
L 35.087529 54.598475 
L 35.097675 43.976464 
L 35.185606 58.470447 
L 35.195751 58.681155 
L 35.2803 57.85621 
L 35.530564 56.296068 
L 35.659078 55.617061 
L 35.682752 54.372095 
L 35.692897 43.947953 
L 35.78421 58.659666 
L 35.787592 58.701375 
L 35.848467 58.127144 
L 36.13255 56.256734 
L 36.135932 56.258055 
L 36.139314 56.265215 
L 36.18328 56.102447 
L 36.27121 55.639948 
L 36.298266 54.022446 
L 36.308412 43.969323 
L 36.403106 58.660869 
L 36.883343 55.102327 
L 36.893488 51.61304 
L 36.900252 43.954746 
L 36.998329 58.702573 
L 37.481947 54.782258 
L 37.495475 43.973698 
L 37.576642 58.049057 
L 37.590169 58.699248 
L 37.684864 57.777609 
L 38.073788 55.026353 
L 38.090697 43.992409 
L 38.1651 55.092818 
L 38.185392 58.70414 
L 38.280086 57.80186 
L 38.466093 56.53442 
L 38.604753 56.120742 
L 38.696066 55.024765 
L 38.712975 43.977948 
L 38.787378 55.237009 
L 38.804288 58.673948 
L 38.902364 57.759399 
L 39.139101 56.322652 
L 39.291288 55.193536 
L 39.304816 47.498605 
L 39.308198 43.978167 
L 39.402893 58.684873 
L 39.406274 58.695965 
L 39.43333 58.445312 
L 39.727559 56.320291 
L 39.730941 56.32861 
L 39.781671 56.182807 
L 39.788434 56.181807 
L 39.896657 55.115833 
L 39.906803 52.214697 
L 39.913566 43.94786 
L 40.011643 58.678714 
L 40.116483 57.634173 
L 40.393803 56.066687 
L 40.471588 55.115745 
L 40.481733 51.806445 
L 40.488497 43.972261 
L 40.586574 58.729142 
L 41.127685 55.003612 
L 41.144595 43.967908 
L 41.218998 55.618744 
L 41.239289 58.641466 
L 41.330602 57.739597 
L 41.705998 54.094024 
L 41.716144 43.980075 
L 41.810838 58.717768 
L 41.824366 58.629085 
L 42.172707 56.253877 
L 42.243727 56.088271 
L 42.331658 55.116097 
L 42.341804 52.21531 
L 42.348568 43.940437 
L 42.443262 58.661533 
L 42.446644 58.640968 
L 42.541339 57.712899 
L 42.727346 56.456036 
L 42.730728 56.465264 
L 42.774693 56.275829 
L 42.909971 55.463677 
L 42.926881 53.772078 
L 42.937026 44.000213 
L 43.028339 58.690138 
L 43.031721 58.68927 
L 43.035103 58.691383 
L 43.045249 58.594149 
L 43.315804 56.46889 
L 43.319186 56.473232 
L 43.356388 56.348354 
L 43.35977 56.348246 
L 43.46461 55.852717 
L 43.508575 54.917262 
L 43.522103 43.950035 
L 43.599888 55.717182 
L 43.62018 58.731068 
L 43.711492 57.835598 
L 43.927937 56.406859 
L 44.110562 55.382081 
L 44.12409 53.964386 
L 44.134235 43.963805 
L 44.22893 58.723279 
L 44.242458 58.631284 
L 44.529923 56.426362 
L 44.590798 56.245931 
L 44.73284 55.348033 
L 44.746368 53.760409 
L 44.756514 43.981472 
L 44.851208 58.678282 
L 45.344972 54.641179 
L 45.3585 43.998325 
L 45.439667 58.223042 
L 45.453194 58.67981 
L 45.544507 57.774401 
L 45.946959 54.417654 
L 45.957104 43.949177 
L 46.048417 58.649778 
L 46.051799 58.699473 
L 46.119438 58.06521 
L 46.346028 56.43942 
L 46.535417 55.602498 
L 46.562473 53.826502 
L 46.572619 43.976501 
L 46.667313 58.672821 
L 46.762008 57.735938 
L 46.968306 56.400338 
L 47.039327 56.212227 
L 47.171223 54.87822 
L 47.184751 43.947462 
L 47.262536 56.713744 
L 47.279445 58.652972 
L 47.37414 57.737239 
L 47.752918 55.279165 
L 47.766446 51.884825 
L 47.77321 43.966933 
L 47.867904 58.697058 
L 47.871286 58.695262 
L 48.050529 57.055936 
L 48.233154 56.27214 
L 48.358286 54.45511 
L 48.368432 43.951972 
L 48.459745 58.656583 
L 48.463127 58.704726 
L 48.527384 58.105607 
L 48.824995 56.258999 
L 48.896016 56.04741 
L 48.963655 54.549618 
L 48.973801 43.945486 
L 49.061731 58.482311 
L 49.071877 58.715562 
L 49.156426 57.891735 
L 49.487856 56.095672 
L 49.491238 56.105563 
L 49.52844 55.896822 
L 49.575787 55.213314 
L 49.589315 49.05606 
L 49.596079 43.980364 
L 49.690773 58.677236 
L 49.734738 58.262993 
L 50.110134 55.895453 
L 50.1541 55.532274 
L 50.174391 53.73694 
L 50.184537 44.00366 
L 50.279232 58.711852 
L 50.678301 56.147631 
L 50.708739 56.044147 
L 50.786524 55.352347 
L 50.800052 53.842177 
L 50.810197 43.975385 
L 50.904892 58.646776 
L 51.391892 55.015529 
L 51.408802 43.990134 
L 51.483205 55.149068 
L 51.503496 58.687642 
L 51.598191 57.766168 
L 51.794344 56.455253 
L 52.000642 54.675512 
L 52.01417 44.001337 
L 52.095337 58.225783 
L 52.108865 58.645366 
L 52.196795 57.785738 
L 52.423386 56.325993 
L 52.555282 55.870695 
L 52.595865 54.881487 
L 52.609393 43.950359 
L 52.687178 56.351797 
L 52.704087 58.686304 
L 52.798782 57.775548 
L 53.05581 56.286826 
L 53.197851 55.110269 
L 53.207997 51.846328 
L 53.214761 43.952639 
L 53.312838 58.689927 
L 53.78631 54.299794 
L 53.796456 43.965409 
L 53.887768 58.683509 
L 53.894532 58.715602 
L 53.94188 58.250409 
L 54.215817 56.320824 
L 54.219199 56.330392 
L 54.222581 56.339489 
L 54.280074 56.194567 
L 54.283456 56.194552 
L 54.39506 54.744128 
L 54.408588 43.964013 
L 54.489755 58.071407 
L 54.503283 58.692437 
L 54.594595 57.798762 
L 54.831331 56.370245 
L 54.986901 54.944655 
L 55.000429 43.949406 
L 55.078214 55.506736 
L 55.098505 58.714182 
L 55.189818 57.808734 
L 55.45361 56.267084 
L 55.507721 56.169781 
L 55.605797 55.212409 
L 55.619325 48.458747 
L 55.626089 43.985411 
L 55.720783 58.68656 
L 56.234839 54.93512 
L 56.248367 43.952324 
L 56.326152 56.193577 
L 56.346443 58.647169 
L 56.437756 57.733808 
L 56.772569 55.919452 
L 56.803006 55.773362 
L 56.836826 55.036547 
L 56.853735 43.987551 
L 56.928138 55.462477 
L 56.945048 58.663655 
L 57.039742 57.755253 
L 57.279861 56.227115 
L 57.320444 56.114086 
L 57.41852 54.674193 
L 57.432048 44.006111 
L 57.513215 58.162548 
L 57.526743 58.707164 
L 57.618055 57.806922 
L 57.895375 56.202371 
L 58.023889 54.928579 
L 58.037417 43.964593 
L 58.115201 56.288178 
L 58.132111 58.67438 
L 58.226806 57.778732 
L 58.419576 56.441097 
L 58.422958 56.446838 
L 58.46016 56.301885 
L 58.463542 56.307974 
L 58.612347 55.15003 
L 58.622493 52.860454 
L 58.629257 43.956499 
L 58.723952 58.697326 
L 58.730716 58.671037 
L 59.136549 56.083205 
L 59.156841 55.981302 
L 59.217716 55.284445 
L 59.231244 52.113214 
L 59.238008 43.950706 
L 59.332702 58.688396 
L 59.336084 58.686341 
L 59.738536 56.184736 
L 59.86705 55.259688 
L 59.880577 51.774206 
L 59.887341 43.934387 
L 59.982036 58.630095 
L 59.985418 58.618185 
L 60.32023 56.232231 
L 60.435216 55.621643 
L 60.45889 54.439041 
L 60.469036 43.959886 
L 60.560348 58.659025 
L 60.567112 58.706478 
L 60.621224 58.167138 
L 61.054113 55.771359 
L 61.08455 55.132166 
L 61.094696 52.829752 
L 61.10146 43.943426 
L 61.196154 58.627534 
L 61.202918 58.597702 
L 61.693301 54.572515 
L 61.703446 43.975817 
L 61.791377 58.484988 
L 61.798141 58.658941 
L 61.882689 57.864426 
L 62.095752 56.407803 
L 62.099134 56.41099 
L 62.271613 55.621814 
L 62.298669 54.008209 
L 62.308815 43.983952 
L 62.403509 58.65521 
L 62.924329 54.322987 
L 62.934475 43.941329 
L 63.025787 58.619885 
L 63.032551 58.635728 
L 63.062989 58.33467 
L 63.435003 56.019626 
L 63.475586 55.758074 
L 63.512788 54.22611 
L 63.522933 43.970011 
L 63.617628 58.687987 
L 63.695413 57.934832 
L 64.111392 54.937851 
L 64.12492 43.957025 
L 64.202705 55.936102 
L 64.219614 58.67674 
L 64.314309 57.776826 
L 64.557809 56.326358 
L 64.561191 56.327859 
L 64.730288 54.808808 
L 64.743816 43.949795 
L 64.821601 56.788512 
L 64.838511 58.674216 
L 64.933205 57.740346 
L 65.13274 56.455278 
L 65.136122 56.456688 
L 65.345802 54.433823 
L 65.355948 43.955913 
L 65.447261 58.621322 
L 65.450643 58.64681 
L 65.49799 58.195448 
L 65.849712 56.122554 
L 65.930879 55.621459 
L 65.954553 54.095848 
L 65.964699 43.96041 
L 66.059393 58.655261 
L 66.072921 58.578199 
L 66.299511 56.693224 
L 66.478754 56.055292 
L 66.482136 56.057189 
L 66.573449 54.844867 
L 66.586977 43.947892 
L 66.664762 56.932728 
L 66.681671 58.637485 
L 66.776366 57.711762 
L 67.087505 55.947789 
L 67.090887 55.970949 
L 67.141616 55.628398 
L 67.16529 54.314503 
L 67.175435 43.964062 
L 67.266748 58.642437 
L 67.27013 58.674632 
L 67.324241 58.149076 
L 67.665818 56.111573 
L 67.770658 55.538826 
L 67.79095 54.338879 
L 67.801095 43.939373 
L 67.892408 58.617696 
L 67.89579 58.636691 
L 67.936373 58.257715 
L 68.332061 55.854838 
L 68.376026 55.081829 
L 68.386172 51.804222 
L 68.392936 43.967616 
L 68.487631 58.666939 
L 68.491013 58.655885 
L 68.846117 56.09745 
L 68.849499 56.103581 
L 68.937429 55.684001 
L 68.964485 54.792498 
L 68.978013 43.973818 
L 69.055798 56.988968 
L 69.072707 58.69102 
L 69.167402 57.759595 
L 69.566471 54.536675 
L 69.576617 43.962108 
L 69.664548 58.506281 
L 69.674694 58.685642 
L 69.759242 57.860156 
L 69.985833 56.356672 
L 69.995979 56.368843 
L 70.046708 56.227933 
L 70.158312 54.338993 
L 70.168458 43.949998 
L 70.25977 58.671176 
L 70.263152 58.718399 
L 70.327409 58.105756 
L 70.685896 55.991498 
L 70.689278 55.997615 
L 70.719715 55.829333 
L 70.76368 54.491208 
L 70.773826 43.961809 
L 70.861757 58.522206 
L 70.868521 58.678551 
L 70.953069 57.879577 
L 71.206715 56.290239 
L 71.348757 54.884285 
L 71.362285 43.951571 
L 71.44007 56.168414 
L 71.460361 58.712257 
L 71.551674 57.792533 
L 71.615931 57.245883 
L 71.839139 56.191109 
L 71.842521 56.193485 
L 71.960889 54.857896 
L 71.974417 43.942257 
L 72.052202 56.602753 
L 72.072494 58.689573 
L 72.163806 57.769938 
L 72.403924 56.312107 
L 72.474945 56.116128 
L 72.579786 54.923367 
L 72.593313 43.943051 
L 72.671098 56.375779 
L 72.688008 58.664038 
L 72.782702 57.755305 
L 73.046494 56.161223 
L 73.049876 56.172056 
L 73.100605 55.977122 
L 73.103987 55.986771 
L 73.154716 55.552286 
L 73.175008 54.298222 
L 73.185154 43.958343 
L 73.276467 58.650874 
L 73.28323 58.682613 
L 73.33396 58.17979 
L 73.618043 56.276162 
L 73.631571 56.279428 
L 73.793904 54.559216 
L 73.80405 43.972608 
L 73.891981 58.474088 
L 73.902127 58.669833 
L 73.986675 57.816233 
L 74.284287 56.112275 
L 74.358689 55.638798 
L 74.385745 54.030272 
L 74.395891 43.973198 
L 74.490585 58.697523 
L 74.537932 58.273897 
L 74.754377 56.59122 
L 75.011405 55.319695 
L 75.024933 53.042485 
L 75.031697 43.939526 
L 75.126391 58.637354 
L 75.133155 58.618448 
L 75.491641 56.194449 
L 75.511933 56.093756 
L 75.606628 54.437398 
L 75.616773 43.959552 
L 75.708086 58.65296 
L 75.711468 58.691654 
L 75.772343 58.137808 
L 76.046281 56.338722 
L 76.208614 54.411152 
L 76.21876 43.949754 
L 76.310072 58.656561 
L 76.316836 58.69397 
L 76.370947 58.167439 
L 76.658413 56.272722 
L 76.793691 55.557404 
L 76.813982 54.361324 
L 76.824128 43.945657 
L 76.915441 58.649621 
L 76.922205 58.692481 
L 76.972934 58.17838 
L 77.297601 56.129009 
L 77.405823 55.425446 
L 77.422733 53.212496 
L 77.429497 43.967151 
L 77.527573 58.672148 
L 77.530955 58.636477 
L 77.605358 57.889209 
L 77.977372 55.907522 
L 78.011191 55.642287 
L 78.038247 53.880691 
L 78.048393 43.975458 
L 78.143087 58.650384 
L 78.261455 57.497121 
L 78.498192 56.132869 
L 78.501574 56.147424 
L 78.504955 56.163981 
L 78.565831 55.930709 
L 78.61656 55.349667 
L 78.630088 53.929484 
L 78.640233 43.99203 
L 78.734928 58.674372 
L 78.748456 58.582906 
L 79.002102 56.565928 
L 79.029157 56.450611 
L 79.238838 53.760473 
L 79.248984 43.985041 
L 79.343678 58.678884 
L 79.472192 57.442252 
L 79.688637 56.274512 
L 79.807005 55.04504 
L 79.823915 43.990364 
L 79.898317 54.383646 
L 79.918609 58.748908 
L 80.013304 57.832186 
L 80.263568 56.330999 
L 80.297387 56.242466 
L 80.439429 54.580873 
L 80.449575 43.969369 
L 80.537505 58.481496 
L 80.547651 58.668903 
L 80.628818 57.854307 
L 80.960248 55.970199 
L 81.021124 55.305005 
L 81.034651 52.788983 
L 81.041415 43.955297 
L 81.13611 58.699514 
L 81.142874 58.670149 
L 81.535179 56.107877 
L 81.62311 55.283877 
L 81.636638 51.894928 
L 81.643402 43.952855 
L 81.741478 58.700034 
L 82.167603 55.950924 
L 82.194659 55.804834 
L 82.23186 54.610963 
L 82.242006 43.990157 
L 82.326555 58.195015 
L 82.336701 58.695671 
L 82.431395 57.803632 
L 82.685041 56.238814 
L 82.813555 55.303661 
L 82.827083 52.476014 
L 82.833847 43.951598 
L 82.931923 58.707306 
L 82.945451 58.594077 
L 83.290409 56.269689 
L 83.418923 55.204735 
L 83.432451 48.894222 
L 83.439215 43.992473 
L 83.53391 58.70103 
L 84.044584 54.818329 
L 84.058111 43.950131 
L 84.135896 56.992553 
L 84.152806 58.674141 
L 84.2475 57.746475 
L 84.484237 56.289213 
L 84.626278 55.52861 
L 84.64657 54.14151 
L 84.656716 43.967532 
L 84.75141 58.679914 
L 84.781848 58.406146 
L 85.238411 54.19215 
L 85.248556 43.97086 
L 85.343251 58.692529 
L 85.441327 57.73428 
L 85.769376 55.945929 
L 85.823487 55.314468 
L 85.837015 53.034321 
L 85.843779 43.959578 
L 85.938473 58.695557 
L 85.945237 58.669818 
L 86.347689 56.101417 
L 86.439001 55.055991 
L 86.455911 43.96118 
L 86.530314 54.753155 
L 86.550606 58.694912 
L 86.6453 57.75035 
L 86.733231 57.040719 
L 86.926002 56.159626 
L 87.007168 55.917208 
L 87.06128 54.796966 
L 87.074807 43.950455 
L 87.152592 57.186855 
L 87.169502 58.656606 
L 87.264196 57.721479 
L 87.497551 56.340371 
L 87.538134 56.210163 
L 87.646356 55.154129 
L 87.659884 45.462363 
L 87.663266 43.943288 
L 87.741051 56.041877 
L 87.757961 58.703474 
L 87.852655 57.80075 
L 88.258489 53.875026 
L 88.268634 43.980645 
L 88.363329 58.69531 
L 88.535808 57.117925 
L 88.850329 54.702821 
L 88.863857 43.988479 
L 88.945024 58.136391 
L 88.958551 58.700608 
L 89.049864 57.816544 
L 89.296746 56.337126 
L 89.475989 54.603556 
L 89.486135 43.984382 
L 89.574066 58.489207 
L 89.584212 58.663113 
L 89.665378 57.835924 
L 90.077976 54.952934 
L 90.091503 43.958461 
L 90.169288 56.099005 
L 90.18958 58.675001 
L 90.280892 57.766782 
L 90.527775 56.281175 
L 90.592032 56.031723 
L 90.669816 55.066269 
L 90.686726 43.969336 
L 90.761129 54.67189 
L 90.781421 58.689657 
L 90.876115 57.78328 
L 91.068886 56.502023 
L 91.068886 56.502023 
" clip-path="url(#p8d83fd50e7)" style="fill: none; stroke: #000000; stroke-width: 0.6; stroke-linecap: square"/>
   </g>
   <g id="line2d_4">
    <path d="M 95.127221 15.313171 
L 95.127221 8.552195 
" clip-path="url(#p8d83fd50e7)" style="fill: none; stroke: #000000; stroke-width: 1.5; stroke-linecap: square"/>
   </g>
  </g>
 </g>
 <defs>
  <clipPath id="p8d83fd50e7">
   <rect x="7.2" y="7.2" width="89.28" height="55.44"/>
  </clipPath>
 </defs>
</svg>
