<?xml version="1.0" encoding="utf-8" standalone="no"?>
<!DOCTYPE svg PUBLIC "-//W3C//DTD SVG 1.1//EN"
  "http://www.w3.org/Graphics/SVG/1.1/DTD/svg11.dtd">
<svg xmlns:xlink="http://www.w3.org/1999/xlink" width="103.68pt" height="69.84pt" viewBox="0 0 103.68 69.84" xmlns="http://www.w3.org/2000/svg" version="1.1">
 <metadata>
  <rdf:RDF xmlns:dc="http://purl.org/dc/elements/1.1/" xmlns:cc="http://creativecommons.org/ns#" xmlns:rdf="http://www.w3.org/1999/02/22-rdf-syntax-ns#">
   <cc:Work>
    <dc:type rdf:resource="http://purl.org/dc/dcmitype/StillImage"/>
    <dc:date>2022-05-18T12:00:17.635282</dc:date>
    <dc:format>image/svg+xml</dc:format>
    <dc:creator>
     <cc:Agent>
      <dc:title>Matplotlib v3.5.1, https://matplotlib.org/</dc:title>
     </cc:Agent>
    </dc:creator>
   </cc:Work>
  </rdf:RDF>
 </metadata>
 <defs>
  <style type="text/css">*{stroke-linejoin: round; stroke-linecap: butt}</style>
 </defs>
 <g id="figure_1">
  <g id="patch_1">
   <path d="M 0 69.84 
L 103.68 69.84 
L 103.68 0 
L 0 0 
L 0 69.84 
z
" style="fill: none"/>
  </g>
  <g id="axes_1">
   <g id="patch_2">
    <path d="M 7.2 62.64 
L 96.48 62.64 
L 96.48 7.2 
L 7.2 7.2 
L 7.2 62.64 
z
" style="fill: none"/>
   </g>
   <g id="matplotlib.axis_1"/>
   <g id="matplotlib.axis_2"/>
   <g id="line2d_1">
    <path d="M 9.905557 23.194598 
L 10.111856 22.900714 
L 10.247134 22.993246 
L 10.284335 22.920306 
L 10.341828 23.002805 
L 10.34521 23.01542 
L 10.348592 23.03428 
L 10.426377 22.936057 
L 10.446668 22.95871 
L 10.568419 22.811343 
L 10.598856 22.821638 
L 10.642821 22.860591 
L 10.615766 22.799698 
L 10.707078 22.796792 
L 10.84912 22.680256 
L 10.855884 22.689922 
L 10.920141 22.597825 
L 10.950578 22.64551 
L 11.129822 22.564338 
L 10.960724 22.67868 
L 11.133204 22.590553 
L 11.143349 22.618874 
L 11.224516 22.535265 
L 11.241426 22.579504 
L 11.373322 22.522881 
L 11.261717 22.592027 
L 11.383468 22.539862 
L 11.478162 22.537454 
L 11.454488 22.469031 
L 11.488308 22.505146 
L 11.525509 22.517308 
L 11.61344 22.474018 
L 11.667551 22.478937 
L 11.640495 22.527295 
L 11.701371 22.541808 
L 11.796065 22.639793 
L 11.833266 22.580894 
L 11.941489 22.477948 
L 12.029419 22.462207 
L 11.971926 22.515654 
L 12.046329 22.513109 
L 12.212044 22.444453 
L 12.228954 22.475336 
L 12.560385 22.46512 
L 12.563767 22.449817 
L 12.668607 22.449339 
L 12.60435 22.533757 
L 12.678753 22.461133 
L 12.692281 22.442642 
L 12.830941 22.506634 
L 12.854614 22.425252 
L 12.929017 22.523644 
L 12.939163 22.492529 
L 12.945927 22.51742 
L 13.006802 22.426758 
L 13.047385 22.468377 
L 13.165753 22.28932 
L 13.186045 22.293609 
L 13.341614 22.291809 
L 13.192809 22.272443 
L 13.348378 22.269019 
L 13.402489 22.183416 
L 13.456601 22.26933 
L 13.585115 22.381479 
L 13.50733 22.25937 
L 13.588497 22.366195 
L 13.723774 22.435447 
L 13.727156 22.419733 
L 13.862434 22.459904 
L 13.87258 22.48242 
L 13.943601 22.371211 
L 13.953747 22.376223 
L 13.99433 22.321376 
L 14.065351 22.363958 
L 14.089025 22.333543 
L 14.217539 22.462781 
L 14.339289 22.358347 
L 14.349434 22.37496 
L 14.356198 22.389267 
L 14.433983 22.290251 
L 14.444129 22.301209 
L 14.457657 22.328528 
L 14.559115 22.252152 
L 14.582789 22.29169 
L 14.613226 22.226105 
L 14.667337 22.225842 
L 14.718067 22.230461 
L 14.694393 22.165723 
L 14.75865 22.160513 
L 14.893928 22.084079 
L 14.789087 22.207406 
L 14.904074 22.098865 
L 14.954803 22.2006 
L 15.022442 22.162017 
L 15.113754 22.155756 
L 15.046115 22.180007 
L 15.127282 22.182072 
L 15.201685 22.185844 
L 15.225359 22.124943 
L 15.232122 22.141898 
L 15.24565 22.129687 
L 15.299761 22.24706 
L 15.303143 22.247456 
L 15.391074 22.351733 
L 15.424893 22.313519 
L 16.987353 22.038979 
L 17.068519 21.966977 
L 17.102339 22.009406 
L 17.186887 22.023083 
L 17.126012 21.973841 
L 17.203797 21.994767 
L 17.298492 21.945642 
L 17.247762 22.002833 
L 17.315401 21.985138 
L 17.328929 22.023633 
L 17.39995 21.905226 
L 17.41686 21.932833 
L 17.822693 21.494947 
L 17.930916 21.421877 
L 17.944443 21.42552 
L 17.947825 21.445996 
L 18.018846 21.312034 
L 18.039138 21.319976 
L 18.154124 21.387794 
L 18.160888 21.380049 
L 18.323221 21.119072 
L 18.370569 21.157633 
L 18.42468 21.112521 
L 18.461881 21.121409 
L 18.549812 20.971176 
L 18.830513 19.621678 
L 18.847423 14.714231 
L 18.857569 9.160677 
L 18.931972 22.911154 
L 18.948881 22.770474 
L 18.992847 22.444588 
L 19.358097 19.222106 
L 19.375007 9.485454 
L 19.439264 23.311535 
L 19.449409 23.446914 
L 19.527194 22.756399 
L 19.784222 20.874983 
L 19.892444 18.793514 
L 19.905972 9.388574 
L 19.980375 23.71012 
L 19.990521 23.64693 
L 19.993903 23.650378 
L 20.007431 23.521841 
L 20.518104 19.319387 
L 20.538396 9.4791 
L 20.595889 23.312966 
L 20.609417 23.792852 
L 20.70073 23.053672 
L 21.001723 21.301326 
L 21.231695 19.886506 
L 21.251987 17.677286 
L 21.265515 9.503994 
L 21.336535 23.799012 
L 21.353445 23.699029 
L 21.624001 21.89562 
L 21.634147 21.902728 
L 22.090709 20.186851 
L 22.131293 18.353446 
L 22.144821 9.449029 
L 22.215842 23.76877 
L 22.229369 23.720714 
L 22.932814 20.834849 
L 22.936196 20.835656 
L 23.189842 20.227528 
L 23.240571 18.337768 
L 23.254099 9.630215 
L 23.328502 23.687677 
L 23.338648 23.601256 
L 23.416432 23.015226 
L 23.639641 21.840881 
L 23.646405 21.865876 
L 23.70728 21.694103 
L 23.84594 21.390649 
L 24.001509 21.223512 
L 24.018419 21.229945 
L 24.048856 21.221308 
L 24.075912 21.124474 
L 24.329558 20.851291 
L 24.086058 21.147522 
L 24.336322 20.862961 
L 24.339704 20.879142 
L 24.417489 20.721061 
L 24.481746 20.65623 
L 24.532475 20.706582 
L 24.535857 20.730277 
L 24.623787 20.623951 
L 24.633933 20.635801 
L 24.789503 20.439923 
L 24.799648 20.46304 
L 24.80303 20.46786 
L 24.833468 20.374441 
L 24.850378 20.373242 
L 24.938308 18.888422 
L 24.9586 9.689305 
L 25.022857 23.540452 
L 25.029621 23.547601 
L 25.043149 23.44963 
L 25.330614 21.768461 
L 25.333996 21.770383 
L 25.506475 21.419726 
L 25.509857 21.433711 
L 25.530149 21.484053 
L 25.574114 21.337904 
L 25.594406 21.359582 
L 25.668809 21.263857 
L 25.763503 21.110625 
L 25.804087 21.12939 
L 26.047587 21.096597 
L 26.050969 21.109914 
L 26.054351 21.133726 
L 26.138899 21.005768 
L 26.152427 21.041281 
L 26.155809 21.056122 
L 26.172719 21.000658 
L 26.253885 20.999569 
L 26.294469 21.032631 
L 26.368872 20.987893 
L 26.507531 21.050637 
L 26.598844 21.155316 
L 26.625899 21.109204 
L 26.656337 21.079366 
L 26.734122 21.126577 
L 26.862636 21.342842 
L 26.872782 21.320759 
L 26.903219 21.364717 
L 26.943802 21.250307 
L 26.977622 21.288779 
L 26.994532 21.255572 
L 27.065552 21.409178 
L 27.068934 21.405481 
L 27.271851 21.595592 
L 27.278615 21.582979 
L 27.319198 21.597223 
L 27.285379 21.596767 
L 27.349636 21.652722 
L 27.47815 21.740053 
L 27.481532 21.722957 
L 27.562699 21.856572 
L 27.566081 21.8497 
L 27.687831 22.019815 
L 27.694594 22.007836 
L 27.829872 22.065173 
L 27.833254 22.082878 
L 27.988824 22.246272 
L 27.99897 22.217642 
L 28.002352 22.204014 
L 28.059845 22.302466 
L 28.100428 22.261626 
L 28.374366 22.479276 
L 28.377748 22.461996 
L 28.438623 22.538778 
L 28.475824 22.509013 
L 28.553609 22.575067 
L 28.513025 22.475837 
L 28.59081 22.54203 
L 28.600956 22.525455 
L 28.661831 22.666724 
L 28.749762 22.650516 
L 28.776817 22.697403 
L 28.935769 22.940539 
L 28.939151 22.925288 
L 29.270581 22.980214 
L 29.382186 23.086018 
L 29.399095 23.069049 
L 29.426151 23.037808 
L 29.541137 23.083959 
L 29.63245 22.957553 
L 29.669651 22.970496 
L 29.798165 22.963017 
L 29.693325 22.922206 
L 29.804929 22.95226 
L 29.808311 22.927077 
L 29.896242 23.069556 
L 29.957117 23.132431 
L 29.9977 23.018229 
L 30.045047 22.963679 
L 30.10254 23.041225 
L 30.173561 23.139863 
L 30.220908 23.064635 
L 30.335895 23.011953 
L 30.234436 23.085717 
L 30.366332 23.092143 
L 30.504992 23.212281 
L 30.393388 23.050078 
L 30.511756 23.210087 
L 30.528665 23.170048 
L 30.552339 23.224735 
L 30.62336 23.196473 
L 30.76202 23.145301 
L 30.765402 23.134607 
L 31.24902 23.058278 
L 31.313277 23.161262 
L 31.374152 23.106082 
L 31.445173 23.122578 
L 31.411353 23.164948 
L 31.462083 23.175231 
L 31.472228 23.202373 
L 31.529722 23.123549 
L 31.570305 23.156425 
L 31.621034 23.107606 
L 31.688673 23.148377 
L 31.729256 23.213584 
L 31.793513 23.137045 
L 31.796895 23.120997 
L 31.884826 23.226087 
L 31.888208 23.219858 
L 32.003194 23.310478 
L 32.01334 23.308179 
L 32.111416 23.251039 
L 32.091125 23.333472 
L 32.124944 23.285107 
L 32.152 23.349015 
L 32.233166 23.269148 
L 32.331243 23.191539 
L 32.365062 23.20858 
L 32.392118 23.240906 
L 32.371826 23.193816 
L 32.442847 23.139845 
L 32.513868 23.07448 
L 32.473285 23.148165 
L 32.557833 23.115462 
L 32.686347 23.172684 
L 32.689729 23.15123 
L 32.733694 23.051453 
L 32.808097 23.1422 
L 32.855445 23.113534 
L 32.926465 23.192767 
L 33.14291 23.287331 
L 32.933229 23.177945 
L 33.15982 23.261409 
L 33.176729 23.278798 
L 33.339063 23.171938 
L 33.410084 23.237488 
L 33.352591 23.154139 
L 33.460813 23.217732 
L 33.464195 23.182312 
L 33.555507 23.281025 
L 33.562271 23.272019 
L 33.579181 23.324792 
L 33.660348 23.204032 
L 33.66373 23.21476 
L 34.181167 23.347376 
L 34.39423 23.353871 
L 34.397612 23.337313 
L 34.455105 23.388744 
L 34.495688 23.37565 
L 34.590383 23.461379 
L 34.610675 23.432504 
L 34.627584 23.440597 
L 34.7933 23.279909 
L 34.860939 23.315177 
L 34.806828 23.264398 
L 34.89814 23.255587 
L 34.908286 23.209686 
L 34.935341 23.296745 
L 35.009744 23.248898 
L 35.50689 23.246821 
L 35.655696 23.313147 
L 35.672606 23.29954 
L 35.750391 23.211079 
L 35.790974 23.237114 
L 35.845085 23.339417 
L 36.034474 23.518496 
L 36.054766 23.492413 
L 37.025384 23.490783 
L 37.103169 23.418354 
L 37.14037 23.484229 
L 37.268884 23.524307 
L 37.153898 23.460588 
L 37.275648 23.495694 
L 37.373725 23.374066 
L 37.316232 23.543052 
L 37.427836 23.419331 
L 37.542822 23.462565 
L 37.444746 23.37371 
L 37.559732 23.432712 
L 37.684864 23.328667 
L 37.583405 23.450218 
L 37.69501 23.334725 
L 37.793086 23.397364 
L 37.715301 23.306226 
L 37.81676 23.368981 
L 37.948656 23.24863 
L 37.884399 23.387465 
L 37.95542 23.258932 
L 37.975711 23.283841 
L 38.009531 23.162019 
L 38.117753 23.068593 
L 38.033204 23.180563 
L 38.131281 23.112239 
L 38.327434 22.998832 
L 38.337579 23.048884 
L 38.6521 23.114515 
L 38.655482 23.103863 
L 38.709594 22.950335 
L 38.79076 22.988536 
L 38.875309 23.016109 
L 38.909128 22.944941 
L 38.939566 22.911179 
L 39.003823 23.02265 
L 39.007205 22.997976 
L 39.105281 23.111221 
L 39.15601 23.044753 
L 39.301434 22.974967 
L 39.335254 23.027747 
L 39.470531 23.141183 
L 39.480677 23.121048 
L 39.561844 23.121655 
L 39.487441 23.096549 
L 39.578754 23.080679 
L 39.582136 23.049918 
L 39.683594 23.119714 
L 39.686976 23.104846 
L 39.71065 23.082498 
L 39.730941 23.154713 
L 39.774907 23.164799 
L 39.785052 23.194584 
L 39.852691 23.09213 
L 39.974441 22.964061 
L 39.991351 22.969215 
L 39.994733 22.963354 
L 40.025171 23.032387 
L 40.072518 23.034138 
L 40.194268 23.091946 
L 40.19765 23.081932 
L 40.241615 23.157224 
L 40.282199 23.160264 
L 40.410713 23.236738 
L 40.5629 23.094278 
L 40.610247 23.176794 
L 40.677886 23.191107 
L 40.623775 23.155078 
L 40.71847 23.159819 
L 40.826692 23.140746 
L 40.769199 23.247188 
L 40.833456 23.155935 
L 40.904477 23.179705 
L 40.938296 23.116 
L 41.073574 22.955622 
L 41.080338 22.944743 
L 41.154741 23.059688 
L 41.445588 22.967321 
L 41.44897 22.975656 
L 41.516609 23.014378 
L 41.547046 22.946064 
L 41.560574 22.990483 
L 41.641741 23.002619 
L 41.668797 22.933267 
L 41.753345 22.905055 
L 41.678942 22.937525 
L 41.770255 22.955419 
L 41.804074 22.978948 
L 41.83113 22.912225 
L 41.878477 22.931209 
L 41.895387 22.91984 
L 42.040811 23.091824 
L 42.088158 23.024883 
L 42.152415 23.099703 
L 42.233582 23.200248 
L 42.270783 23.134442 
L 42.375623 23.130154 
L 42.385769 23.108238 
L 42.490609 22.977655 
L 42.507519 23.007573 
L 42.541339 23.083636 
L 42.592068 22.968017 
L 42.615742 22.980708 
L 43.799423 22.985426 
L 43.81295 23.036946 
L 43.883971 22.915637 
L 43.911027 23.004321 
L 43.917791 22.984307 
L 43.992194 23.093418 
L 43.995576 23.091883 
L 44.005721 23.108574 
L 44.063215 23.011105 
L 44.086888 23.025103 
L 44.215402 22.964428 
L 44.232312 22.975743 
L 44.337152 23.062746 
L 44.35068 23.041506 
L 44.381117 23.11615 
L 44.580652 22.890317 
L 44.695638 22.990022 
L 44.604326 22.882236 
L 44.69902 22.969191 
L 44.807243 22.863057 
L 44.74975 23.012 
L 44.827534 22.887615 
L 44.878264 22.959336 
L 44.895173 22.864504 
L 44.939139 22.901636 
L 44.949284 22.903166 
L 45.064271 22.771501 
L 45.152201 22.845981 
L 45.09809 22.763141 
L 45.179257 22.799735 
L 45.284097 22.871398 
L 45.297625 22.833964 
L 45.382174 22.866398 
L 45.419375 22.837578 
L 45.476868 22.834406 
L 45.453194 22.875652 
L 45.517451 22.883178 
L 45.520833 22.899622 
L 45.568181 22.796668 
L 45.615528 22.812154 
L 45.659493 22.714407 
L 45.727132 22.794165 
L 46.22766 22.777108 
L 46.302063 22.589514 
L 46.356174 22.600635 
L 46.420431 22.629675 
L 46.474542 22.556558 
L 46.931105 22.64643 
L 46.934487 22.634095 
L 47.046091 22.589361 
L 46.954779 22.677996 
L 47.052855 22.603449 
L 47.093438 22.648846 
L 47.13064 22.535982 
L 47.157695 22.571905 
L 47.215188 22.597874 
L 47.262536 22.539508 
L 47.37414 22.518892 
L 47.320029 22.608722 
L 47.377522 22.525577 
L 47.610876 22.517361 
L 47.614258 22.505972 
L 47.742772 22.381151 
L 47.749536 22.392284 
L 47.793501 22.344428 
L 47.87805 22.447627 
L 47.935543 22.35517 
L 47.9998 22.412297 
L 48.043765 22.430517 
L 48.01671 22.389634 
L 48.10464 22.376011 
L 48.250064 22.388966 
L 48.114786 22.405 
L 48.253446 22.406577 
L 48.337995 22.503124 
L 48.375196 22.46016 
L 48.699863 22.497381 
L 48.787793 22.491904 
L 48.723536 22.476249 
L 48.808085 22.47353 
L 49.105696 22.469704 
L 49.230828 22.590482 
L 49.281558 22.442462 
L 49.359342 22.4967 
L 49.416835 22.637367 
L 49.487856 22.601927 
L 49.619752 22.572735 
L 49.63328 22.615824 
L 49.640044 22.652861 
L 49.717829 22.552736 
L 49.741502 22.589978 
L 49.917364 22.521552 
L 49.941037 22.531557 
L 49.995148 22.42575 
L 49.99853 22.428726 
L 50.096607 22.394265 
L 50.035732 22.454843 
L 50.113516 22.421782 
L 50.1541 22.443235 
L 50.133808 22.40004 
L 50.221739 22.403449 
L 50.252176 22.393886 
L 50.289378 22.321194 
L 50.482149 22.225736 
L 50.299523 22.349606 
L 50.488912 22.252021 
L 50.586989 22.274342 
L 50.509204 22.234324 
L 50.603899 22.249831 
L 50.718885 22.071868 
L 50.739176 22.103982 
L 50.74594 22.137483 
L 50.830489 22.029544 
L 50.840635 22.047636 
L 50.925184 22.080413 
L 50.854163 22.034694 
L 50.952239 22.048435 
L 51.02326 22.040062 
L 51.046934 22.098919 
L 51.057079 22.070017 
L 51.155156 22.20901 
L 51.175448 22.133835 
L 51.222795 22.098574 
L 51.192357 22.149677 
L 51.28367 22.150844 
L 51.341163 22.181159 
L 51.391892 22.125005 
L 51.449385 22.076847 
L 51.476441 22.171008 
L 51.51026 22.105554 
L 51.811253 21.942179 
L 51.824781 21.884425 
L 51.899184 21.998547 
L 51.919476 21.964439 
L 52.017552 21.889552 
L 52.054754 21.913932 
L 52.142684 22.003213 
L 52.16974 21.983355 
L 52.284726 21.889797 
L 52.183268 22.006088 
L 52.301636 21.918564 
L 52.386184 21.991219 
L 52.348983 21.873015 
L 52.423386 21.966542 
L 52.545136 21.894098 
L 52.548518 21.906047 
L 52.558664 21.922875 
L 52.592483 21.841209 
L 52.646594 21.855121 
L 52.7954 21.880918 
L 52.65674 21.896918 
L 52.802164 21.901528 
L 52.896858 21.903003 
L 52.849511 21.874491 
L 52.907004 21.88328 
L 53.089629 21.659179 
L 53.116685 21.676537 
L 53.187706 21.785247 
L 53.126831 21.665803 
L 53.245199 21.729799 
L 53.38724 21.443052 
L 53.475171 21.571463 
L 53.586775 21.76904 
L 53.607067 21.692491 
L 53.644268 21.619531 
L 53.725435 21.644157 
L 53.82013 21.634373 
L 53.762636 21.607033 
L 53.830275 21.61477 
L 53.995991 21.429375 
L 53.999373 21.437728 
L 54.009519 21.374286 
L 54.087303 21.373461 
L 54.100831 21.337904 
L 54.165088 21.490582 
L 54.188762 21.413081 
L 54.192144 21.425498 
L 54.276692 21.313605 
L 54.286838 21.334436 
L 54.344331 21.238193 
L 54.68929 19.625025 
L 54.706199 13.572087 
L 54.716345 9.077823 
L 54.790748 22.957458 
L 54.807658 22.867976 
L 55.196582 19.731265 
L 55.213491 14.845766 
L 55.220255 9.457779 
L 55.294658 23.51546 
L 55.31495 23.36226 
L 55.666672 20.759564 
L 55.670054 20.761619 
L 55.686964 20.672379 
L 55.757985 19.39623 
L 55.778276 9.458674 
L 55.83577 23.049559 
L 55.852679 23.714328 
L 55.943992 22.941907 
L 56.370117 20.177117 
L 56.403937 17.7587 
L 56.414082 9.455463 
L 56.488485 23.785803 
L 56.505395 23.679809 
L 56.84359 21.513926 
L 56.846971 21.519984 
L 56.887555 21.383928 
L 57.158111 18.729113 
L 57.17502 9.470027 
L 57.249423 23.799972 
L 57.252805 23.773075 
L 57.276479 23.591507 
L 57.503069 22.069411 
L 58.074618 19.62201 
L 58.091528 14.461979 
L 58.101674 9.415767 
L 58.172694 23.776538 
L 58.192986 23.64109 
L 58.46016 21.998438 
L 58.470306 22.024979 
L 58.521035 21.858221 
L 58.845702 20.983292 
L 58.997889 20.869241 
L 59.248153 19.378366 
L 59.271827 9.524737 
L 59.319174 21.586391 
L 59.339466 23.669062 
L 59.43416 22.962302 
L 59.812938 21.510598 
L 59.843376 21.52376 
L 60.45889 20.249589 
L 60.502855 19.298767 
L 60.523147 9.473475 
L 60.577258 22.726184 
L 60.594168 23.69839 
L 60.688862 22.960264 
L 60.905307 21.922111 
L 61.128515 21.409067 
L 61.148807 21.418323 
L 61.155571 21.438298 
L 61.202918 21.283487 
L 61.213064 21.29732 
L 61.490384 20.983026 
L 61.22321 21.313932 
L 61.493766 20.985619 
L 61.503912 20.961197 
L 61.720356 20.995969 
L 61.845488 20.852513 
L 61.84887 20.859077 
L 61.852252 20.865125 
L 61.892835 20.777884 
L 61.923273 20.767935 
L 62.129572 20.595324 
L 62.288523 19.337975 
L 62.312197 9.504898 
L 62.359544 21.583521 
L 62.383218 23.563834 
L 62.47453 22.829016 
L 62.778905 21.648913 
L 62.836398 21.549528 
L 63.002114 21.347887 
L 63.407947 21.186206 
L 63.424857 21.225334 
L 63.526315 21.358578 
L 63.435003 21.212367 
L 63.553371 21.29609 
L 63.641302 21.163312 
L 63.671739 21.209405 
L 63.844218 21.467214 
L 63.949059 21.480897 
L 63.952441 21.489466 
L 64.050517 21.610023 
L 64.080955 21.59406 
L 64.111392 21.597948 
L 64.155357 21.502398 
L 64.158739 21.504886 
L 64.165503 21.483403 
L 64.243288 21.608556 
L 64.253434 21.586755 
L 64.405621 21.758891 
L 64.409003 21.752 
L 64.425913 21.719026 
L 64.496934 21.867865 
L 64.513844 21.925037 
L 64.564573 21.821506 
L 64.608538 21.871326 
L 64.730288 21.816747 
L 64.73367 21.830849 
L 64.926441 21.978733 
L 64.929823 21.972936 
L 64.933205 21.949782 
L 65.01099 22.083743 
L 65.024518 22.065992 
L 65.085393 22.119098 
L 65.105684 22.031687 
L 65.13274 22.048621 
L 65.139504 22.017851 
L 65.22067 22.170818 
L 65.230816 22.144552 
L 66.590359 22.967429 
L 65.23758 22.124554 
L 66.597123 22.947206 
L 66.614032 22.912553 
L 66.695199 23.005835 
L 66.698581 23.002736 
L 66.854151 23.095573 
L 66.712109 22.989195 
L 66.864296 23.077169 
L 66.88797 23.037907 
L 66.955609 23.215277 
L 66.999574 23.246244 
L 67.050303 23.185152 
L 67.067213 23.217877 
L 67.090887 23.190012 
L 67.124706 23.267938 
L 67.172053 23.245315 
L 67.591415 23.398097 
L 67.601561 23.358824 
L 67.696255 23.265735 
L 67.733457 23.307714 
L 67.784186 23.446847 
L 67.865352 23.394697 
L 68.129144 23.426803 
L 68.26104 23.547745 
L 68.436901 23.371913 
L 68.497776 23.479717 
L 68.558651 23.529789 
L 68.507922 23.462995 
L 68.612763 23.495549 
L 68.727749 23.573552 
L 68.683783 23.463765 
L 68.737895 23.533653 
L 68.775096 23.478226 
L 68.815679 23.587042 
L 68.835971 23.558622 
L 68.940811 23.644415 
L 68.954339 23.637203 
L 69.052416 23.588727 
L 69.079471 23.611416 
L 69.18093 23.598688 
L 69.194457 23.56909 
L 69.289152 23.550956 
L 69.238423 23.636215 
L 69.306062 23.565986 
L 69.417666 23.602286 
L 69.383846 23.537918 
L 69.421048 23.59631 
L 69.647638 23.491752 
L 69.444721 23.662042 
L 69.654402 23.519305 
L 69.749097 23.518348 
L 69.66793 23.48472 
L 69.759242 23.483214 
L 69.857319 23.302881 
L 69.904666 23.351143 
L 70.043326 23.386958 
L 70.05009 23.379825 
L 70.080527 23.359939 
L 70.131256 23.44869 
L 70.13802 23.450289 
L 70.219187 23.579914 
L 70.263152 23.57084 
L 70.307118 23.516239 
L 70.374757 23.561557 
L 70.560764 23.577051 
L 70.564146 23.567658 
L 70.685896 23.557627 
L 70.587819 23.599135 
L 70.689278 23.574378 
L 70.709569 23.608652 
L 70.790736 23.525087 
L 70.794118 23.526045 
L 70.898958 23.530098 
L 70.811028 23.510357 
L 70.909104 23.506243 
L 71.054528 23.43369 
L 71.210097 23.31897 
L 71.095111 23.472559 
L 71.227007 23.336892 
L 71.264208 23.327684 
L 71.291264 23.418307 
L 71.30141 23.45856 
L 71.396104 23.371787 
L 71.413014 23.340134 
L 71.487417 23.437698 
L 71.490799 23.43187 
L 71.588875 23.486321 
L 71.534764 23.406395 
L 71.602403 23.45371 
L 71.710625 23.370757 
L 71.720771 23.404536 
L 71.785028 23.416453 
L 71.825612 23.354472 
L 71.960889 23.367068 
L 72.042056 23.460847 
L 71.971035 23.351096 
L 72.086021 23.441238 
L 72.173952 23.366814 
L 72.234827 23.428731 
L 72.248355 23.465511 
L 72.319376 23.376994 
L 72.346431 23.419453 
L 72.512147 23.25804 
L 72.529056 23.290013 
L 72.752265 23.581927 
L 72.579786 23.260675 
L 72.762411 23.564186 
L 72.884161 23.440086 
L 72.897689 23.433097 
L 72.938272 23.534975 
L 73.036348 23.531379 
L 73.002529 23.476247 
L 73.03973 23.504702 
L 73.087078 23.468088 
L 73.134425 23.553647 
L 73.147953 23.521633 
L 73.286612 23.635129 
L 73.175008 23.485579 
L 73.293376 23.612004 
L 73.296758 23.59474 
L 73.391453 23.679927 
L 73.489529 23.670647 
L 73.398217 23.65031 
L 73.506439 23.604903 
L 73.662008 23.399261 
L 73.705974 23.446854 
L 73.773613 23.402407 
L 74.855835 23.084399 
L 74.872745 23.146974 
L 74.987731 23.233819 
L 74.991113 23.19323 
L 75.001259 23.160725 
L 75.035079 23.273571 
L 75.099336 23.2154 
L 75.278579 23.382888 
L 75.281961 23.369556 
L 75.457822 23.153141 
L 75.505169 23.179956 
L 75.616773 23.242266 
L 75.542371 23.156994 
L 75.623537 23.220229 
L 75.687794 23.230899 
L 75.677648 23.272258 
L 75.71485 23.268128 
L 75.826454 23.307204 
L 75.721614 23.256629 
L 75.833218 23.292377 
L 75.961732 23.248427 
L 75.856892 23.341621 
L 75.985406 23.298705 
L 76.09701 23.33611 
L 76.103774 23.332384 
L 76.211996 23.174863 
L 76.408149 23.047477 
L 76.425059 23.089364 
L 76.475788 23.15674 
L 76.536663 23.091975 
L 76.651649 23.027091 
L 76.546809 23.107969 
L 76.678704 23.055666 
L 76.68885 23.057859 
L 76.698996 22.993864 
L 76.73958 22.966694 
L 76.817364 22.899181 
L 76.857948 22.956375 
L 76.86133 22.964667 
L 76.925587 22.880467 
L 76.956024 22.915841 
L 77.047337 22.947091 
L 77.074392 22.88669 
L 77.118358 23.016083 
L 77.206288 22.991286 
L 77.287455 22.913357 
L 77.324656 22.959844 
L 77.338184 22.937376 
L 77.388913 23.020811 
L 77.405823 23.019228 
L 77.524191 23.074477 
L 77.415969 23.00931 
L 77.527573 23.062382 
L 77.601976 23.012467 
L 77.642559 23.050662 
L 77.737254 23.072607 
L 77.652705 23.042523 
L 77.764309 23.038326 
L 77.767691 23.030017 
L 77.85224 23.100021 
L 77.855622 23.082759 
L 77.916497 23.174634 
L 77.967226 23.092287 
L 78.075448 23.05635 
L 78.001045 23.127457 
L 78.082212 23.100471 
L 78.193816 23.176968 
L 78.210726 23.138509 
L 78.586122 22.870912 
L 78.59965 22.814961 
L 78.687581 22.890331 
L 78.697726 22.873417 
L 78.809331 22.784718 
L 78.70449 22.882208 
L 78.82624 22.843981 
L 78.917553 22.934404 
L 78.941227 22.894234 
L 79.052831 22.811443 
L 79.066359 22.823868 
L 79.171199 22.829346 
L 79.073122 22.80459 
L 79.184727 22.80601 
L 79.303095 22.69356 
L 79.313241 22.704063 
L 79.418081 22.726445 
L 79.458664 22.803396 
L 79.489102 22.699757 
L 79.526303 22.709075 
L 79.620998 22.615378 
L 79.644671 22.70322 
L 79.725838 22.772371 
L 79.681873 22.664885 
L 79.769803 22.718001 
L 79.993012 22.595755 
L 80.121526 22.417604 
L 80.135054 22.439888 
L 80.324443 22.307782 
L 80.395463 22.206732 
L 80.442811 22.235711 
L 80.730276 22.188243 
L 80.73704 22.223152 
L 80.750568 22.269347 
L 80.814825 22.134046 
L 80.835116 22.142657 
L 80.838498 22.128143 
L 80.89261 22.207251 
L 80.943339 22.15461 
L 81.044797 22.197801 
L 81.065089 22.17635 
L 81.156401 22.181614 
L 81.13611 22.229951 
L 81.169929 22.207642 
L 81.190221 22.208262 
L 81.24095 22.125378 
L 81.318735 22.010945 
L 81.355936 22.093228 
L 81.393138 22.125362 
L 81.430339 22.000969 
L 81.433721 22.009038 
L 81.443867 21.976665 
L 81.514888 22.123138 
L 81.531797 22.100839 
L 81.572381 22.197429 
L 81.626492 22.076142 
L 81.646784 22.120235 
L 81.656929 22.104545 
L 81.711041 22.182339 
L 81.748242 22.162182 
L 81.944395 22.231823 
L 81.76177 22.131759 
L 81.957923 22.189486 
L 82.093201 22.008762 
L 81.974832 22.204832 
L 82.11011 22.021597 
L 82.120256 22.051393 
L 82.262298 21.936403 
L 82.461833 21.825448 
L 82.482124 21.813136 
L 82.600492 21.888877 
L 82.63093 21.839997 
L 82.657986 21.903634 
L 82.715479 21.873789 
L 82.803409 21.815001 
L 82.904868 21.776241 
L 82.854138 21.8581 
L 82.918395 21.796424 
L 82.962361 21.755364 
L 83.057055 21.871093 
L 83.165277 21.851424 
L 83.087493 21.900835 
L 83.172041 21.855179 
L 83.175423 21.867296 
L 83.25659 21.790579 
L 83.266736 21.793569 
L 83.418923 21.678303 
L 83.48318 21.690233 
L 83.435833 21.655379 
L 83.523764 21.649604 
L 83.625222 21.64781 
L 83.557583 21.671728 
L 83.635368 21.66816 
L 83.784174 21.568103 
L 83.841667 21.531086 
L 83.885632 21.619163 
L 84.139278 21.43353 
L 84.176479 21.50037 
L 84.724355 21.321515 
L 84.835959 21.284751 
L 84.839341 21.291852 
L 84.947563 21.277671 
L 84.876542 21.226222 
L 84.950945 21.253082 
L 85.01182 21.148416 
L 85.018584 21.1534 
L 85.316195 19.700168 
L 85.333105 15.332346 
L 85.343251 9.060803 
L 85.417654 22.958883 
L 85.434563 22.862789 
L 85.796432 19.74193 
L 85.813341 14.617543 
L 85.820105 9.429757 
L 85.89789 23.539406 
L 85.9148 23.402214 
L 86.26314 20.683938 
L 86.337543 19.336976 
L 86.354453 9.392358 
L 86.415328 23.152339 
L 86.428856 23.736397 
L 86.52355 22.987034 
L 86.878654 20.645981 
L 86.932766 20.14372 
L 86.963203 18.174427 
L 86.976731 9.420292 
L 87.051134 23.813687 
L 87.064662 23.729081 
L 87.707231 19.318054 
L 87.727523 9.381281 
L 87.781634 22.788173 
L 87.801926 23.849957 
L 87.893238 23.14097 
L 88.177322 21.639242 
L 88.349801 21.107605 
L 88.613593 19.277939 
L 88.633885 9.451109 
L 88.687996 22.940519 
L 88.704905 23.776231 
L 88.7996 23.051438 
L 89.029572 21.873013 
L 89.032954 21.89128 
L 89.103975 21.678337 
L 89.364385 21.005205 
L 89.384677 20.997612 
L 89.411732 20.913428 
L 89.54701 20.615278 
L 89.550392 20.622526 
L 89.678906 19.837597 
L 89.70258 16.255341 
L 89.712725 9.506991 
L 89.783746 23.702565 
L 89.804038 23.592754 
L 89.80742 23.599183 
L 89.827712 23.402492 
L 89.831094 23.403431 
L 89.841239 23.302266 
L 90.213254 21.678744 
L 90.524393 21.139111 
L 90.57174 21.182792 
L 90.531156 21.126696 
L 90.629233 21.106086 
L 90.713782 21.069334 
L 90.666434 21.040118 
L 90.723927 21.043382 
L 90.862587 20.856557 
L 90.987719 20.696408 
L 90.886261 20.874948 
L 91.001247 20.701475 
L 91.065504 20.782915 
L 91.068886 20.769314 
" clip-path="url(#ped67548214)" style="fill: none; stroke: #000000; stroke-width: 0.6; stroke-linecap: square"/>
   </g>
   <g id="line2d_2">
    <path d="M 9.905557 41.020504 
L 10.115238 40.87556 
L 10.138911 40.915536 
L 10.264043 41.017851 
L 10.152439 40.904209 
L 10.267425 41.01293 
L 10.280953 40.98851 
L 10.46696 41.145854 
L 10.470342 41.131897 
L 10.541363 41.231361 
L 10.558273 41.229452 
L 10.581946 41.254364 
L 10.642821 41.14749 
L 10.720606 41.121935 
L 10.690169 41.072202 
L 10.72737 41.085266 
L 10.811919 40.958026 
L 10.862648 41.005228 
L 10.940433 41.041692 
L 10.889703 40.96245 
L 10.981016 40.983679 
L 11.116294 40.856366 
L 11.170405 40.924973 
L 11.200842 41.007585 
L 11.271863 40.907593 
L 11.282009 40.929099 
L 11.366558 40.915903 
L 11.305683 40.884217 
L 11.376704 40.87119 
L 11.545801 40.708313 
L 11.555947 40.733646 
L 11.664169 40.872661 
L 11.684461 40.829452 
L 11.694607 40.818646 
L 11.836648 40.874554 
L 11.863704 40.896788 
L 12.009128 40.703871 
L 12.330413 40.534541 
L 12.34394 40.5898 
L 12.472454 40.661209 
L 12.567149 40.589001 
L 12.49951 40.67893 
L 12.600968 40.635547 
L 12.614496 40.615769 
L 12.736246 40.606361 
L 12.901961 40.340366 
L 13.047385 40.475753 
L 13.10826 40.477812 
L 13.054149 40.458007 
L 13.131934 40.409865 
L 13.189427 40.350552 
L 13.148844 40.42652 
L 13.226628 40.466916 
L 13.52424 40.55582 
L 13.673045 40.756852 
L 13.679809 40.747221 
L 13.859052 40.634122 
L 13.943601 40.678833 
L 13.967275 40.619906 
L 14.021386 40.552067 
L 14.082261 40.605171 
L 14.183719 40.709059 
L 14.217539 40.669724 
L 14.234448 40.713313 
L 14.281796 40.741212 
L 14.390018 40.810001 
L 14.403546 40.798536 
L 14.738358 40.722464 
L 14.822907 40.711445 
L 14.785706 40.773445 
L 14.846581 40.741666 
L 14.900692 40.846 
L 14.958185 40.729203 
L 14.988622 40.720247 
L 15.029206 40.816354 
L 15.039351 40.789154 
L 15.083317 40.828968 
L 15.117136 40.691928 
L 15.14081 40.74439 
L 15.235504 40.686213 
L 15.272706 40.720788 
L 15.495914 40.813112 
L 15.512824 40.772855 
L 15.580463 40.72141 
L 15.600755 40.790521 
L 15.617664 40.784771 
L 15.621046 40.812406 
L 15.695449 40.747234 
L 15.725887 40.755499 
L 15.854401 40.691461 
L 15.739414 40.770732 
L 15.864546 40.699215 
L 15.87131 40.728919 
L 15.891602 40.667136 
L 15.969387 40.66322 
L 16.118192 40.561137 
L 15.976151 40.67117 
L 16.158776 40.620318 
L 16.294054 40.72936 
L 16.297436 40.706712 
L 16.415804 40.576182 
L 16.456387 40.602318 
L 16.503734 40.688715 
L 16.571373 40.633857 
L 16.659304 40.535502 
L 16.595047 40.643761 
L 16.689741 40.566687 
L 16.74047 40.519944 
L 16.804727 40.571499 
L 16.808109 40.581698 
L 16.882512 40.456032 
L 16.936623 40.542347 
L 16.987353 40.512755 
L 17.102339 40.562751 
L 16.994116 40.503445 
L 17.105721 40.540764 
L 17.210561 40.507136 
L 17.227471 40.525828 
L 17.298492 40.605504 
L 17.342457 40.569184 
L 17.575811 40.644322 
L 17.690797 40.760857 
L 17.704325 40.741968 
L 17.880186 40.521824 
L 17.883568 40.527693 
L 17.897096 40.566277 
L 17.937679 40.469666 
L 17.988409 40.490393 
L 18.039138 40.527687 
L 18.096631 40.463331 
L 18.103395 40.451585 
L 18.160888 40.554965 
L 18.187943 40.520388 
L 18.319839 40.652032 
L 18.380714 40.608106 
L 18.340131 40.678598 
L 18.434826 40.641493 
L 18.475409 40.657147 
L 18.51261 40.550429 
L 18.522756 40.552432 
L 18.624215 40.483892 
L 18.644506 40.50951 
L 18.678326 40.519622 
L 18.729055 40.418788 
L 18.735819 40.430447 
L 18.820367 40.353557 
L 18.857569 40.458463 
L 18.969173 40.720232 
L 19.111215 40.980338 
L 19.114597 40.978116 
L 19.124743 40.968825 
L 19.256639 41.106345 
L 19.314132 41.05302 
L 19.29384 41.115282 
L 19.368243 41.103107 
L 19.378389 41.078783 
L 19.435882 41.213068 
L 19.442646 41.207445 
L 19.561014 41.339157 
L 19.564396 41.327997 
L 19.730111 41.324279 
L 19.784222 41.231077 
L 19.831569 41.371677 
L 19.834951 41.365436 
L 19.845097 41.409954 
L 19.878917 41.33538 
L 19.939792 41.334211 
L 20.119035 41.317728 
L 20.122417 41.306127 
L 20.213729 41.291503 
L 20.163 41.346269 
L 20.223875 41.345296 
L 20.342243 41.345348 
L 20.345625 41.32972 
L 20.491049 41.301295 
L 20.497813 41.337795 
L 20.511341 41.348469 
L 20.555306 41.260138 
L 20.602653 41.32346 
L 20.606035 41.306023 
L 20.687202 41.39755 
L 20.710875 41.342308 
L 20.808952 41.482813 
L 20.717639 41.316109 
L 20.869827 41.431574 
L 21.08289 41.260345 
L 21.089653 41.277283 
L 21.096417 41.309909 
L 21.180966 41.170873 
L 21.184348 41.172397 
L 21.251987 41.225292 
L 21.302716 41.157645 
L 21.316244 41.122388 
L 21.360209 41.218822 
L 21.410938 41.166428 
L 21.458286 41.239047 
L 21.522543 41.15487 
L 21.529306 41.12246 
L 21.610473 41.245755 
L 21.624001 41.199422 
L 21.738987 41.221031 
L 21.749133 41.199767 
L 21.891175 41.091925 
L 21.904702 41.132809 
L 22.033216 41.231366 
L 22.036598 41.228378 
L 22.124529 41.130822 
L 22.060272 41.239748 
L 22.158348 41.171425 
L 22.276717 41.190408 
L 22.185404 41.114488 
L 22.286862 41.149923 
L 22.340974 41.167999 
L 22.357883 41.23047 
L 22.425522 41.278612 
L 22.472869 41.216434 
L 22.5608 41.043732 
L 22.601383 41.095904 
L 22.736661 41.01146 
L 22.614911 41.106382 
L 22.746807 41.018682 
L 22.811064 41.137565 
L 22.861793 41.052901 
L 22.956488 41.058825 
L 22.888849 41.026861 
L 22.976779 41.018767 
L 23.20337 41.002429 
L 23.243953 40.995144 
L 23.2913 41.061514 
L 23.301446 41.056658 
L 23.41305 41.192181 
L 23.426578 41.167177 
L 23.521273 41.075878 
L 23.555092 41.101435 
L 23.649787 41.022154 
L 23.744481 41.043734 
L 23.717426 41.085815 
L 23.747863 41.054166 
L 23.862849 41.180973 
L 23.805356 41.036365 
L 23.883141 41.142177 
L 23.998127 41.114685 
L 23.893287 41.11309 
L 24.001509 41.101871 
L 24.136787 41.052261 
L 24.217954 41.007849 
L 24.160461 40.993378 
L 24.221336 40.98744 
L 24.326176 40.935539 
L 24.245009 41.040812 
L 24.336322 40.962965 
L 24.464836 40.903855 
L 24.546003 40.798311 
L 24.596732 40.83285 
L 24.721864 40.840081 
L 24.779357 40.86385 
L 24.826704 40.813915 
L 24.911253 40.736219 
L 24.877433 40.846825 
L 24.948454 40.791975 
L 25.246065 41.338052 
L 25.262975 41.302763 
L 25.371197 41.283896 
L 25.290031 41.313237 
L 25.374579 41.309243 
L 25.557204 41.241548 
L 25.645135 41.159805 
L 25.580878 41.260476 
L 25.675573 41.189532 
L 25.692482 41.197078 
L 25.81085 41.111416 
L 25.912309 41.12997 
L 25.875107 41.056203 
L 25.935982 41.112343 
L 26.07126 41.046804 
L 26.094934 41.0776 
L 26.115226 41.104704 
L 26.196392 41.003851 
L 26.247121 40.847529 
L 26.250503 40.859591 
L 26.368872 40.759497 
L 26.463566 40.637632 
L 26.480476 40.551488 
L 26.568406 40.668406 
L 26.74765 40.767469 
L 26.751031 40.76411 
L 26.85249 40.757432 
L 26.788233 40.815797 
L 26.862636 40.79214 
L 26.903219 40.858552 
L 26.943802 40.736829 
L 26.970858 40.769499 
L 27.092608 40.613119 
L 27.106136 40.645204 
L 27.227886 40.627155 
L 27.238032 40.665496 
L 27.369928 40.720626 
L 27.380073 40.711999 
L 27.400365 40.648229 
L 27.484914 40.742657 
L 27.491678 40.758766 
L 27.555935 40.661316 
L 27.576226 40.679392 
L 28.10381 40.426344 
L 28.113956 40.46078 
L 28.127484 40.473198 
L 28.144393 40.417873 
L 28.198504 40.398735 
L 28.306727 40.346982 
L 28.313491 40.365216 
L 28.425095 40.422817 
L 28.367602 40.347133 
L 28.431859 40.410153 
L 28.442005 40.396358 
L 28.48597 40.499052 
L 28.50288 40.494533 
L 28.516407 40.495357 
L 28.567137 40.411202 
L 28.570519 40.41759 
L 28.641539 40.279287 
L 28.695651 40.29202 
L 28.98988 40.199604 
L 29.003408 40.223178 
L 29.071047 40.137649 
L 29.09472 40.172979 
L 29.676415 39.737943 
L 29.683179 39.750577 
L 29.757582 39.676268 
L 29.794783 39.73516 
L 29.828603 39.806983 
L 29.909769 39.750075 
L 30.028137 39.655414 
L 29.960499 39.770471 
L 30.031519 39.672146 
L 30.048429 39.712342 
L 30.078867 39.616742 
L 30.143124 39.666303 
L 30.264874 39.575042 
L 30.271638 39.562603 
L 30.308839 39.664519 
L 30.325749 39.672255 
L 30.335895 39.694609 
L 30.39677 39.631951 
L 30.433971 39.64743 
L 30.647034 39.573168 
L 30.653797 39.58727 
L 30.704527 39.596739 
L 30.670707 39.570208 
L 30.741728 39.529223 
L 30.873624 39.464238 
L 30.887152 39.521486 
L 30.981846 39.453194 
L 31.100214 39.427103 
L 31.00552 39.491747 
L 31.103596 39.43017 
L 31.174617 39.516381 
L 31.218583 39.458491 
L 31.228728 39.472269 
L 31.441791 39.298577 
L 31.462083 39.361607 
L 31.543249 39.287499 
L 31.668381 39.146142 
L 31.702201 39.154059 
L 31.746166 39.07294 
L 31.756312 39.088048 
L 31.922027 38.868229 
L 31.925409 38.880322 
L 31.982902 38.700764 
L 31.986284 38.705121 
L 32.148618 38.488248 
L 32.158764 38.517045 
L 32.189201 38.444817 
L 32.246694 38.436789 
L 32.578125 37.238027 
L 32.60518 35.161472 
L 32.625472 28.23501 
L 32.696493 39.593392 
L 32.703257 39.556931 
L 32.797951 38.432889 
L 32.8825 35.281853 
L 32.896028 28.390625 
L 32.967049 40.12691 
L 32.983958 40.000605 
L 33.149674 35.39038 
L 33.163202 28.349179 
L 33.234223 40.403839 
L 33.251132 40.245931 
L 33.42023 36.611727 
L 33.437139 28.249352 
L 33.50816 40.559012 
L 33.511542 40.590283 
L 33.555507 40.029098 
L 33.707695 36.622183 
L 33.724605 28.113767 
L 33.792244 40.639363 
L 33.799008 40.786229 
L 33.87341 39.825844 
L 34.018834 36.363604 
L 34.035744 28.07002 
L 34.110147 40.944987 
L 34.113529 40.937462 
L 34.309681 38.069586 
L 34.360411 35.646185 
L 34.373938 27.910492 
L 34.448341 41.055412 
L 34.461869 40.982238 
L 34.722279 36.882911 
L 34.742571 27.828362 
L 34.800064 39.503521 
L 34.820355 41.146426 
L 34.911668 40.229226 
L 35.145022 35.606597 
L 35.15855 27.864021 
L 35.236335 41.165975 
L 35.246481 41.113718 
L 35.43587 39.065254 
L 35.591439 35.757553 
L 35.604967 28.000156 
L 35.682752 41.160201 
L 35.689516 41.113169 
L 35.845085 39.621466 
L 36.068293 36.589106 
L 36.088585 27.978043 
L 36.14946 40.778328 
L 36.16637 41.196223 
L 36.254301 40.450124 
L 36.521474 38.108315 
L 36.612787 36.332078 
L 36.633079 28.33229 
L 36.697336 40.909075 
L 36.704099 41.034229 
L 36.785266 40.421905 
L 37.180954 36.068671 
L 37.201246 28.750029 
L 37.268884 40.854838 
L 37.275648 40.884468 
L 37.306086 40.715063 
L 37.681482 37.764398 
L 37.762649 36.525151 
L 37.789704 29.130343 
L 37.837051 39.53651 
L 37.867489 40.756601 
L 37.952038 40.06898 
L 38.269941 37.642365 
L 38.300378 37.242033 
L 38.327434 35.014815 
L 38.344343 28.693928 
L 38.418746 40.95169 
L 38.42551 40.927594 
L 38.493149 40.411429 
L 38.953094 37.706444 
L 38.956476 37.72136 
L 38.959858 37.734945 
L 39.027496 37.573064 
L 39.03426 37.575214 
L 39.169538 37.420058 
L 39.176302 37.451799 
L 39.369073 38.209882 
L 39.375837 38.197065 
L 39.379219 38.170509 
L 39.463768 38.331193 
L 39.470531 38.317399 
L 39.544934 38.384299 
L 39.548316 38.397957 
L 39.700504 38.517844 
L 39.55508 38.393531 
L 39.71065 38.476693 
L 39.720795 38.45361 
L 39.764761 38.562627 
L 39.808726 38.515405 
L 39.960914 38.700983 
L 40.048844 38.86913 
L 40.140157 39.058241 
L 40.18074 39.037659 
L 40.491879 39.487286 
L 40.620393 39.645885 
L 40.623775 39.63372 
L 40.630539 39.59409 
L 40.711706 39.738943 
L 40.715088 39.736679 
L 40.755671 39.707431 
L 40.887567 40.082698 
L 40.958588 40.073939 
L 40.924768 40.127731 
L 40.989025 40.124851 
L 41.002553 40.113725 
L 41.181796 40.24136 
L 41.18856 40.234581 
L 41.218998 40.34482 
L 41.22238 40.346943 
L 41.567338 40.78033 
L 41.584248 40.717577 
L 41.651887 40.841185 
L 41.665415 40.813063 
L 41.739817 40.831814 
L 41.695852 40.787801 
L 41.777019 40.811284 
L 42.017137 41.054995 
L 42.047575 40.975902 
L 42.118595 41.086545 
L 42.121977 41.078593 
L 42.2302 41.118469 
L 42.192998 41.006147 
L 42.236964 41.106488 
L 42.328276 41.202465 
L 42.365477 41.126643 
L 42.392533 41.12058 
L 42.433116 41.239833 
L 42.436498 41.230343 
L 42.534575 41.242153 
L 42.4737 41.181352 
L 42.544721 41.214787 
L 42.73411 40.997209 
L 42.598832 41.260343 
L 42.740874 41.014092 
L 43.031721 41.155766 
L 43.035103 41.127312 
L 43.085832 41.15771 
L 43.150089 41.078509 
L 43.234638 41.003019 
L 43.275221 41.030614 
L 43.420645 40.967433 
L 43.454464 41.073556 
L 43.539013 40.995238 
L 43.555923 40.969155 
L 43.626943 41.021274 
L 43.650617 40.996917 
L 43.694582 40.988107 
L 43.72502 41.066068 
L 43.748694 41.048657 
L 43.887353 41.084204 
L 43.890735 41.094899 
L 43.911027 41.128932 
L 43.965138 41.023645 
L 43.992194 41.02519 
L 44.110562 41.061653 
L 44.056451 40.972256 
L 44.113944 41.051833 
L 44.279659 40.919742 
L 44.283041 40.934103 
L 44.357444 40.947301 
L 44.33377 40.865071 
L 44.384499 40.886835 
L 44.469048 40.930468 
L 44.496104 40.883166 
L 44.607708 40.853515 
L 44.543451 40.896981 
L 44.61109 40.865124 
L 44.634763 40.858642 
L 44.685493 40.936751 
L 44.69902 40.924594 
L 44.712548 40.96886 
L 44.780187 40.852117 
L 44.797097 40.880228 
L 44.915465 40.693215 
L 44.939139 40.708866 
L 45.087944 40.62576 
L 45.155583 40.663006 
L 45.101472 40.650842 
L 45.165729 40.704948 
L 45.199548 40.750187 
L 45.243514 40.661502 
L 45.273951 40.689352 
L 45.429521 40.640907 
L 45.432903 40.603753 
L 45.527597 40.716973 
L 45.530979 40.713664 
L 45.662875 40.852186 
L 45.541125 40.705584 
L 45.686549 40.823774 
L 45.737278 40.750949 
L 45.774479 40.869231 
L 45.788007 40.857681 
L 45.855646 40.871819 
L 45.882702 40.817519 
L 45.889466 40.820425 
L 45.899611 40.830978 
L 46.160021 40.55677 
L 46.26148 40.565337 
L 46.180313 40.529119 
L 46.268243 40.535578 
L 46.352792 40.532499 
L 46.318973 40.587332 
L 46.379848 40.543559 
L 46.555709 40.605271 
L 46.565855 40.568194 
L 46.636876 40.543159 
L 46.62673 40.588719 
L 46.677459 40.57859 
L 46.775535 40.572494 
L 46.687605 40.609623 
L 46.789063 40.581521 
L 46.843174 40.549834 
L 46.931105 40.756225 
L 47.13064 40.620709 
L 47.144168 40.634371 
L 47.2693 40.727079 
L 47.198279 40.620814 
L 47.272682 40.714116 
L 47.299737 40.707848 
L 47.35723 40.786323 
L 47.360612 40.81964 
L 47.455307 40.65546 
L 47.475598 40.679712 
L 47.506036 40.58277 
L 47.556765 40.608952 
L 47.959217 40.455753 
L 47.972744 40.499527 
L 48.10464 40.611356 
L 47.9998 40.492703 
L 48.108022 40.609949 
L 48.13846 40.643871 
L 48.12155 40.590727 
L 48.206099 40.574408 
L 48.2433 40.527942 
L 48.304175 40.653613 
L 48.588259 40.582472 
L 48.824995 40.50439 
L 48.601786 40.634878 
L 48.831759 40.521421 
L 48.848669 40.5481 
L 48.865578 40.488023 
L 48.939981 40.500379 
L 49.075259 40.573218 
L 49.180099 40.538867 
L 49.098933 40.609413 
L 49.197009 40.578172 
L 49.376252 40.665981 
L 49.383016 40.648657 
L 49.498002 40.685766 
L 49.504766 40.716105 
L 49.589315 40.643261 
L 49.602843 40.643485 
L 49.775322 40.542065 
L 49.819287 40.45315 
L 49.890308 40.49145 
L 49.988384 40.548241 
L 49.924127 40.468227 
L 50.001912 40.508422 
L 50.049259 40.461634 
L 50.096607 40.560376 
L 50.116898 40.480085 
L 50.214975 40.580109 
L 50.357017 40.521821 
L 50.265704 40.619034 
L 50.360398 40.528008 
L 50.407746 40.566652 
L 50.441565 40.491563 
L 50.468621 40.534252 
L 50.543024 40.459247 
L 50.586989 40.516605 
L 50.769614 40.459688 
L 50.600517 40.562645 
L 50.783142 40.496904 
L 50.860927 40.67407 
L 50.908274 40.564058 
L 51.3716 40.505367 
L 51.476441 40.439721 
L 51.432475 40.536503 
L 51.493351 40.445797 
L 51.621864 40.629094 
L 51.64892 40.60127 
L 51.784198 40.632974 
L 51.790962 40.647187 
L 51.838309 40.684762 
L 51.885656 40.599542 
L 51.90933 40.559027 
L 51.973587 40.664854 
L 51.987115 40.71166 
L 52.044608 40.636653 
L 52.085191 40.664432 
L 52.13592 40.610685 
L 52.186649 40.698655 
L 52.220469 40.756708 
L 52.267816 40.640353 
L 52.29149 40.675381 
L 52.39633 40.607919 
L 52.409858 40.620891 
L 52.504552 40.762402 
L 52.562046 40.742292 
L 52.798782 40.661023 
L 52.808928 40.714174 
L 53.126831 40.783865 
L 52.849511 40.631669 
L 53.130213 40.771806 
L 53.187706 40.7155 
L 53.248581 40.747333 
L 53.339893 40.657917 
L 53.360185 40.674042 
L 53.465025 40.529565 
L 53.603685 40.562789 
L 53.610449 40.540514 
L 53.684852 40.455457 
L 53.617213 40.54634 
L 53.722053 40.542402 
L 53.766018 40.54393 
L 53.782928 40.48453 
L 53.82013 40.490003 
L 54.100831 40.516681 
L 54.104213 40.485141 
L 54.310512 40.317956 
L 54.117741 40.504836 
L 54.327421 40.348378 
L 54.401824 40.312084 
L 54.435644 40.393951 
L 54.53372 40.33898 
L 54.540484 40.316436 
L 54.574304 40.275178 
L 54.625033 40.356143 
L 54.65547 40.313552 
L 54.682526 40.27539 
L 54.844859 40.790464 
L 54.871915 40.778534 
L 54.939554 40.85958 
L 55.07145 41.091581 
L 55.088359 41.055713 
L 55.105269 41.040749 
L 55.115415 41.092271 
L 55.169526 41.124631 
L 55.294658 41.221445 
L 55.210109 41.097597 
L 55.321714 41.195674 
L 55.534776 41.266827 
L 55.636235 41.327808 
L 55.649762 41.294556 
L 55.751221 41.30919 
L 55.66329 41.255016 
L 55.761367 41.28555 
L 55.839151 41.162883 
L 55.889881 41.23022 
L 55.950756 41.318685 
L 56.018395 41.264194 
L 56.1672 41.283223 
L 56.204402 41.345357 
L 56.265277 41.21639 
L 56.370117 41.116773 
L 56.285568 41.233511 
L 56.387027 41.138035 
L 56.518923 41.298076 
L 56.539214 41.303917 
L 56.637291 41.231566 
L 56.80977 41.394038 
L 56.850353 41.293754 
L 57.03636 41.145255 
L 57.039742 41.153779 
L 57.249423 41.114163 
L 57.273097 41.195479 
L 57.323826 41.202993 
L 57.340736 41.13568 
L 57.381319 41.164957 
L 57.519979 41.05142 
L 57.442194 41.190108 
L 57.530125 41.062272 
L 57.912285 41.015395 
L 58.040799 40.926049 
L 58.047562 40.934624 
L 58.09491 40.872328 
L 58.19975 41.021612 
L 58.209896 41.005219 
L 58.274153 41.089382 
L 58.297826 41.079199 
L 58.378993 41.074798 
L 58.402667 41.039435 
L 58.534563 40.889076 
L 58.541327 40.932411 
L 58.615729 41.031648 
L 58.663077 41.009607 
L 58.740861 40.988442 
L 58.754389 41.047202 
L 58.774681 41.018604 
L 58.838938 40.930024 
L 58.886285 41.032557 
L 59.082438 41.066235 
L 59.194042 41.010256 
L 59.119639 41.097184 
L 59.197424 41.024492 
L 59.248153 40.988513 
L 59.342848 41.132531 
L 59.349612 41.097524 
L 59.430778 41.246991 
L 59.478126 41.27559 
L 59.454452 41.193652 
L 59.539001 41.218527 
L 59.613404 41.176242 
L 59.650605 41.233345 
L 59.697952 41.257547 
L 59.72839 41.188527 
L 59.758827 41.221589 
L 59.853522 41.260947 
L 59.765591 41.200238 
L 59.877195 41.211789 
L 60.036147 41.101329 
L 60.154515 41.030729 
L 60.161279 41.040726 
L 60.218772 41.018444 
L 60.245827 41.096227 
L 60.249209 41.113982 
L 60.272883 41.042631 
L 60.343904 41.044121 
L 60.4758 40.86798 
L 60.35405 41.05602 
L 60.489328 40.878887 
L 60.617842 40.893354 
L 60.513001 40.846998 
L 60.624605 40.882075 
L 60.627987 40.875289 
L 60.665189 41.024971 
L 60.685481 40.995358 
L 60.742974 41.116446 
L 60.813994 41.038463 
L 60.871488 40.961542 
L 60.925599 41.023219 
L 61.033821 41.062993 
L 61.040585 41.052058 
L 61.128515 41.028933 
L 61.06764 41.009028 
L 61.148807 40.99415 
L 61.158953 40.95925 
L 61.179245 41.04415 
L 61.246884 41.041309 
L 61.260411 41.081536 
L 61.32805 41.019287 
L 61.351724 41.017777 
L 61.520821 40.876736 
L 61.679773 41.049016 
L 61.683155 41.044235 
L 61.764321 40.908557 
L 61.716974 41.068443 
L 61.815051 40.931699 
L 61.946946 40.824339 
L 61.84887 40.945342 
L 61.950328 40.83854 
L 62.156627 40.712834 
L 62.180301 40.790274 
L 62.258086 40.810102 
L 62.227648 40.769033 
L 62.288523 40.774824 
L 62.349398 40.830577 
L 62.356162 40.865609 
L 62.528641 41.035908 
L 62.362926 40.859726 
L 62.545551 41.005534 
L 62.636864 40.988952 
L 62.592898 41.041061 
L 62.650391 41.030638 
L 62.765377 41.100022 
L 62.772141 41.086826 
L 62.870218 41.083291 
L 62.833016 40.99357 
L 62.880364 41.057056 
L 62.900655 41.12086 
L 62.99535 41.069278 
L 63.039315 41.024647 
L 63.123864 41.158985 
L 63.276051 41.067575 
L 63.140774 41.187878 
L 63.286197 41.083247 
L 63.296343 41.122504 
L 63.374128 40.968494 
L 63.502642 40.814256 
L 63.63792 40.754832 
L 63.51617 40.858089 
L 63.648065 40.777456 
L 63.729232 40.851711 
L 63.756288 40.751483 
L 63.905093 40.794605 
L 63.908475 40.78293 
L 64.013316 40.668748 
L 64.060663 40.689969 
L 64.307545 40.56522 
L 64.070809 40.704999 
L 64.321073 40.604267 
L 64.324455 40.619352 
L 64.361656 40.508958 
L 64.412385 40.51281 
L 64.436059 40.508738 
L 64.503698 40.573696 
L 64.703233 40.690316 
L 64.713379 40.671522 
L 64.835129 40.52975 
L 64.838511 40.543048 
L 64.868948 40.600569 
L 64.936587 40.520477 
L 64.946733 40.530752 
L 65.748254 40.058353 
L 65.751636 40.08724 
L 65.836185 39.990218 
L 65.856476 40.032638 
L 66.042483 39.773169 
L 66.079685 39.821135 
L 66.154088 39.782788 
L 66.258928 39.744549 
L 66.26231 39.719054 
L 66.397588 39.585849 
L 66.485518 39.426681 
L 66.519338 39.554509 
L 66.52272 39.563384 
L 66.563303 39.471294 
L 66.603887 39.481652 
L 66.664762 39.412851 
L 66.718873 39.472841 
L 66.779748 39.501082 
L 66.813567 39.425065 
L 66.820331 39.425797 
L 66.945463 39.380459 
L 66.827095 39.431086 
L 66.948845 39.385528 
L 67.073977 39.485002 
L 66.962373 39.380362 
L 67.077359 39.481479 
L 67.080741 39.45432 
L 67.144998 39.53637 
L 67.185581 39.490316 
L 67.259984 39.479768 
L 67.28704 39.517717 
L 67.290422 39.542683 
L 67.371588 39.359738 
L 67.378352 39.389608 
L 67.459519 39.343789 
L 67.493338 39.3916 
L 67.905936 38.957074 
L 67.932991 39.033502 
L 67.936373 39.045563 
L 68.01754 38.945785 
L 68.024304 38.950344 
L 68.193401 38.823746 
L 68.257658 38.817139 
L 68.240749 38.770734 
L 68.291478 38.774047 
L 68.321915 38.790104 
L 68.423374 38.629577 
L 68.785242 37.33567 
L 68.815679 35.130462 
L 68.835971 28.030877 
L 68.913756 39.632232 
L 69.072707 37.395639 
L 69.096381 34.256641 
L 69.106527 28.372765 
L 69.18093 40.154087 
L 69.197839 39.958021 
L 69.353409 36.559691 
L 69.370319 28.309979 
L 69.441339 40.37091 
L 69.444721 40.39448 
L 69.481923 39.910644 
L 69.630728 34.712315 
L 69.640874 28.257551 
L 69.715277 40.55077 
L 69.735569 40.343603 
L 69.860701 38.188124 
L 69.914812 34.112606 
L 69.924958 28.160439 
L 69.999361 40.722004 
L 70.01627 40.573594 
L 70.209041 36.697833 
L 70.225951 28.057358 
L 70.290208 40.415347 
L 70.303736 40.882049 
L 70.391666 39.747506 
L 70.540472 35.112879 
L 70.550618 27.960047 
L 70.628403 41.028522 
L 70.64193 40.924726 
L 70.824555 38.430697 
L 70.898958 35.013574 
L 70.909104 27.915797 
L 70.986889 41.120856 
L 71.000417 41.040766 
L 71.159368 39.071178 
L 71.2845 36.835308 
L 71.304792 27.906851 
L 71.362285 39.731765 
L 71.379195 41.15329 
L 71.473889 40.253063 
L 71.680188 37.786061 
L 71.720771 35.902508 
L 71.734299 27.989053 
L 71.812084 41.179112 
L 71.818848 41.151578 
L 72.180716 37.078327 
L 72.197626 33.726873 
L 72.207772 28.049566 
L 72.285556 41.130539 
L 72.299084 41.025774 
L 72.329522 40.768035 
L 72.43098 39.813402 
L 72.681244 37.20425 
L 72.704918 33.67739 
L 72.718445 28.389005 
L 72.792848 41.046172 
L 72.802994 40.993334 
L 72.857105 40.511037 
L 73.225737 34.837331 
L 73.239265 28.362941 
L 73.31705 41.057824 
L 73.323814 41.007712 
L 73.709356 37.85377 
L 73.78714 35.679176 
L 73.80405 28.54073 
L 73.878453 40.98187 
L 73.881835 40.973832 
L 73.885217 40.983016 
L 73.915654 40.764836 
L 74.402655 35.13687 
L 74.419564 28.889245 
L 74.497349 40.857681 
L 74.588662 40.144595 
L 74.906565 37.837335 
L 74.991113 37.040355 
L 75.014787 34.027123 
L 75.028315 29.006331 
L 75.106099 40.854346 
L 75.112863 40.819692 
L 75.237995 39.828373 
L 75.488259 38.244117 
L 75.752051 37.623981 
L 75.772343 37.663568 
L 75.971878 38.054641 
L 75.97526 38.047323 
L 76.029371 38.166333 
L 76.151121 38.250689 
L 76.161267 38.229788 
L 76.225524 38.426006 
L 76.360802 38.650358 
L 76.367565 38.63387 
L 76.408149 38.623391 
L 76.441968 38.742624 
L 76.448732 38.729867 
L 76.516371 38.787456 
L 76.5671 38.750679 
L 76.570482 38.731668 
L 76.644885 38.895939 
L 76.651649 38.876648 
L 76.790309 39.062082 
L 76.803837 39.03991 
L 76.881621 39.034071 
L 76.895149 39.092252 
L 76.905295 39.086066 
L 77.077774 39.275391 
L 77.270545 39.679577 
L 77.402441 39.821 
L 77.409205 39.810503 
L 77.703434 40.287929 
L 77.781219 40.268252 
L 77.71358 40.301712 
L 77.801511 40.309353 
L 77.828566 40.286711 
L 77.923261 40.393492 
L 78.386587 41.084784 
L 78.417025 41.023348 
L 78.46099 40.952674 
L 78.511719 41.069542 
L 78.515101 41.065025 
L 78.589504 41.084789 
L 78.545539 40.989533 
L 78.619942 41.028505 
L 78.623324 41.010058 
L 78.714636 41.098969 
L 78.805949 41.16721 
L 78.728164 41.090866 
L 78.829622 41.11831 
L 78.954754 41.066332 
L 78.839768 41.140092 
L 78.9649 41.083992 
L 78.991956 41.139778 
L 79.073122 41.050395 
L 79.123852 40.985923 
L 79.174581 41.083348 
L 79.303095 41.124514 
L 79.2084 41.055379 
L 79.309859 41.113386 
L 79.38088 40.961731 
L 79.438373 41.067468 
L 79.445137 41.039642 
L 79.543213 41.023463 
L 79.563505 40.960874 
L 79.62438 41.077975 
L 79.654817 40.983963 
L 79.668345 40.9945 
L 79.85097 40.885665 
L 79.965956 41.08054 
L 79.986248 41.058773 
L 80.084324 41.149371 
L 80.124908 41.112187 
L 80.135054 41.119976 
L 80.280477 40.977114 
L 80.283859 40.999205 
L 80.33797 40.907263 
L 80.3887 40.950942 
L 80.449575 40.98747 
L 80.405609 40.934526 
L 80.47663 40.888448 
L 80.520595 40.854 
L 80.578089 40.920569 
L 80.581471 40.913996 
L 80.605144 40.965525 
L 80.689693 40.887069 
L 80.713366 40.9113 
L 80.774241 40.780852 
L 80.777623 40.79298 
L 80.879082 40.684688 
L 80.906137 40.696456 
L 80.916283 40.662323 
L 81.038033 40.811396 
L 81.122582 40.660928 
L 81.068471 40.822127 
L 81.176693 40.677369 
L 81.278151 40.710367 
L 81.244332 40.644529 
L 81.298443 40.68689 
L 81.399902 40.63797 
L 81.410047 40.665414 
L 81.413429 40.682751 
L 81.46754 40.565383 
L 81.514888 40.635496 
L 81.565617 40.595603 
L 81.612964 40.688337 
L 81.616346 40.669246 
L 81.629874 40.722326 
L 81.72795 40.673406 
L 81.836173 40.577246 
L 81.771916 40.729118 
L 81.856464 40.605867 
L 81.941013 40.691472 
L 81.876756 40.565683 
L 81.978214 40.621066 
L 82.225096 40.640012 
L 82.26568 40.673586 
L 82.285971 40.615275 
L 82.329937 40.617108 
L 82.350228 40.559373 
L 82.434777 40.655029 
L 82.455069 40.649343 
L 82.482124 40.744318 
L 82.485506 40.725969 
L 82.607256 40.989465 
L 82.617402 40.976385 
L 82.776354 40.876767 
L 82.783118 40.898734 
L 82.898104 40.891306 
L 82.800027 40.853927 
L 82.904868 40.875811 
L 83.053673 40.76526 
L 82.928541 40.895473 
L 83.063819 40.785086 
L 83.13484 40.90453 
L 83.070583 40.783763 
L 83.182187 40.824231 
L 83.520382 40.842192 
L 83.63875 40.997782 
L 83.648896 40.97174 
L 83.753736 41.023212 
L 83.682715 40.942893 
L 83.774028 41.003607 
L 83.902542 40.961725 
L 83.905924 40.963987 
L 84.085167 41.009779 
L 84.091931 40.981929 
L 84.291466 40.875187 
L 84.332049 40.961099 
L 84.453799 41.027702 
L 84.348959 40.940203 
L 84.460563 41.012591 
L 84.562021 40.987086 
L 84.518056 40.94757 
L 84.565403 40.980827 
L 84.707445 40.781552 
L 84.717591 40.842865 
L 84.829195 40.88436 
L 84.731119 40.815544 
L 84.869778 40.812119 
L 84.920508 40.759182 
L 84.957709 40.840896 
L 84.978001 40.830686 
L 85.147098 40.892208 
L 85.211355 40.668698 
L 85.275612 40.768661 
L 85.285758 40.757105 
L 86.114335 41.390917 
L 86.171828 41.306568 
L 86.229321 41.37281 
L 86.290196 41.392547 
L 86.324015 41.327242 
L 86.327397 41.342261 
L 86.364599 41.2756 
L 86.428856 41.369578 
L 86.432238 41.362155 
L 86.449147 41.328992 
L 86.547224 41.36222 
L 86.668974 41.322814 
L 86.621627 41.396428 
L 86.675738 41.339624 
L 86.699411 41.383466 
L 86.753522 41.208872 
L 86.878654 41.197334 
L 86.882036 41.209137 
L 87.081571 41.230435 
L 86.919238 41.149269 
L 87.084953 41.221857 
L 87.159356 41.175276 
L 87.118773 41.2749 
L 87.193175 41.245567 
L 87.44344 41.184696 
L 87.450203 41.203346 
L 87.588863 41.254663 
L 87.599009 41.224669 
L 87.690322 41.169512 
L 87.642974 41.241014 
L 87.710613 41.18058 
L 87.778252 41.089564 
L 87.781634 41.070976 
L 87.869565 41.186475 
L 87.872947 41.182785 
L 87.967641 41.226227 
L 87.883093 41.168659 
L 87.998079 41.191475 
L 88.008225 41.165997 
L 88.065718 41.24757 
L 88.092773 41.239558 
L 88.187468 41.244748 
L 88.14012 41.176574 
L 88.200995 41.21145 
L 88.305836 41.120876 
L 88.319364 41.147396 
L 88.329509 41.114006 
L 88.441114 41.17897 
L 88.525662 41.146687 
L 88.471551 41.200766 
L 88.549336 41.199992 
L 88.647412 41.231766 
L 88.57301 41.159066 
L 88.667704 41.178595 
L 88.769162 41.118505 
L 88.78269 41.16692 
L 88.90444 41.112578 
L 88.931496 41.17173 
L 89.005899 41.285311 
L 88.945024 41.165311 
L 89.053246 41.207448 
L 89.445552 41.318094 
L 89.066774 41.174446 
L 89.455698 41.271546 
L 89.584212 41.127291 
L 89.590975 41.165407 
L 89.604503 41.19803 
L 89.631559 41.109126 
L 89.682288 41.103559 
L 90.027246 41.222957 
L 90.057684 41.195679 
L 90.088122 41.26645 
L 90.138851 41.221014 
L 90.257219 41.313742 
L 90.297802 41.239956 
L 90.355295 41.196794 
L 90.318094 41.264582 
L 90.409406 41.237651 
L 90.456754 41.246812 
L 90.493955 41.150215 
L 90.500719 41.153824 
L 90.849059 40.866847 
L 90.521011 41.172558 
L 90.859205 40.888444 
L 90.906553 40.927567 
L 90.896407 40.877164 
L 90.967428 40.892042 
L 91.062122 40.828309 
L 91.068886 40.86404 
" clip-path="url(#ped67548214)" style="fill: none; stroke: #000000; stroke-width: 0.6; stroke-linecap: square"/>
   </g>
   <g id="line2d_3">
    <path d="M 9.905557 56.024836 
L 9.94614 55.786521 
L 10.003633 54.773619 
L 10.020543 44.389443 
L 10.0848 57.416952 
L 10.098328 58.448954 
L 10.196404 57.545329 
L 10.46696 55.889304 
L 10.524453 55.44239 
L 10.554891 53.876887 
L 10.565037 44.451086 
L 10.646203 58.401321 
L 10.656349 58.329156 
L 10.920141 56.348559 
L 10.950578 56.242081 
L 11.085856 55.260857 
L 11.106148 53.812346 
L 11.116294 44.401181 
L 11.194079 58.405897 
L 11.207606 58.307526 
L 11.626968 55.694587 
L 11.681079 54.782487 
L 11.701371 44.443721 
L 11.758864 55.90119 
L 11.775773 58.364671 
L 11.870468 57.509903 
L 12.171461 55.930277 
L 12.225572 55.643678 
L 12.279683 54.302879 
L 12.293211 44.368923 
L 12.370996 58.312144 
L 12.374378 58.28859 
L 12.891816 54.64994 
L 12.908725 44.394189 
L 12.972982 57.795271 
L 12.983128 58.247093 
L 13.077823 57.406362 
L 13.311177 56.091249 
L 13.314559 56.095228 
L 13.348378 55.9687 
L 13.439691 55.634281 
L 13.493802 54.646761 
L 13.510712 44.378395 
L 13.574969 57.782483 
L 13.585115 58.249999 
L 13.679809 57.406218 
L 13.882726 56.213438 
L 13.886108 56.213793 
L 14.085643 55.49385 
L 14.122844 54.110688 
L 14.136372 44.358918 
L 14.214157 58.221328 
L 14.22092 58.175253 
L 14.505004 56.244796 
L 14.508386 56.253201 
L 14.562497 56.109719 
L 14.768796 53.951422 
L 14.782324 44.379241 
L 14.856726 58.184315 
L 14.870254 58.07167 
L 15.205067 56.061624 
L 15.377546 55.171697 
L 15.397838 53.072077 
L 15.407984 44.363013 
L 15.485768 58.1756 
L 15.502678 58.011386 
L 15.915276 55.842218 
L 16.037026 55.320303 
L 16.064081 54.223754 
L 16.077609 44.397185 
L 16.155394 58.088974 
L 16.158776 58.066033 
L 16.524026 56.003912 
L 16.534172 56.055944 
L 16.605193 55.827047 
L 16.703269 54.758003 
L 16.716797 47.662262 
L 16.723561 44.346117 
L 16.797964 58.165459 
L 16.814873 58.026571 
L 17.332311 55.749837 
L 17.369512 55.64529 
L 17.427006 55.044955 
L 17.443915 52.339454 
L 17.454061 44.345753 
L 17.525082 58.047147 
L 17.548756 57.884937 
L 17.78211 56.299439 
L 17.792256 56.309596 
L 17.846367 56.142927 
L 18.360423 56.057267 
L 18.367187 56.083433 
L 18.813604 57.582544 
L 18.816985 57.574977 
L 18.847423 57.741995 
L 18.982701 59.583813 
L 18.996229 59.576175 
L 19.26002 59.827884 
L 19.263402 59.823356 
L 19.266784 59.789549 
L 19.331041 59.885875 
L 19.364861 59.883392 
L 19.489993 59.972392 
L 19.385152 59.85756 
L 19.503521 59.955869 
L 19.628653 59.857319 
L 19.52043 59.979664 
L 19.635416 59.864154 
L 19.811278 59.822843 
L 19.645562 59.882231 
L 19.828187 59.856984 
L 20.017576 59.947944 
L 20.04125 59.881449 
L 20.217111 59.967417 
L 20.247549 59.976085 
L 20.308424 59.879427 
L 20.396354 59.8653 
L 20.345625 59.938831 
L 20.413264 59.900824 
L 20.511341 59.9073 
L 20.453847 59.830849 
L 20.524868 59.895319 
L 20.54516 59.877382 
L 20.565452 59.945782 
L 20.626327 59.931718 
L 20.731167 59.867839 
L 20.741313 59.825801 
L 20.785278 59.9303 
L 20.839389 59.865611 
L 20.954376 59.946819 
L 20.883355 59.83262 
L 20.967903 59.91025 
L 21.03216 59.811326 
L 21.08289 59.859528 
L 21.113327 59.898223 
L 21.164056 59.795019 
L 21.18773 59.832481 
L 21.251987 59.76469 
L 21.30948 59.86749 
L 21.339917 59.935337 
L 21.424466 59.870778 
L 21.519161 59.85107 
L 21.53607 59.877656 
L 21.613855 59.885224 
L 21.593563 59.82926 
L 21.637529 59.832166 
L 21.661202 59.784396 
L 21.69164 59.901487 
L 21.722077 59.890724 
L 21.725459 59.911229 
L 21.759279 59.800641 
L 21.823536 59.835771 
L 21.914848 59.765779 
L 21.837064 59.860585 
L 21.948668 59.821518 
L 21.992633 59.835102 
L 22.009543 59.772458 
L 22.036598 59.777011 
L 22.053508 59.715098 
L 22.124529 59.795487 
L 22.148203 59.768816 
L 22.280098 59.903444 
L 22.293626 59.886253 
L 22.368029 59.923501 
L 22.313918 59.868171 
L 22.411994 59.880337 
L 22.557418 59.905604 
L 22.425522 59.855488 
L 22.5608 59.895789 
L 22.679168 59.838991 
L 22.685932 59.844332 
L 22.865175 59.879924 
L 22.868557 59.874574 
L 22.973397 59.759454 
L 22.990307 59.776097 
L 23.068092 59.740473 
L 23.024127 59.831048 
L 23.098529 59.814365 
L 23.46378 59.872721 
L 23.467162 59.836933 
L 23.56862 59.919931 
L 23.747863 59.771112 
L 23.785065 59.813086 
L 23.808738 59.897836 
L 23.883141 59.801336 
L 23.896669 59.814108 
L 23.981217 59.79463 
L 23.923724 59.836747 
L 24.001509 59.823524 
L 24.008273 59.86637 
L 24.028565 59.814382 
L 24.113113 59.823463 
L 24.160461 59.874608 
L 24.19428 59.76476 
L 24.224718 59.828009 
L 24.238245 59.833085 
L 24.359995 59.729658 
L 24.434398 59.660793 
L 24.383669 59.749847 
L 24.478364 59.749017 
L 24.481746 59.754798 
L 24.535857 59.636548 
L 24.539239 59.637275 
L 24.542621 59.63225 
L 24.566294 59.717153 
L 24.613641 59.718861 
L 24.779357 59.781019 
L 24.627169 59.687879 
L 24.782739 59.767689 
L 24.918017 59.693506 
L 24.92478 59.713518 
L 25.127697 59.886249 
L 25.154753 59.858865 
L 25.290031 59.759357 
L 25.168281 59.883329 
L 25.310322 59.810124 
L 25.367815 59.861727 
L 25.42869 59.840522 
L 25.516621 59.846909 
L 25.452364 59.798542 
L 25.547059 59.821292 
L 25.9326 59.759977 
L 26.044205 59.682283 
L 26.057732 59.693108 
L 26.149045 59.721818 
L 26.108462 59.663372 
L 26.165955 59.671899 
L 26.247121 59.707084 
L 26.294469 59.600025 
L 26.412837 59.701781 
L 26.422983 59.673734 
L 26.490622 59.662341 
L 26.466948 59.722072 
L 26.510913 59.732476 
L 26.537969 59.811387 
L 26.60899 59.692573 
L 26.612372 59.693022 
L 26.625899 59.72245 
L 26.784851 59.56533 
L 26.882927 59.601189 
L 26.842344 59.55434 
L 26.899837 59.589217 
L 26.916747 59.608345 
L 26.97424 59.509992 
L 26.99115 59.519068 
L 27.018205 59.483122 
L 27.065552 59.604425 
L 27.09599 59.539546 
L 27.180539 59.607769 
L 27.136573 59.525827 
L 27.210976 59.55134 
L 27.312435 59.560444 
L 27.285379 59.508056 
L 27.319198 59.547968 
L 27.325962 59.519761 
L 27.376692 59.614362 
L 27.420657 59.597704 
L 27.437567 59.573564 
L 27.542407 59.642124 
L 27.677685 59.536501 
L 27.684449 59.552449 
L 27.809581 59.611175 
L 27.725032 59.505677 
L 27.812963 59.598187 
L 27.911039 59.486681 
L 27.938095 59.516501 
L 28.009115 59.514473 
L 27.955004 59.472669 
L 28.029407 59.461404 
L 28.090282 59.247236 
L 28.164685 59.342281 
L 28.205268 59.357263 
L 28.232324 59.272742 
L 28.266143 59.302487 
L 28.408185 59.233223 
L 28.496116 59.297558 
L 28.414949 59.22827 
L 28.516407 59.233666 
L 28.526553 59.23777 
L 28.644921 59.176896 
L 28.695651 59.22757 
L 28.742998 59.126803 
L 28.753144 59.152333 
L 28.810637 59.196279 
L 28.847838 59.094631 
L 28.908713 59.03774 
L 28.871512 59.115173 
L 28.95606 59.112802 
L 29.050755 59.01107 
L 29.162359 58.947243 
L 29.064283 59.034992 
L 29.165741 58.96255 
L 29.182651 59.049331 
L 29.270581 58.929422 
L 29.382186 58.858277 
L 29.395713 58.880707 
L 29.514082 58.914929 
L 29.520845 58.884998 
L 29.612158 58.818428 
L 29.679797 58.679039 
L 29.747436 58.71945 
L 29.811693 58.693898 
L 29.828603 58.633535 
L 29.903005 58.496946 
L 29.953735 58.599012 
L 29.970644 58.609665 
L 30.007846 58.530773 
L 30.051811 58.548269 
L 30.173561 58.426241 
L 30.183707 58.46165 
L 30.247964 58.450914 
L 30.22429 58.391844 
L 30.285165 58.427133 
L 30.39677 58.34803 
L 30.423825 58.383631 
L 30.535429 58.509734 
L 30.447499 58.363456 
L 30.552339 58.481635 
L 30.680853 58.454312 
L 30.690999 58.467331 
L 30.707909 58.513704 
L 30.748492 58.416721 
L 30.799221 58.445912 
L 30.944645 58.235305 
L 31.002138 58.118442 
L 31.069777 58.191924 
L 31.215201 58.165582 
L 31.313277 58.046793 
L 31.336951 58.072903 
L 31.340333 58.090446 
L 31.401208 57.990934 
L 31.435027 57.997495 
L 31.627798 57.851859 
L 31.63118 57.871301 
L 31.749548 57.957254 
L 31.75293 57.925861 
L 31.864534 57.848876 
L 31.878062 57.871323 
L 32.003194 57.898808 
L 31.89159 57.860594 
L 32.006576 57.893548 
L 32.168909 57.827474 
L 32.047159 57.944531 
L 32.182437 57.848379 
L 32.270368 57.796923 
L 32.294041 57.865881 
L 32.442847 57.725724 
L 32.452993 57.761662 
L 32.503722 57.832817 
L 32.564597 57.769717 
L 32.567979 57.751507 
L 32.632236 57.851987 
L 32.662674 57.829907 
L 32.794569 57.947256 
L 32.808097 57.967661 
L 32.946757 57.827362 
L 33.085417 57.950711 
L 33.153056 58.006333 
L 33.203785 57.934733 
L 33.26466 58.001752 
L 33.325535 57.957238 
L 33.582563 57.742972 
L 33.599473 57.77312 
L 33.62991 57.83068 
L 33.697549 57.710454 
L 33.707695 57.687854 
L 33.805771 57.694609 
L 33.849737 57.648539 
L 33.832827 57.71421 
L 33.917376 57.67069 
L 34.042508 57.624767 
L 33.937667 57.727332 
L 34.062799 57.658663 
L 34.089855 57.664523 
L 34.157494 57.587838 
L 34.184549 57.552947 
L 34.319827 57.645755 
L 34.451723 57.44283 
L 34.465251 57.445742 
L 34.495688 57.528422 
L 34.580237 57.498083 
L 34.647876 57.423094 
L 34.698605 57.440135 
L 34.844029 57.402054 
L 34.705369 57.445052 
L 34.847411 57.405558 
L 34.925196 57.494381 
L 34.969161 57.416615 
L 35.084147 57.362302 
L 35.013126 57.446295 
L 35.087529 57.378991 
L 35.669224 57.191778 
L 35.80112 57.32763 
L 35.814648 57.306517 
L 35.841703 57.307716 
L 35.885668 57.398973 
L 36.115641 57.371182 
L 36.250919 57.224832 
L 36.277974 57.278478 
L 36.348995 57.177875 
L 36.355759 57.194168 
L 36.518092 57.121739 
L 36.528238 57.141091 
L 36.677044 57.277865 
L 36.68719 57.246295 
L 36.856287 56.988425 
L 36.907016 57.020409 
L 36.957745 57.070999 
L 37.005093 56.993181 
L 37.01862 57.02707 
L 37.120079 56.931512 
L 37.136989 56.959596 
L 37.285794 56.971597 
L 37.292558 56.960216 
L 37.373725 56.901635 
L 37.404162 56.967147 
L 37.45151 56.918987 
L 37.529294 57.015585 
L 37.684864 56.823014 
L 37.688246 56.826616 
L 37.708537 56.842242 
L 37.772794 56.721341 
L 37.779558 56.733922 
L 37.847197 56.625646 
L 37.93851 56.468815 
L 37.975711 56.481404 
L 38.02644 56.495513 
L 38.056878 56.375034 
L 38.121135 56.271304 
L 38.276704 55.825076 
L 38.340961 54.233635 
L 38.354489 43.89276 
L 38.44242 56.652056 
L 38.641955 54.414795 
L 38.658864 45.720755 
L 38.729885 57.134567 
L 38.733267 57.111616 
L 38.932802 53.375582 
L 38.942948 45.310106 
L 39.017351 57.570329 
L 39.037642 57.364578 
L 39.233795 54.483047 
L 39.247323 45.027308 
L 39.325108 57.921233 
L 39.457004 56.500444 
L 39.568608 54.40555 
L 39.582136 44.845247 
L 39.65992 58.176451 
L 39.663302 58.166668 
L 39.879747 55.867042 
L 39.930476 54.392948 
L 39.944004 44.705595 
L 40.025171 58.353238 
L 40.055608 58.077356 
L 40.33631 53.736893 
L 40.346456 44.567996 
L 40.427622 58.423935 
L 40.44115 58.309469 
L 40.765817 54.364256 
L 40.779345 44.532774 
L 40.857129 58.464073 
L 40.860511 58.461372 
L 41.20547 55.407985 
L 41.229144 53.915128 
L 41.239289 44.448602 
L 41.320456 58.498768 
L 41.330602 58.423854 
L 41.716144 54.524202 
L 41.729672 44.4266 
L 41.804074 58.422606 
L 41.810838 58.488097 
L 41.875095 57.875215 
L 42.236964 53.778153 
L 42.247109 44.399898 
L 42.328276 58.455455 
L 42.341804 58.355443 
L 42.588686 56.404886 
L 42.761165 55.135963 
L 42.778075 52.326743 
L 42.788221 44.473113 
L 42.866006 58.424186 
L 42.882915 58.278331 
L 43.332714 54.77331 
L 43.349624 44.426252 
L 43.413881 57.493021 
L 43.430791 58.386448 
L 43.522103 57.518573 
L 43.768985 56.032509 
L 43.900881 54.56358 
L 43.917791 44.422886 
L 43.98543 58.221764 
L 43.995576 58.362302 
L 44.076742 57.607364 
L 44.33377 56.030726 
L 44.465666 54.912019 
L 44.479194 50.754494 
L 44.485958 44.383756 
L 44.563743 58.347713 
L 44.584034 58.178869 
L 44.824152 56.444306 
L 44.949284 55.980905 
L 45.067653 54.434757 
L 45.08118 44.394013 
L 45.158965 58.32109 
L 45.192785 58.041878 
L 45.429521 56.38403 
L 45.436285 56.388413 
L 45.439667 56.390125 
L 45.470104 56.286917 
L 45.652729 54.151137 
L 45.666257 44.350273 
L 45.74066 58.352386 
L 45.750806 58.286805 
L 46.278389 54.743143 
L 46.298681 44.43171 
L 46.356174 56.368618 
L 46.373084 58.251563 
L 46.467778 57.428994 
L 46.633494 56.435952 
L 46.822883 55.720562 
L 46.893904 55.002475 
L 46.910813 50.823856 
L 46.917577 44.389209 
L 46.995362 58.210173 
L 47.015654 58.056549 
L 47.286209 56.232794 
L 47.289591 56.241299 
L 47.536473 55.277642 
L 47.560147 53.479811 
L 47.570293 44.377896 
L 47.648078 58.18865 
L 47.664987 58.028429 
L 47.928779 56.249379 
L 47.962599 56.132331 
L 48.165515 55.018865 
L 48.182425 50.648196 
L 48.189189 44.371557 
L 48.266974 58.221008 
L 48.287265 58.028869 
L 48.682953 55.905421 
L 48.706627 55.863711 
L 48.713391 55.801217 
L 48.804703 54.167109 
L 48.818231 44.322281 
L 48.896016 58.209004 
L 48.90278 58.168947 
L 49.328905 55.999132 
L 49.335669 56.007613 
L 49.383016 55.858468 
L 49.386398 55.85782 
L 49.49462 54.030896 
L 49.508148 44.300737 
L 49.582551 58.140095 
L 49.592697 58.088736 
L 49.964711 56.049295 
L 50.103371 55.551651 
L 50.143954 54.747951 
L 50.164246 44.372693 
L 50.225121 57.387119 
L 50.238648 58.157421 
L 50.333343 57.300808 
L 50.586989 56.044967 
L 50.816961 54.983231 
L 50.833871 50.738271 
L 50.840635 44.405862 
L 50.915038 58.079128 
L 50.938711 57.884283 
L 51.28367 55.962653 
L 51.395274 55.758556 
L 51.449385 55.778866 
L 51.452767 55.793053 
L 51.52717 55.64578 
L 51.530552 55.645539 
L 51.598191 54.78181 
L 51.611719 49.518159 
L 51.618483 44.356733 
L 51.692885 57.967635 
L 51.713177 57.807539 
L 51.953295 56.210248 
L 51.956677 56.212916 
L 52.176504 55.773619 
L 52.179886 55.798709 
L 52.247525 55.473353 
L 52.284726 54.591041 
L 52.301636 44.340236 
L 52.365893 57.639554 
L 52.37942 58.042467 
L 52.470733 57.199973 
L 52.714233 56.084918 
L 52.717615 56.098002 
L 52.764962 56.111966 
L 52.808928 56.038419 
L 52.937442 55.843692 
L 52.950969 55.87118 
L 53.028754 55.820197 
L 53.0389 55.795911 
L 53.062574 55.75254 
L 53.109921 55.851296 
L 53.140358 55.840086 
L 53.245199 55.880512 
L 53.17756 55.777995 
L 53.268872 55.859911 
L 53.336511 55.95831 
L 53.671324 56.671774 
L 53.837039 57.040134 
L 53.840421 57.037251 
L 53.843803 57.021458 
L 53.90806 57.242037 
L 54.178616 57.725327 
L 54.344331 58.155055 
L 54.368005 58.152115 
L 54.391678 58.232645 
L 54.398442 58.24103 
L 54.577686 58.637051 
L 54.584449 58.625574 
L 54.601359 58.591343 
L 54.756929 59.501226 
L 54.905734 59.837073 
L 54.909116 59.813496 
L 55.108651 59.863042 
L 55.112033 59.854487 
L 55.179672 59.921912 
L 55.227019 59.824556 
L 55.31495 59.947639 
L 55.352151 59.90418 
L 55.426554 59.899774 
L 55.372443 59.915395 
L 55.460373 59.922325 
L 55.534776 59.951724 
L 55.561832 59.868608 
L 55.649762 59.836544 
L 55.585506 59.893147 
L 55.673436 59.84937 
L 55.690346 59.836061 
L 55.83577 59.906791 
L 55.950756 59.837174 
L 55.886499 59.917399 
L 55.960902 59.845173 
L 56.069124 59.910626 
L 56.086034 59.859715 
L 56.116471 59.836639 
L 56.160436 59.916595 
L 56.194256 59.870175 
L 56.30586 59.940758 
L 56.214548 59.859223 
L 56.312624 59.906081 
L 56.387027 59.826163 
L 56.42761 59.854125 
L 56.53245 59.872659 
L 56.46143 59.907619 
L 56.535832 59.88179 
L 56.556124 59.923763 
L 56.593326 59.861794 
L 56.644055 59.863351 
L 56.738749 59.960992 
L 56.789478 59.8873 
L 56.853735 59.822351 
L 56.911228 59.850213 
L 57.046506 59.864625 
L 57.164874 59.803299 
L 57.056652 59.880881 
L 57.181784 59.827994 
L 57.300152 59.866349 
L 57.404993 59.814528 
L 57.41852 59.844838 
L 57.54027 59.915178 
L 57.46925 59.797273 
L 57.547034 59.908295 
L 57.597764 59.819036 
L 57.67893 59.902617 
L 57.682312 59.914034 
L 57.705986 59.841443 
L 57.780389 59.869083 
L 57.85141 59.792814 
L 57.895375 59.844439 
L 57.935958 59.905134 
L 58.006979 59.849466 
L 59.393577 59.847714 
L 59.542383 59.873622 
L 59.57282 59.806361 
L 59.616785 59.918244 
L 59.657369 59.836618 
L 59.779119 59.875718 
L 59.863668 59.834943 
L 59.81632 59.892442 
L 59.887341 59.894075 
L 59.897487 59.913821 
L 59.95498 59.804225 
L 59.97189 59.802435 
L 59.992182 59.812296 
L 60.103786 59.731461 
L 60.225536 59.775896 
L 60.120695 59.714695 
L 60.245827 59.759502 
L 60.374341 59.648984 
L 60.279647 59.773619 
L 60.377723 59.660264 
L 60.509619 59.631507 
L 60.384487 59.67564 
L 60.526529 59.664759 
L 60.685481 59.88502 
L 60.688862 59.881458 
L 60.820758 59.76474 
L 60.827522 59.779257 
L 60.922217 59.847866 
L 60.844432 59.755346 
L 60.952654 59.815453 
L 60.969564 59.746705 
L 61.060877 59.836443 
L 61.192772 59.838267 
L 61.074404 59.801149 
L 61.196154 59.831127 
L 61.314523 59.787422 
L 61.213064 59.837694 
L 61.317904 59.798881 
L 61.402453 59.878385 
L 61.338196 59.7886 
L 61.432891 59.836987 
L 61.558023 59.716119 
L 61.568168 59.726913 
L 61.608752 59.753278 
L 61.659481 59.655481 
L 61.662863 59.665732 
L 61.666245 59.651434 
L 61.730502 59.783769 
L 61.767703 59.705188 
L 61.784613 59.714847 
L 61.828578 59.637324 
L 61.84887 59.634962 
L 61.95371 59.601149 
L 61.872544 59.66881 
L 61.963856 59.635207 
L 62.007822 59.704646 
L 61.984148 59.622703 
L 62.078842 59.631689 
L 62.190447 59.63208 
L 62.207356 59.665576 
L 62.379836 59.855673 
L 62.24794 59.626388 
L 62.383218 59.851607 
L 62.389981 59.864618 
L 62.650391 59.775615 
L 62.694357 59.878748 
L 62.775523 59.844813 
L 62.893891 59.746084 
L 62.782287 59.862265 
L 62.934475 59.840542 
L 63.191503 59.752228 
L 63.20503 59.81469 
L 63.218558 59.83874 
L 63.306489 59.760025 
L 63.384274 59.680036 
L 63.424857 59.724749 
L 63.597336 59.75921 
L 63.607482 59.74045 
L 63.661593 59.68833 
L 63.712322 59.774191 
L 64.412385 59.562811 
L 64.513844 59.662051 
L 64.530753 59.618891 
L 64.534135 59.62623 
L 64.588247 59.486452 
L 64.73367 59.383156 
L 64.737052 59.387647 
L 64.923059 59.213747 
L 64.753962 59.406064 
L 64.929823 59.234384 
L 65.071865 59.353062 
L 65.169941 59.266456 
L 65.203761 59.293031 
L 65.281546 59.361966 
L 65.318747 59.34518 
L 65.467553 59.30553 
L 65.339039 59.372106 
L 65.470935 59.31454 
L 65.5149 59.35747 
L 65.575775 59.282259 
L 65.667087 59.143666 
L 65.697525 59.176583 
L 66.03572 58.908681 
L 66.052629 58.954953 
L 66.160852 58.902576 
L 66.164233 58.896596 
L 66.204817 58.798966 
L 66.27922 58.85365 
L 66.380678 58.907088 
L 66.302893 58.830621 
L 66.414498 58.868593 
L 66.681671 58.838793 
L 66.803421 58.708121 
L 66.698581 58.877266 
L 66.810185 58.733395 
L 66.813567 58.745015 
L 66.874442 58.648695 
L 66.90488 58.663175 
L 67.019866 58.587785 
L 66.918408 58.676609 
L 67.053685 58.636469 
L 67.141616 58.717103 
L 67.168672 58.670672 
L 67.716547 58.347182 
L 67.719929 58.358019 
L 67.763894 58.291026 
L 67.828151 58.380086 
L 67.943137 58.466922 
L 67.966811 58.441413 
L 68.085179 58.394936 
L 68.095325 58.40692 
L 68.213693 58.287031 
L 68.29486 58.236295 
L 68.325297 58.304847 
L 68.396318 58.361145 
L 68.342207 58.291016 
L 68.453811 58.337954 
L 68.795388 58.114386 
L 68.940811 58.273648 
L 68.967867 58.223978 
L 69.021978 58.303536 
L 69.076089 58.189882 
L 69.191075 58.09082 
L 69.092999 58.194583 
L 69.204603 58.111574 
L 69.316207 58.148289 
L 69.322971 58.128848 
L 69.339881 58.137518 
L 69.448103 58.002976 
L 69.566471 58.01891 
L 69.454867 57.993801 
L 69.569853 57.994142 
L 69.613819 58.007743 
L 69.691603 57.879803 
L 69.762624 57.920579 
L 69.698367 57.876651 
L 69.796444 57.842474 
L 69.924958 57.766513 
L 70.036562 57.813645 
L 69.938486 57.741538 
L 70.043326 57.788911 
L 70.158312 57.726822 
L 70.117729 57.824613 
L 70.161694 57.737002 
L 70.215805 57.796064 
L 70.175222 57.719335 
L 70.266534 57.709483 
L 70.283444 57.66181 
L 70.337555 57.790543 
L 70.367993 57.764262 
L 70.476215 57.795972 
L 70.503271 57.693625 
L 70.574291 57.721435 
L 70.635166 57.569514 
L 70.685896 57.542392 
L 70.702805 57.481661 
L 70.719715 57.503134 
L 70.76368 57.542717 
L 70.854993 57.449521 
L 70.932778 57.508883 
L 70.976743 57.490067 
L 71.07482 57.407937 
L 71.101875 57.435279 
L 71.155986 57.404434 
L 71.243917 57.496237 
L 71.257445 57.453907 
L 71.341993 57.537172 
L 71.352139 57.510214 
L 71.504327 57.553244 
L 71.551674 57.585274 
L 71.599021 57.509474 
L 71.605785 57.515614 
L 71.663278 57.481649 
L 71.626077 57.534569 
L 71.717389 57.510135 
L 71.903396 57.484582 
L 71.906778 57.463879 
L 72.299084 57.385741 
L 72.305848 57.401775 
L 72.376869 57.282312 
L 72.380251 57.283157 
L 72.461417 57.219411 
L 72.491855 57.274041 
L 72.495237 57.297253 
L 72.56964 57.234712 
L 72.600077 57.270636 
L 72.79623 57.11007 
L 72.802994 57.132725 
L 72.928126 57.21842 
L 72.931508 57.207428 
L 73.005911 57.137942 
L 73.046494 57.16649 
L 73.049876 57.18212 
L 73.114133 57.029269 
L 73.147953 57.124301 
L 73.171626 57.072086 
L 73.229119 57.14888 
L 73.256175 57.142608 
L 73.344105 57.126754 
L 73.313668 57.20419 
L 73.357633 57.157856 
L 73.367779 57.226898 
L 73.442182 57.064732 
L 73.459092 57.080966 
L 73.54364 57.011981 
L 73.482765 57.095627 
L 73.57746 57.044178 
L 73.6823 57.077226 
L 73.604515 57.029014 
L 73.692446 57.071781 
L 73.722883 57.085804 
L 73.868307 56.881613 
L 73.902127 56.945668 
L 73.979911 56.906284 
L 74.054314 56.842382 
L 74.101661 56.893183 
L 74.179446 56.836789 
L 74.125335 56.843326 
L 74.182828 56.815715 
L 74.284287 56.790265 
L 74.243703 56.843235 
L 74.294432 56.800427 
L 74.368835 56.799923 
L 74.382363 56.751005 
L 74.389127 56.760929 
L 74.409419 56.775291 
L 74.514259 56.694079 
L 74.521023 56.717693 
L 74.564988 56.632656 
L 74.612335 56.646036 
L 74.622481 56.659309 
L 75.004641 55.785251 
L 75.048606 54.945732 
L 75.062134 48.774051 
L 75.068898 43.858698 
L 75.160211 56.685499 
L 75.166975 56.642479 
L 75.356363 54.248549 
L 75.369891 45.598281 
L 75.440912 57.149218 
L 75.45444 57.057 
L 75.640447 54.363837 
L 75.653975 45.318134 
L 75.728378 57.562068 
L 75.735141 57.504748 
L 75.934676 54.876643 
L 75.948204 48.225428 
L 75.951586 45.152789 
L 76.032753 57.90697 
L 76.046281 57.776339 
L 76.269489 53.773754 
L 76.279635 44.833645 
L 76.360802 58.182137 
L 76.374329 58.058839 
L 76.627975 53.962756 
L 76.638121 44.673336 
L 76.719288 58.361813 
L 76.729434 58.282518 
L 77.003371 55.321966 
L 77.023663 53.23782 
L 77.033809 44.639623 
L 77.114976 58.446449 
L 77.128503 58.329242 
L 77.277309 56.798813 
L 77.443024 54.610902 
L 77.456552 44.534445 
L 77.530955 58.372257 
L 77.537719 58.482237 
L 77.615504 57.732464 
L 77.899587 54.221325 
L 77.913115 44.540277 
L 77.9909 58.501962 
L 77.997664 58.47565 
L 78.383205 53.959281 
L 78.393351 44.456267 
L 78.474518 58.481676 
L 78.484664 58.417179 
L 78.805949 55.921696 
L 78.836386 55.732434 
L 78.890497 54.410014 
L 78.904025 44.406945 
L 78.98181 58.459865 
L 79.002102 58.32444 
L 79.418081 54.124068 
L 79.431609 44.450234 
L 79.509394 58.459887 
L 79.516157 58.417381 
L 79.959192 55.253029 
L 79.979484 53.593543 
L 79.98963 44.389093 
L 80.067415 58.396181 
L 80.084324 58.279485 
L 80.348116 56.320136 
L 80.486776 55.581273 
L 80.523977 55.064188 
L 80.540887 50.36153 
L 80.547651 44.388443 
L 80.625436 58.382651 
L 80.645727 58.209675 
L 81.01436 55.947743 
L 81.017742 55.953007 
L 81.021124 55.957316 
L 81.048179 55.84097 
L 81.132728 54.099608 
L 81.146256 44.389936 
L 81.220658 58.323054 
L 81.230804 58.271154 
L 81.548707 56.154769 
L 81.738096 54.838764 
L 81.751624 48.909953 
L 81.758388 44.360611 
L 81.832791 58.271308 
L 81.853082 58.115089 
L 82.150694 56.174434 
L 82.157457 56.188433 
L 82.35361 54.947963 
L 82.367138 52.463654 
L 82.377284 44.400466 
L 82.451687 58.233536 
L 82.471978 58.086753 
L 82.691805 56.480563 
L 82.958979 55.29074 
L 82.986034 53.322483 
L 82.99618 44.424349 
L 83.070583 58.180665 
L 83.090875 58.022809 
L 83.466271 55.972917 
L 83.469653 55.97921 
L 83.615076 54.82246 
L 83.628604 48.93917 
L 83.635368 44.377629 
L 83.709771 58.182661 
L 83.730063 58.00916 
L 84.217063 55.881282 
L 84.237354 55.902445 
L 84.271174 55.939102 
L 84.345577 55.896636 
L 84.450417 55.352991 
L 84.480855 54.053906 
L 84.494382 44.283814 
L 84.568785 57.996225 
L 84.578931 57.9293 
L 84.87316 56.12562 
L 84.876542 56.150414 
L 84.957709 55.982023 
L 84.964473 55.996732 
L 85.15048 55.823132 
L 85.16739 55.839277 
L 85.174154 55.836167 
L 85.353397 57.328919 
L 85.505584 59.093965 
L 85.782904 59.598738 
L 85.799814 59.579675 
L 85.813341 59.564961 
L 85.88098 59.725743 
L 86.070369 59.856161 
L 86.073751 59.844405 
L 86.104189 59.816679 
L 86.165064 59.913394 
L 86.195501 59.956335 
L 86.276668 59.903399 
L 86.330779 59.880343 
L 86.286814 59.926294 
L 86.381508 59.941197 
L 86.482967 59.985089 
L 86.459293 59.891043 
L 86.496495 59.956132 
L 86.601335 59.886951 
L 86.503258 59.973367 
L 86.625009 59.915473 
L 86.777196 59.931896 
L 86.658828 59.865822 
L 86.78396 59.910345 
L 86.915856 59.855863 
L 86.936148 59.902427 
L 86.949675 59.889806 
L 87.064662 59.943382 
L 87.176266 59.836971 
L 87.122155 59.957831 
L 87.189794 59.844111 
L 87.226995 59.918788 
L 87.250669 59.819521 
L 87.301398 59.876701 
L 87.42653 59.783508 
L 87.429912 59.79691 
L 87.473877 59.851596 
L 87.551662 59.803015 
L 87.659884 59.810182 
L 87.575335 59.845742 
L 87.663266 59.816419 
L 87.747815 59.906888 
L 87.778252 59.875633 
L 87.900002 59.842883 
L 87.801926 59.915817 
L 87.906766 59.851932 
L 88.031898 59.908069 
L 87.923676 59.826154 
L 88.03528 59.891359 
L 88.268634 59.851067 
L 88.319364 59.864855 
L 88.332891 59.804159 
L 88.356565 59.81361 
L 88.407294 59.723952 
L 88.464787 59.840012 
L 88.505371 59.770218 
L 88.542572 59.887465 
L 88.57301 59.842336 
L 88.691378 59.901353 
L 88.907822 59.835981 
L 88.914586 59.858508 
L 88.931496 59.907307 
L 88.995753 59.775826 
L 89.019426 59.822738 
L 89.543628 59.848501 
L 89.54701 59.878751 
L 89.611267 59.777904 
L 89.648469 59.787579 
L 89.749927 59.862304 
L 89.776982 59.907356 
L 89.858149 59.837447 
L 89.932552 59.74723 
L 89.990045 59.781971 
L 90.091503 59.807106 
L 90.06783 59.722455 
L 90.105031 59.789763 
L 90.115177 59.750096 
L 90.176052 59.860116 
L 90.213254 59.815029 
L 90.321476 59.909363 
L 90.247073 59.790588 
L 90.331622 59.869559 
L 90.517629 59.755687 
L 90.345149 59.900229 
L 90.558212 59.831277 
L 90.561594 59.852845 
L 90.598795 59.797969 
L 90.663052 59.804755 
L 90.794948 59.720916 
L 90.713782 59.825636 
L 90.79833 59.740794 
L 90.893025 59.754689 
L 90.906553 59.708609 
L 91.004629 59.682864 
L 90.916698 59.728134 
L 91.021539 59.713296 
L 91.024921 59.724961 
L 91.035066 59.691538 
L 91.068886 59.694756 
" clip-path="url(#ped67548214)" style="fill: none; stroke: #000000; stroke-width: 0.6; stroke-linecap: square"/>
   </g>
   <g id="line2d_4">
    <path d="M 95.127221 15.313171 
L 95.127221 8.552195 
" clip-path="url(#ped67548214)" style="fill: none; stroke: #000000; stroke-width: 1.5; stroke-linecap: square"/>
   </g>
  </g>
 </g>
 <defs>
  <clipPath id="ped67548214">
   <rect x="7.2" y="7.2" width="89.28" height="55.44"/>
  </clipPath>
 </defs>
</svg>
