<?xml version="1.0" encoding="utf-8" standalone="no"?>
<!DOCTYPE svg PUBLIC "-//W3C//DTD SVG 1.1//EN"
  "http://www.w3.org/Graphics/SVG/1.1/DTD/svg11.dtd">
<svg xmlns:xlink="http://www.w3.org/1999/xlink" width="113.9575pt" height="94.87625pt" viewBox="0 0 113.9575 94.87625" xmlns="http://www.w3.org/2000/svg" version="1.1">
 <metadata>
  <rdf:RDF xmlns:dc="http://purl.org/dc/elements/1.1/" xmlns:cc="http://creativecommons.org/ns#" xmlns:rdf="http://www.w3.org/1999/02/22-rdf-syntax-ns#">
   <cc:Work>
    <dc:type rdf:resource="http://purl.org/dc/dcmitype/StillImage"/>
    <dc:date>2022-05-17T18:36:32.396256</dc:date>
    <dc:format>image/svg+xml</dc:format>
    <dc:creator>
     <cc:Agent>
      <dc:title>Matplotlib v3.5.1, https://matplotlib.org/</dc:title>
     </cc:Agent>
    </dc:creator>
   </cc:Work>
  </rdf:RDF>
 </metadata>
 <defs>
  <style type="text/css">*{stroke-linejoin: round; stroke-linecap: butt}</style>
 </defs>
 <g id="figure_1">
  <g id="patch_1">
   <path d="M 0 94.87625 
L 113.9575 94.87625 
L 113.9575 0 
L 0 0 
z
" style="fill: #ffffff"/>
  </g>
  <g id="axes_1">
   <g id="patch_2">
    <path d="M 34.2175 62.64 
L 106.7575 62.64 
L 106.7575 7.2 
L 34.2175 7.2 
z
" style="fill: #ffffff"/>
   </g>
   <g id="patch_3">
    <path d="M 37.514773 62.64 
L 38.833682 62.64 
L 38.833682 62.222749 
L 37.514773 62.222749 
z
" clip-path="url(#p5a2cacd8a9)" style="opacity: 0.6"/>
   </g>
   <g id="patch_4">
    <path d="M 38.833682 62.64 
L 40.152591 62.64 
L 40.152591 62.41364 
L 38.833682 62.41364 
z
" clip-path="url(#p5a2cacd8a9)" style="opacity: 0.6"/>
   </g>
   <g id="patch_5">
    <path d="M 40.152591 62.64 
L 41.4715 62.64 
L 41.4715 62.435566 
L 40.152591 62.435566 
z
" clip-path="url(#p5a2cacd8a9)" style="opacity: 0.6"/>
   </g>
   <g id="patch_6">
    <path d="M 41.4715 62.64 
L 42.790409 62.64 
L 42.790409 62.284015 
L 41.4715 62.284015 
z
" clip-path="url(#p5a2cacd8a9)" style="opacity: 0.6"/>
   </g>
   <g id="patch_7">
    <path d="M 42.790409 62.64 
L 44.109318 62.64 
L 44.109318 60.994212 
L 42.790409 60.994212 
z
" clip-path="url(#p5a2cacd8a9)" style="opacity: 0.6"/>
   </g>
   <g id="patch_8">
    <path d="M 44.109318 62.64 
L 45.428227 62.64 
L 45.428227 56.139395 
L 44.109318 56.139395 
z
" clip-path="url(#p5a2cacd8a9)" style="opacity: 0.6"/>
   </g>
   <g id="patch_9">
    <path d="M 45.428227 62.64 
L 46.747136 62.64 
L 46.747136 58.606143 
L 45.428227 58.606143 
z
" clip-path="url(#p5a2cacd8a9)" style="opacity: 0.6"/>
   </g>
   <g id="patch_10">
    <path d="M 46.747136 62.64 
L 48.066045 62.64 
L 48.066045 60.259025 
L 46.747136 60.259025 
z
" clip-path="url(#p5a2cacd8a9)" style="opacity: 0.6"/>
   </g>
   <g id="patch_11">
    <path d="M 48.066045 62.64 
L 49.384955 62.64 
L 49.384955 60.97293 
L 48.066045 60.97293 
z
" clip-path="url(#p5a2cacd8a9)" style="opacity: 0.6"/>
   </g>
   <g id="patch_12">
    <path d="M 49.384955 62.64 
L 50.703864 62.64 
L 50.703864 60.65048 
L 49.384955 60.65048 
z
" clip-path="url(#p5a2cacd8a9)" style="opacity: 0.6"/>
   </g>
   <g id="patch_13">
    <path d="M 50.703864 62.64 
L 52.022773 62.64 
L 52.022773 57.28216 
L 50.703864 57.28216 
z
" clip-path="url(#p5a2cacd8a9)" style="opacity: 0.6"/>
   </g>
   <g id="patch_14">
    <path d="M 52.022773 62.64 
L 53.341682 62.64 
L 53.341682 43.8953 
L 52.022773 43.8953 
z
" clip-path="url(#p5a2cacd8a9)" style="opacity: 0.6"/>
   </g>
   <g id="patch_15">
    <path d="M 53.341682 62.64 
L 54.660591 62.64 
L 54.660591 34.436534 
L 53.341682 34.436534 
z
" clip-path="url(#p5a2cacd8a9)" style="opacity: 0.6"/>
   </g>
   <g id="patch_16">
    <path d="M 54.660591 62.64 
L 55.9795 62.64 
L 55.9795 36.721419 
L 54.660591 36.721419 
z
" clip-path="url(#p5a2cacd8a9)" style="opacity: 0.6"/>
   </g>
   <g id="patch_17">
    <path d="M 55.9795 62.64 
L 57.298409 62.64 
L 57.298409 38.958581 
L 55.9795 38.958581 
z
" clip-path="url(#p5a2cacd8a9)" style="opacity: 0.6"/>
   </g>
   <g id="patch_18">
    <path d="M 57.298409 62.64 
L 58.617318 62.64 
L 58.617318 39.547376 
L 57.298409 39.547376 
z
" clip-path="url(#p5a2cacd8a9)" style="opacity: 0.6"/>
   </g>
   <g id="patch_19">
    <path d="M 58.617318 62.64 
L 59.936227 62.64 
L 59.936227 39.430004 
L 58.617318 39.430004 
z
" clip-path="url(#p5a2cacd8a9)" style="opacity: 0.6"/>
   </g>
   <g id="patch_20">
    <path d="M 59.936227 62.64 
L 61.255136 62.64 
L 61.255136 39.549956 
L 59.936227 39.549956 
z
" clip-path="url(#p5a2cacd8a9)" style="opacity: 0.6"/>
   </g>
   <g id="patch_21">
    <path d="M 61.255136 62.64 
L 62.574045 62.64 
L 62.574045 41.476276 
L 61.255136 41.476276 
z
" clip-path="url(#p5a2cacd8a9)" style="opacity: 0.6"/>
   </g>
   <g id="patch_22">
    <path d="M 62.574045 62.64 
L 63.892955 62.64 
L 63.892955 43.039516 
L 62.574045 43.039516 
z
" clip-path="url(#p5a2cacd8a9)" style="opacity: 0.6"/>
   </g>
   <g id="patch_23">
    <path d="M 63.892955 62.64 
L 65.211864 62.64 
L 65.211864 44.090705 
L 63.892955 44.090705 
z
" clip-path="url(#p5a2cacd8a9)" style="opacity: 0.6"/>
   </g>
   <g id="patch_24">
    <path d="M 65.211864 62.64 
L 66.530773 62.64 
L 66.530773 45.019363 
L 65.211864 45.019363 
z
" clip-path="url(#p5a2cacd8a9)" style="opacity: 0.6"/>
   </g>
   <g id="patch_25">
    <path d="M 66.530773 62.64 
L 67.849682 62.64 
L 67.849682 45.750036 
L 66.530773 45.750036 
z
" clip-path="url(#p5a2cacd8a9)" style="opacity: 0.6"/>
   </g>
   <g id="patch_26">
    <path d="M 67.849682 62.64 
L 69.168591 62.64 
L 69.168591 46.590988 
L 67.849682 46.590988 
z
" clip-path="url(#p5a2cacd8a9)" style="opacity: 0.6"/>
   </g>
   <g id="patch_27">
    <path d="M 69.168591 62.64 
L 70.4875 62.64 
L 70.4875 47.155276 
L 69.168591 47.155276 
z
" clip-path="url(#p5a2cacd8a9)" style="opacity: 0.6"/>
   </g>
   <g id="patch_28">
    <path d="M 70.4875 62.64 
L 71.806409 62.64 
L 71.806409 48.020734 
L 70.4875 48.020734 
z
" clip-path="url(#p5a2cacd8a9)" style="opacity: 0.6"/>
   </g>
   <g id="patch_29">
    <path d="M 71.806409 62.64 
L 73.125318 62.64 
L 73.125318 48.85846 
L 71.806409 48.85846 
z
" clip-path="url(#p5a2cacd8a9)" style="opacity: 0.6"/>
   </g>
   <g id="patch_30">
    <path d="M 73.125318 62.64 
L 74.444227 62.64 
L 74.444227 49.525288 
L 73.125318 49.525288 
z
" clip-path="url(#p5a2cacd8a9)" style="opacity: 0.6"/>
   </g>
   <g id="patch_31">
    <path d="M 74.444227 62.64 
L 75.763136 62.64 
L 75.763136 50.203724 
L 74.444227 50.203724 
z
" clip-path="url(#p5a2cacd8a9)" style="opacity: 0.6"/>
   </g>
   <g id="patch_32">
    <path d="M 75.763136 62.64 
L 77.082045 62.64 
L 77.082045 51.035002 
L 75.763136 51.035002 
z
" clip-path="url(#p5a2cacd8a9)" style="opacity: 0.6"/>
   </g>
   <g id="patch_33">
    <path d="M 77.082045 62.64 
L 78.400955 62.64 
L 78.400955 51.267811 
L 77.082045 51.267811 
z
" clip-path="url(#p5a2cacd8a9)" style="opacity: 0.6"/>
   </g>
   <g id="patch_34">
    <path d="M 78.400955 62.64 
L 79.719864 62.64 
L 79.719864 51.642499 
L 78.400955 51.642499 
z
" clip-path="url(#p5a2cacd8a9)" style="opacity: 0.6"/>
   </g>
   <g id="patch_35">
    <path d="M 79.719864 62.64 
L 81.038773 62.64 
L 81.038773 51.701185 
L 79.719864 51.701185 
z
" clip-path="url(#p5a2cacd8a9)" style="opacity: 0.6"/>
   </g>
   <g id="patch_36">
    <path d="M 81.038773 62.64 
L 82.357682 62.64 
L 82.357682 52.077162 
L 81.038773 52.077162 
z
" clip-path="url(#p5a2cacd8a9)" style="opacity: 0.6"/>
   </g>
   <g id="patch_37">
    <path d="M 82.357682 62.64 
L 83.676591 62.64 
L 83.676591 51.187844 
L 82.357682 51.187844 
z
" clip-path="url(#p5a2cacd8a9)" style="opacity: 0.6"/>
   </g>
   <g id="patch_38">
    <path d="M 83.676591 62.64 
L 84.9955 62.64 
L 84.9955 46.182765 
L 83.676591 46.182765 
z
" clip-path="url(#p5a2cacd8a9)" style="opacity: 0.6"/>
   </g>
   <g id="patch_39">
    <path d="M 84.9955 62.64 
L 86.314409 62.64 
L 86.314409 30.450399 
L 84.9955 30.450399 
z
" clip-path="url(#p5a2cacd8a9)" style="opacity: 0.6"/>
   </g>
   <g id="patch_40">
    <path d="M 86.314409 62.64 
L 87.633318 62.64 
L 87.633318 9.84 
L 86.314409 9.84 
z
" clip-path="url(#p5a2cacd8a9)" style="opacity: 0.6"/>
   </g>
   <g id="patch_41">
    <path d="M 87.633318 62.64 
L 88.952227 62.64 
L 88.952227 18.780266 
L 87.633318 18.780266 
z
" clip-path="url(#p5a2cacd8a9)" style="opacity: 0.6"/>
   </g>
   <g id="patch_42">
    <path d="M 88.952227 62.64 
L 90.271136 62.64 
L 90.271136 43.282644 
L 88.952227 43.282644 
z
" clip-path="url(#p5a2cacd8a9)" style="opacity: 0.6"/>
   </g>
   <g id="patch_43">
    <path d="M 90.271136 62.64 
L 91.590045 62.64 
L 91.590045 53.847416 
L 90.271136 53.847416 
z
" clip-path="url(#p5a2cacd8a9)" style="opacity: 0.6"/>
   </g>
   <g id="patch_44">
    <path d="M 91.590045 62.64 
L 92.908955 62.64 
L 92.908955 54.754792 
L 91.590045 54.754792 
z
" clip-path="url(#p5a2cacd8a9)" style="opacity: 0.6"/>
   </g>
   <g id="patch_45">
    <path d="M 92.908955 62.64 
L 94.227864 62.64 
L 94.227864 52.470552 
L 92.908955 52.470552 
z
" clip-path="url(#p5a2cacd8a9)" style="opacity: 0.6"/>
   </g>
   <g id="patch_46">
    <path d="M 94.227864 62.64 
L 95.546773 62.64 
L 95.546773 56.467005 
L 94.227864 56.467005 
z
" clip-path="url(#p5a2cacd8a9)" style="opacity: 0.6"/>
   </g>
   <g id="patch_47">
    <path d="M 95.546773 62.64 
L 96.865682 62.64 
L 96.865682 59.680548 
L 95.546773 59.680548 
z
" clip-path="url(#p5a2cacd8a9)" style="opacity: 0.6"/>
   </g>
   <g id="patch_48">
    <path d="M 96.865682 62.64 
L 98.184591 62.64 
L 98.184591 60.516985 
L 96.865682 60.516985 
z
" clip-path="url(#p5a2cacd8a9)" style="opacity: 0.6"/>
   </g>
   <g id="patch_49">
    <path d="M 98.184591 62.64 
L 99.5035 62.64 
L 99.5035 61.175429 
L 98.184591 61.175429 
z
" clip-path="url(#p5a2cacd8a9)" style="opacity: 0.6"/>
   </g>
   <g id="patch_50">
    <path d="M 99.5035 62.64 
L 100.822409 62.64 
L 100.822409 61.586876 
L 99.5035 61.586876 
z
" clip-path="url(#p5a2cacd8a9)" style="opacity: 0.6"/>
   </g>
   <g id="patch_51">
    <path d="M 100.822409 62.64 
L 102.141318 62.64 
L 102.141318 61.939637 
L 100.822409 61.939637 
z
" clip-path="url(#p5a2cacd8a9)" style="opacity: 0.6"/>
   </g>
   <g id="patch_52">
    <path d="M 102.141318 62.64 
L 103.460227 62.64 
L 103.460227 62.187279 
L 102.141318 62.187279 
z
" clip-path="url(#p5a2cacd8a9)" style="opacity: 0.6"/>
   </g>
   <g id="matplotlib.axis_1">
    <g id="xtick_1">
     <g id="line2d_1">
      <defs>
       <path id="m16d7673386" d="M 0 0 
L 0 3.5 
" style="stroke: #000000; stroke-width: 1.5"/>
      </defs>
      <g>
       <use xlink:href="#m16d7673386" x="50.703864" y="62.64" style="stroke: #000000; stroke-width: 1.5"/>
      </g>
     </g>
     <g id="text_1">
      <text style="font: 8px 'Arial'; text-anchor: middle" x="50.703864" y="75.36625" transform="rotate(-0, 50.703864, 75.36625)">0</text>
     </g>
    </g>
    <g id="xtick_2">
     <g id="line2d_2">
      <g>
       <use xlink:href="#m16d7673386" x="83.676591" y="62.64" style="stroke: #000000; stroke-width: 1.5"/>
      </g>
     </g>
     <g id="text_2">
      <text style="font: 8px 'Arial'; text-anchor: middle" x="83.676591" y="75.36625" transform="rotate(-0, 83.676591, 75.36625)">500</text>
     </g>
    </g>
    <g id="text_3">
     <!-- AB/PD $\overline{g}_{\mathrm{Na}}$ -->
     <g transform="translate(51.0475 85.19625)">
      <text>
       <tspan style="font: 8px 'Arial'" x="0 5.335938 10.671875 12.894531 18.230469 24.007812 26.230469" y="-0.7699999999999996 -0.7699999999999996 -0.7699999999999996 -0.7699999999999996 -0.7699999999999996 -0.7699999999999996 -1.25">AB/PD g</tspan>
       <tspan style="font: 5.6px 'DejaVu Sans'" x="30.819075 35.008137" y="1.6195000000000004">Na</tspan>
      </text>
      <rect x="26.230469" y="-7" width="4.449219" height="0.5"/>
     </g>
    </g>
   </g>
   <g id="matplotlib.axis_2">
    <g id="ytick_1">
     <g id="line2d_3">
      <defs>
       <path id="m8de56d8e40" d="M 0 0 
L -3.5 0 
" style="stroke: #000000; stroke-width: 1.5"/>
      </defs>
      <g>
       <use xlink:href="#m8de56d8e40" x="34.2175" y="62.64" style="stroke: #000000; stroke-width: 1.5"/>
      </g>
     </g>
     <g id="text_4">
      <text style="font: 8px 'Arial'; text-anchor: end" x="27.2175" y="65.503125" transform="rotate(-0, 27.2175, 65.503125)">0.000</text>
     </g>
    </g>
    <g id="ytick_2">
     <g id="line2d_4">
      <g>
       <use xlink:href="#m8de56d8e40" x="34.2175" y="11.168316" style="stroke: #000000; stroke-width: 1.5"/>
      </g>
     </g>
     <g id="text_5">
      <text style="font: 8px 'Arial'; text-anchor: end" x="27.2175" y="14.031441" transform="rotate(-0, 27.2175, 14.031441)">0.004</text>
     </g>
    </g>
    <g id="text_6">
     <!-- $q(\theta | x)$ -->
     <g transform="translate(13.44 45.08)rotate(-90)">
      <text>
       <tspan style="font: 8px 'Arial'" x="0 4.449219 7.113281 11.5625 13.640625 17.640625" y="-0.171875">q(θ|x)</tspan>
      </text>
     </g>
    </g>
   </g>
   <g id="line2d_5">
    <path d="M 50.703864 62.64 
L 50.703864 57.096 
" clip-path="url(#p5a2cacd8a9)" style="fill: none; stroke: #d7301f; stroke-width: 2; stroke-linecap: square"/>
   </g>
   <g id="line2d_6">
    <path d="M 83.676591 62.64 
L 83.676591 57.096 
" clip-path="url(#p5a2cacd8a9)" style="fill: none; stroke: #d7301f; stroke-width: 2; stroke-linecap: square"/>
   </g>
   <g id="patch_53">
    <path d="M 34.2175 62.64 
L 34.2175 7.2 
" style="fill: none; stroke: #000000; stroke-width: 1.5; stroke-linejoin: miter; stroke-linecap: square"/>
   </g>
   <g id="patch_54">
    <path d="M 34.2175 62.64 
L 106.7575 62.64 
" style="fill: none; stroke: #000000; stroke-width: 1.5; stroke-linejoin: miter; stroke-linecap: square"/>
   </g>
  </g>
 </g>
 <defs>
  <clipPath id="p5a2cacd8a9">
   <rect x="34.2175" y="7.2" width="72.54" height="55.44"/>
  </clipPath>
 </defs>
</svg>
