<?xml version="1.0" encoding="utf-8" standalone="no"?>
<!DOCTYPE svg PUBLIC "-//W3C//DTD SVG 1.1//EN"
  "http://www.w3.org/Graphics/SVG/1.1/DTD/svg11.dtd">
<svg xmlns:xlink="http://www.w3.org/1999/xlink" width="103.68pt" height="69.84pt" viewBox="0 0 103.68 69.84" xmlns="http://www.w3.org/2000/svg" version="1.1">
 <metadata>
  <rdf:RDF xmlns:dc="http://purl.org/dc/elements/1.1/" xmlns:cc="http://creativecommons.org/ns#" xmlns:rdf="http://www.w3.org/1999/02/22-rdf-syntax-ns#">
   <cc:Work>
    <dc:type rdf:resource="http://purl.org/dc/dcmitype/StillImage"/>
    <dc:date>2022-05-08T14:49:29.074719</dc:date>
    <dc:format>image/svg+xml</dc:format>
    <dc:creator>
     <cc:Agent>
      <dc:title>Matplotlib v3.5.1, https://matplotlib.org/</dc:title>
     </cc:Agent>
    </dc:creator>
   </cc:Work>
  </rdf:RDF>
 </metadata>
 <defs>
  <style type="text/css">*{stroke-linejoin: round; stroke-linecap: butt}</style>
 </defs>
 <g id="figure_1">
  <g id="patch_1">
   <path d="M 0 69.84 
L 103.68 69.84 
L 103.68 0 
L 0 0 
z
" style="fill: #ffffff"/>
  </g>
  <g id="axes_1">
   <g id="patch_2">
    <path d="M 7.2 62.64 
L 96.48 62.64 
L 96.48 7.2 
L 7.2 7.2 
z
" style="fill: #ffffff"/>
   </g>
   <g id="matplotlib.axis_1"/>
   <g id="matplotlib.axis_2"/>
   <g id="line2d_1">
    <path d="M 9.905557 24.140539 
L 9.956286 24.190134 
L 10.003633 24.089961 
L 10.007015 24.093306 
L 10.06789 24.083302 
L 10.054363 24.138708 
L 10.108474 24.135757 
L 10.176113 24.091569 
L 10.149057 24.085288 
L 10.186259 24.061885 
L 10.321536 24.012066 
L 10.209932 24.097231 
L 10.331682 24.030582 
L 10.406085 24.077548 
L 10.34521 24.02364 
L 10.453432 24.045267 
L 10.544745 23.941189 
L 10.598856 23.989301 
L 10.707078 24.160261 
L 10.747662 24.12868 
L 10.893085 24.150023 
L 10.764571 24.086295 
L 10.909995 24.102514 
L 10.991162 24.058909 
L 10.923523 24.146319 
L 11.018217 24.130629 
L 11.102766 24.108845 
L 11.139967 24.212583 
L 11.268481 24.200898 
L 11.275245 24.230501 
L 11.325974 24.138131 
L 11.373322 24.181257 
L 11.471398 24.091237 
L 11.488308 24.145354 
L 11.495072 24.198489 
L 11.569475 24.09529 
L 11.593148 24.112388 
L 11.704752 24.157845 
L 11.616822 24.094605 
L 11.71828 24.14177 
L 11.7521 24.096675 
L 11.799447 24.173894 
L 11.829884 24.139776 
L 11.951635 24.28435 
L 11.867086 24.113158 
L 11.975308 24.267973 
L 11.982072 24.277068 
L 12.039565 24.175602 
L 12.049711 24.176568 
L 12.066621 24.157629 
L 12.141024 24.273243 
L 12.144405 24.271277 
L 12.580677 24.182764 
L 12.584058 24.165211 
L 12.611114 24.239481 
L 12.678753 24.251396 
L 12.763302 24.331692 
L 12.797121 24.28089 
L 12.851232 24.266904 
L 12.885052 24.338123 
L 12.901961 24.306184 
L 13.016948 24.448162 
L 12.912107 24.292231 
L 13.037239 24.357362 
L 13.158989 24.335183 
L 13.050767 24.411346 
L 13.162371 24.340493 
L 13.24692 24.416412 
L 13.280739 24.392615 
L 13.36867 24.335904 
L 13.402489 24.373979 
L 13.426163 24.351368 
L 13.520858 24.3847 
L 13.608788 24.32259 
L 13.531003 24.392681 
L 13.659517 24.364914 
L 13.662899 24.374836 
L 13.73392 24.246858 
L 13.774504 24.210366 
L 13.825233 24.328205 
L 13.862434 24.388766 
L 13.923309 24.291207 
L 13.930073 24.294874 
L 13.953747 24.276508 
L 13.987566 24.367412 
L 14.021386 24.352303 
L 14.136372 24.415968 
L 14.143136 24.4002 
L 14.227684 24.309761 
L 14.268268 24.379701 
L 14.511768 24.550679 
L 14.521914 24.576716 
L 14.565879 24.463555 
L 14.623372 24.550562 
L 14.768796 24.589017 
L 14.789087 24.560614 
L 14.907456 24.513547 
L 14.829671 24.613439 
L 14.914219 24.522666 
L 15.032588 24.546264 
L 15.039351 24.523588 
L 15.14081 24.380919 
L 15.164484 24.427807 
L 15.303143 24.499185 
L 15.482386 24.637249 
L 15.323435 24.483334 
L 15.499296 24.613951 
L 15.502678 24.596488 
L 15.583845 24.727071 
L 15.587227 24.726284 
L 15.722505 24.755257 
L 15.796907 24.721248 
L 15.78338 24.773968 
L 15.834109 24.758878 
L 15.851019 24.777685 
L 15.874692 24.694048 
L 15.938949 24.723549 
L 15.949095 24.745258 
L 16.060699 24.707287 
L 16.185831 24.780306 
L 16.189213 24.77559 
L 16.307581 24.720972 
L 16.371838 24.801586 
L 16.429331 24.724379 
L 18.123687 24.711326 
L 18.255582 24.637043 
L 18.167652 24.732296 
L 18.258964 24.645173 
L 18.373951 24.767392 
L 18.279256 24.626843 
L 18.384096 24.756744 
L 18.482173 24.654989 
L 18.42468 24.77441 
L 18.499083 24.694756 
L 18.543048 24.781309 
L 18.576867 24.656876 
L 18.620833 24.72412 
L 18.732437 24.69966 
L 18.742583 24.724998 
L 18.918444 24.705276 
L 18.921826 24.727122 
L 18.945499 24.791993 
L 18.972555 24.708269 
L 19.026666 24.709123 
L 19.043576 24.663624 
L 19.121361 24.768084 
L 19.128125 24.769238 
L 19.178854 24.81682 
L 19.256639 24.733536 
L 19.270166 24.795133 
L 19.331041 24.717722 
L 19.368243 24.73533 
L 19.439264 24.752467 
L 19.405444 24.699172 
L 19.483229 24.729854 
L 19.628653 24.679587 
L 19.635416 24.694196 
L 20.095361 24.76209 
L 20.098743 24.750714 
L 20.206965 24.714813 
L 20.119035 24.781068 
L 20.220493 24.721897 
L 20.436938 24.743002 
L 20.555306 24.678749 
L 20.56207 24.70419 
L 20.687202 24.765602 
L 20.582361 24.693272 
L 20.697348 24.735036 
L 20.758223 24.69603 
L 20.781896 24.760099 
L 20.815716 24.721975 
L 20.950994 24.725919 
L 20.957757 24.733402 
L 21.008487 24.787331 
L 21.059216 24.696383 
L 21.123473 24.649272 
L 21.076126 24.740146 
L 21.174202 24.684474 
L 21.299334 24.772275 
L 21.194494 24.650512 
L 21.336535 24.709768 
L 21.353445 24.642735 
L 21.397411 24.731532 
L 21.44814 24.69092 
L 21.580036 24.703068 
L 21.583418 24.689229 
L 21.698404 24.61343 
L 21.637529 24.723718 
L 21.705168 24.626099 
L 21.772807 24.689856 
L 21.816772 24.618196 
L 21.820154 24.601241 
L 21.904702 24.701948 
L 21.914848 24.687837 
L 22.002779 24.726428 
L 22.029834 24.657782 
L 22.148203 24.654387 
L 22.154966 24.617308 
L 22.266571 24.606935 
L 22.21246 24.673895 
L 22.269953 24.626609 
L 22.42214 24.581197 
L 22.567564 24.734006 
L 22.570946 24.717659 
L 22.692696 24.545834 
L 22.702842 24.587223 
L 22.71637 24.570644 
L 22.777245 24.663071 
L 22.807682 24.608981 
L 22.922668 24.686233 
L 22.939578 24.646335 
L 23.054564 24.610041 
L 23.057946 24.61152 
L 23.152641 24.579981 
L 23.179696 24.65623 
L 23.304828 24.566575 
L 23.30821 24.567372 
L 23.541564 24.650313 
L 23.544946 24.633511 
L 23.619349 24.532355 
L 23.659933 24.620092 
L 23.663315 24.632125 
L 23.714044 24.491221 
L 23.744481 24.510586 
L 23.977836 24.590784 
L 23.981217 24.571603 
L 24.042093 24.607701 
L 24.106349 24.497082 
L 24.146933 24.480018 
L 24.17737 24.536744 
L 24.21119 24.527464 
L 24.272065 24.592384 
L 24.234863 24.511907 
L 24.326176 24.554216 
L 24.387051 24.553561 
L 24.359995 24.509519 
L 24.417489 24.495847 
L 24.515565 24.541671 
L 24.532475 24.455479 
L 24.630551 24.561431 
L 24.654225 24.504687 
L 24.752301 24.389553 
L 24.674516 24.520932 
L 24.775975 24.440197 
L 24.904489 24.509801 
L 25.036385 24.352842 
L 25.056676 24.416074 
L 25.114169 24.442741 
L 25.070204 24.382512 
L 25.171663 24.412428 
L 25.300177 24.362073 
L 25.208864 24.468584 
L 25.30694 24.373133 
L 25.42869 24.385615 
L 25.337378 24.473649 
L 25.435454 24.417545 
L 25.550441 24.46243 
L 25.465892 24.379075 
L 25.557204 24.439569 
L 25.621461 24.46346 
L 25.563968 24.430484 
L 25.665427 24.403152 
L 25.709392 24.390463 
L 25.760121 24.460945 
L 26.050969 24.408881 
L 26.084788 24.374827 
L 26.057732 24.417984 
L 26.165955 24.409718 
L 26.304615 24.356279 
L 26.31476 24.375119 
L 26.355344 24.385142 
L 26.382399 24.326085 
L 26.409455 24.329541 
L 26.588698 24.140607 
L 26.416219 24.335713 
L 26.59208 24.156298 
L 26.710448 24.255296 
L 26.619136 24.138211 
L 26.73074 24.230479 
L 26.81867 24.182233 
L 26.849108 24.255234 
L 26.964094 24.366858 
L 26.970858 24.352319 
L 27.119664 24.220795 
L 27.123046 24.242223 
L 27.126428 24.25443 
L 27.20083 24.131145 
L 27.204212 24.133693 
L 27.210976 24.117421 
L 27.285379 24.203287 
L 27.302289 24.264685 
L 27.3564 24.186041 
L 27.393601 24.184415 
L 27.471386 24.205924 
L 27.427421 24.165243 
L 27.501824 24.156005 
L 27.586372 24.177702 
L 27.508587 24.148182 
L 27.620192 24.133856 
L 27.840018 24.017495 
L 27.86031 24.061112 
L 27.914421 24.141903 
L 27.978678 24.104438 
L 28.056463 24.166589 
L 28.005734 24.081059 
L 28.093664 24.1052 
L 28.12072 24.042056 
L 28.161303 24.12544 
L 28.20865 24.084267 
L 28.391275 23.981894 
L 28.401421 24.014481 
L 28.472442 24.041685 
L 28.45215 23.986849 
L 28.50288 23.98915 
L 28.573901 23.900304 
L 28.617866 23.967007 
L 28.665213 23.923559 
L 28.671977 23.87441 
L 28.688887 23.845225 
L 28.766671 23.931685 
L 28.776817 23.89952 
L 29.087956 24.006756 
L 29.104866 23.94824 
L 29.118394 23.926558 
L 29.155595 24.009577 
L 29.213088 23.967842 
L 29.229998 23.992861 
L 29.284109 23.883463 
L 29.324693 23.959231 
L 29.422769 23.926957 
L 29.334838 23.976072 
L 29.446443 23.952331 
L 29.581721 24.077088 
L 29.676415 23.958532 
L 29.710234 24.02313 
L 29.757582 24.077684 
L 29.804929 23.973602 
L 29.811693 23.986206 
L 29.872568 24.060944 
L 29.933443 23.983725 
L 30.011228 23.937944 
L 30.055193 24.009512 
L 30.173561 24.019081 
L 30.129596 24.073528 
L 30.176943 24.031491 
L 30.291929 24.081015 
L 30.237818 24.010267 
L 30.298693 24.078811 
L 30.406915 24.02695 
L 30.420443 24.056852 
L 30.494846 24.093569 
L 30.461027 24.01797 
L 30.538811 24.071622 
L 30.555721 24.038055 
L 30.609832 24.168165 
L 30.626742 24.159704 
L 30.731582 24.096271 
L 30.785693 24.010172 
L 30.809367 24.107511 
L 30.843186 24.088799 
L 31.123888 24.206199 
L 31.134034 24.215908 
L 31.323423 24.130295 
L 31.397826 24.116807 
L 31.343715 24.072731 
L 31.421499 24.084707 
L 31.502666 24.03154 
L 31.472228 24.107362 
L 31.52634 24.105318 
L 31.553395 24.159181 
L 31.583833 24.065472 
L 31.641326 24.128829 
L 31.749548 24.040989 
L 31.668381 24.139623 
L 31.766458 24.064295 
L 31.945701 24.208984 
L 32.084361 24.209576 
L 32.097889 24.164244 
L 32.185819 24.164547 
L 32.131708 24.214016 
L 32.206111 24.18412 
L 32.310951 24.206259 
L 32.246694 24.115517 
L 32.321097 24.187859 
L 32.348153 24.170542 
L 32.358298 24.225522 
L 32.422555 24.228855 
L 32.503722 24.237536 
L 32.432701 24.20595 
L 32.524014 24.172819 
L 32.770896 24.171844 
L 32.77766 24.215666 
L 32.889264 24.341788 
L 32.818243 24.198078 
L 32.902792 24.318032 
L 33.085417 24.27756 
L 33.169966 24.381925 
L 33.203785 24.366361 
L 33.335681 24.260907 
L 33.349209 24.227298 
L 33.636674 24.323417 
L 33.690785 24.346087 
L 33.75166 24.274839 
L 33.974869 24.125966 
L 33.998542 24.172184 
L 34.143966 24.283846 
L 34.174404 24.197522 
L 34.262334 24.232838 
L 34.400994 24.393759 
L 34.448341 24.426064 
L 34.536272 24.292082 
L 34.789918 24.283909 
L 34.854175 24.333241 
L 34.908286 24.287465 
L 34.921814 24.255966 
L 34.982689 24.377767 
L 35.006362 24.340133 
L 35.063855 24.307763 
L 35.101057 24.399989 
L 35.283682 24.338139 
L 35.341175 24.276454 
L 35.395286 24.340975 
L 35.479835 24.430822 
L 35.513654 24.362475 
L 35.564383 24.363152 
L 35.601585 24.43765 
L 35.608349 24.424012 
L 35.675988 24.470796 
L 35.713189 24.381861 
L 35.861995 24.339445 
L 35.882286 24.29897 
L 35.956689 24.400917 
L 35.966835 24.372886 
L 36.051384 24.207353 
L 36.142696 24.274335 
L 36.203571 24.356579 
L 36.254301 24.273953 
L 36.399724 24.253605 
L 36.264446 24.255007 
L 36.403106 24.24035 
L 36.484273 24.22554 
L 36.44369 24.286648 
L 36.511328 24.263677 
L 36.903634 24.378437 
L 36.907016 24.369978 
L 36.971273 24.257089 
L 37.022002 24.347661 
L 37.245211 24.306996 
L 37.326378 24.29257 
L 37.339905 24.363424 
L 37.343287 24.35452 
L 37.532676 24.450579 
L 37.356815 24.336456 
L 37.546204 24.424947 
L 37.671336 24.321309 
L 37.674718 24.331953 
L 37.806614 24.45411 
L 37.908072 24.428278 
L 37.870871 24.532551 
L 37.9216 24.442692 
L 38.679156 24.556199 
L 38.682538 24.54329 
L 38.709594 24.483593 
L 38.780614 24.572187 
L 38.861781 24.647069 
L 38.888837 24.567976 
L 38.919274 24.534829 
L 38.942948 24.614633 
L 39.000441 24.555442 
L 39.020733 24.529413 
L 39.18983 24.58039 
L 39.233795 24.535622 
L 39.287906 24.714673 
L 39.43333 24.766543 
L 39.534788 24.703878 
L 39.45024 24.781994 
L 39.544934 24.760096 
L 39.632865 24.768682 
L 39.561844 24.712805 
L 39.649775 24.739138 
L 39.714032 24.792015 
L 39.781671 24.691506 
L 39.950768 24.765719 
L 40.062372 24.700249 
L 40.069136 24.724955 
L 40.0759 24.736764 
L 40.238233 24.744938 
L 40.33631 24.732665 
L 40.272053 24.719828 
L 40.339692 24.719331 
L 40.380275 24.695846 
L 40.437768 24.7744 
L 40.44115 24.76937 
L 40.508789 24.688247 
L 40.559518 24.780178 
L 40.671122 24.679295 
L 40.677886 24.698433 
L 40.819928 24.6939 
L 40.826692 24.707986 
L 40.880803 24.785609 
L 40.938296 24.743913 
L 41.019463 24.711738 
L 41.053282 24.747061 
L 41.134449 24.788523 
L 41.070192 24.732995 
L 41.17165 24.755892 
L 41.354276 24.752333 
L 41.364421 24.705515 
L 41.486171 24.704249 
L 41.384713 24.735474 
L 41.489553 24.721405 
L 41.628213 24.737416 
L 41.634977 24.727302 
L 41.716144 24.702006 
L 41.743199 24.75841 
L 41.841276 24.753184 
L 41.81422 24.693434 
L 41.84804 24.733361 
L 41.939352 24.629986 
L 41.861567 24.743756 
L 41.973172 24.680756 
L 42.402679 24.726769 
L 42.43988 24.756726 
L 42.500755 24.662534 
L 42.504137 24.683899 
L 43.018193 24.732444 
L 43.021575 24.737466 
L 43.068922 24.615838 
L 43.079068 24.624035 
L 43.207582 24.689992 
L 43.119652 24.593314 
L 43.231256 24.650621 
L 43.373297 24.606801 
L 43.254929 24.682029 
L 43.376679 24.610771 
L 43.495048 24.699443 
L 43.511957 24.657236 
L 43.826478 24.700356 
L 43.82986 24.684354 
L 43.836624 24.66372 
L 43.911027 24.750409 
L 43.934701 24.716044 
L 44.083506 24.673791 
L 43.954992 24.737345 
L 44.086888 24.683169 
L 44.198492 24.783738 
L 44.208638 24.776172 
L 44.279659 24.690876 
L 44.337152 24.722713 
L 44.438611 24.741816 
L 44.357444 24.741713 
L 44.448756 24.756298 
L 44.570506 24.737149 
L 44.57727 24.708258 
L 44.668583 24.695576 
L 44.597562 24.746733 
L 44.688875 24.714845 
L 44.753132 24.739543 
L 44.803861 24.707959 
L 45.612146 24.736425 
L 45.689931 24.681023 
L 45.72375 24.729381 
L 45.842118 24.721878 
L 45.747424 24.761238 
L 45.848882 24.739173 
L 45.852264 24.758752 
L 45.909757 24.695907 
L 45.950341 24.705315 
L 45.957104 24.68693 
L 46.034889 24.769437 
L 46.051799 24.755776 
L 47.702189 24.683617 
L 47.725862 24.621773 
L 47.820557 24.686865 
L 47.864522 24.629768 
L 47.837467 24.695292 
L 47.932161 24.679896 
L 48.060675 24.639286 
L 48.064057 24.633887 
L 48.256828 24.620038 
L 48.266974 24.65784 
L 48.273738 24.701725 
L 48.321085 24.600802 
L 48.375196 24.679797 
L 48.490182 24.540054 
L 48.409015 24.684231 
L 48.496946 24.576219 
L 48.652516 24.511416 
L 48.52062 24.601211 
L 48.65928 24.550823 
L 48.737064 24.647516 
L 48.791175 24.604272 
L 48.960273 24.52484 
L 48.987328 24.609614 
L 49.088787 24.616092 
L 49.051585 24.578042 
L 49.092169 24.605457 
L 49.210537 24.499594 
L 49.217301 24.516926 
L 49.318759 24.449768 
L 49.437127 24.317107 
L 49.342433 24.460111 
L 49.460801 24.32476 
L 49.518294 24.366714 
L 49.548731 24.254509 
L 49.558877 24.263304 
L 49.626516 24.295089 
L 49.670481 24.238039 
L 49.673863 24.224924 
L 49.751648 24.32806 
L 49.761794 24.325167 
L 49.930891 24.395768 
L 49.785468 24.274899 
L 49.934273 24.365326 
L 50.022204 24.291154 
L 50.045877 24.341286 
L 50.160864 24.424763 
L 50.27585 24.303548 
L 50.285996 24.324096 
L 50.509204 24.432156 
L 50.296142 24.313443 
L 50.51935 24.404185 
L 50.614044 24.27568 
L 50.654628 24.308005 
L 50.810197 24.239975 
L 51.334399 24.120225 
L 51.418948 24.170863 
L 51.391892 24.065804 
L 51.449385 24.141704 
L 51.476441 24.040355 
L 51.523788 24.190508 
L 51.567753 24.093566 
L 51.692885 24.163907 
L 51.699649 24.161121 
L 51.814635 24.257588 
L 51.709795 24.145284 
L 51.861983 24.185628 
L 51.960059 24.197842 
L 51.89242 24.235528 
L 51.966823 24.21267 
L 52.071663 24.336483 
L 51.976969 24.207338 
L 52.115629 24.267095 
L 52.311782 24.061334 
L 52.321927 24.08427 
L 52.409858 24.191675 
L 52.440295 24.134417 
L 52.467351 24.141815 
L 52.53499 24.067623 
L 52.538372 24.072181 
L 52.633066 24.038313 
L 52.582337 24.134918 
L 52.646594 24.076513 
L 52.710851 24.152598 
L 52.775108 24.114141 
L 52.90024 24.018285 
L 52.798782 24.154382 
L 52.907004 24.040549 
L 53.042282 24.101094 
L 53.16065 24.084072 
L 53.164032 24.076941 
L 53.350039 23.868668 
L 53.180942 24.11863 
L 53.356803 23.902062 
L 53.481935 24.020727 
L 53.380477 23.896604 
L 53.485317 24.009143 
L 53.505609 23.992322 
L 53.566484 24.095608 
L 53.576629 24.088583 
L 53.728817 23.955777 
L 53.742345 23.939328 
L 53.759255 23.998087 
L 53.823511 23.997188 
L 53.914824 24.099632 
L 53.945262 24.072197 
L 54.077157 24.148514 
L 54.080539 24.135601 
L 54.16847 24.088158 
L 54.110977 24.181003 
L 54.188762 24.154713 
L 54.347713 24.132475 
L 54.351095 24.121904 
L 54.422116 24.082927 
L 54.449172 24.153899 
L 54.455935 24.149743 
L 54.513429 24.222204 
L 54.482991 24.137883 
L 54.570922 24.153476 
L 54.733255 24.056417 
L 54.736637 24.059398 
L 54.821186 24.139583 
L 54.855005 24.084881 
L 54.875297 24.031229 
L 54.963227 24.094742 
L 55.013957 24.199236 
L 55.108651 24.144542 
L 55.274366 24.065914 
L 55.125561 24.167944 
L 55.291276 24.107403 
L 55.375825 24.139488 
L 55.31495 24.068629 
L 55.40288 24.115043 
L 55.511103 24.122112 
L 55.538158 24.067744 
L 55.605797 23.986573 
L 55.653144 24.031618 
L 55.781658 24.048902 
L 55.930464 24.199238 
L 56.011631 24.135674 
L 56.035304 24.221065 
L 56.038686 24.215728 
L 56.126617 24.183882 
L 56.065742 24.226026 
L 56.153672 24.210823 
L 56.194256 24.24493 
L 56.244985 24.141127 
L 56.258513 24.181247 
L 56.336298 24.265284 
L 56.373499 24.320238 
L 56.434374 24.225378 
L 56.441138 24.230213 
L 56.478339 24.302254 
L 56.56627 24.176883 
L 56.691402 24.111839 
L 56.701548 24.135108 
L 56.840208 24.309632 
L 56.975485 24.163611 
L 57.029597 24.249339 
L 57.144583 24.315712 
L 57.154729 24.312569 
L 57.178402 24.309431 
L 57.215604 24.401211 
L 57.252805 24.34977 
L 57.259569 24.337029 
L 57.388083 24.408764 
L 57.391465 24.401716 
L 57.45234 24.524283 
L 57.459104 24.502537 
L 57.462486 24.520361 
L 57.499687 24.394813 
L 57.55718 24.440558 
L 57.651875 24.300514 
L 57.69584 24.324227 
L 57.827736 24.415196 
L 57.990069 24.344949 
L 57.993451 24.361204 
L 58.020507 24.433225 
L 58.081382 24.336042 
L 58.105055 24.359767 
L 58.223424 24.310458 
L 58.250479 24.270018 
L 58.301208 24.352548 
L 58.331646 24.335258 
L 58.419576 24.305744 
L 58.395903 24.259877 
L 58.422958 24.301817 
L 58.480452 24.243726 
L 58.534563 24.271057 
L 58.656313 24.35129 
L 58.673222 24.307882 
L 58.730716 24.178188 
L 58.798354 24.257814 
L 58.886285 24.285707 
L 58.852466 24.357996 
L 58.893049 24.312848 
L 58.98098 24.345111 
L 58.899813 24.304876 
L 59.018181 24.303314 
L 59.052 24.273244 
L 59.075674 24.347244 
L 59.112875 24.351089 
L 59.227862 24.421597 
L 59.244771 24.38611 
L 59.420633 24.427237 
L 59.424015 24.446289 
L 59.528855 24.485422 
L 59.539001 24.464688 
L 59.620167 24.45466 
L 59.586348 24.495423 
L 59.643841 24.475653 
L 59.650605 24.511399 
L 59.691188 24.441162 
L 59.752063 24.45888 
L 59.836612 24.542776 
L 59.873813 24.480743 
L 60.032765 24.395294 
L 59.890723 24.50323 
L 60.036147 24.414096 
L 60.144369 24.411873 
L 60.147751 24.403249 
L 60.154515 24.366967 
L 60.19848 24.460088 
L 60.252591 24.435689 
L 60.374341 24.538095 
L 60.418307 24.537326 
L 60.448744 24.463521 
L 60.469036 24.479782 
L 60.472418 24.459338 
L 60.523147 24.565904 
L 60.567112 24.538008 
L 60.685481 24.582975 
L 60.688862 24.575495 
L 60.722682 24.521539 
L 60.793703 24.588513 
L 60.797085 24.604933 
L 60.851196 24.528633 
L 60.901925 24.56612 
L 61.000002 24.539804 
L 60.918835 24.604003 
L 61.013529 24.558325 
L 61.091314 24.715082 
L 61.142043 24.659292 
L 61.186009 24.667773 
L 61.219828 24.740395 
L 61.338196 24.772231 
L 61.253647 24.721181 
L 61.341578 24.769216 
L 61.446418 24.712375 
L 61.456564 24.746486 
L 61.561405 24.77781 
L 61.463328 24.739021 
L 61.581696 24.742952 
L 61.676391 24.703533 
L 61.635807 24.766508 
L 61.696682 24.733323 
L 62.102516 24.748192 
L 62.160009 24.701895 
L 62.207356 24.781136 
L 62.342634 24.702603 
L 62.35278 24.740165 
L 62.386599 24.792673 
L 62.464384 24.746119 
L 62.545551 24.692147 
L 62.498204 24.762313 
L 62.572607 24.757235 
L 62.677447 24.71628 
L 62.711266 24.668845 
L 62.761996 24.754432 
L 62.789051 24.709118 
L 63.370746 24.731313 
L 63.391038 24.695867 
L 63.418093 24.750364 
L 63.475586 24.736222 
L 63.570281 24.824314 
L 63.512788 24.700374 
L 63.590572 24.780972 
L 63.70894 24.715393 
L 63.712322 24.731367 
L 63.827309 24.801108 
L 63.779961 24.710645 
L 63.834073 24.77722 
L 63.911857 24.691035 
L 63.952441 24.738073 
L 64.26358 24.670551 
L 64.36842 24.654748 
L 64.310927 24.706295 
L 64.375184 24.668347 
L 64.469878 24.773316 
L 64.392094 24.664518 
L 64.496934 24.743572 
L 64.605156 24.650997 
L 64.622066 24.678745 
L 64.781017 24.742193 
L 64.797927 24.696276 
L 64.882476 24.575161 
L 64.912913 24.660476 
L 64.950115 24.667244 
L 64.970406 24.599498 
L 65.014372 24.613348 
L 65.061719 24.692075 
L 65.082011 24.738547 
L 65.109066 24.654032 
L 65.173323 24.712828 
L 65.37624 24.579622 
L 65.406678 24.668126 
L 65.464171 24.761525 
L 65.416823 24.648936 
L 65.525046 24.687653 
L 65.626504 24.707277 
L 65.545337 24.755774 
L 65.629886 24.713877 
L 65.673851 24.735129 
L 65.694143 24.661015 
L 65.727962 24.66062 
L 65.748254 24.663172 
L 65.768546 24.755596 
L 65.802365 24.745558 
L 65.883532 24.757565 
L 65.853094 24.72204 
L 65.913969 24.726535 
L 67.002956 24.718577 
L 67.090887 24.667456 
L 67.02663 24.737659 
L 67.124706 24.705977 
L 67.188963 24.775105 
L 67.239692 24.71881 
L 67.405408 24.762431 
L 67.418936 24.723132 
L 67.493338 24.703128 
L 67.452755 24.776105 
L 67.527158 24.713496 
L 67.577887 24.741381 
L 67.61847 24.670778 
L 67.63538 24.692031 
L 67.750366 24.656958 
L 67.655672 24.712337 
L 67.753748 24.671303 
L 67.865352 24.70949 
L 67.892408 24.621491 
L 67.916082 24.613129 
L 67.932991 24.661014 
L 67.987103 24.67716 
L 68.105471 24.679926 
L 68.010776 24.64649 
L 68.112235 24.649821 
L 68.152818 24.598854 
L 68.203547 24.718092 
L 68.29486 24.734229 
L 68.233985 24.650985 
L 68.315151 24.710428 
L 68.450429 24.620237 
L 68.453811 24.656379 
L 68.545124 24.711777 
L 68.494394 24.619329 
L 68.578943 24.68679 
L 68.582325 24.664887 
L 68.619526 24.781075 
L 68.680402 24.753587 
L 68.802152 24.731868 
L 68.883318 24.777676 
L 68.846117 24.721286 
L 68.913756 24.750503 
L 69.049034 24.719423 
L 68.92052 24.763958 
L 69.052416 24.727577 
L 69.184312 24.757503 
L 69.194457 24.746387 
L 69.353409 24.710319 
L 69.356791 24.724746 
L 69.40752 24.769657 
L 69.431194 24.698814 
L 69.471777 24.737486 
L 69.536034 24.692068 
L 69.478541 24.757144 
L 69.583381 24.744739 
L 69.586763 24.764894 
L 69.620583 24.648405 
L 69.681458 24.690922 
L 69.718659 24.657402 
L 69.786298 24.721399 
L 69.78968 24.71162 
L 69.867465 24.734889 
L 69.89452 24.681025 
L 69.897902 24.688615 
L 69.91143 24.668968 
L 70.009506 24.685967 
L 70.060236 24.600751 
L 70.107583 24.717608 
L 70.121111 24.689981 
L 70.219187 24.706744 
L 70.151548 24.65618 
L 70.229333 24.664575 
L 70.236097 24.619699 
L 70.286826 24.710263 
L 70.340937 24.664436 
L 70.344319 24.679714 
L 70.391666 24.593042 
L 70.442396 24.618618 
L 70.618257 24.679556 
L 70.631785 24.652108 
L 70.750153 24.592569 
L 70.655458 24.67205 
L 70.753535 24.596791 
L 70.878667 24.631895 
L 70.888812 24.617331 
L 70.905722 24.590228 
L 70.963215 24.694274 
L 70.983507 24.667623 
L 71.044382 24.651379 
L 71.027472 24.564097 
L 71.071438 24.600334 
L 71.186424 24.535748 
L 71.118785 24.679468 
L 71.199952 24.573399 
L 71.433306 24.630901 
L 71.480653 24.699407 
L 71.524618 24.60716 
L 71.541528 24.613452 
L 71.54491 24.619634 
L 71.595639 24.540078 
L 71.626077 24.551651 
L 71.642986 24.5265 
L 71.710625 24.610547 
L 71.724153 24.604865 
L 71.795174 24.649545 
L 71.839139 24.58958 
L 71.930452 24.504579 
L 71.971035 24.537756 
L 72.207772 24.602622 
L 72.217917 24.543114 
L 72.336285 24.481375 
L 72.241591 24.568953 
L 72.346431 24.523679 
L 72.353195 24.541952 
L 72.41407 24.470235 
L 72.451272 24.489337 
L 72.454654 24.493036 
L 72.498619 24.376547 
L 72.850341 24.477506 
L 72.867251 24.510949 
L 72.911216 24.430287 
L 72.955182 24.456287 
L 73.019439 24.336056 
L 73.07355 24.418204 
L 73.269703 24.372957 
L 73.273085 24.386473 
L 73.452328 24.436901 
L 73.459092 24.400987 
L 73.939328 24.185966 
L 73.465856 24.413628 
L 73.946092 24.233675 
L 74.121953 24.478649 
L 74.142245 24.431723 
L 74.189592 24.422526 
L 74.213266 24.337224 
L 74.223411 24.35192 
L 74.247085 24.312005 
L 74.321488 24.411799 
L 74.362071 24.386712 
L 74.389127 24.49075 
L 74.419564 24.447364 
L 74.483821 24.501633 
L 74.531169 24.454024 
L 74.541314 24.413307 
L 74.636009 24.382987 
L 74.740849 24.323117 
L 74.663065 24.414974 
L 74.754377 24.354594 
L 74.84569 24.253528 
L 74.899801 24.270812 
L 74.96744 24.229308 
L 74.974204 24.258573 
L 75.058752 24.152349 
L 75.07228 24.191774 
L 75.092572 24.148361 
L 75.173738 24.218009 
L 75.190648 24.266492 
L 75.221086 24.183525 
L 75.285343 24.217766 
L 75.457822 24.345562 
L 75.464586 24.340025 
L 75.5931 24.285546 
L 75.603246 24.295516 
L 75.71485 24.285128 
L 75.721614 24.230709 
L 75.748669 24.181176 
L 75.792635 24.280395 
L 75.829836 24.243607 
L 76.20185 24.099648 
L 76.205232 24.12176 
L 76.283017 24.078771 
L 76.296545 24.039687 
L 76.452114 23.971088 
L 76.465642 23.999106 
L 76.499461 23.969217 
L 76.580628 24.026937 
L 76.651649 23.914179 
L 76.668559 23.852838 
L 76.753107 23.95746 
L 76.763253 23.894808 
L 76.888385 24.064778 
L 76.93235 24.016178 
L 76.969552 23.964634 
L 76.986462 24.038162 
L 77.047337 23.981353 
L 77.165705 24.040027 
L 77.233344 24.000084 
L 77.263781 24.087099 
L 77.351712 24.122122 
L 77.375385 24.077642 
L 77.585066 24.095304 
L 77.622268 24.105221 
L 77.723726 23.994965 
L 77.842094 24.058786 
L 77.7474 23.946482 
L 77.845476 24.049339 
L 77.899587 24.154823 
L 78.028101 24.162019 
L 78.163379 24.135147 
L 78.170143 24.145326 
L 78.274983 24.2311 
L 78.291893 24.184583 
L 78.295275 24.189473 
L 78.308803 24.12211 
L 78.366296 24.099211 
L 78.379823 24.07578 
L 78.440699 24.196475 
L 78.464372 24.163939 
L 78.525247 24.082858 
L 78.586122 24.162702 
L 78.663907 24.20763 
L 78.59965 24.147898 
L 78.687581 24.136939 
L 78.690963 24.105688 
L 78.728164 24.188777 
L 78.795803 24.148748 
L 78.839768 24.156739 
L 78.819476 24.104845 
L 78.887115 24.086016 
L 78.917553 23.996294 
L 78.99872 24.093616 
L 79.096796 24.251068 
L 79.140761 24.112216 
L 79.184727 24.065089 
L 79.238838 24.174382 
L 79.245602 24.167987 
L 79.316623 24.264259 
L 79.384262 24.328334 
L 79.438373 24.286968 
L 79.573651 24.109962 
L 79.580414 24.127541 
L 79.705546 24.280925 
L 79.610852 24.090254 
L 79.715692 24.251152 
L 79.820533 24.300925 
L 79.827296 24.32002 
L 80.145199 24.360968 
L 80.151963 24.332631 
L 80.162109 24.30604 
L 80.239894 24.41005 
L 80.246658 24.403132 
L 80.679547 24.384696 
L 80.740422 24.443506 
L 80.791151 24.363615 
L 80.906137 24.443227 
L 80.919665 24.404885 
L 81.000832 24.351173 
L 81.027887 24.424613 
L 81.146256 24.50887 
L 81.153019 24.502565 
L 81.660311 24.333293 
L 81.663693 24.35352 
L 81.667075 24.3689 
L 81.683985 24.279165 
L 81.76177 24.290746 
L 82.015416 24.422062 
L 82.028944 24.387331 
L 82.032325 24.371388 
L 82.123638 24.464723 
L 82.12702 24.454128 
L 82.238624 24.517047 
L 82.252152 24.483027 
L 82.340083 24.391069 
L 82.373902 24.443274 
L 82.434777 24.541133 
L 82.488888 24.471939 
L 82.546381 24.445422 
L 82.586965 24.54415 
L 82.590347 24.535172 
L 82.685041 24.388134 
L 82.59711 24.551851 
L 82.729006 24.501977 
L 82.732388 24.527093 
L 82.820319 24.410402 
L 82.827083 24.435502 
L 82.918395 24.377581 
L 82.901486 24.457847 
L 82.942069 24.41613 
L 83.03 24.548705 
L 83.060437 24.458023 
L 83.185569 24.476581 
L 83.073965 24.475615 
L 83.188951 24.486578 
L 83.324229 24.508477 
L 83.205861 24.447808 
L 83.327611 24.494228 
L 83.368194 24.476248 
L 83.37834 24.537038 
L 83.439215 24.500759 
L 83.530528 24.532313 
L 83.456125 24.493363 
L 83.547437 24.481804 
L 83.659042 24.458215 
L 83.554201 24.487435 
L 83.679333 24.476705 
L 83.801083 24.528972 
L 83.733444 24.414307 
L 83.807847 24.511459 
L 83.811229 24.496316 
L 83.868722 24.626745 
L 83.905924 24.579761 
L 84.02091 24.587288 
L 84.03782 24.632007 
L 84.054729 24.682193 
L 84.095313 24.58637 
L 84.146042 24.614968 
L 84.176479 24.719999 
L 84.196771 24.712894 
L 84.294848 24.75356 
L 84.308375 24.707876 
L 84.382778 24.764405 
L 84.406452 24.71936 
L 84.470709 24.693314 
L 84.531584 24.80384 
L 84.683771 24.696717 
L 84.690535 24.71174 
L 84.805521 24.793331 
L 84.815667 24.759181 
L 84.900216 24.704361 
L 84.934035 24.736471 
L 84.967855 24.77816 
L 84.954327 24.726804 
L 85.049022 24.733086 
L 85.235029 24.740907 
L 85.241792 24.75562 
L 85.258702 24.789457 
L 85.295904 24.714713 
L 85.353397 24.758204 
L 85.471765 24.700029 
L 85.492057 24.720477 
L 85.590133 24.767797 
L 85.508966 24.698936 
L 85.603661 24.723729 
L 85.613807 24.704222 
L 85.681446 24.785994 
L 85.705119 24.769618 
L 85.75923 24.757948 
L 85.742321 24.726052 
L 85.789668 24.715203 
L 85.806578 24.670705 
L 85.847161 24.730047 
L 85.89789 24.717255 
L 85.941855 24.779395 
L 85.989203 24.700436 
L 86.00273 24.71925 
L 86.006112 24.683065 
L 86.090661 24.729425 
L 86.114335 24.705813 
L 86.259758 24.672185 
L 86.127862 24.731513 
L 86.273286 24.706534 
L 86.378126 24.708831 
L 86.347689 24.636006 
L 86.381508 24.695801 
L 86.479585 24.652946 
L 86.493113 24.70355 
L 86.601335 24.777303 
L 86.513404 24.675177 
L 86.618245 24.737424 
L 86.706175 24.774097 
L 86.736613 24.675538 
L 86.76705 24.643304 
L 86.854981 24.684457 
L 86.966585 24.689287 
L 86.878654 24.717598 
L 86.973349 24.700221 
L 87.06128 24.73326 
L 87.084953 24.686713 
L 87.193175 24.693453 
L 87.105245 24.716311 
L 87.203321 24.725062 
L 87.240523 24.624305 
L 87.274342 24.64156 
L 87.308162 24.617276 
L 87.331835 24.690819 
L 87.375801 24.684775 
L 87.51446 24.640867 
L 87.53137 24.701206 
L 87.619301 24.806299 
L 87.656502 24.775233 
L 87.724141 24.705979 
L 87.771488 24.719051 
L 87.900002 24.754907 
L 87.781634 24.708686 
L 87.910148 24.725686 
L 88.028516 24.698746 
L 88.031898 24.702966 
L 88.14012 24.749893 
L 88.089391 24.68399 
L 88.150266 24.728836 
L 88.272016 24.676108 
L 88.187468 24.748724 
L 88.275398 24.682061 
L 88.288926 24.657971 
L 88.346419 24.750569 
L 88.380239 24.702831 
L 88.481697 24.785617 
L 88.420822 24.68133 
L 88.512135 24.770082 
L 88.633885 24.732604 
L 88.542572 24.787543 
L 88.637267 24.736148 
L 88.765781 24.777013 
L 88.64403 24.716151 
L 88.786072 24.758476 
L 88.897676 24.686234 
L 88.809746 24.770684 
L 88.907822 24.688559 
L 88.965315 24.745262 
L 89.002517 24.658707 
L 89.016045 24.676419 
L 89.019426 24.655934 
L 89.080302 24.730511 
L 89.120885 24.721226 
L 89.672142 24.743297 
L 89.682288 24.78715 
L 89.749927 24.66583 
L 89.770219 24.692707 
L 89.996809 24.631571 
L 90.040774 24.67477 
L 90.111795 24.635146 
L 90.118559 24.643978 
L 90.247073 24.536153 
L 90.362059 24.662971 
L 90.372205 24.652239 
L 90.510865 24.598565 
L 90.378969 24.668728 
L 90.534538 24.668546 
L 90.53792 24.685005 
L 90.568358 24.597068 
L 90.639379 24.632909 
L 90.656288 24.565067 
L 90.774657 24.582731 
L 90.879497 24.501406 
L 90.794948 24.600089 
L 90.896407 24.518019 
L 91.068886 24.560454 
L 91.068886 24.560454 
" clip-path="url(#pb5df4776a3)" style="fill: none; stroke: #000000; stroke-width: 0.6; stroke-linecap: square"/>
   </g>
   <g id="line2d_2">
    <path d="M 9.905557 39.865205 
L 9.908939 39.878736 
L 9.935995 39.783553 
L 10.003633 39.81822 
L 10.108474 39.685091 
L 10.152439 39.715269 
L 10.257279 39.695393 
L 10.165967 39.681329 
L 10.264043 39.680162 
L 10.385793 39.557808 
L 10.297863 39.691478 
L 10.392557 39.578945 
L 10.463578 39.649661 
L 10.510925 39.552202 
L 10.788245 39.510182 
L 10.909995 39.619675 
L 11.011453 39.646726 
L 10.937051 39.717494 
L 11.014835 39.655301 
L 11.021599 39.650281 
L 11.258336 39.882894 
L 11.349648 39.745873 
L 11.390231 39.790909 
L 11.468016 39.835514 
L 11.495072 39.760212 
L 11.616822 39.768812 
L 11.515363 39.720739 
L 11.620204 39.75829 
L 11.697989 39.585862 
L 11.748718 39.597615 
L 11.7521 39.615617 
L 11.819739 39.470746 
L 11.846794 39.535802 
L 11.850176 39.516504 
L 11.927961 39.59074 
L 11.958398 39.537647 
L 12.009128 39.543561 
L 12.039565 39.462734 
L 12.056475 39.486591 
L 12.252628 39.395769 
L 12.113968 39.544578 
L 12.259392 39.420695 
L 12.567149 39.632754 
L 12.597586 39.558489 
L 12.722718 39.501801 
L 12.661843 39.586968 
L 12.7261 39.512389 
L 12.807267 39.524143 
L 12.776829 39.479843 
L 12.834323 39.496985 
L 12.935781 39.450515 
L 12.851232 39.505362 
L 12.945927 39.489784 
L 12.966218 39.441551 
L 13.081205 39.499187 
L 13.219864 39.294882 
L 13.23001 39.312133 
L 13.334851 39.325073 
L 13.257066 39.26245 
L 13.344996 39.309158 
L 13.436309 39.221584 
L 13.463365 39.256942 
L 13.470128 39.269436 
L 13.527622 39.200244 
L 13.561441 39.223984 
L 13.669663 39.167943 
L 13.581733 39.259246 
L 13.676427 39.179527 
L 13.679809 39.194727 
L 13.760976 39.075828 
L 13.764358 39.056138 
L 13.845524 39.133103 
L 13.869198 39.086755 
L 14.258122 39.043719 
L 14.268268 39.068264 
L 14.379872 39.025613 
L 14.386636 39.068353 
L 14.477948 38.924117 
L 14.596317 38.763986 
L 14.488094 38.932877 
L 14.613226 38.773408 
L 14.623372 38.826304 
L 14.65381 38.750592 
L 14.72483 38.801831 
L 14.822907 38.720587 
L 14.738358 38.808477 
L 14.836435 38.775829 
L 14.910838 38.87954 
L 14.958185 38.845663 
L 14.988622 38.849135 
L 15.022442 38.74724 
L 15.032588 38.743047 
L 15.211831 38.420506 
L 15.039351 38.748129 
L 15.215213 38.430066 
L 15.252414 38.391253 
L 15.26256 38.331407 
L 15.536498 37.403754 
L 15.560171 36.090132 
L 15.580463 27.323498 
L 15.651484 41.400653 
L 15.668393 41.479826 
L 15.736032 41.084535 
L 16.13172 36.849266 
L 16.14863 26.880323 
L 16.212887 40.165756 
L 16.23656 41.929556 
L 16.327873 41.531058 
L 16.459769 41.001331 
L 17.0347 36.759137 
L 17.054991 27.366375 
L 17.109103 40.004942 
L 17.142922 41.844473 
L 17.224089 41.52969 
L 17.271436 41.347053 
L 18.16427 37.980929 
L 18.191325 38.006269 
L 18.225145 37.966639 
L 18.272492 38.067568 
L 18.417916 38.303285 
L 18.421298 38.293833 
L 18.499083 38.296455 
L 18.434826 38.313225 
L 18.515992 38.342358 
L 18.647888 38.445172 
L 18.661416 38.472173 
L 18.78993 38.285475 
L 18.796694 38.294931 
L 18.847423 38.122386 
L 18.850805 38.128135 
L 19.063868 36.803422 
L 19.090923 28.105803 
L 19.134888 38.330935 
L 19.168708 41.583752 
L 19.253257 41.220003 
L 19.496757 39.97363 
L 19.976993 37.345827 
L 20.000667 35.76679 
L 20.017576 27.760107 
L 20.095361 41.759473 
L 20.223875 41.346626 
L 20.420028 40.544825 
L 20.430174 40.548771 
L 20.433556 40.55395 
L 20.470757 40.413773 
L 20.825862 38.855177 
L 20.832625 38.856708 
L 20.869827 38.746303 
L 21.03216 38.469141 
L 21.180966 38.25083 
L 21.18773 38.275507 
L 21.366973 38.485233 
L 21.228313 38.235945 
L 21.377119 38.4763 
L 21.471813 38.561037 
L 21.590181 38.611173 
L 21.593563 38.598771 
L 21.718695 38.646697 
L 21.603709 38.58841 
L 21.732223 38.638796 
L 21.8303 38.60959 
L 21.840445 38.655738 
L 22.033216 38.54677 
L 22.05689 38.615524 
L 22.090709 38.661674 
L 22.131293 38.54792 
L 22.151585 38.550803 
L 22.198932 38.491949 
L 22.168494 38.571342 
L 22.263189 38.561693 
L 22.324064 38.623472 
L 22.374793 38.559507 
L 22.452578 38.534213 
L 22.42214 38.629336 
L 22.483015 38.558668 
L 22.784008 38.858922 
L 22.78739 38.853625 
L 22.834738 38.984024 
L 22.83812 38.972336 
L 22.895613 39.030474 
L 22.949724 38.963823 
L 23.051182 38.933636 
L 22.983543 38.887614 
L 23.057946 38.913079 
L 23.125585 38.867185 
L 23.166168 38.937437 
L 23.264245 38.894208 
L 23.277773 38.927132 
L 23.301446 38.908255 
L 23.399523 39.016972 
L 23.473926 38.952531 
L 23.514509 39.014822 
L 23.683606 39.263752 
L 23.693752 39.221149 
L 23.81212 39.120017 
L 23.703898 39.229131 
L 23.822266 39.151329 
L 23.842558 39.12225 
L 23.957544 39.243864 
L 23.964308 39.211016 
L 24.025183 39.301344 
L 24.052238 39.303016 
L 24.082676 39.376068 
L 24.163843 39.30951 
L 24.282211 39.207738 
L 24.17737 39.31677 
L 24.292357 39.253457 
L 24.29912 39.251025 
L 24.329558 39.336372 
L 24.363377 39.323459 
L 24.481746 39.407588 
L 24.485127 39.402097 
L 24.589968 39.372096 
L 24.596732 39.380316 
L 24.775975 39.56396 
L 24.603496 39.355465 
L 24.789503 39.555558 
L 24.833468 39.526421 
L 24.85376 39.600642 
L 24.890961 39.596851 
L 25.019475 39.723294 
L 25.029621 39.715156 
L 25.171663 39.616725 
L 25.18519 39.629687 
L 25.286649 39.696202 
L 25.300177 39.639078 
L 25.303558 39.624122 
L 25.320468 39.676686 
L 25.408399 39.651204 
L 25.530149 39.733501 
L 25.563968 39.694687 
L 25.70601 39.690103 
L 25.716156 39.715884 
L 26.304615 39.784181 
L 26.36549 39.75761 
L 26.311378 39.794507 
L 26.412837 39.793482 
L 26.537969 39.920289 
L 26.59208 39.950803 
L 26.652955 39.87492 
L 26.778087 39.965532 
L 26.784851 39.951675 
L 27.177157 40.073364 
L 27.180539 40.051733 
L 27.281997 40.045061 
L 27.248178 40.105176 
L 27.288761 40.071324 
L 27.32258 40.08407 
L 27.363164 40.001298 
L 27.393601 40.035738 
L 27.643865 40.166901 
L 27.72165 40.179243 
L 27.681067 40.138381 
L 27.752088 40.160024 
L 28.357456 40.031306 
L 28.360838 40.054963 
L 28.475824 40.129623 
L 28.482588 40.115784 
L 28.506262 40.052277 
L 28.550227 40.161107 
L 28.584046 40.147988 
L 28.604338 40.191755 
L 28.668595 40.048625 
L 28.739616 39.958041 
L 28.786963 39.980092 
L 28.95606 39.923424 
L 28.962824 39.945691 
L 28.966206 39.949523 
L 29.010172 39.850922 
L 29.016935 39.808853 
L 29.091338 39.884431 
L 29.118394 39.874353 
L 29.165741 39.775276 
L 29.23338 39.871024 
L 29.588484 39.876607 
L 29.629068 39.83109 
L 29.696707 39.862778 
L 29.781255 39.760746 
L 29.825221 39.796407 
L 29.950353 39.858498 
L 29.957117 39.822813 
L 29.987554 39.794758 
L 30.041665 39.893117 
L 30.055193 39.892158 
L 30.122832 39.935624 
L 30.065339 39.878357 
L 30.170179 39.912533 
L 30.244582 39.818756 
L 30.268256 39.84141 
L 30.369714 39.714728 
L 30.373096 39.725427 
L 30.403533 39.610423 
L 30.457645 39.635343 
L 30.528665 39.673882 
L 30.515138 39.708114 
L 30.542193 39.701979 
L 30.565867 39.764345 
L 30.592922 39.674736 
L 30.657179 39.693521 
L 30.856714 39.623439 
L 30.680853 39.726106 
L 30.880388 39.663933 
L 30.968318 39.646141 
L 30.991992 39.721149 
L 31.134034 39.937191 
L 31.008902 39.713843 
L 31.140798 39.914826 
L 31.272694 39.817868 
L 31.276076 39.819473 
L 31.397826 40.012182 
L 31.411353 39.98111 
L 31.533104 39.837627 
L 31.543249 39.851421 
L 31.560159 39.892508 
L 31.624416 39.769453 
L 31.644708 39.778952 
L 31.779986 39.634222 
L 31.803659 39.581111 
L 31.881444 39.684445 
L 31.999812 39.784365 
L 32.020104 39.759106 
L 32.080979 39.757201 
L 32.087743 39.812979 
L 32.114798 39.792152 
L 32.11818 39.812461 
L 32.212875 39.718632 
L 32.385354 39.76489 
L 32.388736 39.746676 
L 32.513868 39.657631 
L 32.625472 39.729616 
L 32.544305 39.599415 
L 32.642382 39.6935 
L 32.767514 39.56191 
L 32.770896 39.568763 
L 32.774278 39.592997 
L 32.835153 39.519027 
L 32.879118 39.54522 
L 32.956903 39.506511 
L 32.892646 39.560796 
L 32.994104 39.550179 
L 33.132764 39.797404 
L 33.203785 39.737573 
L 33.244368 39.799704 
L 33.332299 39.82137 
L 33.366118 39.708339 
L 33.399938 39.729105 
L 33.440521 39.653011 
L 33.457431 39.652957 
L 33.555507 39.606034 
L 33.50816 39.664158 
L 33.569035 39.640147 
L 33.602855 39.709339 
L 33.684021 39.669644 
L 33.717841 39.686624 
L 33.748278 39.579488 
L 34.539654 39.479018 
L 34.644494 39.509291 
L 34.573473 39.45377 
L 34.661404 39.502249 
L 34.749334 39.539943 
L 34.786536 39.427614 
L 34.925196 39.389304 
L 34.827119 39.476908 
L 34.935341 39.420301 
L 35.046946 39.442084 
L 35.013126 39.396367 
L 35.050328 39.436305 
L 35.104439 39.427656 
L 35.070619 39.463108 
L 35.148404 39.482108 
L 35.303974 39.437955 
L 35.307356 39.42573 
L 35.327647 39.388379 
L 35.381758 39.510026 
L 35.405432 39.476516 
L 35.743627 39.575668 
L 35.750391 39.556963 
L 35.770682 39.531977 
L 35.841703 39.630473 
L 35.963453 39.678916 
L 35.980363 39.638183 
L 36.122405 39.532318 
L 36.217099 39.565926 
L 36.173134 39.596448 
L 36.220481 39.574038 
L 36.355759 39.69931 
L 36.551912 39.410469 
L 36.572203 39.446917 
L 36.578967 39.468927 
L 36.649988 39.382582 
L 36.663516 39.397506 
L 36.727773 39.270918 
L 36.778502 39.352582 
L 36.825849 39.420724 
L 36.89687 39.364099 
L 37.05244 39.247567 
L 36.910398 39.374524 
L 37.055822 39.256303 
L 37.103169 39.327665 
L 37.065968 39.252753 
L 37.164044 39.261193 
L 37.211391 39.184148 
L 37.27903 39.231148 
L 37.390634 39.20471 
L 37.319614 39.275059 
L 37.394016 39.232255 
L 37.404162 39.26063 
L 37.458273 39.149627 
L 37.471801 39.151421 
L 37.590169 39.023743 
L 37.485329 39.159234 
L 37.607079 39.07719 
L 37.681482 39.066311 
L 37.627371 39.105896 
L 37.705155 39.127582 
L 37.809996 39.150356 
L 37.823524 39.124403 
L 37.891163 39.013093 
L 37.941892 39.055618 
L 38.104225 39.119319 
L 38.114371 39.107781 
L 38.300378 38.819209 
L 38.337579 38.879559 
L 38.395073 38.764673 
L 38.405218 38.766187 
L 38.53035 38.649584 
L 38.418746 38.779095 
L 38.554024 38.694828 
L 38.557406 38.708849 
L 38.601371 38.628789 
L 38.6521 38.636392 
L 38.79076 38.707011 
L 38.80767 38.654518 
L 38.94633 38.474327 
L 39.18983 37.899779 
L 39.257469 36.932994 
L 39.277761 29.109366 
L 39.284524 27.285295 
L 39.355545 41.455675 
L 39.369073 41.58265 
L 39.45024 41.117618 
L 39.622719 40.020873 
L 39.930476 36.86528 
L 39.950768 26.94848 
L 40.008261 39.388239 
L 40.035316 41.905894 
L 40.123247 41.590805 
L 40.593338 39.303496 
L 40.677886 38.758492 
L 40.907859 36.734283 
L 40.931532 27.558608 
L 40.982261 40.260423 
L 41.009317 41.876043 
L 41.097248 41.597921 
L 41.388095 40.702131 
L 41.391477 40.706197 
L 41.401623 40.722013 
L 41.425296 40.574699 
L 41.817602 38.94103 
L 41.868331 38.753202 
L 42.003609 38.459575 
L 42.314748 38.252881 
L 42.034047 38.498098 
L 42.324894 38.292088 
L 42.365477 38.381578 
L 42.338422 38.281694 
L 42.43988 38.325844 
L 42.45679 38.301048 
L 42.521047 38.42168 
L 42.527811 38.411805 
L 42.652943 38.551122 
L 42.663089 38.519144 
L 42.815276 38.481339 
L 42.696908 38.601172 
L 42.832186 38.524679 
L 42.852478 38.566999 
L 42.923499 38.436448 
L 43.08245 38.29142 
L 43.085832 38.302145 
L 43.146707 38.171868 
L 43.160235 38.183262 
L 43.376679 37.828223 
L 43.440936 37.921573 
L 43.566068 38.237664 
L 43.589742 38.201165 
L 43.687818 38.214566 
L 43.647235 38.155777 
L 43.701346 38.194102 
L 43.880589 38.094477 
L 43.890735 38.104128 
L 44.022631 37.874871 
L 44.12409 37.069804 
L 44.144381 34.344976 
L 44.157909 28.006028 
L 44.242458 41.576837 
L 45.121764 36.664907 
L 45.145437 27.74545 
L 45.196167 40.128194 
L 45.226604 41.81129 
L 45.314535 41.472658 
L 45.372028 41.271958 
L 46.278389 38.849887 
L 46.285153 38.876081 
L 46.410285 38.940616 
L 46.417049 38.925593 
L 46.552327 38.757775 
L 46.430577 38.93982 
L 46.589528 38.837206 
L 46.694369 38.901842 
L 46.711278 38.878851 
L 46.775535 38.770518 
L 46.809355 38.92097 
L 46.816119 38.914546 
L 46.890522 38.969728 
L 46.846556 38.980449 
L 46.893904 38.98291 
L 46.917577 39.080679 
L 46.985216 38.963576 
L 47.005508 38.985629 
L 47.049473 39.040155 
L 47.134022 38.951631 
L 47.320029 39.06094 
L 47.347084 39.030392 
L 47.384286 39.102302 
L 47.428251 39.082641 
L 47.502654 39.113998 
L 47.445161 39.056981 
L 47.533091 39.045931 
L 47.536473 39.027343 
L 47.583821 39.115362 
L 47.637932 39.086007 
L 47.932161 39.298884 
L 47.935543 39.270374 
L 47.969362 39.379283 
L 48.037001 39.345345 
L 48.074203 39.422175 
L 48.131696 39.391284 
L 48.162133 39.465944 
L 48.2433 39.394323 
L 48.473272 39.382003 
L 48.483418 39.423229 
L 48.632224 39.691068 
L 48.638988 39.679046 
L 48.676189 39.657214 
L 48.737064 39.721137 
L 48.845287 39.752303 
L 48.76412 39.701489 
L 48.862196 39.744539 
L 48.923071 39.656415 
L 48.977182 39.714808 
L 49.115842 39.639185 
L 49.122606 39.650981 
L 49.12937 39.704268 
L 49.183481 39.636282 
L 49.237592 39.684253 
L 49.349197 39.765499 
L 49.379634 39.725117 
L 49.49462 39.691346 
L 49.504766 39.711999 
L 49.646808 39.666592 
L 49.653572 39.63971 
L 49.724593 39.632053 
L 49.687391 39.714228 
L 49.75503 39.667235 
L 49.765176 39.71292 
L 49.842961 39.601754 
L 49.846343 39.603868 
L 49.87678 39.539161 
L 49.934273 39.634539 
L 49.957947 39.607044 
L 50.13719 39.741978 
L 50.147336 39.734465 
L 50.262322 39.685899 
L 50.272468 39.695233 
L 50.316433 39.720373 
L 50.353635 39.657164 
L 50.384072 39.703185 
L 50.603899 39.875952 
L 50.712121 39.822278 
L 50.637718 39.903891 
L 50.718885 39.845118 
L 50.827107 39.887509 
L 50.776378 39.826929 
L 50.833871 39.865454 
L 50.837253 39.851962 
L 50.90151 39.963938 
L 50.928565 39.939099 
L 51.182211 40.048692 
L 51.303962 40.162595 
L 51.42233 40.229331 
L 51.446003 40.160868 
L 51.584663 40.084977 
L 51.591427 40.100523 
L 51.628628 40.112252 
L 51.675976 40.017251 
L 51.679358 40.023355 
L 52.16974 40.012893 
L 52.233997 40.088127 
L 52.27458 39.984198 
L 52.636448 39.865696 
L 52.643212 39.898054 
L 52.65674 39.947235 
L 52.754816 39.906598 
L 52.886712 39.885736 
L 52.768344 39.93248 
L 52.896858 39.901554 
L 52.940824 39.857379 
L 52.920532 39.851681 
L 52.957733 39.815554 
L 52.964497 39.782643 
L 53.059192 39.861539 
L 53.238435 39.944596 
L 53.251963 39.915253 
L 53.322983 39.863927 
L 53.279018 39.930139 
L 53.373713 39.898655 
L 53.407532 39.928813 
L 53.448115 39.838575 
L 53.566484 39.769399 
L 53.671324 39.686443 
L 53.701761 39.71087 
L 53.813366 39.761336 
L 53.82013 39.739718 
L 55.07145 39.686483 
L 55.142471 39.636533 
L 55.088359 39.725931 
L 55.186436 39.67741 
L 55.29804 39.65096 
L 55.369061 39.580829 
L 55.409644 39.652098 
L 55.551686 39.678278 
L 55.450228 39.601007 
L 55.555068 39.659854 
L 56.015013 39.455028 
L 56.02854 39.414274 
L 56.07927 39.537573 
L 56.116471 39.501718 
L 56.234839 39.525576 
L 56.173964 39.45137 
L 56.248367 39.512898 
L 56.258513 39.44091 
L 56.353207 39.547241 
L 56.356589 39.538111 
L 56.383645 39.593283 
L 56.468193 39.532735 
L 56.525687 39.632186 
L 56.569652 39.56538 
L 56.573034 39.584579 
L 56.637291 39.434619 
L 56.67111 39.507895 
L 56.677874 39.52098 
L 56.799624 39.499473 
L 56.803006 39.524627 
L 56.863881 39.432349 
L 56.904465 39.445807 
L 56.955194 39.462899 
L 56.999159 39.391018 
L 57.002541 39.393242 
L 57.009305 39.374291 
L 57.066798 39.486918 
L 57.073562 39.483355 
L 57.097236 39.498238 
L 57.141201 39.403616 
L 57.151347 39.410699 
L 57.303534 39.348484 
L 57.19193 39.443844 
L 57.306916 39.352873 
L 57.411757 39.44115 
L 57.425284 39.413015 
L 57.486159 39.397164 
L 57.519979 39.471701 
L 57.685694 39.613284 
L 57.533507 39.453745 
L 57.692458 39.593607 
L 57.749951 39.662239 
L 57.844646 39.535242 
L 57.905521 39.508849 
L 57.963014 39.557437 
L 57.97316 39.564369 
L 58.09491 39.457056 
L 58.128729 39.543698 
L 58.21666 39.501637 
L 58.372229 39.425854 
L 58.385757 39.440257 
L 58.389139 39.46356 
L 58.456778 39.365023 
L 58.483833 39.377561 
L 58.595438 39.274177 
L 58.615729 39.300109 
L 58.70366 39.379092 
L 58.636021 39.284494 
L 58.761153 39.320134 
L 58.876139 39.256917 
L 58.784827 39.368365 
L 58.886285 39.272777 
L 58.997889 39.257114 
L 58.893049 39.263776 
L 59.001271 39.249256 
L 59.055382 39.158598 
L 59.018181 39.272889 
L 59.109494 39.275898 
L 60.269501 38.847154 
L 60.408161 38.653991 
L 60.540057 38.712117 
L 60.543439 38.726925 
L 60.641515 38.772786 
L 60.590786 38.706832 
L 60.655043 38.735665 
L 60.783557 38.507369 
L 60.797085 38.517557 
L 61.023675 38.146997 
L 61.060877 38.029556 
L 61.172481 36.47853 
L 61.196154 27.358099 
L 61.253647 40.904757 
L 61.277321 41.610997 
L 61.365252 41.198482 
L 61.872544 36.452047 
L 61.889453 26.973083 
L 61.960474 41.771197 
L 61.977384 41.93486 
L 62.058551 41.609969 
L 62.061933 41.612612 
L 62.264849 40.828163 
L 62.268231 40.838448 
L 62.315579 40.655839 
L 62.318961 40.67251 
L 62.572607 39.454357 
L 62.917565 37.657031 
L 62.968294 36.32854 
L 62.988586 27.847094 
L 63.052843 41.654938 
L 63.079898 41.802619 
L 63.157683 41.538071 
L 63.347072 40.929167 
L 63.350454 40.932458 
L 63.370746 40.839582 
L 63.384274 40.829562 
L 63.96935 38.501887 
L 63.972732 38.520667 
L 64.043753 38.340402 
L 64.053899 38.354917 
L 64.128302 38.187382 
L 64.192559 38.212628 
L 64.297399 38.419795 
L 64.314309 38.397454 
L 64.324455 38.372654 
L 64.388712 38.448328 
L 64.422531 38.414354 
L 64.500316 38.523262 
L 64.540899 38.474767 
L 64.666031 38.539988 
L 64.571337 38.439653 
L 64.686323 38.521888 
L 64.76749 38.435248 
L 64.797927 38.499348 
L 64.801309 38.513729 
L 64.882476 38.374598 
L 65.007608 38.241409 
L 64.896004 38.383675 
L 65.021136 38.300602 
L 65.088775 38.215532 
L 65.136122 38.338468 
L 65.230816 38.429154 
L 65.146268 38.318754 
L 65.257872 38.403889 
L 65.399914 38.323352 
L 65.528428 38.235649 
L 65.77531 36.696024 
L 65.798983 27.775397 
L 65.849712 39.581998 
L 65.886914 41.706627 
L 65.968081 41.368505 
L 66.948845 37.971193 
L 66.958991 37.976386 
L 67.016484 37.858831 
L 67.050303 37.796615 
L 67.104415 37.928666 
L 67.107797 37.925976 
L 67.273512 38.355055 
L 67.415554 38.569784 
L 67.537304 38.46929 
L 67.544068 38.473407 
L 67.567741 38.487917 
L 67.631998 38.391965 
L 67.642144 38.414358 
L 67.665818 38.440696 
L 67.770658 38.312608 
L 67.949901 38.497646 
L 67.801095 38.272645 
L 67.956665 38.480114 
L 68.149436 38.252853 
L 68.250894 38.242925 
L 68.159582 38.233155 
L 68.26104 38.209258 
L 68.267804 38.213145 
L 68.514686 37.647048 
L 68.53836 37.541459 
L 68.585707 36.165592 
L 68.605999 27.982229 
L 68.670256 41.372991 
L 68.700693 41.710215 
L 68.778478 41.347609 
L 68.788624 41.350724 
L 68.812297 41.239997 
L 68.961103 40.760364 
L 69.718659 38.8397 
L 69.728805 38.865346 
L 69.738951 38.899901 
L 69.816735 38.802167 
L 69.833645 38.831212 
L 69.931722 38.837647 
L 69.847173 38.817468 
L 69.945249 38.815559 
L 70.134638 38.81202 
L 69.955395 38.841212 
L 70.13802 38.824709 
L 70.242861 38.858963 
L 70.144784 38.807724 
L 70.249625 38.839314 
L 70.253007 38.831345 
L 70.320645 38.951489 
L 70.327409 38.973422 
L 70.39843 38.867094 
L 70.425486 38.922217 
L 70.476215 38.917706 
L 70.489743 38.984869 
L 70.506653 38.976667 
L 70.574291 39.06339 
L 70.621639 39.048054 
L 70.726479 38.970663 
L 70.736625 39.030285 
L 70.854993 39.154492 
L 70.878667 39.138229 
L 70.966597 39.176404 
L 70.929396 39.184879 
L 70.969979 39.186383 
L 71.017326 39.243487 
L 70.986889 39.179276 
L 71.078201 39.16346 
L 71.115403 39.15067 
L 71.14584 39.242378 
L 71.159368 39.24412 
L 71.281118 39.334194 
L 71.31832 39.299611 
L 71.362285 39.287896 
L 71.385959 39.351107 
L 71.416396 39.344772 
L 71.541528 39.475861 
L 71.656514 39.446412 
L 71.612549 39.521787 
L 71.670042 39.46921 
L 71.673424 39.478091 
L 71.697098 39.415163 
L 71.7715 39.432141 
L 71.774882 39.428499 
L 71.795174 39.4964 
L 71.835757 39.522931 
L 72.285556 39.669127 
L 72.393779 39.675406 
L 72.359959 39.630911 
L 72.400542 39.668072 
L 72.441126 39.626314 
L 72.498619 39.722807 
L 72.539202 39.743713 
L 72.596695 39.682041 
L 72.603459 39.689289 
L 72.630515 39.630714 
L 72.704918 39.726608 
L 72.7083 39.716689 
L 72.772557 39.631237 
L 72.833432 39.7653 
L 72.870633 39.743636 
L 72.93489 39.82986 
L 73.225737 39.823434 
L 73.279848 39.798836 
L 73.323814 39.870711 
L 73.33396 39.848179 
L 73.648481 39.926959 
L 73.655245 39.902907 
L 73.736411 39.74684 
L 73.797286 39.851263 
L 73.868307 39.918295 
L 73.905509 39.845622 
L 74.030641 39.769709 
L 73.9258 39.851711 
L 74.034023 39.783608 
L 74.162536 39.860651 
L 74.044168 39.768459 
L 74.179446 39.836144 
L 74.294432 39.784898 
L 74.297814 39.786211 
L 74.389127 39.836478 
L 74.348544 39.761065 
L 74.419564 39.783593 
L 74.456766 39.697443 
L 74.537932 39.757968 
L 74.940384 39.987537 
L 74.55146 39.722613 
L 74.957294 39.916917 
L 74.960676 39.906394 
L 75.014787 39.992556 
L 75.062134 39.949046 
L 75.180502 39.95215 
L 75.119627 40.005044 
L 75.187266 39.968477 
L 75.197412 39.972484 
L 75.244759 39.865514 
L 75.268433 39.902248 
L 75.31578 39.836731 
L 75.373273 39.921504 
L 75.488259 40.023755 
L 75.505169 40.007334 
L 75.579572 39.958001 
L 75.613391 40.011234 
L 75.71485 40.062056 
L 75.657357 39.997902 
L 75.728378 40.02925 
L 75.978642 39.954157 
L 76.09701 39.811006 
L 76.100392 39.818413 
L 76.124065 39.841708 
L 76.157885 39.736849 
L 76.195086 39.766075 
L 76.303308 39.724938 
L 76.21876 39.792949 
L 76.316836 39.753989 
L 76.326982 39.781732 
L 76.384475 39.681391 
L 76.425059 39.747017 
L 76.472406 39.656662 
L 76.543427 39.69269 
L 76.621211 39.698881 
L 76.573864 39.647919 
L 76.644885 39.648056 
L 76.790309 39.689086 
L 76.655031 39.638398 
L 76.800455 39.677841 
L 76.851184 39.606699 
L 76.817364 39.718367 
L 76.908677 39.680699 
L 76.96617 39.734849 
L 77.006753 39.634247 
L 77.013517 39.64439 
L 77.050719 39.603299 
L 77.030427 39.666839 
L 77.098066 39.69439 
L 77.189378 39.784828 
L 77.216434 39.734434 
L 77.344948 39.804861 
L 77.382149 39.874014 
L 77.48699 39.730447 
L 77.497135 39.771418 
L 77.524191 39.665705 
L 77.585066 39.678498 
L 77.669615 39.627189 
L 77.69667 39.663075 
L 77.700052 39.678678 
L 77.764309 39.572507 
L 77.791365 39.599289 
L 77.801511 39.550216 
L 77.875913 39.705115 
L 78.092358 39.729646 
L 78.203962 39.746452 
L 78.180289 39.695257 
L 78.207344 39.74386 
L 78.569212 39.654484 
L 78.579358 39.68712 
L 78.59965 39.692096 
L 78.636851 39.602008 
L 78.640233 39.609278 
L 78.748456 39.500998 
L 78.761983 39.520769 
L 78.866824 39.559544 
L 78.809331 39.47942 
L 78.880352 39.542596 
L 78.941227 39.408235 
L 78.995338 39.479477 
L 79.167817 39.548416 
L 79.276039 39.591632 
L 79.211782 39.519688 
L 79.282803 39.561347 
L 79.438373 39.299824 
L 79.543213 39.425667 
L 79.566887 39.383229 
L 79.702164 39.43438 
L 79.83406 39.358866 
L 79.837442 39.367941 
L 79.932137 39.389821 
L 79.878026 39.348663 
L 79.952429 39.381779 
L 80.114762 39.330819 
L 80.118144 39.356366 
L 80.818207 39.341486 
L 80.838498 39.305572 
L 80.912901 39.410338 
L 80.916283 39.398585 
L 80.970394 39.525725 
L 81.044797 39.441664 
L 81.153019 39.4348 
L 81.1192 39.48416 
L 81.156401 39.459581 
L 81.24095 39.459909 
L 81.203749 39.416245 
L 81.261242 39.425712 
L 81.268006 39.435228 
L 81.423575 39.389393 
L 81.426957 39.395515 
L 81.454013 39.299845 
L 81.504742 39.315861 
L 81.626492 39.225709 
L 81.633256 39.251049 
L 81.74486 39.268334 
L 81.748242 39.253877 
L 81.869992 39.127136 
L 81.873374 39.131047 
L 81.941013 39.179676 
L 81.995124 39.132667 
L 82.12702 38.982832 
L 82.252152 38.946398 
L 82.279208 39.009728 
L 82.380666 39.11293 
L 82.285971 39.004316 
L 82.421249 39.06292 
L 82.559909 38.896582 
L 82.566673 38.926262 
L 82.651222 38.997975 
L 82.583583 38.922998 
L 82.681659 38.943084 
L 82.76959 38.892316 
L 82.732388 38.848223 
L 82.772972 38.878118 
L 82.786499 38.882159 
L 82.823701 38.974898 
L 82.955597 39.073943 
L 82.975888 38.982062 
L 83.009708 38.914774 
L 83.057055 39.027599 
L 83.090875 38.984204 
L 83.216007 39.093812 
L 83.25659 39.055981 
L 83.442597 38.701993 
L 83.574493 38.836366 
L 83.452743 38.658404 
L 83.648896 38.711798 
L 83.861958 38.354407 
L 83.86534 38.361269 
L 83.872104 38.384883 
L 83.956653 38.232174 
L 83.976945 38.235713 
L 84.02091 38.138886 
L 84.10884 37.657466 
L 84.149424 36.327877 
L 84.169716 27.242719 
L 84.233972 41.290023 
L 84.26441 41.662059 
L 84.342195 41.271835 
L 84.930653 36.478788 
L 84.947563 27.000185 
L 85.018584 41.760678 
L 85.038876 41.98698 
L 85.123424 41.640673 
L 85.153862 41.541711 
L 85.326341 41.020326 
L 85.53264 40.254946 
L 85.867453 38.905549 
L 86.165064 38.018641 
L 86.202265 37.948207 
L 86.276668 38.041811 
L 86.313869 38.032242 
L 86.371363 38.129704 
L 86.510022 38.521151 
L 86.516786 38.504976 
L 86.760286 38.232686 
L 86.861745 38.103553 
L 86.885418 38.126656 
L 86.990259 38.010586 
L 87.020696 38.029062 
L 87.064662 38.060667 
L 87.118773 37.966013 
L 87.122155 37.980526 
L 87.250669 38.007054 
L 87.399474 37.804233 
L 87.490787 37.35638 
L 87.524606 35.665905 
L 87.544898 28.360456 
L 87.615919 41.457368 
L 87.632829 41.501362 
L 87.700467 41.230303 
L 87.879711 40.314564 
L 88.285544 38.057137 
L 88.376857 34.95993 
L 88.390384 27.344344 
L 88.474933 41.965936 
L 88.478315 41.965862 
L 89.080302 40.648159 
L 89.083683 40.650777 
L 89.090447 40.672128 
L 89.14794 40.443114 
L 89.151322 40.448647 
L 89.313656 40.21971 
L 89.317038 40.223575 
L 89.509809 39.88578 
L 89.513191 39.887828 
L 89.584212 39.912147 
L 89.614649 39.846802 
L 89.756691 39.568023 
L 89.817566 39.668487 
L 89.881823 39.653073 
L 89.905496 39.690444 
L 90.006955 39.536651 
L 90.362059 39.802233 
L 90.365441 39.828693 
L 90.460136 39.730435 
L 90.463518 39.747528 
L 90.4669 39.740694 
L 90.497337 39.817327 
L 90.548066 39.824253 
L 90.646143 39.948746 
L 90.561594 39.807183 
L 90.673198 39.890038 
L 90.750983 39.845741 
L 90.794948 39.86125 
L 90.93699 39.956459 
L 91.035066 39.904531 
L 90.97081 39.981419 
L 91.051976 39.90758 
L 91.068886 39.926676 
L 91.068886 39.926676 
" clip-path="url(#pb5df4776a3)" style="fill: none; stroke: #000000; stroke-width: 0.6; stroke-linecap: square"/>
   </g>
   <g id="line2d_3">
    <path d="M 9.905557 55.831745 
L 9.97996 54.864371 
L 9.99687 44.140833 
L 10.064509 56.242509 
L 10.078036 58.16533 
L 10.176113 57.302614 
L 10.446668 56.091876 
L 10.45005 56.094468 
L 10.487252 55.989718 
L 10.544745 55.712298 
L 10.598856 54.773271 
L 10.615766 44.127161 
L 10.683405 56.821315 
L 10.696932 58.203255 
L 10.795009 57.29836 
L 11.153495 55.86096 
L 11.217752 55.474345 
L 11.244808 54.347201 
L 11.258336 44.124631 
L 11.339502 58.181503 
L 11.342884 58.174196 
L 11.890759 54.314336 
L 11.904287 44.130283 
L 11.985454 58.156366 
L 11.988836 58.149302 
L 12.070003 57.388124 
L 12.316885 56.157217 
L 12.320267 56.166754 
L 12.323649 56.183466 
L 12.384524 55.988424 
L 12.394669 55.998927 
L 12.533329 54.824713 
L 12.550239 44.115266 
L 12.617878 56.614009 
L 12.63817 58.164635 
L 12.729482 57.285863 
L 12.912107 56.268335 
L 13.165753 55.086588 
L 13.179281 53.039164 
L 13.189427 44.151843 
L 13.270594 58.169647 
L 13.284121 58.079984 
L 13.520858 56.363133 
L 13.781267 55.212525 
L 13.798177 52.433268 
L 13.804941 44.182319 
L 13.88949 58.208817 
L 13.903018 58.128854 
L 14.214157 56.234811 
L 14.258122 56.076832 
L 14.423837 55.369764 
L 14.447511 53.9221 
L 14.457657 44.147839 
L 14.542205 58.159585 
L 14.548969 58.122514 
L 14.833053 56.23691 
L 14.836435 56.243682 
L 14.8804 56.101495 
L 14.890546 56.119537 
L 15.069789 54.596586 
L 15.083317 44.157888 
L 15.161102 58.105866 
L 15.167865 58.19345 
L 15.242268 57.511444 
L 15.66163 55.761196 
L 15.665012 55.777764 
L 15.708977 55.484164 
L 15.739414 53.98169 
L 15.74956 44.176529 
L 15.834109 58.145666 
L 15.840873 58.09578 
L 16.050553 56.476455 
L 16.108047 56.27873 
L 16.280526 55.771334 
L 16.331255 55.507204 
L 16.361692 54.083196 
L 16.37522 44.202185 
L 16.456387 58.17941 
L 16.463151 58.135004 
L 16.899422 55.822521 
L 16.967061 55.244612 
L 16.987353 50.799093 
L 16.994116 44.128357 
L 17.078665 58.195445 
L 17.092193 58.079046 
L 17.322165 56.411002 
L 17.437151 56.089854 
L 17.670506 54.439852 
L 17.684033 44.092519 
L 17.7652 58.137296 
L 17.792256 57.926833 
L 18.015464 56.357666 
L 18.279256 55.31349 
L 18.299548 53.471671 
L 18.309694 44.124852 
L 18.39086 58.182699 
L 18.404388 58.0944 
L 18.729055 56.133255 
L 18.745965 56.121293 
L 18.762874 56.046209 
L 18.766256 56.051768 
L 18.952263 54.202378 
L 18.965791 44.159086 
L 19.046958 58.132391 
L 19.05034 58.109561 
L 19.084159 57.803917 
L 19.327659 56.22381 
L 19.334423 56.249066 
L 19.347951 56.263732 
L 19.375007 56.145809 
L 19.503521 55.727876 
L 19.550868 54.985712 
L 19.564396 49.133112 
L 19.57116 44.126247 
L 19.655708 58.21233 
L 19.665854 58.141006 
L 19.949937 56.295013 
L 20.234021 55.251308 
L 20.254313 51.925482 
L 20.261077 44.153972 
L 20.345625 58.120862 
L 20.359153 58.009738 
L 20.606035 56.310432 
L 20.859681 54.923004 
L 20.873209 47.756175 
L 20.879973 44.183098 
L 20.961139 58.175251 
L 20.971285 58.115322 
L 21.279042 56.252628 
L 21.282424 56.259034 
L 21.316244 56.089666 
L 21.471813 54.498863 
L 21.485341 44.114732 
L 21.563126 58.154743 
L 21.56989 58.236611 
L 21.637529 57.589147 
L 21.850591 56.283574 
L 21.860737 56.297473 
L 22.016307 55.927705 
L 22.131293 54.854038 
L 22.148203 44.1378 
L 22.215842 56.37127 
L 22.232751 58.160384 
L 22.327446 57.272459 
L 22.760335 55.32972 
L 22.780627 53.804742 
L 22.790772 44.124246 
L 22.875321 58.163439 
L 22.885467 58.11423 
L 23.08162 56.555089 
L 23.260863 55.951298 
L 23.267627 55.963 
L 23.277773 55.986334 
L 23.396141 55.471116 
L 23.423196 53.858329 
L 23.433342 44.133463 
L 23.514509 58.164051 
L 23.528037 58.081603 
L 23.815502 56.18342 
L 23.893287 56.034548 
L 24.028565 53.819426 
L 24.038711 44.128287 
L 24.119877 58.215075 
L 24.133405 58.149339 
L 24.403961 56.294354 
L 24.444544 56.164912 
L 24.677898 54.610577 
L 24.691426 44.167998 
L 24.765829 57.899502 
L 24.772593 58.168598 
L 24.863905 57.352745 
L 25.093878 56.172648 
L 25.100642 56.174758 
L 25.104024 56.190135 
L 25.178426 56.017326 
L 25.333996 55.217896 
L 25.350906 52.956919 
L 25.361052 44.135481 
L 25.442218 58.164153 
L 25.455746 58.06319 
L 25.753357 56.164922 
L 25.756739 56.172503 
L 25.760121 56.176977 
L 25.793941 56.050737 
L 25.800705 56.056647 
L 25.922455 55.332743 
L 25.942746 54.06322 
L 25.952892 44.195407 
L 26.037441 58.232331 
L 26.044205 58.192119 
L 26.358726 56.1959 
L 26.362108 56.201013 
L 26.416219 56.08542 
L 26.419601 56.091045 
L 26.588698 55.358116 
L 26.612372 52.837841 
L 26.622518 44.142427 
L 26.703684 58.155555 
L 26.717212 58.055931 
L 26.97424 56.268103 
L 26.977622 56.269242 
L 26.984386 56.27926 
L 27.018205 56.180905 
L 27.021587 56.183202 
L 27.224504 54.142711 
L 27.238032 44.194399 
L 27.319198 58.180446 
L 27.325962 58.142559 
L 27.576226 56.381343 
L 27.579608 56.39172 
L 27.630338 56.202264 
L 27.873838 54.307583 
L 27.887365 44.128705 
L 27.968532 58.162017 
L 27.971914 58.153025 
L 28.516407 54.325498 
L 28.529935 44.122175 
L 28.611102 58.161953 
L 28.614484 58.142358 
L 28.72947 57.085833 
L 29.020317 55.972162 
L 29.115012 55.544237 
L 29.145449 54.71824 
L 29.162359 44.139808 
L 29.23338 57.797405 
L 29.243526 58.197366 
L 29.33822 57.341603 
L 29.517464 56.317525 
L 29.578339 56.189008 
L 29.588484 56.196105 
L 29.808311 54.424659 
L 29.821839 44.109727 
L 29.903005 58.14708 
L 29.906387 58.159539 
L 29.936825 57.86823 
L 30.176943 56.284778 
L 30.386624 54.84887 
L 30.400152 45.733147 
L 30.403533 44.147142 
L 30.481318 58.165582 
L 30.491464 58.243631 
L 30.562485 57.557143 
L 30.826277 56.231548 
L 30.829659 56.235836 
L 30.981846 55.78173 
L 31.042721 54.390696 
L 31.056249 44.09453 
L 31.137416 58.193274 
L 31.140798 58.201789 
L 31.164471 58.011115 
L 31.37077 56.491894 
L 31.546631 56.018025 
L 31.621034 55.745277 
L 31.675145 54.653589 
L 31.692055 44.170753 
L 31.763076 57.873713 
L 31.773222 58.220355 
L 31.864534 57.381917 
L 32.108034 56.178831 
L 32.310951 54.758434 
L 32.327861 44.110166 
L 32.398882 57.723134 
L 32.41241 58.237566 
L 32.503722 57.379884 
L 32.706639 56.292519 
L 32.710021 56.311841 
L 32.723549 56.294631 
L 32.737076 56.241834 
L 32.74384 56.243413 
L 32.868972 55.993084 
L 32.875736 55.999782 
L 33.011014 54.793934 
L 33.027924 44.096965 
L 33.095563 56.73325 
L 33.10909 58.124454 
L 33.207167 57.238819 
L 33.443903 56.069246 
L 33.447285 56.083575 
L 33.450667 56.09146 
L 33.49125 55.97445 
L 33.514924 55.979862 
L 33.64682 54.760892 
L 33.66373 44.122484 
L 33.731369 57.032767 
L 33.748278 58.153425 
L 33.842973 57.265186 
L 34.035744 56.224759 
L 34.042508 56.232798 
L 34.079709 56.095978 
L 34.309681 54.967569 
L 34.323209 49.383482 
L 34.329973 44.117624 
L 34.41114 58.115544 
L 34.42805 58.000569 
L 34.705369 56.16706 
L 34.708751 56.175173 
L 34.769626 56.039242 
L 34.773008 56.054363 
L 34.908286 54.588461 
L 34.921814 44.173672 
L 34.996217 57.949555 
L 35.006362 58.207913 
L 35.094293 57.391153 
L 35.290446 56.303042 
L 35.530564 55.181564 
L 35.547474 52.572917 
L 35.55762 44.184975 
L 35.638786 58.18435 
L 35.652314 58.082934 
L 35.963453 56.228816 
L 36.16637 55.612305 
L 36.206953 54.575263 
L 36.220481 44.184794 
L 36.294884 57.906322 
L 36.30503 58.134958 
L 36.39296 57.316465 
L 36.612787 56.144708 
L 36.616169 56.150692 
L 36.788648 55.468195 
L 36.815704 53.268377 
L 36.825849 44.154904 
L 36.907016 58.201567 
L 36.920544 58.108018 
L 37.45151 54.454672 
L 37.465037 44.130919 
L 37.546204 58.162153 
L 37.569878 57.968351 
L 37.901308 56.085899 
L 37.911454 56.101044 
L 37.948656 56.086179 
L 37.958801 56.013772 
L 37.968947 56.007889 
L 38.100843 54.600442 
L 38.117753 44.179273 
L 38.188774 57.893658 
L 38.19892 58.16605 
L 38.28685 57.346971 
L 38.510059 56.171711 
L 38.513441 56.179119 
L 38.719739 55.021176 
L 38.733267 51.395925 
L 38.740031 44.177884 
L 38.821198 58.143958 
L 38.838108 58.031774 
L 39.149247 56.124356 
L 39.308198 55.623483 
L 39.352163 53.462707 
L 39.362309 44.138718 
L 39.446858 58.185855 
L 39.457004 58.102751 
L 39.700504 56.361059 
L 39.707268 56.37038 
L 39.991351 55.131104 
L 40.008261 49.372243 
L 40.015025 44.117932 
L 40.099573 58.160117 
L 40.113101 58.039044 
L 40.400567 56.151015 
L 40.407331 56.169924 
L 40.410713 56.182259 
L 40.47497 56.033331 
L 40.481733 56.043265 
L 40.606865 55.178837 
L 40.623775 51.616782 
L 40.630539 44.146481 
L 40.715088 58.207629 
L 40.728615 58.11225 
L 40.989025 56.324464 
L 41.259581 55.331968 
L 41.279873 53.728281 
L 41.290019 44.093508 
L 41.374567 58.173935 
L 41.384713 58.105598 
L 41.67556 56.253149 
L 41.678942 56.258818 
L 41.861567 55.73111 
L 41.864949 55.735288 
L 41.878477 55.610479 
L 41.919061 54.182002 
L 41.932588 44.150687 
L 42.013755 58.181128 
L 42.020519 58.151961 
L 42.088158 57.494891 
L 42.33504 56.155022 
L 42.338422 56.16176 
L 42.348568 56.167904 
L 42.565012 54.803985 
L 42.581922 44.126977 
L 42.649561 56.769785 
L 42.666471 58.140565 
L 42.761165 57.277191 
L 43.008047 56.053992 
L 43.024957 56.078253 
L 43.180527 55.250572 
L 43.197436 53.65289 
L 43.207582 44.125297 
L 43.292131 58.186402 
L 43.302277 58.112304 
L 43.542395 56.417106 
L 43.687818 55.983125 
L 43.768985 55.673585 
L 43.81295 54.472248 
L 43.826478 44.109146 
L 43.907645 58.220756 
L 43.911027 58.230338 
L 43.934701 58.02302 
L 44.147763 56.493807 
L 44.320242 56.030593 
L 44.327006 56.047581 
L 44.513013 55.084465 
L 44.526541 52.631141 
L 44.536687 44.132197 
L 44.617854 58.117208 
L 44.631381 58.021353 
L 44.905319 56.218248 
L 44.966194 56.031465 
L 45.128528 54.31233 
L 45.142055 44.16792 
L 45.226604 58.175263 
L 45.574945 56.064292 
L 45.612146 56.059323 
L 45.652729 55.982573 
L 45.784625 54.629763 
L 45.801535 44.16797 
L 45.872556 57.857947 
L 45.882702 58.148124 
L 45.974014 57.315181 
L 46.224278 56.090842 
L 46.22766 56.109272 
L 46.38323 55.578273 
L 46.420431 53.458289 
L 46.430577 44.105478 
L 46.511744 58.194801 
L 46.525271 58.110953 
L 46.762008 56.410723 
L 46.948015 55.837595 
L 47.029181 54.669815 
L 47.046091 44.179055 
L 47.117112 57.870114 
L 47.127258 58.201102 
L 47.21857 57.381574 
L 47.428251 56.273581 
L 47.644696 55.65391 
L 47.685279 55.051197 
L 47.698807 51.929178 
L 47.705571 44.166682 
L 47.790119 58.147722 
L 47.803647 58.036986 
L 48.135078 56.063628 
L 48.287265 55.126285 
L 48.304175 49.582807 
L 48.310939 44.145499 
L 48.395488 58.21713 
L 48.409015 58.093414 
L 48.662661 56.353716 
L 48.666043 56.358494 
L 48.710009 56.239434 
L 48.855432 55.957087 
L 48.858814 55.966359 
L 48.953509 55.527354 
L 48.983946 54.348103 
L 48.997474 44.094755 
L 49.078641 58.14288 
L 49.082023 58.141935 
L 49.49462 55.847819 
L 49.555495 55.447092 
L 49.582551 54.115425 
L 49.596079 44.224047 
L 49.677245 58.210702 
L 49.684009 58.174486 
L 50.039114 56.088843 
L 50.069551 56.09021 
L 50.099989 55.992607 
L 50.248794 54.602044 
L 50.262322 44.162326 
L 50.336725 57.889148 
L 50.346871 58.166435 
L 50.434801 57.351827 
L 50.668156 56.183197 
L 50.671538 56.189765 
L 50.715503 56.053899 
L 50.874454 54.48741 
L 50.887982 44.122274 
L 50.965767 58.12595 
L 50.969149 58.187396 
L 51.04017 57.545888 
L 51.28367 56.199199 
L 51.334399 56.052033 
L 51.506878 54.042818 
L 51.520406 44.216298 
L 51.601573 58.16473 
L 51.608337 58.115595 
L 52.166358 54.817545 
L 52.183268 44.123892 
L 52.250906 56.670743 
L 52.264434 58.150918 
L 52.362511 57.262376 
L 52.572191 56.189272 
L 52.575573 56.191256 
L 52.612775 56.078702 
L 52.805546 54.269076 
L 52.819073 44.141932 
L 52.90024 58.160537 
L 52.903622 58.154471 
L 53.245199 56.150575 
L 53.248581 56.159596 
L 53.295928 56.028019 
L 53.417678 53.367213 
L 53.427824 44.121892 
L 53.50899 58.24344 
L 53.522518 58.162115 
L 53.762636 56.431729 
L 53.766018 56.437572 
L 53.789692 56.319541 
L 53.809984 56.315888 
L 53.92497 55.965413 
L 53.952025 56.00299 
L 53.955407 56.006427 
L 53.995991 55.890485 
L 54.002755 55.908255 
L 54.043338 55.730563 
L 54.087303 55.215391 
L 54.104213 53.11604 
L 54.114359 44.104572 
L 54.198908 58.14916 
L 54.209053 58.06043 
L 54.455935 56.334847 
L 54.570922 55.96442 
L 54.68929 54.659025 
L 54.706199 44.22666 
L 54.77722 57.906432 
L 54.787366 58.222982 
L 54.878679 57.378645 
L 55.088359 56.277588 
L 55.31495 55.380706 
L 55.338623 53.687826 
L 55.348769 44.107935 
L 55.433318 58.197117 
L 55.443464 58.102178 
L 55.686964 56.369048 
L 55.896645 55.713603 
L 55.913554 55.63116 
L 55.95752 53.711219 
L 55.967665 44.136217 
L 56.052214 58.200827 
L 56.06236 58.114144 
L 56.383645 56.20066 
L 56.512159 55.983554 
L 56.606853 55.365514 
L 56.630527 53.215907 
L 56.640673 44.098444 
L 56.721839 58.180447 
L 56.735367 58.095572 
L 57.100617 55.987938 
L 57.107381 55.999891 
L 57.188548 55.465766 
L 57.215604 53.482173 
L 57.225749 44.135567 
L 57.31368 58.268829 
L 57.320444 58.205957 
L 57.591 56.344697 
L 57.658639 56.250812 
L 57.827736 55.867319 
L 57.92243 55.410076 
L 57.946104 54.119256 
L 57.959632 44.124814 
L 58.040799 58.100942 
L 58.047562 58.066219 
L 58.250479 56.470897 
L 58.493979 55.679485 
L 58.541327 54.46238 
L 58.554854 44.129262 
L 58.636021 58.203129 
L 58.639403 58.205867 
L 58.652931 58.106389 
L 58.906577 56.337933 
L 59.160223 55.425665 
L 59.187278 53.580045 
L 59.197424 44.124913 
L 59.278591 58.164467 
L 59.292119 58.068433 
L 59.366521 57.352242 
L 59.610022 56.140969 
L 59.613404 56.14631 
L 59.657369 56.024501 
L 59.667515 56.028632 
L 59.738536 55.889527 
L 59.829848 54.811259 
L 59.846758 44.100245 
L 59.914397 56.599517 
L 59.931306 58.175822 
L 60.026001 57.272442 
L 60.279647 56.075613 
L 60.283029 56.089147 
L 60.340522 55.967207 
L 60.44198 55.148587 
L 60.45889 50.183157 
L 60.465654 44.120828 
L 60.546821 58.214153 
L 60.56373 58.088877 
L 61.010147 55.890759 
L 61.023675 55.903412 
L 61.027057 55.912215 
L 61.071022 55.740703 
L 61.121752 54.67203 
L 61.138661 44.133479 
L 61.2063 57.16363 
L 61.219828 58.166227 
L 61.314523 57.291405 
L 61.503912 56.293175 
L 61.750794 54.849276 
L 61.767703 44.152915 
L 61.835342 56.59478 
L 61.84887 58.160888 
L 61.946946 57.301565 
L 62.193829 56.147422 
L 62.197211 56.150378 
L 62.207356 56.083803 
L 62.244558 56.04807 
L 62.379836 55.116076 
L 62.396745 49.955608 
L 62.403509 44.138548 
L 62.484676 58.15698 
L 62.501586 58.042277 
L 62.768759 56.269492 
L 63.008878 55.048519 
L 63.022405 52.359748 
L 63.032551 44.225716 
L 63.113718 58.155856 
L 63.127246 58.042086 
L 63.485732 56.006525 
L 63.49926 56.025361 
L 63.631156 55.642686 
L 63.668357 54.843779 
L 63.685267 44.116758 
L 63.752906 56.210083 
L 63.769816 58.173496 
L 63.86451 57.299333 
L 64.331219 54.453204 
L 64.344746 44.102575 
L 64.425913 58.153017 
L 64.429295 58.155671 
L 64.442823 58.039145 
L 64.73367 56.179198 
L 64.737052 56.190622 
L 64.804691 56.037741 
L 64.970406 54.709293 
L 64.987316 44.134581 
L 65.054955 57.123313 
L 65.068483 58.157761 
L 65.166559 57.264773 
L 65.420205 56.078338 
L 65.443879 55.976778 
L 65.552101 55.342267 
L 65.572393 54.00601 
L 65.582539 44.194206 
L 65.670469 58.207449 
L 65.673851 58.180495 
L 65.947789 56.321813 
L 66.127032 55.971526 
L 66.130414 55.976966 
L 66.160852 55.855796 
L 66.174379 55.866209 
L 66.269074 54.446261 
L 66.282602 44.084089 
L 66.363768 58.13122 
L 66.444935 57.388025 
L 66.695199 56.066494 
L 66.698581 56.092281 
L 66.779748 55.861763 
L 66.867678 54.241751 
L 66.881206 44.184373 
L 66.962373 58.215866 
L 66.965755 58.201473 
L 67.283658 56.238755 
L 67.449373 55.609256 
L 67.489956 54.650773 
L 67.506866 44.19579 
L 67.577887 57.889077 
L 67.588033 58.182044 
L 67.675963 57.361419 
L 67.875498 56.241945 
L 67.87888 56.246081 
L 67.882262 56.251469 
L 67.929609 56.139016 
L 67.970193 56.1886 
L 68.142672 54.715338 
L 68.159582 44.12237 
L 68.230603 57.763984 
L 68.240749 58.185209 
L 68.335443 57.329323 
L 68.700693 55.894058 
L 68.754804 55.768171 
L 68.822443 54.711771 
L 68.839353 44.121276 
L 68.906992 57.217544 
L 68.923902 58.105039 
L 69.015214 57.235179 
L 69.377082 55.560029 
L 69.417666 54.072956 
L 69.427812 44.235638 
L 69.51236 58.199997 
L 69.519124 58.163356 
L 69.823499 56.208011 
L 69.826881 56.213838 
L 70.087291 55.002168 
L 70.100819 50.221397 
L 70.107583 44.095459 
L 70.18875 58.145207 
L 70.205659 58.023691 
L 70.486361 56.2125 
L 70.496507 56.216783 
L 70.499889 56.231397 
L 70.560764 56.0248 
L 70.719715 54.158886 
L 70.733243 44.18237 
L 70.81441 58.166916 
L 70.821174 58.131416 
L 71.328465 54.242205 
L 71.341993 44.162415 
L 71.426542 58.223136 
L 71.697098 56.296968 
L 71.720771 56.296625 
L 71.737681 56.210475 
L 71.747827 56.212279 
L 71.906778 55.829207 
L 71.91016 55.833483 
L 71.930452 55.682711 
L 71.974417 54.548458 
L 71.987945 44.096293 
L 72.06573 58.117201 
L 72.072494 58.215288 
L 72.143515 57.540274 
L 72.410688 56.120879 
L 72.41407 56.122451 
L 72.417452 56.143231 
L 72.502001 55.971896 
L 72.633897 54.68642 
L 72.650806 44.137696 
L 72.721827 57.836895 
L 72.731973 58.170271 
L 72.823286 57.311317 
L 73.093841 56.053313 
L 73.103987 56.073304 
L 73.151335 55.907532 
L 73.246029 54.741112 
L 73.262939 44.142865 
L 73.330578 57.058326 
L 73.344105 58.213666 
L 73.442182 57.335009 
L 73.66539 56.256078 
L 73.797286 55.861335 
L 73.868307 55.052234 
L 73.881835 51.677546 
L 73.888599 44.12253 
L 73.973147 58.218903 
L 73.986675 58.112425 
L 74.294432 56.197097 
L 74.483821 55.697747 
L 74.534551 54.328289 
L 74.548078 44.116831 
L 74.632627 58.179071 
L 75.156829 54.1314 
L 75.170356 44.192283 
L 75.251523 58.206259 
L 75.258287 58.166246 
L 75.779107 55.056168 
L 75.792635 51.638023 
L 75.799398 44.122517 
L 75.883947 58.217254 
L 75.897475 58.108786 
L 76.191704 56.269124 
L 76.398003 55.848875 
L 76.401385 55.858208 
L 76.431822 55.742248 
L 76.485934 54.903356 
L 76.499461 47.180815 
L 76.506225 44.144558 
L 76.587392 58.130984 
L 76.597538 58.054566 
L 77.108212 54.848396 
L 77.125121 44.147163 
L 77.19276 56.343491 
L 77.20967 58.182299 
L 77.304365 57.308832 
L 77.581684 56.012249 
L 77.683143 55.507034 
L 77.71358 54.300082 
L 77.727108 44.169533 
L 77.808275 58.214731 
L 77.811657 58.20039 
L 77.872532 57.614165 
L 78.099122 56.258173 
L 78.332476 55.495605 
L 78.362914 53.872478 
L 78.37306 44.138905 
L 78.457608 58.167333 
L 78.467754 58.090057 
L 78.795803 56.154206 
L 78.819476 56.101476 
L 78.822858 56.07018 
L 78.988574 54.110704 
L 79.002102 44.190463 
L 79.083268 58.199365 
L 79.090032 58.164625 
L 79.411317 56.168532 
L 79.414699 56.174899 
L 79.62438 54.775201 
L 79.641289 44.122435 
L 79.708928 56.929112 
L 79.722456 58.184211 
L 79.820533 57.287524 
L 80.26695 55.001376 
L 80.280477 49.807733 
L 80.287241 44.099399 
L 80.37179 58.204896 
L 80.385318 58.098142 
L 80.622054 56.405284 
L 80.84188 55.609912 
L 80.879082 54.753926 
L 80.895992 44.147483 
L 80.96363 57.025141 
L 80.98054 58.205113 
L 81.075235 57.333689 
L 81.311971 56.176621 
L 81.349172 56.143519 
L 81.355936 56.104672 
L 81.525034 53.699751 
L 81.535179 44.105706 
L 81.619728 58.215497 
L 81.629874 58.139047 
L 81.954541 56.143126 
L 81.957923 56.150194 
L 82.018798 56.043457 
L 82.028944 56.047307 
L 82.181131 54.904013 
L 82.194659 47.471304 
L 82.201423 44.16754 
L 82.282589 58.165612 
L 82.292735 58.096118 
L 82.519326 56.420949 
L 82.681659 55.985075 
L 82.685041 55.988479 
L 82.705333 55.87124 
L 82.789881 54.621051 
L 82.803409 44.200459 
L 82.877812 57.931787 
L 82.887958 58.218255 
L 82.975888 57.411202 
L 83.199097 56.241846 
L 83.283646 56.024555 
L 83.422305 54.914413 
L 83.435833 47.302383 
L 83.442597 44.176348 
L 83.527146 58.206533 
L 83.53391 58.128414 
L 83.74359 56.550666 
L 84.041202 55.46449 
L 84.071639 53.36603 
L 84.081785 44.133592 
L 84.162952 58.15587 
L 84.176479 58.082569 
L 84.54173 56.075186 
L 84.636424 55.865881 
L 84.727737 54.366001 
L 84.741264 44.12075 
L 84.822431 58.156154 
L 84.825813 58.14466 
L 85.336487 54.933454 
L 85.350015 48.028213 
L 85.356779 44.179438 
L 85.437945 58.205957 
L 85.451473 58.118747 
L 85.782904 56.102275 
L 85.789668 56.11273 
L 85.853925 55.964818 
L 86.009494 54.274189 
L 86.023022 44.119488 
L 86.104189 58.163119 
L 86.107571 58.15901 
L 86.513404 55.952507 
L 86.52355 55.968956 
L 86.638536 55.340363 
L 86.658828 53.845399 
L 86.668974 44.139585 
L 86.750141 58.142888 
L 86.763668 58.057884 
L 87.115391 55.982073 
L 87.122155 55.98525 
L 87.277724 55.390636 
L 87.30478 53.08023 
L 87.314926 44.161376 
L 87.396092 58.123449 
L 87.40962 58.012278 
L 87.801926 55.759398 
L 87.876329 55.085372 
L 87.889856 53.068836 
L 87.900002 44.220204 
L 87.981169 58.167859 
L 87.994697 58.07605 
L 88.285544 56.219977 
L 88.292308 56.225998 
L 88.562864 55.126389 
L 88.579773 49.943665 
L 88.586537 44.107982 
L 88.667704 58.094594 
L 88.684614 57.983128 
L 88.999135 56.079192 
L 89.124267 55.498592 
L 89.154704 54.482193 
L 89.168232 44.15599 
L 89.249399 58.211092 
L 89.252781 58.215535 
L 89.269691 58.072264 
L 89.570684 56.203623 
L 89.574066 56.207436 
L 89.614649 56.118768 
L 89.618031 56.119969 
L 89.810802 54.014578 
L 89.820948 44.161517 
L 89.902114 58.177114 
L 89.91226 58.136853 
L 90.267365 56.008541 
L 90.274129 56.014864 
L 90.287656 56.023898 
L 90.32824 55.905263 
L 90.439844 54.815576 
L 90.456754 44.133545 
L 90.524393 56.786562 
L 90.541302 58.169272 
L 90.635997 57.285354 
L 90.876115 56.109424 
L 90.879497 56.112177 
L 90.913316 56.001493 
L 91.051976 54.84203 
L 91.068886 44.129462 
L 91.068886 44.129462 
" clip-path="url(#pb5df4776a3)" style="fill: none; stroke: #000000; stroke-width: 0.6; stroke-linecap: square"/>
   </g>
   <g id="line2d_4">
    <path d="M 95.127221 15.313171 
L 95.127221 8.552195 
" clip-path="url(#pb5df4776a3)" style="fill: none; stroke: #000000; stroke-width: 1.5; stroke-linecap: square"/>
   </g>
  </g>
 </g>
 <defs>
  <clipPath id="pb5df4776a3">
   <rect x="7.2" y="7.2" width="89.28" height="55.44"/>
  </clipPath>
 </defs>
</svg>
