<?xml version="1.0" encoding="utf-8" standalone="no"?>
<!DOCTYPE svg PUBLIC "-//W3C//DTD SVG 1.1//EN"
  "http://www.w3.org/Graphics/SVG/1.1/DTD/svg11.dtd">
<svg xmlns:xlink="http://www.w3.org/1999/xlink" width="135.18625pt" height="97.11025pt" viewBox="0 0 135.18625 97.11025" xmlns="http://www.w3.org/2000/svg" version="1.1">
 <metadata>
  <rdf:RDF xmlns:dc="http://purl.org/dc/elements/1.1/" xmlns:cc="http://creativecommons.org/ns#" xmlns:rdf="http://www.w3.org/1999/02/22-rdf-syntax-ns#">
   <cc:Work>
    <dc:type rdf:resource="http://purl.org/dc/dcmitype/StillImage"/>
    <dc:date>2022-05-17T16:27:47.565493</dc:date>
    <dc:format>image/svg+xml</dc:format>
    <dc:creator>
     <cc:Agent>
      <dc:title>Matplotlib v3.5.1, https://matplotlib.org/</dc:title>
     </cc:Agent>
    </dc:creator>
   </cc:Work>
  </rdf:RDF>
 </metadata>
 <defs>
  <style type="text/css">*{stroke-linejoin: round; stroke-linecap: butt}</style>
 </defs>
 <g id="figure_1">
  <g id="patch_1">
   <path d="M 0 97.11025 
L 135.18625 97.11025 
L 135.18625 0 
L 0 0 
z
" style="fill: #ffffff"/>
  </g>
  <g id="axes_1">
   <g id="patch_2">
    <path d="M 27.54625 64.184 
L 127.98625 64.184 
L 127.98625 8.744 
L 27.54625 8.744 
z
" style="fill: #ffffff"/>
   </g>
   <g id="patch_3">
    <path d="M 32.111705 64.184 
L 34.394432 64.184 
L 34.394432 64.184 
L 32.111705 64.184 
z
" clip-path="url(#p23a9322e60)" style="fill: #1f77b4; opacity: 0.5"/>
   </g>
   <g id="patch_4">
    <path d="M 34.394432 64.184 
L 36.677159 64.184 
L 36.677159 64.184 
L 34.394432 64.184 
z
" clip-path="url(#p23a9322e60)" style="fill: #1f77b4; opacity: 0.5"/>
   </g>
   <g id="patch_5">
    <path d="M 36.677159 64.184 
L 38.959886 64.184 
L 38.959886 64.184 
L 36.677159 64.184 
z
" clip-path="url(#p23a9322e60)" style="fill: #1f77b4; opacity: 0.5"/>
   </g>
   <g id="patch_6">
    <path d="M 38.959886 64.184 
L 41.242614 64.184 
L 41.242614 63.758194 
L 38.959886 63.758194 
z
" clip-path="url(#p23a9322e60)" style="fill: #1f77b4; opacity: 0.5"/>
   </g>
   <g id="patch_7">
    <path d="M 41.242614 64.184 
L 43.525341 64.184 
L 43.525341 63.758194 
L 41.242614 63.758194 
z
" clip-path="url(#p23a9322e60)" style="fill: #1f77b4; opacity: 0.5"/>
   </g>
   <g id="patch_8">
    <path d="M 43.525341 64.184 
L 45.808068 64.184 
L 45.808068 63.758194 
L 43.525341 63.758194 
z
" clip-path="url(#p23a9322e60)" style="fill: #1f77b4; opacity: 0.5"/>
   </g>
   <g id="patch_9">
    <path d="M 45.808068 64.184 
L 48.090795 64.184 
L 48.090795 62.480774 
L 45.808068 62.480774 
z
" clip-path="url(#p23a9322e60)" style="fill: #1f77b4; opacity: 0.5"/>
   </g>
   <g id="patch_10">
    <path d="M 48.090795 64.184 
L 50.373523 64.184 
L 50.373523 63.332387 
L 48.090795 63.332387 
z
" clip-path="url(#p23a9322e60)" style="fill: #1f77b4; opacity: 0.5"/>
   </g>
   <g id="patch_11">
    <path d="M 50.373523 64.184 
L 52.65625 64.184 
L 52.65625 62.906581 
L 50.373523 62.906581 
z
" clip-path="url(#p23a9322e60)" style="fill: #1f77b4; opacity: 0.5"/>
   </g>
   <g id="patch_12">
    <path d="M 52.65625 64.184 
L 54.938977 64.184 
L 54.938977 60.777548 
L 52.65625 60.777548 
z
" clip-path="url(#p23a9322e60)" style="fill: #1f77b4; opacity: 0.5"/>
   </g>
   <g id="patch_13">
    <path d="M 54.938977 64.184 
L 57.221705 64.184 
L 57.221705 62.480774 
L 54.938977 62.480774 
z
" clip-path="url(#p23a9322e60)" style="fill: #1f77b4; opacity: 0.5"/>
   </g>
   <g id="patch_14">
    <path d="M 57.221705 64.184 
L 59.504432 64.184 
L 59.504432 60.777548 
L 57.221705 60.777548 
z
" clip-path="url(#p23a9322e60)" style="fill: #1f77b4; opacity: 0.5"/>
   </g>
   <g id="patch_15">
    <path d="M 59.504432 64.184 
L 61.787159 64.184 
L 61.787159 60.351742 
L 59.504432 60.351742 
z
" clip-path="url(#p23a9322e60)" style="fill: #1f77b4; opacity: 0.5"/>
   </g>
   <g id="patch_16">
    <path d="M 61.787159 64.184 
L 64.069886 64.184 
L 64.069886 59.500129 
L 61.787159 59.500129 
z
" clip-path="url(#p23a9322e60)" style="fill: #1f77b4; opacity: 0.5"/>
   </g>
   <g id="patch_17">
    <path d="M 64.069886 64.184 
L 66.352614 64.184 
L 66.352614 53.964645 
L 64.069886 53.964645 
z
" clip-path="url(#p23a9322e60)" style="fill: #1f77b4; opacity: 0.5"/>
   </g>
   <g id="patch_18">
    <path d="M 66.352614 64.184 
L 68.635341 64.184 
L 68.635341 56.093677 
L 66.352614 56.093677 
z
" clip-path="url(#p23a9322e60)" style="fill: #1f77b4; opacity: 0.5"/>
   </g>
   <g id="patch_19">
    <path d="M 68.635341 64.184 
L 70.918068 64.184 
L 70.918068 48.003355 
L 68.635341 48.003355 
z
" clip-path="url(#p23a9322e60)" style="fill: #1f77b4; opacity: 0.5"/>
   </g>
   <g id="patch_20">
    <path d="M 70.918068 64.184 
L 73.200795 64.184 
L 73.200795 50.132387 
L 70.918068 50.132387 
z
" clip-path="url(#p23a9322e60)" style="fill: #1f77b4; opacity: 0.5"/>
   </g>
   <g id="patch_21">
    <path d="M 73.200795 64.184 
L 75.483523 64.184 
L 75.483523 38.635613 
L 73.200795 38.635613 
z
" clip-path="url(#p23a9322e60)" style="fill: #1f77b4; opacity: 0.5"/>
   </g>
   <g id="patch_22">
    <path d="M 75.483523 64.184 
L 77.76625 64.184 
L 77.76625 37.358194 
L 75.483523 37.358194 
z
" clip-path="url(#p23a9322e60)" style="fill: #1f77b4; opacity: 0.5"/>
   </g>
   <g id="patch_23">
    <path d="M 77.76625 64.184 
L 80.048977 64.184 
L 80.048977 35.654968 
L 77.76625 35.654968 
z
" clip-path="url(#p23a9322e60)" style="fill: #1f77b4; opacity: 0.5"/>
   </g>
   <g id="patch_24">
    <path d="M 80.048977 64.184 
L 82.331705 64.184 
L 82.331705 22.029161 
L 80.048977 22.029161 
z
" clip-path="url(#p23a9322e60)" style="fill: #1f77b4; opacity: 0.5"/>
   </g>
   <g id="patch_25">
    <path d="M 82.331705 64.184 
L 84.614432 64.184 
L 84.614432 11.384 
L 82.331705 11.384 
z
" clip-path="url(#p23a9322e60)" style="fill: #1f77b4; opacity: 0.5"/>
   </g>
   <g id="patch_26">
    <path d="M 84.614432 64.184 
L 86.897159 64.184 
L 86.897159 15.216258 
L 84.614432 15.216258 
z
" clip-path="url(#p23a9322e60)" style="fill: #1f77b4; opacity: 0.5"/>
   </g>
   <g id="patch_27">
    <path d="M 86.897159 64.184 
L 89.179886 64.184 
L 89.179886 25.435613 
L 86.897159 25.435613 
z
" clip-path="url(#p23a9322e60)" style="fill: #1f77b4; opacity: 0.5"/>
   </g>
   <g id="patch_28">
    <path d="M 89.179886 64.184 
L 91.462614 64.184 
L 91.462614 27.138839 
L 89.179886 27.138839 
z
" clip-path="url(#p23a9322e60)" style="fill: #1f77b4; opacity: 0.5"/>
   </g>
   <g id="patch_29">
    <path d="M 91.462614 64.184 
L 93.745341 64.184 
L 93.745341 36.080774 
L 91.462614 36.080774 
z
" clip-path="url(#p23a9322e60)" style="fill: #1f77b4; opacity: 0.5"/>
   </g>
   <g id="patch_30">
    <path d="M 93.745341 64.184 
L 96.028068 64.184 
L 96.028068 46.725935 
L 93.745341 46.725935 
z
" clip-path="url(#p23a9322e60)" style="fill: #1f77b4; opacity: 0.5"/>
   </g>
   <g id="patch_31">
    <path d="M 96.028068 64.184 
L 98.310795 64.184 
L 98.310795 56.093677 
L 96.028068 56.093677 
z
" clip-path="url(#p23a9322e60)" style="fill: #1f77b4; opacity: 0.5"/>
   </g>
   <g id="patch_32">
    <path d="M 98.310795 64.184 
L 100.593523 64.184 
L 100.593523 59.500129 
L 98.310795 59.500129 
z
" clip-path="url(#p23a9322e60)" style="fill: #1f77b4; opacity: 0.5"/>
   </g>
   <g id="patch_33">
    <path d="M 100.593523 64.184 
L 102.87625 64.184 
L 102.87625 63.332387 
L 100.593523 63.332387 
z
" clip-path="url(#p23a9322e60)" style="fill: #1f77b4; opacity: 0.5"/>
   </g>
   <g id="patch_34">
    <path d="M 102.87625 64.184 
L 105.158977 64.184 
L 105.158977 63.758194 
L 102.87625 63.758194 
z
" clip-path="url(#p23a9322e60)" style="fill: #1f77b4; opacity: 0.5"/>
   </g>
   <g id="patch_35">
    <path d="M 105.158977 64.184 
L 107.441705 64.184 
L 107.441705 64.184 
L 105.158977 64.184 
z
" clip-path="url(#p23a9322e60)" style="fill: #1f77b4; opacity: 0.5"/>
   </g>
   <g id="patch_36">
    <path d="M 107.441705 64.184 
L 109.724432 64.184 
L 109.724432 64.184 
L 107.441705 64.184 
z
" clip-path="url(#p23a9322e60)" style="fill: #1f77b4; opacity: 0.5"/>
   </g>
   <g id="patch_37">
    <path d="M 109.724432 64.184 
L 112.007159 64.184 
L 112.007159 64.184 
L 109.724432 64.184 
z
" clip-path="url(#p23a9322e60)" style="fill: #1f77b4; opacity: 0.5"/>
   </g>
   <g id="patch_38">
    <path d="M 112.007159 64.184 
L 114.289886 64.184 
L 114.289886 64.184 
L 112.007159 64.184 
z
" clip-path="url(#p23a9322e60)" style="fill: #1f77b4; opacity: 0.5"/>
   </g>
   <g id="patch_39">
    <path d="M 114.289886 64.184 
L 116.572614 64.184 
L 116.572614 64.184 
L 114.289886 64.184 
z
" clip-path="url(#p23a9322e60)" style="fill: #1f77b4; opacity: 0.5"/>
   </g>
   <g id="patch_40">
    <path d="M 116.572614 64.184 
L 118.855341 64.184 
L 118.855341 64.184 
L 116.572614 64.184 
z
" clip-path="url(#p23a9322e60)" style="fill: #1f77b4; opacity: 0.5"/>
   </g>
   <g id="patch_41">
    <path d="M 118.855341 64.184 
L 121.138068 64.184 
L 121.138068 64.184 
L 118.855341 64.184 
z
" clip-path="url(#p23a9322e60)" style="fill: #1f77b4; opacity: 0.5"/>
   </g>
   <g id="patch_42">
    <path d="M 121.138068 64.184 
L 123.420795 64.184 
L 123.420795 64.184 
L 121.138068 64.184 
z
" clip-path="url(#p23a9322e60)" style="fill: #1f77b4; opacity: 0.5"/>
   </g>
   <g id="patch_43">
    <path d="M 32.111705 64.184 
L 34.394432 64.184 
L 34.394432 64.184 
L 32.111705 64.184 
z
" clip-path="url(#p23a9322e60)" style="fill: #ff7f0e; opacity: 0.5"/>
   </g>
   <g id="patch_44">
    <path d="M 34.394432 64.184 
L 36.677159 64.184 
L 36.677159 64.184 
L 34.394432 64.184 
z
" clip-path="url(#p23a9322e60)" style="fill: #ff7f0e; opacity: 0.5"/>
   </g>
   <g id="patch_45">
    <path d="M 36.677159 64.184 
L 38.959886 64.184 
L 38.959886 64.184 
L 36.677159 64.184 
z
" clip-path="url(#p23a9322e60)" style="fill: #ff7f0e; opacity: 0.5"/>
   </g>
   <g id="patch_46">
    <path d="M 38.959886 64.184 
L 41.242614 64.184 
L 41.242614 64.184 
L 38.959886 64.184 
z
" clip-path="url(#p23a9322e60)" style="fill: #ff7f0e; opacity: 0.5"/>
   </g>
   <g id="patch_47">
    <path d="M 41.242614 64.184 
L 43.525341 64.184 
L 43.525341 64.184 
L 41.242614 64.184 
z
" clip-path="url(#p23a9322e60)" style="fill: #ff7f0e; opacity: 0.5"/>
   </g>
   <g id="patch_48">
    <path d="M 43.525341 64.184 
L 45.808068 64.184 
L 45.808068 64.184 
L 43.525341 64.184 
z
" clip-path="url(#p23a9322e60)" style="fill: #ff7f0e; opacity: 0.5"/>
   </g>
   <g id="patch_49">
    <path d="M 45.808068 64.184 
L 48.090795 64.184 
L 48.090795 64.184 
L 45.808068 64.184 
z
" clip-path="url(#p23a9322e60)" style="fill: #ff7f0e; opacity: 0.5"/>
   </g>
   <g id="patch_50">
    <path d="M 48.090795 64.184 
L 50.373523 64.184 
L 50.373523 64.184 
L 48.090795 64.184 
z
" clip-path="url(#p23a9322e60)" style="fill: #ff7f0e; opacity: 0.5"/>
   </g>
   <g id="patch_51">
    <path d="M 50.373523 64.184 
L 52.65625 64.184 
L 52.65625 64.184 
L 50.373523 64.184 
z
" clip-path="url(#p23a9322e60)" style="fill: #ff7f0e; opacity: 0.5"/>
   </g>
   <g id="patch_52">
    <path d="M 52.65625 64.184 
L 54.938977 64.184 
L 54.938977 64.184 
L 52.65625 64.184 
z
" clip-path="url(#p23a9322e60)" style="fill: #ff7f0e; opacity: 0.5"/>
   </g>
   <g id="patch_53">
    <path d="M 54.938977 64.184 
L 57.221705 64.184 
L 57.221705 64.184 
L 54.938977 64.184 
z
" clip-path="url(#p23a9322e60)" style="fill: #ff7f0e; opacity: 0.5"/>
   </g>
   <g id="patch_54">
    <path d="M 57.221705 64.184 
L 59.504432 64.184 
L 59.504432 64.184 
L 57.221705 64.184 
z
" clip-path="url(#p23a9322e60)" style="fill: #ff7f0e; opacity: 0.5"/>
   </g>
   <g id="patch_55">
    <path d="M 59.504432 64.184 
L 61.787159 64.184 
L 61.787159 64.184 
L 59.504432 64.184 
z
" clip-path="url(#p23a9322e60)" style="fill: #ff7f0e; opacity: 0.5"/>
   </g>
   <g id="patch_56">
    <path d="M 61.787159 64.184 
L 64.069886 64.184 
L 64.069886 64.184 
L 61.787159 64.184 
z
" clip-path="url(#p23a9322e60)" style="fill: #ff7f0e; opacity: 0.5"/>
   </g>
   <g id="patch_57">
    <path d="M 64.069886 64.184 
L 66.352614 64.184 
L 66.352614 64.184 
L 64.069886 64.184 
z
" clip-path="url(#p23a9322e60)" style="fill: #ff7f0e; opacity: 0.5"/>
   </g>
   <g id="patch_58">
    <path d="M 66.352614 64.184 
L 68.635341 64.184 
L 68.635341 64.184 
L 66.352614 64.184 
z
" clip-path="url(#p23a9322e60)" style="fill: #ff7f0e; opacity: 0.5"/>
   </g>
   <g id="patch_59">
    <path d="M 68.635341 64.184 
L 70.918068 64.184 
L 70.918068 64.184 
L 68.635341 64.184 
z
" clip-path="url(#p23a9322e60)" style="fill: #ff7f0e; opacity: 0.5"/>
   </g>
   <g id="patch_60">
    <path d="M 70.918068 64.184 
L 73.200795 64.184 
L 73.200795 64.184 
L 70.918068 64.184 
z
" clip-path="url(#p23a9322e60)" style="fill: #ff7f0e; opacity: 0.5"/>
   </g>
   <g id="patch_61">
    <path d="M 73.200795 64.184 
L 75.483523 64.184 
L 75.483523 64.184 
L 73.200795 64.184 
z
" clip-path="url(#p23a9322e60)" style="fill: #ff7f0e; opacity: 0.5"/>
   </g>
   <g id="patch_62">
    <path d="M 75.483523 64.184 
L 77.76625 64.184 
L 77.76625 64.184 
L 75.483523 64.184 
z
" clip-path="url(#p23a9322e60)" style="fill: #ff7f0e; opacity: 0.5"/>
   </g>
   <g id="patch_63">
    <path d="M 77.76625 64.184 
L 80.048977 64.184 
L 80.048977 64.184 
L 77.76625 64.184 
z
" clip-path="url(#p23a9322e60)" style="fill: #ff7f0e; opacity: 0.5"/>
   </g>
   <g id="patch_64">
    <path d="M 80.048977 64.184 
L 82.331705 64.184 
L 82.331705 63.758194 
L 80.048977 63.758194 
z
" clip-path="url(#p23a9322e60)" style="fill: #ff7f0e; opacity: 0.5"/>
   </g>
   <g id="patch_65">
    <path d="M 82.331705 64.184 
L 84.614432 64.184 
L 84.614432 62.906581 
L 82.331705 62.906581 
z
" clip-path="url(#p23a9322e60)" style="fill: #ff7f0e; opacity: 0.5"/>
   </g>
   <g id="patch_66">
    <path d="M 84.614432 64.184 
L 86.897159 64.184 
L 86.897159 61.203355 
L 84.614432 61.203355 
z
" clip-path="url(#p23a9322e60)" style="fill: #ff7f0e; opacity: 0.5"/>
   </g>
   <g id="patch_67">
    <path d="M 86.897159 64.184 
L 89.179886 64.184 
L 89.179886 58.22271 
L 86.897159 58.22271 
z
" clip-path="url(#p23a9322e60)" style="fill: #ff7f0e; opacity: 0.5"/>
   </g>
   <g id="patch_68">
    <path d="M 89.179886 64.184 
L 91.462614 64.184 
L 91.462614 53.538839 
L 89.179886 53.538839 
z
" clip-path="url(#p23a9322e60)" style="fill: #ff7f0e; opacity: 0.5"/>
   </g>
   <g id="patch_69">
    <path d="M 91.462614 64.184 
L 93.745341 64.184 
L 93.745341 42.042065 
L 91.462614 42.042065 
z
" clip-path="url(#p23a9322e60)" style="fill: #ff7f0e; opacity: 0.5"/>
   </g>
   <g id="patch_70">
    <path d="M 93.745341 64.184 
L 96.028068 64.184 
L 96.028068 37.784 
L 93.745341 37.784 
z
" clip-path="url(#p23a9322e60)" style="fill: #ff7f0e; opacity: 0.5"/>
   </g>
   <g id="patch_71">
    <path d="M 96.028068 64.184 
L 98.310795 64.184 
L 98.310795 34.803355 
L 96.028068 34.803355 
z
" clip-path="url(#p23a9322e60)" style="fill: #ff7f0e; opacity: 0.5"/>
   </g>
   <g id="patch_72">
    <path d="M 98.310795 64.184 
L 100.593523 64.184 
L 100.593523 23.732387 
L 98.310795 23.732387 
z
" clip-path="url(#p23a9322e60)" style="fill: #ff7f0e; opacity: 0.5"/>
   </g>
   <g id="patch_73">
    <path d="M 100.593523 64.184 
L 102.87625 64.184 
L 102.87625 15.642065 
L 100.593523 15.642065 
z
" clip-path="url(#p23a9322e60)" style="fill: #ff7f0e; opacity: 0.5"/>
   </g>
   <g id="patch_74">
    <path d="M 102.87625 64.184 
L 105.158977 64.184 
L 105.158977 23.732387 
L 102.87625 23.732387 
z
" clip-path="url(#p23a9322e60)" style="fill: #ff7f0e; opacity: 0.5"/>
   </g>
   <g id="patch_75">
    <path d="M 105.158977 64.184 
L 107.441705 64.184 
L 107.441705 22.029161 
L 105.158977 22.029161 
z
" clip-path="url(#p23a9322e60)" style="fill: #ff7f0e; opacity: 0.5"/>
   </g>
   <g id="patch_76">
    <path d="M 107.441705 64.184 
L 109.724432 64.184 
L 109.724432 20.751742 
L 107.441705 20.751742 
z
" clip-path="url(#p23a9322e60)" style="fill: #ff7f0e; opacity: 0.5"/>
   </g>
   <g id="patch_77">
    <path d="M 109.724432 64.184 
L 112.007159 64.184 
L 112.007159 29.267871 
L 109.724432 29.267871 
z
" clip-path="url(#p23a9322e60)" style="fill: #ff7f0e; opacity: 0.5"/>
   </g>
   <g id="patch_78">
    <path d="M 112.007159 64.184 
L 114.289886 64.184 
L 114.289886 36.932387 
L 112.007159 36.932387 
z
" clip-path="url(#p23a9322e60)" style="fill: #ff7f0e; opacity: 0.5"/>
   </g>
   <g id="patch_79">
    <path d="M 114.289886 64.184 
L 116.572614 64.184 
L 116.572614 45.874323 
L 114.289886 45.874323 
z
" clip-path="url(#p23a9322e60)" style="fill: #ff7f0e; opacity: 0.5"/>
   </g>
   <g id="patch_80">
    <path d="M 116.572614 64.184 
L 118.855341 64.184 
L 118.855341 48.429161 
L 116.572614 48.429161 
z
" clip-path="url(#p23a9322e60)" style="fill: #ff7f0e; opacity: 0.5"/>
   </g>
   <g id="patch_81">
    <path d="M 118.855341 64.184 
L 121.138068 64.184 
L 121.138068 56.519484 
L 118.855341 56.519484 
z
" clip-path="url(#p23a9322e60)" style="fill: #ff7f0e; opacity: 0.5"/>
   </g>
   <g id="patch_82">
    <path d="M 121.138068 64.184 
L 123.420795 64.184 
L 123.420795 59.500129 
L 121.138068 59.500129 
z
" clip-path="url(#p23a9322e60)" style="fill: #ff7f0e; opacity: 0.5"/>
   </g>
   <g id="matplotlib.axis_1">
    <g id="xtick_1">
     <g id="line2d_1">
      <defs>
       <path id="m7d8291f978" d="M 0 0 
L 0 3.5 
" style="stroke: #000000; stroke-width: 1.5"/>
      </defs>
      <g>
       <use xlink:href="#m7d8291f978" x="32.111705" y="64.184" style="stroke: #000000; stroke-width: 1.5"/>
      </g>
     </g>
     <g id="text_1">
      <text style="font: 8px 'Arial'; text-anchor: middle" x="32.111705" y="76.91025" transform="rotate(-0, 32.111705, 76.91025)">−100</text>
     </g>
    </g>
    <g id="xtick_2">
     <g id="line2d_2">
      <g>
       <use xlink:href="#m7d8291f978" x="57.475341" y="64.184" style="stroke: #000000; stroke-width: 1.5"/>
      </g>
     </g>
     <g id="text_2">
      <text style="font: 8px 'Arial'; text-anchor: middle" x="57.475341" y="76.91025" transform="rotate(-0, 57.475341, 76.91025)">−75</text>
     </g>
    </g>
    <g id="xtick_3">
     <g id="line2d_3">
      <g>
       <use xlink:href="#m7d8291f978" x="82.838977" y="64.184" style="stroke: #000000; stroke-width: 1.5"/>
      </g>
     </g>
     <g id="text_3">
      <text style="font: 8px 'Arial'; text-anchor: middle" x="82.838977" y="76.91025" transform="rotate(-0, 82.838977, 76.91025)">−50</text>
     </g>
    </g>
    <g id="xtick_4">
     <g id="line2d_4">
      <g>
       <use xlink:href="#m7d8291f978" x="108.202614" y="64.184" style="stroke: #000000; stroke-width: 1.5"/>
      </g>
     </g>
     <g id="text_4">
      <text style="font: 8px 'Arial'; text-anchor: middle" x="108.202614" y="76.91025" transform="rotate(-0, 108.202614, 76.91025)">−25</text>
     </g>
    </g>
    <g id="text_5">
     <text style="font: 8px 'Arial'; text-anchor: middle" x="77.76625" y="88.2265" transform="rotate(-0, 77.76625, 88.2265)">Log-prob.</text>
    </g>
   </g>
   <g id="matplotlib.axis_2">
    <g id="ytick_1">
     <g id="line2d_5">
      <defs>
       <path id="m4ffc30da97" d="M 0 0 
L -3.5 0 
" style="stroke: #000000; stroke-width: 1.5"/>
      </defs>
      <g>
       <use xlink:href="#m4ffc30da97" x="27.54625" y="64.184" style="stroke: #000000; stroke-width: 1.5"/>
      </g>
     </g>
     <g id="text_6">
      <text style="font: 8px 'Arial'; text-anchor: end" x="20.54625" y="67.047125" transform="rotate(-0, 20.54625, 67.047125)">0</text>
     </g>
    </g>
    <g id="ytick_2">
     <g id="line2d_6">
      <g>
       <use xlink:href="#m4ffc30da97" x="27.54625" y="42.893677" style="stroke: #000000; stroke-width: 1.5"/>
      </g>
     </g>
     <g id="text_7">
      <text style="font: 8px 'Arial'; text-anchor: end" x="20.54625" y="45.756802" transform="rotate(-0, 20.54625, 45.756802)">50</text>
     </g>
    </g>
    <g id="ytick_3">
     <g id="line2d_7">
      <g>
       <use xlink:href="#m4ffc30da97" x="27.54625" y="21.603355" style="stroke: #000000; stroke-width: 1.5"/>
      </g>
     </g>
     <g id="text_8">
      <text style="font: 8px 'Arial'; text-anchor: end" x="20.54625" y="24.46648" transform="rotate(-0, 20.54625, 24.46648)">100</text>
     </g>
    </g>
   </g>
   <g id="patch_83">
    <path d="M 27.54625 64.184 
L 27.54625 8.744 
" style="fill: none; stroke: #000000; stroke-width: 1.5; stroke-linejoin: miter; stroke-linecap: square"/>
   </g>
   <g id="patch_84">
    <path d="M 27.54625 64.184 
L 127.98625 64.184 
" style="fill: none; stroke: #000000; stroke-width: 1.5; stroke-linejoin: miter; stroke-linecap: square"/>
   </g>
   <g id="legend_1">
    <g id="patch_85">
     <path d="M 34.74625 14.44625 
L 41.14625 14.44625 
L 41.14625 11.96625 
L 34.74625 11.96625 
z
" style="fill: #1f77b4; opacity: 0.5"/>
    </g>
    <g id="text_9">
     <text style="font: 8px 'Arial'; text-anchor: start" x="42.74625" y="16.12625" transform="rotate(-0, 42.74625, 16.12625)">R 10</text>
    </g>
    <g id="patch_86">
     <path d="M 34.74625 22.5625 
L 41.14625 22.5625 
L 41.14625 20.0825 
L 34.74625 20.0825 
z
" style="fill: #ff7f0e; opacity: 0.5"/>
    </g>
    <g id="text_10">
     <text style="font: 8px 'Arial'; text-anchor: start" x="42.74625" y="24.2425" transform="rotate(-0, 42.74625, 24.2425)">R 13</text>
    </g>
   </g>
  </g>
 </g>
 <defs>
  <clipPath id="p23a9322e60">
   <rect x="27.54625" y="8.744" width="100.44" height="55.44"/>
  </clipPath>
 </defs>
</svg>
