<?xml version="1.0" encoding="utf-8" standalone="no"?>
<!DOCTYPE svg PUBLIC "-//W3C//DTD SVG 1.1//EN"
  "http://www.w3.org/Graphics/SVG/1.1/DTD/svg11.dtd">
<svg xmlns:xlink="http://www.w3.org/1999/xlink" width="103.68pt" height="69.84pt" viewBox="0 0 103.68 69.84" xmlns="http://www.w3.org/2000/svg" version="1.1">
 <metadata>
  <rdf:RDF xmlns:dc="http://purl.org/dc/elements/1.1/" xmlns:cc="http://creativecommons.org/ns#" xmlns:rdf="http://www.w3.org/1999/02/22-rdf-syntax-ns#">
   <cc:Work>
    <dc:type rdf:resource="http://purl.org/dc/dcmitype/StillImage"/>
    <dc:date>2022-05-08T14:50:37.086824</dc:date>
    <dc:format>image/svg+xml</dc:format>
    <dc:creator>
     <cc:Agent>
      <dc:title>Matplotlib v3.5.1, https://matplotlib.org/</dc:title>
     </cc:Agent>
    </dc:creator>
   </cc:Work>
  </rdf:RDF>
 </metadata>
 <defs>
  <style type="text/css">*{stroke-linejoin: round; stroke-linecap: butt}</style>
 </defs>
 <g id="figure_1">
  <g id="patch_1">
   <path d="M 0 69.84 
L 103.68 69.84 
L 103.68 0 
L 0 0 
z
" style="fill: #ffffff"/>
  </g>
  <g id="axes_1">
   <g id="patch_2">
    <path d="M 7.2 62.64 
L 96.48 62.64 
L 96.48 7.2 
L 7.2 7.2 
z
" style="fill: #ffffff"/>
   </g>
   <g id="matplotlib.axis_1"/>
   <g id="matplotlib.axis_2"/>
   <g id="line2d_1">
    <path d="M 9.905557 23.782781 
L 10.050981 23.660422 
L 10.057745 23.674934 
L 10.135529 23.758415 
L 10.179495 23.751775 
L 10.260661 23.794277 
L 10.304627 23.708454 
L 10.395939 23.791221 
L 10.324918 23.69737 
L 10.446668 23.764819 
L 10.494016 23.728314 
L 10.510925 23.782348 
L 10.554891 23.765854 
L 10.703696 23.974732 
L 10.707078 23.963925 
L 10.795009 23.990832 
L 10.747662 24.056553 
L 10.801773 24.016362 
L 10.805155 24.037841 
L 10.889703 23.968838 
L 10.909995 23.994543 
L 11.031745 23.941734 
L 10.933669 24.00911 
L 11.035127 23.946385 
L 11.180551 23.972829 
L 11.586384 23.894563 
L 11.694607 23.988871 
L 11.603294 23.867308 
L 11.701371 23.9357 
L 11.96178 23.884145 
L 11.965162 23.903565 
L 11.992218 23.939234 
L 12.036183 23.861521 
L 12.073385 23.895879 
L 12.171461 23.779339 
L 12.225572 23.815613 
L 12.374378 23.904884 
L 12.458926 23.8589 
L 12.421725 23.962332 
L 12.479218 23.929006 
L 12.584058 23.942132 
L 12.506274 23.871305 
L 12.58744 23.93579 
L 12.611114 23.888593 
L 12.665225 23.947579 
L 12.702427 23.903782 
L 12.800503 23.988074 
L 12.820795 23.956745 
L 12.851232 23.909865 
L 12.905343 23.991693 
L 12.929017 23.949336 
L 13.013566 24.085163 
L 13.054149 24.071737 
L 13.12517 24.033307 
L 13.182663 24.143617 
L 13.355142 24.062192 
L 13.2131 24.180004 
L 13.375434 24.094614 
L 13.470128 24.171861 
L 13.382198 24.090054 
L 13.517476 24.118347 
L 13.52424 24.09466 
L 13.591878 24.228245 
L 13.598642 24.222272 
L 13.852288 24.279419 
L 13.85567 24.258889 
L 13.926691 24.383301 
L 13.957129 24.319955 
L 14.089025 24.423868 
L 14.109316 24.401456 
L 14.173573 24.31486 
L 14.22092 24.402752 
L 14.400164 24.290291 
L 14.23783 24.42068 
L 14.410309 24.328885 
L 14.592935 24.546268 
L 14.920983 24.581058 
L 15.03597 24.650503 
L 14.995386 24.55067 
L 15.042733 24.646278 
L 15.127282 24.678682 
L 15.049497 24.664523 
L 15.137428 24.706602 
L 15.205067 24.766182 
L 15.24565 24.685274 
L 15.289616 24.640255 
L 15.259178 24.710924 
L 15.340345 24.740722 
L 15.387692 24.775632 
L 15.360636 24.725382 
L 15.448567 24.734419 
L 15.479005 24.695145 
L 15.543261 24.836088 
L 15.658248 24.857823 
L 15.590609 24.751221 
L 15.66163 24.854482 
L 15.823963 24.640997 
L 15.830727 24.650663 
L 15.884838 24.743802 
L 15.945713 24.714022 
L 16.057317 24.67674 
L 15.986296 24.772579 
L 16.067463 24.698642 
L 16.263616 24.687446 
L 16.266998 24.654448 
L 16.324491 24.581885 
L 16.378602 24.659318 
L 16.564609 24.532554 
L 16.598429 24.47496 
L 16.632248 24.613635 
L 16.682977 24.526441 
L 16.710033 24.550334 
L 16.750616 24.442947 
L 16.781054 24.476727 
L 16.885894 24.354614 
L 17.007644 24.330893 
L 17.014408 24.338729 
L 17.234235 24.418889 
L 17.237617 24.407226 
L 17.24438 24.374143 
L 17.315401 24.460305 
L 17.342457 24.443165 
L 17.362749 24.500385 
L 17.440533 24.382521 
L 17.447297 24.403692 
L 17.795638 24.19381 
L 17.805784 24.241313 
L 17.900478 24.325697 
L 17.907242 24.371453 
L 17.961353 24.285948 
L 18.005318 24.306735 
L 18.093249 24.236015 
L 18.120305 24.264445 
L 18.225145 24.349983 
L 18.28602 24.276586 
L 18.373951 24.238566 
L 18.40777 24.274792 
L 18.492319 24.358558 
L 18.526138 24.332518 
L 19.334423 24.075015 
L 19.337805 24.085105 
L 19.425736 24.060067 
L 19.456173 24.113448 
L 19.459555 24.099918 
L 19.483229 24.199364 
L 19.550868 24.190952 
L 20.064924 24.127773 
L 20.142708 24.099678 
L 20.119035 24.175287 
L 20.176528 24.121062 
L 20.206965 24.1664 
L 20.264459 24.049058 
L 20.342243 24.034051 
L 20.311806 24.073176 
L 20.365917 24.076202 
L 20.379445 24.105486 
L 20.433556 24.022842 
L 20.477521 24.085878 
L 20.484285 24.040495 
L 20.535014 24.138736 
L 20.585743 24.061611 
L 20.612799 24.108211 
L 20.663528 23.973539 
L 20.690584 24.017867 
L 20.873209 23.818084 
L 20.903646 23.852851 
L 20.978049 23.913315 
L 20.91041 23.84266 
L 21.018633 23.858648 
L 21.106563 23.714466 
L 21.147146 23.76659 
L 21.214785 23.916295 
L 21.29257 23.841078 
L 21.454904 23.705394 
L 21.316244 23.866438 
L 21.461667 23.72496 
L 21.465049 23.740792 
L 21.532688 23.566004 
L 21.53607 23.567383 
L 21.563126 23.473695 
L 21.624001 23.595334 
L 21.647675 23.561006 
L 21.695022 23.511857 
L 21.711932 23.599384 
L 21.759279 23.570123 
L 21.837064 23.595263 
L 21.877647 23.570207 
L 21.887793 23.584359 
L 22.023071 23.450451 
L 22.232751 23.595653 
L 22.263189 23.618715 
L 22.357883 23.556899 
L 22.398467 23.646412 
L 22.469487 23.538364 
L 22.476251 23.515677 
L 22.570946 23.590201 
L 22.574328 23.577194 
L 22.621675 23.614443 
L 22.669022 23.514073 
L 22.672404 23.522893 
L 22.770481 23.435154 
L 22.689314 23.538884 
L 22.794154 23.464469 
L 22.929432 23.463167 
L 22.936196 23.424197 
L 22.966634 23.439443 
L 23.057946 23.308658 
L 23.149259 23.325101 
L 23.125585 23.282612 
L 23.172932 23.306026 
L 23.176314 23.30954 
L 23.230425 23.211253 
L 23.328502 23.089376 
L 23.372467 23.145923 
L 23.457016 23.196415 
L 23.41305 23.10269 
L 23.484071 23.163607 
L 23.490835 23.13944 
L 23.55171 23.279265 
L 23.555092 23.270905 
L 23.602439 23.337928 
L 23.670078 23.278681 
L 23.788447 23.261524 
L 23.808738 23.290891 
L 23.927106 23.345853 
L 24.028565 23.228216 
L 24.062384 23.32246 
L 24.146933 23.311141 
L 24.119877 23.242972 
L 24.163843 23.29387 
L 24.187516 23.321 
L 24.282211 23.233247 
L 24.434398 23.248747 
L 24.444544 23.235184 
L 24.495273 23.12383 
L 24.627169 22.992155 
L 24.640697 23.026132 
L 24.69819 22.961385 
L 24.738773 22.983765 
L 24.890961 22.86794 
L 24.911253 22.927925 
L 25.012711 23.006882 
L 24.9586 22.891436 
L 25.029621 22.960584 
L 25.046531 22.978977 
L 25.164899 22.86077 
L 25.222392 22.870158 
L 25.198718 22.916547 
L 25.249447 22.928045 
L 25.384725 23.054567 
L 25.273121 22.898937 
L 25.391489 23.040016 
L 25.550441 22.972477 
L 25.570732 23.00748 
L 25.692482 23.122372 
L 25.604552 22.991992 
L 25.695864 23.117689 
L 25.699246 23.103607 
L 25.760121 23.207846 
L 25.787177 23.21039 
L 25.952892 23.316034 
L 26.050969 23.317689 
L 26.061114 23.278457 
L 26.145663 23.183335 
L 26.176101 23.231108 
L 26.223448 23.284457 
L 26.291087 23.23891 
L 26.402691 23.278966 
L 26.406073 23.30003 
L 26.541351 23.361154 
L 26.416219 23.295369 
L 26.544733 23.353409 
L 26.663101 23.366198 
L 26.568406 23.30866 
L 26.666483 23.349361 
L 26.686774 23.316192 
L 26.720594 23.386286 
L 26.774705 23.36434 
L 26.893073 23.505382 
L 26.903219 23.481533 
L 27.231268 23.397447 
L 27.268469 23.288995 
L 27.336108 23.428603 
L 27.430803 23.483772 
L 27.451094 23.460571 
L 27.586372 23.339453 
L 27.464622 23.465471 
L 27.589754 23.344975 
L 27.667539 23.333885 
L 27.70474 23.394988 
L 27.775761 23.311918 
L 27.728414 23.426893 
L 27.840018 23.351619 
L 27.992206 23.527348 
L 27.853546 23.339127 
L 27.99897 23.507026 
L 28.002352 23.494871 
L 28.066609 23.634304 
L 28.076754 23.623111 
L 28.198504 23.680255 
L 28.20865 23.674177 
L 28.215414 23.657749 
L 28.272907 23.768814 
L 28.276289 23.769529 
L 28.411567 23.95972 
L 28.425095 23.937852 
L 28.428477 23.932818 
L 28.462296 24.061056 
L 28.648303 24.464176 
L 28.655067 24.461727 
L 28.699033 24.432555 
L 28.742998 24.566474 
L 28.74638 24.565968 
L 28.824165 24.608647 
L 28.790345 24.517049 
L 28.857984 24.56332 
L 28.86813 24.593313 
L 28.979734 24.530967 
L 29.385568 24.588312 
L 29.395713 24.548937 
L 29.500554 24.452394 
L 29.5107 24.518241 
L 29.666269 24.674668 
L 29.561429 24.4545 
L 29.676415 24.639923 
L 29.767728 24.629652 
L 29.703471 24.67324 
L 29.784637 24.650146 
L 29.865804 24.668535 
L 29.896242 24.618749 
L 29.990936 24.574002 
L 30.004464 24.624535 
L 30.021374 24.661784 
L 30.072103 24.560706 
L 30.10254 24.588036 
L 30.22429 24.455977 
L 30.237818 24.460797 
L 30.349422 24.32956 
L 30.403533 24.287581 
L 30.447499 24.380653 
L 30.450881 24.373718 
L 30.50161 24.312247 
L 30.562485 24.383723 
L 30.690999 24.297205 
L 30.758638 24.290403 
L 30.7282 24.226727 
L 30.789075 24.250838 
L 30.88377 24.244425 
L 30.90068 24.306155 
L 31.029194 24.398429 
L 31.090069 24.441014 
L 31.137416 24.370045 
L 31.147562 24.381358 
L 31.303131 24.253462 
L 31.502666 24.468863 
L 31.516194 24.433584 
L 31.533104 24.378658 
L 31.610888 24.477031 
L 31.634562 24.430519 
L 31.681909 24.496113 
L 31.722493 24.412056 
L 31.749548 24.4668 
L 32.057305 24.411587 
L 32.064069 24.429849 
L 32.111416 24.541353 
L 32.179055 24.459897 
L 32.270368 24.499948 
L 32.297423 24.409711 
L 32.371826 24.304272 
L 32.314333 24.427893 
L 32.422555 24.407661 
L 32.425937 24.423275 
L 32.480048 24.309468 
L 32.524014 24.374212 
L 32.679583 24.182385 
L 32.706639 24.158117 
L 32.801333 24.233132 
L 33.014396 24.300766 
L 33.03807 24.317348 
L 33.092181 24.235046 
L 33.119236 24.291158 
L 33.136146 24.261814 
L 33.200403 24.337418 
L 33.224077 24.323468 
L 33.271424 24.418507 
L 33.234223 24.302141 
L 33.342445 24.332145 
L 33.40332 24.257732 
L 33.467577 24.299219 
L 33.545362 24.410444 
L 33.596091 24.336106 
L 33.76857 24.327683 
L 33.606237 24.357853 
L 33.771952 24.33239 
L 33.775334 24.345314 
L 33.849737 24.224558 
L 33.870028 24.277261 
L 34.001924 24.327222 
L 33.876792 24.311008 
L 34.005306 24.35499 
L 34.059417 24.369874 
L 34.100001 24.26052 
L 34.103383 24.269741 
L 34.106765 24.280042 
L 34.157494 24.199912 
L 34.201459 24.213488 
L 34.543036 24.251139 
L 34.607293 24.231743 
L 34.563327 24.268193 
L 34.647876 24.277074 
L 34.698605 24.324449 
L 34.658022 24.259169 
L 34.752716 24.25226 
L 34.756098 24.247736 
L 34.766244 24.302781 
L 34.827119 24.318224 
L 34.93196 24.415762 
L 34.952251 24.388786 
L 34.979307 24.331272 
L 35.023272 24.42483 
L 35.060474 24.391153 
L 35.128112 24.426377 
L 35.067237 24.388122 
L 35.172078 24.393271 
L 35.209279 24.360674 
L 35.273536 24.449673 
L 35.374995 24.49499 
L 35.395286 24.466942 
L 35.510272 24.378137 
L 35.520418 24.390053 
L 35.655696 24.477386 
L 35.659078 24.463672 
L 35.66246 24.456734 
L 35.692897 24.520242 
L 35.750391 24.52656 
L 35.780828 24.556831 
L 35.80112 24.490749 
L 35.858613 24.499454 
L 35.865377 24.517445 
L 35.997273 24.413069 
L 36.122405 24.386749 
L 36.179898 24.277693 
L 36.234009 24.351146 
L 36.267828 24.436293 
L 36.315176 24.308051 
L 36.335467 24.322848 
L 36.436926 24.254593 
L 36.352377 24.338915 
L 36.453835 24.272436 
L 36.595877 24.368254 
L 36.677044 24.424931 
L 36.700717 24.338873 
L 36.842759 24.275491 
L 36.852905 24.280621 
L 37.062586 24.341314 
L 37.076113 24.379408 
L 37.133607 24.269954 
L 37.164044 24.290134 
L 37.268884 24.196646 
L 37.170808 24.306777 
L 37.289176 24.226331 
L 37.299322 24.236149 
L 37.353433 24.130237 
L 37.356815 24.140211 
L 37.4346 24.059292 
L 37.475183 24.104447 
L 37.607079 24.029649 
L 37.613843 24.052037 
L 37.69501 23.9807 
L 37.634135 24.06736 
L 37.735593 24.052455 
L 37.762649 24.104415 
L 37.806614 24.031311 
L 37.843815 24.063045 
L 37.850579 24.040483 
L 37.911454 24.088534 
L 37.952038 24.079131 
L 38.016295 24.157709 
L 38.056878 24.101394 
L 38.067024 24.138086 
L 38.144809 24.027892 
L 38.242885 23.944201 
L 38.273322 24.021357 
L 38.300378 24.05051 
L 38.364635 23.92348 
L 38.368017 23.928444 
L 38.621663 23.739506 
L 38.384927 23.953937 
L 38.625045 23.761408 
L 38.645337 23.841934 
L 38.740031 23.7882 
L 39.037642 23.900804 
L 39.041024 23.883054 
L 39.074844 23.900358 
L 39.15601 23.862006 
L 39.230413 23.91589 
L 39.254087 23.828815 
L 39.260851 23.84183 
L 39.379219 23.735282 
L 39.382601 23.756338 
L 39.497587 23.929461 
L 39.541552 23.889842 
L 39.724177 23.82124 
L 39.852691 23.653367 
L 39.862837 23.707551 
L 40.021789 23.57887 
L 40.052226 23.633553 
L 40.261907 23.610068 
L 40.359983 23.629239 
L 40.3194 23.695669 
L 40.363365 23.654031 
L 40.498643 23.830639 
L 40.525699 23.790204 
L 40.600102 23.878948 
L 40.735379 23.802763 
L 40.606865 23.886825 
L 40.752289 23.840037 
L 40.884185 23.866419 
L 40.897713 23.822658 
L 40.985643 23.762672 
L 41.016081 23.787744 
L 41.435442 24.157144 
L 41.046518 23.755322 
L 41.445588 24.12924 
L 41.547046 24.110734 
L 41.499699 24.177123 
L 41.557192 24.130683 
L 41.563956 24.122811 
L 41.739817 24.184378 
L 41.851422 24.100463 
L 41.854804 24.136544 
L 41.905533 24.185 
L 41.956262 24.089035 
L 42.054338 24.065583 
L 42.061102 24.016428 
L 42.192998 23.94981 
L 42.328276 24.125192 
L 42.338422 24.106141 
L 42.608978 24.085454 
L 42.727346 24.104922 
L 42.666471 24.021107 
L 42.730728 24.09998 
L 42.83895 24.066568 
L 42.751019 24.137807 
L 42.849096 24.084623 
L 42.859242 24.125807 
L 42.893061 24.035019 
L 42.953936 24.05313 
L 43.119652 23.975067 
L 42.97761 24.089548 
L 43.123033 23.99725 
L 43.244784 24.110291 
L 43.248165 24.107783 
L 43.522103 24.213155 
L 43.640471 24.14425 
L 43.772367 24.256602 
L 43.796041 24.234633 
L 43.900881 24.244681 
L 43.82986 24.288071 
L 43.904263 24.259519 
L 43.975284 24.26629 
L 44.002339 24.225866 
L 44.005721 24.209383 
L 44.086888 24.310557 
L 44.093652 24.302974 
L 44.168055 24.338662 
L 44.191728 24.25004 
L 44.198492 24.273178 
L 44.303333 24.261491 
L 44.21202 24.290695 
L 44.323624 24.286831 
L 44.421701 24.391238 
L 44.445374 24.366203 
L 44.523159 24.399875 
L 44.462284 24.396894 
L 44.533305 24.434441 
L 44.665201 24.529152 
L 44.57727 24.419356 
L 44.668583 24.510042 
L 44.702402 24.454484 
L 44.770041 24.541979 
L 44.786951 24.470623 
L 44.817389 24.417807 
L 44.918847 24.520863 
L 44.956048 24.535287 
L 45.040597 24.474766 
L 45.206312 24.499977 
L 45.054125 24.447441 
L 45.216458 24.471462 
L 45.328062 24.372812 
L 45.240132 24.510158 
L 45.382174 24.434298 
L 45.46334 24.468652 
L 45.392319 24.420206 
L 45.493778 24.415095 
L 45.615528 24.334489 
L 45.514069 24.432247 
L 45.61891 24.340378 
L 45.852264 24.435171 
L 45.855646 24.431039 
L 45.987542 24.285645 
L 46.163403 24.411769 
L 46.173549 24.405261 
L 46.34941 24.226171 
L 46.190459 24.423299 
L 46.379848 24.296128 
L 46.491452 24.31914 
L 46.450869 24.219994 
L 46.494834 24.312859 
L 46.572619 24.265385 
L 46.606438 24.304254 
L 46.619966 24.371775 
L 46.704515 24.237631 
L 46.707897 24.255229 
L 46.829647 24.152912 
L 46.833029 24.16428 
L 47.005508 24.06429 
L 47.012272 24.087742 
L 47.123876 24.123778 
L 47.049473 24.059049 
L 47.134022 24.084325 
L 47.350466 24.286164 
L 47.140786 24.071996 
L 47.363994 24.253069 
L 47.475598 24.223596 
L 47.407959 24.290168 
L 47.47898 24.236601 
L 47.614258 24.323473 
L 47.769828 24.516359 
L 47.800265 24.466731 
L 48.060675 24.292338 
L 48.077585 24.348397 
L 48.108022 24.28004 
L 48.199335 24.393067 
L 48.256828 24.322737 
L 48.300793 24.425069 
L 48.307557 24.414735 
L 48.337995 24.464063 
L 48.415779 24.394266 
L 48.510474 24.498305 
L 48.534148 24.562785 
L 48.598404 24.475871 
L 48.622078 24.511159 
L 48.689717 24.421179 
L 48.804703 24.368906 
L 48.808085 24.382493 
L 48.929835 24.372048 
L 48.875724 24.441697 
L 48.936599 24.393911 
L 49.021148 24.574431 
L 49.075259 24.488263 
L 49.098933 24.44383 
L 49.149662 24.57995 
L 49.169953 24.578884 
L 49.227446 24.644282 
L 49.288322 24.591752 
L 49.464183 24.57965 
L 49.535204 24.720983 
L 49.582551 24.614568 
L 49.680627 24.565604 
L 49.623134 24.673559 
L 49.694155 24.613233 
L 49.839579 24.657289 
L 49.856489 24.585914 
L 49.988384 24.466857 
L 50.001912 24.479725 
L 50.130426 24.488487 
L 50.042496 24.437182 
L 50.133808 24.486289 
L 50.13719 24.474572 
L 50.225121 24.568037 
L 50.3976 24.705559 
L 50.431419 24.649703 
L 50.495676 24.585356 
L 50.553169 24.620134 
L 50.563315 24.600953 
L 50.739176 24.726922 
L 50.840635 24.648421 
L 50.860927 24.695033 
L 50.8846 24.660836 
L 51.033406 24.723807 
L 51.148392 24.646425 
L 51.094281 24.745494 
L 51.155156 24.673335 
L 51.287052 24.796683 
L 51.182211 24.638314 
L 51.297198 24.752767 
L 51.567753 24.782811 
L 51.571135 24.750396 
L 51.696267 24.679376 
L 51.706413 24.684446 
L 51.818017 24.829533 
L 51.726705 24.659117 
L 51.872128 24.721527 
L 51.976969 24.574718 
L 51.885656 24.742622 
L 52.054754 24.660851 
L 52.061517 24.674769 
L 52.122393 24.595348 
L 52.159594 24.633428 
L 52.213705 24.603989 
L 52.223851 24.550268 
L 52.267816 24.475333 
L 52.332073 24.549046 
L 52.447059 24.638855 
L 52.365893 24.504498 
L 52.457205 24.623651 
L 52.619539 24.504523 
L 52.463969 24.629903 
L 52.63983 24.519789 
L 52.720997 24.501405 
L 52.646594 24.510513 
L 52.734525 24.466002 
L 52.802164 24.426334 
L 52.835983 24.497534 
L 53.008462 24.674472 
L 53.011844 24.652056 
L 53.076101 24.528673 
L 53.130213 24.558832 
L 53.214761 24.643917 
L 53.140358 24.555558 
L 53.248581 24.602599 
L 53.370331 24.527526 
L 53.373713 24.516238 
L 53.427824 24.632719 
L 53.458261 24.620924 
L 53.644268 24.477173 
L 53.708525 24.533479 
L 53.755873 24.46457 
L 53.837039 24.403551 
L 53.7694 24.479994 
L 53.864095 24.485835 
L 53.985845 24.559064 
L 53.894532 24.466698 
L 53.989227 24.553343 
L 54.083921 24.555899 
L 54.100831 24.584757 
L 54.658852 24.38114 
L 54.107595 24.599219 
L 54.668998 24.41798 
L 54.800894 24.516983 
L 54.675762 24.414166 
L 54.807658 24.504987 
L 54.902352 24.436511 
L 54.848241 24.541588 
L 54.926026 24.492899 
L 55.047776 24.414681 
L 55.084977 24.490066 
L 55.179672 24.53996 
L 55.210109 24.517426 
L 55.355533 24.395886 
L 55.358915 24.407137 
L 55.517867 24.319427 
L 55.389353 24.454328 
L 55.521249 24.33234 
L 55.57536 24.301707 
L 55.66329 24.39913 
L 55.795186 24.297047 
L 55.930464 24.321116 
L 55.94061 24.288752 
L 56.031922 24.20022 
L 56.06236 24.240219 
L 56.129999 24.312201 
L 56.177346 24.259701 
L 56.28895 24.319513 
L 56.319388 24.279497 
L 56.430992 24.189801 
L 56.437756 24.209576 
L 56.44452 24.218608 
L 56.485103 24.105136 
L 56.518923 24.117646 
L 56.613617 24.145453 
L 56.650819 24.082516 
L 56.698166 24.060413 
L 56.742131 24.163082 
L 56.748895 24.158539 
L 56.762423 24.154446 
L 56.779333 24.071366 
L 56.789478 24.063838 
L 56.799624 24.047889 
L 56.833444 24.181683 
L 56.894319 24.096827 
L 57.489541 24.078393 
L 57.55718 24.101674 
L 57.519979 24.045035 
L 57.591 24.041381 
L 57.787153 23.946874 
L 57.790534 23.969684 
L 57.895375 24.017524 
L 57.814208 23.915954 
L 57.905521 24.008475 
L 58.020507 23.78046 
L 58.06109 23.836937 
L 58.206514 24.000907 
L 58.101674 23.812409 
L 58.220042 23.992759 
L 58.341792 23.966726 
L 58.351938 24.021954 
L 58.358701 24.053378 
L 58.429722 23.954519 
L 58.453396 23.967476 
L 58.571764 24.033816 
L 58.47707 23.951718 
L 58.592056 24.024135 
L 58.707042 23.951497 
L 58.723952 23.976179 
L 58.815264 23.968188 
L 58.832174 24.022589 
L 58.957306 24.058323 
L 59.058764 24.084494 
L 58.987743 24.014432 
L 59.06891 24.044796 
L 59.214334 23.933456 
L 59.22448 23.975612 
L 59.227862 23.980195 
L 59.265063 23.86096 
L 59.271827 23.877472 
L 59.285355 23.815054 
L 59.383431 23.873168 
L 59.559292 23.903904 
L 59.393577 23.856821 
L 59.57282 23.868738 
L 59.738536 23.790427 
L 59.741917 23.809066 
L 59.809556 23.833151 
L 59.755445 23.801222 
L 59.853522 23.82252 
L 59.95498 23.827788 
L 59.890723 23.914577 
L 59.958362 23.837438 
L 59.965126 23.866379 
L 60.032765 23.709629 
L 60.05982 23.758893 
L 60.164661 23.694988 
L 60.107168 23.803599 
L 60.188334 23.716795 
L 60.289793 23.853276 
L 60.316848 23.824047 
L 61.074404 23.57315 
L 60.326994 23.851038 
L 61.077786 23.587833 
L 61.179245 23.612338 
L 61.094696 23.562622 
L 61.199536 23.548466 
L 61.331432 23.45318 
L 61.213064 23.556446 
L 61.355106 23.489685 
L 61.443036 23.514799 
L 61.385543 23.448327 
L 61.463328 23.483784 
L 61.564787 23.395058 
L 61.629044 23.365971 
L 61.57155 23.404621 
L 61.666245 23.435566 
L 61.835342 23.450918 
L 61.909745 23.507558 
L 61.86578 23.42447 
L 61.946946 23.448634 
L 62.028113 23.46936 
L 62.041641 23.525397 
L 62.065315 23.549266 
L 62.129572 23.463396 
L 62.132954 23.468927 
L 62.302051 23.31266 
L 62.379836 23.425411 
L 62.420419 23.374332 
L 62.504968 23.31258 
L 62.525259 23.40349 
L 62.70112 23.34052 
L 62.704502 23.316499 
L 62.73494 23.451989 
L 62.795815 23.447388 
L 62.816107 23.48563 
L 63.093426 23.227581 
L 63.191503 23.251683 
L 63.13401 23.151498 
L 63.20503 23.229335 
L 63.340308 23.156146 
L 63.259142 23.287336 
L 63.353836 23.181578 
L 63.367364 23.206963 
L 63.407947 23.132369 
L 63.455295 23.142317 
L 63.773197 22.980518 
L 63.911857 22.778292 
L 63.945677 22.807166 
L 64.050517 22.8351 
L 64.009934 22.898609 
L 64.053899 22.850502 
L 64.145212 22.881637 
L 64.111392 22.826509 
L 64.162121 22.828371 
L 64.283871 22.743308 
L 64.182413 22.865 
L 64.300781 22.786588 
L 64.361656 22.913154 
L 64.449587 22.807179 
L 64.510462 22.781776 
L 64.561191 22.838322 
L 64.564573 22.84754 
L 64.62883 22.771605 
L 64.649122 22.773972 
L 64.787781 22.651097 
L 65.065101 22.511701 
L 64.804691 22.676425 
L 65.078629 22.55674 
L 65.14965 22.522998 
L 65.196997 22.620479 
L 65.585921 22.465342 
L 65.592685 22.49699 
L 65.596067 22.504043 
L 65.656942 22.393467 
L 65.660323 22.398157 
L 65.890296 22.014417 
L 65.927497 22.043759 
L 65.981608 21.910991 
L 65.988372 21.921929 
L 66.285984 21.735088 
L 66.414498 21.484273 
L 66.417879 21.488622 
L 66.455081 21.422752 
L 66.458463 21.387394 
L 66.674907 20.097659 
L 66.691817 18.061769 
L 66.701963 8.641777 
L 66.786512 23.994149 
L 66.796657 23.918399 
L 66.962373 20.967318 
L 66.999574 16.64419 
L 67.006338 9.05097 
L 67.101033 24.337303 
L 67.104415 24.323601 
L 67.199109 23.180548 
L 67.327623 19.2193 
L 67.337769 9.225429 
L 67.425699 24.313039 
L 67.432463 24.382515 
L 67.49672 23.726571 
L 67.648908 20.228238 
L 67.662436 18.094923 
L 67.6692 9.266208 
L 67.763894 24.435854 
L 67.767276 24.427529 
L 67.834915 23.726676 
L 67.949901 21.461594 
L 68.004012 18.725155 
L 68.014158 9.275023 
L 68.108853 24.510313 
L 68.112235 24.512638 
L 68.125762 24.413903 
L 68.284714 22.004333 
L 68.362499 18.262541 
L 68.369262 9.181058 
L 68.467339 24.616544 
L 68.511304 24.291545 
L 68.724367 20.326803 
L 68.741277 17.45339 
L 68.74804 9.103627 
L 68.846117 24.693904 
L 68.944193 23.843196 
L 69.089617 21.299574 
L 69.140346 18.991839 
L 69.150492 9.058963 
L 69.241805 24.745136 
L 69.245187 24.765601 
L 69.299298 24.433403 
L 69.508978 21.395015 
L 69.573235 18.495343 
L 69.583381 9.05654 
L 69.678076 24.798025 
L 69.820117 23.595182 
L 70.026416 19.591973 
L 70.039944 8.982452 
L 70.114347 23.894631 
L 70.134638 24.818939 
L 70.225951 24.197801 
L 70.25977 23.894477 
L 70.506653 19.931519 
L 70.52018 10.686375 
L 70.523562 8.947012 
L 70.601347 24.360989 
L 70.618257 24.854475 
L 70.709569 24.247417 
L 71.02409 19.468636 
L 71.037618 8.96152 
L 71.112021 24.328804 
L 71.128931 24.829363 
L 71.220243 24.2463 
L 71.413014 21.980149 
L 71.565202 18.950346 
L 71.575348 8.945428 
L 71.66666 24.807586 
L 71.670042 24.810921 
L 71.693716 24.682577 
L 71.828994 23.492115 
L 72.126605 18.352025 
L 72.136751 8.980573 
L 72.224681 24.793819 
L 72.231445 24.756239 
L 72.359959 23.771492 
L 72.684626 17.865817 
L 72.694772 9.003127 
L 72.782702 24.813221 
L 72.789466 24.793072 
L 72.843577 24.445444 
L 73.262939 19.853236 
L 73.276467 13.323867 
L 73.28323 8.989121 
L 73.367779 24.809897 
L 73.377925 24.771086 
L 73.506439 23.77507 
L 73.881835 18.695732 
L 73.891981 8.968634 
L 73.979911 24.769881 
L 73.983293 24.763086 
L 74.22003 22.551862 
L 74.483821 17.572367 
L 74.493967 9.022305 
L 74.581898 24.787867 
L 74.588662 24.748544 
L 74.70703 23.871777 
L 75.018169 20.84966 
L 75.028315 20.768317 
L 75.102718 18.899039 
L 75.112863 9.03269 
L 75.200794 24.779688 
L 75.234613 24.606 
L 75.721614 19.321917 
L 75.735141 8.956246 
L 75.806162 24.49235 
L 75.81969 24.80435 
L 75.911003 24.229562 
L 76.384475 18.692501 
L 76.394621 9.001147 
L 76.47917 24.781367 
L 76.485934 24.756756 
L 76.489316 24.758661 
L 76.506225 24.649491 
L 76.759871 22.16616 
L 77.023663 18.130815 
L 77.033809 8.965398 
L 77.118358 24.822872 
L 77.128503 24.781271 
L 77.324656 23.079254 
L 77.69667 19.288878 
L 77.710198 8.996425 
L 77.781219 24.567801 
L 77.791365 24.79151 
L 77.879295 24.202695 
L 78.325712 19.678309 
L 78.342622 8.960997 
L 78.403497 22.58811 
L 78.430553 24.848659 
L 78.518483 24.282778 
L 79.042685 18.518597 
L 79.052831 9.026486 
L 79.137379 24.784631 
L 79.144143 24.744964 
L 79.320005 23.228532 
L 79.556741 21.132997 
L 79.695401 18.810739 
L 79.705546 8.994847 
L 79.790095 24.847654 
L 79.793477 24.840348 
L 80.020067 22.921921 
L 80.439429 17.968355 
L 80.449575 9.013331 
L 80.530741 24.767766 
L 80.544269 24.712151 
L 80.713366 23.233671 
L 81.075235 19.258616 
L 81.088762 8.914453 
L 81.163165 24.749242 
L 81.176693 24.890933 
L 81.25786 24.375689 
L 81.62311 21.226274 
L 81.785443 20.228581 
L 81.812499 18.472546 
L 81.822645 8.979085 
L 81.907193 24.823119 
L 81.913957 24.806551 
L 82.495652 19.422837 
L 82.512562 8.984055 
L 82.573437 23.875683 
L 82.593729 24.848866 
L 82.685041 24.280325 
L 83.232916 19.025122 
L 83.246444 8.960672 
L 83.327611 24.837512 
L 83.432451 24.132793 
L 83.726681 21.376574 
L 83.895778 19.970861 
L 83.912688 14.682208 
L 83.919451 8.893307 
L 84.007382 24.911379 
L 84.014146 24.879813 
L 84.081785 24.470792 
L 84.487618 21.075991 
L 84.491 21.082044 
L 84.653334 19.931523 
L 84.670244 16.1196 
L 84.677007 9.006692 
L 84.764938 24.82778 
L 84.775084 24.780154 
L 85.400744 19.383611 
L 85.417654 8.996081 
L 85.481911 24.385934 
L 85.502202 24.836732 
L 85.586751 24.237623 
L 86.012876 20.577042 
L 86.060223 19.445671 
L 86.077133 8.970766 
L 86.14139 24.237707 
L 86.165064 24.924129 
L 86.252994 24.355159 
L 86.408564 22.835549 
L 86.733231 20.732168 
L 86.824543 19.666471 
L 86.838071 12.270235 
L 86.844835 8.983691 
L 86.929384 24.83288 
L 86.932766 24.811162 
L 87.02746 24.144212 
L 87.504315 19.408794 
L 87.517842 8.935378 
L 87.585481 24.270091 
L 87.605773 24.913398 
L 87.697085 24.360672 
L 88.319364 19.346147 
L 88.336273 9.005974 
L 88.397148 24.151567 
L 88.414058 24.786607 
L 88.505371 24.196077 
L 88.620357 23.076109 
L 88.884149 20.90805 
L 88.887531 20.918604 
L 88.924732 20.69054 
L 88.988989 19.416019 
L 89.002517 8.968652 
L 89.070156 24.303985 
L 89.087065 24.899015 
L 89.178378 24.364858 
L 89.70258 19.804545 
L 89.716107 15.313443 
L 89.722871 8.921917 
L 89.814184 24.88981 
L 89.820948 24.835963 
L 90.003573 23.399159 
L 90.226781 21.444986 
L 90.473663 19.026508 
L 90.487191 8.963064 
L 90.564976 24.813284 
L 90.568358 24.83443 
L 90.625851 24.494644 
L 91.068886 20.696676 
L 91.068886 20.696676 
" clip-path="url(#pc998609462)" style="fill: none; stroke: #000000; stroke-width: 0.6; stroke-linecap: square"/>
   </g>
   <g id="line2d_2">
    <path d="M 9.905557 39.060748 
L 10.098328 38.949469 
L 10.209932 39.026054 
L 10.220078 39.013203 
L 10.453432 39.073981 
L 10.551509 39.087911 
L 10.510925 39.029563 
L 10.561655 39.060893 
L 10.659731 39.007929 
L 10.612384 39.073681 
L 10.673259 39.034093 
L 10.693551 39.087105 
L 10.74428 39.005271 
L 10.778099 39.004313 
L 10.784863 39.008227 
L 10.930287 38.871428 
L 11.041891 38.983413 
L 11.072328 38.925248 
L 11.09262 38.943234 
L 11.187315 38.886656 
L 11.302301 38.991196 
L 11.309065 38.972088 
L 11.572857 38.815034 
L 11.589766 38.846384 
L 11.660787 38.869935 
L 11.623586 38.814173 
L 11.694607 38.809255 
L 11.802829 38.854621 
L 11.728426 38.793284 
L 11.816357 38.824699 
L 11.948253 38.714934 
L 12.242482 38.618006 
L 11.96178 38.739897 
L 12.266156 38.66647 
L 12.401433 38.770671 
L 12.279683 38.64898 
L 12.404815 38.761474 
L 12.594204 38.735877 
L 12.597586 38.713429 
L 12.715954 38.67922 
L 12.719336 38.692218 
L 12.763302 38.731428 
L 12.814031 38.648455 
L 12.820795 38.658948 
L 12.945927 38.55512 
L 12.84785 38.681071 
L 12.966218 38.621405 
L 13.784649 38.159911 
L 12.989892 38.669363 
L 13.808323 38.224861 
L 13.903018 38.176128 
L 13.906399 38.167659 
L 14.061969 37.890459 
L 14.092407 37.895817 
L 14.139754 37.804369 
L 14.261504 37.118811 
L 14.291941 35.758906 
L 14.315615 30.026484 
L 14.369726 41.766394 
L 14.420455 42.299185 
L 14.488094 42.143563 
L 14.606462 41.881551 
L 14.626754 41.92981 
L 14.795851 41.696424 
L 14.819525 41.747437 
L 14.900692 41.838478 
L 14.941275 41.770501 
L 15.093463 41.655047 
L 14.954803 41.788299 
L 15.10699 41.677358 
L 15.150956 41.692062 
L 15.188157 41.603167 
L 15.313289 41.470469 
L 15.316671 41.477496 
L 15.330199 41.498188 
L 15.52297 41.215709 
L 15.675157 40.872518 
L 15.688685 40.935549 
L 15.830727 40.741099 
L 15.834109 40.75571 
L 15.945713 40.632903 
L 15.959241 40.656121 
L 16.124956 40.454184 
L 16.13172 40.484062 
L 16.135102 40.493803 
L 16.206123 40.378286 
L 16.334637 40.208532 
L 16.348165 40.231878 
L 16.358311 40.267277 
L 16.436095 40.162013 
L 16.449623 40.123228 
L 16.483443 40.220725 
L 16.5477 40.144427 
L 16.551081 40.159922 
L 16.628866 40.023751 
L 16.632248 40.025387 
L 16.662686 40.00223 
L 16.686359 40.096351 
L 16.737089 40.058297 
L 16.868984 39.932243 
L 16.940005 39.887906 
L 16.89604 39.94344 
L 16.977207 39.948883 
L 17.163214 39.880076 
L 17.193651 39.935809 
L 17.342457 40.10416 
L 17.413478 40.040051 
L 17.53861 39.971353 
L 17.673888 40.103794 
L 17.589339 39.93539 
L 17.690797 40.056843 
L 17.873422 40.010579 
L 17.876804 39.990035 
L 17.971499 39.893955 
L 17.998554 39.926563 
L 18.018846 39.984046 
L 18.150742 39.931151 
L 18.248819 39.968218 
L 18.258964 39.917478 
L 18.698617 40.006403 
L 18.749347 39.928244 
L 18.810222 40.002883 
L 18.952263 39.894792 
L 19.077395 39.80988 
L 18.959027 39.903085 
L 19.087541 39.834977 
L 19.121361 39.902221 
L 19.185618 39.813049 
L 19.202527 39.848336 
L 19.263402 39.805311 
L 19.212673 39.861448 
L 19.31075 39.884739 
L 19.351333 39.83997 
L 19.422354 39.859359 
L 19.469701 39.793196 
L 19.53734 39.875544 
L 19.594833 39.947017 
L 19.652326 39.92402 
L 19.736875 39.772311 
L 19.777458 39.834026 
L 19.875535 39.897078 
L 19.899208 39.852786 
L 19.966847 39.845374 
L 19.933028 39.875726 
L 20.010813 39.861786 
L 20.203583 39.791019 
L 20.274604 39.705777 
L 20.325334 39.758846 
L 20.42341 39.666479 
L 20.332097 39.76905 
L 20.467375 39.701928 
L 20.551924 39.673638 
L 20.558688 39.661769 
L 20.56207 39.631556 
L 20.589125 39.728855 
L 20.670292 39.653359 
L 20.764987 39.702723 
L 20.710875 39.602355 
L 20.798806 39.683177 
L 20.80557 39.684562 
L 20.920556 39.626099 
L 21.03216 39.714201 
L 21.04907 39.699988 
L 21.15391 39.669393 
L 21.167438 39.72193 
L 21.17082 39.733928 
L 21.248605 39.616691 
L 21.251987 39.621535 
L 21.268897 39.633059 
L 21.424466 39.558276 
L 21.481959 39.64229 
L 21.559744 39.551004 
L 21.65782 39.458085 
L 21.573272 39.558497 
L 21.684876 39.481278 
L 21.745751 39.492414 
L 21.766043 39.401817 
L 21.789716 39.456636 
L 21.853973 39.496501 
L 21.904702 39.445465 
L 22.236133 39.257858 
L 21.911466 39.454506 
L 22.263189 39.309158 
L 22.486397 39.452055 
L 22.557418 39.357006 
L 22.601383 39.412485 
L 22.709606 39.416124 
L 22.719752 39.379733 
L 22.855029 39.332891 
L 22.78739 39.424633 
L 22.858411 39.3385 
L 22.980161 39.354869 
L 23.037654 39.396787 
L 23.088384 39.326885 
L 23.128967 39.253925 
L 23.18646 39.365443 
L 23.193224 39.342599 
L 23.223662 39.370133 
L 23.250717 39.296187 
L 23.294682 39.305524 
L 23.389377 39.349581 
L 23.396141 39.371899 
L 23.46378 39.483596 
L 23.521273 39.425284 
L 23.639641 39.373228 
L 23.531419 39.445828 
L 23.653169 39.38362 
L 23.67346 39.437872 
L 23.727571 39.335231 
L 23.764773 39.377838 
L 23.835794 39.334208 
L 23.872995 39.401934 
L 24.062384 39.491675 
L 24.079294 39.459704 
L 24.096204 39.387331 
L 24.197662 39.424524 
L 24.461454 39.239683 
L 24.204426 39.434706 
L 24.515565 39.341512 
L 24.529093 39.381306 
L 24.610259 39.293752 
L 24.623787 39.331973 
L 24.73201 39.247603 
L 24.650843 39.346278 
L 24.745537 39.278496 
L 24.752301 39.29849 
L 24.840232 39.198625 
L 24.843614 39.209377 
L 25.019475 39.273594 
L 25.026239 39.25735 
L 25.208864 39.129472 
L 25.215628 39.134993 
L 25.256211 39.12436 
L 25.337378 39.177627 
L 25.624843 39.131326 
L 25.638371 39.182771 
L 25.682336 39.2064 
L 25.733066 39.105849 
L 25.73983 39.118635 
L 25.854816 39.010649 
L 25.86158 39.012978 
L 25.871725 39.026772 
L 25.912309 38.925316 
L 25.956274 38.959719 
L 25.973184 38.921856 
L 26.040823 39.051719 
L 26.050969 39.039911 
L 26.08817 39.045593 
L 26.138899 38.978984 
L 26.145663 38.98419 
L 26.277559 38.780499 
L 26.159191 38.999395 
L 26.328288 38.814345 
L 26.433129 38.81212 
L 26.446656 38.774795 
L 26.534587 38.748407 
L 26.510913 38.789557 
L 26.554879 38.790816 
L 26.673247 38.708027 
L 26.71383 38.758297 
L 26.761177 38.764198 
L 26.791615 38.670128 
L 26.984386 38.463599 
L 26.994532 38.502002 
L 26.997914 38.515141 
L 27.048643 38.429881 
L 27.102754 38.483892 
L 27.241414 38.439287 
L 27.156865 38.558548 
L 27.248178 38.462651 
L 27.353018 38.545705 
L 27.366546 38.518369 
L 27.819727 38.306883 
L 27.975296 38.112573 
L 27.995588 38.130795 
L 28.046317 37.995282 
L 28.22556 37.719761 
L 28.24247 37.76948 
L 28.299963 37.646715 
L 28.428477 36.381999 
L 28.458914 30.427524 
L 28.496116 39.703928 
L 28.560373 42.011154 
L 28.617866 41.837245 
L 28.655067 41.775083 
L 28.628012 41.791341 
L 28.665213 41.73787 
L 28.830928 41.326823 
L 28.837692 41.329895 
L 28.841074 41.34044 
L 28.901949 41.19207 
L 28.97297 41.074644 
L 29.030463 41.092873 
L 29.104866 40.92782 
L 29.240144 40.781276 
L 29.277345 40.822039 
L 29.490408 40.336962 
L 29.524227 40.234979 
L 29.673033 40.035345 
L 29.676415 40.042513 
L 29.747436 40.04254 
L 29.683179 40.020476 
L 29.767728 39.980815 
L 29.865804 39.974339 
L 29.831985 40.036529 
L 29.879332 39.990866 
L 29.886096 40.008052 
L 29.940207 39.83572 
L 29.953735 39.847844 
L 30.075485 39.721645 
L 30.082249 39.751586 
L 30.153269 39.671808 
L 30.251346 39.465222 
L 30.302075 39.486298 
L 30.613214 39.585318 
L 30.619978 39.542998 
L 30.772166 39.365902 
L 30.626742 39.549578 
L 30.77893 39.379194 
L 30.920971 39.424281 
L 30.785693 39.365161 
L 30.931117 39.376217 
L 30.941263 39.306429 
L 31.039339 39.407616 
L 31.106978 39.387507 
L 31.134034 39.433977 
L 31.147562 39.422816 
L 31.157707 39.37382 
L 31.313277 39.357303 
L 31.316659 39.33865 
L 31.40459 39.439848 
L 31.414735 39.410214 
L 31.901736 39.547141 
L 31.905118 39.533298 
L 31.965993 39.666297 
L 31.986284 39.665942 
L 32.070833 39.590883 
L 32.074215 39.563252 
L 32.168909 39.614546 
L 32.179055 39.610529 
L 32.192583 39.649697 
L 32.229784 39.561086 
L 32.290659 39.600891 
L 32.36168 39.560054 
L 32.310951 39.613947 
L 32.402264 39.612378 
L 32.527396 39.509848 
L 32.561215 39.534072 
L 32.689729 39.656767 
L 32.696493 39.641849 
L 32.814861 39.56287 
L 32.8825 39.555476 
L 32.906174 39.498098 
L 32.909556 39.504995 
L 33.619764 39.337478 
L 33.623146 39.35731 
L 33.680639 39.269932 
L 33.724605 39.304783 
L 33.863265 39.355529 
L 33.748278 39.284635 
L 33.870028 39.334764 
L 33.998542 39.322261 
L 34.001924 39.330815 
L 34.01207 39.344785 
L 34.039126 39.257679 
L 34.103383 39.288842 
L 34.147348 39.260933 
L 34.208223 39.314783 
L 34.360411 39.466064 
L 34.384084 39.401431 
L 34.509216 39.425075 
L 34.512598 39.442339 
L 34.597147 39.510079 
L 34.526126 39.437014 
L 34.627584 39.458211 
L 34.742571 39.359309 
L 34.752716 39.407619 
L 34.786536 39.375873 
L 34.864321 39.419664 
L 34.996217 39.325445 
L 35.009744 39.34582 
L 35.0368 39.339404 
L 35.14164 39.423022 
L 35.317501 39.3367 
L 35.956689 39.255929 
L 36.007418 39.270374 
L 36.041238 39.175266 
L 36.048002 39.189924 
L 36.203571 39.07185 
L 36.206953 39.073883 
L 36.450453 39.048944 
L 36.572203 39.151431 
L 36.616169 39.1792 
L 36.585731 39.124415 
L 36.683808 39.136719 
L 36.710863 39.095523 
L 36.754829 39.162603 
L 36.79203 39.149345 
L 36.961127 39.178176 
L 37.06935 39.056921 
L 36.994947 39.205676 
L 37.086259 39.089537 
L 37.251975 39.194437 
L 37.099787 39.065129 
L 37.268884 39.169399 
L 37.410926 39.094093 
L 37.414308 39.097517 
L 37.525912 39.205664 
L 37.448128 39.084435 
L 37.549586 39.148168 
L 37.681482 39.131642 
L 37.691628 39.102014 
L 37.766031 38.993457 
L 37.81676 39.036828 
L 37.945274 39.166901 
L 37.948656 39.159979 
L 38.07717 38.983717 
L 38.090697 39.005839 
L 38.121135 39.022104 
L 38.151572 38.94196 
L 38.188774 38.953066 
L 38.533732 39.054582 
L 38.645337 39.098459 
L 38.648719 39.093108 
L 38.740031 39.084097 
L 38.70283 39.148763 
L 38.756941 39.110981 
L 38.871927 39.051774 
L 38.970003 38.993218 
L 38.990295 39.000713 
L 39.162774 38.968629 
L 39.331872 39.068215 
L 39.196594 38.887867 
L 39.335254 39.062302 
L 39.446858 38.976102 
L 39.457004 38.979844 
L 39.548316 38.996538 
L 39.57199 38.984913 
L 39.686976 38.945968 
L 39.632865 39.025556 
L 39.690358 38.963347 
L 39.805344 39.109657 
L 39.818872 39.074477 
L 39.822254 39.079008 
L 39.889893 38.986308 
L 40.052226 38.843405 
L 39.900039 39.003192 
L 40.086046 38.897154 
L 40.177358 38.887731 
L 40.109719 38.828823 
L 40.190886 38.868718 
L 40.292344 38.811936 
L 40.211178 38.893553 
L 40.309254 38.862771 
L 40.42424 38.982596 
L 40.434386 38.958144 
L 40.792872 38.893208 
L 40.796254 38.904866 
L 40.894331 38.999562 
L 40.92815 38.968336 
L 41.019463 38.9548 
L 40.97888 39.011617 
L 41.032991 39.002457 
L 41.060046 38.94515 
L 41.168268 39.086948 
L 41.323838 39.146878 
L 41.202088 39.06287 
L 41.32722 39.139541 
L 41.411769 39.0403 
L 41.445588 39.120709 
L 41.462498 39.175377 
L 41.523373 39.053698 
L 41.550428 39.078688 
L 41.67556 38.977588 
L 41.804074 38.925598 
L 41.83113 38.956754 
L 41.888623 38.831603 
L 41.908915 38.890803 
L 41.929206 38.845765 
L 41.979936 38.96511 
L 42.003609 38.9584 
L 42.034047 39.024617 
L 42.10845 38.937684 
L 42.115213 38.950561 
L 42.118595 38.96112 
L 42.162561 38.875273 
L 42.206526 38.888131 
L 42.328276 38.810815 
L 42.409443 38.882922 
L 42.412825 38.907349 
L 42.893061 39.002114 
L 42.896443 38.984741 
L 42.940408 38.923013 
L 43.008047 38.975468 
L 43.126415 38.943769 
L 43.129797 38.952659 
L 43.251547 39.016968 
L 43.183908 38.927476 
L 43.254929 39.010859 
L 43.576214 38.748668 
L 43.285367 39.041201 
L 43.582978 38.778537 
L 43.697964 38.790579 
L 43.704728 38.776138 
L 43.70811 38.758566 
L 43.772367 38.845136 
L 43.806187 38.822054 
L 43.927937 39.018676 
L 43.948228 38.951943 
L 44.019249 38.871817 
L 43.96852 38.967282 
L 44.056451 38.952724 
L 44.174819 39.045934 
L 44.178201 39.039437 
L 44.276277 39.017921 
L 44.225548 39.076376 
L 44.289805 39.04981 
L 44.57727 38.804749 
L 44.59418 38.843957 
L 44.641527 38.774121 
L 44.709166 38.853222 
L 44.756514 38.898642 
L 44.807243 38.811364 
L 44.864736 38.807024 
L 44.824152 38.861134 
L 44.905319 38.857928 
L 44.99325 38.965805 
L 45.023687 38.918689 
L 45.118382 38.884243 
L 45.091326 38.827316 
L 45.128528 38.87512 
L 45.240132 38.797342 
L 45.270569 38.867171 
L 45.287479 38.929974 
L 45.372028 38.803021 
L 45.456576 38.773447 
L 45.378792 38.79143 
L 45.466722 38.754716 
L 45.470104 38.733245 
L 45.537743 38.816815 
L 45.561417 38.819566 
L 45.629056 38.909679 
L 45.673021 38.826227 
L 45.75757 38.748626 
L 45.818445 38.796261 
L 46.028125 38.740878 
L 46.132966 38.587652 
L 46.153257 38.630227 
L 46.440723 38.674118 
L 46.447487 38.642007 
L 46.457632 38.628071 
L 46.535417 38.725833 
L 46.542181 38.714861 
L 46.613202 38.656649 
L 46.565855 38.736547 
L 46.670695 38.706479 
L 46.822883 38.935033 
L 46.83641 38.915565 
L 46.951397 38.81548 
L 46.97507 38.833622 
L 46.981834 38.814063 
L 47.073147 38.76386 
L 47.140786 38.753539 
L 47.093438 38.825108 
L 47.177987 38.804839 
L 47.249008 38.778874 
L 47.303119 38.863048 
L 47.306501 38.845832 
L 47.39105 38.978017 
L 47.394432 38.973555 
L 47.519564 39.030301 
L 47.536473 38.992811 
L 47.702189 38.846346 
L 47.705571 38.861006 
L 47.793501 38.774661 
L 47.796883 38.786762 
L 47.908487 38.638348 
L 47.922015 38.661101 
L 47.972744 38.712464 
L 47.935543 38.646239 
L 48.033619 38.679284 
L 48.12155 38.629514 
L 48.15537 38.674242 
L 48.327849 38.604271 
L 48.344759 38.640396 
L 48.618696 38.640716 
L 48.696481 38.594053 
L 48.733682 38.621721 
L 48.835141 38.537947 
L 48.933217 38.415192 
L 48.970419 38.467837 
L 49.105696 38.581084 
L 49.119224 38.548272 
L 49.173335 38.500292 
L 49.220683 38.593121 
L 49.37287 38.64828 
L 49.271412 38.539401 
L 49.38978 38.608137 
L 49.61637 38.552435 
L 49.721211 38.531983 
L 49.663718 38.585573 
L 49.731356 38.560526 
L 49.907218 38.599742 
L 49.920745 38.568763 
L 50.042496 38.454346 
L 49.954565 38.617768 
L 50.045877 38.462522 
L 50.475385 38.788532 
L 50.488912 38.753822 
L 50.549787 38.69589 
L 50.590371 38.76701 
L 50.597135 38.751521 
L 50.610663 38.762699 
L 50.651246 38.654579 
L 50.688447 38.673982 
L 50.854163 38.509729 
L 50.857545 38.542721 
L 50.887982 38.479453 
L 50.962385 38.476245 
L 51.050316 38.463044 
L 51.013114 38.509792 
L 51.063843 38.510076 
L 51.175448 38.631781 
L 51.205885 38.595231 
L 51.246468 38.536511 
L 51.320871 38.61229 
L 51.435857 38.640891 
L 51.442621 38.614308 
L 51.466295 38.536979 
L 51.560989 38.587141 
L 51.855219 38.702813 
L 51.92624 38.740253 
L 51.970205 38.72193 
L 52.081809 38.666956 
L 51.976969 38.729139 
L 52.098719 38.7229 
L 52.173122 38.727679 
L 52.115629 38.68683 
L 52.190031 38.685403 
L 52.223851 38.650259 
L 52.271198 38.744643 
L 52.294872 38.719543 
L 52.399712 38.754674 
L 52.321927 38.667727 
L 52.409858 38.732761 
L 52.460587 38.719428 
L 52.50117 38.811029 
L 52.612775 38.871317 
L 52.541754 38.792085 
L 52.616157 38.862263 
L 52.619539 38.874057 
L 52.693941 38.764395 
L 52.700705 38.76584 
L 52.76158 38.812494 
L 52.717615 38.801839 
L 52.781872 38.838116 
L 52.88333 38.863469 
L 52.81231 38.816046 
L 52.896858 38.832191 
L 52.93406 38.770323 
L 53.008462 38.844454 
L 53.218143 38.938103 
L 53.228289 38.917249 
L 53.275636 38.866953 
L 53.312838 38.932517 
L 53.336511 38.919667 
L 53.343275 38.94777 
L 53.431206 38.847479 
L 53.434588 38.825332 
L 53.475171 38.889886 
L 53.539428 38.864768 
L 53.552956 38.856721 
L 53.600303 38.94705 
L 53.644268 38.896841 
L 53.711907 38.98818 
L 53.782928 38.982165 
L 53.766018 38.937762 
L 53.816748 38.961124 
L 53.90806 38.939366 
L 53.870859 38.985038 
L 53.92497 38.97707 
L 53.975699 38.910964 
L 54.050102 39.024043 
L 54.067012 39.065115 
L 54.175234 39.057323 
L 54.276692 39.185686 
L 54.300366 39.125293 
L 55.03763 39.068339 
L 55.041012 39.086538 
L 55.162762 39.224423 
L 55.166144 39.21739 
L 55.179672 39.240224 
L 55.287894 39.144892 
L 55.500957 38.984996 
L 55.304804 39.165421 
L 55.511103 39.015126 
L 55.78504 39.345772 
L 55.517867 39.005571 
L 55.795186 39.33665 
L 55.81886 39.307134 
L 55.889881 39.395071 
L 55.903408 39.348853 
L 55.991339 39.410274 
L 55.913554 39.328242 
L 56.018395 39.383115 
L 56.07927 39.416955 
L 56.113089 39.346215 
L 56.126617 39.3689 
L 56.197638 39.288313 
L 56.238221 39.3666 
L 56.79286 39.319704 
L 56.901083 39.172522 
L 56.799624 39.326229 
L 56.945048 39.207831 
L 57.03636 39.300526 
L 57.063416 39.249366 
L 57.124291 39.300003 
L 57.188548 39.21425 
L 57.628201 39.321457 
L 57.631583 39.301517 
L 57.716132 39.452173 
L 57.831118 39.49927 
L 57.848028 39.492377 
L 57.976542 39.3559 
L 57.868319 39.521179 
L 57.993451 39.397447 
L 58.121965 39.51166 
L 58.128729 39.501952 
L 58.203132 39.51807 
L 58.159167 39.567863 
L 58.223424 39.556209 
L 58.395903 39.703926 
L 58.433104 39.76848 
L 58.473688 39.660056 
L 58.504125 39.691545 
L 58.585292 39.730573 
L 58.625875 39.644037 
L 58.730716 39.727204 
L 58.747625 39.70488 
L 58.811882 39.681932 
L 58.835556 39.778921 
L 58.84232 39.764687 
L 58.882903 39.78469 
L 58.916723 39.696407 
L 58.923486 39.694638 
L 59.045237 39.599948 
L 58.960688 39.702247 
L 59.048619 39.610217 
L 59.19066 39.513744 
L 59.095966 39.67131 
L 59.194042 39.533007 
L 59.278591 39.43762 
L 59.305646 39.403913 
L 59.366521 39.511729 
L 59.474744 39.54021 
L 59.417251 39.473137 
L 59.481508 39.527986 
L 59.613404 39.615673 
L 59.508563 39.493303 
L 59.630313 39.605837 
L 59.873813 39.475575 
L 59.883959 39.509055 
L 60.012473 39.597101 
L 60.019237 39.593841 
L 60.147751 39.602473 
L 60.157897 39.648785 
L 60.181571 39.662218 
L 60.218772 39.577076 
L 60.255973 39.58154 
L 60.485946 39.501476 
L 60.49271 39.539407 
L 60.560348 39.511934 
L 60.617842 39.571495 
L 60.749737 39.592883 
L 60.759883 39.608454 
L 60.844432 39.722036 
L 60.770029 39.602017 
L 60.885015 39.638885 
L 60.99662 39.650432 
L 61.010147 39.697104 
L 61.094696 39.71083 
L 61.074404 39.629553 
L 61.114988 39.67803 
L 61.209682 39.638632 
L 61.125134 39.688958 
L 61.226592 39.685855 
L 61.260411 39.642609 
L 61.341578 39.695493 
L 61.476856 39.569407 
L 61.639189 39.553335 
L 61.497148 39.614967 
L 61.645953 39.579343 
L 61.676391 39.641573 
L 61.754176 39.579569 
L 61.774467 39.574402 
L 61.83196 39.686567 
L 61.892835 39.740527 
L 61.845488 39.672639 
L 61.95371 39.71613 
L 62.058551 39.626933 
L 62.09237 39.733245 
L 62.136335 39.745395 
L 62.170155 39.619066 
L 62.176919 39.644345 
L 62.23103 39.704175 
L 62.295287 39.627365 
L 62.33587 39.625901 
L 62.36969 39.554533 
L 62.471148 39.44857 
L 62.498204 39.50399 
L 62.552315 39.600769 
L 62.623336 39.53016 
L 62.633482 39.518936 
L 62.70112 39.624861 
L 62.829634 39.787337 
L 62.833016 39.765971 
L 62.836398 39.752107 
L 62.917565 39.840411 
L 62.931093 39.817291 
L 63.090044 39.983759 
L 63.110336 40.00356 
L 63.147537 39.918882 
L 63.188121 39.93855 
L 63.299725 39.913584 
L 63.242232 39.965996 
L 63.303107 39.926409 
L 63.387656 40.006695 
L 63.438385 39.94659 
L 63.566899 39.731436 
L 63.573663 39.743757 
L 63.580427 39.759743 
L 63.644684 39.627777 
L 63.648065 39.652461 
L 63.752906 39.578399 
L 63.766434 39.598369 
L 63.888184 39.63874 
L 63.901711 39.593904 
L 63.996406 39.614721 
L 63.915239 39.620887 
L 64.006552 39.649247 
L 64.036989 39.732378 
L 64.128302 39.694861 
L 64.294017 39.622694 
L 64.138448 39.711653 
L 64.300781 39.644471 
L 64.358274 39.699941 
L 64.314309 39.62668 
L 64.405621 39.612489 
L 64.601774 39.535017 
L 64.676177 39.668867 
L 64.726906 39.622576 
L 64.801309 39.525902 
L 64.852038 39.589222 
L 65.274782 39.459174 
L 65.278164 39.49194 
L 65.366094 39.410784 
L 65.379622 39.431285 
L 65.437115 39.40732 
L 65.420205 39.442777 
L 65.494608 39.422378 
L 65.565629 39.369235 
L 65.60283 39.426918 
L 65.63665 39.487383 
L 65.714435 39.454539 
L 65.72458 39.410967 
L 65.7584 39.502644 
L 65.826039 39.458817 
L 66.039101 39.449298 
L 66.258928 39.320417 
L 66.076303 39.517207 
L 66.272456 39.332265 
L 66.340095 39.4135 
L 66.390824 39.376335 
L 66.478754 39.417899 
L 66.502428 39.363531 
L 66.800039 39.457479 
L 66.938699 39.729468 
L 66.955609 39.695876 
L 66.982664 39.66942 
L 67.040158 39.756411 
L 67.046921 39.753244 
L 67.161908 39.883927 
L 67.175435 39.870509 
L 67.226165 39.852638 
L 67.27013 39.962895 
L 67.358061 40.000149 
L 67.280276 39.952441 
L 67.381734 39.963888 
L 67.449373 40.014975 
L 67.49672 39.940224 
L 67.628616 40.102983 
L 67.733457 40.154621 
L 67.736839 40.167438 
L 67.855207 40.214294 
L 67.892408 40.14884 
L 67.960047 40.242209 
L 67.963429 40.237603 
L 68.105471 40.382674 
L 68.108853 40.375387 
L 68.166346 40.273097 
L 68.220457 40.307689 
L 68.271186 40.391359 
L 68.335443 40.364063 
L 68.470721 40.208 
L 68.511304 40.279804 
L 68.6432 40.322405 
L 68.531596 40.254959 
L 68.646582 40.310307 
L 68.754804 40.294845 
L 68.697311 40.384332 
L 68.758186 40.300964 
L 68.78186 40.28017 
L 68.879936 40.342952 
L 69.011832 40.259441 
L 69.123436 40.131122 
L 69.150492 40.154293 
L 69.279006 40.254687 
L 69.414284 40.110459 
L 69.421048 40.136986 
L 69.566471 39.960401 
L 69.600291 40.081505 
L 69.678076 39.970177 
L 69.728805 39.914282 
L 69.77277 40.024932 
L 69.776152 40.022912 
L 69.958777 40.163343 
L 70.046708 40.190409 
L 70.070381 40.162551 
L 70.107583 40.163634 
L 70.127875 40.226738 
L 70.229333 40.341257 
L 70.246243 40.309334 
L 70.273298 40.256045 
L 70.3105 40.342528 
L 70.357847 40.321878 
L 70.395048 40.340041 
L 70.452541 40.239843 
L 70.486361 40.177087 
L 70.547236 40.283562 
L 70.567528 40.243329 
L 70.591201 40.294942 
L 70.682514 40.23342 
L 70.770444 40.194359 
L 70.716333 40.244953 
L 70.794118 40.221669 
L 70.878667 40.434945 
L 70.932778 40.412243 
L 71.05791 40.425652 
L 70.939542 40.43292 
L 71.064674 40.434791 
L 71.159368 40.402024 
L 71.169514 40.366245 
L 71.230389 40.355319 
L 71.257445 40.442555 
L 71.26759 40.41043 
L 71.358903 40.450231 
L 71.328465 40.368253 
L 71.379195 40.416116 
L 71.436688 40.342706 
L 71.500945 40.411373 
L 71.629459 40.380023 
L 71.751209 40.47646 
L 71.785028 40.513264 
L 71.872959 40.438534 
L 71.923688 40.473457 
L 71.903396 40.405909 
L 71.981181 40.419365 
L 71.991327 40.42701 
L 72.146896 40.266043 
L 72.160424 40.278989 
L 72.214535 40.157005 
L 72.268647 40.122714 
L 72.299084 40.239454 
L 72.319376 40.218666 
L 72.420834 40.182716 
L 72.400542 40.264556 
L 72.434362 40.215788 
L 72.481709 40.282807 
L 72.529056 40.155264 
L 72.53582 40.166592 
L 72.539202 40.174142 
L 72.603459 40.081218 
L 72.633897 40.118798 
L 72.637279 40.099808 
L 72.69139 40.271829 
L 72.718445 40.246982 
L 72.786084 40.319735 
L 72.833432 40.269297 
L 72.853723 40.257559 
L 72.894307 40.323364 
L 72.928126 40.321505 
L 73.022821 40.33897 
L 72.958564 40.276599 
L 73.032966 40.293725 
L 73.100605 40.295967 
L 73.060022 40.343539 
L 73.127661 40.34561 
L 73.208828 40.412888 
L 73.239265 40.386509 
L 73.327196 40.366965 
L 73.303522 40.434576 
L 73.340724 40.430393 
L 73.452328 40.270088 
L 73.574078 40.184936 
L 73.57746 40.185677 
L 73.783758 40.254681 
L 73.885217 40.325181 
L 73.90889 40.280675 
L 73.996821 40.271922 
L 73.9258 40.309033 
L 74.020495 40.324336 
L 74.054314 40.345713 
L 74.115189 40.225495 
L 74.240321 40.122099 
L 74.145627 40.262047 
L 74.270759 40.160011 
L 74.372217 40.215825 
L 74.382363 40.185671 
L 74.490585 40.040146 
L 74.541314 40.091975 
L 74.615717 40.164739 
L 74.56837 40.057798 
L 74.663065 40.105561 
L 74.727321 40.117575 
L 74.69012 40.148498 
L 74.744231 40.17776 
L 74.832162 40.317648 
L 74.865981 40.27815 
L 75.745287 40.400141 
L 75.823072 40.461076 
L 75.765579 40.361727 
L 75.860273 40.431429 
L 75.97526 40.316706 
L 75.982024 40.323163 
L 76.076718 40.369614 
L 76.0801 40.391675 
L 76.083482 40.408716 
L 76.174794 40.313783 
L 76.181558 40.334153 
L 76.262725 40.323745 
L 76.191704 40.314014 
L 76.283017 40.293426 
L 76.299927 40.276046 
L 76.343892 40.329734 
L 76.384475 40.338244 
L 76.482552 40.390205 
L 76.411531 40.41226 
L 76.485934 40.395627 
L 76.580628 40.440493 
L 76.506225 40.386687 
L 76.60092 40.410803 
L 76.709142 40.44057 
L 76.712524 40.470084 
L 76.770017 40.423511 
L 76.871475 40.546059 
L 76.885003 40.551449 
L 77.003371 40.452604 
L 77.010135 40.482697 
L 77.098066 40.372538 
L 77.108212 40.396901 
L 77.213052 40.319763 
L 77.22658 40.32787 
L 77.253635 40.405256 
L 77.307747 40.307618 
L 77.334802 40.310592 
L 77.426115 40.316588 
L 77.382149 40.270082 
L 77.446406 40.29092 
L 77.801511 40.35331 
L 77.930025 40.451324 
L 77.967226 40.366121 
L 77.936789 40.456253 
L 78.055157 40.42113 
L 78.247928 40.519342 
L 78.35615 40.532904 
L 78.291893 40.479311 
L 78.362914 40.524454 
L 78.535393 40.397785 
L 78.430553 40.564458 
L 78.538775 40.406841 
L 78.70449 40.499002 
L 78.802567 40.426857 
L 78.724782 40.51437 
L 78.836386 40.45113 
L 78.951372 40.566086 
L 78.975046 40.512319 
L 79.059595 40.544632 
L 79.008865 40.569167 
L 79.069741 40.566465 
L 79.154289 40.633007 
L 79.181345 40.563889 
L 79.391025 40.506778 
L 79.536449 40.294321 
L 79.543213 40.333503 
L 79.820533 40.283318 
L 79.827296 40.303941 
L 79.898317 40.352292 
L 79.840824 40.29421 
L 79.949047 40.332625 
L 79.996394 40.236544 
L 80.057269 40.330538 
L 80.064033 40.346439 
L 80.12829 40.231319 
L 80.138436 40.238434 
L 80.236512 40.168494 
L 80.253422 40.18262 
L 80.290623 40.246828 
L 80.365026 40.197538 
L 80.392082 40.223522 
L 80.446193 40.10162 
L 80.47663 40.195881 
L 80.666019 40.29492 
L 80.483394 40.178301 
L 80.672783 40.279232 
L 80.787769 40.181219 
L 80.791151 40.191675 
L 80.906137 40.121402 
L 80.912901 40.152358 
L 81.004214 40.279911 
L 81.038033 40.270752 
L 81.156401 40.394227 
L 81.176693 40.371016 
L 81.288297 40.348076 
L 81.349172 40.471325 
L 81.406665 40.433346 
L 81.430339 40.338091 
L 81.50136 40.378587 
L 81.504742 40.352457 
L 81.568999 40.4495 
L 81.6062 40.405762 
L 81.64002 40.514954 
L 81.721186 40.418077 
L 81.795589 40.449248 
L 81.731332 40.443161 
L 81.809117 40.471128 
L 81.839555 40.493385 
L 81.890284 40.397145 
L 81.910575 40.420348 
L 81.944395 40.375739 
L 82.001888 40.478027 
L 82.012034 40.459023 
L 82.039089 40.432828 
L 82.130402 40.491731 
L 82.228478 40.42326 
L 82.245388 40.45449 
L 82.255534 40.492133 
L 82.336701 40.354601 
L 82.340083 40.358177 
L 82.451687 40.239859 
L 82.461833 40.27102 
L 82.499034 40.179512 
L 82.576819 40.239442 
L 82.59711 40.32879 
L 82.685041 40.231964 
L 82.745916 40.302463 
L 82.800027 40.373107 
L 82.766208 40.291603 
L 82.85752 40.333056 
L 82.945451 40.289349 
L 82.972507 40.316417 
L 83.094257 40.391116 
L 83.019854 40.298423 
L 83.097639 40.376236 
L 83.212625 40.300845 
L 83.148368 40.417673 
L 83.216007 40.31288 
L 83.300555 40.424831 
L 83.351285 40.403572 
L 83.486562 40.432203 
L 83.36143 40.389195 
L 83.489944 40.428423 
L 83.611694 40.355001 
L 83.625222 40.40022 
L 83.659042 40.485686 
L 83.719917 40.341209 
L 83.726681 40.345784 
L 83.838285 40.260318 
L 83.851813 40.289877 
L 83.990472 40.39027 
L 84.010764 40.344993 
L 84.332049 40.283891 
L 84.447035 40.213227 
L 84.409834 40.306054 
L 84.453799 40.225228 
L 84.457181 40.241297 
L 84.534966 40.12526 
L 84.551875 40.164575 
L 84.653334 40.058045 
L 84.693917 40.104567 
L 84.812285 40.275529 
L 84.825813 40.249092 
L 84.883306 40.376863 
L 84.961091 40.3348 
L 84.967855 40.336252 
L 85.008438 40.232457 
L 85.059167 40.19985 
L 85.032112 40.264215 
L 85.113279 40.243855 
L 85.245174 40.363475 
L 85.248556 40.351486 
L 85.258702 40.313031 
L 85.350015 40.401098 
L 85.434563 40.39702 
L 85.461619 40.359967 
L 85.481911 40.305305 
L 85.569841 40.366689 
L 86.023022 40.59633 
L 86.029786 40.573091 
L 86.063605 40.530026 
L 86.114335 40.647106 
L 86.12448 40.623634 
L 86.127862 40.646869 
L 86.209029 40.516033 
L 86.229321 40.572567 
L 86.246231 40.607968 
L 86.415328 40.478271 
L 86.577661 40.497567 
L 86.584425 40.478853 
L 86.726467 40.360294 
L 86.733231 40.378128 
L 86.743377 40.411836 
L 86.790724 40.318341 
L 86.824543 40.323771 
L 86.902328 40.285565 
L 86.831307 40.33327 
L 86.946293 40.31989 
L 87.118773 40.412333 
L 87.122155 40.396035 
L 87.169502 40.458027 
L 87.250669 40.367778 
L 87.284488 40.400621 
L 87.318308 40.295296 
L 87.352127 40.334842 
L 87.500933 40.250473 
L 87.511078 40.28853 
L 87.582099 40.256812 
L 87.595627 40.209889 
L 87.730905 40.098156 
L 87.609155 40.231886 
L 87.741051 40.135191 
L 87.856037 40.190094 
L 87.761342 40.114276 
L 87.866183 40.174435 
L 87.893238 40.118479 
L 87.971023 40.201839 
L 88.136739 40.308235 
L 87.987933 40.18088 
L 88.150266 40.262891 
L 88.282162 40.246956 
L 88.163794 40.277299 
L 88.288926 40.274481 
L 88.468169 40.464169 
L 88.332891 40.226611 
L 88.505371 40.409863 
L 88.620357 40.31196 
L 88.627121 40.341566 
L 88.809746 40.466718 
L 88.819892 40.421073 
L 88.928114 40.360816 
L 88.93826 40.397484 
L 89.090447 40.455129 
L 89.188524 40.325183 
L 89.208815 40.368505 
L 89.283218 40.507465 
L 89.330566 40.453256 
L 89.432024 40.376431 
L 89.455698 40.394478 
L 89.665378 40.595784 
L 89.672142 40.580024 
L 89.891969 40.339831 
L 89.902114 40.372309 
L 89.996809 40.432458 
L 90.017101 40.381927 
L 90.121941 40.404408 
L 90.148997 40.338823 
L 90.169288 40.27124 
L 90.220017 40.436202 
L 90.240309 40.39526 
L 90.318094 40.453142 
L 90.341767 40.362348 
L 90.345149 40.369355 
L 90.58865 40.128499 
L 90.351913 40.379113 
L 90.615705 40.225057 
L 90.683344 40.267593 
L 90.723927 40.205862 
L 90.791566 40.152074 
L 90.754365 40.233574 
L 90.835532 40.167282 
L 90.957282 40.317296 
L 90.974191 40.371305 
L 91.035066 40.238213 
L 91.068886 40.317139 
" clip-path="url(#pc998609462)" style="fill: none; stroke: #000000; stroke-width: 0.6; stroke-linecap: square"/>
   </g>
   <g id="line2d_3">
    <path d="M 9.905557 54.990339 
L 9.919085 52.960946 
L 9.929231 44.281858 
L 10.003633 57.606909 
L 10.023925 57.488247 
L 10.24037 56.08779 
L 10.453432 55.316688 
L 10.477106 53.658823 
L 10.487252 44.372261 
L 10.565037 57.721349 
L 10.581946 57.590999 
L 10.83221 56.071504 
L 10.845738 56.073799 
L 10.84912 56.079252 
L 10.889703 55.951466 
L 11.055419 54.749092 
L 11.07571 44.4222 
L 11.136585 56.306231 
L 11.150113 57.688001 
L 11.24819 56.843197 
L 11.461252 55.942855 
L 11.464634 55.944047 
L 11.566093 55.607308 
L 11.61344 54.77714 
L 11.633732 44.404296 
L 11.694607 56.022831 
L 11.711516 57.748667 
L 11.806211 56.901904 
L 12.120732 55.891057 
L 12.137642 55.917001 
L 12.201899 55.808288 
L 12.205281 55.808514 
L 12.293211 55.218602 
L 12.313503 53.723608 
L 12.327031 44.309465 
L 12.404815 57.602684 
L 12.418343 57.456308 
L 12.824177 54.328773 
L 12.837704 44.379544 
L 12.915489 57.77525 
L 12.918871 57.76289 
L 13.301031 55.949961 
L 13.47351 55.019036 
L 13.49042 50.273782 
L 13.497184 44.266066 
L 13.574969 57.625288 
L 13.59526 57.484038 
L 13.815087 56.131353 
L 13.85567 56.009286 
L 14.02815 54.570868 
L 14.045059 44.375656 
L 14.11608 57.659141 
L 14.122844 57.726779 
L 14.193865 57.100766 
L 14.403546 56.040839 
L 14.406928 56.047559 
L 14.606462 55.584649 
L 14.657192 54.010817 
L 14.670719 44.297866 
L 14.745122 57.674136 
L 14.75865 57.587565 
L 14.968331 56.214838 
L 15.130664 55.74841 
L 15.22874 55.455123 
L 15.265942 53.93285 
L 15.27947 44.384137 
L 15.353872 57.627885 
L 15.3674 57.52418 
L 15.820581 54.648485 
L 15.837491 44.359809 
L 15.90513 57.364721 
L 15.915276 57.701802 
L 16.006588 56.90051 
L 16.206123 55.996036 
L 16.358311 55.619366 
L 16.40904 54.404578 
L 16.422568 44.344657 
L 16.500352 57.711561 
L 16.503734 57.711494 
L 16.561227 57.20146 
L 16.747234 56.141969 
L 16.750616 56.152492 
L 16.804727 55.997259 
L 16.814873 56.002763 
L 16.821637 56.008485 
L 16.997498 55.227808 
L 17.01779 53.715044 
L 17.027936 44.39912 
L 17.109103 57.67375 
L 17.12263 57.535619 
L 17.433769 55.906861 
L 17.548756 55.231651 
L 17.569047 53.677785 
L 17.579193 44.409518 
L 17.66036 57.732142 
L 17.673888 57.615809 
L 17.941061 56.038215 
L 17.944443 56.045906 
L 18.001936 55.940286 
L 18.018846 55.944435 
L 18.05943 55.928333 
L 18.072957 55.857284 
L 18.214999 54.404693 
L 18.231909 44.350861 
L 18.309694 57.630223 
L 18.783166 54.853979 
L 18.796694 48.87212 
L 18.803458 44.313373 
L 18.881242 57.717742 
L 18.898152 57.580407 
L 19.182236 56.012687 
L 19.185618 56.016226 
L 19.189 56.020016 
L 19.232965 55.910877 
L 19.347951 55.534643 
L 19.395298 53.993805 
L 19.408826 44.353329 
L 19.483229 57.649706 
L 19.496757 57.578733 
L 19.706437 56.16223 
L 19.713201 56.164503 
L 19.740257 56.063331 
L 19.743639 56.062442 
L 19.90259 55.690673 
L 19.929646 55.586513 
L 19.980375 53.203694 
L 19.990521 44.327364 
L 20.068306 57.671406 
L 20.085215 57.530458 
L 20.416646 55.929216 
L 20.470757 55.708539 
L 20.524868 54.870414 
L 20.538396 49.211148 
L 20.54516 44.307399 
L 20.622945 57.785158 
L 20.639855 57.653153 
L 20.863063 56.247722 
L 21.137001 54.55094 
L 21.15391 44.312665 
L 21.224931 57.627434 
L 21.231695 57.71877 
L 21.30948 57.033671 
L 21.515779 56.012774 
L 21.573272 55.894275 
L 21.738987 54.680955 
L 21.755897 44.35885 
L 21.823536 57.315225 
L 21.837064 57.663895 
L 21.928376 56.887193 
L 22.117765 56.022673 
L 22.131293 56.039011 
L 22.293626 55.268557 
L 22.3173 53.107865 
L 22.327446 44.334244 
L 22.401849 57.711109 
L 22.42214 57.572786 
L 22.658876 56.136938 
L 22.851647 55.551707 
L 22.895613 54.798488 
L 22.915904 44.36426 
L 22.976779 55.994643 
L 22.993689 57.676164 
L 23.088384 56.853904 
L 23.385995 55.848089 
L 23.399523 55.853146 
L 23.406287 55.870054 
L 23.467162 55.704704 
L 23.538183 54.235141 
L 23.55171 44.27317 
L 23.629495 57.640385 
L 23.636259 57.606915 
L 23.910197 56.018396 
L 24.086058 54.497632 
L 24.102968 44.406236 
L 24.17737 57.706681 
L 24.180752 57.716198 
L 24.207808 57.467381 
L 24.610259 55.681857 
L 24.617023 55.686188 
L 24.620405 55.69293 
L 24.654225 55.517967 
L 24.691426 54.282594 
L 24.704954 44.324874 
L 24.782739 57.686518 
L 24.789503 57.650062 
L 25.022857 56.136889 
L 25.300177 54.783158 
L 25.320468 44.342256 
L 25.381343 55.935435 
L 25.394871 57.66202 
L 25.492947 56.842226 
L 25.787177 55.761799 
L 25.790559 55.765269 
L 25.814232 55.638634 
L 25.86158 55.287483 
L 25.885253 53.627877 
L 25.895399 44.383869 
L 25.973184 57.687321 
L 25.990094 57.545983 
L 26.291087 55.868047 
L 26.297851 55.875933 
L 26.304615 55.880683 
L 26.335052 55.793253 
L 26.426365 54.448162 
L 26.439892 44.418984 
L 26.517677 57.76058 
L 26.537969 57.608923 
L 26.808525 56.113469 
L 26.811907 56.130557 
L 26.893073 55.989608 
L 26.899837 56.00601 
L 27.038497 55.670041 
L 27.106136 54.773645 
L 27.126428 44.281285 
L 27.190684 56.926551 
L 27.204212 57.610903 
L 27.298907 56.82255 
L 27.522115 55.853367 
L 27.552553 55.747312 
L 27.640483 54.740244 
L 27.657393 44.470902 
L 27.72165 56.449423 
L 27.735178 57.723137 
L 27.833254 56.875071 
L 28.100428 55.865119 
L 28.113956 55.890054 
L 28.171449 55.762727 
L 28.188359 55.769488 
L 28.286435 55.01497 
L 28.303345 50.438235 
L 28.310109 44.304888 
L 28.387893 57.598472 
L 28.408185 57.439894 
L 28.655067 55.968181 
L 28.786963 55.389786 
L 28.814019 54.602787 
L 28.830928 44.398722 
L 28.898567 57.491578 
L 28.908713 57.743715 
L 28.996644 56.955875 
L 29.311165 55.913369 
L 29.314547 55.937432 
L 29.385568 55.671468 
L 29.38895 55.671582 
L 29.449825 54.263763 
L 29.463352 44.255358 
L 29.544519 57.69481 
L 29.547901 57.662968 
L 29.889478 55.901317 
L 29.89286 55.916285 
L 29.957117 55.699564 
L 29.984172 55.570334 
L 30.024755 54.648068 
L 30.041665 44.319658 
L 30.109304 57.345434 
L 30.11945 57.723634 
L 30.214144 56.890713 
L 30.39677 56.048538 
L 30.403533 56.051815 
L 30.586159 54.792855 
L 30.599686 48.019014 
L 30.60645 44.38269 
L 30.680853 57.724884 
L 30.697763 57.601497 
L 31.225346 54.624009 
L 31.242256 44.29009 
L 31.309895 57.317122 
L 31.320041 57.636464 
L 31.411353 56.87211 
L 31.756312 55.386458 
L 31.783368 54.213499 
L 31.796895 44.329564 
L 31.87468 57.741642 
L 31.881444 57.699488 
L 32.158764 56.084681 
L 32.168909 56.091355 
L 32.375208 55.19984 
L 32.3955 52.85932 
L 32.405646 44.283606 
L 32.48343 57.716069 
L 32.50034 57.595331 
L 32.703257 56.249612 
L 32.723549 56.26032 
L 32.946757 54.832392 
L 32.960285 48.431977 
L 32.967049 44.349007 
L 33.041452 57.737876 
L 33.061743 57.61443 
L 33.298479 56.204695 
L 33.585945 54.854291 
L 33.599473 49.537071 
L 33.606237 44.271063 
L 33.684021 57.671996 
L 33.704313 57.491609 
L 34.035744 55.820123 
L 34.049272 55.821675 
L 34.093237 55.717989 
L 34.096619 55.717341 
L 34.16764 55.255965 
L 34.191313 53.095495 
L 34.201459 44.337591 
L 34.275862 57.657891 
L 34.296154 57.521677 
L 34.492307 56.236166 
L 34.495688 56.241351 
L 34.49907 56.254038 
L 34.543036 56.020891 
L 34.546418 56.029908 
L 34.742571 54.50487 
L 34.75948 44.403846 
L 34.830501 57.655797 
L 34.833883 57.707665 
L 34.904904 57.095125 
L 35.148404 55.996146 
L 35.151786 56.010608 
L 35.155168 56.016424 
L 35.212661 55.901959 
L 35.216043 55.908625 
L 35.351321 55.027012 
L 35.368231 50.199568 
L 35.374995 44.277041 
L 35.452779 57.688073 
L 35.473071 57.54462 
L 35.696279 56.097377 
L 35.949925 54.595546 
L 35.966835 44.338685 
L 36.034474 57.406706 
L 36.041238 57.657133 
L 36.13255 56.903321 
L 36.365905 55.91811 
L 36.369287 55.922377 
L 36.406488 55.82085 
L 36.413252 55.82079 
L 36.521474 54.845178 
L 36.535002 49.192883 
L 36.541766 44.323833 
L 36.619551 57.714919 
L 36.63646 57.572416 
L 36.731155 56.780824 
L 36.907016 56.035447 
L 36.910398 56.045658 
L 37.096405 55.014271 
L 37.113315 49.402151 
L 37.120079 44.318761 
L 37.201246 57.703445 
L 37.214773 57.566512 
L 37.441364 56.196362 
L 37.444746 56.197369 
L 37.448128 56.201112 
L 37.468419 56.083663 
L 37.600315 55.901405 
L 37.603697 55.910818 
L 37.654426 55.7266 
L 37.732211 54.940076 
L 37.745739 51.802956 
L 37.755885 44.349339 
L 37.833669 57.666443 
L 37.850579 57.494052 
L 38.161718 55.911272 
L 38.1651 55.920172 
L 38.219211 55.793916 
L 38.330816 55.207231 
L 38.351107 53.392133 
L 38.361253 44.33671 
L 38.439038 57.637468 
L 38.455948 57.503733 
L 38.740031 55.932926 
L 38.753559 55.944324 
L 38.780614 55.840124 
L 38.794142 55.839183 
L 38.875309 55.33567 
L 38.902364 53.811947 
L 38.915892 44.446479 
L 38.990295 57.721497 
L 39.003823 57.641042 
L 39.254087 56.123203 
L 39.457004 55.547479 
L 39.500969 54.56263 
L 39.517879 44.311789 
L 39.5889 57.616027 
L 39.595663 57.699616 
L 39.670066 57.033753 
L 39.835782 56.162397 
L 39.839164 56.16372 
L 39.852691 56.102568 
L 39.872983 56.070612 
L 40.048844 54.323498 
L 40.062372 44.349105 
L 40.140157 57.773166 
L 40.143539 57.761094 
L 40.491879 55.920151 
L 40.508789 55.953265 
L 40.586574 55.816615 
L 40.589956 55.819637 
L 40.70156 55.18055 
L 40.721852 52.534371 
L 40.731997 44.296296 
L 40.809782 57.610649 
L 40.826692 57.464612 
L 41.104012 55.987786 
L 41.114157 56.000167 
L 41.22238 55.745019 
L 41.300164 54.392904 
L 41.313692 44.34993 
L 41.391477 57.704885 
L 41.394859 57.701768 
L 41.70938 55.882713 
L 41.72629 55.918006 
L 41.777019 55.761752 
L 41.797311 55.763732 
L 41.881859 54.907932 
L 41.895387 51.022827 
L 41.902151 44.373745 
L 41.979936 57.667884 
L 42.000227 57.504293 
L 42.314748 55.884105 
L 42.31813 55.893925 
L 42.321512 55.903461 
L 42.372241 55.726335 
L 42.426353 55.297923 
L 42.450026 53.569477 
L 42.460172 44.35697 
L 42.537957 57.735982 
L 42.554866 57.630775 
L 42.798367 56.118454 
L 42.801749 56.119149 
L 42.94379 55.841654 
L 42.947172 55.843449 
L 43.028339 55.637937 
L 43.089214 54.673477 
L 43.106124 44.334951 
L 43.173763 57.249158 
L 43.183908 57.614293 
L 43.278603 56.813084 
L 43.532249 55.779952 
L 43.535631 55.782727 
L 43.539013 55.787951 
L 43.56945 55.640834 
L 43.572832 55.640209 
L 43.630325 54.508151 
L 43.647235 44.415715 
L 43.718256 57.684181 
L 43.721638 57.745212 
L 43.796041 57.097374 
L 43.998958 56.094708 
L 44.249222 54.331206 
L 44.262749 44.331937 
L 44.340534 57.670018 
L 44.343916 57.655687 
L 44.770041 55.163299 
L 44.790333 51.541098 
L 44.797097 44.419519 
L 44.878264 57.774305 
L 44.895173 57.616546 
L 45.118382 56.183873 
L 45.314535 55.813168 
L 45.449812 54.632285 
L 45.466722 44.279192 
L 45.534361 57.280692 
L 45.544507 57.619996 
L 45.63582 56.824003 
L 45.8455 55.913524 
L 45.855646 55.953088 
L 46.011216 55.182287 
L 46.031507 52.076339 
L 46.041653 44.388328 
L 46.116056 57.686373 
L 46.136348 57.546225 
L 46.386612 56.036716 
L 46.389994 56.042421 
L 46.552327 55.110997 
L 46.569237 53.133362 
L 46.579383 44.362851 
L 46.657167 57.742078 
L 46.674077 57.610559 
L 46.897286 56.22743 
L 47.059619 55.808008 
L 47.164459 55.23005 
L 47.188133 52.179022 
L 47.198279 44.371088 
L 47.272682 57.647741 
L 47.292973 57.504999 
L 47.499272 56.169185 
L 47.698807 55.395901 
L 47.725862 54.49323 
L 47.742772 44.41291 
L 47.817175 57.755989 
L 47.820557 57.769753 
L 47.854376 57.46833 
L 48.192571 55.925934 
L 48.195953 55.927756 
L 48.256828 55.774597 
L 48.361668 54.883139 
L 48.375196 50.480074 
L 48.38196 44.310207 
L 48.459745 57.658901 
L 48.480036 57.499192 
L 48.7303 56.039484 
L 48.737064 56.048674 
L 48.76412 55.945255 
L 48.767502 55.944432 
L 48.78103 55.950586 
L 48.926453 55.064398 
L 48.943363 50.993377 
L 48.950127 44.328236 
L 49.027912 57.748049 
L 49.048203 57.578359 
L 49.35596 55.995152 
L 49.433745 55.89264 
L 49.552113 54.21608 
L 49.565641 44.279248 
L 49.643426 57.702698 
L 49.65019 57.646056 
L 49.995148 55.853697 
L 50.001912 55.861426 
L 50.039114 55.708717 
L 50.042496 55.714251 
L 50.113516 53.886822 
L 50.127044 44.406568 
L 50.204829 57.75236 
L 50.214975 57.682615 
L 50.478767 56.126228 
L 50.576843 55.973023 
L 50.759468 55.111066 
L 50.776378 53.112695 
L 50.786524 44.268317 
L 50.864308 57.623907 
L 50.881218 57.476801 
L 51.297198 54.848992 
L 51.310725 48.910884 
L 51.317489 44.37941 
L 51.395274 57.742869 
L 51.412184 57.617557 
L 51.64892 56.146773 
L 51.669212 56.162911 
L 51.736851 56.027571 
L 51.912712 55.115514 
L 51.929622 53.012001 
L 51.939767 44.283916 
L 52.017552 57.681526 
L 52.034462 57.53402 
L 52.301636 55.966691 
L 52.325309 55.986252 
L 52.497789 55.281445 
L 52.521462 53.379367 
L 52.531608 44.329065 
L 52.609393 57.676532 
L 52.626303 57.537355 
L 52.863039 56.118886 
L 52.866421 56.135178 
L 52.876567 56.144793 
L 52.903622 56.020513 
L 52.907004 56.021779 
L 53.089629 53.891869 
L 53.103157 44.391597 
L 53.17756 57.702621 
L 53.191088 57.621805 
L 53.475171 56.058344 
L 53.667942 55.226005 
L 53.688234 53.676634 
L 53.698379 44.397454 
L 53.779546 57.669823 
L 53.793074 57.552466 
L 54.033192 56.114945 
L 54.080539 56.028649 
L 54.242873 54.128928 
L 54.256401 44.314253 
L 54.334185 57.781064 
L 54.340949 57.73225 
L 54.682526 55.952708 
L 54.68929 55.954588 
L 54.712963 55.874661 
L 54.733255 55.870973 
L 54.875297 54.368009 
L 54.888825 44.360241 
L 54.966609 57.642126 
L 54.969991 57.636574 
L 55.342005 55.720971 
L 55.355533 55.739626 
L 55.409644 55.494259 
L 55.446846 54.302416 
L 55.460373 44.37193 
L 55.538158 57.683037 
L 55.54154 57.676193 
L 55.852679 55.937927 
L 56.055596 55.445774 
L 56.082652 54.892677 
L 56.096179 51.137357 
L 56.102943 44.367421 
L 56.180728 57.622473 
L 56.20102 57.448463 
L 56.623763 54.233919 
L 56.637291 44.375463 
L 56.715076 57.73353 
L 56.721839 57.686707 
L 57.016069 56.048816 
L 57.019451 56.053611 
L 57.066798 55.932894 
L 57.225749 55.315433 
L 57.249423 53.977877 
L 57.262951 44.320821 
L 57.340736 57.661306 
L 57.350881 57.569537 
L 57.638347 55.997576 
L 57.702604 55.814887 
L 57.807444 54.777954 
L 57.827736 44.392432 
L 57.888611 56.080271 
L 57.902139 57.695827 
L 58.000215 56.86625 
L 58.169312 56.039739 
L 58.179458 56.051449 
L 58.203132 55.972068 
L 58.236951 55.957065 
L 58.416195 55.436061 
L 58.450014 53.736693 
L 58.463542 44.367379 
L 58.537945 57.650302 
L 58.554854 57.52995 
L 58.855848 55.811703 
L 58.862611 55.834375 
L 58.886285 55.687747 
L 58.889667 55.686526 
L 58.960688 54.4147 
L 58.974216 44.430865 
L 59.052 57.792432 
L 59.055382 57.76879 
L 59.187278 56.672964 
L 59.336084 56.139201 
L 59.60664 55.650651 
L 59.667515 54.122876 
L 59.681042 44.199562 
L 59.758827 57.628555 
L 59.768973 57.56836 
L 60.049675 55.930985 
L 60.053057 55.947231 
L 60.120695 55.735937 
L 60.195098 54.602418 
L 60.212008 44.367879 
L 60.279647 57.460784 
L 60.289793 57.756213 
L 60.381105 56.957702 
L 60.604314 55.968466 
L 60.621224 55.992683 
L 60.820758 55.501881 
L 60.861342 54.031639 
L 60.87487 44.273795 
L 60.952654 57.611388 
L 60.9628 57.534727 
L 61.199536 56.066653 
L 61.2063 56.07309 
L 61.226592 55.962769 
L 61.368634 55.181255 
L 61.388925 52.825556 
L 61.399071 44.405982 
L 61.476856 57.7328 
L 61.493766 57.586848 
L 61.977384 54.347816 
L 61.990912 44.321628 
L 62.068697 57.729757 
L 62.072078 57.701802 
L 62.417037 55.906731 
L 62.504968 55.798821 
L 62.59628 55.146272 
L 62.616572 51.213147 
L 62.623336 44.346987 
L 62.70112 57.651601 
L 62.721412 57.480529 
L 63.019023 55.899693 
L 63.144155 55.014918 
L 63.161065 49.110809 
L 63.167829 44.352043 
L 63.245614 57.756461 
L 63.262524 57.612281 
L 63.48235 56.21382 
L 63.644684 55.905728 
L 63.800253 54.513054 
L 63.817163 44.279734 
L 63.888184 57.588161 
L 63.894948 57.653404 
L 63.959205 57.073207 
L 64.195941 55.900569 
L 64.219614 55.912859 
L 64.36842 55.242767 
L 64.392094 52.48151 
L 64.402239 44.3631 
L 64.476642 57.669912 
L 64.496934 57.530731 
L 64.713379 56.178089 
L 64.933205 54.649968 
L 64.950115 44.329721 
L 65.017754 57.380231 
L 65.0279 57.748057 
L 65.122594 56.938833 
L 65.355948 56.014524 
L 65.369476 56.025168 
L 65.379622 56.046672 
L 65.454025 55.947337 
L 65.643414 54.163905 
L 65.656942 44.209855 
L 65.734726 57.618185 
L 65.74149 57.574458 
L 66.062775 55.85682 
L 66.160852 55.177648 
L 66.181143 52.518297 
L 66.191289 44.41815 
L 66.265692 57.733687 
L 66.285984 57.571434 
L 66.674907 55.91197 
L 66.688435 55.885137 
L 66.701963 56.082291 
L 66.925171 58.494557 
L 67.087505 59.435181 
L 67.27013 60.003382 
L 67.550831 60.792012 
L 67.564359 60.779704 
L 67.581269 60.695111 
L 67.672582 60.797354 
L 67.966811 60.913435 
L 68.054741 61.057508 
L 67.980339 60.909413 
L 68.098707 60.99848 
L 68.967867 61.054478 
L 68.978013 61.061197 
L 69.028742 60.934202 
L 69.032124 60.94902 
L 69.103145 60.98422 
L 69.177548 60.796821 
L 69.360173 61.029344 
L 69.377082 61.016201 
L 69.458249 60.873905 
L 69.508978 60.986308 
L 69.627346 61.028234 
L 69.661166 61.015973 
L 69.694985 60.944555 
L 69.705131 60.966305 
L 69.796444 60.911051 
L 69.75586 60.984157 
L 69.816735 60.938321 
L 69.820117 60.951821 
L 69.89452 60.887851 
L 69.914812 60.891749 
L 70.046708 60.837457 
L 69.921576 60.896448 
L 70.05009 60.860815 
L 70.18875 60.968769 
L 70.056854 60.839265 
L 70.198895 60.940179 
L 70.236097 60.964746 
L 70.324027 60.864053 
L 70.510034 60.907185 
L 70.513416 60.902307 
L 70.628403 60.808797 
L 70.638548 60.82518 
L 70.783972 60.900505 
L 70.794118 60.877968 
L 70.811028 60.835624 
L 70.888812 60.931123 
L 70.898958 60.903681 
L 70.912486 60.919763 
L 70.939542 60.856987 
L 70.997035 60.853702 
L 71.051146 60.834115 
L 71.071438 60.902277 
L 71.091729 60.884209 
L 71.118785 60.949981 
L 71.206715 60.930703 
L 71.335229 60.88059 
L 71.348757 60.900311 
L 71.720771 60.926316 
L 71.828994 60.955372 
L 71.7715 60.885334 
L 71.832375 60.951669 
L 71.930452 60.92488 
L 71.889869 61.00397 
L 71.94398 60.954267 
L 71.950744 60.975415 
L 71.984563 60.871926 
L 72.045438 60.913477 
L 72.163806 60.863819 
L 72.069112 60.937836 
L 72.173952 60.874059 
L 72.39716 60.79223 
L 72.41407 60.748302 
L 72.454654 60.810373 
L 72.505383 60.814536 
L 72.512147 60.80596 
L 72.623751 60.836829 
L 72.7083 60.793202 
L 72.742119 60.847797 
L 72.907834 61.020223 
L 72.748883 60.837219 
L 72.91798 60.997342 
L 73.043112 60.877474 
L 73.107369 60.943753 
L 73.063404 60.859011 
L 73.158098 60.911889 
L 73.168244 60.930019 
L 73.232501 60.817592 
L 73.235883 60.818468 
L 73.327196 60.802097 
L 73.296758 60.865123 
L 73.347487 60.815987 
L 73.45571 60.905227 
L 73.357633 60.796543 
L 73.469237 60.889404 
L 73.482765 60.910341 
L 73.597751 60.835856 
L 73.672154 60.873499 
L 73.702592 60.777287 
L 73.743175 60.837112 
L 73.807432 60.816909 
L 73.878453 60.914982 
L 73.935946 60.897387 
L 74.077988 60.914093 
L 74.20312 60.856603 
L 74.088134 60.922472 
L 74.206502 60.859827 
L 74.223411 60.89326 
L 74.30796 60.803822 
L 74.588662 60.773078 
L 74.592044 60.795194 
L 74.70703 60.842665 
L 74.710412 60.825868 
L 74.842308 60.714614 
L 74.84569 60.739 
L 74.95053 60.776254 
L 74.869363 60.726366 
L 74.960676 60.760112 
L 75.05537 60.744133 
L 75.045224 60.796387 
L 75.07228 60.751761 
L 75.21094 60.939693 
L 75.3496 60.816269 
L 75.373273 60.819857 
L 75.400329 60.724818 
L 75.407093 60.709446 
L 75.495023 60.803289 
L 75.57619 60.818227 
L 75.511933 60.787046 
L 75.599864 60.776418 
L 75.637065 60.729268 
L 75.613391 60.783402 
L 75.711468 60.773703 
L 75.728378 60.749441 
L 75.850128 60.837256 
L 75.914385 60.897383 
L 75.961732 60.825823 
L 76.029371 60.89789 
L 75.971878 60.817626 
L 76.073336 60.81901 
L 76.347274 60.838484 
L 76.452114 60.822609 
L 76.387857 60.756013 
L 76.455496 60.818199 
L 76.617829 60.702785 
L 76.712524 60.789321 
L 76.631357 60.690462 
L 76.732816 60.725737 
L 76.868093 60.772299 
L 76.770017 60.673669 
L 76.871475 60.765437 
L 77.148795 60.781792 
L 77.152177 60.760228 
L 77.24349 60.726129 
L 77.206288 60.812923 
L 77.260399 60.767019 
L 77.355094 60.893801 
L 77.277309 60.751502 
L 77.402441 60.813478 
L 77.520809 60.737787 
L 77.544483 60.751151 
L 77.727108 60.863458 
L 77.737254 60.827676 
L 77.774455 60.789015 
L 77.842094 60.858921 
L 77.848858 60.826638 
L 77.95708 60.761085 
L 77.896205 60.844848 
L 77.967226 60.79587 
L 77.9909 60.84389 
L 78.034865 60.744252 
L 78.068684 60.757928 
L 78.146469 60.69211 
L 78.193816 60.764719 
L 78.308803 60.744237 
L 78.21749 60.715928 
L 78.312185 60.727658 
L 78.366296 60.623235 
L 78.454226 60.711112 
L 78.457608 60.714546 
L 78.4779 60.641158 
L 78.515101 60.614676 
L 78.521865 60.589478 
L 79.012247 60.697531 
L 79.039303 60.706788 
L 79.140761 60.618219 
L 79.161053 60.586586 
L 79.272657 60.639154 
L 79.34706 60.564622 
L 79.387643 60.612804 
L 79.614234 60.700973 
L 79.671727 60.739414 
L 79.71231 60.657151 
L 79.715692 60.66648 
L 79.847588 60.61696 
L 79.759658 60.732489 
L 79.85097 60.635341 
L 79.986248 60.750294 
L 79.881408 60.608893 
L 79.993012 60.739834 
L 80.101234 60.667053 
L 80.053887 60.799034 
L 80.124908 60.697771 
L 80.168873 60.599753 
L 80.25004 60.670924 
L 80.395463 60.60732 
L 80.415755 60.671562 
L 80.49354 60.772463 
L 80.452957 60.651685 
L 80.537505 60.749552 
L 80.808061 60.621249 
L 80.547651 60.765977 
L 80.821589 60.644346 
L 81.538561 60.636018 
L 81.6062 60.579247 
L 81.636638 60.678816 
L 81.741478 60.667449 
L 81.751624 60.640008 
L 81.856464 60.686084 
L 81.863228 60.726989 
L 81.920721 60.818947 
L 81.876756 60.715616 
L 81.978214 60.734385 
L 82.147312 60.522978 
L 82.157457 60.54985 
L 82.47536 60.621938 
L 82.482124 60.592093 
L 82.576819 60.558628 
L 82.495652 60.604254 
L 82.600492 60.594874 
L 82.745916 60.721448 
L 82.75268 60.69704 
L 82.850756 60.633318 
L 82.76959 60.731385 
L 82.877812 60.675521 
L 82.948833 60.72991 
L 82.887958 60.653859 
L 82.992798 60.686015 
L 83.111166 60.595452 
L 83.040145 60.698531 
L 83.121312 60.615384 
L 83.148368 60.666101 
L 83.226153 60.596554 
L 83.297173 60.545853 
L 83.334375 60.620933 
L 83.523764 60.729393 
L 83.713153 60.708446 
L 83.807847 60.546806 
L 83.838285 60.59244 
L 84.115604 60.584094 
L 83.845049 60.616296 
L 84.118986 60.599048 
L 84.166334 60.632107 
L 84.200153 60.543208 
L 84.220445 60.549351 
L 84.430125 60.377952 
L 84.453799 60.424257 
L 84.666862 60.580917 
L 84.673626 60.534891 
L 84.758174 60.661534 
L 84.775084 60.592417 
L 85.052404 60.585508 
L 85.055785 60.607063 
L 85.106515 60.706613 
L 85.16739 60.621442 
L 85.204591 60.53156 
L 85.285758 60.580944 
L 85.397362 60.61254 
L 85.407508 60.572079 
L 85.522494 60.498677 
L 85.536022 60.508948 
L 85.563077 60.577621 
L 85.630716 60.456178 
L 85.634098 60.474749 
L 85.63748 60.456026 
L 85.725411 60.574551 
L 85.806578 60.582038 
L 85.765994 60.527362 
L 85.833633 60.540871 
L 85.928328 60.4585 
L 85.952001 60.49361 
L 85.965529 60.558867 
L 86.046696 60.428284 
L 86.050078 60.431283 
L 86.087279 60.52689 
L 86.168446 60.617594 
L 86.209029 60.602827 
L 86.307106 60.594191 
L 86.26314 60.642127 
L 86.317251 60.625472 
L 86.604717 60.568899 
L 86.614863 60.602692 
L 86.6453 60.683092 
L 86.723085 60.577048 
L 86.827925 60.498952 
L 86.848217 60.510211 
L 87.328453 60.722732 
L 87.341981 60.676951 
L 87.473877 60.53773 
L 87.575335 60.622213 
L 87.592245 60.602296 
L 87.697085 60.574532 
L 87.602391 60.577656 
L 87.700467 60.566946 
L 87.730905 60.535802 
L 87.788398 60.634789 
L 87.79178 60.635296 
L 88.072482 60.595427 
L 88.194232 60.500253 
L 88.309218 60.416661 
L 88.349801 60.524637 
L 88.458023 60.550038 
L 88.464787 60.548386 
L 88.704905 60.541184 
L 88.708287 60.517282 
L 88.762399 60.463673 
L 88.823274 60.486977 
L 88.907822 60.577775 
L 88.836801 60.472279 
L 88.934878 60.484755 
L 89.053246 60.503261 
L 89.002517 60.425744 
L 89.056628 60.501189 
L 89.063392 60.467162 
L 89.103975 60.547938 
L 89.161468 60.5306 
L 89.273072 60.511341 
L 89.276454 60.505782 
L 89.327184 60.44978 
L 89.394823 60.480773 
L 89.492899 60.481592 
L 89.509809 60.499976 
L 89.604503 60.488085 
L 89.516573 60.487685 
L 89.611267 60.467836 
L 89.678906 60.428826 
L 89.695816 60.487805 
L 89.722871 60.474965 
L 89.831094 60.519853 
L 89.763455 60.433252 
L 89.837857 60.506312 
L 89.871677 60.436924 
L 89.942698 60.531262 
L 89.94608 60.547183 
L 90.040774 60.46594 
L 90.128705 60.364728 
L 90.15576 60.44127 
L 90.159142 60.459156 
L 90.250455 60.39268 
L 90.260601 60.413316 
L 90.375587 60.315106 
L 90.382351 60.327671 
L 90.55483 60.494627 
L 90.392497 60.312954 
L 90.592032 60.424205 
L 90.605559 60.396228 
L 90.679962 60.475433 
L 90.700254 60.44313 
L 90.740837 60.498918 
L 90.794948 60.419353 
L 90.808476 60.439142 
L 90.811858 60.416398 
L 90.876115 60.535111 
L 90.916698 60.45579 
L 90.92008 60.473843 
L 91.011393 60.405065 
L 91.018157 60.424257 
L 91.05874 60.380652 
L 91.068886 60.40004 
" clip-path="url(#pc998609462)" style="fill: none; stroke: #000000; stroke-width: 0.6; stroke-linecap: square"/>
   </g>
   <g id="line2d_4">
    <path d="M 95.127221 15.313171 
L 95.127221 8.552195 
" clip-path="url(#pc998609462)" style="fill: none; stroke: #000000; stroke-width: 1.5; stroke-linecap: square"/>
   </g>
  </g>
 </g>
 <defs>
  <clipPath id="pc998609462">
   <rect x="7.2" y="7.2" width="89.28" height="55.44"/>
  </clipPath>
 </defs>
</svg>
