<?xml version="1.0" encoding="utf-8" standalone="no"?>
<!DOCTYPE svg PUBLIC "-//W3C//DTD SVG 1.1//EN"
  "http://www.w3.org/Graphics/SVG/1.1/DTD/svg11.dtd">
<svg xmlns:xlink="http://www.w3.org/1999/xlink" width="103.68pt" height="69.84pt" viewBox="0 0 103.68 69.84" xmlns="http://www.w3.org/2000/svg" version="1.1">
 <metadata>
  <rdf:RDF xmlns:dc="http://purl.org/dc/elements/1.1/" xmlns:cc="http://creativecommons.org/ns#" xmlns:rdf="http://www.w3.org/1999/02/22-rdf-syntax-ns#">
   <cc:Work>
    <dc:type rdf:resource="http://purl.org/dc/dcmitype/StillImage"/>
    <dc:date>2022-05-18T12:01:29.198617</dc:date>
    <dc:format>image/svg+xml</dc:format>
    <dc:creator>
     <cc:Agent>
      <dc:title>Matplotlib v3.5.1, https://matplotlib.org/</dc:title>
     </cc:Agent>
    </dc:creator>
   </cc:Work>
  </rdf:RDF>
 </metadata>
 <defs>
  <style type="text/css">*{stroke-linejoin: round; stroke-linecap: butt}</style>
 </defs>
 <g id="figure_1">
  <g id="patch_1">
   <path d="M 0 69.84 
L 103.68 69.84 
L 103.68 0 
L 0 0 
L 0 69.84 
z
" style="fill: none"/>
  </g>
  <g id="axes_1">
   <g id="patch_2">
    <path d="M 7.2 62.64 
L 96.48 62.64 
L 96.48 7.2 
L 7.2 7.2 
L 7.2 62.64 
z
" style="fill: none"/>
   </g>
   <g id="matplotlib.axis_1"/>
   <g id="matplotlib.axis_2"/>
   <g id="line2d_1">
    <path d="M 9.905557 21.283559 
L 9.96305 21.170031 
L 10.149057 19.736034 
L 10.162585 15.24225 
L 10.172731 8.747004 
L 10.267425 20.753841 
L 10.304627 20.606458 
L 10.419613 18.459802 
L 10.433141 12.354528 
L 10.504162 20.593183 
L 10.521071 20.479851 
L 10.615766 18.887824 
L 10.636057 13.24331 
L 10.703696 20.401703 
L 10.713842 20.329617 
L 10.795009 18.815261 
L 10.815301 13.750055 
L 10.879558 20.237261 
L 10.893085 20.163796 
L 10.964106 18.693429 
L 10.984398 14.115454 
L 11.048655 20.157403 
L 11.062183 20.087308 
L 11.12644 18.445737 
L 11.143349 14.299907 
L 11.210988 20.153047 
L 11.224516 20.0219 
L 11.275245 19.052011 
L 11.302301 14.288681 
L 11.363176 20.256557 
L 11.380086 20.144498 
L 11.444343 18.347916 
L 11.461252 13.888876 
L 11.522127 20.536464 
L 11.542419 20.367106 
L 11.61344 18.284858 
L 11.626968 13.1278 
L 11.691225 21.024863 
L 11.714898 20.774007 
L 11.802829 18.37146 
L 11.816357 11.920929 
L 11.883996 21.706138 
L 11.904287 21.452239 
L 12.022655 18.79673 
L 12.036183 10.772783 
L 12.110586 22.418645 
L 12.120732 22.305205 
L 12.293211 19.101118 
L 12.306739 10.04016 
L 12.387906 22.90741 
L 12.600968 20.141311 
L 12.624642 18.564409 
L 12.634788 9.769635 
L 12.719336 23.051688 
L 12.729482 22.979867 
L 13.006802 18.403333 
L 13.016948 9.696604 
L 13.098114 23.028827 
L 13.111642 22.928086 
L 13.429545 19.404733 
L 13.446455 9.746584 
L 13.514094 22.309112 
L 13.52424 22.870994 
L 13.618934 21.910081 
L 13.896254 17.912485 
L 13.906399 9.803802 
L 13.984184 22.722886 
L 14.001094 22.572398 
L 14.126226 21.402936 
L 14.315615 20.331454 
L 14.318997 20.331905 
L 14.37649 19.904825 
L 14.400164 18.4157 
L 14.413691 9.958297 
L 14.491476 22.479364 
L 14.501622 22.384057 
L 14.738358 20.681041 
L 14.8804 20.039457 
L 14.917601 18.418065 
L 14.931129 9.958461 
L 15.005532 22.385716 
L 15.01906 22.287529 
L 15.387692 20.454962 
L 15.431657 20.353345 
L 15.50606 20.433339 
L 15.790144 21.293114 
L 15.793526 21.286883 
L 16.037026 21.875572 
L 16.182449 22.247838 
L 16.189213 22.245877 
L 16.632248 23.484949 
L 16.63563 23.482281 
L 16.639012 23.471723 
L 16.713415 23.595062 
L 16.747234 23.724989 
L 16.916332 24.198757 
L 16.919714 24.187746 
L 17.197033 24.85385 
L 17.200415 24.849323 
L 17.203797 24.844515 
L 17.257908 24.939492 
L 17.274818 24.927966 
L 17.379658 25.005559 
L 17.396568 24.997698 
L 17.41686 24.989642 
L 17.450679 25.051671 
L 17.501408 25.017389 
L 17.602867 25.161042 
L 17.5217 24.982922 
L 17.62654 25.127489 
L 17.74829 25.092377 
L 17.751672 25.104882 
L 17.842985 25.138078 
L 17.761818 25.126221 
L 17.849749 25.157834 
L 18.306312 25.548422 
L 17.863277 25.134645 
L 18.333367 25.498572 
L 18.434826 25.391692 
L 18.357041 25.504642 
L 18.461881 25.405461 
L 18.485555 25.462135 
L 18.566721 25.373868 
L 18.576867 25.41845 
L 18.698617 25.300292 
L 18.705381 25.331785 
L 18.783166 25.226007 
L 18.793312 25.245293 
L 18.823749 25.258531 
L 18.925208 25.138121 
L 18.979319 25.174182 
L 19.002993 25.065424 
L 19.023284 25.089286 
L 19.03343 25.112066 
L 19.378389 24.879206 
L 19.459555 24.952766 
L 19.506903 24.909278 
L 19.69291 24.656799 
L 19.723347 24.7147 
L 19.750403 24.757843 
L 19.807896 24.642369 
L 19.828187 24.673484 
L 19.93641 24.59787 
L 19.946556 24.608234 
L 20.132563 24.665097 
L 20.152854 24.656882 
L 20.210347 24.746499 
L 20.217111 24.726644 
L 20.28475 24.643031 
L 20.332097 24.754289 
L 20.42341 24.689241 
L 20.355771 24.799376 
L 20.443702 24.750319 
L 20.568834 24.828858 
L 20.582361 24.806351 
L 20.724403 24.78863 
L 20.589125 24.779095 
L 20.727785 24.761736 
L 20.863063 24.601319 
L 20.940848 24.434608 
L 21.025396 24.579284 
L 21.038924 24.615242 
L 21.123473 24.527417 
L 21.126855 24.529435 
L 21.542834 24.481914 
L 21.732223 24.316259 
L 21.786334 24.343923 
L 21.823536 24.250712 
L 21.8303 24.261923 
L 22.029834 24.050608 
L 22.033216 24.069202 
L 22.104237 24.134322 
L 22.043362 24.05925 
L 22.141439 24.045793 
L 22.215842 24.067857 
L 22.266571 23.949342 
L 22.290244 23.926531 
L 22.340974 24.020259 
L 22.371411 23.9737 
L 22.483015 23.970657 
L 22.425522 23.919405 
L 22.489779 23.959307 
L 22.621675 23.89799 
L 22.655495 23.843797 
L 22.726515 23.932843 
L 22.794154 23.891562 
L 22.750189 23.876606 
L 22.8043 23.867907 
L 22.939578 23.680702 
L 22.817828 23.889499 
L 22.94296 23.689035 
L 22.986925 23.680984 
L 23.000453 23.7738 
L 23.010599 23.766035 
L 23.061328 23.827063 
L 23.122203 23.751292 
L 23.162786 23.70879 
L 23.237189 23.744663 
L 23.287918 23.748264 
L 23.311592 23.676429 
L 23.365703 23.632733 
L 23.321738 23.684212 
L 23.426578 23.671184 
L 23.555092 23.772645 
L 23.558474 23.760363 
L 23.683606 23.712776 
L 23.582148 23.796888 
L 23.710662 23.749546 
L 23.727571 23.813129 
L 23.785065 23.69458 
L 23.815502 23.723604 
L 24.116495 23.762087 
L 24.136787 23.811091 
L 24.201044 23.65543 
L 24.302502 23.6039 
L 24.31603 23.631391 
L 24.400579 23.663087 
L 24.431016 23.593864 
L 24.539239 23.691609 
L 24.613641 23.771835 
L 24.650843 23.718504 
L 24.907871 23.772591 
L 25.093878 24.345584 
L 25.09726 24.32923 
L 25.242683 24.486824 
L 25.262975 24.452308 
L 25.269739 24.408341 
L 25.350906 24.545313 
L 25.35767 24.56822 
L 25.411781 24.481126 
L 25.448982 24.496989 
L 25.452364 24.482524 
L 25.530149 24.563535 
L 25.553822 24.532187 
L 25.634989 24.663797 
L 25.672191 24.584445 
L 25.699246 24.552023 
L 25.729684 24.623056 
L 25.773649 24.624442 
L 25.804087 24.643458 
L 25.864962 24.560566 
L 25.895399 24.513822 
L 25.96642 24.588084 
L 25.969802 24.58441 
L 26.078024 24.561555 
L 26.081406 24.540281 
L 26.165955 24.497856 
L 26.132135 24.571849 
L 26.203156 24.53098 
L 26.253885 24.556386 
L 26.291087 24.481198 
L 26.307997 24.519332 
L 26.338434 24.538452 
L 26.433129 24.385545 
L 26.537969 24.484787 
L 26.439892 24.370315 
L 26.558261 24.47343 
L 26.629281 24.458882 
L 26.578552 24.521608 
L 26.659719 24.532186 
L 26.761177 24.613874 
L 26.673247 24.505544 
L 26.805143 24.547603 
L 26.866018 24.562913 
L 26.876163 24.630834 
L 26.913365 24.6995 
L 26.984386 24.630516 
L 27.099372 24.584448 
L 27.014823 24.691843 
L 27.102754 24.589736 
L 27.288761 24.629514 
L 27.302289 24.589649 
L 27.427421 24.525795 
L 27.58299 24.484697 
L 27.5999 24.541168 
L 27.687831 24.582839 
L 27.711504 24.561632 
L 27.714886 24.534123 
L 27.782525 24.640011 
L 27.816345 24.602487 
L 27.917803 24.675751 
L 27.840018 24.580006 
L 27.94824 24.663568 
L 28.066609 24.598326 
L 27.958386 24.679888 
L 28.073372 24.624503 
L 28.093664 24.577892 
L 28.184977 24.616103 
L 28.25938 24.591115 
L 28.205268 24.630312 
L 28.289817 24.645263 
L 28.482588 24.677593 
L 28.526553 24.676374 
L 28.50288 24.644086 
L 28.577282 24.636844 
L 28.688887 24.523235 
L 28.702414 24.551476 
L 28.901949 24.495585 
L 29.020317 24.451776 
L 28.935769 24.538421 
L 29.027081 24.464003 
L 29.077811 24.551142 
L 29.037227 24.45827 
L 29.148831 24.526686 
L 29.158977 24.497544 
L 29.175887 24.56781 
L 29.260436 24.537029 
L 29.297637 24.572713 
L 29.37204 24.537377 
L 29.527609 24.663189 
L 29.38895 24.502005 
L 29.530991 24.650962 
L 29.649359 24.521567 
L 29.656123 24.524244 
L 29.747436 24.575514 
L 29.781255 24.520148 
L 29.838748 24.45841 
L 29.804929 24.528586 
L 29.896242 24.497034 
L 29.946971 24.496718 
L 29.974026 24.570435 
L 29.994318 24.545219 
L 30.11945 24.564135 
L 30.126214 24.53068 
L 30.187089 24.438777 
L 30.227672 24.594462 
L 30.231054 24.587352 
L 30.295311 24.552175 
L 30.237818 24.59278 
L 30.329131 24.638425 
L 30.332513 24.641799 
L 30.37986 24.534786 
L 30.471172 24.415846 
L 30.511756 24.469383 
L 30.525284 24.540847 
L 30.626742 24.483021 
L 31.059631 24.135808 
L 31.076541 24.101775 
L 31.147562 24.189491 
L 31.157707 24.181769 
L 31.181381 24.221922 
L 31.215201 24.15236 
L 31.269312 24.169999 
L 31.438409 24.249138 
L 31.451937 24.234794 
L 31.52634 24.107587 
L 31.577069 24.172585 
L 31.864534 24.471693 
L 31.881444 24.394819 
L 31.932173 24.26796 
L 32.006576 24.292363 
L 32.094507 24.17652 
L 32.145236 24.246228 
L 32.233166 24.302639 
L 32.158764 24.229614 
L 32.27375 24.262928 
L 32.60518 24.238314 
L 32.608562 24.248223 
L 32.611944 24.261678 
L 32.693111 24.167385 
L 32.710021 24.202338 
L 32.973813 24.076807 
L 32.994104 24.101304 
L 33.156438 24.0324 
L 33.257896 23.808814 
L 33.305243 23.855937 
L 33.416848 23.922703 
L 33.318771 23.839063 
L 33.437139 23.908307 
L 33.555507 23.922756 
L 33.562271 23.91205 
L 33.640056 23.845717 
L 33.579181 23.930914 
L 33.670494 23.925336 
L 33.741514 23.962106 
L 33.775334 23.894728 
L 33.880174 23.733203 
L 33.900466 23.763443 
L 34.022216 23.745149 
L 34.025598 23.724633 
L 34.191313 23.59902 
L 34.204841 23.626416 
L 34.208223 23.635182 
L 34.279244 23.522276 
L 34.296154 23.566181 
L 34.42805 23.507958 
L 34.333355 23.605821 
L 34.431431 23.525282 
L 34.478779 23.547996 
L 34.502452 23.463942 
L 34.610675 23.415802 
L 34.580237 23.503724 
L 34.617439 23.427618 
L 34.725661 23.371732 
L 34.752716 23.402819 
L 34.986071 23.465215 
L 34.989453 23.46028 
L 35.097675 23.341737 
L 35.107821 23.399837 
L 35.17546 23.535156 
L 35.236335 23.460731 
L 35.270154 23.420074 
L 35.331029 23.504582 
L 35.341175 23.486506 
L 35.500127 23.611451 
L 35.510272 23.667778 
L 35.604967 23.558659 
L 35.760536 23.481578 
L 35.632022 23.587689 
L 35.774064 23.49063 
L 35.777446 23.521028 
L 35.851849 23.398574 
L 35.872141 23.410273 
L 35.956689 23.435115 
L 35.987127 23.367539 
L 36.081821 23.404052 
L 36.007418 23.301281 
L 36.105495 23.382349 
L 36.210335 23.251132 
L 36.112259 23.389373 
L 36.264446 23.303599 
L 36.301648 23.336859 
L 36.335467 23.246764 
L 36.359141 23.256879 
L 36.399724 23.207049 
L 36.433544 23.29052 
L 36.474127 23.240745 
L 36.63646 23.144423 
L 36.673662 23.212896 
L 36.751447 23.152007 
L 36.852905 23.122197 
L 36.815704 23.168859 
L 36.863051 23.135674 
L 36.9476 23.175067 
L 37.001711 23.077991 
L 37.065968 23.126823 
L 37.116697 23.099788 
L 37.941892 22.87081 
L 38.073788 22.708652 
L 38.175246 22.806537 
L 38.192156 22.787171 
L 38.229357 22.730009 
L 38.290232 22.843433 
L 38.296996 22.823459 
L 38.300378 22.813938 
L 38.337579 22.902095 
L 38.378163 22.907917 
L 38.401836 22.933172 
L 38.452566 22.810691 
L 38.472857 22.826431 
L 38.574316 22.738835 
L 38.591225 22.770481 
L 38.712975 22.827391 
L 39.409656 22.727194 
L 39.504351 22.682403 
L 39.463768 22.758647 
L 39.521261 22.728976 
L 39.977823 22.447627 
L 39.987969 22.466215 
L 40.123247 22.506126 
L 40.015025 22.449045 
L 40.126629 22.495008 
L 40.204414 22.374966 
L 40.329546 22.171937 
L 40.393803 22.114602 
L 40.44115 22.179272 
L 40.5629 22.198278 
L 40.481733 22.13754 
L 40.566282 22.192939 
L 40.721852 22.206036 
L 40.725234 22.187464 
L 40.955206 21.88966 
L 41.137831 21.745886 
L 41.141213 21.752464 
L 41.164887 21.766918 
L 41.229144 21.684478 
L 41.232525 21.683776 
L 41.235907 21.667427 
L 41.273109 21.738332 
L 41.330602 21.718177 
L 41.333984 21.742063 
L 41.374567 21.673159 
L 41.438824 21.691793 
L 41.499699 21.595934 
L 41.628213 21.406159 
L 41.631595 21.413809 
L 41.881859 20.858628 
L 41.96979 19.916718 
L 41.986699 16.83703 
L 41.996845 8.728015 
L 42.09154 20.713396 
L 42.094922 20.711391 
L 42.159179 20.372168 
L 42.240345 18.420665 
L 42.253873 12.389537 
L 42.324894 20.575654 
L 42.341804 20.463068 
L 42.433116 18.917664 
L 42.453408 13.162142 
L 42.521047 20.425442 
L 42.531193 20.366457 
L 42.602214 19.361111 
L 42.625887 14.86351 
L 42.632651 13.589018 
L 42.70029 20.340907 
L 42.720582 20.162861 
L 42.784839 18.73419 
L 42.80513 13.817498 
L 42.872769 20.337164 
L 42.882915 20.238554 
L 42.953936 18.516071 
L 42.970846 13.709309 
L 43.035103 20.463671 
L 43.052013 20.34581 
L 43.126415 18.252174 
L 43.139943 13.3281 
L 43.2042 20.764508 
L 43.227874 20.53242 
L 43.305659 18.463688 
L 43.319186 12.570002 
L 43.383443 21.243369 
L 43.407117 21.011787 
L 43.505193 18.522088 
L 43.518721 11.481006 
L 43.58636 21.897889 
L 43.606652 21.672342 
L 43.738548 19.143273 
L 43.752075 10.602588 
L 43.82986 22.502109 
L 44.015867 19.687174 
L 44.029395 14.700763 
L 44.036159 9.97303 
L 44.117326 22.900858 
L 44.130853 22.762128 
L 44.360826 18.901692 
L 44.374354 9.795439 
L 44.45552 23.024101 
L 44.458902 23.016461 
L 44.736222 19.784735 
L 44.74975 17.292981 
L 44.759895 9.727963 
L 44.83768 22.971577 
L 44.85459 22.866167 
L 45.165729 18.625844 
L 45.179257 9.749139 
L 45.257042 22.891191 
L 45.267187 22.829823 
L 45.632438 18.637894 
L 45.645965 9.752901 
L 45.72375 22.700976 
L 45.733896 22.643123 
L 45.960486 20.837426 
L 46.136348 19.535591 
L 46.153257 12.259434 
L 46.160021 9.916044 
L 46.234424 22.486079 
L 46.24457 22.413023 
L 46.586146 20.421077 
L 46.775535 18.394326 
L 46.789063 10.221916 
L 46.866848 22.075429 
L 46.876994 22.012481 
L 47.093438 20.632475 
L 47.09682 20.635264 
L 47.37414 20.200395 
L 47.377522 20.220694 
L 48.043765 22.467201 
L 48.047147 22.449913 
L 48.158751 22.723772 
L 48.266974 22.97443 
L 48.287265 22.938305 
L 48.294029 22.907579 
L 48.375196 23.15022 
L 48.588259 23.666785 
L 48.946745 24.581522 
L 48.983946 24.567323 
L 48.99071 24.545416 
L 49.068495 24.695063 
L 49.237592 24.969351 
L 49.240974 24.965499 
L 49.271412 25.034807 
L 49.318759 25.042981 
L 49.481092 25.158353 
L 49.52844 25.09027 
L 49.582551 25.202052 
L 49.585933 25.194037 
L 49.677245 25.227596 
L 49.65019 25.248184 
L 49.680627 25.234715 
L 49.724593 25.291457 
L 49.775322 25.195877 
L 49.785468 25.212237 
L 49.880162 25.234024 
L 49.863252 25.262424 
L 49.890308 25.251106 
L 50.056023 25.119069 
L 50.096607 25.159163 
L 50.252176 25.248228 
L 50.106753 25.128078 
L 50.25894 25.217809 
L 50.360398 25.177477 
L 50.370544 25.186794 
L 50.407746 25.221399 
L 50.472003 25.149399 
L 50.475385 25.123891 
L 50.559933 25.28906 
L 50.566697 25.27716 
L 50.6411 25.322729 
L 50.593753 25.264165 
L 50.671538 25.259898 
L 50.705357 25.292391 
L 50.823725 25.147194 
L 50.898128 25.198141 
L 50.938711 25.141284 
L 50.982677 25.115385 
L 51.00635 25.202658 
L 51.050316 25.144311 
L 51.070607 25.189327 
L 51.148392 25.08674 
L 51.202503 25.064718 
L 51.165302 25.057314 
L 51.226177 25.020092 
L 51.246468 25.029796 
L 51.385128 24.829727 
L 51.391892 24.870047 
L 51.483205 24.807605 
L 51.493351 24.807976 
L 51.567753 24.692127 
L 51.611719 24.774838 
L 51.615101 24.795522 
L 51.699649 24.661282 
L 51.703031 24.669441 
L 51.821399 24.570209 
L 51.723323 24.684632 
L 51.831545 24.583217 
L 51.882274 24.642815 
L 51.922858 24.525214 
L 51.933004 24.531833 
L 51.987115 24.405809 
L 52.04799 24.478167 
L 52.061517 24.52912 
L 52.142684 24.388062 
L 52.146066 24.390216 
L 52.365893 24.132938 
L 52.369275 24.142559 
L 52.423386 24.250108 
L 52.484261 24.169814 
L 52.51808 24.153965 
L 52.538372 24.257334 
L 52.572191 24.230744 
L 52.626303 24.353675 
L 52.690559 24.309493 
L 52.697323 24.328047 
L 52.744671 24.223186 
L 52.771726 24.22925 
L 52.930678 24.230925 
L 52.93406 24.224193 
L 53.096393 24.010896 
L 53.099775 24.027118 
L 53.231671 24.111424 
L 53.31622 24.026821 
L 53.356803 24.089575 
L 53.468407 24.132614 
L 53.410914 24.068448 
L 53.478553 24.127295 
L 53.593539 24.032246 
L 53.596921 24.043157 
L 53.651032 24.162961 
L 53.776164 24.494195 
L 53.793074 24.436825 
L 54.138033 24.484777 
L 54.286838 24.610493 
L 54.300366 24.587952 
L 54.398442 24.47928 
L 54.432262 24.604078 
L 54.537102 24.631994 
L 54.489755 24.581334 
L 54.547248 24.628097 
L 54.554012 24.587678 
L 54.608123 24.708756 
L 54.65547 24.647254 
L 54.706199 24.649876 
L 54.729873 24.726177 
L 54.763693 24.675892 
L 55.128943 24.758968 
L 55.145852 24.710725 
L 55.237165 24.702427 
L 55.1932 24.731998 
L 55.250693 24.722527 
L 55.274366 24.742263 
L 55.342005 24.645889 
L 55.345387 24.64696 
L 55.379207 24.631831 
L 55.406262 24.559074 
L 55.409644 24.57061 
L 55.484047 24.56151 
L 55.497575 24.604894 
L 55.521249 24.57638 
L 55.571978 24.5782 
L 55.605797 24.634507 
L 55.710638 24.680629 
L 55.714019 24.6586 
L 55.795186 24.52022 
L 55.737693 24.686885 
L 55.83577 24.551965 
L 55.974429 24.579806 
L 55.977811 24.565904 
L 56.031922 24.663159 
L 56.069124 24.660226 
L 56.092797 24.679465 
L 56.140145 24.527443 
L 56.146909 24.558977 
L 56.255131 24.486667 
L 56.173964 24.632405 
L 56.282186 24.513299 
L 56.336298 24.49153 
L 56.407318 24.595426 
L 56.417464 24.562908 
L 56.498631 24.646883 
L 56.518923 24.601326 
L 56.600089 24.677071 
L 56.640673 24.621655 
L 56.694784 24.582051 
L 56.752277 24.622737 
L 56.840208 24.65844 
L 56.769187 24.610254 
L 56.863881 24.640488 
L 56.877409 24.603128 
L 56.924756 24.684506 
L 56.968722 24.686503 
L 57.188548 24.711771 
L 57.19193 24.726503 
L 57.276479 24.611002 
L 57.384701 24.597478 
L 57.31368 24.680112 
L 57.394847 24.616226 
L 57.489541 24.638868 
L 57.465868 24.570407 
L 57.506451 24.610217 
L 57.668784 24.614733 
L 57.682312 24.668397 
L 57.804062 24.696738 
L 57.733041 24.608429 
L 57.810826 24.67971 
L 57.949486 24.650652 
L 57.95625 24.633872 
L 57.97316 24.603991 
L 58.010361 24.709716 
L 58.047562 24.692766 
L 58.172694 24.858706 
L 58.192986 24.825718 
L 58.84232 24.673378 
L 58.893049 24.636419 
L 58.849084 24.687672 
L 58.960688 24.669349 
L 59.001271 24.74428 
L 59.075674 24.677734 
L 59.227862 24.573033 
L 59.146695 24.710183 
L 59.234626 24.584266 
L 59.251535 24.60409 
L 59.275209 24.552836 
L 59.342848 24.567635 
L 59.410487 24.519741 
L 59.454452 24.614727 
L 59.549147 24.639632 
L 59.505181 24.563581 
L 59.562674 24.59083 
L 59.613404 24.61585 
L 59.657369 24.550836 
L 59.674279 24.582915 
L 59.785883 24.546531 
L 59.792647 24.554699 
L 59.883959 24.734978 
L 59.921161 24.697989 
L 59.992182 24.582696 
L 60.039529 24.628124 
L 60.134223 24.666759 
L 60.056439 24.61317 
L 60.154515 24.638182 
L 60.303321 24.515254 
L 60.326994 24.557032 
L 60.387869 24.606425 
L 60.418307 24.513762 
L 60.425071 24.518301 
L 60.428453 24.500504 
L 60.465654 24.578691 
L 60.523147 24.584768 
L 60.533293 24.56928 
L 60.678717 24.605211 
L 60.753119 24.530718 
L 60.797085 24.55634 
L 60.834286 24.544366 
L 60.922217 24.639693 
L 61.094696 24.45509 
L 61.24012 24.569315 
L 61.250266 24.529584 
L 61.253647 24.490017 
L 61.324668 24.536128 
L 61.36187 24.524309 
L 61.476856 24.437594 
L 61.503912 24.423092 
L 61.554641 24.506729 
L 61.574932 24.48804 
L 61.693301 24.572566 
L 61.760939 24.542831 
L 61.72712 24.508782 
L 61.787995 24.520353 
L 61.899599 24.414022 
L 61.913127 24.436727 
L 62.085606 24.319182 
L 62.105898 24.293479 
L 62.170155 24.386327 
L 62.183683 24.38529 
L 62.298669 24.404109 
L 62.210738 24.319816 
L 62.302051 24.397373 
L 62.75185 24.238248 
L 62.843162 24.281323 
L 62.802579 24.219175 
L 62.863454 24.258648 
L 63.01226 23.961378 
L 63.029169 23.986079 
L 63.157683 24.105946 
L 63.042697 23.957293 
L 63.20503 24.016315 
L 63.306489 23.998654 
L 63.245614 24.05543 
L 63.320017 24.034464 
L 63.326781 24.030262 
L 63.48235 24.138857 
L 63.553371 24.015723 
L 63.600718 24.047505 
L 63.698795 24.085779 
L 63.719086 24.043067 
L 63.871274 23.892571 
L 63.88142 23.909519 
L 63.965968 23.800887 
L 64.104628 23.693536 
L 64.111392 23.720995 
L 64.294017 23.683825 
L 64.307545 23.702795 
L 64.38533 23.762433 
L 64.415767 23.68552 
L 64.422531 23.648934 
L 64.50708 23.739887 
L 64.520608 23.712757 
L 64.615302 23.70979 
L 64.554427 23.678717 
L 64.632212 23.693762 
L 64.88924 23.435045 
L 64.652504 23.710291 
L 64.896004 23.440654 
L 65.014372 23.526172 
L 65.017754 23.524154 
L 65.082011 23.641916 
L 65.024518 23.520157 
L 65.142886 23.546033 
L 65.362712 23.347838 
L 65.369476 23.36288 
L 65.48108 23.405725 
L 65.487844 23.378942 
L 65.558865 23.309561 
L 65.60283 23.371031 
L 65.63665 23.40091 
L 65.646796 23.349991 
L 65.707671 23.356346 
L 65.826039 23.298103 
L 65.74149 23.39013 
L 65.829421 23.315833 
L 65.856476 23.335776 
L 65.886914 23.256455 
L 65.917351 23.251929 
L 65.981608 23.177134 
L 66.032338 23.218695 
L 66.045865 23.223861 
L 66.093213 23.155417 
L 66.113504 23.14321 
L 66.116886 23.130511 
L 66.184525 23.203218 
L 66.218345 23.178039 
L 66.441553 23.24418 
L 66.444935 23.22767 
L 66.74931 23.007532 
L 66.756074 23.017759 
L 66.769602 22.970114 
L 66.901498 22.960028 
L 66.982664 22.882249 
L 67.02663 22.909797 
L 67.063831 23.043782 
L 67.138234 22.937173 
L 67.246456 22.822337 
L 67.168672 22.956918 
L 67.273512 22.857455 
L 67.307331 22.891585 
L 67.371588 22.802129 
L 67.378352 22.816867 
L 67.51363 22.854931 
L 67.517012 22.839278 
L 67.53054 22.816339 
L 67.598179 22.913167 
L 67.628616 22.967515 
L 67.662436 22.87763 
L 67.706401 22.905818 
L 67.828151 22.861143 
L 67.784186 22.944992 
L 67.831533 22.868223 
L 68.13929 22.932601 
L 68.142672 22.920373 
L 68.169728 22.958869 
L 68.271186 22.884922 
L 68.291478 22.937751 
L 68.376026 22.871774 
L 68.460575 22.77701 
L 68.501158 22.801988 
L 68.994923 22.663606 
L 69.072707 22.629286 
L 69.015214 22.689188 
L 69.106527 22.659817 
L 69.201221 22.603583 
L 69.204603 22.583693 
L 69.306062 22.469791 
L 69.326353 22.543196 
L 69.333117 22.551879 
L 69.410902 22.467016 
L 69.414284 22.483203 
L 69.417666 22.456273 
L 69.451485 22.541801 
L 69.519124 22.53779 
L 69.576617 22.557811 
L 69.549562 22.513618 
L 69.620583 22.501941 
L 69.715277 22.478779 
L 69.681458 22.574949 
L 69.732187 22.503493 
L 70.374757 22.367135 
L 70.506653 22.279592 
L 70.41534 22.404675 
L 70.510034 22.283925 
L 70.513416 22.306261 
L 70.601347 22.206027 
L 70.608111 22.238369 
L 70.733243 22.089923 
L 70.773826 22.092365 
L 70.753535 22.048598 
L 70.821174 22.025395 
L 70.946306 21.920791 
L 71.095111 21.776259 
L 71.118785 21.8223 
L 71.193188 21.771181 
L 71.152604 21.764599 
L 71.19657 21.767134 
L 71.298028 21.592726 
L 71.321702 21.644163 
L 71.345375 21.666743 
L 71.402868 21.515174 
L 71.40625 21.520646 
L 71.571966 21.323248 
L 71.426542 21.52726 
L 71.575348 21.338467 
L 71.663278 21.209723 
L 71.900014 19.874237 
L 71.916924 14.773638 
L 71.92707 8.76879 
L 72.021764 20.702172 
L 72.069112 20.466356 
L 72.163806 18.902084 
L 72.180716 12.486875 
L 72.251737 20.526892 
L 72.261883 20.477651 
L 72.332904 19.744551 
L 72.366723 17.227296 
L 72.376869 13.220591 
L 72.444508 20.365656 
L 72.471563 20.160591 
L 72.522293 19.464121 
L 72.549348 15.287183 
L 72.556112 13.716055 
L 72.623751 20.247845 
L 72.644043 20.091412 
L 72.7083 18.334458 
L 72.725209 14.020331 
L 72.789466 20.210758 
L 72.809758 20.040889 
L 72.863869 19.009187 
L 72.887543 14.02607 
L 72.9518 20.294127 
L 72.955182 20.30166 
L 72.975473 20.082371 
L 73.036348 18.298588 
L 73.053258 13.804413 
L 73.117515 20.510954 
L 73.137807 20.327479 
L 73.202064 18.933151 
L 73.222355 13.085163 
L 73.286612 20.988442 
L 73.293376 20.901123 
L 73.374543 19.749486 
L 73.398217 16.919468 
L 73.408362 11.990401 
L 73.472619 21.635824 
L 73.503057 21.295864 
L 73.614661 18.333291 
L 73.624807 10.903505 
L 73.69921 22.33302 
L 73.71612 22.143819 
L 73.878453 19.237598 
L 73.891981 10.128341 
L 73.969766 22.82235 
L 73.983293 22.729509 
L 74.206502 18.356745 
L 74.216648 9.766632 
L 74.297814 23.020261 
L 74.311342 22.904975 
L 74.575134 18.883939 
L 74.588662 9.71117 
L 74.669828 23.034739 
L 74.67321 23.030063 
L 74.997877 19.11749 
L 75.011405 9.723722 
L 75.08919 22.893414 
L 75.092572 22.90862 
L 75.126391 22.552889 
L 75.457822 19.196812 
L 75.474732 9.785836 
L 75.545752 22.665269 
L 75.552516 22.72452 
L 75.616773 22.069729 
L 75.968496 19.305442 
L 75.988787 9.931156 
L 76.049662 21.834681 
L 76.06319 22.469099 
L 76.157885 21.595138 
L 76.492697 19.397204 
L 76.512989 10.0675 
L 76.573864 21.451774 
L 76.590774 22.339448 
L 76.682086 21.528565 
L 77.010135 20.377994 
L 77.07101 20.456443 
L 77.290837 21.103184 
L 77.547865 21.768432 
L 77.808275 22.342242 
L 77.811657 22.33892 
L 77.842094 22.450928 
L 78.278365 23.645756 
L 78.281747 23.635914 
L 78.335858 23.789094 
L 78.484664 24.190446 
L 78.572594 24.343799 
L 78.863442 25.078154 
L 78.866824 25.077246 
L 79.137379 25.192157 
L 79.238838 25.247325 
L 79.255748 25.23556 
L 79.265893 25.205678 
L 79.313241 25.282964 
L 79.353824 25.282426 
L 79.465428 25.314436 
L 79.360588 25.265204 
L 79.472192 25.312872 
L 79.857734 25.207725 
L 79.86788 25.245923 
L 79.918609 25.275728 
L 79.891553 25.217115 
L 79.976102 25.226581 
L 80.239894 25.138141 
L 80.243276 25.151242 
L 80.270331 25.258586 
L 80.294005 25.126599 
L 80.365026 25.186405 
L 80.733658 24.972158 
L 80.747186 24.988339 
L 80.781005 24.994473 
L 80.791151 24.943417 
L 80.845262 24.946059 
L 80.939957 24.910432 
L 80.909519 24.971949 
L 80.956867 24.94161 
L 81.071853 24.83582 
L 81.092144 24.850693 
L 81.284915 24.792795 
L 81.291679 24.828313 
L 81.406665 24.939049 
L 81.423575 24.872969 
L 81.829409 24.480161 
L 81.430339 24.888158 
L 81.832791 24.487089 
L 81.907193 24.40718 
L 81.947777 24.447433 
L 82.384048 24.516261 
L 82.38743 24.49745 
L 82.499034 24.392804 
L 82.50918 24.424439 
L 82.76959 24.365342 
L 82.786499 24.410073 
L 82.837229 24.459585 
L 82.887958 24.363392 
L 83.053673 24.142053 
L 82.894722 24.373121 
L 83.063819 24.178115 
L 83.067201 24.184924 
L 83.090875 24.096264 
L 83.141604 24.091952 
L 83.249826 23.982186 
L 83.259972 24.007742 
L 83.388486 23.931101 
L 83.41216 23.952575 
L 83.530528 23.76412 
L 83.919451 23.66919 
L 83.963417 23.755487 
L 84.031056 23.677963 
L 84.162952 23.447287 
L 84.284702 23.568403 
L 84.301611 23.532521 
L 84.426743 23.388081 
L 84.436889 23.393458 
L 84.460563 23.435188 
L 84.62966 23.34746 
L 84.690535 23.407754 
L 84.734501 23.310443 
L 84.825813 23.290946 
L 84.744646 23.330012 
L 84.842723 23.339304 
L 85.177536 23.412041 
L 85.285758 23.493534 
L 85.295904 23.477898 
L 85.353397 23.500605 
L 85.370306 23.573768 
L 85.468383 23.63179 
L 85.485293 23.599319 
L 85.539404 23.552761 
L 85.590133 23.619249 
L 85.816723 24.236029 
L 85.820105 24.228009 
L 85.826869 24.204082 
L 85.891126 24.322685 
L 85.89789 24.323258 
L 86.033168 24.50227 
L 86.083897 24.468865 
L 86.043314 24.508678 
L 86.134626 24.538053 
L 86.256376 24.613107 
L 86.161682 24.509019 
L 86.269904 24.593586 
L 86.367981 24.555213 
L 86.29696 24.624458 
L 86.388272 24.600437 
L 86.398418 24.63889 
L 86.445765 24.524752 
L 86.479585 24.531623 
L 86.482967 24.521361 
L 86.516786 24.618293 
L 86.570897 24.605737 
L 86.574279 24.602131 
L 86.635154 24.695287 
L 87.020696 24.812976 
L 87.034224 24.759218 
L 87.145828 24.749093 
L 87.068043 24.811562 
L 87.14921 24.760419 
L 87.152592 24.774321 
L 87.230377 24.647316 
L 87.247287 24.558174 
L 87.318308 24.67074 
L 87.335217 24.669916 
L 87.473877 24.817198 
L 87.490787 24.786712 
L 87.534752 24.707059 
L 87.609155 24.769477 
L 87.663266 24.833813 
L 87.622683 24.722911 
L 87.727523 24.77744 
L 87.856037 24.681527 
L 87.862801 24.687476 
L 87.866183 24.708288 
L 87.954113 24.616802 
L 87.964259 24.637462 
L 88.474933 24.686309 
L 88.478315 24.680063 
L 88.542572 24.78658 
L 88.559482 24.736546 
L 88.664322 24.794724 
L 88.671086 24.751324 
L 88.748871 24.665761 
L 88.802982 24.724422 
L 89.019426 24.619756 
L 88.809746 24.741838 
L 89.02619 24.639775 
L 89.039718 24.693529 
L 89.087065 24.580257 
L 89.134413 24.619455 
L 89.14794 24.61919 
L 89.191906 24.531947 
L 89.19867 24.540849 
L 89.30351 24.439828 
L 89.249399 24.552865 
L 89.32042 24.450805 
L 89.394823 24.508009 
L 89.432024 24.460418 
L 89.435406 24.437099 
L 89.519955 24.511405 
L 89.536864 24.505168 
L 89.631559 24.439594 
L 89.550392 24.54242 
L 89.65185 24.478756 
L 89.760073 24.562325 
L 89.770219 24.529061 
L 89.858149 24.518035 
L 89.797274 24.599447 
L 89.875059 24.557714 
L 89.949462 24.581984 
L 89.919024 24.499825 
L 89.990045 24.559978 
L 90.027246 24.601368 
L 90.108413 24.56159 
L 90.220017 24.577151 
L 90.118559 24.542618 
L 90.226781 24.574801 
L 90.348531 24.559839 
L 90.297802 24.642658 
L 90.355295 24.570721 
L 90.453372 24.698856 
L 90.395879 24.560279 
L 90.477045 24.659293 
L 90.544684 24.699713 
L 90.592032 24.618828 
L 90.602177 24.66113 
L 90.639379 24.584307 
L 90.700254 24.594973 
L 90.778039 24.667495 
L 90.818622 24.619011 
L 91.018157 24.467091 
L 90.828768 24.633137 
L 91.031685 24.497418 
L 91.062122 24.526478 
L 91.068886 24.499064 
" clip-path="url(#peda49197c9)" style="fill: none; stroke: #000000; stroke-width: 0.6; stroke-linecap: square"/>
   </g>
   <g id="line2d_2">
    <path d="M 9.905557 41.499848 
L 9.986724 41.399037 
L 10.094946 41.411136 
L 10.044217 41.476219 
L 10.098328 41.420254 
L 10.213314 41.568665 
L 10.233606 41.535154 
L 10.34521 41.647986 
L 10.382411 41.628263 
L 10.490634 41.664742 
L 10.392557 41.6687 
L 10.50078 41.710001 
L 10.551509 41.760677 
L 10.581946 41.694382 
L 10.612384 41.726218 
L 10.646203 41.66201 
L 10.690169 41.753613 
L 10.723988 41.728817 
L 10.859266 41.829029 
L 10.977634 41.758229 
L 11.09262 41.798883 
L 11.187315 41.860904 
L 11.146731 41.763761 
L 11.210988 41.831224 
L 11.271863 41.888538 
L 11.23128 41.80262 
L 11.315829 41.79515 
L 11.325974 41.81071 
L 11.447725 41.750133 
L 11.562711 41.837141 
L 11.566093 41.81661 
L 11.944871 41.797393 
L 12.080148 41.670764 
L 12.086912 41.694852 
L 12.181607 41.736016 
L 12.127496 41.752614 
L 12.184989 41.750462 
L 12.188371 41.766744 
L 12.242482 41.681864 
L 12.293211 41.726281 
L 12.435253 41.810937 
L 12.570531 41.677145 
L 12.573913 41.678072 
L 12.617878 41.736851 
L 12.668607 41.635174 
L 12.695663 41.702929 
L 13.470128 41.615691 
L 13.578351 41.578565 
L 13.558059 41.652076 
L 13.588497 41.580758 
L 13.696719 41.65987 
L 13.59526 41.5617 
L 13.723774 41.57058 
L 14.001094 41.70619 
L 14.109316 41.814327 
L 14.119462 41.789713 
L 14.264886 41.611381 
L 14.281796 41.651641 
L 14.406928 41.694977 
L 14.298705 41.644398 
L 14.410309 41.689959 
L 14.488094 41.571531 
L 14.535441 41.641445 
L 14.640282 41.574652 
L 14.542205 41.660042 
L 14.684247 41.656051 
L 14.785706 41.653055 
L 14.714685 41.577408 
L 14.795851 41.6432 
L 15.394456 41.746395 
L 15.512824 41.609444 
L 15.52297 41.618708 
L 15.695449 41.784481 
L 15.803671 41.809088 
L 15.708977 41.761908 
L 15.810435 41.801591 
L 15.915276 41.812554 
L 15.922039 41.825715 
L 15.935567 41.879526 
L 16.020116 41.761508 
L 16.02688 41.772272 
L 16.128338 41.837153 
L 16.040408 41.748885 
L 16.14863 41.815983 
L 16.216269 41.799597 
L 16.246706 41.870795 
L 16.331255 41.83796 
L 16.300817 41.819557 
L 16.338019 41.819155 
L 16.459769 41.737594 
L 16.466533 41.754758 
L 16.557845 41.731161 
L 16.49697 41.796196 
L 16.578137 41.753478 
L 16.601811 41.782342 
L 16.65254 41.683622 
L 16.682977 41.722751 
L 16.841929 41.503473 
L 16.703269 41.772854 
L 16.852075 41.532471 
L 16.983971 41.463225 
L 17.075283 41.345314 
L 17.102339 41.392792 
L 17.132776 41.339723 
L 17.153068 41.435191 
L 17.220707 41.376738 
L 17.284964 41.400953 
L 17.234235 41.355735 
L 17.315401 41.338534 
L 17.443915 41.19494 
L 17.447297 41.219987 
L 17.717853 41.027191 
L 17.880186 40.921884 
L 18.0087 40.857689 
L 17.897096 40.943946 
L 18.015464 40.860308 
L 18.076339 40.911951 
L 18.120305 40.846961 
L 18.123687 40.828733 
L 18.157506 40.897073 
L 18.221763 40.868055 
L 18.346895 40.991765 
L 18.40777 41.033997 
L 18.373951 40.957995 
L 18.448353 40.941072 
L 18.590395 40.959228 
L 18.647888 41.058011 
L 18.691853 40.907354 
L 18.695235 40.914224 
L 18.796694 40.903339 
L 18.752729 40.939911 
L 18.803458 40.929323 
L 18.992847 40.838181 
L 18.996229 40.816295 
L 19.057104 40.902004 
L 19.097687 40.881519 
L 19.189 40.938446 
L 19.192382 40.954506 
L 19.246493 41.110137 
L 19.307368 40.997088 
L 19.449409 40.796653 
L 19.452791 40.800511 
L 19.456173 40.808633 
L 19.500139 40.68252 
L 19.52043 40.688114 
L 19.652326 40.544522 
L 19.533958 40.702623 
L 19.662472 40.568112 
L 19.716583 40.617112 
L 19.774076 40.56019 
L 19.777458 40.57561 
L 19.862007 40.460424 
L 19.865389 40.469093 
L 19.895826 40.479961 
L 19.990521 40.394185 
L 20.386209 40.333014 
L 20.392972 40.366316 
L 20.399736 40.402181 
L 20.453847 40.34146 
L 20.504577 40.38622 
L 20.585743 40.351177 
L 20.511341 40.411119 
L 20.606035 40.408111 
L 20.673674 40.478227 
L 20.714257 40.392582 
L 20.737931 40.335198 
L 20.785278 40.451141 
L 20.832625 40.382963 
L 20.991577 40.434629 
L 21.018633 40.396235 
L 21.076126 40.282503 
L 21.133619 40.361953 
L 21.160674 40.392197 
L 21.214785 40.318839 
L 21.245223 40.358562 
L 21.366973 40.246888 
L 21.377119 40.283829 
L 21.485341 40.342701 
L 21.495487 40.326147 
L 21.610473 40.210167 
L 21.630765 40.304647 
L 21.647675 40.343355 
L 21.705168 40.217395 
L 21.799862 40.016829 
L 21.840445 40.058523 
L 21.965577 40.031894 
L 21.968959 40.042771 
L 22.063654 40.087747 
L 21.996015 40.005872 
L 22.077182 40.057676 
L 22.202314 39.978594 
L 22.239515 39.957916 
L 22.297008 40.042311 
L 22.313918 40.089329 
L 22.395085 39.994337 
L 22.415376 39.944071 
L 22.493161 40.043753 
L 22.499925 40.032331 
L 22.503307 40.042881 
L 22.57771 39.951635 
L 22.584474 39.950689 
L 22.611529 39.967049 
L 22.712988 39.881777 
L 22.743425 39.942614 
L 22.831356 39.876862 
L 22.946342 39.722982 
L 22.976779 39.761092 
L 23.304828 39.613465 
L 23.311592 39.646731 
L 23.318356 39.701169 
L 23.406287 39.581891 
L 23.409669 39.582732 
L 23.649787 39.428398 
L 23.666696 39.465934 
L 23.798592 39.492746 
L 23.808738 39.467135 
L 23.944016 39.281786 
L 23.954162 39.298071 
L 24.620405 38.516698 
L 24.80303 37.947044 
L 24.85376 37.650463 
L 24.897725 36.178604 
L 24.918017 28.004472 
L 24.982274 39.682271 
L 24.989037 39.676898 
L 25.107406 38.229781 
L 25.175045 35.58102 
L 25.188572 28.629057 
L 25.252829 39.981318 
L 25.276503 39.700373 
L 25.418545 36.763505 
L 25.438836 29.005709 
L 25.496329 39.905021 
L 25.503093 39.98082 
L 25.560586 39.071127 
L 25.665427 35.710576 
L 25.678955 29.254061 
L 25.743211 39.961843 
L 25.766885 39.623656 
L 25.898781 35.52508 
L 25.912309 29.374202 
L 25.973184 40.039865 
L 26.000239 39.650578 
L 26.128753 36.499359 
L 26.145663 29.224704 
L 26.20992 40.149197 
L 26.216684 40.069651 
L 26.368872 36.781965 
L 26.389163 29.092465 
L 26.446656 40.216565 
L 26.45342 40.30157 
L 26.517677 39.306516 
L 26.632663 35.327921 
L 26.642809 28.838682 
L 26.710448 40.509531 
L 26.734122 40.261579 
L 26.909983 34.828037 
L 26.920129 28.523666 
L 26.99115 40.757647 
L 27.014823 40.484026 
L 27.207594 37.157857 
L 27.224504 32.184945 
L 27.231268 28.355762 
L 27.298907 40.892294 
L 27.32258 40.692262 
L 27.566081 35.622768 
L 27.579608 28.328681 
L 27.647247 40.993258 
L 27.667539 40.846985 
L 27.94824 36.232996 
L 27.961768 28.330835 
L 28.032789 41.055398 
L 28.042935 41.006627 
L 28.134248 40.070691 
L 28.384512 35.542364 
L 28.398039 28.363196 
L 28.46906 41.011808 
L 28.48597 40.896807 
L 28.62463 39.508795 
L 28.864748 35.951621 
L 28.881658 28.647074 
L 28.949297 40.944395 
L 28.959442 40.893692 
L 29.378804 35.677811 
L 29.395713 28.951169 
L 29.45997 40.83746 
L 29.473498 40.785347 
L 29.527609 40.331807 
L 30.021374 37.332382 
L 30.051811 37.411975 
L 30.234436 38.074447 
L 30.254728 38.054455 
L 30.386624 37.956761 
L 30.390006 37.959268 
L 30.51852 38.045463 
L 30.64027 38.213193 
L 30.545575 37.993887 
L 30.653797 38.205821 
L 30.657179 38.198917 
L 30.690999 38.337932 
L 30.704527 38.343315 
L 30.822895 38.423564 
L 30.833041 38.417003 
L 31.790131 39.676828 
L 31.817187 39.629194 
L 31.823951 39.621875 
L 31.87468 39.758787 
L 31.878062 39.752354 
L 31.935555 39.844613 
L 32.084361 40.256594 
L 32.128326 40.377512 
L 32.294041 40.787489 
L 32.297423 40.769345 
L 32.371826 40.903014 
L 32.381972 40.893578 
L 32.524014 41.121285 
L 32.551069 41.099481 
L 32.554451 41.09059 
L 32.615326 41.215512 
L 32.639 41.177989 
L 32.946757 41.56007 
L 32.953521 41.527698 
L 33.048215 41.622295 
L 33.328917 41.953998 
L 33.332299 41.943739 
L 33.349209 41.934882 
L 33.416848 42.016168 
L 33.521688 42.091445 
L 33.423612 42.012432 
L 33.54198 42.050431 
L 33.613 42.049294 
L 33.552125 42.060801 
L 33.633292 42.0973 
L 33.75166 42.172372 
L 33.771952 42.207464 
L 33.856501 42.139101 
L 33.859883 42.150902 
L 33.985015 42.214952 
L 33.893702 42.137805 
L 33.991778 42.20309 
L 34.049272 42.158892 
L 34.072945 42.232807 
L 34.100001 42.216019 
L 34.221751 42.29333 
L 34.228515 42.289585 
L 34.384084 42.043519 
L 34.49907 41.968241 
L 34.509216 41.976856 
L 34.556564 41.83409 
L 34.583619 41.889187 
L 34.708751 41.929212 
L 34.75948 41.993118 
L 34.816973 41.921115 
L 34.827119 41.908613 
L 34.854175 41.986008 
L 34.91505 41.972242 
L 34.938723 42.003955 
L 34.982689 41.89197 
L 35.016508 41.936936 
L 35.070619 41.904417 
L 35.033418 41.954003 
L 35.121349 41.960821 
L 35.226189 42.083408 
L 35.253244 42.063173 
L 35.347939 41.917587 
L 35.381758 41.952453 
L 35.38514 41.997808 
L 35.483217 41.865456 
L 35.5238 41.92516 
L 35.611731 41.836106 
L 35.696279 41.850473 
L 35.621877 41.821832 
L 35.716571 41.80751 
L 35.774064 41.793301 
L 35.811266 41.866298 
L 35.818029 41.846941 
L 35.845085 41.905236 
L 35.912724 41.76816 
L 36.007418 41.821159 
L 35.92287 41.751353 
L 36.037856 41.75603 
L 36.169752 41.610885 
L 36.179898 41.640442 
L 36.311794 41.751054 
L 36.335467 41.72916 
L 36.450453 41.735024 
L 36.365905 41.619196 
L 36.460599 41.706897 
L 36.646606 41.476979 
L 36.649988 41.488206 
L 36.741301 41.51393 
L 36.68719 41.447258 
L 36.761592 41.471543 
L 36.978037 41.462334 
L 36.984801 41.502847 
L 37.042294 41.626354 
L 37.106551 41.572767 
L 37.221537 41.630564 
L 37.248593 41.566645 
L 37.319614 41.487364 
L 37.366961 41.498343 
L 37.749121 41.434281 
L 37.755885 41.381263 
L 37.806614 41.516679 
L 37.850579 41.507712 
L 37.877635 41.486304 
L 37.924982 41.586614 
L 37.928364 41.579377 
L 37.945274 41.572321 
L 38.083933 41.717782 
L 38.232739 41.61489 
L 38.361253 41.500653 
L 38.368017 41.510866 
L 38.570934 41.579553 
L 38.574316 41.569015 
L 38.692684 41.438288 
L 38.699448 41.448502 
L 38.767087 41.498112 
L 38.794142 41.419068 
L 38.82458 41.383197 
L 38.871927 41.505248 
L 38.898983 41.469691 
L 38.96324 41.454475 
L 38.909128 41.476007 
L 39.000441 41.499081 
L 39.139101 41.710542 
L 39.166156 41.692941 
L 39.20674 41.725628 
L 39.281142 41.66436 
L 39.29467 41.692645 
L 39.369073 41.581215 
L 39.382601 41.597528 
L 39.392747 41.617847 
L 39.463768 41.494515 
L 39.46715 41.482591 
L 39.548316 41.599785 
L 39.720795 41.54851 
L 39.561844 41.617407 
L 39.724177 41.555979 
L 39.825636 41.669392 
L 39.839164 41.622193 
L 39.930476 41.592083 
L 39.876365 41.671743 
L 39.95415 41.604902 
L 40.096192 41.822323 
L 40.190886 41.82206 
L 40.173976 41.884384 
L 40.204414 41.830497 
L 40.207796 41.847971 
L 40.30249 41.759563 
L 40.59672 41.637321 
L 40.613629 41.677655 
L 40.660977 41.758415 
L 40.731997 41.736979 
L 40.8064 41.71481 
L 40.769199 41.753162 
L 40.84022 41.752152 
L 41.18856 41.398752 
L 40.846984 41.765681 
L 41.195324 41.41916 
L 41.597776 41.518359 
L 41.69247 41.562031 
L 41.645123 41.494682 
L 41.716144 41.52713 
L 42.358714 41.65474 
L 42.45679 41.697611 
L 42.382387 41.607507 
L 42.477082 41.678987 
L 42.514283 41.627269 
L 42.57854 41.727832 
L 42.693526 41.724118 
L 42.625887 41.800802 
L 42.70029 41.737533 
L 42.862624 41.79207 
L 42.710436 41.722359 
L 42.882915 41.740742 
L 43.133179 41.59098 
L 43.139943 41.60941 
L 43.153471 41.67068 
L 43.254929 41.629179 
L 43.454464 41.613854 
L 43.549159 41.722202 
L 43.572832 41.697933 
L 43.731784 41.775687 
L 43.752075 41.753483 
L 43.86368 41.698411 
L 43.789277 41.809088 
L 43.870444 41.743002 
L 43.934701 41.849868 
L 43.98543 41.764306 
L 44.063215 41.829364 
L 44.100416 41.723267 
L 44.130853 41.754074 
L 44.151145 41.704225 
L 44.208638 41.701217 
L 44.31686 41.64467 
L 44.327006 41.64851 
L 44.425083 41.617538 
L 44.445374 41.673513 
L 44.540069 41.737121 
L 44.465666 41.659933 
L 44.563743 41.691406 
L 44.814007 41.691124 
L 44.841062 41.755535 
L 44.915465 41.651639 
L 45.037215 41.537075 
L 45.158965 41.66298 
L 45.108236 41.513312 
L 45.175875 41.634457 
L 45.182639 41.622638 
L 45.213076 41.736153 
L 45.280715 41.666861 
L 45.388937 41.652703 
L 45.314535 41.612071 
L 45.392319 41.642701 
L 45.422757 41.58293 
L 45.487014 41.667222 
L 45.500542 41.636411 
L 45.524215 41.672809 
L 45.554653 41.612297 
L 45.612146 41.626243 
L 45.788007 41.717758 
L 45.815063 41.645545 
L 45.835354 41.578301 
L 45.906375 41.708659 
L 45.916521 41.687042 
L 45.957104 41.703767 
L 46.011216 41.622816 
L 46.126202 41.542183 
L 46.132966 41.549396 
L 46.190459 41.626088 
L 46.146493 41.546309 
L 46.247952 41.569041 
L 46.298681 41.593039 
L 46.38323 41.50704 
L 46.433959 41.450223 
L 46.444105 41.40881 
L 46.538799 41.362056 
L 46.48807 41.439397 
L 46.559091 41.40971 
L 46.728188 41.477704 
L 46.85332 41.640366 
L 46.910813 41.601483 
L 46.97507 41.656253 
L 47.066383 41.494806 
L 47.100202 41.545813 
L 47.221952 41.56556 
L 47.157695 41.481808 
L 47.225334 41.56329 
L 47.363994 41.400629 
L 47.367376 41.428175 
L 47.424869 41.450626 
L 47.458689 41.370924 
L 47.462071 41.375359 
L 47.644696 41.248251 
L 47.472216 41.388932 
L 47.654841 41.269578 
L 47.742772 41.32365 
L 47.769828 41.281843 
L 47.881432 41.248208 
L 47.786737 41.292878 
L 47.891578 41.282255 
L 48.01671 41.436719 
L 47.905105 41.26153 
L 48.040383 41.406109 
L 48.239918 41.249893 
L 48.2433 41.25303 
L 48.368432 41.270099 
L 48.371814 41.260883 
L 48.392106 41.28075 
L 48.493564 41.159302 
L 48.567967 41.205898 
L 48.52062 41.145031 
L 48.605168 41.176005 
L 48.632224 41.108388 
L 48.652516 41.190824 
L 48.716773 41.172718 
L 48.720155 41.186545 
L 48.801321 41.093116 
L 48.811467 41.10799 
L 48.933217 40.979954 
L 48.818231 41.116709 
L 48.946745 40.983048 
L 48.983946 41.013577 
L 49.02453 40.920019 
L 49.027912 40.928487 
L 49.098933 40.789901 
L 49.139516 40.867302 
L 49.142898 40.887432 
L 49.207155 40.796216 
L 49.247738 40.845325 
L 49.301849 40.896679 
L 49.349197 40.815011 
L 49.477711 40.729574 
L 49.623134 40.837018 
L 49.636662 40.842119 
L 49.680627 40.782735 
L 49.721211 40.791123 
L 49.75503 40.807444 
L 49.839579 40.729435 
L 49.934273 40.781556 
L 49.87678 40.70947 
L 49.964711 40.753782 
L 50.096607 40.626748 
L 50.12028 40.652493 
L 50.164246 40.503691 
L 50.184537 40.530648 
L 50.316433 40.313606 
L 50.333343 40.342418 
L 50.384072 40.435633 
L 50.444947 40.339753 
L 50.455093 40.295965 
L 50.515968 40.371251 
L 50.556551 40.319257 
L 50.593753 40.358505 
L 50.77976 40.242324 
L 50.793288 40.275906 
L 50.871072 40.150657 
L 50.877836 40.163287 
L 51.002968 40.117241 
L 51.009732 40.139022 
L 51.070607 40.213975 
L 51.121336 40.143732 
L 51.310725 40.003667 
L 51.351309 40.061464 
L 51.361455 40.097406 
L 51.439239 39.991467 
L 51.449385 40.005581 
L 51.662448 39.674102 
L 51.675976 39.696577 
L 51.679358 39.713595 
L 51.743615 39.624074 
L 51.777434 39.642166 
L 51.919476 39.765191 
L 51.807872 39.594122 
L 51.939767 39.705734 
L 52.078427 39.486048 
L 52.281344 39.253395 
L 52.284726 39.25652 
L 52.332073 39.260396 
L 52.359129 39.338732 
L 52.362511 39.350978 
L 52.443677 39.269454 
L 52.453823 39.279609 
L 52.460587 39.259945 
L 52.521462 39.347402 
L 52.558664 39.307625 
L 52.616157 39.31472 
L 52.572191 39.287463 
L 52.649976 39.246962 
L 52.81231 39.072296 
L 53.272254 38.564936 
L 53.42106 38.201127 
L 53.586775 36.705353 
L 53.613831 28.130214 
L 53.66456 39.166122 
L 53.68147 39.634422 
L 53.766018 38.633001 
L 53.864095 36.028598 
L 53.877623 28.845897 
L 53.94188 39.849 
L 53.962171 39.650472 
L 54.107595 35.777493 
L 54.121123 29.193228 
L 54.181998 39.844763 
L 54.209053 39.492947 
L 54.334185 36.44139 
L 54.351095 29.502055 
L 54.41197 39.789631 
L 54.425498 39.65172 
L 54.560776 35.283467 
L 54.570922 29.756284 
L 54.631797 39.760606 
L 54.662234 39.339181 
L 54.77722 35.523674 
L 54.790748 29.742819 
L 54.851623 39.820033 
L 54.878679 39.377884 
L 54.997047 35.799423 
L 55.010575 29.546506 
L 55.07145 39.953797 
L 55.098505 39.57128 
L 55.227019 35.381791 
L 55.237165 29.372182 
L 55.301422 40.16895 
L 55.328478 39.803195 
L 55.467137 36.148953 
L 55.480665 28.964219 
L 55.548304 40.422763 
L 55.565214 40.188494 
L 55.730929 36.735724 
L 55.747839 28.69727 
L 55.808714 40.533593 
L 55.815478 40.662425 
L 55.889881 39.673036 
L 56.035304 35.873801 
L 56.048832 28.458495 
L 56.116471 40.846251 
L 56.136763 40.683544 
L 56.373499 35.091154 
L 56.383645 28.322757 
L 56.451284 40.963832 
L 56.474957 40.791168 
L 56.579798 39.51364 
L 56.752277 35.127529 
L 56.762423 28.373425 
L 56.833444 41.005106 
L 56.853735 40.838585 
L 57.127673 37.735211 
L 57.171638 35.449938 
L 57.185166 28.351384 
L 57.252805 41.047325 
L 57.273097 40.918562 
L 57.641729 36.417385 
L 57.662021 28.645031 
L 57.722896 40.919707 
L 57.729659 40.935858 
L 57.770243 40.630679 
L 58.149021 36.525578 
L 58.169312 28.939538 
L 58.223424 40.48479 
L 58.236951 40.844768 
L 58.324882 40.086088 
L 58.68675 36.498775 
L 58.710424 29.101248 
L 58.761153 40.439438 
L 58.778063 40.795881 
L 58.865993 40.132127 
L 59.119639 38.125154 
L 59.258299 37.100001 
L 59.285355 34.739117 
L 59.298883 29.536635 
L 59.369903 40.666922 
L 59.383431 40.581688 
L 59.863668 36.592592 
L 59.890723 29.544689 
L 59.934688 39.52883 
L 59.961744 40.651088 
L 60.046293 40.00056 
L 60.45889 37.445823 
L 60.49271 37.224031 
L 60.533293 35.502187 
L 60.550203 30.084113 
L 60.621224 40.485159 
L 60.624605 40.468373 
L 60.627987 40.472973 
L 60.651661 40.320134 
L 60.972946 38.04419 
L 61.219828 37.298759 
L 61.22321 37.307697 
L 61.226592 37.30437 
L 61.246884 37.418326 
L 61.436273 38.379158 
L 61.439655 38.371813 
L 61.476856 38.44957 
L 61.520821 38.454426 
L 61.635807 38.587811 
L 61.537731 38.447661 
L 61.645953 38.550146 
L 61.676391 38.505832 
L 61.733884 38.670706 
L 61.737266 38.650967 
L 61.869162 38.902513 
L 61.882689 38.88998 
L 62.058551 39.015448 
L 62.061933 39.002423 
L 62.082224 38.994894 
L 62.122808 39.095952 
L 62.136335 39.092027 
L 62.383218 39.573719 
L 62.389981 39.55587 
L 62.447475 39.736108 
L 62.450856 39.734848 
L 62.582752 40.098501 
L 62.599662 40.087229 
L 62.677447 40.108352 
L 62.619954 40.118797 
L 62.694357 40.146634 
L 62.860072 40.489298 
L 62.863454 40.464259 
L 62.866836 40.456117 
L 62.920947 40.599682 
L 62.924329 40.589597 
L 63.164447 41.020003 
L 63.320017 41.30535 
L 63.462058 41.523233 
L 63.46544 41.511768 
L 63.590572 41.693441 
L 63.756288 41.877793 
L 63.763052 41.875108 
L 63.857746 41.862995 
L 63.871274 41.904527 
L 64.009934 41.995078 
L 64.02008 42.027142 
L 64.087718 42.059802 
L 64.114774 42.101006 
L 64.185795 41.991645 
L 64.334601 41.857356 
L 64.439441 41.881467 
L 64.361656 41.835401 
L 64.449587 41.876877 
L 64.676177 41.928008 
L 64.679559 41.922898 
L 64.764108 41.913993 
L 64.737052 41.950246 
L 64.787781 41.947103 
L 64.831747 41.924912 
L 64.868948 42.00791 
L 64.88924 42.075682 
L 64.967025 41.921202 
L 64.970406 41.924796 
L 65.342421 41.922529 
L 65.37624 41.814585 
L 65.467553 41.860664 
L 65.474316 41.889329 
L 65.535191 41.797908 
L 65.575775 41.83953 
L 65.650178 41.788815 
L 65.606212 41.897387 
L 65.690761 41.837488 
L 66.120268 41.785125 
L 66.12365 41.811738 
L 66.211581 41.67028 
L 66.214963 41.679187 
L 66.275838 41.723177 
L 66.329949 41.683812 
L 66.333331 41.675722 
L 66.414498 41.763445 
L 66.417879 41.75477 
L 66.512574 41.804332 
L 66.438171 41.723177 
L 66.529484 41.741142 
L 66.62756 41.643253 
L 66.66138 41.69504 
L 66.681671 41.736912 
L 66.745928 41.66502 
L 66.776366 41.704444 
L 66.874442 41.674824 
L 66.786512 41.712534 
L 66.88797 41.696026 
L 66.975901 41.771525 
L 67.013102 41.695838 
L 67.019866 41.679541 
L 67.084123 41.773785 
L 67.111178 41.734338 
L 67.158526 41.750069 
L 67.192345 41.650195 
L 67.209255 41.66753 
L 67.25322 41.573137 
L 67.324241 41.662605 
L 67.432463 41.671296 
L 67.378352 41.582214 
L 67.435845 41.66228 
L 67.452755 41.618253 
L 67.527158 41.676998 
L 67.550831 41.635223 
L 67.861971 41.625499 
L 67.865352 41.606543 
L 67.87888 41.552006 
L 67.943137 41.696689 
L 67.949901 41.697755 
L 67.990484 41.630572 
L 68.061505 41.646874 
L 68.365881 41.698148 
L 68.484249 41.705989 
L 68.433519 41.653035 
L 68.487631 41.693409 
L 68.649964 41.543176 
L 68.497776 41.697442 
L 68.656728 41.550663 
L 68.683783 41.525478 
L 68.724367 41.625189 
L 68.741277 41.599414 
L 68.744659 41.619992 
L 68.788624 41.507337 
L 68.835971 41.52005 
L 68.944193 41.494964 
L 68.863027 41.549635 
L 68.947575 41.503883 
L 69.1302 41.617922 
L 69.140346 41.583637 
L 69.231659 41.504495 
L 69.153874 41.590116 
L 69.262096 41.560023 
L 69.434576 41.689223 
L 69.441339 41.674038 
L 69.56309 41.63039 
L 69.586763 41.648063 
L 69.603673 41.679799 
L 69.63411 41.617527 
L 69.694985 41.622285 
L 69.701749 41.598466 
L 69.738951 41.647788 
L 69.803208 41.635196 
L 70.083909 41.462996 
L 69.809972 41.645715 
L 70.107583 41.502387 
L 70.158312 41.578025 
L 70.222569 41.533128 
L 70.273298 41.499179 
L 70.351083 41.601444 
L 70.455923 41.6294 
L 70.472833 41.614581 
L 70.560764 41.577188 
L 70.584437 41.606904 
L 70.672368 41.52423 
L 70.790736 41.411083 
L 70.794118 41.425806 
L 70.827937 41.425059 
L 70.854993 41.519602 
L 70.865139 41.509926 
L 71.02409 41.405102 
L 71.068056 41.381904 
L 71.125549 41.453261 
L 71.210097 41.441354 
L 71.220243 41.398879 
L 71.352139 41.235023 
L 71.358903 41.257621 
L 71.450216 41.194071 
L 71.487417 41.254602 
L 71.619313 41.20093 
L 71.622695 41.187244 
L 71.632841 41.154613 
L 71.676806 41.262966 
L 71.730917 41.211293 
L 71.859431 41.260747 
L 71.737681 41.191653 
L 71.876341 41.223209 
L 71.879723 41.212035 
L 71.937216 41.390991 
L 72.062348 41.525968 
L 72.089403 41.508939 
L 72.102931 41.483462 
L 72.184098 41.60565 
L 72.190862 41.577356 
L 72.329522 41.525479 
L 72.339667 41.541171 
L 72.370105 41.585291 
L 72.410688 41.511498 
L 72.44789 41.517151 
L 72.454654 41.504935 
L 72.532438 41.633458 
L 72.654188 41.673578 
L 72.660952 41.66978 
L 72.721827 41.598397 
L 72.762411 41.707936 
L 72.765793 41.703206 
L 72.772557 41.731082 
L 72.836814 41.658505 
L 72.870633 41.676072 
L 72.958564 41.688279 
L 72.968709 41.696931 
L 72.982237 41.742234 
L 73.05664 41.621889 
L 73.07355 41.634075 
L 73.127661 41.577592 
L 73.17839 41.643582 
L 73.279848 41.74294 
L 73.296758 41.700643 
L 73.401599 41.624081 
L 73.415126 41.667125 
L 73.4388 41.652078 
L 73.479383 41.747513 
L 73.523349 41.687933 
L 73.736411 41.710128 
L 73.743175 41.689858 
L 73.871689 41.660263 
L 73.929182 41.768282 
L 73.993439 41.743274 
L 74.345162 41.549333 
L 74.348544 41.571125 
L 74.46353 41.634816 
L 74.470294 41.611575 
L 74.490585 41.676944 
L 74.571752 41.658418 
L 74.595426 41.59121 
L 74.676592 41.608874 
L 74.744231 41.588904 
L 74.781433 41.654087 
L 74.882891 41.656409 
L 74.82878 41.598485 
L 74.889655 41.630266 
L 74.93362 41.576275 
L 74.984349 41.650698 
L 75.004641 41.598784 
L 75.102718 41.654662 
L 75.123009 41.636007 
L 75.19403 41.605591 
L 75.170356 41.552781 
L 75.204176 41.562197 
L 75.207558 41.542521 
L 75.292107 41.698642 
L 75.352982 41.681071 
L 75.33269 41.631979 
L 75.366509 41.619503 
L 75.407093 41.693961 
L 75.467968 41.665616 
L 75.589718 41.747398 
L 75.5931 41.740633 
L 75.657357 41.65755 
L 75.708086 41.708501 
L 75.738523 41.738378 
L 75.765579 41.667639 
L 75.812926 41.691434 
L 75.8366 41.70515 
L 75.938058 41.628465 
L 75.982024 41.70009 
L 76.053044 41.650202 
L 76.151121 41.690051 
L 76.06319 41.691338 
L 76.154503 41.694921 
L 76.255961 41.742672 
L 76.188322 41.666049 
L 76.269489 41.712969 
L 76.404767 41.561004 
L 76.438586 41.611663 
L 76.465642 41.688171 
L 76.523135 41.583593 
L 76.550191 41.614622 
L 76.698996 41.529364 
L 76.702378 41.525827 
L 76.729434 41.60815 
L 76.773399 41.603483 
L 76.854566 41.602986 
L 76.841038 41.57075 
L 76.878239 41.566696 
L 77.091302 41.300538 
L 77.094684 41.335665 
L 77.125121 41.311044 
L 77.169087 41.417916 
L 77.317892 41.437998 
L 77.206288 41.365071 
L 77.321274 41.42993 
L 77.415969 41.352566 
L 77.36524 41.475288 
L 77.43626 41.392969 
L 77.960462 41.23424 
L 78.058539 41.145494 
L 78.07883 41.211667 
L 78.37306 41.217286 
L 78.417025 41.164546 
L 78.481282 41.227074 
L 78.765365 41.040487 
L 78.772129 40.993233 
L 78.849914 41.117746 
L 78.870206 41.098702 
L 78.961518 41.127968 
L 78.880352 41.12192 
L 78.968282 41.141144 
L 79.008865 41.195262 
L 79.056213 41.099089 
L 79.076504 41.118841 
L 79.211782 41.012395 
L 79.24222 41.046643 
L 79.357206 40.926478 
L 79.374116 40.931167 
L 79.431609 40.851091 
L 79.441755 40.85197 
L 79.583796 40.738125 
L 79.465428 40.888856 
L 79.59056 40.745472 
L 79.685255 40.70882 
L 79.692019 40.668476 
L 79.823915 40.577176 
L 79.942283 40.501709 
L 79.844206 40.63293 
L 79.986248 40.551611 
L 80.087706 40.638032 
L 80.114762 40.604249 
L 80.229748 40.560596 
L 80.145199 40.65607 
L 80.246658 40.591786 
L 80.331206 40.677969 
L 80.365026 40.605931 
L 80.466484 40.591892 
L 80.408991 40.633009 
L 80.47663 40.605962 
L 80.486776 40.62216 
L 80.547651 40.481645 
L 80.561179 40.501788 
L 80.564561 40.469653 
L 80.645727 40.577306 
L 80.666019 40.552754 
L 80.676165 40.597485 
L 80.726894 40.505457 
L 80.75395 40.497702 
L 80.882464 40.385428 
L 80.767478 40.531932 
L 80.889228 40.40871 
L 80.899373 40.426984 
L 80.983922 40.344726 
L 80.990686 40.36815 
L 81.085381 40.294625 
L 81.010978 40.293555 
L 81.088762 40.283732 
L 81.176693 40.327764 
L 81.1192 40.350228 
L 81.180075 40.335771 
L 81.281533 40.371942 
L 81.234186 40.31389 
L 81.291679 40.33871 
L 81.64002 40.182258 
L 81.778679 39.984856 
L 81.788825 40.027704 
L 81.795589 40.051772 
L 81.876756 39.915576 
L 81.981596 39.866389 
L 81.910575 39.94978 
L 81.998506 39.899921 
L 82.099964 40.059591 
L 82.12702 40.032762 
L 82.242006 39.9929 
L 82.377284 39.91623 
L 82.255534 40.030395 
L 82.380666 39.94958 
L 82.536235 40.204626 
L 82.553145 40.161905 
L 82.627548 40.155089 
L 82.563291 40.130139 
L 82.644458 40.112704 
L 82.756062 40.076146 
L 82.691805 40.186654 
L 82.759444 40.087058 
L 82.89134 40.211376 
L 82.928541 40.157483 
L 83.073965 39.958823 
L 83.084111 39.967535 
L 83.232916 40.089344 
L 83.10102 39.960234 
L 83.236298 40.084996 
L 83.371576 39.916252 
L 83.374958 39.91787 
L 83.418923 39.98718 
L 83.473035 39.874305 
L 83.577875 39.765874 
L 83.591403 39.802601 
L 83.618458 39.779409 
L 83.713153 39.809033 
L 83.719917 39.797688 
L 83.77741 39.925579 
L 83.801083 39.880838 
L 83.828139 39.893712 
L 83.872104 39.822128 
L 83.89916 39.818298 
L 84.14266 39.652044 
L 84.26441 39.573001 
L 84.267792 39.575908 
L 84.308375 39.630154 
L 84.359105 39.503835 
L 84.362486 39.516838 
L 84.50791 39.397264 
L 84.514674 39.400846 
L 84.639806 39.379875 
L 84.741264 39.290585 
L 84.761556 39.317814 
L 84.778466 39.370764 
L 84.852869 39.24093 
L 85.018584 38.909031 
L 85.025348 38.925573 
L 85.143716 38.850248 
L 85.15048 38.872982 
L 85.180917 38.88079 
L 85.235029 38.804783 
L 85.245174 38.822127 
L 85.617189 37.39147 
L 85.647626 35.349641 
L 85.664536 27.978379 
L 85.735557 39.733601 
L 85.749084 39.627256 
L 85.924946 36.452187 
L 85.941855 28.546761 
L 86.009494 40.032736 
L 86.016258 39.97489 
L 86.178592 36.940649 
L 86.202265 28.974382 
L 86.252994 39.36179 
L 86.266522 40.069349 
L 86.357835 38.551582 
L 86.432238 35.932607 
L 86.445765 29.070488 
L 86.510022 40.123252 
L 86.533696 39.771685 
L 86.675738 35.818789 
L 86.689266 29.130452 
L 86.756904 40.166832 
L 86.777196 39.86275 
L 86.92262 35.717551 
L 86.936148 29.05712 
L 86.997023 40.304156 
L 87.024078 40.002652 
L 87.179648 35.50972 
L 87.189794 28.875439 
L 87.257432 40.478842 
L 87.281106 40.237041 
L 87.453585 36.037131 
L 87.467113 28.585343 
L 87.534752 40.697711 
L 87.551662 40.510198 
L 87.754579 36.112956 
L 87.768106 28.397575 
L 87.839127 40.867642 
L 87.852655 40.712482 
L 87.977787 38.977953 
L 88.089391 35.945863 
L 88.102919 28.25918 
L 88.170558 40.986759 
L 88.187468 40.865218 
L 88.414058 37.969844 
L 88.468169 34.411909 
L 88.478315 28.240445 
L 88.545954 41.015264 
L 88.569628 40.865411 
L 88.884149 34.483277 
L 88.894294 28.327733 
L 88.965315 41.030862 
L 88.985607 40.885474 
L 89.337329 35.346462 
L 89.350857 28.440598 
L 89.421878 41.017836 
L 89.438788 40.871335 
L 89.590975 39.419439 
L 89.834476 36.02619 
L 89.851385 28.628377 
L 89.915642 40.939868 
L 89.925788 40.906927 
L 89.983281 40.473693 
L 90.257219 38.034617 
L 90.358677 36.906561 
L 90.378969 31.415937 
L 90.385733 29.041429 
L 90.453372 40.843 
L 90.470281 40.773594 
L 90.9539 35.392292 
L 90.97081 29.296805 
L 91.035066 40.72831 
L 91.048594 40.702898 
L 91.068886 40.542862 
L 91.068886 40.542862 
" clip-path="url(#peda49197c9)" style="fill: none; stroke: #000000; stroke-width: 0.6; stroke-linecap: square"/>
   </g>
   <g id="line2d_3">
    <path d="M 9.905557 55.875263 
L 9.976578 55.500301 
L 10.000252 54.12336 
L 10.013779 43.891723 
L 10.10171 59.182068 
L 10.108474 59.245415 
L 10.182877 58.768812 
L 10.351974 57.951698 
L 10.426377 57.876125 
L 10.473724 57.954404 
L 10.937051 59.593337 
L 10.940433 59.588176 
L 11.106148 60.174593 
L 11.342884 60.606115 
L 11.562711 60.687597 
L 11.616822 60.674274 
L 11.657405 60.743361 
L 11.809593 60.757016 
L 11.823121 60.730168 
L 11.934725 60.655413 
L 11.965162 60.681776 
L 12.059857 60.790616 
L 12.090294 60.741707 
L 12.137642 60.724015 
L 12.168079 60.771615 
L 12.201899 60.734202 
L 12.310121 60.77605 
L 12.2391 60.698613 
L 12.333794 60.722577 
L 12.438635 60.712156 
L 12.455545 60.759761 
L 12.462308 60.77469 
L 12.509656 60.683407 
L 12.546857 60.704058 
L 12.682135 60.63166 
L 12.695663 60.6442 
L 12.74301 60.736521 
L 12.824177 60.683486 
L 12.942545 60.622379 
L 12.983128 60.582392 
L 12.962836 60.649854 
L 13.040621 60.670108 
L 13.09135 60.824042 
L 13.158989 60.73865 
L 13.301031 60.581882 
L 13.341614 60.645144 
L 13.49042 60.829566 
L 13.534385 60.788478 
L 13.544531 60.740003 
L 13.673045 60.600095 
L 13.801559 60.736838 
L 13.808323 60.724981 
L 13.852288 60.611502 
L 13.933455 60.683741 
L 13.967275 60.73746 
L 14.045059 60.67498 
L 14.105934 60.608782 
L 14.156664 60.676526 
L 14.166809 60.702253 
L 14.204011 60.63807 
L 14.264886 60.66847 
L 14.322379 60.654786 
L 14.291941 60.712423 
L 14.362962 60.71724 
L 14.677483 60.614878 
L 14.751886 60.592656 
L 14.789087 60.634643 
L 14.856726 60.566342 
L 14.904074 60.612405 
L 14.954803 60.685817 
L 15.01906 60.649002 
L 15.336963 60.636776 
L 15.374164 60.637504 
L 15.411366 60.554333 
L 15.421511 60.581958 
L 15.445185 60.526918 
L 15.492532 60.600953 
L 15.533116 60.578934 
L 15.604137 60.615233 
L 15.570317 60.566127 
L 15.641338 60.556969 
L 15.74956 60.584392 
L 15.776616 60.527792 
L 15.813817 60.495491 
L 15.884838 60.559788 
L 16.226415 60.41825 
L 16.243324 60.469453 
L 16.250088 60.493226 
L 16.300817 60.428523 
L 16.344783 60.435711 
L 16.422568 60.367588 
L 16.456387 60.426958 
L 16.936623 60.212129 
L 16.940005 60.230062 
L 16.994116 60.33386 
L 17.058373 60.271945 
L 17.183505 60.137086 
L 17.203797 60.145494 
L 17.247762 60.053244 
L 17.325547 60.151847 
L 17.450679 59.995757 
L 17.457443 60.009707 
L 17.528464 59.927455 
L 17.572429 59.991581 
L 17.714471 59.956255 
L 17.589339 60.010431 
L 17.717853 59.965471 
L 17.751672 60.003972 
L 17.795638 59.936139 
L 17.822693 59.948699 
L 17.846367 59.971711 
L 17.937679 59.94317 
L 18.028992 60.039904 
L 18.096631 59.941819 
L 18.225145 59.844507 
L 18.28602 59.785835 
L 18.238673 59.850176 
L 18.340131 59.803867 
L 18.431444 59.771519 
L 18.357041 59.816097 
L 18.448353 59.810278 
L 18.482173 59.849876 
L 18.526138 59.722203 
L 18.539666 59.748654 
L 18.620833 59.731539 
L 18.56334 59.793603 
L 18.65127 59.740379 
L 18.77302 59.808282 
L 18.783166 59.815542 
L 18.823749 59.71859 
L 18.830513 59.718201 
L 18.962409 59.531153 
L 18.986083 59.593615 
L 19.060486 59.508114 
L 19.063868 59.510121 
L 19.175472 59.391097 
L 19.182236 59.408944 
L 19.205909 59.430226 
L 19.256639 59.307982 
L 19.263402 59.319029 
L 19.270166 59.29444 
L 19.337805 59.393881 
L 19.361479 59.372521 
L 19.456173 59.404914 
L 19.391916 59.32669 
L 19.476465 59.382781 
L 19.57116 59.331062 
L 19.52043 59.394842 
L 19.594833 59.343994 
L 19.598215 59.349796 
L 19.628653 59.263809 
L 19.672618 59.256843 
L 19.757167 59.149972 
L 19.956701 59.014227 
L 19.777458 59.17641 
L 19.980375 59.064457 
L 20.007431 59.118107 
L 20.078451 59.004587 
L 20.112271 58.983361 
L 20.173146 59.071165 
L 20.281368 59.127997 
L 20.206965 59.029526 
L 20.28475 59.105551 
L 20.416646 58.96636 
L 20.460611 58.98617 
L 20.501195 58.920392 
L 20.52825 58.957243 
L 20.65 58.782371 
L 20.555306 58.974957 
L 20.656764 58.812222 
L 20.737931 58.796314 
L 20.707493 58.862331 
L 20.751459 58.871453 
L 20.836007 58.894862 
L 20.852917 58.842315 
L 21.001723 58.643824 
L 21.008487 58.664573 
L 21.022014 58.698518 
L 21.103181 58.589537 
L 21.113327 58.605527 
L 21.116709 58.585108 
L 21.211403 58.677245 
L 21.214785 58.671026 
L 21.262133 58.613308 
L 21.32639 58.665614 
L 21.437994 58.720588 
L 21.343299 58.639047 
L 21.451522 58.683193 
L 21.478577 58.613159 
L 21.529306 58.70388 
L 21.56989 58.650627 
L 21.590181 58.702375 
L 21.667966 58.539913 
L 21.671348 58.551721 
L 21.722077 58.526358 
L 21.799862 58.612221 
L 21.958814 58.514258 
L 22.033216 58.535021 
L 21.996015 58.487768 
L 22.067036 58.498156 
L 22.428904 58.267694 
L 22.442432 58.297892 
L 22.547272 58.33459 
L 22.45596 58.272583 
L 22.567564 58.287836 
L 22.587856 58.31201 
L 22.689314 58.259892 
L 22.706224 58.32243 
L 22.8043 58.287095 
L 22.932814 58.185287 
L 22.817828 58.309242 
L 22.936196 58.187753 
L 22.939578 58.200961 
L 23.013981 58.050926 
L 23.095148 58.113326 
L 23.139113 57.99649 
L 23.166168 58.061594 
L 23.649787 57.842962 
L 23.764773 57.955223 
L 23.683606 57.813163 
L 23.791828 57.935289 
L 23.910197 57.822527 
L 23.805356 57.944927 
L 23.920342 57.841979 
L 24.042093 57.843596 
L 24.059002 57.880181 
L 24.173988 57.917283 
L 24.096204 57.821221 
L 24.184134 57.885936 
L 24.282211 57.790286 
L 24.21119 57.898157 
L 24.305884 57.852178 
L 24.596732 57.798902 
L 24.610259 57.841172 
L 24.630551 57.862536 
L 24.667753 57.775693 
L 24.711718 57.813727 
L 24.813176 57.713509 
L 24.830086 57.757216 
L 24.945072 57.796141 
L 24.840232 57.747158 
L 24.961982 57.754373 
L 25.205482 57.665223 
L 25.21901 57.70399 
L 25.273121 57.755733 
L 25.327232 57.695542 
L 25.472656 57.506355 
L 25.337378 57.710061 
L 25.476038 57.512275 
L 25.47942 57.524528 
L 25.547059 57.439423 
L 25.577496 57.473176 
L 25.658663 57.450218 
L 25.591024 57.501413 
L 25.6891 57.47026 
L 25.702628 57.480175 
L 25.81085 57.463928 
L 26.037441 57.483524 
L 26.142281 57.542001 
L 26.091552 57.437503 
L 26.152427 57.498686 
L 26.277559 57.5177 
L 26.280941 57.50714 
L 26.426365 57.517034 
L 26.460184 57.601576 
L 26.544733 57.539789 
L 26.548115 57.552003 
L 26.612372 57.440119 
L 26.636045 57.454248 
L 26.73074 57.426736 
L 26.652955 57.433066 
L 26.737504 57.412651 
L 26.832198 57.336908 
L 26.859254 57.373222 
L 26.866018 57.396066 
L 26.909983 57.303811 
L 26.964094 57.339187 
L 27.424039 57.172478 
L 27.501824 57.078108 
L 27.549171 57.11723 
L 27.741942 57.088458 
L 27.748706 57.114896 
L 28.391275 57.083138 
L 28.458914 57.182312 
L 28.492734 57.061646 
L 28.499498 57.064305 
L 28.678741 56.903764 
L 28.685505 56.918534 
L 28.793727 56.936831 
L 28.715942 56.838853 
L 28.803873 56.920615 
L 28.939151 56.694873 
L 28.95606 56.732776 
L 28.959442 56.736685 
L 28.979734 56.643923 
L 28.993262 56.63258 
L 29.027081 56.542803 
L 29.084574 56.655675 
L 29.104866 56.619113 
L 29.115012 56.649723 
L 29.172505 56.46253 
L 29.189415 56.47172 
L 29.35513 56.298381 
L 29.196179 56.474695 
L 29.368658 56.320054 
L 29.37204 56.332992 
L 29.439679 56.171946 
L 29.564811 54.563775 
L 29.578339 43.770749 
L 29.662887 57.548041 
L 29.679797 58.536722 
L 29.774491 57.696406 
L 30.011228 54.558687 
L 30.021374 44.062856 
L 30.109304 57.578881 
L 30.129596 59.13366 
L 30.220908 58.367434 
L 30.545575 54.54975 
L 30.555721 44.012589 
L 30.643652 57.783679 
L 30.663943 59.336798 
L 30.755256 58.625594 
L 30.961555 57.14186 
L 31.188145 54.241354 
L 31.198291 43.953728 
L 31.289603 59.064449 
L 31.303131 59.409783 
L 31.394444 58.763024 
L 31.671763 57.113588 
L 31.922027 54.962301 
L 31.938937 43.926062 
L 32.016722 55.275057 
L 32.040395 59.490778 
L 32.131708 58.877727 
L 32.858826 54.881463 
L 32.875736 43.889861 
L 32.950139 55.419056 
L 32.980577 59.431714 
L 33.065125 58.834661 
L 33.352591 57.352273 
L 33.355973 57.361742 
L 33.406702 57.186725 
L 33.410084 57.185562 
L 33.863265 55.491524 
L 33.883556 53.729992 
L 33.893702 43.857042 
L 33.988397 59.419115 
L 33.99516 59.463313 
L 34.052654 59.066478 
L 34.468633 57.216625 
L 34.472015 57.231519 
L 34.526126 57.09314 
L 34.705369 56.63983 
L 35.050328 54.948563 
L 35.067237 43.84839 
L 35.14164 55.557399 
L 35.168696 59.390894 
L 35.256626 58.755674 
L 35.517036 57.412527 
L 36.135932 55.611632 
L 36.162988 54.330257 
L 36.176516 43.86808 
L 36.261064 59.0565 
L 36.277974 59.398991 
L 36.365905 58.758761 
L 36.707481 57.254851 
L 36.710863 57.263279 
L 36.751447 57.124745 
L 36.771738 57.117765 
L 36.940836 56.763993 
L 37.123461 56.4892 
L 36.9476 56.788638 
L 37.126843 56.494136 
L 37.133607 56.499577 
L 37.160662 56.400533 
L 37.29594 56.115531 
L 37.302704 56.118726 
L 37.322996 56.130343 
L 37.431218 55.668932 
L 37.465037 54.211598 
L 37.475183 43.868319 
L 37.566496 59.2409 
L 37.576642 59.336032 
L 37.654426 58.760561 
L 37.786322 57.898691 
L 37.93851 57.31158 
L 38.033204 57.135996 
L 38.428892 56.400595 
L 38.432274 56.417302 
L 38.439038 56.447695 
L 38.526968 56.345875 
L 38.533732 56.347058 
L 38.70283 56.028053 
L 38.800906 55.358752 
L 38.817816 53.688505 
L 38.827962 43.835599 
L 38.922656 59.301458 
L 38.926038 59.311312 
L 38.959858 59.079921 
L 39.074844 58.206629 
L 39.331872 57.117047 
L 39.487441 56.880155 
L 39.626101 56.598488 
L 39.629483 56.60033 
L 39.683594 56.58016 
L 39.700504 56.519618 
L 39.947386 55.489358 
L 39.97106 53.500973 
L 39.981205 43.844928 
L 40.0759 59.33821 
L 40.079282 59.347045 
L 40.113101 59.149387 
L 40.353219 57.614205 
L 40.566282 57.10649 
L 40.569664 57.109839 
L 40.623775 57.012114 
L 40.752289 56.816962 
L 40.755671 56.828165 
L 40.769199 56.849595 
L 40.918004 56.588152 
L 41.060046 56.405409 
L 41.181796 56.322886 
L 41.20547 56.376052 
L 41.300164 56.448432 
L 41.212234 56.371659 
L 41.330602 56.40915 
L 41.333984 56.402749 
L 41.388095 56.478501 
L 41.415151 56.477511 
L 41.533519 56.565799 
L 41.43206 56.469383 
L 41.543665 56.541113 
L 41.560574 56.499517 
L 41.634977 56.62735 
L 41.641741 56.606987 
L 41.807456 56.797699 
L 41.817602 56.776073 
L 42.003609 57.41549 
L 42.19638 59.93471 
L 42.355332 60.373633 
L 42.487228 60.650903 
L 42.507519 60.647211 
L 42.740874 60.804576 
L 42.754401 60.780288 
L 42.909971 60.710737 
L 42.913353 60.725985 
L 42.94379 60.776887 
L 43.008047 60.675054 
L 43.011429 60.675075 
L 43.748694 60.720764 
L 43.762221 60.685756 
L 43.806187 60.746715 
L 43.860298 60.725924 
L 43.965138 60.687065 
L 43.904263 60.756584 
L 43.971902 60.741398 
L 43.98543 60.716002 
L 44.093652 60.745487 
L 44.137617 60.679357 
L 44.208638 60.73168 
L 44.24584 60.826941 
L 44.330388 60.770016 
L 44.364208 60.807205 
L 44.414937 60.703272 
L 44.418319 60.725159 
L 44.479194 60.678161 
L 44.526541 60.72297 
L 44.617854 60.759049 
L 44.553597 60.709693 
L 44.641527 60.740441 
L 44.766659 60.617917 
L 44.665201 60.750568 
L 44.780187 60.621614 
L 44.905319 60.735849 
L 44.918847 60.696342 
L 45.033833 60.644129 
L 44.95943 60.753991 
L 45.037215 60.648689 
L 45.087944 60.694336 
L 45.148819 60.661705 
L 45.280715 60.629024 
L 45.284097 60.636207 
L 45.334826 60.715721 
L 45.385556 60.614024 
L 45.395701 60.648883 
L 45.558035 60.612072 
L 45.422757 60.710573 
L 45.568181 60.628822 
L 45.700077 60.715552 
L 45.703458 60.707421 
L 45.815063 60.807443 
L 45.842118 60.743419 
L 46.011216 60.530432 
L 46.028125 60.566566 
L 46.153257 60.666654 
L 46.160021 60.635686 
L 46.258098 60.63965 
L 46.200605 60.660716 
L 46.264862 60.670333 
L 46.34941 60.77349 
L 46.386612 60.715483 
L 46.515126 60.612934 
L 46.406903 60.721905 
L 46.518508 60.638452 
L 46.653785 60.700062 
L 46.660549 60.713931 
L 46.782299 60.632643 
L 46.893904 60.647428 
L 46.900667 60.675983 
L 46.985216 60.772421 
L 47.019036 60.720177 
L 47.167841 60.575219 
L 47.72248 60.57289 
L 47.77321 60.522287 
L 47.742772 60.597638 
L 47.834085 60.59405 
L 47.911869 60.551979 
L 47.86114 60.531583 
L 47.918633 60.527215 
L 48.026856 60.368092 
L 48.047147 60.397377 
L 48.060675 60.380784 
L 48.145224 60.380253 
L 48.263592 60.295121 
L 48.490182 60.204923 
L 48.496946 60.213482 
L 48.814849 60.132191 
L 48.865578 60.118649 
L 48.909544 60.187638 
L 48.923071 60.153732 
L 48.946745 60.166765 
L 48.977182 60.086484 
L 49.017766 60.097982 
L 49.169953 60.025942 
L 49.176717 60.0528 
L 49.244356 59.917263 
L 49.26803 59.950292 
L 49.430363 59.974479 
L 49.437127 59.965917 
L 49.541967 59.895111 
L 49.51153 59.985489 
L 49.552113 59.937415 
L 49.612988 60.093435 
L 49.673863 60.019222 
L 49.798995 59.858917 
L 49.815905 59.881505 
L 49.941037 59.951022 
L 49.836197 59.837526 
L 49.944419 59.941547 
L 50.001912 59.836935 
L 50.062787 59.861183 
L 50.164246 59.930035 
L 50.194683 59.866582 
L 50.299523 59.663435 
L 50.329961 59.67778 
L 50.441565 59.759532 
L 50.458475 59.738849 
L 51.185593 59.588747 
L 51.24985 59.616838 
L 51.195739 59.560824 
L 51.290434 59.566106 
L 51.64892 59.17571 
L 51.703031 59.209561 
L 51.692885 59.143511 
L 51.746996 59.13587 
L 51.851837 59.035644 
L 51.87551 59.067552 
L 51.922858 59.03664 
L 51.963441 59.135116 
L 51.973587 59.111795 
L 51.980351 59.131253 
L 52.068281 59.019319 
L 52.125774 59.05114 
L 52.091955 58.99524 
L 52.179886 59.010521 
L 52.29149 59.046407 
L 52.311782 59.014004 
L 52.406476 58.794835 
L 52.470733 58.858263 
L 52.616157 58.853328 
L 52.619539 58.846539 
L 52.731143 58.768185 
L 52.737907 58.771078 
L 52.849511 58.769064 
L 52.744671 58.793338 
L 52.866421 58.788568 
L 52.869803 58.796606 
L 52.91715 58.723753 
L 52.964497 58.745849 
L 53.052428 58.592216 
L 53.116685 58.659617 
L 53.120067 58.673995 
L 53.14374 58.604997 
L 53.214761 58.604165 
L 53.221525 58.566567 
L 53.258726 58.679725 
L 53.319602 58.640922 
L 53.333129 58.657308 
L 53.366949 58.580782 
L 53.414296 58.604628 
L 53.563102 58.400642 
L 53.43797 58.650432 
L 53.566484 58.407561 
L 53.627359 58.431029 
L 53.596921 58.372958 
L 53.671324 58.385765 
L 53.779546 58.272634 
L 53.796456 58.30504 
L 53.837039 58.383283 
L 53.911442 58.344354 
L 53.955407 58.24887 
L 54.019664 58.370551 
L 54.094067 58.491865 
L 54.138033 58.393676 
L 54.192144 58.47482 
L 54.256401 58.377312 
L 54.347713 58.261505 
L 54.381533 58.301749 
L 54.506665 58.335682 
L 54.398442 58.290824 
L 54.510047 58.324595 
L 54.621651 58.27242 
L 54.628415 58.303811 
L 55.128943 58.089103 
L 55.132325 58.098575 
L 55.135707 58.110882 
L 55.223637 58.012208 
L 55.233783 58.054373 
L 55.243929 58.027494 
L 55.284512 58.091173 
L 55.338623 58.086308 
L 55.582124 58.001799 
L 55.588887 58.023056 
L 55.615943 58.063082 
L 55.6802 57.94251 
L 55.754603 57.90588 
L 55.693728 57.96001 
L 55.798568 57.945237 
L 55.876353 58.048919 
L 55.920318 57.967954 
L 56.140145 57.883519 
L 56.190874 57.991544 
L 56.153672 57.87728 
L 56.255131 57.910257 
L 56.363353 57.8547 
L 56.292332 57.954099 
L 56.380263 57.891331 
L 56.650819 57.932297 
L 56.664346 57.864989 
L 56.67111 57.851465 
L 56.694784 57.953375 
L 56.765805 57.910217 
L 56.874027 57.885373 
L 56.803006 57.953544 
L 56.890937 57.894421 
L 56.961958 57.985164 
L 56.897701 57.8847 
L 57.009305 57.921938 
L 57.107381 57.73864 
L 57.134437 57.782611 
L 57.151347 57.807245 
L 57.17502 57.720801 
L 57.225749 57.727872 
L 57.246041 57.692412 
L 57.306916 57.814523 
L 57.317062 57.799602 
L 57.421902 57.898156 
L 57.472632 57.84232 
L 57.594382 57.644319 
L 57.614673 57.66996 
L 57.777007 57.490187 
L 57.783771 57.510025 
L 58.054326 57.432364 
L 58.189604 57.313447 
L 58.253861 57.363315 
L 58.220042 57.26568 
L 58.30459 57.32779 
L 58.372229 57.266703 
L 58.412813 57.329977 
L 58.416195 57.353232 
L 58.466924 57.221985 
L 58.514271 57.255804 
L 58.554854 57.139894 
L 58.622493 57.264166 
L 58.636021 57.305626 
L 58.693514 57.232262 
L 58.730716 57.244447 
L 58.828792 57.283353 
L 58.781445 57.166903 
L 58.845702 57.261373 
L 58.923486 57.092 
L 58.997889 57.142703 
L 59.014799 57.190869 
L 59.095966 57.067621 
L 59.099348 57.073333 
L 59.19066 57.043323 
L 59.116257 57.091461 
L 59.20757 57.069768 
L 59.305646 57.192318 
L 59.238008 57.055057 
L 59.32932 57.161273 
L 59.383431 57.207857 
L 59.417251 57.129298 
L 59.440924 57.148354 
L 59.55591 57.089121 
L 59.579584 57.108903 
L 59.613404 57.051575 
L 59.691188 57.109848 
L 59.792647 56.960042 
L 59.819702 56.966685 
L 60.009091 56.841952 
L 60.012473 56.850854 
L 60.036147 56.901544 
L 60.066584 56.808866 
L 60.113932 56.803117 
L 60.235682 56.747351 
L 60.124077 56.826096 
L 60.249209 56.762348 
L 60.401397 56.810884 
L 60.276265 56.740827 
L 60.404779 56.794271 
L 60.513001 56.612789 
L 60.543439 56.668277 
L 60.641515 56.75425 
L 60.668571 56.701453 
L 60.803849 56.646035 
L 60.807231 56.630144 
L 60.895161 56.562574 
L 60.82414 56.634913 
L 60.922217 56.624328 
L 60.949272 56.645176 
L 60.989856 56.532511 
L 60.99662 56.53036 
L 61.060877 56.369982 
L 61.216446 54.869826 
L 61.233356 43.781245 
L 61.314523 55.66614 
L 61.334814 58.562882 
L 61.429509 57.723606 
L 61.656099 55.094943 
L 61.669627 44.489125 
L 61.673009 44.060242 
L 61.730502 50.706225 
L 61.777849 59.15082 
L 61.916509 57.953545 
L 62.160009 55.843858 
L 62.193829 53.907197 
L 62.203974 44.016038 
L 62.298669 59.10862 
L 62.308815 59.349378 
L 62.396745 58.69299 
L 62.826253 54.404099 
L 62.836398 43.952852 
L 62.927711 58.978064 
L 62.941239 59.421081 
L 63.032551 58.785197 
L 63.506024 55.992852 
L 63.556753 54.929331 
L 63.570281 43.933191 
L 63.651447 55.550339 
L 63.675121 59.487601 
L 63.766434 58.884839 
L 64.233142 56.658587 
L 64.236524 56.666143 
L 64.277107 56.486037 
L 64.469878 54.057682 
L 64.480024 43.878391 
L 64.571337 59.317202 
L 64.581483 59.435215 
L 64.662649 58.852204 
L 64.801309 58.012223 
L 64.980552 57.286824 
L 65.416823 55.569433 
L 65.443879 53.596925 
L 65.454025 43.8724 
L 65.548719 59.416793 
L 65.555483 59.458289 
L 65.61974 59.017527 
L 65.89706 57.460112 
L 65.907206 57.46424 
L 66.465227 55.968037 
L 66.536248 54.734568 
L 66.549775 43.853724 
L 66.62756 56.94621 
L 66.651234 59.420737 
L 66.742546 58.762251 
L 66.979283 57.534119 
L 67.25322 56.91839 
L 67.256602 56.928598 
L 67.259984 56.94143 
L 67.331005 56.781613 
L 67.378352 56.652409 
L 67.381734 56.665087 
L 67.544068 56.295598 
L 67.550831 56.307126 
L 67.6692 55.898975 
L 67.733457 54.269907 
L 67.743602 43.870557 
L 67.831533 59.078737 
L 67.841679 59.396515 
L 67.932991 58.739933 
L 68.619526 56.427058 
L 68.622908 56.436148 
L 68.704075 56.191081 
L 68.707457 56.195523 
L 68.846117 54.711802 
L 68.859645 43.850954 
L 68.937429 57.012784 
L 68.957721 59.389277 
L 69.052416 58.730322 
L 69.627346 56.859147 
L 69.630728 56.884757 
L 69.715277 56.744476 
L 69.722041 56.745377 
L 69.948631 56.361539 
L 69.952013 56.367917 
L 70.019652 56.267613 
L 70.023034 56.267067 
L 70.209041 55.825319 
L 70.239479 55.681965 
L 70.280062 53.823592 
L 70.290208 43.846516 
L 70.384902 59.277536 
L 70.388284 59.286193 
L 70.418722 59.079234 
L 70.726479 57.300348 
L 70.783972 57.105364 
L 70.953069 56.792268 
L 71.034236 56.656492 
L 71.551674 55.823745 
L 71.605785 54.755572 
L 71.622695 43.866151 
L 71.697098 56.996375 
L 71.717389 59.304511 
L 71.812084 58.59545 
L 71.916924 57.905764 
L 72.018383 57.960478 
L 72.119841 57.941503 
L 72.028528 57.973061 
L 72.136751 57.992077 
L 72.339667 58.695647 
L 72.972091 60.582121 
L 73.022821 60.55871 
L 73.090459 60.625001 
L 73.097223 60.652936 
L 73.21221 60.733958 
L 73.215591 60.720101 
L 73.310286 60.712882 
L 73.239265 60.755187 
L 73.320432 60.736945 
L 73.401599 60.778681 
L 73.364397 60.698234 
L 73.428654 60.72258 
L 73.722883 60.667296 
L 73.864925 60.61139 
L 73.871689 60.633679 
L 74.243703 60.766764 
L 74.250467 60.78779 
L 74.314724 60.669151 
L 74.34178 60.697539 
L 74.504113 60.582735 
L 74.548078 60.659941 
L 75.352982 60.654434 
L 75.386801 60.604903 
L 75.457822 60.673139 
L 75.464586 60.641833 
L 75.535607 60.633795 
L 75.525461 60.667081 
L 75.572808 60.651606 
L 75.640447 60.706015 
L 75.670885 60.625743 
L 75.677648 60.626682 
L 75.748669 60.683511 
L 75.775725 60.662033 
L 75.880565 60.698436 
L 75.812926 60.63689 
L 75.890711 60.685656 
L 76.012461 60.637997 
L 76.019225 60.695333 
L 76.036135 60.677833 
L 76.137593 60.742562 
L 76.249197 60.6533 
L 76.266107 60.672865 
L 76.316836 60.69438 
L 76.35742 60.616957 
L 76.465642 60.565694 
L 76.398003 60.645573 
L 76.475788 60.581372 
L 76.594156 60.700719 
L 76.604302 60.693863 
L 76.661795 60.648234 
L 76.712524 60.713869 
L 76.912059 60.618277 
L 76.922205 60.667758 
L 76.93235 60.706946 
L 76.993226 60.611178 
L 77.030427 60.641266 
L 77.219816 60.556534 
L 77.328038 60.459517 
L 77.344948 60.475748 
L 77.409205 60.564758 
L 77.463316 60.481383 
L 77.524191 60.367265 
L 77.476844 60.491553 
L 77.581684 60.461954 
L 77.960462 60.343087 
L 77.967226 60.361177 
L 78.088976 60.508361 
L 78.105886 60.496917 
L 78.295275 60.339216 
L 78.305421 60.345069 
L 78.410261 60.352513 
L 78.329094 60.308278 
L 78.417025 60.336411 
L 78.508337 60.239136 
L 78.542157 60.252707 
L 78.559067 60.280382 
L 78.630088 60.162292 
L 78.633469 60.177579 
L 79.008865 60.108673 
L 79.123852 60.023398 
L 79.235456 60.033502 
L 79.157671 59.944823 
L 79.24222 60.010343 
L 79.357206 59.90986 
L 79.286185 60.035037 
L 79.374116 59.921424 
L 79.428227 59.946628 
L 79.38088 59.907103 
L 79.478956 59.893312 
L 79.482338 59.868662 
L 79.553359 59.986733 
L 79.583796 59.944082 
L 79.735984 59.975902 
L 79.59056 59.932779 
L 79.739366 59.940898 
L 79.881408 59.765088 
L 79.894935 59.792187 
L 80.050505 59.691699 
L 80.172255 59.621945 
L 80.310915 59.637759 
L 80.179019 59.61322 
L 80.314297 59.630692 
L 80.385318 59.571879 
L 80.358262 59.646726 
L 80.429283 59.603601 
L 80.547651 59.654793 
L 80.578089 59.619959 
L 80.588234 59.645766 
L 80.72013 59.480447 
L 80.835116 59.461565 
L 80.764096 59.427821 
L 80.84188 59.446525 
L 80.895992 59.346006 
L 80.852026 59.459732 
L 80.96363 59.364578 
L 81.041415 59.270761 
L 81.044797 59.247828 
L 81.139492 59.349429 
L 81.237568 59.38134 
L 81.251096 59.348746 
L 81.382992 59.305499 
L 81.386374 59.294808 
L 81.508124 59.140309 
L 81.521652 59.144115 
L 81.771916 59.062899 
L 81.822645 59.110109 
L 81.917339 58.982376 
L 81.951159 58.948826 
L 82.039089 59.041496 
L 82.079673 59.002682 
L 82.133784 59.089923 
L 82.154076 59.109446 
L 82.211569 58.97676 
L 82.218333 58.979259 
L 82.299499 58.956308 
L 82.313027 58.905329 
L 82.434777 58.845627 
L 82.593729 58.972219 
L 82.444923 58.83147 
L 82.627548 58.894186 
L 82.722243 58.804903 
L 82.641076 58.899989 
L 82.745916 58.829325 
L 82.762826 58.862279 
L 82.813555 58.777975 
L 82.854138 58.81304 
L 83.057055 58.66516 
L 83.060437 58.680549 
L 83.138222 58.722144 
L 83.097639 58.643875 
L 83.165277 58.640752 
L 83.554201 58.473766 
L 83.608312 58.430177 
L 83.669187 58.471937 
L 83.878868 58.530532 
L 83.675951 58.463481 
L 83.885632 58.512979 
L 84.014146 58.451941 
L 84.017528 58.464344 
L 84.098695 58.482706 
L 84.061493 58.372039 
L 84.115604 58.403105 
L 84.325285 58.252737 
L 84.12575 58.420976 
L 84.328667 58.278007 
L 84.406452 58.385794 
L 84.453799 58.346112 
L 84.565403 58.251299 
L 84.707445 58.013956 
L 84.724355 58.041892 
L 84.930653 57.873083 
L 84.775084 58.110004 
L 84.950945 57.92038 
L 85.032112 58.042759 
L 85.295904 58.148533 
L 85.4278 58.053188 
L 85.309431 58.155681 
L 85.431181 58.062829 
L 86.313869 57.514052 
L 86.320633 57.536343 
L 86.405182 57.418664 
L 86.415328 57.389171 
L 86.479585 57.462189 
L 86.516786 57.425477 
L 86.55737 57.455221 
L 86.601335 57.33672 
L 86.604717 57.34061 
L 86.696029 57.268055 
L 86.699411 57.251587 
L 86.702793 57.237561 
L 86.787342 57.349031 
L 86.919238 57.438516 
L 86.949675 57.404151 
L 86.990259 57.485437 
L 87.02746 57.448703 
L 87.14921 57.524983 
L 87.115391 57.406353 
L 87.152592 57.500032 
L 87.28787 57.507997 
L 87.291252 57.487444 
L 87.406238 57.451705 
L 87.500933 57.46457 
L 87.446821 57.414495 
L 87.511078 57.436555 
L 87.615919 57.371271 
L 87.629447 57.384766 
L 87.795162 57.44495 
L 87.642974 57.366547 
L 87.798544 57.424824 
L 87.862801 57.272885 
L 87.923676 57.338798 
L 87.93044 57.363593 
L 87.960877 57.295541 
L 88.028516 57.309769 
L 88.163794 57.229123 
L 88.17394 57.27972 
L 88.187468 57.340717 
L 88.244961 57.184065 
L 88.268634 57.206252 
L 88.275398 57.190789 
L 88.315982 57.276995 
L 88.356565 57.278873 
L 88.441114 57.371953 
L 88.478315 57.345413 
L 88.525662 57.269676 
L 88.589919 57.327054 
L 88.698142 57.335505 
L 88.654176 57.282038 
L 88.708287 57.330888 
L 88.772544 57.266126 
L 88.81651 57.340416 
L 88.911204 57.346438 
L 88.846947 57.286898 
L 88.92135 57.307204 
L 88.968697 57.258114 
L 88.931496 57.31542 
L 89.032954 57.296416 
L 89.049864 57.348142 
L 89.127649 57.222938 
L 89.202052 57.229816 
L 89.161468 57.27037 
L 89.218961 57.270568 
L 89.222343 57.281638 
L 89.276454 57.204928 
L 89.317038 57.21184 
L 89.415114 57.184972 
L 89.384677 57.25279 
L 89.42526 57.205398 
L 89.438788 57.249254 
L 89.509809 57.118236 
L 89.523336 57.125434 
L 89.743163 56.941248 
L 89.540246 57.137015 
L 89.746545 56.963134 
L 89.848003 57.038709 
L 89.861531 56.976581 
L 90.000191 56.931799 
L 89.871677 56.988074 
L 90.003573 56.936247 
L 90.111795 56.946856 
L 90.040774 56.883268 
L 90.115177 56.942415 
L 90.243691 56.80305 
L 90.287656 56.836381 
L 90.409406 56.933136 
L 90.412788 56.921434 
L 90.419552 56.944029 
L 90.483809 56.812123 
L 90.487191 56.82566 
L 90.57174 56.795362 
L 90.531156 56.911083 
L 90.598795 56.811713 
L 90.612323 56.826421 
L 90.67658 56.708455 
L 90.980955 56.473558 
L 91.065504 56.318358 
L 91.068886 56.322796 
" clip-path="url(#peda49197c9)" style="fill: none; stroke: #000000; stroke-width: 0.6; stroke-linecap: square"/>
   </g>
   <g id="line2d_4">
    <path d="M 95.127221 15.313171 
L 95.127221 8.552195 
" clip-path="url(#peda49197c9)" style="fill: none; stroke: #000000; stroke-width: 1.5; stroke-linecap: square"/>
   </g>
  </g>
 </g>
 <defs>
  <clipPath id="peda49197c9">
   <rect x="7.2" y="7.2" width="89.28" height="55.44"/>
  </clipPath>
 </defs>
</svg>
