<?xml version="1.0" encoding="utf-8" standalone="no"?>
<!DOCTYPE svg PUBLIC "-//W3C//DTD SVG 1.1//EN"
  "http://www.w3.org/Graphics/SVG/1.1/DTD/svg11.dtd">
<svg xmlns:xlink="http://www.w3.org/1999/xlink" width="103.68pt" height="69.84pt" viewBox="0 0 103.68 69.84" xmlns="http://www.w3.org/2000/svg" version="1.1">
 <metadata>
  <rdf:RDF xmlns:dc="http://purl.org/dc/elements/1.1/" xmlns:cc="http://creativecommons.org/ns#" xmlns:rdf="http://www.w3.org/1999/02/22-rdf-syntax-ns#">
   <cc:Work>
    <dc:type rdf:resource="http://purl.org/dc/dcmitype/StillImage"/>
    <dc:date>2022-05-18T12:00:17.449247</dc:date>
    <dc:format>image/svg+xml</dc:format>
    <dc:creator>
     <cc:Agent>
      <dc:title>Matplotlib v3.5.1, https://matplotlib.org/</dc:title>
     </cc:Agent>
    </dc:creator>
   </cc:Work>
  </rdf:RDF>
 </metadata>
 <defs>
  <style type="text/css">*{stroke-linejoin: round; stroke-linecap: butt}</style>
 </defs>
 <g id="figure_1">
  <g id="patch_1">
   <path d="M 0 69.84 
L 103.68 69.84 
L 103.68 0 
L 0 0 
L 0 69.84 
z
" style="fill: none"/>
  </g>
  <g id="axes_1">
   <g id="patch_2">
    <path d="M 7.2 62.64 
L 96.48 62.64 
L 96.48 7.2 
L 7.2 7.2 
L 7.2 62.64 
z
" style="fill: none"/>
   </g>
   <g id="matplotlib.axis_1"/>
   <g id="matplotlib.axis_2"/>
   <g id="line2d_1">
    <path d="M 9.905557 23.710428 
L 10.111856 23.393074 
L 10.115238 23.396248 
L 10.199786 23.37106 
L 10.233606 23.456877 
L 10.291099 23.385315 
L 10.247134 23.470944 
L 10.341828 23.470095 
L 10.348592 23.500813 
L 10.426377 23.394018 
L 10.433141 23.407167 
L 10.568419 23.254184 
L 10.439905 23.415244 
L 10.578564 23.273001 
L 10.642821 23.295549 
L 10.619148 23.236627 
L 10.683405 23.239368 
L 10.838974 23.091995 
L 10.899849 23.064983 
L 10.869412 23.051202 
L 10.916759 23.036721 
L 10.960724 23.079544 
L 11.038509 22.932028 
L 11.143349 22.998821 
L 11.163641 22.979081 
L 11.339502 22.867695 
L 11.346266 22.900041 
L 11.440961 22.856778 
L 11.451106 22.824149 
L 11.549183 22.793375 
L 11.478162 22.876842 
L 11.559329 22.838345 
L 11.640495 22.84646 
L 11.620204 22.787568 
L 11.660787 22.799978 
L 11.772391 22.90758 
L 11.796065 22.939671 
L 11.867086 22.819968 
L 11.988836 22.756557 
L 12.009128 22.803573 
L 12.029419 22.735227 
L 12.10044 22.772082 
L 12.212044 22.69738 
L 12.2391 22.727602 
L 12.563767 22.667663 
L 12.60435 22.74778 
L 12.685517 22.663955 
L 12.895198 22.65674 
L 12.929017 22.707957 
L 13.000038 22.614795 
L 13.047385 22.642446 
L 13.084587 22.544011 
L 13.09135 22.54526 
L 13.226628 22.435253 
L 13.098114 22.554466 
L 13.233392 22.465735 
L 13.280739 22.474732 
L 13.240156 22.457546 
L 13.321323 22.407316 
L 13.402489 22.324197 
L 13.341614 22.438968 
L 13.439691 22.387349 
L 13.622316 22.545115 
L 13.659517 22.570523 
L 13.700101 22.510571 
L 13.730538 22.520921 
L 13.76774 22.458531 
L 13.811705 22.580708 
L 13.831997 22.55039 
L 13.87258 22.570701 
L 13.899636 22.478688 
L 13.923309 22.499389 
L 13.99433 22.397778 
L 14.041677 22.420908 
L 14.129608 22.472356 
L 14.089025 22.400559 
L 14.160045 22.442957 
L 14.258122 22.503749 
L 14.288559 22.476236 
L 14.450893 22.302426 
L 14.457657 22.359045 
L 14.49824 22.274882 
L 14.555733 22.30047 
L 14.582789 22.308604 
L 14.674101 22.22772 
L 14.765414 22.144065 
L 14.809379 22.171498 
L 14.839817 22.188616 
L 14.870254 22.08709 
L 14.887164 22.092435 
L 14.998768 22.062768 
L 14.937893 22.159315 
L 15.00215 22.078689 
L 15.120518 22.119682 
L 15.303143 22.139582 
L 15.309907 22.159501 
L 15.391074 22.224486 
L 15.320053 22.155485 
L 15.428275 22.177923 
L 15.553407 22.171232 
L 15.560171 22.193214 
L 15.577081 22.200698 
L 15.607518 22.097816 
L 15.641338 22.110001 
L 15.648102 22.126838 
L 15.790144 22.003961 
L 15.834109 22.05739 
L 15.87131 21.97513 
L 15.894984 21.982173 
L 15.955859 22.084987 
L 16.003206 21.98143 
L 16.04379 22.007012 
L 16.091137 21.933103 
L 16.11481 21.982153 
L 16.233179 21.927615 
L 16.358311 21.78736 
L 16.463151 21.742085 
L 16.381984 21.830535 
L 16.476679 21.77109 
L 16.486825 21.814201 
L 16.574755 21.711975 
L 16.74047 21.527303 
L 16.764144 21.548067 
L 16.770908 21.584544 
L 16.848693 21.457744 
L 16.862221 21.481001 
L 17.014408 21.096269 
L 17.024554 21.104075 
L 17.112485 20.907281 
L 17.227471 20.202882 
L 17.26129 18.2048 
L 17.274818 9.061927 
L 17.352603 21.410486 
L 17.366131 21.329515 
L 17.53861 18.639128 
L 17.552138 11.370267 
L 17.616395 21.841114 
L 17.636686 21.620218 
L 17.79902 18.726208 
L 17.812547 10.929393 
L 17.873422 22.301646 
L 17.897096 22.066982 
L 18.079721 18.715585 
L 18.093249 10.563077 
L 18.154124 22.657116 
L 18.177798 22.422752 
L 18.380714 18.913154 
L 18.394242 10.240746 
L 18.461881 22.942561 
L 18.475409 22.7666 
L 18.701999 19.445744 
L 18.718909 10.10506 
L 18.776402 22.693721 
L 18.786548 23.120303 
L 18.877861 22.024872 
L 19.053722 18.985877 
L 19.06725 9.911245 
L 19.134888 23.250216 
L 19.148416 23.120167 
L 19.425736 18.32812 
L 19.435882 9.887304 
L 19.503521 23.320654 
L 19.527194 23.093544 
L 19.811278 19.517789 
L 19.831569 9.871457 
L 19.885681 22.743957 
L 19.895826 23.328309 
L 19.990521 22.26856 
L 20.020958 21.942818 
L 20.237403 18.769824 
L 20.250931 9.816999 
L 20.315188 23.299861 
L 20.335479 23.150127 
L 20.677056 18.994303 
L 20.693966 9.959316 
L 20.758223 23.279367 
L 20.768368 23.193449 
L 21.130237 19.656221 
L 21.147146 14.994308 
L 21.15391 9.97853 
L 21.221549 23.208591 
L 21.248605 22.928731 
L 21.515779 20.739936 
L 21.651056 19.344531 
L 21.671348 10.068748 
L 21.722077 22.3695 
L 21.735605 23.05665 
L 21.8303 22.052705 
L 22.023071 20.828118 
L 22.151585 20.049813 
L 22.188786 18.410562 
L 22.202314 10.166478 
L 22.266571 22.974219 
L 22.286862 22.79918 
L 22.591238 20.682354 
L 22.736661 19.674491 
L 22.756953 15.948218 
L 22.767099 10.162564 
L 22.827974 22.920568 
L 22.858411 22.634679 
L 23.132349 20.760961 
L 23.135731 20.762427 
L 23.385995 20.15646 
L 23.406287 20.064675 
L 23.453634 18.934677 
L 23.473926 10.515048 
L 23.534801 22.630446 
L 23.538183 22.627372 
L 23.910197 20.636756 
L 23.954162 20.534062 
L 23.920342 20.649621 
L 24.031947 20.609468 
L 24.157079 20.681699 
L 24.17737 20.676332 
L 24.31603 21.113854 
L 24.359995 21.145364 
L 24.370141 21.191569 
L 24.546003 21.82279 
L 24.549384 21.816269 
L 24.596732 21.920424 
L 25.634989 24.020853 
L 25.645135 24.003666 
L 25.699246 23.948734 
L 25.729684 24.036329 
L 25.749975 24.033498 
L 26.155809 24.493499 
L 26.162573 24.469004 
L 26.280941 24.492383 
L 26.287705 24.52425 
L 26.345198 24.568563 
L 26.406073 24.553039 
L 26.598844 24.691638 
L 26.433129 24.524626 
L 26.615754 24.652767 
L 26.734122 24.605152 
L 26.737504 24.627711 
L 26.859254 24.736861 
L 26.876163 24.720127 
L 26.994532 24.545919 
L 27.058789 24.62412 
L 27.380073 24.605244 
L 27.383455 24.58752 
L 27.468004 24.545242 
L 27.424039 24.619195 
L 27.505206 24.576192 
L 27.745324 24.636621 
L 27.511969 24.55084 
L 27.762233 24.561719 
L 27.772379 24.49657 
L 27.86031 24.614739 
L 27.867074 24.61238 
L 28.036171 24.534903 
L 28.110574 24.488245 
L 28.151157 24.558884 
L 28.235706 24.511466 
L 28.266143 24.531006 
L 28.272907 24.548484 
L 28.354074 24.449725 
L 28.36422 24.472098 
L 28.614484 24.321196 
L 28.62463 24.353645 
L 28.661831 24.413317 
L 28.72947 24.334334 
L 28.732852 24.345145 
L 28.749762 24.328342 
L 28.810637 24.431257 
L 28.837692 24.377544 
L 29.016935 24.511768 
L 29.027081 24.499797 
L 29.307783 24.28062 
L 29.351748 24.354289 
L 29.419387 24.320647 
L 29.588484 24.109785 
L 29.595248 24.120023 
L 29.747436 23.999112 
L 29.808311 23.985199 
L 29.845512 24.06736 
L 29.848894 24.059402 
L 29.862422 24.046756 
L 29.923297 24.142919 
L 29.933443 24.146582 
L 29.9977 24.011523 
L 30.045047 23.944338 
L 30.105922 24.018961 
L 30.173561 24.089806 
L 30.210763 24.002724 
L 30.318985 23.927414 
L 30.234436 24.02428 
L 30.335895 23.937927 
L 30.511756 24.125991 
L 30.515138 24.1016 
L 30.552339 24.140195 
L 30.630124 24.105364 
L 30.663943 24.073019 
L 30.985228 24.599637 
L 31.032575 24.551937 
L 31.090069 24.635453 
L 31.350478 24.723035 
L 31.35386 24.70196 
L 31.445173 24.690641 
L 31.462083 24.740631 
L 31.472228 24.764269 
L 31.529722 24.679798 
L 31.566923 24.718032 
L 31.678527 24.685061 
L 31.688673 24.705166 
L 31.729256 24.760342 
L 31.793513 24.67817 
L 31.796895 24.662481 
L 31.884826 24.761084 
L 31.888208 24.753591 
L 31.982902 24.80946 
L 31.942319 24.726956 
L 32.006576 24.781269 
L 32.233166 24.689012 
L 32.331243 24.630707 
L 32.358298 24.656296 
L 32.392118 24.692335 
L 32.446229 24.597733 
L 32.452993 24.616086 
L 32.493576 24.576105 
L 32.547687 24.677347 
L 32.557833 24.645393 
L 32.598417 24.716648 
L 32.679583 24.665734 
L 32.828389 24.657733 
L 32.686347 24.696136 
L 32.838535 24.682371 
L 32.946757 24.719172 
L 32.855445 24.640651 
L 32.967049 24.682837 
L 32.990722 24.63109 
L 33.065125 24.719485 
L 33.068507 24.707834 
L 33.14291 24.756976 
L 33.095563 24.681171 
L 33.180111 24.729574 
L 33.295098 24.592005 
L 33.190257 24.735094 
L 33.312007 24.609835 
L 33.460813 24.671478 
L 33.464195 24.636501 
L 33.565653 24.737202 
L 33.653584 24.650115 
L 33.761806 24.555534 
L 33.775334 24.611045 
L 33.968105 24.76054 
L 33.988397 24.715119 
L 34.100001 24.638706 
L 34.120292 24.668464 
L 34.225133 24.795914 
L 34.248806 24.77439 
L 34.380702 24.668874 
L 34.553182 24.74068 
L 34.387466 24.657275 
L 34.556564 24.733804 
L 34.67155 24.675336 
L 34.695223 24.687277 
L 34.718897 24.691424 
L 34.75948 24.560309 
L 34.762862 24.560095 
L 34.837265 24.583806 
L 34.77639 24.587319 
L 34.850793 24.629035 
L 34.935341 24.657771 
L 34.908286 24.561274 
L 34.955633 24.611067 
L 35.030036 24.684008 
L 35.070619 24.600021 
L 35.107821 24.583311 
L 35.202515 24.707162 
L 35.331029 24.646361 
L 35.209279 24.717947 
L 35.344557 24.671934 
L 35.405432 24.67077 
L 35.43587 24.596162 
L 35.513654 24.7241 
L 35.544092 24.759869 
L 35.561002 24.695552 
L 35.618495 24.691564 
L 35.655696 24.712492 
L 35.716571 24.644405 
L 35.750391 24.607105 
L 35.814648 24.703755 
L 36.389578 24.720176 
L 36.497801 24.632717 
L 36.416634 24.764942 
L 36.507947 24.699182 
L 36.518092 24.675824 
L 36.626315 24.709266 
L 36.629697 24.696002 
L 36.721009 24.773315 
L 36.724391 24.767111 
L 36.734537 24.781835 
L 36.798794 24.65934 
L 36.802176 24.670567 
L 36.91378 24.607503 
L 36.846141 24.719119 
L 36.917162 24.62151 
L 37.008475 24.667831 
L 36.954363 24.609688 
L 37.025384 24.610709 
L 37.099787 24.57205 
L 37.123461 24.662147 
L 37.231683 24.720909 
L 37.153898 24.637223 
L 37.248593 24.693326 
L 37.316232 24.72366 
L 37.373725 24.568573 
L 37.492093 24.662946 
L 37.495475 24.652163 
L 37.583405 24.677754 
L 37.603697 24.645911 
L 37.715301 24.558099 
L 37.728829 24.580715 
L 37.884399 24.657485 
L 37.738975 24.563819 
L 37.894544 24.648306 
L 38.012913 24.440391 
L 38.019677 24.4537 
L 38.131281 24.464183 
L 38.104225 24.410772 
L 38.134663 24.461809 
L 38.283468 24.484396 
L 38.171864 24.402821 
L 38.293614 24.462861 
L 38.439038 24.566051 
L 38.516823 24.629723 
L 38.550642 24.566722 
L 38.827962 24.418576 
L 38.875309 24.444472 
L 38.922656 24.341817 
L 38.92942 24.356443 
L 39.210122 24.42904 
L 39.213504 24.403783 
L 39.301434 24.380895 
L 39.243941 24.437157 
L 39.321726 24.41315 
L 39.429948 24.492245 
L 39.436712 24.459748 
L 39.717414 24.420538 
L 39.724177 24.463983 
L 39.785052 24.510992 
L 39.8324 24.434476 
L 39.994733 24.245836 
L 40.015025 24.300469 
L 40.140157 24.346085 
L 40.028553 24.290365 
L 40.146921 24.323118 
L 40.153685 24.296334 
L 40.241615 24.398493 
L 40.244997 24.397643 
L 40.346456 24.369539 
L 40.295726 24.446728 
L 40.359983 24.39842 
L 40.410713 24.44107 
L 40.454678 24.362847 
L 40.468206 24.380531 
L 40.559518 24.266383 
L 40.589956 24.335855 
L 41.016081 24.087842 
L 41.080338 24.022455 
L 41.0499 24.107963 
L 41.131067 24.075392 
L 41.20547 24.161206 
L 41.246053 24.094536 
L 41.361039 23.985202 
L 41.367803 24.00349 
L 41.391477 23.957899 
L 41.482789 24.002024 
L 41.574102 24.011643 
L 41.547046 23.94734 
L 41.594394 23.994164 
L 41.722908 23.873 
L 41.729672 23.875882 
L 41.868331 23.912984 
L 41.892005 23.887132 
L 41.956262 23.848599 
L 41.986699 23.922815 
L 41.993463 23.921508 
L 42.040811 24.011588 
L 42.10845 23.968602 
L 42.118595 23.946066 
L 42.165943 24.053461 
L 42.209908 24.019722 
L 42.233582 24.086252 
L 42.314748 23.986896 
L 42.466936 23.859117 
L 42.348568 24.017308 
L 42.4737 23.872876 
L 42.541339 23.918246 
L 42.490609 23.82042 
L 42.57854 23.857797 
L 42.608978 23.787702 
L 42.663089 23.868306 
L 42.686762 23.866852 
L 42.710436 23.875932 
L 42.751019 23.775246 
L 42.771311 23.796787 
L 42.893061 23.704643 
L 42.781457 23.806087 
L 42.896443 23.711153 
L 42.97761 23.7791 
L 42.987756 23.827221 
L 43.024957 23.6932 
L 43.079068 23.722585 
L 43.2042 23.617209 
L 43.22111 23.684814 
L 43.23802 23.696124 
L 43.265075 23.58977 
L 43.292131 23.609131 
L 43.407117 23.561842 
L 43.339478 23.62928 
L 43.410499 23.571667 
L 43.525485 23.580392 
L 43.417263 23.579577 
L 43.528867 23.591306 
L 43.549159 23.622885 
L 43.640471 23.58286 
L 43.748694 23.553272 
L 43.647235 23.613418 
L 43.762221 23.571045 
L 43.81295 23.683113 
L 43.873826 23.571378 
L 43.883971 23.552115 
L 43.941464 23.66867 
L 43.944846 23.662347 
L 44.005721 23.72859 
L 44.056451 23.674405 
L 44.174819 23.583176 
L 44.33377 23.627389 
L 44.381117 23.688606 
L 44.425083 23.570795 
L 44.435229 23.577574 
L 45.196167 23.312351 
L 45.20293 23.334141 
L 45.246896 23.310645 
L 45.321299 23.357802 
L 45.649347 23.166944 
L 45.659493 23.149892 
L 45.733896 23.24695 
L 45.750806 23.21152 
L 45.865792 23.275396 
L 45.886084 23.254878 
L 46.011216 23.202905 
L 45.936813 23.30978 
L 46.014598 23.221226 
L 46.038271 23.291119 
L 46.132966 23.261265 
L 46.457632 22.929819 
L 46.521889 22.942402 
L 46.532035 22.87583 
L 46.565855 22.90324 
L 46.596292 22.868647 
L 46.64364 23.003462 
L 46.653785 22.987188 
L 46.684223 22.907641 
L 46.76539 22.99573 
L 46.809355 22.921858 
L 46.843174 23.022986 
L 46.88714 22.980775 
L 46.978452 22.995052 
L 46.937869 22.940587 
L 46.99198 22.961803 
L 47.13064 22.841066 
L 47.137404 22.850755 
L 47.215188 22.895984 
L 47.245626 22.825253 
L 47.34032 22.880305 
L 47.343702 22.898644 
L 47.424869 22.782908 
L 47.431633 22.789273 
L 47.509418 22.756607 
L 47.533091 22.82845 
L 47.536473 22.811935 
L 47.553383 22.835691 
L 47.61764 22.755097 
L 47.63455 22.760308 
L 47.793501 22.594812 
L 47.810411 22.616181 
L 47.87805 22.6906 
L 47.918633 22.610145 
L 48.033619 22.625315 
L 47.955835 22.657575 
L 48.037001 22.630315 
L 48.043765 22.658522 
L 48.131696 22.563884 
L 48.141842 22.585122 
L 48.337995 22.704137 
L 48.341377 22.686814 
L 48.456363 22.580858 
L 48.459745 22.607626 
L 48.500328 22.648479 
L 48.571349 22.621778 
L 48.686335 22.625792 
L 48.588259 22.648426 
L 48.689717 22.645556 
L 48.716773 22.683962 
L 48.801321 22.644037 
L 49.061731 22.512647 
L 49.105696 22.608711 
L 49.230828 22.719898 
L 49.281558 22.568306 
L 49.359342 22.617177 
L 49.416835 22.753944 
L 49.487856 22.71394 
L 49.619752 22.676907 
L 49.63328 22.719238 
L 49.640044 22.755896 
L 49.717829 22.651562 
L 49.73812 22.705154 
L 49.819287 22.59668 
L 49.863252 22.636535 
L 50.049259 22.518236 
L 50.056023 22.540553 
L 50.096607 22.472726 
L 50.157482 22.513711 
L 50.29276 22.382696 
L 50.296142 22.38725 
L 50.299523 22.414619 
L 50.384072 22.233829 
L 50.390836 22.210442 
L 50.438183 22.316531 
L 50.485531 22.284819 
L 50.583607 22.313452 
L 50.597135 22.284877 
L 50.793288 22.102196 
L 50.800052 22.110633 
L 50.830489 22.033246 
L 50.8846 22.050498 
L 50.955621 22.010638 
L 50.925184 22.066507 
L 50.996204 22.048054 
L 51.155156 22.143699 
L 51.02326 22.005272 
L 51.172066 22.100586 
L 51.222795 22.017375 
L 51.28367 22.054815 
L 51.341163 22.070915 
L 51.385128 22.016661 
L 51.530552 21.8967 
L 51.537316 21.906545 
L 51.642156 21.893841 
L 51.604955 21.854701 
L 51.64892 21.877735 
L 51.774052 21.699791 
L 51.777434 21.700668 
L 51.780816 21.727183 
L 51.824781 21.616476 
L 51.882274 21.663389 
L 52.054754 21.506108 
L 51.899184 21.691831 
L 52.058136 21.533304 
L 52.075045 21.561966 
L 52.115629 21.493432 
L 52.162976 21.486258 
L 52.179886 21.490922 
L 52.315163 21.248524 
L 52.318545 21.27178 
L 52.406476 21.144762 
L 52.409858 21.144306 
L 52.626303 19.313598 
L 52.646594 9.018312 
L 52.717615 21.446219 
L 52.846129 20.46344 
L 52.913768 18.784491 
L 52.927296 11.391514 
L 52.991553 21.864396 
L 53.011844 21.680181 
L 53.184324 18.466661 
L 53.197851 10.970693 
L 53.258726 22.270715 
L 53.285782 21.972171 
L 53.451497 19.767633 
L 53.468407 17.578352 
L 53.478553 10.578429 
L 53.54281 22.629628 
L 53.573247 22.280731 
L 53.762636 18.871087 
L 53.776164 10.239483 
L 53.840421 22.956558 
L 53.860713 22.745756 
L 54.090685 18.467662 
L 54.100831 10.115945 
L 54.16847 23.128341 
L 54.192144 22.89896 
L 54.439026 17.766146 
L 54.449172 9.931096 
L 54.51681 23.254947 
L 54.543866 22.967099 
L 54.81104 18.417731 
L 54.821186 9.937456 
L 54.888825 23.289066 
L 54.912498 23.066862 
L 55.199964 18.46617 
L 55.210109 9.930006 
L 55.277748 23.372863 
L 55.301422 23.140808 
L 55.612561 19.558324 
L 55.629471 11.12884 
L 55.632853 9.853118 
L 55.700492 23.295847 
L 55.707256 23.252468 
L 56.06236 19.186318 
L 56.07927 9.860353 
L 56.143527 23.244958 
L 56.173964 22.968412 
L 56.525687 19.097256 
L 56.542596 9.898523 
L 56.606853 23.201462 
L 56.610235 23.194001 
L 56.623763 23.071054 
L 57.03636 17.676842 
L 57.049888 10.150305 
L 57.110763 23.077694 
L 57.137819 22.851339 
L 57.563944 18.997094 
L 57.580854 10.091798 
L 57.645111 23.005654 
L 57.651875 22.960896 
L 57.996833 20.580057 
L 58.142257 19.73978 
L 58.165931 16.729158 
L 58.176076 10.343567 
L 58.240333 22.825592 
L 58.267389 22.566151 
L 58.619111 20.504352 
L 58.622493 20.508936 
L 58.666459 20.382394 
L 58.754389 19.255755 
L 58.778063 10.318312 
L 58.82541 22.281666 
L 58.84232 22.817356 
L 58.93025 21.925645 
L 59.197424 20.670328 
L 59.204188 20.689239 
L 59.22448 20.713287 
L 59.292119 20.617518 
L 59.302264 20.64014 
L 59.424015 20.502516 
L 59.444306 20.551053 
L 59.708098 21.051617 
L 59.71148 21.049048 
L 59.745299 21.143606 
L 60.05982 22.182127 
L 60.066584 22.178483 
L 60.107168 22.295683 
L 60.590786 23.206386 
L 60.739592 23.458429 
L 60.742974 23.441967 
L 60.834286 23.520789 
L 60.84105 23.513567 
L 61.06764 23.745005 
L 61.074404 23.735447 
L 61.142043 23.82568 
L 61.290849 23.96315 
L 61.186009 23.794875 
L 61.294231 23.960829 
L 61.385543 23.915726 
L 61.321286 23.983403 
L 61.405835 23.977084 
L 61.503912 24.001238 
L 61.517439 24.035247 
L 61.656099 24.207623 
L 61.74403 24.229508 
L 61.669627 24.271035 
L 61.754176 24.257904 
L 61.811669 24.276312 
L 61.774467 24.230195 
L 61.852252 24.212917 
L 61.960474 24.159649 
L 61.974002 24.190423 
L 62.011203 24.243282 
L 62.072078 24.149388 
L 62.088988 24.186708 
L 62.308815 24.102944 
L 62.312197 24.109013 
L 62.366308 24.217984 
L 62.427183 24.159953 
L 62.518495 24.213902 
L 62.542169 24.185173 
L 62.59628 24.167276 
L 62.643627 24.22511 
L 62.650391 24.198619 
L 62.765377 24.30495 
L 62.795815 24.278568 
L 62.870218 24.232208 
L 62.812725 24.288849 
L 62.904037 24.307699 
L 62.910801 24.32675 
L 62.99535 24.221797 
L 63.103572 24.196752 
L 63.025787 24.236059 
L 63.110336 24.208147 
L 63.171211 24.249909 
L 63.208412 24.158604 
L 63.34369 24.164046 
L 63.353836 24.131085 
L 63.357218 24.11884 
L 63.431621 24.218108 
L 63.445149 24.210685 
L 63.526315 24.324754 
L 63.451913 24.192752 
L 63.573663 24.235545 
L 63.648065 24.100823 
L 63.692031 24.151292 
L 63.837454 24.316627 
L 63.702177 24.142857 
L 63.857746 24.307074 
L 63.949059 24.259745 
L 63.979496 24.271536 
L 64.050517 24.320185 
L 63.98626 24.250923 
L 64.0911 24.267614 
L 64.145212 24.164036 
L 64.168885 24.107689 
L 64.195941 24.185062 
L 64.256816 24.150085 
L 64.365038 24.157118 
L 64.297399 24.113591 
L 64.36842 24.139618 
L 64.500316 24.22819 
L 64.902768 23.92585 
L 64.513844 24.261082 
L 64.912913 23.958775 
L 65.058337 23.994889 
L 64.919677 23.941064 
L 65.068483 23.968928 
L 65.153032 23.841999 
L 65.085393 23.980357 
L 65.217289 23.924876 
L 65.308601 23.917812 
L 65.240962 23.868936 
L 65.322129 23.891183 
L 65.443879 23.911055 
L 65.345802 23.946933 
L 65.447261 23.923573 
L 65.548719 24.031953 
L 65.582539 23.996067 
L 65.585921 23.982384 
L 65.606212 24.053849 
L 65.683997 24.04704 
L 65.700907 24.107717 
L 65.72458 24.128758 
L 65.86324 24.498311 
L 65.870004 24.475879 
L 65.900442 24.481024 
L 65.934261 24.566156 
L 65.941025 24.543823 
L 66.468609 24.734195 
L 66.543011 24.752351 
L 66.593741 24.674646 
L 66.712109 24.699289 
L 66.722255 24.719138 
L 66.779748 24.73885 
L 66.739164 24.686477 
L 66.837241 24.70924 
L 66.88797 24.685831 
L 66.854151 24.755908 
L 66.928553 24.774704 
L 66.962373 24.83948 
L 67.033394 24.751595 
L 67.036776 24.756904 
L 67.155144 24.710684 
L 67.341151 24.790667 
L 67.361442 24.731159 
L 67.520394 24.670384 
L 67.371588 24.744784 
L 67.550831 24.719303 
L 67.584651 24.749229 
L 67.638762 24.640602 
L 67.65229 24.677239 
L 67.696255 24.619521 
L 67.75713 24.711913 
L 67.784186 24.795752 
L 67.838297 24.656347 
L 67.87888 24.74686 
L 67.970193 24.714633 
L 67.909318 24.656461 
L 67.973575 24.703018 
L 68.037832 24.64118 
L 68.081797 24.720713 
L 68.203547 24.83196 
L 68.108853 24.695161 
L 68.223839 24.764323 
L 68.247512 24.804533 
L 68.386172 24.676663 
L 68.501158 24.744241 
L 68.423374 24.592624 
L 68.518068 24.718236 
L 68.585707 24.688395 
L 68.558651 24.766876 
L 68.633054 24.720447 
L 68.724367 24.779933 
L 68.683783 24.68106 
L 68.744659 24.716075 
L 68.775096 24.678612 
L 68.815679 24.777837 
L 68.842735 24.761274 
L 68.940811 24.776105 
L 68.852881 24.745277 
L 68.961103 24.758941 
L 69.052416 24.692383 
L 69.079471 24.710743 
L 69.18093 24.683791 
L 69.194457 24.653553 
L 69.289152 24.637117 
L 69.238423 24.718571 
L 69.306062 24.657061 
L 69.417666 24.703008 
L 69.383846 24.636888 
L 69.42443 24.693286 
L 69.444721 24.755748 
L 69.525888 24.656458 
L 69.52927 24.660823 
L 69.66793 24.602865 
L 69.681458 24.634407 
L 69.749097 24.648848 
L 69.776152 24.55998 
L 69.92834 24.684679 
L 69.803208 24.515742 
L 69.948631 24.657356 
L 70.070381 24.650899 
L 69.975687 24.604083 
L 70.077145 24.638996 
L 70.080527 24.632028 
L 70.144784 24.746384 
L 70.219187 24.80324 
L 70.266534 24.749162 
L 70.357847 24.701574 
L 70.273298 24.757254 
L 70.384902 24.758258 
L 70.574291 24.704517 
L 70.395048 24.772614 
L 70.577673 24.715638 
L 70.67575 24.724504 
L 70.594583 24.68633 
L 70.682514 24.701228 
L 70.790736 24.633533 
L 70.709569 24.718905 
L 70.800882 24.643326 
L 71.504327 24.701182 
L 71.588875 24.739695 
L 71.534764 24.658751 
L 71.612549 24.702705 
L 71.710625 24.628561 
L 71.747827 24.654256 
L 71.852667 24.579827 
L 71.757973 24.664131 
L 71.883105 24.651323 
L 72.451272 24.604865 
L 72.579786 24.572244 
L 72.715063 24.86027 
L 72.718445 24.842263 
L 72.721827 24.847785 
L 72.772557 24.732653 
L 72.897689 24.637399 
L 72.90107 24.641812 
L 73.036348 24.709301 
L 73.05664 24.676059 
L 73.198682 24.679881 
L 73.205446 24.691939 
L 73.266321 24.764215 
L 73.320432 24.738952 
L 73.445564 24.6818 
L 73.347487 24.751103 
L 73.448946 24.687535 
L 73.476001 24.754627 
L 73.540258 24.587727 
L 73.550404 24.613385 
L 73.662008 24.455138 
L 73.6823 24.501252 
L 73.763467 24.489956 
L 73.712738 24.473321 
L 73.783758 24.469865 
L 73.851397 24.393227 
L 73.807432 24.492363 
L 73.902127 24.459661 
L 73.979911 24.427428 
L 74.023877 24.480673 
L 74.135481 24.437822 
L 74.037404 24.495661 
L 74.138863 24.449526 
L 74.152391 24.459565 
L 74.20312 24.345411 
L 74.223411 24.347496 
L 74.385745 24.32022 
L 74.500731 24.241584 
L 74.402655 24.326156 
L 74.507495 24.24442 
L 74.558224 24.158703 
L 74.622481 24.243929 
L 74.727321 24.233123 
L 74.656301 24.180584 
L 74.730703 24.231533 
L 74.84569 24.163189 
L 74.737467 24.238684 
L 74.855835 24.182252 
L 74.953912 24.320985 
L 74.984349 24.311192 
L 75.051988 24.342847 
L 74.997877 24.243665 
L 75.095954 24.28861 
L 75.099336 24.27366 
L 75.160211 24.356232 
L 75.190648 24.348257 
L 75.278579 24.394617 
L 75.302252 24.349937 
L 75.457822 24.126768 
L 75.616773 24.187149 
L 75.687794 24.162235 
L 75.73176 24.201237 
L 75.779107 24.169219 
L 75.839982 24.213946 
L 75.95835 24.120186 
L 75.856892 24.238607 
L 75.965114 24.141387 
L 76.066572 24.190766 
L 76.0801 24.156879 
L 76.113919 24.195471 
L 76.296545 23.923686 
L 76.350656 23.938089 
L 76.303308 23.916222 
L 76.384475 23.876451 
L 76.408149 23.839579 
L 76.475788 23.93743 
L 76.489316 23.914688 
L 76.651649 23.778249 
L 76.671941 23.792997 
L 76.68885 23.802957 
L 76.749725 23.685399 
L 77.446406 23.669607 
L 77.524191 23.689177 
L 77.463316 23.647969 
L 77.558011 23.666311 
L 77.601976 23.615569 
L 77.676379 23.640205 
L 77.825184 23.658272 
L 77.83533 23.644061 
L 77.838712 23.635952 
L 77.916497 23.733063 
L 77.923261 23.714076 
L 77.926643 23.725188 
L 77.960462 23.625974 
L 78.014573 23.655362 
L 78.075448 23.593695 
L 78.105886 23.667942 
L 78.126178 23.659294 
L 78.2344 23.62217 
L 78.173525 23.696627 
L 78.241164 23.636131 
L 78.498192 23.4459 
L 78.657143 23.293223 
L 78.663907 23.309209 
L 78.687581 23.355215 
L 78.758601 23.267899 
L 78.765365 23.271648 
L 78.809331 23.236203 
L 78.839768 23.340034 
L 78.86006 23.325321 
L 78.917553 23.373814 
L 78.971664 23.325361 
L 79.073122 23.227069 
L 79.117088 23.272854 
L 79.171199 23.241405 
L 79.157671 23.211619 
L 79.194873 23.201683 
L 79.343678 23.091397 
L 79.34706 23.105672 
L 79.4519 23.148585 
L 79.455282 23.16118 
L 79.458664 23.185497 
L 79.553359 23.069594 
L 79.698783 23.043961 
L 79.722456 23.094138 
L 79.725838 23.126838 
L 79.803623 23.020369 
L 79.827296 23.054285 
L 79.911845 22.995441 
L 79.918609 22.97653 
L 80.243276 22.676503 
L 80.25004 22.686916 
L 80.256804 22.698977 
L 80.327825 22.573082 
L 80.452957 22.513134 
L 80.344734 22.587461 
L 80.466484 22.548952 
L 80.564561 22.509281 
L 80.571325 22.489015 
L 80.652491 22.393547 
L 80.696457 22.412523 
L 80.750568 22.498548 
L 80.797915 22.377485 
L 80.801297 22.378986 
L 80.838498 22.341954 
L 80.89261 22.411329 
L 80.916283 22.378214 
L 81.027887 22.369612 
L 80.943339 22.349449 
L 81.031269 22.362838 
L 81.038033 22.374007 
L 81.156401 22.337226 
L 81.166547 22.367319 
L 81.244332 22.245677 
L 81.247714 22.246978 
L 81.322117 22.13685 
L 81.3627 22.220205 
L 81.372846 22.245199 
L 81.443867 22.077364 
L 81.447249 22.094552 
L 81.497978 22.171083 
L 81.50136 22.187148 
L 81.572381 22.270832 
L 81.609582 22.180916 
L 81.626492 22.138214 
L 81.711041 22.22674 
L 81.714423 22.224368 
L 81.76177 22.165712 
L 81.829409 22.235813 
L 81.842936 22.21914 
L 81.944395 22.229881 
L 82.113492 21.977891 
L 82.116874 21.989184 
L 82.120256 22.014745 
L 82.211569 21.876395 
L 82.214951 21.889517 
L 82.377284 21.750785 
L 82.38743 21.755328 
L 82.411103 21.777304 
L 82.461833 21.686591 
L 82.47536 21.68826 
L 82.732388 21.584861 
L 82.73577 21.588908 
L 82.745916 21.609406 
L 82.810173 21.463169 
L 82.813555 21.463254 
L 82.969125 21.279251 
L 82.854138 21.491658 
L 82.992798 21.312158 
L 83.15175 21.134633 
L 83.36143 19.446586 
L 83.385104 9.076903 
L 83.449361 21.343716 
L 83.456125 21.435953 
L 83.537292 20.84098 
L 83.631986 19.764908 
L 83.65566 15.668376 
L 83.662424 11.398414 
L 83.726681 21.82502 
L 83.757118 21.502587 
L 83.912688 18.413094 
L 83.926215 11.061923 
L 83.98709 22.234554 
L 84.014146 21.936297 
L 84.186625 18.657525 
L 84.200153 10.654118 
L 84.261028 22.616412 
L 84.288084 22.333329 
L 84.480855 18.380421 
L 84.491 10.336706 
L 84.558639 22.92236 
L 84.582313 22.649811 
L 84.798758 18.742299 
L 84.812285 10.158996 
L 84.876542 23.099246 
L 84.896834 22.914182 
L 84.984765 21.796501 
L 85.140334 18.614928 
L 85.153862 10.106118 
L 85.218119 23.21498 
L 85.241792 22.996856 
L 85.49882 18.833009 
L 85.512348 9.896654 
L 85.579987 23.318627 
L 85.596897 23.146691 
L 85.884362 18.597842 
L 85.89789 9.9303 
L 85.962147 23.339834 
L 85.985821 23.112476 
L 86.290196 18.332154 
L 86.300342 9.909902 
L 86.371363 23.338413 
L 86.391654 23.123372 
L 86.723085 18.947325 
L 86.736613 9.970155 
L 86.804252 23.250021 
L 86.814398 23.19985 
L 87.122155 20.380391 
L 87.172884 19.356842 
L 87.193175 9.958811 
L 87.243905 22.494812 
L 87.257432 23.214311 
L 87.352127 22.198537 
L 87.646356 19.318339 
L 87.666648 9.976364 
L 87.720759 22.956074 
L 87.727523 23.177784 
L 87.815454 22.288935 
L 88.180704 18.441772 
L 88.194232 10.066919 
L 88.258489 23.048851 
L 88.27878 22.873512 
L 88.606829 20.550701 
L 88.691378 19.813733 
L 88.715051 16.929557 
L 88.725197 10.121342 
L 88.792836 23.001096 
L 88.819892 22.705906 
L 89.293364 19.022777 
L 89.313656 10.297173 
L 89.374531 22.863664 
L 89.377913 22.859453 
L 89.486135 21.772311 
L 89.695816 20.690191 
L 89.699198 20.694472 
L 89.736399 20.568523 
L 89.878441 20.344556 
L 89.881823 20.353613 
L 89.885205 20.362454 
L 89.932552 20.180352 
L 90.003573 19.165739 
L 90.027246 10.529247 
L 90.077976 22.428565 
L 90.08474 22.603854 
L 90.169288 21.847429 
L 90.473663 20.606204 
L 90.57174 20.636676 
L 90.531156 20.539231 
L 90.585268 20.603806 
L 90.727309 20.836563 
L 90.737455 20.829864 
L 90.757747 20.806093 
L 90.808476 21.001189 
L 90.811858 20.991973 
L 91.065504 21.759137 
L 91.068886 21.755209 
" clip-path="url(#p29afb11d79)" style="fill: none; stroke: #000000; stroke-width: 0.6; stroke-linecap: square"/>
   </g>
   <g id="line2d_2">
    <path d="M 9.905557 41.638374 
L 10.152439 41.522098 
L 10.155821 41.550163 
L 10.270807 41.612588 
L 10.176113 41.541015 
L 10.277571 41.597642 
L 10.280953 41.580476 
L 10.358738 41.725031 
L 10.36212 41.723859 
L 10.372266 41.686025 
L 10.581946 41.865765 
L 10.690169 41.653395 
L 10.717224 41.680941 
L 10.720606 41.697646 
L 10.798391 41.54667 
L 10.805155 41.562531 
L 10.808537 41.553159 
L 10.86603 41.632232 
L 10.896467 41.63504 
L 10.943815 41.685591 
L 11.014835 41.623555 
L 11.116294 41.53747 
L 11.133204 41.61261 
L 11.271863 41.56711 
L 11.200842 41.670483 
L 11.278627 41.58694 
L 11.366558 41.614574 
L 11.292155 41.561744 
L 11.38685 41.574262 
L 11.511982 41.490551 
L 11.802829 41.626251 
L 11.525509 41.472829 
L 11.806211 41.605698 
L 11.863704 41.672443 
L 11.917815 41.598934 
L 11.927961 41.621834 
L 11.988836 41.498201 
L 12.005746 41.503268 
L 12.323649 41.434642 
L 12.327031 41.412203 
L 12.394669 41.549167 
L 12.425107 41.50154 
L 12.529947 41.503211 
L 12.479218 41.559096 
L 12.536711 41.516763 
L 12.641552 41.529754 
L 12.567149 41.477084 
L 12.644934 41.520009 
L 12.766684 41.450273 
L 12.810649 41.466458 
L 12.780211 41.436833 
L 12.868142 41.411415 
L 12.901961 41.327144 
L 12.9696 41.458511 
L 13.09135 41.408484 
L 13.098114 41.437323 
L 13.10826 41.445807 
L 13.135316 41.369961 
L 13.175899 41.359357 
L 13.189427 41.311202 
L 13.257066 41.432454 
L 13.409253 41.544808 
L 13.273976 41.416146 
L 13.412635 41.538313 
L 13.439691 41.489491 
L 13.500566 41.598826 
L 13.517476 41.579507 
L 13.673045 41.717069 
L 13.700101 41.680719 
L 13.791413 41.574733 
L 13.835379 41.587315 
L 13.943601 41.650915 
L 13.957129 41.622782 
L 14.285177 41.680473 
L 14.390018 41.733486 
L 14.298705 41.671046 
L 14.396782 41.703157 
L 14.562497 41.715889 
L 14.569261 41.701901 
L 14.74174 41.602295 
L 14.75865 41.658492 
L 14.900692 41.752695 
L 14.802615 41.619268 
L 14.907456 41.729572 
L 14.98524 41.626462 
L 15.025824 41.686884 
L 15.056261 41.731266 
L 15.117136 41.589776 
L 15.130664 41.62899 
L 15.235504 41.583639 
L 15.14081 41.642681 
L 15.249032 41.609278 
L 15.347109 41.713266 
L 15.259178 41.603609 
L 15.3674 41.685914 
L 15.475623 41.747515 
L 15.411366 41.656783 
L 15.495914 41.739006 
L 15.64472 41.657716 
L 15.648102 41.664583 
L 15.715741 41.67382 
L 15.73265 41.620709 
L 15.74956 41.622901 
L 15.854401 41.601925 
L 15.867928 41.631988 
L 15.928803 41.65955 
L 15.891602 41.596093 
L 15.979533 41.629841 
L 16.053935 41.609171 
L 16.006588 41.553371 
L 16.077609 41.580318 
L 16.294054 41.666262 
L 16.314345 41.625102 
L 16.415804 41.551925 
L 16.429331 41.595661 
L 16.503734 41.688637 
L 16.439477 41.5881 
L 16.551081 41.642399 
L 16.659304 41.560008 
L 16.689741 41.595664 
L 16.710033 41.606841 
L 16.74047 41.543855 
L 16.797964 41.571147 
L 16.87913 41.477562 
L 16.885894 41.463189 
L 16.936623 41.58 
L 16.970443 41.564521 
L 17.092193 41.601338 
L 17.095575 41.616126 
L 17.186887 41.663694 
L 17.129394 41.599446 
L 17.207179 41.620265 
L 17.210561 41.611683 
L 17.2782 41.740711 
L 17.413478 42.058684 
L 17.427006 42.03421 
L 17.50479 42.1203 
L 17.511554 42.105649 
L 17.646832 42.209409 
L 17.552138 42.065418 
L 17.653596 42.192152 
L 17.788874 42.049081 
L 17.897096 42.073451 
L 17.819311 42.004801 
L 17.917388 42.053346 
L 17.937679 42.000998 
L 18.0087 42.07719 
L 18.02561 42.071041 
L 18.103395 42.031994 
L 18.039138 42.091416 
L 18.13045 42.099235 
L 18.245437 42.131115 
L 18.248819 42.109533 
L 18.2522 42.098186 
L 18.306312 42.201131 
L 18.336749 42.179639 
L 18.340131 42.206225 
L 18.380714 42.112341 
L 18.441589 42.142463 
L 18.66818 42.038364 
L 18.678326 42.068302 
L 18.742583 41.975914 
L 18.776402 42.026265 
L 18.813604 41.986979 
L 18.847423 42.096767 
L 18.871097 42.095278 
L 19.300604 42.062658 
L 19.385152 42.023243 
L 19.418972 42.047433 
L 19.517048 42.163614 
L 19.557632 42.142469 
L 19.743639 42.053817 
L 19.784222 41.994872 
L 19.838333 42.137929 
L 19.845097 42.169379 
L 19.929646 42.081672 
L 19.939792 42.082933 
L 20.122417 42.01254 
L 20.183292 41.993305 
L 20.163 42.053462 
L 20.223875 42.055883 
L 20.399736 42.141561 
L 20.409882 42.112827 
L 20.595889 42.016383 
L 20.616181 42.059512 
L 20.687202 42.092469 
L 20.717639 42.020999 
L 20.724403 42.043524 
L 20.734549 42.041432 
L 20.754841 42.121077 
L 20.778514 42.133899 
L 20.80557 42.192345 
L 20.883355 42.098208 
L 21.231695 42.008763 
L 21.251987 42.093371 
L 21.316244 41.97082 
L 21.346681 42.038981 
L 21.444758 41.99241 
L 21.356827 42.053823 
L 21.458286 42.050906 
L 21.56989 41.948076 
L 21.603709 42.018886 
L 21.70855 42.037398 
L 21.634147 41.992502 
L 21.718695 42.03222 
L 21.826918 42.02001 
L 21.789716 41.989498 
L 21.8303 42.00858 
L 21.924994 42.062086 
L 22.033216 42.124184 
L 22.03998 42.100906 
L 22.060272 42.124941 
L 22.171876 41.993119 
L 22.506689 41.960246 
L 22.5608 41.882016 
L 22.533744 41.964628 
L 22.618293 41.959169 
L 22.736661 41.885752 
L 22.767099 41.931405 
L 22.811064 42.074207 
L 22.895613 42.033716 
L 22.986925 42.049264 
L 22.912522 42.008219 
L 23.007217 42.016343 
L 23.078238 41.970409 
L 23.030891 42.034867 
L 23.118821 42.023225 
L 23.22028 42.06361 
L 23.135731 42.017092 
L 23.233807 42.037876 
L 23.301446 42.000241 
L 23.321738 42.064987 
L 23.345412 42.030283 
L 23.352175 42.044125 
L 23.369085 41.971513 
L 23.440106 41.962027 
L 23.517891 41.923464 
L 23.534801 41.996042 
L 23.55171 41.970042 
L 24.153697 41.927758 
L 24.224718 41.889625 
L 24.245009 41.962185 
L 24.268683 41.918884 
L 24.292357 41.930798 
L 24.363377 41.853348 
L 24.393815 41.885115 
L 24.502037 41.794424 
L 24.566294 41.818966 
L 24.546003 41.761253 
L 24.610259 41.772048 
L 24.735391 41.823773 
L 24.928162 41.676563 
L 24.94169 41.69513 
L 25.033003 41.736668 
L 24.978892 41.665916 
L 25.056676 41.705851 
L 25.158135 41.69347 
L 25.090496 41.761549 
L 25.168281 41.723102 
L 25.188572 41.71787 
L 25.23592 41.81082 
L 25.246065 41.856793 
L 25.313704 41.747135 
L 25.333996 41.749995 
L 25.618079 41.531272 
L 25.736448 41.440609 
L 25.743211 41.459711 
L 25.753357 41.484945 
L 25.817614 41.389281 
L 25.841288 41.404006 
L 25.963038 41.316595 
L 26.172719 41.271283 
L 26.321524 40.972072 
L 26.324906 40.990354 
L 26.33167 41.019037 
L 26.412837 40.869828 
L 26.480476 40.710189 
L 26.558261 40.776871 
L 26.649573 40.909969 
L 26.680011 40.8957 
L 26.81867 40.849507 
L 26.822052 40.862356 
L 26.903219 40.927403 
L 26.842344 40.834782 
L 26.930275 40.854854 
L 27.092608 40.642491 
L 27.180539 40.684343 
L 27.224504 40.640201 
L 27.319198 40.638093 
L 27.261705 40.708794 
L 27.332726 40.665113 
L 27.511969 40.680275 
L 27.518733 40.663334 
L 27.637101 40.597108 
L 27.691213 40.515977 
L 27.73856 40.572561 
L 27.863692 40.493287 
L 28.198504 40.243112 
L 28.306727 40.17496 
L 28.316873 40.212083 
L 28.59081 40.108959 
L 28.71256 40.055239 
L 28.719324 40.070988 
L 28.76329 40.127204 
L 28.797109 39.940902 
L 28.814019 39.959109 
L 28.98988 39.92861 
L 28.993262 39.952147 
L 29.071047 39.852745 
L 29.09472 39.883838 
L 29.635832 39.369472 
L 29.760964 39.204765 
L 29.656123 39.387334 
L 29.764346 39.211645 
L 29.828603 39.303106 
L 29.87595 39.209132 
L 30.170179 38.879294 
L 30.187089 38.889497 
L 30.193853 38.91064 
L 30.268256 38.735645 
L 30.302075 38.776638 
L 30.417061 38.591541 
L 30.420443 38.606179 
L 30.491464 38.427599 
L 30.498228 38.430647 
L 30.657179 37.074282 
L 30.674089 30.659445 
L 30.684235 26.843143 
L 30.758638 39.914276 
L 30.772166 39.821338 
L 30.924353 35.510237 
L 30.934499 27.795248 
L 31.012284 40.207182 
L 31.029194 39.975094 
L 31.157707 37.176994 
L 31.174617 29.264843 
L 31.177999 28.161475 
L 31.24902 40.128098 
L 31.255784 40.237668 
L 31.320041 39.078951 
L 31.40459 35.886295 
L 31.414735 28.389337 
L 31.489138 40.257478 
L 31.50943 40.002242 
L 31.637944 36.380275 
L 31.651472 28.35728 
L 31.725874 40.350994 
L 31.73602 40.240838 
L 31.867916 37.292714 
L 31.884826 31.440938 
L 31.89159 28.247908 
L 31.969375 40.510811 
L 31.982902 40.329858 
L 32.128326 36.86109 
L 32.145236 28.06445 
L 32.212875 40.301934 
L 32.223021 40.721265 
L 32.310951 39.267068 
L 32.405646 36.151253 
L 32.415792 27.907454 
L 32.50034 40.917298 
L 32.507104 40.849231 
L 32.666056 38.087621 
L 32.706639 35.493797 
L 32.716785 27.654158 
L 32.797951 41.089874 
L 32.811479 40.976398 
L 33.02116 37.489702 
L 33.03807 35.356536 
L 33.048215 27.5349 
L 33.129382 41.223645 
L 33.14291 41.101794 
L 33.322153 38.632652 
L 33.399938 36.653766 
L 33.413466 27.482766 
L 33.49125 41.248712 
L 33.494632 41.293229 
L 33.558889 40.684593 
L 33.812535 35.916022 
L 33.826063 27.518102 
L 33.90723 41.289126 
L 33.913994 41.253148 
L 34.042508 39.906489 
L 34.265716 36.000601 
L 34.279244 27.534868 
L 34.357029 41.247708 
L 34.367175 41.214785 
L 34.583619 38.975247 
L 34.749334 36.620305 
L 34.766244 27.588589 
L 34.833883 41.04453 
L 34.844029 41.24746 
L 34.928578 40.50734 
L 35.290446 36.789264 
L 35.310738 27.817767 
L 35.368231 40.047635 
L 35.38514 41.115907 
L 35.479835 40.29782 
L 35.865377 36.318397 
L 35.882286 28.025832 
L 35.953307 41.012353 
L 35.956689 41.047457 
L 36.017564 40.523952 
L 36.453835 35.291563 
L 36.467363 28.043802 
L 36.541766 41.026062 
L 36.555294 40.973965 
L 37.065968 35.481072 
L 37.079495 28.02612 
L 37.160662 41.09579 
L 37.164044 41.067908 
L 37.258739 40.236101 
L 37.586787 38.098509 
L 37.728829 38.029405 
L 37.738975 38.051346 
L 37.820142 38.155624 
L 37.853961 38.13618 
L 37.857343 38.126652 
L 37.924982 38.263293 
L 37.941892 38.251272 
L 37.979093 38.35628 
L 37.999385 38.337462 
L 38.138045 38.530955 
L 38.14819 38.526739 
L 38.452566 39.294501 
L 38.773851 40.342279 
L 38.885455 40.527455 
L 39.047788 40.968959 
L 39.054552 40.964937 
L 39.06808 40.930818 
L 39.139101 41.12459 
L 39.29467 41.546666 
L 39.31158 41.539582 
L 39.362309 41.645519 
L 39.379219 41.628786 
L 39.534788 41.929854 
L 39.541552 41.918271 
L 39.599045 42.049637 
L 39.602427 42.045322 
L 39.673448 42.084672 
L 39.71065 42.027858 
L 39.801962 42.020677 
L 39.764761 42.101038 
L 39.818872 42.038238 
L 40.048844 42.154393 
L 40.136775 42.228117 
L 40.160449 42.161081 
L 40.576428 42.130779 
L 40.765817 41.982031 
L 40.586574 42.142156 
L 40.779345 41.991493 
L 40.897713 42.138988 
L 40.931532 42.100109 
L 41.060046 41.967754 
L 41.073574 41.986387 
L 41.147977 41.952866 
L 41.161505 41.910792 
L 41.18856 41.885085 
L 41.235907 41.971563 
L 41.273109 41.922227 
L 41.361039 42.019121 
L 41.405005 41.972662 
L 41.482789 41.959276 
L 41.44897 42.007218 
L 41.516609 41.979998 
L 41.523373 41.991784 
L 41.584248 41.884192 
L 41.614685 41.927375 
L 41.733054 41.850791 
L 41.645123 41.944948 
L 41.736435 41.854598 
L 42.429734 41.889548 
L 42.43988 41.907741 
L 42.4737 41.825572 
L 42.521047 41.823151 
L 42.598832 41.868146 
L 42.629269 41.783579 
L 42.801749 41.591092 
L 42.80513 41.593691 
L 42.940408 41.709892 
L 42.950554 41.703608 
L 43.055395 41.709653 
L 43.008047 41.7845 
L 43.058776 41.722046 
L 43.085832 41.770203 
L 43.153471 41.671804 
L 43.160235 41.680925 
L 43.281985 41.674806 
L 43.35977 41.703467 
L 43.329332 41.636693 
L 43.390207 41.6706 
L 43.420645 41.638269 
L 43.454464 41.739716 
L 43.498429 41.685801 
L 43.522103 41.645601 
L 43.60327 41.649381 
L 43.657381 41.645916 
L 43.626943 41.677495 
L 43.704728 41.695256 
L 43.826478 41.759497 
L 43.911027 41.836637 
L 43.934701 41.783146 
L 43.938083 41.790598 
L 44.009103 41.695148 
L 44.015867 41.700456 
L 44.881646 41.525531 
L 45.000014 41.512085 
L 45.003396 41.525143 
L 45.033833 41.440017 
L 45.115 41.510655 
L 45.135291 41.505919 
L 45.169111 41.592462 
L 45.186021 41.597262 
L 45.301007 41.614915 
L 45.243514 41.52987 
L 45.307771 41.612015 
L 45.432903 41.475519 
L 45.561417 41.62698 
L 45.564799 41.605924 
L 45.649347 41.740424 
L 45.656111 41.723685 
L 45.730514 41.639297 
L 45.771097 41.748015 
L 45.855646 41.732296 
L 45.781243 41.721149 
L 45.87932 41.679697 
L 46.065327 41.488218 
L 46.078855 41.506902 
L 46.21075 41.497625 
L 46.099146 41.48144 
L 46.217514 41.483539 
L 46.302063 41.504203 
L 46.315591 41.542022 
L 46.396757 41.525967 
L 46.352792 41.485773 
L 46.413667 41.494267 
L 46.467778 41.581117 
L 46.437341 41.568193 
L 46.47116 41.588096 
L 46.565855 41.488504 
L 46.59291 41.471806 
L 46.62673 41.53735 
L 46.667313 41.532332 
L 46.795827 41.593649 
L 46.802591 41.579046 
L 46.914195 41.692992 
L 46.931105 41.728365 
L 46.988598 41.627638 
L 47.015654 41.63516 
L 47.49589 41.560434 
L 47.621022 41.435509 
L 47.874668 41.420803 
L 47.87805 41.402873 
L 47.888196 41.367391 
L 47.969362 41.496743 
L 47.972744 41.497244 
L 47.9998 41.4878 
L 48.114786 41.632298 
L 48.13846 41.666672 
L 48.2433 41.548182 
L 48.540911 41.619104 
L 48.554439 41.569323 
L 48.824995 41.524835 
L 48.835141 41.558362 
L 48.933217 41.524254 
L 48.865578 41.498028 
L 48.936599 41.50745 
L 48.960273 41.49347 
L 48.983946 41.55064 
L 49.048203 41.515771 
L 49.098933 41.575922 
L 49.169953 41.539536 
L 49.173335 41.53224 
L 49.224065 41.61984 
L 49.264648 41.595334 
L 49.349197 41.650069 
L 49.352579 41.661903 
L 49.447273 41.688223 
L 49.423599 41.634913 
L 49.464183 41.672445 
L 49.714447 41.564333 
L 49.477711 41.702463 
L 49.721211 41.585311 
L 49.724593 41.605359 
L 49.812523 41.481301 
L 49.819287 41.451862 
L 49.856489 41.543515 
L 49.924127 41.477725 
L 49.988384 41.557878 
L 50.039114 41.479002 
L 50.049259 41.470954 
L 50.096607 41.567377 
L 50.214975 41.611361 
L 50.116898 41.493624 
L 50.218357 41.604421 
L 50.329961 41.556112 
L 50.265704 41.64509 
L 50.343489 41.569282 
L 50.570079 41.483935 
L 50.573461 41.498952 
L 50.695211 41.554299 
L 50.769614 41.522947 
L 50.715503 41.5977 
L 50.800052 41.581684 
L 50.952239 41.671898 
L 50.996204 41.62266 
L 51.057079 41.496517 
L 51.117954 41.575435 
L 51.229559 41.60941 
L 51.16192 41.507747 
L 51.232941 41.596276 
L 51.368218 41.550177 
L 51.571135 41.618646 
L 51.621864 41.694313 
L 51.601573 41.598879 
L 51.682739 41.619494 
L 51.838309 41.717803 
L 51.845073 41.705875 
L 51.90933 41.59234 
L 51.966823 41.67732 
L 52.098719 41.675252 
L 52.115629 41.621367 
L 52.200177 41.733562 
L 52.220469 41.759989 
L 52.267816 41.656588 
L 52.305018 41.694264 
L 52.39633 41.640443 
L 52.426768 41.658338 
L 52.568809 41.76792 
L 52.575573 41.725423 
L 52.589101 41.707127 
L 52.666886 41.816904 
L 52.866421 42.10383 
L 52.873185 42.08058 
L 52.950969 42.204128 
L 52.954351 42.192768 
L 53.072719 42.213029 
L 52.964497 42.167701 
L 53.089629 42.185522 
L 53.187706 42.09151 
L 53.231671 42.129031 
L 53.465025 42.0222 
L 53.241817 42.139331 
L 53.471789 42.032793 
L 53.654414 42.115136 
L 53.66456 42.100424 
L 53.671324 42.034427 
L 53.725435 42.135969 
L 53.776164 42.075716 
L 53.989227 42.114218 
L 54.070394 42.167676 
L 54.006137 42.080891 
L 54.100831 42.119455 
L 54.165088 42.135142 
L 54.219199 42.049914 
L 54.296984 41.993479 
L 54.340949 42.039733 
L 54.462699 42.141026 
L 54.347713 42.032339 
L 54.479609 42.119456 
L 54.55063 42.030994 
L 54.554012 42.010502 
L 54.625033 42.106829 
L 54.65547 42.061717 
L 54.733255 42.118101 
L 54.682526 42.021892 
L 54.763693 42.075659 
L 54.767075 42.053834 
L 54.817804 42.142984 
L 54.871915 42.081143 
L 54.997047 42.173106 
L 55.02072 42.113291 
L 55.105269 42.065321 
L 55.07145 42.144462 
L 55.132325 42.105913 
L 55.747839 42.096563 
L 55.751221 42.124208 
L 55.839151 41.962006 
L 55.845915 41.994697 
L 55.933846 42.035862 
L 55.94061 42.061136 
L 55.950756 42.090429 
L 55.977811 42.026804 
L 56.038686 42.014437 
L 56.075888 41.971268 
L 56.140145 42.075455 
L 56.204402 42.138329 
L 56.251749 42.062639 
L 56.370117 41.954378 
L 56.376881 41.97329 
L 56.447902 42.101771 
L 56.518923 42.060895 
L 56.637291 42.008141 
L 56.80977 42.154163 
L 56.82668 42.103772 
L 56.928138 41.989958 
L 56.836826 42.109816 
L 56.94843 41.998334 
L 57.03636 41.937988 
L 56.958576 42.015702 
L 57.066798 41.977996 
L 57.151347 42.075643 
L 57.188548 42.00393 
L 57.215604 41.961955 
L 57.276479 42.067393 
L 57.293388 42.034733 
L 57.675548 42.060335 
L 57.69584 42.080307 
L 57.773625 42.003296 
L 57.898757 41.970679 
L 57.820972 42.051753 
L 57.902139 41.973709 
L 57.976542 42.005747 
L 57.919048 41.964292 
L 58.013743 41.96167 
L 58.149021 41.896663 
L 58.027271 41.969123 
L 58.155785 41.901481 
L 58.274153 42.032921 
L 58.297826 42.020012 
L 58.378993 42.002786 
L 58.402667 41.967755 
L 58.521035 41.853851 
L 58.537945 41.884456 
L 58.615729 41.99556 
L 58.663077 41.96787 
L 58.740861 41.938043 
L 58.707042 41.98622 
L 58.774681 41.973874 
L 58.838938 41.949445 
L 58.872757 42.020876 
L 58.896431 42.105367 
L 58.991125 42.092747 
L 59.166987 42.093528 
L 59.180514 42.053716 
L 59.295501 41.996609 
L 59.319174 42.046964 
L 59.349612 41.989139 
L 59.43416 42.061014 
L 59.549147 41.935847 
L 59.559292 41.949748 
L 59.701334 41.954446 
L 59.569438 41.917368 
L 59.71148 41.933514 
L 59.799411 41.876974 
L 59.823084 41.92914 
L 60.540057 41.487529 
L 60.631369 41.396397 
L 60.651661 41.46105 
L 60.726064 41.537718 
L 60.70239 41.435781 
L 60.770029 41.473775 
L 60.87487 41.285177 
L 60.908689 41.324373 
L 61.158953 41.171727 
L 61.172481 41.203696 
L 61.260411 41.268837 
L 61.209682 41.185188 
L 61.287467 41.231466 
L 61.419363 41.101837 
L 61.429509 41.145621 
L 61.436273 41.155899 
L 61.503912 41.03669 
L 61.507293 41.037161 
L 61.520821 41.01198 
L 61.558023 41.100918 
L 61.601988 41.104517 
L 61.716974 41.168796 
L 61.608752 41.092695 
L 61.733884 41.114558 
L 61.862398 40.965562 
L 61.86578 40.982763 
L 61.889453 41.001798 
L 61.946946 40.880967 
L 61.957092 40.892271 
L 62.119426 40.695826 
L 61.97062 40.899782 
L 62.122808 40.713332 
L 62.187065 40.811372 
L 62.241176 40.786581 
L 62.444093 40.635537 
L 62.450856 40.655956 
L 62.535405 40.607194 
L 62.545551 40.572761 
L 62.636864 40.466209 
L 62.663919 40.527546 
L 63.046079 40.295868 
L 63.076517 40.378436 
L 63.140774 40.440429 
L 63.093426 40.363281 
L 63.181357 40.356432 
L 63.276051 40.301011 
L 63.292961 40.354196 
L 63.350454 40.243395 
L 63.478968 40.033803 
L 63.485732 40.053915 
L 63.617628 39.961788 
L 63.62101 39.973042 
L 63.729232 40.007586 
L 63.63792 39.925715 
L 63.732614 39.989758 
L 63.834073 39.860884 
L 63.857746 39.902806 
L 64.013316 39.778362 
L 64.026843 39.799227 
L 64.0911 39.763512 
L 64.135066 39.825369 
L 64.260198 39.616116 
L 64.266962 39.644054 
L 64.324455 39.667158 
L 64.287253 39.614134 
L 64.354892 39.595367 
L 64.436059 39.527618 
L 64.469878 39.55646 
L 64.578101 39.641291 
L 64.483406 39.537714 
L 64.625448 39.557103 
L 64.686323 39.631789 
L 64.760726 39.52863 
L 64.764108 39.549294 
L 64.835129 39.432262 
L 64.865566 39.485305 
L 64.868948 39.490324 
L 64.926441 39.390701 
L 64.933205 39.40099 
L 65.088775 39.151859 
L 65.092157 39.164806 
L 65.169941 39.029928 
L 65.176705 39.062821 
L 65.650178 37.903234 
L 65.690761 37.177231 
L 65.707671 32.897936 
L 65.717817 26.808865 
L 65.795601 39.930259 
L 65.809129 39.835084 
L 65.957935 36.281625 
L 65.971463 27.803517 
L 66.045865 40.205333 
L 66.059393 40.060221 
L 66.201435 36.047112 
L 66.211581 28.276472 
L 66.289366 40.20602 
L 66.302893 40.03974 
L 66.438171 35.182209 
L 66.448317 28.403348 
L 66.52272 40.243386 
L 66.543011 39.936561 
L 66.668143 36.219315 
L 66.681671 28.43663 
L 66.756074 40.320974 
L 66.769602 40.161377 
L 66.908262 35.782229 
L 66.918408 28.29965 
L 66.99281 40.462374 
L 67.013102 40.234591 
L 67.155144 36.464779 
L 67.168672 28.088819 
L 67.246456 40.668364 
L 67.25322 40.620887 
L 67.40879 37.524875 
L 67.429081 32.861875 
L 67.435845 27.877457 
L 67.517012 40.870472 
L 67.53054 40.741058 
L 67.719929 35.185107 
L 67.730075 27.702251 
L 67.811241 41.038693 
L 67.824769 40.916913 
L 67.956665 38.862515 
L 68.03445 37.006124 
L 68.05136 27.552195 
L 68.118998 39.952599 
L 68.135908 41.197213 
L 68.227221 40.083031 
L 68.396318 36.826596 
L 68.413228 27.499711 
L 68.480867 40.607629 
L 68.494394 41.270768 
L 68.589089 40.263602 
L 68.79877 36.545937 
L 68.812297 27.461625 
L 68.890082 41.281474 
L 68.893464 41.311402 
L 68.947575 40.82714 
L 69.241805 36.500645 
L 69.255332 27.548814 
L 69.333117 41.242527 
L 69.339881 41.263633 
L 69.370319 41.015175 
L 69.732187 36.119014 
L 69.745715 27.588968 
L 69.823499 41.226894 
L 69.830263 41.191332 
L 69.874229 40.790781 
L 70.256388 36.257486 
L 70.273298 27.743788 
L 70.347701 41.147818 
L 70.351083 41.137078 
L 70.39843 40.750376 
L 70.81441 35.593994 
L 70.827937 27.863767 
L 70.905722 41.097685 
L 70.915868 41.03212 
L 70.953069 40.689436 
L 71.078201 39.486784 
L 71.2845 38.071121 
L 71.335229 37.897721 
L 71.456979 36.157371 
L 71.477271 28.536742 
L 71.54491 40.782079 
L 71.551674 40.803176 
L 71.592257 40.47287 
L 72.028528 35.077892 
L 72.042056 28.057221 
L 72.113077 41.027747 
L 72.129987 40.975999 
L 72.704918 37.543411 
L 72.995765 38.473802 
L 73.002529 38.470274 
L 73.009293 38.453081 
L 73.090459 38.551694 
L 73.097223 38.538296 
L 73.239265 38.702693 
L 73.164862 38.510626 
L 73.252793 38.675789 
L 74.382363 40.880776 
L 74.514259 41.175929 
L 74.517641 41.174023 
L 74.656301 41.548542 
L 74.659683 41.545183 
L 74.754377 41.749634 
L 74.784815 41.681274 
L 74.923474 41.830835 
L 74.937002 41.801344 
L 74.957294 41.873215 
L 75.028315 41.853739 
L 75.139919 41.991669 
L 75.058752 41.840794 
L 75.166975 41.976466 
L 75.261669 41.93349 
L 75.234613 42.039948 
L 75.278579 41.977196 
L 75.312398 42.020564 
L 75.295488 41.970562 
L 75.383419 41.960859 
L 75.403711 41.99787 
L 75.495023 41.943372 
L 75.57619 42.070731 
L 75.620155 42.039635 
L 75.694558 41.979288 
L 75.73176 42.004602 
L 75.839982 42.09989 
L 75.748669 42.000565 
L 75.850128 42.065597 
L 75.97526 42.033695 
L 75.860273 42.09188 
L 75.978642 42.046958 
L 76.042899 42.051932 
L 76.012461 42.021905 
L 76.073336 42.011916 
L 76.130829 41.891139 
L 76.188322 41.97315 
L 76.272871 42.047929 
L 76.310072 41.995939 
L 76.411531 41.992323 
L 76.435204 42.055393 
L 76.458878 42.064414 
L 76.529899 41.991417 
L 77.037191 41.615794 
L 77.054101 41.661313 
L 77.196142 41.816657 
L 77.246871 41.740383 
L 77.304365 41.840409 
L 77.307747 41.852501 
L 77.375385 41.775085 
L 77.405823 41.796032 
L 77.432879 41.76137 
L 77.490372 41.818217 
L 77.517427 41.782233 
L 77.635795 41.877191 
L 77.547865 41.752841 
L 77.672997 41.838053 
L 77.781219 41.735467 
L 77.801511 41.756096 
L 77.808275 41.783633 
L 77.899587 41.660309 
L 78.136323 41.891281 
L 78.153233 41.85488 
L 78.203962 41.819858 
L 78.159997 41.870579 
L 78.258073 41.878855 
L 78.329094 41.955344 
L 78.376442 41.933348 
L 78.548921 41.691182 
L 78.565831 41.731601 
L 78.589504 41.768924 
L 78.623324 41.685409 
L 78.674053 41.715471 
L 78.805949 41.78774 
L 78.809331 41.778888 
L 78.931081 41.675686 
L 78.937845 41.682047 
L 79.123852 41.545061 
L 79.144143 41.586018 
L 79.24222 41.676503 
L 79.272657 41.6655 
L 79.38088 41.525833 
L 79.292949 41.692575 
L 79.394407 41.565984 
L 79.421463 41.641676 
L 79.478956 41.537807 
L 79.50263 41.561644 
L 79.563505 41.530354 
L 79.597324 41.609855 
L 79.631144 41.663787 
L 79.661581 41.558661 
L 79.708928 41.605708 
L 79.813769 41.524566 
L 79.830678 41.530816 
L 79.864498 41.515862 
L 79.901699 41.608324 
L 79.905081 41.605957 
L 80.050505 41.761085 
L 80.209456 41.623178 
L 80.084324 41.779741 
L 80.222984 41.660803 
L 80.236512 41.681848 
L 80.290623 41.598167 
L 80.321061 41.603607 
L 80.33797 41.549733 
L 80.422519 41.639026 
L 80.449575 41.634745 
L 80.47663 41.550554 
L 80.496922 41.529344 
L 80.571325 41.613682 
L 80.605144 41.677417 
L 80.682929 41.625939 
L 80.828353 41.41502 
L 80.838498 41.410156 
L 80.956867 41.464525 
L 80.96363 41.449266 
L 81.034651 41.584514 
L 81.068471 41.636578 
L 81.122582 41.495608 
L 81.13611 41.515772 
L 81.203749 41.543129 
L 81.247714 41.481094 
L 81.575763 41.523636 
L 81.629874 41.637592 
L 81.694131 41.575725 
L 81.90043 41.460513 
L 81.724568 41.615871 
L 81.920721 41.516356 
L 81.941013 41.568383 
L 82.028944 41.519187 
L 82.035707 41.494195 
L 82.062763 41.576356 
L 82.133784 41.532221 
L 82.238624 41.628803 
L 82.262298 41.617262 
L 82.26568 41.627653 
L 82.346846 41.52542 
L 82.367138 41.519483 
L 82.377284 41.573393 
L 82.444923 41.574625 
L 82.488888 41.70124 
L 82.607256 41.900722 
L 82.641076 41.857192 
L 82.830465 41.739001 
L 82.833847 41.766621 
L 83.050291 41.669159 
L 83.053673 41.65341 
L 83.13484 41.798899 
L 83.144986 41.745487 
L 83.182187 41.71938 
L 83.263354 41.779793 
L 83.347903 41.66176 
L 83.398632 41.787077 
L 83.571111 42.229252 
L 83.577875 42.238782 
L 83.750354 42.191529 
L 83.753736 42.206369 
L 83.821375 42.144076 
L 83.855195 42.16152 
L 83.91607 42.128508 
L 83.960035 42.187089 
L 83.963417 42.183784 
L 83.990472 42.204437 
L 84.024292 42.150525 
L 84.075021 42.180517 
L 84.149424 42.047172 
L 84.200153 42.077611 
L 84.254264 42.064326 
L 84.227209 42.108598 
L 84.294848 42.13458 
L 84.36925 42.237814 
L 84.423361 42.198643 
L 84.531584 42.121613 
L 84.453799 42.220238 
L 84.551875 42.147443 
L 84.592459 42.148061 
L 84.62966 42.053182 
L 84.707445 41.98695 
L 84.741264 42.062902 
L 84.829195 42.115063 
L 84.754792 42.034972 
L 84.852869 42.069164 
L 84.917126 42.032884 
L 84.950945 42.113736 
L 84.954327 42.110161 
L 85.052404 42.171185 
L 85.076077 42.148274 
L 85.211355 41.955336 
L 85.231647 42.012033 
L 85.339869 42.130012 
L 85.353397 42.085487 
L 85.363543 42.104981 
L 85.468383 42.061866 
L 85.566459 42.113184 
L 85.485293 42.033525 
L 85.579987 42.05317 
L 85.681446 42.006335 
L 85.644244 42.087178 
L 85.691591 42.055487 
L 85.816723 42.014758 
L 85.701737 42.077148 
L 85.823487 42.020489 
L 85.945237 42.129861 
L 85.830251 42.01403 
L 85.962147 42.117974 
L 86.168446 42.0302 
L 86.171828 42.013624 
L 86.239467 42.102643 
L 86.273286 42.060756 
L 86.290196 42.094545 
L 86.364599 42.015812 
L 86.381508 42.036727 
L 86.499877 42.089527 
L 86.513404 42.080454 
L 86.655446 42.023661 
L 86.658828 42.028922 
L 86.699411 42.076773 
L 86.750141 41.949187 
L 86.760286 41.922143 
L 86.831307 42.045934 
L 86.844835 42.036102 
L 86.919238 41.99294 
L 86.966585 42.08862 
L 87.250669 42.022444 
L 86.986877 42.12657 
L 87.257432 42.051783 
L 87.260814 42.077713 
L 87.358891 41.986705 
L 87.51446 42.121512 
L 87.369037 41.962693 
L 87.54828 42.097962 
L 87.588863 42.07567 
L 87.599009 42.045338 
L 87.602391 42.000695 
L 87.642974 42.063356 
L 87.707231 42.044123 
L 88.691378 41.974273 
L 88.715051 41.935365 
L 88.796218 42.018625 
L 88.90444 41.985042 
L 88.931496 42.041672 
L 89.005899 42.129027 
L 88.945024 42.032876 
L 89.046482 42.042998 
L 89.103975 42.023689 
L 89.124267 42.120783 
L 89.195288 42.116319 
L 89.158086 42.063859 
L 89.212197 42.061209 
L 89.313656 42.009504 
L 89.323802 42.053612 
L 89.415114 42.170256 
L 89.448934 42.125377 
L 89.503045 42.126352 
L 89.475989 42.059846 
L 89.5301 42.05326 
L 89.648469 42.004203 
L 89.601121 42.085859 
L 89.658614 42.016729 
L 89.743163 42.090773 
L 89.675524 42.0045 
L 89.783746 42.052468 
L 89.908878 41.991814 
L 89.831094 42.093658 
L 89.91226 41.997253 
L 89.919024 42.013414 
L 89.976517 41.936156 
L 90.013719 41.952298 
L 90.08474 42.033204 
L 90.135469 42.020978 
L 90.20649 42.094375 
L 90.250455 42.133245 
L 90.304566 42.036477 
L 90.31133 42.068607 
L 90.43308 42.032498 
L 90.318094 42.085188 
L 90.439844 42.052497 
L 90.456754 42.076761 
L 90.514247 41.968517 
L 90.53792 41.988574 
L 90.67658 41.924438 
L 90.703636 41.971092 
L 90.754365 41.844659 
L 90.781421 41.869529 
L 90.842296 41.814907 
L 90.896407 41.845748 
L 90.906553 41.898323 
L 91.004629 41.842224 
L 91.062122 41.820398 
L 91.035066 41.855831 
L 91.068886 41.856655 
" clip-path="url(#p29afb11d79)" style="fill: none; stroke: #000000; stroke-width: 0.6; stroke-linecap: square"/>
   </g>
   <g id="line2d_3">
    <path d="M 9.905557 58.299402 
L 10.037453 57.037463 
L 10.274189 54.75849 
L 10.291099 44.332804 
L 10.36212 56.816185 
L 10.37903 58.288292 
L 10.473724 57.381368 
L 10.754426 54.584839 
L 10.767953 44.270568 
L 10.845738 57.983195 
L 10.855884 58.29404 
L 10.947196 57.445569 
L 11.24819 53.903503 
L 11.258336 44.279662 
L 11.346266 58.257293 
L 11.35303 58.207741 
L 11.73519 54.787915 
L 11.7521 44.297646 
L 11.823121 56.881747 
L 11.84003 58.234821 
L 11.934725 57.322284 
L 12.228954 54.210407 
L 12.2391 44.331018 
L 12.327031 58.248118 
L 12.330413 58.232946 
L 12.452163 57.091118 
L 12.722718 54.373094 
L 12.736246 44.275146 
L 12.820795 58.228265 
L 12.854614 57.949978 
L 13.226628 54.089994 
L 13.236774 44.274948 
L 13.324705 58.212462 
L 13.328087 58.205957 
L 13.730538 54.441171 
L 13.744066 44.256074 
L 13.825233 58.136499 
L 13.828615 58.194814 
L 13.899636 57.542209 
L 14.166809 55.898199 
L 14.170191 55.898555 
L 14.241212 55.183603 
L 14.258122 52.458924 
L 14.264886 44.33351 
L 14.352816 58.124671 
L 14.362962 58.044894 
L 14.633518 56.157477 
L 14.762032 54.970384 
L 14.77556 48.884303 
L 14.782324 44.273591 
L 14.866872 58.100769 
L 14.877018 58.051734 
L 15.184775 55.989165 
L 15.205067 55.842834 
L 15.269324 54.96167 
L 15.282852 48.914415 
L 15.289616 44.278146 
L 15.377546 58.133115 
L 15.38431 58.074095 
L 15.668393 56.102931 
L 15.695449 56.011407 
L 15.803671 53.543349 
L 15.813817 44.247016 
L 15.898366 58.080808 
L 15.908512 58.028146 
L 16.314345 53.945606 
L 16.324491 44.286698 
L 16.40904 58.090632 
L 16.415804 58.068092 
L 16.7912 55.722644 
L 16.841929 55.046555 
L 16.855457 52.417256 
L 16.865602 44.313935 
L 16.950151 58.035918 
L 16.960297 57.946739 
L 17.257908 56.1052 
L 17.264672 56.114839 
L 17.440533 58.641505 
L 17.491263 58.911521 
L 17.734763 60.149258 
L 17.741527 60.139241 
L 17.788874 60.314468 
L 17.947825 60.761114 
L 17.951207 60.738261 
L 18.752729 61.050405 
L 18.75611 61.034909 
L 18.786548 60.949655 
L 18.871097 61.007389 
L 19.324277 61.031502 
L 19.371625 61.052853 
L 19.412208 60.965584 
L 19.435882 61.036234 
L 19.547486 61.04006 
L 19.489993 61.085737 
L 19.55425 61.052062 
L 19.584687 61.070246 
L 19.628653 60.961471 
L 19.645562 60.985391 
L 19.811278 60.920335 
L 19.818042 60.933599 
L 19.929646 61.039349 
L 19.939792 61.016459 
L 20.061542 60.959807 
L 19.976993 61.053631 
L 20.068306 60.970581 
L 20.132563 60.933685 
L 20.206965 61.047929 
L 20.220493 61.06987 
L 20.426792 61.011211 
L 20.535014 61.025136 
L 20.453847 60.952892 
L 20.538396 61.014435 
L 20.565452 61.049164 
L 20.65 61.006185 
L 20.660146 61.024301 
L 20.741313 60.932787 
L 20.748077 60.937958 
L 20.954376 61.060402 
L 20.974667 60.976043 
L 21.03216 60.926676 
L 20.988195 60.993484 
L 21.08289 60.975153 
L 21.113327 61.012159 
L 21.164056 60.918975 
L 21.191112 60.971227 
L 21.238459 60.920105 
L 21.29257 60.993333 
L 21.299334 60.973858 
L 21.339917 61.046682 
L 21.421084 60.983518 
L 21.519161 60.945884 
L 21.53607 60.972077 
L 21.613855 60.978353 
L 21.593563 60.922727 
L 21.637529 60.925225 
L 21.661202 60.878337 
L 21.69164 61.014317 
L 21.718695 60.999493 
L 21.725459 61.03432 
L 21.759279 60.93191 
L 21.823536 60.978797 
L 21.914848 60.914435 
L 21.837064 61.003292 
L 21.948668 60.972816 
L 21.992633 60.982019 
L 22.009543 60.919814 
L 22.036598 60.92821 
L 22.053508 60.869986 
L 22.124529 60.953081 
L 22.148203 60.902699 
L 22.307154 61.001447 
L 22.171876 60.873948 
L 22.310536 60.996097 
L 22.368029 61.031906 
L 22.425522 60.963551 
L 22.641967 60.97121 
L 22.729897 60.939713 
L 22.655495 60.976681 
L 22.750189 60.975852 
L 22.844884 61.033856 
L 22.760335 60.971193 
L 22.868557 61.015395 
L 22.973397 60.922677 
L 22.986925 60.935915 
L 23.122203 60.981265 
L 23.125585 60.978222 
L 23.284537 60.929849 
L 23.132349 60.98721 
L 23.287918 60.956712 
L 23.352175 60.905443 
L 23.402905 60.980455 
L 23.467162 60.896057 
L 23.521273 60.965269 
L 23.56862 61.029228 
L 23.615967 60.94886 
L 23.629495 60.955375 
L 23.727571 60.886708 
L 23.758009 60.915201 
L 23.808738 61.020445 
L 23.869613 60.96397 
L 23.981217 60.914834 
L 23.984599 60.935043 
L 24.102968 60.960477 
L 24.109731 60.949684 
L 24.19428 60.875054 
L 24.146933 60.985119 
L 24.2281 60.927815 
L 24.319412 60.912327 
L 24.288975 60.846038 
L 24.329558 60.887953 
L 24.434398 60.793804 
L 24.336322 60.900082 
L 24.45469 60.838058 
L 24.535857 60.773865 
L 24.57644 60.852794 
L 24.701572 60.8117 
L 24.779357 60.886783 
L 24.813176 60.836639 
L 24.918017 60.77958 
L 24.857142 60.890469 
L 24.928162 60.803886 
L 25.23592 60.689647 
L 25.290031 60.634348 
L 25.333996 60.7225 
L 25.344142 60.700685 
L 25.46251 60.713514 
L 25.570732 60.645718 
L 25.591024 60.65878 
L 25.895399 60.654987 
L 25.902163 60.629865 
L 26.22683 60.470125 
L 26.236976 60.499487 
L 26.480476 60.490686 
L 26.483858 60.468887 
L 26.490622 60.456138 
L 26.537969 60.601332 
L 26.558261 60.562466 
L 26.561642 60.567509 
L 26.615754 60.467848 
L 26.632663 60.4877 
L 26.754413 60.319835 
L 26.761177 60.347998 
L 26.85249 60.350627 
L 26.784851 60.328334 
L 26.8694 60.325395 
L 27.018205 60.222314 
L 26.882927 60.353713 
L 27.028351 60.24135 
L 27.065552 60.338765 
L 27.143337 60.301471 
L 27.254941 60.248788 
L 27.180539 60.330104 
L 27.265087 60.262929 
L 27.623574 60.317189 
L 27.630338 60.272722 
L 27.725032 60.172679 
L 27.758851 60.188193 
L 27.809581 60.271686 
L 27.870456 60.185345 
L 27.87722 60.222978 
L 27.955004 60.121201 
L 27.975296 60.156019 
L 28.026025 60.124667 
L 28.036171 60.057955 
L 28.090282 59.895621 
L 28.157921 60.007805 
L 28.316873 59.893575 
L 28.320255 59.912199 
L 28.428477 59.926328 
L 28.357456 59.886347 
L 28.431859 59.912404 
L 28.536699 59.839355 
L 28.48597 59.949815 
L 28.560373 59.85435 
L 28.675359 59.873228 
L 28.580664 59.833681 
L 28.678741 59.871047 
L 28.695651 59.873702 
L 28.739616 59.779939 
L 28.854602 59.714879 
L 28.770053 59.852088 
L 28.86813 59.735848 
L 28.959442 59.758628 
L 28.908713 59.682139 
L 28.979734 59.753037 
L 29.162359 59.597738 
L 29.175887 59.680763 
L 29.182651 59.699966 
L 29.229998 59.601349 
L 29.260436 59.61165 
L 29.382186 59.518308 
L 29.385568 59.529535 
L 29.436297 59.576258 
L 29.503936 59.556346 
L 29.618922 59.453512 
L 29.757582 59.38248 
L 29.77111 59.412816 
L 29.774491 59.416661 
L 29.818457 59.311383 
L 29.825221 59.319871 
L 29.903005 59.183518 
L 29.950353 59.279905 
L 29.970644 59.301562 
L 30.007846 59.223956 
L 30.051811 59.243491 
L 30.173561 59.127257 
L 30.183707 59.163358 
L 30.247964 59.156454 
L 30.22429 59.096277 
L 30.288547 59.126373 
L 30.511756 59.131844 
L 30.535429 59.209628 
L 30.62336 59.150602 
L 30.839805 59.043242 
L 31.002138 58.796294 
L 31.215201 58.845958 
L 31.313277 58.726406 
L 31.336951 58.752046 
L 31.340333 58.769493 
L 31.401208 58.66922 
L 31.435027 58.676522 
L 31.627798 58.536119 
L 31.729256 58.640163 
L 31.749548 58.633535 
L 31.823951 58.510864 
L 31.871298 58.532319 
L 31.945701 58.506192 
L 31.884826 58.546327 
L 31.982902 58.544084 
L 32.493576 58.377915 
L 32.503722 58.420947 
L 32.567979 58.330022 
L 32.60518 58.378708 
L 32.720167 58.453247 
L 32.737076 58.424162 
L 32.808097 58.48551 
L 32.855445 58.394019 
L 32.970431 58.310008 
L 32.889264 58.408696 
L 32.98734 58.351568 
L 33.085417 58.399715 
L 33.098945 58.358082 
L 33.203785 58.353873 
L 33.153056 58.438912 
L 33.207167 58.36239 
L 33.234223 58.419904 
L 33.284952 58.321855 
L 33.315389 58.361502 
L 33.494632 58.143581 
L 33.514924 58.175533 
L 33.582563 58.087807 
L 33.62991 58.168878 
L 33.775334 57.95887 
L 33.78548 57.974025 
L 34.110147 57.921075 
L 34.184549 57.830934 
L 34.231897 57.870661 
L 34.329973 57.899155 
L 34.360411 57.846113 
L 34.465251 57.703295 
L 34.488925 57.750263 
L 34.570091 57.770763 
L 34.587001 57.68868 
L 34.77639 57.603268 
L 34.593765 57.70495 
L 34.796682 57.649827 
L 34.925196 57.726067 
L 34.813591 57.639473 
L 34.928578 57.708304 
L 35.033418 57.611813 
L 35.239717 57.427782 
L 35.246481 57.453365 
L 35.669224 57.395056 
L 35.672606 57.406643 
L 35.797738 57.513938 
L 35.804502 57.486345 
L 35.841703 57.48712 
L 35.872141 57.561329 
L 35.882286 57.559827 
L 35.990509 57.579539 
L 35.929634 57.540349 
L 35.997273 57.564388 
L 36.088585 57.560603 
L 36.02771 57.534499 
L 36.105495 57.538402 
L 36.257682 57.34568 
L 36.264446 57.356115 
L 36.277974 57.413661 
L 36.365905 57.300998 
L 36.399724 57.335075 
L 36.487655 57.26339 
L 36.518092 57.249469 
L 36.609405 57.36124 
L 36.758211 57.22146 
L 36.67028 57.4073 
L 36.761592 57.222447 
L 36.856287 57.111704 
L 36.907016 57.143481 
L 36.957745 57.192688 
L 37.005093 57.113318 
L 37.01862 57.146866 
L 37.120079 57.05642 
L 37.133607 57.096746 
L 37.170808 57.078421 
L 37.1911 57.150389 
L 37.238447 57.12871 
L 37.285794 57.104079 
L 37.306086 57.034824 
L 37.309468 57.040341 
L 37.495475 57.090668 
L 37.498857 57.108801 
L 37.580023 57.117882 
L 37.55635 57.054507 
L 37.596933 57.059176 
L 37.715301 56.90638 
L 37.725447 56.934894 
L 37.93851 56.596341 
L 37.941892 56.615999 
L 38.02644 56.631854 
L 38.036586 56.586143 
L 38.046732 56.591534 
L 38.202302 56.274299 
L 38.263177 56.192415 
L 38.398454 54.678959 
L 38.415364 43.82936 
L 38.503295 55.377554 
L 38.520205 55.971151 
L 38.611517 55.427265 
L 38.665628 54.530889 
L 38.68592 46.75933 
L 38.753559 56.023541 
L 38.760323 56.073597 
L 38.831344 55.560588 
L 38.895601 53.968161 
L 38.909128 46.613218 
L 38.983531 56.337713 
L 38.997059 56.229416 
L 39.118809 54.413792 
L 39.135719 46.244483 
L 39.210122 56.712668 
L 39.348781 54.990457 
L 39.365691 51.808804 
L 39.372455 45.696644 
L 39.45024 57.179725 
L 39.470531 56.971733 
L 39.626101 53.825397 
L 39.636247 45.195269 
L 39.717414 57.588505 
L 39.730941 57.476491 
L 39.916948 53.875134 
L 39.927094 44.865627 
L 40.011643 57.918096 
L 40.021789 57.864294 
L 40.238233 54.331136 
L 40.248379 44.717118 
L 40.33631 58.112862 
L 40.339692 58.141105 
L 40.387039 57.625466 
L 40.589956 54.714963 
L 40.603483 44.542659 
L 40.681268 57.139391 
L 40.694796 58.250183 
L 40.789491 57.222844 
L 40.921386 55.869331 
L 40.968734 53.933631 
L 40.97888 44.466556 
L 41.070192 58.347908 
L 41.073574 58.332503 
L 41.367803 54.554825 
L 41.381331 44.422885 
L 41.462498 58.158017 
L 41.472644 58.356124 
L 41.557192 57.471629 
L 41.736435 55.849885 
L 41.790547 54.054464 
L 41.800692 44.360108 
L 41.892005 58.369639 
L 42.21329 55.149656 
L 42.226818 52.860733 
L 42.233582 44.371603 
L 42.324894 58.365456 
L 42.331658 58.340961 
L 42.676617 53.369036 
L 42.686762 44.347438 
L 42.774693 58.366961 
L 42.781457 58.325254 
L 43.143325 53.390783 
L 43.153471 44.336606 
L 43.241402 58.325615 
L 43.248165 58.281827 
L 43.599888 54.732144 
L 43.613416 44.365273 
L 43.687818 56.891445 
L 43.704728 58.321688 
L 43.799423 57.409749 
L 44.080124 53.388008 
L 44.09027 44.304665 
L 44.178201 58.311593 
L 44.184965 58.272388 
L 44.553597 55.034164 
L 44.567125 50.319107 
L 44.573888 44.290169 
L 44.661819 58.274191 
L 44.671965 58.18455 
L 45.043979 54.740194 
L 45.060889 44.322835 
L 45.13191 56.949205 
L 45.145437 58.258783 
L 45.243514 57.337726 
L 45.534361 54.979663 
L 45.547889 48.031353 
L 45.554653 44.310043 
L 45.642583 58.237055 
L 45.649347 58.200154 
L 45.899611 56.228656 
L 46.014598 55.437767 
L 46.038271 53.670427 
L 46.048417 44.246409 
L 46.136348 58.238207 
L 46.143111 58.193969 
L 46.532035 53.566416 
L 46.542181 44.274521 
L 46.630112 58.231034 
L 46.636876 58.184724 
L 46.944633 55.968548 
L 47.025799 54.830962 
L 47.042709 44.253104 
L 47.11373 56.44223 
L 47.13064 58.19907 
L 47.225334 57.319447 
L 47.546619 54.48829 
L 47.560147 44.246525 
L 47.641314 58.105864 
L 47.648078 58.162611 
L 47.708953 57.564309 
L 48.043765 53.99513 
L 48.053911 44.273868 
L 48.141842 58.168794 
L 48.145224 58.150715 
L 48.551057 55.27126 
L 48.571349 52.260377 
L 48.578113 44.285511 
L 48.666043 58.117699 
L 48.676189 58.042785 
L 49.075259 54.067055 
L 49.085405 44.288058 
L 49.173335 58.132568 
L 49.176717 58.125313 
L 49.575787 54.847413 
L 49.592697 44.232335 
L 49.663718 56.367801 
L 49.680627 58.148723 
L 49.775322 57.2696 
L 49.991766 56.011373 
L 50.022204 55.906865 
L 50.093225 54.844501 
L 50.110134 44.231331 
L 50.181155 56.459775 
L 50.194683 58.128162 
L 50.29276 57.240308 
L 50.610663 54.366871 
L 50.62419 44.248793 
L 50.708739 58.140651 
L 50.742558 57.835675 
L 51.077371 55.876671 
L 51.151774 55.313502 
L 51.172066 53.526549 
L 51.182211 44.232689 
L 51.270142 57.995578 
L 51.276906 57.939358 
L 51.672594 53.696969 
L 51.682739 44.253112 
L 51.77067 58.08922 
L 51.777434 58.051529 
L 52.041226 56.171637 
L 52.108865 55.989452 
L 52.227233 54.416093 
L 52.240761 44.224104 
L 52.321927 57.974359 
L 52.325309 57.983632 
L 52.352365 57.748297 
L 52.585719 56.208556 
L 52.629684 56.067766 
L 52.643212 56.466714 
L 52.785254 58.57461 
L 53.458261 60.881012 
L 53.481935 60.870324 
L 53.583393 60.845018 
L 53.519136 60.907313 
L 53.593539 60.863592 
L 53.711907 61.032567 
L 53.732199 60.964043 
L 53.762636 60.902447 
L 53.749109 60.974367 
L 53.843803 60.92543 
L 53.90806 61.003703 
L 53.958789 60.979147 
L 54.148178 60.927133 
L 54.15156 60.923396 
L 54.181998 60.997953 
L 54.205671 61.017998 
L 54.293602 61.050895 
L 54.212435 60.998492 
L 54.32404 61.022827 
L 54.466081 60.995913 
L 54.469463 61.006881 
L 54.577686 61.045485 
L 54.587831 61.022317 
L 54.645324 60.94503 
L 54.706199 60.969303 
L 54.770456 60.929561 
L 54.821186 60.987715 
L 55.091741 60.960221 
L 55.1932 60.95519 
L 55.179672 61.031234 
L 55.203346 60.967689 
L 55.31495 61.054268 
L 55.227019 60.934806 
L 55.335241 61.031665 
L 55.426554 61.002364 
L 55.460373 61.023756 
L 55.534776 61.050227 
L 55.55845 60.979679 
L 55.649762 60.948435 
L 55.585506 60.991048 
L 55.673436 60.971649 
L 55.812096 61.008418 
L 55.815478 60.997831 
L 55.947374 60.960536 
L 56.04545 60.924854 
L 56.008249 60.970244 
L 56.055596 60.972957 
L 56.238221 61.010102 
L 56.30586 61.063544 
L 56.255131 60.997331 
L 56.353207 60.993877 
L 56.430992 60.954129 
L 56.366735 61.001544 
L 56.468193 60.986444 
L 56.667728 60.986459 
L 56.735367 61.073242 
L 56.779333 60.99587 
L 57.232513 60.97074 
L 57.340736 60.91854 
L 57.3475 60.922658 
L 57.46925 60.88829 
L 57.377937 60.947598 
L 57.476013 60.898008 
L 57.54027 61.005213 
L 57.594382 60.923475 
L 57.773625 60.998279 
L 57.92243 60.986484 
L 57.935958 61.03971 
L 57.97316 60.962221 
L 58.030653 60.968938 
L 58.135493 60.903645 
L 58.138875 60.876366 
L 58.196368 60.860119 
L 58.223424 60.94545 
L 58.260625 61.015937 
L 58.233569 60.938383 
L 58.33841 60.96761 
L 58.473688 60.908517 
L 58.761153 60.936517 
L 58.764535 60.922533 
L 58.801736 60.986824 
L 58.862611 60.983872 
L 58.879521 61.021713 
L 58.937014 60.889897 
L 58.94716 60.911599 
L 58.994507 60.905585 
L 59.004653 60.955941 
L 59.052 60.946438 
L 59.214334 60.980513 
L 59.221098 60.965819 
L 59.322556 60.872655 
L 59.342848 60.886066 
L 59.36314 60.855723 
L 59.420633 60.941777 
L 59.45107 60.902885 
L 59.542383 60.918203 
L 59.518709 60.878174 
L 59.55591 60.873115 
L 59.748681 60.855472 
L 59.755445 60.878907 
L 59.819702 60.930204 
L 59.762209 60.876838 
L 59.870431 60.885587 
L 61.375398 60.643091 
L 61.402453 60.689418 
L 61.473474 60.565694 
L 61.476856 60.566739 
L 61.595224 60.503533 
L 61.598606 60.514728 
L 61.666245 60.424404 
L 61.71021 60.518133 
L 61.852252 60.37556 
L 61.730502 60.550542 
L 61.855634 60.385036 
L 61.95371 60.336736 
L 61.869162 60.41516 
L 61.990912 60.368178 
L 62.007822 60.432412 
L 62.065315 60.317263 
L 62.099134 60.344433 
L 62.166773 60.386934 
L 62.136335 60.331819 
L 62.21412 60.359871 
L 62.295287 60.320628 
L 62.339252 60.367765 
L 62.437329 60.394229 
L 62.420419 60.340109 
L 62.447475 60.350508 
L 62.623336 60.18167 
L 62.816107 60.256489 
L 62.633482 60.151396 
L 62.822871 60.24159 
L 62.893891 60.104229 
L 62.971676 60.13899 
L 62.998732 60.11486 
L 63.090044 60.131019 
L 63.191503 60.069271 
L 63.106954 60.145678 
L 63.20503 60.13033 
L 63.248996 60.154668 
L 63.306489 60.07775 
L 63.384274 59.966778 
L 63.431621 60.012364 
L 63.661593 59.941694 
L 63.441767 60.046614 
L 63.664975 59.955127 
L 63.712322 60.020994 
L 63.773197 59.949352 
L 63.86451 59.830578 
L 63.905093 59.850213 
L 64.074191 59.850142 
L 64.077573 59.841917 
L 64.185795 59.804325 
L 64.145212 59.865814 
L 64.192559 59.826169 
L 64.26358 59.786513 
L 64.239906 59.756136 
L 64.277107 59.764634 
L 64.294017 59.772079 
L 64.419149 59.689517 
L 64.513844 59.779899 
L 64.537517 59.731419 
L 64.588247 59.595853 
L 64.743816 59.447488 
L 64.747198 59.451708 
L 64.97717 59.250644 
L 64.753962 59.475614 
L 65.01099 59.313091 
L 65.119212 59.363411 
L 65.024518 59.303383 
L 65.125976 59.338572 
L 65.169941 59.26539 
L 65.240962 59.327706 
L 65.342421 59.36537 
L 65.274782 59.301148 
L 65.355948 59.342742 
L 65.467553 59.294493 
L 65.39315 59.366964 
L 65.484462 59.308539 
L 65.5149 59.345337 
L 65.545337 59.274181 
L 65.575775 59.268436 
L 65.667087 59.126121 
L 65.697525 59.15765 
L 66.03572 58.899985 
L 66.045865 58.916111 
L 66.099977 58.986688 
L 66.137178 58.889955 
L 66.154088 58.889987 
L 66.231872 58.876333 
L 66.204817 58.796215 
L 66.255546 58.846445 
L 66.434789 58.867767 
L 66.438171 58.845894 
L 66.465227 58.782156 
L 66.546393 58.850061 
L 66.654616 58.926343 
L 66.664762 58.901879 
L 66.793276 58.742856 
L 66.857532 58.745766 
L 66.800039 58.727999 
L 66.884588 58.689771 
L 67.006338 58.614231 
L 66.898116 58.698178 
L 67.013102 58.620431 
L 67.199109 58.719903 
L 67.209255 58.711738 
L 67.347915 58.596549 
L 67.456137 58.580587 
L 67.466283 58.548199 
L 67.61847 58.462557 
L 67.703019 58.474886 
L 67.726693 58.399068 
L 67.797714 58.383494 
L 67.821387 58.428699 
L 67.882262 58.559 
L 67.946519 58.542281 
L 68.112235 58.458703 
L 68.213693 58.365354 
L 68.29486 58.317835 
L 68.321915 58.377312 
L 68.396318 58.440704 
L 68.453811 58.416864 
L 68.758186 58.187703 
L 68.76495 58.225942 
L 68.978013 58.323527 
L 68.775096 58.197166 
L 68.984777 58.305832 
L 69.011832 58.368981 
L 69.191075 58.148612 
L 69.316207 58.202135 
L 69.434576 58.069155 
L 69.437957 58.072205 
L 69.515742 58.095957 
L 69.468395 58.035573 
L 69.539416 58.043379 
L 69.56309 58.068635 
L 69.698367 57.924037 
L 69.813354 57.885067 
L 69.816735 57.870634 
L 69.938486 57.798201 
L 69.962159 57.812334 
L 70.036562 57.869592 
L 69.972305 57.80176 
L 70.090673 57.819874 
L 70.181986 57.772057 
L 70.117729 57.877787 
L 70.202277 57.831508 
L 70.205659 57.853274 
L 70.283444 57.707515 
L 70.303736 57.772671 
L 70.354465 57.782881 
L 70.337555 57.837201 
L 70.395048 57.820115 
L 70.425486 57.882283 
L 70.489743 57.762688 
L 70.496507 57.76645 
L 70.679132 57.543748 
L 70.682514 57.566073 
L 70.76368 57.578867 
L 70.733243 57.500154 
L 70.787354 57.536206 
L 71.068056 57.467391 
L 71.125549 57.562904 
L 71.183042 57.449944 
L 71.341993 57.566324 
L 71.365667 57.520247 
L 71.504327 57.566606 
L 71.551674 57.597275 
L 71.599021 57.519406 
L 71.605785 57.525316 
L 71.663278 57.489017 
L 71.626077 57.543567 
L 71.717389 57.514367 
L 71.903396 57.472786 
L 72.035292 57.336915 
L 72.038674 57.34414 
L 72.099549 57.227767 
L 72.106313 57.230976 
L 72.403924 57.248684 
L 72.461417 57.18455 
L 72.518911 57.22297 
L 72.522293 57.252602 
L 72.576404 57.188019 
L 72.627133 57.194357 
L 72.769175 57.108744 
L 72.833432 57.113248 
L 72.79623 57.039326 
L 72.874015 57.07624 
L 72.928126 57.13056 
L 72.995765 57.054823 
L 73.022821 57.096385 
L 73.087078 56.966434 
L 73.090459 56.970252 
L 73.114133 56.914872 
L 73.147953 57.004385 
L 73.205446 56.973051 
L 73.320432 57.052836 
L 73.330578 57.031984 
L 73.367779 57.063557 
L 73.344105 56.968545 
L 73.408362 56.968852 
L 73.54364 56.807546 
L 73.692446 56.821525 
L 73.702592 56.807518 
L 73.841252 56.590952 
L 73.722883 56.824833 
L 73.848015 56.607631 
L 73.902127 56.583387 
L 73.868307 56.545308 
L 73.9258 56.537982 
L 74.054314 56.315576 
L 74.084752 56.323757 
L 74.230175 55.558259 
L 74.257231 54.285055 
L 74.270759 43.808884 
L 74.362071 55.686134 
L 74.372217 55.978844 
L 74.466912 55.446133 
L 74.524405 54.229045 
L 74.541314 46.789498 
L 74.615717 56.096524 
L 74.622481 56.064078 
L 74.750995 53.973168 
L 74.764523 46.597094 
L 74.835544 56.338995 
L 74.852454 56.232117 
L 74.96744 54.800154 
L 74.984349 49.558808 
L 74.991113 46.2405 
L 75.065516 56.72018 
L 75.085808 56.517703 
L 75.217704 53.701932 
L 75.22785 45.672509 
L 75.305634 57.181893 
L 75.322544 57.01452 
L 75.478114 54.308954 
L 75.491641 45.226199 
L 75.572808 57.607172 
L 75.57619 57.589281 
L 75.738523 55.6462 
L 75.772343 54.207594 
L 75.782489 44.866433 
L 75.870419 57.926115 
L 75.873801 57.925692 
L 76.042899 55.959625 
L 76.09701 54.6516 
L 76.110538 44.654954 
L 76.188322 57.395809 
L 76.20185 58.124063 
L 76.296545 57.050953 
L 76.452114 54.077151 
L 76.46226 44.524954 
L 76.553572 58.284287 
L 76.820746 55.213434 
L 76.834274 53.776049 
L 76.84442 44.46665 
L 76.935732 58.317672 
L 76.939114 58.301031 
L 77.091302 56.736173 
L 77.233344 54.434039 
L 77.246871 44.445645 
L 77.33142 58.322227 
L 77.338184 58.351405 
L 77.378767 57.928152 
L 77.652705 54.695362 
L 77.666233 44.35164 
L 77.744018 57.622712 
L 77.757545 58.368395 
L 77.85224 57.415941 
L 78.092358 54.737662 
L 78.105886 44.359451 
L 78.180289 56.402293 
L 78.197198 58.36753 
L 78.291893 57.419275 
L 78.548921 53.966216 
L 78.559067 44.305321 
L 78.650379 58.34972 
L 78.653761 58.31494 
L 78.995338 55.09777 
L 79.008865 52.114219 
L 79.015629 44.291668 
L 79.106942 58.372186 
L 79.113706 58.308815 
L 79.428227 55.838164 
L 79.48572 54.341443 
L 79.499248 44.333951 
L 79.583796 58.290182 
L 79.587178 58.293249 
L 79.600706 58.179124 
L 79.965956 53.664503 
L 79.976102 44.286145 
L 80.060651 58.272067 
L 80.070797 58.23895 
L 80.449575 53.66721 
L 80.45972 44.280514 
L 80.547651 58.268666 
L 80.554415 58.212911 
L 80.605144 57.713283 
L 80.943339 54.099352 
L 80.953485 44.297809 
L 81.041415 58.231263 
L 81.044797 58.218711 
L 81.193603 56.880302 
L 81.430339 54.468283 
L 81.443867 44.299558 
L 81.525034 58.163333 
L 81.528415 58.211271 
L 81.596054 57.598556 
L 81.846318 55.990915 
L 81.8497 55.992332 
L 81.859846 55.894988 
L 81.934249 54.512953 
L 81.947777 44.26108 
L 82.025562 57.96807 
L 82.032325 58.165744 
L 82.120256 57.378865 
L 82.377284 55.815653 
L 82.434777 54.670914 
L 82.451687 44.329 
L 82.522708 57.276365 
L 82.536235 58.181614 
L 82.63093 57.291701 
L 82.85752 55.902509 
L 82.864284 55.897879 
L 82.877812 55.813757 
L 82.948833 54.464685 
L 82.962361 44.279784 
L 83.043527 58.067781 
L 83.046909 58.117211 
L 83.111166 57.505903 
L 83.371576 55.995271 
L 83.374958 56.027273 
L 83.517 58.348766 
L 83.831521 59.993704 
L 84.061493 60.783157 
L 84.071639 60.757885 
L 84.271174 61.013526 
L 84.406452 60.880368 
L 84.521438 60.956882 
L 84.534966 60.949972 
L 84.548494 60.91843 
L 84.633042 61.011178 
L 84.636424 61.008462 
L 84.761556 60.883234 
L 84.775084 60.930226 
L 84.849487 61.038864 
L 84.896834 61.029453 
L 85.04564 60.972978 
L 84.927271 61.06513 
L 85.059167 61.000884 
L 85.062549 61.010915 
L 85.147098 60.923567 
L 85.228265 60.911315 
L 85.245174 60.977885 
L 85.248556 60.974466 
L 85.356779 60.989547 
L 85.363543 60.950093 
L 85.37707 60.911857 
L 85.434563 60.975629 
L 85.471765 60.969437 
L 85.610425 61.042004 
L 85.613807 61.030758 
L 85.681446 60.972719 
L 85.715265 61.050878 
L 85.725411 61.033722 
L 85.728793 61.038534 
L 85.75923 60.972583 
L 85.799814 60.956529 
L 85.877598 60.933304 
L 85.901272 60.991227 
L 85.908036 60.969866 
L 86.070369 60.995373 
L 85.9148 60.948662 
L 86.090661 60.96067 
L 86.104189 60.946594 
L 86.168446 61.037951 
L 86.185356 61.026016 
L 86.415328 61.062302 
L 86.422092 61.002253 
L 86.675738 60.971804 
L 86.67912 60.983343 
L 86.777196 61.029866 
L 86.794106 60.988525 
L 86.915856 60.970883 
L 86.827925 61.038199 
L 86.932766 61.005302 
L 87.017314 61.030301 
L 87.037606 60.974062 
L 87.040988 60.982922 
L 87.122155 61.037804 
L 87.169502 60.939482 
L 87.176266 60.911175 
L 87.226995 61.013772 
L 87.274342 60.971185 
L 87.382564 60.992038 
L 87.28787 60.946323 
L 87.389328 60.989898 
L 87.544898 60.908737 
L 87.741051 61.021991 
L 87.822218 60.952521 
L 87.747815 61.028354 
L 87.866183 60.966575 
L 87.987933 60.973303 
L 88.001461 60.960738 
L 88.086009 60.943781 
L 88.031898 60.999542 
L 88.106301 60.982996 
L 88.204377 61.001323 
L 88.133357 60.971218 
L 88.221287 60.983557 
L 88.332891 60.939747 
L 88.343037 60.966173 
L 88.988989 60.912866 
L 89.097211 60.897343 
L 89.016045 60.933016 
L 89.100593 60.919745 
L 89.915642 60.85219 
L 89.932552 60.797999 
L 90.023865 60.862697 
L 90.223399 60.986391 
L 90.243691 60.927796 
L 90.247073 60.918097 
L 90.321476 61.027451 
L 90.338386 60.988111 
L 90.345149 61.015991 
L 90.429698 60.877494 
L 90.43308 60.885544 
L 90.612323 60.955986 
L 90.615705 60.941301 
L 90.673198 60.905962 
L 90.730691 60.924973 
L 91.068886 60.833734 
L 91.068886 60.833734 
" clip-path="url(#p29afb11d79)" style="fill: none; stroke: #000000; stroke-width: 0.6; stroke-linecap: square"/>
   </g>
   <g id="line2d_4">
    <path d="M 95.127221 15.313171 
L 95.127221 8.552195 
" clip-path="url(#p29afb11d79)" style="fill: none; stroke: #000000; stroke-width: 1.5; stroke-linecap: square"/>
   </g>
  </g>
 </g>
 <defs>
  <clipPath id="p29afb11d79">
   <rect x="7.2" y="7.2" width="89.28" height="55.44"/>
  </clipPath>
 </defs>
</svg>
