<?xml version="1.0" encoding="utf-8" standalone="no"?>
<!DOCTYPE svg PUBLIC "-//W3C//DTD SVG 1.1//EN"
  "http://www.w3.org/Graphics/SVG/1.1/DTD/svg11.dtd">
<svg xmlns:xlink="http://www.w3.org/1999/xlink" width="103.68pt" height="69.84pt" viewBox="0 0 103.68 69.84" xmlns="http://www.w3.org/2000/svg" version="1.1">
 <metadata>
  <rdf:RDF xmlns:dc="http://purl.org/dc/elements/1.1/" xmlns:cc="http://creativecommons.org/ns#" xmlns:rdf="http://www.w3.org/1999/02/22-rdf-syntax-ns#">
   <cc:Work>
    <dc:type rdf:resource="http://purl.org/dc/dcmitype/StillImage"/>
    <dc:date>2022-05-08T14:54:09.810488</dc:date>
    <dc:format>image/svg+xml</dc:format>
    <dc:creator>
     <cc:Agent>
      <dc:title>Matplotlib v3.5.1, https://matplotlib.org/</dc:title>
     </cc:Agent>
    </dc:creator>
   </cc:Work>
  </rdf:RDF>
 </metadata>
 <defs>
  <style type="text/css">*{stroke-linejoin: round; stroke-linecap: butt}</style>
 </defs>
 <g id="figure_1">
  <g id="patch_1">
   <path d="M 0 69.84 
L 103.68 69.84 
L 103.68 0 
L 0 0 
z
" style="fill: #ffffff"/>
  </g>
  <g id="axes_1">
   <g id="patch_2">
    <path d="M 7.2 62.64 
L 96.48 62.64 
L 96.48 7.2 
L 7.2 7.2 
z
" style="fill: #ffffff"/>
   </g>
   <g id="matplotlib.axis_1"/>
   <g id="matplotlib.axis_2"/>
   <g id="line2d_1">
    <path d="M 9.905557 21.689386 
L 9.919085 21.637496 
L 9.99687 21.740978 
L 10.176113 21.912219 
L 10.179495 21.903053 
L 10.233606 22.067433 
L 10.236988 22.057616 
L 10.402703 22.338979 
L 10.406085 22.321192 
L 10.524453 22.460502 
L 10.544745 22.38237 
L 10.548127 22.377705 
L 10.581946 22.466231 
L 10.615766 22.466093 
L 10.916759 22.687839 
L 10.920141 22.658725 
L 10.974252 22.791701 
L 11.021599 22.725101 
L 11.21437 22.944976 
L 11.224516 22.91674 
L 11.261717 23.007267 
L 11.319211 22.989385 
L 11.410523 23.101766 
L 11.325974 22.986343 
L 11.444343 23.069372 
L 11.454488 23.043504 
L 11.525509 23.144162 
L 11.549183 23.106417 
L 11.860322 23.387709 
L 11.877232 23.33123 
L 11.880614 23.31646 
L 11.971926 23.394852 
L 11.982072 23.368952 
L 11.988836 23.365745 
L 12.141024 23.45818 
L 12.212044 23.419386 
L 12.252628 23.507521 
L 12.370996 23.619906 
L 12.384524 23.581889 
L 12.485982 23.506604 
L 12.391288 23.590322 
L 12.509656 23.538777 
L 12.60435 23.618179 
L 12.529947 23.513007 
L 12.631406 23.562323 
L 12.749774 23.557783 
L 12.644934 23.603032 
L 12.75992 23.576379 
L 12.766684 23.571781 
L 12.891816 23.616564 
L 13.006802 23.581866 
L 12.929017 23.667806 
L 13.013566 23.599445 
L 13.047385 23.628932 
L 13.094732 23.532137 
L 13.111642 23.54158 
L 13.199573 23.446794 
L 13.135316 23.545031 
L 13.23001 23.467831 
L 13.280739 23.510158 
L 13.324705 23.440113 
L 13.341614 23.486553 
L 13.402489 23.383946 
L 13.456601 23.474505 
L 13.585115 23.595479 
L 13.588497 23.580393 
L 13.723774 23.65695 
L 13.727156 23.641413 
L 13.862434 23.688345 
L 13.87258 23.711331 
L 13.943601 23.603535 
L 13.953747 23.609047 
L 13.99433 23.556207 
L 14.065351 23.602155 
L 14.089025 23.572786 
L 14.217539 23.707241 
L 14.339289 23.607195 
L 14.349434 23.624193 
L 14.37649 23.633977 
L 14.433983 23.542625 
L 14.444129 23.553979 
L 14.457657 23.581829 
L 14.559115 23.509181 
L 14.582789 23.549549 
L 14.613226 23.485034 
L 14.670719 23.494642 
L 14.765414 23.414804 
L 14.799233 23.438706 
L 14.839817 23.47311 
L 14.870254 23.377503 
L 14.890546 23.37522 
L 14.893928 23.353386 
L 14.954803 23.472304 
L 14.998768 23.380647 
L 15.130664 23.477354 
L 15.225359 23.408456 
L 15.252414 23.437826 
L 15.391074 23.644542 
L 15.448567 23.587876 
L 15.509442 23.650544 
L 15.577081 23.673221 
L 15.604137 23.590071 
L 15.695449 23.532394 
L 15.648102 23.620702 
L 15.729269 23.558426 
L 15.840873 23.617418 
L 15.78338 23.546174 
L 15.847637 23.610559 
L 15.898366 23.550386 
L 15.942331 23.665836 
L 16.152012 23.895449 
L 16.162158 23.890281 
L 16.916332 24.25147 
L 17.058373 24.201229 
L 17.183505 24.31636 
L 17.190269 24.303012 
L 17.207179 24.255589 
L 17.247762 24.316737 
L 17.298492 24.281412 
L 17.328929 24.371257 
L 17.410096 24.298067 
L 17.41686 24.313271 
L 17.477735 24.185408 
L 17.498026 24.214659 
L 17.599485 24.169426 
L 17.616395 24.211216 
L 17.78211 24.184242 
L 17.792256 24.137892 
L 18.056048 24.125031 
L 18.05943 24.142893 
L 18.187943 24.237478 
L 18.089867 24.12677 
L 18.191325 24.213869 
L 18.313075 24.1208 
L 18.326603 24.143005 
L 18.414534 24.24227 
L 18.441589 24.208299 
L 18.543048 24.273953 
L 18.56334 24.245897 
L 19.161944 24.379993 
L 19.202527 24.302449 
L 19.270166 24.393207 
L 19.344569 24.471645 
L 19.408826 24.419957 
L 19.523812 24.366873 
L 19.462937 24.459617 
L 19.527194 24.375202 
L 19.655708 24.456707 
L 19.743639 24.454061 
L 19.774076 24.42623 
L 19.801132 24.384405 
L 20.210347 24.596786 
L 20.217111 24.567642 
L 20.298278 24.683023 
L 20.308424 24.671145 
L 20.396354 24.646089 
L 20.31857 24.651186 
L 20.413264 24.60823 
L 20.436938 24.573527 
L 20.491049 24.67258 
L 20.521486 24.628064 
L 20.622945 24.634416 
L 20.575598 24.596443 
L 20.629709 24.622527 
L 20.710875 24.479956 
L 20.754841 24.538608 
L 20.852917 24.566464 
L 20.781896 24.505289 
L 20.866445 24.5324 
L 20.92732 24.568915 
L 21.028778 24.456105 
L 21.035542 24.482195 
L 21.055834 24.405563 
L 21.116709 24.41379 
L 21.120091 24.362087 
L 21.180966 24.463039 
L 21.224931 24.435488 
L 21.316244 24.354376 
L 21.245223 24.459808 
L 21.346681 24.379195 
L 21.366973 24.383293 
L 21.383883 24.343231 
L 21.427848 24.314106 
L 21.465049 24.268276 
L 21.505633 24.351426 
L 21.53607 24.328376 
L 21.600327 24.435505 
L 21.65782 24.409715 
L 21.799862 24.455141 
L 21.664584 24.382267 
L 21.826918 24.411676 
L 21.93514 24.319425 
L 21.864119 24.431901 
L 21.955432 24.352377 
L 21.958814 24.349096 
L 22.002779 24.456343 
L 22.009543 24.444251 
L 22.046744 24.462948 
L 22.0738 24.3613 
L 22.107619 24.395661 
L 22.466106 24.481034 
L 22.564182 24.56701 
L 22.493161 24.439679 
L 22.587856 24.517424 
L 22.719752 24.41855 
L 22.723133 24.444501 
L 22.750189 24.365914 
L 22.827974 24.403028 
L 22.986925 24.323456 
L 23.007217 24.375698 
L 23.068092 24.464589 
L 23.122203 24.390457 
L 23.250717 24.355677 
L 23.159405 24.436827 
L 23.257481 24.365823 
L 23.41305 24.480119 
L 23.42996 24.450606 
L 23.524655 24.409206 
L 23.450252 24.464698 
L 23.544946 24.427123 
L 23.558474 24.468663 
L 23.632877 24.307737 
L 23.636259 24.321787 
L 23.710662 24.280755 
L 23.670078 24.382074 
L 23.744481 24.343203 
L 24.001509 24.282627 
L 24.059002 24.346555 
L 24.113113 24.279338 
L 24.336322 24.308289 
L 24.339704 24.327299 
L 24.359995 24.228244 
L 24.434398 24.237537 
L 24.627169 24.340054 
L 24.633933 24.332578 
L 24.752301 24.296973 
L 24.701572 24.367556 
L 24.759065 24.313858 
L 24.863905 24.359493 
L 24.779357 24.270939 
L 24.870669 24.347678 
L 24.995801 24.236326 
L 24.999183 24.240045 
L 25.131079 24.263985 
L 25.137843 24.25303 
L 25.239301 24.125221 
L 25.273121 24.162819 
L 25.303558 24.214479 
L 25.347524 24.135568 
L 25.391489 24.192891 
L 25.506475 24.096794 
L 25.415163 24.22462 
L 25.526767 24.161851 
L 25.547059 24.187073 
L 25.574114 24.075483 
L 25.634989 24.137237 
L 25.763503 23.953013 
L 25.783795 23.977991 
L 25.824378 23.99895 
L 25.858198 23.908416 
L 25.892017 23.952453 
L 26.000239 23.996543 
L 25.898781 23.967879 
L 26.003621 24.007885 
L 26.054351 24.041339 
L 26.101698 23.961544 
L 26.108462 23.976496 
L 26.24374 23.906746 
L 26.368872 23.833547 
L 26.494004 23.795491 
L 26.524441 23.853631 
L 26.598844 23.858262 
L 26.571788 23.811573 
L 26.619136 23.798849 
L 26.734122 23.711738 
L 26.744268 23.750593 
L 26.845726 23.804559 
L 26.862636 23.797633 
L 26.994532 23.568178 
L 27.092608 23.659676 
L 27.116282 23.624879 
L 27.187303 23.640303 
L 27.227886 23.578428 
L 27.319198 23.540473 
L 27.258323 23.598818 
L 27.342872 23.56931 
L 27.468004 23.474572 
L 27.359782 23.58692 
L 27.491678 23.494593 
L 27.511969 23.474635 
L 27.626956 23.583593 
L 27.647247 23.601916 
L 27.677685 23.532007 
L 27.728414 23.558073 
L 27.772379 23.400356 
L 27.846782 23.475538 
L 27.944859 23.508467 
L 27.955004 23.46926 
L 27.988824 23.479706 
L 28.090282 23.391604 
L 28.151157 23.451253 
L 28.110574 23.381004 
L 28.218796 23.415424 
L 28.354074 23.342623 
L 28.232324 23.431442 
L 28.360838 23.365371 
L 28.509644 23.258733 
L 28.611102 23.213297 
L 28.533317 23.312143 
L 28.621248 23.244991 
L 28.766671 23.256347 
L 28.86813 23.269526 
L 28.810637 23.330271 
L 28.871512 23.280996 
L 29.030463 23.403394 
L 29.077811 23.29295 
L 29.175887 23.205604 
L 29.091338 23.310186 
L 29.21647 23.222532 
L 29.314547 23.243784 
L 29.25029 23.198461 
L 29.331456 23.223346 
L 29.453207 23.16014 
L 29.351748 23.272519 
L 29.456589 23.171315 
L 29.480262 23.234224 
L 29.554665 23.116197 
L 29.700089 22.937523 
L 29.706853 22.974023 
L 29.750818 22.892742 
L 29.804929 22.921009 
L 29.808311 22.894287 
L 29.899623 23.020443 
L 29.903005 23.01642 
L 29.957117 23.036407 
L 29.987554 22.951736 
L 30.045047 22.832318 
L 30.105922 22.8983 
L 30.160033 22.963286 
L 30.210763 22.867073 
L 30.318985 22.769446 
L 30.234436 22.884226 
L 30.335895 22.775565 
L 30.504992 22.922406 
L 30.511756 22.918222 
L 30.630124 22.860388 
L 30.690999 22.878894 
L 30.663943 22.811984 
L 30.734964 22.827943 
L 30.880388 22.710632 
L 30.88377 22.72933 
L 30.904062 22.753344 
L 30.958173 22.66709 
L 30.985228 22.713727 
L 31.039339 22.617412 
L 31.100214 22.667851 
L 31.242256 22.578251 
L 31.24902 22.583946 
L 31.313277 22.673589 
L 31.367388 22.615502 
L 31.380916 22.592604 
L 31.468847 22.672989 
L 31.472228 22.683467 
L 31.529722 22.593862 
L 31.566923 22.626853 
L 31.678527 22.571335 
L 31.692055 22.607444 
L 31.729256 22.648088 
L 31.793513 22.560571 
L 31.847625 22.547863 
L 31.884826 22.634319 
L 31.888208 22.627536 
L 31.982902 22.704844 
L 31.942319 22.612986 
L 32.01334 22.69592 
L 32.111416 22.623789 
L 32.091125 22.709288 
L 32.128326 22.665849 
L 32.41241 22.509413 
L 32.513868 22.387032 
L 32.544305 22.446368 
L 32.598417 22.483444 
L 32.557833 22.420875 
L 32.652528 22.425376 
L 32.733694 22.298877 
L 32.686347 22.438405 
L 32.77766 22.387023 
L 32.990722 22.279803 
L 32.997486 22.345089 
L 33.237604 22.295009 
L 33.352591 22.185375 
L 33.251132 22.30254 
L 33.372882 22.226388 
L 33.410084 22.250426 
L 33.464195 22.176744 
L 33.470959 22.185154 
L 33.474341 22.176032 
L 33.555507 22.243688 
L 33.562271 22.232478 
L 33.579181 22.279849 
L 33.656966 22.148197 
L 33.761806 22.017212 
L 33.788862 22.055268 
L 33.968105 22.155853 
L 33.799008 22.044635 
L 33.971487 22.13885 
L 34.100001 22.012405 
L 34.11691 22.037711 
L 34.191313 22.106318 
L 34.123674 22.054329 
L 34.194695 22.121316 
L 34.299536 22.156506 
L 34.309681 22.126195 
L 34.434813 22.00867 
L 34.465251 22.03186 
L 34.668168 22.01012 
L 34.685077 22.015551 
L 34.833883 21.793333 
L 35.013126 21.70167 
L 34.854175 21.831056 
L 35.023272 21.724728 
L 35.030036 21.748447 
L 35.107821 21.593124 
L 35.121349 21.630386 
L 35.209279 21.661821 
L 35.15855 21.559236 
L 35.226189 21.589784 
L 35.408814 21.460129 
L 35.493363 21.353178 
L 35.537328 21.405462 
L 35.544092 21.429925 
L 35.632022 21.298528 
L 36.058148 20.471711 
L 36.129169 19.04408 
L 36.14946 9.485923 
L 36.217099 22.045328 
L 36.463981 19.83488 
L 36.487655 15.636604 
L 36.494419 10.667747 
L 36.558676 22.703904 
L 36.589113 22.395222 
L 36.829231 18.931857 
L 36.842759 10.352147 
L 36.903634 23.094982 
L 36.920544 23.00355 
L 37.211391 18.543846 
L 37.224919 10.105676 
L 37.289176 23.283331 
L 37.309468 23.088481 
L 37.610461 18.660802 
L 37.623989 9.967872 
L 37.688246 23.42941 
L 37.708537 23.248908 
L 38.036586 17.682648 
L 38.046732 9.934481 
L 38.110989 23.517598 
L 38.141427 23.235916 
L 38.418746 20.670585 
L 38.510059 19.197956 
L 38.53035 10.137562 
L 38.584462 23.340784 
L 38.594607 23.435164 
L 38.665628 22.661424 
L 39.000441 18.623217 
L 39.013969 10.12112 
L 39.078226 23.493787 
L 39.095135 23.338525 
L 39.406274 20.816905 
L 39.528025 19.764398 
L 39.548316 17.368139 
L 39.558462 10.231577 
L 39.622719 23.409056 
L 39.649775 23.190435 
L 39.923712 20.92733 
L 40.140157 18.910861 
L 40.160449 10.50996 
L 40.217942 23.265373 
L 40.224705 23.240518 
L 40.255143 22.962137 
L 40.559518 20.786441 
L 40.57981 20.807128 
L 40.755671 20.053922 
L 40.799636 18.170844 
L 40.816546 10.564827 
L 40.874039 23.19101 
L 40.897713 23.039864 
L 41.164887 21.129484 
L 41.479408 18.569902 
L 41.496317 10.506586 
L 41.557192 23.195045 
L 41.57072 23.108384 
L 41.668797 22.105005 
L 41.895387 20.949903 
L 41.898769 20.953713 
L 41.902151 20.977427 
L 41.956262 20.808467 
L 41.990081 20.82536 
L 42.118595 20.693916 
L 41.996845 20.839627 
L 42.155797 20.735652 
L 42.382387 20.63278 
L 42.7172 19.493834 
L 42.737492 16.072185 
L 42.751019 10.751618 
L 42.811894 22.942926 
L 42.83895 22.705491 
L 43.2042 20.79737 
L 43.210964 20.818964 
L 43.227874 20.855579 
L 43.302277 20.707019 
L 43.407117 20.678403 
L 43.339478 20.742378 
L 43.420645 20.696555 
L 43.427409 20.68343 
L 44.374354 22.222111 
L 44.496104 22.300646 
L 44.425083 22.203305 
L 44.499486 22.291126 
L 44.509631 22.26562 
L 44.584034 22.36857 
L 45.037215 22.876864 
L 45.043979 22.866807 
L 45.121764 22.957678 
L 45.260424 23.140456 
L 45.263805 23.138057 
L 45.530979 23.428779 
L 45.659493 23.343963 
L 45.811681 23.580329 
L 45.821827 23.567282 
L 46.146493 23.756284 
L 46.153257 23.72073 
L 46.376466 23.563686 
L 46.38323 23.592161 
L 46.420431 23.629664 
L 46.494834 23.592714 
L 46.576001 23.560055 
L 46.521889 23.614947 
L 46.606438 23.597189 
L 46.758626 23.736555 
L 46.880376 23.746336 
L 46.76539 23.748324 
L 46.890522 23.779748 
L 47.015654 23.757328 
L 46.897286 23.765403 
L 47.022418 23.74644 
L 47.13064 23.678265 
L 47.093438 23.78694 
L 47.157695 23.71714 
L 47.215188 23.748758 
L 47.262536 23.69473 
L 47.320029 23.768559 
L 47.37414 23.682551 
L 47.47898 23.675258 
L 47.462071 23.6383 
L 47.485744 23.665944 
L 47.489126 23.649983 
L 47.553383 23.739444 
L 47.597348 23.674321 
L 47.668369 23.663496 
L 47.681897 23.611721 
L 47.793501 23.527012 
L 47.813793 23.572202 
L 47.87805 23.632042 
L 47.911869 23.550372 
L 47.922015 23.552351 
L 48.114786 23.592076 
L 48.118168 23.568876 
L 48.131696 23.531115 
L 48.179043 23.633595 
L 48.22639 23.563064 
L 48.337995 23.690536 
L 48.354904 23.626265 
L 48.38196 23.653234 
L 48.39887 23.581726 
L 48.452981 23.581245 
L 48.564585 23.608182 
L 48.469891 23.644204 
L 48.567967 23.612691 
L 48.696481 23.681904 
L 48.818231 23.669424 
L 48.821613 23.657142 
L 48.950127 23.514786 
L 49.085405 23.654626 
L 49.230828 23.784336 
L 49.281558 23.637473 
L 49.359342 23.693932 
L 49.416835 23.836113 
L 49.491238 23.800312 
L 49.572405 23.770689 
L 49.531822 23.843458 
L 49.596079 23.829135 
L 49.640044 23.858616 
L 49.619752 23.777712 
L 49.694155 23.791115 
L 49.819287 23.719075 
L 49.734738 23.819194 
L 49.832815 23.737169 
L 49.941037 23.796085 
L 49.87678 23.723942 
L 49.954565 23.77586 
L 50.001912 23.763579 
L 50.045877 23.835938 
L 50.377308 23.909071 
L 50.384072 23.89129 
L 50.390836 23.87456 
L 50.438183 24.024845 
L 50.458475 24.019729 
L 50.586989 24.146547 
L 50.590371 24.138246 
L 50.695211 24.018245 
L 50.725649 24.052883 
L 51.067225 24.275234 
L 51.155156 24.386414 
L 51.199121 24.337719 
L 51.216031 24.293352 
L 51.290434 24.391911 
L 51.30058 24.380256 
L 51.341163 24.410126 
L 51.40542 24.348736 
L 51.476441 24.431203 
L 51.517024 24.343251 
L 51.642156 24.393099 
L 51.530552 24.33182 
L 51.645538 24.391627 
L 51.790962 24.283301 
L 51.899184 24.386391 
L 51.824781 24.246967 
L 51.916094 24.36179 
L 52.017552 24.307715 
L 52.054754 24.342103 
L 52.142684 24.45282 
L 52.176504 24.448951 
L 52.183268 24.462954 
L 52.261052 24.358873 
L 52.267816 24.374268 
L 52.467351 24.467066 
L 52.592483 24.380608 
L 52.599247 24.388176 
L 53.00508 24.378159 
L 53.089629 24.314601 
L 53.120067 24.354527 
L 53.126831 24.333989 
L 53.187706 24.471599 
L 53.207997 24.425744 
L 53.262108 24.450483 
L 53.29931 24.368464 
L 53.309456 24.369117 
L 53.38724 24.216725 
L 53.458261 24.365741 
L 53.586775 24.612673 
L 53.596921 24.577006 
L 53.644268 24.475831 
L 53.708525 24.56447 
L 54.100831 24.391425 
L 54.110977 24.444552 
L 54.165088 24.581794 
L 54.232727 24.514457 
L 54.384915 24.375387 
L 54.44579 24.394792 
L 54.466081 24.329974 
L 54.486373 24.33032 
L 54.577686 24.382755 
L 54.493137 24.318178 
L 54.608123 24.306886 
L 54.611505 24.293718 
L 54.692672 24.380055 
L 54.706199 24.360984 
L 54.969991 24.474226 
L 55.000429 24.410131 
L 55.024102 24.372873 
L 55.098505 24.462646 
L 55.132325 24.496205 
L 55.169526 24.401459 
L 55.186436 24.414835 
L 55.196582 24.373914 
L 55.287894 24.473207 
L 55.308186 24.504169 
L 55.355533 24.392297 
L 55.382589 24.412338 
L 55.490811 24.425004 
L 55.399498 24.429807 
L 55.500957 24.437687 
L 55.83577 24.440509 
L 55.872971 24.4322 
L 55.937228 24.490097 
L 55.94061 24.470359 
L 56.224693 24.632434 
L 56.248367 24.556274 
L 56.376881 24.523864 
L 56.390409 24.553387 
L 56.4107 24.606085 
L 56.474957 24.504377 
L 56.498631 24.552064 
L 56.674492 24.426718 
L 56.677874 24.431267 
L 56.759041 24.398577 
L 56.789478 24.457176 
L 56.830062 24.373276 
L 56.911228 24.467088 
L 57.046506 24.487399 
L 56.958576 24.426886 
L 57.049888 24.475414 
L 57.131055 24.465964 
L 57.144583 24.524918 
L 57.266333 24.593808 
L 57.151347 24.516836 
L 57.283243 24.566884 
L 57.384701 24.454749 
L 57.404993 24.499935 
L 57.462486 24.569165 
L 57.516597 24.483436 
L 57.618055 24.394821 
L 57.634965 24.472442 
L 57.702604 24.471205 
L 57.668784 24.416671 
L 57.733041 24.420529 
L 57.797298 24.492618 
L 57.915667 24.581955 
L 58.017125 24.500777 
L 58.030653 24.543297 
L 58.04418 24.518345 
L 58.074618 24.585806 
L 58.138875 24.55788 
L 58.351938 24.377801 
L 58.365465 24.398456 
L 58.517653 24.498954 
L 58.382375 24.369669 
L 58.524417 24.477064 
L 58.663077 24.363309 
L 58.832174 24.203264 
L 58.838938 24.188128 
L 58.909959 24.327648 
L 58.943778 24.380417 
L 59.011417 24.290797 
L 59.018181 24.306833 
L 59.024945 24.316717 
L 59.109494 24.244134 
L 59.112875 24.24452 
L 59.356376 24.223751 
L 59.427396 24.112294 
L 59.48489 24.145104 
L 59.518709 24.134138 
L 59.528855 24.065807 
L 59.559292 24.067232 
L 59.650605 24.023103 
L 59.681042 24.037332 
L 59.701334 24.0426 
L 59.725008 23.986567 
L 59.772355 23.9803 
L 59.812938 23.955515 
L 59.86705 24.033948 
L 59.883959 23.996555 
L 59.927925 23.968641 
L 59.894105 24.015151 
L 59.975272 24.053384 
L 60.009091 24.029079 
L 60.100404 24.064255 
L 60.316848 23.823595 
L 60.32023 23.825604 
L 60.398015 23.829678 
L 60.35405 23.788788 
L 60.428453 23.806086 
L 60.800467 23.585389 
L 60.844432 23.53407 
L 60.85796 23.611682 
L 60.915453 23.578525 
L 60.922217 23.594294 
L 61.000002 23.467668 
L 61.121752 23.301242 
L 61.125134 23.315067 
L 61.226592 23.205704 
L 61.155571 23.340136 
L 61.250266 23.240795 
L 62.061933 22.75492 
L 62.210738 22.622151 
L 62.396745 22.603168 
L 62.406891 22.634572 
L 62.504968 22.613662 
L 62.423801 22.582626 
L 62.50835 22.603158 
L 62.59628 22.542474 
L 62.518495 22.609422 
L 62.640245 22.577259 
L 62.765377 22.645877 
L 62.650391 22.561348 
L 62.772141 22.636304 
L 62.964912 22.583872 
L 63.062989 22.496757 
L 63.086662 22.50526 
L 63.171211 22.54508 
L 63.103572 22.497382 
L 63.194885 22.487351 
L 63.286197 22.440077 
L 63.296343 22.405405 
L 63.387656 22.409699 
L 63.333544 22.452431 
L 63.397801 22.436151 
L 63.526315 22.600962 
L 63.553371 22.5323 
L 63.648065 22.373993 
L 63.675121 22.423146 
L 63.796871 22.476443 
L 63.688649 22.416211 
L 63.800253 22.475576 
L 63.807017 22.451231 
L 63.837454 22.586 
L 63.894948 22.534905 
L 64.033607 22.59287 
L 64.168885 22.379659 
L 64.192559 22.44318 
L 64.195941 22.456661 
L 64.239906 22.406778 
L 64.290635 22.399495 
L 64.334601 22.377564 
L 64.324455 22.428307 
L 64.388712 22.442921 
L 64.425913 22.39605 
L 64.513844 22.526856 
L 64.666031 22.305819 
L 64.669413 22.311252 
L 64.730288 22.224683 
L 64.747198 22.235036 
L 64.852038 22.204787 
L 64.757344 22.254716 
L 64.868948 22.216266 
L 64.950115 22.207961 
L 64.882476 22.166331 
L 64.967025 22.166092 
L 64.970406 22.143843 
L 65.01099 22.228894 
L 65.075247 22.172418 
L 65.085393 22.197172 
L 65.139504 22.04591 
L 65.163177 22.056888 
L 65.318747 22.079668 
L 65.413441 22.062498 
L 65.345802 22.10656 
L 65.430351 22.073205 
L 65.443879 22.041972 
L 65.487844 22.141084 
L 65.518282 22.141487 
L 65.53181 22.088966 
L 65.643414 22.09686 
L 65.761782 22.004636 
L 65.711053 22.145121 
L 65.771928 22.039069 
L 65.853094 22.077955 
L 65.805747 22.018422 
L 65.876768 22.020969 
L 65.968081 21.936829 
L 65.883532 22.032464 
L 65.995136 22.001568 
L 66.052629 22.069874 
L 66.103358 21.981954 
L 66.214963 21.92359 
L 66.181143 22.01064 
L 66.231872 21.939352 
L 66.258928 21.916406 
L 66.353622 21.977125 
L 66.380678 22.00609 
L 66.478754 21.925251 
L 66.543011 21.962205 
L 66.50581 21.899635 
L 66.583595 21.89928 
L 66.739164 21.812423 
L 66.752692 21.840219 
L 66.854151 21.848321 
L 66.816949 21.78549 
L 66.860914 21.822289 
L 66.867678 21.794714 
L 67.14838 21.809337 
L 67.243074 21.780965 
L 67.182199 21.826192 
L 67.256602 21.812233 
L 67.283658 21.850725 
L 67.361442 21.777024 
L 67.371588 21.788058 
L 67.581269 21.692123 
L 67.584651 21.70957 
L 67.638762 21.56949 
L 67.6692 21.566955 
L 67.699637 21.500678 
L 67.77404 21.590811 
L 67.777422 21.589378 
L 67.784186 21.616595 
L 67.838297 21.447383 
L 67.868734 21.498258 
L 68.355735 21.016761 
L 68.565415 19.251743 
L 68.589089 9.495011 
L 68.649964 22.025378 
L 68.656728 22.0538 
L 68.67702 21.905522 
L 68.923902 16.783104 
L 68.934048 10.565993 
L 68.994923 22.706747 
L 69.028742 22.365157 
L 69.272242 18.804892 
L 69.28577 10.280583 
L 69.350027 23.069167 
L 69.366937 22.910609 
L 69.640874 19.41701 
L 69.661166 10.112539 
L 69.711895 22.750912 
L 69.725423 23.298431 
L 69.816735 22.264304 
L 70.046708 19.035097 
L 70.063618 10.053112 
L 70.124493 23.435491 
L 70.134638 23.377248 
L 70.479597 19.306309 
L 70.499889 10.055137 
L 70.554 23.340239 
L 70.560764 23.487241 
L 70.638548 22.690403 
L 70.871903 20.655747 
L 70.953069 18.944541 
L 70.969979 10.007474 
L 71.030854 23.474904 
L 71.041 23.422422 
L 71.084965 22.962183 
L 71.456979 18.865655 
L 71.473889 10.034219 
L 71.538146 23.467209 
L 71.54491 23.405478 
L 71.656514 22.252545 
L 71.930452 20.48957 
L 72.001473 19.751868 
L 72.021764 17.817483 
L 72.035292 10.233122 
L 72.096167 23.338043 
L 72.123223 23.116357 
L 72.515529 20.362871 
L 72.579786 19.737656 
L 72.600077 18.288736 
L 72.613605 10.412344 
L 72.677862 23.322246 
L 72.698154 23.142889 
L 73.131043 20.594285 
L 73.134425 20.599322 
L 73.286612 19.758801 
L 73.313668 16.623732 
L 73.327196 10.66609 
L 73.388071 23.142724 
L 73.415126 22.899068 
L 73.878453 20.48371 
L 74.034023 19.533659 
L 74.054314 16.029337 
L 74.06446 10.69253 
L 74.125335 23.086945 
L 74.155773 22.849269 
L 74.399273 21.107686 
L 74.402655 21.122596 
L 74.466912 20.910486 
L 74.615717 20.634766 
L 74.622481 20.642503 
L 74.625863 20.646851 
L 74.656301 20.543788 
L 74.69012 20.550228 
L 74.93362 20.011603 
L 74.974204 19.429784 
L 74.994495 15.250438 
L 75.004641 10.841376 
L 75.07228 22.930321 
L 75.092572 22.747757 
L 75.373273 20.961958 
L 75.430766 20.82516 
L 75.542371 20.711674 
L 75.566044 20.718114 
L 75.677648 20.832153 
L 75.684412 20.799023 
L 75.687794 20.795516 
L 75.735141 20.890536 
L 75.752051 20.881076 
L 77.926643 23.62383 
L 77.95708 23.586286 
L 77.960462 23.550709 
L 78.034865 23.638218 
L 78.065302 23.611281 
L 78.072066 23.60103 
L 78.122796 23.706945 
L 78.139705 23.712169 
L 78.281747 23.844274 
L 78.379823 23.726574 
L 78.410261 23.767225 
L 78.44408 23.805133 
L 78.501574 23.695099 
L 78.504955 23.698452 
L 78.59965 23.59543 
L 78.565831 23.723321 
L 78.643615 23.625973 
L 78.805949 23.659396 
L 78.809331 23.631582 
L 78.883733 23.803046 
L 78.900643 23.785412 
L 78.917553 23.807658 
L 78.98181 23.736262 
L 79.008865 23.775153 
L 79.073122 23.709384 
L 79.025775 23.781825 
L 79.12047 23.772154 
L 79.123852 23.781909 
L 79.2084 23.689923 
L 79.211782 23.703472 
L 79.418081 23.681228 
L 79.458664 23.762156 
L 79.489102 23.661333 
L 79.526303 23.673965 
L 79.620998 23.588077 
L 79.543213 23.681944 
L 79.644671 23.677604 
L 79.725838 23.751484 
L 79.681873 23.641561 
L 79.783331 23.720489 
L 79.847588 23.687113 
L 79.803623 23.656595 
L 79.861116 23.648704 
L 79.996394 23.56755 
L 79.874644 23.668476 
L 79.999776 23.577437 
L 80.395463 23.200028 
L 80.415755 23.231121 
L 80.473248 23.285034 
L 80.523977 23.208317 
L 80.696457 23.158834 
L 80.537505 23.22432 
L 80.706603 23.182511 
L 80.750568 23.251685 
L 80.811443 23.126475 
L 80.838498 23.106587 
L 80.89261 23.183406 
L 80.916283 23.153583 
L 80.943339 23.128651 
L 81.044797 23.168261 
L 81.156401 23.14904 
L 81.13611 23.197843 
L 81.159783 23.16651 
L 81.190221 23.175055 
L 81.24095 23.091594 
L 81.318735 22.977473 
L 81.355936 23.060095 
L 81.393138 23.092438 
L 81.430339 22.968534 
L 81.433721 22.976679 
L 81.443867 22.944567 
L 81.514888 23.092952 
L 81.528415 23.085579 
L 81.626492 23.049849 
L 81.572381 23.168901 
L 81.636638 23.074185 
L 81.711041 23.161025 
L 81.755006 23.137121 
L 81.76177 23.114014 
L 81.8497 23.214715 
L 81.853082 23.203066 
L 81.944395 23.231966 
L 81.890284 23.189836 
L 81.961305 23.177245 
L 81.974832 23.208878 
L 82.012034 23.091163 
L 82.039089 23.088496 
L 82.093201 23.032056 
L 82.154076 23.06518 
L 82.319791 22.954218 
L 82.333319 22.930877 
L 82.407722 23.097964 
L 82.414485 23.086662 
L 82.566673 23.418122 
L 82.739152 23.673648 
L 82.854138 23.790054 
L 82.759444 23.653316 
L 82.877812 23.749656 
L 82.881194 23.740873 
L 82.955597 23.83576 
L 82.962361 23.816501 
L 83.107784 24.085492 
L 83.114548 24.066228 
L 83.124694 24.053856 
L 83.13484 24.104316 
L 83.219389 24.099931 
L 83.341139 24.133538 
L 83.435833 24.087163 
L 83.473035 24.129319 
L 83.601549 24.209641 
L 83.60493 24.205421 
L 83.807847 24.231809 
L 83.811229 24.214143 
L 83.885632 24.343278 
L 83.902542 24.328007 
L 84.14266 24.310317 
L 84.152806 24.356989 
L 84.288084 24.446788 
L 84.409834 24.408705 
L 84.413216 24.417446 
L 84.440271 24.540621 
L 84.531584 24.469425 
L 84.666862 24.614817 
L 84.677007 24.569047 
L 84.683771 24.5548 
L 84.863015 24.583025 
L 84.879924 24.544368 
L 84.937417 24.655038 
L 84.971237 24.608307 
L 84.988147 24.629446 
L 85.055785 24.50164 
L 85.065931 24.509684 
L 85.113279 24.471814 
L 85.174154 24.54007 
L 85.248556 24.574829 
L 85.187681 24.524195 
L 85.282376 24.512213 
L 85.566459 24.516746 
L 85.62057 24.424913 
L 85.674682 24.516607 
L 85.772758 24.53011 
L 85.725411 24.474163 
L 85.782904 24.497819 
L 85.894508 24.416957 
L 85.918182 24.426947 
L 86.01964 24.41107 
L 85.928328 24.400067 
L 86.033168 24.388502 
L 86.168446 24.297596 
L 86.039932 24.39525 
L 86.181974 24.332597 
L 86.236085 24.368381 
L 86.28005 24.261712 
L 86.290196 24.294895 
L 86.665592 24.235411 
L 86.763668 24.313071 
L 86.780578 24.276218 
L 86.942911 24.158607 
L 86.946293 24.194998 
L 87.071425 24.29575 
L 87.078189 24.282193 
L 87.67003 24.434498 
L 87.676794 24.402267 
L 87.771488 24.370423 
L 87.717377 24.422187 
L 87.79178 24.383131 
L 87.818836 24.472361 
L 87.910148 24.434136 
L 87.933822 24.375231 
L 87.991315 24.471844 
L 88.01837 24.448105 
L 88.086009 24.576318 
L 88.136739 24.527046 
L 88.272016 24.416987 
L 88.153648 24.553968 
L 88.292308 24.449506 
L 88.383621 24.423805 
L 88.366711 24.370114 
L 88.390384 24.416264 
L 88.420822 24.345268 
L 88.508753 24.364015 
L 88.613593 24.410776 
L 88.545954 24.332021 
L 88.627121 24.373767 
L 88.687996 24.269446 
L 88.748871 24.297995 
L 88.917968 24.268151 
L 88.931496 24.299964 
L 88.985607 24.260577 
L 89.039718 24.277976 
L 89.127649 24.193111 
L 89.080302 24.334375 
L 89.154704 24.242829 
L 89.208815 24.279826 
L 89.259545 24.203396 
L 89.333947 24.106974 
L 89.384677 24.158842 
L 89.526718 24.07551 
L 89.587593 24.158669 
L 89.638323 24.092125 
L 89.800656 23.993992 
L 89.804038 24.011242 
L 89.908878 24.119617 
L 89.919024 24.078497 
L 89.942698 24.013218 
L 90.010337 24.114724 
L 90.03401 24.049236 
L 90.690108 24.021492 
L 90.713782 24.052687 
L 90.757747 23.93665 
L 90.774657 23.954771 
L 90.865969 23.94409 
L 90.808476 24.005819 
L 90.882879 23.971201 
L 90.886261 23.995717 
L 90.97081 23.886753 
L 90.980955 23.88886 
L 91.065504 24.012671 
L 91.068886 23.999568 
" clip-path="url(#pefc00bc5ec)" style="fill: none; stroke: #000000; stroke-width: 0.6; stroke-linecap: square"/>
   </g>
   <g id="line2d_2">
    <path d="M 9.905557 41.754435 
L 10.152439 41.569956 
L 10.155821 41.597512 
L 10.270807 41.646096 
L 10.176113 41.585487 
L 10.277571 41.63044 
L 10.301245 41.605158 
L 10.358738 41.711292 
L 10.382411 41.669577 
L 10.541363 41.778714 
L 10.551509 41.773986 
L 10.791627 41.415379 
L 10.795009 41.432342 
L 10.889703 41.385411 
L 10.906613 41.414868 
L 11.024981 41.327202 
L 11.116294 41.232521 
L 11.153495 41.27719 
L 11.200842 41.344163 
L 11.261717 41.262392 
L 11.403759 41.060424 
L 11.454488 41.101099 
L 11.498454 40.994457 
L 11.505218 41.003941 
L 11.545801 40.929252 
L 11.589766 41.020918 
L 11.620204 40.980098 
L 11.664169 41.064277 
L 11.73519 40.984411 
L 11.809593 40.949607 
L 11.762246 41.014258 
L 11.853558 40.971903 
L 11.863704 40.995594 
L 11.917815 40.891889 
L 11.931343 40.903425 
L 12.039565 40.724475 
L 12.056475 40.748975 
L 12.293211 40.514458 
L 12.330413 40.451171 
L 12.367614 40.540991 
L 12.401433 40.521301 
L 12.868142 40.117402 
L 12.942545 39.998208 
L 13.000038 40.018485 
L 13.064295 40.025089 
L 13.09135 39.960684 
L 13.104878 39.985376 
L 13.10826 39.990432 
L 13.135316 39.901337 
L 13.165753 39.895721 
L 13.189427 39.816015 
L 13.226628 39.912625 
L 13.280739 39.871135 
L 13.344996 39.803643 
L 13.405871 39.877508 
L 13.700101 39.956293 
L 13.439691 39.808546 
L 13.703483 39.944298 
L 13.835379 39.792135 
L 13.943601 39.800382 
L 14.021386 39.644831 
L 14.072115 39.679639 
L 14.663955 39.53454 
L 14.74174 39.457994 
L 14.782324 39.4989 
L 14.887164 39.491703 
L 14.843199 39.407708 
L 14.890546 39.480581 
L 15.238886 39.093066 
L 14.89731 39.489516 
L 15.252414 39.135663 
L 15.394456 39.039818 
L 15.583845 38.754304 
L 15.593991 38.766428 
L 15.600755 38.793316 
L 15.665012 38.66569 
L 15.668393 38.664575 
L 15.840873 38.198886 
L 15.945713 36.604776 
L 15.969387 27.201129 
L 16.033644 39.973698 
L 16.037026 39.996853 
L 16.077609 39.560569 
L 16.212887 36.318805 
L 16.226415 27.832327 
L 16.297436 40.40312 
L 16.310963 40.285923 
L 16.466533 36.643344 
L 16.480061 28.18246 
L 16.551081 40.513973 
L 16.557845 40.494335 
L 16.716797 37.032486 
L 16.737089 28.275514 
L 16.794582 39.432456 
L 16.808109 40.609591 
L 16.902804 38.954984 
L 16.980589 36.246651 
L 16.994116 28.199223 
L 17.065137 40.712468 
L 17.078665 40.5897 
L 17.237617 37.368757 
L 17.254526 33.434354 
L 17.26129 28.081777 
L 17.339075 40.86389 
L 17.359367 40.595749 
L 17.535228 36.092543 
L 17.548756 27.996645 
L 17.619777 41.017549 
L 17.636686 40.902451 
L 17.822693 37.598185 
L 17.842985 35.716653 
L 17.853131 27.755772 
L 17.930916 41.171908 
L 17.944443 41.057298 
L 18.039138 39.768736 
L 18.18118 36.08738 
L 18.194707 27.722021 
L 18.26911 41.290515 
L 18.282638 41.176625 
L 18.360423 40.256955 
L 18.54643 36.341855 
L 18.559958 27.572342 
L 18.637742 41.387686 
L 18.644506 41.342635 
L 18.786548 39.665158 
L 18.955645 36.552304 
L 18.972555 27.652734 
L 19.043576 41.38503 
L 19.046958 41.389959 
L 19.06725 41.248399 
L 19.405444 36.887849 
L 19.425736 27.684884 
L 19.479847 39.679331 
L 19.496757 41.334932 
L 19.591451 40.477889 
L 19.90259 36.506628 
L 19.9195 27.823893 
L 19.987139 41.227172 
L 19.997285 41.252309 
L 20.037868 40.891343 
L 20.105507 40.205921 
L 20.335479 38.049893 
L 20.409882 37.211959 
L 20.430174 33.635517 
L 20.44032 28.00577 
L 20.511341 41.195823 
L 20.531632 41.051915 
L 20.957757 36.53272 
L 20.978049 28.012924 
L 21.038924 41.094847 
L 21.04907 41.224681 
L 21.126855 40.53968 
L 21.573272 35.682949 
L 21.590181 28.447637 
L 21.661202 41.023759 
L 21.667966 41.001806 
L 22.03998 38.169825 
L 22.229369 36.018868 
L 22.249661 28.860425 
L 22.3173 40.885718 
L 22.327446 40.871283 
L 22.337592 40.777364 
L 22.652113 38.33872 
L 22.658876 38.346637 
L 22.696078 38.177189 
L 22.888849 37.838364 
L 22.915904 37.875354 
L 23.108675 38.264343 
L 23.156023 38.362741 
L 23.338648 38.710442 
L 23.34203 38.702897 
L 23.369085 38.674429 
L 23.41305 38.803604 
L 23.433342 38.782241 
L 23.622731 39.082866 
L 23.632877 39.066035 
L 23.680224 39.152716 
L 23.82903 40.401189 
L 23.984599 41.57381 
L 24.143551 41.97478 
L 24.157079 41.951502 
L 24.160461 41.944552 
L 24.207808 42.07196 
L 24.214572 42.06739 
L 24.346468 42.241377 
L 24.224718 42.064586 
L 24.34985 42.2369 
L 24.366759 42.203853 
L 24.43778 42.313366 
L 24.447926 42.292751 
L 24.688044 42.383733 
L 24.691426 42.372352 
L 24.81994 42.364183 
L 24.823322 42.352468 
L 24.907871 42.274795 
L 24.877433 42.377226 
L 24.94169 42.323904 
L 25.033003 42.388839 
L 24.978892 42.307221 
L 25.056676 42.358277 
L 25.137843 42.329645 
L 25.090496 42.408576 
L 25.171663 42.367156 
L 25.246065 42.475966 
L 25.310322 42.362081 
L 25.42869 42.360035 
L 25.523385 42.348413 
L 25.438836 42.345925 
L 25.530149 42.309033 
L 25.645135 42.243232 
L 25.662045 42.2768 
L 25.753357 42.314587 
L 25.726302 42.258164 
L 25.770267 42.264845 
L 25.875107 42.23832 
L 25.780413 42.286525 
L 25.895399 42.286342 
L 26.003621 42.330222 
L 25.94951 42.259441 
L 26.013767 42.286062 
L 26.257267 42.119133 
L 26.037441 42.317938 
L 26.287705 42.168936 
L 26.355344 42.248245 
L 26.406073 42.185483 
L 26.480476 42.095411 
L 26.517677 42.187326 
L 26.649573 42.32563 
L 26.663101 42.297168 
L 26.71383 42.244215 
L 26.680011 42.309467 
L 26.774705 42.29629 
L 26.903219 42.332601 
L 26.923511 42.285917 
L 27.082462 42.157162 
L 27.085844 42.161858 
L 27.630338 42.284112 
L 27.633719 42.269886 
L 27.691213 42.204274 
L 27.748706 42.258649 
L 27.938095 42.174266 
L 28.059845 42.236249 
L 27.94824 42.143604 
L 28.066609 42.219547 
L 28.144393 42.209935 
L 28.127484 42.258782 
L 28.178213 42.227546 
L 28.360838 42.21481 
L 28.442005 42.243345 
L 28.394657 42.260036 
L 28.45215 42.277006 
L 28.587428 42.170992 
L 28.60772 42.136665 
L 28.671977 42.22843 
L 28.692269 42.204515 
L 28.76329 42.287222 
L 28.790345 42.153029 
L 28.797109 42.115845 
L 28.86813 42.228261 
L 28.881658 42.222289 
L 28.993262 42.231752 
L 28.932387 42.142104 
L 28.996644 42.216307 
L 29.527609 42.210731 
L 29.530991 42.21796 
L 29.581721 42.091363 
L 29.625686 42.160821 
L 29.821839 42.252389 
L 29.828603 42.263049 
L 29.855658 42.175635 
L 29.913151 42.189724 
L 30.305457 42.244818 
L 30.335895 42.275069 
L 30.39677 42.197307 
L 30.410297 42.225319 
L 30.494846 42.185919 
L 30.521902 42.212491 
L 30.619978 42.199251 
L 30.528665 42.203053 
L 30.626742 42.183968 
L 30.684235 42.233111 
L 30.741728 42.173656 
L 30.751874 42.148316 
L 30.829659 42.239711 
L 30.944645 42.200365 
L 30.863478 42.160309 
L 30.948027 42.187546 
L 30.98861 42.150617 
L 31.00552 42.208616 
L 31.056249 42.197466 
L 31.228728 42.239645 
L 31.245638 42.209398 
L 31.374152 42.128581 
L 31.276076 42.245006 
L 31.380916 42.145518 
L 31.462083 42.236409 
L 31.499284 42.173688 
L 31.627798 42.211073 
L 31.577069 42.121702 
L 31.63118 42.208137 
L 31.746166 42.155051 
L 31.759694 42.16742 
L 32.097889 42.078915 
L 32.108034 42.105757 
L 32.263604 42.233882 
L 32.27375 42.192148 
L 32.297423 42.157831 
L 32.341389 42.23334 
L 32.381972 42.213461 
L 32.50034 42.225232 
L 32.611944 42.142387 
L 32.51725 42.262879 
L 32.62209 42.188596 
L 32.750604 42.159168 
L 32.855445 42.212881 
L 32.86559 42.191921 
L 32.889264 42.214463 
L 32.990722 42.155799 
L 33.183493 42.194799 
L 33.305243 42.257724 
L 33.389792 42.179623 
L 33.423612 42.234439 
L 33.433757 42.188909 
L 33.531834 42.165151 
L 33.626528 42.102239 
L 33.66373 42.172368 
L 33.667112 42.183429 
L 33.741514 42.097682 
L 33.765188 42.130347 
L 33.842973 42.14855 
L 33.856501 42.20174 
L 33.880174 42.239957 
L 33.90723 42.166041 
L 33.964723 42.191315 
L 34.086473 42.152573 
L 34.120292 42.209907 
L 34.208223 42.19074 
L 34.171022 42.138655 
L 34.221751 42.174322 
L 34.313063 42.151751 
L 34.265716 42.221741 
L 34.340119 42.175693 
L 34.346883 42.220323 
L 34.434813 42.157292 
L 34.448341 42.18509 
L 34.451723 42.168181 
L 34.492307 42.270643 
L 34.5498 42.223766 
L 34.630966 42.282513 
L 34.661404 42.220382 
L 34.762862 42.139784 
L 34.783154 42.154322 
L 34.864321 42.147974 
L 34.789918 42.133455 
L 34.877848 42.100797 
L 34.894758 42.095352 
L 34.938723 42.211922 
L 34.955633 42.205616 
L 35.087529 42.320677 
L 35.161932 42.267502 
L 35.165314 42.25943 
L 35.266772 42.182207 
L 35.17546 42.261017 
L 35.2803 42.215243 
L 35.341175 42.195318 
L 35.398668 42.253211 
L 35.55762 42.157766 
L 35.561002 42.179237 
L 35.672606 42.227524 
L 35.598203 42.158335 
L 35.686134 42.198282 
L 35.80112 42.157256 
L 35.892432 42.21996 
L 35.92287 42.189136 
L 36.085203 42.055879 
L 35.966835 42.254105 
L 36.095349 42.068767 
L 36.196807 42.236485 
L 36.217099 42.183032 
L 36.291502 42.310252 
L 36.335467 42.217435 
L 36.40987 42.195162 
L 36.352377 42.263305 
L 36.447071 42.218688 
L 36.518092 42.299976 
L 36.463981 42.206158 
L 36.562058 42.235743 
L 36.65337 42.297379 
L 36.585731 42.207278 
L 36.67028 42.244863 
L 36.704099 42.282236 
L 36.781884 42.23866 
L 36.93069 42.277578 
L 36.798794 42.205501 
L 36.940836 42.234352 
L 37.025384 42.103802 
L 37.062586 42.158165 
L 37.262121 42.229566 
L 37.299322 42.292125 
L 37.356815 42.194436 
L 37.383871 42.102772 
L 37.444746 42.226316 
L 37.465037 42.202285 
L 37.475183 42.202528 
L 37.502239 42.112613 
L 37.525912 42.114457 
L 37.623989 42.055322 
L 37.640899 42.090729 
L 37.742357 42.233196 
L 37.766031 42.198107 
L 39.193212 42.130272 
L 39.29467 42.153016 
L 39.223649 42.085157 
L 39.308198 42.124001 
L 39.379219 42.065061 
L 39.423184 42.12127 
L 39.79858 41.995982 
L 39.900039 41.956711 
L 39.829018 42.02214 
L 39.910184 41.99926 
L 40.025171 41.995904 
L 39.92033 42.01 
L 40.028553 42.02001 
L 40.140157 42.077486 
L 40.167212 42.023548 
L 40.170594 42.009866 
L 40.258525 42.10372 
L 40.593338 42.051047 
L 40.681268 41.970234 
L 40.708324 42.009532 
L 40.924768 42.140072 
L 40.755671 41.925788 
L 40.94506 42.105455 
L 41.060046 42.028604 
L 41.063428 42.031706 
L 41.131067 42.046893 
L 41.164887 41.979188 
L 41.44897 42.082426 
L 41.452352 42.077064 
L 41.482789 42.03036 
L 41.523373 42.088351 
L 41.563956 42.075728 
L 41.651887 42.10648 
L 41.584248 42.018309 
L 41.67556 42.072229 
L 41.919061 41.965453 
L 41.682324 42.08462 
L 41.946116 42.033438 
L 42.017137 42.086185 
L 42.054338 41.997677 
L 42.05772 41.986908 
L 42.081394 42.071095 
L 42.149033 42.058494 
L 42.169325 42.007314 
L 42.17947 41.959548 
L 42.209908 41.939084 
L 42.253873 42.05096 
L 42.280929 41.993226 
L 42.328276 42.051595 
L 42.368859 41.942009 
L 42.385769 41.954058 
L 42.487228 41.954601 
L 42.43988 42.044328 
L 42.500755 41.969251 
L 42.598832 41.999791 
L 42.56163 41.939702 
L 42.61236 41.968664 
L 42.615742 41.969731 
L 42.639415 41.882368 
L 42.642797 41.880466 
L 42.73411 41.74832 
L 42.761165 41.838902 
L 42.893061 42.040031 
L 42.920117 42.00168 
L 42.974228 42.039784 
L 42.940408 42.050388 
L 42.987756 42.087196 
L 43.085832 42.112371 
L 43.112888 42.058491 
L 43.234638 41.963367 
L 43.254929 41.994212 
L 43.35977 42.000409 
L 43.329332 41.937271 
L 43.363152 41.977773 
L 43.508575 41.973805 
L 43.518721 41.9515 
L 43.555923 41.91016 
L 43.630325 41.951135 
L 43.823096 41.938696 
L 43.911027 42.022091 
L 43.938083 41.971226 
L 44.056451 41.817975 
L 44.080124 41.836515 
L 44.110562 41.895915 
L 44.181583 41.805302 
L 44.184965 41.813462 
L 44.242458 41.718932 
L 44.306715 41.757703 
L 44.357444 41.757969 
L 44.33377 41.676689 
L 44.404791 41.708205 
L 44.526541 41.634523 
L 44.414937 41.734812 
L 44.536687 41.658508 
L 44.560361 41.672475 
L 44.607708 41.610674 
L 44.638145 41.627653 
L 44.753132 41.583422 
L 44.712548 41.694219 
L 44.759895 41.595023 
L 44.935757 41.383345 
L 44.942521 41.391302 
L 44.952666 41.412272 
L 45.033833 41.292167 
L 45.037215 41.293126 
L 45.172493 41.313702 
L 45.199548 41.350992 
L 45.250278 41.239177 
L 45.277333 41.256799 
L 45.432903 41.113029 
L 45.301007 41.300476 
L 45.443049 41.143091 
L 45.561417 41.22415 
L 45.490396 41.132475 
L 45.571563 41.216176 
L 45.578326 41.194025 
L 45.662875 41.290598 
L 45.673021 41.256286 
L 45.774479 41.240708 
L 45.737278 41.143429 
L 45.777861 41.224907 
L 45.909757 41.095 
L 45.791389 41.231954 
L 45.913139 41.123129 
L 46.302063 40.693587 
L 46.315591 40.724121 
L 46.318973 40.728456 
L 46.352792 40.648455 
L 46.400139 40.662475 
L 46.525271 40.607464 
L 46.457632 40.708051 
L 46.532035 40.610121 
L 46.633494 40.515749 
L 46.728188 40.489671 
L 46.687605 40.543945 
L 46.74848 40.505152 
L 46.795827 40.503118 
L 46.819501 40.445379 
L 46.83641 40.447153 
L 46.843174 40.426457 
L 46.910813 40.564305 
L 46.914195 40.563857 
L 46.931105 40.59883 
L 47.002126 40.491263 
L 47.015654 40.499046 
L 47.103584 40.385969 
L 47.21857 40.323666 
L 47.23548 40.352843 
L 47.245626 40.347952 
L 47.360612 40.458005 
L 47.506036 40.180039 
L 47.509418 40.184157 
L 48.067439 39.793707 
L 47.526328 40.218268 
L 48.074203 39.840595 
L 48.13846 39.903863 
L 48.185807 39.838439 
L 48.189189 39.843291 
L 48.2433 39.728791 
L 48.324467 39.795735 
L 48.371814 39.857898 
L 48.436071 39.81729 
L 48.449599 39.830659 
L 48.510474 39.732471 
L 48.52062 39.741122 
L 48.540911 39.730788 
L 48.567967 39.654359 
L 48.689717 39.532945 
L 48.699863 39.560433 
L 48.767502 39.426529 
L 48.787793 39.449884 
L 48.916307 39.304061 
L 49.000856 39.319693 
L 48.960273 39.282843 
L 49.02453 39.281044 
L 49.311995 39.064726 
L 49.315377 39.074322 
L 49.35596 39.10978 
L 49.413454 39.023767 
L 49.416835 39.024233 
L 49.538586 38.928086 
L 49.704301 38.548754 
L 49.89369 37.204435 
L 49.913982 32.451228 
L 49.924127 27.121226 
L 49.995148 39.965915 
L 50.01544 39.81315 
L 50.167628 36.77361 
L 50.184537 27.889269 
L 50.252176 40.338274 
L 50.25894 40.359594 
L 50.289378 39.903192 
L 50.424655 35.865298 
L 50.434801 28.253328 
L 50.509204 40.400187 
L 50.526114 40.166073 
L 50.668156 36.580563 
L 50.681683 28.382903 
L 50.752704 40.456616 
L 50.759468 40.427618 
L 50.915038 36.483471 
L 50.928565 28.35553 
L 50.999586 40.568188 
L 51.009732 40.484834 
L 51.172066 35.618041 
L 51.182211 28.238951 
L 51.253232 40.728175 
L 51.276906 40.448483 
L 51.439239 36.081237 
L 51.452767 28.176997 
L 51.523788 40.881046 
L 51.540698 40.721193 
L 51.723323 36.59276 
L 51.736851 27.919422 
L 51.811253 41.054414 
L 51.814635 41.031529 
L 51.87551 40.236231 
L 52.03108 36.991061 
L 52.04799 27.775711 
L 52.108865 39.641396 
L 52.125774 41.200745 
L 52.220469 40.025565 
L 52.382802 34.747289 
L 52.392948 27.685681 
L 52.470733 41.297934 
L 52.487643 41.141598 
L 52.758198 35.852205 
L 52.771726 27.713339 
L 52.842747 41.320461 
L 52.859657 41.249049 
L 53.167414 36.123039 
L 53.180942 27.608776 
L 53.255345 41.368839 
L 53.26549 41.308212 
L 53.580011 37.83227 
L 53.620595 36.400439 
L 53.637504 27.772312 
L 53.708525 41.326978 
L 53.711907 41.318571 
L 53.766018 40.839517 
L 54.050102 37.920175 
L 54.097449 37.336556 
L 54.117741 35.232852 
L 54.131269 27.900005 
L 54.205671 41.236485 
L 54.219199 41.116402 
L 54.618269 36.479299 
L 54.635179 27.952313 
L 54.702818 41.205189 
L 54.706199 41.253027 
L 54.773838 40.69041 
L 55.101887 37.938683 
L 55.206728 36.439733 
L 55.227019 28.414977 
L 55.287894 40.906573 
L 55.294658 41.013502 
L 55.372443 40.35079 
L 55.470519 39.376498 
L 55.683582 37.902603 
L 55.78504 36.598654 
L 55.808714 28.5221 
L 55.859443 40.346646 
L 55.879735 41.011165 
L 55.967665 40.216189 
L 56.278805 37.936497 
L 56.282186 37.94697 
L 56.329534 37.7364 
L 56.407318 36.984616 
L 56.42761 33.904767 
L 56.441138 28.836979 
L 56.508777 40.891321 
L 56.525687 40.794738 
L 56.559506 40.519954 
L 56.803006 38.606401 
L 57.049888 37.791321 
L 57.05327 37.793142 
L 57.205458 38.042993 
L 57.401611 38.48102 
L 57.408375 38.47123 
L 57.533507 39.081316 
L 57.699222 40.998203 
L 57.746569 41.094606 
L 58.270771 42.256863 
L 58.429722 42.278399 
L 58.287681 42.215333 
L 58.44325 42.255818 
L 58.487215 42.219962 
L 58.541327 42.302858 
L 58.615729 42.388597 
L 58.663077 42.364439 
L 58.740861 42.338241 
L 58.707042 42.38535 
L 58.778063 42.357408 
L 58.838938 42.293634 
L 58.882903 42.389424 
L 58.913341 42.358882 
L 59.001271 42.40097 
L 59.08582 42.350028 
L 59.116257 42.395492 
L 59.119639 42.408425 
L 59.19066 42.311777 
L 59.214334 42.331807 
L 59.43416 42.381669 
L 59.440924 42.34956 
L 59.579584 42.256297 
L 59.46798 42.370101 
L 59.586348 42.262921 
L 59.653987 42.344155 
L 59.708098 42.311593 
L 59.97189 42.259262 
L 59.985418 42.297327 
L 60.039529 42.231101 
L 60.080112 42.238576 
L 60.19848 42.267461 
L 60.212008 42.247079 
L 60.289793 42.259263 
L 60.249209 42.332951 
L 60.310084 42.297913 
L 60.316848 42.310525 
L 60.384487 42.194446 
L 60.404779 42.243457 
L 60.448744 42.172771 
L 60.516383 42.19629 
L 60.523147 42.224215 
L 60.543439 42.146094 
L 60.621224 42.160042 
L 60.631369 42.145861 
L 60.665189 42.26641 
L 60.705772 42.234325 
L 60.726064 42.298734 
L 60.793703 42.169532 
L 60.810613 42.195447 
L 60.871488 42.146759 
L 60.956036 42.239457 
L 60.972946 42.2459 
L 61.091314 42.16686 
L 61.192772 42.235523 
L 61.158953 42.147956 
L 61.202918 42.195538 
L 61.209682 42.175744 
L 61.253647 42.285572 
L 61.300995 42.235358 
L 61.348342 42.243771 
L 61.375398 42.184589 
L 61.402453 42.2109 
L 61.520821 42.157915 
L 61.432891 42.249636 
L 61.524203 42.171958 
L 61.716974 42.308273 
L 61.737266 42.236548 
L 61.862398 42.196878 
L 61.889453 42.245333 
L 61.936801 42.163271 
L 61.97062 42.203885 
L 62.024731 42.109515 
L 62.09237 42.167319 
L 62.119426 42.136019 
L 62.176919 42.241868 
L 62.261467 42.260442 
L 62.295287 42.22505 
L 62.332488 42.196286 
L 62.406891 42.235209 
L 62.484676 42.248829 
L 62.444093 42.184296 
L 62.511732 42.191574 
L 62.626718 42.139483 
L 62.528641 42.205005 
L 62.6301 42.148333 
L 62.636864 42.1233 
L 62.674065 42.211577 
L 62.71803 42.209886 
L 62.765377 42.232909 
L 62.822871 42.172843 
L 62.833016 42.148277 
L 62.900655 42.271338 
L 62.924329 42.219925 
L 62.948003 42.245129 
L 62.931093 42.213193 
L 63.029169 42.18794 
L 63.039315 42.168006 
L 63.1171 42.283142 
L 63.123864 42.279227 
L 63.188121 42.181679 
L 63.140774 42.299456 
L 63.262524 42.218075 
L 63.292961 42.276119 
L 63.3606 42.153956 
L 63.384274 42.107787 
L 63.495878 42.135421 
L 63.58719 42.118111 
L 63.560135 42.204586 
L 63.607482 42.144748 
L 63.729232 42.235531 
L 63.63792 42.119789 
L 63.746142 42.171581 
L 63.830691 42.178808 
L 63.796871 42.205891 
L 63.844218 42.218144 
L 64.151975 42.195534 
L 64.21285 42.099104 
L 64.266962 42.180363 
L 64.324455 42.249206 
L 64.395476 42.188259 
L 64.713379 42.270076 
L 64.723524 42.198906 
L 64.835129 42.174945 
L 64.764108 42.225459 
L 64.838511 42.19117 
L 64.868948 42.257194 
L 64.950115 42.21302 
L 65.071865 42.131691 
L 64.970406 42.237794 
L 65.105684 42.169104 
L 65.224052 42.172581 
L 65.129358 42.106923 
L 65.234198 42.159482 
L 65.288309 42.111598 
L 65.244344 42.164581 
L 65.342421 42.161614 
L 65.450643 42.269759 
L 65.474316 42.204422 
L 65.832803 42.125991 
L 65.924115 42.098571 
L 65.866622 42.181317 
L 65.941025 42.147484 
L 65.981608 42.081367 
L 66.052629 42.163869 
L 66.177761 42.202615 
L 66.062775 42.157542 
L 66.181143 42.199434 
L 66.313039 42.034844 
L 66.316421 42.03866 
L 66.36715 42.175684 
L 66.438171 42.075474 
L 66.600505 42.196391 
L 66.624178 42.148714 
L 66.664762 42.123295 
L 66.641088 42.195291 
L 66.718873 42.192227 
L 66.769602 42.216287 
L 66.813567 42.135355 
L 66.816949 42.140298 
L 66.962373 42.151803 
L 67.063831 42.274357 
L 67.080741 42.238758 
L 67.144998 42.287771 
L 67.188963 42.224392 
L 67.212637 42.184697 
L 67.23631 42.246483 
L 67.28704 42.251334 
L 67.290422 42.274657 
L 67.371588 42.103966 
L 67.381734 42.130732 
L 67.479811 42.167653 
L 67.486574 42.185066 
L 67.567741 42.222423 
L 67.608325 42.174537 
L 67.665818 42.117683 
L 67.709783 42.205118 
L 67.719929 42.164324 
L 67.804477 42.217882 
L 67.730075 42.152002 
L 67.831533 42.165668 
L 67.89579 42.093359 
L 67.932991 42.202288 
L 67.936373 42.214843 
L 68.01754 42.147748 
L 68.03445 42.162718 
L 68.105471 42.1186 
L 68.041214 42.169916 
L 68.146054 42.159578 
L 68.27795 42.248317 
L 68.284714 42.231178 
L 68.470721 42.128255 
L 68.321915 42.262997 
L 68.474103 42.143297 
L 68.633054 42.248043 
L 68.497776 42.130899 
L 68.636436 42.229782 
L 68.761568 42.185335 
L 68.913756 42.278079 
L 68.934048 42.234529 
L 68.937429 42.202889 
L 69.028742 42.29048 
L 69.04227 42.247722 
L 69.16402 42.174244 
L 69.05918 42.27743 
L 69.177548 42.210142 
L 69.18093 42.225907 
L 69.26886 42.12851 
L 69.282388 42.170662 
L 69.525888 42.137645 
L 69.532652 42.157722 
L 69.654402 42.206159 
L 69.627346 42.115903 
L 69.657784 42.193687 
L 69.782916 42.144352 
L 69.681458 42.218234 
L 69.786298 42.152284 
L 69.78968 42.192317 
L 69.877611 42.107325 
L 69.891138 42.11425 
L 69.914812 42.15465 
L 70.006124 42.105307 
L 70.151548 42.207189 
L 70.15493 42.18527 
L 70.313882 42.085818 
L 70.320645 42.096461 
L 70.324027 42.112332 
L 70.388284 42.001467 
L 70.428868 42.07438 
L 70.510034 41.996638 
L 70.462687 42.08307 
L 70.540472 42.061865 
L 70.702805 42.131051 
L 70.709569 42.123305 
L 70.858375 41.996884 
L 71.027472 42.09558 
L 70.865139 41.987403 
L 71.030854 42.081656 
L 71.169514 42.003239 
L 71.240535 41.976584 
L 71.274354 42.026025 
L 71.277736 42.02397 
L 71.369049 42.048879 
L 71.308174 42.084927 
L 71.375813 42.073362 
L 71.507709 42.154296 
L 71.453597 42.02871 
L 71.511091 42.145993 
L 71.626077 42.034407 
L 71.632841 42.066536 
L 71.710625 42.039141 
L 71.66666 42.111364 
L 71.730917 42.114534 
L 71.744445 42.166799 
L 71.842521 42.119787 
L 71.930452 42.040205 
L 71.960889 42.084062 
L 72.06573 42.165043 
L 71.991327 42.052156 
L 72.075876 42.11077 
L 72.17057 42.088667 
L 72.126605 42.14499 
L 72.180716 42.129942 
L 72.190862 42.155087 
L 72.261883 42.0363 
L 72.27541 42.068103 
L 72.400542 41.885005 
L 72.420834 41.925162 
L 72.444508 41.984975 
L 72.471563 41.905375 
L 72.532438 41.934373 
L 72.833432 42.153695 
L 72.586549 41.858023 
L 72.877397 42.09429 
L 72.968709 42.080285 
L 72.90107 42.119387 
L 72.982237 42.120667 
L 73.043112 42.125361 
L 73.066786 42.061669 
L 73.087078 42.084541 
L 73.374543 41.922391 
L 73.384689 41.945325 
L 73.519967 42.058696 
L 73.533494 42.024034 
L 73.685682 41.94815 
L 73.695828 41.958104 
L 73.729647 41.973889 
L 73.756703 41.904911 
L 73.797286 41.917038 
L 73.824342 41.88849 
L 73.851397 41.958337 
L 73.895363 41.954029 
L 73.986675 42.046563 
L 74.013731 41.994497 
L 74.128717 41.954399 
L 74.108425 42.011848 
L 74.132099 41.957659 
L 74.274141 42.079511 
L 74.284287 42.048607 
L 74.297814 42.053056 
L 74.42971 41.927975 
L 74.436474 41.966888 
L 74.483821 41.889857 
L 74.537932 41.904661 
L 74.548078 41.870428 
L 74.575134 41.939935 
L 74.642773 41.91972 
L 74.750995 41.996577 
L 74.767905 41.948433 
L 74.937002 41.787647 
L 74.953912 41.808467 
L 75.065516 41.863677 
L 74.970822 41.797475 
L 75.068898 41.861174 
L 75.234613 42.015989 
L 75.241377 41.988626 
L 75.363127 41.904942 
L 75.45444 41.938364 
L 75.369891 41.896628 
L 75.484877 41.90255 
L 75.495023 41.875319 
L 75.532225 41.975496 
L 75.586336 41.956158 
L 75.599864 41.968663 
L 75.68103 41.881371 
L 75.900857 41.951636 
L 75.907621 41.934602 
L 76.022607 41.884781 
L 75.944822 41.945027 
L 76.025989 41.88885 
L 76.032753 41.920747 
L 76.103774 41.771536 
L 76.107156 41.77763 
L 76.161267 41.757872 
L 76.20185 41.875291 
L 76.330364 41.840317 
L 76.35742 41.891917 
L 76.360802 41.918001 
L 76.408149 41.827428 
L 76.465642 41.880496 
L 76.570482 41.727302 
L 76.597538 41.769609 
L 76.732816 41.651674 
L 76.607684 41.777243 
L 76.749725 41.676164 
L 76.841038 41.577267 
L 77.003371 41.366011 
L 77.037191 41.316152 
L 77.091302 41.401502 
L 77.114976 41.357198 
L 77.196142 41.481327 
L 77.24349 41.416318 
L 77.246871 41.398097 
L 77.307747 41.485996 
L 77.34833 41.432837 
L 77.351712 41.448697 
L 77.432879 41.353898 
L 77.449788 41.381123 
L 77.561392 41.312476 
L 77.581684 41.372187 
L 77.635795 41.433408 
L 77.59183 41.359414 
L 77.689906 41.36042 
L 77.85224 41.165499 
L 77.899587 41.105025 
L 77.967226 41.161576 
L 77.9909 41.126222 
L 78.088976 41.267562 
L 78.420407 41.158866 
L 78.548921 40.99301 
L 78.555685 40.997473 
L 78.589504 41.045297 
L 78.623324 40.937943 
L 78.650379 40.947623 
L 78.758601 40.918376 
L 78.775511 40.931647 
L 79.932137 40.170759 
L 79.935519 40.187349 
L 80.050505 40.285516 
L 80.064033 40.280908 
L 80.084324 40.293368 
L 80.195929 40.09816 
L 80.243276 40.143328 
L 80.304151 40.070114 
L 80.405609 39.993586 
L 80.422519 40.047208 
L 80.449575 40.038825 
L 80.45972 39.973625 
L 80.469866 39.969041 
L 80.561179 39.889982 
L 80.581471 39.92667 
L 80.605144 39.967924 
L 80.645727 39.879383 
L 80.682929 39.882605 
L 80.838498 39.589257 
L 80.89261 39.605761 
L 80.916283 39.539459 
L 80.943339 39.584476 
L 80.973776 39.547423 
L 81.038033 39.647596 
L 81.048179 39.622019 
L 81.081999 39.624451 
L 81.112436 39.539831 
L 81.251096 39.37355 
L 81.278151 39.421183 
L 81.315353 39.31618 
L 81.352554 39.316894 
L 81.413429 39.307857 
L 81.393138 39.275759 
L 81.437103 39.25053 
L 81.528415 39.146667 
L 81.555471 39.155906 
L 82.028944 38.640079 
L 82.045853 38.655509 
L 82.177749 38.323912 
L 82.187895 38.339449 
L 82.235242 38.196191 
L 82.238624 38.197531 
L 82.346846 36.795807 
L 82.37052 27.238248 
L 82.428013 39.472305 
L 82.444923 39.944396 
L 82.529472 38.814351 
L 82.617402 36.144878 
L 82.63093 27.875253 
L 82.701951 40.369749 
L 82.718861 40.185226 
L 82.871048 36.352462 
L 82.884576 28.164459 
L 82.955597 40.448852 
L 82.969125 40.302501 
L 83.121312 36.312841 
L 83.13484 28.326987 
L 83.205861 40.491672 
L 83.219389 40.355481 
L 83.374958 35.187791 
L 83.385104 28.317596 
L 83.456125 40.60457 
L 83.479798 40.297369 
L 83.628604 36.524274 
L 83.642132 28.178968 
L 83.713153 40.76737 
L 83.723299 40.698976 
L 83.885632 37.561903 
L 83.905924 35.301185 
L 83.91607 28.018023 
L 83.990472 40.946528 
L 84.010764 40.699889 
L 84.196771 36.572118 
L 84.210299 27.880003 
L 84.284702 41.086658 
L 84.288084 41.073283 
L 84.36925 40.000488 
L 84.518056 36.012219 
L 84.528202 27.803127 
L 84.605987 41.232208 
L 84.619514 41.111728 
L 84.812285 38.293224 
L 84.869778 35.600481 
L 84.879924 27.635002 
L 84.957709 41.33193 
L 84.971237 41.222289 
L 85.248556 37.111341 
L 85.268848 27.64694 
L 85.326341 39.423201 
L 85.346633 41.337657 
L 85.437945 40.391118 
L 85.681446 35.324927 
L 85.691591 27.699295 
L 85.765994 41.343875 
L 85.782904 41.246621 
L 86.14139 35.496696 
L 86.154918 27.748227 
L 86.229321 41.329076 
L 86.242849 41.217593 
L 86.367981 39.940258 
L 86.6453 36.054356 
L 86.658828 28.008953 
L 86.733231 41.200139 
L 86.739995 41.161472 
L 87.051134 38.222042 
L 87.162738 36.529113 
L 87.18303 28.068256 
L 87.243905 41.086865 
L 87.254051 41.220344 
L 87.328453 40.544659 
L 87.747815 35.370806 
L 87.761342 28.345252 
L 87.832363 41.059237 
L 87.845891 41.011804 
L 88.370093 35.040417 
L 88.383621 28.809806 
L 88.461405 40.884227 
L 88.468169 40.854371 
L 88.945024 37.719363 
L 89.002517 37.794349 
L 89.022808 37.778395 
L 89.273072 38.313981 
L 89.313656 38.340154 
L 89.323802 38.393239 
L 89.44217 38.649852 
L 89.469225 38.615308 
L 89.475989 38.610111 
L 89.678906 39.670221 
L 89.851385 41.237546 
L 90.257219 42.236131 
L 90.277511 42.208495 
L 90.280892 42.189427 
L 90.372205 42.286065 
L 90.375587 42.27554 
L 90.456754 42.367766 
L 90.493955 42.300278 
L 90.646143 42.372085 
L 90.649525 42.360531 
L 90.754365 42.283939 
L 90.703636 42.385716 
L 90.771275 42.318403 
L 90.906553 42.384119 
L 90.784802 42.303281 
L 90.923462 42.374693 
L 91.024921 42.313944 
L 91.04183 42.351508 
L 91.062122 42.323865 
L 91.068886 42.360821 
" clip-path="url(#pefc00bc5ec)" style="fill: none; stroke: #000000; stroke-width: 0.6; stroke-linecap: square"/>
   </g>
   <g id="line2d_3">
    <path d="M 9.905557 60.577089 
L 9.939376 60.597266 
L 10.010397 60.549427 
L 10.013779 60.552151 
L 10.132147 60.563148 
L 10.040835 60.524348 
L 10.135529 60.560399 
L 10.149057 60.590245 
L 10.504162 60.421407 
L 10.514307 60.451273 
L 10.598856 60.331695 
L 10.723988 60.294175 
L 10.619148 60.377176 
L 10.72737 60.308752 
L 10.734134 60.342002 
L 10.757807 60.260646 
L 10.838974 60.306666 
L 10.95396 60.400124 
L 10.964106 60.377337 
L 11.055419 60.260223 
L 11.085856 60.288259 
L 11.153495 60.239701 
L 11.163641 60.204431 
L 11.234662 60.247716 
L 11.278627 60.199736 
L 11.383468 60.242992 
L 11.288773 60.192774 
L 11.393613 60.22336 
L 11.488308 60.226738 
L 11.447725 60.278695 
L 11.498454 60.246812 
L 11.505218 60.265424 
L 11.525509 60.200663 
L 11.589766 60.190624 
L 11.701371 60.118265 
L 11.731808 60.17219 
L 11.907669 60.111762 
L 12.056475 60.001017 
L 11.917815 60.118144 
L 12.070003 60.018355 
L 12.279683 59.998474 
L 12.283065 59.988523 
L 12.404815 59.90848 
L 12.496128 59.89994 
L 12.455545 59.865238 
L 12.506274 59.877604 
L 12.519802 59.840586 
L 12.573913 59.954192 
L 12.60435 59.921338 
L 12.614496 59.934493 
L 12.685517 59.807926 
L 13.000038 59.747347 
L 13.12517 59.673248 
L 13.324705 59.479889 
L 13.331469 59.508279 
L 13.382198 59.442297 
L 13.436309 59.488849 
L 13.578351 59.427192 
L 13.456601 59.504722 
L 13.581733 59.443283 
L 13.585115 59.452694 
L 13.622316 59.361544 
L 13.673045 59.38162 
L 13.740684 59.262518 
L 13.679809 59.386567 
L 13.788031 59.376607 
L 13.845524 59.408982 
L 13.882726 59.317332 
L 13.886108 59.3253 
L 14.11608 59.296759 
L 14.210775 59.251681 
L 14.231066 59.277112 
L 14.322379 59.206157 
L 14.379872 59.14708 
L 14.332525 59.218693 
L 14.433983 59.212223 
L 14.447511 59.237508 
L 14.657192 59.175447 
L 14.660574 59.217095 
L 14.72483 59.1446 
L 14.765414 59.176355 
L 14.8804 59.106064 
L 14.77556 59.181101 
L 14.89731 59.14075 
L 14.914219 59.154952 
L 14.964949 59.05043 
L 15.100227 58.926172 
L 15.188157 58.951455 
L 15.10699 58.909849 
L 15.208449 58.878683 
L 15.336963 58.796406 
L 15.221977 58.885685 
L 15.343727 58.824769 
L 15.468859 58.890752 
L 15.495914 58.932714 
L 15.563553 58.797174 
L 15.729269 58.706354 
L 15.583845 58.813755 
L 15.736032 58.732965 
L 15.746178 58.751526 
L 15.796907 58.651102 
L 15.827345 58.669046 
L 15.945713 58.57305 
L 15.976151 58.611055 
L 16.016734 58.690862 
L 16.094519 58.651673 
L 16.097901 58.663777 
L 16.16554 58.520453 
L 16.172303 58.524287 
L 16.395512 58.383776 
L 16.432713 58.427835 
L 16.534172 58.509122 
L 16.466533 58.409193 
L 16.5477 58.479957 
L 17.257908 58.237031 
L 17.352603 58.261125 
L 17.2782 58.21695 
L 17.369512 58.231207 
L 17.511554 58.079453 
L 17.619777 58.043554 
L 17.548756 58.103867 
L 17.623158 58.047387 
L 17.673888 58.071784 
L 17.700943 58.012775 
L 17.724617 58.008687 
L 17.839603 57.938264 
L 17.734763 58.013308 
L 17.856513 57.951942 
L 17.947825 58.047754 
L 17.978263 58.000505 
L 18.191325 58.017147 
L 18.326603 57.788476 
L 18.329985 57.795935 
L 18.465263 57.884874 
L 18.343513 57.75965 
L 18.472027 57.875586 
L 18.505846 57.900425 
L 18.590395 57.859344 
L 18.752729 57.947316 
L 18.766256 57.884407 
L 18.820367 57.816504 
L 18.877861 57.860291 
L 18.982701 57.90984 
L 18.996229 57.868021 
L 19.307368 57.611044 
L 19.327659 57.691798 
L 19.456173 57.71114 
L 19.347951 57.635414 
L 19.462937 57.696785 
L 19.466319 57.679603 
L 19.533958 57.795798 
L 19.557632 57.787478 
L 19.753785 57.575522 
L 19.584687 57.808711 
L 19.770694 57.604994 
L 19.777458 57.615352 
L 19.811278 57.528569 
L 19.855243 57.526124 
L 19.956701 57.550364 
L 19.865389 57.546541 
L 19.963465 57.569984 
L 20.017576 57.602404 
L 20.061542 57.50241 
L 20.250931 57.631368 
L 20.288132 57.581235 
L 20.399736 57.530348 
L 20.298278 57.586759 
L 20.413264 57.563808 
L 20.511341 57.556151 
L 20.453847 57.491395 
L 20.521486 57.542719 
L 20.660146 57.599147 
L 20.687202 57.55326 
L 20.819098 57.426665 
L 21.008487 57.398027 
L 21.235077 57.248655 
L 21.279042 57.208717 
L 21.339917 57.30659 
L 21.454904 57.189906 
L 21.465049 57.215889 
L 21.593563 57.149235 
L 21.610473 57.193277 
L 21.661202 57.075049 
L 21.725459 57.206732 
L 21.860737 57.081552 
L 21.884411 57.097366 
L 21.914848 57.007382 
L 21.965577 57.054186 
L 22.083946 56.874853 
L 22.094091 56.889815 
L 22.124529 56.923021 
L 22.171876 56.813096 
L 22.185404 56.818896 
L 22.263189 56.75443 
L 22.198932 56.823866 
L 22.30039 56.808909 
L 22.368029 56.87713 
L 22.313918 56.803602 
L 22.42214 56.846024 
L 22.435668 56.811887 
L 22.479633 56.893798 
L 22.526981 56.885367 
L 22.648731 56.841109 
L 22.54389 56.908186 
L 22.652113 56.847941 
L 22.740043 56.881624 
L 22.729897 56.822473 
L 22.767099 56.867103 
L 22.92605 56.830103 
L 23.074856 56.652736 
L 23.149259 56.713693 
L 23.189842 56.689084 
L 23.284537 56.601376 
L 23.20337 56.718835 
L 23.311592 56.632799 
L 23.656551 56.162438 
L 23.754627 55.564875 
L 23.788447 54.349441 
L 23.805356 43.894045 
L 23.893287 55.945148 
L 23.903433 56.088944 
L 23.991363 55.580743 
L 24.065766 53.955985 
L 24.079294 46.491563 
L 24.153697 56.296254 
L 24.167225 56.217528 
L 24.305884 53.701512 
L 24.319412 46.307527 
L 24.393815 56.612447 
L 24.407343 56.488791 
L 24.546003 54.484332 
L 24.562912 45.81945 
L 24.633933 56.997125 
L 24.637315 57.033938 
L 24.691426 56.479519 
L 24.813176 54.359577 
L 24.826704 45.324721 
L 24.907871 57.464728 
L 24.972128 56.753361 
L 25.107406 54.353639 
L 25.120933 44.961312 
L 25.2021 57.80982 
L 25.205482 57.817729 
L 25.225774 57.617667 
L 25.438836 53.029349 
L 25.448982 44.771564 
L 25.533531 58.051816 
L 25.543677 57.988658 
L 25.797323 54.126657 
L 25.807468 44.649325 
L 25.895399 58.188541 
L 25.898781 58.158896 
L 26.020531 56.871525 
L 26.182865 54.208 
L 26.196392 44.562186 
L 26.280941 58.269388 
L 26.345198 57.642914 
L 26.598844 54.626074 
L 26.612372 44.491374 
L 26.686774 57.109794 
L 26.700302 58.30233 
L 26.798379 57.340829 
L 27.028351 55.141049 
L 27.045261 52.521139 
L 27.055407 44.485176 
L 27.139955 58.307825 
L 27.150101 58.234352 
L 27.508587 54.253937 
L 27.522115 44.395394 
L 27.606664 58.265591 
L 27.660775 57.766746 
L 27.873838 56.122777 
L 27.87722 56.124412 
L 27.890747 56.018057 
L 27.96515 55.348687 
L 27.988824 53.726688 
L 27.99897 44.39011 
L 28.0869 58.236449 
L 28.093664 58.20749 
L 28.387893 55.950956 
L 28.472442 54.957065 
L 28.48597 51.940139 
L 28.496116 44.447294 
L 28.577282 58.202437 
L 28.59081 58.128019 
L 28.895185 55.891382 
L 28.983116 54.223071 
L 28.996644 44.380763 
L 29.077811 58.174682 
L 29.081192 58.164023 
L 29.257054 56.684989 
L 29.497172 53.639781 
L 29.507318 44.376832 
L 29.591866 58.154267 
L 29.602012 58.077112 
L 29.7542 56.771481 
L 30.01461 54.123292 
L 30.028137 44.371473 
L 30.109304 58.117293 
L 30.112686 58.111296 
L 30.231054 57.057394 
L 30.542193 53.010825 
L 30.552339 44.367635 
L 30.633506 58.075134 
L 30.647034 58.014139 
L 30.870242 56.26214 
L 31.012284 55.436662 
L 31.046103 53.738204 
L 31.056249 44.418805 
L 31.140798 58.11951 
L 31.147562 58.073341 
L 31.347096 56.509025 
L 31.566923 54.369863 
L 31.580451 44.379945 
L 31.658236 58.020535 
L 31.664999 58.099652 
L 31.739402 57.408676 
L 32.108034 54.868654 
L 32.121562 49.976513 
L 32.128326 44.31312 
L 32.209493 58.054377 
L 32.226403 57.960126 
L 32.490194 56.177002 
L 32.659292 54.659949 
L 32.676201 44.356625 
L 32.74384 56.604875 
L 32.76075 58.029976 
L 32.855445 57.141451 
L 33.105709 55.880546 
L 33.156438 55.705881 
L 33.213931 54.488885 
L 33.230841 44.359986 
L 33.301861 57.684833 
L 33.312007 58.008752 
L 33.40332 57.200145 
L 33.585945 56.119269 
L 33.589327 56.127041 
L 33.738133 55.005493 
L 33.755042 49.565902 
L 33.761806 44.320036 
L 33.846355 58.034597 
L 33.856501 57.960138 
L 34.211605 55.834084 
L 34.214987 55.839247 
L 34.319827 54.960721 
L 34.336737 48.412204 
L 34.343501 44.34341 
L 34.424668 57.916784 
L 34.438195 57.819469 
L 34.749334 55.905957 
L 34.752716 55.915607 
L 34.840647 55.466271 
L 34.877848 54.186043 
L 34.891376 44.375344 
L 34.972543 57.924114 
L 34.975925 57.92271 
L 35.050328 57.246248 
L 35.253244 56.095049 
L 35.256626 56.104036 
L 35.310738 55.938691 
L 35.412196 55.172792 
L 35.432488 53.097904 
L 35.442633 44.359146 
L 35.5238 57.928927 
L 35.537328 57.850628 
L 35.936398 55.902978 
L 35.93978 55.905939 
L 35.943161 55.917208 
L 36.007418 55.768009 
L 36.014182 55.767922 
L 36.13255 54.03665 
L 36.146078 44.643762 
L 36.227245 57.769954 
L 36.230627 57.766065 
L 36.420016 56.932084 
L 36.447071 56.959449 
L 36.626315 57.915356 
L 36.981419 59.825851 
L 36.984801 59.818831 
L 37.292558 60.56119 
L 37.299322 60.54556 
L 37.306086 60.528149 
L 37.343287 60.620808 
L 37.377107 60.632168 
L 37.509003 60.798459 
L 37.519148 60.79583 
L 37.627371 60.705624 
L 37.651044 60.716598 
L 37.708537 60.75628 
L 37.674718 60.701039 
L 37.762649 60.728257 
L 38.53035 60.777187 
L 38.621663 60.753335 
L 38.584462 60.825886 
L 38.638573 60.801993 
L 38.777232 60.718082 
L 38.68592 60.872077 
L 38.797524 60.785683 
L 38.827962 60.857514 
L 38.888837 60.738958 
L 38.892219 60.74212 
L 38.936184 60.688459 
L 38.976767 60.770968 
L 39.003823 60.743051 
L 39.115427 60.703134 
L 39.03426 60.776465 
L 39.122191 60.710619 
L 39.237177 60.762672 
L 39.149247 60.70168 
L 39.240559 60.751534 
L 39.365691 60.713858 
L 39.372455 60.722974 
L 39.460386 60.788157 
L 39.490823 60.759506 
L 39.703886 60.823536 
L 39.511115 60.716792 
L 39.71065 60.789166 
L 39.79858 60.749748 
L 39.829018 60.792413 
L 39.856073 60.814856 
L 39.916948 60.68244 
L 39.92033 60.70734 
L 40.038698 60.670458 
L 40.04208 60.679362 
L 40.102955 60.822811 
L 40.18074 60.750816 
L 40.272053 60.674486 
L 40.299108 60.71868 
L 40.316018 60.75693 
L 40.410713 60.709662 
L 40.444532 60.69908 
L 40.498643 60.788597 
L 40.512171 60.753497 
L 40.620393 60.788753 
L 40.522317 60.747357 
L 40.630539 60.760633 
L 40.731997 60.729063 
L 40.66774 60.802616 
L 40.742143 60.762451 
L 40.826692 60.805562 
L 40.772581 60.802795 
L 40.833456 60.814118 
L 40.84022 60.824031 
L 40.870657 60.717121 
L 40.92815 60.760221 
L 40.951824 60.676964 
L 41.026227 60.77631 
L 41.039755 60.749315 
L 41.080338 60.838289 
L 41.161505 60.757119 
L 41.445588 60.694147 
L 41.17165 60.776945 
L 41.452352 60.71665 
L 41.516609 60.687149 
L 41.57072 60.756725 
L 41.69247 60.692079 
L 41.699234 60.696101 
L 41.753345 60.767354 
L 41.817602 60.750581 
L 41.888623 60.702153 
L 41.827748 60.772597 
L 41.939352 60.728229 
L 42.05772 60.745977 
L 41.946116 60.707276 
L 42.061102 60.740593 
L 42.084776 60.760713 
L 42.189616 60.663996 
L 42.280929 60.706723 
L 42.294457 60.639669 
L 42.297839 60.627998 
L 42.341804 60.718124 
L 42.382387 60.72126 
L 42.460172 60.73512 
L 42.412825 60.677087 
L 42.487228 60.674233 
L 42.59545 60.663692 
L 42.558248 60.743639 
L 42.605596 60.681967 
L 42.622505 60.710929 
L 42.696908 60.620594 
L 43.011429 60.782697 
L 43.024957 60.744887 
L 43.041867 60.724747 
L 43.068922 60.796202 
L 43.112888 60.813114 
L 43.170381 60.714342 
L 43.254929 60.774954 
L 43.288749 60.706335 
L 43.373297 60.790908 
L 43.298895 60.700221 
L 43.407117 60.71499 
L 43.630325 60.531255 
L 43.840006 60.619718 
L 43.897499 60.5672 
L 43.948228 60.621248 
L 43.988812 60.676799 
L 44.059833 60.604097 
L 44.184965 60.516947 
L 44.262749 60.497599 
L 44.22893 60.420864 
L 44.276277 60.473022 
L 44.36759 60.353418 
L 44.394645 60.388677 
L 44.441992 60.430312 
L 44.421701 60.361986 
L 44.513013 60.374272 
L 44.607708 60.403356 
L 44.546833 60.450003 
L 44.61109 60.427102 
L 44.665201 60.541305 
L 44.73284 60.515055 
L 44.851208 60.515947 
L 44.753132 60.560336 
L 44.85459 60.521221 
L 44.857972 60.532836 
L 44.895173 60.445614 
L 44.956048 60.481625 
L 45.246896 60.309332 
L 44.962812 60.491357 
L 45.260424 60.349116 
L 45.361882 60.40776 
L 45.301007 60.313848 
L 45.368646 60.357889 
L 45.385556 60.309647 
L 45.470104 60.402385 
L 45.483632 60.350917 
L 45.63582 60.14037 
L 45.517451 60.367959 
L 45.639201 60.142356 
L 45.710222 60.249931 
L 45.75757 60.161326 
L 45.909757 60.141032 
L 45.808299 60.229152 
L 45.913139 60.145534 
L 45.963868 60.214518 
L 46.021361 60.130262 
L 46.170167 60.035903 
L 46.187077 60.058669 
L 46.231042 60.097162 
L 46.197223 60.044393 
L 46.295299 60.033728 
L 46.494834 59.91719 
L 46.501598 59.878252 
L 46.586146 60.011401 
L 46.599674 59.979602 
L 46.680841 60.060927 
L 46.71466 60.010318 
L 46.772153 59.864614 
L 46.839792 59.890074 
L 46.910813 59.939947 
L 46.948015 59.864706 
L 47.00889 59.76249 
L 47.100202 59.816227 
L 47.110348 59.82728 
L 47.13064 59.748281 
L 47.188133 59.75165 
L 47.208425 59.801684 
L 47.380904 59.655152 
L 47.492508 59.720044 
L 47.499272 59.707526 
L 47.624404 59.651888 
L 47.73939 59.720165 
L 47.685279 59.624276 
L 47.749536 59.705811 
L 48.020092 59.379695 
L 48.030238 59.40564 
L 48.151988 59.339093 
L 48.15537 59.323603 
L 48.233154 59.249167 
L 48.195953 59.339223 
L 48.270356 59.309196 
L 48.456363 59.268523 
L 48.27712 59.318032 
L 48.466509 59.293868 
L 48.510474 59.369173 
L 48.588259 59.293652 
L 48.710009 59.19992 
L 48.831759 58.969956 
L 48.848669 59.018355 
L 49.004238 59.001291 
L 49.011002 59.017718 
L 49.122606 59.023041 
L 49.068495 58.937342 
L 49.125988 59.015073 
L 49.28494 59.047214 
L 49.298467 59.025551 
L 49.318759 59.055735 
L 49.423599 58.945173 
L 49.498002 58.973994 
L 49.464183 58.917136 
L 49.52844 58.914292 
L 49.660336 58.742571 
L 49.684009 58.771132 
L 49.694155 58.789672 
L 49.849725 58.712667 
L 49.954565 58.729992 
L 49.900454 58.628999 
L 49.964711 58.696998 
L 50.069551 58.608275 
L 50.191301 58.509829 
L 50.096607 58.632141 
L 50.201447 58.541823 
L 50.211593 58.57571 
L 50.27585 58.437663 
L 50.282614 58.45807 
L 50.654628 58.325609 
L 50.76285 58.275947 
L 50.685065 58.348629 
L 50.772996 58.290895 
L 50.86769 58.32876 
L 50.77976 58.266241 
L 50.891364 58.299026 
L 51.009732 58.153826 
L 50.908274 58.303101 
L 51.02326 58.221461 
L 51.148392 58.348576 
L 51.168684 58.298007 
L 51.314107 58.003937 
L 51.317489 58.007882 
L 51.547462 58.236088 
L 51.331017 57.98335 
L 51.550844 58.225617 
L 51.669212 58.033009 
L 51.706413 58.046148 
L 51.831545 58.129254 
L 51.963441 58.035123 
L 51.838309 58.141771 
L 51.973587 58.059447 
L 51.976969 58.072642 
L 52.061517 57.969397 
L 52.068281 57.998807 
L 52.139302 58.03418 
L 52.176504 57.977123 
L 52.179886 58.009275 
L 52.267816 57.872481 
L 52.27458 57.906675 
L 52.355747 57.747138 
L 52.39633 57.805589 
L 52.406476 57.836786 
L 52.440295 57.760479 
L 52.50117 57.754331 
L 52.629684 57.648293 
L 52.63983 57.651368 
L 53.377095 57.867253 
L 53.410914 57.877168 
L 53.505609 57.760002 
L 53.519136 57.792767 
L 53.593539 57.628159 
L 53.596921 57.633049 
L 53.711907 57.711874 
L 53.623977 57.566143 
L 53.755873 57.622885 
L 53.843803 57.4856 
L 53.877623 57.517075 
L 54.094067 57.363202 
L 54.16847 57.278895 
L 54.215817 57.319276 
L 54.361241 57.376236 
L 54.364623 57.350996 
L 54.41197 57.318685 
L 54.442408 57.371618 
L 54.472845 57.365807 
L 54.65547 57.26022 
L 54.67238 57.303812 
L 54.675762 57.314397 
L 54.750165 57.214427 
L 54.760311 57.232314 
L 54.831331 57.265195 
L 54.902352 57.157505 
L 55.024102 57.2821 
L 54.91588 57.139449 
L 55.030866 57.259411 
L 55.128943 57.148409 
L 55.047776 57.264996 
L 55.155998 57.17903 
L 55.179672 57.238034 
L 55.227019 57.114751 
L 55.267603 57.15893 
L 55.534776 57.271272 
L 55.551686 57.231856 
L 55.683582 57.111313 
L 55.829006 57.045562 
L 55.832388 57.066682 
L 55.900027 57.05058 
L 55.876353 57.004583 
L 55.920318 56.9999 
L 56.035304 56.922339 
L 56.116471 56.877237 
L 56.069124 56.966887 
L 56.153672 56.917151 
L 56.160436 56.953664 
L 56.214548 56.894348 
L 56.261895 56.907766 
L 56.589944 56.839666 
L 56.667728 56.804183 
L 56.684638 56.871243 
L 56.694784 56.869086 
L 56.904465 56.729187 
L 56.735367 56.927 
L 56.928138 56.756613 
L 57.002541 56.744095 
L 57.019451 56.690025 
L 57.350881 56.230915 
L 57.516597 54.370197 
L 57.533507 43.885001 
L 57.618055 55.668253 
L 57.631583 56.080797 
L 57.726278 55.530869 
L 57.790534 54.436264 
L 57.807444 46.603561 
L 57.881847 56.277525 
L 57.97316 55.553337 
L 58.030653 54.501232 
L 58.050944 46.347097 
L 58.118583 56.557003 
L 58.125347 56.575827 
L 58.165931 56.206528 
L 58.280917 54.218224 
L 58.294444 45.865206 
L 58.372229 57.005018 
L 58.378993 56.940617 
L 58.541327 54.374185 
L 58.554854 45.411532 
L 58.632639 57.43424 
L 58.636021 57.421128 
L 58.673222 57.024011 
L 58.832174 54.355096 
L 58.845702 44.980391 
L 58.926868 57.799059 
L 58.943778 57.681483 
L 59.160223 52.807062 
L 59.170369 44.824709 
L 59.254917 58.049547 
L 59.265063 57.966018 
L 59.508563 54.703547 
L 59.525473 44.645808 
L 59.596494 56.421918 
L 59.610022 58.203992 
L 59.708098 57.187918 
L 59.904251 53.04343 
L 59.914397 44.564108 
L 60.002327 58.257206 
L 60.009091 58.19967 
L 60.310084 54.352322 
L 60.323612 44.468829 
L 60.404779 58.244571 
L 60.411543 58.312386 
L 60.4758 57.668021 
L 60.753119 52.000121 
L 60.759883 44.439687 
L 60.847814 58.320195 
L 60.85796 58.235609 
L 61.186009 55.402634 
L 61.213064 53.558246 
L 61.22321 44.387346 
L 61.307759 58.275674 
L 61.317904 58.22727 
L 61.554641 56.225769 
L 61.676391 54.66713 
L 61.693301 44.380449 
L 61.764321 57.359766 
L 61.777849 58.283671 
L 61.872544 57.412827 
L 62.176919 53.794595 
L 62.187065 44.403245 
L 62.274995 58.223847 
L 62.278377 58.192771 
L 62.663919 54.517957 
L 62.680829 44.435035 
L 62.75185 57.756109 
L 62.765377 58.244386 
L 62.85669 57.366963 
L 63.056225 56.107428 
L 63.059607 56.110274 
L 63.167829 55.199599 
L 63.188121 51.809624 
L 63.198267 44.423886 
L 63.279433 58.180094 
L 63.292961 58.101072 
L 63.533079 56.285254 
L 63.577045 56.104683 
L 63.705559 54.07186 
L 63.719086 44.370307 
L 63.800253 58.138238 
L 63.803635 58.127622 
L 63.837454 57.826248 
L 64.10801 56.024256 
L 64.22976 54.634313 
L 64.24667 44.336418 
L 64.314309 56.658197 
L 64.331219 58.111184 
L 64.425913 57.26383 
L 64.753962 54.102315 
L 64.76749 44.362221 
L 64.848656 58.108867 
L 64.852038 58.089341 
L 64.896004 57.676962 
L 65.156414 56.02359 
L 65.295073 54.790617 
L 65.315365 44.370353 
L 65.379622 55.861082 
L 65.396532 58.036611 
L 65.491226 57.196837 
L 65.74149 55.824012 
L 65.815893 55.198966 
L 65.836185 52.751258 
L 65.846331 44.374367 
L 65.930879 58.035692 
L 65.941025 57.944145 
L 66.255546 55.952196 
L 66.363768 55.269141 
L 66.387442 53.712035 
L 66.40097 44.428434 
L 66.482136 57.992491 
L 66.4889 57.931634 
L 66.918408 53.580731 
L 66.928553 44.400215 
L 67.013102 58.011594 
L 67.023248 57.947452 
L 67.314095 56.076014 
L 67.398644 55.738732 
L 67.402026 55.742319 
L 67.479811 54.458422 
L 67.49672 44.373656 
L 67.571123 57.883966 
L 67.577887 57.950657 
L 67.645526 57.341713 
L 67.845061 56.213615 
L 67.848443 56.228086 
L 67.909318 56.00266 
L 68.041214 55.464906 
L 68.078415 53.813362 
L 68.091943 44.362174 
L 68.169728 57.880811 
L 68.179873 57.831171 
L 68.572179 55.794888 
L 68.582325 56.067216 
L 68.744659 58.753498 
L 69.221513 60.524425 
L 69.224895 60.516952 
L 69.292534 60.629556 
L 69.495451 60.747277 
L 69.525888 60.734344 
L 69.613819 60.796988 
L 69.68484 60.727362 
L 69.728805 60.770213 
L 70.036562 60.825953 
L 70.046708 60.781012 
L 70.117729 60.855757 
L 70.158312 60.756842 
L 70.205659 60.849527 
L 70.266534 60.761545 
L 70.283444 60.72845 
L 70.337555 60.858876 
L 70.367993 60.82278 
L 70.618257 60.721706 
L 70.65884 60.687508 
L 70.685896 60.736768 
L 70.729861 60.725738 
L 70.733243 60.702299 
L 70.76368 60.794741 
L 70.841465 60.722345 
L 70.895576 60.797778 
L 70.949687 60.75332 
L 71.034236 60.785416 
L 71.068056 60.749096 
L 71.155986 60.733718 
L 71.125549 60.850294 
L 71.17966 60.748894 
L 71.592257 60.800499 
L 71.595639 60.787123 
L 71.663278 60.750805 
L 71.693716 60.807048 
L 71.703862 60.789786 
L 71.994709 60.724867 
L 72.086021 60.662394 
L 72.109695 60.690655 
L 72.241591 60.8121 
L 72.366723 60.708381 
L 72.305848 60.830574 
L 72.380251 60.713845 
L 72.427598 60.681009 
L 72.485091 60.740668 
L 72.495237 60.785253 
L 72.56964 60.71261 
L 72.600077 60.751056 
L 72.69139 60.709623 
L 72.718445 60.765572 
L 72.833432 60.769992 
L 72.79623 60.680746 
L 72.840195 60.753999 
L 72.924744 60.799142 
L 72.958564 60.744439 
L 73.022821 60.77916 
L 73.005911 60.719424 
L 73.07355 60.729674 
L 73.114133 60.644571 
L 73.147953 60.753237 
L 73.181772 60.733698 
L 73.320432 60.797166 
L 73.442182 60.691524 
L 73.367779 60.82671 
L 73.452328 60.721413 
L 73.54364 60.706505 
L 73.482765 60.751231 
L 73.557168 60.759467 
L 73.645099 60.736668 
L 73.587606 60.78921 
L 73.675536 60.771124 
L 73.722883 60.79406 
L 73.760085 60.69219 
L 73.868307 60.667243 
L 73.797286 60.713133 
L 73.878453 60.677731 
L 74.006967 60.724498 
L 74.023877 60.664444 
L 74.077988 60.76846 
L 74.118571 60.740126 
L 74.22003 60.728562 
L 74.236939 60.772683 
L 74.34178 60.760592 
L 74.277523 60.738728 
L 74.345162 60.747466 
L 74.822016 60.674406 
L 74.825398 60.696444 
L 74.920092 60.61292 
L 75.014787 60.626857 
L 74.974204 60.658352 
L 75.018169 60.641879 
L 75.123009 60.743131 
L 75.143301 60.728097 
L 75.163593 60.754135 
L 75.265051 60.692877 
L 75.806162 60.650942 
L 75.887329 60.65226 
L 75.839982 60.690581 
L 75.900857 60.689829 
L 75.904239 60.707571 
L 75.968496 60.569012 
L 75.995551 60.607894 
L 76.025989 60.553927 
L 76.083482 60.638628 
L 76.103774 60.637736 
L 76.188322 60.601066 
L 76.113919 60.676173 
L 76.222142 60.67674 
L 76.225524 60.693534 
L 76.255961 60.601514 
L 76.326982 60.642063 
L 76.367565 60.681169 
L 76.469024 60.51579 
L 77.317892 60.407916 
L 77.449788 60.279188 
L 77.568156 60.351466 
L 77.510663 60.259901 
L 77.571538 60.333785 
L 77.706816 60.269254 
L 77.71358 60.273701 
L 77.842094 60.201285 
L 77.906351 60.262784 
L 77.859004 60.185519 
L 77.970608 60.203638 
L 78.051775 60.165936 
L 77.997664 60.216346 
L 78.085594 60.1984 
L 78.254691 60.154911 
L 78.258073 60.137942 
L 78.417025 59.980484 
L 78.437317 59.996749 
L 78.552303 60.071513 
L 78.579358 60.031112 
L 78.684199 59.962599 
L 78.694344 59.994714 
L 78.792421 60.005586 
L 78.714636 59.944946 
L 78.802567 59.981989 
L 78.883733 59.954476 
L 78.816095 60.019138 
L 78.907407 59.999625 
L 78.914171 60.018949 
L 78.991956 59.864522 
L 79.035921 59.820071 
L 79.093414 59.906317 
L 79.096796 59.902984 
L 79.106942 59.935431 
L 79.238838 59.875142 
L 79.269275 59.895604 
L 79.336914 59.824595 
L 79.343678 59.837824 
L 79.604088 59.728096 
L 79.722456 59.575675 
L 79.732602 59.604792 
L 79.74613 59.646269 
L 79.790095 59.565111 
L 79.844206 59.587838 
L 79.949047 59.564348 
L 79.88479 59.616846 
L 79.95581 59.592378 
L 79.962574 59.615122 
L 80.020067 59.505933 
L 80.033595 59.511092 
L 80.158727 59.407368 
L 80.256804 59.480772 
L 80.209456 59.38819 
L 80.277095 59.45056 
L 80.365026 59.356963 
L 80.402227 59.38513 
L 80.534123 59.26793 
L 80.561179 59.327446 
L 80.716748 59.278179 
L 80.811443 59.295343 
L 80.764096 59.322412 
L 80.824971 59.309005 
L 80.916283 59.31825 
L 80.852026 59.271899 
L 80.929811 59.276042 
L 81.075235 59.178346 
L 81.085381 59.204096 
L 81.190221 59.216415 
L 81.173311 59.167418 
L 81.196985 59.201648 
L 81.393138 58.984821 
L 81.210513 59.232912 
L 81.454013 59.138312 
L 81.457395 59.161533 
L 81.555471 59.079774 
L 81.558853 59.067912 
L 81.629874 59.142209 
L 81.650166 59.133459 
L 81.653547 59.143998 
L 81.734714 59.035036 
L 81.826027 59.005857 
L 81.788825 58.924352 
L 81.832791 58.989514 
L 81.8497 59.036268 
L 81.97145 58.94745 
L 82.018798 59.007162 
L 82.059381 58.851837 
L 82.066145 58.853465 
L 82.302881 58.78005 
L 82.360374 58.812847 
L 82.444923 58.633857 
L 82.674895 58.498299 
L 82.678277 58.519293 
L 82.766208 58.397001 
L 82.76959 58.415004 
L 82.898104 58.217805 
L 82.904868 58.243397 
L 82.982652 58.316161 
L 83.040145 58.240722 
L 83.141604 58.128768 
L 83.161896 58.168322 
L 83.327611 58.216965 
L 83.354666 58.174796 
L 83.449361 58.238791 
L 83.598167 58.054988 
L 83.611694 58.067105 
L 83.618458 58.082469 
L 83.669187 58.013076 
L 83.716535 58.030717 
L 83.91607 57.926025 
L 83.926215 57.96852 
L 84.061493 58.106174 
L 83.956653 57.955557 
L 84.068257 58.091745 
L 84.14266 58.028172 
L 84.078403 58.110931 
L 84.190007 58.037831 
L 84.345577 58.20952 
L 84.396306 58.046634 
L 84.548494 57.875728 
L 84.633042 57.901457 
L 84.609369 57.852644 
L 84.660098 57.881992 
L 84.761556 57.700315 
L 84.815667 57.739202 
L 85.038876 57.762795 
L 85.055785 57.769143 
L 85.16739 57.613675 
L 85.170772 57.627817 
L 85.228265 57.503066 
L 85.262084 57.533016 
L 85.93171 57.370865 
L 85.985821 57.300964 
L 86.046696 57.335691 
L 86.104189 57.295475 
L 86.168446 57.392148 
L 86.195501 57.441354 
L 86.283432 57.420686 
L 86.398418 57.537763 
L 86.405182 57.517939 
L 86.503258 57.565483 
L 86.459293 57.454818 
L 86.52355 57.533814 
L 86.756904 57.453182 
L 86.770432 57.484531 
L 86.827925 57.49192 
L 86.807634 57.410435 
L 86.865127 57.415215 
L 86.915856 57.393433 
L 86.93953 57.449184 
L 86.976731 57.423659 
L 87.074807 57.476271 
L 87.037606 57.415021 
L 87.091717 57.453649 
L 87.122155 57.506012 
L 87.169502 57.398199 
L 87.28787 57.288896 
L 87.226995 57.415791 
L 87.291252 57.293023 
L 87.659884 57.068245 
L 87.301398 57.319176 
L 87.676794 57.103143 
L 87.801926 57.153059 
L 87.80869 57.105223 
L 88.187468 57.092725 
L 88.282162 57.06331 
L 88.194232 57.068723 
L 88.285544 57.034549 
L 88.45126 56.837346 
L 88.309218 57.050344 
L 88.454641 56.854967 
L 88.505371 56.819191 
L 88.589919 56.964993 
L 88.633885 56.909409 
L 88.596683 56.968116 
L 88.711669 56.930579 
L 88.867239 56.838772 
L 88.870621 56.841588 
L 88.931496 56.843231 
L 88.907822 56.776679 
L 88.965315 56.78582 
L 89.110739 56.568091 
L 89.273072 56.441215 
L 89.117503 56.579333 
L 89.276454 56.446702 
L 89.2866 56.462877 
L 89.364385 56.355079 
L 89.367767 56.355066 
L 89.411732 56.358539 
L 89.432024 56.271934 
L 89.65185 54.329158 
L 89.66876 43.891772 
L 89.756691 55.914569 
L 89.766837 56.03603 
L 89.851385 55.538319 
L 89.91226 54.797943 
L 89.92917 52.256539 
L 89.939316 46.642379 
L 90.010337 56.235149 
L 90.03401 56.090388 
L 90.162524 53.88359 
L 90.176052 46.364313 
L 90.250455 56.5365 
L 90.263983 56.437237 
L 90.402643 53.973597 
L 90.41617 45.927428 
L 90.490573 56.975118 
L 90.504101 56.856033 
L 90.615705 55.632455 
L 90.663052 53.972304 
L 90.67658 45.487079 
L 90.754365 57.409939 
L 90.764511 57.331847 
L 90.950518 53.839152 
L 90.960664 45.020319 
L 91.045212 57.792792 
L 91.055358 57.703699 
L 91.068886 57.547801 
L 91.068886 57.547801 
" clip-path="url(#pefc00bc5ec)" style="fill: none; stroke: #000000; stroke-width: 0.6; stroke-linecap: square"/>
   </g>
   <g id="line2d_4">
    <path d="M 95.127221 15.313171 
L 95.127221 8.552195 
" clip-path="url(#pefc00bc5ec)" style="fill: none; stroke: #000000; stroke-width: 1.5; stroke-linecap: square"/>
   </g>
  </g>
 </g>
 <defs>
  <clipPath id="pefc00bc5ec">
   <rect x="7.2" y="7.2" width="89.28" height="55.44"/>
  </clipPath>
 </defs>
</svg>
