<?xml version="1.0" encoding="utf-8" standalone="no"?>
<!DOCTYPE svg PUBLIC "-//W3C//DTD SVG 1.1//EN"
  "http://www.w3.org/Graphics/SVG/1.1/DTD/svg11.dtd">
<svg xmlns:xlink="http://www.w3.org/1999/xlink" width="103.68pt" height="69.84pt" viewBox="0 0 103.68 69.84" xmlns="http://www.w3.org/2000/svg" version="1.1">
 <metadata>
  <rdf:RDF xmlns:dc="http://purl.org/dc/elements/1.1/" xmlns:cc="http://creativecommons.org/ns#" xmlns:rdf="http://www.w3.org/1999/02/22-rdf-syntax-ns#">
   <cc:Work>
    <dc:type rdf:resource="http://purl.org/dc/dcmitype/StillImage"/>
    <dc:date>2022-05-18T12:00:17.582329</dc:date>
    <dc:format>image/svg+xml</dc:format>
    <dc:creator>
     <cc:Agent>
      <dc:title>Matplotlib v3.5.1, https://matplotlib.org/</dc:title>
     </cc:Agent>
    </dc:creator>
   </cc:Work>
  </rdf:RDF>
 </metadata>
 <defs>
  <style type="text/css">*{stroke-linejoin: round; stroke-linecap: butt}</style>
 </defs>
 <g id="figure_1">
  <g id="patch_1">
   <path d="M 0 69.84 
L 103.68 69.84 
L 103.68 0 
L 0 0 
L 0 69.84 
z
" style="fill: none"/>
  </g>
  <g id="axes_1">
   <g id="patch_2">
    <path d="M 7.2 62.64 
L 96.48 62.64 
L 96.48 7.2 
L 7.2 7.2 
L 7.2 62.64 
z
" style="fill: none"/>
   </g>
   <g id="matplotlib.axis_1"/>
   <g id="matplotlib.axis_2"/>
   <g id="line2d_1">
    <path d="M 9.905557 24.580981 
L 10.054363 24.442378 
L 10.057745 24.458098 
L 10.061127 24.474308 
L 10.108474 24.344439 
L 10.152439 24.408285 
L 10.199786 24.375351 
L 10.247134 24.494539 
L 10.257279 24.459903 
L 10.291099 24.423105 
L 10.335064 24.531777 
L 10.34521 24.530973 
L 10.348592 24.549425 
L 10.426377 24.450806 
L 10.446668 24.475188 
L 10.548127 24.344756 
L 10.58871 24.384466 
L 10.825446 24.285594 
L 10.899849 24.288162 
L 10.920141 24.234453 
L 10.926905 24.24041 
L 10.960724 24.325477 
L 11.035127 24.223151 
L 11.038509 24.205827 
L 11.082474 24.282507 
L 11.133204 24.272371 
L 11.143349 24.301443 
L 11.224516 24.225719 
L 11.241426 24.271891 
L 11.373322 24.22303 
L 11.261717 24.285071 
L 11.380086 24.236585 
L 11.478162 24.239899 
L 11.49169 24.196702 
L 11.860322 24.22401 
L 11.863704 24.211917 
L 11.988836 24.124467 
L 12.009128 24.170359 
L 12.029419 24.101357 
L 12.10044 24.134318 
L 12.212044 24.052802 
L 12.242482 24.081812 
L 12.337176 24.177231 
L 12.374378 24.156367 
L 12.567149 23.972779 
L 12.577295 24.011486 
L 12.644934 24.023666 
L 12.584058 24.002479 
L 12.685517 23.962671 
L 12.895198 23.929082 
L 12.929017 23.974853 
L 12.996656 23.89245 
L 13.118406 23.742464 
L 13.128552 23.760441 
L 13.135316 23.779987 
L 13.165753 23.691214 
L 13.196191 23.67908 
L 13.314559 23.627954 
L 13.257066 23.709916 
L 13.317941 23.629486 
L 13.341614 23.665696 
L 13.399108 23.552895 
L 13.402489 23.548381 
L 13.463365 23.646336 
L 13.659517 23.768942 
L 13.487038 23.614611 
L 13.696719 23.721493 
L 13.76774 23.640699 
L 13.801559 23.751091 
L 13.804941 23.743068 
L 13.87258 23.735567 
L 13.821851 23.704408 
L 13.88949 23.688858 
L 13.997712 23.545757 
L 14.018004 23.552988 
L 14.129608 23.602975 
L 14.136372 23.562599 
L 14.146518 23.541365 
L 14.210775 23.637505 
L 14.241212 23.585582 
L 14.258122 23.615261 
L 14.335907 23.519843 
L 14.450893 23.388758 
L 14.352816 23.526942 
L 14.464421 23.420245 
L 14.582789 23.382808 
L 14.589553 23.356246 
L 14.751886 23.22962 
L 14.839817 23.249991 
L 14.765414 23.207725 
L 14.853344 23.201731 
L 14.981858 23.147387 
L 14.98524 23.160664 
L 15.113754 23.151962 
L 15.130664 23.191554 
L 15.215213 23.112895 
L 15.218595 23.1146 
L 15.391074 23.295848 
L 15.225359 23.101275 
L 15.404602 23.262046 
L 15.418129 23.281517 
L 15.529734 23.234488 
L 15.911894 23.076775 
L 15.53988 23.273307 
L 15.922039 23.106509 
L 15.955859 23.187985 
L 16.02688 23.084044 
L 16.030262 23.086891 
L 16.091137 23.053676 
L 16.04379 23.120487 
L 16.145248 23.082688 
L 16.209505 23.10553 
L 16.243324 23.03761 
L 16.361692 22.953672 
L 16.277144 23.052277 
L 16.378602 22.993372 
L 16.486825 23.029734 
L 16.429331 22.94423 
L 16.493588 23.00459 
L 16.706651 22.832322 
L 16.726943 22.863993 
L 16.770908 22.94617 
L 16.845311 22.88346 
L 17.014408 22.710494 
L 16.855457 22.911312 
L 17.041464 22.737773 
L 17.186887 22.76197 
L 17.058373 22.708019 
L 17.190269 22.748423 
L 17.298492 22.682934 
L 17.305256 22.715317 
L 17.328929 22.760356 
L 17.39995 22.641168 
L 17.403332 22.646009 
L 17.41686 22.668936 
L 17.477735 22.518356 
L 17.487881 22.542162 
L 17.5217 22.538529 
L 17.541992 22.483197 
L 17.572429 22.469784 
L 17.697561 22.359178 
L 17.582575 22.490733 
L 17.738145 22.423872 
L 17.744909 22.435443 
L 17.802402 22.308928 
L 17.809165 22.308022 
L 17.90386 22.254132 
L 17.829457 22.218459 
L 17.907242 22.238857 
L 18.018846 22.124212 
L 17.924152 22.247119 
L 18.049284 22.164097 
L 18.154124 22.23885 
L 18.187943 22.221025 
L 18.313075 22.031872 
L 18.323221 22.037507 
L 18.461881 22.127073 
L 18.468645 22.107399 
L 18.475409 22.085989 
L 18.570103 22.034443 
L 18.678326 22.017089 
L 18.688472 22.056196 
L 18.759492 22.097327 
L 18.803458 22.06218 
L 19.178854 21.839453 
L 19.202527 21.785505 
L 19.236347 21.861787 
L 19.287076 21.86462 
L 19.331041 21.886928 
L 19.368243 21.802189 
L 19.500139 21.664004 
L 19.591451 21.66961 
L 19.523812 21.636271 
L 19.604979 21.658727 
L 19.736875 21.487138 
L 19.740257 21.491213 
L 19.743639 21.514352 
L 19.818042 21.34599 
L 19.834951 21.378594 
L 20.085215 20.992732 
L 20.19682 20.597904 
L 20.257695 19.610339 
L 20.274604 11.373933 
L 20.281368 8.855562 
L 20.362535 21.845687 
L 20.365917 21.829071 
L 20.457229 20.758664 
L 20.521486 18.685669 
L 20.535014 10.553251 
L 20.606035 22.32758 
L 20.622945 22.133341 
L 20.764987 17.409749 
L 20.775132 10.506488 
L 20.849535 22.655452 
L 20.869827 22.354729 
L 21.008487 19.153596 
L 21.022014 10.247476 
L 21.096417 22.968825 
L 21.099799 22.965278 
L 21.258751 20.165884 
L 21.282424 16.42485 
L 21.289188 10.045283 
L 21.366973 23.228234 
L 21.387265 23.015832 
L 21.563126 19.640096 
L 21.580036 9.877925 
L 21.644293 20.534034 
L 21.661202 23.424029 
L 21.755897 22.106982 
L 21.884411 18.726641 
L 21.894557 9.735905 
L 21.975723 23.584142 
L 21.985869 23.518808 
L 22.222605 19.312504 
L 22.236133 9.620138 
L 22.310536 23.530334 
L 22.320682 23.673561 
L 22.395085 22.802124 
L 22.591238 19.371623 
L 22.604765 9.605726 
L 22.675786 23.268215 
L 22.689314 23.731003 
L 22.777245 22.732006 
L 22.993689 18.336087 
L 23.003835 9.538298 
L 23.085002 23.734902 
L 23.098529 23.624855 
L 23.416432 19.296494 
L 23.433342 9.605206 
L 23.500981 23.486874 
L 23.511127 23.689972 
L 23.592294 22.814391 
L 23.656551 22.100866 
L 23.866231 17.524951 
L 23.876377 9.547844 
L 23.957544 23.690969 
L 23.971072 23.566441 
L 24.116495 21.960346 
L 24.356614 17.994783 
L 24.366759 9.654165 
L 24.444544 23.578168 
L 24.461454 23.438083 
L 24.860524 19.391004 
L 24.880815 9.718767 
L 24.938308 22.534871 
L 24.955218 23.486471 
L 25.046531 22.51318 
L 25.405017 18.83917 
L 25.421927 9.858379 
L 25.492947 23.37341 
L 25.499711 23.356512 
L 25.878489 20.388486 
L 25.902163 20.285207 
L 25.946128 19.829086 
L 25.969802 17.449444 
L 25.979948 9.976985 
L 26.054351 23.326325 
L 26.07126 23.153621 
L 26.409455 20.594933 
L 26.412837 20.59616 
L 26.429747 20.490145 
L 26.585316 19.113799 
L 26.605608 10.113209 
L 26.663101 22.814401 
L 26.673247 23.125779 
L 26.761177 22.292115 
L 27.018205 20.633825 
L 27.214358 20.30916 
L 27.353018 20.536803 
L 27.667539 21.446928 
L 27.677685 21.435775 
L 27.728414 21.579084 
L 27.735178 21.561862 
L 27.772379 21.53315 
L 28.107192 22.295902 
L 28.384512 22.898477 
L 28.540081 23.219802 
L 29.091338 24.366705 
L 29.09472 24.350441 
L 29.098102 24.332611 
L 29.189415 24.438521 
L 29.37204 24.719089 
L 29.453207 24.689946 
L 29.409241 24.753509 
L 29.473498 24.762912 
L 29.541137 24.783678 
L 29.561429 24.713849 
L 29.564811 24.724315 
L 29.588484 24.673424 
L 29.656123 24.744607 
L 29.679797 24.693448 
L 29.957117 24.881853 
L 29.693325 24.663299 
L 29.98079 24.832795 
L 30.045047 24.70239 
L 30.095776 24.766142 
L 30.173561 24.85185 
L 30.207381 24.777167 
L 30.318985 24.673955 
L 30.339276 24.689486 
L 30.417061 24.775436 
L 30.464409 24.763013 
L 30.552339 24.818194 
L 30.582777 24.793969 
L 30.586159 24.804192 
L 30.663943 24.694233 
L 30.674089 24.725703 
L 30.819513 24.610841 
L 30.931117 24.55884 
L 30.843186 24.616317 
L 30.937881 24.566974 
L 31.888208 24.300913 
L 31.982902 24.356548 
L 31.942319 24.274027 
L 32.006576 24.332107 
L 32.199347 24.258213 
L 32.331243 24.110918 
L 32.358298 24.121918 
L 32.392118 24.143222 
L 32.419173 24.054699 
L 32.429319 24.04689 
L 32.513868 23.948436 
L 32.561215 23.988025 
L 32.598417 24.039741 
L 32.608562 23.964208 
L 32.669437 23.979822 
L 32.733694 23.85072 
L 32.686347 23.99077 
L 32.797951 23.913244 
L 32.889264 23.922227 
L 32.855445 23.869332 
L 32.902792 23.874556 
L 32.990722 23.835722 
L 32.929847 23.926115 
L 33.014396 23.873458 
L 33.03807 23.866669 
L 33.14291 23.953693 
L 33.240986 23.853541 
L 33.268042 23.864541 
L 33.352591 23.772394 
L 33.406702 23.833758 
L 33.514924 23.828355 
L 33.440521 23.78738 
L 33.518306 23.824028 
L 33.579181 23.912384 
L 33.64682 23.842015 
L 33.761806 23.712298 
L 33.799008 23.759943 
L 33.910612 24.038554 
L 34.13382 24.479596 
L 34.143966 24.455914 
L 34.221751 24.629417 
L 34.306299 24.642667 
L 34.238661 24.60199 
L 34.336737 24.592664 
L 34.400994 24.545932 
L 34.451723 24.576592 
L 34.53289 24.661975 
L 34.566709 24.630861 
L 34.647876 24.597447 
L 34.590383 24.665332 
L 34.681696 24.615274 
L 34.718897 24.624975 
L 34.762862 24.494965 
L 34.837265 24.497429 
L 34.77639 24.517792 
L 34.857557 24.553124 
L 34.942105 24.577414 
L 34.908286 24.478373 
L 34.975925 24.539753 
L 35.084147 24.522173 
L 35.030036 24.612955 
L 35.087529 24.544735 
L 35.209279 24.647471 
L 35.094293 24.519127 
L 35.222807 24.593163 
L 35.276918 24.565224 
L 35.320883 24.620582 
L 35.334411 24.602055 
L 35.510272 24.614467 
L 35.513654 24.646061 
L 35.544092 24.681015 
L 35.561002 24.616131 
L 35.618495 24.609266 
L 35.713189 24.587338 
L 35.723335 24.565478 
L 35.794356 24.577282 
L 35.811266 24.624835 
L 35.919488 24.739607 
L 35.933016 24.708581 
L 35.976981 24.66684 
L 36.034474 24.747356 
L 36.041238 24.704107 
L 36.091967 24.727188 
L 36.13255 24.637012 
L 36.142696 24.667369 
L 36.162988 24.713505 
L 36.257682 24.648375 
L 36.342231 24.697557 
L 36.372669 24.666571 
L 36.497801 24.54626 
L 36.413252 24.689437 
L 36.507947 24.610162 
L 36.518092 24.585001 
L 36.626315 24.622965 
L 36.629697 24.61013 
L 36.721009 24.694052 
L 36.91378 24.528323 
L 36.731155 24.701775 
L 36.920544 24.562858 
L 37.008475 24.585459 
L 36.954363 24.529407 
L 37.025384 24.527597 
L 37.099787 24.490872 
L 37.123461 24.581332 
L 37.231683 24.641052 
L 37.153898 24.557019 
L 37.248593 24.613271 
L 37.316232 24.642023 
L 37.373725 24.484111 
L 37.492093 24.571773 
L 37.536058 24.594836 
L 37.617225 24.524372 
L 37.667954 24.499482 
L 37.732211 24.530066 
L 37.738975 24.510817 
L 37.793086 24.620939 
L 37.837051 24.559423 
L 37.884399 24.616828 
L 37.857343 24.539157 
L 37.931746 24.519289 
L 38.012913 24.404795 
L 37.975711 24.528174 
L 38.056878 24.442353 
L 38.192156 24.372052 
L 38.19892 24.388613 
L 38.259795 24.499391 
L 38.32067 24.48738 
L 38.327434 24.449425 
L 38.418746 24.559562 
L 38.516823 24.663542 
L 38.570934 24.567028 
L 38.70283 24.410328 
L 38.726503 24.456939 
L 38.814434 24.47314 
L 38.997059 24.574049 
L 39.08499 24.681947 
L 39.115427 24.619776 
L 39.220267 24.5195 
L 39.139101 24.627336 
L 39.233795 24.539801 
L 39.409656 24.617231 
L 39.470531 24.652619 
L 39.443476 24.581585 
L 39.514497 24.576832 
L 39.582136 24.565766 
L 39.561844 24.635151 
L 39.622719 24.601182 
L 39.71065 24.59597 
L 39.727559 24.651071 
L 39.785052 24.686728 
L 39.808726 24.611513 
L 39.829018 24.621354 
L 39.947386 24.456988 
L 39.977823 24.472975 
L 40.468206 24.635209 
L 40.471588 24.618754 
L 40.559518 24.540345 
L 40.586574 24.612595 
L 40.769199 24.662738 
L 40.775963 24.639136 
L 40.870657 24.539117 
L 40.894331 24.583405 
L 40.965352 24.515613 
L 41.076956 24.47105 
L 41.0499 24.534045 
L 41.080338 24.473555 
L 41.20547 24.652481 
L 41.225762 24.604723 
L 41.235907 24.624518 
L 41.266345 24.544323 
L 41.320456 24.558575 
L 41.391477 24.493715 
L 41.43206 24.541841 
L 41.516609 24.581538 
L 41.438824 24.532647 
L 41.543665 24.520283 
L 41.628213 24.542381 
L 41.574102 24.581527 
L 41.638359 24.575859 
L 41.804074 24.622865 
L 41.672178 24.518246 
L 41.807456 24.607358 
L 41.895387 24.572834 
L 41.929206 24.606986 
L 42.307984 24.664949 
L 42.31813 24.608981 
L 42.453408 24.50725 
L 42.348568 24.645664 
L 42.45679 24.515898 
L 42.490609 24.472309 
L 42.534575 24.586366 
L 42.537957 24.579933 
L 42.592068 24.512841 
L 42.649561 24.600482 
L 42.923499 24.536684 
L 42.937026 24.571221 
L 42.987756 24.653899 
L 43.024957 24.522655 
L 43.045249 24.550003 
L 43.2042 24.496227 
L 43.210964 24.525859 
L 43.23802 24.578591 
L 43.265075 24.477674 
L 43.322568 24.538723 
L 43.545777 24.629852 
L 43.660763 24.630118 
L 43.576214 24.599099 
L 43.664145 24.626172 
L 43.735166 24.573257 
L 43.779131 24.614058 
L 44.005721 24.706379 
L 44.015867 24.683148 
L 44.103798 24.554553 
L 44.147763 24.587495 
L 44.232312 24.527595 
L 44.272895 24.598752 
L 44.381117 24.635593 
L 44.293187 24.555681 
L 44.398027 24.575983 
L 44.61109 24.406204 
L 44.621236 24.46099 
L 44.74975 24.522025 
L 44.895173 24.373076 
L 44.912083 24.387886 
L 44.949284 24.412939 
L 45.013541 24.33027 
L 45.09809 24.285757 
L 45.030451 24.347701 
L 45.125146 24.34811 
L 45.209694 24.403121 
L 45.175875 24.32174 
L 45.243514 24.37104 
L 45.321299 24.402018 
L 45.361882 24.337943 
L 45.510688 24.389194 
L 45.514069 24.375642 
L 45.659493 24.189266 
L 45.520833 24.386801 
L 45.730514 24.263448 
L 45.808299 24.310111 
L 45.744042 24.248212 
L 45.8455 24.2936 
L 45.963868 24.283364 
L 45.865792 24.305161 
L 45.974014 24.29143 
L 46.038271 24.296208 
L 46.011216 24.211905 
L 46.078855 24.265274 
L 46.376466 23.931962 
L 46.396757 23.953084 
L 46.420431 23.979864 
L 46.474542 23.90252 
L 46.494834 23.913896 
L 46.596292 23.852958 
L 46.50498 23.924629 
L 46.60982 23.888971 
L 46.657167 23.984465 
L 46.724806 23.93906 
L 46.809355 23.888933 
L 46.76539 23.967422 
L 46.833029 23.96528 
L 47.117112 23.810787 
L 47.249008 23.729738 
L 47.435015 23.659451 
L 48.037001 23.439555 
L 48.043765 23.46693 
L 48.131696 23.362283 
L 48.13846 23.384545 
L 48.250064 23.382242 
L 48.162133 23.438617 
L 48.26021 23.420174 
L 48.304175 23.481687 
L 48.354904 23.4076 
L 48.368432 23.425765 
L 48.456363 23.336953 
L 48.490182 23.386162 
L 48.588259 23.386887 
L 48.557821 23.340174 
L 48.595023 23.354558 
L 48.686335 23.350531 
L 48.605168 23.364579 
L 48.699863 23.39041 
L 48.716773 23.40417 
L 48.723536 23.363841 
L 48.801321 23.352166 
L 49.061731 23.193507 
L 49.105696 23.284522 
L 49.230828 23.378477 
L 49.281558 23.220515 
L 49.362724 23.278324 
L 49.416835 23.389122 
L 49.474329 23.321792 
L 49.572405 23.286699 
L 49.531822 23.369192 
L 49.582551 23.335835 
L 49.87678 23.165618 
L 49.880162 23.179599 
L 49.883544 23.212721 
L 49.964711 23.108071 
L 49.985002 23.115635 
L 50.096607 23.027682 
L 50.127044 23.048096 
L 50.262322 22.987368 
L 50.265704 22.966086 
L 50.526114 22.831516 
L 50.529496 22.849211 
L 50.586989 22.863474 
L 50.53626 22.840972 
L 50.627572 22.808025 
L 50.766232 22.661752 
L 50.77976 22.689261 
L 50.874454 22.644543 
L 50.830489 22.606383 
L 50.877836 22.638934 
L 50.955621 22.601725 
L 50.925184 22.653073 
L 50.989441 22.636797 
L 51.155156 22.763647 
L 51.02326 22.606815 
L 51.172066 22.7228 
L 51.222795 22.64758 
L 51.28367 22.69499 
L 51.341163 22.720363 
L 51.38851 22.663971 
L 51.564371 22.594091 
L 51.571135 22.623454 
L 51.642156 22.611504 
L 51.604955 22.561642 
L 51.655684 22.556486 
L 51.790962 22.451975 
L 51.899184 22.514381 
L 51.824781 22.401925 
L 51.905948 22.464344 
L 52.054754 22.424399 
L 51.916094 22.484806 
L 52.058136 22.45402 
L 52.142684 22.508152 
L 52.16974 22.486365 
L 52.284726 22.385913 
L 52.183268 22.508127 
L 52.301636 22.413946 
L 52.386184 22.482062 
L 52.348983 22.365961 
L 52.423386 22.454519 
L 52.545136 22.374576 
L 52.5519 22.395264 
L 52.558664 22.402573 
L 52.683796 22.334191 
L 52.724379 22.32004 
L 52.798782 22.366552 
L 52.937442 22.297698 
L 53.079483 22.118708 
L 53.082865 22.1224 
L 53.17756 22.217296 
L 53.187706 22.233277 
L 53.238435 22.163471 
L 53.272254 22.160298 
L 53.38724 21.882632 
L 53.424442 21.926225 
L 53.586775 22.191913 
L 53.596921 22.153274 
L 53.678088 22.035141 
L 53.715289 22.065837 
L 53.938498 21.793628 
L 53.955407 21.822262 
L 53.982463 21.856049 
L 54.043338 21.738344 
L 54.053484 21.760086 
L 54.100831 21.709289 
L 54.15156 21.799465 
L 54.165088 21.853878 
L 54.239491 21.711607 
L 54.246255 21.710319 
L 54.340949 21.591809 
L 54.513429 21.218216 
L 54.53372 21.231326 
L 54.696054 20.813421 
L 54.804276 19.357028 
L 54.824568 8.860341 
L 54.895588 21.680892 
L 54.905734 21.844101 
L 54.983519 20.969658 
L 55.068068 18.275711 
L 55.078214 10.567336 
L 55.149234 22.323911 
L 55.172908 22.03737 
L 55.304804 19.29159 
L 55.321714 10.489495 
L 55.392735 22.671113 
L 55.487429 21.184241 
L 55.561832 18.102769 
L 55.571978 10.245875 
L 55.646381 22.978761 
L 55.666672 22.749057 
L 55.815478 19.976219 
L 55.832388 17.425102 
L 55.842533 10.1214 
L 55.920318 23.236473 
L 55.937228 23.04801 
L 56.123235 18.785004 
L 56.133381 9.866153 
L 56.214548 23.434036 
L 56.224693 23.356548 
L 56.437756 19.198428 
L 56.451284 9.712614 
L 56.529069 23.568552 
L 56.53245 23.591438 
L 56.573034 23.134545 
L 56.664346 21.812765 
L 56.782714 18.918743 
L 56.796242 9.696879 
L 56.877409 23.676892 
L 56.880791 23.667352 
L 57.049888 21.446337 
L 57.154729 18.907958 
L 57.168256 9.626512 
L 57.249423 23.728352 
L 57.252805 23.702076 
L 57.303534 23.131417 
L 57.547034 19.344881 
L 57.560562 9.594587 
L 57.631583 23.409933 
L 57.645111 23.752414 
L 57.733041 22.779778 
L 57.976542 19.272514 
L 57.993451 9.587932 
L 58.06109 23.509668 
L 58.071236 23.736255 
L 58.155785 22.848017 
L 58.44325 18.603966 
L 58.456778 9.620852 
L 58.531181 23.621133 
L 58.544709 23.547331 
L 58.933632 18.982961 
L 58.94716 9.768617 
L 59.021563 23.529898 
L 59.024945 23.521679 
L 59.227862 21.466958 
L 59.420633 18.472131 
L 59.43416 9.651214 
L 59.508563 23.577188 
L 59.522091 23.460084 
L 59.985418 18.289277 
L 59.998945 9.840449 
L 60.069966 23.345242 
L 60.086876 23.225083 
L 60.381105 20.746513 
L 60.428453 20.54841 
L 60.513001 19.702815 
L 60.529911 17.190757 
L 60.540057 9.814809 
L 60.611078 23.377076 
L 60.634751 23.210606 
L 60.989856 20.535861 
L 61.074404 20.017441 
L 61.104842 19.108138 
L 61.121752 9.948335 
L 61.186009 23.138984 
L 61.196154 23.287043 
L 61.277321 22.477447 
L 61.585078 20.645885 
L 61.595224 20.675043 
L 61.774467 20.446576 
L 61.798141 20.470079 
L 61.95371 20.710408 
L 61.960474 20.71024 
L 61.967238 20.77379 
L 61.980766 20.799581 
L 62.149863 21.218631 
L 62.153245 21.214 
L 62.200592 21.324076 
L 62.592898 22.187557 
L 62.59628 22.179678 
L 62.643627 22.329954 
L 62.650391 22.316463 
L 62.849926 22.762276 
L 62.85669 22.753641 
L 63.286197 23.584714 
L 63.292961 23.575601 
L 63.303107 23.571482 
L 63.330163 23.669405 
L 63.478968 24.081876 
L 63.610864 24.225532 
L 63.614246 24.220124 
L 63.641302 24.194704 
L 63.678503 24.320449 
L 63.685267 24.31186 
L 63.820545 24.602402 
L 63.935531 24.76806 
L 63.952441 24.735398 
L 64.050517 24.860192 
L 64.077573 24.839256 
L 64.111392 24.840613 
L 64.145212 24.760829 
L 64.165503 24.717325 
L 64.243288 24.821188 
L 64.24667 24.797943 
L 64.395476 24.899561 
L 64.405621 24.892791 
L 64.425913 24.840227 
L 64.500316 24.95204 
L 64.936587 24.664346 
L 64.513844 24.985835 
L 64.939969 24.673906 
L 65.01099 24.728234 
L 64.970406 24.642992 
L 65.054955 24.694921 
L 65.058337 24.713149 
L 65.139504 24.542134 
L 65.284927 24.582619 
L 65.291691 24.560304 
L 65.35933 24.559732 
L 65.301837 24.582179 
L 65.399914 24.583513 
L 65.443879 24.522769 
L 65.521664 24.615136 
L 65.663705 24.509877 
L 65.667087 24.51599 
L 65.86324 24.49299 
L 65.870004 24.459296 
L 65.968081 24.350091 
L 65.998518 24.421506 
L 66.052629 24.473093 
L 66.103358 24.378491 
L 66.214963 24.310794 
L 66.231872 24.325265 
L 66.258928 24.300468 
L 66.353622 24.354562 
L 66.380678 24.381267 
L 66.478754 24.292559 
L 66.543011 24.326808 
L 66.50581 24.265767 
L 66.583595 24.262704 
L 66.739164 24.182458 
L 66.74931 24.198626 
L 66.854151 24.226968 
L 66.816949 24.160687 
L 66.864296 24.202901 
L 66.88797 24.150971 
L 66.962373 24.313051 
L 67.175435 24.209208 
L 67.192345 24.229207 
L 67.283658 24.27174 
L 67.216019 24.201998 
L 67.314095 24.232216 
L 67.75713 24.100536 
L 67.760512 24.115116 
L 67.784186 24.188161 
L 67.838297 24.048673 
L 67.882262 24.146615 
L 67.909318 24.04847 
L 68.004012 24.065974 
L 68.044596 24.040358 
L 68.075033 24.142826 
L 68.250894 24.56538 
L 68.386172 24.527695 
L 68.26104 24.572952 
L 68.392936 24.532274 
L 68.558651 24.670283 
L 68.423374 24.463584 
L 68.578943 24.630568 
L 68.683783 24.593978 
L 68.663492 24.659246 
L 68.690547 24.613786 
L 68.758186 24.598275 
L 68.815679 24.707344 
L 68.825825 24.644367 
L 68.930666 24.692522 
L 68.940811 24.704349 
L 68.978013 24.612689 
L 69.021978 24.638321 
L 69.136964 24.606229 
L 69.092999 24.660064 
L 69.140346 24.617509 
L 69.238423 24.656853 
L 69.201221 24.561068 
L 69.258714 24.636162 
L 69.383846 24.553255 
L 69.444721 24.671757 
L 69.51236 24.610611 
L 69.593527 24.497036 
L 69.647638 24.54157 
L 69.749097 24.578978 
L 69.66793 24.537387 
L 69.759242 24.544478 
L 69.843791 24.417977 
L 69.880992 24.494251 
L 69.92834 24.603194 
L 69.995979 24.520735 
L 69.999361 24.508178 
L 70.043326 24.580539 
L 70.090673 24.585776 
L 70.43225 24.643069 
L 70.503271 24.597696 
L 70.547236 24.63656 
L 70.729861 24.605776 
L 70.824555 24.552893 
L 70.841465 24.581453 
L 70.865139 24.603984 
L 70.93616 24.529702 
L 70.946306 24.557546 
L 71.061292 24.512153 
L 70.997035 24.593026 
L 71.064674 24.51833 
L 71.101875 24.570917 
L 71.142458 24.486949 
L 71.169514 24.498262 
L 71.210097 24.443467 
L 71.270972 24.523657 
L 71.30141 24.634253 
L 71.385959 24.57293 
L 71.504327 24.633019 
L 71.507709 24.672627 
L 71.534764 24.584824 
L 71.612549 24.615867 
L 71.744445 24.538622 
L 71.751209 24.542726 
L 71.785028 24.567638 
L 71.849285 24.495069 
L 71.883105 24.572175 
L 71.916924 24.563322 
L 72.042056 24.666709 
L 72.045438 24.662704 
L 72.234827 24.603564 
L 72.244973 24.624688 
L 72.248355 24.635791 
L 72.319376 24.531212 
L 72.336285 24.547654 
L 72.43098 24.576707 
L 72.44789 24.528471 
L 72.512147 24.487435 
L 72.55273 24.566037 
L 72.715063 24.788491 
L 72.579786 24.51164 
L 72.725209 24.767961 
L 72.867251 24.579835 
L 73.002529 24.569273 
L 73.012675 24.60739 
L 73.137807 24.657576 
L 73.043112 24.589948 
L 73.144571 24.630779 
L 73.175008 24.588452 
L 73.218973 24.678694 
L 73.249411 24.669003 
L 73.381307 24.659016 
L 73.259557 24.705414 
L 73.388071 24.691106 
L 73.476001 24.685127 
L 73.445564 24.613846 
L 73.489529 24.651223 
L 73.621425 24.427597 
L 73.638335 24.443084 
L 73.749939 24.526506 
L 73.655245 24.424045 
L 73.760085 24.512056 
L 73.807432 24.544426 
L 73.851397 24.460941 
L 73.868307 24.505895 
L 73.891981 24.501697 
L 73.915654 24.570954 
L 73.966384 24.560266 
L 74.172682 24.537855 
L 74.179446 24.50698 
L 74.280905 24.453064 
L 74.297814 24.502911 
L 74.4128 24.514812 
L 74.318106 24.458196 
L 74.416182 24.508475 
L 74.558224 24.426798 
L 74.575134 24.481255 
L 74.737467 24.542767 
L 74.84569 24.476658 
L 74.767905 24.547058 
L 74.852454 24.495601 
L 75.319162 24.613444 
L 75.322544 24.594941 
L 75.451058 24.452881 
L 75.589718 24.538716 
L 75.724996 24.557296 
L 75.73176 24.575429 
L 75.768961 24.555309 
L 75.85351 24.64448 
L 75.900857 24.637005 
L 75.917767 24.566401 
L 75.938058 24.597782 
L 75.95835 24.553293 
L 76.015843 24.641906 
L 76.046281 24.621553 
L 76.066572 24.634171 
L 76.211996 24.46737 
L 76.408149 24.414336 
L 76.421677 24.444354 
L 76.475788 24.534706 
L 76.536663 24.473328 
L 76.651649 24.466645 
L 76.546809 24.490777 
L 76.655031 24.48564 
L 76.729434 24.503635 
L 76.753107 24.461767 
L 76.756489 24.432623 
L 76.854566 24.542533 
L 76.925587 24.479879 
L 76.98308 24.525025 
L 77.108212 24.613165 
L 77.074392 24.505353 
L 77.111594 24.607888 
L 77.118358 24.629862 
L 77.175851 24.51965 
L 77.216434 24.582403 
L 77.338184 24.527617 
L 77.355094 24.566049 
L 77.449788 24.617752 
L 77.382149 24.558611 
L 77.476844 24.607957 
L 77.601976 24.576667 
L 77.60874 24.588298 
L 78.065302 24.564694 
L 78.075448 24.550828 
L 78.105886 24.624232 
L 78.159997 24.620743 
L 78.193816 24.643625 
L 78.2344 24.563017 
L 78.258073 24.576209 
L 78.403497 24.475165 
L 78.281747 24.641016 
L 78.410261 24.502125 
L 78.44408 24.52713 
L 78.488046 24.423404 
L 78.49481 24.426229 
L 78.59965 24.304019 
L 78.630088 24.339622 
L 78.731546 24.399396 
L 78.839768 24.456206 
L 78.758601 24.355211 
L 78.849914 24.439512 
L 78.944609 24.438419 
L 78.883733 24.501558 
L 78.958136 24.447419 
L 79.035921 24.438969 
L 78.98181 24.408899 
L 79.049449 24.394764 
L 79.096796 24.443022 
L 79.164435 24.360927 
L 79.171199 24.393302 
L 79.25913 24.314367 
L 79.269275 24.326798 
L 79.36397 24.28347 
L 79.276039 24.334538 
L 79.387643 24.342391 
L 79.705546 24.289353 
L 79.708928 24.303425 
L 79.725838 24.35872 
L 79.803623 24.250105 
L 79.817151 24.284494 
L 79.820533 24.292908 
L 79.864498 24.223327 
L 79.911845 24.226844 
L 80.074179 24.036452 
L 80.172255 24.019584 
L 80.101234 24.000738 
L 80.179019 24.007209 
L 80.280477 23.934672 
L 80.304151 23.94549 
L 80.307533 23.956161 
L 80.37179 23.840683 
L 80.381936 23.841416 
L 80.395463 23.796819 
L 80.473248 23.887494 
L 80.486776 23.849441 
L 80.490158 23.871022 
L 80.584852 23.779074 
L 80.652491 23.741576 
L 80.679547 23.795622 
L 80.696457 23.766021 
L 80.750568 23.855798 
L 80.801297 23.739191 
L 80.838498 23.705497 
L 80.89261 23.77805 
L 80.909519 23.762954 
L 81.01436 23.712172 
L 81.041415 23.739112 
L 81.13611 23.760173 
L 81.058325 23.709818 
L 81.153019 23.710823 
L 81.454013 23.465094 
L 81.166547 23.737622 
L 81.491214 23.536169 
L 81.572381 23.651923 
L 81.6062 23.560068 
L 81.957923 23.556234 
L 81.974832 23.567945 
L 82.113492 23.353044 
L 82.120256 23.390368 
L 82.201423 23.26858 
L 82.204805 23.27692 
L 82.292735 23.218848 
L 82.211569 23.260506 
L 82.299499 23.199853 
L 82.397576 23.149824 
L 82.306263 23.206064 
L 82.424631 23.172035 
L 82.529472 23.186197 
L 82.482124 23.110388 
L 82.539617 23.176702 
L 82.63093 23.118983 
L 82.651222 23.16113 
L 82.745916 23.160045 
L 82.671513 23.131029 
L 82.75268 23.117185 
L 82.969125 23.00275 
L 82.986034 23.037297 
L 83.107784 23.126604 
L 83.114548 23.101988 
L 83.216007 23.032894 
L 83.13484 23.12301 
L 83.236298 23.051434 
L 83.577875 22.853099 
L 83.696243 22.902605 
L 83.811229 22.76409 
L 83.831521 22.779432 
L 83.946507 22.905918 
L 83.841667 22.765627 
L 83.976945 22.866197 
L 84.095313 22.735182 
L 84.105459 22.766891 
L 84.183243 22.795042 
L 84.122368 22.709378 
L 84.210299 22.7578 
L 84.213681 22.727655 
L 84.261028 22.81444 
L 84.321903 22.757108 
L 84.409834 22.725386 
L 84.338813 22.785491 
L 84.423361 22.802809 
L 84.440271 22.850328 
L 84.480855 22.75513 
L 84.528202 22.778771 
L 84.54173 22.755052 
L 84.61275 22.839 
L 84.636424 22.800993 
L 84.731119 22.750433 
L 84.666862 22.874374 
L 84.758174 22.78521 
L 84.896834 22.789193 
L 84.903598 22.812158 
L 84.947563 22.87343 
L 85.01182 22.793281 
L 85.113279 22.665301 
L 85.018584 22.804528 
L 85.15048 22.736269 
L 85.248556 22.74996 
L 85.278994 22.691828 
L 85.363543 22.638555 
L 85.387216 22.693397 
L 85.404126 22.729437 
L 85.478529 22.643144 
L 85.492057 22.6635 
L 85.664536 22.572733 
L 85.688209 22.618181 
L 85.772758 22.61561 
L 85.725411 22.56995 
L 85.786286 22.568768 
L 85.999348 22.423643 
L 86.110953 22.355892 
L 86.01964 22.444763 
L 86.114335 22.3697 
L 86.12448 22.399125 
L 86.168446 22.296345 
L 86.212411 22.313297 
L 86.236085 22.340148 
L 86.276668 22.233396 
L 86.398418 22.147711 
L 86.344307 22.272339 
L 86.405182 22.155091 
L 86.482967 22.173098 
L 86.510022 22.144168 
L 86.631772 22.003307 
L 86.635154 22.01467 
L 86.797488 22.006966 
L 86.804252 21.96272 
L 87.152592 21.816195 
L 86.814398 21.982285 
L 87.159356 21.86397 
L 87.189794 21.825222 
L 87.277724 21.884097 
L 87.862801 21.417359 
L 88.001461 21.23282 
L 88.160412 20.922683 
L 88.272016 19.983776 
L 88.292308 18.077194 
L 88.305836 8.846191 
L 88.383621 21.90959 
L 88.397148 21.809495 
L 88.545954 19.173247 
L 88.562864 10.543698 
L 88.633885 22.358376 
L 88.637267 22.342623 
L 88.775926 19.937944 
L 88.796218 15.451052 
L 88.802982 10.359382 
L 88.877385 22.72836 
L 88.901058 22.412485 
L 89.046482 18.722862 
L 89.056628 10.254096 
L 89.134413 23.01715 
L 89.14794 22.860646 
L 89.313656 19.54193 
L 89.330566 10.005919 
L 89.394823 21.616166 
L 89.40835 23.256294 
L 89.506427 21.817969 
L 89.614649 18.317982 
L 89.624795 9.839367 
L 89.70258 23.444299 
L 89.719489 23.313149 
L 89.925788 19.625327 
L 89.942698 9.684221 
L 90.006955 20.363279 
L 90.023865 23.600492 
L 90.118559 22.429722 
L 90.280892 18.204481 
L 90.291038 9.617696 
L 90.372205 23.678769 
L 90.385733 23.579326 
L 90.652907 18.719614 
L 90.663052 9.570098 
L 90.744219 23.729182 
L 90.754365 23.674777 
L 91.051976 19.707402 
L 91.065504 14.574949 
L 91.068886 10.240432 
L 91.068886 10.240432 
" clip-path="url(#pef4bfd65c5)" style="fill: none; stroke: #000000; stroke-width: 0.6; stroke-linecap: square"/>
   </g>
   <g id="line2d_2">
    <path d="M 9.905557 38.385525 
L 10.152439 37.818481 
L 10.162585 37.851215 
L 10.439905 38.396612 
L 10.176113 37.828856 
L 10.446668 38.374816 
L 10.50078 38.507398 
L 10.598856 38.674067 
L 10.629294 38.634443 
L 10.893085 38.733632 
L 11.014835 38.870021 
L 11.021599 38.845622 
L 11.238044 39.153989 
L 11.268481 39.119804 
L 11.325974 39.211773 
L 11.342884 39.187329 
L 11.454488 39.290777 
L 11.35303 39.180751 
L 11.468016 39.245329 
L 11.47478 39.224621 
L 11.555947 39.305018 
L 11.711516 39.623449 
L 11.725044 39.57 
L 11.779155 39.686152 
L 11.812975 39.668605 
L 11.927961 39.773143 
L 11.948253 39.75507 
L 11.985454 39.696365 
L 12.053093 39.781929 
L 12.154551 39.865328 
L 12.195135 39.842637 
L 12.296593 39.846089 
L 12.2391 39.910291 
L 12.299975 39.860026 
L 12.394669 40.010171 
L 12.327031 39.847673 
L 12.421725 39.971354 
L 12.641552 40.135913 
L 12.766684 40.111572 
L 12.770066 40.118361 
L 12.88167 40.041287 
L 12.901961 39.984131 
L 12.9696 40.122079 
L 12.972982 40.114935 
L 13.010184 40.077511 
L 13.10826 40.150913 
L 13.189427 40.042858 
L 13.219864 40.128898 
L 13.321323 40.18234 
L 13.334851 40.153573 
L 13.344996 40.141854 
L 13.38558 40.258393 
L 13.405871 40.253303 
L 13.673045 40.503475 
L 13.439691 40.204293 
L 13.703483 40.469421 
L 13.791413 40.375052 
L 13.825233 40.382691 
L 13.835379 40.377744 
L 13.943601 40.433809 
L 14.01124 40.311499 
L 14.065351 40.367616 
L 14.183719 40.464784 
L 14.204011 40.438469 
L 14.207393 40.412453 
L 14.288559 40.526485 
L 14.308851 40.487202 
L 14.420455 40.543171 
L 14.423837 40.525979 
L 14.562497 40.525808 
L 14.572643 40.508935 
L 14.691011 40.448772 
L 14.579407 40.51252 
L 14.694393 40.452417 
L 14.843199 40.422614 
L 14.707921 40.480553 
L 14.853344 40.467092 
L 15.100227 40.420381 
L 15.188157 40.343222 
L 15.215213 40.367855 
L 15.38431 40.427375 
L 15.235504 40.33427 
L 15.387692 40.421602 
L 15.577081 40.343229 
L 15.621046 40.408235 
L 15.688685 40.341472 
L 15.715741 40.363788 
L 15.773234 40.292934 
L 15.790144 40.293518 
L 16.182449 40.197623 
L 16.189213 40.220968 
L 16.294054 40.253523 
L 16.202741 40.210208 
L 16.300817 40.222014 
L 16.415804 40.086623 
L 16.459769 40.128669 
L 16.503734 40.198853 
L 16.571373 40.146679 
L 16.632248 40.0489 
L 16.595047 40.15777 
L 16.689741 40.086079 
L 16.710033 40.096767 
L 16.74047 40.031921 
L 16.794582 40.05941 
L 17.180123 39.989964 
L 17.210561 39.963705 
L 17.298492 40.069725 
L 17.362749 39.961393 
L 17.420242 40.018724 
L 17.5217 40.079444 
L 17.427006 40.006113 
L 17.545374 40.044083 
L 17.55552 40.014738 
L 17.596103 40.170826 
L 17.636686 40.160869 
L 17.690797 40.19154 
L 17.66036 40.142879 
L 17.734763 40.12438 
L 17.751672 40.12734 
L 17.873422 39.954644 
L 17.897096 39.993939 
L 17.937679 39.898134 
L 17.978263 39.913109 
L 18.103395 39.888724 
L 18.001936 39.942577 
L 18.116923 39.909235 
L 18.208235 39.993475 
L 18.235291 39.970791 
L 18.448353 40.135037 
L 18.769638 39.922182 
L 18.877861 40.003812 
L 18.820367 39.869775 
L 18.888006 39.98263 
L 18.945499 39.907214 
L 18.999611 39.962415 
L 19.148416 40.024116 
L 19.151798 40.017001 
L 19.290458 40.052628 
L 19.29384 40.067329 
L 19.314132 40.000284 
L 19.39868 40.03768 
L 19.41559 40.03105 
L 19.449409 40.13896 
L 19.456173 40.121208 
L 19.561014 40.18411 
L 19.574541 40.166717 
L 19.828187 40.222338 
L 19.845097 40.285941 
L 19.939792 40.220463 
L 20.291514 40.404768 
L 20.504577 41.277327 
L 20.507959 41.271153 
L 20.66691 41.549608 
L 20.717639 41.507178 
L 20.754841 41.617084 
L 20.764987 41.58375 
L 20.856299 41.728315 
L 20.896882 41.676821 
L 20.991577 41.635808 
L 20.920556 41.689008 
L 21.015251 41.645888 
L 21.644293 41.671899 
L 21.735605 41.707468 
L 21.67473 41.665651 
L 21.755897 41.687414 
L 21.843827 41.581967 
L 21.877647 41.608551 
L 22.012925 41.774811 
L 21.891175 41.606098 
L 22.016307 41.767652 
L 22.060272 41.804337 
L 22.107619 41.700876 
L 22.340974 41.648067 
L 22.117765 41.722941 
L 22.351119 41.677381 
L 22.425522 41.74253 
L 22.462724 41.694674 
L 22.5608 41.501009 
L 22.594619 41.555646 
L 22.641967 41.540136 
L 22.675786 41.634544 
L 22.68255 41.627282 
L 22.956488 41.639478 
L 22.963252 41.60337 
L 22.986925 41.627239 
L 23.078238 41.584162 
L 23.176314 41.707119 
L 23.20337 41.684761 
L 23.301446 41.670987 
L 23.216898 41.723021 
L 23.30821 41.698081 
L 23.338648 41.737925 
L 23.369085 41.648453 
L 23.416432 41.687388 
L 23.521273 41.575038 
L 23.531419 41.629905 
L 23.534801 41.638251 
L 23.599058 41.541039 
L 23.626113 41.582053 
L 23.680224 41.526618 
L 23.730953 41.605723 
L 23.737717 41.572302 
L 23.805356 41.547019 
L 23.754627 41.595909 
L 23.839176 41.616126 
L 23.937252 41.686218 
L 23.957544 41.669475 
L 24.015037 41.641035 
L 23.987981 41.683701 
L 24.062384 41.695757 
L 24.143551 41.668217 
L 24.07253 41.682284 
L 24.150315 41.636772 
L 24.224718 41.585126 
L 24.268683 41.613561 
L 24.292357 41.624736 
L 24.363377 41.545896 
L 24.370141 41.540166 
L 24.43778 41.638492 
L 24.441162 41.628543 
L 24.542621 41.576199 
L 24.546003 41.553999 
L 24.637315 41.634756 
L 24.647461 41.608985 
L 24.779357 41.647574 
L 24.843614 41.577624 
L 24.894343 41.612155 
L 25.060058 41.66494 
L 25.114169 41.739558 
L 25.175045 41.720471 
L 25.523385 41.783478 
L 25.526767 41.77488 
L 25.645135 41.641546 
L 25.651899 41.644976 
L 25.797323 41.659661 
L 25.875107 41.569086 
L 25.908927 41.625631 
L 26.003621 41.665717 
L 25.979948 41.571035 
L 26.020531 41.64012 
L 26.027295 41.629021 
L 26.098316 41.71523 
L 26.111844 41.703903 
L 26.115226 41.725505 
L 26.206538 41.614538 
L 26.20992 41.621307 
L 26.345198 41.499197 
L 26.351962 41.530827 
L 26.355344 41.543612 
L 26.433129 41.414043 
L 26.43651 41.417377 
L 26.480476 41.321992 
L 26.446656 41.42746 
L 26.544733 41.428852 
L 26.791615 41.724497 
L 26.551497 41.41234 
L 26.838962 41.671135 
L 26.879545 41.760598 
L 26.899837 41.751012 
L 26.903219 41.771062 
L 26.99115 41.634692 
L 26.994532 41.649543 
L 27.008059 41.667094 
L 27.07908 41.550387 
L 27.126428 41.520038 
L 27.180539 41.593827 
L 27.187303 41.562464 
L 27.33949 41.599532 
L 27.194066 41.545608 
L 27.342872 41.59628 
L 28.20865 41.180192 
L 28.306727 41.132925 
L 28.3304 41.160013 
L 28.492734 41.256424 
L 28.367602 41.124751 
L 28.496116 41.249118 
L 28.655067 41.002118 
L 28.658449 41.026798 
L 29.158977 40.738969 
L 29.169123 40.767187 
L 29.179269 40.801645 
L 29.253672 40.638814 
L 29.263818 40.659268 
L 29.351748 40.593839 
L 29.284109 40.678955 
L 29.385568 40.636476 
L 29.405859 40.645926 
L 29.456589 40.551956 
L 29.45997 40.553755 
L 29.760964 40.223028 
L 29.764346 40.231179 
L 29.828603 40.345016 
L 29.882714 40.25371 
L 30.065339 40.177687 
L 30.163415 40.109002 
L 30.180325 40.137213 
L 30.193853 40.164885 
L 30.271638 40.059326 
L 30.281783 40.086499 
L 30.288547 40.081307 
L 30.335895 40.186907 
L 30.373096 40.135179 
L 30.46779 40.1436 
L 30.39677 40.12005 
L 30.481318 40.139198 
L 30.545575 40.15632 
L 30.599686 40.096691 
L 30.704527 40.071741 
L 30.630124 40.045134 
L 30.707909 40.066287 
L 30.751874 39.971067 
L 30.822895 40.02051 
L 30.924353 39.977382 
L 30.873624 39.939423 
L 30.927735 39.971465 
L 30.98861 39.91438 
L 30.944645 39.97724 
L 31.046103 39.948715 
L 31.245638 39.927731 
L 31.377534 39.794827 
L 31.276076 39.956748 
L 31.401208 39.818363 
L 31.462083 39.872191 
L 31.441791 39.806789 
L 31.516194 39.835085 
L 31.681909 39.655624 
L 31.692055 39.674423 
L 31.702201 39.702001 
L 31.786749 39.593474 
L 32.097889 39.269262 
L 31.834097 39.62617 
L 32.111416 39.295997 
L 32.11818 39.318021 
L 32.148618 39.24877 
L 32.223021 39.295934 
L 32.351535 39.300064 
L 32.297423 39.234812 
L 32.354916 39.285871 
L 32.74384 39.213148 
L 32.868972 39.121562 
L 32.889264 39.144791 
L 32.91632 39.071456 
L 32.960285 39.062191 
L 33.011014 38.998202 
L 33.082035 39.014974 
L 33.227459 38.980251 
L 33.237604 38.998243 
L 33.240986 39.007361 
L 33.295098 38.932229 
L 33.325535 38.939195 
L 33.460813 38.724 
L 33.467577 38.752513 
L 33.54198 38.611491 
L 33.545362 38.622146 
L 33.856501 36.976249 
L 33.876792 30.46027 
L 33.886938 27.490841 
L 33.957959 40.29267 
L 33.968105 40.215255 
L 34.181167 36.092849 
L 34.194695 27.518558 
L 34.265716 40.982597 
L 34.279244 40.882186 
L 34.512598 36.396457 
L 34.526126 27.533549 
L 34.600529 41.165361 
L 34.607293 41.121382 
L 34.800064 38.383281 
L 34.860939 35.165009 
L 34.871085 27.531884 
L 34.945487 41.300564 
L 34.965779 41.152705 
L 35.199133 37.834042 
L 35.229571 35.967246 
L 35.243099 27.566214 
L 35.314119 41.408011 
L 35.331029 41.311351 
L 35.608349 37.634373 
L 35.632022 35.826661 
L 35.64555 27.537951 
L 35.719953 41.487089 
L 35.733481 41.397837 
L 36.064912 36.190828 
L 36.078439 27.422371 
L 36.14946 41.548207 
L 36.162988 41.49987 
L 36.190044 41.268448 
L 36.501183 38.012811 
L 36.555294 36.015082 
L 36.568822 27.543571 
L 36.643224 41.513149 
L 36.65337 41.458437 
L 36.991565 38.067672 
L 37.038912 37.408279 
L 37.059204 35.544343 
L 37.072732 27.549743 
L 37.143752 41.548075 
L 37.160662 41.490049 
L 37.613843 36.177264 
L 37.630753 27.678216 
L 37.705155 41.500822 
L 38.212447 36.983902 
L 38.232739 29.410742 
L 38.239503 27.935736 
L 38.307142 41.392101 
L 38.310524 41.385033 
L 38.347725 41.151476 
L 38.658864 38.60827 
L 38.848253 36.836148 
L 38.871927 28.160948 
L 38.919274 39.564883 
L 38.94633 41.327069 
L 39.03426 40.607968 
L 39.379219 38.062846 
L 39.382601 38.065354 
L 39.406274 37.956147 
L 39.484059 36.980479 
L 39.504351 30.794413 
L 39.511115 28.161969 
L 39.582136 41.323657 
L 39.595663 41.280222 
L 39.599045 41.282403 
L 39.609191 41.181293 
L 40.082664 37.919913 
L 40.16383 37.343421 
L 40.194268 35.105108 
L 40.207796 28.466422 
L 40.285581 41.224457 
L 40.292344 41.180058 
L 40.870657 37.005928 
L 40.890949 33.651689 
L 40.904477 28.586213 
L 40.97888 41.168521 
L 40.989025 41.12656 
L 41.607922 36.271457 
L 41.628213 28.461496 
L 41.689088 41.082198 
L 41.699234 41.203875 
L 41.777019 40.646874 
L 42.280929 37.916377 
L 42.287693 37.920889 
L 42.291075 37.931445 
L 42.35195 37.770254 
L 42.412825 37.514272 
L 42.4737 36.823262 
L 42.493991 33.223122 
L 42.507519 29.23841 
L 42.57854 40.979556 
L 42.588686 40.964319 
L 42.622505 40.672891 
L 42.967464 38.482423 
L 43.231256 37.381149 
L 43.268457 35.637881 
L 43.285367 28.645463 
L 43.35977 41.198374 
L 43.363152 41.169522 
L 43.434173 40.656709 
L 43.711492 38.889613 
L 44.036159 38.012914 
L 44.07336 37.969964 
L 44.151145 38.026613 
L 44.242458 37.92775 
L 44.276277 37.984681 
L 44.33377 38.014902 
L 44.299951 38.049282 
L 44.343916 38.072163 
L 44.57727 38.472235 
L 44.580652 38.448783 
L 44.665201 38.600074 
L 44.668583 38.600202 
L 44.939139 38.756297 
L 45.351736 39.265804 
L 45.365264 39.245635 
L 45.395701 39.205621 
L 45.459958 39.327415 
L 45.466722 39.322484 
L 45.662875 39.712166 
L 45.689931 39.694599 
L 45.713604 39.647686 
L 45.774479 39.808727 
L 45.784625 39.796897 
L 45.916521 39.86683 
L 45.919903 39.857957 
L 46.065327 39.828196 
L 46.078855 39.851573 
L 46.318973 40.020325 
L 46.099146 39.833616 
L 46.335882 39.99538 
L 46.352792 39.981508 
L 46.396757 40.052857 
L 46.420431 40.055553 
L 46.484688 40.190481 
L 46.555709 40.154892 
L 46.59291 40.108381 
L 46.62673 40.17867 
L 46.663931 40.180983 
L 46.904049 40.418855 
L 46.931105 40.498379 
L 47.019036 40.458351 
L 47.13064 40.386136 
L 47.144168 40.402578 
L 47.2693 40.522491 
L 47.276063 40.503492 
L 47.360612 40.635236 
L 47.404577 40.547732 
L 47.779973 40.261644 
L 47.786737 40.289191 
L 47.823939 40.304374 
L 47.87805 40.23079 
L 47.888196 40.193819 
L 47.972744 40.321572 
L 48.10464 40.437575 
L 47.9998 40.315265 
L 48.108022 40.436324 
L 48.158751 40.462072 
L 48.12155 40.417737 
L 48.206099 40.397652 
L 48.2433 40.338975 
L 48.304175 40.447874 
L 48.310939 40.439359 
L 48.419161 40.523191 
L 48.321085 40.426622 
L 48.432689 40.507328 
L 48.591641 40.33887 
L 48.449599 40.517261 
L 48.598404 40.376389 
L 48.618696 40.396833 
L 48.666043 40.305758 
L 48.699863 40.345759 
L 48.824995 40.256891 
L 48.831759 40.271246 
L 48.848669 40.29144 
L 48.916307 40.205631 
L 48.933217 40.243035 
L 48.960273 40.210717 
L 49.011002 40.274382 
L 49.044821 40.2401 
L 49.180099 40.209547 
L 49.051585 40.248416 
L 49.186863 40.247463 
L 49.301849 40.253703 
L 49.308613 40.242176 
L 49.629898 40.234491 
L 49.748266 40.194366 
L 49.751648 40.207195 
L 49.819287 40.052859 
L 49.832815 40.084969 
L 49.934273 40.063895 
L 49.856489 40.135054 
L 49.964711 40.105857 
L 49.988384 40.142735 
L 50.022204 40.056498 
L 50.076315 40.10632 
L 50.116898 40.07998 
L 50.13719 40.193805 
L 50.181155 40.129948 
L 50.265704 40.185057 
L 50.194683 40.119336 
L 50.302905 40.176624 
L 50.441565 40.025883 
L 50.465239 40.046898 
L 50.475385 40.067443 
L 50.543024 39.990101 
L 50.576843 40.047509 
L 50.607281 40.102874 
L 50.583607 40.042313 
L 50.695211 40.056276 
L 50.769614 40.001886 
L 50.715503 40.091961 
L 50.803433 40.05762 
L 50.860927 40.213836 
L 50.952239 40.159386 
L 51.057079 39.995852 
L 51.101045 40.042278 
L 51.212649 40.089259 
L 51.16192 40.022184 
L 51.219413 40.079717 
L 51.334399 40.076582 
L 51.351309 40.037534 
L 51.476441 39.943747 
L 51.621864 40.143263 
L 51.655684 40.097001 
L 51.672594 40.107127 
L 51.77067 40.097848 
L 51.838309 40.154942 
L 51.872128 40.072428 
L 51.878892 40.085343 
L 51.90933 40.023895 
L 51.976969 40.151576 
L 52.325309 40.128082 
L 52.406476 40.068632 
L 52.440295 40.106065 
L 52.504552 40.205817 
L 52.558664 40.174841 
L 52.619539 40.186705 
L 52.582337 40.128074 
L 52.649976 40.125328 
L 52.724379 40.080405 
L 52.751435 40.144918 
L 52.76158 40.117226 
L 52.920532 40.178592 
L 53.065956 40.301182 
L 53.187706 40.218049 
L 53.072719 40.318255 
L 53.207997 40.246927 
L 53.2824 40.271438 
L 53.312838 40.212266 
L 53.448115 40.09137 
L 53.319602 40.218132 
L 53.454879 40.093958 
L 53.66456 40.117436 
L 53.684852 40.047697 
L 53.725435 40.155045 
L 53.776164 40.106442 
L 53.948644 40.074084 
L 53.958789 40.103449 
L 54.083921 40.227939 
L 54.090685 40.206805 
L 54.229345 40.070831 
L 54.53372 40.106799 
L 54.540484 40.085729 
L 54.574304 40.051922 
L 54.625033 40.143948 
L 54.648706 40.105054 
L 54.682526 40.074892 
L 55.294658 41.60547 
L 55.29804 41.568924 
L 55.375825 41.677132 
L 55.399498 41.651583 
L 55.450228 41.686623 
L 55.497575 41.588224 
L 55.504339 41.618183 
L 55.57536 41.706718 
L 55.636235 41.758196 
L 55.595651 41.698814 
L 55.686964 41.701771 
L 55.751221 41.763171 
L 55.825624 41.608388 
L 55.910172 41.653432 
L 55.9237 41.67824 
L 55.950756 41.740764 
L 56.038686 41.680487 
L 56.075888 41.632892 
L 56.143527 41.706002 
L 56.146909 41.705472 
L 56.204402 41.780276 
L 56.157054 41.702295 
L 56.255131 41.69639 
L 56.370117 41.592713 
L 56.400555 41.62987 
L 56.518923 41.736182 
L 56.637291 41.65101 
L 56.640673 41.654071 
L 56.681256 41.649693 
L 56.731985 41.722169 
L 56.80977 41.796795 
L 56.738749 41.717618 
L 56.84359 41.724105 
L 56.96534 41.669727 
L 56.975485 41.676583 
L 57.03636 41.617841 
L 57.083708 41.655843 
L 57.46925 41.576766 
L 57.547034 41.489111 
L 57.587618 41.537892 
L 57.69584 41.670777 
L 57.709368 41.630078 
L 57.946104 41.536289 
L 57.949486 41.548277 
L 58.06109 41.574256 
L 57.990069 41.53839 
L 58.064472 41.573473 
L 58.09491 41.515178 
L 58.132111 41.605034 
L 58.169312 41.585638 
L 58.274153 41.613863 
L 58.209896 41.567825 
L 58.277535 41.59499 
L 58.409431 41.481702 
L 58.487215 41.393701 
L 58.422958 41.492763 
L 58.534563 41.419139 
L 58.615729 41.592806 
L 58.663077 41.580385 
L 58.740861 41.566617 
L 58.754389 41.625709 
L 58.771299 41.594842 
L 58.950542 41.624019 
L 58.788209 41.560864 
L 58.96407 41.604948 
L 58.967452 41.597639 
L 59.001271 41.682038 
L 59.048619 41.677628 
L 59.163605 41.746648 
L 59.170369 41.720988 
L 59.295501 41.654289 
L 59.298883 41.656864 
L 59.420633 41.706458 
L 59.586348 41.644795 
L 59.43416 41.727805 
L 59.593112 41.657 
L 59.701334 41.712282 
L 59.610022 41.638753 
L 59.718244 41.686091 
L 59.799411 41.637676 
L 59.829848 41.674209 
L 59.853522 41.700907 
L 59.900869 41.611438 
L 59.927925 41.623332 
L 60.343904 41.652491 
L 60.347286 41.636635 
L 60.604314 41.463316 
L 60.35405 41.665399 
L 60.607696 41.475399 
L 60.742974 41.654709 
L 60.627987 41.457281 
L 60.793703 41.533598 
L 61.243502 41.594759 
L 61.284085 41.653933 
L 61.355106 41.605341 
L 61.493766 41.525615 
L 61.632425 41.626554 
L 61.520821 41.505924 
L 61.635807 41.618455 
L 61.859016 41.52428 
L 61.889453 41.538905 
L 61.98753 41.381075 
L 62.156627 41.326888 
L 62.170155 41.369733 
L 62.187065 41.426597 
L 62.281759 41.369933 
L 62.332488 41.30975 
L 62.403509 41.339226 
L 62.586134 41.187979 
L 62.410273 41.354889 
L 62.589516 41.205799 
L 62.690975 41.182762 
L 62.636864 41.120553 
L 62.704502 41.154954 
L 63.046079 40.970425 
L 63.052843 40.993763 
L 63.140774 41.110713 
L 63.181357 41.023523 
L 63.276051 40.963782 
L 63.292961 41.01603 
L 63.350454 40.902041 
L 63.478968 40.696088 
L 63.485732 40.716569 
L 63.617628 40.631181 
L 63.729232 40.681717 
L 63.63792 40.59632 
L 63.735996 40.643225 
L 63.88142 40.550705 
L 63.905093 40.604256 
L 63.976114 40.515539 
L 63.982878 40.522849 
L 64.0911 40.458788 
L 64.097864 40.481925 
L 64.182413 40.403427 
L 64.287253 40.333274 
L 64.307545 40.339169 
L 64.324455 40.392067 
L 64.361656 40.27902 
L 64.409003 40.272632 
L 64.578101 40.416526 
L 64.588247 40.395134 
L 64.638976 40.332528 
L 64.686323 40.432438 
L 64.696469 40.413246 
L 64.703233 40.441051 
L 64.730288 40.333831 
L 64.787781 40.353069 
L 64.916295 40.270435 
L 64.970406 40.286142 
L 65.01099 40.187932 
L 65.136122 40.032063 
L 65.142886 40.041439 
L 65.193615 40.080139 
L 65.251108 40.031074 
L 65.362712 39.938414 
L 65.379622 39.951538 
L 65.450643 40.02068 
L 65.501372 39.952995 
L 65.5149 39.974266 
L 65.589303 39.889995 
L 65.599448 39.897544 
L 65.907206 39.66975 
L 66.028956 39.523494 
L 66.032338 39.536203 
L 66.042483 39.506266 
L 66.181143 39.548111 
L 66.316421 39.31847 
L 66.323185 39.34268 
L 66.36715 39.435766 
L 66.411116 39.274838 
L 66.417879 39.281102 
L 66.485518 39.158637 
L 66.532866 39.266975 
L 66.600505 39.234 
L 66.53963 39.232017 
L 66.617414 39.191807 
L 66.664762 39.137314 
L 66.641088 39.218637 
L 66.729019 39.183522 
L 66.769602 39.220553 
L 66.823713 39.126596 
L 66.830477 39.136718 
L 66.945463 39.076785 
L 66.901498 39.154768 
L 66.955609 39.086843 
L 67.02663 39.079958 
L 66.969137 39.110663 
L 67.057067 39.135354 
L 67.144998 39.197096 
L 67.185581 39.142387 
L 67.459519 38.916891 
L 67.466283 38.926849 
L 67.493338 38.951919 
L 67.54745 38.863294 
L 67.567741 38.889191 
L 67.730075 38.556719 
L 67.74022 38.565692 
L 67.780804 38.483493 
L 67.807859 38.483381 
L 68.054741 36.411147 
L 68.075033 27.621853 
L 68.142672 40.231917 
L 68.149436 40.247808 
L 68.179873 39.97501 
L 68.369262 36.515965 
L 68.386172 27.622192 
L 68.457193 40.941673 
L 68.460575 40.927512 
L 68.687165 37.267439 
L 68.704075 31.18782 
L 68.710839 27.547365 
L 68.78186 41.166567 
L 68.802152 41.020507 
L 68.835971 40.631941 
L 69.04227 36.866588 
L 69.05918 27.546103 
L 69.123436 41.025135 
L 69.133582 41.295182 
L 69.221513 40.321319 
L 69.40752 37.141523 
L 69.427812 27.531172 
L 69.481923 38.122989 
L 69.505596 41.366149 
L 69.596909 40.414164 
L 69.809972 36.731183 
L 69.826881 27.498628 
L 69.89452 41.399358 
L 69.901284 41.453506 
L 69.965541 40.890296 
L 70.239479 36.828084 
L 70.256388 27.48923 
L 70.317264 40.974709 
L 70.334173 41.504348 
L 70.425486 40.709267 
L 70.712951 36.932465 
L 70.733243 27.529147 
L 70.787354 40.136634 
L 70.811028 41.505357 
L 70.898958 40.738884 
L 71.223625 34.608532 
L 71.233771 27.580463 
L 71.308174 41.551758 
L 71.325084 41.428396 
L 71.781646 36.611074 
L 71.801938 27.817917 
L 71.859431 41.143753 
L 71.872959 41.425986 
L 71.960889 40.724753 
L 72.255119 38.187182 
L 72.343049 36.577938 
L 72.363341 27.72724 
L 72.420834 41.238124 
L 72.434362 41.507624 
L 72.522293 40.805969 
L 72.630515 39.867731 
L 72.995765 36.049075 
L 73.012675 28.082609 
L 73.087078 41.324781 
L 73.320432 39.387469 
L 73.570696 37.769482 
L 73.631571 36.377893 
L 73.651863 28.138295 
L 73.712738 41.1899 
L 73.726265 41.313705 
L 73.800668 40.705826 
L 74.284287 36.958899 
L 74.304578 31.241116 
L 74.314724 28.367073 
L 74.385745 41.296925 
L 74.395891 41.203267 
L 74.504113 40.330444 
L 74.764523 38.495337 
L 74.798342 38.249626 
L 74.937002 37.14335 
L 74.957294 34.708075 
L 74.970822 28.124233 
L 75.041842 41.330435 
L 75.05537 41.279112 
L 75.386801 38.807656 
L 75.626919 37.877029 
L 75.748669 36.262338 
L 75.768961 28.800833 
L 75.826454 40.897099 
L 75.839982 41.131531 
L 75.92453 40.518712 
L 76.239051 38.538273 
L 76.58401 36.117939 
L 76.604302 28.874884 
L 76.668559 41.013108 
L 76.675323 41.074541 
L 76.746343 40.598501 
L 77.135267 38.24241 
L 77.148795 38.250967 
L 77.20967 38.131899 
L 77.476844 37.109032 
L 77.503899 35.115642 
L 77.520809 29.162794 
L 77.598594 41.02021 
L 78.085594 38.342003 
L 78.088976 38.361632 
L 78.163379 38.165058 
L 78.166761 38.168486 
L 78.244546 38.008369 
L 78.291893 38.044721 
L 78.46099 37.87732 
L 78.318948 38.067834 
L 78.467754 37.914419 
L 78.589504 38.021984 
L 78.596268 38.004939 
L 78.609796 37.979488 
L 78.687581 38.121506 
L 78.944609 38.542165 
L 78.94799 38.540447 
L 78.954754 38.506158 
L 78.991956 38.619928 
L 79.049449 38.575754 
L 79.191491 38.825688 
L 79.194873 38.81026 
L 79.269275 38.897793 
L 79.303095 38.979402 
L 79.391025 38.965578 
L 79.631144 39.314702 
L 79.637907 39.293291 
L 79.661581 39.238807 
L 79.705546 39.334828 
L 79.74613 39.308948 
L 79.878026 39.466052 
L 79.881408 39.457902 
L 79.935519 39.607075 
L 80.084324 39.885973 
L 80.09447 39.883519 
L 80.185783 39.819325 
L 80.138436 39.900198 
L 80.209456 39.83968 
L 80.304151 39.93273 
L 80.327825 39.908037 
L 80.33797 39.888074 
L 80.392082 39.991357 
L 80.408991 39.990881 
L 80.540887 40.076048 
L 80.547651 40.062514 
L 80.747186 40.18287 
L 80.77086 40.130973 
L 80.838498 40.059153 
L 80.885846 40.117987 
L 81.068471 40.348189 
L 80.916283 40.094096 
L 81.075235 40.327768 
L 81.081999 40.333775 
L 81.244332 40.233489 
L 81.464158 40.217576 
L 81.46754 40.208417 
L 81.50136 40.294059 
L 81.555471 40.288571 
L 81.626492 40.40592 
L 81.771916 40.445827 
L 81.656929 40.362246 
L 81.778679 40.415187 
L 81.876756 40.268894 
L 81.907193 40.310451 
L 81.941013 40.390209 
L 82.025562 40.309603 
L 82.130402 40.281508 
L 82.045853 40.347822 
L 82.140548 40.305526 
L 82.238624 40.384909 
L 82.258916 40.373918 
L 82.326555 40.346109 
L 82.343465 40.299375 
L 82.367138 40.283776 
L 82.428013 40.356422 
L 82.444923 40.34493 
L 82.485506 40.41369 
L 82.607256 40.661486 
L 82.61402 40.648861 
L 83.050291 40.434116 
L 83.053673 40.416446 
L 83.13484 40.53476 
L 83.148368 40.495913 
L 83.263354 40.493258 
L 83.178805 40.448508 
L 83.266736 40.488743 
L 83.405396 40.343702 
L 83.408778 40.36061 
L 83.63875 40.59474 
L 83.665806 40.565049 
L 83.682715 40.527644 
L 83.706389 40.59786 
L 83.780792 40.556267 
L 83.91607 40.510402 
L 83.990472 40.578902 
L 84.041202 40.549783 
L 84.220445 40.388278 
L 84.223827 40.398182 
L 84.335431 40.515071 
L 84.254264 40.365038 
L 84.345577 40.495306 
L 84.348959 40.482826 
L 84.36925 40.553155 
L 84.443653 40.538343 
L 84.487618 40.570336 
L 84.518056 40.488733 
L 84.548494 40.513312 
L 84.707445 40.268355 
L 84.758174 40.313445 
L 84.829195 40.349518 
L 84.859633 40.270692 
L 84.920508 40.215346 
L 84.974619 40.283198 
L 85.201209 40.182508 
L 85.211355 40.113563 
L 85.278994 40.211 
L 85.309431 40.196336 
L 85.339869 40.241376 
L 85.390598 40.161683 
L 85.417654 40.17275 
L 85.542786 40.176682 
L 85.546168 40.171039 
L 85.681446 40.04902 
L 85.566459 40.199566 
L 85.694973 40.085873 
L 85.701737 40.114152 
L 85.732175 40.053059 
L 85.799814 40.047585 
L 85.979057 40.179228 
L 86.006112 40.254071 
L 86.077133 40.156996 
L 86.087279 40.157268 
L 86.198883 40.146893 
L 86.171828 40.091418 
L 86.202265 40.140773 
L 86.381508 40.084072 
L 86.239467 40.186585 
L 86.38489 40.091579 
L 86.43562 40.142377 
L 86.499877 40.127425 
L 86.668974 40.071208 
L 86.685884 40.10273 
L 86.699411 40.136889 
L 86.760286 39.953764 
L 86.770432 39.959328 
L 86.777196 39.941158 
L 86.831307 40.012236 
L 86.878654 39.979243 
L 86.990259 40.086251 
L 86.919238 39.940535 
L 87.017314 40.072472 
L 87.020696 40.075273 
L 87.068043 39.976825 
L 87.179648 39.926915 
L 87.118773 40.02621 
L 87.199939 39.979038 
L 87.402856 39.911911 
L 87.413002 39.931835 
L 87.575335 40.085815 
L 87.578717 40.080933 
L 87.690322 40.04657 
L 87.585481 40.088092 
L 87.697085 40.078346 
L 87.77487 39.933522 
L 87.778252 39.943452 
L 87.822218 39.925894 
L 87.876329 40.007237 
L 87.883093 39.985648 
L 88.184086 40.111343 
L 88.647412 41.478602 
L 88.244961 40.048742 
L 88.667704 41.437183 
L 88.698142 41.39601 
L 88.738725 41.472884 
L 88.775926 41.45932 
L 88.830038 41.436326 
L 88.93826 41.594121 
L 88.945024 41.575155 
L 89.005899 41.706073 
L 89.032954 41.653154 
L 89.127649 41.771385 
L 89.066774 41.609474 
L 89.154704 41.725287 
L 89.371149 41.808891 
L 89.435406 41.859843 
L 89.475989 41.753753 
L 89.503045 41.818527 
L 89.553774 41.714839 
L 89.577448 41.718634 
L 89.675524 41.692393 
L 89.601121 41.761074 
L 89.695816 41.712637 
L 89.973135 41.687329 
L 90.057684 41.665583 
L 90.071212 41.722445 
L 90.081358 41.712393 
L 90.226781 41.764321 
L 90.304566 41.691064 
L 90.250455 41.781941 
L 90.341767 41.722127 
L 90.355295 41.694642 
L 90.41617 41.776819 
L 90.446608 41.758893 
L 90.456754 41.77452 
L 90.514247 41.669272 
L 90.53792 41.689228 
L 90.67658 41.623027 
L 90.703636 41.683509 
L 90.754365 41.576616 
L 90.781421 41.608435 
L 90.842296 41.563897 
L 90.869351 41.62879 
L 90.893025 41.611586 
L 90.906553 41.654186 
L 91.014775 41.592011 
L 91.062122 41.582786 
L 91.035066 41.617642 
L 91.068886 41.621569 
" clip-path="url(#pef4bfd65c5)" style="fill: none; stroke: #000000; stroke-width: 0.6; stroke-linecap: square"/>
   </g>
   <g id="line2d_3">
    <path d="M 9.905557 44.631215 
L 9.99687 58.239582 
L 10.159203 56.479435 
L 10.260661 54.570017 
L 10.270807 44.424827 
L 10.358738 58.050992 
L 10.368884 58.370076 
L 10.460196 57.440589 
L 10.663113 53.814182 
L 10.673259 44.346857 
L 10.767953 58.475495 
L 10.784863 58.343537 
L 11.089238 54.233946 
L 11.099384 44.265194 
L 11.194079 58.521043 
L 11.197461 58.525581 
L 11.21437 58.376239 
L 11.545801 54.237072 
L 11.555947 44.209967 
L 11.650641 58.532044 
L 11.654023 58.535456 
L 11.667551 58.405171 
L 12.015892 55.370448 
L 12.032801 52.9681 
L 12.039565 44.178869 
L 12.13426 58.501477 
L 12.141024 58.481218 
L 12.533329 54.357676 
L 12.543475 44.15714 
L 12.634788 58.466878 
L 12.63817 58.471613 
L 12.655079 58.326563 
L 13.044003 54.950813 
L 13.060913 44.185063 
L 13.135316 56.032979 
L 13.152225 58.462895 
L 13.24692 57.58294 
L 13.453219 56.250118 
L 13.581733 55.145236 
L 13.59526 49.198242 
L 13.602024 44.156519 
L 13.693337 58.394367 
L 13.696719 58.387019 
L 14.136372 53.898501 
L 14.146518 44.134917 
L 14.23783 58.389306 
L 14.241212 58.374796 
L 14.701157 54.169541 
L 14.711303 44.115621 
L 14.802615 58.332871 
L 15.255796 54.468908 
L 15.269324 44.156101 
L 15.353872 58.281604 
L 15.357254 58.332608 
L 15.424893 57.714575 
L 15.651484 56.249794 
L 15.817199 55.328793 
L 15.834109 53.129804 
L 15.840873 44.124141 
L 15.932185 58.29273 
L 15.938949 58.25943 
L 16.23656 56.176839 
L 16.239942 56.186859 
L 16.294054 56.014223 
L 16.415804 54.657878 
L 16.429331 44.099807 
L 16.507116 57.76763 
L 16.517262 58.223606 
L 16.611957 57.351412 
L 16.899422 55.912607 
L 16.963679 55.514931 
L 16.990734 54.00459 
L 17.00088 44.103596 
L 17.092193 58.229631 
L 17.095575 58.208573 
L 17.585957 54.358636 
L 17.596103 44.128958 
L 17.687415 58.176993 
L 17.751672 57.578874 
L 18.039138 56.096665 
L 18.04252 56.097997 
L 18.157506 55.927257 
L 18.258964 54.677357 
L 18.272492 44.035484 
L 18.350277 57.608543 
L 18.363805 58.095952 
L 18.455117 57.219588 
L 18.695235 56.116446 
L 18.921826 55.785892 
L 18.931972 55.808381 
L 18.938736 55.830671 
L 19.01652 55.689378 
L 19.077395 54.664006 
L 19.090923 44.04305 
L 19.168708 57.546494 
L 19.178854 57.867058 
L 19.270166 57.000603 
L 19.581305 55.822751 
L 19.584687 55.852074 
L 19.652326 55.495295 
L 19.679382 54.572028 
L 19.69291 44.115614 
L 19.774076 57.905433 
L 19.78084 57.97594 
L 19.851861 57.304345 
L 20.04125 56.236893 
L 20.129181 56.161995 
L 20.156236 56.244742 
L 20.274604 57.115385 
L 20.403118 59.459182 
L 20.463993 59.586036 
L 20.673674 59.992757 
L 20.680438 59.990412 
L 20.690584 59.97211 
L 20.768368 60.055774 
L 20.77175 60.053643 
L 20.781896 60.125508 
L 20.890119 60.106697 
L 21.106563 60.1567 
L 21.109945 60.177506 
L 21.18773 60.162084 
L 21.164056 60.100308 
L 21.208022 60.123807 
L 21.224931 60.161592 
L 21.319626 60.172762 
L 21.339917 60.196831 
L 21.390647 60.130863 
L 21.424466 60.149656 
L 21.454904 60.128619 
L 21.485341 60.180344 
L 21.532688 60.170994 
L 21.566508 60.19186 
L 21.583418 60.131835 
L 21.634147 60.132695 
L 21.759279 60.106507 
L 21.776188 60.14385 
L 21.837064 60.190515 
L 21.793098 60.128393 
L 21.887793 60.157837 
L 21.958814 60.175117 
L 22.009543 60.110192 
L 22.124529 60.17906 
L 22.168494 60.135513 
L 22.249661 60.111718 
L 22.225987 60.163499 
L 22.273335 60.167322 
L 22.368029 60.179526 
L 22.313918 60.131878 
L 22.388321 60.155748 
L 22.425522 60.130925 
L 22.479633 60.198166 
L 22.496543 60.167657 
L 22.54389 60.198847 
L 22.621675 60.153142 
L 22.740043 60.184013 
L 22.648731 60.125505 
L 22.746807 60.166507 
L 22.753571 60.169829 
L 22.875321 60.137263 
L 22.922668 60.16639 
L 22.990307 60.148502 
L 23.139113 60.147162 
L 23.142495 60.155064 
L 23.20337 60.190587 
L 23.183078 60.126226 
L 23.254099 60.138816 
L 23.352175 60.125666 
L 23.2913 60.192144 
L 23.372467 60.151018 
L 23.389377 60.190105 
L 23.55171 60.155376 
L 23.869613 60.163556 
L 23.974454 60.116027 
L 23.984599 60.139083 
L 24.102968 60.169661 
L 24.109731 60.157512 
L 24.190898 60.104145 
L 24.146933 60.188941 
L 24.217954 60.157595 
L 24.31603 60.180314 
L 24.288975 60.106074 
L 24.329558 60.15467 
L 24.434398 60.083392 
L 24.336322 60.169287 
L 24.451308 60.114221 
L 24.566294 60.168123 
L 24.508801 60.07633 
L 24.569676 60.157078 
L 24.701572 60.128753 
L 24.779357 60.193718 
L 24.813176 60.152385 
L 24.918017 60.100615 
L 24.857142 60.209868 
L 24.928162 60.129907 
L 25.300177 60.125611 
L 25.303558 60.142798 
L 25.411781 60.173798 
L 25.4456 60.129817 
L 25.47942 60.095629 
L 25.516621 60.153546 
L 25.557204 60.125102 
L 25.658663 60.175983 
L 25.570732 60.093503 
L 25.678955 60.14344 
L 25.699246 60.107166 
L 25.766885 60.184606 
L 25.787177 60.165731 
L 25.793941 60.173724 
L 25.912309 60.143144 
L 26.007003 60.135848 
L 25.969802 60.110997 
L 26.017149 60.116172 
L 29.865804 60.127418 
L 29.903005 60.116734 
L 29.936825 60.215382 
L 29.940207 60.21128 
L 30.048429 60.245806 
L 30.055193 60.216869 
L 30.095776 60.237872 
L 30.173561 60.157489 
L 30.302075 60.206981 
L 30.308839 60.204327 
L 30.39677 60.159739 
L 30.325749 60.213612 
L 30.417061 60.206155 
L 30.535429 60.34557 
L 30.447499 60.188838 
L 30.562485 60.29806 
L 30.569249 60.271687 
L 30.653797 60.361165 
L 30.670707 60.321799 
L 30.795839 60.296946 
L 30.680853 60.293195 
L 30.799221 60.291462 
L 30.917589 60.108637 
L 30.937881 60.128041 
L 31.002138 60.021046 
L 31.049485 60.112004 
L 32.057305 59.959149 
L 32.067451 59.973016 
L 32.104652 59.885307 
L 32.148618 59.880196 
L 32.696493 59.850862 
L 32.808097 59.910904 
L 32.740458 59.82766 
L 32.814861 59.902152 
L 32.946757 59.743458 
L 32.953521 59.762239 
L 32.970431 59.743846 
L 33.024542 59.832373 
L 33.048215 59.813117 
L 33.153056 59.882019 
L 33.061743 59.787075 
L 33.169966 59.850101 
L 33.26466 59.854975 
L 33.193639 59.800351 
L 33.274806 59.81615 
L 33.582563 59.532744 
L 33.609619 59.577094 
L 33.62991 59.610951 
L 33.704313 59.466359 
L 33.775334 59.38859 
L 33.826063 59.430892 
L 33.944431 59.449849 
L 33.849737 59.38252 
L 33.951195 59.431552 
L 34.042508 59.330612 
L 34.079709 59.342902 
L 34.160876 59.278952 
L 34.164258 59.270954 
L 34.184549 59.234552 
L 34.25557 59.33276 
L 34.265716 59.323603 
L 34.627584 59.03712 
L 34.630966 59.066387 
L 34.63773 59.083074 
L 34.722279 58.984317 
L 34.725661 58.994783 
L 34.77639 58.945127 
L 34.803446 59.011171 
L 34.837265 58.980548 
L 35.067237 58.901247 
L 35.216043 58.753762 
L 35.307356 58.732513 
L 35.239717 58.70682 
L 35.317501 58.709752 
L 35.334411 58.621018 
L 35.361467 58.618888 
L 35.368231 58.587079 
L 35.439251 58.676556 
L 35.473071 58.624982 
L 35.591439 58.540505 
L 35.62864 58.586911 
L 36.04462 58.757677 
L 36.152842 58.685316 
L 36.078439 58.768239 
L 36.162988 58.699658 
L 36.16637 58.708295 
L 36.217099 58.595186 
L 36.237391 58.601426 
L 36.348995 58.513276 
L 36.277974 58.621646 
L 36.359141 58.523677 
L 36.660134 58.55431 
L 36.663516 58.577873 
L 36.677044 58.588266 
L 36.727773 58.456283 
L 36.856287 58.289526 
L 36.866433 58.303063 
L 36.974655 58.363731 
L 36.994947 58.310971 
L 37.120079 58.229656 
L 37.008475 58.324651 
L 37.136989 58.259398 
L 37.285794 58.281806 
L 37.292558 58.270863 
L 37.373725 58.217653 
L 37.40078 58.275318 
L 37.529294 58.343986 
L 37.45151 58.240799 
L 37.536058 58.339394 
L 37.684864 58.172829 
L 37.688246 58.177227 
L 37.708537 58.197762 
L 37.772794 58.093155 
L 37.779558 58.107584 
L 37.93851 57.907628 
L 38.006149 57.955718 
L 38.02644 57.995036 
L 38.094079 57.875917 
L 38.110989 57.933107 
L 38.212447 57.832037 
L 38.229357 57.858892 
L 38.317288 57.931 
L 38.246267 57.846226 
L 38.347725 57.901169 
L 38.922656 57.898146 
L 39.013969 57.863966 
L 38.976767 57.92474 
L 39.030878 57.90069 
L 39.03426 57.908076 
L 39.074844 57.807926 
L 39.101899 57.816338 
L 39.216885 57.694552 
L 39.223649 57.706417 
L 39.237177 57.734479 
L 39.31158 57.658403 
L 39.331872 57.680954 
L 39.440094 57.642624 
L 39.446858 57.649363 
L 39.551698 57.68489 
L 39.514497 57.61786 
L 39.561844 57.658804 
L 39.565226 57.647505 
L 39.639629 57.773059 
L 39.703886 57.790037 
L 39.734323 57.717408 
L 39.737705 57.721269 
L 39.981205 57.575629 
L 40.048844 57.531956 
L 40.011643 57.608575 
L 40.089428 57.593969 
L 40.133393 57.66369 
L 40.187504 57.575678 
L 40.201032 57.591186 
L 40.272053 57.453898 
L 40.33631 57.474543 
L 40.363365 57.479032 
L 40.42424 57.403259 
L 40.427622 57.408722 
L 40.691414 57.490687 
L 40.694796 57.47389 
L 40.731997 57.456026 
L 40.779345 57.549935 
L 40.789491 57.532719 
L 40.84022 57.597323 
L 40.880803 57.474435 
L 40.890949 57.491282 
L 40.975498 57.384321 
L 40.907859 57.505151 
L 41.039755 57.431489 
L 41.175032 57.502499 
L 41.181796 57.492963 
L 41.317074 57.284789 
L 41.202088 57.501364 
L 41.34413 57.327029 
L 41.540283 57.211731 
L 41.543665 57.219805 
L 41.567338 57.236466 
L 41.614685 57.128928 
L 41.641741 57.166599 
L 42.686762 56.531211 
L 42.886297 55.231143 
L 42.899825 47.563438 
L 42.906589 43.760994 
L 43.001283 56.088441 
L 43.011429 56.518537 
L 43.109506 55.903303 
L 43.190672 54.530315 
L 43.2042 45.473747 
L 43.285367 56.886465 
L 43.315804 56.649329 
L 43.46461 53.619527 
L 43.474756 45.233737 
L 43.559305 57.300654 
L 43.56945 57.214231 
L 43.748694 54.350867 
L 43.758839 44.917303 
L 43.850152 57.71011 
L 43.982048 56.250618 
L 44.059833 54.659996 
L 44.07336 44.678245 
L 44.154527 57.509365 
L 44.164673 58.03123 
L 44.259367 56.999667 
L 44.398027 55.149518 
L 44.408173 53.567822 
L 44.414937 44.541214 
L 44.513013 58.2447 
L 44.634763 56.933831 
L 44.780187 54.749409 
L 44.793715 44.393487 
L 44.874882 57.030475 
L 44.888409 58.378227 
L 44.986486 57.368504 
L 45.186021 54.296218 
L 45.196167 44.301093 
L 45.287479 58.414204 
L 45.294243 58.474457 
L 45.3585 57.817183 
L 45.608764 55.285181 
L 45.622292 52.929735 
L 45.629056 44.244093 
L 45.727132 58.523022 
L 45.730514 58.505475 
L 46.082236 54.459864 
L 46.092382 44.198548 
L 46.180313 58.34851 
L 46.190459 58.516051 
L 46.271625 57.71437 
L 46.576001 54.462611 
L 46.586146 44.192595 
L 46.674077 58.369088 
L 46.680841 58.477373 
L 46.758626 57.711934 
L 47.086674 53.995078 
L 47.09682 44.172755 
L 47.188133 58.438344 
L 47.191515 58.433984 
L 47.2693 57.680999 
L 47.482362 56.217442 
L 47.485744 56.221251 
L 47.506036 56.087413 
L 47.607494 54.980356 
L 47.624404 44.156829 
L 47.698807 56.096907 
L 47.715717 58.421695 
L 47.810411 57.510486 
L 48.141842 55.154973 
L 48.15537 49.794591 
L 48.162133 44.147107 
L 48.253446 58.394311 
L 48.26021 58.366027 
L 48.699863 54.388801 
L 48.710009 44.120862 
L 48.801321 58.351629 
L 48.804703 58.36261 
L 48.831759 58.094897 
L 49.264648 55.156236 
L 49.278176 50.348574 
L 49.28494 44.121432 
L 49.37287 58.296203 
L 49.383016 58.245354 
L 49.832815 55.024107 
L 49.846343 45.281538 
L 49.849725 44.098351 
L 49.924127 56.199441 
L 49.941037 58.302655 
L 50.035732 57.397954 
L 50.36378 55.806267 
L 50.41451 55.298792 
L 50.431419 52.354886 
L 50.438183 44.093563 
L 50.529496 58.231504 
L 50.53626 58.172828 
L 50.874454 56.045792 
L 50.989441 54.533009 
L 51.002968 44.129151 
L 51.087517 58.222727 
L 51.094281 58.272381 
L 51.151774 57.708416 
L 51.395274 56.231426 
L 51.40542 56.250108 
L 51.598191 55.670825 
L 51.635392 54.586435 
L 51.64892 44.061895 
L 51.730087 57.99884 
L 51.740233 58.154497 
L 51.821399 57.374202 
L 52.142684 55.94307 
L 52.146066 55.947083 
L 52.176504 55.817537 
L 52.179886 55.83802 
L 52.247525 54.924128 
L 52.264434 44.083388 
L 52.335455 55.224405 
L 52.352365 58.124603 
L 52.447059 57.250329 
L 52.744671 55.962633 
L 52.754816 55.96994 
L 52.764962 56.000053 
L 52.930678 55.496257 
L 52.957733 53.849697 
L 52.967879 44.039936 
L 53.05581 58.004566 
L 53.062574 57.96981 
L 53.549574 54.101554 
L 53.55972 44.094495 
L 53.64765 58.067141 
L 53.654414 58.036894 
L 53.982463 56.061122 
L 53.999373 56.075844 
L 54.006137 56.097954 
L 54.087303 55.974468 
L 54.15156 55.961119 
L 54.178616 56.037525 
L 54.361241 56.65568 
L 54.371387 56.645411 
L 54.614887 57.552181 
L 54.665616 57.751481 
L 55.07145 60.124639 
L 55.112033 60.111265 
L 55.166144 60.174196 
L 55.227019 60.105534 
L 55.304804 60.206674 
L 55.345387 60.146812 
L 55.720783 60.157613 
L 55.761367 60.120846 
L 55.808714 60.186817 
L 55.829006 60.163669 
L 55.886499 60.181306 
L 55.876353 60.125705 
L 55.937228 60.153042 
L 56.04545 60.128227 
L 56.048832 60.133196 
L 56.069124 60.198095 
L 56.089416 60.123406 
L 56.163818 60.168916 
L 56.275423 60.146908 
L 56.285568 60.154023 
L 56.430992 60.140164 
L 56.295714 60.198821 
L 56.437756 60.17993 
L 56.539214 60.161008 
L 56.478339 60.127752 
L 56.542596 60.14406 
L 56.684638 60.201543 
L 56.694784 60.189545 
L 56.715076 60.20638 
L 56.853735 60.108471 
L 57.002541 60.168599 
L 57.009305 60.157304 
L 57.097236 60.131172 
L 57.056652 60.181366 
L 57.120909 60.164551 
L 57.266333 60.091132 
L 57.276479 60.127004 
L 57.377937 60.153463 
L 57.290006 60.118461 
L 57.394847 60.130883 
L 57.46925 60.107717 
L 57.421902 60.160378 
L 57.503069 60.146619 
L 57.638347 60.181793 
L 57.655257 60.162028 
L 57.746569 60.114113 
L 57.665402 60.165615 
L 57.766861 60.155686 
L 57.92243 60.167013 
L 57.929194 60.192295 
L 57.935958 60.215032 
L 57.963014 60.148925 
L 58.020507 60.127841 
L 58.18284 60.120051 
L 58.192986 60.09885 
L 58.196368 60.08214 
L 58.260625 60.189581 
L 58.297826 60.13587 
L 58.307972 60.115372 
L 58.470306 60.115939 
L 58.531181 60.071969 
L 58.585292 60.127508 
L 58.70366 60.156824 
L 58.707042 60.148139 
L 58.727334 60.160285 
L 58.832174 60.130197 
L 58.879521 60.197251 
L 58.937014 60.095928 
L 58.943778 60.124706 
L 59.014799 60.107986 
L 59.004653 60.150205 
L 59.055382 60.134756 
L 59.214334 60.173984 
L 59.322556 60.111649 
L 59.342848 60.130336 
L 59.45107 60.122371 
L 59.417251 60.186489 
L 59.454452 60.132334 
L 59.542383 60.146409 
L 59.518709 60.103999 
L 59.559292 60.107986 
L 59.653987 60.112435 
L 59.616785 60.192507 
L 59.667515 60.125789 
L 59.796029 60.1811 
L 60.056439 60.091753 
L 60.066584 60.107885 
L 60.171425 60.146175 
L 60.080112 60.095435 
L 60.191716 60.125883 
L 60.303321 60.100241 
L 60.225536 60.155322 
L 60.306703 60.112215 
L 60.357432 60.084722 
L 60.435216 60.138044 
L 60.668571 60.104758 
L 60.671953 60.126609 
L 60.678717 60.166017 
L 60.746356 60.093647 
L 60.776793 60.097171 
L 60.844432 60.094288 
L 60.864724 60.158971 
L 60.868106 60.174749 
L 60.959418 60.098012 
L 60.9628 60.105143 
L 60.969564 60.088391 
L 61.030439 60.175098 
L 61.060877 60.180812 
L 61.213064 60.141135 
L 61.074404 60.141079 
L 61.216446 60.128551 
L 61.314523 60.113392 
L 61.273939 60.171608 
L 61.324668 60.143246 
L 61.48362 60.102861 
L 61.378779 60.193431 
L 61.487002 60.113257 
L 61.60537 60.167852 
L 61.497148 60.094494 
L 61.608752 60.166372 
L 61.659481 60.096428 
L 61.720356 60.161705 
L 61.730502 60.210121 
L 61.815051 60.115088 
L 61.825196 60.118564 
L 61.872544 60.162043 
L 61.940183 60.118656 
L 62.007822 60.211242 
L 62.065315 60.110961 
L 62.166773 60.20218 
L 62.203974 60.187867 
L 62.295287 60.163684 
L 62.322343 60.195037 
L 62.437329 60.241018 
L 62.484676 60.139062 
L 62.562461 60.162557 
L 62.599662 60.123816 
L 62.680829 60.205162 
L 62.805961 60.231354 
L 62.694357 60.251259 
L 62.809343 60.246041 
L 62.816107 60.266453 
L 62.866836 60.147136 
L 62.907419 60.188248 
L 63.110336 60.256824 
L 63.113718 60.249909 
L 63.157683 60.188206 
L 63.215176 60.302861 
L 63.299725 60.272247 
L 63.306489 60.240614 
L 63.363982 60.172903 
L 63.418093 60.240337 
L 63.509406 60.258545 
L 63.441767 60.283084 
L 63.526315 60.26777 
L 63.556753 60.308894 
L 63.681885 60.264513 
L 63.712322 60.335455 
L 63.786725 60.238145 
L 63.790107 60.246691 
L 63.949059 60.252604 
L 63.952441 60.242413 
L 63.959205 60.22222 
L 64.026843 60.336907 
L 64.050517 60.30175 
L 64.168885 60.300785 
L 64.175649 60.315273 
L 64.179031 60.33691 
L 64.239906 60.263338 
L 64.280489 60.278902 
L 64.503698 60.353465 
L 64.513844 60.385714 
L 64.59501 60.203733 
L 65.004226 60.092128 
L 65.014372 60.13295 
L 65.119212 60.196752 
L 65.024518 60.110985 
L 65.129358 60.158993 
L 65.169941 60.112191 
L 65.224052 60.190178 
L 65.230816 60.188888 
L 65.342421 60.253397 
L 65.274782 60.173645 
L 65.349184 60.238306 
L 65.650178 60.155112 
L 65.768546 60.081681 
L 65.771928 60.084026 
L 65.846331 60.058965 
L 65.86324 60.020331 
L 66.01881 59.909316 
L 65.870004 60.025192 
L 66.022192 59.917699 
L 66.099977 60.006888 
L 66.03572 59.912109 
L 66.133796 59.921679 
L 66.204817 59.828514 
L 66.14056 59.928159 
L 66.275838 59.886095 
L 66.380678 59.9637 
L 66.414498 59.930915 
L 66.739164 59.984864 
L 66.745928 59.952335 
L 66.874442 59.783871 
L 66.894734 59.799473 
L 66.982664 59.802828 
L 66.948845 59.746691 
L 66.999574 59.76378 
L 67.090887 59.812349 
L 67.141616 59.885197 
L 67.205873 59.851178 
L 67.851825 59.627006 
L 67.943137 59.707513 
L 67.970193 59.685664 
L 68.020922 59.736355 
L 68.078415 59.648076 
L 68.311769 59.516912 
L 68.315151 59.540128 
L 68.396318 59.637608 
L 68.430138 59.609012 
L 68.545124 59.45191 
L 68.646582 59.422126 
L 68.612763 59.493699 
L 68.656728 59.430751 
L 68.673638 59.465238 
L 68.758186 59.390941 
L 68.768332 59.433045 
L 68.795388 59.402864 
L 68.849499 59.51029 
L 68.866409 59.483194 
L 68.940811 59.559573 
L 68.988159 59.51163 
L 69.021978 59.587839 
L 69.079471 59.459242 
L 69.191075 59.370422 
L 69.092999 59.477831 
L 69.204603 59.390526 
L 69.316207 59.422048 
L 69.322971 59.402266 
L 69.339881 59.410023 
L 69.448103 59.268339 
L 69.566471 59.276728 
L 69.454867 59.258752 
L 69.569853 59.251722 
L 69.613819 59.261924 
L 69.691603 59.125935 
L 69.762624 59.157821 
L 69.698367 59.121946 
L 69.78968 59.083095 
L 70.029798 58.99681 
L 70.03318 59.001798 
L 70.117729 59.013475 
L 70.05009 58.938064 
L 70.141402 58.985304 
L 70.283444 58.824537 
L 70.290208 58.82731 
L 70.526944 58.824675 
L 70.530326 58.804692 
L 70.679132 58.613652 
L 70.560764 58.847167 
L 70.682514 58.635201 
L 70.76368 58.632906 
L 70.733243 58.558237 
L 70.783972 58.601049 
L 70.868521 58.528272 
L 70.7975 58.616064 
L 70.90234 58.580132 
L 71.101875 58.468377 
L 71.115403 58.512261 
L 71.125549 58.54874 
L 71.155986 58.427654 
L 71.203333 58.433566 
L 71.206715 58.423237 
L 71.243917 58.504528 
L 71.304792 58.47752 
L 71.389341 58.508429 
L 71.341993 58.537079 
L 71.392722 58.514819 
L 71.467125 58.560669 
L 71.413014 58.492999 
L 71.507709 58.550689 
L 71.639605 58.464217 
L 71.551674 58.566101 
L 71.642986 58.476829 
L 71.727535 58.470219 
L 71.754591 58.422159 
L 71.876341 58.41739 
L 71.774882 58.43898 
L 71.879723 58.423956 
L 71.883105 58.452274 
L 71.974417 58.354854 
L 71.981181 58.363741 
L 72.062348 58.284751 
L 72.099549 58.177636 
L 72.184098 58.226559 
L 72.305848 58.305277 
L 72.231445 58.211711 
L 72.30923 58.296632 
L 72.461417 58.114283 
L 72.481709 58.122404 
L 72.495237 58.190881 
L 72.596695 58.151305 
L 72.600077 58.159677 
L 72.650806 58.083488 
L 72.688008 58.091583 
L 72.79623 57.98276 
L 72.728591 58.130625 
L 72.806376 58.018422 
L 72.928126 58.079274 
L 72.938272 58.042525 
L 72.948418 58.049795 
L 73.066786 58.002019 
L 73.147953 57.991427 
L 73.114133 57.893906 
L 73.168244 57.965307 
L 73.171626 57.940763 
L 73.229119 58.021676 
L 73.273085 58.007588 
L 73.367779 58.107256 
L 73.394835 58.051204 
L 73.526731 57.919798 
L 73.6823 57.979463 
L 73.54364 57.899431 
L 73.685682 57.971012 
L 73.722883 57.996962 
L 73.827724 57.839241 
L 73.915654 57.888114 
L 73.868307 57.818835 
L 73.949474 57.867916 
L 74.054314 57.81219 
L 74.074606 57.879299 
L 74.077988 57.887904 
L 74.125335 57.827326 
L 74.1693 57.817369 
L 74.243703 57.854379 
L 74.284287 57.811704 
L 74.368835 57.856546 
L 74.395891 57.799975 
L 74.531169 57.843557 
L 75.112863 57.548473 
L 75.119627 57.57957 
L 75.166975 57.597979 
L 75.21094 57.533225 
L 75.22785 57.559906 
L 75.396947 57.375354 
L 75.400329 57.384219 
L 75.501787 57.420502 
L 75.474732 57.334064 
L 75.515315 57.384316 
L 75.57619 57.314036 
L 75.633683 57.358274 
L 75.728378 57.509318 
L 75.755433 57.454815 
L 75.887329 57.397792 
L 75.762197 57.459218 
L 75.897475 57.423506 
L 75.904239 57.457006 
L 75.97526 57.307904 
L 75.985406 57.327988 
L 76.066572 57.261638 
L 76.110538 57.33365 
L 76.174794 57.268956 
L 76.225524 57.369327 
L 76.255961 57.279814 
L 76.34051 57.324556 
L 76.367565 57.378634 
L 76.441968 57.273069 
L 76.60092 57.169274 
L 76.604302 57.178219 
L 76.685468 57.241737 
L 76.614448 57.155204 
L 76.732816 57.212177 
L 76.837656 57.194295 
L 76.753107 57.231409 
L 76.84442 57.199177 
L 76.922205 57.229409 
L 76.874857 57.165356 
L 76.956024 57.188158 
L 77.324656 56.987689 
L 77.480226 56.750908 
L 77.821802 55.763112 
L 77.848858 54.485276 
L 77.859004 43.749679 
L 77.953698 55.26484 
L 77.967226 56.563829 
L 78.065302 55.931053 
L 78.143087 55.024002 
L 78.156615 53.255541 
L 78.166761 45.492982 
L 78.247928 56.900694 
L 78.264837 56.772003 
L 78.423789 54.575535 
L 78.437317 45.189059 
L 78.518483 57.287246 
L 78.521865 57.30277 
L 78.555685 56.969401 
L 78.714636 54.15803 
L 78.724782 44.900137 
L 78.812713 57.711812 
L 78.819476 57.662971 
L 79.022393 54.912969 
L 79.039303 44.716372 
L 79.113706 54.718207 
L 79.130616 58.022606 
L 79.22531 56.980994 
L 79.367352 54.71375 
L 79.38088 44.508889 
L 79.462046 57.138542 
L 79.475574 58.262067 
L 79.570269 57.227695 
L 79.74613 53.968365 
L 79.756276 44.400778 
L 79.85097 58.390059 
L 79.871262 58.226333 
L 80.148581 54.015842 
L 80.158727 44.317459 
L 80.253422 58.484344 
L 80.26695 58.394254 
L 80.584852 54.592801 
L 80.594998 44.281645 
L 80.682929 58.237263 
L 80.693075 58.49251 
L 80.781005 57.621183 
L 81.051561 52.952555 
L 81.058325 44.204426 
L 81.153019 58.501489 
L 81.159783 58.478632 
L 81.535179 54.398025 
L 81.545325 44.166001 
L 81.636638 58.473562 
L 81.64002 58.493961 
L 81.683985 58.088921 
L 82.049235 54.150114 
L 82.059381 44.143445 
L 82.154076 58.456171 
L 82.170985 58.304739 
L 82.573437 54.211246 
L 82.583583 44.146143 
L 82.674895 58.420356 
L 82.698569 58.228184 
L 83.104402 54.351458 
L 83.114548 44.125432 
L 83.205861 58.408204 
L 83.222771 58.296763 
L 83.489944 56.30329 
L 83.493326 56.316295 
L 83.544055 56.091285 
L 83.65566 54.996702 
L 83.672569 44.120117 
L 83.746972 56.327412 
L 83.763882 58.353809 
L 83.858576 57.460379 
L 84.054729 56.2861 
L 84.061493 56.290576 
L 84.237354 54.586775 
L 84.250882 44.12745 
L 84.332049 58.104189 
L 84.342195 58.279924 
L 84.423361 57.487062 
L 84.602605 56.329653 
L 84.78523 54.819849 
L 84.798758 44.108787 
L 84.876542 57.334669 
L 84.89007 58.327667 
L 84.984765 57.44255 
L 85.214737 56.126418 
L 85.278994 55.969558 
L 85.380452 54.979258 
L 85.397362 44.085151 
L 85.468383 54.590295 
L 85.488675 58.238797 
L 85.583369 57.341817 
L 85.79305 56.178152 
L 85.972293 54.642925 
L 85.985821 44.1021 
L 86.063605 57.75158 
L 86.073751 58.197954 
L 86.168446 57.345601 
L 86.364599 56.262978 
L 86.367981 56.267782 
L 86.635154 54.935766 
L 86.652064 44.062792 
L 86.723085 55.297578 
L 86.739995 58.077364 
L 86.834689 57.186631 
L 87.068043 56.098204 
L 87.074807 56.112201 
L 87.128919 56.009119 
L 87.328453 55.184396 
L 87.341981 53.562937 
L 87.352127 44.088582 
L 87.436676 57.957872 
L 87.446821 57.910982 
L 87.757961 56.073557 
L 87.764724 56.075006 
L 87.900002 56.012378 
L 87.923676 56.035557 
L 88.146884 56.944949 
L 88.29569 57.683912 
L 88.430968 59.904482 
L 88.525662 60.037689 
L 88.654176 60.120161 
L 88.745489 60.102694 
L 88.671086 60.12835 
L 88.762399 60.130237 
L 88.836801 60.176613 
L 88.786072 60.119939 
L 88.877385 60.144699 
L 88.995753 60.105666 
L 88.928114 60.194098 
L 89.002517 60.139693 
L 89.131031 60.163598 
L 89.262927 60.137586 
L 89.300128 60.186743 
L 89.377913 60.164846 
L 89.503045 60.12651 
L 89.411732 60.195598 
L 89.506427 60.130826 
L 89.54701 60.232338 
L 89.621413 60.163203 
L 89.719489 60.144832 
L 89.733017 60.171406 
L 89.776982 60.187679 
L 89.746545 60.157756 
L 89.837857 60.140387 
L 89.932552 60.08868 
L 89.895351 60.158895 
L 89.956226 60.116756 
L 90.06783 60.074985 
L 89.96299 60.12893 
L 90.074594 60.113811 
L 90.176052 60.182227 
L 90.115177 60.100216 
L 90.199726 60.169166 
L 90.247073 60.12581 
L 90.291038 60.205309 
L 90.307948 60.180844 
L 90.646143 60.166612 
L 90.737455 60.160448 
L 90.673198 60.136501 
L 90.747601 60.120448 
L 90.855823 60.110611 
L 90.805094 60.151816 
L 90.859205 60.11195 
L 90.967428 60.164666 
L 90.974191 60.147038 
L 91.065504 60.136922 
L 91.068886 60.142029 
" clip-path="url(#pef4bfd65c5)" style="fill: none; stroke: #000000; stroke-width: 0.6; stroke-linecap: square"/>
   </g>
   <g id="line2d_4">
    <path d="M 95.127221 15.313171 
L 95.127221 8.552195 
" clip-path="url(#pef4bfd65c5)" style="fill: none; stroke: #000000; stroke-width: 1.5; stroke-linecap: square"/>
   </g>
  </g>
 </g>
 <defs>
  <clipPath id="pef4bfd65c5">
   <rect x="7.2" y="7.2" width="89.28" height="55.44"/>
  </clipPath>
 </defs>
</svg>
