<?xml version="1.0" encoding="utf-8" standalone="no"?>
<!DOCTYPE svg PUBLIC "-//W3C//DTD SVG 1.1//EN"
  "http://www.w3.org/Graphics/SVG/1.1/DTD/svg11.dtd">
<svg xmlns:xlink="http://www.w3.org/1999/xlink" width="103.68pt" height="69.84pt" viewBox="0 0 103.68 69.84" xmlns="http://www.w3.org/2000/svg" version="1.1">
 <metadata>
  <rdf:RDF xmlns:dc="http://purl.org/dc/elements/1.1/" xmlns:cc="http://creativecommons.org/ns#" xmlns:rdf="http://www.w3.org/1999/02/22-rdf-syntax-ns#">
   <cc:Work>
    <dc:type rdf:resource="http://purl.org/dc/dcmitype/StillImage"/>
    <dc:date>2022-05-18T12:01:34.410577</dc:date>
    <dc:format>image/svg+xml</dc:format>
    <dc:creator>
     <cc:Agent>
      <dc:title>Matplotlib v3.5.1, https://matplotlib.org/</dc:title>
     </cc:Agent>
    </dc:creator>
   </cc:Work>
  </rdf:RDF>
 </metadata>
 <defs>
  <style type="text/css">*{stroke-linejoin: round; stroke-linecap: butt}</style>
 </defs>
 <g id="figure_1">
  <g id="patch_1">
   <path d="M 0 69.84 
L 103.68 69.84 
L 103.68 0 
L 0 0 
L 0 69.84 
z
" style="fill: none"/>
  </g>
  <g id="axes_1">
   <g id="patch_2">
    <path d="M 7.2 62.64 
L 96.48 62.64 
L 96.48 7.2 
L 7.2 7.2 
L 7.2 62.64 
z
" style="fill: none"/>
   </g>
   <g id="matplotlib.axis_1"/>
   <g id="matplotlib.axis_2"/>
   <g id="line2d_1">
    <path d="M 9.905557 23.809831 
L 9.976578 23.914621 
L 10.023925 23.862612 
L 10.135529 23.738909 
L 10.149057 23.769422 
L 10.264043 23.857684 
L 10.165967 23.747018 
L 10.274189 23.822879 
L 10.3283 23.886732 
L 10.402703 23.760873 
L 10.46696 23.892078 
L 10.598856 24.044677 
L 10.48387 23.873461 
L 10.60562 24.034031 
L 10.615766 24.015184 
L 10.696932 24.127993 
L 11.501836 24.100008 
L 11.515363 24.073193 
L 11.57962 24.158918 
L 11.599912 24.142531 
L 11.73519 24.210951 
L 11.61344 24.129196 
L 11.738572 24.202691 
L 11.843412 24.038204 
L 11.877232 24.083361 
L 11.955016 23.993664 
L 12.029419 23.934835 
L 12.073385 23.955017 
L 12.215426 24.121525 
L 12.22219 24.117169 
L 12.313503 24.021755 
L 12.350704 24.043393 
L 12.394669 23.9944 
L 12.472454 24.045288 
L 12.577295 24.05247 
L 12.563767 24.007915 
L 12.580677 24.042943 
L 12.617878 23.950294 
L 12.699045 23.991697 
L 12.820795 24.115735 
L 12.715954 23.968824 
L 12.857996 24.081608 
L 12.925635 24.114604 
L 12.956073 24.052445 
L 13.064295 24.027335 
L 12.996656 24.07864 
L 13.067677 24.038874 
L 13.209719 24.156084 
L 13.23001 24.127457 
L 13.331469 24.037879 
L 13.35176 24.048907 
L 13.36867 23.990782 
L 13.571587 24.120704 
L 13.662899 24.088066 
L 13.615552 24.162912 
L 13.679809 24.14677 
L 14.001094 24.162363 
L 14.09917 24.177174 
L 14.021386 24.111097 
L 14.11608 24.171836 
L 14.193865 24.104103 
L 14.23783 24.135965 
L 14.346053 24.143266 
L 14.281796 24.103474 
L 14.352816 24.129744 
L 14.467803 24.045963 
L 14.471185 24.062554 
L 14.528678 24.076335 
L 14.545587 24.133743 
L 14.606462 24.091228 
L 14.663955 24.16691 
L 14.833053 24.316001 
L 14.684247 24.133533 
L 14.856726 24.290086 
L 15.00215 24.229238 
L 15.120518 24.357355 
L 15.008914 24.226744 
L 15.137428 24.32061 
L 15.164484 24.28026 
L 15.22874 24.489613 
L 15.232122 24.479142 
L 15.353872 24.717285 
L 15.414748 24.672894 
L 15.418129 24.658581 
L 15.465477 24.750238 
L 15.50606 24.744242 
L 15.546643 24.77327 
L 15.617664 24.751165 
L 15.719123 24.614924 
L 15.742796 24.646043 
L 15.864546 24.566146 
L 15.894984 24.655407 
L 16.006588 24.769466 
L 16.016734 24.719331 
L 16.141866 24.603972 
L 16.033644 24.728631 
L 16.168922 24.652922 
L 16.23656 24.701722 
L 16.273762 24.620427 
L 16.314345 24.563833 
L 16.300817 24.650929 
L 16.371838 24.654637 
L 16.473297 24.684539 
L 16.483443 24.657346 
L 16.595047 24.60097 
L 16.490206 24.664172 
L 16.61872 24.6311 
L 16.63563 24.644101 
L 16.693123 24.517179 
L 16.703269 24.5244 
L 17.01779 24.45456 
L 17.12263 24.449375 
L 17.102339 24.504714 
L 17.129394 24.452005 
L 17.237617 24.469161 
L 17.24438 24.447285 
L 17.379658 24.227933 
L 17.410096 24.261127 
L 17.535228 24.274876 
L 17.548756 24.257399 
L 17.653596 24.270777 
L 17.616395 24.340919 
L 17.656978 24.274341 
L 17.734763 24.360251 
L 17.680652 24.256888 
L 17.78211 24.303048 
L 17.785492 24.279066 
L 17.853131 24.378307 
L 17.88695 24.346094 
L 17.961353 24.390836 
L 18.005318 24.355451 
L 18.106777 24.259255 
L 18.127068 24.235446 
L 18.177798 24.338251 
L 18.201471 24.315826 
L 18.357041 24.340743 
L 18.367187 24.312825 
L 18.488937 24.225121 
L 18.42468 24.373996 
L 18.502464 24.269748 
L 18.509228 24.28438 
L 18.587013 24.18106 
L 18.593777 24.193537 
L 18.627596 24.145949 
L 18.681708 24.267553 
L 18.68509 24.2786 
L 18.766256 24.183076 
L 18.779784 24.213233 
L 18.874479 24.235061 
L 18.816985 24.250778 
L 18.877861 24.259444 
L 18.965791 24.231825 
L 18.891388 24.234302 
L 18.982701 24.211529 
L 19.094305 24.174171 
L 19.002993 24.222517 
L 19.107833 24.194255 
L 19.219437 24.248837 
L 19.300604 24.328929 
L 19.344569 24.301272 
L 19.530576 24.310912 
L 19.371625 24.252593 
L 19.53734 24.284005 
L 19.547486 24.297626 
L 19.64218 24.299649 
L 19.679382 24.359488 
L 19.743639 24.223236 
L 19.747021 24.230791 
L 19.875535 24.172752 
L 19.905972 24.253437 
L 19.970229 24.13885 
L 19.983757 24.155258 
L 20.342243 24.165962 
L 20.349007 24.134574 
L 20.457229 24.072494 
L 20.369299 24.152317 
L 20.470757 24.093839 
L 20.660146 24.255114 
L 20.77175 24.335328 
L 20.792042 24.308712 
L 20.907028 24.198081 
L 20.913792 24.205931 
L 21.045688 24.234357 
L 20.94423 24.16505 
L 21.04907 24.219799 
L 21.052452 24.192802 
L 21.137001 24.270612 
L 21.15391 24.240127 
L 21.241841 24.25314 
L 21.180966 24.205092 
L 21.258751 24.220858 
L 21.329772 24.186248 
L 21.27566 24.264122 
L 21.377119 24.224462 
L 21.512397 24.299672 
L 21.525924 24.269889 
L 21.590181 24.133082 
L 21.644293 24.25089 
L 21.711932 24.324656 
L 21.759279 24.25452 
L 21.782952 24.186316 
L 21.837064 24.31314 
L 21.864119 24.269093 
L 21.877647 24.306502 
L 21.962196 24.224762 
L 21.972341 24.249697 
L 22.121147 24.289829 
L 21.999397 24.225167 
L 22.124529 24.285703 
L 22.188786 24.146895 
L 22.253043 24.212827 
L 22.374793 24.205876 
L 22.269953 24.281192 
L 22.378175 24.222751 
L 22.66564 24.365392 
L 22.679168 24.313968 
L 22.702842 24.282475 
L 22.743425 24.380459 
L 22.790772 24.307474 
L 22.902377 24.363444 
L 22.90914 24.333503 
L 23.007217 24.328087 
L 22.986925 24.267709 
L 23.010599 24.294651 
L 23.08162 24.214144 
L 23.125585 24.309433 
L 23.139113 24.296492 
L 23.260863 24.438005 
L 23.328502 24.569059 
L 23.409669 24.61489 
L 23.375849 24.521535 
L 23.443488 24.589002 
L 23.842558 24.666513 
L 23.849322 24.65009 
L 23.960926 24.583324 
L 23.866231 24.690179 
L 23.977836 24.600893 
L 24.018419 24.645654 
L 24.004891 24.590168 
L 24.086058 24.581369 
L 24.08944 24.569446 
L 24.116495 24.67407 
L 24.173988 24.660847 
L 24.17737 24.668989 
L 24.224718 24.534334 
L 24.251773 24.571769 
L 24.336322 24.589824 
L 24.29912 24.628705 
L 24.346468 24.613931 
L 24.45469 24.715646 
L 24.4716 24.671124 
L 24.505419 24.720333 
L 24.573058 24.624247 
L 24.57644 24.632201 
L 24.579822 24.635392 
L 24.600114 24.519911 
L 24.637315 24.5426 
L 24.833468 24.474186 
L 24.657607 24.597371 
L 24.843614 24.508136 
L 24.955218 24.571828 
L 24.961982 24.565988 
L 25.114169 24.337712 
L 24.97551 24.592534 
L 25.120933 24.376263 
L 25.161517 24.391718 
L 25.127697 24.361613 
L 25.195336 24.305688 
L 25.252829 24.21562 
L 25.327232 24.246445 
L 25.415163 24.27414 
L 25.421927 24.304303 
L 25.509857 24.336433 
L 25.432072 24.291786 
L 25.536913 24.313306 
L 25.594406 24.286553 
L 25.557204 24.322303 
L 25.648517 24.328246 
L 25.851434 24.212159 
L 25.875107 24.271843 
L 25.902163 24.299947 
L 25.96642 24.19518 
L 25.976566 24.198929 
L 26.230212 24.128862 
L 26.34858 24.025244 
L 26.571788 24.11563 
L 26.703684 24.172466 
L 26.710448 24.164126 
L 27.018205 23.956692 
L 27.153483 23.745033 
L 27.160247 23.758895 
L 27.261705 23.83308 
L 27.275233 23.829984 
L 27.410511 23.68509 
L 27.427421 23.694687 
L 27.464622 23.765793 
L 27.498442 23.679185 
L 27.542407 23.709742 
L 27.799435 23.658525 
L 27.809581 23.701294 
L 27.812963 23.71798 
L 27.904275 23.617872 
L 27.914421 23.665236 
L 29.115012 23.489945 
L 29.121776 23.527887 
L 29.263818 23.682566 
L 29.270581 23.641152 
L 29.287491 23.603455 
L 29.361894 23.744858 
L 29.368658 23.717512 
L 29.426151 23.710993 
L 29.416005 23.756341 
L 29.456589 23.762543 
L 29.487026 23.856565 
L 29.571575 23.779685 
L 29.574957 23.791851 
L 29.649359 23.647014 
L 29.679797 23.603542 
L 29.730526 23.703062 
L 29.757582 23.667948 
L 29.886096 23.614908 
L 29.777873 23.682952 
L 29.89286 23.640149 
L 29.974026 23.674091 
L 29.946971 23.611641 
L 30.001082 23.621843 
L 30.217526 23.706425 
L 30.231054 23.673197 
L 30.264874 23.6376 
L 30.329131 23.727388 
L 30.454263 23.83498 
L 30.515138 23.811605 
L 30.498228 23.880121 
L 30.562485 23.857772 
L 30.609832 23.882361 
L 30.724818 23.713979 
L 30.76202 23.789976 
L 30.812749 23.653607 
L 30.829659 23.694879 
L 30.978464 23.585583 
L 31.093451 23.702583 
L 30.998756 23.570213 
L 31.117124 23.686214 
L 31.380916 23.647365 
L 31.495902 23.567302 
L 31.458701 23.688855 
L 31.506048 23.613369 
L 31.577069 23.762469 
L 31.63118 23.716093 
L 31.644708 23.692505 
L 31.692055 23.797126 
L 31.732638 23.754849 
L 31.810423 23.77655 
L 31.756312 23.723111 
L 31.837479 23.719779 
L 31.878062 23.681279 
L 31.854388 23.753507 
L 31.942319 23.755464 
L 31.945701 23.772103 
L 31.976138 23.70201 
L 32.043777 23.712681 
L 32.074215 23.637125 
L 32.145236 23.781276 
L 32.243312 23.743021 
L 32.155382 23.80527 
L 32.25684 23.758901 
L 32.358298 23.868875 
L 32.388736 23.838038 
L 32.50034 23.889153 
L 32.459757 23.767549 
L 32.51725 23.877435 
L 32.639 23.787595 
L 32.551069 23.886411 
L 32.642382 23.792106 
L 32.733694 23.844518 
L 32.737076 23.864949 
L 32.862208 23.929837 
L 32.875736 23.870813 
L 32.967049 23.979153 
L 33.105709 23.790506 
L 33.136146 23.832634 
L 33.153056 23.873498 
L 33.213931 23.765283 
L 33.240986 23.776659 
L 33.274806 23.750556 
L 33.318771 23.826436 
L 33.342445 23.829013 
L 33.372882 23.766882 
L 33.447285 23.866212 
L 33.565653 23.901805 
L 33.511542 23.823212 
L 33.569035 23.890255 
L 33.656966 23.817323 
L 33.684021 23.857652 
L 33.687403 23.871438 
L 33.75166 23.775542 
L 33.792244 23.842742 
L 33.863265 23.852113 
L 33.802389 23.864837 
L 33.886938 23.903518 
L 33.893702 23.9495 
L 33.947813 23.868441 
L 33.998542 23.913093 
L 34.079709 23.841051 
L 34.032362 23.947467 
L 34.113529 23.889679 
L 34.214987 23.988449 
L 34.228515 23.943328 
L 34.313063 23.859397 
L 34.343501 23.92006 
L 34.434813 23.935146 
L 34.357029 23.877529 
L 34.455105 23.887736 
L 34.563327 23.811047 
L 34.573473 23.842029 
L 34.580237 23.838791 
L 34.742571 23.975401 
L 34.871085 23.889339 
L 34.874466 23.904808 
L 35.046946 23.914001 
L 35.050328 23.935051 
L 35.128112 24.009872 
L 35.165314 23.982075 
L 35.212661 23.962409 
L 35.256626 24.037226 
L 35.391904 24.141886 
L 35.473071 24.111304 
L 35.43587 24.168339 
L 35.500127 24.159374 
L 35.608349 24.183653 
L 35.547474 24.126612 
L 35.615113 24.16629 
L 35.743627 24.05243 
L 35.814648 24.074658 
L 35.774064 24.127745 
L 35.841703 24.107077 
L 36.156224 24.233803 
L 36.173134 24.18923 
L 36.186662 24.159204 
L 36.206953 24.241507 
L 36.247537 24.263782 
L 36.359141 24.349159 
L 36.376051 24.321568 
L 36.436926 24.243381 
L 36.389578 24.335308 
L 36.491037 24.306765 
L 36.582349 24.417869 
L 36.504565 24.288721 
L 36.616169 24.3651 
L 36.866433 24.203996 
L 36.883343 24.237053 
L 36.950981 24.345375 
L 37.120079 24.655566 
L 37.130225 24.624309 
L 37.133607 24.611752 
L 37.153898 24.70569 
L 37.231683 24.668031 
L 37.336523 24.749321 
L 37.360197 24.716902 
L 37.461655 24.718044 
L 37.444746 24.768357 
L 37.465037 24.732698 
L 37.485329 24.764412 
L 37.505621 24.687593 
L 37.57326 24.712279 
L 37.596933 24.657378 
L 37.667954 24.776419 
L 37.674718 24.746632 
L 37.755885 24.759595 
L 37.691628 24.723888 
L 37.78294 24.734163 
L 37.894544 24.553464 
L 37.796468 24.746831 
L 37.928364 24.56318 
L 37.965565 24.63225 
L 38.039968 24.572981 
L 38.06026 24.545473 
L 38.087315 24.623336 
L 38.121135 24.625719 
L 38.144809 24.695578 
L 38.18201 24.591455 
L 38.232739 24.634393 
L 38.344343 24.69665 
L 38.249649 24.617405 
L 38.371399 24.672993 
L 38.44242 24.62379 
L 38.483003 24.68026 
L 38.513441 24.676089 
L 38.601371 24.768634 
L 38.736649 24.572247 
L 38.746795 24.591066 
L 38.841489 24.634627 
L 38.763705 24.56368 
L 38.865163 24.611048 
L 39.179684 24.651192 
L 39.183066 24.636622 
L 39.291288 24.584338 
L 39.216885 24.66945 
L 39.304816 24.602832 
L 39.429948 24.606178 
L 39.43333 24.583554 
L 39.517879 24.56291 
L 39.534788 24.627483 
L 39.646393 24.610756 
L 39.565226 24.595117 
L 39.649775 24.606526 
L 39.93724 24.467847 
L 40.052226 24.319941 
L 40.082664 24.330724 
L 40.194268 24.446472 
L 40.096192 24.320178 
L 40.204414 24.435842 
L 40.221324 24.410733 
L 40.299108 24.482076 
L 40.305872 24.473942 
L 40.332928 24.503636 
L 40.397185 24.407056 
L 40.407331 24.417261 
L 40.525699 24.388182 
L 40.444532 24.457298 
L 40.529081 24.391066 
L 40.650831 24.410458 
L 40.664358 24.365806 
L 40.66774 24.352358 
L 40.731997 24.471983 
L 40.759053 24.440182 
L 40.843602 24.47636 
L 40.826692 24.519563 
L 40.853747 24.484332 
L 40.884185 24.519389 
L 40.911241 24.449027 
L 40.958588 24.480231 
L 40.96197 24.45348 
L 41.039755 24.555555 
L 41.06681 24.508362 
L 41.090484 24.554212 
L 41.131067 24.593139 
L 41.134449 24.60692 
L 41.191942 24.537966 
L 41.239289 24.569899 
L 41.364421 24.493146 
L 41.276491 24.601529 
L 41.367803 24.512191 
L 41.428678 24.556174 
L 41.455734 24.439646 
L 41.469262 24.462976 
L 41.557192 24.343226 
L 41.60454 24.370326 
L 41.702616 24.368045 
L 41.614685 24.334929 
L 41.712762 24.332177 
L 41.790547 24.332083 
L 41.760109 24.40081 
L 41.810838 24.378592 
L 41.932588 24.390547 
L 41.851422 24.332272 
L 41.93597 24.38496 
L 41.959644 24.396086 
L 41.990081 24.29553 
L 42.010373 24.314123 
L 42.034047 24.282216 
L 42.094922 24.404548 
L 42.101686 24.400119 
L 42.111832 24.396413 
L 42.260637 24.550963 
L 42.43988 24.39292 
L 42.568394 24.65103 
L 42.629269 24.595862 
L 42.751019 24.423059 
L 42.636033 24.603408 
L 42.791603 24.484435 
L 42.916735 24.592058 
L 42.930263 24.55692 
L 43.173763 24.532682 
L 43.177145 24.547368 
L 43.224492 24.585027 
L 43.278603 24.484402 
L 43.298895 24.549611 
L 43.400353 24.474449 
L 43.403735 24.471733 
L 43.430791 24.569474 
L 43.454464 24.565949 
L 43.566068 24.71384 
L 43.589742 24.681708 
L 43.694582 24.642682 
L 43.616798 24.734417 
L 43.714874 24.661941 
L 43.735166 24.683264 
L 43.775749 24.615031 
L 43.826478 24.655393 
L 43.82986 24.643941 
L 43.921173 24.718383 
L 43.978666 24.782774 
L 44.029395 24.691202 
L 44.168055 24.566973 
L 44.323624 24.742984 
L 44.458902 24.553603 
L 44.469048 24.575743 
L 44.57727 24.602759 
L 44.546833 24.537217 
L 44.584034 24.592484 
L 44.668583 24.620804 
L 44.705784 24.549243 
L 44.759895 24.622314 
L 44.810625 24.52708 
L 44.928993 24.463208 
L 44.841062 24.565522 
L 44.935757 24.482322 
L 45.013541 24.480274 
L 45.047361 24.43399 
L 45.148819 24.346484 
L 45.179257 24.355847 
L 45.213076 24.3907 
L 45.267187 24.285296 
L 45.277333 24.309807 
L 45.456576 24.183766 
L 45.307771 24.336388 
L 45.466722 24.209855 
L 45.625674 24.29664 
L 45.656111 24.199746 
L 45.744042 24.231362 
L 46.241188 24.185471 
L 46.34941 24.20049 
L 46.315591 24.158204 
L 46.352792 24.191288 
L 46.440723 24.227911 
L 46.47116 24.129568 
L 46.596292 24.260231 
L 46.616584 24.204318 
L 46.711278 24.109781 
L 46.738334 24.155167 
L 46.792445 24.191784 
L 46.833029 24.107524 
L 46.843174 24.117018 
L 47.039327 24.197485 
L 46.85332 24.089828 
L 47.066383 24.097559 
L 47.181369 24.059859 
L 47.120494 24.127913 
L 47.188133 24.065899 
L 47.191515 24.079246 
L 47.262536 23.964837 
L 47.282827 23.996227 
L 47.428251 23.92925 
L 47.289591 24.003645 
L 47.431633 23.932345 
L 47.455307 23.953658 
L 47.502654 23.855589 
L 47.5128 23.860292 
L 47.65146 23.706757 
L 47.654841 23.725404 
L 47.874668 23.776435 
L 47.881432 23.756232 
L 47.993036 23.71025 
L 47.908487 23.7774 
L 47.9998 23.71857 
L 48.310939 23.422573 
L 48.013328 23.740194 
L 48.324467 23.443758 
L 48.368432 23.390958 
L 48.439453 23.471582 
L 48.4868 23.437093 
L 48.517238 23.498584 
L 48.551057 23.464975 
L 48.584877 23.514225 
L 48.652516 23.428613 
L 48.655898 23.430142 
L 48.716773 23.352629 
L 48.770884 23.413999 
L 48.909544 23.486022 
L 48.943363 23.382802 
L 49.125988 23.20647 
L 49.12937 23.217651 
L 49.197009 23.115005 
L 49.230828 23.175947 
L 49.457419 23.100063 
L 49.470947 23.147544 
L 49.491238 23.171967 
L 49.525058 23.064035 
L 49.552113 23.077454 
L 49.758412 22.843177 
L 49.768558 22.849236 
L 49.829433 22.88806 
L 49.87678 22.832761 
L 50.106753 23.025282 
L 49.883544 22.822851 
L 50.113516 22.957008 
L 50.198065 22.928018 
L 50.211593 22.878036 
L 50.336725 22.71539 
L 50.343489 22.738069 
L 50.586989 22.513968 
L 50.67492 22.587231 
L 50.610663 22.486365 
L 50.701975 22.533775 
L 50.705357 22.52577 
L 50.749322 22.599818 
L 50.800052 22.587106 
L 51.04017 22.549232 
L 51.073989 22.520083 
L 51.1281 22.601704 
L 51.141628 22.587932 
L 51.259996 22.621837 
L 51.172066 22.543621 
L 51.263378 22.620311 
L 51.3716 22.629128 
L 51.310725 22.554029 
L 51.374982 22.6078 
L 51.537316 22.486729 
L 51.554226 22.503289 
L 51.584663 22.418848 
L 51.625246 22.424111 
L 51.66583 22.399775 
L 51.699649 22.481364 
L 51.723323 22.470473 
L 51.851837 22.582454 
L 51.865365 22.529209 
L 51.973587 22.497936 
L 51.882274 22.544993 
L 51.980351 22.526298 
L 52.010788 22.494234 
L 52.095337 22.532228 
L 52.217087 22.299198 
L 52.240761 22.310045 
L 52.345601 22.33737 
L 52.29149 22.28799 
L 52.359129 22.323575 
L 52.453823 22.248692 
L 52.457205 22.231707 
L 52.636448 22.013623 
L 52.63983 22.015302 
L 52.707469 22.011021 
L 52.727761 21.958539 
L 52.734525 21.962139 
L 52.869803 21.867497 
L 52.893476 21.900017 
L 52.961115 21.766421 
L 52.964497 21.775159 
L 53.136976 21.670283 
L 53.251963 21.591375 
L 53.255345 21.593992 
L 53.268872 21.636056 
L 53.319602 21.449285 
L 53.42106 21.163323 
L 53.529282 19.858029 
L 53.546192 8.601893 
L 53.623977 21.633659 
L 53.640886 23.382753 
L 53.735581 22.276847 
L 53.860713 18.974097 
L 53.870859 9.160838 
L 53.965553 23.863312 
L 53.968935 23.88973 
L 54.016282 23.408432 
L 54.16847 20.999983 
L 54.209053 19.315115 
L 54.219199 9.191922 
L 54.310512 23.823092 
L 54.320658 24.060919 
L 54.405206 23.172251 
L 54.574304 19.872716 
L 54.587831 9.1574 
L 54.668998 19.486615 
L 54.692672 24.21626 
L 54.783984 23.28785 
L 54.973373 19.656813 
L 54.986901 9.100936 
L 55.068068 21.717391 
L 55.088359 24.332666 
L 55.179672 23.503811 
L 55.40288 19.612503 
L 55.416408 9.043817 
L 55.497575 22.479546 
L 55.517867 24.423454 
L 55.609179 23.666408 
L 55.849297 20.581066 
L 55.872971 19.322677 
L 55.883117 8.966942 
L 55.974429 24.276592 
L 55.984575 24.483034 
L 56.069124 23.817348 
L 56.194256 22.515383 
L 56.383645 18.589126 
L 56.390409 8.968165 
L 56.488485 24.485266 
L 56.498631 24.48674 
L 56.515541 24.359105 
L 56.928138 20.173331 
L 56.941666 17.81412 
L 56.94843 8.910592 
L 57.046506 24.48084 
L 57.056652 24.455676 
L 57.066798 24.381931 
L 57.198694 23.259006 
L 57.536889 19.585717 
L 57.550416 8.912206 
L 57.624819 23.087928 
L 57.645111 24.452304 
L 57.736423 23.756189 
L 58.121965 20.662978 
L 58.165931 19.732774 
L 58.179458 8.922249 
L 58.250479 20.729384 
L 58.274153 24.412204 
L 58.365465 23.724974 
L 58.818646 20.2185 
L 58.835556 18.618052 
L 58.845702 8.906279 
L 58.937014 24.398507 
L 58.940396 24.39546 
L 59.031709 23.670233 
L 59.332702 21.341988 
L 59.515327 19.683414 
L 59.528855 8.916446 
L 59.599876 22.508484 
L 59.623549 24.376554 
L 59.71148 23.685351 
L 60.086876 21.10112 
L 60.120695 21.008006 
L 60.242446 19.706079 
L 60.259355 8.907102 
L 60.326994 22.437785 
L 60.350668 24.363146 
L 60.44198 23.638853 
L 60.695626 21.575572 
L 60.932363 20.625832 
L 60.935745 20.638731 
L 61.000002 19.969063 
L 61.013529 16.763253 
L 61.020293 8.89943 
L 61.111606 24.304793 
L 61.11837 24.279482 
L 61.439655 21.630771 
L 61.733884 18.718077 
L 61.74403 8.873556 
L 61.83196 24.344775 
L 61.838724 24.337984 
L 62.001058 22.935692 
L 62.254704 21.275438 
L 62.332488 21.02773 
L 62.565843 19.415042 
L 62.57937 8.90411 
L 62.653773 23.983668 
L 62.663919 24.248502 
L 62.75185 23.529887 
L 63.103572 21.194464 
L 63.137392 21.056393 
L 63.367364 18.799376 
L 63.37751 8.878914 
L 63.46544 24.299583 
L 63.468822 24.280257 
L 63.580427 23.304542 
L 63.854364 21.397522 
L 63.938913 21.164231 
L 64.12492 20.687278 
L 64.155357 20.701669 
L 64.192559 20.606378 
L 64.280489 19.651763 
L 64.297399 8.900791 
L 64.361656 22.762012 
L 64.38533 24.226295 
L 64.47326 23.439182 
L 64.87233 21.02459 
L 64.875712 21.034817 
L 64.939969 20.894283 
L 65.071865 20.702978 
L 65.142886 20.729249 
L 65.169941 20.657697 
L 65.311983 19.209177 
L 65.325511 8.877412 
L 65.406678 24.193224 
L 65.410059 24.202675 
L 65.440497 23.988644 
L 65.771928 21.419897 
L 65.961317 20.950326 
L 65.968081 20.982469 
L 66.01881 20.898008 
L 66.076303 20.961434 
L 66.150706 20.856311 
L 66.191289 20.920611 
L 66.22849 20.910257 
L 66.336713 21.160181 
L 66.671525 21.964064 
L 66.698581 21.899429 
L 66.708727 21.889711 
L 66.752692 21.99952 
L 68.230603 24.740701 
L 66.762838 21.991315 
L 68.237367 24.723921 
L 68.284714 24.709785 
L 68.305005 24.799212 
L 68.342207 24.756882 
L 68.494394 24.97104 
L 68.562033 24.915023 
L 68.629672 24.901439 
L 68.653346 24.961228 
L 68.666874 24.945898 
L 68.731131 25.084184 
L 68.792006 25.0399 
L 68.900228 25.050346 
L 68.852881 24.98388 
L 68.906992 25.04622 
L 69.04227 24.961306 
L 69.072707 25.009555 
L 69.174166 25.05824 
L 69.194457 25.027699 
L 69.316207 25.070344 
L 69.322971 25.041445 
L 69.336499 25.003768 
L 69.421048 25.124739 
L 69.42443 25.118505 
L 69.552944 25.080734 
L 69.441339 25.155548 
L 69.56309 25.091234 
L 69.637492 25.105374 
L 69.654402 25.050573 
L 69.671312 25.069473 
L 69.796444 24.989158 
L 69.833645 25.033387 
L 69.847173 25.099977 
L 69.941867 25.01187 
L 69.982451 25.020225 
L 69.962159 24.962601 
L 70.023034 24.939702 
L 70.026416 24.933692 
L 70.080527 25.046621 
L 70.094055 25.039746 
L 70.13802 25.056192 
L 70.165076 24.963205 
L 70.178604 24.977911 
L 70.320645 24.832617 
L 70.435632 24.990216 
L 70.449159 24.961917 
L 70.479597 25.008646 
L 70.523562 24.870256 
L 70.526944 24.879002 
L 70.560764 24.817892 
L 70.638548 24.887272 
L 70.645312 24.931662 
L 70.709569 24.841954 
L 70.743389 24.857454 
L 70.841465 24.774907 
L 70.861757 24.785736 
L 70.871903 24.82753 
L 70.926014 24.736215 
L 70.966597 24.750429 
L 71.061292 24.695116 
L 71.017326 24.774856 
L 71.084965 24.715226 
L 71.26759 24.718244 
L 71.274354 24.683369 
L 71.345375 24.525485 
L 71.399486 24.584581 
L 71.517854 24.635654 
L 71.416396 24.568121 
L 71.551674 24.602583 
L 71.626077 24.557334 
L 71.663278 24.589235 
L 71.785028 24.593819 
L 71.80532 24.656022 
L 71.937216 24.767616 
L 72.069112 24.70076 
L 72.109695 24.74114 
L 72.123223 24.668976 
L 72.180716 24.714782 
L 72.272028 24.655947 
L 72.299084 24.683869 
L 72.346431 24.790125 
L 72.417452 24.700178 
L 72.840195 24.688622 
L 72.924744 24.663432 
L 72.857105 24.731433 
L 72.9518 24.685817 
L 73.235883 24.639203 
L 73.249411 24.624055 
L 73.327196 24.732119 
L 73.364397 24.807235 
L 73.442182 24.733944 
L 73.476001 24.713909 
L 73.526731 24.796316 
L 73.550404 24.750131 
L 73.675536 24.780384 
L 73.587606 24.712749 
L 73.6823 24.772871 
L 73.780377 24.72119 
L 73.709356 24.784618 
L 73.800668 24.771439 
L 73.912272 24.788953 
L 73.922418 24.765469 
L 74.040786 24.646584 
L 74.057696 24.667803 
L 74.08137 24.750546 
L 74.142245 24.642036 
L 74.165918 24.673936 
L 74.240321 24.642493 
L 74.257231 24.714225 
L 74.274141 24.694087 
L 74.355307 24.702437 
L 74.280905 24.672767 
L 74.372217 24.638683 
L 74.422946 24.571274 
L 74.490585 24.622838 
L 74.686738 24.844553 
L 74.805106 24.744127 
L 74.994495 24.665095 
L 75.018169 24.757364 
L 75.021551 24.767379 
L 75.102718 24.668615 
L 75.21094 24.616382 
L 75.221086 24.649616 
L 75.309016 24.698991 
L 75.231231 24.626205 
L 75.329308 24.607622 
L 75.339454 24.554992 
L 75.417239 24.732782 
L 75.424002 24.721145 
L 75.474732 24.786105 
L 75.522079 24.667094 
L 75.532225 24.684418 
L 75.653975 24.643948 
L 76.130829 24.670477 
L 76.195086 24.715198 
L 76.242433 24.656525 
L 76.384475 24.70826 
L 76.391239 24.674086 
L 76.408149 24.614884 
L 76.465642 24.734891 
L 76.502843 24.671064 
L 76.604302 24.722785 
L 76.533281 24.659117 
L 76.614448 24.695039 
L 76.621211 24.657295 
L 76.68885 24.721147 
L 76.719288 24.719986 
L 76.786927 24.734727 
L 76.820746 24.678581 
L 76.824128 24.680169 
L 76.868093 24.748098 
L 76.939114 24.706373 
L 76.962788 24.724879 
L 76.996607 24.600721 
L 77.027045 24.637556 
L 77.047337 24.625679 
L 77.091302 24.719386 
L 77.114976 24.723956 
L 77.121739 24.74484 
L 77.202906 24.619892 
L 77.216434 24.67884 
L 77.284073 24.602779 
L 77.33142 24.668919 
L 77.541101 24.740328 
L 77.632413 24.780497 
L 77.558011 24.735652 
L 77.652705 24.747712 
L 77.781219 24.625378 
L 77.69667 24.770157 
L 77.787983 24.631607 
L 77.821802 24.692248 
L 77.909733 24.64938 
L 78.038247 24.469593 
L 77.919879 24.66071 
L 78.065302 24.53737 
L 78.21749 24.627864 
L 78.342622 24.507822 
L 78.346004 24.521554 
L 78.379823 24.413196 
L 78.44408 24.459236 
L 78.555685 24.464303 
L 78.488046 24.409524 
L 78.562449 24.450733 
L 78.701108 24.33717 
L 78.75522 24.431655 
L 78.833004 24.478894 
L 78.761983 24.419953 
L 78.87697 24.444297 
L 78.944609 24.361705 
L 78.991956 24.425298 
L 79.005484 24.451579 
L 79.252366 24.382475 
L 79.343678 24.40349 
L 79.296331 24.32122 
L 79.357206 24.358217 
L 79.553359 24.09035 
L 79.556741 24.113668 
L 79.634526 23.945625 
L 79.648053 23.992442 
L 79.888172 23.72769 
L 79.898317 23.743951 
L 80.020067 23.864691 
L 79.908463 23.735052 
L 80.040359 23.845748 
L 80.057269 23.807604 
L 80.091088 23.892392 
L 80.145199 23.855269 
L 80.226366 23.934878 
L 80.155345 23.846517 
L 80.263568 23.892796 
L 80.530741 23.954675 
L 80.557797 23.969228 
L 80.655873 23.894816 
L 80.696457 23.954356 
L 80.764096 23.860844 
L 80.821589 23.860365 
L 80.794533 23.90293 
L 80.85879 23.916461 
L 80.872318 23.95419 
L 80.926429 23.787673 
L 81.027887 23.681964 
L 81.054943 23.732384 
L 81.129346 23.749053 
L 81.088762 23.710619 
L 81.156401 23.704253 
L 81.200367 23.57784 
L 81.284915 23.61136 
L 81.497978 23.489068 
L 81.295061 23.627551 
L 81.504742 23.501392 
L 81.826027 23.406567 
L 81.927485 23.299415 
L 81.941013 23.337365 
L 81.954541 23.363938 
L 82.032325 23.277936 
L 82.97927 23.05309 
L 83.124694 22.947253 
L 83.128076 22.963334 
L 83.246444 23.023164 
L 83.368194 22.995488 
L 83.307319 23.054516 
L 83.371576 23.004857 
L 83.388486 23.029147 
L 83.459507 22.916751 
L 83.574493 22.87934 
L 83.588021 22.920804 
L 83.983708 23.021654 
L 84.031056 23.112401 
L 84.081785 23.001198 
L 84.091931 23.016635 
L 84.217063 22.908671 
L 84.348959 22.993082 
L 84.352341 22.988686 
L 84.457181 22.816941 
L 84.487618 22.905514 
L 84.947563 22.875544 
L 85.062549 22.802078 
L 85.072695 22.828699 
L 85.096369 22.753441 
L 85.16739 22.769379 
L 85.251938 22.710251 
L 85.204591 22.842579 
L 85.285758 22.738608 
L 85.41089 22.778713 
L 85.424418 22.766542 
L 85.441327 22.741999 
L 85.49882 22.865856 
L 85.519112 22.83049 
L 85.522494 22.846884 
L 85.610425 22.736205 
L 85.644244 22.710188 
L 85.674682 22.783435 
L 85.708501 22.772171 
L 85.853925 22.901033 
L 85.928328 22.817598 
L 85.989203 22.841572 
L 86.090661 22.818433 
L 85.995967 22.851623 
L 86.114335 22.838593 
L 86.138008 22.899055 
L 86.215793 22.794532 
L 86.367981 22.665303 
L 86.378126 22.70864 
L 86.655446 22.54363 
L 86.388272 22.725059 
L 86.658828 22.567005 
L 86.665592 22.549921 
L 86.878654 22.663805 
L 86.949675 22.533164 
L 86.997023 22.551381 
L 87.206703 22.45547 
L 87.024078 22.601509 
L 87.210085 22.461927 
L 87.314926 22.549202 
L 87.240523 22.45506 
L 87.325071 22.519306 
L 87.345363 22.530525 
L 87.453585 22.38697 
L 87.534752 22.350906 
L 87.470495 22.344413 
L 87.541516 22.339626 
L 87.673412 22.236169 
L 87.805308 22.131893 
L 87.828981 22.1512 
L 87.94735 22.198496 
L 87.859419 22.137025 
L 87.957495 22.184225 
L 88.048808 22.212812 
L 88.082627 22.097716 
L 88.106301 22.14031 
L 88.15703 22.022573 
L 88.258489 21.949044 
L 88.163794 22.033384 
L 88.282162 22.003054 
L 88.288926 22.023051 
L 88.373475 21.90995 
L 88.427586 21.935262 
L 88.501989 21.789241 
L 88.633885 21.639603 
L 88.637267 21.674801 
L 88.66094 21.69953 
L 88.715051 21.512598 
L 88.721815 21.535773 
L 88.836801 21.468928 
L 88.840183 21.47556 
L 89.063392 20.839698 
L 89.114121 19.504286 
L 89.127649 8.602696 
L 89.208815 22.889371 
L 89.222343 23.482104 
L 89.313656 22.453827 
L 89.448934 20.091598 
L 89.45908 17.969466 
L 89.465843 9.07528 
L 89.567302 24.010862 
L 89.631559 23.36027 
L 89.793892 20.882132 
L 89.831094 18.922573 
L 89.841239 9.124591 
L 89.935934 24.118287 
L 89.942698 24.187414 
L 90.013719 23.523272 
L 90.223399 20.094458 
L 90.233545 17.943817 
L 90.240309 9.064116 
L 90.341767 24.313756 
L 90.345149 24.321126 
L 90.368823 24.147031 
L 90.663052 19.697743 
L 90.67658 9.023651 
L 90.757747 22.373611 
L 90.778039 24.420225 
L 90.869351 23.657064 
L 91.068886 21.285883 
L 91.068886 21.285883 
" clip-path="url(#p47be504400)" style="fill: none; stroke: #000000; stroke-width: 0.6; stroke-linecap: square"/>
   </g>
   <g id="line2d_2">
    <path d="M 9.905557 39.1612 
L 10.023925 39.117706 
L 10.047599 39.167035 
L 10.125384 39.146844 
L 10.078036 39.090666 
L 10.142293 39.109675 
L 10.24037 39.105484 
L 10.220078 39.161598 
L 10.257279 39.116389 
L 10.365502 39.221594 
L 10.270807 39.098782 
L 10.399321 39.179972 
L 10.524453 39.027332 
L 10.416231 39.185271 
L 10.531217 39.029556 
L 10.578564 39.082569 
L 10.639439 39.001581 
L 10.686787 38.915867 
L 10.72737 39.052536 
L 10.74428 39.018296 
L 10.778099 39.02676 
L 10.815301 38.932396 
L 10.842356 38.974135 
L 10.97087 38.852796 
L 11.062183 38.910922 
L 11.09262 38.882154 
L 11.116294 38.865706 
L 11.153495 38.962028 
L 11.173787 38.951084 
L 11.177169 38.970789 
L 11.271863 38.878458 
L 11.332738 38.852399 
L 11.366558 38.916874 
L 11.376704 38.91255 
L 11.403759 38.85874 
L 11.545801 39.059956 
L 11.549183 39.032378 
L 11.650641 39.113313 
L 11.691225 39.155954 
L 11.738572 39.063325 
L 11.7521 39.076354 
L 11.860322 39.042883 
L 11.765627 39.097582 
L 11.87385 39.069973 
L 11.883996 39.089455 
L 11.907669 39.014073 
L 11.971926 39.032738 
L 11.982072 38.983249 
L 12.066621 39.144776 
L 12.070003 39.144675 
L 12.195135 39.108205 
L 12.090294 39.181027 
L 12.201899 39.116036 
L 12.242482 39.147637 
L 12.296593 39.062078 
L 12.299975 39.080011 
L 12.418343 38.981305 
L 12.435253 38.996203 
L 12.560385 39.07508 
L 12.590822 39.045147 
L 12.63817 39.140796 
L 12.668607 39.089921 
L 12.671989 39.101924 
L 12.692281 39.030379 
L 12.770066 39.055794 
L 12.817413 39.009457 
L 12.776829 39.065429 
L 12.885052 39.067439 
L 12.922253 39.105864 
L 12.972982 39.000499 
L 12.983128 39.009284 
L 13.010184 38.963929 
L 13.071059 39.074805 
L 13.087968 39.044803 
L 13.2131 39.128783 
L 13.128552 38.989791 
L 13.216482 39.106346 
L 13.328087 38.973045 
L 13.267212 39.115433 
L 13.344996 39.005373 
L 13.446455 39.041384 
L 13.38558 39.100818 
L 13.449837 39.053786 
L 13.520858 39.119199 
L 13.554677 39.020547 
L 13.744066 38.991358 
L 13.794795 38.954867 
L 13.848906 39.018512 
L 13.923309 39.001448 
L 13.879344 38.972916 
L 13.943601 38.958183 
L 14.207393 38.713235 
L 14.362962 38.552315 
L 14.22092 38.745569 
L 14.369726 38.569945 
L 14.379872 38.603608 
L 14.454275 38.465715 
L 14.464421 38.47372 
L 14.467803 38.486421 
L 14.545587 38.39221 
L 14.559115 38.419505 
L 14.569261 38.386916 
L 14.613226 38.475337 
L 14.660574 38.447258 
L 14.677483 38.491218 
L 14.748504 38.316901 
L 14.812761 38.224297 
L 14.89731 38.116059 
L 14.951421 38.139962 
L 15.015678 38.010441 
L 15.130664 37.368909 
L 15.164484 35.850762 
L 15.188157 27.842169 
L 15.252414 40.771351 
L 15.299761 41.996203 
L 15.374164 41.836744 
L 15.53988 41.364676 
L 15.546643 41.379941 
L 15.600755 41.243839 
L 16.358311 39.764506 
L 16.365074 39.782241 
L 16.368456 39.789086 
L 16.439477 39.686645 
L 17.095575 39.000708 
L 16.449623 39.700977 
L 17.098957 39.021772 
L 17.119248 39.089991 
L 17.190269 38.96041 
L 17.200415 38.969391 
L 17.355985 38.995564 
L 17.359367 38.987416 
L 17.443915 39.030353 
L 17.477735 38.93952 
L 17.961353 39.045409 
L 18.089867 39.104402 
L 19.043576 38.960609 
L 19.104451 38.933354 
L 19.13827 39.018079 
L 19.148416 39.004407 
L 19.199145 38.986799 
L 19.15518 38.992101 
L 19.226201 38.928082 
L 19.26002 38.89828 
L 19.317514 38.985674 
L 19.324277 38.976564 
L 19.435882 39.036098 
L 19.439264 39.009721 
L 19.638798 38.801235 
L 19.69291 38.908269 
L 19.753785 38.848858 
L 19.875535 38.754259 
L 19.760549 38.854948 
L 19.882299 38.761872 
L 20.017576 38.741378 
L 20.020958 38.736109 
L 20.02434 38.722363 
L 20.088597 38.802724 
L 20.119035 38.795715 
L 20.247549 38.911444 
L 20.254313 38.891132 
L 20.382827 38.828684 
L 20.497813 38.832862 
L 20.399736 38.797828 
L 20.507959 38.820138 
L 20.595889 38.751672 
L 20.626327 38.803092 
L 20.727785 38.929783 
L 20.775132 38.883075 
L 20.836007 38.826498 
L 20.879973 38.909202 
L 20.883355 38.908771 
L 20.920556 38.946838 
L 20.974667 38.831197 
L 21.096417 38.767784 
L 21.103181 38.771785 
L 21.20464 38.873672 
L 21.228313 38.847159 
L 21.343299 38.796893 
L 21.350063 38.813176 
L 21.427848 38.70416 
L 21.43123 38.705024 
L 21.471813 38.754057 
L 21.529306 38.669118 
L 21.56989 38.628036 
L 21.607091 38.699418 
L 21.637529 38.668012 
L 21.67473 38.739062 
L 21.755897 38.714382 
L 21.776188 38.729857 
L 21.901321 38.56508 
L 22.205696 38.676827 
L 22.310536 38.735583 
L 22.242897 38.602877 
L 22.33421 38.728215 
L 22.378175 38.670532 
L 22.428904 38.758767 
L 22.445814 38.738203 
L 22.452578 38.768982 
L 22.520217 38.641267 
L 22.533744 38.646697 
L 22.652113 38.517904 
L 22.662258 38.554486 
L 22.746807 38.385584 
L 22.888849 38.381579 
L 22.898995 38.33121 
L 23.216898 36.874687 
L 23.237189 32.427464 
L 23.254099 27.825949 
L 23.331884 41.708187 
L 23.375849 42.115274 
L 23.450252 41.976439 
L 23.768155 41.383078 
L 24.708336 40.617702 
L 24.823322 40.538301 
L 24.765829 40.668536 
L 24.826704 40.538851 
L 25.300177 40.296652 
L 25.398253 40.34198 
L 25.415163 40.318394 
L 25.553822 40.140016 
L 25.557204 40.144693 
L 25.563968 40.176145 
L 25.641753 40.02879 
L 25.651899 40.051465 
L 25.678955 39.946862 
L 25.773649 40.025399 
L 25.797323 40.072419 
L 25.854816 39.991052 
L 25.878489 40.003657 
L 25.912309 39.939553 
L 25.993476 39.987491 
L 26.111844 40.111163 
L 26.020531 39.977263 
L 26.128753 40.073682 
L 26.220066 39.963608 
L 26.264031 39.987125 
L 26.36549 40.055195 
L 26.284323 39.979523 
L 26.389163 40.025739 
L 26.439892 39.990459 
L 26.497386 40.045243 
L 26.680011 40.072115 
L 26.690156 40.029617 
L 26.700302 39.997702 
L 26.744268 40.109533 
L 26.788233 40.090535 
L 26.903219 40.181181 
L 26.909983 40.173248 
L 27.021587 40.117649 
L 26.97424 40.208612 
L 27.024969 40.135147 
L 27.038497 40.109112 
L 27.089226 40.170151 
L 27.129809 40.162067 
L 27.170393 40.225 
L 27.248178 40.129891 
L 27.37331 39.954895 
L 27.383455 39.989205 
L 27.447712 40.053495 
L 27.393601 39.966047 
L 27.49506 39.972203 
L 27.576226 39.912541 
L 27.620192 39.964431 
L 27.647247 39.990784 
L 27.70474 39.90106 
L 27.745324 39.919412 
L 27.880602 39.739377 
L 27.961768 39.840573 
L 28.009115 39.765087 
L 28.157921 39.80937 
L 28.019261 39.749802 
L 28.164685 39.799812 
L 28.276289 39.644163 
L 28.191741 39.826187 
L 28.303345 39.694683 
L 28.350692 39.599965 
L 28.465678 39.453938 
L 28.38113 39.614443 
L 28.482588 39.502115 
L 28.543463 39.57066 
L 28.59081 39.47966 
L 28.800491 39.343999 
L 28.604338 39.502169 
L 28.803873 39.352345 
L 28.929005 39.468949 
L 28.95606 39.437865 
L 29.027081 39.508478 
L 29.121776 39.557623 
L 29.060901 39.490532 
L 29.138686 39.510912 
L 29.273963 39.553583 
L 29.290873 39.506072 
L 29.537755 39.509447 
L 29.547901 39.561294 
L 29.612158 39.436625 
L 29.642596 39.459362 
L 29.835366 39.598534 
L 29.84213 39.56787 
L 29.909769 39.4915 
L 29.855658 39.588069 
L 29.974026 39.537677 
L 30.045047 39.505388 
L 30.11945 39.621328 
L 30.146506 39.639532 
L 30.244582 39.615011 
L 30.339276 39.723606 
L 30.36295 39.664135 
L 30.423825 39.643564 
L 30.39677 39.687588 
L 30.46779 39.699626 
L 30.528665 39.751697 
L 30.481318 39.687719 
L 30.579395 39.713145 
L 30.707909 39.541342 
L 30.7282 39.512434 
L 30.924353 39.602716 
L 31.052867 39.357337 
L 31.083305 39.37257 
L 31.123888 39.410061 
L 31.137416 39.350545 
L 31.191527 39.357631 
L 31.35386 39.201369 
L 31.201673 39.381356 
L 31.377534 39.213066 
L 31.516194 39.241584 
L 31.401208 39.166662 
L 31.533104 39.218261 
L 31.563541 39.235659 
L 31.654854 39.181994 
L 31.698819 39.299227 
L 31.779986 39.215751 
L 31.85777 39.147216 
L 31.9085 39.203406 
L 31.911882 39.227661 
L 31.959229 39.132052 
L 32.020104 39.207811 
L 32.053923 39.20989 
L 32.091125 39.266718 
L 32.11818 39.259205 
L 32.175673 39.334428 
L 32.263604 39.524176 
L 32.307569 39.484275 
L 32.409028 39.496677 
L 32.422555 39.453069 
L 32.554451 39.370757 
L 32.557833 39.383636 
L 32.581507 39.351579 
L 32.693111 39.495096 
L 32.781042 39.390453 
L 32.814861 39.448131 
L 33.38641 39.392472 
L 33.484487 39.468943 
L 33.498014 39.439942 
L 33.602855 39.379263 
L 33.552125 39.507011 
L 33.609619 39.426457 
L 33.613 39.44379 
L 33.656966 39.347841 
L 33.711077 39.374372 
L 34.181167 39.13798 
L 34.187931 39.157707 
L 34.204841 39.189561 
L 34.231897 39.106274 
L 34.269098 39.097726 
L 34.323209 38.990722 
L 34.39423 39.045233 
L 34.505834 38.925799 
L 34.53289 38.954975 
L 34.63773 39.044151 
L 34.651258 39.019223 
L 34.756098 39.10758 
L 34.77639 39.062669 
L 34.816973 39.020946 
L 34.830501 39.090839 
L 34.874466 39.10657 
L 34.986071 39.121117 
L 34.921814 39.037204 
L 34.989453 39.109512 
L 35.114585 38.97531 
L 35.117967 39.006483 
L 35.172078 38.889991 
L 35.222807 38.980327 
L 35.287064 38.941393 
L 35.317501 39.041518 
L 35.327647 39.012382 
L 35.466307 38.962169 
L 35.547474 38.902443 
L 35.500127 39.011304 
L 35.574529 38.967024 
L 35.615113 38.995803 
L 35.591439 38.937529 
L 35.669224 38.918109 
L 35.80112 38.79233 
L 35.804502 38.793376 
L 35.807884 38.80303 
L 35.872141 38.722503 
L 35.899196 38.742823 
L 36.129169 38.468194 
L 36.146078 38.499824 
L 36.173134 38.53234 
L 36.247537 38.453738 
L 36.250919 38.472912 
L 36.264446 38.441592 
L 36.325321 38.532829 
L 36.355759 38.50067 
L 36.528238 38.548095 
L 36.538384 38.52773 
L 36.727773 38.19026 
L 36.731155 38.200547 
L 36.771738 38.078761 
L 36.910398 36.596474 
L 36.940836 27.571214 
L 36.991565 38.322447 
L 37.05244 41.803378 
L 37.113315 41.63395 
L 37.671336 38.956596 
L 37.674718 38.966926 
L 37.715301 38.739607 
L 38.006149 37.223577 
L 38.029822 34.890318 
L 38.046732 27.748769 
L 38.127899 41.770354 
L 38.151572 41.953285 
L 38.232739 41.722048 
L 38.236121 41.733019 
L 38.391691 41.273766 
L 38.54726 40.797972 
L 38.554024 40.823791 
L 38.621663 40.625889 
L 38.625045 40.625438 
L 38.631809 40.637164 
L 38.672392 40.491968 
L 38.682538 40.492604 
L 38.976767 39.58609 
L 38.980149 39.592876 
L 38.990295 39.627592 
L 39.020733 39.471213 
L 39.024115 39.477568 
L 39.176302 39.15741 
L 39.054552 39.48509 
L 39.179684 39.170843 
L 39.314962 38.915371 
L 39.331872 38.944351 
L 39.55508 38.816665 
L 39.666684 38.712889 
L 39.673448 38.747554 
L 39.67683 38.767902 
L 39.764761 38.639175 
L 39.866219 38.5399 
L 39.900039 38.57852 
L 40.055608 38.755333 
L 40.062372 38.737773 
L 40.204414 38.632564 
L 40.211178 38.659019 
L 40.261907 38.556926 
L 40.316018 38.636717 
L 40.400567 38.629178 
L 40.373511 38.583111 
L 40.417476 38.597517 
L 40.711706 38.539217 
L 40.71847 38.555988 
L 40.968734 38.546631 
L 41.029609 38.484201 
L 41.070192 38.583407 
L 41.154741 38.655223 
L 41.198706 38.637792 
L 41.306928 38.567873 
L 41.273109 38.664183 
L 41.317074 38.596139 
L 41.320456 38.618535 
L 41.377949 38.520631 
L 41.421914 38.546373 
L 41.506463 38.611554 
L 41.550428 38.572819 
L 41.682324 38.448149 
L 41.557192 38.577781 
L 41.699234 38.509309 
L 41.807456 38.523492 
L 41.72629 38.473029 
L 41.81422 38.514862 
L 41.976554 38.277316 
L 42.111832 38.420712 
L 42.115213 38.402281 
L 42.132123 38.356606 
L 42.209908 38.459213 
L 42.226818 38.391171 
L 42.240345 38.40059 
L 42.450026 38.184159 
L 42.531193 38.258134 
L 42.56163 38.221692 
L 42.605596 38.190194 
L 42.659707 38.291156 
L 42.696908 38.30577 
L 42.737492 38.216312 
L 42.747637 38.200075 
L 42.825422 38.280889 
L 42.849096 38.313718 
L 42.906589 38.167925 
L 42.926881 38.223037 
L 43.008047 38.122032 
L 43.035103 38.126931 
L 43.133179 38.007855 
L 43.136561 38.025333 
L 43.214346 37.876615 
L 43.393589 36.11362 
L 43.420645 28.210934 
L 43.478138 40.13048 
L 43.545777 41.866905 
L 43.599888 41.737151 
L 43.870444 41.078208 
L 43.873826 41.08103 
L 43.877207 41.10087 
L 43.948228 40.862019 
L 43.95161 40.870447 
L 43.998958 40.737359 
L 44.015867 40.74014 
L 44.239076 40.401768 
L 44.269513 40.29615 
L 44.550215 39.874321 
L 44.553597 39.882909 
L 44.844444 39.584909 
L 44.85459 39.597398 
L 44.928993 39.719776 
L 44.99325 39.649751 
L 45.006778 39.618931 
L 45.084562 39.696993 
L 45.09809 39.685896 
L 45.152201 39.774966 
L 45.209694 39.664185 
L 45.365264 39.560293 
L 45.490396 39.435429 
L 45.402465 39.568561 
L 45.49716 39.443297 
L 45.605382 39.430164 
L 45.544507 39.377382 
L 45.608764 39.406876 
L 45.652729 39.382921 
L 45.703458 39.475568 
L 45.70684 39.469827 
L 45.855646 39.771638 
L 45.875938 39.736291 
L 45.953722 39.8614 
L 46.278389 39.803053 
L 46.281771 39.839162 
L 46.410285 39.929805 
L 46.518508 39.891195 
L 46.467778 39.970546 
L 46.528653 39.912347 
L 46.589528 39.866534 
L 46.647021 39.927616 
L 46.721424 39.885404 
L 46.690987 39.939255 
L 46.755244 39.945206 
L 46.816119 39.975283 
L 46.849938 39.891461 
L 46.99198 39.750064 
L 46.995362 39.760493 
L 47.123876 39.83645 
L 47.140786 39.874597 
L 47.208425 39.766308 
L 47.21857 39.773723 
L 47.296355 39.797323 
L 47.2693 39.846808 
L 47.306501 39.841628 
L 47.573675 39.999001 
L 47.60073 39.943345 
L 47.63455 39.921953 
L 47.675133 39.991469 
L 47.698807 39.993184 
L 47.796883 40.012936 
L 47.813793 39.986819 
L 47.888196 39.971978 
L 47.84423 40.005583 
L 47.915251 40.028284 
L 48.114786 40.142384 
L 48.118168 40.138734 
L 48.219627 40.097261 
L 48.141842 40.175409 
L 48.229772 40.122144 
L 48.341377 40.188027 
L 48.351522 40.149901 
L 48.395488 40.105815 
L 48.436071 40.219855 
L 48.456363 40.19159 
L 48.564585 40.189737 
L 48.567967 40.181373 
L 48.672807 40.064219 
L 48.578113 40.182961 
L 48.696481 40.074235 
L 48.808085 40.009431 
L 48.737064 40.09512 
L 48.814849 40.028071 
L 48.858814 40.152267 
L 48.929835 40.069323 
L 49.02453 40.095012 
L 48.960273 40.045105 
L 49.038058 40.062964 
L 49.156426 40.047914 
L 49.068495 40.114637 
L 49.159808 40.060958 
L 49.264648 40.085466 
L 49.207155 40.109525 
L 49.26803 40.099304 
L 49.335669 40.15118 
L 49.315377 40.077228 
L 49.379634 40.09983 
L 49.565641 40.034517 
L 49.430363 40.204175 
L 49.569023 40.043572 
L 49.589315 40.077588 
L 49.629898 39.976895 
L 49.6671 39.984976 
L 49.741502 39.895265 
L 49.687391 39.991379 
L 49.78885 39.935683 
L 49.880162 39.920985 
L 49.842961 39.840282 
L 49.886926 39.891291 
L 49.89369 39.870567 
L 49.971475 39.971563 
L 49.985002 39.971165 
L 50.042496 40.040173 
L 50.093225 39.979046 
L 50.099989 40.002038 
L 50.174391 39.874119 
L 50.231885 39.806549 
L 50.289378 39.862607 
L 50.319815 39.820189 
L 50.488912 39.967515 
L 50.51935 39.879314 
L 50.593753 39.98326 
L 50.600517 39.970425 
L 50.86769 39.947371 
L 50.871072 39.927812 
L 50.989441 39.885814 
L 50.931947 39.952384 
L 50.992822 39.888195 
L 51.104427 39.907187 
L 51.050316 39.852428 
L 51.107809 39.900884 
L 51.212649 39.843429 
L 51.17883 39.941656 
L 51.229559 39.859134 
L 51.358073 39.973995 
L 51.385128 39.893832 
L 51.462913 39.919248 
L 51.391892 39.886643 
L 51.503496 39.861479 
L 51.618483 39.792821 
L 51.669212 39.889508 
L 51.733469 39.842704 
L 51.841691 39.885209 
L 51.845073 39.867898 
L 51.868747 39.87484 
L 51.966823 39.821535 
L 52.000642 39.755097 
L 52.051372 39.84714 
L 52.085191 39.809263 
L 52.146066 39.804276 
L 52.122393 39.752928 
L 52.176504 39.752942 
L 52.359129 39.639988 
L 52.365893 39.667671 
L 52.41324 39.747476 
L 52.477497 39.67826 
L 52.555282 39.652791 
L 52.578955 39.719707 
L 52.619539 39.782045 
L 52.646594 39.685177 
L 52.690559 39.750486 
L 52.802164 39.737227 
L 52.697323 39.76047 
L 52.81231 39.778097 
L 52.947587 39.849024 
L 53.076101 39.818765 
L 52.971261 39.863625 
L 53.079483 39.821942 
L 53.248581 39.884874 
L 53.306074 39.938345 
L 53.26549 39.86868 
L 53.356803 39.875518 
L 53.397386 39.840504 
L 53.441352 39.979514 
L 53.444734 39.971218 
L 53.583393 40.430298 
L 53.772782 41.319067 
L 53.776164 41.314378 
L 53.904678 41.490855 
L 53.911442 41.48196 
L 54.219199 41.747736 
L 53.918206 41.475621 
L 54.229345 41.716476 
L 54.232727 41.684949 
L 54.320658 41.862386 
L 54.32404 41.842134 
L 54.42888 41.899343 
L 54.469463 41.833883 
L 54.526956 41.749033 
L 54.486373 41.837662 
L 54.584449 41.820741 
L 54.594595 41.842186 
L 54.638561 41.763617 
L 54.682526 41.765879 
L 54.929408 41.810495 
L 54.93279 41.798285 
L 55.061304 41.738273 
L 55.101887 41.804116 
L 55.183054 41.757585 
L 55.304804 41.710891 
L 55.233783 41.842681 
L 55.308186 41.716123 
L 55.443464 41.864371 
L 55.487429 41.879844 
L 55.531394 41.786514 
L 55.54154 41.790759 
L 55.6802 41.860228 
L 55.683582 41.844789 
L 55.693728 41.818437 
L 55.849297 41.797716 
L 55.960902 41.729556 
L 55.977811 41.76691 
L 56.129999 41.725756 
L 56.133381 41.716391 
L 56.207784 41.668678 
L 56.143527 41.720719 
L 56.251749 41.700986 
L 56.353207 41.730806 
L 56.265277 41.688541 
L 56.363353 41.694308 
L 56.380263 41.663043 
L 56.420846 41.777421 
L 56.447902 41.757724 
L 56.53245 41.810023 
L 56.485103 41.732386 
L 56.556124 41.743731 
L 56.586562 41.729392 
L 56.637291 41.821496 
L 56.738749 41.857011 
L 56.70493 41.762366 
L 56.748895 41.825178 
L 56.836826 41.793438 
L 56.769187 41.753218 
L 56.84359 41.761378 
L 56.93152 41.692974 
L 56.96534 41.739404 
L 57.05327 41.818761 
L 56.978867 41.731929 
L 57.083708 41.796483 
L 57.202076 41.677955 
L 57.097236 41.810328 
L 57.242659 41.704366 
L 57.31368 41.8042 
L 57.361027 41.792597 
L 57.482777 41.68549 
L 57.624819 41.873853 
L 57.685694 41.814916 
L 57.736423 41.741992 
L 57.80068 41.804525 
L 57.827736 41.765414 
L 57.925812 41.891772 
L 58.027271 41.810556 
L 58.054326 41.844492 
L 58.162549 41.932873 
L 58.179458 41.910304 
L 58.192986 41.853187 
L 58.250479 41.976427 
L 58.260625 41.980735 
L 58.264007 42.006533 
L 58.358701 41.88054 
L 58.368847 41.916975 
L 58.44325 41.831029 
L 58.463542 41.853143 
L 58.554854 41.85533 
L 58.537945 41.91733 
L 58.568382 41.871085 
L 58.679986 41.887915 
L 58.592056 41.855207 
L 58.68675 41.879044 
L 58.801736 41.753229 
L 58.805118 41.759703 
L 58.923486 41.902414 
L 58.933632 41.882258 
L 58.937014 41.89468 
L 59.011417 41.747336 
L 59.221098 41.808981 
L 59.251535 41.834182 
L 59.325938 41.766041 
L 59.420633 41.815939 
L 59.352994 41.745178 
L 59.440924 41.764781 
L 59.620167 41.830326 
L 59.633695 41.815487 
L 59.755445 41.751335 
L 59.890723 41.791057 
L 59.762209 41.731934 
L 59.907633 41.763694 
L 59.911015 41.742325 
L 59.978654 41.861841 
L 60.005709 41.842128 
L 60.029383 41.898208 
L 60.103786 41.788773 
L 60.259355 41.558357 
L 60.286411 41.602219 
L 60.445362 41.81313 
L 60.448744 41.79327 
L 60.452126 41.769003 
L 60.550203 41.867093 
L 60.611078 41.869421 
L 60.634751 41.933427 
L 60.648279 41.906992 
L 60.675335 41.922616 
L 60.73621 41.791499 
L 60.888397 41.649791 
L 60.905307 41.713863 
L 61.016911 41.660135 
L 61.057495 41.747906 
L 61.930037 41.704552 
L 62.034877 41.865902 
L 62.068697 41.836061 
L 62.234412 41.726516 
L 62.268231 41.7651 
L 62.302051 41.793087 
L 62.362926 41.687093 
L 62.36969 41.707721 
L 62.49144 41.560518 
L 62.518495 41.61843 
L 62.643627 41.736215 
L 62.535405 41.587884 
L 62.670683 41.678659 
L 62.745086 41.685358 
L 62.761996 41.756473 
L 62.765377 41.742279 
L 62.99535 41.728468 
L 63.002114 41.759347 
L 63.106954 41.792218 
L 63.049461 41.73913 
L 63.113718 41.78649 
L 63.248996 41.673388 
L 63.350454 41.663591 
L 63.313253 41.617156 
L 63.353836 41.658355 
L 63.407947 41.560389 
L 63.462058 41.667053 
L 63.8476 41.682721 
L 63.871274 41.628706 
L 63.928767 41.73945 
L 63.952441 41.72405 
L 64.040371 41.605409 
L 64.080955 41.524454 
L 64.155357 41.568002 
L 64.266962 41.475219 
L 64.277107 41.502746 
L 64.412385 41.687808 
L 64.415767 41.686288 
L 64.425913 41.65631 
L 64.486788 41.76244 
L 64.517226 41.735592 
L 64.649122 41.78366 
L 64.655885 41.769017 
L 64.699851 41.776804 
L 64.770872 41.742607 
L 64.784399 41.750085 
L 64.841892 41.636798 
L 64.845274 41.645542 
L 64.97717 41.544336 
L 64.85542 41.657418 
L 64.990698 41.564051 
L 65.088775 41.681489 
L 65.136122 41.638139 
L 65.190233 41.669653 
L 65.268018 41.586176 
L 65.389768 41.698254 
L 65.39315 41.697224 
L 65.53181 41.757777 
L 65.562247 41.672076 
L 65.63665 41.782474 
L 65.656942 41.816882 
L 65.704289 41.67677 
L 65.714435 41.686481 
L 65.765164 41.721014 
L 65.826039 41.657988 
L 65.842949 41.690505 
L 65.917351 41.595972 
L 65.930879 41.622765 
L 66.133796 41.562958 
L 66.150706 41.601898 
L 66.181143 41.65373 
L 66.160852 41.600032 
L 66.258928 41.600697 
L 66.36715 41.602483 
L 66.326567 41.684573 
L 66.370532 41.613205 
L 66.377296 41.638489 
L 66.438171 41.511897 
L 66.468609 41.554093 
L 66.586977 41.390095 
L 66.590359 41.402463 
L 66.61065 41.42656 
L 66.678289 41.330147 
L 66.779748 41.194002 
L 66.816949 41.221004 
L 66.891352 41.307172 
L 66.833859 41.199095 
L 66.935317 41.276234 
L 67.070595 41.108972 
L 67.073977 41.12013 
L 67.209255 41.199069 
L 67.246456 41.129292 
L 67.320859 41.196597 
L 67.452755 41.222767 
L 67.456137 41.228647 
L 67.459519 41.237973 
L 67.544068 41.145282 
L 67.557595 41.167406 
L 67.679345 41.026087 
L 67.682727 41.037967 
L 67.719929 40.952361 
L 67.777422 40.978182 
L 68.166346 40.610745 
L 68.200165 40.685916 
L 68.308387 40.70249 
L 68.264422 40.624646 
L 68.315151 40.678344 
L 68.50454 40.937251 
L 68.518068 40.903249 
L 69.322971 40.021659 
L 69.329735 40.049836 
L 69.404138 39.896144 
L 69.417666 39.944951 
L 69.515742 39.974846 
L 69.42443 39.975371 
L 69.525888 39.996726 
L 69.532652 40.01945 
L 69.56309 39.948095 
L 69.627346 39.937627 
L 69.75586 39.738842 
L 69.762624 39.764819 
L 69.833645 39.836688 
L 69.864083 39.721818 
L 70.053472 39.574387 
L 70.144784 39.590202 
L 70.080527 39.55212 
L 70.161694 39.568382 
L 70.273298 39.520265 
L 70.181986 39.582171 
L 70.286826 39.532088 
L 70.317264 39.606443 
L 70.381521 39.484787 
L 70.547236 39.318189 
L 70.395048 39.502518 
L 70.567528 39.340569 
L 70.635166 39.369496 
L 70.604729 39.319487 
L 70.665604 39.30088 
L 70.783972 39.183554 
L 70.800882 39.238283 
L 70.888812 39.281061 
L 70.841465 39.201869 
L 70.915868 39.238907 
L 71.051146 39.07471 
L 71.125549 39.082996 
L 71.14584 38.9987 
L 71.31832 38.725334 
L 71.399486 38.624778 
L 71.541528 38.354799 
L 71.599021 38.254936 
L 71.747827 36.899802 
L 71.768118 31.240673 
L 71.781646 27.596913 
L 71.862813 40.098609 
L 71.869577 40.114628 
L 71.900014 39.739283 
L 72.025146 36.762105 
L 72.045438 27.562696 
L 72.116459 38.960368 
L 72.133369 40.343288 
L 72.224681 38.633554 
L 72.288938 35.719417 
L 72.302466 28.093502 
L 72.390397 40.159005 
L 72.491855 37.994671 
L 72.532438 34.502575 
L 72.542584 28.449826 
L 72.627133 40.026523 
L 72.637279 39.935006 
L 72.759029 36.393603 
L 72.775938 28.639162 
L 72.853723 39.905746 
L 72.860487 39.976379 
L 72.911216 39.001037 
L 72.992383 35.365236 
L 73.005911 28.644766 
L 73.090459 40.036746 
L 73.093841 39.993411 
L 73.222355 36.504127 
L 73.239265 28.509603 
L 73.313668 39.833417 
L 73.323814 40.170029 
L 73.40498 38.628286 
L 73.472619 34.650069 
L 73.482765 28.308156 
L 73.570696 40.377589 
L 73.57746 40.319744 
L 73.71612 37.472514 
L 73.736411 34.966074 
L 73.746557 28.073138 
L 73.83787 40.630501 
L 73.841252 40.600484 
L 73.986675 38.038527 
L 74.027259 35.800338 
L 74.040786 27.805757 
L 74.128717 40.879769 
L 74.132099 40.889649 
L 74.159155 40.646905 
L 74.365453 36.238108 
L 74.378981 27.769592 
L 74.460148 40.684386 
L 74.473676 41.043364 
L 74.558224 40.13757 
L 74.757759 35.575184 
L 74.771287 27.67697 
L 74.859217 41.144118 
L 74.865981 41.16447 
L 74.896419 40.895986 
L 75.187266 37.777545 
L 75.234613 35.822831 
L 75.251523 27.960789 
L 75.33269 41.03117 
L 75.336072 41.070098 
L 75.403711 40.589882 
L 75.478114 39.831904 
L 75.779107 36.047931 
L 75.799398 28.401233 
L 75.870419 40.667349 
L 75.887329 40.959772 
L 75.968496 40.325601 
L 76.47917 37.273784 
L 76.489316 37.260054 
L 76.631357 37.936423 
L 76.780163 38.299877 
L 76.793691 38.243237 
L 76.878239 38.411045 
L 77.043955 38.413794 
L 77.050719 38.425732 
L 77.290837 38.879558 
L 77.31451 38.861548 
L 77.388913 38.942724 
L 77.392295 38.932749 
L 77.459934 39.038514 
L 77.473462 39.036331 
L 77.490372 39.016205 
L 77.618886 39.209962 
L 78.045011 39.968431 
L 78.075448 39.954019 
L 78.126178 39.937388 
L 78.163379 40.000862 
L 78.173525 40.000186 
L 78.315566 40.327256 
L 78.332476 40.291774 
L 78.33924 40.256198 
L 78.413643 40.46879 
L 78.417025 40.45824 
L 78.586122 40.657455 
L 78.640233 40.762887 
L 78.802567 40.892341 
L 78.809331 40.886061 
L 78.819476 40.844102 
L 78.883733 40.975519 
L 78.907407 40.972368 
L 79.022393 40.987993 
L 78.914171 40.9581 
L 79.029157 40.958477 
L 79.035921 40.920324 
L 79.10356 41.060236 
L 79.113706 41.059664 
L 79.150907 41.154908 
L 79.232074 41.080045 
L 79.33015 41.139825 
L 79.397789 41.250521 
L 79.4519 41.21093 
L 79.539831 41.213372 
L 79.462046 41.222096 
L 79.549977 41.258508 
L 79.587178 41.297055 
L 79.641289 41.190457 
L 79.651435 41.209067 
L 79.854352 41.258707 
L 79.88479 41.230422 
L 79.976102 41.32608 
L 80.131672 41.340694 
L 80.138436 41.325483 
L 80.145199 41.303931 
L 80.226366 41.358261 
L 80.246658 41.344734 
L 80.25004 41.351694 
L 80.287241 41.235447 
L 80.321061 41.254581 
L 80.466484 41.192032 
L 80.358262 41.317027 
L 80.473248 41.205376 
L 80.574707 41.220107 
L 80.490158 41.171053 
L 80.591616 41.20537 
L 80.669401 41.074763 
L 80.716748 41.135273 
L 80.72013 41.15278 
L 80.77086 41.023009 
L 80.814825 41.058504 
L 80.950103 41.049695 
L 80.821589 41.043792 
L 80.956867 41.028983 
L 81.034651 41.010852 
L 80.99745 41.083198 
L 81.054943 41.061737 
L 81.058325 41.077734 
L 81.1192 40.965337 
L 81.146256 40.980034 
L 81.264624 40.945226 
L 81.22404 41.008266 
L 81.268006 40.948624 
L 81.281533 40.965063 
L 81.355936 40.882162 
L 81.3627 40.89533 
L 81.389756 40.851957 
L 81.464158 40.942945 
L 81.477686 40.8816 
L 81.558853 40.935679 
L 81.528415 40.863464 
L 81.589291 40.886314 
L 81.694131 40.895542 
L 81.704277 40.83634 
L 81.815881 40.790165 
L 81.748242 40.847375 
L 81.822645 40.80193 
L 82.52609 40.344532 
L 82.63093 40.201777 
L 82.657986 40.282083 
L 82.712097 40.271201 
L 82.776354 40.326156 
L 82.843993 40.334282 
L 82.820319 40.303724 
L 82.887958 40.318234 
L 83.104402 40.22412 
L 83.107784 40.230859 
L 83.13484 40.316357 
L 83.222771 40.265796 
L 83.246444 40.226806 
L 83.307319 40.386627 
L 83.449361 40.481384 
L 83.60493 40.338441 
L 83.615076 40.348652 
L 83.669187 40.234278 
L 83.672569 40.234114 
L 83.713153 40.298446 
L 83.878868 40.190476 
L 83.922833 40.254578 
L 83.976945 40.172243 
L 83.983708 40.179427 
L 84.014146 40.131145 
L 84.091931 40.197892 
L 84.098695 40.227264 
L 84.162952 40.163109 
L 84.203535 40.201595 
L 84.26441 40.212374 
L 84.244118 40.254465 
L 84.284702 40.264839 
L 84.399688 40.301298 
L 84.328667 40.206483 
L 84.40307 40.291305 
L 84.52482 40.208577 
L 84.409834 40.294639 
L 84.531584 40.219467 
L 84.589077 40.192278 
L 84.545112 40.256264 
L 84.62966 40.274607 
L 84.64657 40.29365 
L 84.687153 40.197084 
L 84.727737 40.219198 
L 84.92389 40.166632 
L 84.737882 40.235962 
L 84.937417 40.205717 
L 85.01182 40.240187 
L 84.984765 40.179054 
L 85.055785 40.2057 
L 85.103133 40.146564 
L 85.062549 40.215894 
L 85.164008 40.198971 
L 85.248556 40.336236 
L 85.28914 40.309088 
L 85.292522 40.301195 
L 85.322959 40.418539 
L 85.366925 40.404416 
L 85.454855 40.468295 
L 85.404126 40.364732 
L 85.502202 40.400685 
L 85.539404 40.351816 
L 85.579987 40.422558 
L 85.617189 40.361627 
L 85.738939 40.284611 
L 85.857307 40.324267 
L 85.755848 40.274194 
L 85.860689 40.319177 
L 85.955383 40.22133 
L 85.979057 40.235552 
L 86.144772 40.319709 
L 85.989203 40.22171 
L 86.148154 40.313662 
L 86.242849 40.171154 
L 86.181974 40.327428 
L 86.290196 40.231964 
L 86.425474 40.234979 
L 86.303724 40.196596 
L 86.439001 40.193796 
L 86.550606 40.083939 
L 86.567515 40.104015 
L 86.692647 40.138553 
L 86.604717 40.05637 
L 86.702793 40.108624 
L 86.794106 40.040527 
L 86.726467 40.118032 
L 86.814398 40.093227 
L 86.959821 40.213132 
L 86.827925 40.085229 
L 86.963203 40.206507 
L 86.966585 40.187285 
L 87.024078 40.279216 
L 87.064662 40.266424 
L 87.078189 40.230678 
L 87.155974 40.339927 
L 87.169502 40.322374 
L 87.277724 40.421346 
L 87.362273 40.384301 
L 87.382564 40.450148 
L 87.423148 40.405589 
L 87.500933 40.491903 
L 87.524606 40.44421 
L 87.602391 40.516148 
L 87.612537 40.479926 
L 87.65312 40.521368 
L 87.707231 40.439961 
L 87.781634 40.390832 
L 87.747815 40.472435 
L 87.822218 40.41782 
L 87.900002 40.403363 
L 87.866183 40.351078 
L 87.916912 40.38282 
L 87.950731 40.296983 
L 88.031898 40.359706 
L 88.133357 40.371494 
L 88.0691 40.329658 
L 88.14012 40.355227 
L 88.221287 40.252022 
L 88.261871 40.336767 
L 88.27878 40.310382 
L 88.326128 40.440351 
L 88.349801 40.404219 
L 88.461405 40.450548 
L 88.376857 40.363525 
L 88.468169 40.443804 
L 88.552718 40.383655 
L 88.488461 40.455979 
L 88.586537 40.417169 
L 88.69476 40.408581 
L 88.704905 40.38406 
L 88.728579 40.336613 
L 88.802982 40.426516 
L 88.806364 40.423973 
L 88.840183 40.444688 
L 88.887531 40.332793 
L 88.894294 40.356257 
L 88.897676 40.328994 
L 88.965315 40.390685 
L 89.002517 40.364429 
L 89.019426 40.341462 
L 89.168232 40.791084 
L 89.333947 41.464435 
L 89.337329 41.458696 
L 89.394823 41.579716 
L 89.492899 41.738112 
L 89.401586 41.576179 
L 89.567302 41.703156 
L 89.570684 41.692862 
L 89.638323 41.820521 
L 89.763455 41.889959 
L 89.885205 41.811794 
L 89.770219 41.903124 
L 89.908878 41.825826 
L 90.074594 41.863091 
L 90.077976 41.852286 
L 90.081358 41.840455 
L 90.101649 41.937349 
L 90.176052 41.911557 
L 90.321476 41.85582 
L 90.331622 41.883115 
L 90.335004 41.899718 
L 90.372205 41.831873 
L 90.436462 41.864936 
L 90.53792 41.823741 
L 90.551448 41.840525 
L 91.068886 41.858248 
L 91.068886 41.858248 
" clip-path="url(#p47be504400)" style="fill: none; stroke: #000000; stroke-width: 0.6; stroke-linecap: square"/>
   </g>
   <g id="line2d_3">
    <path d="M 9.905557 57.592595 
L 9.983342 57.505524 
L 10.020543 57.588288 
L 10.216696 57.830451 
L 10.22346 57.811956 
L 10.257279 57.778582 
L 10.287717 57.867895 
L 10.324918 57.857973 
L 10.341828 57.837515 
L 10.389175 57.93115 
L 10.399321 57.917567 
L 10.514307 58.000354 
L 10.521071 57.979348 
L 10.527835 57.964558 
L 10.568419 58.090709 
L 10.615766 58.019442 
L 10.707078 58.096905 
L 10.72737 58.02785 
L 10.730752 58.011918 
L 10.808537 58.158291 
L 10.811919 58.154416 
L 10.86603 58.179981 
L 10.842356 58.208426 
L 10.889703 58.226266 
L 10.991162 58.301994 
L 10.896467 58.223494 
L 11.021599 58.268151 
L 11.21437 58.361992 
L 11.227898 58.334977 
L 11.802829 58.164759 
L 11.816357 58.220192 
L 11.914433 58.37778 
L 11.941489 58.350239 
L 11.948253 58.364222 
L 12.235718 58.302786 
L 12.276301 58.251604 
L 12.354086 58.342736 
L 12.431871 58.396412 
L 12.489364 58.283966 
L 12.543475 58.400475 
L 12.600968 58.284453 
L 12.746392 58.498283 
L 12.753156 58.477436 
L 12.797121 58.381349 
L 12.857996 58.551283 
L 12.935781 58.612281 
L 12.962836 58.516465 
L 13.064295 58.524455 
L 13.071059 58.560563 
L 13.209719 58.622687 
L 13.301031 58.73423 
L 13.328087 58.687549 
L 13.412635 58.739725 
L 13.443073 58.703963 
L 13.554677 58.82715 
L 13.564823 58.824191 
L 13.639226 58.694328 
L 13.686573 58.738061 
L 13.862434 58.77389 
L 13.960511 58.706552 
L 13.974038 58.746079 
L 14.068733 58.851449 
L 14.095788 58.808894 
L 14.13299 58.767958 
L 14.200629 58.836627 
L 14.207393 58.795169 
L 14.210775 58.827389 
L 14.288559 58.739471 
L 14.312233 58.772175 
L 14.379872 58.693487 
L 14.423837 58.759806 
L 14.562497 58.834347 
L 14.674101 58.976984 
L 14.684247 58.961289 
L 14.77556 58.86944 
L 14.72483 58.976287 
L 14.799233 58.922205 
L 14.802615 58.942811 
L 14.877018 58.857071 
L 14.904074 58.895046 
L 15.005532 58.819506 
L 14.917601 58.901486 
L 15.022442 58.882055 
L 15.181393 58.97004 
L 15.306525 59.073824 
L 15.198303 58.961628 
L 15.313289 59.048266 
L 15.421511 58.957651 
L 15.435039 58.999519 
L 15.475623 59.049247 
L 15.52297 58.975756 
L 15.543261 58.980657 
L 15.678539 58.91965 
L 15.566935 59.005097 
L 15.681921 58.930197 
L 17.119248 59.123524 
L 17.271436 58.991882 
L 17.136158 59.131486 
L 17.274818 58.996057 
L 17.328929 59.032498 
L 17.386422 59.006087 
L 17.464207 58.938877 
L 17.498026 59.007613 
L 17.673888 59.087679 
L 17.680652 59.070266 
L 17.721235 59.072942 
L 17.690797 59.052382 
L 17.744909 58.985915 
L 17.768582 58.896851 
L 17.849749 58.998786 
L 17.866659 59.038153 
L 17.934298 58.964886 
L 17.957971 58.983707 
L 18.049284 59.049841 
L 18.086485 59.00367 
L 18.116923 59.004921 
L 18.100013 59.034522 
L 18.140596 59.094677 
L 18.198089 59.114158 
L 18.221763 59.023554 
L 18.242055 59.057602 
L 18.360423 58.91459 
L 18.258964 59.07163 
L 18.387478 58.986664 
L 18.444971 59.053024 
L 18.499083 58.996955 
L 18.587013 58.97441 
L 18.556576 59.047614 
L 18.607305 59.019735 
L 18.647888 58.990057 
L 18.624215 59.055273 
L 18.708763 59.054564 
L 18.796694 59.126147 
L 18.823749 59.103945 
L 18.921826 59.062738 
L 18.871097 59.181543 
L 18.931972 59.105013 
L 19.104451 59.264575 
L 18.992847 59.058212 
L 19.117979 59.247043 
L 19.189 59.094906 
L 19.243111 59.125574 
L 19.290458 59.17781 
L 19.358097 59.121625 
L 19.510284 59.106291 
L 19.371625 59.150907 
L 19.523812 59.14541 
L 19.527194 59.164766 
L 19.598215 59.065037 
L 19.621889 59.065104 
L 20.017576 59.119174 
L 20.020958 59.098557 
L 20.129181 58.9153 
L 20.176528 58.952086 
L 20.244167 58.909685 
L 20.291514 58.985555 
L 20.413264 58.876888 
L 20.420028 58.903129 
L 20.480903 58.773291 
L 20.507959 58.823423 
L 20.612799 58.750536 
L 20.524868 58.832794 
L 20.626327 58.780023 
L 20.629709 58.800135 
L 20.717639 58.687193 
L 20.727785 58.725649 
L 20.748077 58.761519 
L 20.832625 58.761331 
L 20.890119 58.754073 
L 20.903646 58.704622 
L 20.923938 58.715484 
L 20.92732 58.696281 
L 20.994959 58.788805 
L 21.028778 58.726618 
L 21.035542 58.768377 
L 21.099799 58.62739 
L 21.130237 58.67019 
L 21.228313 58.525611 
L 21.282424 58.571201 
L 21.387265 58.633486 
L 21.316244 58.54606 
L 21.394029 58.596894 
L 21.397411 58.571521 
L 21.444758 58.634113 
L 21.505633 58.591969 
L 21.67473 58.506752 
L 21.512397 58.599124 
L 21.681494 58.522806 
L 21.772807 58.635467 
L 21.810008 58.601435 
L 21.867501 58.493842 
L 21.931758 58.380218 
L 21.982487 58.466301 
L 22.374793 58.516226 
L 22.408612 58.433422 
L 22.476251 58.554133 
L 22.479633 58.549612 
L 22.57771 58.584724 
L 22.506689 58.510415 
L 22.587856 58.547432 
L 22.712988 58.432138 
L 22.71637 58.434377 
L 22.760335 58.511172 
L 22.740043 58.409035 
L 22.814446 58.390969 
L 22.949724 58.287158 
L 22.824592 58.411421 
L 22.973397 58.336984 
L 23.024127 58.367376 
L 23.000453 58.289227 
L 23.078238 58.317592 
L 23.128967 58.2569 
L 23.156023 58.343859 
L 23.189842 58.286562 
L 23.199988 58.321586 
L 23.240571 58.238134 
L 23.2913 58.238114 
L 23.331884 58.176543 
L 23.41305 58.22374 
L 23.548328 58.067943 
L 23.55171 58.073036 
L 23.629495 58.092506 
L 23.572002 58.038709 
L 23.659933 58.0659 
L 23.686988 58.021414 
L 23.730953 58.134394 
L 23.761391 58.127631 
L 23.947398 58.174562 
L 23.95078 58.19469 
L 24.079294 58.323454 
L 24.099586 58.299657 
L 24.197662 58.323758 
L 24.136787 58.347575 
L 24.201044 58.330698 
L 24.248391 58.407895 
L 24.31603 58.370264 
L 24.329558 58.377749 
L 24.447926 58.282553 
L 24.701572 58.112056 
L 24.711718 58.150641 
L 24.772593 58.188668 
L 24.728628 58.138062 
L 24.816558 58.116368 
L 24.928162 57.970299 
L 24.938308 57.974269 
L 24.94169 57.989378 
L 25.022857 57.913669 
L 25.043149 57.942102 
L 25.144607 57.885635 
L 25.08035 57.95632 
L 25.161517 57.906829 
L 25.259593 58.008973 
L 25.296795 57.927792 
L 25.371197 57.822563 
L 25.327232 57.951577 
L 25.418545 57.880475 
L 25.452364 57.928607 
L 25.523385 57.863375 
L 25.587642 57.791232 
L 25.540295 57.889184 
L 25.641753 57.841682 
L 25.743211 57.952721 
L 25.770267 57.917879 
L 25.84467 57.792712 
L 25.895399 57.804076 
L 25.956274 57.823627 
L 25.905545 57.785037 
L 26.003621 57.764166 
L 26.264031 57.686654 
L 26.020531 57.797069 
L 26.287705 57.737392 
L 26.429747 57.854805 
L 26.466948 57.824892 
L 26.551497 57.787578 
L 26.578552 57.799237 
L 26.625899 57.870601 
L 26.680011 57.727144 
L 26.889691 57.597249 
L 27.001296 57.561873 
L 26.903219 57.621979 
L 27.011441 57.569242 
L 27.116282 57.629313 
L 27.139955 57.61081 
L 27.143337 57.58248 
L 27.221122 57.67667 
L 27.241414 57.6707 
L 27.363164 57.668351 
L 27.25156 57.641096 
L 27.37331 57.613568 
L 27.47815 57.53167 
L 27.498442 57.545645 
L 27.542407 57.494231 
L 27.630338 57.591998 
L 27.752088 57.432073 
L 27.640483 57.597703 
L 27.775761 57.486119 
L 27.819727 57.492123 
L 27.863692 57.417751 
L 27.867074 57.429632 
L 27.98206 57.329352 
L 27.995588 57.352889 
L 28.063227 57.189719 
L 28.130866 57.287574 
L 28.232324 57.216242 
L 28.262761 57.259462 
L 28.333782 57.374745 
L 28.38113 57.281347 
L 28.50288 57.222695 
L 28.387893 57.290745 
L 28.506262 57.242392 
L 28.570519 57.328467 
L 28.62463 57.282676 
L 28.814019 57.368482 
L 28.641539 57.263948 
L 28.817401 57.360542 
L 28.925623 57.365901 
L 28.878276 57.422268 
L 28.929005 57.371146 
L 29.108248 57.242081 
L 29.121776 57.258329 
L 29.179269 57.260635 
L 29.213088 57.212967 
L 29.219852 57.192882 
L 29.294255 57.295188 
L 29.304401 57.287195 
L 29.311165 57.337762 
L 29.385568 57.204184 
L 29.399095 57.213996 
L 29.503936 57.234265 
L 29.416005 57.174955 
L 29.527609 57.196839 
L 29.561429 57.233283 
L 29.645977 57.13895 
L 29.994318 57.142069 
L 30.017992 57.068869 
L 30.105922 57.130751 
L 30.254728 57.096128 
L 30.264874 57.109432 
L 30.27502 57.123303 
L 30.352804 57.017576 
L 30.356186 57.030385 
L 30.39677 56.963101 
L 30.461027 57.052368 
L 30.525284 57.132855 
L 30.572631 57.087675 
L 30.596304 57.102295 
L 30.707909 56.932708 
L 30.799221 56.963528 
L 30.809367 56.983206 
L 30.843186 57.050635 
L 30.910825 56.945715 
L 30.975082 57.039345 
L 31.059631 56.835768 
L 31.11036 56.886645 
L 31.161089 56.79811 
L 31.309895 56.670936 
L 31.326805 56.716299 
L 31.347096 56.662122 
L 31.435027 56.707795 
L 31.651472 56.392603 
L 31.664999 56.427875 
L 31.732638 56.269463 
L 31.85777 56.153546 
L 31.861152 56.160556 
L 31.888208 56.106011 
L 31.945701 56.104227 
L 32.124944 53.731109 
L 32.138472 43.933552 
L 32.226403 58.058449 
L 32.229784 58.062143 
L 32.250076 57.929402 
L 32.524014 56.242893 
L 32.645764 54.831308 
L 32.659292 48.045408 
L 32.666056 44.184498 
L 32.753986 58.675634 
L 32.757368 58.670136 
L 32.76075 58.674812 
L 32.781042 58.5249 
L 33.257896 54.379654 
L 33.271424 44.125754 
L 33.349209 58.236893 
L 33.362736 58.940176 
L 33.457431 58.278611 
L 33.866646 56.360236 
L 33.978251 55.787916 
L 34.039126 53.704354 
L 34.052654 44.091114 
L 34.140584 58.996223 
L 34.143966 59.003752 
L 34.174404 58.82283 
L 34.465251 57.325152 
L 34.979307 54.993034 
L 34.992835 52.77038 
L 35.00298 44.006384 
L 35.097675 59.074311 
L 35.334411 57.670417 
L 35.351321 57.692252 
L 36.112259 55.478672 
L 36.146078 53.66874 
L 36.159606 44.00398 
L 36.247537 59.069978 
L 36.315176 58.629334 
L 36.616169 57.429751 
L 36.619551 57.44379 
L 36.663516 57.353914 
L 36.714245 57.365348 
L 36.879961 57.052944 
L 36.883343 57.064724 
L 37.123461 56.505977 
L 37.481947 56.062339 
L 37.620607 54.870834 
L 37.634135 51.404632 
L 37.64428 43.974338 
L 37.732211 58.975768 
L 37.738975 58.952523 
L 38.114371 57.317848 
L 38.121135 57.330586 
L 38.178628 57.232481 
L 38.195538 57.226205 
L 38.253031 57.123075 
L 38.804288 56.134037 
L 38.932802 55.211138 
L 38.953094 53.282802 
L 38.966621 43.986984 
L 39.057934 59.012775 
L 39.078226 58.918862 
L 39.260851 57.838703 
L 39.453622 57.36959 
L 39.778289 57.123124 
L 39.781671 57.134323 
L 39.930476 56.836321 
L 40.288962 56.334907 
L 40.292344 56.355531 
L 40.373511 56.216325 
L 40.376893 56.21702 
L 40.532463 56.001527 
L 40.539226 56.012031 
L 40.593338 55.867649 
L 40.70156 54.707712 
L 40.721852 44.014781 
L 40.786109 55.598661 
L 40.813164 58.880279 
L 40.901095 58.273506 
L 41.087102 57.430446 
L 41.090484 57.439746 
L 41.124303 57.390913 
L 41.137831 57.340929 
L 41.330602 57.050611 
L 41.333984 57.055731 
L 41.337366 57.066917 
L 41.418533 56.985595 
L 41.43206 57.004002 
L 41.591012 56.92468 
L 41.719526 56.804436 
L 41.722908 56.810114 
L 41.93597 56.597928 
L 41.949498 56.618631 
L 41.956262 56.626696 
L 42.006991 56.52669 
L 42.020519 56.522177 
L 42.165943 56.24268 
L 42.348568 55.743898 
L 42.422971 54.513414 
L 42.43988 44.024584 
L 42.510901 57.669631 
L 42.534575 58.833375 
L 42.622505 58.189531 
L 42.859242 57.277974 
L 42.862624 57.289428 
L 42.866006 57.307605 
L 42.94379 57.121305 
L 43.126415 56.981335 
L 43.133179 56.998134 
L 43.214346 56.884603 
L 43.217728 56.89376 
L 43.356388 56.656981 
L 43.532249 56.422147 
L 43.660763 56.235407 
L 43.664145 56.250754 
L 43.72502 56.215095 
L 43.697964 56.209925 
L 43.731784 56.195929 
L 43.887353 55.747582 
L 43.948228 55.057412 
L 43.965138 52.335601 
L 43.975284 43.977164 
L 44.063215 58.866501 
L 44.069978 58.85662 
L 44.327006 57.440786 
L 44.343916 57.456848 
L 44.370972 57.337221 
L 44.800479 56.866345 
L 44.915465 56.800818 
L 44.918847 56.815144 
L 44.925611 56.818068 
L 44.956048 56.696536 
L 44.972958 56.709279 
L 45.507306 55.70086 
L 45.564799 54.479084 
L 45.581708 43.972755 
L 45.652729 57.544274 
L 45.673021 58.884452 
L 45.764333 58.240367 
L 45.943577 57.421977 
L 45.946959 57.44054 
L 46.024743 57.271907 
L 46.031507 57.298047 
L 46.10591 57.232531 
L 46.061945 57.237659 
L 46.112674 57.222469 
L 46.677459 56.603143 
L 46.126202 57.235515 
L 46.684223 56.613826 
L 46.690987 56.640509 
L 46.76539 56.39011 
L 46.866848 56.242623 
L 46.99198 56.108594 
L 47.012272 56.1146 
L 47.015654 56.121242 
L 47.046091 56.059561 
L 47.100202 56.046787 
L 47.106966 56.021454 
L 47.157695 55.962365 
L 47.289591 54.680557 
L 47.309883 43.986848 
L 47.37414 55.513226 
L 47.397814 58.829466 
L 47.489126 58.182166 
L 47.675133 57.376765 
L 47.678515 57.382412 
L 47.725862 57.327597 
L 47.695425 57.324589 
L 47.732626 57.302098 
L 47.874668 57.141859 
L 48.655898 56.224708 
L 48.791175 56.091799 
L 49.027912 55.260569 
L 49.054967 51.923759 
L 49.065113 44.026094 
L 49.153044 58.778176 
L 49.159808 58.754149 
L 49.193627 58.497168 
L 49.454037 57.274811 
L 49.457419 57.288937 
L 49.535204 57.151454 
L 49.629898 57.091794 
L 49.663718 57.135464 
L 50.01544 56.762243 
L 50.086461 56.892499 
L 50.089843 56.918116 
L 50.174391 56.743518 
L 50.177773 56.74754 
L 50.417892 56.534489 
L 50.428037 56.560641 
L 50.576843 56.716229 
L 50.654628 56.626354 
L 50.691829 56.680732 
L 50.830489 56.741168 
L 50.833871 56.720623 
L 50.942093 56.706679 
L 50.8846 56.75525 
L 50.945475 56.721863 
L 50.948857 56.741743 
L 51.009732 56.6073 
L 51.050316 56.685966 
L 51.117954 56.790227 
L 51.307343 56.951425 
L 51.310725 56.943158 
L 51.40542 56.937352 
L 51.429094 56.988963 
L 51.462913 56.995015 
L 51.446003 57.022794 
L 51.503496 57.054545 
L 51.652302 57.24454 
L 51.767288 57.338041 
L 51.865365 57.528278 
L 51.889038 57.51192 
L 52.132538 57.80851 
L 52.27458 57.776819 
L 52.149448 57.832621 
L 52.277962 57.782206 
L 52.372657 57.896484 
L 52.399712 57.86054 
L 52.511316 58.113113 
L 52.572191 58.09365 
L 52.606011 58.1934 
L 52.683796 58.244395 
L 52.717615 58.205117 
L 52.737907 58.184918 
L 52.869803 58.401176 
L 52.873185 58.393989 
L 52.937442 58.515272 
L 53.126831 58.740694 
L 53.133594 58.7228 
L 53.26549 58.670344 
L 53.279018 58.690438 
L 53.434588 58.630331 
L 53.495463 58.573565 
L 53.532664 58.672449 
L 53.552956 59.178546 
L 53.718671 60.978362 
L 53.82013 60.912681 
L 53.833657 60.964712 
L 53.958789 61.086547 
L 54.026428 61.023451 
L 53.992609 61.099758 
L 54.077157 61.039894 
L 54.296984 61.086944 
L 54.097449 61.003222 
L 54.300366 61.066223 
L 54.310512 61.045996 
L 54.357859 61.13376 
L 54.398442 61.114629 
L 54.466081 61.133121 
L 54.510047 61.119561 
L 54.581067 61.03431 
L 54.635179 61.061553 
L 54.716345 61.099292 
L 54.65547 61.028094 
L 54.750165 61.052599 
L 54.807658 60.998004 
L 54.858387 61.071117 
L 54.993665 61.167882 
L 55.07145 61.040246 
L 55.108651 61.144727 
L 55.287894 61.02215 
L 55.416408 61.163725 
L 55.423172 61.155545 
L 55.497575 61.158063 
L 55.460373 61.077767 
L 55.517867 61.123036 
L 55.595651 61.016733 
L 55.632853 61.095609 
L 55.734311 61.045835 
L 55.670054 61.133344 
L 55.741075 61.089374 
L 55.747839 61.130623 
L 55.842533 61.028023 
L 55.883117 60.962174 
L 55.95752 61.016017 
L 55.964283 61.007985 
L 56.004867 61.142147 
L 56.031922 61.098301 
L 56.157054 61.208532 
L 56.1672 61.14493 
L 56.299096 61.037715 
L 56.302478 61.059132 
L 56.380263 61.104186 
L 56.414082 61.064738 
L 56.495249 61.03361 
L 56.464812 61.093302 
L 56.525687 61.064111 
L 56.627145 61.102398 
L 56.562888 61.0285 
L 56.644055 61.053984 
L 56.708312 61.101313 
L 56.68802 61.138013 
L 56.718458 61.132759 
L 56.725221 61.159542 
L 56.789478 61.059629 
L 56.823298 61.113277 
L 56.93152 61.094496 
L 56.880791 61.142176 
L 56.934902 61.107849 
L 56.945048 61.110289 
L 56.955194 61.043593 
L 56.989013 61.021043 
L 57.07018 60.985763 
L 57.012687 61.041651 
L 57.100617 61.035674 
L 57.242659 60.976329 
L 57.256187 60.986713 
L 57.367791 61.052055 
L 57.276479 60.98392 
L 57.371173 61.038448 
L 57.472632 61.030654 
L 57.415138 61.074257 
L 57.486159 61.037344 
L 57.550416 61.02255 
L 57.536889 61.080794 
L 57.587618 61.074259 
L 57.591 61.095288 
L 57.67893 61.007556 
L 57.685694 61.00851 
L 57.689076 60.989576 
L 57.726278 61.067741 
L 57.790534 61.051374 
L 57.8345 61.088696 
L 57.854791 61.025887 
L 57.891993 61.016485 
L 57.959632 61.024249 
L 57.976542 61.076987 
L 57.983305 61.05931 
L 58.067854 61.119337 
L 57.996833 61.038726 
L 58.098292 61.110912 
L 58.149021 61.060006 
L 58.179458 61.142831 
L 58.220042 61.079671 
L 58.223424 61.089007 
L 58.264007 61.005314 
L 58.311354 61.0192 
L 58.318118 60.998938 
L 58.365465 61.073105 
L 58.419576 61.03638 
L 58.693514 61.022828 
L 58.710424 60.985343 
L 58.737479 61.061955 
L 58.801736 61.018966 
L 58.849084 61.094618 
L 58.893049 60.987623 
L 58.909959 61.021036 
L 58.98098 60.986608 
L 59.018181 61.040513 
L 59.221098 61.012027 
L 59.227862 61.040873 
L 59.268445 61.099682 
L 59.325938 61.009537 
L 59.336084 61.022477 
L 59.471362 61.010461 
L 59.373285 61.063036 
L 59.478126 61.027713 
L 59.552529 61.048212 
L 59.566056 60.995676 
L 59.586348 61.009306 
L 59.819702 61.073035 
L 59.829848 61.045325 
L 59.941452 61.023848 
L 59.853522 61.073577 
L 59.944834 61.032354 
L 60.049675 61.049673 
L 60.019237 60.952116 
L 60.056439 61.012029 
L 60.154515 61.015644 
L 60.090258 61.068682 
L 60.168043 61.02569 
L 60.178189 61.051897 
L 60.259355 60.961048 
L 60.266119 60.969077 
L 60.326994 60.919784 
L 60.381105 60.954688 
L 60.546821 60.933331 
L 60.550203 60.959877 
L 60.675335 61.028766 
L 60.688862 61.039097 
L 60.800467 60.975492 
L 60.989856 61.049648 
L 60.99662 61.02175 
L 61.111606 61.015853 
L 61.114988 61.028488 
L 61.199536 61.107704 
L 61.236738 61.047105 
L 61.338196 60.985816 
L 61.355106 61.005487 
L 61.470092 61.072395 
L 61.378779 60.999774 
L 61.473474 61.054074 
L 61.524203 60.981059 
L 61.58846 60.997848 
L 61.720356 61.132097 
L 61.598606 60.987817 
L 61.723738 61.129955 
L 61.842106 60.987981 
L 61.859016 61.017569 
L 61.974002 61.033989 
L 61.98753 60.969347 
L 62.055169 61.043035 
L 62.122808 60.917468 
L 62.254704 60.972833 
L 62.264849 60.954042 
L 62.268231 60.924933 
L 62.318961 61.044852 
L 62.366308 61.029826 
L 62.484676 61.093696 
L 62.383218 60.98411 
L 62.511732 61.056471 
L 62.609808 60.993406 
L 62.518495 61.063457 
L 62.633482 61.036419 
L 62.714648 60.959852 
L 62.748468 61.028528 
L 62.758614 61.074175 
L 62.836398 60.942508 
L 62.843162 60.945573 
L 62.948003 60.938721 
L 62.927711 61.014959 
L 62.958148 60.949414 
L 63.08328 61.003865 
L 63.10019 60.972234 
L 63.164447 61.024916 
L 63.218558 60.944043 
L 63.265906 61.068229 
L 63.228704 60.927483 
L 63.330163 60.940028 
L 63.374128 61.017258 
L 63.404565 61.003252 
L 63.441767 61.019517 
L 63.492496 60.881051 
L 63.495878 60.897824 
L 63.577045 60.90292 
L 63.502642 60.910665 
L 63.58719 60.9574 
L 63.614246 61.024413 
L 63.634538 60.935048 
L 63.70894 60.977216 
L 63.837454 60.847401 
L 63.850982 60.897437 
L 63.955823 61.065257 
L 63.972732 61.006618 
L 64.013316 61.055439 
L 64.084337 61.034023 
L 64.253434 61.072297 
L 64.260198 61.062318 
L 64.381948 60.939616 
L 64.283871 61.098935 
L 64.392094 60.955378 
L 64.598392 60.955492 
L 64.605156 60.937843 
L 64.659267 60.927473 
L 64.635594 60.988214 
L 64.699851 60.994939 
L 64.703233 61.011804 
L 64.794545 60.909895 
L 64.868948 60.904223 
L 64.828365 60.868002 
L 64.896004 60.872913 
L 64.906149 60.846945 
L 64.980552 60.940802 
L 64.987316 60.933845 
L 65.088775 61.041933 
L 65.109066 61.022327 
L 65.518282 60.881816 
L 65.11583 61.040442 
L 65.535191 60.922651 
L 65.606212 60.98901 
L 65.552101 60.918034 
L 65.646796 60.927516 
L 65.650178 60.896271 
L 65.748254 60.968907 
L 65.751636 60.960535 
L 65.88015 61.033122 
L 65.883532 61.010483 
L 66.045865 60.917781 
L 65.900442 61.043297 
L 66.052629 60.945215 
L 66.110122 60.987916 
L 66.143942 60.905987 
L 66.160852 60.939293 
L 66.2454 60.848904 
L 66.285984 60.903121 
L 66.397588 60.929841 
L 66.296129 60.885307 
L 66.407734 60.917311 
L 66.526102 60.99936 
L 66.428025 60.874266 
L 66.563303 60.951819 
L 66.62756 60.991219 
L 66.688435 60.859225 
L 66.745928 60.943724 
L 66.779748 60.907839 
L 66.786512 60.941834 
L 66.867678 60.880927 
L 66.88797 60.892503 
L 66.928553 60.963616 
L 67.006338 60.910128 
L 67.084123 60.873981 
L 67.111178 60.951519 
L 67.155144 60.884344 
L 67.23631 60.959859 
L 67.266748 61.023988 
L 67.297185 60.920003 
L 67.344533 60.948643 
L 67.503484 60.80691 
L 67.358061 60.961361 
L 67.517012 60.858573 
L 67.621852 60.923306 
L 67.659054 60.963322 
L 67.730075 60.923801 
L 67.845061 60.894037 
L 67.794332 60.957202 
L 67.848443 60.902299 
L 67.932991 60.849033 
L 67.865352 60.870784 
L 67.936373 60.828083 
L 67.983721 60.803298 
L 67.976957 60.849705 
L 68.047978 60.836433 
L 68.149436 60.896142 
L 68.071651 60.796143 
L 68.169728 60.871805 
L 68.575561 60.614118 
L 68.585707 60.653977 
L 68.646582 60.746063 
L 68.704075 60.691165 
L 68.839353 60.534184 
L 68.957721 60.536085 
L 68.961103 60.533599 
L 69.069325 60.425735 
L 68.984777 60.567781 
L 69.092999 60.509685 
L 69.356791 60.656269 
L 69.363555 60.643982 
L 69.410902 60.601463 
L 69.471777 60.658871 
L 69.54618 60.68194 
L 69.566471 60.593934 
L 69.66793 60.602107 
L 69.586763 60.631306 
L 69.674694 60.626564 
L 69.803208 60.733627 
L 69.820117 60.707148 
L 70.286826 60.197214 
L 70.303736 60.237904 
L 70.364611 60.204661 
L 70.41534 60.282061 
L 70.516798 60.248174 
L 70.466069 60.311931 
L 70.526944 60.263584 
L 70.547236 60.306213 
L 70.631785 60.229837 
L 70.635166 60.248261 
L 70.800882 60.181355 
L 70.804264 60.184855 
L 70.821174 60.203537 
L 70.90234 60.112791 
L 70.909104 60.140494 
L 71.02409 59.957925 
L 71.041 59.989052 
L 71.152604 60.002928 
L 71.071438 59.961085 
L 71.159368 59.99486 
L 71.16275 59.973698 
L 71.257445 60.064708 
L 71.260827 60.058958 
L 71.325084 60.062272 
L 71.345375 59.998241 
L 71.511091 59.750349 
L 71.365667 60.008842 
L 71.514473 59.755082 
L 71.639605 59.847847 
L 71.642986 59.836688 
L 71.68357 59.761622 
L 71.757973 59.784238 
L 71.835757 59.727316 
L 71.876341 59.836103 
L 71.937216 59.747265 
L 71.994709 59.871217 
L 72.069112 59.815737 
L 72.038674 59.909341 
L 72.116459 59.841402 
L 72.258501 59.715415 
L 72.363341 59.562059 
L 72.393779 59.608473 
L 72.44789 59.644279 
L 72.495237 59.551868 
L 72.67448 59.293845 
L 72.698154 59.34482 
L 72.731973 59.229596 
L 72.752265 59.2233 
L 73.012675 58.885411 
L 73.016057 58.891287 
L 73.131043 58.919839 
L 73.202064 58.873062 
L 73.185154 58.964525 
L 73.249411 58.900858 
L 73.310286 58.919929 
L 73.286612 58.84803 
L 73.350869 58.843224 
L 73.425272 58.789579 
L 73.371161 58.789664 
L 73.432036 58.757083 
L 73.574078 58.662478 
L 73.590988 58.685622 
L 73.71612 58.779582 
L 73.604515 58.68131 
L 73.719501 58.764666 
L 73.831106 58.69664 
L 73.760085 58.783239 
L 73.834488 58.700455 
L 73.912272 58.709445 
L 73.939328 58.672044 
L 74.071224 58.653248 
L 74.094898 58.684693 
L 74.149009 58.584319 
L 74.176064 58.623296 
L 74.196356 58.658508 
L 74.294432 58.591288 
L 74.395891 58.397569 
L 74.466912 58.480778 
L 74.575134 58.57357 
L 74.588662 58.51768 
L 74.669828 58.427259 
L 74.720558 58.513289 
L 74.72394 58.533385 
L 74.784815 58.393972 
L 74.815252 58.416848 
L 74.974204 58.403668 
L 74.977586 58.370025 
L 75.085808 58.212932 
L 75.011405 58.374957 
L 75.102718 58.270516 
L 75.109481 58.285045 
L 75.143301 58.185478 
L 75.17712 58.197409 
L 75.292107 58.092845 
L 75.29887 58.102845 
L 75.393565 58.186374 
L 75.417239 58.178802 
L 75.427384 58.163912 
L 75.474732 58.280542 
L 75.501787 58.347548 
L 75.589718 58.277037 
L 75.765579 58.303197 
L 75.907621 58.119062 
L 75.911003 58.133452 
L 76.029371 58.218357 
L 76.039517 58.18037 
L 76.239051 57.978504 
L 76.245815 58.012898 
L 76.3236 57.892702 
L 76.333746 57.891764 
L 76.455496 57.72811 
L 76.46226 57.740564 
L 76.529899 57.654039 
L 76.573864 57.735921 
L 76.577246 57.740191 
L 76.617829 57.651903 
L 76.631357 57.65232 
L 76.736198 57.560971 
L 76.749725 57.591015 
L 76.756489 57.598379 
L 76.790309 57.4765 
L 76.912059 57.362403 
L 76.96617 57.366819 
L 76.939114 57.307613 
L 77.016899 57.337047 
L 77.027045 57.354301 
L 77.172469 57.179157 
L 77.297601 57.213921 
L 77.213052 57.092602 
L 77.31451 57.195941 
L 77.443024 57.047312 
L 77.328038 57.223554 
L 77.480226 57.093485 
L 77.541101 57.106628 
L 77.571538 56.995129 
L 77.57492 56.996444 
L 77.672997 57.054105 
L 77.676379 57.072816 
L 77.842094 57.025356 
L 77.845476 57.012594 
L 77.875913 57.064698 
L 77.970608 56.948601 
L 78.075448 57.009585 
L 78.085594 56.983288 
L 78.187053 56.852018 
L 78.214108 56.883245 
L 78.302039 56.864403 
L 78.315566 56.832975 
L 78.362914 56.767084 
L 78.423789 56.83276 
L 78.427171 56.856965 
L 78.521865 56.75436 
L 78.525247 56.76481 
L 78.653761 56.584306 
L 78.680817 56.616984 
L 78.812713 56.53079 
L 78.954754 56.310686 
L 78.958136 56.312121 
L 78.9649 56.325432 
L 79.164435 56.072235 
L 79.282803 54.999121 
L 79.299713 48.621223 
L 79.306477 43.918916 
L 79.397789 58.047644 
L 79.401171 58.04131 
L 79.692019 55.735774 
L 79.742748 54.232087 
L 79.756276 44.317414 
L 79.840824 58.540195 
L 79.844206 58.592839 
L 79.915227 58.033721 
L 80.202693 54.966453 
L 80.21622 49.82023 
L 80.222984 44.286717 
L 80.317679 58.864323 
L 80.321061 58.851729 
L 80.723512 55.406512 
L 80.747186 53.448742 
L 80.757332 44.218375 
L 80.852026 59.019398 
L 80.868936 58.912967 
L 81.3627 54.162526 
L 81.376228 44.144512 
L 81.460777 59.052368 
L 81.470922 59.138163 
L 81.545325 58.632216 
L 82.093201 54.809817 
L 82.113492 44.12412 
L 82.181131 56.095597 
L 82.204805 59.184089 
L 82.296117 58.610457 
L 82.532854 57.439615 
L 82.556527 57.436277 
L 82.563291 57.366526 
L 82.712097 56.79797 
L 82.722243 56.803233 
L 82.89134 55.875704 
L 82.969125 54.259839 
L 82.982652 44.084574 
L 83.060437 58.808217 
L 83.073965 59.175629 
L 83.165277 58.599148 
L 83.473035 57.323701 
L 83.60493 56.902273 
L 84.034438 55.190663 
L 84.054729 53.263039 
L 84.068257 44.125798 
L 84.156188 59.049033 
L 84.355723 57.862512 
L 84.551875 57.24552 
L 85.099751 55.228797 
L 85.123424 52.616969 
L 85.13357 44.111141 
L 85.221501 59.024592 
L 85.228265 59.013957 
L 85.299286 58.549126 
L 85.51573 57.542368 
L 85.519112 57.549706 
L 85.573223 57.412279 
L 85.579987 57.419293 
L 85.705119 57.126685 
L 85.718647 57.12813 
L 86.269904 54.926731 
L 86.283432 52.095964 
L 86.293578 44.021068 
L 86.38489 59.057234 
L 86.388272 59.033498 
L 86.723085 57.415591 
L 87.612537 56.128584 
L 87.622683 56.154753 
L 87.656502 56.203758 
L 87.700467 56.0876 
L 87.703849 56.089586 
L 87.828981 55.898298 
L 87.839127 55.899596 
L 87.998079 55.109152 
L 88.01837 53.248426 
L 88.031898 44.111194 
L 88.119829 58.827569 
L 88.292308 57.702717 
L 88.427586 57.269078 
L 88.430968 57.27604 
L 88.43435 57.283036 
L 88.474933 57.128454 
L 88.478315 57.137287 
L 88.627121 56.905115 
L 88.640649 56.922289 
L 88.867239 56.709888 
L 88.992371 56.593718 
L 89.016045 56.607709 
L 89.063392 56.517973 
L 89.07692 56.516215 
L 89.097211 56.468021 
L 89.127649 56.923391 
L 89.296746 60.462472 
L 89.631559 61.132793 
L 89.641705 61.12708 
L 89.729635 61.124677 
L 89.682288 61.177111 
L 89.753309 61.147502 
L 89.780364 61.160337 
L 89.848003 61.076616 
L 89.959608 61.029674 
L 89.966371 61.054 
L 90.071212 61.159545 
L 90.08474 61.128467 
L 90.236927 61.085732 
L 90.335004 61.118665 
L 90.280892 61.14992 
L 90.338386 61.126268 
L 90.805094 61.064 
L 90.909934 61.107667 
L 90.825386 61.045503 
L 90.923462 61.086246 
L 91.001247 61.045539 
L 90.9539 61.105972 
L 91.031685 61.104822 
L 91.038448 61.119019 
L 91.065504 61.06387 
L 91.068886 61.075705 
" clip-path="url(#p47be504400)" style="fill: none; stroke: #000000; stroke-width: 0.6; stroke-linecap: square"/>
   </g>
   <g id="line2d_4">
    <path d="M 95.127221 15.313171 
L 95.127221 8.552195 
" clip-path="url(#p47be504400)" style="fill: none; stroke: #000000; stroke-width: 1.5; stroke-linecap: square"/>
   </g>
  </g>
 </g>
 <defs>
  <clipPath id="p47be504400">
   <rect x="7.2" y="7.2" width="89.28" height="55.44"/>
  </clipPath>
 </defs>
</svg>
