<?xml version="1.0" encoding="utf-8" standalone="no"?>
<!DOCTYPE svg PUBLIC "-//W3C//DTD SVG 1.1//EN"
  "http://www.w3.org/Graphics/SVG/1.1/DTD/svg11.dtd">
<svg xmlns:xlink="http://www.w3.org/1999/xlink" width="126pt" height="69.84pt" viewBox="0 0 126 69.84" xmlns="http://www.w3.org/2000/svg" version="1.1">
 <metadata>
  <rdf:RDF xmlns:dc="http://purl.org/dc/elements/1.1/" xmlns:cc="http://creativecommons.org/ns#" xmlns:rdf="http://www.w3.org/1999/02/22-rdf-syntax-ns#">
   <cc:Work>
    <dc:type rdf:resource="http://purl.org/dc/dcmitype/StillImage"/>
    <dc:date>2022-05-18T11:58:46.987937</dc:date>
    <dc:format>image/svg+xml</dc:format>
    <dc:creator>
     <cc:Agent>
      <dc:title>Matplotlib v3.5.1, https://matplotlib.org/</dc:title>
     </cc:Agent>
    </dc:creator>
   </cc:Work>
  </rdf:RDF>
 </metadata>
 <defs>
  <style type="text/css">*{stroke-linejoin: round; stroke-linecap: butt}</style>
 </defs>
 <g id="figure_1">
  <g id="patch_1">
   <path d="M 0 69.84 
L 126 69.84 
L 126 0 
L 0 0 
z
" style="fill: #ffffff"/>
  </g>
  <g id="axes_1">
   <g id="patch_2">
    <path d="M 7.2 62.64 
L 118.8 62.64 
L 118.8 7.2 
L 7.2 7.2 
z
" style="fill: #ffffff"/>
   </g>
   <g id="matplotlib.axis_1"/>
   <g id="matplotlib.axis_2"/>
   <g id="line2d_1">
    <path d="M 10.581946 22.487603 
L 10.759498 22.324681 
L 10.806 22.256228 
L 10.767953 22.297464 
L 10.810228 22.236714 
L 10.949733 22.140851 
L 11.008917 22.23758 
L 11.068101 22.153209 
L 11.13574 22.259314 
L 11.211834 22.177351 
L 11.31752 22.037208 
L 11.351339 22.104282 
L 11.355566 22.111881 
L 11.385159 21.988798 
L 11.418978 22.001264 
L 11.541574 21.977886 
L 11.550028 21.957009 
L 11.871313 21.650108 
L 11.879768 21.66775 
L 11.900905 21.706917 
L 11.968544 21.549365 
L 12.112277 21.487796 
L 12.116504 21.51156 
L 12.129187 21.53249 
L 12.196826 21.42167 
L 12.213735 21.431581 
L 12.315194 21.307376 
L 12.454699 21.199418 
L 12.505428 21.108739 
L 12.640706 20.883968 
L 12.649161 20.914314 
L 12.661843 20.912009 
L 12.678753 20.836107 
L 12.695663 20.818888 
L 12.974673 19.638667 
L 13.008493 17.565738 
L 13.033857 10.639089 
L 13.101496 21.750016 
L 13.126861 22.171558 
L 13.202955 21.462764 
L 13.334005 18.574962 
L 13.355142 10.677841 
L 13.427009 22.459278 
L 13.443918 22.887185 
L 13.52424 21.954619 
L 13.659517 18.898236 
L 13.680655 10.446726 
L 13.748293 21.533338 
L 13.769431 23.214927 
L 13.858207 22.140988 
L 14.006167 17.332577 
L 14.018849 10.371678 
L 14.107625 23.416147 
L 14.111853 23.43882 
L 14.1499 23.084094 
L 14.344362 19.724103 
L 14.365499 16.390267 
L 14.378181 10.296316 
L 14.466957 23.574832 
L 14.471185 23.602016 
L 14.513459 23.171982 
L 14.729058 19.081993 
L 14.750195 10.177404 
L 14.817834 20.807281 
L 14.847426 23.709509 
L 14.931975 22.79098 
L 15.130664 18.745076 
L 15.151801 10.177935 
L 15.223668 22.820831 
L 15.244805 23.823675 
L 15.333581 22.938215 
L 15.553407 18.797054 
L 15.574544 10.061783 
L 15.642183 21.7446 
L 15.667548 23.909543 
L 15.756324 23.111156 
L 16.001515 19.347551 
L 16.02688 10.067055 
L 16.090291 19.630137 
L 16.128338 23.919135 
L 16.208659 23.202069 
L 16.491897 17.985749 
L 16.508807 10.042402 
L 16.589128 23.689407 
L 16.601811 23.954667 
L 16.686359 23.305534 
L 17.007644 18.033687 
L 17.024554 10.185553 
L 17.104875 23.645905 
L 17.121785 23.893734 
L 17.202106 23.271067 
L 17.557211 18.378708 
L 17.578348 10.298943 
L 17.650214 23.25421 
L 17.671351 23.843686 
L 17.7559 23.181428 
L 17.823539 22.484443 
L 18.157506 17.594385 
L 18.178643 10.746712 
L 18.250509 23.342003 
L 18.271647 23.662149 
L 18.351968 23.057675 
L 18.778939 17.887259 
L 18.800076 11.032334 
L 18.871942 23.158433 
L 18.893079 23.564639 
L 18.973401 22.955811 
L 19.4511 17.940739 
L 19.476465 11.433776 
L 19.539877 22.685438 
L 19.573696 23.424404 
L 19.64979 22.842263 
L 20.089443 20.062413 
L 20.190901 19.169409 
L 20.224721 13.840245 
L 20.237403 12.252471 
L 20.296587 22.050368 
L 20.338861 23.084912 
L 20.410728 22.534378 
L 20.693966 20.679124 
L 20.71933 20.559051 
L 20.86729 20.365478 
L 20.8842 20.386396 
L 20.892655 20.415632 
L 20.985659 20.352193 
L 20.989886 20.359929 
L 21.002568 20.341596 
L 21.078662 20.427528 
L 21.087117 20.421328 
L 21.666275 21.78862 
L 21.670503 21.780871 
L 21.725459 21.892105 
L 21.898784 22.201428 
L 22.025607 22.453659 
L 22.190477 22.594241 
L 22.236979 22.727481 
L 22.461033 23.155004 
L 22.46526 23.148833 
L 22.469487 23.14246 
L 22.520217 23.264234 
L 22.655495 23.46287 
L 22.875321 23.837408 
L 23.010599 24.060037 
L 23.019054 24.03411 
L 23.099375 24.153725 
L 23.285382 24.547286 
L 23.289609 24.531267 
L 23.293837 24.526453 
L 23.340339 24.633858 
L 23.610894 24.949251 
L 23.661624 24.991862 
L 23.71658 24.980299 
L 23.7504 24.971278 
L 23.788447 25.049356 
L 23.902587 25.116113 
L 23.91527 25.088525 
L 24.143551 25.122107 
L 24.17737 25.100381 
L 24.266146 25.188982 
L 24.308421 25.107585 
L 24.380287 25.189758 
L 24.583204 25.094174 
L 24.600114 25.0358 
L 24.80303 25.094853 
L 25.052449 24.961462 
L 25.060904 24.982629 
L 25.183499 25.078097 
L 25.187727 25.06598 
L 25.200409 25.107779 
L 25.230001 24.994671 
L 25.29764 25.051498 
L 25.483647 25.041882 
L 25.487875 25.02769 
L 25.530149 25.05631 
L 25.614698 24.934125 
L 25.661199 24.983456 
L 25.623152 24.957511 
L 25.678109 25.020685 
L 25.75843 25.061502 
L 25.779567 24.978472 
L 25.893708 24.990458 
L 25.897936 25.012024 
L 26.024759 25.052901 
L 26.028986 25.048795 
L 26.185401 24.908609 
L 26.189628 24.918257 
L 26.286859 25.011307 
L 26.307997 24.970271 
L 26.341816 24.9557 
L 26.396773 25.041315 
L 26.455957 24.972229 
L 26.494004 24.996854 
L 26.637736 24.836828 
L 26.641964 24.851105 
L 26.768787 24.85893 
L 26.781469 24.8117 
L 27.00975 24.860657 
L 27.035115 24.892825 
L 27.106981 24.806002 
L 27.111209 24.811417 
L 27.588909 24.822942 
L 27.690367 24.726828 
L 27.648093 24.859243 
L 27.719959 24.736883 
L 27.838327 24.675409 
L 27.859464 24.728005 
L 27.905966 24.762513 
L 27.931331 24.691514 
L 27.96515 24.696737 
L 29.169969 24.746905 
L 29.174196 24.735729 
L 29.208015 24.804461 
L 29.2672 24.788463 
L 29.279882 24.820309 
L 29.309474 24.736425 
L 29.372885 24.755265 
L 29.512391 24.742607 
L 29.520845 24.757666 
L 29.630759 24.783496 
L 29.651896 24.763991 
L 29.749127 24.712644 
L 29.774491 24.746174 
L 30.049275 24.735436 
L 30.112686 24.813242 
L 30.167643 24.708969 
L 30.243737 24.797796 
L 30.281783 24.732048 
L 30.395924 24.735697 
L 30.324058 24.670039 
L 30.400152 24.725344 
L 30.438198 24.772473 
L 30.522747 24.707367 
L 30.708754 24.833206 
L 30.738346 24.80396 
L 30.767938 24.826364 
L 30.865169 24.714751 
L 31.355551 24.808403 
L 31.448555 24.802967 
L 31.414735 24.756339 
L 31.461237 24.776107 
L 31.520421 24.700823 
L 31.579605 24.711842 
L 31.829024 24.780722 
L 31.850161 24.723119 
L 31.943165 24.665363 
L 31.968529 24.7152 
L 32.116489 24.778562 
L 32.217948 24.71827 
L 32.239085 24.728966 
L 32.657601 24.770325 
L 32.759059 24.830497 
L 32.771741 24.792342 
L 32.945066 24.687036 
L 32.98734 24.754077 
L 33.109936 24.79403 
L 33.253669 24.736428 
L 33.262124 24.768194 
L 33.359355 24.776229 
L 33.30017 24.719742 
L 33.372037 24.747893 
L 33.519997 24.777016 
L 33.710231 24.757167 
L 33.731369 24.77245 
L 33.77787 24.715642 
L 33.807462 24.726581 
L 33.841282 24.683078 
L 33.866646 24.767403 
L 33.921603 24.714048 
L 33.930058 24.690616 
L 33.993469 24.800957 
L 34.018834 24.777474 
L 34.027289 24.801893 
L 34.052654 24.730071 
L 34.116065 24.740693 
L 34.120292 24.724362 
L 34.209069 24.824568 
L 35.0461 24.773451 
L 35.050328 24.789434 
L 35.139104 24.70693 
L 35.240562 24.676179 
L 35.265927 24.713572 
L 35.270154 24.737242 
L 35.316656 24.660725 
L 35.371613 24.676737 
L 35.50689 24.786465 
L 35.388522 24.664491 
L 35.519573 24.776416 
L 35.528028 24.762736 
L 35.574529 24.820588 
L 35.621031 24.822755 
L 35.756309 24.654585 
L 35.777446 24.710844 
L 35.916951 24.799515 
L 35.959226 24.729276 
L 36.052229 24.705092 
L 35.993045 24.748373 
L 36.077594 24.718852 
L 36.635615 24.710896 
L 36.800485 24.711578 
L 36.804712 24.73237 
L 36.868124 24.759544 
L 36.893488 24.696463 
L 36.914626 24.724577 
L 37.041449 24.740732 
L 37.151362 24.707176 
L 37.071041 24.758367 
L 37.159817 24.709008 
L 37.28664 24.758991 
L 37.168272 24.702474 
L 37.295095 24.737592 
L 37.531831 24.79265 
L 37.56565 24.73869 
L 37.620607 24.743796 
L 37.726293 24.70406 
L 37.650199 24.761684 
L 37.734748 24.719418 
L 37.861571 24.797656 
L 37.865798 24.77872 
L 38.009531 24.71038 
L 38.013758 24.71629 
L 38.085624 24.809682 
L 38.140581 24.782767 
L 38.178628 24.838876 
L 38.254722 24.792697 
L 38.39 24.810228 
L 38.411137 24.780868 
L 38.677465 24.657975 
L 38.690147 24.704671 
L 38.757786 24.600472 
L 38.778923 24.613632 
L 38.948021 24.698093 
L 38.81697 24.566813 
L 38.973385 24.639838 
L 39.248168 24.642558 
L 39.383446 24.676581 
L 39.269306 24.599691 
L 39.391901 24.665513 
L 39.438403 24.586707 
L 39.506042 24.649403 
L 39.738551 24.633134 
L 39.818872 24.533656 
L 39.865374 24.566602 
L 40.152839 24.611083 
L 40.173976 24.65908 
L 40.25007 24.566567 
L 40.258525 24.57713 
L 40.402258 24.422654 
L 40.427622 24.476807 
L 40.774272 24.528336 
L 40.778499 24.516077 
L 40.905322 24.513867 
L 40.918004 24.540654 
L 41.053282 24.616548 
L 41.184333 24.501486 
L 41.074419 24.62499 
L 41.18856 24.508762 
L 41.391477 24.56385 
L 41.201242 24.489807 
L 41.395704 24.557266 
L 41.539437 24.494773 
L 41.552119 24.502393 
L 41.598621 24.506472 
L 41.632441 24.400306 
L 41.746581 24.313046 
L 41.763491 24.349168 
L 41.869177 24.329365 
L 41.835357 24.247727 
L 41.873404 24.327112 
L 42.198917 24.252781 
L 42.211599 24.290428 
L 42.296148 24.18949 
L 42.300375 24.189036 
L 42.820349 24.124505 
L 42.887988 24.066501 
L 42.938717 24.082708 
L 43.006356 24.172447 
L 43.217728 24.280502 
L 43.289594 24.269754 
L 43.243093 24.312053 
L 43.327641 24.286971 
L 44.194265 24.203281 
L 44.321088 24.138909 
L 44.257676 24.240422 
L 44.325315 24.142903 
L 44.363362 24.162814 
L 44.409864 24.095936 
L 44.435229 24.146559 
L 44.578961 23.994869 
L 44.583189 24.011395 
L 44.739604 24.091673 
L 44.764968 24.038286 
L 44.781878 24.068492 
L 44.917156 23.894171 
L 44.989022 23.932491 
L 45.005932 23.878609 
L 45.027069 23.884944 
L 45.111618 23.931271 
L 45.039752 23.913263 
L 45.115845 23.937312 
L 45.179257 23.928549 
L 45.162347 23.893682 
L 45.213076 23.884001 
L 45.386401 23.760609 
L 45.399083 23.769203 
L 45.441358 23.837102 
L 45.508997 23.758894 
L 45.58509 23.76927 
L 45.521679 23.735191 
L 45.610455 23.703139 
L 45.847191 23.429547 
L 45.864101 23.470055 
L 45.940195 23.362197 
L 45.952877 23.397342 
L 45.999379 23.451745 
L 45.974014 23.386206 
L 46.058563 23.386865 
L 46.185386 23.32885 
L 46.324891 23.452539 
L 46.329119 23.451438 
L 46.933641 23.102193 
L 46.950551 23.154362 
L 47.081602 23.234299 
L 46.959006 23.140856 
L 47.085829 23.216684 
L 47.233789 23.066935 
L 47.432479 23.129089 
L 47.508572 23.117384 
L 47.466298 23.166554 
L 47.525482 23.174815 
L 47.538164 23.193434 
L 47.614258 23.091975 
L 47.774901 23.137063 
L 47.783355 23.122723 
L 47.838312 23.096821 
L 47.804493 23.138001 
L 47.889041 23.156774 
L 47.982045 23.158851 
L 48.007409 23.105528 
L 48.189189 22.945933 
L 48.261055 22.97647 
L 48.227236 23.002641 
L 48.28642 22.997055 
L 48.620387 23.13424 
L 48.624615 23.121747 
L 48.713391 23.167382 
L 48.738755 23.11456 
L 48.776802 23.125191 
L 48.831759 23.07216 
L 48.899398 23.010619 
L 48.924762 23.098305 
L 48.941672 23.082849 
L 49.047358 23.100771 
L 49.064268 23.077231 
L 49.102314 23.060121 
L 49.157271 23.138982 
L 49.161499 23.150857 
L 49.220683 23.041072 
L 49.250275 23.071516 
L 49.35596 23.061045 
L 49.37287 23.009602 
L 49.503921 22.870882 
L 49.546195 22.829482 
L 49.618061 22.903662 
L 50.67492 22.780134 
L 50.679147 22.806331 
L 50.835562 22.872034 
L 50.848244 22.850548 
L 50.907428 22.963069 
L 50.924338 22.956804 
L 50.93702 22.937899 
L 51.08498 22.959443 
L 51.211803 22.81895 
L 51.258305 22.837613 
L 51.224486 22.808201 
L 51.309034 22.788827 
L 51.313262 22.767168 
L 51.376673 22.870267 
L 51.41472 22.806793 
L 51.461222 22.746632 
L 51.528861 22.832635 
L 51.638774 22.748519 
L 51.575363 22.851288 
L 51.655684 22.77849 
L 51.829009 22.678948 
L 51.854373 22.703068 
L 51.934694 22.822285 
L 51.968514 22.748459 
L 52.09111 22.659307 
L 52.20525 22.629366 
L 52.209478 22.648171 
L 52.247525 22.710747 
L 52.281344 22.606284 
L 52.315163 22.627376 
L 52.420849 22.58362 
L 52.374348 22.650437 
L 52.433532 22.600377 
L 52.788636 22.633489 
L 52.885867 22.594595 
L 52.902777 22.612877 
L 52.966188 22.726993 
L 53.016917 22.636839 
L 53.054964 22.598766 
L 53.105693 22.693167 
L 53.114148 22.691325 
L 53.207152 22.780193 
L 53.236744 22.743954 
L 53.329747 22.650693 
L 53.359339 22.670793 
L 53.49039 22.62734 
L 53.519982 22.675757 
L 53.62144 22.705337 
L 53.651032 22.687071 
L 53.676397 22.755077 
L 53.756718 22.646912 
L 53.925815 22.512014 
L 53.93427 22.540115 
L 54.056866 22.565969 
L 54.061093 22.575317 
L 54.137187 22.617427 
L 54.086458 22.546484 
L 54.166779 22.554744 
L 54.357014 22.475288 
L 54.386606 22.48752 
L 54.424652 22.434053 
L 54.454244 22.440935 
L 54.572613 22.329199 
L 54.57684 22.334844 
L 54.712118 22.430003 
L 54.745937 22.396688 
L 54.822031 22.37154 
L 54.864305 22.405384 
L 54.88967 22.363334 
L 54.986901 22.351782 
L 54.999583 22.37296 
L 55.096814 22.38577 
L 55.101042 22.401652 
L 55.160226 22.290628 
L 55.18559 22.300957 
L 55.274366 22.191647 
L 55.312413 22.241808 
L 55.642153 22.308438 
L 55.650608 22.290398 
L 55.714019 22.203511 
L 55.671745 22.299964 
L 55.773204 22.26089 
L 56.064896 21.995624 
L 56.170582 21.886856 
L 56.195947 21.902577 
L 56.225539 21.923288 
L 56.272041 21.846001 
L 56.28895 21.844575 
L 56.420001 21.746714 
L 56.428456 21.756844 
L 56.521459 21.85311 
L 56.445365 21.740544 
L 56.546824 21.758631 
L 56.627145 21.763949 
L 56.567961 21.782349 
L 56.65251 21.78884 
L 56.753968 21.79189 
L 56.711694 21.706798 
L 56.758195 21.781301 
L 56.872336 21.661401 
L 56.885018 21.679854 
L 56.893473 21.709477 
L 56.978022 21.603656 
L 57.164029 21.451587 
L 57.168256 21.462126 
L 57.24435 21.365598 
L 57.430357 21.157468 
L 57.44304 21.165951 
L 57.459949 21.155388 
L 57.493769 21.071833 
L 57.793916 20.439661 
L 57.916512 18.77517 
L 57.950331 10.480796 
L 58.005288 20.583725 
L 58.043335 22.328001 
L 58.123656 21.54181 
L 58.263161 18.772473 
L 58.284299 10.542996 
L 58.351938 21.772553 
L 58.377302 23.025061 
L 58.461851 22.009411 
L 58.605584 18.818811 
L 58.626721 10.337583 
L 58.69436 21.583985 
L 58.719724 23.351058 
L 58.8085 22.263119 
L 58.960688 18.876813 
L 58.981825 10.294782 
L 59.049464 21.45708 
L 59.074829 23.532881 
L 59.163605 22.505302 
L 59.328475 18.956841 
L 59.349612 10.170508 
L 59.417251 21.206526 
L 59.438388 23.681499 
L 59.531391 22.750993 
L 59.708944 19.744664 
L 59.730081 16.585181 
L 59.742763 10.064411 
L 59.831539 23.76752 
L 59.839994 23.822489 
L 59.894951 23.287024 
L 60.140142 18.779824 
L 60.161279 10.075673 
L 60.233145 22.762963 
L 60.254282 23.881841 
L 60.343058 23.033914 
L 60.579795 18.848706 
L 60.600932 10.006321 
L 60.668571 21.68315 
L 60.698163 23.92767 
L 60.782711 23.16341 
L 61.044812 18.980317 
L 61.065949 9.992573 
L 61.133588 21.412268 
L 61.167408 23.967852 
L 61.247729 23.31789 
L 61.547877 17.494173 
L 61.564787 10.017938 
L 61.645108 23.776939 
L 61.662018 23.994253 
L 61.738111 23.351554 
L 61.983302 20.740458 
L 62.093216 18.854601 
L 62.11858 10.305688 
L 62.177764 21.108422 
L 62.211584 23.822323 
L 62.296132 23.171869 
L 62.651237 18.865816 
L 62.676601 10.357232 
L 62.735785 21.203289 
L 62.769605 23.797576 
L 62.854154 23.185787 
L 63.268442 17.931461 
L 63.289579 10.706211 
L 63.361446 23.284613 
L 63.38681 23.685446 
L 63.462904 23.080702 
L 63.915239 19.263823 
L 63.940604 14.349645 
L 63.953286 11.167323 
L 64.02938 23.292732 
L 64.04629 23.518075 
L 64.122383 22.968906 
L 64.515535 20.181309 
L 64.616993 19.177167 
L 64.642358 15.370238 
L 64.659267 11.741049 
L 64.731134 22.984482 
L 64.756498 23.290853 
L 64.832592 22.712357 
L 65.175014 20.716512 
L 65.432888 20.186894 
L 65.483617 20.223506 
L 65.61044 20.300593 
L 65.614667 20.298839 
L 65.72458 20.60694 
L 66.003591 21.365587 
L 66.045865 21.417882 
L 66.05432 21.458881 
L 66.269919 21.788973 
L 66.282602 21.77354 
L 66.324876 21.867778 
L 66.333331 21.874202 
L 66.417879 22.097475 
L 66.772984 22.790503 
L 66.849078 22.926531 
L 67.018175 23.149116 
L 67.060449 23.241549 
L 67.250684 23.561394 
L 67.254911 23.557267 
L 67.65229 24.157087 
L 67.656517 24.154756 
L 67.664972 24.149116 
L 67.694564 24.258907 
L 67.703019 24.250688 
L 67.927073 24.534505 
L 67.9313 24.524566 
L 68.015849 24.598329 
L 68.024304 24.58775 
L 68.392091 25.035085 
L 68.413228 25.011532 
L 68.476639 25.10345 
L 68.493549 25.061851 
L 68.497776 25.08585 
L 68.523141 25.020682 
L 68.603462 25.052388 
L 68.713376 25.180984 
L 68.768332 25.125503 
L 68.819061 25.185527 
L 68.890928 25.089224 
L 68.975476 25.15727 
L 69.005068 25.113341 
L 69.148801 25.052022 
L 69.279852 25.119485 
L 69.326353 25.148741 
L 69.406674 25.104457 
L 69.508133 25.169726 
L 69.52927 25.123581 
L 69.795598 25.280352 
L 69.922421 25.171045 
L 70.205659 25.105973 
L 70.222569 25.083837 
L 70.247934 25.164431 
L 70.311345 25.134958 
L 70.404349 25.146203 
L 70.366302 25.103109 
L 70.425486 25.138185 
L 70.429713 25.135366 
L 70.463533 25.237094 
L 70.560764 25.251091 
L 70.510034 25.1949 
L 70.577673 25.243737 
L 70.590356 25.249823 
L 70.712951 25.174293 
L 70.721406 25.158146 
L 70.793272 25.236529 
L 70.81441 25.216077 
L 71.207561 25.011232 
L 71.228698 25.050184 
L 71.347066 25.098346 
L 71.2752 25.001139 
L 71.355521 25.075226 
L 71.495026 24.950614 
L 71.499254 24.972088 
L 71.503481 24.979303 
L 71.558438 24.877865 
L 71.57112 24.886154 
L 71.744445 24.7708 
L 71.799401 24.868099 
L 71.879723 24.955453 
L 71.947362 24.888225 
L 72.112232 24.795948 
L 72.2306 24.850489 
L 72.243282 24.835103 
L 72.36165 24.758696 
L 72.480018 24.690593 
L 72.374332 24.774192 
L 72.4927 24.704274 
L 72.598386 24.767082 
L 72.623751 24.721161 
L 72.632206 24.73648 
L 72.763256 24.747689 
L 72.877397 24.765402 
L 72.949263 24.733351 
L 72.98731 24.777298 
L 73.15218 24.817747 
L 73.228274 24.782144 
L 73.190227 24.847201 
L 73.270548 24.80514 
L 73.355097 24.786328 
L 73.28323 24.786053 
L 73.363552 24.759658 
L 73.490375 24.698724 
L 73.64679 24.705568 
L 73.511512 24.747944 
L 73.651017 24.722406 
L 73.731338 24.766448 
L 73.765158 24.716669 
L 74.268222 24.768861 
L 74.352771 24.777899 
L 74.276677 24.746021 
L 74.373908 24.734118 
L 74.483821 24.651268 
L 74.500731 24.674912 
L 74.509186 24.668766 
L 74.631782 24.733583 
L 74.703648 24.674464 
L 74.644464 24.755592 
L 74.762832 24.750393 
L 75.189803 24.799971 
L 75.287034 24.817091 
L 75.261669 24.754748 
L 75.303943 24.793461 
L 75.434994 24.711703 
L 75.464586 24.750285 
L 75.532225 24.650828 
L 75.536452 24.667547 
L 75.544907 24.661511 
L 75.701322 24.765431 
L 75.946513 24.675434 
L 76.035289 24.742885 
L 75.971878 24.65378 
L 76.060654 24.691682 
L 76.13252 24.752932 
L 76.136748 24.774638 
L 76.212841 24.778591 
L 76.174794 24.729814 
L 76.238206 24.741197 
L 76.305845 24.726455 
L 76.263571 24.761724 
L 76.343892 24.755466 
L 76.424213 24.766292 
L 76.390394 24.718605 
L 76.453805 24.748128 
L 76.551036 24.737627 
L 76.491852 24.771309 
L 76.567946 24.759505 
L 76.686314 24.777101 
L 76.838501 24.810487 
L 76.703224 24.761316 
L 76.842729 24.796296 
L 76.952642 24.697792 
L 76.994916 24.724088 
L 77.007599 24.708668 
L 77.113285 24.752829 
L 77.164014 24.779437 
L 77.227425 24.71173 
L 77.41766 24.750494 
L 77.434569 24.730679 
L 77.56562 24.853213 
L 77.574075 24.857112 
L 77.751627 24.66404 
L 77.853085 24.803527 
L 77.882677 24.764079 
L 77.958771 24.763935 
L 77.975681 24.831336 
L 77.996818 24.875322 
L 78.039092 24.791004 
L 78.085594 24.817955 
L 78.182825 24.741043 
L 78.203962 24.756559 
L 78.242009 24.805076 
L 78.313876 24.744353 
L 78.398424 24.661284 
L 78.406879 24.643725 
L 78.444926 24.74411 
L 78.495655 24.713952 
L 78.630933 24.723445 
L 78.50411 24.747674 
L 78.63516 24.735464 
L 78.690117 24.802471 
L 78.745074 24.758515 
L 78.749301 24.740513 
L 78.838077 24.834948 
L 78.842305 24.839619 
L 78.884579 24.72268 
L 79.057904 24.659249 
L 78.897261 24.735381 
L 79.070586 24.683748 
L 79.290413 24.741733 
L 79.298867 24.718666 
L 79.387643 24.759079 
L 79.413008 24.699869 
L 79.522921 24.777285 
L 79.539831 24.744013 
L 79.62438 24.666267 
L 79.556741 24.761001 
L 79.670881 24.724789 
L 79.725838 24.783065 
L 79.785022 24.748351 
L 79.856889 24.732473 
L 79.806159 24.763403 
L 79.899163 24.753456 
L 79.954119 24.788609 
L 80.013304 24.751131 
L 80.05135 24.812582 
L 80.182401 24.729821 
L 80.207765 24.79145 
L 80.296542 24.751317 
L 80.338816 24.811093 
L 80.38109 24.681498 
L 80.393772 24.701666 
L 80.402227 24.688173 
L 80.423365 24.757253 
L 80.495231 24.741027 
L 80.617826 24.773138 
L 80.622054 24.771508 
L 80.660101 24.694185 
L 80.706603 24.807666 
L 80.731967 24.776612 
L 80.765787 24.819487 
L 80.833426 24.720755 
L 80.926429 24.804287 
L 80.85879 24.672155 
L 80.960248 24.74979 
L 81.02366 24.727494 
L 81.053252 24.784191 
L 81.065934 24.76188 
L 81.175848 24.819248 
L 81.087071 24.747681 
L 81.201212 24.79806 
L 81.323808 24.726717 
L 81.328035 24.730413 
L 81.349172 24.781698 
L 81.46754 24.691539 
L 81.645093 24.787755 
L 81.721186 24.729051 
L 81.759233 24.771077 
L 81.809962 24.73083 
L 81.902966 24.868518 
L 82.097428 24.746376 
L 82.194659 24.785122 
L 82.211569 24.764309 
L 82.304572 24.822531 
L 82.325709 24.767582 
L 82.376439 24.815151 
L 82.43985 24.763914 
L 82.545536 24.728781 
L 82.558218 24.73906 
L 82.600492 24.695109 
L 82.680814 24.773446 
L 82.820319 24.643611 
L 82.824546 24.647358 
L 82.930232 24.816746 
L 82.964052 24.767334 
L 83.086647 24.673315 
L 83.09933 24.688366 
L 83.255745 24.657353 
L 83.112012 24.717279 
L 83.268427 24.692623 
L 83.41216 24.817853 
L 83.484026 24.776515 
L 83.454434 24.847993 
L 83.5263 24.822245 
L 83.746127 24.610475 
L 83.796856 24.677814 
L 83.898314 24.756317 
L 83.915224 24.716055 
L 84.113913 24.761199 
L 84.135051 24.697614 
L 84.16887 24.669016 
L 84.219599 24.769753 
L 84.240736 24.7268 
L 84.376014 24.776993 
L 84.388697 24.765562 
L 85.428645 24.353966 
L 85.521649 24.252582 
L 85.56815 24.310964 
L 85.711883 24.292347 
L 85.71611 24.284522 
L 85.720338 24.264998 
L 85.754157 24.31707 
L 85.817569 24.315816 
L 86.02894 24.466389 
L 86.147309 24.403629 
L 86.151536 24.407044 
L 86.19381 24.478675 
L 86.261449 24.407153 
L 87.563499 24.093822 
L 87.584636 24.145835 
L 87.618455 24.059842 
L 87.673412 24.09531 
L 88.024289 23.901383 
L 87.686094 24.129701 
L 88.032744 23.932187 
L 88.180704 23.941176 
L 88.184931 23.935422 
L 88.222978 23.933968 
L 88.25257 24.011775 
L 88.282162 23.987381 
L 88.41744 23.894379 
L 88.45126 23.961973 
L 88.510444 23.97702 
L 88.535808 23.922926 
L 88.556945 23.941102 
L 88.924732 23.701691 
L 88.945869 23.731207 
L 89.093829 24.011412 
L 89.106512 23.998571 
L 89.199515 23.858653 
L 89.246017 23.882283 
L 89.33902 23.827882 
L 89.37284 23.906284 
L 89.377067 23.917899 
L 89.453161 23.836108 
L 89.474298 23.878015 
L 89.558847 23.813998 
L 89.495435 23.885529 
L 89.596894 23.851857 
L 89.66876 23.818259 
L 89.723717 23.908906 
L 89.825175 23.908708 
L 89.842085 23.93309 
L 90.061911 23.9507 
L 90.066139 23.932156 
L 90.201417 23.732878 
L 90.205644 23.756333 
L 90.277511 23.653588 
L 90.307103 23.697472 
L 90.404333 23.658512 
L 90.412788 23.644737 
L 90.632615 23.58581 
L 90.949672 23.421147 
L 91.051131 23.388698 
L 90.958127 23.442337 
L 91.063813 23.403599 
L 91.076495 23.441308 
L 91.131452 23.339198 
L 91.156817 23.362123 
L 91.258275 23.280642 
L 91.279412 23.283931 
L 91.39778 23.134296 
L 91.452737 23.194243 
L 91.558423 23.189428 
L 91.571105 23.162113 
L 91.757112 23.08175 
L 91.89239 23.229796 
L 91.896617 23.21917 
L 91.951574 23.149323 
L 91.993848 23.254561 
L 92.002303 23.238131 
L 92.031895 23.184607 
L 92.137581 23.23072 
L 92.348953 23.240781 
L 92.361635 23.176939 
L 92.522277 23.047257 
L 92.395454 23.217336 
L 92.526505 23.052993 
L 92.594144 23.105839 
L 92.640645 23.075894 
L 92.678692 23.098299 
L 92.754786 23.073753 
L 92.868927 23.152076 
L 92.877382 23.134656 
L 93.14371 23.081271 
L 93.147937 23.067429 
L 93.219804 23.154162 
L 93.240941 23.124494 
L 93.355082 23.16162 
L 93.371991 23.144186 
L 93.549544 22.90694 
L 93.777825 22.873402 
L 93.782052 22.889012 
L 93.794735 22.923129 
L 93.875056 22.845069 
L 93.883511 22.866712 
L 94.014561 22.774448 
L 94.018789 22.790139 
L 94.11602 22.742244 
L 94.120247 22.725438 
L 94.221705 22.626887 
L 94.24707 22.637152 
L 94.386575 22.637286 
L 94.390803 22.626708 
L 94.589492 22.680805 
L 94.597947 22.703984 
L 94.669813 22.595433 
L 94.682496 22.615854 
L 94.762817 22.653872 
L 94.805091 22.611044 
L 94.809319 22.578545 
L 94.902322 22.656677 
L 94.910777 22.657122 
L 94.923459 22.631929 
L 95.147513 22.686399 
L 95.206697 22.637513 
L 95.265881 22.660417 
L 95.371567 22.680259 
L 95.392704 22.652795 
L 95.464571 22.65104 
L 95.439206 22.671369 
L 95.49839 22.662229 
L 95.595621 22.761406 
L 95.633668 22.721261 
L 95.726671 22.648638 
L 95.756263 22.662944 
L 96.115595 22.659354 
L 96.246646 22.579088 
L 96.250873 22.607863 
L 96.255101 22.615823 
L 96.310057 22.500169 
L 96.318512 22.500522 
L 96.4707 22.333109 
L 96.479155 22.336678 
L 96.61866 22.36861 
L 96.622887 22.364798 
L 96.711663 22.267929 
L 96.775075 22.354146 
L 96.846941 22.399218 
L 96.884988 22.345681 
L 96.994901 22.322511 
L 97.007584 22.27811 
L 97.472601 22.079948 
L 97.52333 22.145137 
L 97.561377 22.03242 
L 97.578287 22.066636 
L 97.726247 21.904319 
L 97.734702 21.917718 
L 97.857298 22.021784 
L 97.865752 22.008469 
L 98.00103 21.890063 
L 98.068669 21.864476 
L 98.030622 21.844454 
L 98.089806 21.829517 
L 98.263131 21.600781 
L 98.267359 21.611156 
L 98.318088 21.515012 
L 99.002932 20.138715 
L 99.074798 18.961851 
L 99.112845 10.550637 
L 99.163574 19.885007 
L 99.201621 22.136007 
L 99.281942 21.425151 
L 99.408765 18.164892 
L 99.425675 10.791441 
L 99.505996 22.712892 
L 99.514451 22.806934 
L 99.577863 22.095538 
L 99.721596 18.906144 
L 99.742733 10.536161 
L 99.810372 21.564679 
L 99.831509 23.142606 
L 99.920285 22.011212 
L 100.055563 18.049067 
L 100.072472 10.538377 
L 100.152794 23.19045 
L 100.161249 23.322226 
L 100.228887 22.494322 
L 100.393757 18.497433 
L 100.410667 10.398051 
L 100.486761 22.889856 
L 100.507898 23.481146 
L 100.588219 22.488332 
L 100.744634 19.191992 
L 100.765771 10.331666 
L 100.83341 20.395468 
L 100.858775 23.634405 
L 100.947551 22.67928 
L 101.133558 17.544816 
L 101.14624 10.210165 
L 101.235016 23.711508 
L 101.243471 23.752247 
L 101.289973 23.330949 
L 101.530937 19.208398 
L 101.556301 10.179091 
L 101.619713 20.353417 
L 101.653532 23.836965 
L 101.738081 22.97887 
L 101.940998 20.067294 
L 101.974817 17.706807 
L 101.991727 10.136346 
L 102.072048 23.655435 
L 102.08473 23.893977 
L 102.165052 23.146803 
L 102.372196 20.471128 
L 102.427153 18.810787 
L 102.44829 10.079079 
L 102.515929 21.964894 
L 102.545521 23.924649 
L 102.630069 23.179027 
L 102.917535 18.764687 
L 102.938672 10.103373 
L 103.006311 22.189921 
L 103.031675 23.938592 
L 103.120452 23.220165 
L 103.437509 19.634519 
L 103.462874 16.032405 
L 103.475556 10.388436 
L 103.560105 23.719143 
L 103.577014 23.796718 
L 103.631971 23.35603 
L 104.025122 17.959849 
L 104.046259 10.59068 
L 104.118126 23.285167 
L 104.139263 23.726002 
L 104.219584 23.089597 
L 104.60428 18.096851 
L 104.625418 10.649422 
L 104.697284 23.242726 
L 104.722649 23.686488 
L 104.80297 23.043115 
L 105.267987 18.528383 
L 105.293352 11.397322 
L 105.352536 21.828595 
L 105.390583 23.414937 
L 105.470904 22.806025 
L 105.766825 20.589494 
L 105.880965 20.13341 
L 105.999333 18.144332 
L 106.028925 12.177029 
L 106.083882 21.784053 
L 106.126156 23.118418 
L 106.20225 22.511207 
L 106.574264 20.353335 
L 106.777181 19.986371 
L 106.811 20.027228 
L 106.853275 20.002591 
L 106.891322 20.102885 
L 107.132285 20.833351 
L 107.144968 20.871408 
L 107.149195 20.924072 
L 107.360567 21.501775 
L 107.411296 21.536103 
L 107.394386 21.561025 
L 107.423978 21.58079 
L 107.597303 21.96702 
L 107.605758 21.947732 
L 108.768302 23.892807 
L 108.844396 24.028791 
L 109.148771 24.362051 
L 109.165681 24.335882 
L 109.178363 24.319441 
L 109.254457 24.409065 
L 109.550377 24.796946 
L 109.596879 24.756507 
L 109.609561 24.697779 
L 109.681427 24.826528 
L 109.698337 24.812659 
L 109.727929 24.853843 
L 109.80825 24.79014 
L 109.943528 24.847547 
L 109.867434 24.760225 
L 109.947756 24.83914 
L 109.968893 24.795459 
L 110.032304 24.878394 
L 110.053441 24.872779 
L 110.176037 24.901874 
L 110.184492 24.934687 
L 110.218311 24.87543 
L 110.277495 24.875699 
L 110.311315 24.8992 
L 110.400091 24.8507 
L 110.505777 24.974963 
L 110.45082 24.838844 
L 110.522686 24.956515 
L 110.683329 24.931195 
L 110.687556 24.940426 
L 110.793242 24.971032 
L 110.822834 24.917104 
L 110.92852 24.896223 
L 110.835516 24.937734 
L 110.936975 24.920951 
L 111.068025 24.978069 
L 111.156801 24.848155 
L 111.194848 24.895817 
L 111.296307 24.932755 
L 111.313216 24.892634 
L 111.363946 24.882951 
L 111.40622 24.963158 
L 111.482314 25.000297 
L 111.520361 24.957596 
L 111.706368 24.960356 
L 111.807826 24.980849 
L 111.782461 24.928409 
L 111.816281 24.971669 
L 111.934649 24.875467 
L 111.951559 24.89479 
L 112.03188 25.003076 
L 112.036107 24.989961 
" clip-path="url(#p5862af1828)" style="fill: none; stroke: #000000; stroke-width: 0.6; stroke-linecap: square"/>
   </g>
   <g id="line2d_2">
    <path d="M 10.581946 42.049215 
L 10.844047 41.889773 
L 10.95396 41.979446 
L 10.962415 41.97385 
L 11.021599 42.080761 
L 11.156877 42.216127 
L 11.182242 42.18169 
L 11.309065 42.19454 
L 11.372476 42.247105 
L 11.427433 42.231388 
L 11.562711 42.034351 
L 11.566938 42.043517 
L 11.588075 42.095166 
L 11.643032 42.006257 
L 11.664169 42.000618 
L 11.714898 41.975528 
L 11.672624 42.013515 
L 11.774082 42.028473 
L 11.875541 42.084485 
L 11.812129 42.003092 
L 11.89245 42.048745 
L 12.019273 41.946528 
L 12.247555 42.008763 
L 12.289829 41.934499 
L 12.349013 42.045968 
L 13.139543 42.066472 
L 13.219864 42.021672 
L 13.257911 42.056698 
L 13.34246 42.090548 
L 13.384734 42.062234 
L 13.498875 42.066802 
L 13.422781 42.014357 
L 13.511557 42.03647 
L 13.608788 41.955893 
L 13.625698 42.001542 
L 13.693337 42.066111 
L 13.756748 42.02884 
L 13.900481 41.991689 
L 13.959665 42.014641 
L 14.014622 41.964288 
L 14.111853 41.977558 
L 14.124535 41.954474 
L 14.306315 41.79736 
L 14.420455 41.878562 
L 14.327452 41.751221 
L 14.441592 41.861689 
L 14.46273 41.825919 
L 14.547278 41.879043 
L 14.585325 41.860788 
L 14.564188 41.824313 
L 14.614917 41.790655 
L 14.686784 41.729427 
L 14.72483 41.806124 
L 14.77556 41.841663 
L 14.834744 41.805762 
L 14.961567 41.869279 
L 14.995386 41.820344 
L 15.037661 41.807628 
L 15.075707 41.889842 
L 15.096845 41.864646 
L 15.291306 41.974338 
L 15.312444 41.945213 
L 15.481541 41.788016 
L 15.485768 41.800869 
L 15.494223 41.779605 
L 15.629501 41.81311 
L 15.726732 41.6907 
L 15.752097 41.753459 
L 16.415804 41.753747 
L 16.534172 41.684237 
L 16.424258 41.755857 
L 16.538399 41.686741 
L 16.656767 41.735723 
L 16.660995 41.713398 
L 16.825865 41.769597 
L 16.834319 41.744167 
L 16.935778 41.615628 
L 16.956915 41.663075 
L 17.054146 41.707615 
L 17.071056 41.650063 
L 17.214788 41.605859 
L 17.219016 41.616372 
L 17.383886 41.683475 
L 17.240153 41.588347 
L 17.392341 41.653859 
L 17.57412 41.648578 
L 17.578348 41.637958 
L 17.675579 41.566696 
L 17.696716 41.611842 
L 17.726308 41.657068 
L 17.7559 41.597029 
L 17.806629 41.608903 
L 17.937679 41.549044 
L 18.406925 41.488734 
L 18.537975 41.555351 
L 18.707072 41.41154 
L 18.846578 41.502344 
L 18.719755 41.384048 
L 18.855032 41.472727 
L 18.99031 41.388628 
L 18.994538 41.395522 
L 19.087541 41.447614 
L 19.112906 41.410506 
L 19.260866 41.330572 
L 19.150953 41.4328 
L 19.265093 41.339107 
L 19.370779 41.353337 
L 19.307368 41.27555 
L 19.375007 41.348364 
L 19.442646 41.302282 
L 19.480692 41.364354 
L 19.577923 41.399666 
L 19.544104 41.334467 
L 19.594833 41.381212 
L 19.63288 41.408182 
L 19.713201 41.36882 
L 19.823115 41.472403 
L 19.856934 41.435241 
L 19.903436 41.356277 
L 19.983757 41.391336 
L 20.102125 41.442518 
L 20.106353 41.439567 
L 20.144399 41.369469 
L 20.195129 41.514032 
L 20.516414 41.333436 
L 20.740467 41.30934 
L 20.744695 41.319457 
L 20.748922 41.335396 
L 20.786969 41.262691 
L 20.850381 41.299799 
L 20.951839 41.311387 
L 20.90111 41.353007 
L 20.956067 41.332746 
L 21.150528 41.423765 
L 21.158983 41.402455 
L 21.290034 41.375298 
L 21.294261 41.383848 
L 21.340763 41.267139 
L 21.353445 41.266677 
L 21.480268 41.173769 
L 21.49295 41.180642 
L 21.50986 41.206684 
L 21.590181 41.126628 
L 21.704322 41.006237 
L 21.725459 40.982033 
L 21.759279 41.075927 
L 21.793098 41.067778 
L 21.797326 41.092887 
L 21.881874 40.968111 
L 21.886102 40.972057 
L 22.143975 40.977173 
L 22.148203 40.954526 
L 22.211614 41.030349 
L 22.253888 40.987219 
L 22.401849 40.874253 
L 22.422986 40.849835 
L 22.524444 40.942378 
L 22.634357 40.905019 
L 22.562491 40.954189 
L 22.642812 40.910647 
L 22.651267 40.928593 
L 22.727361 40.80425 
L 22.765408 40.869031 
L 22.833047 40.827595 
L 22.837274 40.835883 
L 22.900686 40.739713 
L 22.913368 40.741157 
L 22.930278 40.705142 
L 22.997917 40.834924 
L 23.006371 40.865577 
L 23.09092 40.758307 
L 23.095148 40.764801 
L 23.353021 40.596084 
L 23.467162 40.538909 
L 23.374158 40.61912 
L 23.471389 40.556979 
L 23.505209 40.623835 
L 23.581302 40.546306 
L 24.198508 40.462143 
L 24.202735 40.480127 
L 24.206962 40.498401 
L 24.299966 40.414853 
L 24.485973 40.251158 
L 24.570522 40.268976 
L 24.600114 40.237753 
L 24.726937 40.090281 
L 24.731164 40.096467 
L 25.191954 39.852039 
L 24.764984 40.157257 
L 25.204637 39.884753 
L 25.213091 39.914656 
L 25.242683 39.855878 
L 25.310322 39.866938 
L 25.437145 39.744314 
L 25.449828 39.751307 
L 25.504784 39.688913 
L 25.551286 39.720729 
L 25.563968 39.694739 
L 25.61047 39.780113 
L 25.648517 39.76689 
L 25.77534 39.83425 
L 25.779567 39.81421 
L 25.914845 39.696559 
L 26.07126 39.570149 
L 26.38409 39.378584 
L 26.506686 39.298348 
L 26.510913 39.310233 
L 26.587007 39.30667 
L 26.616599 39.253765 
L 26.671556 39.226271 
L 26.71383 39.324128 
L 26.718058 39.31115 
L 27.098526 39.065094 
L 27.102754 39.075934 
L 27.166165 39.079547 
L 27.199985 39.026607 
L 27.204212 39.038588 
L 27.326808 38.966669 
L 27.221122 39.068386 
L 27.331035 38.981191 
L 27.37331 39.015332 
L 27.411356 38.90989 
L 27.419811 38.911475 
L 27.436721 38.955013 
L 28.015879 37.731806 
L 28.079291 36.924642 
L 28.104655 32.471806 
L 28.117338 28.485097 
L 28.197659 40.236045 
L 28.299117 39.313989 
L 28.463987 36.598412 
L 28.485124 28.062739 
L 28.544308 39.728336 
L 28.565446 40.902356 
L 28.654222 39.958051 
L 28.844456 36.688138 
L 28.865593 28.091147 
L 28.924777 39.480607 
L 28.945915 41.078577 
L 29.034691 40.175023 
L 29.224925 37.303848 
L 29.246062 33.623545 
L 29.254517 28.204124 
L 29.339066 41.146296 
L 29.347521 41.118797 
L 29.609622 37.745819 
L 29.647668 35.301989 
L 29.660351 28.094484 
L 29.740672 41.278582 
L 29.749127 41.252052 
L 29.871722 39.98254 
L 30.066184 36.874498 
L 30.087321 28.155906 
L 30.146506 38.843129 
L 30.17187 41.360101 
L 30.260646 40.577802 
L 30.51852 37.166737 
L 30.539657 31.259327 
L 30.548112 28.023323 
L 30.628433 41.414606 
L 30.63266 41.401726 
L 30.869397 39.081054 
L 31.013129 36.649934 
L 31.034266 27.951597 
L 31.093451 40.079027 
L 31.114588 41.530365 
L 31.207591 40.840597 
L 31.562696 36.066009 
L 31.579605 28.027641 
L 31.655699 41.474361 
L 31.664154 41.501937 
L 31.710656 41.184158 
L 32.137626 36.897546 
L 32.158764 29.903815 
L 32.167218 28.268908 
L 32.234857 41.339524 
L 32.24754 41.469906 
L 32.323633 40.918123 
L 32.763286 37.026509 
L 32.784424 33.149859 
L 32.797106 28.373213 
L 32.8732 41.417184 
L 32.881655 41.385078 
L 32.885882 41.394139 
L 32.915474 41.201955 
L 33.283261 38.35821 
L 33.448131 36.011674 
L 33.469268 28.607055 
L 33.532679 41.110095 
L 33.545362 41.344887 
L 33.62991 40.834481 
L 34.187931 35.470229 
L 34.209069 29.231545 
L 34.276707 41.092171 
L 34.285162 41.169886 
L 34.348574 40.783257 
L 34.593765 38.910974 
L 34.631812 38.681666 
L 34.893913 36.213564 
L 34.919277 29.040998 
L 34.974234 40.542008 
L 34.999598 41.248581 
L 35.084147 40.718893 
L 35.553392 37.924146 
L 35.743627 36.882229 
L 35.773219 33.673841 
L 35.790128 30.068634 
L 35.861995 40.828568 
L 35.874677 40.896221 
L 35.938089 40.515784 
L 36.411561 37.87007 
L 36.601796 36.25854 
L 36.631388 30.144635 
L 36.677889 39.148032 
L 36.724391 40.865888 
L 36.796257 40.360665 
L 37.413463 37.652724 
L 37.459964 37.658613 
L 37.506466 37.710039 
L 37.738975 38.244705 
L 37.743202 38.241112 
L 37.806614 38.598978 
L 37.975711 40.599718 
L 38.275859 41.153403 
L 38.280086 41.150692 
L 38.35618 41.342444 
L 38.529505 41.835089 
L 38.550642 41.821798 
L 38.55487 41.810712 
L 38.622508 41.942792 
L 38.762014 42.104496 
L 38.766241 42.097506 
L 38.808515 42.095 
L 38.842335 42.171462 
L 38.948021 42.187064 
L 38.901519 42.153561 
L 38.952248 42.180546 
L 38.990295 42.141921 
L 39.049479 42.238588 
L 39.057934 42.205899 
L 39.197439 42.256801 
L 39.286215 42.249631 
L 39.210122 42.267312 
L 39.307353 42.257896 
L 39.374991 42.277762 
L 39.345399 42.227781 
L 39.413038 42.234551 
L 39.539861 42.314275 
L 39.582136 42.216636 
L 39.599045 42.200862 
L 39.62441 42.279715 
L 39.670912 42.275548 
L 39.801962 42.312786 
L 39.810417 42.305178 
L 39.93724 42.235892 
L 39.831554 42.317607 
L 39.941467 42.253176 
L 39.975287 42.300498 
L 40.026016 42.210706 
L 40.047153 42.247235 
L 40.127475 42.20559 
L 40.165521 42.221701 
L 40.309254 42.197359 
L 40.376893 42.14635 
L 40.419167 42.180025 
L 40.482579 42.128716 
L 40.448759 42.198116 
L 40.529081 42.190912 
L 40.584037 42.142423 
L 40.647449 42.205222 
L 40.664358 42.167008 
L 40.748907 42.242272 
L 40.854593 42.253447 
L 40.799636 42.186893 
L 40.85882 42.22877 
L 40.939142 42.181065 
L 40.87573 42.241544 
L 40.985643 42.204008 
L 41.061737 42.250083 
L 41.108239 42.230548 
L 41.133604 42.245921 
L 41.247744 42.135259 
L 41.488708 42.247412 
L 41.492935 42.212771 
L 41.577484 42.123842 
L 41.628213 42.16249 
L 42.152415 42.247302 
L 42.283465 42.14799 
L 42.300375 42.179865 
L 42.32574 42.204774 
L 42.376469 42.157106 
L 42.410288 42.166501 
L 42.448335 42.212139 
L 42.515974 42.14826 
L 42.617432 42.113113 
L 42.630115 42.140134 
L 43.141634 42.183134 
L 43.158544 42.231561 
L 43.238865 42.102036 
L 43.348778 42.110578 
L 43.272685 42.043095 
L 43.357233 42.058926 
L 43.509421 42.01449 
L 43.517876 42.044797 
L 43.572832 42.126272 
L 43.640471 42.082368 
L 43.712338 42.078677 
L 43.729247 42.131295 
L 43.847615 42.228397 
L 43.771522 42.119794 
L 43.851843 42.211424 
L 43.991348 42.13869 
L 43.999803 42.168582 
L 44.046305 42.152557 
L 44.122399 42.199971 
L 44.206947 42.122853 
L 44.236539 42.178399 
L 44.519777 41.997549 
L 44.557824 42.046535 
L 44.659283 42.09127 
L 44.612781 42.020075 
L 44.671965 42.04821 
L 44.819925 42.157648 
L 44.824152 42.170644 
L 44.904474 42.073566 
L 44.912929 42.04947 
L 44.980567 42.151117 
L 44.984795 42.147499 
L 45.005932 42.201795 
L 45.077798 42.095769 
L 45.086253 42.114942 
L 45.217304 42.049354 
L 45.331444 42.17665 
L 45.229986 42.043039 
L 45.361036 42.138656 
L 45.475177 42.166391 
L 45.492087 42.120194 
L 45.576635 42.09094 
L 45.610455 42.103962 
L 45.673866 42.115862 
L 45.627365 42.072554 
L 45.720368 42.098103 
L 45.792235 41.982148 
L 45.842964 42.028082 
L 45.965559 41.996017 
L 45.978242 42.039848 
L 46.223433 42.125751 
L 46.278389 42.116362 
L 46.26148 42.149966 
L 46.324891 42.155411 
L 46.341801 42.155797 
L 46.358711 42.108761 
L 46.40944 42.084088 
L 46.85332 42.003206 
L 46.861775 41.965496 
L 46.899822 42.084862 
L 46.954779 42.058356 
L 47.085829 41.961998 
L 47.115421 41.99858 
L 47.191515 42.120537 
L 47.318338 42.197902 
L 47.229562 42.101908 
L 47.326793 42.178416 
L 47.93977 42.005407 
L 48.045456 41.959915 
L 47.986272 42.015018 
L 48.053911 41.987437 
L 48.184962 42.038715 
L 48.075048 41.947749 
L 48.193416 42.028435 
L 48.311785 42.005906 
L 48.438608 42.093071 
L 48.442835 42.082039 
L 48.523156 42.168324 
L 48.535838 42.147845 
L 48.692253 42.149907 
L 48.797939 42.113195 
L 48.806394 42.116155 
L 48.869806 42.207844 
L 48.916307 42.133964 
L 49.051585 42.039821 
L 49.098087 42.091974 
L 49.144589 41.997946 
L 49.153044 42.009929 
L 49.157271 42.000927 
L 49.212228 42.070287 
L 49.237592 42.068857 
L 49.322141 42.152053 
L 49.360188 42.111953 
L 49.601152 41.97179 
L 49.770249 42.16387 
L 49.626516 41.954524 
L 49.782931 42.128943 
L 49.871707 42.157586 
L 49.83366 42.202842 
L 49.88439 42.177856 
L 49.994303 42.194302 
L 49.930891 42.149789 
L 50.002758 42.187275 
L 50.129581 42.112079 
L 50.011213 42.194202 
L 50.133808 42.120428 
L 50.201447 42.136242 
L 50.18031 42.068122 
L 50.239494 42.106193 
L 50.256404 42.137163 
L 50.391682 42.012199 
L 50.47623 42.05705 
L 50.497367 41.990654 
L 50.666465 42.072182 
L 50.721421 42.093243 
L 50.755241 42.013559 
L 50.77215 41.992921 
L 50.801742 42.076576 
L 50.852472 42.049852 
L 50.856699 42.074389 
L 50.928565 41.979957 
L 50.958158 42.029642 
L 50.983522 42.123506 
L 51.10189 42.202575 
L 51.190666 42.111913 
L 51.228713 42.181687 
L 51.24985 42.221169 
L 51.292125 42.137494 
L 51.338626 42.165839 
L 51.41472 42.12097 
L 51.368218 42.178537 
L 51.44854 42.180756 
L 51.600727 41.985923 
L 52.133384 42.003732 
L 52.243297 41.926023 
L 52.268662 41.958885 
L 52.399712 42.135553 
L 52.408167 42.118872 
L 52.420849 42.105303 
L 52.585719 42.150919 
L 52.644903 42.096585 
L 52.69986 42.119121 
L 52.708315 42.11264 
L 52.856275 42.17665 
L 52.945051 42.083174 
L 52.97887 42.116842 
L 53.088784 42.181731 
L 53.093011 42.169479 
L 53.228289 42.022256 
L 53.232516 42.026186 
L 53.270563 41.992727 
L 53.321292 42.077049 
L 53.333975 42.067823 
L 53.388931 42.06465 
L 53.372022 42.020699 
L 53.422751 42.0087 
L 53.503072 41.921258 
L 53.532664 42.012033 
L 53.634123 42.101421 
L 53.748263 42.165819 
L 53.752491 42.154724 
L 53.955407 42.090054 
L 54.251328 42.019339 
L 54.344331 41.952982 
L 54.369696 41.970218 
L 54.458472 42.009571 
L 54.479609 41.963257 
L 54.568385 41.930036 
L 54.59375 41.964157 
L 54.644479 41.956868 
L 54.661389 42.017786 
L 54.695208 42.012053 
L 54.699436 42.023423 
L 54.754392 41.919854 
L 54.788212 41.94712 
L 54.92349 41.965129 
L 54.927717 41.974142 
L 55.096814 42.165544 
L 55.172908 42.162466 
L 55.151771 42.194302 
L 55.206728 42.180214 
L 55.278594 42.228332 
L 55.312413 42.169426 
L 55.371597 42.090171 
L 55.413872 42.188507 
L 55.422327 42.171387 
L 55.553377 42.083806 
L 55.557604 42.08887 
L 55.984575 41.901439 
L 55.99303 41.91796 
L 56.098716 41.967911 
L 56.107171 41.934663 
L 56.221311 41.90486 
L 56.225539 41.923728 
L 56.390409 42.07248 
L 56.821607 42.159229 
L 56.863881 42.224873 
L 56.927293 42.144907 
L 57.045661 42.012268 
L 57.054116 42.017749 
L 57.396538 42.095844 
L 57.400765 42.126794 
L 57.489541 41.96149 
L 57.671321 41.88751 
L 57.734732 41.786897 
L 57.793916 41.811827 
L 58.49567 41.940797 
L 58.499898 41.926299 
L 58.508353 41.916029 
L 58.580219 42.009273 
L 58.588674 41.997866 
L 58.664768 42.05326 
L 58.601356 41.981042 
L 58.702815 42.003657 
L 58.774681 42.015629 
L 58.804273 41.953714 
L 58.939551 41.826679 
L 58.960688 41.868451 
L 59.074829 41.85194 
L 58.99028 41.831335 
L 59.079056 41.83932 
L 59.231244 41.780961 
L 59.239698 41.795607 
L 59.260836 41.815026 
L 59.290428 41.745711 
L 59.336929 41.745226 
L 59.400341 41.748462 
L 59.366521 41.774808 
L 59.425706 41.789632 
L 59.463752 41.814566 
L 59.535619 41.78485 
L 59.734308 41.789989 
L 59.920315 41.844106 
L 59.7639 41.744416 
L 59.924543 41.835868 
L 59.979499 41.787877 
L 60.038683 41.822979 
L 60.080958 41.86005 
L 60.131687 41.767584 
L 60.140142 41.791068 
L 60.398015 41.663487 
L 60.402243 41.66773 
L 60.431835 41.572731 
L 60.457199 41.569013 
L 60.592477 41.556186 
L 60.685481 41.633891 
L 60.605159 41.538768 
L 60.706618 41.592723 
L 60.761574 41.557863 
L 60.803849 41.626305 
L 60.812303 41.608438 
L 60.871488 41.688951 
L 60.846123 41.578249 
L 60.922217 41.618631 
L 61.442191 41.527781 
L 61.446418 41.5502 
L 61.459101 41.579187 
L 61.547877 41.499953 
L 61.746566 41.648954 
L 61.776158 41.687218 
L 61.835342 41.554396 
L 62.638554 41.45966 
L 62.727331 41.575543 
L 62.769605 41.531424 
L 62.845699 41.512556 
L 62.790742 41.542368 
L 62.887973 41.538797 
L 62.997886 41.572607 
L 63.019023 41.521261 
L 63.086662 41.42969 
L 63.150074 41.493445 
L 63.323399 41.502602 
L 63.327626 41.478418 
L 63.344536 41.455274 
L 63.407947 41.55593 
L 63.424857 41.544144 
L 63.475586 41.623216 
L 63.530543 41.533518 
L 63.648911 41.454797 
L 63.543225 41.541251 
L 63.653138 41.462964 
L 63.763052 41.51445 
L 63.695413 41.43693 
L 63.771506 41.485545 
L 64.972097 41.433163 
L 65.090466 41.374719 
L 65.094693 41.376417 
L 65.631577 41.308809 
L 65.635804 41.26952 
L 65.690761 41.345534 
L 65.74149 41.323128 
L 65.787992 41.384027 
L 65.762627 41.306534 
L 65.855631 41.327851 
L 66.684208 40.997812 
L 66.688435 41.026985 
L 66.823713 41.005766 
L 66.865987 40.918214 
L 66.929399 41.016614 
L 66.946309 41.039257 
L 66.980128 40.950507 
L 67.039312 41.004016 
L 67.081586 40.91888 
L 67.166135 40.951012 
L 68.44282 40.410241 
L 68.455502 40.445296 
L 68.531596 40.30286 
L 68.55696 40.314273 
L 68.662646 40.17661 
L 68.979704 40.178041 
L 69.081162 40.104539 
L 69.114982 40.15445 
L 69.212213 40.220709 
L 69.123436 40.1493 
L 69.23335 40.173256 
L 69.360173 40.031213 
L 69.246032 40.179209 
L 69.3644 40.040933 
L 69.605364 39.882574 
L 69.609591 39.911335 
L 69.639183 39.942801 
L 69.681458 39.841151 
L 69.685685 39.846351 
L 69.744869 39.771927 
L 69.804053 39.822345 
L 69.837873 39.826609 
L 69.87592 39.733123 
L 69.888602 39.753784 
L 70.17184 39.509466 
L 70.176067 39.528116 
L 70.30289 39.584394 
L 70.311345 39.57037 
L 70.387439 39.516334 
L 70.33671 39.53248 
L 70.395894 39.501384 
L 70.63263 39.341742 
L 70.404349 39.514869 
L 70.636857 39.352445 
L 70.653767 39.387789 
L 70.725634 39.308424 
L 70.738316 39.319152 
L 70.848229 39.188031 
L 70.860911 39.225992 
L 70.865139 39.243297 
L 70.886276 39.174761 
L 70.953915 39.16298 
L 70.97928 39.18363 
L 71.123012 39.083966 
L 71.237153 38.937265 
L 71.368203 38.689597 
L 71.389341 38.752376 
L 71.516163 38.657755 
L 71.520391 38.658826 
L 71.528846 38.678703 
L 71.609167 38.611816 
L 71.617622 38.611344 
L 71.790947 38.363107 
L 71.807856 38.39184 
L 71.955817 38.141394 
L 72.124914 37.221874 
L 72.154506 35.620007 
L 72.175643 28.557528 
L 72.247509 40.148759 
L 72.255964 40.17784 
L 72.302466 39.845996 
L 72.513838 36.982477 
L 72.534975 29.576096 
L 72.539202 28.186798 
L 72.611069 40.749891 
L 72.619523 40.827372 
L 72.687162 40.18428 
L 72.894307 36.472489 
L 72.911216 28.198827 
L 72.978855 40.659309 
L 72.991538 41.035281 
L 73.080314 40.130616 
L 73.274776 36.645672 
L 73.295913 28.241526 
L 73.359324 40.564667 
L 73.376234 41.113778 
L 73.46501 40.210234 
L 73.672154 36.156758 
L 73.689064 28.170238 
L 73.765158 41.214984 
L 73.786295 41.105032 
L 73.930028 39.46494 
L 74.086443 36.367132 
L 74.103352 28.127145 
L 74.175219 41.187858 
L 74.183674 41.29383 
L 74.259767 40.654791 
L 74.526096 36.587504 
L 74.547233 28.120108 
L 74.606417 40.15056 
L 74.627554 41.375471 
L 74.71633 40.643611 
L 74.851608 39.134553 
L 75.008023 35.541419 
L 75.020705 28.173688 
L 75.105254 41.443286 
L 75.232077 40.378871 
L 75.367355 38.92333 
L 75.52377 35.369787 
L 75.54068 28.176901 
L 75.621001 41.455766 
L 75.67173 41.128497 
L 75.976105 38.289828 
L 76.077564 36.005871 
L 76.094473 28.092219 
L 76.170567 41.478141 
L 76.174794 41.507428 
L 76.229751 41.160377 
L 76.673632 37.08292 
L 76.694769 33.425942 
L 76.707451 28.260002 
L 76.787772 41.458518 
L 76.792 41.428584 
L 76.851184 41.040559 
L 77.345793 36.398055 
L 77.371158 28.623043 
L 77.426115 40.541321 
L 77.451479 41.353784 
L 77.536028 40.772687 
L 78.034865 35.605059 
L 78.056002 28.811134 
L 78.127868 41.301351 
L 78.136323 41.330813 
L 78.187053 40.985468 
L 78.774666 36.405996 
L 78.80003 29.169457 
L 78.850759 39.679965 
L 78.876124 41.202507 
L 78.9649 40.664761 
L 79.548286 36.125041 
L 79.573651 29.269137 
L 79.628607 40.494659 
L 79.653972 41.179143 
L 79.73852 40.647985 
L 80.300769 37.665852 
L 80.436047 37.13946 
L 80.486776 35.889849 
L 80.516368 30.819618 
L 80.567097 39.708458 
L 80.613599 40.591534 
L 80.681238 40.090488 
L 80.803833 39.238981 
L 81.099754 37.673608 
L 81.17162 37.426656 
L 81.226577 36.577608 
L 81.260396 29.802501 
L 81.302671 38.397069 
L 81.349172 41.076509 
L 81.421039 40.555818 
L 81.970605 38.163746 
L 81.97906 38.313574 
L 82.152385 40.305656 
L 82.27498 40.552637 
L 82.406031 40.71385 
L 82.414485 40.689017 
L 82.465215 40.821775 
L 82.473669 40.821751 
L 82.693496 41.501732 
L 82.701951 41.480692 
L 82.778045 41.586853 
L 82.786499 41.584409 
L 82.955597 41.907066 
L 82.959824 41.893929 
L 83.0486 41.879607 
L 83.069737 41.901952 
L 83.306474 42.200646 
L 83.327611 42.17057 
L 83.331838 42.14551 
L 83.41216 42.268094 
L 83.424842 42.258534 
L 83.492481 42.229757 
L 83.538983 42.271082 
L 83.602394 42.313492 
L 83.572802 42.251955 
L 83.648896 42.257488 
L 83.670033 42.297208 
L 83.830675 42.188973 
L 83.974408 42.274711 
L 84.058957 42.206301 
L 83.98709 42.287211 
L 84.097004 42.23212 
L 84.130823 42.21242 
L 84.211144 42.25952 
L 84.215372 42.245633 
L 84.291466 42.305651 
L 84.312603 42.298924 
L 84.371787 42.231209 
L 84.426743 42.293014 
L 84.587386 42.246818 
L 84.693072 42.218024 
L 84.705754 42.195284 
L 84.819895 42.136254 
L 84.718436 42.203867 
L 84.845259 42.179281 
L 84.938263 42.236534 
L 84.870624 42.119602 
L 84.963627 42.171225 
L 85.081996 42.140288 
L 84.993219 42.200754 
L 85.10736 42.176342 
L 85.191909 42.24425 
L 85.221501 42.186114 
L 85.234183 42.152648 
L 85.268003 42.24176 
L 85.327187 42.201197 
L 85.344096 42.172464 
L 85.462464 42.184478 
L 85.576605 42.101508 
L 85.58506 42.122739 
L 85.682291 42.151236 
L 85.694973 42.111183 
L 86.033168 42.1761 
L 86.037395 42.163243 
L 86.04585 42.172562 
L 86.185356 42.065268 
L 86.278359 42.149618 
L 86.307951 42.106736 
L 86.709557 42.068163 
L 86.713785 42.091821 
L 86.768741 41.991141 
L 86.840608 42.132905 
L 87.288715 42.076877 
L 87.364809 42.165045 
L 87.407084 42.121021 
L 87.423993 42.150854 
L 87.571953 42.129387 
L 87.584636 42.18648 
L 87.635365 42.085058 
L 87.681867 42.130529 
L 87.838282 42.016723 
L 87.846737 42.044824 
L 88.049653 42.195841 
L 88.053881 42.18632 
L 88.231433 42.194124 
L 88.282162 42.242893 
L 88.303299 42.15673 
L 88.341346 42.191107 
L 88.463942 42.127955 
L 88.358256 42.198082 
L 88.468169 42.138954 
L 88.654176 41.980763 
L 88.71336 41.933393 
L 88.751407 42.02513 
L 88.789454 41.952414 
L 88.857093 41.991226 
L 88.933187 41.905421 
L 88.886685 41.998177 
L 88.979689 41.92526 
L 89.381295 42.175987 
L 90.239464 42.073202 
L 90.332467 42.103839 
L 90.285965 42.036881 
L 90.353604 42.086048 
L 90.362059 42.113755 
L 90.395879 42.057472 
L 90.463518 42.094439 
L 90.552294 42.099319 
L 90.510019 42.135746 
L 90.569203 42.13287 
L 90.683344 42.202714 
L 90.691799 42.183413 
L 90.865124 42.031734 
L 90.869351 42.038538 
L 90.987719 42.07096 
L 90.92008 41.995512 
L 91.000402 42.056709 
L 91.114542 41.978147 
L 91.042676 42.099369 
L 91.131452 41.983185 
L 91.182181 42.052747 
L 91.139907 41.961289 
L 91.23291 41.942852 
L 91.355506 41.904006 
L 91.245593 41.970235 
L 91.359733 41.912084 
L 91.478101 42.021497 
L 91.592242 42.175073 
L 91.609152 42.134655 
L 91.757112 42.026036 
L 91.638744 42.180134 
L 91.778249 42.065685 
L 91.854343 42.076548 
L 91.820524 42.034822 
L 91.888162 42.052445 
L 91.943119 42.065002 
L 91.989621 42.021607 
L 92.02344 41.977436 
L 92.082624 42.047694 
L 92.099534 42.02295 
L 92.243267 42.062173 
L 92.374317 41.947087 
L 92.382772 41.966374 
L 92.403909 41.93328 
L 92.539187 41.940824 
L 92.568779 41.899366 
L 92.627963 42.009265 
L 92.771696 42.11877 
L 92.640645 41.99883 
L 92.79706 42.092104 
L 92.818198 42.07879 
L 92.873154 42.144105 
L 92.894291 42.137216 
L 92.999977 42.189891 
L 93.01266 42.152619 
L 93.025342 42.176414 
L 93.156392 42.115347 
L 93.253623 42.125587 
L 93.169075 42.106454 
L 93.27476 42.102505 
L 93.617182 42.075924 
L 93.62141 42.092189 
L 93.710186 42.045849 
L 93.75246 42.119298 
L 93.879283 41.996064 
L 93.883511 42.00002 
L 94.001879 42.121535 
L 94.006106 42.153071 
L 94.086428 42.072513 
L 94.111792 42.110659 
L 94.217478 42.080264 
L 94.170976 42.165035 
L 94.23016 42.102605 
L 94.272435 42.090451 
L 94.242843 42.081708 
L 94.306254 42.028478 
L 94.479579 41.964632 
L 94.318936 42.069963 
L 94.483806 41.968969 
L 94.564127 42.071425 
L 94.492261 41.96561 
L 94.614857 42.057009 
L 94.619084 42.046894 
L 94.695178 42.15083 
L 94.699405 42.128025 
L 94.800864 42.128092 
L 94.758589 42.053166 
L 94.813546 42.120658 
L 94.940369 42.026403 
L 94.953051 42.031362 
L 95.088329 42.018393 
L 94.961506 42.011745 
L 95.092557 42.012344 
L 95.151741 41.975028 
L 95.109466 42.03922 
L 95.177105 42.070665 
L 95.244744 42.180238 
L 95.299701 42.121054 
L 95.418069 42.11293 
L 95.519527 42.062321 
L 95.460343 42.140631 
L 95.540664 42.074124 
L 95.66326 42.173242 
L 95.574484 42.054393 
L 95.667487 42.164455 
L 95.688625 42.106233 
L 95.768946 42.212951 
L 95.773173 42.202949 
L 95.925361 42.141377 
L 96.043729 42.198395 
L 95.950725 42.107948 
L 96.056411 42.184287 
L 96.479155 41.925694 
L 96.496064 41.970494 
L 96.665162 42.159248 
L 96.923035 42.083663 
L 96.939945 42.135547 
L 97.011811 42.024997 
L 97.024493 42.038387 
L 97.092132 42.000146 
L 97.168226 42.093304 
L 97.2105 42.055747 
L 97.290822 42.08381 
L 97.316186 42.107001 
L 97.426099 41.942882 
L 97.476829 42.061094 
L 97.544468 41.960574 
L 97.713565 41.996757 
L 97.73893 42.023874 
L 97.776976 41.90924 
L 97.793886 41.904265 
L 98.280041 42.206495 
L 98.305406 42.211315 
L 98.406864 42.096832 
L 98.563279 42.021697 
L 98.571734 42.043462 
L 99.425675 41.992152 
L 99.552498 42.067561 
L 99.594773 41.974899 
L 99.700458 41.949422 
L 99.713141 41.957622 
L 99.949877 41.894056 
L 99.954104 41.899463 
L 99.966787 41.937914 
L 100.034426 41.823283 
L 100.051335 41.854053 
L 100.0767 41.904149 
L 100.157021 41.863 
L 100.237342 41.97992 
L 100.283844 41.921249 
L 100.381075 41.890605 
L 100.410667 41.937014 
L 100.414895 41.950796 
L 100.482533 41.806928 
L 100.575537 41.771694 
L 100.524808 41.817382 
L 100.592447 41.816667 
L 100.626266 41.879065 
L 100.715042 41.790994 
L 100.829183 41.744933 
L 100.757317 41.816828 
L 100.83341 41.769486 
L 100.943324 41.822709 
L 100.854548 41.750716 
L 100.956006 41.807521 
L 101.277291 41.783564 
L 101.281518 41.811221 
L 101.45907 42.008672 
L 101.47598 41.979376 
L 101.704262 41.808348 
L 101.716944 41.829834 
L 101.7719 41.85085 
L 101.738081 41.811083 
L 101.826857 41.821415 
L 101.957907 41.76968 
L 102.558203 41.685047 
L 102.56243 41.700999 
L 102.583568 41.681767 
L 102.723073 41.835974 
L 102.803394 41.760264 
L 102.837214 41.82089 
L 103.031675 41.733579 
L 103.069722 41.72071 
L 103.158498 41.77737 
L 103.302231 41.725826 
L 103.306459 41.741954 
L 103.382552 41.615643 
L 103.475556 41.572542 
L 103.420599 41.665169 
L 103.50092 41.590099 
L 103.522058 41.563882 
L 103.581242 41.681019 
L 103.589697 41.677672 
L 103.720747 41.76846 
L 103.729202 41.747811 
L 103.767249 41.777669 
L 103.877162 41.675034 
L 103.898299 41.699751 
L 103.915209 41.655803 
L 103.970166 41.634148 
L 104.084306 41.464082 
L 104.105443 41.537022 
L 104.430956 41.542567 
L 104.515504 41.605998 
L 104.553551 41.591618 
L 104.688829 41.438041 
L 104.714194 41.379148 
L 104.976295 41.480137 
L 105.09889 41.45343 
L 104.988977 41.515389 
L 105.111572 41.46127 
L 105.158074 41.489633 
L 105.191894 41.383789 
L 105.204576 41.386402 
L 105.301807 41.340337 
L 105.255305 41.422266 
L 105.318717 41.385026 
L 105.42863 41.41109 
L 105.365218 41.370076 
L 105.432857 41.39074 
L 105.55968 41.467852 
L 105.568135 41.447525 
L 105.699186 41.558782 
L 105.70764 41.60092 
L 105.796417 41.485039 
L 105.800644 41.493896 
L 105.965514 41.425778 
L 105.969741 41.432131 
L 106.062745 41.497138 
L 106.096564 41.484869 
L 106.164203 41.407202 
L 106.227615 41.472559 
L 106.341755 41.463623 
L 106.257207 41.437386 
L 106.345983 41.456888 
L 106.447441 41.425536 
L 106.472806 41.452666 
L 106.477033 41.476783 
L 106.536217 41.39905 
L 106.578492 41.425266 
L 106.925141 41.293681 
L 106.929369 41.317497 
L 106.937823 41.350772 
L 107.022372 41.234894 
L 107.026599 41.236687 
L 107.30561 41.146271 
L 107.411296 41.025587 
L 107.43666 41.082859 
L 107.550801 41.112973 
L 107.593075 41.168584 
L 107.669169 41.13856 
L 107.977772 40.85256 
L 107.981999 40.855334 
L 108.159551 40.886746 
L 108.168006 40.868424 
L 108.210281 40.806478 
L 108.286374 40.863619 
L 108.468154 40.765284 
L 108.675298 40.671734 
L 108.789439 40.731178 
L 108.797894 40.714724 
L 108.916262 40.680959 
L 108.996583 40.736314 
L 109.026175 40.665655 
L 109.161453 40.483607 
L 109.1995 40.510134 
L 109.275594 40.430107 
L 109.33055 40.374716 
L 109.385507 40.418986 
L 109.457373 40.502022 
L 109.499648 40.446288 
L 109.554604 40.370185 
L 109.605334 40.479628 
L 109.69411 40.489367 
L 109.64338 40.431641 
L 109.706792 40.437147 
L 109.84207 40.369797 
L 109.854752 40.403478 
L 109.981575 40.495601 
L 109.985802 40.494416 
L 110.142218 40.327102 
L 110.201402 40.361705 
L 110.180264 40.289859 
L 110.235221 40.286434 
L 110.323997 40.256748 
L 110.345134 40.291232 
L 110.412773 40.264354 
L 110.46773 40.305984 
L 110.488867 40.324553 
L 110.607235 40.218868 
L 110.611463 40.224254 
L 110.670647 40.144586 
L 110.687556 40.157563 
L 110.772105 40.081627 
L 110.805924 40.122945 
L 110.810152 40.140407 
L 110.869336 40.073164 
L 110.907383 40.100408 
L 110.91161 40.075597 
L 111.008841 40.140009 
L 111.021524 40.146778 
L 111.080708 40.043843 
L 111.097617 40.089791 
L 111.144119 40.017852 
L 111.211758 40.054274 
L 111.270942 40.061494 
L 111.24135 40.017992 
L 111.304762 40.0015 
L 111.418902 39.8853 
L 111.435812 39.892203 
L 111.507678 39.89561 
L 111.541498 39.838933 
L 112.027653 39.589249 
L 111.549953 39.866711 
L 112.036107 39.624109 
" clip-path="url(#p5862af1828)" style="fill: none; stroke: #000000; stroke-width: 0.6; stroke-linecap: square"/>
   </g>
   <g id="line2d_3">
    <path d="M 10.581946 56.515829 
L 10.586174 56.527273 
L 10.662268 56.429119 
L 10.941278 55.240053 
L 10.958188 49.963904 
L 10.966643 43.806794 
L 11.063874 56.076083 
L 11.093466 59.501408 
L 11.178014 58.954477 
L 11.647259 56.794345 
L 11.659942 56.821051 
L 11.77831 56.723633 
L 11.913588 56.59922 
L 11.955862 56.575166 
L 11.930497 56.567791 
L 11.976999 56.519438 
L 12.289829 55.046604 
L 12.302511 49.598918 
L 12.310966 43.80791 
L 12.408197 56.198387 
L 12.437789 59.484247 
L 12.522338 58.943473 
L 12.987356 56.952806 
L 13.008493 56.988488 
L 13.01272 56.984925 
L 13.021175 57.054471 
L 13.198727 58.184467 
L 13.202955 58.178932 
L 13.245229 58.305926 
L 13.312868 58.508746 
L 14.069578 60.143434 
L 14.073806 60.13646 
L 14.086488 60.121355 
L 14.111853 60.184797 
L 14.154127 60.202853 
L 14.365499 60.429391 
L 14.390863 60.401129 
L 14.530369 60.368509 
L 14.399318 60.409214 
L 14.538823 60.398819 
L 14.644509 60.387903 
L 14.657192 60.360151 
L 14.771332 60.302586 
L 14.792469 60.341836 
L 14.898155 60.354778 
L 14.838971 60.307953 
L 14.90661 60.322035 
L 15.020751 60.401458 
L 15.067253 60.370874 
L 15.418129 60.383362 
L 15.506906 60.440139 
L 15.528043 60.390036 
L 16.910413 60.346166 
L 17.016099 60.314387 
L 16.978052 60.386747 
L 17.024554 60.318465 
L 17.227471 60.363539 
L 17.24438 60.325573 
L 17.257063 60.345594 
L 17.392341 60.352874 
L 17.544528 60.470968 
L 17.413478 60.306497 
L 17.557211 60.463608 
L 17.629077 60.41825 
L 17.641759 60.377145 
L 17.768582 60.345921 
L 17.785492 60.367152 
L 17.882723 60.399217 
L 17.802402 60.35634 
L 17.895405 60.362021 
L 18.19978 60.409583 
L 18.246282 60.382843 
L 18.322376 60.430513 
L 18.525293 60.259822 
L 18.537975 60.275079 
L 18.918444 60.453844 
L 18.943808 60.409811 
L 19.062177 60.309735 
L 18.977628 60.420758 
L 19.074859 60.335558 
L 19.197454 60.363104 
L 19.201682 60.348373 
L 19.328505 60.303911 
L 19.332732 60.292819 
L 19.379234 60.258506 
L 19.429963 60.321711 
L 19.442646 60.299318 
L 19.527194 60.371334 
L 19.531422 60.381336 
L 19.573696 60.42729 
L 19.63288 60.345391 
L 19.637107 60.353406 
L 19.844252 60.402263 
L 19.852707 60.37034 
L 20.09367 60.231472 
L 19.886526 60.405985 
L 20.102125 60.254974 
L 20.157082 60.298641 
L 20.11058 60.249638 
L 20.216266 60.253762 
L 20.465684 60.336407 
L 20.469912 60.320529 
L 20.499504 60.30066 
L 20.567143 60.379179 
L 20.609417 60.420843 
L 20.681283 60.365437 
L 20.778514 60.403619 
L 20.795424 60.381554 
L 21.273124 60.246966 
L 21.277351 60.28295 
L 21.302716 60.266479 
L 21.39572 60.292295 
L 21.50986 60.248393 
L 21.522543 60.271279 
L 21.678958 60.180092 
L 21.725459 60.152732 
L 21.700095 60.187805 
L 21.793098 60.165581 
L 21.873419 60.248539 
L 21.907239 60.192941 
L 21.928376 60.221666 
L 21.974878 60.110949 
L 22.118611 59.97109 
L 22.143975 59.988411 
L 22.325755 59.982013 
L 22.384939 59.987517 
L 22.363802 60.049851 
L 22.410303 60.049063 
L 22.520217 60.04973 
L 22.46526 59.968804 
L 22.524444 60.038866 
L 22.532899 60.015951 
L 22.562491 60.08981 
L 22.608993 60.094979 
L 22.680859 60.09857 
L 22.701996 60.033619 
L 22.706224 60.039005 
L 22.710451 60.046684 
L 22.735816 59.965778 
L 22.77809 59.94597 
L 24.68889 59.391967 
L 24.798803 59.279092 
L 24.811485 59.283935 
L 24.874897 59.373737 
L 24.929853 59.33 
L 24.972128 59.319034 
L 24.942536 59.301968 
L 25.014402 59.268101 
L 25.098951 59.229841 
L 25.124315 59.264501 
L 25.263821 59.152273 
L 25.276503 59.112805 
L 25.356824 59.237997 
L 25.361052 59.21899 
L 25.42869 59.152887 
L 25.432918 59.136303 
L 25.547059 59.095885 
L 25.496329 59.150838 
L 25.551286 59.102194 
L 25.555513 59.115616 
L 25.59356 59.02509 
L 25.656972 59.071599 
L 25.766885 58.91374 
L 25.783795 58.938795 
L 25.935982 58.839934 
L 25.95712 58.852513 
L 26.083943 58.885644 
L 26.012076 58.803327 
L 26.08817 58.881377 
L 26.092397 58.861378 
L 26.160036 58.938336 
L 26.198083 58.895743 
L 26.502458 58.921253 
L 26.506686 58.907209 
L 26.612372 58.878857 
L 26.519368 58.925252 
L 26.616599 58.902119 
L 26.680011 58.941602 
L 26.73074 58.919604 
L 26.874473 58.860211 
L 26.946339 58.772534 
L 26.997068 58.795378 
L 27.19153 58.762668 
L 27.199985 58.800445 
L 27.204212 58.812919 
L 27.276079 58.720154 
L 27.292988 58.734979 
L 27.314126 58.770323 
L 27.495905 58.694849 
L 27.50436 58.729495 
L 27.567772 58.640926 
L 27.601591 58.655448 
L 27.694594 58.715644 
L 27.715732 58.658485 
L 27.867919 58.451361 
L 28.070836 58.469909 
L 28.176522 58.433856 
L 28.201886 58.460229 
L 28.210341 58.504528 
L 28.3118 58.476212 
L 28.320255 58.459745 
L 28.383666 58.530398 
L 28.404803 58.522375 
L 28.409031 58.534784 
L 28.44285 58.423609 
L 28.506262 58.486147 
L 28.742998 58.240209 
L 28.75568 58.262579 
L 28.810637 58.297916 
L 28.857139 58.199486 
L 28.878276 58.149228 
L 28.907868 58.220206 
L 28.967052 58.204681 
L 28.983962 58.170197 
L 29.136149 58.218145 
L 29.224925 58.179026 
L 29.174196 58.247009 
L 29.25029 58.218559 
L 29.271427 58.267817 
L 29.347521 58.160046 
L 29.351748 58.177776 
L 29.453207 58.078402 
L 29.461661 58.083644 
L 29.575802 58.051641 
L 29.584257 58.033836 
L 29.732217 58.021818 
L 29.812538 57.890217 
L 29.863268 57.951517 
L 29.871722 57.934691 
L 29.985863 57.962808 
L 30.100004 57.966371 
L 30.015455 57.922745 
L 30.104231 57.959311 
L 30.209917 57.875535 
L 30.235282 57.88402 
L 30.366332 57.858638 
L 30.370559 57.841105 
L 30.417061 57.911156 
L 30.472018 57.872911 
L 30.556567 57.91594 
L 30.497382 57.86785 
L 30.586159 57.886393 
L 30.772166 57.761673 
L 30.776393 57.768844 
L 30.886306 57.764847 
L 30.898989 57.752398 
L 30.932808 57.658171 
L 31.013129 57.711354 
L 31.021584 57.720481 
L 31.063858 57.624878 
L 31.068086 57.601901 
L 31.123043 57.686745 
L 31.169544 57.64994 
L 31.266775 57.651574 
L 31.279458 57.692544 
L 31.372461 57.825327 
L 31.313277 57.65556 
L 31.414735 57.803906 
L 31.558468 57.705021 
L 31.681064 57.585705 
L 31.685291 57.60513 
L 31.833251 57.588069 
L 31.837479 57.597786 
L 31.858616 57.593882 
L 31.88398 57.529768 
L 31.909345 57.518354 
L 31.972757 57.457989 
L 32.019258 57.502201 
L 32.031941 57.572981 
L 32.133399 57.534866 
L 32.239085 57.576867 
L 32.260222 57.538003 
L 32.357453 57.514326 
L 32.37859 57.544467 
L 32.623781 57.69854 
L 32.729467 57.750924 
L 32.636464 57.693468 
L 32.737922 57.710211 
L 32.85629 57.644219 
L 32.775969 57.723908 
L 32.864745 57.648854 
L 32.961976 57.77257 
L 32.991568 57.75928 
L 33.088799 57.682114 
L 33.114163 57.722129 
L 33.596091 57.462589 
L 33.600318 57.481147 
L 33.604546 57.504441 
L 33.64682 57.457238 
L 33.706004 57.473031 
L 33.790553 57.464096 
L 33.803235 57.529283 
L 33.8286 57.534621 
L 33.870874 57.438247 
L 33.892011 57.473651 
L 33.972332 57.501562 
L 34.006152 57.443366 
L 34.069563 57.504734 
L 34.116065 57.443421 
L 34.128747 57.413692 
L 34.200614 57.512611 
L 34.217523 57.489872 
L 34.335892 57.360389 
L 34.378166 57.41332 
L 34.462714 57.438429 
L 34.492307 57.414636 
L 34.652949 57.325049 
L 34.657176 57.341017 
L 34.678314 57.431933 
L 34.771317 57.380715 
L 34.89814 57.289877 
L 34.902368 57.295899 
L 35.016508 57.353062 
L 34.927732 57.285044 
L 35.033418 57.338597 
L 35.134876 57.325192 
L 35.092602 57.375842 
L 35.147559 57.332841 
L 35.181378 57.340099 
L 35.22788 57.278259 
L 35.299746 57.179388 
L 35.346248 57.232053 
L 35.473071 57.167619 
L 35.418114 57.264892 
L 35.477298 57.174555 
L 35.519573 57.129595 
L 35.50689 57.114707 
L 35.528028 57.096435 
L 35.578757 57.035943 
L 35.629486 57.125623 
L 35.633713 57.121486 
L 35.663305 57.15792 
L 35.709807 57.08571 
L 35.747854 57.114615 
L 35.916951 57.004859 
L 35.760536 57.125581 
L 35.925406 57.024879 
L 36.009955 57.036322 
L 35.980363 56.975311 
L 36.03532 57.022013 
L 36.217099 56.958854 
L 36.221327 56.988355 
L 36.381969 57.122387 
L 36.259373 56.966704 
L 36.390424 57.099384 
L 36.49611 57.08959 
L 36.504565 57.122873 
L 36.584886 57.159849 
L 36.551066 57.095467 
L 36.618705 57.130413 
L 36.728619 57.050393 
L 36.741301 57.063833 
L 36.745528 57.077078 
L 36.817395 56.943196 
L 36.876579 56.928984 
L 36.834304 56.909835 
L 36.906171 56.879399 
L 36.9569 56.78853 
L 37.041449 56.853903 
L 37.058358 56.869911 
L 37.202091 56.792811 
L 37.23591 56.806842 
L 37.295095 56.721678 
L 37.443055 56.597616 
L 37.544513 56.451782 
L 37.785477 55.032439 
L 37.806614 43.75945 
L 37.903845 53.195376 
L 37.933437 58.672607 
L 38.02644 57.99349 
L 38.301224 55.87465 
L 38.33927 54.62819 
L 38.351953 43.99949 
L 38.453411 52.855268 
L 38.491458 59.289046 
L 38.584462 58.629414 
L 39.007205 54.415613 
L 39.019887 43.956125 
L 39.117118 52.620457 
L 39.150938 59.43769 
L 39.260851 58.738484 
L 39.742778 55.490452 
L 39.759688 54.257299 
L 39.77237 43.917308 
L 39.869601 53.002069 
L 39.907648 59.531998 
L 39.996424 58.965247 
L 40.600947 55.203207 
L 40.613629 52.692721 
L 40.622084 43.879027 
L 40.719315 53.278297 
L 40.757362 59.566877 
L 40.841911 59.038024 
L 41.522527 55.484665 
L 41.543665 53.171743 
L 41.552119 43.856856 
L 41.64935 53.358933 
L 41.687397 59.602106 
L 41.771946 59.079734 
L 41.928361 58.087182 
L 42.156642 57.050822 
L 42.554021 55.269971 
L 42.570931 49.873355 
L 42.579386 43.853424 
L 42.676617 55.317983 
L 42.710436 59.593412 
L 42.790757 59.101316 
L 43.24732 56.91245 
L 43.251547 56.916829 
L 43.289594 56.815313 
L 43.298049 56.823653 
L 43.623561 55.248776 
L 43.636244 53.579859 
L 43.648926 43.854821 
L 43.74193 53.664001 
L 43.775749 59.59721 
L 43.860298 59.102857 
L 44.376045 56.862403 
L 44.384499 56.863408 
L 44.422546 56.754735 
L 44.473276 56.640753 
L 44.621236 56.285391 
L 44.748059 55.854855 
L 44.790333 54.928235 
L 44.807243 43.818777 
L 44.904474 54.462358 
L 44.938293 59.574684 
L 45.018614 59.088503 
L 45.415993 57.051526 
L 45.42022 57.05241 
L 45.479405 56.906274 
L 45.695004 56.510489 
L 45.771097 56.303102 
L 45.855646 56.035324 
L 45.935967 54.63552 
L 45.952877 43.834969 
L 46.045881 53.685203 
L 46.0797 59.585966 
L 46.164249 59.085887 
L 46.515126 57.245236 
L 46.671541 56.805092 
L 46.718042 56.827444 
L 46.734952 56.84188 
L 46.785681 56.695465 
L 47.090056 55.728964 
L 47.123876 54.390627 
L 47.136558 43.806963 
L 47.233789 54.284654 
L 47.267609 59.57792 
L 47.352157 59.073242 
L 47.690352 57.303535 
L 47.893269 56.798033 
L 47.905951 56.801118 
L 47.948225 56.72405 
L 47.969362 56.717204 
L 48.172279 56.261075 
L 48.316012 55.638043 
L 48.345604 54.458615 
L 48.358286 43.81656 
L 48.455517 54.7304 
L 48.489337 59.539577 
L 48.569658 59.047307 
L 49.005084 56.993727 
L 49.034676 57.00687 
L 49.24182 56.71807 
L 49.246047 56.721569 
L 49.275639 56.611407 
L 49.457419 56.158557 
L 49.465874 56.161005 
L 49.525058 56.010808 
L 49.596924 55.449096 
L 49.618061 52.944532 
L 49.626516 43.808306 
L 49.723747 54.933304 
L 49.753339 59.516307 
L 49.837888 59.005921 
L 50.260631 57.000218 
L 50.264859 57.006694 
L 50.628418 56.447193 
L 50.767923 56.167903 
L 50.77215 56.173374 
L 50.890519 55.391698 
L 50.907428 53.929732 
L 50.920111 43.813366 
L 51.013114 53.770532 
L 51.046934 59.52589 
L 51.131482 58.992317 
L 51.655684 56.776251 
L 51.664139 56.785413 
L 51.752915 56.76866 
L 51.723323 56.730508 
L 51.765597 56.743915 
L 51.943149 56.441351 
L 51.964287 56.457337 
L 52.002333 56.345053 
L 52.015016 56.349621 
L 52.116474 56.220452 
L 52.255979 54.968436 
L 52.272889 43.816459 
L 52.37012 54.260356 
L 52.40394 59.519146 
L 52.488488 58.979229 
L 52.801318 57.246142 
L 52.805546 57.253669 
L 52.84782 57.127562 
L 53.004235 56.767033 
L 53.01269 56.77446 
L 53.253654 56.495316 
L 53.503072 54.640542 
L 53.519982 43.817948 
L 53.612985 53.37012 
L 53.646805 59.549555 
L 53.735581 59.026527 
L 54.302057 56.79439 
L 54.403515 56.739531 
L 54.538793 56.524354 
L 54.59375 56.432868 
L 54.75862 56.064221 
L 54.800894 55.960045 
L 54.87276 54.756751 
L 54.88967 43.806622 
L 54.982674 53.843911 
L 55.016493 59.49957 
L 55.101042 58.952742 
L 55.426554 57.186995 
L 55.430781 57.192921 
L 55.477283 57.079999 
L 55.481511 57.082091 
L 55.650608 56.846038 
L 55.654835 56.847597 
L 56.238221 55.673437 
L 56.272041 53.373382 
L 56.284723 43.819779 
L 56.377726 54.286956 
L 56.411546 59.487595 
L 56.496095 58.945359 
L 56.80047 57.256435 
L 57.117527 56.694349 
L 57.147119 56.708654 
L 57.214758 56.694075 
L 57.193621 56.649411 
L 57.24435 56.672714 
L 57.42613 56.434196 
L 57.536043 56.450877 
L 57.510678 56.39648 
L 57.54027 56.442537 
L 57.645956 56.387519 
L 57.654411 56.429912 
L 57.72205 56.390858 
L 57.777007 56.453052 
L 57.806599 56.399585 
L 57.865783 56.516758 
L 57.967241 57.297232 
L 58.19975 59.19165 
L 58.508353 59.986781 
L 58.622493 60.144235 
L 58.795818 60.371073 
L 58.800045 60.361588 
L 58.804273 60.345916 
L 58.838092 60.436491 
L 58.905731 60.396177 
L 59.328475 60.319831 
L 59.46798 60.422019 
L 59.472207 60.41764 
L 59.577893 60.407587 
L 59.535619 60.345495 
L 59.582121 60.402669 
L 60.123232 60.370733 
L 60.182416 60.311203 
L 60.220463 60.397078 
L 60.233145 60.376332 
L 60.355741 60.355067 
L 60.359968 60.383086 
L 60.414925 60.41778 
L 60.469881 60.374047 
L 60.575567 60.295187 
L 60.622069 60.366913 
L 60.727755 60.422001 
L 60.753119 60.383914 
L 60.88417 60.331463 
L 61.404144 60.360737 
L 61.522512 60.266797 
L 61.598606 60.336143 
L 61.645108 60.306655 
L 61.716974 60.337421 
L 61.733884 60.380138 
L 61.784613 60.392352 
L 61.843797 60.372145 
L 61.962165 60.263969 
L 61.966393 60.303931 
L 62.13549 60.454919 
L 62.148172 60.425302 
L 62.363771 60.215206 
L 62.367999 60.221098 
L 62.61319 60.462024 
L 62.786515 60.300095 
L 62.803424 60.342406 
L 63.061298 60.434515 
L 63.086662 60.384714 
L 63.293807 60.298973 
L 63.319171 60.350314 
L 63.391038 60.399295 
L 63.437539 60.377767 
L 63.593954 60.272852 
L 63.644684 60.219453 
L 63.691185 60.304202 
L 63.695413 60.299355 
L 63.708095 60.332177 
L 63.750369 60.265848 
L 63.805326 60.298034 
L 64.004015 60.260474 
L 64.156203 60.424649 
L 64.16043 60.411145 
L 64.287253 60.445178 
L 64.295708 60.466718 
L 64.354892 60.363125 
L 64.371802 60.297498 
L 64.401394 60.375114 
L 64.464805 60.360504 
L 64.528217 60.331523 
L 64.557809 60.434397 
L 64.562036 60.426257 
L 64.65504 60.400574 
L 64.663495 60.374999 
L 64.67195 60.354124 
L 64.743816 60.466824 
L 64.752271 60.45922 
L 64.887549 60.453968 
L 64.781863 60.418827 
L 64.891776 60.438149 
L 65.082011 60.332896 
L 65.09892 60.368921 
L 65.175014 60.250798 
L 65.229971 60.196095 
L 65.2807 60.257626 
L 65.339884 60.367256 
L 65.394841 60.281397 
L 65.504754 60.178884 
L 65.513209 60.222153 
L 65.618895 60.176208 
L 65.585075 60.240244 
L 65.631577 60.187892 
L 65.749945 60.24503 
L 65.673851 60.15121 
L 65.762627 60.189552 
L 65.88945 60.060627 
L 65.910588 60.072948 
L 66.020501 60.180828 
L 66.041638 60.173215 
L 66.160006 60.111386 
L 66.067003 60.204226 
L 66.172688 60.130233 
L 66.303739 60.140344 
L 66.307966 60.146461 
L 66.388287 60.093032 
L 66.422107 60.149829 
L 66.506656 60.016006 
L 66.553157 60.061734 
L 66.591204 60.05692 
L 66.633479 59.988039 
L 66.663071 59.953691 
L 66.646161 59.995581 
L 66.734937 60.017813 
L 66.739164 60.032919 
L 66.819486 59.926234 
L 66.823713 59.930113 
L 66.895579 59.968567 
L 66.832168 59.94886 
L 66.904034 59.991964 
L 66.980128 60.039433 
L 67.018175 59.993751 
L 67.111178 59.89089 
L 67.149225 59.927156 
L 67.17459 59.974978 
L 67.229547 59.857756 
L 67.233774 59.848157 
L 67.246456 59.89131 
L 67.32255 59.920524 
L 67.483193 59.879149 
L 67.331005 59.937783 
L 67.48742 59.895128 
L 67.61847 59.941793 
L 67.626925 59.916492 
L 67.863662 59.736814 
L 68.045441 59.656179 
L 68.070806 59.688991 
L 68.075033 59.701724 
L 68.138445 59.608994 
L 68.163809 59.61682 
L 68.26104 59.560485 
L 68.282177 59.609743 
L 68.286405 59.630729 
L 68.345589 59.544943 
L 68.387863 59.583221 
L 68.540051 59.593406 
L 68.645737 59.561676 
L 68.582325 59.651298 
L 68.654191 59.569241 
L 68.751422 59.560712 
L 68.683783 59.525791 
L 68.764105 59.556301 
L 69.254487 59.430632 
L 69.393992 59.388826 
L 69.54618 59.369458 
L 69.761779 59.199756 
L 69.770234 59.224545 
L 69.846328 59.145487 
L 69.85901 59.145556 
L 70.040789 58.99021 
L 70.049244 59.009249 
L 70.243706 59.078295 
L 70.30289 59.128855 
L 70.332482 59.061124 
L 70.357847 59.097358 
L 70.455078 59.074049 
L 70.383211 59.052435 
L 70.463533 59.060866 
L 70.514262 58.986672 
L 70.573446 59.044806 
L 71.161059 58.749637 
L 71.165287 58.764582 
L 71.224471 58.767719 
L 71.245608 58.695554 
L 71.254063 58.712234 
L 71.418933 58.541631 
L 71.562665 58.64101 
L 71.566893 58.631877 
L 71.706398 58.658439 
L 71.841676 58.557207 
L 72.002318 58.472619 
L 72.023455 58.49097 
L 72.027683 58.511277 
L 72.074185 58.455225 
L 72.133369 58.477638 
L 72.239055 58.459359 
L 72.217917 58.514437 
L 72.247509 58.470404 
L 72.264419 58.481123 
L 72.37856 58.386605 
L 72.403924 58.340624 
L 72.4927 58.387793 
L 72.547657 58.414371 
L 72.598386 58.355963 
L 72.720982 58.426638 
L 72.666025 58.313351 
L 72.733664 58.406895 
L 72.83935 58.348368 
L 72.847805 58.369468 
L 72.974628 58.421914 
L 72.877397 58.328681 
L 72.991538 58.400107 
L 73.029584 58.370652 
L 73.071859 58.463817 
L 73.092996 58.440422 
L 73.456555 58.18221 
L 73.549559 58.193527 
L 73.519967 58.154638 
L 73.562241 58.148941 
L 73.600288 58.168686 
L 73.752475 57.995445 
L 73.76093 58.028665 
L 73.849706 57.91605 
L 73.917345 57.888356 
L 73.934255 57.95752 
L 73.951165 57.937192 
L 74.056851 57.959552 
L 74.023031 57.888115 
L 74.065306 57.946359 
L 74.225948 57.776482 
L 74.234403 57.785515 
L 74.352771 57.847848 
L 74.25554 57.746581 
L 74.369681 57.809115 
L 74.466912 57.740508 
L 74.483821 57.789982 
L 74.576825 57.846716 
L 74.500731 57.765219 
L 74.602189 57.826476 
L 74.640236 57.809077 
L 74.623327 57.848621 
L 74.703648 57.852425 
L 74.792424 57.910751 
L 74.729012 57.83513 
L 74.826243 57.889809 
L 74.872745 57.860235 
L 74.923474 57.94983 
L 74.927702 57.935545 
L 74.944612 57.975528 
L 75.160211 57.829119 
L 75.21094 57.848776 
L 75.257442 57.78068 
L 75.287034 57.726218 
L 75.354673 57.833142 
L 75.363127 57.852576 
L 75.443449 57.759766 
L 75.447676 57.765916 
L 75.52377 57.667166 
L 75.566044 57.687489 
L 75.591409 57.689956 
L 75.642138 57.60469 
L 75.663275 57.638653 
L 75.747824 57.652181 
L 75.777416 57.586327 
L 75.840827 57.629696 
L 75.891556 57.589647 
L 75.997242 57.626492 
L 76.005697 57.616112 
L 76.009925 57.577389 
L 76.107156 57.645652 
L 76.111383 57.633635 
L 76.187477 57.680864 
L 76.229751 57.666086 
L 76.529899 57.487715 
L 76.246661 57.712586 
L 76.555263 57.536151 
L 76.677859 57.582019 
L 76.690541 57.571776 
L 76.817364 57.470019 
L 76.720133 57.61215 
L 76.855411 57.539463 
L 76.880776 57.578124 
L 76.948415 57.499459 
L 76.969552 57.541261 
L 77.109057 57.511434 
L 77.23588 57.58637 
L 77.147104 57.475428 
L 77.248562 57.570582 
L 77.836176 57.558407 
L 77.84463 57.58365 
L 77.933407 57.487521 
L 77.937634 57.494959 
L 78.115186 57.462665 
L 78.149006 57.428537 
L 78.216645 57.514009 
L 78.318103 57.506475 
L 78.326558 57.484915 
L 78.432244 57.493245 
L 78.381514 57.540627 
L 78.436471 57.50138 
L 78.444926 57.521636 
L 78.499883 57.46061 
L 78.542157 57.478189 
L 78.918398 57.438829 
L 79.032539 57.322844 
L 79.057904 57.336265 
L 79.062131 57.345486 
L 79.12977 57.258699 
L 79.14668 57.267174 
L 79.27773 57.110284 
L 79.16359 57.276825 
L 79.29464 57.149172 
L 79.569423 57.100617 
L 79.577878 57.136363 
L 79.599015 57.155051 
L 79.662427 57.062915 
L 79.687791 57.119353 
L 79.704701 57.091351 
L 79.759658 57.159464 
L 79.793477 57.11907 
L 79.878026 57.203724 
L 79.916073 57.196085 
L 80.034441 57.174375 
L 79.941437 57.222778 
L 80.042896 57.192564 
L 80.093625 57.242061 
L 80.161264 57.224479 
L 80.283859 57.065587 
L 80.300769 57.080641 
L 80.491003 57.015838 
L 80.626281 56.927055 
L 81.091299 56.71408 
L 81.095526 56.724376 
L 81.175848 56.770053 
L 81.209667 56.738199 
L 81.243486 56.718026 
L 81.268851 56.65235 
L 81.361855 56.611233 
L 81.382992 56.650025 
L 81.51827 56.709562 
L 81.936785 55.71992 
L 81.966378 54.696311 
L 81.983287 43.755764 
L 82.080518 53.059453 
L 82.114338 58.674878 
L 82.207341 57.998128 
L 82.520171 54.506527 
L 82.532854 44.00259 
L 82.634312 53.107726 
L 82.668131 59.277379 
L 82.761135 58.629052 
L 83.171196 55.273902 
L 83.183878 53.156237 
L 83.192333 43.946963 
L 83.293791 53.033554 
L 83.327611 59.455272 
L 83.420614 58.870356 
L 83.699625 56.99575 
L 83.927906 54.607556 
L 83.940589 43.910012 
L 84.042047 53.454137 
L 84.080094 59.549627 
L 84.164643 58.999659 
L 84.650797 56.389619 
L 84.655025 56.391559 
L 84.671935 56.289402 
L 84.790303 55.290329 
L 84.807212 50.475562 
L 84.815667 43.889518 
L 84.912898 54.037064 
L 84.946718 59.557429 
L 85.031266 59.052162 
L 85.293367 57.429493 
L 85.741475 55.01544 
L 85.758385 43.864937 
L 85.855616 53.549663 
L 85.889435 59.566645 
L 85.973984 59.068287 
L 86.760286 54.778674 
L 86.777196 43.851869 
L 86.8702 53.346196 
L 86.904019 59.588684 
L 86.992795 59.084701 
L 87.216849 57.717941 
L 87.440903 56.949 
L 87.44513 56.96412 
L 87.508542 56.789843 
L 87.745278 56.167847 
L 87.855191 54.913752 
L 87.872101 43.814692 
L 87.969332 54.250071 
L 88.003152 59.586399 
L 88.0877 59.078293 
L 88.569628 56.926444 
L 88.704905 56.571794 
L 88.848638 56.284889 
L 88.852866 56.30471 
L 88.916277 56.070486 
L 89.000826 55.258273 
L 89.017736 49.132987 
L 89.02619 43.834937 
L 89.119194 53.725574 
L 89.157241 59.570263 
L 89.237562 59.072271 
L 89.596894 57.149954 
L 89.605349 57.16113 
L 89.622258 57.157377 
L 89.656078 57.050858 
L 90.142233 55.574113 
L 90.167597 54.056791 
L 90.18028 43.823994 
L 90.277511 54.980735 
L 90.31133 59.580108 
L 90.391651 59.088725 
L 90.742528 57.228075 
L 90.746756 57.233384 
L 90.759438 57.183614 
L 90.797485 57.152543 
L 90.958127 56.78633 
L 91.004629 56.749315 
L 90.975037 56.74047 
L 91.025766 56.718042 
L 91.199091 56.367699 
L 91.203318 56.394278 
L 91.28364 56.224682 
L 91.406235 55.253425 
L 91.423145 50.519257 
L 91.4316 43.81655 
L 91.528831 55.34874 
L 91.558423 59.55021 
L 91.642971 59.059217 
L 92.010758 57.152358 
L 92.268631 56.638854 
L 92.272859 56.641434 
L 92.298223 56.558201 
L 92.450411 56.240955 
L 92.454638 56.244589 
L 92.568779 55.810286 
L 92.606826 55.197201 
L 92.619508 53.272669 
L 92.627963 43.832409 
L 92.725194 54.466342 
L 92.759014 59.542001 
L 92.839335 59.048346 
L 93.435403 56.722935 
L 93.481905 56.75062 
L 93.519952 56.608296 
L 93.528406 56.623146 
L 93.870828 55.45566 
L 93.891966 52.710074 
L 93.90042 43.793031 
L 93.997651 54.133412 
L 94.035698 59.554629 
L 94.11602 59.036929 
L 94.382348 57.471166 
L 94.386575 57.479152 
L 94.424622 57.337626 
L 94.678268 56.789055 
L 94.860048 56.52228 
L 94.864275 56.528658 
L 95.029145 56.177432 
L 95.075647 55.988508 
L 95.147513 54.763836 
L 95.164423 43.810526 
L 95.257426 53.441284 
L 95.291246 59.543669 
L 95.380022 59.013156 
L 95.637895 57.463312 
L 95.68017 57.325086 
L 95.861949 56.916418 
L 95.866177 56.920162 
L 95.870404 56.930676 
L 95.933816 56.797605 
L 96.250873 56.283034 
L 95.946498 56.812437 
L 96.27201 56.309842 
L 96.276238 56.312983 
L 96.293147 56.25054 
L 96.335422 56.220654 
L 96.462245 55.504943 
L 96.483382 54.337373 
L 96.496064 43.804258 
L 96.589068 53.311466 
L 96.627115 59.504332 
L 96.711663 58.973385 
L 96.91458 57.67532 
L 97.100587 57.08798 
L 97.104815 57.092401 
L 97.134407 56.989834 
L 97.138634 56.986518 
L 97.278139 56.794775 
L 97.286594 56.797791 
L 97.455692 56.518876 
L 97.464146 56.541694 
L 97.620561 56.450546 
L 97.734702 56.130477 
L 97.831933 55.103332 
L 97.844615 50.977157 
L 97.85307 43.79657 
L 97.950301 54.762273 
L 97.979893 59.537209 
L 98.064442 59.017175 
L 98.381499 57.241733 
L 98.440683 57.108571 
L 98.580189 56.853938 
L 98.753513 56.657148 
L 98.867654 56.580424 
L 98.876109 56.609882 
L 98.977567 56.67204 
L 98.893019 56.600081 
L 98.994477 56.629533 
L 99.087481 56.601205 
L 99.028297 56.645692 
L 99.095935 56.66175 
L 99.324217 58.972501 
L 99.328444 58.970495 
L 99.345354 59.072308 
L 99.353809 59.070735 
L 99.645502 59.88454 
L 99.873783 60.193918 
L 99.886465 60.155204 
L 99.89492 60.133542 
L 99.971014 60.258241 
L 100.203523 60.475262 
L 100.309209 60.42513 
L 100.237342 60.494783 
L 100.321891 60.448796 
L 100.495216 60.441391 
L 100.507898 60.475223 
L 100.613584 60.484436 
L 100.533263 60.434307 
L 100.617811 60.468566 
L 100.664313 60.447254 
L 100.693905 60.511401 
L 100.71927 60.489454 
L 100.723497 60.508095 
L 100.774226 60.369757 
L 100.808046 60.386231 
L 100.88414 60.366289 
L 100.922186 60.401364 
L 101.010963 60.495188 
L 101.040555 60.435553 
L 101.150468 60.462278 
L 101.091284 60.389641 
L 101.158923 60.444371 
L 101.315338 60.291298 
L 101.514027 60.321186 
L 101.62394 60.382315 
L 101.636623 60.336771 
L 101.763446 60.251496 
L 101.7719 60.254142 
L 101.886041 60.346239 
L 101.82263 60.223956 
L 101.898723 60.314753 
L 102.063593 60.264811 
L 101.924088 60.34939 
L 102.072048 60.275931 
L 102.215781 60.383794 
L 102.088958 60.259547 
L 102.232691 60.346846 
L 102.359514 60.379529 
L 102.363741 60.389351 
L 102.367968 60.413323 
L 102.393333 60.333092 
L 102.469427 60.357409 
L 102.61316 60.36896 
L 102.625842 60.348824 
L 102.735755 60.273839 
L 102.765347 60.294272 
L 102.887943 60.332468 
L 102.786484 60.271061 
L 102.900625 60.309278 
L 103.044358 60.311483 
L 103.052813 60.289152 
L 103.069722 60.27167 
L 103.120452 60.366306 
L 103.150044 60.342792 
L 103.217682 60.441202 
L 103.298004 60.464202 
L 103.255729 60.402099 
L 103.323368 60.415047 
L 103.445964 60.366484 
L 103.467101 60.393626 
L 103.6827 60.378197 
L 103.686928 60.351679 
L 103.767249 60.297258 
L 103.809523 60.330699 
L 103.851797 60.313378 
L 103.885617 60.256284 
L 103.898299 60.276083 
L 103.961711 60.263534 
L 103.932119 60.29439 
L 104.003985 60.310629 
L 104.109671 60.299055 
L 104.126581 60.270098 
L 104.151945 60.214792 
L 104.17731 60.299787 
L 104.228039 60.304956 
L 104.371772 60.425037 
L 104.739558 60.206812 
L 104.764923 60.267226 
L 105.027024 60.275235 
L 105.035479 60.248385 
L 105.073526 60.317288 
L 105.136937 60.282677 
L 105.149619 60.26143 
L 105.297579 60.287126 
L 105.301807 60.272476 
L 105.344081 60.376252 
L 105.399038 60.323921 
L 105.424402 60.358392 
L 105.466677 60.278855 
L 105.508951 60.313725 
L 105.627319 60.251629 
L 105.644229 60.273636 
L 105.847146 60.258881 
L 105.944377 60.378297 
L 105.868283 60.252296 
L 105.969741 60.359457 
L 105.999333 60.318968 
L 106.0712 60.392023 
L 106.075427 60.383024 
L 106.21916 60.46004 
L 106.092337 60.362337 
L 106.248752 60.394825 
L 106.544672 60.335877 
L 106.671495 60.372476 
L 106.802546 60.261488 
L 106.925141 60.321228 
L 107.106921 60.346882 
L 107.119603 60.307869 
L 107.263336 60.149846 
L 107.267563 60.152491 
L 107.445115 60.149247 
L 107.449343 60.134843 
L 107.580393 60.071966 
L 107.872086 60.104319 
L 107.952407 60.109831 
L 107.927043 60.069758 
L 107.969317 60.057712 
L 108.155324 59.976678 
L 108.163779 59.987037 
L 108.607659 59.941236 
L 108.709118 59.764529 
L 108.764074 59.785212 
L 108.878215 59.892851 
L 108.899352 59.881277 
L 109.059995 59.86664 
L 109.064222 59.886396 
L 109.131861 59.788707 
L 109.157226 59.811688 
L 109.279821 59.77834 
L 109.816705 59.559151 
L 109.820933 59.572142 
L 109.846297 59.54738 
L 109.939301 59.573095 
L 110.108398 59.484007 
L 110.129535 59.560587 
L 110.133763 59.591648 
L 110.214084 59.488606 
L 110.230994 59.498668 
L 110.349362 59.459368 
L 110.243676 59.503274 
L 110.357817 59.471574 
L 110.421228 59.516063 
L 110.471957 59.457013 
L 110.843971 59.046385 
L 110.898928 59.12673 
L 110.979249 59.159821 
L 111.008841 59.091214 
L 111.097617 59.233337 
L 111.148347 59.237849 
L 111.114527 59.205647 
L 111.190621 59.177113 
L 111.342808 59.065189 
L 111.655638 59.043979 
L 111.790916 58.991647 
L 111.795144 58.996518 
L 111.816281 59.017477 
L 111.888147 58.93362 
L 111.896602 58.946972 
L 112.019198 58.913079 
L 112.023425 58.906603 
L 112.03188 58.88512 
L 112.036107 58.891034 
" clip-path="url(#p5862af1828)" style="fill: none; stroke: #000000; stroke-width: 0.6; stroke-linecap: square"/>
   </g>
   <g id="line2d_4">
    <path d="M 117.109027 15.313171 
L 117.109027 8.552195 
" clip-path="url(#p5862af1828)" style="fill: none; stroke: #000000; stroke-width: 1.5; stroke-linecap: square"/>
   </g>
  </g>
 </g>
 <defs>
  <clipPath id="p5862af1828">
   <rect x="7.2" y="7.2" width="111.6" height="55.44"/>
  </clipPath>
 </defs>
</svg>
