<?xml version="1.0" encoding="utf-8" standalone="no"?>
<!DOCTYPE svg PUBLIC "-//W3C//DTD SVG 1.1//EN"
  "http://www.w3.org/Graphics/SVG/1.1/DTD/svg11.dtd">
<svg xmlns:xlink="http://www.w3.org/1999/xlink" width="103.68pt" height="69.84pt" viewBox="0 0 103.68 69.84" xmlns="http://www.w3.org/2000/svg" version="1.1">
 <metadata>
  <rdf:RDF xmlns:dc="http://purl.org/dc/elements/1.1/" xmlns:cc="http://creativecommons.org/ns#" xmlns:rdf="http://www.w3.org/1999/02/22-rdf-syntax-ns#">
   <cc:Work>
    <dc:type rdf:resource="http://purl.org/dc/dcmitype/StillImage"/>
    <dc:date>2022-05-08T14:49:29.166144</dc:date>
    <dc:format>image/svg+xml</dc:format>
    <dc:creator>
     <cc:Agent>
      <dc:title>Matplotlib v3.5.1, https://matplotlib.org/</dc:title>
     </cc:Agent>
    </dc:creator>
   </cc:Work>
  </rdf:RDF>
 </metadata>
 <defs>
  <style type="text/css">*{stroke-linejoin: round; stroke-linecap: butt}</style>
 </defs>
 <g id="figure_1">
  <g id="patch_1">
   <path d="M 0 69.84 
L 103.68 69.84 
L 103.68 0 
L 0 0 
z
" style="fill: #ffffff"/>
  </g>
  <g id="axes_1">
   <g id="patch_2">
    <path d="M 7.2 62.64 
L 96.48 62.64 
L 96.48 7.2 
L 7.2 7.2 
z
" style="fill: #ffffff"/>
   </g>
   <g id="matplotlib.axis_1"/>
   <g id="matplotlib.axis_2"/>
   <g id="line2d_1">
    <path d="M 9.905557 20.925368 
L 10.000252 19.367859 
L 10.013779 9.2055 
L 10.088182 24.070272 
L 10.094946 24.151879 
L 10.172731 23.627891 
L 10.36212 22.167345 
L 10.673259 18.976072 
L 10.686787 9.262282 
L 10.764571 24.102434 
L 10.771335 24.083833 
L 10.788245 23.969402 
L 11.028363 22.17758 
L 11.261717 20.857822 
L 11.305683 20.684928 
L 11.407141 18.79173 
L 11.420669 9.311841 
L 11.498454 24.020225 
L 11.505218 23.991364 
L 12.157933 19.362067 
L 12.174843 9.299056 
L 12.2391 23.790955 
L 12.252628 24.006945 
L 12.337176 23.386153 
L 12.597586 21.603209 
L 12.628024 21.507862 
L 12.925635 20.419318 
L 12.983128 20.081381 
L 13.006802 18.967179 
L 13.02033 9.334448 
L 13.098114 23.93006 
L 13.101496 23.927207 
L 13.517476 21.238143 
L 13.882726 19.594431 
L 13.896254 14.308343 
L 13.903018 9.364699 
L 13.97742 23.898292 
L 13.997712 23.774793 
L 14.491476 20.963776 
L 14.74174 20.61853 
L 14.893928 20.94556 
L 14.772178 20.60765 
L 14.904074 20.930709 
L 14.958185 20.927908 
L 14.920983 20.973233 
L 14.992004 20.983881 
L 15.134046 21.19647 
L 15.235504 21.261208 
L 15.374164 21.476201 
L 15.26256 21.251071 
L 15.377546 21.461444 
L 15.387692 21.451155 
L 15.445185 21.616246 
L 15.573699 21.729764 
L 15.455331 21.603066 
L 15.577081 21.728751 
L 15.590609 21.71039 
L 15.66163 21.858522 
L 15.844255 22.189409 
L 15.966005 22.413438 
L 16.128338 22.776741 
L 16.13172 22.771819 
L 17.26129 24.887476 
L 16.16554 22.733874 
L 17.264672 24.880471 
L 17.339075 24.936139 
L 17.291728 24.929027 
L 17.345839 24.954226 
L 17.687415 25.23292 
L 17.704325 25.196553 
L 17.795638 25.132521 
L 17.714471 25.226934 
L 17.829457 25.206873 
L 17.954589 25.252605 
L 17.853131 25.189365 
L 17.957971 25.248322 
L 18.032374 25.258986 
L 17.998554 25.30097 
L 18.056048 25.294381 
L 18.171034 25.403702 
L 18.177798 25.37955 
L 18.242055 25.456034 
L 18.289402 25.362612 
L 18.411152 25.347474 
L 18.306312 25.391077 
L 18.414534 25.350119 
L 18.448353 25.394209 
L 18.502464 25.292252 
L 18.522756 25.334543 
L 18.549812 25.345988 
L 18.66818 25.193224 
L 18.759492 25.101952 
L 18.705381 25.206249 
L 18.786548 25.146835 
L 18.820367 25.085894 
L 18.904916 25.219199 
L 18.965791 25.216191 
L 19.002993 25.273087 
L 19.057104 25.391286 
L 19.128125 25.347807 
L 19.15518 25.291867 
L 19.216055 25.376709 
L 19.239729 25.31565 
L 19.26002 25.352498 
L 19.287076 25.27614 
L 19.347951 25.296699 
L 19.503521 25.195737 
L 19.506903 25.20741 
L 19.682764 25.107996 
L 19.53734 25.267782 
L 19.699673 25.133761 
L 19.804514 25.167328 
L 19.753785 25.055005 
L 19.81466 25.141358 
L 20.115653 25.032841 
L 19.831569 25.19413 
L 20.125799 25.058687 
L 20.129181 25.073827 
L 20.200202 24.938521 
L 20.217111 24.969486 
L 20.413264 24.795413 
L 20.44032 24.862905 
L 20.480903 24.775878 
L 20.524868 24.819901 
L 20.568834 24.739275 
L 20.626327 24.853697 
L 20.636473 24.809712 
L 20.704112 24.85393 
L 20.660146 24.780489 
L 20.744695 24.798822 
L 20.748077 24.787009 
L 20.812334 24.87436 
L 20.849535 24.831241 
L 20.954376 24.782123 
L 20.896882 24.860528 
L 20.978049 24.807245 
L 21.055834 24.865585 
L 21.08289 24.799819 
L 21.143765 24.665089 
L 21.201258 24.72486 
L 21.610473 24.795924 
L 21.664584 24.732487 
L 21.728841 24.77573 
L 21.823536 24.807612 
L 21.77957 24.717371 
L 21.843827 24.789282 
L 22.138057 24.738423 
L 22.16173 24.79523 
L 22.249661 24.760766 
L 22.259807 24.742864 
L 22.324064 24.835392 
L 22.351119 24.792605 
L 22.415376 24.834203 
L 22.371411 24.779895 
L 22.462724 24.768785 
L 22.564182 24.739101 
L 22.526981 24.790098 
L 22.57771 24.759968 
L 22.625057 24.694971 
L 22.702842 24.784139 
L 22.733279 24.809713 
L 22.827974 24.736577 
L 23.013981 24.771252 
L 23.020745 24.743008 
L 23.08162 24.726083 
L 23.06471 24.798798 
L 23.122203 24.780936 
L 23.230425 24.780329 
L 23.149259 24.741303 
L 23.233807 24.769753 
L 23.314974 24.815797 
L 23.345412 24.754015 
L 23.416432 24.72712 
L 23.460398 24.781347 
L 23.555092 24.807166 
L 23.517891 24.747538 
L 23.572002 24.788243 
L 23.666696 24.755869 
L 23.595676 24.796846 
L 23.683606 24.79045 
L 23.791828 24.748842 
L 23.798592 24.757117 
L 23.910197 24.771265 
L 23.920342 24.743303 
L 24.031947 24.737577 
L 23.998127 24.816111 
L 24.038711 24.746945 
L 24.184134 24.758817 
L 24.292357 24.79757 
L 24.204426 24.74468 
L 24.29912 24.777639 
L 24.414107 24.75284 
L 24.322794 24.801012 
L 24.427634 24.770127 
L 24.542621 24.789519 
L 24.546003 24.787164 
L 24.596732 24.734821 
L 24.627169 24.80183 
L 24.657607 24.746941 
L 24.755683 24.795688 
L 24.769211 24.747524 
L 24.792885 24.744226 
L 24.850378 24.816737 
L 24.860524 24.839073 
L 24.887579 24.740878 
L 24.94169 24.758785 
L 25.124315 24.730894 
L 24.972128 24.825882 
L 25.131079 24.750755 
L 25.239301 24.776175 
L 25.198718 24.689977 
L 25.252829 24.746611 
L 25.35767 24.700988 
L 25.259593 24.763061 
L 25.377961 24.726216 
L 25.465892 24.785759 
L 25.496329 24.748704 
L 25.591024 24.697063 
L 25.516621 24.763945 
L 25.624843 24.71341 
L 26.253885 24.79615 
L 26.257267 24.76967 
L 26.304615 24.849218 
L 26.395927 24.748031 
L 26.541351 24.735722 
L 26.551497 24.704206 
L 26.578552 24.64822 
L 26.652955 24.740312 
L 26.659719 24.72149 
L 26.761177 24.685056 
L 26.798379 24.722037 
L 26.832198 24.755745 
L 26.893073 24.648815 
L 26.903219 24.67405 
L 27.055407 24.618752 
L 27.058789 24.628385 
L 27.150101 24.601901 
L 27.072316 24.596538 
L 27.160247 24.553881 
L 27.281997 24.470863 
L 27.197448 24.605397 
L 27.295525 24.478538 
L 27.407129 24.647592 
L 27.437567 24.633761 
L 27.447712 24.641659 
L 27.566081 24.601871 
L 27.650629 24.684369 
L 27.684449 24.663316 
L 27.958386 24.601878 
L 27.961768 24.612771 
L 28.002352 24.653188 
L 28.053081 24.5867 
L 28.069991 24.596772 
L 28.232324 24.472963 
L 28.24247 24.512832 
L 28.38113 24.521247 
L 28.387893 24.545832 
L 28.425095 24.47698 
L 28.479206 24.4809 
L 28.526553 24.423797 
L 28.584046 24.518008 
L 28.753144 24.536016 
L 28.756526 24.55341 
L 28.783581 24.478874 
L 28.854602 24.507362 
L 28.962824 24.392544 
L 28.97297 24.412805 
L 29.121776 24.581701 
L 29.142068 24.501795 
L 29.172505 24.5419 
L 29.334838 24.376597 
L 29.449825 24.4675 
L 29.456589 24.460385 
L 29.466734 24.424886 
L 29.507318 24.507363 
L 29.564811 24.48489 
L 29.774491 24.294265 
L 29.574957 24.503895 
L 29.794783 24.338437 
L 29.87595 24.387724 
L 29.825221 24.308973 
L 29.909769 24.337837 
L 30.072103 24.459192 
L 29.923297 24.328351 
L 30.10254 24.424688 
L 30.132978 24.433661 
L 30.166797 24.50328 
L 30.210763 24.54167 
L 30.264874 24.434638 
L 30.281783 24.453545 
L 30.335895 24.34925 
L 30.339276 24.351925 
L 30.454263 24.326098 
L 30.413679 24.391516 
L 30.457645 24.333077 
L 31.225346 24.061804 
L 31.228728 24.08136 
L 31.336951 24.145585 
L 31.289603 24.033765 
L 31.347096 24.113864 
L 31.50943 23.996976 
L 31.573687 23.940104 
L 31.627798 23.949392 
L 31.742784 23.895132 
L 31.75293 23.922898 
L 32.645764 23.37989 
L 32.659292 23.409886 
L 32.662674 23.424157 
L 32.740458 23.334988 
L 32.757368 23.351207 
L 32.76075 23.328677 
L 32.852063 23.450118 
L 32.855445 23.440696 
L 32.939993 23.401251 
L 32.970431 23.420112 
L 33.044834 23.506927 
L 33.085417 23.464297 
L 33.126 23.512921 
L 33.28157 23.408436 
L 33.332299 23.393576 
L 33.40332 23.497602 
L 33.511542 23.412277 
L 33.447285 23.507579 
L 33.521688 23.464027 
L 33.680639 23.423949 
L 33.687403 23.443648 
L 33.815917 23.507329 
L 33.819299 23.50275 
L 33.903848 23.383129 
L 33.944431 23.428229 
L 34.309681 23.616039 
L 33.981633 23.319475 
L 34.319827 23.595784 
L 34.414522 23.425421 
L 34.444959 23.44445 
L 34.593765 23.597961 
L 34.65464 23.53533 
L 34.685077 23.644541 
L 34.735807 23.72739 
L 34.800064 23.673793 
L 35.14164 23.911028 
L 35.148404 23.87637 
L 35.212661 23.86248 
L 35.178842 23.90551 
L 35.246481 23.920622 
L 35.331029 23.99306 
L 35.364849 23.925319 
L 35.446015 23.853332 
L 35.493363 23.92427 
L 35.699661 23.937159 
L 35.821411 24.021068 
L 35.740245 23.921911 
L 35.824793 24.011971 
L 36.291502 24.265324 
L 36.359141 24.308561 
L 36.399724 24.266371 
L 36.416634 24.232628 
L 36.491037 24.344345 
L 36.497801 24.319169 
L 36.528238 24.348198 
L 36.541766 24.277864 
L 36.602641 24.28345 
L 36.683808 24.298155 
L 36.643224 24.330897 
L 36.700717 24.328276 
L 36.704099 24.340431 
L 36.764974 24.166029 
L 36.768356 24.173314 
L 36.788648 24.125215 
L 36.846141 24.250893 
L 36.866433 24.234506 
L 37.011857 24.429332 
L 37.022002 24.39326 
L 37.05244 24.38643 
L 37.082877 24.469819 
L 37.099787 24.473934 
L 37.187718 24.548288 
L 37.221537 24.481592 
L 37.258739 24.552178 
L 37.343287 24.466081 
L 37.363579 24.516058 
L 37.410926 24.397662 
L 37.437982 24.407668 
L 37.532676 24.28053 
L 37.596933 24.37955 
L 37.607079 24.365451 
L 37.718683 24.407058 
L 37.796468 24.428848 
L 37.833669 24.367467 
L 37.884399 24.469849 
L 37.945274 24.37012 
L 38.053496 24.51054 
L 37.95542 24.358646 
L 38.07717 24.476584 
L 38.32067 24.314161 
L 38.337579 24.333412 
L 38.361253 24.378369 
L 38.411982 24.40984 
L 38.489767 24.441962 
L 38.462711 24.362765 
L 38.520205 24.386337 
L 38.523586 24.36009 
L 38.591225 24.431372 
L 38.628427 24.376686 
L 38.723121 24.408889 
L 38.746795 24.399322 
L 38.909128 24.315247 
L 38.919274 24.323133 
L 39.010587 24.482596 
L 38.939566 24.311282 
L 39.074844 24.447227 
L 39.08499 24.413698 
L 39.128955 24.479116 
L 39.17292 24.478731 
L 39.216885 24.413084 
L 39.284524 24.483512 
L 39.369073 24.405971 
L 39.41642 24.44098 
L 39.436712 24.478703 
L 39.470531 24.38364 
L 39.524643 24.439518 
L 39.595663 24.415748 
L 39.55508 24.502799 
L 39.629483 24.457917 
L 39.717414 24.556813 
L 39.757997 24.535203 
L 39.849309 24.51531 
L 39.791816 24.583915 
L 39.869601 24.528818 
L 39.950768 24.525777 
L 39.933858 24.485176 
L 39.974441 24.49207 
L 39.981205 24.475469 
L 40.015025 24.572155 
L 40.062372 24.561453 
L 40.170594 24.572279 
L 40.113101 24.50956 
L 40.173976 24.561116 
L 40.640685 24.630651 
L 40.755671 24.611058 
L 40.688032 24.66605 
L 40.759053 24.61237 
L 40.860511 24.671868 
L 40.813164 24.605313 
L 40.874039 24.649627 
L 40.94506 24.697377 
L 40.97888 24.613116 
L 41.056664 24.616281 
L 40.985643 24.624504 
L 41.076956 24.665543 
L 41.212234 24.729646 
L 41.090484 24.606546 
L 41.239289 24.692231 
L 41.482789 24.711869 
L 41.486171 24.724062 
L 41.594394 24.747872 
L 41.543665 24.694681 
L 41.601158 24.743677 
L 41.624831 24.700556 
L 41.665415 24.807524 
L 41.70938 24.747374 
L 41.807456 24.799227 
L 41.827748 24.778747 
L 42.000227 24.722629 
L 42.006991 24.73403 
L 42.078012 24.802105 
L 42.125359 24.76805 
L 42.162561 24.699197 
L 42.236964 24.757557 
L 42.243727 24.784589 
L 42.284311 24.723069 
L 42.345186 24.750277 
L 42.35195 24.771493 
L 42.527811 24.800468 
L 42.61236 24.795661 
L 42.581922 24.768291 
L 42.629269 24.765114 
L 42.778075 24.744238 
L 42.828804 24.777945 
L 42.845714 24.712964 
L 42.886297 24.732079 
L 42.899825 24.809755 
L 42.947172 24.823461 
L 42.950554 24.834952 
L 42.991138 24.773863 
L 43.052013 24.796232 
L 43.288749 24.793105 
L 43.319186 24.831799 
L 43.366534 24.7229 
L 43.400353 24.78814 
L 43.440936 24.707582 
L 43.528867 24.744449 
L 43.880589 24.770434 
L 43.883971 24.747241 
L 43.900881 24.716393 
L 43.961756 24.809619 
L 43.992194 24.755558 
L 44.093652 24.810611 
L 44.015867 24.719091 
L 44.110562 24.782116 
L 44.222166 24.734968 
L 44.117326 24.801634 
L 44.22893 24.755756 
L 44.259367 24.799374 
L 44.343916 24.759959 
L 44.411555 24.708678 
L 44.435229 24.784852 
L 44.45552 24.771137 
L 44.607708 24.775275 
L 44.617854 24.752095 
L 44.671965 24.710778 
L 44.655055 24.762842 
L 44.726076 24.765891 
L 44.817389 24.809797 
L 44.753132 24.749385 
L 44.841062 24.785754 
L 44.939139 24.710738 
L 44.962812 24.746452 
L 45.057507 24.819007 
L 45.094708 24.765498 
L 45.25366 24.769514 
L 45.263805 24.748238 
L 45.351736 24.754853 
L 45.304389 24.812144 
L 45.365264 24.788582 
L 45.537743 24.770894 
L 45.37541 24.762944 
L 45.541125 24.755643 
L 45.679785 24.732828 
L 45.571563 24.794048 
L 45.686549 24.73794 
L 45.815063 24.80613 
L 45.838736 24.760856 
L 45.936813 24.73665 
L 45.875938 24.790537 
L 45.950341 24.751181 
L 45.990924 24.810493 
L 45.963868 24.746086 
L 46.068709 24.776973 
L 46.153257 24.724028 
L 46.116056 24.791863 
L 46.183695 24.757114 
L 46.254716 24.786018 
L 46.295299 24.758169 
L 46.406903 24.716886 
L 46.329119 24.818904 
L 46.430577 24.747247 
L 46.559091 24.804743 
L 46.707897 24.702125 
L 46.931105 24.7963 
L 46.941251 24.777036 
L 47.059619 24.725539 
L 47.063001 24.734443 
L 47.137404 24.71401 
L 47.100202 24.780819 
L 47.167841 24.754195 
L 47.242244 24.791684 
L 47.282827 24.756997 
L 47.39105 24.715545 
L 47.330175 24.779606 
L 47.397814 24.73732 
L 47.509418 24.800467 
L 47.543237 24.773915 
L 47.705571 24.757077 
L 47.712335 24.773427 
L 47.813793 24.816174 
L 47.847612 24.754215 
L 47.935543 24.744005 
L 47.89496 24.785774 
L 47.959217 24.771281 
L 48.047147 24.789475 
L 47.98289 24.728173 
L 48.067439 24.765586 
L 48.131696 24.71971 
L 48.151988 24.792956 
L 48.179043 24.757268 
L 48.256828 24.794907 
L 48.287265 24.745023 
L 49.281558 24.674105 
L 49.295085 24.642628 
L 49.366106 24.702879 
L 49.38978 24.689802 
L 49.470947 24.689771 
L 49.403308 24.663641 
L 49.49462 24.659003 
L 49.612988 24.665835 
L 49.619752 24.685807 
L 49.734738 24.690054 
L 49.640044 24.658846 
L 49.744884 24.660604 
L 50.74594 24.652787 
L 50.76285 24.640549 
L 50.833871 24.737762 
L 50.847399 24.792266 
L 50.925184 24.68886 
L 50.935329 24.695466 
L 50.969149 24.624451 
L 51.016496 24.714934 
L 51.057079 24.659702 
L 51.090899 24.714596 
L 51.134864 24.625689 
L 51.16192 24.650208 
L 51.24985 24.571615 
L 51.276906 24.619989 
L 51.280288 24.628567 
L 51.341163 24.53033 
L 51.358073 24.539761 
L 51.476441 24.498572 
L 51.378364 24.559916 
L 51.479823 24.50204 
L 51.537316 24.55415 
L 51.584663 24.459123 
L 51.699649 24.387174 
L 51.723323 24.433226 
L 51.784198 24.48745 
L 51.841691 24.417041 
L 51.929622 24.348288 
L 51.878892 24.427186 
L 51.956677 24.398578 
L 52.041226 24.453405 
L 52.007406 24.381821 
L 52.061517 24.39417 
L 52.15283 24.353176 
L 52.112247 24.402355 
L 52.16974 24.389628 
L 52.203559 24.35278 
L 52.3084 24.525177 
L 52.447059 24.547433 
L 52.450441 24.540235 
L 52.575573 24.430966 
L 52.646594 24.50631 
L 52.602629 24.395026 
L 52.683796 24.413081 
L 52.839365 24.186511 
L 52.710851 24.438011 
L 52.852893 24.238511 
L 52.863039 24.289154 
L 52.923914 24.115433 
L 52.947587 24.154671 
L 52.957733 24.146153 
L 53.164032 24.278745 
L 53.238435 24.328752 
L 53.279018 24.255184 
L 53.380477 24.190065 
L 53.285782 24.267317 
L 53.424442 24.242547 
L 53.505609 24.253504 
L 53.465025 24.210127 
L 53.532664 24.224046 
L 54.178616 23.784883 
L 54.181998 23.805696 
L 54.198908 23.835378 
L 54.256401 23.737975 
L 54.286838 23.782661 
L 54.425498 23.656555 
L 54.330803 23.864226 
L 54.432262 23.659197 
L 54.631797 23.413072 
L 54.442408 23.690859 
L 54.635179 23.420735 
L 54.716345 23.521622 
L 54.753547 23.467779 
L 54.804276 23.423193 
L 54.763693 23.476694 
L 54.855005 23.499238 
L 55.030866 23.62799 
L 55.044394 23.616464 
L 55.277748 23.505777 
L 55.301422 23.515915 
L 55.342005 23.41511 
L 55.4367 23.363897 
L 55.460373 23.39206 
L 55.538158 23.477595 
L 55.595651 23.43714 
L 55.619325 23.450345 
L 55.717401 23.378111 
L 55.80195 23.533433 
L 55.842533 23.50582 
L 56.038686 23.550418 
L 56.042068 23.571417 
L 56.04545 23.58963 
L 56.119853 23.486574 
L 56.136763 23.500486 
L 56.217929 23.427995 
L 56.251749 23.485938 
L 56.261895 23.502213 
L 56.302478 23.384074 
L 56.343061 23.386943 
L 56.447902 23.411808 
L 56.387027 23.342604 
L 56.46143 23.404886 
L 56.56627 23.396878 
L 56.474957 23.427327 
L 56.576416 23.417882 
L 56.674492 23.444058 
L 56.616999 23.36993 
L 56.68802 23.404572 
L 56.745513 23.368597 
L 56.775951 23.44698 
L 56.796242 23.43113 
L 56.799624 23.423342 
L 56.840208 23.529478 
L 56.877409 23.5079 
L 56.992395 23.554357 
L 56.995777 23.548027 
L 57.107381 23.482146 
L 57.03636 23.576288 
L 57.117527 23.49168 
L 57.43543 23.621225 
L 57.55718 23.798208 
L 57.567326 23.769757 
L 57.67893 23.72826 
L 57.580854 23.782221 
L 57.692458 23.743978 
L 57.871701 23.824713 
L 57.990069 23.956154 
L 57.993451 23.941074 
L 58.017125 23.90878 
L 58.030653 23.958017 
L 58.098292 23.955155 
L 58.189604 24.039265 
L 58.226806 24.020427 
L 58.318118 23.919198 
L 58.260625 24.079613 
L 58.372229 23.969551 
L 58.524417 24.077415 
L 58.534563 24.055547 
L 58.673222 24.04519 
L 58.679986 24.0699 
L 58.794973 24.245955 
L 58.801736 24.23216 
L 58.913341 24.281039 
L 58.916723 24.26055 
L 59.055382 24.249827 
L 58.933632 24.225554 
L 59.062146 24.234342 
L 59.258299 24.210334 
L 59.34623 24.29526 
L 59.271827 24.20797 
L 59.380049 24.27439 
L 59.522091 24.231796 
L 59.437542 24.362735 
L 59.525473 24.242294 
L 59.586348 24.280136 
L 59.610022 24.20501 
L 59.633695 24.240755 
L 59.677661 24.2104 
L 59.738536 24.270185 
L 59.745299 24.245319 
L 59.748681 24.240612 
L 59.799411 24.350525 
L 59.802793 24.346717 
L 59.86705 24.451107 
L 59.914397 24.350108 
L 59.978654 24.410531 
L 59.927925 24.344798 
L 60.026001 24.361528 
L 60.107168 24.329799 
L 60.056439 24.383126 
L 60.140987 24.346499 
L 60.144369 24.356949 
L 60.218772 24.247817 
L 60.222154 24.24717 
L 60.252591 24.314482 
L 60.293175 24.307858 
L 60.357432 24.366789 
L 60.404779 24.324839 
L 61.054113 24.281732 
L 61.06764 24.263782 
L 61.138661 24.398412 
L 61.179245 24.383118 
L 61.199536 24.490959 
L 61.233356 24.450174 
L 61.341578 24.482802 
L 61.284085 24.414851 
L 61.34496 24.476878 
L 61.355106 24.447176 
L 61.388925 24.495762 
L 61.446418 24.499777 
L 61.551259 24.58185 
L 61.503912 24.465505 
L 61.564787 24.55979 
L 61.635807 24.445313 
L 61.686537 24.519146 
L 61.967238 24.304066 
L 61.994294 24.397072 
L 62.105898 24.522567 
L 62.028113 24.331316 
L 62.136335 24.464449 
L 62.251322 24.302066 
L 62.288523 24.366151 
L 62.423801 24.412311 
L 62.329106 24.315817 
L 62.433947 24.394427 
L 62.440711 24.379145 
L 62.511732 24.504677 
L 62.515113 24.485328 
L 62.545551 24.580364 
L 62.636864 24.531417 
L 62.711266 24.489725 
L 62.745086 24.541943 
L 62.846544 24.527208 
L 62.778905 24.49419 
L 62.853308 24.502108 
L 62.958148 24.412317 
L 62.971676 24.416786 
L 63.123864 24.485635 
L 63.015642 24.387385 
L 63.127246 24.479194 
L 64.02008 24.524477 
L 64.087718 24.444028 
L 64.135066 24.477245 
L 64.253434 24.558013 
L 64.14183 24.468825 
L 64.266962 24.530202 
L 64.358274 24.6208 
L 64.412385 24.669179 
L 64.469878 24.627678 
L 64.848656 24.563022 
L 64.960261 24.663912 
L 64.983934 24.637976 
L 65.153032 24.603071 
L 65.024518 24.707878 
L 65.159795 24.640777 
L 65.264636 24.66065 
L 65.291691 24.619601 
L 65.433733 24.44681 
L 65.305219 24.635434 
L 65.460789 24.486354 
L 65.558865 24.497662 
L 65.511518 24.438743 
L 65.569011 24.476343 
L 65.700907 24.426495 
L 65.704289 24.444956 
L 65.707671 24.468031 
L 65.77531 24.348477 
L 65.809129 24.407133 
L 65.876768 24.380143 
L 65.886914 24.432226 
L 65.920733 24.397443 
L 66.069539 24.633649 
L 66.143942 24.571483 
L 66.265692 24.48713 
L 66.38406 24.581467 
L 66.40097 24.572334 
L 66.478754 24.584615 
L 66.424643 24.651491 
L 66.495664 24.615701 
L 66.526102 24.657374 
L 66.597123 24.574695 
L 66.600505 24.582094 
L 66.827095 24.575046 
L 66.617414 24.635666 
L 66.837241 24.612418 
L 66.857532 24.646311 
L 66.928553 24.550367 
L 66.952227 24.473836 
L 67.040158 24.5466 
L 67.16529 24.525088 
L 67.053685 24.508348 
L 67.175435 24.504222 
L 67.297185 24.375723 
L 67.327623 24.386274 
L 67.486574 24.487237 
L 67.489956 24.475045 
L 67.537304 24.392603 
L 67.51363 24.493003 
L 67.604943 24.440629 
L 67.696255 24.527456 
L 67.726693 24.480885 
L 67.851825 24.536019 
L 67.743602 24.460642 
L 67.858589 24.511433 
L 68.004012 24.291191 
L 68.007394 24.30527 
L 68.054741 24.366786 
L 68.098707 24.279069 
L 68.108853 24.278758 
L 68.190019 24.310785 
L 68.223839 24.252993 
L 68.362499 24.360504 
L 68.3997 24.246523 
L 68.494394 24.279458 
L 68.53836 24.323545 
L 68.609381 24.268752 
L 68.737895 24.322849 
L 68.805534 24.400784 
L 68.758186 24.29878 
L 68.852881 24.358341 
L 68.930666 24.21387 
L 68.859645 24.363706 
L 69.005068 24.317194 
L 69.05918 24.262101 
L 69.133582 24.412253 
L 69.468395 24.397962 
L 69.569853 24.306391 
L 69.590145 24.333008 
L 69.769388 24.166862 
L 69.786298 24.189016 
L 69.867465 24.186689 
L 69.826881 24.1249 
L 69.891138 24.168044 
L 70.046708 23.95312 
L 70.083909 23.986545 
L 70.13802 23.891476 
L 70.144784 23.899988 
L 70.15493 23.89112 
L 70.202277 23.9836 
L 70.225951 23.972692 
L 70.280062 24.010933 
L 70.327409 23.927921 
L 70.330791 23.946557 
L 70.428868 23.864932 
L 70.449159 23.909156 
L 70.550618 23.949597 
L 70.486361 23.868003 
L 70.567528 23.884749 
L 70.587819 23.875473 
L 70.611493 23.961571 
L 70.635166 23.962377 
L 70.648694 23.993826 
L 70.736625 23.915572 
L 70.78059 23.863729 
L 70.838083 23.959366 
L 70.912486 24.04225 
L 70.956451 23.987894 
L 71.078201 23.854587 
L 71.084965 23.87332 
L 71.230389 23.853445 
L 71.243917 23.874255 
L 71.277736 23.953225 
L 71.352139 23.857191 
L 71.54491 23.77811 
L 71.551674 23.799771 
L 71.676806 23.615239 
L 71.798556 23.539423 
L 71.730917 23.677296 
L 71.801938 23.551783 
L 71.82223 23.540589 
L 71.872959 23.61492 
L 71.900014 23.603705 
L 71.937216 23.637543 
L 72.008237 23.582925 
L 72.082639 23.518608 
L 72.129987 23.564229 
L 72.133369 23.576482 
L 72.167188 23.445942 
L 72.234827 23.533248 
L 72.315994 23.518416 
L 72.258501 23.562827 
L 72.343049 23.542532 
L 72.346431 23.554665 
L 72.43098 23.462366 
L 72.437744 23.47472 
L 72.512147 23.467873 
L 72.53582 23.514035 
L 72.549348 23.548282 
L 72.627133 23.456618 
L 72.69139 23.299024 
L 72.759029 23.357417 
L 72.880779 23.420344 
L 72.928126 23.403727 
L 72.945036 23.33404 
L 73.066786 23.280798 
L 72.9518 23.367564 
L 73.083696 23.316919 
L 73.114133 23.360865 
L 73.181772 23.258629 
L 73.185154 23.274765 
L 73.246029 23.253785 
L 73.286612 23.317231 
L 73.367779 23.318805 
L 73.30014 23.30521 
L 73.384689 23.267151 
L 73.776995 23.268824 
L 73.881835 23.188048 
L 73.895363 23.206429 
L 73.898745 23.223646 
L 73.976529 23.091645 
L 73.986675 23.113538 
L 74.138863 23.014088 
L 74.162536 23.086279 
L 74.250467 22.998274 
L 74.368835 22.933673 
L 74.372217 22.93621 
L 74.500731 22.920222 
L 74.402655 22.895653 
L 74.504113 22.916247 
L 74.676592 22.813692 
L 74.703648 22.88783 
L 74.855835 23.010904 
L 74.937002 22.848326 
L 74.974204 22.930944 
L 74.987731 22.979122 
L 75.048606 22.856984 
L 75.065516 22.856725 
L 75.079044 22.824676 
L 75.139919 22.969766 
L 75.150065 22.958925 
L 75.244759 22.965765 
L 75.190648 22.867073 
L 75.254905 22.926246 
L 75.501787 22.782153 
L 75.535607 22.865294 
L 75.579572 22.838999 
L 75.653975 22.887723 
L 75.94144 23.23137 
L 75.982024 23.152619 
L 76.015843 23.187918 
L 76.086864 23.165162 
L 76.228906 23.375003 
L 76.232288 23.371185 
L 76.23567 23.36316 
L 76.279635 23.492647 
L 76.299927 23.475688 
L 76.394621 23.579382 
L 76.425059 23.540845 
L 76.46226 23.611842 
L 76.506225 23.615183 
L 76.908677 24.08473 
L 76.918823 24.052288 
L 76.969552 24.093866 
L 77.064246 23.982535 
L 77.158941 24.069171 
L 77.189378 24.047824 
L 77.196142 24.02906 
L 77.263781 24.133485 
L 77.277309 24.113592 
L 77.497135 24.387362 
L 77.287455 24.09666 
L 77.503899 24.373878 
L 77.544483 24.315565 
L 77.618886 24.347829 
L 77.923261 24.472062 
L 77.926643 24.448983 
L 78.001045 24.366804 
L 78.038247 24.42938 
L 78.07883 24.43604 
L 78.116032 24.345004 
L 78.129559 24.369065 
L 78.20058 24.349193 
L 78.163379 24.41808 
L 78.2344 24.402244 
L 78.247928 24.374334 
L 78.545539 24.518221 
L 78.555685 24.485587 
L 78.623324 24.589526 
L 78.650379 24.571187 
L 78.657143 24.622293 
L 78.75522 24.543991 
L 78.761983 24.57069 
L 78.782275 24.494369 
L 78.856678 24.633517 
L 78.866824 24.604 
L 79.022393 24.793997 
L 79.029157 24.786477 
L 79.083268 24.737345 
L 79.133997 24.815538 
L 79.147525 24.779651 
L 79.24222 24.784718 
L 79.343678 24.735538 
L 79.255748 24.790684 
L 79.357206 24.767578 
L 79.401171 24.743744 
L 79.414699 24.792949 
L 79.465428 24.788323 
L 79.475574 24.830173 
L 79.570269 24.75744 
L 79.705546 24.740243 
L 79.577032 24.772882 
L 79.71231 24.769938 
L 79.759658 24.804166 
L 79.725838 24.742144 
L 79.820533 24.741904 
L 79.898317 24.754154 
L 79.83406 24.781333 
L 79.911845 24.787468 
L 80.016685 24.823062 
L 79.97272 24.747222 
L 80.026831 24.807399 
L 80.185783 24.710432 
L 80.189165 24.725311 
L 80.304151 24.802422 
L 80.310915 24.795623 
L 80.425901 24.742148 
L 80.439429 24.771627 
L 80.45972 24.828231 
L 80.523977 24.74567 
L 80.551033 24.774177 
L 80.977158 24.722216 
L 81.078617 24.739152 
L 81.007596 24.794864 
L 81.088762 24.749816 
L 81.437103 24.753416 
L 81.558853 24.687966 
L 81.460777 24.796205 
L 81.562235 24.713773 
L 81.677221 24.786946 
L 81.687367 24.771772 
L 81.809117 24.732375 
L 81.700895 24.778164 
L 81.812499 24.735146 
L 81.934249 24.812814 
L 81.961305 24.769759 
L 81.995124 24.741118 
L 81.974832 24.781932 
L 82.069527 24.776808 
L 82.106728 24.810502 
L 82.079673 24.756516 
L 82.177749 24.758347 
L 85.336487 24.726261 
L 85.434563 24.668617 
L 85.451473 24.68707 
L 85.576605 24.766908 
L 85.694973 24.689651 
L 85.596897 24.780591 
L 85.701737 24.710954 
L 85.843779 24.751669 
L 85.749084 24.647364 
L 85.847161 24.742586 
L 86.029786 24.636188 
L 85.894508 24.783361 
L 86.033168 24.646287 
L 86.127862 24.689747 
L 86.039932 24.655805 
L 86.131244 24.696834 
L 86.242849 24.785873 
L 86.252994 24.764943 
L 86.337543 24.71873 
L 86.273286 24.697111 
L 86.340925 24.702039 
L 86.408564 24.625345 
L 86.455911 24.702806 
L 86.581043 24.766427 
L 86.472821 24.664079 
L 86.584425 24.759766 
L 87.176266 24.656006 
L 87.199939 24.622649 
L 87.264196 24.718242 
L 87.281106 24.695888 
L 87.402856 24.795095 
L 87.28787 24.692311 
L 87.433294 24.753277 
L 87.63621 24.763191 
L 87.646356 24.726 
L 87.724141 24.637051 
L 87.761342 24.673865 
L 87.835745 24.70788 
L 87.77487 24.659227 
L 87.879711 24.676932 
L 88.021752 24.583065 
L 88.031898 24.591906 
L 88.194232 24.760498 
L 88.082627 24.550262 
L 88.197614 24.744389 
L 88.251725 24.634299 
L 88.315982 24.714548 
L 88.319364 24.725435 
L 88.363329 24.601369 
L 88.40053 24.621303 
L 88.488461 24.619424 
L 88.437732 24.684112 
L 88.505371 24.633318 
L 88.583155 24.646628 
L 88.532426 24.573749 
L 88.613593 24.627444 
L 88.725197 24.546721 
L 88.745489 24.57202 
L 88.769162 24.554581 
L 88.874003 24.592294 
L 88.999135 24.431458 
L 89.029572 24.448868 
L 89.056628 24.514472 
L 89.127649 24.4072 
L 89.131031 24.407374 
L 89.168232 24.393217 
L 89.18176 24.330569 
L 89.195288 24.320037 
L 89.310274 24.228033 
L 89.344093 24.312511 
L 89.354239 24.358011 
L 89.438788 24.240856 
L 89.44217 24.245987 
L 89.570684 24.14528 
L 89.658614 24.232879 
L 89.689052 24.203842 
L 89.770219 24.172878 
L 89.712725 24.252392 
L 89.80742 24.210565 
L 89.841239 24.145485 
L 89.922406 24.219042 
L 90.040774 24.1089 
L 89.932552 24.22384 
L 90.05092 24.136048 
L 90.186198 24.182742 
L 90.199726 24.165437 
L 90.301184 24.001547 
L 90.355295 24.071619 
L 90.443226 24.096552 
L 90.412788 24.049754 
L 90.460136 24.052575 
L 90.541302 23.925009 
L 90.585268 23.94759 
L 90.65967 24.001934 
L 90.720545 23.916156 
L 90.805094 23.814665 
L 90.852441 23.847794 
L 90.991101 23.854521 
L 90.997865 23.827598 
L 91.035066 23.914993 
L 91.068886 23.862466 
" clip-path="url(#p2898cdf044)" style="fill: none; stroke: #000000; stroke-width: 0.6; stroke-linecap: square"/>
   </g>
   <g id="line2d_2">
    <path d="M 9.905557 41.827554 
L 9.952904 41.750498 
L 10.000252 41.77822 
L 10.017161 41.709558 
L 10.078036 41.824111 
L 10.111856 41.791117 
L 10.531217 41.873127 
L 10.534599 41.851099 
L 10.666495 41.7162 
L 10.740898 41.644118 
L 10.818683 41.845741 
L 10.855884 41.841375 
L 10.828828 41.824374 
L 10.886321 41.761526 
L 11.041891 41.747234 
L 11.089238 41.794721 
L 11.068947 41.734807 
L 11.153495 41.760433 
L 11.24819 41.707634 
L 11.268481 41.7465 
L 11.295537 41.780367 
L 11.35303 41.6938 
L 11.373322 41.715416 
L 11.424051 41.688391 
L 11.47478 41.756005 
L 11.572857 41.837567 
L 11.583002 41.849597 
L 11.640495 41.728546 
L 11.650641 41.743978 
L 11.660787 41.703811 
L 11.681079 41.767372 
L 11.755482 41.772196 
L 11.758864 41.790494 
L 11.843412 41.663673 
L 11.850176 41.675848 
L 11.917815 41.724261 
L 11.951635 41.637062 
L 12.08353 41.528931 
L 11.96178 41.662443 
L 12.124114 41.602834 
L 12.249246 41.704617 
L 12.161315 41.535693 
L 12.252628 41.694526 
L 12.286447 41.651822 
L 12.327031 41.747723 
L 12.36085 41.701418 
L 12.391288 41.744388 
L 12.435253 41.621846 
L 12.452163 41.640324 
L 12.51642 41.752728 
L 12.611114 41.761959 
L 12.567149 41.723303 
L 12.62126 41.730996 
L 12.63817 41.665892 
L 12.695663 41.755698 
L 12.729482 41.75268 
L 13.466746 41.632264 
L 13.520858 41.690017 
L 13.578351 41.662957 
L 13.659517 41.593782 
L 13.710247 41.682775 
L 13.757594 41.779325 
L 13.835379 41.697711 
L 13.879344 41.687468 
L 13.862434 41.737508 
L 13.943601 41.724712 
L 13.946983 41.719329 
L 13.99433 41.833882 
L 14.007858 41.826682 
L 14.031531 41.8691 
L 14.11608 41.795467 
L 14.812761 41.504362 
L 14.136372 41.855375 
L 14.849962 41.63244 
L 14.8804 41.701453 
L 14.951421 41.571883 
L 14.954803 41.592456 
L 15.201685 41.447238 
L 15.323435 41.362263 
L 15.242268 41.471004 
L 15.326817 41.373085 
L 15.502678 41.285013 
L 15.357254 41.42524 
L 15.509442 41.312256 
L 15.708977 41.380296 
L 15.813817 41.411402 
L 15.742796 41.363989 
L 15.820581 41.400933 
L 15.942331 41.108336 
L 15.966005 41.121361 
L 15.986296 41.153578 
L 16.064081 41.065443 
L 16.155394 41.011955 
L 16.185831 41.020573 
L 16.226415 41.10682 
L 16.300817 41.018213 
L 16.354929 41.038028 
L 16.436095 40.928966 
L 16.662686 40.798965 
L 16.66945 40.823693 
L 16.716797 40.870309 
L 16.764144 40.776595 
L 16.770908 40.77665 
L 17.021172 40.57055 
L 16.814873 40.81981 
L 17.027936 40.599657 
L 17.088811 40.639276 
L 17.132776 40.580233 
L 17.251144 40.522867 
L 17.149686 40.613781 
L 17.257908 40.534308 
L 17.339075 40.449694 
L 17.352603 40.409515 
L 17.386422 40.488102 
L 17.440533 40.485122 
L 17.5217 40.434398 
L 17.558901 40.498157 
L 17.656978 40.30424 
L 17.727999 40.391465 
L 17.7652 40.401389 
L 17.792256 40.327553 
L 17.826075 40.352889 
L 17.937679 40.282371 
L 17.947825 40.288149 
L 17.957971 40.324795 
L 18.049284 40.218732 
L 18.157506 40.2126 
L 18.171034 40.228148 
L 18.28602 40.237208 
L 18.191325 40.193786 
L 18.292784 40.216286 
L 18.306312 40.197583 
L 18.373951 40.266184 
L 18.397624 40.243088 
L 18.455117 40.296726 
L 18.495701 40.211347 
L 18.502464 40.189213 
L 18.536284 40.281115 
L 18.597159 40.261538 
L 18.712145 40.119023 
L 18.75611 40.169563 
L 18.888006 39.968925 
L 18.762874 40.182491 
L 18.942118 40.058143 
L 19.040194 40.037585 
L 18.982701 39.998755 
L 19.046958 40.022012 
L 19.226201 39.83408 
L 19.236347 39.843306 
L 19.297222 39.901887 
L 19.331041 39.792829 
L 19.334423 39.785511 
L 19.391916 39.864334 
L 19.41559 39.866807 
L 19.449409 39.906745 
L 19.500139 39.811703 
L 19.523812 39.836161 
L 19.588069 39.838235 
L 19.533958 39.802592 
L 19.611743 39.771445 
L 19.753785 39.556972 
L 19.818042 39.600248 
L 19.76393 39.547982 
L 19.862007 39.540022 
L 19.872153 39.488205 
L 19.963465 39.586194 
L 19.990521 39.598232 
L 20.051396 39.508357 
L 20.085215 39.530584 
L 20.176528 39.446178 
L 20.477521 39.112859 
L 20.480903 39.11924 
L 20.484285 39.127468 
L 20.538396 38.98322 
L 20.70073 38.800451 
L 20.704112 38.806001 
L 20.710875 38.839734 
L 20.798806 38.695862 
L 21.001723 38.438503 
L 21.224931 36.671063 
L 21.255369 29.237699 
L 21.299334 38.858591 
L 21.319626 39.42176 
L 21.400792 38.194327 
L 21.465049 34.672547 
L 21.475195 30.070526 
L 21.532688 39.517464 
L 21.566508 38.912312 
L 21.664584 34.174457 
L 21.67473 30.778912 
L 21.728841 39.158861 
L 21.766043 38.4144 
L 21.840445 35.052997 
L 21.853973 31.804326 
L 21.904702 38.590955 
L 21.941904 37.838347 
L 22.012925 33.534847 
L 22.019689 33.102597 
L 22.070418 37.724024 
L 22.083946 37.584294 
L 22.171876 34.765846 
L 22.303772 35.804087 
L 22.313918 35.791335 
L 22.361265 35.965683 
L 22.368029 35.956075 
L 22.398467 36.007795 
L 22.479633 35.933213 
L 22.520217 36.012019 
L 22.587856 35.949339 
L 22.685932 36.020206 
L 22.702842 35.964079 
L 22.709606 35.949802 
L 22.770481 36.065964 
L 22.800918 36.005644 
L 22.929432 36.076597 
L 22.94296 36.064406 
L 23.071474 36.12096 
L 23.125585 36.169196 
L 23.085002 36.112838 
L 23.183078 36.13422 
L 23.345412 36.269323 
L 23.193224 36.116978 
L 23.375849 36.233236 
L 23.406287 36.209618 
L 23.42996 36.291914 
L 23.473926 36.288708 
L 23.561856 36.380414 
L 23.602439 36.363894 
L 23.609203 36.346627 
L 23.653169 36.410499 
L 23.697134 36.420517 
L 23.82903 36.5467 
L 23.761391 36.393238 
L 23.832412 36.537111 
L 23.920342 36.500043 
L 23.852704 36.561173 
L 23.944016 36.5523 
L 24.048856 36.721937 
L 24.069148 36.682087 
L 24.075912 36.66924 
L 24.123259 36.79105 
L 24.143551 36.783417 
L 24.170606 36.771154 
L 24.285593 36.975326 
L 24.288975 36.962599 
L 24.366759 37.099586 
L 24.373523 37.08232 
L 24.441162 37.252712 
L 24.589968 37.458559 
L 24.59335 37.450517 
L 24.596732 37.44249 
L 24.647461 37.605948 
L 24.718482 37.732681 
L 25.117551 38.574751 
L 25.124315 38.56998 
L 25.164899 38.690929 
L 25.347524 39.17826 
L 25.354288 39.177157 
L 27.024969 42.127205 
L 25.371197 39.154546 
L 27.035115 42.101388 
L 27.1129 42.022868 
L 27.150101 42.068093 
L 27.231268 42.124941 
L 27.281997 42.061463 
L 27.383455 42.003415 
L 27.413893 42.069763 
L 27.515351 42.113191 
L 27.528879 42.092726 
L 27.630338 42.060737 
L 27.552553 42.11915 
L 27.643865 42.082805 
L 27.674303 42.146746 
L 27.748706 42.046994 
L 27.752088 42.062466 
L 27.799435 41.995386 
L 27.856928 42.0866 
L 28.069991 42.157171 
L 28.073372 42.149671 
L 28.181595 42.074417 
L 28.097046 42.176633 
L 28.191741 42.083437 
L 28.195123 42.120758 
L 28.276289 42.010809 
L 28.299963 42.06915 
L 28.3304 42.018569 
L 28.398039 42.111918 
L 28.401421 42.107744 
L 28.448769 42.079634 
L 28.516407 42.117034 
L 28.678741 41.984305 
L 28.682123 42.000557 
L 28.742998 42.082436 
L 28.797109 42.038537 
L 28.837692 42.01027 
L 28.891803 42.080504 
L 28.901949 42.061759 
L 28.949297 42.13234 
L 28.908713 42.055222 
L 29.013554 42.075133 
L 29.064283 41.972038 
L 29.142068 41.894673 
L 29.087956 41.980375 
L 29.182651 41.935233 
L 29.192797 41.906434 
L 29.321311 42.036119 
L 29.33822 42.07197 
L 29.449825 42.006587 
L 29.463352 42.033281 
L 29.551283 41.963077 
L 29.63245 41.95888 
L 29.652741 42.013003 
L 29.700089 41.962233 
L 29.777873 42.074361 
L 29.879332 41.979416 
L 29.784637 42.080288 
L 29.909769 42.030952 
L 29.970644 42.071341 
L 29.933443 42.003806 
L 30.01461 41.994873 
L 30.132978 41.996434 
L 30.13636 41.988532 
L 30.156651 41.941255 
L 30.170179 42.018811 
L 30.237818 42.0361 
L 30.477936 41.98259 
L 30.481318 42.017876 
L 30.548957 41.87227 
L 30.576013 41.872867 
L 30.738346 41.857556 
L 30.74511 41.883015 
L 30.802603 41.911461 
L 30.846568 41.821989 
L 30.917589 41.893937 
L 30.9717 41.863604 
L 31.130652 41.891717 
L 31.134034 41.883072 
L 31.198291 41.87341 
L 31.225346 41.945982 
L 31.330187 41.93608 
L 31.276076 41.859481 
L 31.336951 41.930596 
L 31.478992 41.813594 
L 31.489138 41.842413 
L 31.583833 41.883706 
L 31.607506 41.845998 
L 32.091125 41.647362 
L 32.216257 41.593459 
L 32.233166 41.640321 
L 32.23993 41.624592 
L 32.365062 41.624096 
L 32.375208 41.628816 
L 32.520632 41.374404 
L 32.584889 41.392389 
L 32.628854 41.334124 
L 32.632236 41.32422 
L 32.699875 41.459644 
L 32.716785 41.408735 
L 32.774278 41.469631 
L 32.740458 41.385568 
L 32.825007 41.383891 
L 32.831771 41.39009 
L 32.889264 41.286304 
L 32.892646 41.290856 
L 33.197021 40.973647 
L 33.203785 40.980688 
L 33.298479 41.070918 
L 33.322153 41.013191 
L 33.42023 40.893708 
L 33.440521 40.950887 
L 33.528452 41.016634 
L 33.477723 40.9299 
L 33.552125 40.96887 
L 33.643438 41.009398 
L 33.602855 41.031703 
L 33.64682 41.023593 
L 33.755042 41.046547 
L 33.677257 40.968543 
L 33.778716 41.012448 
L 33.815917 40.977112 
L 33.849737 41.083364 
L 33.886938 41.024263 
L 33.89032 41.035245 
L 33.968105 40.917856 
L 34.079709 40.849024 
L 33.981633 40.94142 
L 34.093237 40.87829 
L 34.184549 40.868644 
L 34.140584 40.839905 
L 34.198077 40.8495 
L 34.407758 40.689462 
L 34.41114 40.691579 
L 34.488925 40.692275 
L 34.424668 40.661366 
L 34.505834 40.646013 
L 34.634348 40.446122 
L 34.539654 40.693366 
L 34.647876 40.472065 
L 34.742571 40.497024 
L 34.75948 40.482847 
L 34.803446 40.441531 
L 34.871085 40.477971 
L 35.101057 40.337204 
L 35.114585 40.31793 
L 35.172078 40.395287 
L 35.209279 40.348586 
L 35.212661 40.364749 
L 35.276918 40.289574 
L 35.307356 40.298813 
L 35.398668 40.301619 
L 35.38514 40.337523 
L 35.412196 40.328966 
L 35.733481 40.175689 
L 35.736863 40.201685 
L 35.757154 40.262497 
L 35.821411 40.179025 
L 35.845085 40.203169 
L 36.014182 40.090476 
L 36.017564 40.130098 
L 36.135932 40.125763 
L 36.031092 40.109004 
L 36.14946 40.109521 
L 36.196807 40.079502 
L 36.254301 40.146596 
L 36.257682 40.138154 
L 36.308412 40.087549 
L 36.372669 40.148127 
L 36.538384 40.103361 
L 36.541766 40.108381 
L 36.572203 40.162905 
L 36.63646 40.051227 
L 36.717627 40.073207 
L 36.697336 40.126825 
L 36.731155 40.100453 
L 36.771738 40.148204 
L 36.798794 40.051705 
L 36.829231 40.04898 
L 36.839377 40.013953 
L 36.893488 40.092584 
L 36.934072 40.08414 
L 36.950981 40.115078 
L 37.03553 40.033602 
L 37.160662 39.936455 
L 37.164044 39.947437 
L 37.167426 39.953718 
L 37.235065 39.851995 
L 37.241829 39.864563 
L 37.251975 39.881457 
L 37.40078 39.803785 
L 37.505621 39.958313 
L 37.529294 39.905567 
L 37.647662 39.855522 
L 37.718683 39.999733 
L 37.772794 39.951457 
L 37.884399 39.883447 
L 37.901308 39.901262 
L 37.908072 39.927982 
L 37.972329 39.854852 
L 38.009531 39.879813 
L 38.114371 39.8332 
L 38.067024 39.903272 
L 38.121135 39.869373 
L 38.242885 39.758914 
L 38.263177 39.811918 
L 38.273322 39.850068 
L 38.351107 39.784899 
L 38.374781 39.820839 
L 38.44242 39.837321 
L 38.479621 39.759187 
L 38.567552 39.633425 
L 38.797524 39.532615 
L 38.821198 39.568803 
L 38.861781 39.518694 
L 38.959858 39.571816 
L 39.003823 39.487629 
L 39.078226 39.496296 
L 39.081608 39.509894 
L 39.152629 39.39826 
L 39.17292 39.437497 
L 39.29467 39.349952 
L 39.318344 39.34064 
L 39.348781 39.437595 
L 39.352163 39.451399 
L 39.429948 39.32981 
L 39.440094 39.358738 
L 39.541552 39.363176 
L 39.551698 39.393151 
L 39.649775 39.406827 
L 39.575372 39.364636 
L 39.656539 39.392278 
L 39.686976 39.316508 
L 39.768143 39.360094 
L 39.774907 39.381247 
L 39.856073 39.303926 
L 39.869601 39.323268 
L 39.896657 39.251655 
L 39.984587 39.299514 
L 39.987969 39.315434 
L 40.079282 39.227941 
L 40.09281 39.208865 
L 40.160449 39.295923 
L 40.170594 39.277124 
L 40.177358 39.305412 
L 40.238233 39.216835 
L 40.268671 39.215896 
L 40.454678 39.010949 
L 40.275435 39.223627 
L 40.464824 39.022383 
L 40.491879 39.057071 
L 40.552754 38.960901 
L 40.559518 38.972202 
L 40.688032 38.872493 
L 40.698178 38.87617 
L 40.759053 38.912394 
L 40.819928 38.868317 
L 40.985643 38.759489 
L 41.002553 38.782824 
L 41.08372 38.791826 
L 41.0499 38.748752 
L 41.104012 38.752607 
L 41.350894 38.409803 
L 41.117539 38.775038 
L 41.371185 38.435709 
L 41.374567 38.461093 
L 41.462498 38.301487 
L 41.469262 38.315475 
L 41.58763 37.938511 
L 41.695852 37.148977 
L 41.729672 33.730359 
L 41.743199 29.658571 
L 41.807456 39.907539 
L 41.824366 39.813781 
L 41.96979 37.199881 
L 41.990081 33.626107 
L 42.000227 28.896533 
L 42.061102 40.590751 
L 42.09154 40.207803 
L 42.253873 35.61451 
L 42.267401 28.857921 
L 42.328276 40.735226 
L 42.355332 40.37198 
L 42.510901 37.173587 
L 42.531193 31.425751 
L 42.537957 28.887469 
L 42.598832 40.785744 
L 42.625887 40.474271 
L 42.801749 35.97753 
L 42.815276 28.942421 
L 42.876151 40.857469 
L 42.896443 40.642954 
L 43.011429 38.587871 
L 43.089214 35.407751 
L 43.102742 29.023482 
L 43.160235 40.928031 
L 43.190672 40.621702 
L 43.386825 36.092525 
L 43.400353 28.987812 
L 43.461228 41.011922 
L 43.48152 40.813815 
L 43.704728 36.788102 
L 43.72502 28.983619 
L 43.772367 40.304229 
L 43.789277 41.038436 
L 43.877207 39.826791 
L 44.053069 35.33645 
L 44.066596 28.959882 
L 44.127471 41.108259 
L 44.151145 40.916617 
L 44.414937 36.489821 
L 44.435229 29.058005 
L 44.492722 41.067192 
L 44.496104 41.085025 
L 44.533305 40.737323 
L 44.807243 36.517818 
L 44.827534 29.215671 
L 44.878264 40.799129 
L 44.891791 41.042559 
L 44.969576 40.191916 
L 45.240132 35.633754 
L 45.257042 29.637771 
L 45.321299 40.907394 
L 45.334826 40.788592 
L 45.395701 40.086226 
L 45.679785 34.775644 
L 45.693313 29.883041 
L 45.75757 40.834916 
L 45.777861 40.692645 
L 46.146493 34.200978 
L 46.160021 30.291077 
L 46.224278 40.685293 
L 46.241188 40.597187 
L 46.697751 34.758205 
L 46.71466 31.95943 
L 46.785681 39.857825 
L 46.789063 39.869372 
L 46.819501 39.614946 
L 47.171223 35.891854 
L 47.194897 31.873167 
L 47.245626 39.555434 
L 47.262536 39.928105 
L 47.347084 39.176525 
L 47.590584 37.538825 
L 47.593966 37.543131 
L 47.685279 37.411407 
L 47.719098 37.486912 
L 47.725862 37.48918 
L 47.742772 37.576922 
L 47.749536 37.578704 
L 47.949071 38.08353 
L 48.111404 38.307789 
L 48.162133 38.423225 
L 48.354904 38.792863 
L 48.36505 38.773018 
L 48.375196 38.74414 
L 48.469891 38.96383 
L 48.638988 39.313116 
L 48.64237 39.30717 
L 48.679571 39.256767 
L 48.726918 39.397915 
L 48.753974 39.406278 
L 48.770884 39.495022 
L 48.801321 39.488491 
L 48.929835 39.740882 
L 48.933217 39.730764 
L 48.983946 39.913166 
L 49.173335 40.32495 
L 49.180099 40.320362 
L 49.183481 40.314778 
L 49.224065 40.452225 
L 49.227446 40.449736 
L 49.261266 40.408006 
L 49.410072 41.025261 
L 49.734738 41.913999 
L 50.049259 42.197061 
L 49.751648 41.886294 
L 50.066169 42.163415 
L 50.262322 42.246091 
L 50.269086 42.256872 
L 50.336725 42.144318 
L 50.340107 42.149509 
L 50.370544 42.072651 
L 50.478767 42.154819 
L 50.593753 42.105745 
L 50.739176 42.178302 
L 50.74594 42.165585 
L 50.844017 42.055505 
L 50.877836 42.104471 
L 50.992822 42.167441 
L 51.02326 42.134427 
L 51.073989 42.023004 
L 51.148392 42.09393 
L 51.175448 42.13175 
L 51.239705 42.041223 
L 51.246468 42.040237 
L 51.26676 42.094039 
L 51.42233 42.019281 
L 51.425712 42.032607 
L 51.506878 41.939523 
L 51.517024 41.960891 
L 51.604955 41.941428 
L 51.560989 42.011258 
L 51.625246 41.973211 
L 51.692885 42.004538 
L 51.726705 41.923659 
L 51.953295 42.065103 
L 51.970205 42.012255 
L 52.058136 41.919066 
L 51.983733 42.015688 
L 52.098719 41.947061 
L 52.129156 41.917341 
L 52.166358 42.022718 
L 52.203559 41.98167 
L 52.392948 41.988335 
L 52.399712 41.96902 
L 52.572191 41.889354 
L 52.406476 41.975108 
L 52.575573 41.896612 
L 52.63983 41.830977 
L 52.683796 41.881532 
L 52.785254 41.766862 
L 52.808928 41.794633 
L 52.842747 41.866638 
L 52.876567 41.862815 
L 52.88333 41.902039 
L 52.967879 41.767006 
L 52.971261 41.773732 
L 53.106539 41.630699 
L 53.116685 41.636661 
L 53.231671 41.719229 
L 53.238435 41.711735 
L 53.353421 41.621604 
L 53.356803 41.624521 
L 53.370331 41.658744 
L 53.451497 41.559976 
L 53.458261 41.591284 
L 53.546192 41.483675 
L 53.580011 41.491456 
L 53.593539 41.451575 
L 53.64765 41.526335 
L 53.688234 41.512525 
L 53.759255 41.525544 
L 53.789692 41.465564 
L 54.205671 41.065006 
L 54.276692 40.916261 
L 54.327421 40.985264 
L 54.330803 40.98978 
L 54.361241 40.91366 
L 54.408588 40.912907 
L 54.513429 40.829793 
L 54.53372 40.858854 
L 54.719727 40.783452 
L 54.800894 40.809363 
L 54.756929 40.764229 
L 54.824568 40.753877 
L 54.831331 40.736913 
L 54.895588 40.876956 
L 54.905734 40.841318 
L 54.926026 40.864141 
L 54.980137 40.753896 
L 54.983519 40.760671 
L 55.057922 40.724206 
L 55.068068 40.782855 
L 55.095123 40.749385 
L 55.206728 40.783123 
L 55.118797 40.707131 
L 55.213491 40.780856 
L 55.392735 40.614663 
L 55.423172 40.643237 
L 55.511103 40.527791 
L 55.585506 40.581218 
L 55.521249 40.547264 
L 55.588887 40.597031 
L 55.626089 40.631297 
L 55.642999 40.558877 
L 55.686964 40.555142 
L 55.805332 40.378613 
L 55.812096 40.385564 
L 55.967665 40.511491 
L 56.160436 40.308112 
L 56.173964 40.345696 
L 56.258513 40.420133 
L 56.18411 40.342117 
L 56.292332 40.363057 
L 56.302478 40.336176 
L 56.336298 40.428136 
L 56.393791 40.401824 
L 56.414082 40.432323 
L 56.471575 40.346388 
L 56.502013 40.374621 
L 56.569652 40.29079 
L 56.512159 40.383083 
L 56.623763 40.320837 
L 56.633909 40.299779 
L 56.813152 40.366993 
L 56.924756 40.272042 
L 56.823298 40.378455 
L 56.945048 40.323212 
L 57.039742 40.30847 
L 57.002541 40.270235 
L 57.05327 40.29303 
L 57.060034 40.306426 
L 57.476013 39.896495 
L 57.503069 39.868977 
L 57.567326 39.914121 
L 57.584236 39.906036 
L 57.628201 40.01517 
L 57.71275 40.075307 
L 57.743187 40.044502 
L 58.057708 40.026074 
L 58.152403 40.028585 
L 58.081382 39.985188 
L 58.162549 39.991094 
L 58.375611 40.024211 
L 58.382375 39.998363 
L 58.473688 39.939426 
L 58.42634 40.037661 
L 58.500743 39.963978 
L 58.544709 40.014262 
L 58.592056 39.901982 
L 58.608965 39.874742 
L 58.666459 39.981536 
L 58.690132 39.976347 
L 58.923486 40.038421 
L 58.926868 40.02843 
L 59.058764 39.939058 
L 59.136549 39.947522 
L 59.099348 39.887461 
L 59.170369 39.929533 
L 59.366521 40.017223 
L 59.376667 39.990164 
L 59.380049 39.95627 
L 59.461216 40.082808 
L 59.481508 40.012327 
L 59.501799 40.033516 
L 59.542383 39.953278 
L 59.58973 39.990164 
L 59.765591 39.89654 
L 59.81632 39.838356 
L 59.846758 39.917798 
L 59.873813 39.900013 
L 59.982036 40.065349 
L 60.019237 40.042796 
L 60.103786 39.971785 
L 60.161279 40.000436 
L 60.252591 40.00639 
L 60.201862 39.962801 
L 60.269501 39.980341 
L 60.381105 39.962871 
L 60.343904 40.022197 
L 60.384487 39.980705 
L 60.387869 39.993853 
L 60.45889 39.879992 
L 60.479182 39.905871 
L 60.61446 39.841956 
L 60.627987 39.873027 
L 60.682099 39.916863 
L 60.634751 39.866883 
L 60.73621 39.85499 
L 60.885015 39.685976 
L 60.966182 39.716565 
L 61.000002 39.688489 
L 61.06764 39.570376 
L 61.142043 39.647328 
L 61.179245 39.669632 
L 61.209682 39.588705 
L 61.24012 39.596973 
L 61.541113 39.789658 
L 61.246884 39.583054 
L 61.544495 39.772633 
L 61.652717 39.647958 
L 61.673009 39.698685 
L 61.683155 39.738849 
L 61.767703 39.611788 
L 61.771085 39.618014 
L 61.845488 39.532647 
L 61.886071 39.583389 
L 61.95371 39.643166 
L 61.997676 39.59671 
L 62.36969 39.772271 
L 62.471148 39.727337 
L 62.494822 39.789636 
L 62.748468 39.807164 
L 62.758614 39.774207 
L 62.785669 39.786628 
L 62.917565 39.665533 
L 63.035933 39.712419 
L 62.988586 39.614965 
L 63.039315 39.709573 
L 63.123864 39.760667 
L 63.069753 39.675156 
L 63.161065 39.710734 
L 63.292961 39.650128 
L 63.455295 39.823844 
L 63.306489 39.635319 
L 63.46544 39.798564 
L 63.898329 39.542591 
L 63.938913 39.616438 
L 64.219614 39.826451 
L 64.226378 39.807553 
L 64.290635 39.767612 
L 64.270344 39.838517 
L 64.334601 39.827963 
L 64.419149 39.846051 
L 64.358274 39.773381 
L 64.446205 39.816509 
L 64.483406 39.776248 
L 64.544281 39.856305 
L 64.615302 39.99663 
L 64.669413 39.9354 
L 64.808073 39.830519 
L 64.686323 39.95182 
L 64.824983 39.851979 
L 64.912913 39.852937 
L 64.852038 39.806904 
L 64.933205 39.831563 
L 64.960261 39.791405 
L 65.01099 39.863873 
L 65.044809 39.831533 
L 65.430351 39.929034 
L 65.518282 39.99107 
L 65.545337 39.953477 
L 65.592685 40.007548 
L 65.555483 39.941295 
L 65.650178 39.926981 
L 65.748254 39.855889 
L 65.660323 39.956693 
L 65.77531 39.872103 
L 65.832803 39.796915 
L 65.893678 39.934622 
L 65.89706 39.924632 
L 65.971463 40.038629 
L 65.988372 40.077531 
L 66.059393 39.993842 
L 66.076303 40.010438 
L 66.079685 40.005437 
L 66.116886 40.109123 
L 66.130414 40.108811 
L 66.147324 40.135477 
L 66.184525 40.084778 
L 66.242018 40.104792 
L 66.302893 40.119423 
L 66.333331 40.063642 
L 66.346859 40.073903 
L 66.651234 40.241942 
L 66.657998 40.221507 
L 66.698581 40.153949 
L 66.772984 40.192688 
L 66.918408 40.093488 
L 66.786512 40.218908 
L 66.928553 40.107643 
L 66.942081 40.088264 
L 67.117942 40.302131 
L 67.216019 40.29449 
L 67.229547 40.249563 
L 67.405408 40.152051 
L 67.415554 40.175736 
L 67.483193 40.209668 
L 67.51363 40.123123 
L 67.517012 40.132856 
L 67.54745 40.083361 
L 67.608325 40.178123 
L 67.61847 40.15656 
L 67.692873 40.181978 
L 67.713165 40.121021 
L 67.719929 40.127522 
L 67.821387 40.072 
L 67.79095 40.15893 
L 67.834915 40.083664 
L 67.943137 40.218474 
L 67.956665 40.189 
L 67.970193 40.16191 
L 67.997248 40.274109 
L 68.047978 40.252116 
L 68.142672 40.377156 
L 68.176492 40.324774 
L 68.308387 40.283582 
L 68.315151 40.310492 
L 68.345589 40.344173 
L 68.403082 40.256629 
L 68.419992 40.264125 
L 68.433519 40.289327 
L 68.467339 40.185649 
L 68.518068 40.190711 
L 68.548506 40.166039 
L 68.602617 40.271348 
L 68.609381 40.263792 
L 68.622908 40.233107 
L 68.646582 40.397592 
L 68.846117 41.564011 
L 69.329735 41.831538 
L 69.431194 41.791877 
L 69.448103 41.817382 
L 69.637492 41.898421 
L 69.644256 41.877819 
L 69.766006 41.879112 
L 69.657784 41.899945 
L 69.77277 41.895065 
L 69.874229 41.927464 
L 69.820117 41.868599 
L 69.884374 41.903411 
L 70.094055 42.072152 
L 70.110965 42.040069 
L 70.239479 41.841119 
L 70.428868 41.896956 
L 70.445777 41.843668 
L 70.540472 41.80686 
L 70.493125 41.898595 
L 70.564146 41.819577 
L 70.723097 41.977982 
L 70.726479 41.975971 
L 70.969979 42.004072 
L 70.976743 41.967363 
L 71.149222 41.814053 
L 71.044382 42.024179 
L 71.17966 41.849296 
L 71.298028 41.92488 
L 71.220243 41.814222 
L 71.314938 41.904181 
L 71.40625 41.864925 
L 71.365667 41.936823 
L 71.426542 41.908269 
L 71.521236 41.927777 
L 71.480653 42.017617 
L 71.524618 41.941357 
L 71.548292 41.987682 
L 71.599021 41.894128 
L 71.632841 41.928106 
L 71.636223 41.932439 
L 71.697098 41.838547 
L 71.70048 41.842259 
L 71.828994 41.827932 
L 71.835757 41.835258 
L 71.866195 41.906221 
L 71.930452 41.804039 
L 71.94398 41.811452 
L 72.018383 41.797008 
L 72.045438 41.854243 
L 72.39716 41.686695 
L 72.488473 41.699726 
L 72.461417 41.627738 
L 72.502001 41.653513 
L 72.90107 41.381758 
L 72.53582 41.715006 
L 72.911216 41.407004 
L 73.076932 41.415902 
L 72.928126 41.368047 
L 73.080314 41.392083 
L 73.198682 41.308049 
L 73.110751 41.41751 
L 73.205446 41.323678 
L 73.503057 41.168257 
L 73.584224 41.081652 
L 73.634953 41.107058 
L 73.709356 41.091862 
L 73.651863 41.141862 
L 73.736411 41.136031 
L 73.739793 41.155302 
L 73.800668 41.012642 
L 73.831106 41.037364 
L 73.94271 40.928012 
L 73.95962 40.953917 
L 73.976529 40.966361 
L 74.000203 40.862483 
L 74.061078 40.902598 
L 74.196356 40.800012 
L 74.199738 40.810633 
L 74.274141 40.698794 
L 74.382363 40.506394 
L 74.4128 40.558104 
L 74.497349 40.584905 
L 74.443238 40.525054 
L 74.531169 40.568357 
L 74.683356 40.284196 
L 74.713794 40.302867 
L 74.805106 40.325925 
L 74.825398 40.294693 
L 75.19403 40.330789 
L 75.200794 40.296829 
L 75.281961 40.26523 
L 75.312398 40.309177 
L 75.319162 40.325334 
L 75.396947 40.204138 
L 75.400329 40.208535 
L 75.447676 40.151011 
L 75.410475 40.214427 
L 75.508551 40.235744 
L 75.511933 40.239611 
L 75.542371 40.127554 
L 75.549134 40.12408 
L 75.552516 40.111916 
L 75.630301 40.239952 
L 75.71485 40.31585 
L 75.640447 40.229633 
L 75.738523 40.218092 
L 76.022607 39.824714 
L 76.025989 39.827971 
L 76.124065 39.887484 
L 76.066572 39.813121 
L 76.151121 39.871365 
L 76.249197 39.827542 
L 76.18494 39.8856 
L 76.266107 39.876548 
L 76.310072 39.804526 
L 76.370947 39.839297 
L 76.976316 39.619034 
L 76.993226 39.654783 
L 76.996607 39.664285 
L 77.057482 39.538263 
L 77.07101 39.549199 
L 78.173525 39.053305 
L 78.291893 38.833097 
L 78.312185 38.863139 
L 78.359532 38.888551 
L 78.393351 38.773494 
L 78.403497 38.785308 
L 78.525247 38.612456 
L 78.423789 38.796267 
L 78.538775 38.624681 
L 78.745074 38.161433 
L 78.920935 35.118864 
L 78.941227 29.443918 
L 79.002102 39.730725 
L 79.015629 39.683284 
L 79.174581 35.835976 
L 79.188109 29.376041 
L 79.248984 40.233509 
L 79.272657 39.943157 
L 79.404553 37.091553 
L 79.424845 31.693387 
L 79.431609 29.325619 
L 79.489102 40.34438 
L 79.519539 39.906223 
L 79.651435 36.291879 
L 79.668345 29.462864 
L 79.725838 40.401204 
L 79.742748 40.174149 
L 79.891553 35.784759 
L 79.905081 29.479721 
L 79.965956 40.391894 
L 79.98963 40.055233 
L 80.131672 35.299683 
L 80.145199 29.58973 
L 80.202693 40.517098 
L 80.23313 40.043975 
L 80.368408 36.895199 
L 80.392082 29.454197 
L 80.436047 39.901366 
L 80.449575 40.61303 
L 80.537505 39.100167 
L 80.635582 35.840512 
L 80.649109 29.218657 
L 80.709984 40.75141 
L 80.733658 40.480412 
L 80.909519 36.04574 
L 80.923047 29.101388 
L 80.983922 40.908392 
L 81.004214 40.709132 
L 81.200367 36.666289 
L 81.220658 28.990432 
L 81.274769 40.95073 
L 81.278151 41.015645 
L 81.34579 40.1965 
L 81.531797 35.742708 
L 81.545325 28.982315 
L 81.6062 41.048934 
L 81.629874 40.828937 
L 81.873374 35.986369 
L 81.890284 29.061383 
L 81.951159 41.104203 
L 81.968068 40.973875 
L 82.242006 36.764574 
L 82.26568 29.16902 
L 82.306263 39.484445 
L 82.329937 41.047221 
L 82.417867 40.009802 
L 82.654604 35.712491 
L 82.671513 29.494137 
L 82.73577 40.933087 
L 82.749298 40.814613 
L 83.060437 36.06661 
L 83.077347 29.539438 
L 83.144986 40.98334 
L 83.469653 37.501423 
L 83.520382 35.527754 
L 83.537292 29.95415 
L 83.601549 40.789504 
L 83.611694 40.728674 
L 83.98709 36.334352 
L 84.010764 30.546265 
L 84.054729 39.80006 
L 84.075021 40.560037 
L 84.162952 39.659521 
L 84.443653 37.424607 
L 84.518056 37.152361 
L 84.565403 37.041943 
L 84.609369 37.270766 
L 84.856251 38.099253 
L 84.859633 38.081357 
L 85.224883 38.419231 
L 85.495438 38.966553 
L 85.51573 38.942723 
L 85.552932 39.060146 
L 85.559695 39.042764 
L 85.674682 39.222634 
L 85.681446 39.200948 
L 85.728793 39.165957 
L 85.769376 39.272753 
L 85.779522 39.24947 
L 85.952001 39.640351 
L 85.968911 39.623994 
L 85.972293 39.617465 
L 86.026404 39.739989 
L 86.165064 40.001243 
L 86.168446 39.989702 
L 86.185356 39.984164 
L 86.236085 40.100823 
L 86.388272 40.340248 
L 86.584425 40.648772 
L 86.719703 40.838442 
L 86.597953 40.644914 
L 86.729849 40.816059 
L 86.736613 40.770752 
L 86.794106 40.88716 
L 86.831307 40.87321 
L 86.892182 40.858852 
L 86.858363 40.902851 
L 86.926002 40.929736 
L 87.122155 41.21797 
L 87.176266 41.19775 
L 87.213467 41.279264 
L 87.216849 41.299602 
L 87.254051 41.210586 
L 87.318308 41.23449 
L 87.470495 41.36312 
L 87.345363 41.206392 
L 87.477259 41.353524 
L 87.538134 41.265079 
L 87.511078 41.372018 
L 87.595627 41.324185 
L 87.93044 41.423659 
L 87.940586 41.383473 
L 88.028516 41.411834 
L 88.062336 41.328302 
L 88.123211 41.401183 
L 88.177322 41.354243 
L 88.390384 41.28414 
L 88.515516 41.145825 
L 88.525662 41.149228 
L 88.562864 41.191921 
L 88.610211 41.089507 
L 88.630503 41.118249 
L 88.81651 41.081114 
L 88.830038 41.132744 
L 88.90444 41.06889 
L 88.951788 41.148292 
L 89.005899 41.053227 
L 89.039718 41.228946 
L 89.259545 41.895247 
L 89.364385 41.85551 
L 89.279836 41.925205 
L 89.374531 41.870656 
L 89.492899 41.994139 
L 89.496281 41.970503 
L 89.584212 42.033022 
L 89.513191 41.959832 
L 89.614649 41.9656 
L 89.618031 41.948499 
L 89.641705 42.032433 
L 89.716107 42.013385 
L 89.733017 42.033046 
L 89.797274 41.9326 
L 89.817566 41.976017 
L 89.922406 41.928099 
L 89.932552 41.958979 
L 90.06783 42.001739 
L 89.939316 41.952684 
L 90.077976 41.982372 
L 90.142233 41.891114 
L 90.18958 41.977605 
L 90.331622 41.999004 
L 90.338386 41.982502 
L 90.375587 41.943174 
L 90.348531 41.990654 
L 90.44999 41.988013 
L 90.551448 42.095269 
L 90.575122 42.012136 
L 90.690108 41.966842 
L 90.639379 42.029157 
L 90.69349 41.972757 
L 90.720545 42.04321 
L 90.822004 41.966984 
L 90.862587 42.010688 
L 90.950518 41.981069 
L 90.994483 41.986734 
L 91.024921 41.898445 
L 91.031685 41.898381 
L 91.04183 41.869831 
L 91.051976 41.930157 
L 91.068886 41.935877 
" clip-path="url(#p2898cdf044)" style="fill: none; stroke: #000000; stroke-width: 0.6; stroke-linecap: square"/>
   </g>
   <g id="line2d_3">
    <path d="M 9.905557 60.792227 
L 9.912321 60.795343 
L 9.935995 60.731432 
L 9.976578 60.704321 
L 10.010397 60.648723 
L 10.057745 60.767898 
L 10.078036 60.732381 
L 10.169349 60.889556 
L 10.209932 60.803891 
L 10.284335 60.75835 
L 10.236988 60.838281 
L 10.321536 60.82559 
L 10.422995 60.809163 
L 10.382411 60.759177 
L 10.429759 60.803634 
L 10.470342 60.762494 
L 10.544745 60.799519 
L 10.548127 60.814996 
L 10.60562 60.70725 
L 10.639439 60.724159 
L 10.683405 60.652948 
L 10.747662 60.760811 
L 10.751044 60.783926 
L 10.778099 60.679621 
L 10.852502 60.723506 
L 11.021599 60.8456 
L 10.899849 60.677845 
L 11.045273 60.79886 
L 11.177169 60.635663 
L 11.180551 60.641105 
L 11.292155 60.64851 
L 11.254954 60.590291 
L 11.298919 60.645654 
L 11.403759 60.640432 
L 11.349648 60.699541 
L 11.407141 60.657649 
L 11.562711 60.773464 
L 11.572857 60.757211 
L 11.593148 60.728426 
L 11.657405 60.84893 
L 11.677697 60.804051 
L 11.697989 60.823753 
L 11.758864 60.7054 
L 11.765627 60.715021 
L 11.850176 60.668607 
L 11.823121 60.738736 
L 11.87385 60.716787 
L 11.921197 60.75614 
L 11.97869 60.674952 
L 12.059857 60.666073 
L 12.039565 60.729856 
L 12.080148 60.719862 
L 12.178225 60.679002 
L 12.086912 60.703908 
L 12.184989 60.670625 
L 12.245864 60.709068 
L 12.208662 60.721853 
L 12.252628 60.733731 
L 12.279683 60.779208 
L 12.327031 60.643305 
L 12.36085 60.704636 
L 12.479218 60.721353 
L 12.367614 60.727947 
L 12.4826 60.731549 
L 12.489364 60.746031 
L 12.49951 60.674831 
L 12.58744 60.700646 
L 12.715954 60.763361 
L 12.75992 60.693661 
L 12.814031 60.632761 
L 12.871524 60.708777 
L 12.979746 60.624264 
L 12.895198 60.732656 
L 13.00342 60.656591 
L 13.071059 60.723572 
L 13.115024 60.683108 
L 13.236774 60.817471 
L 13.294267 60.722921 
L 13.297649 60.696007 
L 13.38558 60.811728 
L 13.395726 60.772055 
L 13.439691 60.801189 
L 13.497184 60.70228 
L 13.838761 60.596237 
L 13.950365 60.565823 
L 13.87258 60.615124 
L 13.957129 60.589051 
L 14.058587 60.75652 
L 14.078879 60.701117 
L 14.1499 60.677419 
L 14.122844 60.735367 
L 14.183719 60.735915 
L 14.329143 60.779792 
L 14.335907 60.743582 
L 14.471185 60.597992 
L 14.48133 60.613904 
L 14.555733 60.628055 
L 14.488094 60.626857 
L 14.572643 60.651313 
L 14.647046 60.697432 
L 14.630136 60.636754 
L 14.687629 60.687754 
L 14.887164 60.556654 
L 14.920983 60.67367 
L 14.924365 60.686486 
L 14.978476 60.559766 
L 15.008914 60.588443 
L 15.110372 60.496874 
L 15.039351 60.602077 
L 15.127282 60.518489 
L 15.164484 60.548989 
L 15.218595 60.464019 
L 15.242268 60.519867 
L 15.3674 60.425504 
L 15.27947 60.561956 
L 15.38431 60.452059 
L 15.48915 60.487707 
L 15.411366 60.438011 
L 15.499296 60.443323 
L 15.593991 60.42517 
L 15.533116 60.479805 
L 15.6109 60.431993 
L 15.722505 60.475449 
L 15.668393 60.408814 
L 15.729269 60.45757 
L 15.807053 60.37662 
L 15.844255 60.450598 
L 16.605193 60.11462 
L 16.699887 60.013285 
L 16.723561 60.055204 
L 16.767526 60.109042 
L 16.838547 60.070464 
L 16.970443 59.967722 
L 17.159832 59.846187 
L 17.230853 59.940173 
L 17.166596 59.843939 
L 17.291728 59.905641 
L 17.464207 59.840712 
L 17.514936 59.875563 
L 17.55552 59.783455 
L 17.572429 59.819641 
L 17.758436 59.641009 
L 17.771964 59.660292 
L 17.829457 59.698847 
L 17.866659 59.643643 
L 17.880186 59.65263 
L 18.069575 59.629132 
L 17.893714 59.689276 
L 18.072957 59.663764 
L 18.083103 59.717534 
L 18.140596 59.538995 
L 18.174416 59.579002 
L 18.265728 59.546966 
L 18.187943 59.593388 
L 18.289402 59.579356 
L 18.384096 59.522831 
L 18.421298 59.619936 
L 18.688472 59.398731 
L 18.698617 59.458386 
L 18.75611 59.361158 
L 18.793312 59.363134 
L 18.918444 59.255485 
L 18.925208 59.257362 
L 19.036812 59.380644 
L 19.05034 59.374541 
L 19.101069 59.308829 
L 19.111215 59.284181 
L 19.216055 59.179034 
L 19.121361 59.289673 
L 19.246493 59.21189 
L 19.588069 59.093687 
L 19.253257 59.226338 
L 19.594833 59.11538 
L 19.608361 59.153216 
L 19.662472 59.075693 
L 19.703055 59.096362 
L 19.774076 59.045394 
L 19.78084 59.021742 
L 19.912736 58.893359 
L 19.9195 58.900404 
L 20.088597 58.971206 
L 20.091979 58.99391 
L 20.14609 58.817346 
L 20.193438 58.926067 
L 20.4065 58.770107 
L 20.200202 58.935414 
L 20.416646 58.79028 
L 20.480903 58.810879 
L 20.501195 58.729367 
L 20.518104 58.674214 
L 20.602653 58.798172 
L 20.748077 58.690814 
L 20.775132 58.725881 
L 20.846153 58.646059 
L 20.866445 58.592925 
L 20.94423 58.67803 
L 20.950994 58.673928 
L 20.971285 58.710751 
L 21.042306 58.603702 
L 21.140383 58.454623 
L 21.17082 58.473051 
L 21.235077 58.568653 
L 21.29257 58.458403 
L 21.43123 58.332239 
L 21.329772 58.49504 
L 21.434612 58.341335 
L 21.509015 58.389197 
L 21.515779 58.406795 
L 21.603709 58.477082 
L 21.630765 58.442125 
L 21.715313 58.339959 
L 21.762661 58.390726 
L 21.857355 58.41363 
L 21.782952 58.368952 
L 21.877647 58.382876 
L 22.063654 58.181168 
L 22.070418 58.184673 
L 22.104237 58.239101 
L 22.16173 58.101577 
L 22.168494 58.114944 
L 22.171876 58.124876 
L 22.246279 58.008751 
L 22.263189 57.985207 
L 22.313918 58.141175 
L 22.337592 58.094259 
L 22.466106 58.212658 
L 22.469487 58.207716 
L 23.06471 57.949494 
L 23.074856 57.975779 
L 23.179696 58.040684 
L 23.210134 57.97756 
L 23.264245 58.021419 
L 23.328502 57.95472 
L 23.433342 57.999064 
L 23.365703 57.904853 
L 23.44687 57.975297 
L 23.801974 57.785447 
L 23.95078 57.595415 
L 23.82903 57.811437 
L 23.960926 57.637111 
L 23.964308 57.65946 
L 23.994745 57.57481 
L 24.069148 57.618705 
L 24.157079 57.451118 
L 24.204426 57.495535 
L 24.251773 57.555558 
L 24.295738 57.460025 
L 24.309266 57.482228 
L 24.346468 57.51515 
L 24.43778 57.39555 
L 24.515565 57.43414 
L 24.535857 57.340637 
L 24.765829 57.491694 
L 24.546003 57.331356 
L 24.775975 57.45157 
L 24.890961 57.427403 
L 24.80303 57.518849 
L 24.897725 57.431497 
L 24.978892 57.475855 
L 25.005947 57.418336 
L 25.181808 57.232516 
L 25.205482 57.259248 
L 25.269739 57.325939 
L 25.32385 57.2979 
L 25.435454 57.402874 
L 25.330614 57.290658 
L 25.482802 57.306617 
L 25.543677 57.286623 
L 25.574114 57.360461 
L 25.591024 57.326924 
L 25.594406 57.334834 
L 25.611316 57.271997 
L 25.675573 57.258552 
L 25.777031 57.200222 
L 25.719538 57.286316 
L 25.793941 57.210388 
L 25.9326 57.234668 
L 25.800705 57.201242 
L 25.939364 57.209478 
L 26.050969 57.078358 
L 26.074642 57.139012 
L 26.08817 57.191179 
L 26.135517 57.107479 
L 26.182865 57.121507 
L 26.236976 57.172904 
L 26.196392 57.097218 
L 26.297851 57.112962 
L 26.335052 57.150215 
L 26.422983 57.02898 
L 26.47033 57.02927 
L 26.497386 56.935212 
L 26.521059 56.967808 
L 26.588698 56.888279 
L 26.527823 56.977197 
L 26.639427 56.939601 
L 27.052025 56.827504 
L 27.177157 56.758093 
L 27.072316 56.85027 
L 27.180539 56.765954 
L 27.271851 56.806265 
L 27.295525 56.755915 
L 27.420657 56.638282 
L 27.329344 56.762958 
L 27.424039 56.643626 
L 27.427421 56.646145 
L 27.447712 56.567494 
L 27.471386 56.559469 
L 27.549171 56.596451 
L 27.589754 56.49351 
L 27.596518 56.520768 
L 27.657393 56.284879 
L 27.775761 55.528055 
L 27.796053 53.87136 
L 27.806199 43.757421 
L 27.907657 52.36364 
L 27.958386 55.244725 
L 28.046317 54.471172 
L 28.069991 47.930062 
L 28.151157 54.7341 
L 28.164685 54.90316 
L 28.22556 53.974151 
L 28.245852 49.143831 
L 28.3304 54.435381 
L 28.357456 54.241597 
L 28.384512 52.074412 
L 28.394657 50.563348 
L 28.46906 53.599341 
L 28.489352 53.380249 
L 28.523171 52.48447 
L 28.617866 52.832864 
L 28.807255 52.802288 
L 28.814019 52.820786 
L 28.895185 52.839462 
L 28.820783 52.815385 
L 28.929005 52.806923 
L 28.932387 52.7882 
L 28.959442 52.843184 
L 29.037227 52.821505 
L 29.118394 52.878543 
L 29.084574 52.796236 
L 29.152213 52.851738 
L 29.33822 52.857901 
L 29.341602 52.865788 
L 29.429533 52.904102 
L 29.395713 52.834026 
L 29.453207 52.866479 
L 29.564811 52.906267 
L 29.581721 52.862039 
L 29.625686 52.921852 
L 29.693325 52.858237 
L 29.821839 52.946734 
L 29.899623 52.869814 
L 29.940207 52.939713 
L 29.974026 52.886542 
L 30.048429 52.941662 
L 30.160033 52.893688 
L 30.092394 52.962474 
L 30.166797 52.908874 
L 30.261492 52.968748 
L 30.285165 52.924853 
L 30.39677 52.994661 
L 30.515138 53.111521 
L 30.461027 52.865342 
L 30.525284 53.089155 
L 30.565867 52.698092 
L 30.609832 53.239437 
L 30.619978 53.33497 
L 30.653797 52.693126 
L 30.670707 52.239013 
L 30.7282 54.058485 
L 30.74511 54.178286 
L 30.765402 53.44384 
L 30.785693 49.662399 
L 30.853332 56.304911 
L 30.873624 56.196775 
L 30.958173 54.736316 
L 30.975082 44.496566 
L 31.052867 56.090135 
L 31.073159 58.895021 
L 31.167853 58.103404 
L 31.211819 57.784978 
L 31.37077 56.920386 
L 31.374152 56.934455 
L 31.380916 56.945386 
L 31.418117 56.839297 
L 31.431645 56.842156 
L 31.624416 56.595433 
L 31.627798 56.615275 
L 31.759694 56.576717 
L 31.763076 56.590793 
L 31.810423 56.578446 
L 31.793513 56.566042 
L 31.851006 56.5278 
L 31.928791 56.414322 
L 31.965993 56.504601 
L 32.043777 56.551454 
L 32.003194 56.485441 
L 32.074215 56.502125 
L 32.091125 56.475907 
L 32.162146 56.591641 
L 32.175673 56.554834 
L 32.307569 56.693015 
L 32.317715 56.686633 
L 32.36168 56.660365 
L 32.324479 56.707576 
L 32.402264 56.760041 
L 32.524014 56.850638 
L 32.645764 56.852544 
L 32.557833 56.889935 
L 32.649146 56.874027 
L 32.710021 56.818841 
L 32.77766 56.989042 
L 33.119236 57.352707 
L 33.126 57.337442 
L 33.139528 57.317438 
L 33.217313 57.435415 
L 33.761806 57.903668 
L 33.240986 57.404967 
L 33.792244 57.867104 
L 33.849737 57.777031 
L 33.910612 57.80234 
L 33.944431 57.779766 
L 34.052654 57.854417 
L 34.076327 57.826286 
L 34.113529 57.882066 
L 34.160876 57.874995 
L 34.181167 57.925227 
L 34.262334 57.837764 
L 34.299536 57.779514 
L 34.275862 57.841169 
L 34.373938 57.838477 
L 34.813591 57.597996 
L 34.840647 57.65261 
L 34.891376 57.743946 
L 34.955633 57.668782 
L 35.151786 57.824781 
L 35.270154 57.78464 
L 35.188987 57.874851 
L 35.276918 57.787422 
L 35.415578 57.703514 
L 35.293828 57.80667 
L 35.449397 57.744072 
L 35.456161 57.75633 
L 35.527182 57.664793 
L 35.571147 57.626858 
L 35.632022 57.708984 
L 35.703043 57.76083 
L 35.736863 57.67537 
L 36.135932 57.73625 
L 36.227245 57.677707 
L 36.16637 57.76183 
L 36.250919 57.722142 
L 36.254301 57.739866 
L 36.342231 57.638212 
L 36.345613 57.642188 
L 36.413252 57.538486 
L 36.487655 57.525326 
L 36.474127 57.571138 
L 36.521474 57.550525 
L 36.643224 57.638277 
L 36.666898 57.584084 
L 36.717627 57.67396 
L 36.758211 57.632097 
L 36.771738 57.670071 
L 36.839377 57.553896 
L 36.866433 57.609493 
L 36.873197 57.596023 
L 36.93069 57.681152 
L 36.964509 57.650095 
L 37.076113 57.704268 
L 37.015238 57.590776 
L 37.082877 57.68488 
L 37.153898 57.60797 
L 37.116697 57.706071 
L 37.197864 57.672501 
L 37.214773 57.693533 
L 37.285794 57.59935 
L 37.292558 57.599951 
L 37.427836 57.529866 
L 37.316232 57.620507 
L 37.431218 57.533587 
L 37.448128 57.57796 
L 37.512385 57.484949 
L 37.53944 57.511567 
L 37.667954 57.443273 
L 37.691628 57.484351 
L 37.769412 57.3962 
L 37.864107 57.307721 
L 37.891163 57.342585 
L 38.053496 57.497625 
L 38.063642 57.474326 
L 38.222593 57.474023 
L 38.334198 57.528106 
L 38.229357 57.467235 
L 38.340961 57.499153 
L 38.479621 57.33222 
L 38.384927 57.521164 
L 38.489767 57.349511 
L 38.537114 57.464264 
L 38.601371 57.37379 
L 38.679156 57.334955 
L 38.719739 57.382395 
L 39.139101 57.513272 
L 39.179684 57.540854 
L 39.203358 57.463382 
L 39.243941 57.484791 
L 39.284524 57.461637 
L 39.318344 57.56578 
L 39.32849 57.558439 
L 39.331872 57.57394 
L 39.426566 57.492185 
L 39.43333 57.525228 
L 39.460386 57.54209 
L 39.511115 57.443369 
L 39.534788 57.439252 
L 39.568608 57.549281 
L 39.994733 57.389772 
L 40.004879 57.414465 
L 40.072518 57.293639 
L 40.09281 57.312338 
L 40.187504 57.231018 
L 40.211178 57.238809 
L 40.295726 57.249471 
L 40.238233 57.283132 
L 40.3194 57.271265 
L 40.397185 57.326845 
L 40.326164 57.258685 
L 40.434386 57.270101 
L 40.498643 57.227163 
L 40.5629 57.257493 
L 40.745525 57.285645 
L 40.748907 57.261565 
L 40.836838 57.236629 
L 40.775963 57.344906 
L 40.863893 57.265326 
L 41.026227 57.369409 
L 40.870657 57.257537 
L 41.043136 57.344596 
L 41.110775 57.283738 
L 41.151359 57.365771 
L 41.246053 57.404447 
L 41.283255 57.355444 
L 41.320456 57.387886 
L 41.405005 57.307034 
L 41.44897 57.375575 
L 41.530137 57.312546 
L 41.536901 57.306496 
L 41.574102 57.399706 
L 41.60454 57.388727 
L 41.678942 57.460427 
L 41.716144 57.374933 
L 41.83113 57.291546 
L 41.844658 57.32992 
L 41.942734 57.378381 
L 41.881859 57.283486 
L 41.959644 57.350182 
L 42.078012 57.29375 
L 41.993463 57.373102 
L 42.088158 57.310272 
L 42.09154 57.344771 
L 42.17947 57.253757 
L 42.192998 57.254493 
L 42.301221 57.295462 
L 42.206526 57.248105 
L 42.314748 57.261855 
L 42.338422 57.327468 
L 42.747637 57.196289 
L 42.859242 57.379692 
L 42.889679 57.340841 
L 43.035103 57.225945 
L 43.038485 57.242141 
L 43.143325 57.26506 
L 43.062158 57.221101 
L 43.150089 57.238871 
L 43.251547 57.223658 
L 43.268457 57.197406 
L 43.390207 57.100687 
L 43.508575 57.149 
L 43.437554 57.020492 
L 43.515339 57.125363 
L 43.572832 57.106825 
L 43.610034 57.171307 
L 43.616798 57.156657 
L 43.640471 57.137328 
L 43.755457 57.234609 
L 43.927937 57.221572 
L 43.931319 57.227098 
L 43.954992 57.214329 
L 44.063215 57.330249 
L 44.201874 57.263838 
L 44.330388 57.117573 
L 44.340534 57.133762 
L 44.901937 57.307255 
L 44.908701 57.279383 
L 45.033833 57.170395 
L 45.047361 57.193973 
L 45.189403 57.439213 
L 45.213076 57.470419 
L 45.280715 57.365959 
L 45.287479 57.380174 
L 45.372028 57.341167 
L 45.402465 57.372575 
L 45.503924 57.452079 
L 45.595236 57.52645 
L 45.61891 57.467585 
L 45.689931 57.458578 
L 45.625674 57.452963 
L 45.703458 57.403628 
L 45.821827 57.323361 
L 45.720368 57.407577 
L 45.825209 57.338369 
L 45.831972 57.38847 
L 45.909757 57.238858 
L 45.916521 57.254264 
L 46.217514 57.160267 
L 46.220896 57.169939 
L 46.335882 57.298352 
L 46.342646 57.274754 
L 46.542181 57.186861 
L 46.653785 57.154202 
L 46.552327 57.190653 
L 46.657167 57.173364 
L 46.843174 57.266442 
L 46.849938 57.229507 
L 46.876994 57.137239 
L 46.951397 57.266634 
L 46.954779 57.249065 
L 47.035945 57.254971 
L 46.97507 57.222113 
L 47.052855 57.21684 
L 47.100202 57.102197 
L 47.167841 57.177631 
L 47.587203 56.941347 
L 47.590584 56.963734 
L 47.746154 56.984303 
L 47.631168 56.873386 
L 47.749536 56.950218 
L 47.7563 56.916375 
L 47.830703 57.036788 
L 47.84423 57.018215 
L 48.094494 56.871938 
L 48.141842 56.85849 
L 48.128314 56.89952 
L 48.189189 56.911599 
L 48.300793 56.955954 
L 48.304175 56.924806 
L 48.344759 56.895572 
L 48.395488 56.982098 
L 48.425925 57.06618 
L 48.496946 56.924758 
L 48.500328 56.937903 
L 48.574731 56.89829 
L 48.510474 56.912324 
L 48.581495 56.875529 
L 48.638988 56.88901 
L 48.706627 56.737454 
L 48.956891 56.55831 
L 48.737064 56.769578 
L 48.970419 56.583586 
L 48.987328 56.614011 
L 49.034676 56.494312 
L 49.048203 56.505699 
L 49.325523 55.837798 
L 49.366106 54.546494 
L 49.379634 43.75369 
L 49.481092 52.396259 
L 49.531822 55.171625 
L 49.61637 54.130391 
L 49.63328 48.113718 
L 49.721211 54.731189 
L 49.731356 54.816753 
L 49.782086 54.181271 
L 49.805759 49.229327 
L 49.890308 54.298779 
L 49.897072 54.333935 
L 49.924127 53.850048 
L 49.951183 50.766185 
L 50.052641 52.919587 
L 50.079697 52.644171 
L 50.167628 52.781856 
L 50.316433 52.747214 
L 50.329961 52.782125 
L 50.3976 52.753528 
L 50.458475 52.819536 
L 50.546406 52.799119 
L 50.570079 52.837458 
L 50.691829 52.808727 
L 50.586989 52.855816 
L 50.698593 52.830807 
L 50.806815 52.86732 
L 50.816961 52.83372 
L 51.026642 52.935033 
L 50.823725 52.825312 
L 51.046934 52.889209 
L 51.073989 52.827781 
L 51.117954 52.934714 
L 51.16192 52.864197 
L 51.212649 52.94415 
L 51.276906 52.892084 
L 51.293816 52.87606 
L 51.324253 52.956549 
L 51.381746 52.928699 
L 51.469677 52.874633 
L 51.40542 52.948396 
L 51.489969 52.961632 
L 51.550844 52.85436 
L 51.615101 53.067824 
L 51.66583 52.752786 
L 51.709795 53.177442 
L 51.719941 53.192715 
L 51.736851 53.037464 
L 51.767288 52.520407 
L 51.814635 53.490266 
L 51.824781 53.558481 
L 51.848455 52.999614 
L 51.872128 51.773021 
L 51.929622 54.592154 
L 51.963441 55.070039 
L 52.010788 53.978144 
L 52.027698 46.140038 
L 52.102101 57.852148 
L 52.105483 57.858898 
L 52.129156 57.697708 
L 52.335455 56.526894 
L 52.447059 56.367852 
L 52.484261 56.395915 
L 52.629684 56.537743 
L 52.693941 56.604533 
L 52.697323 56.635606 
L 52.866421 56.869514 
L 52.869803 56.860118 
L 52.903622 56.944394 
L 52.961115 56.92972 
L 53.120067 57.191149 
L 53.130213 57.176686 
L 53.191088 57.303821 
L 53.329747 57.450126 
L 53.410914 57.49808 
L 53.417678 57.531381 
L 53.627359 57.788555 
L 53.64765 57.772637 
L 53.66456 57.748768 
L 53.722053 57.826924 
L 53.742345 57.818628 
L 53.887768 57.955396 
L 53.813366 57.777095 
L 53.894532 57.933129 
L 53.965553 57.886698 
L 54.009519 57.91928 
L 54.131269 58.065247 
L 54.033192 57.911231 
L 54.141414 58.055048 
L 54.144796 58.041388 
L 54.195526 58.11357 
L 54.239491 58.108664 
L 54.266546 58.079042 
L 54.425498 58.192745 
L 54.462699 58.202198 
L 54.540484 58.149928 
L 54.577686 58.057759 
L 54.662234 58.071768 
L 54.716345 58.122555 
L 54.753547 58.000341 
L 54.756929 58.010349 
L 54.9497 57.824812 
L 54.969991 57.8474 
L 55.044394 57.763119 
L 55.047776 57.757418 
L 55.112033 57.866752 
L 55.254075 58.007215 
L 55.257457 57.997245 
L 55.375825 57.947746 
L 55.294658 58.068618 
L 55.385971 57.969841 
L 55.440082 57.966103 
L 55.41979 57.923557 
L 55.460373 57.889485 
L 55.467137 57.858765 
L 55.531394 57.952781 
L 55.565214 57.930547 
L 55.571978 57.936146 
L 55.609179 57.848797 
L 55.646381 57.871394 
L 55.730929 57.795653 
L 55.764749 57.802786 
L 55.852679 57.837472 
L 55.815478 57.789275 
L 55.879735 57.818038 
L 55.960902 57.787801 
L 55.889881 57.838722 
L 55.987957 57.849204 
L 56.113089 57.881275 
L 56.140145 57.967849 
L 56.224693 57.870695 
L 56.244985 57.78232 
L 56.343061 57.799291 
L 56.403937 57.757218 
L 56.488485 57.922748 
L 56.650819 57.788632 
L 56.512159 57.971068 
L 56.677874 57.809874 
L 57.097236 57.715552 
L 57.114145 57.695856 
L 57.181784 57.82483 
L 57.188548 57.815951 
L 57.705986 57.854884 
L 57.793916 57.759658 
L 57.831118 57.799961 
L 57.844646 57.752133 
L 57.915667 57.737037 
L 58.017125 57.702569 
L 57.935958 57.751124 
L 58.027271 57.721681 
L 58.155785 57.685232 
L 58.040799 57.748696 
L 58.186222 57.737106 
L 58.203132 57.763994 
L 58.247097 57.643374 
L 58.328264 57.520509 
L 58.375611 57.595194 
L 58.527799 57.710948 
L 58.531181 57.699231 
L 58.568382 57.618567 
L 58.646167 57.668389 
L 58.656313 57.715841 
L 58.696896 57.608996 
L 58.757771 57.664539 
L 58.774681 57.634038 
L 58.838938 57.737532 
L 58.849084 57.723097 
L 59.028327 57.763482 
L 59.031709 57.751136 
L 59.153459 57.65701 
L 59.052 57.788058 
L 59.163605 57.682574 
L 59.166987 57.677946 
L 59.217716 57.793069 
L 59.278591 57.710758 
L 59.292119 57.681278 
L 59.380049 57.739115 
L 59.390195 57.701288 
L 59.498417 57.716113 
L 59.400341 57.679453 
L 59.505181 57.675485 
L 59.562674 57.518514 
L 59.630313 57.609727 
L 59.637077 57.623558 
L 59.660751 57.572199 
L 59.735154 57.572806 
L 59.846758 57.491723 
L 59.860286 57.499013 
L 59.863668 57.51841 
L 59.948216 57.394665 
L 59.95498 57.40439 
L 59.975272 57.404523 
L 59.9888 57.299077 
L 60.022619 57.341964 
L 60.117314 57.252539 
L 60.188334 57.20059 
L 60.239064 57.282427 
L 60.272883 57.220777 
L 60.303321 57.29675 
L 60.347286 57.301863 
L 60.452126 57.374316 
L 60.398015 57.284102 
L 60.472418 57.357756 
L 60.617842 57.336713 
L 60.627987 57.366419 
L 60.699008 57.396117 
L 60.658425 57.350033 
L 60.73621 57.348264 
L 61.020293 57.533485 
L 61.142043 57.631737 
L 61.145425 57.6224 
L 61.338196 57.724368 
L 61.395689 57.77901 
L 61.4498 57.713091 
L 61.470092 57.692266 
L 61.595224 57.729939 
L 61.608752 57.689138 
L 61.659481 57.758534 
L 61.706828 57.721583 
L 61.716974 57.759347 
L 61.781231 57.636174 
L 61.808287 57.675073 
L 61.892835 57.658392 
L 61.916509 57.622393 
L 61.990912 57.56614 
L 62.041641 57.585144 
L 62.12619 57.545169 
L 62.061933 57.51877 
L 62.132954 57.529844 
L 62.21412 57.456956 
L 62.251322 57.495511 
L 62.393363 57.415248 
L 62.464384 57.313879 
L 62.521877 57.369965 
L 62.647009 57.3821 
L 62.660537 57.346775 
L 62.765377 57.290153 
L 62.70112 57.366324 
L 62.775523 57.318923 
L 62.809343 57.331683 
L 62.849926 57.242407 
L 62.8736 57.262204 
L 62.924329 57.261604 
L 62.880364 57.251677 
L 62.948003 57.186874 
L 62.998732 57.155625 
L 63.029169 57.208642 
L 63.056225 57.195567 
L 63.161065 57.198154 
L 63.1171 57.168803 
L 63.167829 57.192454 
L 63.20503 57.183993 
L 63.181357 57.226752 
L 63.242232 57.274085 
L 63.353836 57.224047 
L 63.357218 57.215717 
L 63.397801 57.171658 
L 63.428239 57.241726 
L 63.472204 57.206036 
L 63.874656 56.957758 
L 63.884802 57.005453 
L 63.938913 56.984924 
L 63.905093 56.966831 
L 63.962586 56.926484 
L 64.121538 56.76175 
L 63.979496 56.941301 
L 64.12492 56.773946 
L 64.243288 56.908259 
L 64.24667 56.879953 
L 64.544281 56.850904 
L 64.73367 56.684567 
L 64.551045 56.870737 
L 64.747198 56.712034 
L 64.875712 56.897771 
L 64.902768 56.867809 
L 64.923059 56.827104 
L 64.990698 56.930702 
L 65.007608 56.899519 
L 65.068483 56.928581 
L 65.119212 56.894051 
L 65.227434 56.835131 
L 65.193615 56.91642 
L 65.244344 56.840809 
L 65.406678 56.905087 
L 65.504754 56.826506 
L 65.416823 56.947509 
L 65.528428 56.882576 
L 65.582539 56.843534 
L 65.552101 56.817962 
L 65.60283 56.800876 
L 65.680615 56.756916 
L 65.717817 56.797537 
L 65.819275 56.909871 
L 65.846331 56.862462 
L 66.005282 56.78778 
L 65.853094 56.872749 
L 66.01881 56.827323 
L 66.083067 56.930339 
L 66.137178 56.909156 
L 66.143942 56.867656 
L 66.208199 57.00089 
L 66.242018 56.949189 
L 66.248782 56.969346 
L 66.340095 57.006956 
L 66.380678 57.04624 
L 66.424643 56.955331 
L 66.448317 56.990982 
L 66.566685 56.91932 
L 66.475373 57.020193 
L 66.573449 56.942011 
L 66.597123 56.976606 
L 66.695199 56.934475 
L 66.739164 56.958228 
L 66.78313 56.880932 
L 66.800039 56.912832 
L 66.867678 56.909835 
L 66.894734 56.971649 
L 67.00972 57.04086 
L 67.04354 56.976969 
L 67.293804 56.798751 
L 67.060449 56.996081 
L 67.307331 56.821095 
L 67.402026 56.829287 
L 67.314095 56.818337 
L 67.418936 56.817409 
L 67.53054 56.706098 
L 67.540686 56.728731 
L 67.554213 56.71414 
L 67.604943 56.818346 
L 67.645526 56.748209 
L 67.696255 56.827263 
L 67.760512 56.761746 
L 67.89579 56.690824 
L 67.767276 56.773351 
L 67.909318 56.7228 
L 67.973575 56.768993 
L 67.949901 56.690854 
L 68.014158 56.727413 
L 68.129144 56.632796 
L 68.132526 56.645426 
L 68.578943 55.883165 
L 68.62629 53.97828 
L 68.636436 43.763217 
L 68.737895 52.26322 
L 68.788624 55.11757 
L 68.866409 53.405192 
L 68.879936 48.496286 
L 68.971249 54.443503 
L 68.978013 54.469853 
L 69.00845 53.980591 
L 69.035506 50.481235 
L 69.143728 52.805966 
L 69.167402 52.662393 
L 69.258714 52.736017 
L 69.40752 52.697429 
L 69.536034 52.764639 
L 69.552944 52.753354 
L 69.566471 52.727732 
L 69.63411 52.780552 
L 69.664548 52.755225 
L 69.799826 52.813875 
L 69.840409 52.784433 
L 69.877611 52.826131 
L 69.908048 52.823359 
L 70.18875 52.870136 
L 70.300354 52.919339 
L 70.219187 52.839847 
L 70.307118 52.897155 
L 70.367993 52.85345 
L 70.391666 52.927023 
L 70.411958 52.926739 
L 70.513416 52.930235 
L 70.449159 52.864197 
L 70.52018 52.907634 
L 70.64193 52.836314 
L 70.601347 52.957862 
L 70.652076 52.857103 
L 70.689278 53.03387 
L 70.740007 52.834432 
L 70.773826 52.997505 
L 70.7975 53.059888 
L 70.827937 52.784018 
L 70.831319 52.784299 
L 70.838083 52.766496 
L 70.865139 52.981436 
L 70.993653 53.404064 
L 70.939542 52.617845 
L 71.000417 53.384807 
L 71.041 52.152954 
L 71.081583 53.658758 
L 71.115403 54.275729 
L 71.14584 52.551151 
L 71.159368 49.178771 
L 71.230389 56.565866 
L 71.243917 56.517817 
L 71.402868 54.418752 
L 71.416396 44.202293 
L 71.500945 56.431615 
L 71.521236 58.862175 
L 71.615931 58.070323 
L 71.812084 57.192956 
L 71.866195 57.206956 
L 72.197626 57.691613 
L 72.728591 58.503023 
L 72.742119 58.474993 
L 72.745501 58.461264 
L 72.809758 58.63168 
L 72.819904 58.613212 
L 72.884161 58.638353 
L 72.860487 58.576414 
L 72.931508 58.60792 
L 73.124279 58.682269 
L 73.137807 58.667049 
L 73.141189 58.650876 
L 73.218973 58.809238 
L 73.293376 58.741729 
L 73.296758 58.730513 
L 73.408362 58.678904 
L 73.435418 58.738718 
L 73.469237 58.592658 
L 73.516585 58.679604 
L 73.66539 58.495187 
L 73.675536 58.50202 
L 73.78714 58.529015 
L 73.915654 58.615105 
L 73.919036 58.60805 
L 73.929182 58.612231 
L 74.094898 58.392043 
L 74.240321 58.389156 
L 74.243703 58.400948 
L 74.257231 58.39626 
L 74.362071 58.40917 
L 74.453384 58.331142 
L 74.483821 58.377239 
L 74.656301 58.272215 
L 74.683356 58.214433 
L 74.757759 58.314143 
L 74.764523 58.280944 
L 76.022607 57.811519 
L 76.025989 57.8483 
L 76.093628 57.893293 
L 76.059808 57.828791 
L 76.140975 57.864737 
L 76.232288 57.848929 
L 76.20185 57.894481 
L 76.252579 57.866704 
L 76.289781 57.896238 
L 76.337128 57.837363 
L 76.360802 57.842291 
L 76.509607 57.694936 
L 76.523135 57.72292 
L 76.658413 57.828003 
L 76.661795 57.819099 
L 76.770017 57.788045 
L 76.719288 57.845869 
L 76.776781 57.810293 
L 76.813982 57.788334 
L 76.854566 57.881892 
L 76.86133 57.878223 
L 76.925587 57.964504 
L 76.979698 57.888286 
L 76.996607 57.90273 
L 77.030427 57.78248 
L 77.057482 57.807361 
L 77.10483 57.77172 
L 77.145413 57.847439 
L 77.165705 57.831281 
L 77.490372 57.71778 
L 77.598594 57.622846 
L 77.60874 57.670056 
L 77.777837 57.743341 
L 77.804893 57.659396 
L 77.86915 57.617393 
L 77.902969 57.692018 
L 77.909733 57.690776 
L 77.994282 57.689936 
L 77.950316 57.647853 
L 78.011191 57.644321 
L 78.072066 57.54057 
L 78.132941 57.569668 
L 78.143087 57.553159 
L 78.271601 57.630173 
L 78.386587 57.599497 
L 78.312185 57.669401 
L 78.413643 57.620818 
L 78.73831 57.68132 
L 78.748456 57.712254 
L 78.792421 57.617245 
L 78.84315 57.661514 
L 78.846532 57.645502 
L 78.900643 57.732823 
L 78.944609 57.715343 
L 78.988574 57.775055 
L 79.046067 57.693638 
L 79.110324 57.61897 
L 79.096796 57.70443 
L 79.157671 57.67058 
L 79.262511 57.681242 
L 79.238838 57.606629 
L 79.272657 57.665372 
L 79.46881 57.473912 
L 79.475574 57.487864 
L 79.482338 57.499244 
L 79.549977 57.404848 
L 79.573651 57.438815 
L 79.648053 57.439946 
L 79.610852 57.491889 
L 79.668345 57.476285 
L 79.678491 57.461058 
L 79.820533 57.666463 
L 79.942283 57.729161 
L 79.959192 57.701593 
L 80.030213 57.663918 
L 80.00654 57.725666 
L 80.064033 57.708107 
L 80.114762 57.755584 
L 80.084324 57.673466 
L 80.179019 57.733717 
L 80.212838 57.741288 
L 80.314297 57.607549 
L 80.463102 57.671383 
L 80.49354 57.593082 
L 80.666019 57.376002 
L 80.500304 57.598573 
L 80.669401 57.392283 
L 80.693075 57.364162 
L 80.797915 57.483483 
L 80.85879 57.509316 
L 80.909519 57.484282 
L 81.021124 57.372955 
L 81.031269 57.406985 
L 81.112436 57.411999 
L 81.078617 57.324908 
L 81.139492 57.396434 
L 81.149637 57.386012 
L 81.169929 57.476982 
L 81.227422 57.468852 
L 81.244332 57.487878 
L 81.301825 57.347278 
L 81.311971 57.364849 
L 81.328881 57.299232 
L 81.37961 57.413905 
L 81.426957 57.345285 
L 81.924103 57.293657 
L 81.961305 57.237939 
L 82.012034 57.325782 
L 82.032325 57.309503 
L 82.681659 57.085449 
L 82.786499 57.29608 
L 82.806791 57.283729 
L 82.901486 57.14167 
L 82.935305 57.211177 
L 83.03 57.271002 
L 83.057055 57.253544 
L 83.11793 57.244342 
L 83.067201 57.285091 
L 83.15175 57.317881 
L 83.229534 57.410907 
L 83.280264 57.395075 
L 83.354666 57.462616 
L 83.39525 57.3929 
L 83.462889 57.424665 
L 83.429069 57.324602 
L 83.486562 57.334759 
L 83.598167 57.322402 
L 83.557583 57.390916 
L 83.60493 57.330342 
L 83.628604 57.35334 
L 83.65566 57.268111 
L 83.706389 57.297717 
L 83.828139 57.210207 
L 83.834903 57.22082 
L 83.946507 57.269322 
L 83.875486 57.206165 
L 83.949889 57.253623 
L 83.953271 57.235319 
L 83.997236 57.309486 
L 84.054729 57.28833 
L 84.450417 57.365903 
L 84.545112 57.28517 
L 84.714209 57.286205 
L 84.717591 57.304595 
L 84.744646 57.21511 
L 84.822431 57.265662 
L 84.863015 57.314168 
L 84.937417 57.245824 
L 84.981383 57.301894 
L 84.957709 57.226586 
L 85.052404 57.27505 
L 85.103133 57.205521 
L 85.164008 57.270151 
L 85.251938 57.321126 
L 85.262084 57.240638 
L 85.27223 57.266781 
L 85.339869 57.162915 
L 85.383834 57.246136 
L 85.49882 57.30892 
L 85.41089 57.218829 
L 85.508966 57.285869 
L 85.536022 57.211668 
L 85.576605 57.300883 
L 85.623952 57.230036 
L 85.644244 57.255311 
L 85.664536 57.157428 
L 85.725411 57.188179 
L 85.789668 57.184725 
L 85.749084 57.213517 
L 85.813341 57.24006 
L 85.816723 57.252987 
L 85.884362 57.175858 
L 85.911418 57.176577 
L 86.154918 57.287096 
L 85.928328 57.147559 
L 86.165064 57.250414 
L 86.198883 57.267067 
L 86.29696 57.163519 
L 86.422092 57.078013 
L 86.327397 57.22423 
L 86.445765 57.108039 
L 86.462675 57.151991 
L 86.482967 57.08296 
L 86.547224 57.067117 
L 86.682502 57.034868 
L 86.685884 57.008581 
L 86.794106 56.976858 
L 86.719703 57.028402 
L 86.797488 56.997664 
L 86.936148 57.126277 
L 86.804252 56.976873 
L 86.946293 57.117229 
L 86.949675 57.102048 
L 87.034224 57.23176 
L 87.04437 57.185968 
L 87.176266 57.126219 
L 87.196557 57.156342 
L 87.30478 57.275554 
L 87.216849 57.120628 
L 87.325071 57.24897 
L 87.697085 56.945128 
L 87.348745 57.284313 
L 87.710613 56.957067 
L 87.751197 56.909628 
L 87.852655 56.966035 
L 87.998079 57.048619 
L 88.079245 57.08606 
L 88.119829 57.006637 
L 88.945024 55.983136 
L 89.002517 54.942437 
L 89.019426 43.760227 
L 89.127649 52.834708 
L 89.161468 55.211842 
L 89.256163 54.412562 
L 89.279836 47.963097 
L 89.361003 54.72726 
L 89.377913 54.910607 
L 89.438788 53.810317 
L 89.455698 48.822679 
L 89.543628 54.605146 
L 89.54701 54.629553 
L 89.584212 54.170224 
L 89.611267 49.760057 
L 89.692434 54.151793 
L 89.695816 54.164998 
L 89.716107 53.877593 
L 89.746545 51.149892 
L 89.861531 52.677642 
L 89.871677 52.658837 
L 89.895351 52.807249 
L 89.919024 52.895722 
L 89.952844 52.785941 
L 90.003573 52.791539 
L 90.138851 52.817111 
L 90.020483 52.767557 
L 90.152378 52.790623 
L 90.253837 52.792614 
L 90.196344 52.848026 
L 90.267365 52.812305 
L 90.372205 52.854557 
L 90.385733 52.813202 
L 90.456754 52.834254 
L 90.426316 52.872401 
L 90.483809 52.850911 
L 90.55483 52.903684 
L 90.500719 52.830513 
L 90.598795 52.867649 
L 90.703636 52.862579 
L 90.646143 52.888744 
L 90.7104 52.873312 
L 90.92008 52.933308 
L 90.923462 52.922077 
L 91.024921 52.875339 
L 90.980955 52.948697 
L 91.035066 52.899821 
L 91.068886 52.956918 
L 91.04183 52.891518 
L 91.068886 52.956918 
" clip-path="url(#p2898cdf044)" style="fill: none; stroke: #000000; stroke-width: 0.6; stroke-linecap: square"/>
   </g>
   <g id="line2d_4">
    <path d="M 95.127221 15.313171 
L 95.127221 8.552195 
" clip-path="url(#p2898cdf044)" style="fill: none; stroke: #000000; stroke-width: 1.5; stroke-linecap: square"/>
   </g>
  </g>
 </g>
 <defs>
  <clipPath id="p2898cdf044">
   <rect x="7.2" y="7.2" width="89.28" height="55.44"/>
  </clipPath>
 </defs>
</svg>
