<?xml version="1.0" encoding="utf-8" standalone="no"?>
<!DOCTYPE svg PUBLIC "-//W3C//DTD SVG 1.1//EN"
  "http://www.w3.org/Graphics/SVG/1.1/DTD/svg11.dtd">
<svg xmlns:xlink="http://www.w3.org/1999/xlink" width="103.68pt" height="69.84pt" viewBox="0 0 103.68 69.84" xmlns="http://www.w3.org/2000/svg" version="1.1">
 <metadata>
  <rdf:RDF xmlns:dc="http://purl.org/dc/elements/1.1/" xmlns:cc="http://creativecommons.org/ns#" xmlns:rdf="http://www.w3.org/1999/02/22-rdf-syntax-ns#">
   <cc:Work>
    <dc:type rdf:resource="http://purl.org/dc/dcmitype/StillImage"/>
    <dc:date>2022-05-08T15:05:05.240310</dc:date>
    <dc:format>image/svg+xml</dc:format>
    <dc:creator>
     <cc:Agent>
      <dc:title>Matplotlib v3.5.1, https://matplotlib.org/</dc:title>
     </cc:Agent>
    </dc:creator>
   </cc:Work>
  </rdf:RDF>
 </metadata>
 <defs>
  <style type="text/css">*{stroke-linejoin: round; stroke-linecap: butt}</style>
 </defs>
 <g id="figure_1">
  <g id="patch_1">
   <path d="M 0 69.84 
L 103.68 69.84 
L 103.68 0 
L 0 0 
z
" style="fill: #ffffff"/>
  </g>
  <g id="axes_1">
   <g id="patch_2">
    <path d="M 7.2 62.64 
L 96.48 62.64 
L 96.48 7.2 
L 7.2 7.2 
z
" style="fill: #ffffff"/>
   </g>
   <g id="matplotlib.axis_1"/>
   <g id="matplotlib.axis_2"/>
   <g id="line2d_1">
    <path d="M 9.905557 21.43114 
L 10.115238 20.966024 
L 10.142293 20.975781 
L 10.331682 20.273126 
L 10.365502 19.257263 
L 10.385793 8.986892 
L 10.446668 23.425856 
L 10.460196 23.912756 
L 10.554891 23.236922 
L 11.07571 19.282138 
L 11.09262 9.014403 
L 11.156877 23.815628 
L 11.173787 24.292831 
L 11.265099 23.689264 
L 11.552565 22.11612 
L 11.562711 22.127895 
L 11.853558 20.982121 
L 11.968544 19.526066 
L 11.988836 8.982263 
L 12.046329 22.604941 
L 12.066621 24.452587 
L 12.161315 23.891914 
L 12.502892 22.439482 
L 12.506274 22.444732 
L 12.550239 22.318261 
L 12.553621 22.317044 
L 12.688899 21.97214 
L 12.874906 21.508545 
L 12.962836 21.323236 
L 13.223246 18.688849 
L 13.236774 8.989974 
L 13.317941 24.482853 
L 13.321323 24.477634 
L 13.710247 22.7727 
L 13.757594 22.684951 
L 13.882726 22.498242 
L 14.166809 22.044047 
L 14.170191 22.05143 
L 14.173573 22.07762 
L 14.264886 21.92946 
L 14.268268 21.935983 
L 14.322379 21.817247 
L 14.329143 21.814007 
L 14.505004 21.450316 
L 14.508386 21.45555 
L 14.538823 21.46163 
L 14.596317 21.355646 
L 14.799233 21.139732 
L 14.802615 21.144795 
L 14.836435 21.155485 
L 14.870254 21.044797 
L 14.883782 21.055053 
L 14.998768 21.004986 
L 14.937893 21.098763 
L 15.00215 21.020788 
L 15.1239 21.088467 
L 15.24565 21.059378 
L 15.130664 21.100991 
L 15.252414 21.084012 
L 15.391074 21.344587 
L 15.397838 21.341688 
L 15.688685 21.31788 
L 15.790144 21.30075 
L 15.763088 21.35165 
L 15.800289 21.325151 
L 15.898366 21.300807 
L 15.830727 21.366997 
L 15.922039 21.350959 
L 15.955859 21.442236 
L 16.037026 21.379035 
L 16.662686 21.303347 
L 16.706651 21.256808 
L 16.767526 21.363527 
L 16.821637 21.382197 
L 16.835165 21.328409 
L 16.87913 21.357354 
L 17.011026 21.202716 
L 17.322165 21.281539 
L 17.328929 21.302623 
L 17.39995 21.198765 
L 17.41686 21.228582 
L 17.592721 21.015956 
L 17.697561 20.83724 
L 17.721235 20.875055 
L 17.724617 20.883706 
L 17.778728 20.758921 
L 17.78211 20.767179 
L 17.907242 18.728924 
L 17.924152 9.030794 
L 18.001936 24.291204 
L 18.515992 22.026367 
L 18.519374 22.030744 
L 18.573485 21.919294 
L 18.678326 21.809532 
L 18.695235 21.839196 
L 18.854187 21.688427 
L 19.161944 21.265584 
L 19.263402 21.147633 
L 19.290458 21.185307 
L 19.378389 21.083791 
L 19.39868 21.094377 
L 19.523812 20.913615 
L 19.604979 20.930305 
L 19.621889 20.879681 
L 19.632035 20.882236 
L 19.753785 20.753116 
L 19.76393 20.757506 
L 19.801132 20.653542 
L 19.804514 20.65612 
L 19.966847 19.070166 
L 19.983757 9.157649 
L 20.048014 24.045772 
L 20.061542 24.296793 
L 20.149472 23.706936 
L 20.44032 22.425629 
L 20.453847 22.439464 
L 20.491049 22.443325 
L 20.460611 22.425932 
L 20.531632 22.362076 
L 20.832625 21.997884 
L 20.92732 21.989635 
L 20.950994 21.938731 
L 21.228313 21.623218 
L 21.238459 21.640535 
L 21.245223 21.654442 
L 21.262133 21.593266 
L 21.302716 21.564058 
L 21.434612 21.394489 
L 21.441376 21.401625 
L 21.593563 21.494573 
L 21.701786 21.525523 
L 21.624001 21.409666 
L 21.711932 21.49685 
L 21.837064 21.451829 
L 21.840445 21.481324 
L 21.864119 21.514181 
L 21.924994 21.412073 
L 21.945286 21.442971 
L 21.948668 21.436228 
L 22.002779 21.560056 
L 22.009543 21.550105 
L 22.124529 21.574049 
L 22.0738 21.4878 
L 22.131293 21.567574 
L 22.148203 21.547066 
L 22.198932 21.634625 
L 22.229369 21.632564 
L 22.30039 21.671387 
L 22.340974 21.640034 
L 22.388321 21.59128 
L 22.452578 21.674649 
L 22.564182 21.843344 
L 22.621675 21.804923 
L 22.635203 21.813636 
L 22.750189 21.715994 
L 22.855029 21.793144 
L 22.868557 21.752213 
L 22.92605 21.717434 
L 22.970016 21.796139 
L 22.976779 21.774153 
L 22.986925 21.761867 
L 23.013981 21.85185 
L 23.037654 21.856084 
L 23.159405 21.952906 
L 23.172932 21.941362 
L 23.250717 21.914037 
L 23.274391 21.998052 
L 23.345412 21.973979 
L 23.281155 22.011683 
L 23.369085 22.016672 
L 23.490835 22.144185 
L 23.592294 22.060874 
L 23.558474 22.176308 
L 23.609203 22.083544 
L 23.764773 22.16997 
L 23.632877 22.050783 
L 23.771537 22.139078 
L 23.832412 22.061209 
L 23.886523 22.139718 
L 24.059002 22.294922 
L 24.07253 22.255805 
L 24.126641 22.222521 
L 24.08944 22.284358 
L 24.184134 22.257451 
L 24.187516 22.252666 
L 24.201044 22.318088 
L 24.261919 22.333305 
L 24.339704 22.414371 
L 24.383669 22.375231 
L 24.458072 22.37387 
L 24.481746 22.410149 
L 24.610259 22.566439 
L 24.671135 22.539391 
L 24.701572 22.629706 
L 24.711718 22.601359 
L 24.806412 22.647066 
L 24.725246 22.582511 
L 24.830086 22.629819 
L 24.92478 22.627978 
L 24.863905 22.697287 
L 24.945072 22.642626 
L 25.398253 22.771721 
L 25.438836 22.803977 
L 25.486184 22.711599 
L 25.489566 22.710607 
L 25.506475 22.716158 
L 25.530149 22.811506 
L 25.536913 22.814485 
L 25.634989 22.808691 
L 25.574114 22.722339 
L 25.645135 22.779612 
L 25.699246 22.660233 
L 25.763503 22.676427 
L 25.824378 22.746673 
L 25.881871 22.725613 
L 26.419601 22.817248 
L 26.426365 22.782459 
L 26.45342 22.754455 
L 26.521059 22.850803 
L 26.598844 22.892813 
L 26.625899 22.832709 
L 26.734122 22.794348 
L 26.740886 22.828462 
L 26.862636 22.923954 
L 26.886309 22.89375 
L 26.994532 22.739462 
L 26.903219 22.916061 
L 27.041879 22.791982 
L 27.133191 22.858748 
L 27.160247 22.830701 
L 27.302289 22.848745 
L 27.305671 22.844044 
L 27.396983 22.821077 
L 27.359782 22.8811 
L 27.417275 22.843055 
L 27.46124 22.800764 
L 27.539025 22.880129 
L 28.398039 23.113975 
L 28.533317 23.210142 
L 28.584046 23.163781 
L 28.628012 23.271447 
L 28.753144 23.350316 
L 28.993262 23.720515 
L 29.003408 23.715519 
L 29.098102 23.618411 
L 29.016935 23.726712 
L 29.135304 23.641268 
L 29.409241 23.792935 
L 29.152213 23.605957 
L 29.446443 23.726311 
L 29.480262 23.792176 
L 29.571575 23.665304 
L 29.656123 23.699887 
L 29.588484 23.641121 
L 29.679797 23.645019 
L 29.957117 23.821316 
L 29.693325 23.612699 
L 29.987554 23.751052 
L 30.045047 23.66105 
L 30.099158 23.749199 
L 30.214144 23.740084 
L 30.160033 23.837912 
L 30.217526 23.749124 
L 30.244582 23.78524 
L 30.315603 23.699352 
L 30.318985 23.69222 
L 30.369714 23.794788 
L 30.400152 23.77549 
L 30.552339 23.925169 
L 30.555721 23.920003 
L 30.663943 23.841465 
L 30.697763 23.905257 
L 30.819513 23.81001 
L 30.877006 23.791799 
L 30.904062 23.845315 
L 30.931117 23.814855 
L 30.934499 23.842619 
L 31.032575 23.754337 
L 31.262548 23.778829 
L 31.313277 23.869151 
L 31.272694 23.775739 
L 31.377534 23.813976 
L 31.445173 23.843882 
L 31.411353 23.883042 
L 31.455319 23.88581 
L 31.472228 23.925488 
L 31.529722 23.849748 
L 31.570305 23.88399 
L 31.621034 23.836058 
L 31.688673 23.876409 
L 31.729256 23.939292 
L 31.793513 23.858692 
L 31.847625 23.851275 
L 31.884826 23.94038 
L 31.888208 23.933736 
L 31.982902 24.013147 
L 31.942319 23.920733 
L 32.01334 24.003853 
L 32.111416 23.930379 
L 32.128326 23.972329 
L 32.41241 23.812872 
L 32.513868 23.692936 
L 32.544305 23.753043 
L 32.598417 23.790279 
L 32.557833 23.72767 
L 32.652528 23.732403 
L 32.733694 23.606376 
L 32.686347 23.74547 
L 32.770896 23.709948 
L 32.845299 23.678951 
L 32.77766 23.694833 
L 32.852063 23.638906 
L 32.906174 23.620158 
L 32.889264 23.676669 
L 32.960285 23.653382 
L 33.572417 23.548125 
L 33.575799 23.563189 
L 33.619764 23.527377 
L 33.585945 23.536866 
L 33.636674 23.48232 
L 33.761806 23.297617 
L 33.778716 23.347646 
L 33.964723 23.422177 
L 33.968105 23.433903 
L 34.001924 23.327542 
L 34.059417 23.356112 
L 34.100001 23.288849 
L 34.174404 23.353621 
L 34.299536 23.430496 
L 34.306299 23.426528 
L 34.434813 23.281996 
L 34.590383 23.352542 
L 34.597147 23.345432 
L 34.739189 23.195416 
L 34.742571 23.199662 
L 34.766244 23.117699 
L 34.803446 23.09798 
L 34.908286 23.001699 
L 34.860939 23.12184 
L 34.928578 23.068804 
L 35.030036 23.05979 
L 34.959015 23.004735 
L 35.040182 23.046591 
L 35.15855 22.901469 
L 35.172078 22.942134 
L 35.209279 23.0193 
L 35.276918 22.91448 
L 35.895814 22.907803 
L 36.034474 23.023851 
L 36.037856 23.003711 
L 36.13255 22.940072 
L 36.091967 23.024114 
L 36.152842 22.970942 
L 36.487655 22.957214 
L 36.491037 22.932919 
L 36.497801 22.901305 
L 36.511328 22.972778 
L 36.599259 22.947104 
L 36.714245 22.97657 
L 36.724391 23.009265 
L 36.734537 23.026767 
L 36.798794 22.905398 
L 36.802176 22.915768 
L 36.91378 22.832701 
L 36.846141 22.956947 
L 36.917162 22.845242 
L 36.93069 22.880725 
L 37.01862 22.803897 
L 37.103169 22.71771 
L 37.143752 22.783069 
L 37.289176 22.745114 
L 37.302704 22.791233 
L 37.316232 22.806636 
L 37.360197 22.645137 
L 37.370343 22.661456 
L 37.458273 22.617132 
L 37.431218 22.669336 
L 37.481947 22.651611 
L 37.509003 22.683737 
L 37.617225 22.611545 
L 37.620607 22.625994 
L 37.684864 22.542249 
L 37.711919 22.538823 
L 37.738975 22.51304 
L 37.793086 22.599364 
L 37.823524 22.542587 
L 38.117753 22.226494 
L 38.131281 22.268937 
L 38.192156 22.170416 
L 38.229357 22.22864 
L 38.327434 22.144073 
L 38.239503 22.267658 
L 38.347725 22.203971 
L 38.510059 22.315124 
L 38.516823 22.334146 
L 38.58108 22.209417 
L 38.604753 22.231207 
L 38.641955 22.2364 
L 38.679156 22.132463 
L 38.919274 22.02384 
L 38.939566 22.010167 
L 39.003823 22.120036 
L 39.010587 22.101747 
L 39.105281 22.206089 
L 39.142483 22.169814 
L 39.301434 22.061317 
L 39.31158 22.08563 
L 39.504351 22.192539 
L 39.511115 22.154843 
L 39.582136 22.119557 
L 39.561844 22.192696 
L 39.632865 22.151734 
L 39.791816 22.243082 
L 39.805344 22.216702 
L 39.927094 22.050897 
L 39.930476 22.05768 
L 39.994733 21.999056 
L 40.04208 22.050425 
L 40.33631 22.202994 
L 40.048844 22.038534 
L 40.343074 22.174968 
L 40.410713 22.235362 
L 40.454678 22.162249 
L 40.461442 22.192232 
L 40.552754 22.108292 
L 40.559518 22.07598 
L 40.617011 22.176007 
L 40.657595 22.137855 
L 40.769199 22.210213 
L 40.803018 22.118918 
L 41.087102 21.88154 
L 40.809782 22.130798 
L 41.110775 21.926662 
L 41.20547 22.02834 
L 41.239289 21.999397 
L 41.354276 21.874934 
L 41.391477 21.841004 
L 41.367803 21.884777 
L 41.469262 21.882424 
L 41.574102 21.909636 
L 41.547046 21.843229 
L 41.594394 21.893864 
L 41.722908 21.781898 
L 41.729672 21.785161 
L 41.868331 21.830784 
L 41.892005 21.806345 
L 41.956262 21.771406 
L 41.986699 21.847087 
L 41.993463 21.846139 
L 42.040811 21.938892 
L 42.10845 21.899404 
L 42.118595 21.877301 
L 42.165943 21.986561 
L 42.206526 21.952373 
L 42.355332 21.950127 
L 42.362096 21.933797 
L 42.490609 21.758296 
L 42.510901 21.794299 
L 42.575158 21.809418 
L 42.605596 21.740931 
L 42.608978 21.72399 
L 42.70029 21.817476 
L 42.703672 21.805834 
L 42.771311 21.729321 
L 42.893061 21.631791 
L 42.781457 21.738208 
L 42.896443 21.638084 
L 42.953936 21.716329 
L 42.97761 21.700671 
L 42.987756 21.748255 
L 43.068922 21.602804 
L 43.079068 21.636748 
L 43.2042 21.515575 
L 43.224492 21.585753 
L 43.23802 21.5901 
L 43.278603 21.472057 
L 43.292131 21.494787 
L 43.407117 21.424406 
L 43.339478 21.505606 
L 43.413881 21.429206 
L 43.495048 21.465644 
L 43.427409 21.420463 
L 43.532249 21.441265 
L 43.539013 21.448052 
L 43.694582 21.373678 
L 43.81295 21.424457 
L 43.735166 21.323043 
L 43.819714 21.399023 
L 43.883971 21.263939 
L 43.944846 21.344068 
L 44.005721 21.383477 
L 44.032777 21.30981 
L 44.046305 21.31192 
L 44.178201 21.122343 
L 44.299951 21.007412 
L 44.31686 21.01773 
L 44.523159 20.088238 
L 44.546833 18.469236 
L 44.560361 8.872864 
L 44.641527 23.984266 
L 44.648291 23.960375 
L 45.311153 19.754432 
L 45.328062 12.610624 
L 45.334826 9.025527 
L 45.415993 24.288659 
L 45.426139 24.239123 
L 45.639201 22.83644 
L 45.804917 22.179597 
L 45.835354 22.067278 
L 46.258098 19.568927 
L 46.278389 8.939536 
L 46.335882 22.307927 
L 46.356174 24.454151 
L 46.450869 23.909902 
L 46.778917 22.581818 
L 46.782299 22.58253 
L 47.123876 21.780371 
L 47.272682 21.456677 
L 47.279445 21.460474 
L 47.289591 21.489225 
L 47.363994 21.289706 
L 47.671751 20.622521 
L 47.759682 19.084249 
L 47.776592 9.054114 
L 47.84423 24.316605 
L 47.850994 24.430413 
L 47.935543 23.943278 
L 48.026856 23.447007 
L 48.206099 22.813047 
L 48.209481 22.82549 
L 48.250064 22.71044 
L 48.290647 22.704509 
L 48.341377 22.618116 
L 48.456363 22.374869 
L 48.476654 22.39962 
L 48.926453 21.720121 
L 49.061731 21.61939 
L 49.075259 21.658592 
L 49.186863 21.722588 
L 49.197009 21.710913 
L 49.254502 21.61165 
L 49.328905 21.542368 
L 49.369488 21.594689 
L 49.508148 21.582072 
L 49.416835 21.668255 
L 49.51153 21.589199 
L 49.531822 21.636462 
L 49.572405 21.553116 
L 49.61637 21.581798 
L 49.717829 21.516937 
L 49.640044 21.626125 
L 49.731356 21.548353 
L 49.734738 21.571598 
L 49.819287 21.462426 
L 49.832815 21.479087 
L 49.883544 21.510804 
L 49.87678 21.462369 
L 49.944419 21.48533 
L 50.005294 21.389375 
L 50.072933 21.410267 
L 50.201447 21.414106 
L 50.204829 21.419846 
L 50.214975 21.438624 
L 50.29276 21.349967 
L 50.302905 21.370251 
L 50.390836 21.208159 
L 50.472003 21.313104 
L 50.586989 21.394848 
L 50.482149 21.305437 
L 50.593753 21.371829 
L 50.668156 21.287345 
L 50.718885 21.23877 
L 50.77976 21.297562 
L 50.874454 21.289841 
L 50.830489 21.235411 
L 50.8846 21.280746 
L 50.887982 21.260422 
L 50.986059 21.344704 
L 51.02326 21.319568 
L 51.070607 21.427897 
L 51.155156 21.546962 
L 51.192357 21.503681 
L 51.337781 21.571622 
L 51.341163 21.593308 
L 51.412184 21.517877 
L 51.442621 21.52977 
L 51.618483 21.561418 
L 51.686121 21.512986 
L 51.642156 21.607353 
L 51.733469 21.539651 
L 51.801108 21.547893 
L 51.824781 21.464554 
L 51.834927 21.489255 
L 51.841691 21.482814 
L 51.878892 21.562559 
L 51.89242 21.565145 
L 51.899184 21.604194 
L 51.993879 21.524014 
L 52.000642 21.552331 
L 52.159594 21.697932 
L 52.017552 21.539219 
L 52.16974 21.69233 
L 52.261052 21.633659 
L 52.183268 21.720399 
L 52.29149 21.668352 
L 52.382802 21.750188 
L 52.467351 21.78628 
L 52.491025 21.765383 
L 52.592483 21.726073 
L 52.558664 21.792834 
L 52.602629 21.736395 
L 52.731143 21.812327 
L 52.741289 21.807408 
L 52.805546 21.899905 
L 52.81231 21.894154 
L 53.133594 21.814645 
L 53.136976 21.82389 
L 53.262108 21.954542 
L 53.295928 21.89038 
L 53.38724 21.735251 
L 53.431206 21.816809 
L 53.586775 22.188886 
L 53.607067 22.124076 
L 53.644268 22.073912 
L 53.708525 22.18108 
L 54.104213 22.141174 
L 54.110977 22.183309 
L 54.165088 22.335453 
L 54.236109 22.276166 
L 54.384915 22.188034 
L 54.242873 22.285582 
L 54.39506 22.209628 
L 54.44579 22.22053 
L 54.405206 22.198496 
L 54.489755 22.168342 
L 54.513429 22.144225 
L 54.56754 22.235798 
L 54.594595 22.203364 
L 54.611505 22.156787 
L 54.692672 22.249568 
L 54.702818 22.228046 
L 54.969991 22.403773 
L 54.983519 22.371272 
L 55.024102 22.316673 
L 55.091741 22.39554 
L 55.132325 22.471428 
L 55.196582 22.368659 
L 55.203346 22.400638 
L 55.206728 22.379437 
L 55.291276 22.493341 
L 55.29804 22.490364 
L 55.568596 22.473019 
L 55.642999 22.490116 
L 55.595651 22.542494 
L 55.666672 22.506326 
L 55.788422 22.592673 
L 55.839151 22.557121 
L 55.913554 22.596493 
L 55.964283 22.627133 
L 55.927082 22.627148 
L 55.974429 22.68583 
L 56.106325 22.821165 
L 56.116471 22.802979 
L 56.170582 22.788887 
L 56.123235 22.815989 
L 56.214548 22.826555 
L 56.221311 22.863437 
L 56.30586 22.755032 
L 56.319388 22.780947 
L 56.535832 22.853362 
L 56.542596 22.837676 
L 56.562888 22.791772 
L 56.58318 22.858933 
L 56.654201 22.815007 
L 56.830062 22.750504 
L 56.860499 22.834169 
L 57.276479 23.378281 
L 56.877409 22.817542 
L 57.293388 23.350822 
L 57.398229 23.369957 
L 57.404993 23.41635 
L 57.547034 23.511058 
L 57.618055 23.485932 
L 57.645111 23.578117 
L 57.668784 23.545569 
L 57.827736 23.804453 
L 57.848028 23.765754 
L 57.915667 23.869757 
L 57.925812 23.838452 
L 58.030653 23.893433 
L 57.935958 23.830059 
L 58.040799 23.883863 
L 58.04418 23.875045 
L 58.078 23.958242 
L 58.135493 23.938651 
L 58.179458 23.968765 
L 58.230188 23.872165 
L 58.236951 23.873013 
L 58.368847 23.917906 
L 58.243715 23.856657 
L 58.372229 23.909903 
L 58.382375 23.887894 
L 58.433104 23.998323 
L 58.466924 23.988837 
L 58.517653 24.070663 
L 58.541327 23.9747 
L 58.58191 24.013859 
L 58.605584 24.053542 
L 58.679986 23.962731 
L 58.801736 23.895504 
L 59.058764 24.065107 
L 59.06891 24.043491 
L 59.177132 24.039979 
L 59.156841 24.097984 
L 59.180514 24.049108 
L 59.268445 24.146985 
L 59.194042 24.042143 
L 59.302264 24.125535 
L 59.424015 23.982817 
L 59.457834 24.01794 
L 59.518709 24.033932 
L 59.528855 23.96852 
L 59.559292 23.978775 
L 59.57282 23.92372 
L 59.670897 23.977183 
L 59.768973 23.975973 
L 59.725008 23.940839 
L 59.779119 23.954718 
L 59.799411 23.934317 
L 59.863668 24.031227 
L 59.992182 24.125723 
L 59.904251 23.992509 
L 60.002327 24.094912 
L 60.022619 24.076526 
L 60.042911 24.13434 
L 60.11055 24.114981 
L 60.184952 24.046881 
L 60.144369 24.025706 
L 60.188334 24.036965 
L 60.303321 23.929368 
L 60.330376 23.954494 
L 60.425071 23.970404 
L 60.35405 23.918139 
L 60.445362 23.951526 
L 60.4758 23.848999 
L 60.556967 23.933733 
L 60.732828 23.895723 
L 60.73621 23.900037 
L 60.739592 23.91564 
L 60.813994 23.810492 
L 60.830904 23.820541 
L 60.837668 23.802613 
L 61.000002 23.799429 
L 61.121752 23.679319 
L 61.155571 23.730071 
L 61.202918 23.609576 
L 61.22321 23.655168 
L 61.307759 23.611438 
L 61.257029 23.670623 
L 61.334814 23.617897 
L 61.436273 23.612481 
L 61.385543 23.537664 
L 61.446418 23.60255 
L 61.503912 23.551133 
L 61.561405 23.615012 
L 61.669627 23.732337 
L 61.574932 23.610617 
L 61.693301 23.682225 
L 61.838724 23.620697 
L 61.960474 23.500045 
L 61.963856 23.505981 
L 62.007822 23.568309 
L 62.068697 23.457561 
L 62.308815 23.353554 
L 62.07546 23.472415 
L 62.325724 23.393502 
L 62.410273 23.446888 
L 62.450856 23.425702 
L 62.559079 23.372391 
L 62.569225 23.392745 
L 62.663919 23.439028 
L 62.59628 23.373993 
L 62.684211 23.407941 
L 62.812725 23.472125 
L 62.83978 23.438789 
L 63.008878 23.370988 
L 62.907419 23.499467 
L 63.01226 23.376511 
L 63.039315 23.400889 
L 63.062989 23.354149 
L 63.120482 23.364558 
L 63.407947 23.303217 
L 63.424857 23.341038 
L 63.526315 23.455732 
L 63.435003 23.326866 
L 63.549989 23.39356 
L 63.648065 23.223836 
L 63.712322 23.293496 
L 63.935531 23.416003 
L 63.945677 23.39742 
L 63.98626 23.350803 
L 63.962586 23.42049 
L 64.053899 23.400264 
L 64.158739 23.221641 
L 64.195941 23.269002 
L 64.273726 23.209662 
L 64.334601 23.180038 
L 64.392094 23.262417 
L 65.460789 22.837156 
L 65.477698 22.877239 
L 65.521664 22.913997 
L 65.53181 22.859733 
L 65.582539 22.85272 
L 65.663705 22.833585 
L 65.606212 22.902103 
L 65.690761 22.858927 
L 65.711053 22.923164 
L 65.761782 22.785305 
L 65.795601 22.815189 
L 65.853094 22.864357 
L 65.805747 22.801797 
L 65.910588 22.811809 
L 65.968081 22.731849 
L 65.934261 22.829078 
L 66.025574 22.813677 
L 66.052629 22.872264 
L 66.12365 22.725998 
L 66.127032 22.714871 
L 66.181143 22.825853 
L 66.221727 22.763643 
L 66.329949 22.81008 
L 66.248782 22.742624 
L 66.343477 22.795257 
L 66.444935 22.852903 
L 66.4889 22.796644 
L 66.614032 22.693959 
L 66.543011 22.823926 
L 66.617414 22.697774 
L 66.779748 22.758242 
L 66.793276 22.737827 
L 66.88797 22.697684 
L 66.854151 22.769377 
L 66.901498 22.735214 
L 66.962373 22.870831 
L 67.02663 22.819748 
L 67.777422 22.784756 
L 67.784186 22.81518 
L 67.838297 22.673305 
L 67.882262 22.767754 
L 68.007394 22.661969 
L 68.108853 22.663916 
L 68.12238 22.706314 
L 68.26104 22.81405 
L 68.528214 22.686724 
L 68.531596 22.691428 
L 68.663492 22.72564 
L 68.670256 22.687754 
L 68.775096 22.658845 
L 68.720985 22.75972 
L 68.792006 22.722 
L 68.825825 22.69881 
L 68.923902 22.781558 
L 69.052416 22.691946 
L 69.092999 22.729023 
L 69.160638 22.670783 
L 69.174166 22.67423 
L 69.289152 22.590656 
L 69.316207 22.646673 
L 69.383846 22.555078 
L 69.404138 22.597253 
L 70.080527 22.235532 
L 69.437957 22.657175 
L 70.097437 22.272108 
L 70.655458 22.376611 
L 70.67575 22.396884 
L 70.824555 22.272018 
L 70.865139 22.309446 
L 70.929396 22.244416 
L 70.966597 22.258246 
L 71.061292 22.156475 
L 71.101875 22.204347 
L 71.155986 22.104375 
L 71.264208 22.037613 
L 71.166132 22.119459 
L 71.291264 22.125622 
L 71.30141 22.164629 
L 71.396104 22.063827 
L 71.413014 22.029767 
L 71.494181 22.131862 
L 71.588875 22.154716 
L 71.534764 22.080759 
L 71.602403 22.120693 
L 71.710625 22.026817 
L 71.724153 22.062453 
L 72.441126 21.89381 
L 72.56964 21.791345 
L 72.715063 22.090393 
L 72.579786 21.778457 
L 72.759029 22.055398 
L 72.897689 21.889318 
L 72.938272 21.982297 
L 72.941654 21.993808 
L 73.002529 21.910307 
L 73.036348 21.958488 
L 73.087078 21.884994 
L 73.147953 21.926421 
L 73.175008 21.885094 
L 73.286612 22.008881 
L 73.33396 21.969004 
L 73.391453 22.02727 
L 73.398217 21.996022 
L 73.476001 22.026268 
L 73.499675 21.948994 
L 73.662008 21.681309 
L 73.689064 21.725478 
L 73.770231 21.66041 
L 73.996821 21.533722 
L 74.000203 21.53761 
L 74.037404 21.569021 
L 74.071224 21.500241 
L 74.105043 21.508264 
L 74.42971 21.159255 
L 74.717176 20.341473 
L 74.761141 18.987353 
L 74.778051 8.938606 
L 74.852454 23.920495 
L 74.862599 23.941925 
L 74.893037 23.709533 
L 75.258287 21.58116 
L 75.430766 20.661604 
L 75.498405 19.370664 
L 75.515315 8.999613 
L 75.57619 23.031933 
L 75.596482 24.310987 
L 75.687794 23.706346 
L 75.792635 23.060059 
L 76.039517 21.986157 
L 76.042899 21.989682 
L 76.073336 21.870181 
L 76.384475 20.310514 
L 76.421677 17.75183 
L 76.431822 9.036939 
L 76.516371 24.433695 
L 76.526517 24.368766 
L 76.952642 22.434934 
L 77.757545 19.886945 
L 77.777837 16.36134 
L 77.787983 9.063791 
L 77.86915 24.42069 
L 77.879295 24.371079 
L 78.555685 22.042634 
L 78.562449 22.048887 
L 78.565831 22.051689 
L 78.586122 21.940211 
L 78.718018 21.756264 
L 78.7214 21.769737 
L 78.785657 21.605689 
L 78.792421 21.608427 
L 78.839768 21.621602 
L 78.937845 21.481206 
L 78.941227 21.487124 
L 78.99872 21.379249 
L 79.008865 21.391726 
L 79.164435 21.138577 
L 79.167817 21.14886 
L 79.171199 21.16357 
L 79.248984 21.024249 
L 79.418081 20.792937 
L 79.424845 20.844505 
L 79.489102 20.710076 
L 79.516157 20.71366 
L 79.685255 19.046674 
L 79.702164 9.217928 
L 79.769803 24.251862 
L 79.779949 24.346547 
L 79.857734 23.851722 
L 80.084324 22.738625 
L 80.334588 22.207533 
L 80.33797 22.218804 
L 80.696457 21.685693 
L 80.706603 21.697215 
L 80.709984 21.727974 
L 80.801297 21.542411 
L 80.943339 21.389205 
L 80.946721 21.393648 
L 81.122582 21.26177 
L 81.129346 21.28233 
L 81.13611 21.307861 
L 81.220658 21.173109 
L 81.22404 21.172625 
L 81.227422 21.179547 
L 81.274769 21.041866 
L 81.278151 21.042828 
L 81.322117 20.965494 
L 81.389756 21.041398 
L 81.660311 20.952892 
L 81.663693 20.968554 
L 81.802353 21.077281 
L 81.809117 21.068489 
L 81.880138 21.142392 
L 81.90043 21.123242 
L 81.944395 21.170637 
L 82.001888 21.085989 
L 82.093201 20.973693 
L 82.120256 21.014176 
L 82.333319 20.732155 
L 82.343465 20.756805 
L 82.346846 20.780446 
L 82.434777 20.615688 
L 82.556527 19.534931 
L 82.573437 11.451576 
L 82.580201 9.113947 
L 82.657986 24.31094 
L 82.661367 24.282066 
L 83.25659 22.056714 
L 83.259972 22.058671 
L 83.263354 22.077566 
L 83.347903 21.943609 
L 83.537292 21.683749 
L 83.557583 21.703135 
L 83.574493 21.653856 
L 83.63875 21.643529 
L 83.841667 21.401073 
L 83.946507 21.501797 
L 83.963417 21.465487 
L 84.139278 21.26258 
L 84.152806 21.311909 
L 84.261028 21.367686 
L 84.213681 21.278939 
L 84.271174 21.333619 
L 84.288084 21.357529 
L 84.399688 21.305499 
L 85.350015 21.658829 
L 85.360161 21.63292 
L 85.363543 21.620795 
L 85.404126 21.732061 
L 85.444709 21.725816 
L 85.546168 21.745965 
L 85.478529 21.684276 
L 85.566459 21.725078 
L 85.62057 21.651721 
L 85.6713 21.75631 
L 85.772758 21.808721 
L 85.789668 21.770165 
L 85.894508 21.733637 
L 85.837015 21.780086 
L 85.901272 21.759102 
L 86.00273 21.707487 
L 85.972293 21.790234 
L 86.016258 21.760412 
L 86.023022 21.74865 
L 86.144772 21.778264 
L 86.168446 21.700528 
L 86.26314 21.722272 
L 86.479585 21.743337 
L 86.530314 21.753129 
L 86.516786 21.707784 
L 86.591189 21.735441 
L 86.919238 21.725819 
L 86.942911 21.706404 
L 87.003787 21.831605 
L 87.013932 21.813697 
L 87.328453 22.146379 
L 87.338599 22.129217 
L 87.433294 22.09868 
L 87.355509 22.155896 
L 87.470495 22.139332 
L 87.602391 22.251124 
L 87.622683 22.192372 
L 87.79178 22.208612 
L 87.795162 22.232704 
L 87.89662 22.299019 
L 87.91353 22.280812 
L 87.933822 22.234678 
L 88.001461 22.344648 
L 88.153648 22.490249 
L 88.011607 22.322415 
L 88.204377 22.405479 
L 88.272016 22.39488 
L 88.217905 22.439772 
L 88.305836 22.455781 
L 88.508753 22.389608 
L 88.518898 22.405093 
L 88.613593 22.452924 
L 88.545954 22.362806 
L 88.630503 22.39474 
L 88.802982 22.272331 
L 88.819892 22.285693 
L 88.93826 22.419907 
L 88.836801 22.258521 
L 88.95517 22.388451 
L 90.291038 22.544044 
L 90.29442 22.547863 
L 90.331622 22.463645 
L 90.362059 22.473862 
L 90.365441 22.442302 
L 90.460136 22.5843 
L 90.713782 23.046523 
L 90.757747 22.989322 
L 90.808476 23.122697 
L 90.811858 23.108877 
L 90.93699 23.220731 
L 90.9539 23.199376 
L 90.97081 23.174117 
L 91.014775 23.308799 
L 91.065504 23.397792 
L 91.068886 23.387883 
" clip-path="url(#pa9fecb795c)" style="fill: none; stroke: #000000; stroke-width: 0.6; stroke-linecap: square"/>
   </g>
   <g id="line2d_2">
    <path d="M 9.905557 41.539431 
L 10.152439 41.456922 
L 10.155821 41.48522 
L 10.270807 41.551297 
L 10.176113 41.477087 
L 10.277571 41.536344 
L 10.301245 41.513771 
L 10.358738 41.625056 
L 10.37903 41.581713 
L 10.568419 41.799734 
L 10.652967 41.67135 
L 10.798391 41.486508 
L 10.801773 41.493276 
L 10.940433 41.568675 
L 10.808537 41.487981 
L 10.95396 41.533011 
L 11.065565 41.397593 
L 11.079092 41.414794 
L 11.200842 41.545063 
L 11.116294 41.391319 
L 11.217752 41.53288 
L 11.342884 41.42047 
L 11.366558 41.445538 
L 11.403759 41.327033 
L 11.440961 41.369817 
L 11.637114 41.29927 
L 11.647259 41.345112 
L 11.704752 41.378152 
L 11.741954 41.291556 
L 11.745336 41.304728 
L 11.809593 41.279718 
L 11.762246 41.343635 
L 11.860322 41.314754 
L 11.863704 41.326384 
L 11.934725 41.203762 
L 11.941489 41.211011 
L 12.015892 41.103971 
L 12.066621 41.147378 
L 12.113968 41.186051 
L 12.171461 41.144117 
L 12.296593 41.043468 
L 12.394669 41.128233 
L 12.327031 41.020914 
L 12.418343 41.08277 
L 12.529947 41.042299 
L 12.49951 41.1153 
L 12.536711 41.054134 
L 12.543475 41.074691 
L 12.567149 41.00725 
L 12.644934 41.034197 
L 12.783593 40.889297 
L 12.810649 40.893867 
L 12.84785 40.816296 
L 12.942545 40.689357 
L 12.854614 40.827236 
L 12.9696 40.771682 
L 13.135316 40.620264 
L 13.138698 40.62497 
L 13.189427 40.545108 
L 13.148844 40.636406 
L 13.250302 40.651425 
L 13.429545 40.835322 
L 13.432927 40.82997 
L 13.439691 40.79736 
L 13.500566 40.924885 
L 13.52424 40.924485 
L 13.673045 41.092822 
L 13.676427 41.086146 
L 13.916545 40.939385 
L 13.943601 40.958532 
L 13.990948 40.863483 
L 13.99433 40.879101 
L 14.021386 40.817172 
L 14.055205 40.891938 
L 14.105934 40.872033 
L 14.22092 40.857512 
L 14.183719 40.919783 
L 14.227684 40.864575 
L 14.339289 40.940084 
L 14.346053 40.929443 
L 14.430601 40.893748 
L 14.461039 40.920019 
L 14.843199 40.680453 
L 14.849962 40.706244 
L 14.900692 40.77821 
L 14.941275 40.659686 
L 14.951421 40.661034 
L 14.988622 40.616257 
L 15.052879 40.701228 
L 15.090081 40.687093 
L 15.063025 40.666819 
L 15.100227 40.6249 
L 15.188157 40.533898 
L 15.215213 40.554582 
L 15.347109 40.604869 
L 15.235504 40.51812 
L 15.364018 40.567647 
L 15.577081 40.476149 
L 15.621046 40.535621 
L 15.688685 40.460761 
L 15.715741 40.479988 
L 15.773234 40.402836 
L 15.786762 40.420481 
L 15.891602 40.340363 
L 15.823963 40.438593 
L 15.908512 40.3678 
L 15.928803 40.384265 
L 16.108047 40.212993 
L 16.223033 40.311125 
L 16.118192 40.195528 
L 16.229797 40.303016 
L 16.294054 40.303238 
L 16.239942 40.28602 
L 16.317727 40.234879 
L 16.415804 40.125296 
L 16.442859 40.158956 
L 17.004262 39.954124 
L 17.007644 39.967289 
L 17.031318 40.007816 
L 17.075283 39.928389 
L 17.115867 39.956711 
L 17.210561 39.918263 
L 17.146304 39.972443 
L 17.227471 39.936384 
L 17.298492 40.01571 
L 17.342457 39.980054 
L 17.585957 40.059804 
L 17.690797 40.105489 
L 17.704325 40.085145 
L 17.880186 39.855881 
L 17.883568 39.861854 
L 18.049284 40.16532 
L 18.069575 40.139733 
L 18.120305 40.258152 
L 18.127068 40.260632 
L 18.26911 40.487776 
L 18.272492 40.463648 
L 18.340131 40.641504 
L 18.357041 40.620598 
L 18.380714 40.590834 
L 18.475409 40.674148 
L 18.624215 40.533389 
L 18.644506 40.56127 
L 18.678326 40.573907 
L 18.729055 40.474548 
L 18.739201 40.482275 
L 18.820367 40.404307 
L 18.847423 40.50528 
L 18.945499 40.421471 
L 18.877861 40.530043 
L 18.982701 40.453769 
L 19.090923 40.504465 
L 19.111215 40.492543 
L 19.121361 40.501672 
L 19.236347 40.491213 
L 19.29384 40.483859 
L 19.314132 40.410397 
L 19.327659 40.444102 
L 19.385152 40.396741 
L 19.429118 40.470019 
L 19.435882 40.468882 
L 19.547486 40.490326 
L 19.449409 40.506627 
L 19.55425 40.497581 
L 19.561014 40.517162 
L 19.625271 40.399666 
L 19.65909 40.476951 
L 19.784222 40.351807 
L 19.790986 40.392214 
L 19.845097 40.529734 
L 19.909354 40.467737 
L 19.973611 40.426849 
L 20.007431 40.52212 
L 20.014194 40.508551 
L 20.054778 40.598624 
L 20.163 40.650358 
L 20.081833 40.527817 
L 20.169764 40.632271 
L 20.183292 40.6072 
L 20.240785 40.739486 
L 20.271222 40.713062 
L 20.359153 40.776362 
L 20.52825 40.845991 
L 20.551924 40.797686 
L 20.595889 40.77194 
L 20.619563 40.835832 
L 20.656764 40.82715 
L 20.80557 40.93434 
L 20.717639 40.776798 
L 20.808952 40.933014 
L 20.957757 40.780467 
L 20.961139 40.796289 
L 21.022014 40.723035 
L 21.059216 40.731053 
L 21.221549 40.590954 
L 21.069362 40.751644 
L 21.224931 40.597594 
L 21.593563 40.396998 
L 21.251987 40.661661 
L 21.603709 40.43083 
L 21.610473 40.461394 
L 21.67473 40.395732 
L 21.70855 40.408634 
L 21.843827 40.26096 
L 21.735605 40.416718 
L 21.847209 40.273432 
L 22.16173 40.346626 
L 22.168494 40.323511 
L 22.310536 40.181053 
L 22.425522 40.282007 
L 22.442432 40.228266 
L 22.5608 40.011463 
L 22.45596 40.24645 
L 22.611529 40.050986 
L 22.675786 40.072296 
L 22.641967 40.00197 
L 22.712988 40.008366 
L 22.736661 39.954351 
L 22.811064 40.078184 
L 22.814446 40.066303 
L 23.078238 39.900091 
L 23.101911 39.937078 
L 23.22028 40.011649 
L 23.223662 40.00947 
L 23.301446 39.96393 
L 23.321738 40.034573 
L 23.331884 40.015276 
L 23.338648 40.038806 
L 23.369085 39.95562 
L 23.433342 39.950458 
L 23.46378 39.939118 
L 23.504363 39.883916 
L 23.511127 39.886949 
L 23.649787 39.729546 
L 23.744481 39.727778 
L 23.717426 39.774489 
L 23.758009 39.756534 
L 23.998127 39.800488 
L 24.008273 39.777772 
L 24.075912 39.810592 
L 24.126641 39.753722 
L 24.143551 39.772164 
L 24.187516 39.681881 
L 24.2281 39.70215 
L 24.238245 39.740922 
L 25.029621 39.548674 
L 25.114169 39.607543 
L 25.043149 39.533478 
L 25.141225 39.559815 
L 25.158135 39.557235 
L 25.212246 39.672791 
L 25.222392 39.649042 
L 25.246065 39.75467 
L 25.34076 39.695843 
L 25.543677 39.648247 
L 25.651899 39.533194 
L 25.678955 39.549572 
L 26.213302 39.364528 
L 26.345198 39.187575 
L 26.351962 39.216708 
L 26.355344 39.228477 
L 26.426365 39.073769 
L 26.45342 39.068556 
L 26.477094 38.977548 
L 26.480476 38.947635 
L 26.57517 39.081105 
L 26.690156 39.160897 
L 26.707066 39.104699 
L 26.8694 39.169956 
L 26.903219 39.212703 
L 26.943802 39.087366 
L 26.947184 39.102466 
L 27.092608 38.940412 
L 26.970858 39.116632 
L 27.099372 38.966831 
L 27.180539 38.980663 
L 27.126428 38.921104 
L 27.210976 38.937726 
L 27.319198 38.927163 
L 27.261705 39.00128 
L 27.325962 38.933155 
L 27.369928 38.978316 
L 27.400365 38.897512 
L 27.434185 38.942159 
L 27.555935 38.86096 
L 27.491678 38.979855 
L 27.559317 38.868059 
L 27.687831 38.764792 
L 27.802817 38.687552 
L 27.735178 38.776784 
L 27.806199 38.689779 
L 27.829872 38.709457 
L 27.887365 38.575734 
L 27.894129 38.586014 
L 28.239088 37.2925 
L 28.269525 34.738024 
L 28.286435 27.965607 
L 28.370984 39.633741 
L 28.550227 37.197785 
L 28.570519 32.330081 
L 28.580664 28.177369 
L 28.658449 40.323939 
L 28.668595 40.219805 
L 28.854602 37.064077 
L 28.871512 30.915843 
L 28.878276 27.984046 
L 28.95606 40.657776 
L 28.966206 40.576221 
L 29.138686 38.033985 
L 29.186033 35.844946 
L 29.199561 27.865408 
L 29.277345 40.862156 
L 29.287491 40.804207 
L 29.530991 36.633024 
L 29.547901 27.814905 
L 29.61554 40.803757 
L 29.625686 41.014659 
L 29.706853 40.168569 
L 29.913151 36.666321 
L 29.930061 27.826857 
L 29.994318 40.543928 
L 30.007846 41.124568 
L 30.099158 40.26017 
L 30.339276 37.125117 
L 30.356186 33.213193 
L 30.366332 27.838523 
L 30.444117 41.101517 
L 30.457645 41.040656 
L 30.789075 37.386104 
L 30.812749 34.919307 
L 30.826277 27.865804 
L 30.907443 41.155328 
L 30.914207 41.119821 
L 31.320041 36.650575 
L 31.340333 28.038173 
L 31.397826 40.258256 
L 31.418117 41.145555 
L 31.50943 40.423874 
L 31.867916 38.241459 
L 31.89159 38.132746 
L 32.033632 37.796839 
L 32.737076 38.824881 
L 32.74384 38.817145 
L 32.750604 38.78793 
L 32.835153 38.896847 
L 32.838535 38.889014 
L 32.892646 38.993129 
L 33.349209 39.896101 
L 33.352591 39.887993 
L 33.40332 40.0277 
L 33.538598 40.177273 
L 33.54198 40.168637 
L 33.599473 40.264677 
L 33.633292 40.238078 
L 33.792244 40.60592 
L 33.947813 40.850673 
L 34.123674 41.102446 
L 34.127056 41.08494 
L 34.174404 41.117509 
L 34.140584 41.124005 
L 34.191313 41.149527 
L 34.326591 41.38461 
L 34.329973 41.373996 
L 34.465251 41.416018 
L 34.346883 41.422375 
L 34.468633 41.437813 
L 34.597147 41.607103 
L 34.786536 41.615684 
L 34.894758 41.544322 
L 34.901522 41.57131 
L 35.111203 41.837045 
L 34.91505 41.564829 
L 35.128112 41.810857 
L 35.395286 41.819619 
L 35.398668 41.837162 
L 35.466307 41.727876 
L 35.489981 41.74214 
L 35.709807 41.651122 
L 35.716571 41.670855 
L 35.78421 41.69126 
L 35.760536 41.652872 
L 35.824793 41.65745 
L 35.973599 41.747771 
L 35.990509 41.686336 
L 36.088585 41.512811 
L 36.129169 41.554902 
L 36.311794 41.67869 
L 36.139314 41.534507 
L 36.332085 41.627259 
L 36.40987 41.572848 
L 36.352377 41.64936 
L 36.447071 41.592916 
L 36.518092 41.672939 
L 36.463981 41.573936 
L 36.558676 41.617854 
L 36.633079 41.560814 
L 36.56544 41.625809 
L 36.680426 41.59726 
L 36.77512 41.701453 
L 36.815704 41.676971 
L 36.907016 41.673418 
L 36.873197 41.716347 
L 36.920544 41.709487 
L 36.93069 41.735025 
L 36.978037 41.568055 
L 36.984801 41.569252 
L 37.130225 41.518089 
L 37.133607 41.526842 
L 37.353433 41.644509 
L 37.363579 41.572215 
L 37.383871 41.533464 
L 37.444746 41.654385 
L 37.461655 41.630309 
L 37.475183 41.639445 
L 37.529294 41.526306 
L 37.532676 41.532439 
L 37.630753 41.427489 
L 37.657808 41.528969 
L 38.039968 41.591663 
L 38.046732 41.549926 
L 38.151572 41.523446 
L 38.083933 41.57581 
L 38.161718 41.530584 
L 38.215829 41.479992 
L 38.266559 41.515462 
L 38.32067 41.395599 
L 38.384927 41.421323 
L 38.503295 41.547199 
L 38.506677 41.537666 
L 38.520205 41.545374 
L 38.526968 41.506743 
L 38.587843 41.482231 
L 38.601371 41.450252 
L 38.68592 41.542091 
L 38.692684 41.527815 
L 38.726503 41.475595 
L 38.767087 41.564522 
L 38.804288 41.533718 
L 38.844871 41.549832 
L 38.814434 41.519649 
L 38.898983 41.490568 
L 38.92942 41.398762 
L 38.993677 41.558076 
L 39.000441 41.530334 
L 39.047788 41.576562 
L 39.071462 41.493615 
L 39.105281 41.517493 
L 39.169538 41.498086 
L 39.196594 41.604813 
L 39.20674 41.574726 
L 39.392747 41.573694 
L 39.402893 41.595742 
L 39.517879 41.601583 
L 39.46715 41.550451 
L 39.521261 41.590459 
L 39.544934 41.554712 
L 39.615955 41.658661 
L 39.622719 41.640289 
L 39.673448 41.637615 
L 39.65992 41.606597 
L 39.707268 41.581321 
L 39.801962 41.491156 
L 39.764761 41.593671 
L 39.825636 41.504922 
L 39.829018 41.52624 
L 39.900039 41.446239 
L 39.930476 41.48213 
L 40.018407 41.469223 
L 39.987969 41.527588 
L 40.038698 41.497481 
L 40.136775 41.559667 
L 40.153685 41.50222 
L 40.393803 41.600157 
L 40.170594 41.470187 
L 40.403949 41.553875 
L 40.478351 41.567602 
L 40.437768 41.607159 
L 40.498643 41.604058 
L 40.535845 41.676031 
L 40.59672 41.563211 
L 40.600102 41.568824 
L 40.681268 41.491338 
L 40.721852 41.529168 
L 40.924768 41.679628 
L 40.755671 41.436276 
L 40.972116 41.587457 
L 40.985643 41.604794 
L 41.120921 41.551698 
L 41.235907 41.570917 
L 41.18856 41.482629 
L 41.239289 41.555057 
L 41.273109 41.523012 
L 41.306928 41.599448 
L 41.347512 41.573854 
L 41.44897 41.666734 
L 41.479408 41.640718 
L 41.584248 41.583703 
L 41.499699 41.67072 
L 41.594394 41.641261 
L 41.651887 41.656206 
L 41.689088 41.589423 
L 41.69247 41.593044 
L 41.810838 41.503409 
L 41.81422 41.50998 
L 41.871713 41.53782 
L 41.902151 41.445242 
L 41.905533 41.436857 
L 41.976554 41.553972 
L 42.152415 41.65245 
L 42.155797 41.643832 
L 42.192998 41.545883 
L 42.260637 41.677701 
L 42.264019 41.663792 
L 42.642797 41.523013 
L 42.73411 41.443429 
L 42.757783 41.482914 
L 42.893061 41.576929 
L 42.801749 41.438604 
L 42.896443 41.57222 
L 42.906589 41.513297 
L 42.994519 41.612137 
L 43.085832 41.637685 
L 43.038485 41.579422 
L 43.102742 41.606933 
L 43.281985 41.483945 
L 43.35977 41.560886 
L 43.295513 41.461624 
L 43.403735 41.541238 
L 43.420645 41.524145 
L 43.454464 41.637141 
L 43.505193 41.594948 
L 43.626943 41.602072 
L 43.522103 41.560996 
L 43.633707 41.596364 
L 43.694582 41.569118 
L 43.72502 41.645389 
L 43.738548 41.606099 
L 43.853534 41.659179 
L 43.796041 41.561844 
L 43.856916 41.647046 
L 43.911027 41.686261 
L 43.870444 41.621719 
L 43.954992 41.611396 
L 44.056451 41.575401 
L 44.002339 41.628416 
L 44.066596 41.602124 
L 44.215402 41.60062 
L 44.22893 41.561236 
L 44.33377 41.51483 
L 44.299951 41.60341 
L 44.340534 41.533754 
L 44.438611 41.590007 
L 44.452138 41.549137 
L 44.678729 41.617319 
L 44.712548 41.681997 
L 44.780187 41.577311 
L 44.786951 41.598105 
L 44.797097 41.608225 
L 44.85459 41.501397 
L 44.861354 41.512023 
L 44.97634 41.460027 
L 44.983104 41.470552 
L 45.006778 41.491497 
L 45.033833 41.394921 
L 45.084562 41.411869 
L 45.094708 41.392596 
L 45.169111 41.473563 
L 45.182639 41.476094 
L 45.338208 41.397909 
L 45.34159 41.406154 
L 45.351736 41.4373 
L 45.422757 41.329702 
L 45.429521 41.359493 
L 45.432903 41.323224 
L 45.527597 41.446813 
L 45.530979 41.443464 
L 45.662875 41.563531 
L 45.541125 41.435178 
L 45.676403 41.538144 
L 45.737278 41.423342 
L 45.794771 41.493593 
L 45.855646 41.486048 
L 45.804917 41.479076 
L 45.87932 41.428203 
L 46.13973 41.091133 
L 46.241188 41.071697 
L 46.180313 41.05365 
L 46.24457 41.053457 
L 46.271625 41.031599 
L 46.318973 41.119011 
L 46.352792 41.070893 
L 46.484688 41.222682 
L 46.491452 41.212527 
L 46.59291 41.07929 
L 46.619966 41.117076 
L 46.897286 41.151879 
L 46.900667 41.170729 
L 46.931105 41.243246 
L 46.988598 41.138581 
L 47.00889 41.166642 
L 47.13064 40.998699 
L 47.154313 41.036355 
L 47.198279 40.969985 
L 47.2693 41.048742 
L 47.326793 41.021775 
L 47.360612 41.108831 
L 47.377522 41.067087 
L 47.39105 41.073728 
L 47.431633 40.942695 
L 47.445161 40.94203 
L 47.752918 40.565825 
L 47.766446 40.574436 
L 48.097876 40.954388 
L 48.101258 40.943535 
L 48.13846 41.000795 
L 48.202717 40.916957 
L 48.206099 40.930798 
L 48.2433 40.873373 
L 48.304175 40.980658 
L 48.310939 40.971615 
L 48.419161 41.041984 
L 48.321085 40.95805 
L 48.432689 41.023903 
L 48.591641 40.82882 
L 48.449599 41.031006 
L 48.611932 40.871721 
L 48.618696 40.882098 
L 48.666043 40.782695 
L 48.699863 40.816575 
L 48.824995 40.699673 
L 48.835141 40.7292 
L 48.848669 40.728553 
L 48.865578 40.657991 
L 48.906162 40.64475 
L 49.092169 40.62822 
L 49.098933 40.665076 
L 49.173335 40.564995 
L 49.200391 40.603375 
L 49.224065 40.624477 
L 49.25112 40.562369 
L 49.305231 40.574668 
L 49.369488 40.643888 
L 49.413454 40.591361 
L 49.565641 40.596076 
L 49.569023 40.585804 
L 49.690773 40.429084 
L 49.694155 40.435198 
L 49.724593 40.453436 
L 49.77194 40.354302 
L 49.775322 40.35588 
L 49.819287 40.251604 
L 49.897072 40.28622 
L 49.988384 40.302589 
L 49.924127 40.236771 
L 50.005294 40.255609 
L 50.099989 40.30981 
L 50.116898 40.212769 
L 50.13719 40.322601 
L 50.231885 40.256111 
L 50.302905 40.275398 
L 50.326579 40.19191 
L 50.482149 40.102892 
L 50.543024 40.047573 
L 50.600517 40.1418 
L 50.752704 40.043381 
L 50.607281 40.149153 
L 50.756086 40.047666 
L 50.860927 40.222452 
L 50.769614 40.022933 
L 50.90151 40.118399 
L 51.019878 40.032045 
L 50.952239 40.156681 
L 51.02326 40.052933 
L 51.16192 39.988613 
L 51.303962 40.02453 
L 51.317489 40.004 
L 51.415566 39.905558 
L 51.334399 40.018574 
L 51.435857 39.963812 
L 51.500114 39.873497 
L 51.557607 39.948378 
L 51.794344 40.000382 
L 51.838309 40.021425 
L 51.882274 39.925385 
L 52.196795 40.008314 
L 52.220469 40.04386 
L 52.267816 39.926014 
L 52.281344 39.939901 
L 52.426768 39.853735 
L 52.29149 39.960139 
L 52.433532 39.870205 
L 52.568809 39.941621 
L 52.572191 39.916623 
L 52.67365 39.819807 
L 52.619539 39.932799 
L 52.697323 39.840797 
L 52.81231 39.878721 
L 52.724379 39.810848 
L 52.829219 39.855033 
L 52.849511 39.792137 
L 52.927296 39.915898 
L 52.978025 39.904236 
L 53.011844 39.978019 
L 53.025372 39.971258 
L 53.082865 39.989458 
L 53.109921 39.917736 
L 53.126831 39.942938 
L 53.187706 39.87549 
L 53.248581 39.908327 
L 53.339893 39.820118 
L 53.465025 39.690681 
L 53.360185 39.836323 
L 53.468407 39.694684 
L 53.617213 39.704847 
L 53.627359 39.670233 
L 54.06363 39.664926 
L 54.070394 39.703541 
L 54.107595 39.626729 
L 54.171852 39.637966 
L 54.296984 39.446224 
L 54.313894 39.466637 
L 54.337567 39.454404 
L 54.462699 39.556438 
L 54.574304 39.377823 
L 54.591213 39.40513 
L 54.625033 39.448047 
L 54.597977 39.385198 
L 54.692672 39.360597 
L 54.919262 39.403503 
L 54.922644 39.38182 
L 54.93279 39.349104 
L 54.997047 39.48138 
L 55.027484 39.402189 
L 55.07145 39.459578 
L 55.105269 39.380396 
L 55.139089 39.421025 
L 55.240547 39.351177 
L 55.155998 39.43877 
L 55.257457 39.376644 
L 55.325096 39.33606 
L 55.267603 39.386876 
L 55.372443 39.363252 
L 55.375825 39.382566 
L 55.470519 39.305895 
L 55.497575 39.205908 
L 55.585506 39.273108 
L 55.636235 39.293836 
L 55.66329 39.213384 
L 55.6802 39.226956 
L 55.839151 39.02007 
L 55.714019 39.243809 
L 55.862825 39.029597 
L 55.950756 39.079934 
L 55.876353 39.020206 
L 55.971047 39.036596 
L 56.099561 38.899121 
L 56.204402 38.962046 
L 56.211166 38.917313 
L 56.400555 38.645027 
L 56.217929 38.947441 
L 56.424228 38.670326 
L 56.434374 38.728786 
L 56.481721 38.615313 
L 56.518923 38.627006 
L 56.660964 38.352573 
L 56.735367 38.270849 
L 56.941666 36.446286 
L 56.968722 27.953914 
L 57.026215 39.206346 
L 57.043124 39.568642 
L 57.124291 38.700929 
L 57.171638 38.0761 
L 57.229131 35.622002 
L 57.242659 28.333809 
L 57.317062 40.155838 
L 57.33059 40.060778 
L 57.506451 35.441819 
L 57.519979 28.166722 
L 57.591 40.52025 
L 57.607909 40.379058 
L 57.71275 38.765958 
L 57.797298 36.383265 
L 57.814208 28.077012 
L 57.888611 40.727277 
L 57.891993 40.714349 
L 58.04418 38.483231 
L 58.111819 36.582416 
L 58.128729 27.913491 
L 58.196368 40.726974 
L 58.206514 40.894562 
L 58.284299 39.977984 
L 58.46016 35.57275 
L 58.473688 27.82337 
L 58.551472 41.05624 
L 58.561618 40.989543 
L 58.828792 37.195614 
L 58.845702 33.497326 
L 58.855848 27.780306 
L 58.937014 41.131012 
L 58.94716 41.048755 
L 59.258299 36.835539 
L 59.278591 27.836002 
L 59.336084 39.717492 
L 59.356376 41.168319 
L 59.447688 40.314394 
L 59.731772 35.754616 
L 59.745299 27.976084 
L 59.823084 41.147305 
L 59.829848 41.109 
L 59.907633 40.423135 
L 60.2323 35.186834 
L 60.245827 28.05671 
L 60.323612 41.101409 
L 60.333758 41.04599 
L 60.506237 39.508591 
L 60.776793 35.594324 
L 60.793703 28.289462 
L 60.868106 40.976127 
L 60.87487 40.971294 
L 60.885015 40.957851 
L 60.891779 40.884566 
L 61.34496 35.114913 
L 61.36187 28.452733 
L 61.436273 40.99343 
L 61.443036 40.971161 
L 61.764321 38.523774 
L 61.808287 38.579122 
L 61.84887 38.555909 
L 61.862398 38.484028 
L 61.872544 38.493904 
L 62.051787 38.109082 
L 62.055169 38.110465 
L 62.535405 38.807249 
L 62.545551 38.791766 
L 62.548933 38.776466 
L 62.616572 38.869382 
L 62.640245 38.860611 
L 63.313253 40.248018 
L 63.357218 40.211058 
L 63.384274 40.168728 
L 63.448531 40.303447 
L 64.135066 41.430514 
L 64.148594 41.402426 
L 64.21285 41.329859 
L 64.266962 41.409565 
L 64.476642 41.603947 
L 64.480024 41.592441 
L 64.483406 41.588656 
L 64.527371 41.696562 
L 64.578101 41.758639 
L 64.642358 41.718932 
L 64.703233 41.817882 
L 64.652504 41.709176 
L 64.764108 41.756477 
L 64.835129 41.684628 
L 64.879094 41.757371 
L 64.970406 41.771898 
L 64.906149 41.72539 
L 64.987316 41.745366 
L 64.997462 41.741651 
L 65.021136 41.64605 
L 65.129358 41.592797 
L 65.051573 41.669544 
L 65.142886 41.607104 
L 65.193615 41.661686 
L 65.25449 41.610414 
L 65.328893 41.56494 
L 65.372858 41.591367 
L 65.450643 41.720834 
L 65.49799 41.693829 
L 65.5149 41.70037 
L 65.61974 41.622146 
L 65.629886 41.639382 
L 65.656942 41.580584 
L 65.721199 41.583348 
L 65.836185 41.523291 
L 65.751636 41.608546 
L 65.842949 41.544194 
L 65.866622 41.568824 
L 65.924115 41.471368 
L 65.944407 41.509576 
L 66.042483 41.466976 
L 66.072921 41.510896 
L 66.177761 41.568318 
L 66.187907 41.538052 
L 66.316421 41.372727 
L 66.198053 41.552856 
L 66.360386 41.481828 
L 66.36715 41.501212 
L 66.428025 41.327716 
L 66.451699 41.363898 
L 66.478754 41.308619 
L 66.519338 41.481571 
L 66.600505 41.491982 
L 66.549775 41.436199 
L 66.624178 41.450653 
L 66.664762 41.433319 
L 66.641088 41.501594 
L 66.715491 41.505878 
L 66.779748 41.553843 
L 66.820331 41.484868 
L 66.901498 41.523946 
L 66.945463 41.455192 
L 67.172053 41.695412 
L 67.192345 41.655227 
L 67.212637 41.626892 
L 67.280276 41.713466 
L 67.28704 41.712735 
L 67.290422 41.737659 
L 67.371588 41.562071 
L 67.378352 41.593651 
L 67.459519 41.564825 
L 67.489956 41.609003 
L 67.567741 41.594536 
L 67.54745 41.555575 
L 67.594797 41.581015 
L 67.665818 41.488322 
L 67.706401 41.56345 
L 67.804477 41.600539 
L 67.730075 41.524625 
L 67.814623 41.552428 
L 67.89579 41.45834 
L 67.929609 41.539423 
L 67.936373 41.57825 
L 68.01754 41.518802 
L 68.041214 41.539205 
L 68.146054 41.46135 
L 68.1562 41.503757 
L 68.3997 41.640476 
L 68.50454 41.525902 
L 68.518068 41.569116 
L 68.599235 41.617225 
L 68.633054 41.609561 
L 68.768332 41.473883 
L 68.893464 41.664319 
L 68.896846 41.651244 
L 68.913756 41.676122 
L 69.015214 41.682529 
L 69.028742 41.724017 
L 69.086235 41.662481 
L 69.123436 41.663579 
L 69.133582 41.685617 
L 69.16402 41.607807 
L 69.221513 41.608089 
L 69.30268 41.522933 
L 69.343263 41.442415 
L 69.322971 41.542964 
L 69.427812 41.491435 
L 69.505596 41.464318 
L 69.556326 41.581899 
L 69.627346 41.514955 
L 69.654402 41.610898 
L 69.664548 41.587283 
L 69.681458 41.624552 
L 69.735569 41.53047 
L 69.77277 41.563494 
L 69.901284 41.464585 
L 69.78968 41.576036 
L 69.908048 41.48389 
L 70.036562 41.580734 
L 70.17184 41.624911 
L 70.185368 41.596121 
L 70.510034 41.347206 
L 70.202277 41.626591 
L 70.540472 41.384117 
L 70.821174 41.534547 
L 70.827937 41.504686 
L 70.865139 41.413543 
L 70.939542 41.490746 
L 71.054528 41.441113 
L 71.05791 41.430844 
L 71.193188 41.282383 
L 71.199952 41.293247 
L 71.507709 41.607471 
L 71.517854 41.564802 
L 71.609167 41.570602 
L 71.548292 41.520769 
L 71.619313 41.516081 
L 71.710625 41.461515 
L 71.670042 41.541101 
L 71.727535 41.528756 
L 71.893251 41.583688 
L 72.201008 41.662789 
L 71.900014 41.564407 
L 72.207772 41.626572 
L 72.363341 41.402544 
L 72.471563 41.337553 
L 72.485091 41.391733 
L 72.559494 41.437968 
L 72.606841 41.381417 
L 72.637279 41.366555 
L 72.667716 41.467263 
L 72.809758 41.587326 
L 72.677862 41.456309 
L 72.81314 41.583729 
L 72.91798 41.588648 
L 72.880779 41.534984 
L 72.928126 41.567242 
L 73.225737 41.532113 
L 73.31705 41.557289 
L 73.249411 41.495331 
L 73.33396 41.514462 
L 73.607897 41.455184 
L 73.712738 41.348238 
L 73.634953 41.469574 
L 73.726265 41.376821 
L 73.990057 41.584885 
L 73.756703 41.304156 
L 74.023877 41.517475 
L 74.179446 41.410543 
L 74.206502 41.43101 
L 74.274141 41.511409 
L 74.318106 41.463691 
L 74.42971 41.326996 
L 74.450002 41.340554 
L 74.713794 41.546907 
L 74.480439 41.30736 
L 74.72394 41.507005 
L 75.048606 41.447411 
L 75.119627 41.467165 
L 75.136537 41.49817 
L 75.234613 41.520742 
L 75.160211 41.47123 
L 75.241377 41.492048 
L 75.373273 41.360564 
L 75.461204 41.373183 
L 75.491641 41.321809 
L 75.495023 41.308646 
L 75.566044 41.43291 
L 75.572808 41.434008 
L 75.657357 41.424476 
L 75.637065 41.377529 
L 75.670885 41.407669 
L 75.694558 41.367627 
L 75.765579 41.443329 
L 75.775725 41.444396 
L 75.829836 41.485967 
L 75.890711 41.44893 
L 75.894093 41.472447 
L 75.914385 41.414627 
L 75.998933 41.421828 
L 76.042899 41.427075 
L 76.012461 41.399145 
L 76.083482 41.352837 
L 76.164649 41.250793 
L 76.198468 41.359931 
L 76.404767 41.328911 
L 76.408149 41.303007 
L 76.458878 41.399362 
L 76.509607 41.380471 
L 76.516371 41.386563 
L 76.560336 41.291323 
L 76.5671 41.303237 
L 76.570482 41.280712 
L 76.644885 41.359573 
L 76.678704 41.302177 
L 76.8106 41.232352 
L 76.935732 41.102826 
L 76.939114 41.105836 
L 76.98308 41.022087 
L 76.993226 41.01548 
L 77.037191 40.933591 
L 77.114976 40.974414 
L 77.196142 41.098674 
L 77.24349 41.033983 
L 77.246871 41.015761 
L 77.307747 41.104034 
L 77.34833 41.051165 
L 77.351712 41.067048 
L 77.432879 40.972795 
L 77.449788 41.000191 
L 77.561392 40.933636 
L 77.581684 40.993941 
L 77.635795 41.057103 
L 77.59183 40.981493 
L 77.693288 40.98536 
L 77.899587 40.883828 
L 77.703434 40.997514 
L 77.919879 40.925641 
L 78.055157 41.145046 
L 78.061921 41.133781 
L 78.271601 41.237014 
L 78.329094 41.286402 
L 78.386587 41.269508 
L 78.548921 41.019932 
L 78.565831 41.052763 
L 78.572594 41.081534 
L 78.660525 40.96312 
L 78.663907 40.988285 
L 78.680817 40.99974 
L 78.782275 40.969617 
L 78.805949 41.010305 
L 78.866824 40.892981 
L 78.890497 40.942433 
L 78.893879 40.948507 
L 78.951372 40.849425 
L 78.991956 40.866006 
L 79.079886 40.694257 
L 79.191491 40.722149 
L 79.123852 40.6354 
L 79.194873 40.701357 
L 79.38088 40.522254 
L 79.394407 40.558718 
L 79.421463 40.629796 
L 79.478956 40.517635 
L 79.499248 40.524888 
L 79.563505 40.457211 
L 79.631144 40.558343 
L 79.675109 40.435277 
L 79.756276 40.504278 
L 80.141817 40.949644 
L 80.172255 40.8902 
L 80.290623 40.813202 
L 80.300769 40.832276 
L 80.375172 40.82543 
L 80.33797 40.765337 
L 80.405609 40.797374 
L 80.449575 40.852179 
L 80.49354 40.732952 
L 80.561179 40.72855 
L 80.588234 40.809888 
L 80.879082 40.466686 
L 80.916283 40.43767 
L 80.99745 40.50329 
L 81.251096 40.337721 
L 81.038033 40.568399 
L 81.274769 40.37235 
L 81.278151 40.392793 
L 81.315353 40.298642 
L 81.372846 40.318423 
L 81.46754 40.194112 
L 81.497978 40.228099 
L 81.565617 40.208251 
L 81.612964 40.295761 
L 81.700895 40.248458 
L 81.629874 40.328284 
L 81.731332 40.260368 
L 81.771916 40.318999 
L 81.809117 40.214881 
L 81.819263 40.214584 
L 81.90043 40.115127 
L 81.934249 40.182711 
L 81.941013 40.220919 
L 82.032325 40.093542 
L 82.130402 40.075242 
L 82.045853 40.157859 
L 82.140548 40.09744 
L 82.238624 40.162241 
L 82.258916 40.148856 
L 82.343465 40.066182 
L 82.367138 40.048804 
L 82.377284 40.102617 
L 82.444923 40.106411 
L 82.485506 40.1748 
L 82.624166 40.503791 
L 82.969125 40.768174 
L 82.975888 40.757323 
L 83.053673 40.676965 
L 82.992798 40.78378 
L 83.114548 40.754396 
L 83.13484 40.822139 
L 83.229534 40.767396 
L 83.429069 40.679084 
L 83.462889 40.731708 
L 83.618458 40.897455 
L 83.682715 40.831461 
L 83.63875 40.904091 
L 83.733444 40.860087 
L 84.348959 40.686032 
L 83.740208 40.885366 
L 84.359105 40.736045 
L 84.470709 40.757203 
L 84.40307 40.71481 
L 84.477473 40.733395 
L 84.487618 40.751151 
L 84.518056 40.665007 
L 84.565403 40.676015 
L 84.707445 40.4191 
L 84.731119 40.444579 
L 84.829195 40.483559 
L 84.846105 40.446819 
L 84.920508 40.334662 
L 84.984765 40.401853 
L 85.052404 40.462859 
L 85.099751 40.43268 
L 85.211355 40.190244 
L 85.109897 40.444612 
L 85.329723 40.271303 
L 85.339869 40.30043 
L 85.390598 40.213879 
L 85.434563 40.246922 
L 85.559695 40.175427 
L 85.563077 40.198051 
L 85.566459 40.221456 
L 85.607043 40.105816 
L 85.661154 40.126211 
L 85.799814 40.031696 
L 85.979057 40.135573 
L 86.006112 40.205448 
L 86.077133 40.095434 
L 86.083897 40.098114 
L 86.212411 40.04276 
L 86.236085 40.081234 
L 86.290196 40.092227 
L 86.330779 40.014869 
L 86.334161 40.023949 
L 86.449147 39.968476 
L 86.452529 39.97744 
L 86.499877 39.994583 
L 86.472821 39.958749 
L 86.553988 39.959311 
L 86.668974 39.908695 
L 86.621627 39.987551 
L 86.672356 39.918228 
L 86.699411 39.967683 
L 86.746759 39.840931 
L 86.804252 39.755343 
L 86.865127 39.774492 
L 86.919238 39.71981 
L 86.990259 39.848479 
L 87.088335 39.708886 
L 87.122155 39.740337 
L 87.125537 39.747937 
L 87.159356 39.641057 
L 87.216849 39.690777 
L 87.369037 39.538134 
L 87.260814 39.717532 
L 87.375801 39.568265 
L 87.402856 39.561756 
L 87.500933 39.688802 
L 87.602391 39.60302 
L 87.51446 39.697723 
L 87.629447 39.649665 
L 87.659884 39.668414 
L 87.690322 39.602114 
L 87.720759 39.609374 
L 87.822218 39.432581 
L 87.849273 39.48238 
L 87.933822 39.509219 
L 87.889856 39.465493 
L 87.957495 39.471099 
L 88.008225 39.414379 
L 87.967641 39.488476 
L 88.072482 39.481576 
L 88.187468 39.461454 
L 88.194232 39.434872 
L 88.329509 39.318492 
L 88.353183 39.366843 
L 88.525662 39.348932 
L 88.637267 39.425299 
L 88.647412 39.413946 
L 88.769162 39.182363 
L 88.7996 39.210156 
L 88.860475 39.131299 
L 88.90444 39.075639 
L 88.95517 39.16016 
L 88.968697 39.139814 
L 89.103975 39.076885 
L 88.978843 39.172309 
L 89.124267 39.172914 
L 89.195288 39.177345 
L 89.158086 39.120799 
L 89.215579 39.10429 
L 89.361003 39.087434 
L 89.364385 39.104327 
L 89.435406 39.152434 
L 89.462461 39.064549 
L 89.584212 38.915557 
L 89.503045 39.087008 
L 89.611267 38.948534 
L 89.614649 38.956626 
L 89.675524 38.848418 
L 89.692434 38.865696 
L 89.79051 38.824059 
L 89.733017 38.902724 
L 89.810802 38.837932 
L 89.831094 38.861725 
L 89.898733 38.751532 
L 90.057684 38.462218 
L 90.06783 38.478564 
L 90.071212 38.496796 
L 90.152378 38.341846 
L 90.15576 38.347777 
L 90.277511 38.113022 
L 90.419552 35.865731 
L 90.443226 28.080124 
L 90.514247 39.499351 
L 90.521011 39.539876 
L 90.57174 38.969828 
L 90.703636 35.811127 
L 90.720545 28.496938 
L 90.791566 40.101935 
L 90.801712 40.024094 
L 90.97081 36.850954 
L 90.991101 28.198535 
L 91.051976 39.824619 
L 91.068886 40.464771 
L 91.068886 40.464771 
" clip-path="url(#pa9fecb795c)" style="fill: none; stroke: #000000; stroke-width: 0.6; stroke-linecap: square"/>
   </g>
   <g id="line2d_3">
    <path d="M 9.905557 58.02574 
L 10.358738 55.936124 
L 10.372266 55.863063 
L 10.382411 56.027379 
L 10.548127 57.484408 
L 10.554891 57.476694 
L 10.859266 58.179734 
L 10.862648 58.178795 
L 10.872794 58.164462 
L 10.913377 58.316863 
L 10.923523 58.315767 
L 11.041891 58.491717 
L 11.052037 58.486316 
L 11.055419 58.4718 
L 11.112912 58.701148 
L 11.298919 59.209164 
L 11.505218 59.541684 
L 11.518745 59.509345 
L 11.599912 59.522444 
L 11.555947 59.547353 
L 11.620204 59.550504 
L 11.802829 59.690884 
L 11.643877 59.53436 
L 11.819739 59.677087 
L 11.924579 59.610495 
L 11.948253 59.621229 
L 11.96178 59.604284 
L 12.070003 59.680864 
L 12.242482 59.747558 
L 12.245864 59.743925 
L 12.347322 59.71632 
L 12.272919 59.769771 
L 12.36085 59.729334 
L 12.455545 59.66306 
L 12.4826 59.70161 
L 12.58744 59.766613 
L 12.519802 59.649414 
L 12.62126 59.737641 
L 12.75992 59.581311 
L 12.763302 59.589155 
L 12.932399 59.694829 
L 12.966218 59.633139 
L 13.138698 59.517207 
L 12.983128 59.650898 
L 13.14208 59.524175 
L 13.148844 59.540136 
L 13.189427 59.424215 
L 13.216482 59.432847 
L 13.219864 59.411568 
L 13.301031 59.567455 
L 13.311177 59.521849 
L 13.453219 59.675991 
L 13.568205 59.674883 
L 13.466746 59.627395 
L 13.574969 59.659281 
L 13.706865 59.505956 
L 13.585115 59.669536 
L 13.710247 59.53371 
L 13.845524 59.675444 
L 13.71701 59.526552 
L 13.852288 59.648137 
L 13.913163 59.550687 
L 13.963893 59.642193 
L 13.970656 59.662014 
L 14.01124 59.583556 
L 14.068733 59.607614 
L 14.082261 59.624134 
L 14.200629 59.530602 
L 14.281796 59.566409 
L 14.210775 59.524907 
L 14.298705 59.479282 
L 14.471185 59.505514 
L 14.592935 59.448083 
L 14.677483 59.459112 
L 14.640282 59.508829 
L 14.701157 59.474489 
L 14.72483 59.431393 
L 14.816143 59.462927 
L 14.937893 59.394323 
L 14.954803 59.399234 
L 14.975095 59.29178 
L 15.00215 59.289353 
L 15.313289 59.162137 
L 15.370782 59.127184 
L 15.411366 59.215051 
L 15.516206 59.300363 
L 15.418129 59.207737 
L 15.543261 59.249444 
L 15.654866 59.122798 
L 15.668393 59.138831 
L 15.692067 59.171203 
L 15.722505 59.104544 
L 15.773234 59.101425 
L 15.945713 58.99835 
L 15.779998 59.114479 
L 15.959241 59.055608 
L 16.097901 59.102024 
L 15.976151 59.03968 
L 16.104665 59.087065 
L 16.277144 58.859424 
L 16.118192 59.092855 
L 16.290672 58.877868 
L 16.354929 58.831282 
L 16.405658 58.893358 
L 16.442859 58.968059 
L 16.412422 58.891534 
L 16.520644 58.931922 
L 16.534172 59.001351 
L 16.632248 58.934592 
L 16.639012 58.967913 
L 16.689741 58.848127 
L 16.730325 58.89259 
L 16.747234 58.90331 
L 16.892658 58.798904 
L 16.983971 58.822214 
L 16.943387 58.7613 
L 17.011026 58.791637 
L 17.024554 58.776019 
L 17.0347 58.836856 
L 17.088811 58.865226 
L 17.098957 58.891085 
L 17.186887 58.789213 
L 17.298492 58.870173 
L 17.318783 58.852337 
L 17.352603 58.875163 
L 17.443915 58.761332 
L 17.460825 58.811683 
L 17.514936 58.697619 
L 17.552138 58.745492 
L 17.673888 58.758656 
L 17.690797 58.726297 
L 17.78211 58.680053 
L 17.805784 58.710702 
L 18.177798 59.609122 
L 17.822693 58.686024 
L 18.191325 59.598898 
L 18.316457 59.503809 
L 18.752729 59.647196 
L 18.766256 59.581061 
L 18.820367 59.510533 
L 18.881242 59.559381 
L 18.982701 59.578004 
L 18.91168 59.534835 
L 18.996229 59.53324 
L 19.307368 59.293999 
L 19.31075 59.314426 
L 19.371625 59.390555 
L 19.425736 59.370305 
L 19.466319 59.351396 
L 19.52043 59.450621 
L 19.584687 59.452186 
L 19.611743 59.378451 
L 19.750403 59.208631 
L 19.757167 59.212403 
L 19.882299 59.21319 
L 19.892444 59.182873 
L 19.976993 59.276073 
L 19.987139 59.262017 
L 20.169764 59.590608 
L 20.173146 59.570542 
L 20.247549 59.726733 
L 20.26784 59.654286 
L 20.345625 59.705921 
L 20.315188 59.62258 
L 20.382827 59.641131 
L 21.20464 59.327842 
L 21.279042 59.274126 
L 21.319626 59.316149 
L 21.339917 59.371929 
L 21.424466 59.299613 
L 21.519161 59.234642 
L 21.542834 59.26998 
L 21.647675 59.179298 
L 21.759279 59.138845 
L 21.725459 59.251153 
L 21.766043 59.144776 
L 21.793098 59.120461 
L 21.884411 59.134928 
L 22.012925 59.023064 
L 22.016307 59.03386 
L 22.083946 58.924931 
L 22.104237 58.949267 
L 22.124529 58.979884 
L 22.263189 58.841756 
L 22.368029 58.977934 
L 22.395085 58.935945 
L 22.946342 58.879095 
L 23.074856 58.780631 
L 22.956488 58.887736 
L 23.085002 58.824763 
L 23.20337 58.877483 
L 23.210134 58.848927 
L 23.352175 58.75605 
L 23.365703 58.762323 
L 23.443488 58.799936 
L 23.375849 58.75643 
L 23.473926 58.729972 
L 23.680224 58.609401 
L 23.747863 58.512929 
L 23.79521 58.573018 
L 23.856085 58.594779 
L 23.900051 58.53301 
L 24.359995 58.425256 
L 24.542621 58.213885 
L 24.562912 58.269678 
L 24.644079 58.271624 
L 24.589968 58.230393 
L 24.667753 58.252457 
L 24.701572 58.211719 
L 24.765829 58.285825 
L 24.772593 58.269294 
L 24.857142 58.320578 
L 24.81994 58.232625 
L 24.880815 58.261798 
L 25.036385 58.095675 
L 25.127697 58.141556 
L 25.107406 58.075848 
L 25.147989 58.118013 
L 25.290031 57.921702 
L 25.175045 58.13983 
L 25.320468 57.980596 
L 25.469274 57.968348 
L 25.476038 57.953582 
L 25.570732 57.911941 
L 25.516621 57.986718 
L 25.591024 57.920198 
L 25.952892 57.841697 
L 26.091552 57.750176 
L 26.149045 57.760024 
L 26.108462 57.713528 
L 26.176101 57.69854 
L 26.294469 57.590121 
L 26.257267 57.710523 
L 26.297851 57.601822 
L 26.412837 57.674065 
L 26.433129 57.650688 
L 26.490622 57.637173 
L 26.466948 57.694365 
L 26.510913 57.71078 
L 26.537969 57.807202 
L 26.629281 57.739068 
L 26.632663 57.746815 
L 26.693538 57.643985 
L 26.798379 57.568688 
L 26.811907 57.579329 
L 26.916747 57.586734 
L 26.842344 57.542655 
L 26.926893 57.572366 
L 27.018205 57.433423 
L 27.065552 57.547205 
L 27.210976 57.509393 
L 27.214358 57.51648 
L 27.312435 57.526017 
L 27.285379 57.472069 
L 27.32258 57.492353 
L 27.325962 57.486696 
L 27.376692 57.591726 
L 27.403747 57.567057 
L 27.522115 57.64814 
L 27.5999 57.680831 
L 27.542407 57.689212 
L 27.610046 57.706992 
L 27.623574 57.73361 
L 27.677685 57.648908 
L 27.711504 57.663214 
L 27.765615 57.640573 
L 27.796053 57.711963 
L 27.809581 57.763375 
L 27.900893 57.692565 
L 27.904275 57.6923 
L 27.995588 57.687745 
L 27.927949 57.729687 
L 28.005734 57.712875 
L 28.009115 57.733699 
L 28.080136 57.511636 
L 28.134248 57.472466 
L 28.174831 57.57669 
L 28.184977 57.560524 
L 28.279671 57.526251 
L 28.286435 57.498437 
L 28.357456 57.466826 
L 28.323637 57.511509 
L 28.398039 57.498249 
L 28.594192 57.474832 
L 28.695651 57.531805 
L 28.709178 57.497449 
L 28.854602 57.416449 
L 28.722706 57.50575 
L 28.86813 57.43914 
L 28.979734 57.477282 
L 28.908713 57.392163 
L 28.983116 57.474071 
L 29.084574 57.38524 
L 29.101484 57.428091 
L 29.290873 57.312166 
L 29.317929 57.358376 
L 29.331456 57.32001 
L 29.436297 57.381659 
L 29.547901 57.347571 
L 29.514082 57.399299 
L 29.551283 57.351533 
L 29.574957 57.370105 
L 29.639214 57.252128 
L 29.679797 57.198396 
L 29.706853 57.277047 
L 29.750818 57.25168 
L 29.862422 57.106637 
L 29.903005 57.043759 
L 29.957117 57.161231 
L 29.967262 57.146012 
L 29.970644 57.162885 
L 30.061957 57.069358 
L 30.065339 57.074034 
L 30.261492 56.985286 
L 30.095776 57.104055 
L 30.264874 57.003321 
L 30.325749 56.998158 
L 30.278401 56.991365 
L 30.366332 56.96053 
L 30.39677 56.921769 
L 30.46779 56.997483 
L 30.477936 56.967 
L 30.653797 57.106754 
L 30.663943 57.088362 
L 30.822895 56.978236 
L 30.826277 56.982195 
L 30.836423 57.003661 
L 30.904062 56.837718 
L 31.00552 56.69524 
L 31.052867 56.753981 
L 31.086687 56.762449 
L 31.140798 56.706882 
L 31.262548 56.615255 
L 31.600742 54.985319 
L 31.61427 49.053861 
L 31.621034 43.830062 
L 31.708965 56.802338 
L 31.719111 56.766427 
L 31.759694 56.464525 
L 31.847625 55.797485 
L 31.911882 54.737401 
L 31.928791 45.370056 
L 31.99643 57.070259 
L 32.003194 57.305185 
L 32.091125 56.434285 
L 32.212875 53.851349 
L 32.223021 45.073433 
L 32.304187 57.712651 
L 32.317715 57.57532 
L 32.524014 54.468445 
L 32.537542 44.852349 
L 32.618708 58.062327 
L 32.710021 57.059161 
L 32.868972 53.659662 
L 32.879118 44.682411 
L 32.963667 58.310578 
L 32.973813 58.236044 
L 33.244368 54.283934 
L 33.254514 44.593395 
L 33.342445 58.450428 
L 33.613 55.725797 
L 33.653584 53.741598 
L 33.66373 44.472393 
L 33.748278 58.545276 
L 33.758424 58.459825 
L 34.089855 53.824562 
L 34.100001 44.410931 
L 34.181167 58.572971 
L 34.194695 58.517768 
L 34.556564 53.458566 
L 34.566709 44.385276 
L 34.651258 58.589915 
L 34.661404 58.521721 
L 35.043564 53.791065 
L 35.05371 44.320056 
L 35.134876 58.606021 
L 35.148404 58.523952 
L 35.550856 54.727704 
L 35.567765 44.342469 
L 35.635404 57.862976 
L 35.648932 58.588909 
L 35.743627 57.711259 
L 36.058148 55.551678 
L 36.091967 54.417276 
L 36.105495 44.294065 
L 36.186662 58.559142 
L 36.254301 57.937597 
L 36.460599 56.397427 
L 36.568822 55.899906 
L 36.643224 55.017113 
L 36.656752 51.54106 
L 36.663516 44.311832 
L 36.744683 58.51215 
L 36.761592 58.384748 
L 37.082877 56.082461 
L 37.201246 55.016993 
L 37.214773 51.979395 
L 37.221537 44.338354 
L 37.302704 58.481084 
L 37.319614 58.363023 
L 37.766031 54.028736 
L 37.776176 44.343423 
L 37.857343 58.524094 
L 37.867489 58.468927 
L 38.104225 56.585956 
L 38.141427 56.412055 
L 38.361253 53.788584 
L 38.371399 44.285038 
L 38.452566 58.440383 
L 38.462711 58.389546 
L 38.82458 56.06437 
L 38.827962 56.074216 
L 38.865163 55.865048 
L 38.932802 54.689574 
L 38.949712 44.26748 
L 39.017351 57.978678 
L 39.030878 58.488192 
L 39.122191 57.631084 
L 39.247323 56.738508 
L 39.43333 55.949455 
L 39.521261 55.374007 
L 39.548316 53.34508 
L 39.558462 44.243253 
L 39.639629 58.433759 
L 39.653157 58.322672 
L 39.900039 56.435588 
L 39.903421 56.436675 
L 39.916948 56.337925 
L 39.927094 56.329024 
L 40.167212 54.380886 
L 40.18074 44.292959 
L 40.258525 58.33879 
L 40.33631 57.626783 
L 40.759053 54.75985 
L 40.775963 44.270414 
L 40.84022 56.948613 
L 40.857129 58.38014 
L 40.951824 57.487895 
L 41.347512 54.226888 
L 41.361039 44.261823 
L 41.442206 58.420516 
L 41.445588 58.402535 
L 41.986699 55.010935 
L 42.000227 52.590643 
L 42.010373 44.266405 
L 42.088158 58.328465 
L 42.105068 58.183621 
L 42.490609 55.970341 
L 42.493991 55.979071 
L 42.497373 55.987081 
L 42.537957 55.83389 
L 42.548103 55.830313 
L 42.568394 55.738381 
L 42.636033 54.248179 
L 42.649561 44.240165 
L 42.727346 58.299151 
L 42.73411 58.28549 
L 43.079068 56.16712 
L 43.265075 55.055395 
L 43.281985 49.997139 
L 43.288749 44.243856 
L 43.366534 58.314173 
L 43.386825 58.129256 
L 43.623561 56.406488 
L 43.917791 54.682996 
L 43.934701 44.246704 
L 43.998958 57.268099 
L 44.012485 58.275511 
L 44.110562 57.39567 
L 44.337152 56.154704 
L 44.340534 56.157008 
L 44.370972 56.062558 
L 44.377736 56.055291 
L 44.550215 55.63908 
L 44.387881 56.062611 
L 44.560361 55.810499 
L 44.756514 57.690345 
L 45.043979 58.266741 
L 45.050743 58.256048 
L 45.121764 58.370712 
L 45.128528 58.361138 
L 45.361882 59.010411 
L 45.368646 58.989585 
L 45.385556 59.010871 
L 45.399083 59.091891 
L 45.591854 59.430144 
L 45.615528 59.390409 
L 45.63582 59.371767 
L 45.662875 59.488747 
L 45.784625 59.559757 
L 45.788007 59.541748 
L 45.950341 59.681267 
L 46.082236 59.602316 
L 45.963868 59.687309 
L 46.089 59.606724 
L 46.136348 59.642862 
L 46.200605 59.591414 
L 46.268243 59.577695 
L 46.231042 59.64761 
L 46.302063 59.636156 
L 46.467778 59.75538 
L 46.481306 59.686891 
L 46.576001 59.760562 
L 46.680841 59.840437 
L 46.697751 59.819349 
L 46.76539 59.688352 
L 46.772153 59.651815 
L 46.856702 59.729454 
L 46.876994 59.705635 
L 46.910813 59.745051 
L 46.964924 59.64041 
L 46.981834 59.671845 
L 47.00889 59.57922 
L 47.106966 59.638703 
L 47.211807 59.639174 
L 47.13064 59.577077 
L 47.21857 59.630909 
L 47.367376 59.500846 
L 47.384286 59.530528 
L 47.492508 59.579929 
L 47.414723 59.505803 
L 47.506036 59.53992 
L 47.637932 59.518207 
L 47.519564 59.571219 
L 47.641314 59.53211 
L 47.763064 59.595807 
L 47.685279 59.498259 
L 47.766446 59.587375 
L 48.114786 59.647769 
L 48.12155 59.627188 
L 48.233154 59.554364 
L 48.239918 59.58605 
L 48.513856 59.703377 
L 48.530766 59.662297 
L 48.672807 59.534472 
L 48.699863 59.555924 
L 48.706627 59.564553 
L 48.750592 59.448068 
L 48.76412 59.467627 
L 48.946745 59.370901 
L 48.960273 59.390203 
L 49.038058 59.425397 
L 49.065113 59.348556 
L 49.075259 59.333518 
L 49.122606 59.421664 
L 49.166571 59.382611 
L 49.28494 59.445303 
L 49.210537 59.369318 
L 49.295085 59.430074 
L 49.318759 59.452585 
L 49.470947 59.31565 
L 49.498002 59.370157 
L 49.555495 59.225883 
L 49.660336 59.148865 
L 49.61637 59.25103 
L 49.680627 59.178587 
L 49.87678 59.11091 
L 49.900454 59.050533 
L 49.954565 59.154922 
L 49.991766 59.097862 
L 50.012058 59.13892 
L 50.072933 59.026715 
L 50.096607 59.065381 
L 50.191301 58.951441 
L 50.235266 58.982644 
L 50.238648 58.993487 
L 50.27585 58.887157 
L 50.336725 58.953872 
L 50.340107 58.940189 
L 50.407746 59.001752 
L 50.438183 58.993899 
L 50.563315 58.934634 
L 50.65801 58.803129 
L 50.681683 58.836447 
L 50.718885 58.842488 
L 50.76285 58.784273 
L 50.776378 58.809838 
L 50.77976 58.777294 
L 50.837253 58.857971 
L 50.8846 58.835189 
L 51.121336 58.847824 
L 51.124718 58.856946 
L 51.148392 58.916726 
L 51.216031 58.793745 
L 51.331017 58.578186 
L 51.398656 58.646848 
L 51.547462 58.854563 
L 51.550844 58.844295 
L 51.669212 58.661825 
L 51.696267 58.694737 
L 51.814635 58.765298 
L 51.706413 58.678744 
L 51.818017 58.753864 
L 52.075045 58.638071 
L 51.838309 58.786003 
L 52.095337 58.675863 
L 52.15283 58.704808 
L 52.196795 58.637512 
L 52.230615 58.675877 
L 52.338837 58.460147 
L 52.856275 58.535228 
L 52.876567 58.580043 
L 52.937442 58.428364 
L 52.961115 58.504679 
L 53.001699 58.460631 
L 53.069337 58.497222 
L 53.133594 58.604654 
L 53.184324 58.533743 
L 53.329747 58.61942 
L 53.333129 58.609746 
L 53.410914 58.623131 
L 53.448115 58.594518 
L 53.610449 58.352708 
L 53.634123 58.321683 
L 53.694998 58.44801 
L 53.698379 58.441118 
L 53.711907 58.468361 
L 53.762636 58.322532 
L 53.7694 58.352542 
L 53.843803 58.24485 
L 53.887768 58.269493 
L 53.90806 58.287842 
L 53.935116 58.217106 
L 53.972317 58.209598 
L 54.039956 58.264955 
L 54.097449 58.114272 
L 54.209053 58.114873 
L 54.15156 58.040974 
L 54.212435 58.085669 
L 54.587831 58.139471 
L 54.597977 58.083702 
L 54.706199 58.03895 
L 54.614887 58.091741 
L 54.716345 58.051433 
L 54.719727 58.058184 
L 54.770456 57.967957 
L 54.817804 58.006129 
L 54.844859 58.036689 
L 54.905734 57.964305 
L 54.91588 57.925677 
L 54.990283 58.042803 
L 55.007193 58.033911 
L 55.024102 58.074451 
L 55.098505 57.971845 
L 55.108651 57.993878 
L 55.227019 57.919584 
L 55.179672 58.039851 
L 55.233783 57.959658 
L 55.379207 58.003628 
L 55.243929 57.938725 
L 55.392735 57.990992 
L 55.396117 57.974207 
L 55.470519 58.063124 
L 55.494193 58.040056 
L 55.534776 58.097278 
L 55.565214 57.994004 
L 55.595651 57.988451 
L 55.602415 57.996708 
L 55.724165 57.928143 
L 55.984575 57.827769 
L 56.008249 57.836791 
L 56.109707 57.783789 
L 56.248367 57.851999 
L 56.116471 57.769992 
L 56.251749 57.835794 
L 56.356589 57.83932 
L 56.30586 57.914818 
L 56.363353 57.848591 
L 56.46143 57.867839 
L 56.387027 57.811258 
L 56.474957 57.840839 
L 56.53245 57.820378 
L 56.556124 57.875768 
L 56.579798 57.864032 
L 56.593326 57.818997 
L 56.721839 57.931648 
L 56.863881 57.820318 
L 56.738749 57.963609 
L 56.874027 57.832544 
L 57.164874 57.786501 
L 57.597764 57.571671 
L 57.614673 57.624367 
L 57.736423 57.707541 
L 57.739805 57.677667 
L 57.85141 57.616029 
L 57.780389 57.700759 
L 57.868319 57.621848 
L 57.935958 57.742905 
L 57.993451 57.693095 
L 58.196368 57.455114 
L 58.017125 57.713763 
L 58.206514 57.475508 
L 58.270771 57.563561 
L 58.324882 57.519529 
L 58.463542 57.410042 
L 58.466924 57.414135 
L 58.575146 57.280693 
L 58.642785 57.364028 
L 58.751007 57.402525 
L 58.761153 57.390874 
L 58.832174 57.381651 
L 58.801736 57.427445 
L 58.865993 57.422856 
L 58.879521 57.45996 
L 58.937014 57.299202 
L 58.943778 57.320385 
L 59.028327 57.268218 
L 59.072292 57.288949 
L 59.19066 57.305554 
L 59.099348 57.263223 
L 59.194042 57.284879 
L 59.214334 57.336302 
L 59.302264 57.261227 
L 59.36314 57.1814 
L 59.424015 57.247257 
L 59.542383 57.256213 
L 59.43416 57.236179 
L 59.552529 57.225021 
L 59.57282 57.178937 
L 59.616785 57.297293 
L 59.664133 57.232641 
L 59.762209 57.238549 
L 59.674279 57.262663 
L 59.789265 57.288642 
L 59.93807 57.364821 
L 59.944834 57.342732 
L 60.080112 57.197502 
L 60.171425 57.182284 
L 60.120695 57.152358 
L 60.188334 57.160582 
L 60.44198 56.964289 
L 60.448744 56.997049 
L 60.533293 56.852626 
L 60.540057 56.864913 
L 60.611078 56.912836 
L 60.668571 56.822012 
L 60.685481 56.889462 
L 60.766647 56.762909 
L 60.770029 56.771374 
L 60.844432 56.63423 
L 60.895161 56.704152 
L 61.074404 56.565702 
L 61.081168 56.576843 
L 61.179245 56.590822 
L 61.152189 56.549936 
L 61.196154 56.575511 
L 61.338196 56.486672 
L 61.341578 56.495334 
L 61.402453 56.565679 
L 61.36187 56.48422 
L 61.446418 56.483248 
L 61.595224 56.179393 
L 61.601988 56.184717 
L 61.60537 56.189091 
L 61.635807 56.076696 
L 61.740648 54.469164 
L 61.754176 43.875491 
L 61.838724 56.780633 
L 61.845488 56.814567 
L 61.906363 56.371543 
L 62.045023 54.77451 
L 62.058551 48.33979 
L 62.065315 45.370775 
L 62.139717 57.364218 
L 62.156627 57.210365 
L 62.318961 55.593162 
L 62.359544 53.30476 
L 62.36969 45.014446 
L 62.447475 57.779759 
L 62.464384 57.634662 
L 62.684211 54.341281 
L 62.697739 44.822325 
L 62.778905 58.105316 
L 62.782287 58.102484 
L 63.042697 54.341897 
L 63.056225 44.683236 
L 63.140774 58.324546 
L 63.431621 54.910815 
L 63.448531 44.48698 
L 63.51617 55.794809 
L 63.533079 58.451547 
L 63.627774 57.48798 
L 63.857746 54.797355 
L 63.874656 44.459702 
L 63.942295 56.976658 
L 63.959205 58.526321 
L 64.053899 57.583262 
L 64.321073 54.13402 
L 64.331219 44.379938 
L 64.415767 58.5718 
L 64.422531 58.542971 
L 64.804691 54.645337 
L 64.818219 44.36077 
L 64.892622 58.327171 
L 64.902768 58.55772 
L 64.990698 57.741745 
L 65.328893 54.263513 
L 65.342421 44.343886 
L 65.423587 58.528548 
L 65.426969 58.505799 
L 65.572393 57.170882 
L 65.795601 55.837171 
L 65.839567 55.360325 
L 65.86324 53.310815 
L 65.873386 44.300487 
L 65.954553 58.537605 
L 65.968081 58.4265 
L 66.042483 57.728448 
L 66.282602 56.168242 
L 66.380678 55.649249 
L 66.424643 54.033827 
L 66.434789 44.348449 
L 66.515956 58.493682 
L 66.526102 58.432961 
L 66.833859 56.19443 
L 66.938699 55.622707 
L 66.982664 54.4429 
L 66.996192 44.275887 
L 67.073977 58.460252 
L 67.077359 58.489287 
L 67.128088 58.006582 
L 67.415554 56.123936 
L 67.466283 55.91657 
L 67.554213 54.838164 
L 67.571123 44.313933 
L 67.63538 56.350075 
L 67.65229 58.464955 
L 67.746984 57.596698 
L 68.00063 56.127416 
L 68.12238 55.404234 
L 68.146054 54.295489 
L 68.159582 44.256566 
L 68.240749 58.452115 
L 68.352353 57.440453 
L 68.582325 56.171189 
L 68.74804 54.734171 
L 68.76495 44.249969 
L 68.829207 57.109611 
L 68.842735 58.413344 
L 68.940811 57.548993 
L 69.1302 56.338385 
L 69.136964 56.357993 
L 69.18093 56.159434 
L 69.360173 54.62132 
L 69.377082 44.270263 
L 69.444721 58.042725 
L 69.458249 58.372251 
L 69.54618 57.545686 
L 69.955395 54.14394 
L 69.968923 44.287668 
L 70.046708 58.383149 
L 70.053472 58.377487 
L 70.391666 56.176152 
L 70.395048 56.181522 
L 70.39843 56.195894 
L 70.455923 55.971433 
L 70.547236 54.976547 
L 70.560764 51.064602 
L 70.567528 44.22224 
L 70.648694 58.420779 
L 70.665604 58.302423 
L 71.02409 56.075558 
L 71.034236 56.089621 
L 71.088347 55.88062 
L 71.172896 55.347355 
L 71.19657 53.92052 
L 71.210097 44.307884 
L 71.287882 58.349294 
L 71.298028 58.273349 
L 71.82223 54.589305 
L 71.839139 44.255912 
L 71.906778 58.016258 
L 71.920306 58.325485 
L 72.008237 57.504405 
L 72.261883 56.183354 
L 72.268647 56.190518 
L 72.390397 55.665798 
L 72.441126 54.310555 
L 72.454654 44.209936 
L 72.53582 58.372542 
L 72.647425 57.340647 
L 72.907834 56.148048 
L 72.914598 56.153546 
L 72.9518 56.037463 
L 73.093841 55.074365 
L 73.110751 50.291488 
L 73.117515 44.204846 
L 73.198682 58.312783 
L 73.215591 58.163191 
L 73.540258 56.146861 
L 73.746557 55.41525 
L 73.773613 54.211649 
L 73.78714 44.221366 
L 73.864925 58.271298 
L 73.871689 58.246929 
L 74.125335 56.386073 
L 74.132099 56.390212 
L 74.335016 55.859787 
L 74.433092 55.164525 
L 74.450002 53.736332 
L 74.460148 44.304022 
L 74.541314 58.213175 
L 74.55146 58.135927 
L 74.764523 56.549177 
L 74.805106 56.759346 
L 74.93362 56.867495 
L 74.991113 56.962725 
L 75.153447 57.315367 
L 75.214322 57.413084 
L 75.430766 57.829694 
L 75.434148 57.809203 
L 75.508551 58.023349 
L 75.938058 59.238793 
L 75.95835 59.193223 
L 75.961732 59.182057 
L 76.039517 59.285742 
L 76.042899 59.281 
L 76.049662 59.273423 
L 76.225524 59.556704 
L 76.255961 59.487438 
L 76.326982 59.574831 
L 76.333746 59.56621 
L 76.577246 59.738325 
L 76.594156 59.708032 
L 76.614448 59.681414 
L 76.682086 59.775688 
L 76.712524 59.723268 
L 76.797073 59.782299 
L 76.885003 59.728959 
L 76.915441 59.771273 
L 77.010135 59.765955 
L 76.939114 59.744323 
L 77.020281 59.749108 
L 77.067628 59.671619 
L 77.135267 59.706559 
L 77.395677 59.534163 
L 77.405823 59.552957 
L 77.419351 59.600814 
L 77.497135 59.476645 
L 77.500517 59.487778 
L 77.510663 59.467445 
L 77.568156 59.554024 
L 77.595212 59.550981 
L 77.618886 59.563936 
L 77.662851 59.500168 
L 77.693288 59.509498 
L 77.781219 59.429444 
L 77.804893 59.511621 
L 77.896205 59.631153 
L 78.011191 59.687411 
L 78.014573 59.669596 
L 78.031483 59.657515 
L 78.136323 59.708599 
L 78.315566 59.563905 
L 78.32233 59.586561 
L 78.376442 59.605722 
L 78.413643 59.523597 
L 78.474518 59.582558 
L 78.46099 59.619345 
L 78.481282 59.608206 
L 78.572594 59.597113 
L 78.488046 59.597094 
L 78.586122 59.557381 
L 78.684199 59.514473 
L 78.619942 59.564925 
L 78.697726 59.558994 
L 78.792421 59.560469 
L 78.714636 59.497691 
L 78.802567 59.537165 
L 78.883733 59.512171 
L 78.816095 59.574714 
L 78.907407 59.558131 
L 78.914171 59.577737 
L 78.991956 59.426112 
L 79.035921 59.382514 
L 79.093414 59.470612 
L 79.096796 59.467453 
L 79.106942 59.500453 
L 79.238838 59.448859 
L 79.269275 59.471813 
L 79.336914 59.40679 
L 79.343678 59.420634 
L 79.604088 59.346032 
L 79.664963 59.221171 
L 79.719074 59.31594 
L 79.962574 59.695243 
L 80.013304 59.620238 
L 80.131672 59.595328 
L 80.030213 59.633194 
L 80.135054 59.599264 
L 80.256804 59.657341 
L 80.158727 59.5621 
L 80.26695 59.62958 
L 80.365026 59.548527 
L 80.3887 59.571868 
L 81.207131 59.440331 
L 81.25786 59.497819 
L 81.308589 59.372622 
L 81.339026 59.357798 
L 81.355936 59.266726 
L 81.3627 59.277915 
L 81.393138 59.227691 
L 81.443867 59.397422 
L 81.575763 59.335157 
L 81.457395 59.411884 
L 81.589291 59.365244 
L 81.653547 59.41105 
L 81.687367 59.326886 
L 81.697513 59.347639 
L 81.910575 59.258209 
L 81.927485 59.29447 
L 82.02218 59.319188 
L 81.941013 59.264583 
L 82.032325 59.264354 
L 82.147312 59.114028 
L 82.157457 59.15738 
L 82.221714 59.15704 
L 82.245388 59.217876 
L 82.24877 59.228373 
L 82.313027 59.122274 
L 82.329937 59.125517 
L 82.553145 58.952398 
L 82.360374 59.189332 
L 82.566673 58.990351 
L 82.739152 59.504075 
L 82.783118 59.465752 
L 82.898104 59.423484 
L 82.816937 59.486809 
L 82.901486 59.431626 
L 82.982652 59.565098 
L 83.026618 59.534233 
L 83.141604 59.434939 
L 83.165277 59.479061 
L 83.287028 59.517903 
L 83.178805 59.469676 
L 83.290409 59.515075 
L 83.425687 59.480061 
L 83.334375 59.558012 
L 83.429069 59.497162 
L 83.449361 59.530047 
L 83.517 59.414778 
L 83.530528 59.449644 
L 83.669187 59.300908 
L 83.797701 59.324295 
L 83.895778 59.201665 
L 83.943125 59.259237 
L 84.078403 59.379905 
L 83.956653 59.245749 
L 84.085167 59.354103 
L 84.196771 59.285256 
L 84.210299 59.310055 
L 84.345577 59.412373 
L 84.376014 59.284674 
L 84.497764 59.142838 
L 84.504528 59.143862 
L 84.589077 59.08929 
L 84.548494 59.068856 
L 84.595841 59.075173 
L 84.761556 58.901405 
L 84.633042 59.098309 
L 84.764938 58.907203 
L 84.896834 59.003656 
L 84.900216 59.00037 
L 85.694973 58.644595 
L 85.705119 58.687015 
L 85.718647 58.723649 
L 85.803196 58.615009 
L 86.192119 58.58515 
L 86.29696 58.630781 
L 86.229321 58.573955 
L 86.303724 58.624324 
L 86.330779 58.584442 
L 86.395036 58.689365 
L 86.503258 58.718905 
L 86.459293 58.611998 
L 86.513404 58.70631 
L 86.635154 58.615533 
L 87.051134 58.559405 
L 87.057898 58.592908 
L 87.122155 58.635983 
L 87.14921 58.538057 
L 87.159356 58.566802 
L 87.294634 58.417936 
L 87.298016 58.425975 
L 87.301398 58.447037 
L 87.372419 58.380786 
L 87.399474 58.376758 
L 87.544898 58.218248 
L 87.801926 58.293565 
L 87.805308 58.274302 
L 87.923676 58.154804 
L 87.927058 58.173341 
L 88.322746 58.205075 
L 88.407294 57.998899 
L 88.458023 58.0463 
L 88.542572 58.120337 
L 88.505371 58.001436 
L 88.576392 58.113647 
L 88.786072 58.044644 
L 88.589919 58.159423 
L 88.802982 58.083586 
L 88.850329 58.114174 
L 88.81651 58.067819 
L 88.90444 58.038921 
L 89.036336 57.9277 
L 88.931496 58.09612 
L 89.039718 57.940483 
L 89.046482 57.956847 
L 89.097211 57.888066 
L 89.134413 57.905514 
L 89.137795 57.88429 
L 89.188524 57.93513 
L 89.242635 57.90941 
L 89.340711 57.904028 
L 89.262927 57.871233 
L 89.354239 57.898044 
L 89.915642 57.76484 
L 90.044156 57.601131 
L 90.297802 57.669616 
L 90.358677 57.733239 
L 90.409406 57.655233 
L 90.514247 57.604848 
L 90.524393 57.648431 
L 90.723927 57.746396 
L 90.737455 57.757529 
L 90.859205 57.633047 
L 90.893025 57.674903 
L 90.950518 57.60239 
L 90.967428 57.634303 
L 91.065504 57.575084 
L 91.068886 57.581548 
" clip-path="url(#pa9fecb795c)" style="fill: none; stroke: #000000; stroke-width: 0.6; stroke-linecap: square"/>
   </g>
   <g id="line2d_4">
    <path d="M 95.127221 15.313171 
L 95.127221 8.552195 
" clip-path="url(#pa9fecb795c)" style="fill: none; stroke: #000000; stroke-width: 1.5; stroke-linecap: square"/>
   </g>
  </g>
 </g>
 <defs>
  <clipPath id="pa9fecb795c">
   <rect x="7.2" y="7.2" width="89.28" height="55.44"/>
  </clipPath>
 </defs>
</svg>
