<?xml version="1.0" encoding="utf-8" standalone="no"?>
<!DOCTYPE svg PUBLIC "-//W3C//DTD SVG 1.1//EN"
  "http://www.w3.org/Graphics/SVG/1.1/DTD/svg11.dtd">
<svg xmlns:xlink="http://www.w3.org/1999/xlink" width="103.68pt" height="69.84pt" viewBox="0 0 103.68 69.84" xmlns="http://www.w3.org/2000/svg" version="1.1">
 <metadata>
  <rdf:RDF xmlns:dc="http://purl.org/dc/elements/1.1/" xmlns:cc="http://creativecommons.org/ns#" xmlns:rdf="http://www.w3.org/1999/02/22-rdf-syntax-ns#">
   <cc:Work>
    <dc:type rdf:resource="http://purl.org/dc/dcmitype/StillImage"/>
    <dc:date>2022-05-08T14:49:28.830862</dc:date>
    <dc:format>image/svg+xml</dc:format>
    <dc:creator>
     <cc:Agent>
      <dc:title>Matplotlib v3.5.1, https://matplotlib.org/</dc:title>
     </cc:Agent>
    </dc:creator>
   </cc:Work>
  </rdf:RDF>
 </metadata>
 <defs>
  <style type="text/css">*{stroke-linejoin: round; stroke-linecap: butt}</style>
 </defs>
 <g id="figure_1">
  <g id="patch_1">
   <path d="M 0 69.84 
L 103.68 69.84 
L 103.68 0 
L 0 0 
z
" style="fill: #ffffff"/>
  </g>
  <g id="axes_1">
   <g id="patch_2">
    <path d="M 7.2 62.64 
L 96.48 62.64 
L 96.48 7.2 
L 7.2 7.2 
z
" style="fill: #ffffff"/>
   </g>
   <g id="matplotlib.axis_1"/>
   <g id="matplotlib.axis_2"/>
   <g id="line2d_1">
    <path d="M 9.905557 23.836354 
L 9.939376 23.868783 
L 9.922467 23.818973 
L 10.013779 23.815201 
L 10.149057 23.634237 
L 10.203168 23.724876 
L 10.274189 23.836041 
L 10.324918 23.796864 
L 10.439905 23.758189 
L 10.453432 23.789335 
L 10.470342 23.81326 
L 10.521071 23.734871 
L 10.558273 23.763124 
L 10.595474 23.752274 
L 10.62253 23.821313 
L 10.646203 23.818875 
L 10.795009 23.934785 
L 10.845738 23.870382 
L 10.906613 23.932756 
L 10.933669 23.972186 
L 10.974252 23.883265 
L 11.008072 23.902611 
L 11.197461 23.648961 
L 11.373322 23.822269 
L 11.383468 23.807571 
L 11.501836 23.648626 
L 11.5086 23.689104 
L 11.57962 23.692979 
L 11.535655 23.732399 
L 11.59653 23.741188 
L 11.701371 23.805695 
L 11.603294 23.739063 
L 11.71828 23.786512 
L 11.731808 23.792405 
L 11.758864 23.848525 
L 11.789301 23.861557 
L 11.826503 23.906597 
L 11.883996 23.804841 
L 11.894141 23.777719 
L 11.955016 23.868799 
L 11.988836 23.829979 
L 12.120732 23.816667 
L 12.01251 23.782422 
L 12.130878 23.803431 
L 12.201899 23.778137 
L 12.141024 23.820394 
L 12.232336 23.828346 
L 12.357468 24.03292 
L 12.37776 24.002442 
L 12.469072 23.850333 
L 12.513038 23.898677 
L 12.614496 23.992864 
L 12.634788 23.946563 
L 12.695663 23.926658 
L 12.665225 23.905637 
L 12.7261 23.878141 
L 12.932399 24.015925 
L 12.935781 24.026912 
L 12.98651 23.927066 
L 13.023712 23.944122 
L 13.050767 23.924043 
L 13.098114 24.0172 
L 13.10826 24.008948 
L 13.206337 24.033812 
L 13.186045 23.975671 
L 13.223246 24.001982 
L 13.331469 23.933947 
L 13.23001 24.007336 
L 13.348378 23.970185 
L 13.500566 24.117612 
L 13.375434 23.940968 
L 13.503948 24.110847 
L 13.710247 24.013953 
L 13.517476 24.137509 
L 13.727156 24.08445 
L 13.859052 24.149755 
L 13.862434 24.143656 
L 13.940219 24.099976 
L 13.869198 24.133792 
L 13.943601 24.08134 
L 14.038295 24.050892 
L 14.001094 24.102095 
L 14.051823 24.090071 
L 14.251358 24.096145 
L 14.258122 24.060813 
L 14.298705 24.085584 
L 14.322379 24.136604 
L 14.450893 24.220812 
L 14.505004 24.210094 
L 14.518532 24.157721 
L 14.53206 24.156884 
L 14.542205 24.116383 
L 14.616608 24.228502 
L 14.6369 24.180183 
L 14.816143 24.373893 
L 14.826289 24.353608 
L 14.86349 24.368994 
L 14.887164 24.41948 
L 14.910838 24.415865 
L 14.937893 24.453858 
L 15.00215 24.334822 
L 15.008914 24.341982 
L 15.364018 24.149698 
L 15.370782 24.135384 
L 15.435039 24.301382 
L 15.519588 24.242935 
L 15.556789 24.336733 
L 15.658248 24.246378 
L 15.695449 24.28643 
L 15.840873 24.1932 
L 15.847637 24.162747 
L 15.922039 24.24435 
L 15.949095 24.21418 
L 15.976151 24.158776 
L 16.050553 24.258932 
L 16.152012 24.276606 
L 16.168922 24.323095 
L 16.277144 24.385701 
L 16.283908 24.354569 
L 16.469915 24.167754 
L 16.480061 24.173759 
L 16.53079 24.205122 
L 16.567991 24.103802 
L 16.574755 24.109614 
L 16.710033 23.986559 
L 16.902804 23.973026 
L 16.906186 23.985493 
L 16.990734 24.095983 
L 17.041464 24.03585 
L 17.048228 24.017133 
L 17.126012 24.134698 
L 17.224089 24.254161 
L 17.257908 24.181578 
L 17.281582 24.113855 
L 17.325547 24.235782 
L 17.366131 24.200058 
L 17.487881 24.177804 
L 17.50479 24.23825 
L 17.623158 24.270617 
L 17.636686 24.245145 
L 17.667124 24.197102 
L 17.724617 24.338804 
L 17.734763 24.30335 
L 17.88695 24.438459 
L 18.045902 24.25682 
L 18.056048 24.267831 
L 18.187943 24.264766 
L 18.093249 24.320321 
L 18.194707 24.290155 
L 18.340131 24.40602 
L 18.343513 24.389682 
L 18.401006 24.446407 
L 18.448353 24.399998 
L 18.451735 24.416072 
L 18.536284 24.292195 
L 18.559958 24.326731 
L 18.674944 24.255479 
L 18.871097 24.537439 
L 18.874479 24.527989 
L 18.992847 24.387106 
L 19.026666 24.41899 
L 19.074013 24.399095 
L 19.141652 24.452627 
L 19.195763 24.510609 
L 19.178854 24.52044 
L 19.202527 24.536 
L 19.209291 24.559058 
L 19.280312 24.397942 
L 19.283694 24.371054 
L 19.341187 24.454345 
L 19.385152 24.433752 
L 19.500139 24.45941 
L 19.405444 24.413041 
L 19.503521 24.453313 
L 19.567778 24.392535 
L 19.625271 24.477991 
L 20.014194 24.547125 
L 20.020958 24.50737 
L 20.02434 24.486591 
L 20.081833 24.573788 
L 20.125799 24.535591 
L 20.190056 24.629599 
L 20.237403 24.563693 
L 20.359153 24.509638 
L 20.308424 24.603348 
L 20.362535 24.521879 
L 20.484285 24.654062 
L 20.379445 24.493865 
L 20.494431 24.646488 
L 20.507959 24.629656 
L 20.538396 24.694128 
L 20.599271 24.681544 
L 20.744695 24.759538 
L 20.893501 24.624605 
L 21.018633 24.622896 
L 21.03216 24.581091 
L 21.038924 24.548055 
L 21.106563 24.654228 
L 21.133619 24.627427 
L 21.258751 24.609382 
L 21.262133 24.613258 
L 21.400792 24.775605 
L 21.279042 24.57996 
L 21.404174 24.769753 
L 21.515779 24.721494 
L 21.525924 24.74563 
L 21.532688 24.787913 
L 21.630765 24.698702 
L 21.637529 24.676762 
L 22.023071 24.737398 
L 22.063654 24.792267 
L 22.138057 24.724613 
L 22.280098 24.799424 
L 22.398467 24.738062 
L 22.293626 24.803463 
L 22.401849 24.746851 
L 22.503307 24.78665 
L 22.479633 24.728 
L 22.513453 24.751764 
L 22.655495 24.750894 
L 22.679168 24.743302 
L 22.770481 24.772989 
L 22.827974 24.739266 
L 22.797536 24.788043 
L 22.882085 24.773585 
L 22.892231 24.814818 
L 22.997071 24.77383 
L 23.105293 24.795046 
L 23.017363 24.732136 
L 23.115439 24.769802 
L 23.179696 24.709976 
L 23.223662 24.792119 
L 23.227043 24.818264 
L 23.287918 24.743654 
L 23.331884 24.773884 
L 23.457016 24.788916 
L 23.473926 24.729281 
L 23.517891 24.79851 
L 23.578766 24.758514 
L 23.588912 24.707093 
L 23.737717 24.74593 
L 23.866231 24.72112 
L 23.774919 24.783962 
L 23.869613 24.728945 
L 23.927106 24.76318 
L 23.981217 24.744312 
L 24.045474 24.722301 
L 23.998127 24.753945 
L 24.092822 24.748528 
L 24.329558 24.766013 
L 24.336322 24.744662 
L 24.414107 24.719711 
L 24.387051 24.772191 
L 24.444544 24.769293 
L 24.566294 24.754108 
L 24.620405 24.791459 
L 24.600114 24.732482 
L 24.674516 24.747398 
L 24.69819 24.782835 
L 24.792885 24.741137 
L 24.901107 24.786304 
L 24.80303 24.730773 
L 24.907871 24.780404 
L 25.012711 24.742765 
L 25.029621 24.753921 
L 25.127697 24.807621 
L 25.147989 24.780777 
L 25.246065 24.723868 
L 25.269739 24.75243 
L 25.361052 24.793325 
L 25.313704 24.743679 
L 25.381343 24.77274 
L 25.56735 24.735871 
L 25.574114 24.75034 
L 25.638371 24.700599 
L 25.695864 24.789922 
L 25.736448 24.828546 
L 25.81085 24.755397 
L 25.946128 24.778355 
L 25.952892 24.750617 
L 25.96642 24.686449 
L 26.000239 24.786751 
L 26.067878 24.718236 
L 26.19301 24.747536 
L 26.078024 24.740681 
L 26.196392 24.770448 
L 26.24374 24.787292 
L 26.280941 24.719603 
L 26.291087 24.720492 
L 26.294469 24.702895 
L 26.375635 24.792562 
L 26.402691 24.726932 
L 26.612372 24.742433 
L 26.646191 24.677819 
L 26.723976 24.73491 
L 26.764559 24.809514 
L 26.791615 24.724028 
L 26.838962 24.779768 
L 26.970858 24.708941 
L 27.041879 24.777261 
L 27.089226 24.745918 
L 27.369928 24.673129 
L 27.393601 24.760098 
L 27.481532 24.8473 
L 27.515351 24.796797 
L 27.620192 24.721197 
L 27.522115 24.800462 
L 27.630338 24.74908 
L 27.687831 24.820974 
L 27.741942 24.762784 
L 27.796053 24.669899 
L 27.86031 24.709872 
L 27.968532 24.613594 
L 27.867074 24.72265 
L 28.019261 24.695124 
L 28.083518 24.771539 
L 28.134248 24.73002 
L 28.293199 24.590959 
L 28.306727 24.623809 
L 28.404803 24.680134 
L 28.425095 24.623839 
L 28.442005 24.634327 
L 28.556991 24.534897 
L 28.573901 24.600857 
L 28.671977 24.574067 
L 28.76329 24.512019 
L 28.786963 24.564113 
L 28.841074 24.709569 
L 28.898567 24.567264 
L 28.932387 24.564298 
L 28.952679 24.65866 
L 28.959442 24.644369 
L 29.003408 24.704407 
L 29.047373 24.614577 
L 29.074429 24.653361 
L 29.155595 24.565852 
L 29.206324 24.624044 
L 29.449825 24.516975 
L 29.487026 24.604807 
L 29.503936 24.668276 
L 29.591866 24.577177 
L 29.595248 24.581968 
L 29.645977 24.635325 
L 29.689943 24.52603 
L 29.693325 24.530854 
L 29.882714 24.35578 
L 29.889478 24.365321 
L 30.041665 24.4299 
L 29.919915 24.336214 
L 30.045047 24.422613 
L 30.068721 24.435824 
L 30.170179 24.339679 
L 30.413679 24.343824 
L 30.528665 24.274577 
L 30.532047 24.304162 
L 30.643652 24.360675 
L 30.552339 24.268221 
L 30.650416 24.350517 
L 30.653797 24.334054 
L 30.721436 24.401163 
L 30.755256 24.390335 
L 31.313277 24.182033 
L 30.76202 24.405644 
L 31.323423 24.201763 
L 31.462083 24.364262 
L 31.472228 24.329033 
L 31.566923 24.21841 
L 31.593979 24.255846 
L 31.708965 24.434439 
L 31.73602 24.42528 
L 32.168909 24.424507 
L 32.25684 24.233626 
L 32.294041 24.273215 
L 32.368444 24.249068 
L 32.334625 24.206003 
L 32.381972 24.236004 
L 32.503722 24.090511 
L 32.625472 24.147553 
L 32.872354 24.206271 
L 32.977195 24.28687 
L 32.990722 24.249183 
L 33.068507 24.231902 
L 33.007632 24.196339 
L 33.082035 24.205093 
L 33.085417 24.18635 
L 33.163202 24.290283 
L 33.180111 24.274107 
L 33.234223 24.314126 
L 33.257896 24.250013 
L 33.291716 24.271648 
L 33.450667 24.163209 
L 33.325535 24.326396 
L 33.457431 24.195455 
L 33.521688 24.301019 
L 33.589327 24.211156 
L 33.690785 24.110797 
L 33.724605 24.141975 
L 33.809153 24.139561 
L 33.792244 24.09671 
L 33.829445 24.121295 
L 33.866646 24.102119 
L 33.92414 24.184573 
L 33.974869 24.207833 
L 34.022216 24.128539 
L 34.41114 24.23741 
L 34.421286 24.203126 
L 34.485543 24.299557 
L 34.53289 24.208414 
L 34.624202 24.235769 
L 34.566709 24.177568 
L 34.644494 24.190294 
L 35.151786 23.94904 
L 35.17546 24.052584 
L 35.219425 24.080134 
L 35.243099 24.00598 
L 35.276918 24.004125 
L 35.381758 23.859252 
L 35.40205 23.895965 
L 35.415578 23.917609 
L 35.479835 23.847946 
L 35.513654 23.897178 
L 35.672606 23.916307 
L 35.686134 23.881879 
L 35.777446 23.757735 
L 35.709807 23.925481 
L 35.804502 23.83196 
L 35.90596 23.975866 
L 35.929634 23.966821 
L 35.933016 23.960037 
L 35.990509 24.082343 
L 35.993891 24.078736 
L 36.156224 24.183133 
L 36.193426 24.153168 
L 36.223863 24.260042 
L 36.267828 24.189817 
L 36.39296 24.303671 
L 36.308412 24.153535 
L 36.403106 24.256833 
L 36.521474 24.246785 
L 36.440308 24.324372 
L 36.524856 24.258605 
L 36.649988 24.305362 
L 36.77512 24.198717 
L 36.781884 24.207882 
L 36.893488 24.327121 
L 36.910398 24.288208 
L 37.065968 24.318196 
L 37.072732 24.302944 
L 37.184336 24.16641 
L 37.201246 24.194137 
L 37.285794 24.211014 
L 37.224919 24.153471 
L 37.309468 24.148477 
L 37.366961 24.057338 
L 37.431218 24.07086 
L 37.53944 24.197908 
L 37.738975 24.226147 
L 37.742357 24.214498 
L 37.803232 24.171629 
L 37.837051 24.254736 
L 37.850579 24.23646 
L 37.901308 24.232738 
L 37.874253 24.262172 
L 37.928364 24.30118 
L 37.975711 24.23705 
L 38.039968 24.31443 
L 38.141427 24.304991 
L 38.097461 24.351153 
L 38.158336 24.329113 
L 38.280086 24.308002 
L 38.1651 24.314724 
L 38.28685 24.28839 
L 38.374781 24.184641 
L 38.405218 24.224007 
L 38.986913 24.182352 
L 39.098517 24.117556 
L 39.010587 24.217173 
L 39.108663 24.125501 
L 39.240559 24.231824 
L 39.291288 24.187223 
L 39.504351 24.057505 
L 39.514497 24.091105 
L 39.636247 24.265052 
L 39.639629 24.253172 
L 39.81549 24.20158 
L 39.818872 24.215239 
L 40.001497 24.329375 
L 39.825636 24.198731 
L 40.004879 24.32188 
L 40.217942 24.204408 
L 40.015025 24.340054 
L 40.224705 24.213244 
L 40.316018 24.308293 
L 40.339692 24.238924 
L 40.400567 24.153578 
L 40.461442 24.175051 
L 40.464824 24.193893 
L 40.505407 24.102532 
L 40.5629 24.115244 
L 40.589956 24.152339 
L 40.623775 24.077469 
L 40.671122 24.109806 
L 40.691414 24.137637 
L 40.789491 24.090926 
L 40.92815 24.146789 
L 40.992407 24.094033 
L 40.948442 24.160257 
L 41.036373 24.162637 
L 41.17165 24.134486 
L 41.10063 24.25028 
L 41.175032 24.154592 
L 41.232525 24.317128 
L 41.330602 24.194271 
L 41.411769 24.153263 
L 41.438824 24.201366 
L 41.462498 24.239669 
L 41.513227 24.11851 
L 41.533519 24.128571 
L 41.536901 24.114455 
L 41.621449 24.230862 
L 41.634977 24.174067 
L 41.749963 24.162791 
L 41.658651 24.252666 
L 41.770255 24.195214 
L 41.787165 24.228906 
L 41.841276 24.07113 
L 41.868331 24.115505 
L 41.990081 24.009835 
L 42.094922 24.180227 
L 42.138887 24.249972 
L 42.216672 24.210069 
L 42.287693 24.170759 
L 42.226818 24.220638 
L 42.324894 24.228533 
L 42.365477 24.314333 
L 42.33504 24.220545 
L 42.443262 24.270815 
L 42.632651 23.978733 
L 42.636033 23.991071 
L 42.669853 23.910672 
L 42.73411 23.937428 
L 42.862624 23.860482 
L 42.926881 23.819257 
L 42.882915 23.902332 
L 42.970846 23.870943 
L 43.041867 23.9397 
L 42.980992 23.865022 
L 43.095978 23.92459 
L 43.285367 23.8034 
L 43.102742 23.933479 
L 43.329332 23.87445 
L 43.440936 23.939384 
L 43.34286 23.817398 
L 43.457846 23.922851 
L 43.593124 23.794918 
L 43.596506 23.799715 
L 43.721638 24.014343 
L 43.762221 23.933521 
L 43.887353 23.730067 
L 43.900881 23.773443 
L 43.941464 23.798612 
L 43.961756 23.72815 
L 44.009103 23.748 
L 44.168055 23.707123 
L 44.174819 23.726269 
L 44.255985 23.703772 
L 44.289805 23.765179 
L 44.398027 23.801094 
L 44.414937 23.773186 
L 44.526541 23.758455 
L 44.458902 23.82488 
L 44.533305 23.781586 
L 44.540069 23.803916 
L 44.573888 23.718541 
L 44.631381 23.732801 
L 44.729458 23.647799 
L 44.641527 23.741556 
L 44.756514 23.666825 
L 44.928993 23.780013 
L 44.786951 23.587179 
L 44.952666 23.757571 
L 44.95943 23.72363 
L 45.040597 23.848102 
L 45.054125 23.847297 
L 45.138673 23.787859 
L 45.175875 23.82923 
L 45.280715 23.926202 
L 45.297625 23.873341 
L 45.344972 23.879341 
L 45.37541 23.948197 
L 45.507306 24.027761 
L 45.388937 23.910329 
L 45.541125 23.99401 
L 45.730514 23.871994 
L 45.754188 23.940671 
L 45.788007 23.982764 
L 45.815063 23.863859 
L 45.855646 23.896519 
L 45.946959 23.934562 
L 45.865792 23.9222 
L 45.953722 23.957877 
L 46.034889 24.075942 
L 46.065327 23.963853 
L 46.203987 24.021604 
L 46.220896 23.989963 
L 46.48807 23.98648 
L 46.50498 23.942528 
L 46.538799 24.030917 
L 46.59291 24.016691 
L 46.657167 23.989487 
L 46.718042 24.075167 
L 46.890522 23.777574 
L 46.924341 23.834588 
L 47.144168 23.983995 
L 47.150931 23.97494 
L 47.225334 23.87812 
L 47.289591 23.97493 
L 47.435015 23.965063 
L 47.441779 23.949821 
L 47.516182 23.961295 
L 47.455307 23.982466 
L 47.533091 24.01136 
L 47.604112 24.053472 
L 47.627786 23.968691 
L 47.631168 23.978592 
L 47.712335 23.894083 
L 47.752918 23.938758 
L 47.884814 24.083547 
L 47.922015 24.06823 
L 48.006564 24.032245 
L 47.952453 24.09032 
L 48.037001 24.046662 
L 48.128314 24.097333 
L 48.131696 24.111225 
L 48.13846 24.136296 
L 48.182425 24.068169 
L 48.236536 24.083198 
L 48.605168 24.253442 
L 48.696481 24.340993 
L 48.723536 24.321756 
L 49.744884 24.194753 
L 49.853107 24.030632 
L 49.870016 24.077283 
L 50.076315 24.265097 
L 50.079697 24.257537 
L 50.130426 24.214859 
L 50.160864 24.29396 
L 50.191301 24.261922 
L 50.326579 24.356929 
L 50.340107 24.317891 
L 50.668156 24.546519 
L 50.688447 24.526295 
L 50.955621 24.39068 
L 50.705357 24.556673 
L 50.965767 24.405199 
L 51.013114 24.468932 
L 51.077371 24.407093 
L 51.418948 24.470737 
L 51.462913 24.513405 
L 51.503496 24.399418 
L 51.520406 24.424333 
L 51.550844 24.516614 
L 51.581281 24.511768 
L 51.703031 24.595678 
L 51.709795 24.590393 
L 51.740233 24.623199 
L 51.818017 24.566882 
L 51.882274 24.640999 
L 51.929622 24.595702 
L 51.983733 24.65738 
L 52.041226 24.559023 
L 52.088573 24.562864 
L 52.122393 24.490808 
L 52.186649 24.437898 
L 52.132538 24.517806 
L 52.223851 24.529614 
L 52.254288 24.481946 
L 52.39633 24.625744 
L 52.504552 24.660256 
L 52.524844 24.603282 
L 52.53499 24.58598 
L 52.602629 24.707972 
L 52.612775 24.688945 
L 52.717615 24.672956 
L 52.677032 24.614553 
L 52.720997 24.663779 
L 52.846129 24.545763 
L 52.754816 24.684882 
L 52.856275 24.563307 
L 52.954351 24.564467 
L 52.903622 24.507274 
L 52.961115 24.537478 
L 52.964497 24.532687 
L 53.008462 24.652366 
L 53.116685 24.654266 
L 53.120067 24.63681 
L 53.126831 24.609864 
L 53.174178 24.718676 
L 53.221525 24.664341 
L 53.262108 24.74986 
L 53.228289 24.66227 
L 53.339893 24.693564 
L 53.752491 24.767061 
L 53.755873 24.75502 
L 53.847185 24.751301 
L 53.766018 24.767247 
L 53.870859 24.764981 
L 53.884387 24.752857 
L 53.989227 24.774205 
L 54.0129 24.807175 
L 54.110977 24.726966 
L 54.117741 24.740659 
L 54.263165 24.756454 
L 54.340949 24.789222 
L 54.30713 24.706979 
L 54.374769 24.756032 
L 54.469463 24.772917 
L 54.432262 24.705051 
L 54.482991 24.73464 
L 54.621651 24.778051 
L 54.625033 24.770008 
L 54.696054 24.722887 
L 54.65547 24.794101 
L 54.740019 24.802701 
L 54.746783 24.825963 
L 54.800894 24.738066 
L 54.838095 24.747917 
L 54.892207 24.714489 
L 54.865151 24.761724 
L 54.9497 24.760305 
L 55.057922 24.776577 
L 54.966609 24.716925 
L 55.064686 24.757697 
L 55.1932 24.765361 
L 55.243929 24.728923 
L 55.220255 24.800332 
L 55.308186 24.74657 
L 55.494193 24.790206 
L 55.511103 24.76321 
L 55.602415 24.729233 
L 55.629471 24.742249 
L 55.744457 24.769993 
L 55.754603 24.752578 
L 55.815478 24.716072 
L 55.791804 24.813646 
L 55.866207 24.741831 
L 55.987957 24.81557 
L 55.896645 24.717215 
L 55.994721 24.790164 
L 56.136763 24.72697 
L 56.140145 24.736026 
L 56.248367 24.804083 
L 56.255131 24.786504 
L 56.366735 24.732134 
L 56.272041 24.80357 
L 56.376881 24.738997 
L 56.488485 24.809219 
L 56.505395 24.787416 
L 56.600089 24.744153 
L 56.515541 24.792929 
L 56.616999 24.768224 
L 56.623763 24.798526 
L 56.715076 24.734146 
L 56.725221 24.752641 
L 56.833444 24.738894 
L 56.84359 24.782006 
L 56.934902 24.775423 
L 56.91461 24.733441 
L 56.94843 24.761292 
L 57.002541 24.719605 
L 57.046506 24.802696 
L 57.056652 24.775202 
L 57.168256 24.769912 
L 57.103999 24.73379 
L 57.171638 24.766384 
L 57.516597 24.730195 
L 57.594382 24.808038 
L 57.628201 24.76555 
L 57.709368 24.68715 
L 57.743187 24.727792 
L 57.763479 24.80684 
L 57.820972 24.688037 
L 57.854791 24.755147 
L 57.908903 24.790434 
L 57.976542 24.733766 
L 57.986687 24.772341 
L 58.054326 24.71613 
L 58.084764 24.721223 
L 58.189604 24.711404 
L 58.115201 24.77422 
L 58.192986 24.73175 
L 58.318118 24.764178 
L 58.236951 24.7046 
L 58.3215 24.750039 
L 58.385757 24.701424 
L 58.351938 24.760621 
L 58.429722 24.753682 
L 58.537945 24.793357 
L 58.463542 24.741205 
L 58.544709 24.766492 
L 58.608965 24.738326 
L 58.602202 24.781584 
L 58.656313 24.749109 
L 58.693514 24.777333 
L 58.740861 24.683001 
L 58.761153 24.705004 
L 58.893049 24.777401 
L 58.798354 24.686264 
L 58.899813 24.772119 
L 59.035091 24.686253 
L 58.953924 24.810873 
L 59.038473 24.698737 
L 59.183896 24.764131 
L 59.187278 24.754699 
L 59.221098 24.693575 
L 59.302264 24.731146 
L 59.34623 24.753923 
L 59.373285 24.702211 
L 59.410487 24.709271 
L 59.518709 24.650796 
L 59.542383 24.673017 
L 59.674279 24.725013 
L 59.677661 24.716968 
L 59.823084 24.661722 
L 60.556967 24.73015 
L 60.567112 24.753086 
L 60.627987 24.611112 
L 60.651661 24.638582 
L 60.783557 24.587043 
L 60.709154 24.682692 
L 60.793703 24.597744 
L 60.797085 24.608228 
L 60.85796 24.546753 
L 60.895161 24.557939 
L 61.395689 24.569589 
L 61.497148 24.387911 
L 61.534349 24.40494 
L 61.723738 24.525954 
L 61.801523 24.444733 
L 61.838724 24.515865 
L 62.014585 24.374471 
L 61.845488 24.528296 
L 62.021349 24.399691 
L 62.143099 24.44782 
L 62.031495 24.426354 
L 62.146481 24.462301 
L 62.193829 24.370361 
L 62.261467 24.447079 
L 62.35278 24.341753 
L 62.383218 24.386215 
L 62.423801 24.475355 
L 62.467766 24.350209 
L 62.49144 24.399684 
L 62.542169 24.295693 
L 62.606426 24.366549 
L 62.619954 24.360349 
L 62.745086 24.462486 
L 62.870218 24.341058 
L 63.008878 24.405946 
L 63.015642 24.370737 
L 63.414711 24.205907 
L 63.438385 24.275354 
L 63.543225 24.325077 
L 63.502642 24.25282 
L 63.553371 24.301277 
L 63.563517 24.333762 
L 63.63792 24.217524 
L 63.644684 24.218334 
L 63.769816 24.130201 
L 63.773197 24.140992 
L 63.776579 24.144299 
L 63.807017 24.055072 
L 63.820545 24.052447 
L 63.837454 24.006043 
L 63.915239 24.088696 
L 63.928767 24.067911 
L 63.989642 24.162805 
L 64.043753 24.22662 
L 64.101246 24.195861 
L 64.148594 24.128624 
L 64.192559 24.213441 
L 64.209469 24.212685 
L 64.256816 24.300309 
L 64.324455 24.238552 
L 64.527371 24.097228 
L 64.561191 24.189332 
L 64.642358 24.14456 
L 64.71676 24.122077 
L 64.662649 24.191356 
L 64.75058 24.169185 
L 64.777636 24.195444 
L 64.801309 24.099199 
L 64.841892 24.113547 
L 64.963643 24.063904 
L 65.11583 24.006687 
L 65.125976 24.027512 
L 65.25449 24.078289 
L 65.261254 24.064703 
L 65.278164 24.057989 
L 65.305219 24.178711 
L 65.311983 24.178857 
L 65.667087 24.207842 
L 65.731344 24.176631 
L 65.778692 24.240021 
L 65.782074 24.258876 
L 65.846331 24.129469 
L 65.873386 24.14385 
L 65.991754 24.066544 
L 65.890296 24.150916 
L 66.005282 24.090951 
L 66.086449 24.031255 
L 66.089831 24.016421 
L 66.208199 23.919951 
L 66.214963 23.926716 
L 66.515956 23.999038 
L 66.583595 24.084772 
L 66.634324 24.063971 
L 66.641088 24.021572 
L 66.729019 24.164687 
L 66.7324 24.164319 
L 67.385116 23.951366 
L 67.388498 23.963537 
L 67.479811 24.060079 
L 67.500102 23.98068 
L 67.648908 23.872403 
L 67.65229 23.885595 
L 67.6692 23.940106 
L 67.770658 23.907647 
L 67.861971 23.828048 
L 67.885644 23.887739 
L 68.027686 23.898507 
L 67.909318 23.856082 
L 68.031068 23.886265 
L 68.152818 23.782107 
L 68.068269 23.906412 
L 68.159582 23.814964 
L 68.254276 23.771356 
L 68.288096 23.818146 
L 68.419992 23.994138 
L 68.29486 23.814965 
L 68.440283 23.960677 
L 68.524832 23.847263 
L 68.585707 23.898853 
L 68.599235 23.916852 
L 68.666874 23.802241 
L 68.673638 23.818579 
L 69.262096 23.61362 
L 69.346645 23.518813 
L 69.30268 23.628637 
L 69.39061 23.560272 
L 69.461631 23.573791 
L 69.488687 23.497387 
L 69.492069 23.49096 
L 69.532652 23.581304 
L 69.579999 23.556724 
L 69.590145 23.545288 
L 69.705131 23.678097 
L 69.735569 23.632365 
L 69.759242 23.726257 
L 69.809972 23.719029 
L 69.968923 23.829821 
L 69.820117 23.702576 
L 69.979069 23.817327 
L 70.029798 23.783804 
L 70.073763 23.871174 
L 70.077145 23.871009 
L 70.083909 23.903535 
L 70.141402 23.804348 
L 70.181986 23.843139 
L 70.283444 23.685502 
L 70.3105 23.747579 
L 70.334173 23.7749 
L 70.388284 23.667744 
L 70.411958 23.675984 
L 70.482979 23.671849 
L 70.428868 23.641485 
L 70.513416 23.630715 
L 70.52018 23.614698 
L 70.587819 23.786233 
L 70.591201 23.782641 
L 70.702805 23.93265 
L 70.740007 23.893289 
L 70.865139 23.784082 
L 70.787354 23.910139 
L 70.868521 23.795044 
L 70.898958 23.753604 
L 70.956451 23.829659 
L 70.983507 23.782606 
L 71.061292 23.885814 
L 71.105257 23.787073 
L 71.189806 23.751194 
L 71.132313 23.796884 
L 71.216861 23.785042 
L 71.230389 23.807606 
L 71.26759 23.724278 
L 71.311556 23.744719 
L 71.338611 23.711997 
L 71.352139 23.779454 
L 71.42316 23.748451 
L 71.494181 23.81879 
L 71.497563 23.848017 
L 71.582111 23.650247 
L 71.585493 23.653696 
L 71.629459 23.762987 
L 71.670042 23.618422 
L 71.703862 23.661455 
L 71.889869 23.470197 
L 71.896632 23.531325 
L 71.947362 23.440853 
L 72.001473 23.491619 
L 72.058966 23.467801 
L 72.008237 23.500378 
L 72.106313 23.509057 
L 72.163806 23.596703 
L 72.228063 23.540739 
L 72.234827 23.517701 
L 72.288938 23.604704 
L 72.329522 23.600047 
L 72.471563 23.793218 
L 72.53582 23.80347 
L 72.593313 23.712652 
L 72.711682 23.747433 
L 72.637279 23.595346 
L 72.721827 23.721269 
L 72.789466 23.673522 
L 72.738737 23.761195 
L 72.83005 23.737548 
L 73.482765 24.005823 
L 73.486147 23.999377 
L 73.570696 23.9491 
L 73.513203 24.028417 
L 73.597751 23.988885 
L 73.618043 24.026677 
L 73.702592 23.945459 
L 73.705974 23.973711 
L 73.797286 23.883446 
L 73.824342 23.954837 
L 73.831106 23.9802 
L 73.912272 23.841682 
L 73.919036 23.8615 
L 74.017113 23.925319 
L 73.94271 23.836198 
L 74.030641 23.879778 
L 74.04755 23.802189 
L 74.121953 23.920286 
L 74.138863 23.894367 
L 74.145627 23.916756 
L 74.226793 23.820849 
L 74.233557 23.828494 
L 74.274141 23.822994 
L 74.294432 23.74021 
L 74.297814 23.734975 
L 74.348544 23.840458 
L 74.372217 23.823239 
L 74.443238 23.94117 
L 74.531169 23.981705 
L 74.510877 23.889072 
L 74.561606 23.949119 
L 74.639391 23.957283 
L 74.592044 24.022259 
L 74.659683 23.983818 
L 74.767905 24.090849 
L 74.791578 24.050775 
L 74.923474 24.059314 
L 74.93362 24.081247 
L 75.038461 24.124024 
L 75.045224 24.088974 
L 75.948204 24.10059 
L 75.965114 24.141847 
L 76.049662 24.041425 
L 76.06319 24.013992 
L 76.134211 24.120251 
L 76.137593 24.11509 
L 76.262725 24.19954 
L 76.347274 24.189246 
L 76.293163 24.236755 
L 76.377711 24.213809 
L 76.58401 24.185522 
L 76.590774 24.202476 
L 76.72267 24.33539 
L 76.905295 24.237347 
L 76.935732 24.182039 
L 77.016899 24.212197 
L 77.162323 24.387148 
L 77.185996 24.356978 
L 77.202906 24.322543 
L 77.277309 24.401116 
L 77.294219 24.366943 
L 77.324656 24.411027 
L 77.395677 24.327567 
L 77.399059 24.337124 
L 77.612122 24.449015 
L 77.669615 24.385127 
L 77.716962 24.451054 
L 77.750781 24.393855 
L 77.801511 24.484622 
L 77.825184 24.461695 
L 78.014573 24.358775 
L 78.031483 24.276939 
L 78.119414 24.376504 
L 78.25131 24.520555 
L 78.254691 24.508982 
L 78.369678 24.481943 
L 78.376442 24.491758 
L 78.400115 24.521671 
L 78.464372 24.433504 
L 78.471136 24.399554 
L 78.521865 24.487526 
L 78.572594 24.437301 
L 78.663907 24.413037 
L 78.58274 24.399461 
L 78.674053 24.394006 
L 78.690963 24.370264 
L 78.741692 24.485683 
L 78.75522 24.516096 
L 78.819476 24.42241 
L 78.849914 24.478107 
L 79.090032 24.448082 
L 79.093414 24.456197 
L 79.215164 24.586513 
L 79.22531 24.569638 
L 79.320005 24.498953 
L 79.343678 24.561872 
L 79.448519 24.613956 
L 79.404553 24.542571 
L 79.458664 24.605699 
L 79.462046 24.595635 
L 79.495866 24.670254 
L 79.549977 24.676315 
L 79.614234 24.604993 
L 79.560123 24.687972 
L 79.664963 24.712616 
L 79.668345 24.737257 
L 79.708928 24.660301 
L 79.769803 24.663924 
L 79.817151 24.721641 
L 79.86788 24.620317 
L 79.874644 24.628596 
L 79.969338 24.607083 
L 79.918609 24.551912 
L 79.97272 24.593508 
L 80.003158 24.622139 
L 80.091088 24.555966 
L 80.222984 24.68203 
L 80.236512 24.666353 
L 80.327825 24.606554 
L 80.358262 24.621625 
L 80.500304 24.653558 
L 80.507068 24.680641 
L 80.611908 24.792113 
L 80.625436 24.743387 
L 80.709984 24.723534 
L 80.655873 24.767783 
L 80.73704 24.744617 
L 80.84188 24.7814 
L 80.743804 24.734311 
L 80.872318 24.758616 
L 80.970394 24.740396 
L 80.885846 24.777508 
L 80.987304 24.792659 
L 81.092144 24.794878 
L 81.078617 24.723623 
L 81.098908 24.788661 
L 81.227422 24.77622 
L 81.112436 24.767299 
L 81.230804 24.763688 
L 81.305207 24.742736 
L 81.332263 24.793596 
L 81.423575 24.78272 
L 81.366082 24.717964 
L 81.440485 24.771771 
L 81.450631 24.730445 
L 81.504742 24.818708 
L 81.548707 24.780815 
L 81.599436 24.808702 
L 81.619728 24.724698 
L 81.636638 24.718219 
L 81.64002 24.695921 
L 81.694131 24.785139 
L 81.738096 24.768972 
L 81.802353 24.814082 
L 81.748242 24.759646 
L 81.863228 24.77192 
L 81.886902 24.789303 
L 81.991742 24.717722 
L 82.113492 24.795411 
L 82.116874 24.784819 
L 82.252152 24.739067 
L 82.255534 24.759888 
L 82.559909 24.71837 
L 82.580201 24.695901 
L 82.624166 24.755904 
L 82.668131 24.739891 
L 82.772972 24.804509 
L 82.789881 24.749474 
L 82.85752 24.736315 
L 82.827083 24.795804 
L 82.898104 24.763951 
L 82.999562 24.765349 
L 82.911632 24.739247 
L 83.01309 24.756983 
L 83.033382 24.78228 
L 83.138222 24.721189 
L 83.222771 24.781224 
L 83.270118 24.750759 
L 83.364812 24.720925 
L 83.293791 24.784336 
L 83.388486 24.735022 
L 83.466271 24.769072 
L 83.435833 24.725555 
L 83.50009 24.758412 
L 83.581257 24.731179 
L 83.510236 24.785341 
L 83.615076 24.750206 
L 83.723299 24.733727 
L 83.635368 24.761193 
L 83.730063 24.760224 
L 83.794319 24.789486 
L 83.740208 24.754363 
L 83.838285 24.741401 
L 83.970181 24.742031 
L 83.851813 24.766107 
L 83.973563 24.759874 
L 84.004 24.810797 
L 84.058111 24.707355 
L 84.085167 24.74814 
L 84.112222 24.690508 
L 84.186625 24.782449 
L 84.237354 24.782697 
L 84.217063 24.725377 
L 84.284702 24.737598 
L 84.355723 24.809817 
L 84.40307 24.727721 
L 84.534966 24.814352 
L 84.545112 24.791991 
L 84.589077 24.710889 
L 84.66348 24.724016 
L 84.714209 24.791869 
L 84.778466 24.718083 
L 84.812285 24.749674 
L 84.896834 24.721815 
L 84.967855 24.821596 
L 85.018584 24.775812 
L 85.076077 24.785315 
L 85.042258 24.719874 
L 85.120042 24.740122 
L 85.194445 24.713987 
L 85.15048 24.773142 
L 85.235029 24.749277 
L 85.306049 24.746399 
L 85.326341 24.699547 
L 85.333105 24.705695 
L 85.346633 24.642363 
L 85.431181 24.757659 
L 85.437945 24.745378 
L 85.54955 24.772813 
L 85.512348 24.715152 
L 85.552932 24.768812 
L 85.579987 24.781816 
L 85.6713 24.726632 
L 85.691591 24.684729 
L 85.755848 24.772415 
L 85.769376 24.769197 
L 85.864071 24.837806 
L 85.891126 24.75682 
L 85.975675 24.747207 
L 85.901272 24.776377 
L 85.992585 24.798124 
L 85.995967 24.817273 
L 86.066987 24.70933 
L 86.097425 24.757171 
L 86.215793 24.797275 
L 86.117717 24.736124 
L 86.219175 24.781076 
L 86.4018 24.653897 
L 86.405182 24.662944 
L 86.52355 24.776788 
L 86.526932 24.750012 
L 86.641918 24.682503 
L 86.55737 24.772409 
L 86.658828 24.704429 
L 86.692647 24.728447 
L 86.712939 24.655109 
L 86.753522 24.660576 
L 86.756904 24.635391 
L 86.854981 24.708586 
L 86.953057 24.802297 
L 86.976731 24.753762 
L 87.355509 24.533931 
L 86.983495 24.763958 
L 87.382564 24.596557 
L 87.389328 24.623779 
L 87.467113 24.55056 
L 87.487405 24.55914 
L 87.656502 24.527853 
L 87.500933 24.591154 
L 87.663266 24.556579 
L 87.730905 24.677015 
L 87.781634 24.639463 
L 87.785016 24.609139 
L 87.883093 24.730916 
L 87.937204 24.739185 
L 87.94735 24.672496 
L 87.991315 24.709639 
L 88.177322 24.543248 
L 88.180704 24.556354 
L 88.255107 24.659016 
L 88.299072 24.601678 
L 88.43435 24.514203 
L 88.566246 24.635608 
L 88.57301 24.61711 
L 88.596683 24.657444 
L 88.728579 24.45699 
L 88.78269 24.528021 
L 88.81651 24.432091 
L 88.833419 24.43597 
L 88.992371 24.29743 
L 88.999135 24.325043 
L 89.02619 24.282496 
L 89.137795 24.373855 
L 89.208815 24.292496 
L 89.256163 24.318478 
L 89.357621 24.351296 
L 89.30351 24.292888 
L 89.367767 24.315331 
L 89.44217 24.232004 
L 89.479371 24.285428 
L 89.523336 24.362481 
L 89.574066 24.206394 
L 89.58083 24.21947 
L 89.776982 24.211303 
L 89.895351 24.133109 
L 90.003573 24.143368 
L 89.939316 24.105054 
L 90.006955 24.140051 
L 90.05092 24.121521 
L 90.074594 24.173029 
L 90.108413 24.175582 
L 90.18958 24.21575 
L 90.223399 24.182219 
L 90.247073 24.132421 
L 90.29442 24.229826 
L 90.331622 24.198017 
L 90.399261 24.203185 
L 90.348531 24.174688 
L 90.436462 24.165764 
L 90.504101 24.076654 
L 90.558212 24.158762 
L 90.608941 24.164487 
L 90.619087 24.109098 
L 90.656288 24.105238 
L 91.068886 24.227264 
L 91.068886 24.227264 
" clip-path="url(#pcc01efbd58)" style="fill: none; stroke: #000000; stroke-width: 0.6; stroke-linecap: square"/>
   </g>
   <g id="line2d_2">
    <path d="M 9.905557 40.362512 
L 10.071272 40.473392 
L 10.074654 40.46884 
L 10.098328 40.484234 
L 10.203168 40.448773 
L 10.297863 40.56543 
L 10.250516 40.425482 
L 10.331682 40.495626 
L 10.436523 40.406609 
L 10.460196 40.442011 
L 10.510925 40.432893 
L 10.470342 40.423704 
L 10.541363 40.369488 
L 10.60562 40.245836 
L 10.663113 40.305821 
L 10.764571 40.471599 
L 10.795009 40.412398 
L 10.913377 40.388019 
L 10.923523 40.397542 
L 10.947196 40.347295 
L 11.052037 40.469162 
L 11.136585 40.421044 
L 11.082474 40.535879 
L 11.163641 40.450781 
L 11.167023 40.45928 
L 11.197461 40.334796 
L 11.241426 40.34808 
L 11.440961 40.394955 
L 11.464634 40.334471 
L 11.586384 40.219939 
L 11.593148 40.252834 
L 11.758864 40.114439 
L 11.802829 40.249318 
L 11.971926 40.299359 
L 11.809593 40.232655 
L 11.985454 40.230693 
L 12.005746 40.219147 
L 12.056475 40.281847 
L 12.093676 40.252519 
L 12.249246 40.326153 
L 12.110586 40.229419 
L 12.25601 40.306778 
L 12.327031 40.319679 
L 12.276301 40.320796 
L 12.34394 40.354352 
L 12.350704 40.376076 
L 12.394669 40.313336 
L 12.448781 40.314236 
L 12.550239 40.285175 
L 12.563767 40.326042 
L 12.600968 40.361924 
L 12.624642 40.296377 
L 12.671989 40.322369 
L 12.74301 40.251037 
L 12.695663 40.359859 
L 12.786975 40.316123 
L 12.827559 40.251344 
L 12.918871 40.371123 
L 12.98651 40.462388 
L 13.057531 40.409126 
L 13.196191 40.265412 
L 13.2131 40.312913 
L 13.216482 40.333623 
L 13.294267 40.229589 
L 13.314559 40.255726 
L 13.432927 40.1956 
L 13.547913 40.14195 
L 13.642608 40.089445 
L 13.662899 40.11151 
L 13.693337 40.133503 
L 13.73392 40.057058 
L 13.757594 40.068706 
L 13.862434 40.04006 
L 13.875962 40.062529 
L 13.88949 40.011835 
L 13.984184 40.021222 
L 14.089025 39.874847 
L 14.102552 39.914441 
L 14.183719 39.961822 
L 14.217539 39.941979 
L 14.275032 39.885338 
L 14.224302 39.954529 
L 14.342671 39.938367 
L 14.369726 39.89621 
L 14.505004 40.075024 
L 14.592935 39.962664 
L 14.630136 39.989625 
L 15.059643 39.987422 
L 15.063025 39.980693 
L 15.090081 40.094473 
L 15.1239 40.10014 
L 15.22874 40.190368 
L 15.24565 40.147427 
L 15.27947 40.167051 
L 15.370782 40.110798 
L 15.451949 40.172454 
L 15.485768 40.157646 
L 15.604137 40.095993 
L 15.739414 39.935275 
L 15.793526 40.068333 
L 15.90513 40.088747 
L 15.844255 40.003246 
L 15.915276 40.05237 
L 16.037026 39.957574 
L 16.087755 39.999125 
L 16.141866 39.914031 
L 16.14863 39.923913 
L 16.300817 39.832407 
L 16.442859 39.989954 
L 16.510498 39.926364 
L 16.639012 39.833717 
L 16.5477 39.952786 
L 16.655922 39.84956 
L 16.720179 39.780521 
L 16.723561 39.764066 
L 16.74047 39.728768 
L 16.804727 39.817111 
L 16.828401 39.782561 
L 16.835165 39.818115 
L 16.868984 39.759717 
L 16.940005 39.789484 
L 16.990734 39.768805 
L 17.038082 39.836411 
L 17.061755 39.906514 
L 17.149686 39.871555 
L 17.284964 39.803009 
L 17.15645 39.892977 
L 17.29511 39.838793 
L 17.298492 39.858967 
L 17.335693 39.767782 
L 17.403332 39.814109 
L 17.433769 39.86299 
L 17.531846 39.733117 
L 17.646832 39.790615 
L 17.545374 39.707444 
L 17.66036 39.730781 
L 17.805784 39.685516 
L 17.697561 39.775419 
L 17.809165 39.692827 
L 17.951207 39.720987 
L 18.069575 39.614632 
L 18.458499 39.458498 
L 18.566721 39.434456 
L 18.492319 39.479277 
L 18.573485 39.462319 
L 18.691853 39.599575 
L 18.722291 39.584693 
L 18.867715 39.41361 
L 18.871097 39.427189 
L 18.908298 39.49429 
L 18.979319 39.430447 
L 19.002993 39.34161 
L 19.084159 39.436717 
L 19.114597 39.489009 
L 19.189 39.409084 
L 19.307368 39.333199 
L 19.314132 39.359858 
L 19.713201 39.396328 
L 19.716583 39.376133 
L 19.875535 39.14105 
L 19.882299 39.177861 
L 19.933028 39.228432 
L 19.970229 39.106899 
L 19.987139 39.143828 
L 20.098743 39.050337 
L 20.521486 38.869189 
L 20.622945 38.708923 
L 20.646618 38.727543 
L 20.65 38.751542 
L 20.741313 38.618221 
L 20.744695 38.632599 
L 20.751459 38.657521 
L 20.869827 38.425623 
L 21.008487 38.287048 
L 21.042306 38.351678 
L 21.120091 38.273534 
L 21.343299 37.046118 
L 21.366973 34.838856 
L 21.383883 29.121921 
L 21.454904 40.384271 
L 21.461667 40.347891 
L 21.590181 38.957604 
L 21.725459 36.350967 
L 21.742369 28.194895 
L 21.810008 41.05881 
L 21.81339 41.049046 
L 21.948668 39.578657 
L 22.117765 36.239128 
L 22.134675 28.122099 
L 22.202314 41.243626 
L 22.209078 41.200946 
L 22.516835 37.597244 
L 22.550654 35.859583 
L 22.564182 28.367366 
L 22.631821 41.270506 
L 22.645349 41.190087 
L 23.010599 36.237715 
L 23.027509 28.447903 
L 23.095148 41.302299 
L 23.098529 41.286352 
L 23.534801 35.632222 
L 23.55171 28.925252 
L 23.619349 41.205975 
L 23.629495 41.129094 
L 24.07253 36.485973 
L 24.096204 29.205964 
L 24.143551 40.604018 
L 24.163843 41.146091 
L 24.251773 40.458875 
L 24.7151 36.586157 
L 24.745537 30.442427 
L 24.782739 38.745104 
L 24.816558 40.697682 
L 24.897725 40.093968 
L 25.293413 35.678327 
L 25.313704 29.842514 
L 25.381343 40.970705 
L 25.384725 40.980479 
L 25.418545 40.753362 
L 25.756739 38.192971 
L 25.854816 37.853698 
L 25.956274 37.656405 
L 25.993476 37.713884 
L 26.189628 37.99198 
L 26.213302 37.959299 
L 26.216684 37.941812 
L 26.280941 38.108043 
L 26.294469 38.106967 
L 26.351962 38.077264 
L 26.412837 38.146185 
L 26.463566 38.119534 
L 26.504149 38.2163 
L 26.514295 38.180751 
L 26.673247 38.38045 
L 26.970858 38.671807 
L 26.683393 38.371098 
L 26.977622 38.665876 
L 27.014823 38.67046 
L 27.045261 38.741552 
L 27.065552 38.730267 
L 27.758851 39.480125 
L 27.762233 39.469493 
L 27.768997 39.45937 
L 27.816345 39.581951 
L 27.8434 39.553008 
L 28.002352 39.787016 
L 28.005734 39.777763 
L 28.117338 39.780534 
L 28.015879 39.807391 
L 28.134248 39.814799 
L 28.164685 39.890043 
L 28.168067 39.914004 
L 28.279671 40.079206 
L 28.310109 40.027254 
L 28.425095 39.991904 
L 28.428477 39.994604 
L 28.536699 40.07321 
L 28.465678 39.973889 
L 28.546845 40.062429 
L 28.550227 40.05084 
L 28.600956 40.172444 
L 28.628012 40.149129 
L 28.766671 40.328597 
L 28.864748 40.336027 
L 28.881658 40.385785 
L 29.081192 40.670558 
L 29.101484 40.641396 
L 29.213088 40.613597 
L 29.11163 40.649466 
L 29.223234 40.645082 
L 29.358512 40.714809 
L 29.37204 40.68358 
L 29.801547 40.617717 
L 29.838748 40.550853 
L 29.872568 40.643532 
L 29.913151 40.611147 
L 29.916533 40.622547 
L 29.977408 40.549647 
L 30.017992 40.590092 
L 30.153269 40.507883 
L 30.197235 40.625106 
L 30.281783 40.565662 
L 30.400152 40.541104 
L 30.298693 40.522458 
L 30.406915 40.520084 
L 30.538811 40.44084 
L 30.552339 40.453381 
L 30.619978 40.407699 
L 30.677471 40.505496 
L 30.697763 40.478529 
L 30.775548 40.569602 
L 30.77893 40.565379 
L 31.046103 40.569237 
L 31.12727 40.596807 
L 31.164471 40.472151 
L 31.188145 40.47944 
L 31.225346 40.391942 
L 31.252402 40.409246 
L 31.320041 40.367075 
L 31.262548 40.423255 
L 31.360624 40.433851 
L 31.448555 40.520298 
L 31.47561 40.467386 
L 31.546631 40.468524 
L 31.563541 40.53168 
L 31.580451 40.502647 
L 31.982902 40.162889 
L 32.094507 40.030018 
L 32.114798 40.051096 
L 32.233166 40.118012 
L 32.314333 40.13815 
L 32.266986 40.081025 
L 32.341389 40.106707 
L 32.469903 39.954698 
L 32.486812 39.985357 
L 32.551069 40.072266 
L 32.60518 40.019141 
L 32.706639 39.942918 
L 32.767514 39.852418 
L 32.825007 39.904122 
L 32.8825 40.003157 
L 32.943375 39.934334 
L 33.10909 40.014223 
L 33.132764 39.971336 
L 33.156438 39.898974 
L 33.217313 39.995507 
L 33.244368 39.97105 
L 33.26466 39.970126 
L 33.308625 39.890002 
L 33.322153 39.90632 
L 33.328917 39.884389 
L 33.355973 39.956292 
L 33.42023 39.96501 
L 33.521688 39.992692 
L 33.487868 39.900695 
L 33.531834 39.966159 
L 33.724605 39.864637 
L 33.731369 39.895834 
L 33.870028 39.950859 
L 33.748278 39.876544 
L 33.876792 39.933131 
L 33.913994 39.905281 
L 33.930903 39.977411 
L 33.978251 39.964274 
L 34.13382 40.081102 
L 34.137202 40.063014 
L 34.218369 39.978778 
L 34.27248 40.055875 
L 34.286008 40.077523 
L 34.336737 39.974395 
L 34.363793 39.995166 
L 34.434813 39.973291 
L 34.468633 40.014903 
L 34.570091 40.110642 
L 34.593765 40.084962 
L 35.077383 39.961319 
L 35.097675 39.908529 
L 35.148404 39.975132 
L 35.188987 39.937481 
L 35.216043 39.903855 
L 35.243099 39.958158 
L 35.293828 39.968259 
L 35.496745 39.884671 
L 35.307356 39.986705 
L 35.50689 39.913695 
L 35.594821 39.952699 
L 35.625259 39.90691 
L 35.713189 39.876354 
L 35.632022 39.914657 
L 35.733481 39.937968 
L 35.807884 39.971204 
L 35.770682 39.891452 
L 35.845085 39.934143 
L 35.882286 39.967898 
L 35.993891 39.799784 
L 36.078439 39.909432 
L 36.034474 39.79356 
L 36.115641 39.879644 
L 36.261064 39.991401 
L 36.294884 39.946724 
L 36.301648 39.932324 
L 36.338849 40.005958 
L 36.399724 39.975634 
L 36.592495 39.971841 
L 36.609405 39.958169 
L 36.649988 40.033485 
L 36.693954 40.021948 
L 36.785266 40.023897 
L 36.724391 39.951041 
L 36.798794 39.989863 
L 36.954363 40.026121 
L 37.001711 40.082789 
L 37.055822 39.985772 
L 37.059204 39.997961 
L 37.150516 39.95856 
L 37.06935 40.002969 
L 37.170808 40.019343 
L 37.187718 40.027252 
L 37.238447 39.956056 
L 37.265502 39.971827 
L 37.282412 39.959454 
L 37.333141 40.047113 
L 37.370343 39.989807 
L 37.471801 40.217425 
L 37.512385 40.186307 
L 37.569878 40.118038 
L 37.630753 40.131834 
L 37.637517 40.137698 
L 37.803232 40.061594 
L 37.945274 40.25807 
L 37.95542 40.221965 
L 38.06026 40.223137 
L 37.972329 40.270438 
L 38.067024 40.233367 
L 38.300378 40.340998 
L 38.371399 40.477142 
L 38.432274 40.419357 
L 38.557406 40.332905 
L 38.476239 40.43121 
L 38.560788 40.352099 
L 38.655482 40.356296 
L 38.645337 40.313677 
L 38.665628 40.322093 
L 38.689302 40.27716 
L 38.716357 40.369389 
L 38.767087 40.354627 
L 38.898983 40.435563 
L 38.905746 40.409671 
L 39.000441 40.503461 
L 39.159392 40.400639 
L 39.057934 40.53193 
L 39.162774 40.405346 
L 39.199976 40.430506 
L 39.243941 40.340308 
L 39.254087 40.358334 
L 39.348781 40.258041 
L 39.362309 40.354605 
L 39.440094 40.483163 
L 39.487441 40.397405 
L 39.703886 40.280133 
L 39.714032 40.30575 
L 39.801962 40.448643 
L 39.727559 40.292295 
L 39.845927 40.352556 
L 39.95415 40.332114 
L 39.957532 40.295163 
L 39.991351 40.263286 
L 40.018407 40.339466 
L 40.05899 40.337263 
L 40.106337 40.377397 
L 40.146921 40.277041 
L 40.170594 40.346504 
L 40.201032 40.294982 
L 40.272053 40.408423 
L 40.275435 40.407106 
L 40.414094 40.37152 
L 40.322782 40.439448 
L 40.417476 40.384953 
L 40.437768 40.430643 
L 40.454678 40.347445 
L 40.515553 40.336772 
L 40.633921 40.305731 
L 40.529081 40.351686 
L 40.640685 40.327386 
L 40.654213 40.356838 
L 40.725234 40.267758 
L 40.745525 40.283789 
L 40.860511 40.313862 
L 40.867275 40.303764 
L 40.931532 40.191598 
L 40.972116 40.340309 
L 41.218998 40.310031 
L 41.313692 40.151507 
L 41.347512 40.209341 
L 41.46588 40.282361 
L 41.357657 40.194952 
L 41.476026 40.259652 
L 41.492935 40.213338 
L 41.57072 40.30716 
L 41.668797 40.37902 
L 41.689088 40.340259 
L 42.257255 40.39169 
L 42.362096 40.5864 
L 42.382387 40.5439 
L 42.433116 40.491788 
L 42.399297 40.552084 
L 42.493991 40.529064 
L 42.521047 40.51066 
L 42.61236 40.527535 
L 42.659707 40.437574 
L 42.727346 40.472237 
L 42.866006 40.332283 
L 42.893061 40.354905 
L 43.008047 40.517438 
L 43.038485 40.505882 
L 43.224492 40.310495 
L 43.275221 40.365098 
L 43.285367 40.413453 
L 43.369916 40.270633 
L 43.451082 40.229661 
L 43.478138 40.295858 
L 43.60327 40.351206 
L 43.606652 40.34172 
L 43.704728 40.349498 
L 43.674291 40.401521 
L 43.714874 40.360438 
L 43.745312 40.408132 
L 43.806187 40.315214 
L 43.809569 40.316274 
L 43.907645 40.276139 
L 43.856916 40.342087 
L 43.924555 40.300773 
L 44.100416 40.528126 
L 44.137617 40.482674 
L 44.269513 40.374805 
L 44.296569 40.388158 
L 44.387881 40.427135 
L 44.408173 40.41896 
L 44.536687 40.26808 
L 45.050743 40.399961 
L 45.060889 40.375914 
L 45.629056 40.258277 
L 45.63582 40.282746 
L 45.693313 40.422964 
L 45.771097 40.376463 
L 45.777861 40.352014 
L 45.821827 40.449586 
L 45.875938 40.415395 
L 46.126202 40.512821 
L 46.153257 40.449546 
L 46.193841 40.411735 
L 46.231042 40.487764 
L 46.251334 40.486363 
L 46.278389 40.518905 
L 46.339264 40.463848 
L 46.362938 40.49415 
L 46.403521 40.589202 
L 46.477924 40.475449 
L 46.576001 40.485779 
L 46.515126 40.452059 
L 46.59291 40.472656 
L 46.738334 40.353814 
L 46.741716 40.392153 
L 46.839792 40.261105 
L 46.995362 40.329267 
L 47.002126 40.317782 
L 47.066383 40.280754 
L 47.046091 40.255344 
L 47.079911 40.247195 
L 47.194897 40.151522 
L 47.225334 40.177122 
L 47.286209 40.236128 
L 47.34032 40.191988 
L 47.47898 40.183456 
L 47.573675 40.099247 
L 47.506036 40.191625 
L 47.597348 40.147569 
L 47.705571 40.110225 
L 47.607494 40.163876 
L 47.715717 40.129673 
L 47.77321 40.227057 
L 47.834085 40.192542 
L 47.935543 40.170875 
L 47.840849 40.216278 
L 47.959217 40.216684 
L 48.050529 40.261134 
L 48.070821 40.223529 
L 48.158751 40.308635 
L 48.192571 40.175675 
L 48.283883 40.136434 
L 48.22639 40.22258 
L 48.307557 40.172185 
L 48.368432 40.234404 
L 48.344759 40.161935 
L 48.419161 40.178774 
L 48.530766 40.14566 
L 48.449599 40.238457 
L 48.537529 40.15632 
L 48.540911 40.165683 
L 48.605168 40.028624 
L 48.60855 40.035793 
L 49.237592 40.032415 
L 49.288322 40.113716 
L 49.342433 40.008734 
L 49.366106 39.97169 
L 49.403308 40.052172 
L 49.450655 40.037125 
L 49.487856 40.026681 
L 49.521676 39.957145 
L 49.626516 39.92191 
L 49.636662 39.947911 
L 49.717829 39.966365 
L 49.673863 39.905618 
L 49.748266 39.940078 
L 49.957947 39.826597 
L 49.809141 40.012772 
L 49.968093 39.843695 
L 50.076315 39.927281 
L 50.083079 39.912015 
L 50.228503 39.781919 
L 50.350253 39.67775 
L 50.353635 39.691687 
L 50.461857 39.653399 
L 50.360398 39.699666 
L 50.492294 39.708412 
L 50.51935 39.724202 
L 50.583607 39.63343 
L 50.691829 39.434367 
L 50.708739 39.487004 
L 50.969149 39.435443 
L 50.979295 39.467537 
L 51.168684 39.533642 
L 51.185593 39.510797 
L 51.317489 39.365272 
L 51.324253 39.370589 
L 51.358073 39.433884 
L 51.706413 39.047089 
L 51.814635 39.046502 
L 51.763906 39.156444 
L 51.818017 39.055281 
L 51.949913 38.99006 
L 52.034462 39.064555 
L 51.966823 38.976538 
L 52.054754 38.980623 
L 52.183268 38.832242 
L 52.190031 38.835379 
L 52.365893 38.930644 
L 52.217087 38.809893 
L 52.369275 38.915342 
L 52.595865 38.756254 
L 52.389566 38.94021 
L 52.609393 38.776781 
L 52.619539 38.782354 
L 52.65674 38.712902 
L 52.693941 38.719721 
L 52.798782 38.602419 
L 52.81231 38.662601 
L 52.998317 38.552703 
L 53.245199 38.192879 
L 53.417678 36.933192 
L 53.441352 33.233839 
L 53.454879 29.039068 
L 53.5259 40.306127 
L 53.536046 40.234805 
L 53.576629 39.866928 
L 53.772782 36.659857 
L 53.793074 28.120182 
L 53.850567 40.948117 
L 53.857331 41.057406 
L 53.935116 40.339261 
L 54.158324 35.8714 
L 54.171852 28.111491 
L 54.242873 41.225273 
L 54.256401 41.145956 
L 54.570922 35.606755 
L 54.584449 28.240352 
L 54.65547 41.250224 
L 54.668998 41.167208 
L 55.010575 36.42463 
L 55.027484 28.551987 
L 55.091741 41.219279 
L 55.095123 41.235147 
L 55.139089 40.918914 
L 55.480665 36.9506 
L 55.500957 30.684376 
L 55.507721 28.677019 
L 55.578742 41.235132 
L 55.588887 41.19743 
L 55.724165 39.895195 
L 56.004867 36.474433 
L 56.025159 28.964067 
L 56.07927 40.971353 
L 56.099561 41.209346 
L 56.177346 40.553045 
L 56.596707 36.566421 
L 56.623763 29.74114 
L 56.664346 39.639964 
L 56.691402 40.94466 
L 56.779333 40.299064 
L 57.07018 37.985205 
L 57.185166 37.006433 
L 57.212222 34.335374 
L 57.225749 30.09727 
L 57.303534 40.849955 
L 57.306916 40.822872 
L 57.891993 37.428986 
L 57.895375 37.448169 
L 58.128729 38.017272 
L 58.280917 38.169673 
L 58.314736 38.142863 
L 58.382375 38.114525 
L 58.422958 38.164563 
L 58.42634 38.184025 
L 58.493979 38.110013 
L 58.527799 38.128624 
L 58.676604 38.259046 
L 58.683368 38.235566 
L 59.139931 38.672317 
L 58.690132 38.223665 
L 59.146695 38.66414 
L 59.248153 38.796325 
L 59.383431 39.019731 
L 59.386813 39.005483 
L 59.393577 38.983673 
L 59.440924 39.10973 
L 59.461216 39.100719 
L 59.633695 39.309807 
L 59.637077 39.304747 
L 59.640459 39.286904 
L 59.71148 39.388851 
L 59.738536 39.359313 
L 60.036147 39.776102 
L 59.745299 39.345975 
L 60.039529 39.771342 
L 60.157897 39.84283 
L 60.049675 39.764238 
L 60.164661 39.833118 
L 60.174807 39.833472 
L 60.201862 39.902249 
L 60.218772 39.92094 
L 60.259355 39.868547 
L 60.343904 39.984332 
L 60.425071 40.015734 
L 60.435216 40.03721 
L 60.496092 39.985771 
L 60.553585 40.091454 
L 60.621224 40.165999 
L 60.567112 40.1201 
L 60.624605 40.172708 
L 60.722682 40.247121 
L 60.668571 40.147828 
L 60.753119 40.199211 
L 60.793703 40.176904 
L 60.844432 40.293081 
L 61.000002 40.513041 
L 61.030439 40.486357 
L 61.152189 40.379349 
L 61.155571 40.390448 
L 61.196154 40.350236 
L 61.169099 40.414738 
L 61.263793 40.414995 
L 61.36187 40.48459 
L 61.378779 40.465105 
L 61.517439 40.45985 
L 61.385543 40.481187 
L 61.527585 40.475065 
L 61.629044 40.483677 
L 61.645953 40.456919 
L 61.649335 40.424277 
L 61.747412 40.549406 
L 61.855634 40.601338 
L 61.801523 40.50544 
L 61.872544 40.590653 
L 61.990912 40.469369 
L 61.994294 40.48049 
L 62.122808 40.542379 
L 62.132954 40.515336 
L 62.217502 40.457689 
L 62.244558 40.519025 
L 62.349398 40.649733 
L 62.376454 40.624747 
L 62.383218 40.648471 
L 62.450856 40.498919 
L 62.45762 40.518961 
L 62.552315 40.463651 
L 62.572607 40.485024 
L 62.772141 40.542644 
L 62.833016 40.480007 
L 62.8736 40.579866 
L 62.876982 40.564067 
L 62.880364 40.570089 
L 62.927711 40.458944 
L 62.948003 40.464485 
L 62.998732 40.418664 
L 63.042697 40.533882 
L 63.127246 40.600927 
L 63.164447 40.518687 
L 63.259142 40.415911 
L 63.191503 40.542124 
L 63.289579 40.436998 
L 63.411329 40.370713 
L 63.309871 40.46117 
L 63.418093 40.388534 
L 63.448531 40.436324 
L 63.512788 40.331449 
L 63.577045 40.193319 
L 63.644684 40.25418 
L 63.769816 40.229192 
L 63.786725 40.270099 
L 63.888184 40.28563 
L 63.803635 40.229834 
L 63.894948 40.253061 
L 64.852038 40.021644 
L 64.899386 40.0175 
L 64.936587 40.078885 
L 64.956879 40.057547 
L 65.156414 40.174002 
L 65.159795 40.163779 
L 65.186851 40.074047 
L 65.278164 40.145612 
L 65.318747 40.099506 
L 65.355948 40.22959 
L 65.812511 40.568955 
L 65.822657 40.557279 
L 65.937643 40.432377 
L 65.947789 40.442599 
L 66.113504 40.590235 
L 66.150706 40.627126 
L 66.235254 40.521346 
L 66.289366 40.55554 
L 66.306275 40.481555 
L 66.340095 40.501837 
L 66.357004 40.464142 
L 66.414498 40.548789 
L 66.444935 40.528154 
L 66.458463 40.564139 
L 66.529484 40.485645 
L 66.556539 40.539821 
L 66.573449 40.497239 
L 66.634324 40.580073 
L 66.66138 40.581846 
L 66.715491 40.586731 
L 66.678289 40.602681 
L 66.745928 40.635086 
L 66.769602 40.692801 
L 66.847387 40.597106 
L 66.854151 40.541819 
L 66.945463 40.658977 
L 66.952227 40.654991 
L 67.063831 40.627399 
L 67.073977 40.638497 
L 67.141616 40.707087 
L 67.192345 40.664707 
L 67.276894 40.644042 
L 67.202491 40.639432 
L 67.297185 40.620507 
L 67.371588 40.510565 
L 67.422318 40.533261 
L 67.469665 40.569131 
L 67.520394 40.46131 
L 67.523776 40.469325 
L 67.621852 40.522933 
L 67.6692 40.454493 
L 67.841679 40.405798 
L 67.909318 40.587935 
L 67.963429 40.462592 
L 67.990484 40.520145 
L 68.058123 40.487668 
L 68.078415 40.535877 
L 68.152818 40.452119 
L 68.166346 40.473093 
L 68.169728 40.462294 
L 68.223839 40.571857 
L 68.250894 40.5702 
L 68.281332 40.641805 
L 68.318533 40.520742 
L 68.362499 40.582183 
L 68.365881 40.568569 
L 68.419992 40.709249 
L 68.447047 40.69716 
L 68.450429 40.705846 
L 68.487631 40.584018 
L 68.528214 40.602962 
L 68.754804 40.50866 
L 68.792006 40.474284 
L 68.778478 40.529837 
L 68.869791 40.504406 
L 70.178604 40.546525 
L 70.18875 40.57126 
L 70.266534 40.494575 
L 70.283444 40.518621 
L 70.367993 40.455742 
L 70.3105 40.543482 
L 70.41534 40.503103 
L 70.526944 40.50692 
L 70.43225 40.450247 
L 70.530326 40.493089 
L 70.635166 40.417609 
L 70.645312 40.458639 
L 70.750153 40.477454 
L 70.65884 40.473726 
L 70.756917 40.486169 
L 70.834701 40.555588 
L 70.821174 40.463927 
L 70.875285 40.533692 
L 70.882049 40.51199 
L 70.973361 40.609977 
L 71.017326 40.561543 
L 71.084965 40.612871 
L 71.703862 40.527093 
L 71.707243 40.55233 
L 71.768118 40.644241 
L 71.730917 40.548143 
L 71.818848 40.58947 
L 71.940598 40.529688 
L 71.950744 40.548748 
L 72.018383 40.595625 
L 72.06573 40.52633 
L 72.194244 40.485005 
L 72.244973 40.385167 
L 72.30923 40.464246 
L 72.454654 40.472339 
L 72.471563 40.430028 
L 72.508765 40.367329 
L 72.566258 40.469685 
L 72.576404 40.448786 
L 72.667716 40.474418 
L 72.596695 40.417638 
L 72.684626 40.436949 
L 73.137807 40.133337 
L 72.69139 40.451985 
L 73.141189 40.146975 
L 73.198682 40.217166 
L 73.151335 40.144105 
L 73.256175 40.170259 
L 73.350869 40.109754 
L 73.388071 40.139971 
L 73.462474 40.219225 
L 73.499675 40.142669 
L 73.553786 40.118561 
L 73.594369 40.205396 
L 73.597751 40.200124 
L 74.08137 40.199671 
L 74.176064 40.075799 
L 74.216648 40.129013 
L 74.223411 40.139933 
L 74.358689 40.139258 
L 74.399273 40.231867 
L 74.466912 40.140781 
L 74.571752 40.100282 
L 74.473676 40.153377 
L 74.598808 40.11541 
L 74.700266 40.275655 
L 74.750995 40.228017 
L 74.774669 40.257894 
L 74.849072 40.280788 
L 74.852454 40.29844 
L 74.920092 40.222853 
L 74.947148 40.229632 
L 75.099336 40.04484 
L 75.112863 40.052549 
L 75.3496 40.057585 
L 75.352982 40.083384 
L 75.451058 39.978946 
L 75.572808 40.04608 
L 75.57619 40.040657 
L 75.626919 39.980278 
L 75.687794 39.987527 
L 75.809544 40.071616 
L 75.887329 39.956973 
L 75.92453 39.991883 
L 75.992169 39.960569 
L 76.032753 40.007877 
L 76.076718 40.07224 
L 76.053044 39.994077 
L 76.147739 40.037114 
L 76.168031 40.079469 
L 76.326982 39.915354 
L 76.367565 39.952612 
L 76.418295 39.882672 
L 76.431822 39.88149 
L 76.580628 39.720254 
L 76.590774 39.725204 
L 76.732816 39.622587 
L 76.624593 39.76127 
L 76.749725 39.662842 
L 76.780163 39.748727 
L 76.868093 39.671344 
L 77.013517 39.64153 
L 77.020281 39.607473 
L 77.047337 39.533579 
L 77.138649 39.564756 
L 77.172469 39.651109 
L 77.250253 39.560779 
L 77.395677 39.35091 
L 77.456552 39.39529 
L 77.520809 39.408508 
L 77.466698 39.381876 
L 77.564774 39.368226 
L 77.632413 39.285811 
L 77.679761 39.316744 
L 77.693288 39.385653 
L 77.760927 39.277685 
L 77.787983 39.29093 
L 77.842094 39.332202 
L 77.913115 39.268454 
L 78.034865 39.322975 
L 78.038247 39.288998 
L 78.075448 39.239433 
L 78.136323 39.313057 
L 78.149851 39.295275 
L 78.278365 39.38083 
L 78.163379 39.281883 
L 78.291893 39.348728 
L 78.32233 39.353146 
L 78.417025 39.205343 
L 78.440699 39.190271 
L 78.508337 39.263815 
L 78.518483 39.250443 
L 78.643615 39.289008 
L 78.535393 39.217083 
L 78.653761 39.263329 
L 78.745074 39.177303 
L 78.690963 39.280382 
L 78.765365 39.244851 
L 78.900643 39.323654 
L 78.904025 39.307985 
L 79.052831 39.103014 
L 79.150907 39.168302 
L 79.062977 39.087948 
L 79.181345 39.098364 
L 79.323386 38.915726 
L 79.448519 38.933888 
L 79.367352 38.883043 
L 79.4519 38.916627 
L 79.573651 38.839699 
L 79.583796 38.855108 
L 79.600706 38.889105 
L 79.651435 38.78452 
L 79.688637 38.830962 
L 79.708928 38.771982 
L 79.756276 38.859771 
L 79.807005 38.79121 
L 79.810387 38.808921 
L 79.857734 38.730497 
L 79.908463 38.732244 
L 80.053887 38.546282 
L 79.928755 38.755147 
L 80.064033 38.557825 
L 80.074179 38.582492 
L 80.141817 38.438466 
L 80.151963 38.447342 
L 80.480012 36.88989 
L 80.503686 32.490921 
L 80.517214 29.102035 
L 80.584852 40.35774 
L 80.594998 40.312458 
L 80.659255 39.630513 
L 80.852026 35.181413 
L 80.865554 28.175284 
L 80.929811 41.034597 
L 80.953485 40.856334 
L 81.085381 39.237108 
L 81.22404 36.765504 
L 81.244332 28.096476 
L 81.295061 40.474592 
L 81.315353 41.243803 
L 81.403283 40.359844 
L 81.437103 39.991608 
L 81.646784 36.080448 
L 81.663693 28.32849 
L 81.734714 41.256284 
L 81.741478 41.222158 
L 82.093201 36.683752 
L 82.113492 28.449052 
L 82.164221 40.6683 
L 82.181131 41.291478 
L 82.272444 40.496996 
L 82.586965 36.970957 
L 82.607256 31.322529 
L 82.61402 28.749205 
L 82.678277 41.219024 
L 82.698569 41.137504 
L 82.806791 40.168967 
L 83.070583 37.806757 
L 83.141604 36.767934 
L 83.168659 29.294734 
L 83.205861 38.210072 
L 83.23968 41.073173 
L 83.320847 40.445031 
L 83.706389 36.856214 
L 83.730063 31.220626 
L 83.736826 29.525576 
L 83.807847 41.049413 
L 83.811229 41.041522 
L 83.841667 40.838142 
L 84.233972 37.854532 
L 84.382778 37.317912 
L 84.389542 37.283518 
L 84.470709 37.478873 
L 84.605987 38.165696 
L 84.626278 38.150583 
L 84.754792 38.043108 
L 84.758174 38.044412 
L 84.866396 37.983439 
L 84.900216 38.055561 
L 84.957709 38.145615 
L 85.018584 38.063993 
L 85.059167 37.987324 
L 85.11666 38.011267 
L 85.126806 37.979696 
L 85.201209 38.157129 
L 85.353397 38.372314 
L 85.39398 38.35537 
L 85.380452 38.408315 
L 85.451473 38.422609 
L 85.607043 38.572906 
L 85.481911 38.369925 
L 85.617189 38.567303 
L 86.056842 39.013481 
L 85.630716 38.555328 
L 86.060223 39.009484 
L 86.080515 38.985929 
L 86.151536 39.094327 
L 86.347689 39.372523 
L 86.367981 39.362366 
L 86.395036 39.459387 
L 86.428856 39.451046 
L 86.513404 39.646586 
L 86.550606 39.595277 
L 87.051134 40.005469 
L 87.064662 39.974141 
L 87.128919 39.963218 
L 87.098481 40.032774 
L 87.16612 40.03499 
L 87.365655 40.34059 
L 87.402856 40.262895 
L 87.463731 40.418897 
L 87.555044 40.510438 
L 87.582099 40.497068 
L 87.649738 40.384512 
L 87.65312 40.365532 
L 87.720759 40.495193 
L 87.741051 40.487587 
L 87.862801 40.539345 
L 87.771488 40.449578 
L 87.869565 40.512474 
L 88.701524 40.403233 
L 88.792836 40.455122 
L 88.735343 40.383672 
L 88.81651 40.413055 
L 89.411732 40.099045 
L 89.482753 40.119272 
L 89.438788 40.142554 
L 89.499663 40.167904 
L 89.618031 40.249284 
L 89.56392 40.137116 
L 89.621413 40.233999 
L 89.631559 40.265796 
L 89.770219 40.25399 
L 89.902114 40.417108 
L 89.79051 40.230272 
L 89.919024 40.398437 
L 90.074594 40.452999 
L 89.925788 40.391239 
L 90.088122 40.439474 
L 90.20649 40.347534 
L 90.111795 40.44578 
L 90.209872 40.371299 
L 90.426316 40.311904 
L 90.436462 40.344559 
L 90.517629 40.442593 
L 90.453372 40.332354 
L 90.568358 40.416927 
L 90.679962 40.262864 
L 90.720545 40.343179 
L 90.744219 40.375455 
L 90.822004 40.31969 
L 90.828768 40.330978 
L 90.849059 40.285914 
L 90.913316 40.395361 
L 90.93699 40.356152 
L 91.068886 40.414429 
L 91.068886 40.414429 
" clip-path="url(#pcc01efbd58)" style="fill: none; stroke: #000000; stroke-width: 0.6; stroke-linecap: square"/>
   </g>
   <g id="line2d_3">
    <path d="M 9.905557 48.603096 
L 9.966432 58.20399 
L 10.071272 57.243795 
L 10.247134 56.306112 
L 10.456814 55.845243 
L 10.514307 55.02587 
L 10.527835 44.777855 
L 10.531217 43.982297 
L 10.602238 53.271686 
L 10.625912 58.181024 
L 10.720606 57.308796 
L 11.018217 56.059918 
L 11.021599 56.071562 
L 11.024981 56.085285 
L 11.096002 55.919543 
L 11.183933 55.273675 
L 11.197461 53.730582 
L 11.207606 43.987471 
L 11.302301 58.161445 
L 11.691225 56.071131 
L 11.789301 55.804979 
L 11.829884 55.48174 
L 11.853558 52.535233 
L 11.860322 43.97179 
L 11.955016 58.177564 
L 11.96178 58.144572 
L 12.201899 56.387201 
L 12.208662 56.40933 
L 12.283065 56.224467 
L 12.506274 55.929669 
L 12.509656 55.944052 
L 12.570531 55.745274 
L 12.607732 55.159666 
L 12.62126 50.478888 
L 12.628024 43.9438 
L 12.719336 58.089898 
L 12.7261 58.064993 
L 13.02033 56.183318 
L 13.023712 56.188004 
L 13.074441 56.075893 
L 13.077823 56.076374 
L 13.240156 55.09259 
L 13.253684 46.273645 
L 13.257066 43.989162 
L 13.344996 58.080253 
L 13.35176 58.173409 
L 13.429545 57.445401 
L 13.686573 56.195778 
L 13.703483 56.225534 
L 13.737302 56.111054 
L 13.784649 56.076906 
L 13.76774 56.151593 
L 13.845524 56.129263 
L 14.01124 56.081206 
L 14.014622 56.101578 
L 14.018004 56.112676 
L 14.082261 56.016705 
L 14.09917 56.015969 
L 14.22092 55.299969 
L 14.234448 53.816723 
L 14.244594 43.872152 
L 14.339289 57.995269 
L 14.386636 57.553965 
L 14.650428 55.983929 
L 14.657192 56.006265 
L 14.75865 55.111272 
L 14.772178 47.111722 
L 14.77556 44.068458 
L 14.870254 58.227651 
L 14.948039 57.500204 
L 15.259178 56.181456 
L 15.276088 56.201004 
L 15.411366 56.258711 
L 15.309907 56.163097 
L 15.414748 56.249183 
L 15.418129 56.239568 
L 15.492532 56.345631 
L 15.675157 56.679723 
L 15.681921 56.658627 
L 15.759706 56.834184 
L 15.796907 56.864658 
L 15.769852 56.862423 
L 15.820581 56.918771 
L 15.966005 57.23137 
L 15.972769 57.20628 
L 15.979533 57.19057 
L 16.243324 57.749059 
L 16.493588 58.067651 
L 16.507116 58.054717 
L 16.588283 58.01783 
L 16.524026 58.085797 
L 16.615338 58.048199 
L 16.720179 58.186671 
L 16.743852 58.159374 
L 16.831783 58.179843 
L 16.764144 58.19315 
L 16.838547 58.209752 
L 17.328929 58.774779 
L 17.332311 58.761962 
L 17.38304 58.890685 
L 17.413478 58.877474 
L 18.133832 59.385471 
L 18.16427 59.32989 
L 18.228527 59.283052 
L 18.191325 59.34373 
L 18.289402 59.308739 
L 18.343513 59.345283 
L 18.363805 59.269832 
L 18.397624 59.296699 
L 18.404388 59.281327 
L 18.478791 59.361014 
L 18.492319 59.358006 
L 18.570103 59.44976 
L 18.519374 59.332413 
L 18.617451 59.412354 
L 18.732437 59.335754 
L 18.63436 59.419088 
L 18.735819 59.344784 
L 18.800076 59.356968 
L 18.823749 59.286356 
L 18.847423 59.333802 
L 19.009756 59.357214 
L 19.019902 59.334911 
L 19.107833 59.422658 
L 19.111215 59.41377 
L 19.222819 59.421457 
L 19.168708 59.335127 
L 19.229583 59.401022 
L 19.364861 59.2488 
L 19.236347 59.413411 
L 19.391916 59.285644 
L 19.500139 59.329698 
L 19.435882 59.225433 
L 19.513666 59.314258 
L 19.577923 59.32758 
L 19.608361 59.25047 
L 19.730111 59.143906 
L 19.733493 59.150253 
L 19.848479 59.230982 
L 19.855243 59.220918 
L 20.051396 59.317796 
L 20.05816 59.312654 
L 20.328715 59.102263 
L 20.091979 59.338132 
L 20.332097 59.113116 
L 20.349007 59.132155 
L 20.392972 59.029639 
L 20.44032 59.086428 
L 20.57898 59.097765 
L 20.595889 59.063807 
L 20.646618 59.077806 
L 20.724403 58.989716 
L 20.737931 58.976785 
L 20.856299 59.073569 
L 21.055834 58.972485 
L 21.076126 59.020674 
L 21.079508 59.049437 
L 21.143765 58.941018 
L 21.18773 59.019671 
L 21.241841 58.967412 
L 21.289188 59.066083 
L 21.299334 59.022896 
L 21.360209 59.039916 
L 21.383883 58.975943 
L 21.397411 58.995698 
L 21.515779 58.883068 
L 21.525924 58.886132 
L 22.138057 58.788394 
L 22.141439 58.773735 
L 22.229369 58.859224 
L 22.242897 58.824293 
L 22.337592 58.819227 
L 22.351119 58.742746 
L 22.428904 58.663812 
L 22.476251 58.741504 
L 22.574328 58.751931 
L 22.520217 58.662603 
L 22.594619 58.727244 
L 22.692696 58.652662 
L 22.729897 58.687088 
L 22.932814 58.773382 
L 22.736661 58.670532 
L 22.936196 58.766684 
L 23.068092 58.649181 
L 23.257481 58.67944 
L 23.32512 58.552953 
L 23.392759 58.578548 
L 23.406287 58.550423 
L 23.514509 58.636347 
L 23.670078 58.580097 
L 23.788447 58.469813 
L 23.805356 58.478295 
L 23.808738 58.486995 
L 23.862849 58.39226 
L 23.903433 58.428794 
L 24.031947 58.272266 
L 24.038711 58.285736 
L 24.309266 58.33573 
L 24.373523 58.380209 
L 24.42087 58.315355 
L 24.546003 58.437906 
L 24.43778 58.2713 
L 24.549384 58.424233 
L 24.623787 58.36788 
L 24.573058 58.36168 
L 24.627169 58.355284 
L 24.694808 58.384843 
L 24.738773 58.337781 
L 24.823322 58.30566 
L 24.860524 58.380389 
L 24.951836 58.310607 
L 24.972128 58.376549 
L 24.978892 58.370822 
L 25.127697 58.477342 
L 25.215628 58.393917 
L 25.239301 58.472956 
L 25.262975 58.530629 
L 25.320468 58.406608 
L 25.337378 58.423477 
L 25.442218 58.316494 
L 25.46251 58.335566 
L 25.486184 58.384859 
L 25.547059 58.287119 
L 25.570732 58.32433 
L 25.70601 58.260509 
L 25.783795 58.272382 
L 25.73983 58.221394 
L 25.81085 58.237585 
L 25.9326 58.119952 
L 25.831142 58.244763 
L 25.935982 58.143626 
L 26.040823 58.142563 
L 25.993476 58.091728 
L 26.047587 58.138032 
L 26.165955 58.174846 
L 26.172719 58.136427 
L 26.230212 58.069357 
L 26.294469 58.122019 
L 26.358726 58.174936 
L 26.304615 58.114552 
L 26.409455 58.128893 
L 26.822052 58.169628 
L 26.893073 58.290327 
L 26.94042 58.25707 
L 26.994532 58.337611 
L 27.055407 58.256321 
L 27.126428 58.218608 
L 27.163629 58.292072 
L 27.258323 58.362289 
L 27.170393 58.282983 
L 27.298907 58.312907 
L 27.532261 58.357654 
L 27.603282 58.401479 
L 27.640483 58.338773 
L 27.657393 58.350426 
L 27.708122 58.247395 
L 27.711504 58.258006 
L 27.850164 58.045371 
L 27.86031 58.066021 
L 27.917803 58.104958 
L 27.94824 58.024187 
L 27.978678 58.079994 
L 28.168067 57.981058 
L 28.25938 57.961587 
L 28.218796 58.014801 
L 28.276289 57.997788 
L 28.560373 57.863137 
L 28.567137 57.873135 
L 28.621248 58.006018 
L 28.685505 57.940261 
L 28.908713 57.855851 
L 29.013554 57.834937 
L 28.976352 57.886473 
L 29.023699 57.851272 
L 29.11163 57.853803 
L 29.074429 57.883887 
L 29.131922 57.869019 
L 29.182651 57.883245 
L 29.223234 57.811714 
L 29.229998 57.819261 
L 29.311165 57.70521 
L 29.243526 57.834222 
L 29.395713 57.801085 
L 29.456589 57.837673 
L 29.480262 57.758645 
L 29.497172 57.759071 
L 29.500554 57.738244 
L 29.541137 57.836434 
L 29.602012 57.7965 
L 29.767728 57.870729 
L 29.791401 57.82584 
L 29.882714 57.721049 
L 29.821839 57.87536 
L 29.913151 57.756373 
L 30.001082 57.692015 
L 29.919915 57.766298 
L 30.045047 57.715918 
L 30.173561 57.792532 
L 30.203999 57.749746 
L 30.349422 57.630649 
L 30.369714 57.664318 
L 30.430589 57.676394 
L 30.390006 57.616635 
L 30.477936 57.644246 
L 30.569249 57.597855 
L 30.616596 57.637682 
L 30.782311 57.654491 
L 30.795839 57.627744 
L 30.877006 57.569644 
L 30.920971 57.594792 
L 30.927735 57.616609 
L 30.9717 57.541227 
L 31.032575 57.59511 
L 31.194909 57.717906 
L 31.306513 57.755899 
L 31.313277 57.747639 
L 31.428263 57.843329 
L 31.320041 57.743217 
L 31.441791 57.813232 
L 31.47561 57.717577 
L 31.556777 57.780538 
L 31.604124 57.862497 
L 31.671763 57.795955 
L 31.688673 57.732726 
L 31.786749 57.789999 
L 31.813805 57.789796 
L 31.827333 57.736624 
L 31.847625 57.713569 
L 31.888208 57.683456 
L 31.952465 57.75812 
L 32.026868 57.904276 
L 32.080979 57.820652 
L 32.131708 57.729251 
L 32.206111 57.784743 
L 32.277132 57.81015 
L 32.300805 57.744481 
L 32.307569 57.754117 
L 32.375208 57.708997 
L 32.419173 57.752515 
L 32.639 57.859038 
L 32.652528 57.803796 
L 32.764132 57.726285 
L 32.682965 57.822231 
L 32.770896 57.766297 
L 32.831771 57.788742 
L 32.858826 57.696902 
L 32.86559 57.703237 
L 32.879118 57.653537 
L 32.956903 57.777912 
L 33.071889 57.780199 
L 32.963667 57.765185 
L 33.075271 57.766739 
L 33.190257 57.711815 
L 33.102327 57.801569 
L 33.213931 57.726941 
L 33.227459 57.763144 
L 33.305243 57.656053 
L 33.440521 57.588302 
L 33.552125 57.62566 
L 33.457431 57.565032 
L 33.562271 57.594507 
L 33.633292 57.537783 
L 33.585945 57.61592 
L 33.677257 57.554187 
L 33.714459 57.618962 
L 33.792244 57.583759 
L 33.883556 57.555674 
L 33.815917 57.599266 
L 33.903848 57.585813 
L 33.961341 57.526137 
L 34.018834 57.578535 
L 34.039126 57.617375 
L 34.110147 57.535906 
L 34.127056 57.564258 
L 34.16764 57.515229 
L 34.208223 57.589329 
L 34.238661 57.570661 
L 34.488925 57.239696 
L 34.546418 57.31834 
L 34.65464 57.334467 
L 34.583619 57.30528 
L 34.661404 57.317882 
L 34.756098 57.276875 
L 34.715515 57.372533 
L 34.77639 57.329438 
L 34.854175 57.402765 
L 34.789918 57.319988 
L 34.894758 57.353525 
L 35.043564 57.251474 
L 34.901522 57.362219 
L 35.05371 57.277617 
L 35.138258 57.373789 
L 35.168696 57.297983 
L 35.266772 57.309069 
L 35.216043 57.248541 
L 35.276918 57.295345 
L 35.395286 57.216508 
L 35.40205 57.233198 
L 36.105495 57.176379 
L 36.122405 57.198646 
L 36.18328 57.091698 
L 36.193426 57.095869 
L 36.200189 57.069759 
L 36.227245 57.15037 
L 36.301648 57.109363 
L 36.328703 57.189578 
L 36.406488 57.083274 
L 36.477509 57.061659 
L 36.423398 57.104109 
L 36.51471 57.109808 
L 36.622933 57.19886 
L 36.643224 57.160676 
L 36.693954 57.101583 
L 36.741301 57.181484 
L 36.751447 57.1769 
L 36.758211 57.18928 
L 36.768356 57.13168 
L 36.829231 57.118373 
L 36.964509 56.842813 
L 36.967891 56.858433 
L 37.042294 56.926224 
L 37.082877 56.878807 
L 37.184336 56.906156 
L 37.208009 56.871722 
L 37.346669 56.784794 
L 37.350051 56.792065 
L 37.458273 56.799223 
L 37.387253 56.756536 
L 37.465037 56.790129 
L 37.681482 56.123301 
L 37.742357 55.119199 
L 37.759267 43.738324 
L 37.850579 54.039816 
L 37.870871 56.798773 
L 37.965565 56.210323 
L 38.090697 54.65978 
L 38.104225 44.797244 
L 38.185392 57.137546 
L 38.192156 57.306074 
L 38.280086 56.585959 
L 38.435656 54.845525 
L 38.449184 44.528633 
L 38.53035 56.736075 
L 38.543878 57.727041 
L 38.638573 56.832551 
L 38.712975 56.231128 
L 38.811052 54.448472 
L 38.821198 44.353239 
L 38.91251 57.96349 
L 38.919274 58.048764 
L 38.993677 57.333579 
L 39.227031 54.721492 
L 39.240559 44.259025 
L 39.325108 57.662826 
L 39.338636 58.22466 
L 39.429948 57.343337 
L 39.680212 55.215666 
L 39.69374 48.963067 
L 39.700504 44.188133 
L 39.795198 58.328395 
L 39.825636 58.083042 
L 40.099573 56.126401 
L 40.187504 55.116302 
L 40.19765 52.355846 
L 40.204414 44.081566 
L 40.30249 58.369379 
L 40.305872 58.354467 
L 40.745525 54.521858 
L 40.755671 44.04999 
L 40.843602 58.103032 
L 40.853747 58.371021 
L 40.941678 57.555704 
L 41.012699 57.017008 
L 41.367803 54.73806 
L 41.381331 44.001007 
L 41.462498 57.545599 
L 41.476026 58.292603 
L 41.57072 57.430884 
L 42.023901 54.754395 
L 42.037429 43.984961 
L 42.118595 57.64416 
L 42.132123 58.215935 
L 42.226818 57.359791 
L 42.450026 56.203542 
L 42.463554 56.239003 
L 42.527811 56.103144 
L 42.548103 56.109464 
L 42.551485 56.118953 
L 42.608978 55.958117 
L 42.61236 55.973723 
L 42.622505 55.983019 
L 42.703672 55.445249 
L 42.723964 53.107324 
L 42.730728 43.970393 
L 42.825422 58.191363 
L 42.832186 58.146729 
L 43.32595 54.949108 
L 43.34286 44.035511 
L 43.417263 55.260343 
L 43.434173 58.243527 
L 43.528867 57.40063 
L 43.74193 56.293615 
L 43.779131 56.272672 
L 43.799423 56.205219 
L 43.95161 55.937932 
L 44.005721 55.844883 
L 44.063215 54.987628 
L 44.080124 43.953957 
L 44.154527 54.924772 
L 44.171437 58.129698 
L 44.269513 57.255233 
L 44.496104 56.166273 
L 44.499486 56.174074 
L 44.536687 56.073912 
L 44.587416 56.099819 
L 44.71593 55.174047 
L 44.729458 50.13137 
L 44.736222 43.98529 
L 44.830916 58.191704 
L 44.834298 58.160786 
L 45.101472 56.361242 
L 45.111618 56.368836 
L 45.361882 55.93288 
L 45.365264 55.958575 
L 45.439667 55.693469 
L 45.473486 54.277976 
L 45.483632 43.936119 
L 45.574945 58.092633 
L 45.578326 58.108836 
L 45.615528 57.772927 
L 45.889466 56.190277 
L 46.136348 55.176942 
L 46.149875 50.822104 
L 46.156639 43.974997 
L 46.247952 58.133927 
L 46.254716 58.103708 
L 46.603056 56.191256 
L 46.60982 56.209359 
L 46.677459 56.035182 
L 46.816119 55.914658 
L 46.826265 55.917222 
L 46.863466 55.817546 
L 46.927723 54.749921 
L 46.941251 43.925691 
L 47.022418 57.484056 
L 47.032563 58.044841 
L 47.127258 57.194064 
L 47.367376 56.043862 
L 47.370758 56.044777 
L 47.377522 56.062798 
L 47.522946 55.665038 
L 47.556765 55.113671 
L 47.570293 48.068922 
L 47.577057 44.044686 
L 47.668369 58.114488 
L 47.671751 58.099359 
L 47.959217 56.295335 
L 48.182425 55.994282 
L 48.185807 55.999575 
L 48.317703 56.096436 
L 48.334613 56.054964 
L 48.409015 56.179205 
L 48.564585 56.45988 
L 48.760738 56.9074 
L 48.936599 57.319529 
L 48.943363 57.310163 
L 49.00762 57.426095 
L 49.25112 57.939248 
L 49.541967 58.325711 
L 49.690773 58.585355 
L 49.863252 58.864129 
L 49.886926 58.806148 
L 50.018822 58.773675 
L 50.035732 58.807347 
L 50.184537 59.006983 
L 50.428037 59.200719 
L 50.434801 59.191965 
L 50.485531 59.13945 
L 50.539642 59.232671 
L 50.729031 59.40789 
L 50.816961 59.487182 
L 50.844017 59.44974 
L 50.86769 59.498662 
L 50.962385 59.44642 
L 51.009732 59.386345 
L 50.989441 59.374537 
L 51.013114 59.354843 
L 51.04017 59.29861 
L 51.097663 59.427518 
L 51.111191 59.420819 
L 51.236323 59.579308 
L 51.24985 59.557522 
L 51.276906 59.513342 
L 51.327635 59.589872 
L 51.361455 59.564556 
L 51.364837 59.580008 
L 51.449385 59.486133 
L 51.456149 59.505432 
L 51.571135 59.456268 
L 51.520406 59.5211 
L 51.574517 59.484188 
L 51.581281 59.495293 
L 51.594809 59.41457 
L 51.675976 59.443526 
L 52.054754 59.208934 
L 51.692885 59.467393 
L 52.068281 59.24723 
L 52.176504 59.409764 
L 52.078427 59.24002 
L 52.210323 59.350423 
L 52.294872 59.366767 
L 52.25767 59.384196 
L 52.305018 59.390397 
L 52.362511 59.430843 
L 52.315163 59.38646 
L 52.41324 59.382969 
L 52.670268 59.047316 
L 52.748053 59.194996 
L 52.792018 59.115172 
L 53.028754 59.173123 
L 52.802164 59.09115 
L 53.042282 59.138608 
L 53.157268 59.067974 
L 53.05581 59.158418 
L 53.16065 59.106916 
L 53.170796 59.06374 
L 53.306074 59.083042 
L 53.407532 58.908434 
L 53.451497 58.947158 
L 53.481935 58.922874 
L 53.569866 58.981176 
L 53.766018 58.80224 
L 53.583393 58.99795 
L 53.772782 58.819886 
L 53.793074 58.874043 
L 53.847185 58.786155 
L 53.884387 58.842974 
L 53.985845 58.65577 
L 54.016282 58.6733 
L 54.02981 58.650817 
L 54.067012 58.745687 
L 54.121123 58.710213 
L 54.161706 58.737123 
L 54.276692 58.598759 
L 54.300366 58.625448 
L 54.317276 58.575643 
L 54.388297 58.588313 
L 54.422116 58.578764 
L 54.442408 58.634325 
L 54.469463 58.651256 
L 54.476227 58.670428 
L 54.547248 58.541625 
L 54.560776 58.550921 
L 54.665616 58.564094 
L 54.668998 58.579821 
L 54.685908 58.624317 
L 54.723109 58.486007 
L 54.763693 58.482733 
L 54.790748 58.500086 
L 54.905734 58.42757 
L 54.926026 58.478752 
L 54.976755 58.38945 
L 55.007193 58.38138 
L 55.132325 58.144951 
L 55.017339 58.394075 
L 55.155998 58.154483 
L 55.230401 58.206193 
L 55.189818 58.134858 
L 55.264221 58.133172 
L 55.308186 58.109414 
L 55.342005 58.185059 
L 55.362297 58.17777 
L 55.365679 58.193789 
L 55.446846 58.109335 
L 55.456992 58.120931 
L 55.484047 58.091157 
L 55.548304 58.152825 
L 55.571978 58.112355 
L 55.626089 58.170658 
L 55.582124 58.094719 
L 55.666672 58.050013 
L 55.761367 57.939669 
L 55.690346 58.060381 
L 55.805332 57.993109 
L 56.623763 57.752843 
L 56.674492 57.640217 
L 56.738749 57.732039 
L 57.005923 57.870275 
L 57.009305 57.86127 
L 57.039742 57.809658 
L 57.073562 57.918053 
L 57.120909 57.86435 
L 57.151347 57.846914 
L 57.205458 57.933041 
L 57.215604 57.934781 
L 57.662021 57.784247 
L 57.81759 57.673826 
L 57.837882 57.703219 
L 57.946104 57.750359 
L 57.868319 57.656061 
L 57.95625 57.726723 
L 58.023889 57.649022 
L 57.969778 57.74707 
L 58.071236 57.76212 
L 58.192986 57.818302 
L 58.236951 57.782104 
L 58.291063 57.887393 
L 58.294444 57.869953 
L 58.297826 57.880897 
L 58.331646 57.791766 
L 58.392521 57.832169 
L 58.527799 57.751308 
L 58.622493 57.73949 
L 58.575146 57.708322 
L 58.629257 57.711181 
L 58.72057 57.70783 
L 58.734098 57.736817 
L 58.761153 57.707493 
L 58.872757 57.857801 
L 58.997889 57.799719 
L 58.882903 57.877929 
L 59.001271 57.806576 
L 59.08582 57.839718 
L 59.035091 57.774143 
L 59.109494 57.780243 
L 59.112875 57.760266 
L 59.183896 57.873928 
L 59.20757 57.863457 
L 59.319174 57.845375 
L 59.22448 57.880731 
L 59.32932 57.851478 
L 59.440924 57.886486 
L 59.464598 57.846426 
L 59.677661 57.897989 
L 59.745299 57.940383 
L 59.708098 57.863344 
L 59.785883 57.856829 
L 59.809556 57.826528 
L 59.887341 57.888332 
L 59.890723 57.887266 
L 59.995563 57.906646 
L 59.934688 57.85678 
L 60.002327 57.900765 
L 60.009091 57.881907 
L 60.090258 57.981442 
L 60.09364 57.975129 
L 60.157897 58.075997 
L 60.205244 57.982611 
L 60.45889 57.913966 
L 60.577258 57.800879 
L 60.465654 57.922837 
L 60.594168 57.817648 
L 60.624605 57.878302 
L 60.712536 57.823671 
L 60.901925 57.661343 
L 61.020293 57.732108 
L 60.952654 57.618012 
L 61.027057 57.728019 
L 61.152189 57.633647 
L 61.074404 57.78449 
L 61.155571 57.644976 
L 61.243502 57.653424 
L 61.172481 57.626147 
L 61.263793 57.626094 
L 61.36187 57.517592 
L 61.493766 57.44154 
L 61.378779 57.53248 
L 61.510675 57.460074 
L 61.673009 57.337868 
L 61.703446 57.389551 
L 61.838724 57.47901 
L 61.750794 57.332608 
L 61.845488 57.455514 
L 61.84887 57.445417 
L 61.906363 57.602927 
L 61.913127 57.58875 
L 61.974002 57.6194 
L 62.017967 57.564673 
L 62.146481 57.398597 
L 62.153245 57.41309 
L 62.234412 57.539099 
L 62.281759 57.460248 
L 62.332488 57.449041 
L 62.288523 57.437981 
L 62.356162 57.382296 
L 62.417037 57.366986 
L 62.400127 57.431662 
L 62.45762 57.427282 
L 62.548933 57.508156 
L 62.57937 57.43104 
L 62.657155 57.397048 
L 62.586134 57.399137 
L 62.663919 57.37731 
L 62.738322 57.311138 
L 62.778905 57.351561 
L 62.920947 57.413168 
L 62.85669 57.31305 
L 62.924329 57.408479 
L 63.029169 57.338476 
L 62.968294 57.421823 
L 63.049461 57.361127 
L 63.08328 57.44345 
L 63.161065 57.323075 
L 63.171211 57.338231 
L 63.292961 57.247909 
L 63.303107 57.263654 
L 63.357218 57.153515 
L 63.384274 57.186365 
L 63.435003 57.141356 
L 63.46544 57.244855 
L 63.478968 57.243021 
L 63.631156 57.352556 
L 63.729232 57.249234 
L 63.746142 57.289462 
L 64.067427 57.057141 
L 64.10801 57.105912 
L 64.077573 57.045562 
L 64.179031 57.065193 
L 64.239906 56.978996 
L 64.324455 57.062149 
L 64.337982 57.082639 
L 64.415767 56.996054 
L 64.422531 57.012017 
L 64.557809 56.801821 
L 64.432677 57.036593 
L 64.561191 56.805674 
L 64.564573 56.814071 
L 64.605156 56.731349 
L 64.64574 56.765521 
L 64.676177 56.678379 
L 64.757344 56.735868 
L 65.024518 56.504654 
L 65.200379 54.561757 
L 65.210525 43.74637 
L 65.305219 54.891316 
L 65.318747 56.834534 
L 65.416823 56.241152 
L 65.555483 54.506318 
L 65.569011 44.797603 
L 65.65356 57.307514 
L 65.656942 57.3182 
L 65.687379 57.062239 
L 65.89706 55.170208 
L 65.910588 51.776776 
L 65.917351 44.50083 
L 66.008664 57.749282 
L 66.015428 57.717646 
L 66.289366 54.702774 
L 66.302893 44.357266 
L 66.387442 57.619999 
L 66.397588 58.041858 
L 66.492282 57.144514 
L 66.715491 54.293394 
L 66.725637 44.221593 
L 66.820331 58.203836 
L 66.823713 58.225276 
L 66.867678 57.80795 
L 67.182199 52.956472 
L 67.188963 44.136712 
L 67.28704 58.323513 
L 67.290422 58.320323 
L 67.679345 55.448597 
L 67.696255 54.143219 
L 67.706401 44.09658 
L 67.801095 58.338951 
L 67.804477 58.341606 
L 67.818005 58.231748 
L 68.135908 56.163239 
L 68.13929 56.17706 
L 68.200165 55.965438 
L 68.203547 55.978185 
L 68.288096 54.606447 
L 68.301624 44.05399 
L 68.386172 58.05581 
L 68.396318 58.262939 
L 68.480867 57.491133 
L 68.744659 56.161736 
L 68.751422 56.168043 
L 68.842735 55.788195 
L 68.883318 55.072173 
L 68.900228 44.007511 
L 68.978013 56.03331 
L 68.994923 58.276632 
L 69.089617 57.4213 
L 69.30268 56.309562 
L 69.306062 56.30992 
L 69.488687 55.742389 
L 69.522506 55.378428 
L 69.539416 53.249231 
L 69.54618 44.026293 
L 69.644256 58.217732 
L 69.647638 58.185729 
L 69.935104 56.28822 
L 69.945249 56.295452 
L 69.972305 56.184522 
L 69.975687 56.183748 
L 70.151548 55.320798 
L 70.168458 51.94618 
L 70.175222 43.997041 
L 70.269916 58.229397 
L 70.273298 58.205541 
L 70.645312 56.2055 
L 70.648694 56.214214 
L 70.706187 56.07108 
L 70.898958 54.199873 
L 70.909104 43.940065 
L 71.003799 58.139281 
L 71.017326 58.039981 
L 71.274354 56.309071 
L 71.477271 55.93827 
L 71.480653 55.942787 
L 71.484035 55.947855 
L 71.524618 55.814281 
L 71.528 55.81524 
L 71.575348 55.082855 
L 71.588875 45.881598 
L 71.592257 43.958826 
L 71.676806 57.894592 
L 71.686952 58.162179 
L 71.774882 57.336869 
L 71.957507 56.300788 
L 72.17057 55.865693 
L 72.234827 54.523378 
L 72.248355 44.007608 
L 72.332904 58.043377 
L 72.339667 58.18439 
L 72.424216 57.417063 
L 72.650806 56.291554 
L 72.654188 56.298212 
L 72.701536 56.166065 
L 72.731973 56.227989 
L 72.857105 56.129916 
L 72.863869 56.146219 
L 72.941654 56.052847 
L 73.124279 54.9233 
L 73.141189 43.912819 
L 73.218973 56.768892 
L 73.235883 58.035618 
L 73.330578 57.122708 
L 73.584224 55.947848 
L 73.668772 55.395636 
L 73.685682 53.817569 
L 73.695828 44.062343 
L 73.78714 58.230323 
L 73.790522 58.224146 
L 73.871689 57.461024 
L 74.08137 56.353487 
L 74.084752 56.363575 
L 74.135481 56.235055 
L 74.162536 56.248551 
L 74.44662 56.154791 
L 74.453384 56.201604 
L 74.605571 56.474778 
L 74.608953 56.459654 
L 74.619099 56.460253 
L 74.642773 56.564318 
L 74.649537 56.553957 
L 74.920092 57.10978 
L 74.923474 57.101353 
L 74.991113 57.217364 
L 75.173738 57.641021 
L 75.180502 57.633573 
L 75.19403 57.603764 
L 75.275197 57.741414 
L 75.430766 58.009579 
L 75.43753 57.998163 
L 75.522079 58.163484 
L 75.711468 58.540284 
L 75.721614 58.53126 
L 75.873801 58.646359 
L 76.056426 58.871033 
L 76.059808 58.867194 
L 76.370947 59.042221 
L 76.485934 59.175235 
L 76.489316 59.149562 
L 76.499461 59.128904 
L 76.580628 59.220434 
L 76.58401 59.215014 
L 76.715906 59.160995 
L 76.621211 59.271049 
L 76.726052 59.197625 
L 76.837656 59.251247 
L 76.84442 59.241887 
L 77.023663 59.331854 
L 77.128503 59.411653 
L 77.037191 59.309734 
L 77.142031 59.369644 
L 77.280691 59.313093 
L 77.284073 59.316295 
L 77.287455 59.338007 
L 77.321274 59.24934 
L 77.392295 59.302903 
L 77.581684 59.371519 
L 77.422733 59.266006 
L 77.588448 59.360179 
L 77.672997 59.382581 
L 77.625649 59.422711 
L 77.689906 59.395549 
L 77.703434 59.408896 
L 77.771073 59.299575 
L 77.781219 59.32486 
L 78.153233 59.338456 
L 78.203962 59.29392 
L 78.264837 59.339138 
L 78.274983 59.276277 
L 78.329094 59.238206 
L 78.457608 59.215305 
L 78.37306 59.28713 
L 78.46099 59.233515 
L 78.538775 59.248576 
L 78.4779 59.202818 
L 78.562449 59.20282 
L 78.569212 59.184497 
L 78.586122 59.250518 
L 78.667289 59.214912 
L 78.687581 59.245631 
L 78.70449 59.203326 
L 78.775511 59.198533 
L 78.866824 59.096189 
L 79.10356 58.836947 
L 79.106942 58.852909 
L 79.147525 58.814977 
L 79.221928 58.875829 
L 79.48572 58.756061 
L 79.519539 58.634255 
L 79.617616 58.686843 
L 79.644671 58.659839 
L 79.752894 58.694065 
L 79.874644 58.658088 
L 79.898317 58.701748 
L 79.959192 58.588594 
L 79.965956 58.599595 
L 80.067415 58.444411 
L 80.101234 58.508451 
L 80.199311 58.532143 
L 80.165491 58.474565 
L 80.209456 58.505452 
L 80.344734 58.387752 
L 80.351498 58.391248 
L 80.402227 58.452262 
L 80.358262 58.380098 
L 80.466484 58.404774 
L 80.638964 58.278253 
L 80.490158 58.442823 
L 80.642346 58.282437 
L 80.882464 58.377098 
L 80.885846 58.371025 
L 80.916283 58.314646 
L 80.994068 58.388263 
L 81.105672 58.526077 
L 81.1192 58.47859 
L 81.328881 58.386575 
L 81.339026 58.407181 
L 81.403283 58.457869 
L 81.450631 58.413882 
L 81.460777 58.38184 
L 81.521652 58.449509 
L 81.562235 58.40003 
L 81.616346 58.416177 
L 81.663693 58.333742 
L 81.738096 58.31975 
L 81.670457 58.356218 
L 81.76177 58.373877 
L 81.765152 58.384783 
L 81.788825 58.315591 
L 81.859846 58.328749 
L 81.886902 58.301962 
L 81.944395 58.387028 
L 81.964687 58.364304 
L 82.086437 58.285698 
L 82.11011 58.242337 
L 82.14393 58.336386 
L 82.194659 58.311427 
L 82.198041 58.323405 
L 82.26568 58.251815 
L 82.296117 58.28096 
L 82.438159 58.165557 
L 82.323173 58.318144 
L 82.444923 58.176048 
L 82.52609 58.194307 
L 82.478742 58.12756 
L 82.553145 58.150751 
L 83.107784 58.154174 
L 83.334375 58.26715 
L 83.452743 58.340883 
L 83.466271 58.292407 
L 83.469653 58.27843 
L 83.513618 58.394804 
L 83.557583 58.387016 
L 84.102077 58.411209 
L 84.257646 58.522697 
L 84.115604 58.389137 
L 84.28132 58.495815 
L 84.376014 58.485751 
L 84.342195 58.554799 
L 84.389542 58.511991 
L 84.399688 58.482647 
L 84.487618 58.442351 
L 84.636424 58.346837 
L 84.737882 58.461684 
L 84.656716 58.28845 
L 84.758174 58.398354 
L 84.866396 58.289447 
L 84.883306 58.335831 
L 84.886688 58.340701 
L 84.927271 58.238014 
L 84.944181 58.245058 
L 85.059167 58.12954 
L 85.069313 58.168111 
L 85.306049 58.390552 
L 85.312813 58.347873 
L 85.390598 58.305151 
L 85.350015 58.364449 
L 85.421036 58.368007 
L 85.529258 58.294517 
L 85.54955 58.301202 
L 85.610425 58.297682 
L 85.630716 58.230026 
L 85.647626 58.199201 
L 85.732175 58.267723 
L 85.738939 58.2531 
L 86.016258 58.272752 
L 86.094043 58.197125 
L 86.131244 58.255735 
L 86.242849 58.280206 
L 86.14139 58.234894 
L 86.256376 58.244642 
L 86.320633 58.239062 
L 86.303724 58.29894 
L 86.364599 58.253726 
L 86.367981 58.275064 
L 86.439001 58.183413 
L 86.472821 58.232519 
L 86.648682 57.983542 
L 86.672356 58.03762 
L 86.723085 58.089282 
L 86.777196 58.005508 
L 86.780578 58.025047 
L 87.642974 58.035695 
L 87.697085 57.983834 
L 87.757961 57.996198 
L 87.781634 58.02661 
L 87.828981 57.901194 
L 87.859419 57.949078 
L 88.001461 57.998786 
L 87.872947 57.928107 
L 88.008225 57.983147 
L 88.058954 57.888426 
L 88.123211 57.967082 
L 88.207759 57.933762 
L 88.217905 57.902117 
L 88.343037 57.764132 
L 88.356565 57.777329 
L 88.407294 57.821919 
L 88.45126 57.720358 
L 88.600065 57.651673 
L 88.498607 57.774797 
L 88.606829 57.667063 
L 88.674468 57.692022 
L 88.701524 57.61722 
L 88.742107 57.587359 
L 88.789454 57.65641 
L 88.809746 57.642643 
L 88.907822 57.834637 
L 88.958551 57.761538 
L 89.506427 57.597581 
L 89.5301 57.613789 
L 89.753309 57.398898 
L 89.79051 57.404985 
L 89.817566 57.320169 
L 89.952844 57.152129 
L 89.969753 57.161366 
L 90.142233 57.429574 
L 90.15576 57.401496 
L 90.260601 57.376498 
L 90.216635 57.307439 
L 90.267365 57.356376 
L 90.43308 57.137015 
L 90.507483 57.236048 
L 90.55483 57.153663 
L 90.622469 57.023333 
L 90.67658 57.068361 
L 90.754365 57.160394 
L 90.79833 57.106335 
L 90.909934 57.110066 
L 90.92008 57.078368 
L 91.048594 56.961429 
L 91.055358 56.977733 
L 91.068886 56.954426 
L 91.068886 56.954426 
" clip-path="url(#pcc01efbd58)" style="fill: none; stroke: #000000; stroke-width: 0.6; stroke-linecap: square"/>
   </g>
   <g id="line2d_4">
    <path d="M 95.127221 15.313171 
L 95.127221 8.552195 
" clip-path="url(#pcc01efbd58)" style="fill: none; stroke: #000000; stroke-width: 1.5; stroke-linecap: square"/>
   </g>
  </g>
 </g>
 <defs>
  <clipPath id="pcc01efbd58">
   <rect x="7.2" y="7.2" width="89.28" height="55.44"/>
  </clipPath>
 </defs>
</svg>
