<?xml version="1.0" encoding="utf-8" standalone="no"?>
<!DOCTYPE svg PUBLIC "-//W3C//DTD SVG 1.1//EN"
  "http://www.w3.org/Graphics/SVG/1.1/DTD/svg11.dtd">
<svg xmlns:xlink="http://www.w3.org/1999/xlink" width="103.68pt" height="69.84pt" viewBox="0 0 103.68 69.84" xmlns="http://www.w3.org/2000/svg" version="1.1">
 <metadata>
  <rdf:RDF xmlns:dc="http://purl.org/dc/elements/1.1/" xmlns:cc="http://creativecommons.org/ns#" xmlns:rdf="http://www.w3.org/1999/02/22-rdf-syntax-ns#">
   <cc:Work>
    <dc:type rdf:resource="http://purl.org/dc/dcmitype/StillImage"/>
    <dc:date>2022-05-18T12:01:29.274007</dc:date>
    <dc:format>image/svg+xml</dc:format>
    <dc:creator>
     <cc:Agent>
      <dc:title>Matplotlib v3.5.1, https://matplotlib.org/</dc:title>
     </cc:Agent>
    </dc:creator>
   </cc:Work>
  </rdf:RDF>
 </metadata>
 <defs>
  <style type="text/css">*{stroke-linejoin: round; stroke-linecap: butt}</style>
 </defs>
 <g id="figure_1">
  <g id="patch_1">
   <path d="M 0 69.84 
L 103.68 69.84 
L 103.68 0 
L 0 0 
L 0 69.84 
z
" style="fill: none"/>
  </g>
  <g id="axes_1">
   <g id="patch_2">
    <path d="M 7.2 62.64 
L 96.48 62.64 
L 96.48 7.2 
L 7.2 7.2 
L 7.2 62.64 
z
" style="fill: none"/>
   </g>
   <g id="matplotlib.axis_1"/>
   <g id="matplotlib.axis_2"/>
   <g id="line2d_1">
    <path d="M 9.905557 24.221551 
L 10.220078 24.336125 
L 10.324918 24.44637 
L 10.348592 24.439213 
L 10.470342 24.380773 
L 10.490634 24.396794 
L 10.50078 24.391012 
L 10.537981 24.494961 
L 10.551509 24.487954 
L 10.656349 24.541099 
L 10.669877 24.477848 
L 10.734134 24.434975 
L 10.703696 24.515375 
L 10.788245 24.478186 
L 10.889703 24.458338 
L 10.903231 24.529743 
L 11.021599 24.417795 
L 11.035127 24.450962 
L 11.146731 24.495019 
L 11.072328 24.390025 
L 11.153495 24.472052 
L 11.244808 24.414558 
L 11.167023 24.502528 
L 11.275245 24.456088 
L 11.380086 24.443789 
L 11.390231 24.410117 
L 11.451106 24.269249 
L 11.511982 24.293364 
L 11.559329 24.260193 
L 11.572857 24.223694 
L 11.670933 24.0954 
L 11.59653 24.231676 
L 11.691225 24.133247 
L 11.806211 24.236769 
L 11.697989 24.132053 
L 11.816357 24.226219 
L 11.900905 24.201335 
L 11.877232 24.268585 
L 11.924579 24.245735 
L 11.988836 24.343966 
L 12.053093 24.310547 
L 12.093676 24.303956 
L 12.141024 24.378179 
L 12.157933 24.347269 
L 12.262774 24.318354 
L 12.164697 24.338554 
L 12.269537 24.295366 
L 12.401433 24.141082 
L 12.492746 24.088398 
L 12.523183 24.148871 
L 12.614496 24.150607 
L 12.567149 24.084563 
L 12.628024 24.125077 
L 12.820795 23.938826 
L 12.830941 23.967017 
L 12.885052 24.012085 
L 12.854614 23.926162 
L 12.935781 23.938036 
L 13.000038 23.989829 
L 12.979746 24.017689 
L 13.00342 23.997768 
L 13.013566 24.030204 
L 13.057531 23.930059 
L 13.111642 23.969972 
L 13.182663 24.066797 
L 13.233392 24.034953 
L 13.301031 24.053209 
L 13.344996 24.028258 
L 13.466746 23.847509 
L 13.470128 23.852119 
L 13.571587 23.831312 
L 13.510712 23.982831 
L 13.581733 23.852447 
L 13.676427 23.947564 
L 13.591878 23.849426 
L 13.700101 23.903614 
L 13.784649 23.826317 
L 13.821851 23.842012 
L 13.960511 23.829761 
L 13.828615 23.853243 
L 13.967275 23.837461 
L 14.014622 23.79534 
L 14.089025 23.917161 
L 14.126226 24.023711 
L 14.214157 23.987211 
L 14.417073 23.987471 
L 14.251358 24.076772 
L 14.420455 23.998184 
L 14.626754 23.860294 
L 14.728212 23.682328 
L 14.751886 23.706989 
L 15.292997 23.557738 
L 15.303143 23.589757 
L 15.323435 23.617917 
L 15.38431 23.537107 
L 15.411366 23.568868 
L 15.482386 23.475669 
L 15.438421 23.581454 
L 15.526352 23.530667 
L 15.641338 23.533022 
L 15.648102 23.521262 
L 15.675157 23.607785 
L 15.73265 23.613743 
L 15.817199 23.690311 
L 15.854401 23.630687 
L 15.989678 23.424999 
L 15.996442 23.426747 
L 16.097901 23.518669 
L 16.118192 23.496682 
L 16.192595 23.456031 
L 16.223033 23.521242 
L 16.310963 23.456739 
L 16.334637 23.505204 
L 16.459769 23.360671 
L 16.493588 23.387623 
L 16.578137 23.4113 
L 16.544318 23.35469 
L 16.595047 23.371761 
L 16.632248 23.274745 
L 16.710033 23.329193 
L 16.960297 23.343936 
L 16.963679 23.322875 
L 17.078665 23.210135 
L 17.088811 23.226016 
L 17.193651 23.341737 
L 17.213943 23.301954 
L 17.230853 23.26556 
L 17.308637 23.333709 
L 17.325547 23.312897 
L 17.596103 23.278421 
L 17.599485 23.293772 
L 17.738145 23.408464 
L 17.616395 23.28639 
L 17.741527 23.386471 
L 17.744909 23.366484 
L 17.802402 23.489909 
L 17.849749 23.38485 
L 17.971499 23.53026 
L 17.978263 23.517905 
L 18.137214 23.325703 
L 18.191325 23.392745 
L 18.255582 23.361138 
L 18.42468 23.240211 
L 18.475409 23.272844 
L 18.52952 23.205882 
L 18.820367 22.970502 
L 18.573485 23.265987 
L 18.830513 22.986105 
L 19.134888 23.187425 
L 19.148416 23.120414 
L 19.17209 23.0357 
L 19.246493 23.177302 
L 19.256639 23.149337 
L 19.331041 23.185983 
L 19.368243 23.154968 
L 19.418972 23.086486 
L 19.479847 23.160368 
L 19.486611 23.176015 
L 19.52043 23.061361 
L 19.544104 23.055753 
L 19.588069 23.021401 
L 19.648944 23.094489 
L 19.652326 23.079024 
L 19.669236 23.093663 
L 19.807896 22.941294 
L 19.926264 22.920675 
L 20.027722 22.790911 
L 20.068306 22.857069 
L 20.139326 22.839396 
L 20.183292 22.930041 
L 20.217111 22.928512 
L 20.244167 22.849342 
L 20.261077 22.849023 
L 20.362535 22.818532 
L 20.274604 22.891664 
L 20.379445 22.83737 
L 20.54516 22.672489 
L 20.392972 22.858272 
L 20.582361 22.712741 
L 20.602653 22.74399 
L 20.66691 22.602295 
L 20.68382 22.659253 
L 20.77175 22.630812 
L 20.734549 22.560141 
L 20.778514 22.603756 
L 21.015251 22.453393 
L 21.038924 22.489196 
L 21.062598 22.506292 
L 21.130237 22.449534 
L 21.174202 22.373803 
L 21.241841 22.431774 
L 21.299334 22.386254 
L 21.262133 22.442206 
L 21.346681 22.448897 
L 21.356827 22.478629 
L 21.421084 22.360524 
L 21.441376 22.383259 
L 21.590181 22.175531 
L 21.596945 22.179439 
L 21.664584 22.189946 
L 21.607091 22.157499 
L 21.701786 22.156617 
L 21.799862 22.142136 
L 21.759279 22.222449 
L 21.81339 22.167785 
L 21.823536 22.183835 
L 21.891175 22.102734 
L 21.91823 22.133911 
L 21.931758 22.158802 
L 22.182022 21.98771 
L 22.290244 21.97125 
L 22.232751 21.935383 
L 22.293626 21.961439 
L 22.5608 21.707737 
L 22.611529 21.600763 
L 22.679168 21.667159 
L 22.68255 21.688501 
L 22.773863 21.575536 
L 22.780627 21.600804 
L 22.797536 21.647986 
L 22.936196 21.526344 
L 22.986925 21.51964 
L 22.956488 21.491663 
L 23.003835 21.444188 
L 23.335266 20.745091 
L 23.436724 19.338404 
L 23.457016 9.008751 
L 23.521273 21.732725 
L 23.534801 22.56383 
L 23.629495 21.552778 
L 23.744481 19.386921 
L 23.761391 9.900922 
L 23.82903 22.377589 
L 23.839176 22.894634 
L 23.930488 21.704329 
L 24.042093 18.948151 
L 24.05562 10.15952 
L 24.133405 22.993912 
L 24.140169 22.952441 
L 24.272065 21.013834 
L 24.339704 18.064589 
L 24.34985 10.205709 
L 24.431016 23.098974 
L 24.444544 22.972152 
L 24.583204 20.890889 
L 24.644079 18.149536 
L 24.654225 10.121641 
L 24.735391 23.250366 
L 24.748919 23.152692 
L 24.965364 19.295794 
L 24.978892 10.085664 
L 25.053294 23.175047 
L 25.06344 23.407687 
L 25.147989 22.467972 
L 25.327232 18.924645 
L 25.34076 9.93634 
L 25.421927 23.533982 
L 25.425309 23.522317 
L 25.719538 19.739085 
L 25.733066 16.908586 
L 25.743211 9.870227 
L 25.824378 23.621192 
L 25.837906 23.537413 
L 25.98333 22.13218 
L 26.179483 19.404955 
L 26.196392 9.765401 
L 26.260649 22.264007 
L 26.280941 23.66905 
L 26.372253 22.918589 
L 26.703684 19.388545 
L 26.720594 9.867888 
L 26.781469 21.624756 
L 26.798379 23.663953 
L 26.896455 22.97508 
L 27.309053 18.528912 
L 27.32258 9.970587 
L 27.400365 23.567624 
L 27.407129 23.536909 
L 27.620192 21.935267 
L 27.799435 20.774809 
L 27.802817 20.797344 
L 27.870456 20.514204 
L 28.012497 19.026308 
L 28.032789 10.414133 
L 28.090282 22.919024 
L 28.10381 23.335929 
L 28.195123 22.682358 
L 28.678741 19.399004 
L 28.695651 13.393489 
L 28.702414 10.310709 
L 28.776817 23.38734 
L 28.790345 23.336461 
L 29.067665 21.423715 
L 29.422769 20.325387 
L 29.473498 20.348314 
L 29.497172 20.32424 
L 29.527609 20.431886 
L 29.530991 20.431628 
L 29.659505 20.706442 
L 29.669651 20.697971 
L 29.730526 20.767238 
L 29.703471 20.780681 
L 29.73729 20.780249 
L 29.862422 20.996593 
L 29.872568 20.969967 
L 29.87595 20.959259 
L 29.960499 21.048231 
L 29.967262 21.034791 
L 30.011228 21.071143 
L 30.028137 21.125288 
L 30.190471 21.28953 
L 30.247964 21.302288 
L 30.22429 21.350067 
L 30.261492 21.371485 
L 30.447499 21.772348 
L 30.525284 21.832305 
L 30.4847 21.862033 
L 30.528665 21.8511 
L 31.64809 23.828558 
L 31.834097 24.171061 
L 31.837479 24.160342 
L 31.962611 24.32023 
L 32.003194 24.267973 
L 32.01334 24.254132 
L 32.053923 24.362138 
L 32.216257 24.717423 
L 32.243312 24.714465 
L 32.270368 24.803181 
L 32.283896 24.802727 
L 32.476667 25.000548 
L 32.510486 24.948321 
L 32.540924 25.022181 
L 32.581507 25.021536 
L 32.737076 25.165097 
L 32.747222 25.140587 
L 32.757368 25.127317 
L 32.791188 25.241694 
L 32.811479 25.274779 
L 32.858826 25.188276 
L 32.896028 25.227538 
L 33.011014 25.157697 
L 33.054979 25.228739 
L 33.098945 25.132062 
L 33.119236 25.163707 
L 33.122618 25.153667 
L 33.186875 25.291818 
L 33.190257 25.291015 
L 33.481105 25.33875 
L 33.484487 25.315852 
L 33.592709 25.286114 
L 33.555507 25.395281 
L 33.596091 25.320249 
L 33.653584 25.361229 
L 33.690785 25.287416 
L 33.707695 25.315125 
L 33.842973 25.189639 
L 33.897084 25.264089 
L 34.04589 25.42437 
L 34.049272 25.423298 
L 34.079709 25.447516 
L 34.177786 25.344956 
L 34.269098 25.412606 
L 34.191313 25.341642 
L 34.296154 25.38007 
L 34.326591 25.399331 
L 34.421286 25.325307 
L 34.51598 25.368195 
L 34.455105 25.292787 
L 34.539654 25.355576 
L 34.600529 25.302467 
L 34.63773 25.422657 
L 34.65464 25.449761 
L 34.712133 25.374447 
L 34.742571 25.397664 
L 34.783154 25.347423 
L 34.816973 25.430099 
L 34.850793 25.419382 
L 34.894758 25.470826 
L 34.901522 25.517274 
L 34.999598 25.525776 
L 34.938723 25.446158 
L 35.013126 25.492402 
L 35.128112 25.379095 
L 35.023272 25.500482 
L 35.138258 25.40316 
L 35.185606 25.446682 
L 35.232953 25.359921 
L 35.246481 25.387858 
L 35.327647 25.236928 
L 35.412196 25.345321 
L 35.469689 25.421725 
L 35.520418 25.353916 
L 35.574529 25.408099 
L 35.64555 25.297206 
L 35.655696 25.307019 
L 35.794356 25.198455 
L 35.804502 25.219946 
L 35.848467 25.086764 
L 35.899196 25.153245 
L 35.902578 25.156822 
L 35.919488 25.072643 
L 35.953307 25.051285 
L 36.108877 24.7813 
L 36.129169 24.81901 
L 36.217099 24.901785 
L 36.267828 24.867521 
L 36.308412 24.901478 
L 36.406488 24.823903 
L 36.40987 24.836943 
L 36.494419 24.731553 
L 36.54853 24.706581 
L 36.585731 24.801037 
L 36.606023 24.729057 
L 36.643224 24.766498 
L 36.721009 24.720185 
L 36.798794 24.702317 
L 36.764974 24.792651 
L 36.822468 24.744467 
L 36.920544 24.799123 
L 36.940836 24.778671 
L 37.022002 24.720284 
L 37.055822 24.777368 
L 37.109933 24.813832 
L 37.06935 24.748195 
L 37.160662 24.742673 
L 37.258739 24.789868 
L 37.170808 24.756666 
L 37.262121 24.800367 
L 37.410926 24.837909 
L 37.272266 24.786546 
L 37.414308 24.83492 
L 37.448128 24.809067 
L 37.498857 24.904423 
L 37.52253 24.859554 
L 37.664572 24.830579 
L 37.536058 24.878401 
L 37.6781 24.861335 
L 37.759267 24.911375 
L 37.698392 24.81026 
L 37.789704 24.86037 
L 37.924982 24.732033 
L 37.830288 24.882776 
L 37.948656 24.748279 
L 38.050114 24.789639 
L 37.972329 24.728066 
L 38.070406 24.767312 
L 38.134663 24.782617 
L 38.080552 24.787789 
L 38.161718 24.832922 
L 38.290232 24.858018 
L 38.415364 24.638586 
L 38.452566 24.670575 
L 38.56417 24.720244 
L 38.570934 24.717299 
L 38.638573 24.738486 
L 38.672392 24.660305 
L 38.726503 24.600674 
L 38.79076 24.638607 
L 38.871927 24.641822 
L 38.804288 24.584664 
L 38.895601 24.603256 
L 39.399511 24.390521 
L 39.406274 24.410577 
L 39.663302 24.60032 
L 39.446858 24.363424 
L 39.670066 24.570002 
L 39.761379 24.423183 
L 39.808726 24.437023 
L 39.856073 24.387372 
L 39.927094 24.42968 
L 40.211178 24.614887 
L 40.228087 24.586645 
L 40.255143 24.524011 
L 40.326164 24.6622 
L 40.454678 24.783587 
L 40.495261 24.748399 
L 40.566282 24.71486 
L 40.549372 24.766403 
L 40.603483 24.770066 
L 40.715088 24.899227 
L 40.660977 24.750756 
L 40.742143 24.873252 
L 40.833456 24.847615 
L 40.792872 24.918817 
L 40.846984 24.880995 
L 40.867275 24.917683 
L 40.94506 24.80264 
L 41.117539 24.657588 
L 41.239289 24.521832 
L 41.246053 24.536572 
L 41.269727 24.583144 
L 41.330602 24.497445 
L 41.354276 24.518006 
L 41.438824 24.588874 
L 41.472644 24.54764 
L 41.486171 24.59363 
L 41.567338 24.4879 
L 41.702616 24.424338 
L 41.574102 24.491107 
L 41.705998 24.433984 
L 41.827748 24.44825 
L 41.84804 24.384944 
L 41.990081 24.314466 
L 41.875095 24.404121 
L 42.000227 24.336944 
L 42.006991 24.360926 
L 42.064484 24.26663 
L 42.101686 24.291832 
L 42.216672 24.239588 
L 42.17947 24.308776 
L 42.220054 24.246459 
L 42.551485 24.39128 
L 42.565012 24.353737 
L 42.571776 24.320907 
L 42.666471 24.412226 
L 42.757783 24.39589 
L 42.771311 24.344992 
L 42.825422 24.298551 
L 42.862624 24.367859 
L 42.879533 24.361359 
L 42.903207 24.322631 
L 43.126415 24.437168 
L 43.23802 24.306748 
L 43.248165 24.342095 
L 43.339478 24.359047 
L 43.288749 24.293093 
L 43.35977 24.337956 
L 43.46461 24.272554 
L 43.478138 24.291711 
L 43.484902 24.303263 
L 43.549159 24.203238 
L 43.907645 24.163217 
L 43.914409 24.195049 
L 44.039541 24.351264 
L 44.046305 24.329948 
L 44.154527 24.359451 
L 44.164673 24.319071 
L 44.269513 24.194208 
L 44.286423 24.206608 
L 44.323624 24.261274 
L 44.381117 24.157725 
L 44.435229 24.145692 
L 44.47243 24.217231 
L 44.475812 24.213349 
L 44.509631 24.221063 
L 44.523159 24.150502 
L 44.570506 24.145035 
L 44.719312 24.003373 
L 44.59418 24.165624 
L 44.722694 24.01273 
L 44.82077 24.114194 
L 44.83768 24.073206 
L 44.908701 23.986932 
L 44.966194 24.058726 
L 45.368646 23.882138 
L 45.372028 23.855702 
L 45.443049 23.949039 
L 45.470104 23.950668 
L 45.490396 23.931872 
L 45.503924 23.987577 
L 45.568181 23.994905 
L 45.63582 24.008878 
L 45.666257 23.950206 
L 45.669639 23.956748 
L 45.804917 23.818859 
L 45.825209 23.865066 
L 45.936813 23.95801 
L 45.842118 23.856511 
L 45.96725 23.924043 
L 46.004452 23.845037 
L 46.061945 23.982806 
L 46.065327 23.968562 
L 46.149875 24.010963 
L 46.126202 23.919871 
L 46.176931 23.977139 
L 46.376466 23.756529 
L 46.38323 23.766045 
L 46.528653 23.605522 
L 46.559091 23.573169 
L 46.606438 23.635176 
L 46.640258 23.598925 
L 46.690987 23.650636 
L 46.74848 23.592034 
L 46.778917 23.525517 
L 46.85332 23.633228 
L 46.964924 23.578323 
L 46.968306 23.565631 
L 47.069765 23.566619 
L 47.00889 23.611223 
L 47.076529 23.586237 
L 47.198279 23.605404 
L 47.106966 23.556347 
L 47.201661 23.589326 
L 47.350466 23.457355 
L 47.370758 23.508685 
L 47.37414 23.519964 
L 47.448543 23.396317 
L 47.580439 23.205834 
L 47.641314 23.205169 
L 47.61764 23.155848 
L 47.671751 23.170653 
L 47.685279 23.104443 
L 47.752918 23.181552 
L 47.783355 23.165483 
L 48.006564 23.130242 
L 48.124932 23.069645 
L 48.135078 23.107428 
L 48.192571 22.949362 
L 48.223008 22.982903 
L 48.304175 23.005414 
L 48.344759 22.908471 
L 48.459745 23.007972 
L 48.466509 22.986146 
L 48.574731 22.923607 
L 48.584877 22.935639 
L 48.611932 22.973648 
L 48.686335 22.891163 
L 48.845287 22.679286 
L 49.054967 22.871852 
L 49.071877 22.835996 
L 49.207155 22.789883 
L 49.217301 22.808934 
L 49.244356 22.801042 
L 49.339051 22.904343 
L 49.379634 22.857484 
L 49.399926 22.945658 
L 49.454037 22.917128 
L 49.460801 22.936272 
L 49.525058 22.826432 
L 49.558877 22.882171 
L 49.714447 22.719486 
L 49.565641 22.89601 
L 49.731356 22.753101 
L 49.768558 22.805535 
L 49.842961 22.749569 
L 49.981621 22.562792 
L 49.985002 22.580465 
L 50.096607 22.620028 
L 50.052641 22.560479 
L 50.099989 22.603908 
L 50.296142 22.41932 
L 50.336725 22.445977 
L 50.417892 22.386338 
L 50.580225 22.34763 
L 50.600517 22.387199 
L 50.607281 22.408357 
L 50.691829 22.336618 
L 50.698593 22.341515 
L 50.830489 22.19359 
L 50.965767 22.132555 
L 50.986059 22.104342 
L 51.053697 22.222406 
L 51.063843 22.209612 
L 51.192357 22.130608 
L 51.195739 22.142008 
L 51.293816 22.248558 
L 51.263378 22.130154 
L 51.317489 22.228823 
L 51.52717 22.083337 
L 51.571135 22.114907 
L 51.659066 21.998951 
L 51.706413 22.005458 
L 51.740233 21.885357 
L 51.746996 21.897298 
L 52.04799 21.523124 
L 52.193413 21.164602 
L 52.210323 21.171147 
L 52.217087 21.181727 
L 52.271198 21.052127 
L 52.443677 20.586087 
L 52.447059 20.595448 
L 52.480879 20.373077 
L 52.531608 19.317393 
L 52.5519 9.115217 
L 52.616157 21.943699 
L 52.629684 22.480464 
L 52.720997 21.510702 
L 52.835983 19.424603 
L 52.852893 9.94095 
L 52.920532 22.31375 
L 52.93406 22.808039 
L 53.02199 21.616986 
L 53.130213 18.664162 
L 53.140358 10.314798 
L 53.221525 22.898249 
L 53.231671 22.809384 
L 53.414296 19.04504 
L 53.427824 10.320465 
L 53.50899 22.988615 
L 53.569866 22.166251 
L 53.708525 18.691981 
L 53.718671 10.343082 
L 53.799838 23.145265 
L 53.809984 23.056465 
L 54.006137 19.790198 
L 54.019664 17.575939 
L 54.02981 10.178443 
L 54.110977 23.289658 
L 54.124505 23.157009 
L 54.222581 21.903777 
L 54.354477 17.538765 
L 54.364623 10.04754 
L 54.442408 23.439009 
L 54.459317 23.340985 
L 54.719727 19.217813 
L 54.733255 9.938248 
L 54.807658 23.380484 
L 54.821186 23.546723 
L 54.902352 22.766659 
L 55.068068 20.803535 
L 55.139089 19.20345 
L 55.152616 9.905966 
L 55.227019 23.480387 
L 55.237165 23.637061 
L 55.318332 22.970519 
L 55.629471 19.019448 
L 55.642999 9.956061 
L 55.720783 23.553586 
L 55.724165 23.575173 
L 55.774895 23.192 
L 56.157054 19.185666 
L 56.173964 9.905543 
L 56.238221 23.173798 
L 56.248367 23.586604 
L 56.343061 22.916123 
L 56.772569 18.583336 
L 56.786096 10.123363 
L 56.863881 23.489821 
L 56.870645 23.467922 
L 57.046506 22.13366 
L 57.239277 20.911539 
L 57.472632 19.735901 
L 57.499687 16.72221 
L 57.509833 10.601397 
L 57.584236 23.272506 
L 57.601145 23.170561 
L 57.915667 20.994621 
L 58.230188 20.155941 
L 58.257243 20.164694 
L 58.280917 20.262002 
L 58.433104 20.714481 
L 58.473688 20.663153 
L 58.595438 20.886483 
L 58.646167 20.802092 
L 58.696896 20.810987 
L 58.679986 20.862518 
L 58.72057 20.869275 
L 58.815264 20.980455 
L 58.737479 20.862225 
L 58.849084 20.974582 
L 58.913341 21.120755 
L 59.183896 21.412415 
L 59.197424 21.39365 
L 59.234626 21.499858 
L 59.265063 21.491106 
L 59.424015 21.753728 
L 59.454452 21.789482 
L 59.474744 21.849585 
L 59.758827 22.41 
L 59.765591 22.392359 
L 59.809556 22.486659 
L 59.853522 22.487101 
L 60.844432 24.64384 
L 59.860286 22.474423 
L 60.861342 24.590508 
L 60.87487 24.564107 
L 60.932363 24.722898 
L 61.057495 24.868477 
L 61.060877 24.84953 
L 61.064258 24.838281 
L 61.114988 24.992546 
L 61.135279 24.966264 
L 61.172481 25.001815 
L 61.236738 24.908294 
L 61.246884 24.964661 
L 61.46671 25.146101 
L 61.561405 25.31211 
L 61.612134 25.259936 
L 61.686537 25.192488 
L 61.72712 25.243951 
L 61.875926 25.424068 
L 61.896217 25.384967 
L 61.899599 25.388874 
L 61.930037 25.287772 
L 61.963856 25.298858 
L 61.984148 25.285624 
L 62.031495 25.385189 
L 62.041641 25.373544 
L 62.160009 25.476457 
L 62.061933 25.358354 
L 62.173537 25.469232 
L 62.288523 25.384284 
L 62.295287 25.398743 
L 62.430565 25.509671 
L 62.464384 25.51633 
L 62.49144 25.424696 
L 62.525259 25.466762 
L 62.6301 25.451036 
L 62.559079 25.521999 
L 62.636864 25.471713 
L 62.724794 25.493807 
L 62.704502 25.432943 
L 62.75185 25.47976 
L 62.789051 25.409765 
L 62.866836 25.44575 
L 62.8736 25.434967 
L 63.015642 25.432787 
L 63.052843 25.403383 
L 63.076517 25.485186 
L 63.110336 25.489058 
L 63.201649 25.518646 
L 63.140774 25.465572 
L 63.22194 25.476075 
L 63.248996 25.451376 
L 63.320017 25.539543 
L 63.519551 25.515034 
L 63.600718 25.35134 
L 63.536461 25.52013 
L 63.641302 25.428653 
L 63.658211 25.477361 
L 63.732614 25.354539 
L 63.746142 25.391044 
L 63.850982 25.343872 
L 63.810399 25.427659 
L 63.857746 25.375618 
L 63.928767 25.469115 
L 63.999788 25.424247 
L 64.006552 25.386474 
L 64.040371 25.46686 
L 64.104628 25.458062 
L 64.452969 25.346708 
L 64.500316 25.274398 
L 64.561191 25.349901 
L 64.632212 25.379992 
L 64.64574 25.33047 
L 64.669413 25.346664 
L 64.818219 25.106323 
L 64.902768 25.151693 
L 64.933205 25.108651 
L 65.088775 25.132975 
L 64.939969 25.090123 
L 65.102302 25.075137 
L 65.274782 25.000306 
L 65.284927 24.986195 
L 65.457407 25.092403 
L 65.575775 24.918585 
L 65.585921 24.937391 
L 65.782074 24.71953 
L 65.596067 24.94733 
L 65.795601 24.731458 
L 65.88015 24.748385 
L 65.805747 24.721573 
L 65.907206 24.732224 
L 66.03572 24.648792 
L 66.062775 24.681707 
L 66.072921 24.686628 
L 66.127032 24.595502 
L 66.14056 24.61467 
L 66.191289 24.547722 
L 66.252164 24.616196 
L 66.380678 24.708074 
L 66.515956 24.533101 
L 66.526102 24.558872 
L 66.536248 24.58698 
L 66.600505 24.416707 
L 66.735782 24.484417 
L 66.739164 24.476034 
L 66.833859 24.424214 
L 66.813567 24.53921 
L 66.854151 24.458571 
L 66.915026 24.411359 
L 66.969137 24.46622 
L 67.094269 24.573559 
L 67.121324 24.534183 
L 67.134852 24.517964 
L 67.168672 24.596916 
L 67.195727 24.609021 
L 67.297185 24.58353 
L 67.25322 24.531628 
L 67.300567 24.571907 
L 67.358061 24.475253 
L 67.412172 24.564061 
L 67.462901 24.536934 
L 67.503484 24.631307 
L 67.510248 24.624692 
L 67.520394 24.651178 
L 67.588033 24.551532 
L 67.591415 24.552077 
L 67.703019 24.54512 
L 67.621852 24.605772 
L 67.706401 24.5481 
L 67.797714 24.714787 
L 67.838297 24.693351 
L 67.916082 24.636358 
L 67.949901 24.689195 
L 68.004012 24.770633 
L 68.071651 24.733365 
L 68.210311 24.90863 
L 68.271186 24.784584 
L 68.38279 24.726633 
L 68.298242 24.803139 
L 68.389554 24.747662 
L 68.531596 24.770585 
L 68.534978 24.747318 
L 68.636436 24.655245 
L 68.66011 24.675854 
L 69.1302 24.681702 
L 69.221513 24.590745 
L 69.248569 24.651909 
L 69.295916 24.650303 
L 69.322971 24.559918 
L 69.363555 24.545759 
L 69.414284 24.650472 
L 69.508978 24.72343 
L 69.532652 24.688538 
L 69.536034 24.67816 
L 69.600291 24.764639 
L 69.627346 24.736998 
L 69.63411 24.760863 
L 69.694985 24.615955 
L 69.701749 24.628897 
L 69.809972 24.640818 
L 69.752479 24.690031 
L 69.813354 24.644284 
L 69.938486 24.793506 
L 70.009506 24.714023 
L 70.05009 24.74086 
L 70.141402 24.606434 
L 70.158312 24.636956 
L 70.209041 24.539201 
L 70.242861 24.544365 
L 70.367993 24.520838 
L 70.249625 24.554628 
L 70.381521 24.570426 
L 70.384902 24.583269 
L 70.452541 24.486641 
L 70.479597 24.512335 
L 70.628403 24.417897 
L 70.709569 24.497314 
L 70.743389 24.456947 
L 70.750153 24.419376 
L 70.821174 24.52544 
L 70.851611 24.469771 
L 70.973361 24.498209 
L 70.878667 24.446735 
L 70.993653 24.477585 
L 71.041 24.509869 
L 71.139076 24.373081 
L 71.281118 24.439901 
L 71.172896 24.344497 
L 71.291264 24.413259 
L 71.680188 24.382173 
L 71.68357 24.409312 
L 71.808702 24.60349 
L 71.82223 24.596096 
L 72.004855 24.321543 
L 72.021764 24.335937 
L 72.150278 24.406682 
L 72.058966 24.296736 
L 72.15366 24.390966 
L 72.471563 24.239344 
L 72.163806 24.414301 
L 72.491855 24.28799 
L 72.596695 24.388171 
L 72.620369 24.365001 
L 72.637279 24.351683 
L 72.704918 24.478331 
L 72.968709 24.505915 
L 73.097223 24.362385 
L 73.415126 24.383645 
L 73.418508 24.373773 
L 73.503057 24.261188 
L 73.54364 24.31554 
L 73.604515 24.389077 
L 73.638335 24.271036 
L 73.648481 24.278945 
L 73.776995 24.148686 
L 73.895363 24.23552 
L 73.905509 24.196538 
L 73.956238 24.072597 
L 74.030641 24.170278 
L 74.094898 24.230235 
L 74.037404 24.16191 
L 74.149009 24.18669 
L 74.213266 24.168757 
L 74.199738 24.209053 
L 74.257231 24.203256 
L 74.578516 24.206996 
L 74.581898 24.191336 
L 74.70703 24.047332 
L 74.730703 24.094557 
L 74.882891 24.129804 
L 74.750995 24.067657 
L 74.886273 24.109917 
L 75.008023 24.044794 
L 75.133155 24.260015 
L 75.024933 24.034846 
L 75.153447 24.217972 
L 75.281961 24.160241 
L 75.346218 24.21717 
L 75.396947 24.195493 
L 75.555898 24.048294 
L 75.670885 23.969054 
L 75.694558 23.888057 
L 75.758815 23.998492 
L 75.785871 23.930602 
L 75.792635 23.975022 
L 75.826454 23.878642 
L 75.890711 23.904394 
L 75.931294 23.752655 
L 76.012461 23.846572 
L 76.015843 23.861835 
L 76.049662 23.778974 
L 76.113919 23.793753 
L 76.120683 23.823948 
L 76.188322 23.731931 
L 76.198468 23.736853 
L 76.3236 23.655256 
L 76.228906 23.749883 
L 76.326982 23.663259 
L 76.435204 23.560975 
L 76.543427 23.530758 
L 76.506225 23.589393 
L 76.546809 23.544079 
L 76.563718 23.570499 
L 76.634739 23.462601 
L 76.644885 23.422436 
L 76.671941 23.480347 
L 76.736198 23.488905 
L 76.763253 23.554446 
L 76.847802 23.494797 
L 76.881621 23.443444 
L 76.945878 23.548833 
L 77.016899 23.539143 
L 77.060864 23.59001 
L 77.189378 23.597539 
L 77.091302 23.558298 
L 77.19276 23.582236 
L 77.294219 23.463532 
L 77.216434 23.587849 
L 77.317892 23.496318 
L 77.388913 23.500721 
L 77.409205 23.564698 
L 77.412587 23.540499 
L 77.463316 23.549004 
L 77.497135 23.446117 
L 77.503899 23.438693 
L 77.547865 23.544408 
L 77.588448 23.498414 
L 77.706816 23.579551 
L 77.632413 23.491326 
L 77.710198 23.573751 
L 77.960462 23.483208 
L 78.203962 23.26312 
L 78.318948 23.287841 
L 78.25131 23.216014 
L 78.325712 23.283747 
L 78.937845 23.209957 
L 79.029157 23.286922 
L 78.9649 23.169405 
L 79.056213 23.253363 
L 79.164435 23.236153 
L 79.090032 23.30465 
L 79.167817 23.257475 
L 79.313241 23.189929 
L 79.333532 23.223554 
L 79.336914 23.255668 
L 79.367352 23.163059 
L 79.438373 23.186243 
L 79.604088 23.001537 
L 79.60747 23.004237 
L 79.749512 23.111378 
L 79.62438 22.965287 
L 79.759658 23.084621 
L 79.962574 22.859111 
L 79.776567 23.103658 
L 79.97272 22.883249 
L 79.996394 22.897181 
L 80.036977 22.785163 
L 80.067415 22.816486 
L 81.173311 22.170984 
L 80.087706 22.87508 
L 81.186839 22.198182 
L 81.25786 22.249152 
L 81.291679 22.171991 
L 81.913957 21.767262 
L 82.066145 21.579553 
L 81.954541 21.77897 
L 82.072909 21.587872 
L 82.309645 21.28152 
L 82.313027 21.29047 
L 82.323173 21.303066 
L 82.380666 21.126001 
L 82.384048 21.125435 
L 82.444923 20.906037 
L 82.570055 20.275546 
L 82.607256 18.673734 
L 82.624166 9.095704 
L 82.698569 22.543678 
L 82.708715 22.508282 
L 82.904868 19.950071 
L 82.925159 16.519903 
L 82.931923 10.046557 
L 83.01309 22.774423 
L 83.03 22.608001 
L 83.209243 18.901154 
L 83.222771 10.32159 
L 83.297173 22.837895 
L 83.307319 22.782881 
L 83.48318 19.573533 
L 83.503472 10.464274 
L 83.564347 20.28334 
L 83.581257 22.905906 
L 83.675951 21.525079 
L 83.774028 18.903363 
L 83.787556 10.408641 
L 83.86534 23.030587 
L 83.872104 22.979175 
L 84.064875 19.481005 
L 84.081785 10.269577 
L 84.146042 20.918505 
L 84.162952 23.183033 
L 84.257646 21.910489 
L 84.38616 18.529382 
L 84.396306 10.140404 
L 84.480855 23.339357 
L 84.487618 23.284986 
L 84.727737 19.445919 
L 84.744646 9.971705 
L 84.812285 22.480523 
L 84.825813 23.490133 
L 84.920508 22.53391 
L 85.123424 18.143593 
L 85.13357 9.88893 
L 85.214737 23.571111 
L 85.228265 23.509308 
L 85.546168 19.871468 
L 85.563077 17.792429 
L 85.573223 9.857587 
L 85.65439 23.627866 
L 85.667918 23.53177 
L 85.762612 22.724303 
L 86.063605 18.114103 
L 86.073751 9.912367 
L 86.154918 23.624023 
L 86.165064 23.545265 
L 86.205647 23.239421 
L 86.641918 19.411057 
L 86.665592 10.230762 
L 86.716321 20.67381 
L 86.739995 23.453531 
L 86.831307 22.763876 
L 87.206703 20.134098 
L 87.237141 19.885818 
L 87.264196 18.790893 
L 87.281106 10.25975 
L 87.352127 23.392694 
L 87.355509 23.387545 
L 87.358891 23.396961 
L 87.389328 23.157048 
L 87.835745 20.344701 
L 87.839127 20.351412 
L 87.876329 20.188372 
L 87.879711 20.190959 
L 88.001461 18.918313 
L 88.021752 10.79711 
L 88.079245 22.853412 
L 88.092773 23.14334 
L 88.180704 22.483139 
L 88.671086 18.314238 
L 88.687996 10.439918 
L 88.759017 23.340838 
L 88.769162 23.306952 
L 88.975461 21.813868 
L 89.222343 20.757732 
L 89.229107 20.758864 
L 89.246017 20.635676 
L 89.249399 20.635658 
L 89.306892 20.517184 
L 89.398204 20.414161 
L 89.428642 20.495108 
L 89.557156 20.675431 
L 89.56392 20.673282 
L 89.567302 20.664829 
L 89.590975 20.748712 
L 89.661996 20.719558 
L 89.736399 20.861078 
L 89.902114 21.075612 
L 89.756691 20.850777 
L 89.905496 21.065771 
L 89.908878 21.050475 
L 89.986663 21.199212 
L 90.247073 21.622635 
L 90.257219 21.598372 
L 90.321476 21.627607 
L 90.274129 21.625654 
L 90.341767 21.656546 
L 90.517629 22.026686 
L 90.541302 22.000637 
L 90.612323 22.078191 
L 90.615705 22.077372 
L 90.794948 22.466285 
L 90.79833 22.453821 
L 90.859205 22.621962 
L 91.004629 22.945628 
L 91.011393 22.926491 
L 91.014775 22.907686 
L 91.068886 23.011537 
L 91.068886 23.011537 
" clip-path="url(#pa78f7cd9c6)" style="fill: none; stroke: #000000; stroke-width: 0.6; stroke-linecap: square"/>
   </g>
   <g id="line2d_2">
    <path d="M 9.905557 39.945262 
L 9.929231 41.283752 
L 10.017161 40.426582 
L 10.365502 35.180916 
L 10.37903 28.796383 
L 10.45005 41.198777 
L 10.463578 41.114367 
L 10.859266 37.657341 
L 10.903231 37.223163 
L 10.933669 35.337374 
L 10.950578 29.342677 
L 11.018217 41.016833 
L 11.028363 40.961241 
L 11.511982 36.848123 
L 11.535655 32.675189 
L 11.545801 29.847912 
L 11.623586 40.826333 
L 11.626968 40.805205 
L 11.73519 39.742469 
L 12.184989 35.837207 
L 12.208662 30.770847 
L 12.266156 40.292415 
L 12.279683 40.471301 
L 12.350704 39.884849 
L 12.685517 37.856356 
L 12.7261 37.74063 
L 12.793739 37.597459 
L 12.857996 37.722732 
L 13.118406 38.48301 
L 13.138698 38.474033 
L 13.175899 38.544036 
L 13.206337 38.551578 
L 13.372052 38.834999 
L 13.47351 38.965847 
L 13.635844 39.175683 
L 13.639226 39.164054 
L 13.700101 39.349732 
L 13.859052 39.700517 
L 13.862434 39.698491 
L 13.936837 39.828918 
L 13.963893 39.790295 
L 14.068733 39.952628 
L 14.153282 40.099497 
L 14.163427 40.082919 
L 14.349434 40.534472 
L 14.369726 40.542359 
L 14.390018 40.614091 
L 14.396782 40.617432 
L 14.518532 40.823829 
L 14.525296 40.805083 
L 14.535441 40.807922 
L 14.565879 40.901605 
L 14.576025 40.90206 
L 15.475623 42.053422 
L 15.485768 42.04625 
L 15.48915 42.028026 
L 15.580463 42.131013 
L 15.583845 42.123853 
L 15.722505 42.102236 
L 15.729269 42.119616 
L 15.78338 42.021714 
L 15.827345 42.066458 
L 15.925421 42.038941 
L 15.854401 42.115033 
L 15.935567 42.079907 
L 16.084373 42.239321 
L 16.104665 42.220261 
L 16.219651 42.102845 
L 16.229797 42.139799 
L 16.371838 42.17456 
L 16.388748 42.114087 
L 16.534172 41.910219 
L 16.611957 41.968806 
L 16.632248 41.888007 
L 16.642394 41.897655 
L 16.645776 41.893569 
L 16.696505 41.993508 
L 16.706651 42.03471 
L 16.733707 41.966806 
L 16.797964 41.965057 
L 16.970443 41.68015 
L 17.109103 41.748078 
L 17.00088 41.627427 
L 17.115867 41.712163 
L 17.200415 41.622716 
L 17.146304 41.734669 
L 17.234235 41.693496 
L 17.318783 41.714408 
L 17.284964 41.625686 
L 17.335693 41.651326 
L 17.55552 41.424353 
L 17.342457 41.671102 
L 17.562283 41.430723 
L 17.62654 41.54884 
L 17.673888 41.437358 
L 17.771964 41.419742 
L 17.734763 41.461364 
L 17.78211 41.454234 
L 17.792256 41.449274 
L 17.910624 41.477867 
L 17.974881 41.535973 
L 18.028992 41.489727 
L 18.13045 41.564301 
L 18.150742 41.48785 
L 18.255582 41.330775 
L 18.299548 41.376314 
L 18.340131 41.425195 
L 18.397624 41.327015 
L 18.404388 41.328164 
L 18.519374 41.374674 
L 18.472027 41.286777 
L 18.522756 41.367944 
L 18.600541 41.384256 
L 18.617451 41.305372 
L 18.695235 41.242941 
L 18.722291 41.328744 
L 18.762874 41.355264 
L 18.776402 41.282297 
L 18.827131 41.314148 
L 18.931972 41.268147 
L 18.888006 41.336135 
L 18.938736 41.284503 
L 18.942118 41.305076 
L 19.040194 41.221817 
L 19.117979 41.14666 
L 19.165326 41.181136 
L 19.29384 41.247184 
L 19.307368 41.21693 
L 19.358097 41.202513 
L 19.391916 41.270674 
L 19.408826 41.249223 
L 19.547486 41.371286 
L 19.41559 41.241848 
L 19.567778 41.313062 
L 19.672618 41.254298 
L 19.574541 41.316733 
L 19.69291 41.275623 
L 19.767312 41.361346 
L 19.804514 41.278886 
L 19.892444 41.372912 
L 19.990521 41.41041 
L 19.970229 41.355257 
L 20.007431 41.38816 
L 20.17991 41.316233 
L 20.051396 41.446975 
L 20.186674 41.333405 
L 20.217111 41.368397 
L 20.28475 41.295201 
L 20.291514 41.305174 
L 20.386209 41.221279 
L 20.305042 41.318543 
L 20.413264 41.26188 
L 20.426792 41.277883 
L 20.501195 41.139214 
L 20.504577 41.152405 
L 20.56207 41.009564 
L 20.626327 41.069045 
L 20.761605 41.04418 
L 20.633091 41.079628 
L 20.764987 41.052745 
L 20.886737 41.001476 
L 20.890119 40.986033 
L 20.896882 40.953459 
L 20.988195 41.077839 
L 21.076126 41.102821 
L 21.096417 41.062075 
L 21.17082 41.000499 
L 21.116709 40.997006 
L 21.174202 40.99449 
L 21.265515 40.866767 
L 21.299334 40.919872 
L 21.323008 40.980453 
L 21.380501 40.858837 
L 21.397411 40.871919 
L 21.488723 40.706214 
L 21.519161 40.719042 
L 21.53607 40.765403 
L 21.617237 40.685837 
L 21.627383 40.70296 
L 21.877647 40.824062 
L 21.992633 40.684207 
L 21.901321 40.843256 
L 22.009543 40.717866 
L 22.053508 40.630267 
L 22.090709 40.662006 
L 22.215842 40.586694 
L 22.28348 40.621632 
L 22.290244 40.640054 
L 22.395085 40.709951 
L 22.337592 40.63013 
L 22.405231 40.694786 
L 22.411994 40.668602 
L 22.489779 40.775081 
L 22.510071 40.714793 
L 22.574328 40.747902 
L 22.625057 40.705722 
L 22.692696 40.627253 
L 22.648731 40.724792 
L 22.729897 40.722309 
L 22.750189 40.743833 
L 22.784008 40.648055 
L 22.834738 40.698371 
L 22.83812 40.684898 
L 22.92605 40.777998 
L 22.983543 40.862471 
L 23.06471 40.809602 
L 23.206752 40.723801 
L 23.227043 40.756266 
L 23.230425 40.761714 
L 23.287918 40.6705 
L 23.30821 40.687639 
L 23.42996 40.497732 
L 23.470544 40.554148 
L 23.683606 40.879687 
L 23.693752 40.858493 
L 23.70728 40.932358 
L 23.758009 40.939503 
L 23.879759 41.139489 
L 23.893287 41.091216 
L 23.910197 41.053026 
L 23.947398 41.216038 
L 23.987981 41.210462 
L 24.197662 41.530635 
L 24.204426 41.517718 
L 24.207808 41.512194 
L 24.261919 41.591002 
L 24.288975 41.585815 
L 24.380287 41.537087 
L 24.312648 41.531706 
L 24.387051 41.530297 
L 24.769211 41.677043 
L 24.796267 41.759431 
L 24.846996 41.656698 
L 24.877433 41.669684 
L 24.945072 41.61712 
L 24.992419 41.66782 
L 25.110788 41.741783 
L 25.029621 41.654834 
L 25.114169 41.725132 
L 25.246065 41.76287 
L 25.256211 41.743535 
L 25.286649 41.722942 
L 25.296795 41.788935 
L 25.344142 41.807648 
L 25.499711 41.874285 
L 25.523385 41.827657 
L 25.682336 41.846905 
L 25.783795 41.913243 
L 25.736448 41.834891 
L 25.800705 41.899438 
L 25.824378 41.85796 
L 25.878489 41.942916 
L 25.905545 41.941087 
L 25.908927 41.952504 
L 25.990094 41.855009 
L 26.054351 41.744399 
L 26.111844 41.798718 
L 26.179483 41.799145 
L 26.125371 41.766885 
L 26.216684 41.765153 
L 26.240358 41.791819 
L 26.341816 41.725218 
L 26.483858 41.803485 
L 26.514295 41.756666 
L 26.588698 41.711521 
L 26.524441 41.768762 
L 26.625899 41.765578 
L 26.734122 41.864612 
L 26.74765 41.824325 
L 26.876163 41.901817 
L 26.811907 41.763087 
L 26.889691 41.875928 
L 26.950566 41.844401 
L 26.906601 41.844424 
L 26.953948 41.809003 
L 26.977622 41.855903 
L 27.068934 41.768959 
L 27.241414 41.843249 
L 27.248178 41.826381 
L 27.342872 41.788387 
L 27.281997 41.852849 
L 27.359782 41.81344 
L 27.47815 41.795882 
L 27.376692 41.776717 
L 27.491678 41.767532 
L 27.532261 41.817526 
L 27.606664 41.786083 
L 27.633719 41.838138 
L 27.660775 41.753838 
L 27.718268 41.808947 
L 27.819727 41.707393 
L 27.725032 41.818491 
L 27.846782 41.752276 
L 27.86031 41.828805 
L 27.924567 41.653348 
L 27.944859 41.652592 
L 28.073372 41.798197 
L 28.080136 41.791148 
L 28.110574 41.768084 
L 28.181595 41.832541 
L 28.188359 41.808738 
L 28.201886 41.794143 
L 28.24247 41.886379 
L 28.279671 41.874333 
L 28.3304 41.872881 
L 28.374366 41.814439 
L 28.377748 41.823875 
L 28.472442 41.735308 
L 28.499498 41.777536 
L 28.546845 41.749558 
L 28.631394 41.839278 
L 28.699033 41.759714 
L 28.753144 41.821882 
L 28.793727 41.827889 
L 28.76329 41.806776 
L 28.830928 41.760162 
L 28.939151 41.681958 
L 28.837692 41.764048 
L 28.952679 41.684344 
L 29.023699 41.720675 
L 28.979734 41.652229 
L 29.064283 41.688489 
L 29.23338 41.704891 
L 29.240144 41.723368 
L 29.361894 41.863516 
L 29.375422 41.826636 
L 29.713616 41.587962 
L 29.716998 41.606969 
L 29.784637 41.611525 
L 29.757582 41.590235 
L 29.821839 41.577944 
L 29.913151 41.446247 
L 30.007846 41.383201 
L 30.024755 41.427418 
L 30.031519 41.448955 
L 30.10254 41.324649 
L 30.116068 41.334258 
L 30.264874 41.302187 
L 30.268256 41.311242 
L 30.27502 41.329446 
L 30.325749 41.243246 
L 30.376478 41.299184 
L 30.461027 41.126098 
L 30.511756 41.151148 
L 30.562485 41.158423 
L 30.528665 41.105668 
L 30.599686 41.083202 
L 30.755256 40.961879 
L 30.76202 40.998288 
L 30.765402 41.006657 
L 30.836423 40.936747 
L 30.84995 40.947782 
L 30.931117 40.893901 
L 30.870242 40.952343 
L 30.964937 40.913648 
L 31.046103 40.895865 
L 31.002138 40.862892 
L 31.063013 40.862596 
L 31.161089 40.854548 
L 31.103596 40.884452 
L 31.174617 40.869534 
L 31.235492 40.738596 
L 31.303131 40.829328 
L 31.320041 40.858224 
L 31.357242 40.788072 
L 31.407972 40.802665 
L 31.604124 40.571547 
L 31.617652 40.58371 
L 31.705583 40.640709 
L 31.627798 40.577491 
L 31.725874 40.574179 
L 31.854388 40.449563 
L 31.85777 40.456093 
L 32.324479 40.44383 
L 32.338007 40.462246 
L 32.41241 40.38177 
L 32.422555 40.388785 
L 32.693111 40.418226 
L 32.696493 40.442081 
L 32.730313 40.506878 
L 32.797951 40.389041 
L 32.801333 40.389006 
L 32.814861 40.406076 
L 32.983958 40.276702 
L 33.00425 40.320093 
L 33.088799 40.238986 
L 33.193639 40.144662 
L 33.207167 40.175201 
L 33.278188 40.185359 
L 33.217313 40.189566 
L 33.295098 40.237704 
L 33.298479 40.24703 
L 33.3695 40.118337 
L 33.383028 40.071583 
L 33.433757 40.153576 
L 33.470959 40.157108 
L 33.514924 40.188883 
L 33.538598 40.076753 
L 33.558889 40.035829 
L 33.623146 40.123697 
L 33.643438 40.12599 
L 33.822681 40.061503 
L 33.670494 40.157425 
L 33.829445 40.071796 
L 33.859883 40.036965 
L 33.944431 40.127179 
L 33.974869 40.136851 
L 34.062799 40.064095 
L 34.147348 40.179454 
L 34.089855 40.049 
L 34.184549 40.154566 
L 34.258952 40.110355 
L 34.238661 40.079626 
L 34.262334 40.079649 
L 34.41114 40.038107 
L 34.414522 40.047925 
L 34.42805 40.07126 
L 34.505834 39.955451 
L 34.519362 39.964641 
L 34.701987 39.751721 
L 34.803446 39.723786 
L 34.810209 39.692925 
L 34.959015 39.476305 
L 34.975925 39.550155 
L 35.192369 39.582724 
L 34.982689 39.532725 
L 35.199133 39.557808 
L 35.395286 39.590207 
L 35.408814 39.645776 
L 35.469689 39.520129 
L 35.496745 39.536473 
L 35.635404 39.416675 
L 35.642168 39.436335 
L 35.655696 39.474921 
L 35.713189 39.41487 
L 35.750391 39.422687 
L 35.763918 39.450645 
L 35.821411 39.354897 
L 35.838321 39.362347 
L 36.379433 38.553899 
L 36.616169 37.041482 
L 36.639842 32.338469 
L 36.65337 28.23761 
L 36.717627 40.295815 
L 36.734537 40.152953 
L 36.873197 38.193261 
L 36.927308 35.881628 
L 36.940836 27.907781 
L 37.008475 40.889856 
L 37.025384 40.757403 
L 37.218155 36.946143 
L 37.238447 27.999798 
L 37.292558 40.49913 
L 37.302704 41.065307 
L 37.394016 39.791702 
L 37.529294 35.413592 
L 37.53944 28.078257 
L 37.607079 41.143264 
L 37.630753 40.930153 
L 37.837051 35.583757 
L 37.847197 28.103825 
L 37.918218 41.249532 
L 37.93851 41.037514 
L 38.151572 37.165724 
L 38.168482 31.106851 
L 38.175246 27.974319 
L 38.239503 41.342168 
L 38.266559 41.125 
L 38.472857 37.83883 
L 38.506677 36.114324 
L 38.520205 27.933736 
L 38.587843 41.410737 
L 38.604753 41.305263 
L 38.875309 36.716202 
L 38.892219 27.922116 
L 38.953094 41.336296 
L 38.96324 41.462988 
L 39.037642 40.702655 
L 39.284524 36.215053 
L 39.301434 28.086818 
L 39.369073 41.471602 
L 39.375837 41.440168 
L 39.717414 35.801486 
L 39.730941 28.10398 
L 39.805344 41.435428 
L 39.81549 41.33826 
L 39.987969 39.367107 
L 40.167212 36.783496 
L 40.190886 28.275019 
L 40.238233 40.498786 
L 40.258525 41.437765 
L 40.346456 40.600879 
L 40.68465 34.991443 
L 40.698178 28.600613 
L 40.765817 41.266738 
L 40.782727 41.177998 
L 41.218998 35.280828 
L 41.235907 29.013795 
L 41.303546 41.151066 
L 41.313692 41.087759 
L 41.384713 40.37399 
L 41.655269 38.02162 
L 41.760109 36.983839 
L 41.783783 32.613516 
L 41.793929 29.178075 
L 41.864949 41.058576 
L 41.878477 40.970784 
L 42.409443 36.339435 
L 42.436498 30.202099 
L 42.480464 39.808954 
L 42.504137 40.691378 
L 42.592068 39.954135 
L 42.808512 38.227576 
L 43.011429 36.69652 
L 43.035103 31.940113 
L 43.045249 30.141188 
L 43.11627 40.726709 
L 43.139943 40.606482 
L 43.424027 38.253354 
L 43.48152 38.099979 
L 43.572832 37.808444 
L 43.657381 37.856602 
L 43.735166 37.853966 
L 43.765603 37.9024 
L 43.931319 38.31631 
L 43.941464 38.314497 
L 43.944846 38.311295 
L 43.992194 38.40924 
L 43.995576 38.410279 
L 44.648291 39.582341 
L 44.655055 39.560201 
L 44.668583 39.539283 
L 44.71593 39.639068 
L 44.753132 39.627809 
L 44.996632 40.151121 
L 45.010159 40.144162 
L 45.057507 40.241401 
L 45.08118 40.248865 
L 45.192785 40.34189 
L 45.20293 40.338835 
L 45.226604 40.37387 
L 45.317917 40.30923 
L 45.331444 40.283514 
L 45.372028 40.416453 
L 45.524215 40.825373 
L 45.831972 41.34566 
L 45.8455 41.325317 
L 45.899611 41.312894 
L 45.936813 41.410208 
L 46.085618 41.612164 
L 46.089 41.609746 
L 46.149875 41.661711 
L 46.119438 41.659164 
L 46.156639 41.677009 
L 46.268243 41.798561 
L 46.166785 41.667222 
L 46.285153 41.783436 
L 46.389994 41.900428 
L 46.298681 41.767273 
L 46.417049 41.887937 
L 46.518508 41.893891 
L 46.538799 41.963289 
L 46.647021 42.026819 
L 46.653785 42.00074 
L 46.76539 41.883279 
L 46.694369 42.012626 
L 46.778917 41.904692 
L 46.792445 41.898246 
L 46.900667 41.955222 
L 46.985216 41.870022 
L 47.022418 41.922661 
L 47.029181 41.945724 
L 47.106966 41.819751 
L 47.336939 41.71939 
L 47.353848 41.750394 
L 47.624404 41.673932 
L 47.661605 41.610483 
L 47.72248 41.738525 
L 47.729244 41.722018 
L 47.867904 41.688682 
L 47.73939 41.742343 
L 47.871286 41.70807 
L 47.905105 41.764446 
L 47.972744 41.638137 
L 48.077585 41.563027 
L 47.986272 41.642166 
L 48.097876 41.572776 
L 48.108022 41.604844 
L 48.175661 41.470312 
L 48.179043 41.497247 
L 48.189189 41.465951 
L 48.253446 41.552644 
L 48.287265 41.504862 
L 48.385342 41.488701 
L 48.304175 41.48583 
L 48.39887 41.475184 
L 48.4868 41.525996 
L 48.510474 41.456805 
L 48.52062 41.490078 
L 48.578113 41.412602 
L 48.611932 41.407192 
L 48.818231 41.200394 
L 48.862196 41.256272 
L 48.956891 41.288906 
L 48.896016 41.20052 
L 48.973801 41.252756 
L 48.980564 41.198 
L 49.038058 41.285257 
L 49.088787 41.23207 
L 49.210537 41.312565 
L 49.237592 41.265013 
L 49.318759 41.152727 
L 49.359342 41.176442 
L 49.450655 41.2216 
L 49.396544 41.153134 
L 49.481092 41.210229 
L 49.569023 41.30264 
L 49.596079 41.222441 
L 49.751648 41.096692 
L 49.619752 41.256791 
L 49.75503 41.103242 
L 49.812523 41.159958 
L 49.768558 41.079418 
L 49.873398 41.102515 
L 49.920745 41.137529 
L 49.991766 41.079289 
L 50.039114 41.17368 
L 50.113516 41.10943 
L 50.201447 41.025001 
L 50.228503 41.069699 
L 50.282614 41.120523 
L 50.323197 41.014973 
L 50.451711 40.880721 
L 50.455093 40.883715 
L 50.458475 40.885945 
L 50.488912 40.773667 
L 50.647864 40.69461 
L 50.681683 40.741603 
L 50.742558 40.636849 
L 50.752704 40.642974 
L 50.759468 40.658851 
L 50.813579 40.568293 
L 50.840635 40.586988 
L 50.935329 40.547744 
L 50.952239 40.590555 
L 51.077371 40.682829 
L 50.965767 40.57058 
L 51.114573 40.642313 
L 51.209267 40.558956 
L 51.236323 40.599562 
L 51.293816 40.612309 
L 51.317489 40.55705 
L 51.337781 40.555306 
L 51.449385 40.501408 
L 51.368218 40.612855 
L 51.466295 40.522385 
L 51.615101 40.654974 
L 51.476441 40.508899 
L 51.618483 40.648386 
L 51.730087 40.630512 
L 51.655684 40.667516 
L 51.733469 40.634047 
L 52.041226 40.666058 
L 52.044608 40.698216 
L 52.129156 40.614424 
L 52.146066 40.623934 
L 52.247525 40.626267 
L 52.15283 40.635549 
L 52.264434 40.640986 
L 52.76158 41.05168 
L 53.42106 41.59129 
L 52.768344 41.033953 
L 53.441352 41.508106 
L 53.522518 41.478926 
L 53.458261 41.524838 
L 53.552956 41.50261 
L 53.705143 41.647204 
L 53.711907 41.624804 
L 53.816748 41.587794 
L 53.755873 41.689588 
L 53.82013 41.613191 
L 53.826893 41.653567 
L 53.904678 41.556362 
L 53.928352 41.59376 
L 54.023046 41.683144 
L 54.060248 41.659399 
L 54.073776 41.696656 
L 54.15156 41.724451 
L 54.27331 41.786976 
L 54.388297 41.657814 
L 54.39506 41.674947 
L 54.449172 41.745741 
L 54.510047 41.674423 
L 54.760311 41.681828 
L 54.763693 41.665106 
L 54.767075 41.636039 
L 54.834713 41.734886 
L 54.868533 41.69986 
L 55.166144 41.772577 
L 55.186436 41.802667 
L 55.230401 41.727215 
L 55.277748 41.755567 
L 55.365679 41.697405 
L 55.372443 41.680779 
L 55.812096 41.603662 
L 55.822242 41.645199 
L 55.954138 41.745361 
L 55.95752 41.737308 
L 56.072506 41.681514 
L 56.004867 41.766389 
L 56.089416 41.695375 
L 56.190874 41.771632 
L 56.204402 41.737148 
L 56.329534 41.605316 
L 56.332916 41.622115 
L 56.414082 41.54614 
L 56.42761 41.543801 
L 56.502013 41.495873 
L 56.542596 41.556357 
L 56.694784 41.62904 
L 56.816534 41.524199 
L 56.819916 41.532953 
L 56.978867 41.646673 
L 56.992395 41.658373 
L 57.117527 41.530722 
L 57.181784 41.575697 
L 57.212222 41.476436 
L 57.317062 41.447036 
L 57.283243 41.510818 
L 57.33059 41.465327 
L 57.523361 41.598067 
L 57.526743 41.573893 
L 57.587618 41.553236 
L 57.550416 41.588632 
L 57.628201 41.608448 
L 57.689076 41.563303 
L 57.746569 41.631179 
L 57.810826 41.517441 
L 57.881847 41.566306 
L 57.959632 41.586467 
L 57.925812 41.649099 
L 57.97316 41.630843 
L 58.06109 41.660114 
L 58.037417 41.60884 
L 58.078 41.622064 
L 58.09491 41.625877 
L 58.213278 41.495955 
L 58.30459 41.537669 
L 58.236951 41.47237 
L 58.331646 41.518701 
L 58.341792 41.553708 
L 58.845702 41.475964 
L 58.872757 41.550931 
L 58.923486 41.442434 
L 58.953924 41.47452 
L 59.08582 41.304586 
L 59.092584 41.323928 
L 59.10273 41.378486 
L 59.19066 41.253079 
L 59.197424 41.270889 
L 59.227862 41.307425 
L 59.275209 41.209639 
L 59.383431 41.130423 
L 59.315792 41.267292 
L 59.396959 41.148099 
L 59.424015 41.173088 
L 59.471362 41.112122 
L 59.505181 41.121398 
L 59.647223 41.027779 
L 59.657369 41.03443 
L 59.664133 41.04473 
L 59.69457 40.956947 
L 59.752063 40.982687 
L 59.755445 40.975905 
L 59.796029 41.068577 
L 59.829848 41.070466 
L 59.941452 41.107864 
L 59.951598 41.08558 
L 60.049675 41.005207 
L 59.9888 41.104993 
L 60.066584 41.05379 
L 60.171425 41.08725 
L 60.09364 41.026773 
L 60.181571 41.073921 
L 60.286411 41.007878 
L 60.303321 41.025168 
L 60.330376 41.081597 
L 60.414925 41.031236 
L 60.499473 40.944228 
L 60.631369 40.754835 
L 60.651661 40.796021 
L 60.699008 40.68831 
L 60.73621 40.730653 
L 60.868106 40.672227 
L 60.888397 40.718873 
L 60.97971 40.786167 
L 61.006765 40.729458 
L 61.311141 40.592969 
L 61.341578 40.522776 
L 61.426127 40.542889 
L 61.534349 40.649862 
L 61.473474 40.492902 
L 61.547877 40.600655 
L 61.612134 40.560925 
L 61.57155 40.636022 
L 61.659481 40.624894 
L 61.706828 40.631804 
L 61.737266 40.536455 
L 61.747412 40.539277 
L 61.767703 40.608494 
L 61.933419 40.530948 
L 61.980766 40.565735 
L 62.021349 40.442698 
L 62.034877 40.449036 
L 62.173537 40.330599 
L 62.187065 40.359599 
L 62.285141 40.323493 
L 62.430565 40.227659 
L 62.437329 40.269006 
L 62.440711 40.29586 
L 62.50835 40.210824 
L 62.545551 40.249425 
L 62.758614 40.131349 
L 62.866836 40.097318 
L 62.816107 40.207441 
L 62.8736 40.099417 
L 62.954766 40.085157 
L 62.880364 40.075634 
L 62.964912 40.041461 
L 63.215176 39.887083 
L 63.218558 39.892274 
L 63.265906 39.779644 
L 63.279433 39.784121 
L 63.404565 39.811767 
L 63.424857 39.77188 
L 63.435003 39.754349 
L 63.472204 39.851037 
L 63.495878 39.85859 
L 63.654829 39.833794 
L 63.661593 39.840932 
L 63.688649 39.889876 
L 63.766434 39.818056 
L 63.769816 39.827041 
L 63.854364 39.887841 
L 63.894948 39.794587 
L 63.908475 39.856872 
L 63.965968 39.707709 
L 63.982878 39.703884 
L 64.006552 39.711406 
L 64.101246 39.651327 
L 64.192559 39.772722 
L 64.114774 39.647432 
L 64.222996 39.737781 
L 64.354892 39.656074 
L 64.365038 39.686255 
L 64.388712 39.723925 
L 64.446205 39.627251 
L 64.476642 39.676942 
L 65.129358 38.943708 
L 64.483406 39.684696 
L 65.136122 38.966017 
L 65.139504 38.975562 
L 65.210525 38.863457 
L 65.335657 38.779968 
L 65.230816 38.888447 
L 65.339039 38.802123 
L 65.541955 38.551101 
L 65.548719 38.595296 
L 65.565629 38.60779 
L 65.61974 38.484693 
L 65.646796 38.468591 
L 65.670469 38.389789 
L 65.86324 37.635832 
L 65.910588 35.991284 
L 65.930879 28.312165 
L 66.0019 40.293072 
L 66.167615 37.989792 
L 66.211581 35.934947 
L 66.225109 27.935931 
L 66.292747 40.913045 
L 66.309657 40.779918 
L 66.380678 39.714223 
L 66.515956 35.039548 
L 66.526102 27.944643 
L 66.593741 41.117011 
L 66.617414 40.888613 
L 66.820331 36.49417 
L 66.837241 28.074066 
L 66.901498 41.227165 
L 66.908262 41.208605 
L 67.134852 37.21282 
L 67.151762 32.025346 
L 67.158526 27.948543 
L 67.226165 41.322088 
L 67.25322 41.069649 
L 67.398644 38.811028 
L 67.486574 35.832273 
L 67.500102 27.954526 
L 67.571123 41.405061 
L 67.588033 41.240402 
L 67.763894 38.727021 
L 67.855207 34.763653 
L 67.865352 27.874195 
L 67.939755 41.452825 
L 67.956665 41.273292 
L 68.24413 36.315585 
L 68.26104 27.983599 
L 68.328679 41.501639 
L 68.335443 41.464495 
L 68.534978 39.058658 
L 68.663492 36.627625 
L 68.680402 28.028154 
L 68.741277 41.385475 
L 68.74804 41.508757 
L 68.829207 40.77181 
L 69.143728 34.5458 
L 69.157256 28.316514 
L 69.221513 41.388513 
L 69.245187 41.235532 
L 69.623965 36.93473 
L 69.644256 30.310555 
L 69.65102 28.426791 
L 69.715277 41.314626 
L 69.728805 41.252013 
L 69.887756 39.623118 
L 70.107583 37.775048 
L 70.17184 36.353773 
L 70.192132 28.92324 
L 70.246243 40.900749 
L 70.25977 41.140939 
L 70.340937 40.408243 
L 70.445777 39.288886 
L 70.719715 35.022416 
L 70.736625 29.24083 
L 70.800882 41.059575 
L 70.817792 40.997453 
L 70.858375 40.62805 
L 71.287882 36.854389 
L 71.308174 33.599506 
L 71.321702 29.432522 
L 71.392722 41.006659 
L 71.402868 40.957668 
L 71.538146 39.552525 
L 71.734299 38.230894 
L 71.916924 37.529366 
L 72.052202 36.688299 
L 72.082639 33.163587 
L 72.092785 31.479206 
L 72.163806 40.140987 
L 72.173952 40.169316 
L 72.207772 39.959663 
L 72.434362 38.098205 
L 72.593313 37.130025 
L 72.627133 35.06982 
L 72.644043 30.148673 
L 72.715063 40.797716 
L 72.718445 40.787127 
L 72.806376 39.985061 
L 73.131043 38.095494 
L 73.134425 38.098597 
L 73.137807 38.104462 
L 73.175008 38.01284 
L 73.215591 38.026418 
L 73.276467 38.020436 
L 73.256175 38.086752 
L 73.313668 38.075339 
L 73.448946 38.29439 
L 73.584224 38.562392 
L 73.729647 38.855049 
L 73.733029 38.836952 
L 74.368835 39.978316 
L 74.375599 39.951015 
L 74.456766 40.076747 
L 74.460148 40.075213 
L 74.466912 40.051619 
L 74.642773 40.353191 
L 74.781433 40.582248 
L 74.835544 40.699417 
L 75.028315 41.161803 
L 75.038461 41.145725 
L 75.106099 41.207611 
L 75.109481 41.235309 
L 75.258287 41.484935 
L 75.268433 41.48188 
L 75.271815 41.467796 
L 75.3496 41.612955 
L 75.488259 41.79617 
L 75.491641 41.784064 
L 75.495023 41.754899 
L 75.569426 41.875141 
L 75.5931 41.869083 
L 75.775725 41.970102 
L 75.599864 41.863041 
L 75.779107 41.965079 
L 75.829836 41.958294 
L 75.856892 42.053491 
L 75.877183 42.018052 
L 75.934676 42.088903 
L 75.978642 41.984486 
L 76.18494 41.881942 
L 76.259343 41.997485 
L 76.296545 41.919038 
L 76.320218 41.900526 
L 76.347274 42.006819 
L 76.354038 41.997336 
L 76.411531 41.977371 
L 76.47917 42.067698 
L 76.553572 42.024588 
L 76.509607 42.099449 
L 76.594156 42.030668 
L 76.678704 42.103068 
L 76.709142 42.040794 
L 76.830892 41.927956 
L 76.871475 41.856123 
L 76.939114 41.957163 
L 77.60874 41.69259 
L 77.632413 41.768353 
L 77.686524 41.832157 
L 77.740636 41.741519 
L 77.902969 41.516366 
L 77.909733 41.518204 
L 78.105886 41.473257 
L 78.237782 41.395929 
L 78.119414 41.503692 
L 78.247928 41.404574 
L 78.291893 41.41934 
L 78.318948 41.331352 
L 78.33924 41.348 
L 78.427171 41.272557 
L 78.4779 41.341542 
L 78.748456 41.270952 
L 78.86006 41.191648 
L 78.870206 41.21101 
L 78.941227 41.218671 
L 78.961518 41.158205 
L 78.968282 41.155952 
L 79.127234 41.035594 
L 79.549977 40.923851 
L 79.133997 41.053179 
L 79.553359 40.931302 
L 79.617616 41.009983 
L 79.668345 40.984178 
L 79.888172 41.07117 
L 79.898317 41.054339 
L 80.030213 40.873644 
L 80.23313 41.019859 
L 80.33797 41.050719 
L 80.273713 41.007093 
L 80.348116 41.026436 
L 80.676165 40.931592 
L 80.75395 41.007282 
L 80.689693 40.92384 
L 80.794533 40.988164 
L 80.879082 40.905813 
L 80.912901 40.942696 
L 81.000832 40.945846 
L 80.939957 40.895047 
L 81.017742 40.900123 
L 81.176693 40.673443 
L 81.261242 40.741779 
L 81.308589 40.752519 
L 81.352554 40.673014 
L 81.487832 40.534386 
L 81.497978 40.546642 
L 81.880138 40.382129 
L 81.90043 40.431098 
L 81.910575 40.439076 
L 81.981596 40.372135 
L 81.998506 40.383052 
L 82.130402 40.266759 
L 82.570055 40.42332 
L 82.593729 40.357499 
L 82.620784 40.29122 
L 82.671513 40.490241 
L 82.935305 41.019315 
L 82.97927 40.973212 
L 83.03 41.065254 
L 83.043527 41.042889 
L 83.046909 41.030689 
L 83.11793 41.134545 
L 83.138222 41.099852 
L 83.2735 41.221125 
L 83.192333 41.071742 
L 83.290409 41.174069 
L 83.314083 41.164139 
L 83.364812 41.224323 
L 83.388486 41.228564 
L 83.41216 41.195459 
L 83.466271 41.291726 
L 83.591403 41.550453 
L 83.598167 41.528453 
L 83.652278 41.464512 
L 83.615076 41.538339 
L 83.719917 41.525314 
L 83.943125 41.793296 
L 83.949889 41.764689 
L 84.027674 41.75199 
L 83.993854 41.816158 
L 84.041202 41.828549 
L 84.078403 41.903434 
L 84.156188 41.856833 
L 84.298229 41.668249 
L 84.480855 41.611804 
L 84.315139 41.692281 
L 84.494382 41.65707 
L 84.619514 41.688332 
L 84.514674 41.612456 
L 84.636424 41.669445 
L 84.639806 41.631484 
L 84.737882 41.724252 
L 84.741264 41.71768 
L 84.900216 41.77614 
L 84.90698 41.762283 
L 85.184299 41.648595 
L 85.197827 41.671718 
L 85.333105 41.763396 
L 85.363543 41.684143 
L 85.41089 41.787998 
L 85.441327 41.778215 
L 85.563077 41.83725 
L 85.475147 41.757158 
L 85.566459 41.831546 
L 85.718647 41.656328 
L 85.725411 41.675589 
L 85.806578 41.648699 
L 85.749084 41.635633 
L 85.813341 41.608892 
L 85.867453 41.568367 
L 85.908036 41.685444 
L 85.911418 41.665746 
L 85.918182 41.695565 
L 86.009494 41.575422 
L 86.012876 41.591014 
L 86.104189 41.612809 
L 86.046696 41.532175 
L 86.121099 41.581286 
L 86.12448 41.561845 
L 86.192119 41.653527 
L 86.225939 41.625181 
L 86.286814 41.678754 
L 86.337543 41.614772 
L 86.445765 41.559332 
L 86.347689 41.630358 
L 86.469439 41.596436 
L 86.547224 41.687761 
L 86.584425 41.622777 
L 86.966585 41.83003 
L 86.973349 41.802866 
L 87.122155 41.582393 
L 87.128919 41.584001 
L 87.179648 41.482905 
L 87.213467 41.470448 
L 87.260814 41.561351 
L 87.264196 41.561068 
L 87.331835 41.56967 
L 87.284488 41.541533 
L 87.358891 41.532557 
L 87.365655 41.48563 
L 87.470495 41.498664 
L 88.14012 41.461913 
L 88.238197 41.515972 
L 88.255107 41.500808 
L 88.326128 41.587222 
L 88.268634 41.485208 
L 88.376857 41.515636 
L 88.501989 41.611035 
L 88.515516 41.560594 
L 88.52228 41.568278 
L 88.657558 41.494444 
L 88.874003 41.664601 
L 88.674468 41.47065 
L 88.877385 41.645173 
L 88.972079 41.586575 
L 88.887531 41.66664 
L 89.019426 41.630233 
L 89.036336 41.650685 
L 89.097211 41.561569 
L 89.117503 41.570549 
L 89.208815 41.487925 
L 89.235871 41.52523 
L 89.333947 41.474498 
L 89.252781 41.548618 
L 89.371149 41.535072 
L 89.479371 41.631913 
L 89.519955 41.575852 
L 89.523336 41.558895 
L 89.58083 41.634322 
L 89.621413 41.620418 
L 89.65185 41.693414 
L 89.729635 41.6052 
L 89.739781 41.608432 
L 89.861531 41.472601 
L 89.96299 41.508927 
L 89.878441 41.52813 
L 89.969753 41.52313 
L 89.973135 41.547283 
L 90.061066 41.443506 
L 90.071212 41.460367 
L 90.15576 41.543084 
L 90.192962 41.452301 
L 90.304566 41.36883 
L 90.4669 41.143682 
L 90.497337 41.159632 
L 90.534538 41.192602 
L 90.639379 41.125047 
L 90.646143 41.162278 
L 90.713782 41.03465 
L 90.740837 41.045451 
L 90.842296 40.990751 
L 90.784802 41.064748 
L 90.859205 41.011305 
L 90.896407 41.044348 
L 90.869351 40.996553 
L 90.9539 40.970537 
L 91.018157 40.906672 
L 90.97081 40.988134 
L 91.065504 40.962042 
L 91.068886 40.966433 
L 91.068886 40.966433 
" clip-path="url(#pa78f7cd9c6)" style="fill: none; stroke: #000000; stroke-width: 0.6; stroke-linecap: square"/>
   </g>
   <g id="line2d_3">
    <path d="M 9.905557 57.541403 
L 9.925849 57.590184 
L 10.000252 57.491219 
L 10.013779 57.539136 
L 10.138911 57.51131 
L 10.027307 57.556917 
L 10.142293 57.512927 
L 10.422995 57.584534 
L 10.443286 57.550848 
L 10.548127 57.679165 
L 10.680023 57.685494 
L 10.751044 57.681432 
L 10.71046 57.650334 
L 10.784863 57.651381 
L 10.86603 57.511702 
L 10.906613 57.588085 
L 10.960724 57.645855 
L 11.018217 57.583842 
L 11.112912 57.650453 
L 11.048655 57.565861 
L 11.136585 57.593358 
L 11.143349 57.583359 
L 11.183933 57.652961 
L 11.224516 57.665691 
L 11.227898 57.673809 
L 11.254954 57.57742 
L 11.329356 57.631123 
L 11.420669 57.558301 
L 11.33612 57.635272 
L 11.451106 57.627591 
L 11.498454 57.608503 
L 11.569475 57.666875 
L 11.593148 57.692648 
L 11.640495 57.574967 
L 11.643877 57.586935 
L 11.775773 57.451545 
L 11.782537 57.478854 
L 12.042947 57.41522 
L 12.059857 57.354143 
L 12.097058 57.457226 
L 12.151169 57.436968 
L 12.492746 57.311288 
L 12.513038 57.365575 
L 12.553621 57.388197 
L 12.611114 57.302383 
L 12.776829 57.232506 
L 12.790357 57.29365 
L 12.793739 57.30834 
L 12.885052 57.214248 
L 13.047385 56.957634 
L 13.057531 56.964666 
L 13.115024 56.868774 
L 13.135316 56.899392 
L 13.175899 56.938608 
L 13.277357 56.751012 
L 13.301031 56.7617 
L 13.355142 56.665699 
L 13.514094 56.350501 
L 13.517476 56.351607 
L 13.52424 56.364109 
L 13.568205 56.224414 
L 13.673045 54.990327 
L 13.689955 43.765691 
L 13.76774 54.807864 
L 13.791413 58.678577 
L 13.882726 57.794564 
L 14.085643 54.592052 
L 14.095788 44.055258 
L 14.187101 58.64352 
L 14.204011 59.298793 
L 14.295323 58.441366 
L 14.450893 56.794159 
L 14.559115 54.378783 
L 14.569261 44.026581 
L 14.663955 59.136056 
L 14.677483 59.484751 
L 14.765414 58.752304 
L 15.086699 54.665878 
L 15.096845 43.980028 
L 15.184775 58.120005 
L 15.205067 59.594938 
L 15.296379 58.882119 
L 15.370782 58.210751 
L 15.678539 53.71002 
L 15.685303 43.949706 
L 15.78338 59.509793 
L 15.793526 59.649846 
L 15.874692 59.044797 
L 16.324491 55.489607 
L 16.341401 51.637715 
L 16.348165 43.910169 
L 16.446241 59.623442 
L 16.456387 59.652685 
L 16.510498 59.259511 
L 16.716797 57.665252 
L 16.892658 56.636015 
L 17.041464 55.668657 
L 17.065137 53.986769 
L 17.075283 43.896054 
L 17.169978 59.598989 
L 17.176742 59.656715 
L 17.237617 59.217933 
L 17.819311 54.122383 
L 17.829457 43.875456 
L 17.924152 59.604672 
L 17.934298 59.680103 
L 18.005318 59.155928 
L 18.282638 57.26717 
L 18.28602 57.270327 
L 18.306312 57.142224 
L 18.630978 55.787908 
L 18.664798 54.203913 
L 18.674944 43.85241 
L 18.766256 59.498018 
L 18.779784 59.640708 
L 18.857569 59.037688 
L 19.314132 56.523732 
L 19.324277 56.533582 
L 19.503521 55.399543 
L 19.517048 53.98839 
L 19.527194 43.860845 
L 19.621889 59.609225 
L 19.628653 59.650579 
L 19.686146 59.212638 
L 19.895826 57.637048 
L 20.085215 56.805932 
L 20.399736 55.774047 
L 20.433556 54.386965 
L 20.443702 43.845595 
L 20.531632 59.330397 
L 20.541778 59.59041 
L 20.633091 58.91071 
L 20.893501 57.126468 
L 20.957757 56.949699 
L 21.130237 56.414337 
L 21.133619 56.42229 
L 21.191112 56.282246 
L 21.282424 55.732564 
L 21.30948 54.80113 
L 21.323008 43.84349 
L 21.400792 57.622187 
L 21.424466 59.618168 
L 21.515779 58.919795 
L 21.77957 57.118078 
L 21.782952 57.147029 
L 22.080564 56.28674 
L 22.087328 56.289587 
L 22.229369 55.65138 
L 22.256425 54.060747 
L 22.266571 43.842892 
L 22.361265 59.570965 
L 22.364647 59.58139 
L 22.398467 59.352037 
L 22.865175 56.748413 
L 22.871939 56.75574 
L 22.895613 56.717198 
L 22.905759 56.660893 
L 22.90914 56.659157 
L 23.0478 56.423247 
L 23.345412 55.73065 
L 23.375849 54.939061 
L 23.392759 43.859907 
L 23.46378 55.698126 
L 23.487453 59.543054 
L 23.578766 58.862601 
L 23.81212 57.71667 
L 23.940634 57.859619 
L 23.954162 57.851153 
L 24.011655 58.060841 
L 24.491891 60.088702 
L 24.505419 60.079377 
L 24.508801 60.074043 
L 24.542621 60.208249 
L 24.708336 60.711484 
L 24.718482 60.695358 
L 24.735391 60.778082 
L 24.782739 60.795496 
L 25.104024 60.95046 
L 25.124315 60.904805 
L 25.171663 60.823866 
L 25.23592 60.897398 
L 25.303558 60.961281 
L 25.350906 60.918753 
L 25.371197 60.970537 
L 25.47942 60.8961 
L 25.597788 60.979559 
L 25.719538 60.931843 
L 25.963038 60.973495 
L 25.969802 60.955895 
L 26.257267 60.816994 
L 26.277559 60.866351 
L 26.291087 60.898324 
L 26.368872 60.810067 
L 26.379017 60.825136 
L 26.389163 60.799555 
L 26.419601 60.87573 
L 26.48724 60.834924 
L 26.585316 60.894895 
L 26.494004 60.824962 
L 26.605608 60.852361 
L 26.625899 60.809083 
L 26.710448 60.872119 
L 26.828816 60.963794 
L 26.734122 60.844914 
L 26.832198 60.950612 
L 26.964094 60.820003 
L 26.967476 60.834698 
L 27.305671 60.73807 
L 27.336108 60.712399 
L 27.400365 60.801098 
L 27.569462 60.978854 
L 27.718268 60.818039 
L 27.579608 60.983167 
L 27.728414 60.8305 
L 27.789289 60.858533 
L 27.741942 60.814764 
L 27.840018 60.833862 
L 27.941477 60.750338 
L 27.985442 60.786366 
L 27.995588 60.764511 
L 28.448769 60.907163 
L 28.533317 60.88784 
L 28.489352 60.926415 
L 28.556991 60.918667 
L 28.753144 60.83746 
L 28.573901 60.947902 
L 28.759908 60.852945 
L 28.857984 60.949039 
L 28.88504 60.891854 
L 29.000026 60.812463 
L 29.013554 60.843356 
L 29.152213 60.980205 
L 29.155595 60.957099 
L 29.243526 60.93245 
L 29.21647 60.996407 
L 29.260436 60.956509 
L 29.2672 60.998155 
L 29.35513 60.848788 
L 29.358512 60.849484 
L 29.449825 60.75327 
L 29.378804 60.858215 
L 29.487026 60.781582 
L 29.59863 60.797328 
L 29.618922 60.73573 
L 29.673033 60.71531 
L 29.625686 60.74235 
L 29.723762 60.75768 
L 29.788019 60.828974 
L 29.845512 60.809008 
L 29.994318 60.622335 
L 29.852276 60.819748 
L 30.045047 60.669875 
L 30.156651 60.740365 
L 30.163415 60.696883 
L 30.176943 60.66283 
L 30.193853 60.740093 
L 30.271638 60.71054 
L 30.308839 60.734134 
L 30.36295 60.610368 
L 30.366332 60.635737 
L 30.488082 60.551529 
L 30.589541 60.560332 
L 30.535429 60.481685 
L 30.599686 60.515546 
L 30.714673 60.61235 
L 30.755256 60.679971 
L 30.819513 60.55831 
L 30.937881 60.496888 
L 30.948027 60.531569 
L 30.975082 60.581247 
L 31.039339 60.50021 
L 31.059631 60.555972 
L 31.130652 60.487324 
L 31.076541 60.576634 
L 31.177999 60.496556 
L 31.23211 60.564895 
L 31.289603 60.485957 
L 31.61427 60.349831 
L 31.621034 60.361155 
L 31.64809 60.4206 
L 31.688673 60.306904 
L 31.725874 60.326543 
L 31.834097 60.237964 
L 31.87468 60.190023 
L 31.911882 60.304663 
L 31.932173 60.290266 
L 31.955847 60.312583 
L 31.99643 60.18637 
L 32.026868 60.229228 
L 32.138472 60.104199 
L 32.074215 60.265977 
L 32.182437 60.172392 
L 32.294041 60.262404 
L 32.314333 60.232088 
L 32.8825 59.937985 
L 32.889264 59.950006 
L 32.990722 60.066151 
L 33.011014 60.01352 
L 33.068507 59.912637 
L 33.126 59.988624 
L 33.271424 59.959245 
L 33.274806 59.951415 
L 33.379646 59.857373 
L 33.399938 59.884862 
L 34.066181 59.634792 
L 34.069563 59.643195 
L 34.123674 59.486044 
L 34.130438 59.499672 
L 34.279244 59.489226 
L 34.28939 59.552236 
L 34.373938 59.395439 
L 34.37732 59.413496 
L 34.488925 59.322856 
L 34.505834 59.369441 
L 35.097675 59.165854 
L 35.114585 59.199231 
L 35.239717 58.988398 
L 35.334411 59.02665 
L 35.358085 58.983586 
L 35.459543 58.847927 
L 35.486599 58.918629 
L 35.67937 58.845036 
L 35.787592 58.826866 
L 35.760536 58.898675 
L 35.790974 58.834832 
L 35.909342 58.887517 
L 35.80112 58.827187 
L 35.926252 58.854789 
L 35.93978 58.864094 
L 36.048002 58.826602 
L 36.139314 58.902844 
L 36.206953 58.925431 
L 36.240773 58.845402 
L 36.298266 58.729363 
L 36.372669 58.789776 
L 36.40987 58.846975 
L 36.457217 58.7318 
L 36.463981 58.741943 
L 36.582349 58.675876 
L 36.589113 58.68307 
L 36.67028 58.789896 
L 36.612787 58.675402 
L 36.710863 58.748045 
L 36.778502 58.772572 
L 36.727773 58.734265 
L 36.822468 58.736171 
L 37.228301 58.395762 
L 36.832613 58.757905 
L 37.248593 58.434604 
L 37.255357 58.452727 
L 37.339905 58.348479 
L 37.346669 58.365088 
L 37.546204 58.451127 
L 37.549586 58.429871 
L 37.580023 58.32507 
L 37.674718 58.353105 
L 37.820142 58.50693 
L 37.823524 58.503637 
L 37.897926 58.404194 
L 37.952038 58.461059 
L 37.965565 58.480665 
L 38.006149 58.411373 
L 38.04335 58.394995 
L 38.117753 58.292953 
L 38.161718 58.335994 
L 38.222593 58.4115 
L 38.283468 58.382564 
L 38.472857 58.288469 
L 38.486385 58.318245 
L 38.577698 58.376467 
L 38.513441 58.290471 
L 38.608135 58.360869 
L 38.817816 58.241654 
L 38.827962 58.257894 
L 38.861781 58.267552 
L 38.909128 58.189225 
L 38.91251 58.188267 
L 39.041024 58.056025 
L 39.05117 58.103307 
L 39.122191 57.975549 
L 39.142483 58.012133 
L 39.237177 57.957302 
L 39.277761 58.040458 
L 39.369073 58.054116 
L 39.345399 57.973163 
L 39.385983 58.015606 
L 39.507733 57.96705 
L 39.446858 58.072896 
L 39.517879 57.976252 
L 39.619337 58.054212 
L 39.524643 57.966819 
L 39.653157 58.030081 
L 39.697122 58.037702 
L 39.67683 57.986404 
L 39.730941 57.977778 
L 39.754615 57.927603 
L 39.835782 58.003035 
L 39.839164 57.998272 
L 39.981205 58.072427 
L 39.984587 58.058048 
L 40.055608 57.999764 
L 40.096192 58.054587 
L 40.204414 58.094871 
L 40.211178 58.058983 
L 40.238233 57.998754 
L 40.261907 58.065068 
L 40.322782 58.04466 
L 40.42424 57.919697 
L 40.332928 58.063964 
L 40.45806 57.957816 
L 40.464824 57.970379 
L 40.529081 57.869191 
L 40.556136 57.907698 
L 40.677886 57.777941 
L 40.68465 57.779887 
L 41.005935 57.629949 
L 41.107393 57.492499 
L 41.127685 57.513721 
L 41.232525 57.538922 
L 41.208852 57.436145 
L 41.242671 57.509771 
L 41.398241 57.390318 
L 42.027283 57.477773 
L 42.149033 57.348913 
L 42.064484 57.514949 
L 42.165943 57.366967 
L 42.297839 57.28343 
L 42.338422 57.335015 
L 42.673235 57.53957 
L 42.679998 57.531118 
L 42.801749 57.41884 
L 42.815276 57.442796 
L 42.886297 57.49516 
L 42.845714 57.415658 
L 42.923499 57.428883 
L 42.997901 57.379972 
L 43.038485 57.419117 
L 43.146707 57.359382 
L 43.109506 57.447353 
L 43.156853 57.39689 
L 43.194054 57.458372 
L 43.227874 57.329699 
L 43.261693 57.363008 
L 43.295513 57.337779 
L 43.353006 57.441156 
L 43.356388 57.439181 
L 43.474756 57.408532 
L 43.434173 57.474202 
L 43.48152 57.416176 
L 43.572832 57.430998 
L 43.596506 57.377869 
L 43.704728 57.349984 
L 43.721638 57.370996 
L 43.907645 57.340843 
L 43.911027 57.329665 
L 44.188347 57.225082 
L 44.249222 57.281484 
L 44.299951 57.220009 
L 44.377736 57.203931 
L 44.357444 57.161559 
L 44.394645 57.163146 
L 44.590798 57.013968 
L 44.59418 57.018886 
L 44.604326 57.067189 
L 44.695638 56.970155 
L 45.000014 56.681268 
L 45.003396 56.685823 
L 45.057507 56.66066 
L 45.074416 56.609674 
L 45.331444 54.780967 
L 45.344972 43.748622 
L 45.429521 57.490206 
L 45.446431 58.733625 
L 45.541125 57.833427 
L 45.727132 55.60035 
L 45.744042 54.220849 
L 45.754188 44.063126 
L 45.848882 59.048842 
L 45.859028 59.328546 
L 45.946959 58.566308 
L 46.220896 55.196974 
L 46.237806 44.024258 
L 46.318973 53.674356 
L 46.346028 59.49763 
L 46.433959 58.762782 
L 46.762008 55.123402 
L 46.775535 43.972134 
L 46.860084 55.488083 
L 46.88714 59.59893 
L 46.97507 58.892349 
L 47.370758 54.516941 
L 47.380904 43.924003 
L 47.472216 59.151253 
L 47.485744 59.658429 
L 47.580439 58.959273 
L 47.918633 56.556865 
L 48.009946 55.950572 
L 48.060675 54.297443 
L 48.070821 43.904517 
L 48.162133 59.403756 
L 48.172279 59.632432 
L 48.26021 59.006767 
L 48.645752 56.523978 
L 48.78103 55.064123 
L 48.794557 43.899661 
L 48.875724 56.897091 
L 48.899398 59.660349 
L 48.99071 59.005973 
L 49.291703 56.962466 
L 49.508148 56.162395 
L 49.582551 55.533578 
L 49.599461 54.275764 
L 49.609606 43.86264 
L 49.700919 59.484929 
L 49.711065 59.635943 
L 49.792232 59.036344 
L 50.424655 55.046249 
L 50.441565 43.871218 
L 50.515968 54.855905 
L 50.543024 59.655231 
L 50.630954 58.984774 
L 51.070607 56.625794 
L 51.080753 56.629592 
L 51.378364 54.967168 
L 51.391892 43.875695 
L 51.469677 57.281284 
L 51.493351 59.56719 
L 51.584663 58.860652 
L 52.108865 56.322022 
L 52.122393 56.330438 
L 52.146066 56.230797 
L 52.288108 54.422429 
L 52.298254 43.845314 
L 52.386184 59.29097 
L 52.39633 59.581995 
L 52.487643 58.881133 
L 52.731143 57.766194 
L 52.798782 57.79232 
L 52.805546 57.774568 
L 53.025372 58.474623 
L 53.40415 60.064147 
L 53.78631 60.818766 
L 53.789692 60.814753 
L 53.793074 60.801212 
L 53.847185 60.890597 
L 53.881005 60.878771 
L 53.921588 60.944936 
L 53.989227 60.86037 
L 54.280074 60.938327 
L 54.296984 60.891811 
L 54.381533 60.843672 
L 54.418734 60.931817 
L 54.462699 61.02778 
L 54.53372 60.970932 
L 54.638561 60.868001 
L 54.665616 60.893474 
L 54.77722 60.99383 
L 54.817804 61.009872 
L 54.875297 60.951572 
L 54.990283 60.928468 
L 54.963227 61.00876 
L 54.993665 60.933701 
L 55.05454 60.895121 
L 55.030866 60.865912 
L 55.061304 60.860096 
L 55.091741 60.82598 
L 55.115415 60.884766 
L 55.166144 60.875918 
L 55.294658 60.958724 
L 55.29804 60.948811 
L 55.41979 61.018235 
L 55.328478 60.913019 
L 55.45361 60.979308 
L 55.582124 60.862765 
L 55.473901 61.012835 
L 55.595651 60.87175 
L 55.639617 60.941819 
L 55.714019 60.901734 
L 55.808714 60.881009 
L 55.727547 60.923086 
L 55.822242 60.915989 
L 55.883117 60.943886 
L 55.869589 60.896531 
L 55.927082 60.879689 
L 55.930464 60.869828 
L 55.994721 60.983426 
L 56.008249 60.971085 
L 56.07927 61.01999 
L 56.116471 60.944969 
L 56.123235 60.972759 
L 56.194256 60.89867 
L 56.217929 60.901335 
L 56.359971 60.789703 
L 56.234839 60.927337 
L 56.397173 60.894757 
L 56.420846 60.941843 
L 56.488485 60.794684 
L 56.495249 60.813136 
L 56.620381 60.764707 
L 56.505395 60.828399 
L 56.623763 60.768767 
L 56.684638 60.823776 
L 56.748895 60.762783 
L 56.775951 60.749393 
L 56.819916 60.852355 
L 56.846971 60.817373 
L 57.063416 60.93742 
L 57.097236 60.868963 
L 57.117527 60.803765 
L 57.141201 60.882574 
L 57.20884 60.861161 
L 57.577472 60.796778 
L 57.628201 60.855932 
L 57.692458 60.780909 
L 57.726278 60.74704 
L 57.787153 60.831247 
L 57.797298 60.817263 
L 57.837882 60.895475 
L 57.912285 60.814924 
L 58.176076 60.809325 
L 58.21666 60.878062 
L 58.294444 60.822344 
L 58.378993 60.843386 
L 58.422958 60.748075 
L 58.524417 60.740228 
L 58.541327 60.785768 
L 58.54809 60.810174 
L 58.595438 60.716106 
L 58.652931 60.781581 
L 58.656313 60.792353 
L 58.713806 60.693604 
L 58.747625 60.726211 
L 58.815264 60.640973 
L 58.855848 60.701475 
L 58.937014 60.776324 
L 58.967452 60.725851 
L 59.762209 60.517577 
L 59.772355 60.554093 
L 59.779119 60.595091 
L 59.853522 60.470688 
L 59.873813 60.483906 
L 59.890723 60.404922 
L 59.941452 60.543652 
L 59.982036 60.522322 
L 60.053057 60.610617 
L 60.11055 60.533222 
L 60.208626 60.415974 
L 60.130841 60.537514 
L 60.235682 60.421385 
L 60.283029 60.433237 
L 60.252591 60.405577 
L 60.330376 60.367966 
L 60.448744 60.204222 
L 60.360814 60.420627 
L 60.455508 60.228607 
L 60.715918 60.220247 
L 60.739592 60.164677 
L 60.830904 60.236943 
L 60.864724 60.352126 
L 60.949272 60.263259 
L 61.074404 60.154462 
L 60.976328 60.28324 
L 61.087932 60.199253 
L 61.459946 59.990493 
L 61.10146 60.220204 
L 61.470092 60.035196 
L 61.581696 60.127029 
L 61.591842 60.113489 
L 61.716974 59.99036 
L 61.730502 60.016211 
L 61.842106 59.970068 
L 61.967238 60.132724 
L 61.974002 60.128443 
L 62.024731 60.139273 
L 62.105898 60.003864 
L 62.10928 60.028607 
L 62.200592 59.880536 
L 62.203974 59.901419 
L 62.647009 59.672932 
L 62.711266 59.805253 
L 62.772141 59.72131 
L 62.904037 59.58421 
L 62.988586 59.494987 
L 62.927711 59.601754 
L 63.025787 59.558645 
L 63.1171 59.547907 
L 63.140774 59.59796 
L 63.174593 59.609563 
L 63.201649 59.522189 
L 63.208412 59.519607 
L 63.333544 59.39451 
L 63.336926 59.397772 
L 63.49926 59.468335 
L 63.512788 59.409466 
L 63.648065 59.331632 
L 63.651447 59.342803 
L 63.661593 59.366421 
L 63.729232 59.212028 
L 63.74276 59.220784 
L 64.216232 58.905646 
L 64.239906 58.93985 
L 64.287253 59.01713 
L 64.35151 58.938095 
L 64.378566 58.996029 
L 64.47326 58.891827 
L 64.591628 58.927941 
L 64.814837 58.714246 
L 64.818219 58.717745 
L 64.841892 58.767169 
L 64.87233 58.689667 
L 64.926441 58.706172 
L 65.048191 58.618421 
L 65.146268 58.578921 
L 65.078629 58.674308 
L 65.166559 58.595436 
L 65.217289 58.621654 
L 65.180087 58.571038 
L 65.278164 58.600909 
L 65.396532 58.440199 
L 65.406678 58.459427 
L 65.545337 58.553127 
L 65.565629 58.53285 
L 65.582539 58.493004 
L 65.643414 58.593792 
L 65.663705 58.593282 
L 65.670469 58.606826 
L 65.751636 58.501278 
L 65.7584 58.515983 
L 65.876768 58.444015 
L 65.765164 58.528349 
L 65.917351 58.486321 
L 66.028956 58.535239 
L 65.947789 58.437866 
L 66.03572 58.500452 
L 66.137178 58.488729 
L 66.062775 58.525111 
L 66.147324 58.510829 
L 66.265692 58.475993 
L 66.191289 58.534486 
L 66.272456 58.495838 
L 66.340095 58.537207 
L 66.380678 58.463358 
L 66.556539 58.370094 
L 66.559921 58.394228 
L 66.563303 58.414095 
L 66.651234 58.314027 
L 66.664762 58.364257 
L 66.833859 58.249028 
L 66.671525 58.373657 
L 66.854151 58.301656 
L 66.918408 58.320044 
L 66.891352 58.256869 
L 66.965755 58.295272 
L 67.111178 58.182792 
L 67.117942 58.188753 
L 67.151762 58.258249 
L 67.216019 58.139642 
L 67.226165 58.176654 
L 67.317477 58.101162 
L 67.361442 58.161711 
L 67.381734 58.202054 
L 67.459519 58.119808 
L 67.469665 58.14622 
L 67.574505 58.087598 
L 67.51363 58.165853 
L 67.588033 58.122057 
L 68.166346 57.974168 
L 68.247512 57.795188 
L 68.291478 57.83507 
L 68.403082 57.872744 
L 68.335443 57.821687 
L 68.409846 57.868702 
L 68.612763 57.828752 
L 68.616145 57.847638 
L 68.687165 57.718701 
L 68.710839 57.748368 
L 68.90361 57.579271 
L 68.727749 57.773525 
L 68.906992 57.590479 
L 69.015214 57.615185 
L 68.947575 57.573201 
L 69.018596 57.605631 
L 69.167402 57.470013 
L 69.032124 57.614596 
L 69.170784 57.475665 
L 69.326353 57.695292 
L 69.370319 57.673641 
L 69.427812 57.734778 
L 69.437957 57.754802 
L 69.515742 57.68657 
L 69.525888 57.693411 
L 69.654402 57.545189 
L 69.536034 57.707204 
L 69.657784 57.571685 
L 69.779534 57.602937 
L 69.708513 57.535726 
L 69.782916 57.600152 
L 69.799826 57.640199 
L 69.887756 57.661239 
L 69.935104 57.729844 
L 69.972305 57.624051 
L 69.992597 57.626708 
L 70.097437 57.573664 
L 70.03318 57.655708 
L 70.104201 57.614326 
L 70.195513 57.6632 
L 70.124493 57.592686 
L 70.215805 57.639262 
L 70.317264 57.559275 
L 70.225951 57.646921 
L 70.344319 57.57221 
L 70.628403 57.606174 
L 70.638548 57.576691 
L 70.736625 57.537245 
L 70.655458 57.626023 
L 70.750153 57.582402 
L 70.783972 57.602045 
L 70.844847 57.51074 
L 70.969979 57.566386 
L 70.986889 57.632356 
L 71.084965 57.610365 
L 71.210097 57.441837 
L 71.227007 57.452862 
L 71.358903 57.257465 
L 71.389341 57.304846 
L 71.473889 57.373273 
L 71.500945 57.314544 
L 71.585493 57.287354 
L 71.548292 57.366897 
L 71.605785 57.323472 
L 71.676806 57.404018 
L 71.720771 57.363341 
L 71.839139 57.279998 
L 71.737681 57.379432 
L 71.842521 57.291817 
L 71.852667 57.278192 
L 71.883105 57.367661 
L 71.947362 57.323745 
L 72.001473 57.350316 
L 72.045438 57.272984 
L 72.052202 57.281326 
L 72.146896 57.130726 
L 72.190862 57.165658 
L 72.248355 57.131525 
L 72.272028 57.216847 
L 72.299084 57.192181 
L 72.39716 57.324853 
L 72.478327 57.261459 
L 72.576404 57.249275 
L 72.525674 57.336789 
L 72.589931 57.269018 
L 72.816522 57.239527 
L 72.850341 57.224581 
L 72.91798 57.285775 
L 72.924744 57.240518 
L 72.928126 57.24906 
L 72.972091 57.106046 
L 72.982237 57.110349 
L 73.090459 57.024391 
L 73.100605 57.041747 
L 73.151335 57.032209 
L 73.124279 57.103374 
L 73.188536 57.102316 
L 73.198682 57.14395 
L 73.256175 57.04107 
L 73.303522 57.102025 
L 73.634953 56.619938 
L 73.902127 55.211848 
L 73.912272 52.949665 
L 73.919036 43.744596 
L 74.020495 58.730574 
L 74.040786 58.605042 
L 74.321488 54.791352 
L 74.331634 44.060657 
L 74.419564 56.875682 
L 74.439856 59.319113 
L 74.531169 58.518384 
L 74.801724 54.640109 
L 74.81187 44.008039 
L 74.899801 57.412737 
L 74.920092 59.513569 
L 75.011405 58.766199 
L 75.339454 55.073178 
L 75.352982 43.962711 
L 75.43753 55.768538 
L 75.464586 59.601948 
L 75.552516 58.885874 
L 75.603246 58.455537 
L 75.954968 53.358137 
L 75.961732 43.925623 
L 76.059808 59.544487 
L 76.069954 59.646699 
L 76.144357 59.099736 
L 76.387857 57.132596 
L 76.391239 57.137401 
L 76.414913 56.978534 
L 76.614448 55.263 
L 76.624593 53.563239 
L 76.631357 43.905416 
L 76.729434 59.592597 
L 76.736198 59.674754 
L 76.807218 59.172661 
L 77.050719 57.360646 
L 77.355094 54.341628 
L 77.36524 43.879629 
L 77.456552 59.432188 
L 77.466698 59.673435 
L 77.554629 59.042466 
L 77.859004 57.028819 
L 78.038247 56.335596 
L 78.146469 55.171209 
L 78.156615 52.307169 
L 78.163379 43.857545 
L 78.261455 59.649798 
L 78.264837 59.667371 
L 78.312185 59.34026 
L 78.731546 56.776387 
L 78.734928 56.779587 
L 78.741692 56.790007 
L 78.782275 56.663222 
L 78.954754 56.007144 
L 79.008865 55.540125 
L 79.029157 53.836674 
L 79.039303 43.874813 
L 79.133997 59.597005 
L 79.137379 59.609374 
L 79.177963 59.340888 
L 79.431609 57.43875 
L 79.434991 57.440624 
L 79.874644 54.393329 
L 79.88479 43.855693 
L 79.97272 59.330194 
L 79.986248 59.60288 
L 80.074179 58.928732 
L 80.402227 56.950259 
L 80.571325 56.396573 
L 80.750568 54.567327 
L 80.760714 43.876388 
L 80.845262 58.916129 
L 80.862172 59.615194 
L 80.953485 58.906122 
L 81.39652 56.646054 
L 81.602818 56.174299 
L 81.721186 54.332762 
L 81.731332 43.82928 
L 81.822645 59.472062 
L 81.836173 59.590461 
L 81.910575 58.992307 
L 82.123638 57.436416 
L 82.306263 56.827006 
L 82.529472 56.45094 
L 82.532854 56.452348 
L 82.536235 56.458278 
L 82.59711 56.342617 
L 82.600492 56.347477 
L 82.610638 56.324749 
L 82.61402 56.357444 
L 82.793263 59.030364 
L 83.354666 60.838263 
L 83.358048 60.82343 
L 83.449361 60.91908 
L 83.452743 60.902145 
L 83.581257 60.857474 
L 83.591403 60.866347 
L 83.740208 61.005182 
L 83.601549 60.858032 
L 83.74359 60.98153 
L 83.878868 60.891557 
L 83.966799 60.860526 
L 83.895778 60.897675 
L 83.98709 60.903196 
L 84.450417 60.917585 
L 84.453799 60.902102 
L 84.518056 60.853283 
L 84.545112 60.936557 
L 84.562021 60.911764 
L 84.605987 60.941906 
L 84.660098 60.852257 
L 84.808903 60.877548 
L 84.812285 60.889686 
L 84.930653 60.963906 
L 84.934035 60.958954 
L 85.076077 60.877531 
L 85.28914 60.933705 
L 85.292522 60.913969 
L 85.336487 60.83544 
L 85.41089 60.87742 
L 85.904654 60.852973 
L 86.016258 60.807064 
L 86.033168 60.824446 
L 86.266522 60.914601 
L 86.273286 60.887964 
L 86.324015 60.864879 
L 86.374744 60.926668 
L 86.496495 60.931222 
L 86.381508 60.921528 
L 86.499877 60.917756 
L 86.6453 60.841422 
L 86.648682 60.858883 
L 86.780578 60.98968 
L 86.804252 60.93469 
L 86.868509 60.839663 
L 86.926002 60.887505 
L 86.993641 60.806608 
L 86.949675 60.909774 
L 87.037606 60.893268 
L 87.186412 60.843216 
L 87.30478 60.919267 
L 87.230377 60.810725 
L 87.328453 60.883426 
L 87.402856 60.821648 
L 87.440058 60.870569 
L 87.555044 60.916606 
L 87.571953 60.869069 
L 87.585481 60.840095 
L 87.65312 60.905373 
L 87.676794 60.885242 
L 87.717377 60.865524 
L 87.795162 60.927994 
L 87.94735 60.724141 
L 87.950731 60.731593 
L 88.072482 60.855338 
L 88.102919 60.884218 
L 88.143502 60.803236 
L 88.180704 60.836296 
L 89.225725 60.824594 
L 89.333947 60.766067 
L 89.246017 60.873691 
L 89.344093 60.800118 
L 89.415114 60.854275 
L 89.384677 60.782365 
L 89.452316 60.792782 
L 89.645087 60.728608 
L 89.678906 60.829627 
L 89.743163 60.679535 
L 89.749927 60.695368 
L 89.905496 60.630809 
L 89.763455 60.715706 
L 89.939316 60.695489 
L 89.983281 60.761429 
L 90.044156 60.674282 
L 90.047538 60.689814 
L 90.145615 60.522353 
L 90.176052 60.568656 
L 90.355295 60.639884 
L 90.612323 60.61212 
L 90.615705 60.594819 
L 90.740837 60.477855 
L 90.754365 60.504504 
L 91.038448 60.469482 
L 91.068886 60.433322 
L 91.048594 60.471756 
L 91.068886 60.433322 
" clip-path="url(#pa78f7cd9c6)" style="fill: none; stroke: #000000; stroke-width: 0.6; stroke-linecap: square"/>
   </g>
   <g id="line2d_4">
    <path d="M 95.127221 15.313171 
L 95.127221 8.552195 
" clip-path="url(#pa78f7cd9c6)" style="fill: none; stroke: #000000; stroke-width: 1.5; stroke-linecap: square"/>
   </g>
  </g>
 </g>
 <defs>
  <clipPath id="pa78f7cd9c6">
   <rect x="7.2" y="7.2" width="89.28" height="55.44"/>
  </clipPath>
 </defs>
</svg>
