<?xml version="1.0" encoding="utf-8" standalone="no"?>
<!DOCTYPE svg PUBLIC "-//W3C//DTD SVG 1.1//EN"
  "http://www.w3.org/Graphics/SVG/1.1/DTD/svg11.dtd">
<svg xmlns:xlink="http://www.w3.org/1999/xlink" width="103.68pt" height="69.84pt" viewBox="0 0 103.68 69.84" xmlns="http://www.w3.org/2000/svg" version="1.1">
 <metadata>
  <rdf:RDF xmlns:dc="http://purl.org/dc/elements/1.1/" xmlns:cc="http://creativecommons.org/ns#" xmlns:rdf="http://www.w3.org/1999/02/22-rdf-syntax-ns#">
   <cc:Work>
    <dc:type rdf:resource="http://purl.org/dc/dcmitype/StillImage"/>
    <dc:date>2022-05-08T15:05:05.191066</dc:date>
    <dc:format>image/svg+xml</dc:format>
    <dc:creator>
     <cc:Agent>
      <dc:title>Matplotlib v3.5.1, https://matplotlib.org/</dc:title>
     </cc:Agent>
    </dc:creator>
   </cc:Work>
  </rdf:RDF>
 </metadata>
 <defs>
  <style type="text/css">*{stroke-linejoin: round; stroke-linecap: butt}</style>
 </defs>
 <g id="figure_1">
  <g id="patch_1">
   <path d="M 0 69.84 
L 103.68 69.84 
L 103.68 0 
L 0 0 
z
" style="fill: #ffffff"/>
  </g>
  <g id="axes_1">
   <g id="patch_2">
    <path d="M 7.2 62.64 
L 96.48 62.64 
L 96.48 7.2 
L 7.2 7.2 
z
" style="fill: #ffffff"/>
   </g>
   <g id="matplotlib.axis_1"/>
   <g id="matplotlib.axis_2"/>
   <g id="line2d_1">
    <path d="M 9.905557 22.14276 
L 10.111856 21.739689 
L 10.122002 21.7595 
L 10.142293 21.779437 
L 10.199786 21.671884 
L 10.216696 21.702872 
L 10.291099 21.630081 
L 10.247134 21.743662 
L 10.3283 21.68816 
L 10.348592 21.70496 
L 10.392557 21.609499 
L 10.402703 21.606832 
L 10.558273 21.267279 
L 10.581946 21.265928 
L 10.612384 21.177385 
L 10.855884 20.128648 
L 10.886321 18.480712 
L 10.903231 9.259161 
L 10.974252 24.095797 
L 10.984398 24.02934 
L 11.082474 23.096174 
L 11.271863 18.212627 
L 11.282009 9.166003 
L 11.363176 24.371021 
L 11.376704 24.316847 
L 11.488308 23.269568 
L 11.681079 19.190773 
L 11.694607 9.37473 
L 11.772391 24.363039 
L 11.775773 24.373729 
L 11.809593 24.14118 
L 11.968544 22.282673 
L 12.097058 18.947276 
L 12.110586 9.513904 
L 12.191753 24.390956 
L 12.195135 24.370058 
L 12.391288 22.311364 
L 12.533329 18.206917 
L 12.543475 9.44712 
L 12.62126 24.451829 
L 12.63817 24.38642 
L 12.763302 23.351121 
L 13.000038 18.317536 
L 13.010184 9.394051 
L 13.09135 24.525798 
L 13.101496 24.487834 
L 13.257066 23.321941 
L 13.527622 18.452909 
L 13.537767 9.433846 
L 13.618934 24.56037 
L 13.62908 24.524826 
L 14.085643 20.289916 
L 14.119462 18.415697 
L 14.13299 9.473127 
L 14.207393 24.592278 
L 14.22092 24.533046 
L 14.413691 23.269275 
L 14.785706 19.166697 
L 14.802615 9.470055 
L 14.86349 24.305316 
L 14.877018 24.58171 
L 14.968331 24.116955 
L 15.333581 21.596182 
L 15.495914 20.566609 
L 15.580463 19.552379 
L 15.597373 13.584483 
L 15.604137 9.72224 
L 15.678539 24.508205 
L 15.695449 24.423859 
L 15.698831 24.429689 
L 15.729269 24.263141 
L 15.752942 24.122475 
L 16.40904 19.665375 
L 16.429331 14.572003 
L 16.439477 9.864696 
L 16.51388 24.501884 
L 16.527408 24.428127 
L 16.53079 24.42928 
L 16.551081 24.328305 
L 16.7912 22.81078 
L 17.038082 21.253234 
L 17.41686 19.375791 
L 17.437151 11.926777 
L 17.443915 10.328286 
L 17.514936 24.370922 
L 17.518318 24.373999 
L 17.535228 24.269676 
L 17.53861 24.266995 
L 17.866659 21.953691 
L 17.88695 21.861943 
L 18.120305 20.729106 
L 18.282638 19.701911 
L 18.30293 17.12723 
L 18.316457 9.99015 
L 18.39086 24.536318 
L 18.404388 24.480387 
L 18.566721 23.556454 
L 18.979319 21.561941 
L 18.986083 21.561711 
L 19.01652 21.461948 
L 19.202527 20.951355 
L 19.331041 21.05185 
L 19.344569 21.043164 
L 19.442646 20.970624 
L 19.459555 21.035757 
L 19.476465 20.969794 
L 20.007431 21.450343 
L 20.17991 21.641567 
L 20.217111 21.618708 
L 20.247549 21.703948 
L 20.257695 21.700108 
L 20.369299 21.828774 
L 20.389591 21.8224 
L 20.42341 21.791238 
L 20.52825 21.963793 
L 21.996015 23.542191 
L 21.999397 23.533915 
L 22.124529 23.660812 
L 22.148203 23.649288 
L 22.202314 23.769064 
L 22.205696 23.769106 
L 22.855029 24.134721 
L 22.915904 24.066075 
L 22.963252 24.122871 
L 23.068092 24.294941 
L 23.098529 24.249122 
L 23.264245 24.27618 
L 23.267627 24.295533 
L 23.406287 24.414065 
L 23.41305 24.42698 
L 23.524655 24.382873 
L 23.558474 24.450121 
L 23.592294 24.327024 
L 23.629495 24.346096 
L 23.710662 24.305325 
L 23.670078 24.394981 
L 23.737717 24.352192 
L 23.764773 24.404543 
L 23.832412 24.284715 
L 23.839176 24.304095 
L 24.414107 24.480104 
L 24.417489 24.463175 
L 24.458072 24.459222 
L 24.491891 24.552878 
L 24.495273 24.546845 
L 24.610259 24.601543 
L 24.620405 24.580512 
L 24.671135 24.553402 
L 24.701572 24.632997 
L 24.735391 24.578851 
L 24.863905 24.6479 
L 24.779357 24.54753 
L 24.877433 24.601844 
L 24.995801 24.556545 
L 25.144607 24.616352 
L 25.154753 24.597971 
L 25.239301 24.529921 
L 25.273121 24.585617 
L 25.398253 24.659024 
L 25.438836 24.680214 
L 25.472656 24.596062 
L 25.482802 24.59442 
L 25.492947 24.586055 
L 25.530149 24.694387 
L 25.574114 24.647527 
L 25.634989 24.7986 
L 25.6891 24.72346 
L 25.871725 24.751903 
L 25.976566 24.824359 
L 25.939364 24.736859 
L 25.990094 24.800634 
L 26.101698 24.733447 
L 26.108462 24.757394 
L 26.118608 24.735475 
L 26.274177 24.746133 
L 26.395927 24.749631 
L 26.294469 24.794711 
L 26.402691 24.759578 
L 26.531205 24.804868 
L 26.433129 24.728651 
L 26.551497 24.764935 
L 26.656337 24.727224 
L 26.598844 24.789089 
L 26.666483 24.756298 
L 26.751031 24.809454 
L 26.703684 24.7381 
L 26.784851 24.778927 
L 26.889691 24.744535 
L 26.899837 24.761662 
L 26.943802 24.694333 
L 27.018205 24.77546 
L 27.146719 24.730361 
L 27.163629 24.756053 
L 27.254941 24.786496 
L 27.20083 24.733525 
L 27.288761 24.754847 
L 27.552553 24.77385 
L 27.579608 24.796821 
L 27.670921 24.747408 
L 27.772379 24.676799 
L 27.809581 24.765918 
L 27.853546 24.803832 
L 27.880602 24.746245 
L 27.917803 24.746533 
L 28.039553 24.771098 
L 28.080136 24.727248 
L 28.053081 24.790575 
L 28.147775 24.774673 
L 28.151157 24.795469 
L 28.164685 24.741431 
L 28.255998 24.772359 
L 28.377748 24.743826 
L 28.398039 24.767021 
L 28.479206 24.760028 
L 28.462296 24.725203 
L 28.50288 24.735857 
L 28.580664 24.713889 
L 28.533317 24.793811 
L 28.614484 24.74387 
L 28.742998 24.754488 
L 28.830928 24.727658 
L 28.790345 24.81071 
L 28.854602 24.774114 
L 29.047373 24.736734 
L 29.152213 24.721122 
L 29.121776 24.777107 
L 29.158977 24.739912 
L 29.307783 24.739653 
L 29.169123 24.765694 
L 29.311165 24.773948 
L 29.409241 24.778817 
L 29.334838 24.747171 
L 29.419387 24.752835 
L 29.453207 24.713856 
L 29.480262 24.793898 
L 29.530991 24.755315 
L 29.656123 24.77955 
L 29.558047 24.714397 
L 29.659505 24.766834 
L 29.750818 24.719317 
L 29.774491 24.747462 
L 29.808311 24.737746 
L 29.899623 24.802682 
L 30.007846 24.705975 
L 30.034901 24.738529 
L 30.122832 24.810532 
L 30.045047 24.728395 
L 30.149887 24.766739 
L 30.244582 24.766405 
L 30.183707 24.711738 
L 30.261492 24.75797 
L 30.393388 24.738728 
L 30.39677 24.758178 
L 30.488082 24.808455 
L 30.511756 24.781877 
L 30.613214 24.741305 
L 30.626742 24.752776 
L 30.690999 24.78816 
L 30.748492 24.728848 
L 30.931117 24.751054 
L 30.985228 24.776538 
L 30.954791 24.718859 
L 31.039339 24.725373 
L 31.096832 24.775827 
L 31.157707 24.742515 
L 31.211819 24.723233 
L 31.191527 24.783139 
L 31.262548 24.757091 
L 31.309895 24.806815 
L 31.272694 24.74919 
L 31.37077 24.731781 
L 31.472228 24.796878 
L 31.485756 24.745139 
L 31.506048 24.767076 
L 31.621034 24.729913 
L 31.698819 24.803858 
L 31.73602 24.762494 
L 31.9085 24.791444 
L 31.756312 24.723367 
L 31.911882 24.782986 
L 32.023486 24.748222 
L 31.982902 24.808975 
L 32.03025 24.757184 
L 32.152 24.799846 
L 32.172291 24.761034 
L 32.179055 24.76475 
L 32.290659 24.714843 
L 32.388736 24.7796 
L 32.409028 24.728384 
L 32.493576 24.693976 
L 32.520632 24.739289 
L 32.598417 24.787665 
L 32.639 24.74306 
L 32.733694 24.669036 
L 32.686347 24.769312 
L 32.757368 24.740625 
L 32.774278 24.782245 
L 32.868972 24.720229 
L 32.990722 24.685561 
L 32.889264 24.762315 
L 32.994104 24.721696 
L 33.071889 24.767024 
L 33.03807 24.714575 
L 33.102327 24.719561 
L 33.295098 24.632122 
L 33.14291 24.780125 
L 33.315389 24.665591 
L 33.410084 24.736914 
L 33.433757 24.705213 
L 33.464195 24.673647 
L 33.528452 24.735939 
L 33.54198 24.711717 
L 33.579181 24.771719 
L 33.640056 24.668396 
L 33.64682 24.680656 
L 33.761806 24.578826 
L 33.782098 24.642479 
L 33.968105 24.748178 
L 33.788862 24.634777 
L 33.991778 24.689481 
L 34.100001 24.614093 
L 34.01207 24.696811 
L 34.120292 24.643134 
L 34.204841 24.763217 
L 34.248806 24.734531 
L 34.387466 24.598628 
L 34.53289 24.680114 
L 34.400994 24.589471 
L 34.539654 24.674461 
L 34.837265 24.451382 
L 34.850793 24.491837 
L 34.935341 24.49697 
L 34.908286 24.407278 
L 34.952251 24.467487 
L 35.030036 24.506698 
L 35.070619 24.416857 
L 35.107821 24.392791 
L 35.195751 24.473883 
L 35.293828 24.450859 
L 35.226189 24.449804 
L 35.29721 24.439463 
L 35.320883 24.461738 
L 35.422342 24.359658 
L 35.544092 24.485305 
L 35.43587 24.340582 
L 35.554238 24.460219 
L 35.757154 24.311383 
L 35.760536 24.314884 
L 35.858613 24.434756 
L 35.88905 24.416543 
L 36.024328 24.480458 
L 36.034474 24.515535 
L 36.125787 24.419457 
L 36.162988 24.478178 
L 36.240773 24.436534 
L 36.362523 24.446151 
L 36.257682 24.40674 
L 36.365905 24.440625 
L 36.497801 24.28166 
L 36.511328 24.350657 
L 36.609405 24.279817 
L 36.734537 24.35957 
L 36.758211 24.327597 
L 36.91378 24.130564 
L 36.920544 24.161561 
L 37.008475 24.146802 
L 36.967891 24.104174 
L 37.015238 24.112512 
L 37.103169 23.98761 
L 37.130225 24.075979 
L 37.255357 23.997947 
L 37.258739 24.004468 
L 37.316232 24.041991 
L 37.350051 23.902394 
L 37.465037 23.833051 
L 37.478565 23.857144 
L 37.542822 23.893275 
L 37.593551 23.841491 
L 37.772794 23.691703 
L 37.78294 23.716331 
L 37.793086 23.760801 
L 37.864107 23.648648 
L 37.891163 23.705969 
L 37.894544 23.708111 
L 37.931746 23.605602 
L 38.073788 23.393594 
L 38.411982 23.237868 
L 38.435656 23.308047 
L 38.516823 23.36625 
L 38.550642 23.298931 
L 38.939566 22.950581 
L 38.949712 22.975465 
L 38.970003 22.964625 
L 39.08499 23.116869 
L 39.227031 22.932305 
L 39.237177 22.946845 
L 39.325108 22.976249 
L 39.277761 22.920797 
L 39.352163 22.965977 
L 39.446858 22.96579 
L 39.453622 22.993494 
L 39.470531 23.039281 
L 39.531406 22.931418 
L 39.561844 22.995176 
L 39.582136 22.918065 
L 39.680212 22.947473 
L 39.785052 23.009011 
L 39.69374 22.919615 
L 39.79858 22.978413 
L 39.994733 22.726308 
L 40.011643 22.741836 
L 40.079282 22.811878 
L 40.126629 22.79202 
L 40.33631 22.872985 
L 40.153685 22.762675 
L 40.339692 22.859888 
L 40.454678 22.812578 
L 40.410713 22.892911 
L 40.45806 22.829987 
L 40.461442 22.841481 
L 40.508789 22.758706 
L 40.549372 22.749956 
L 40.57981 22.794439 
L 40.671122 22.755637 
L 40.769199 22.811411 
L 40.721852 22.730124 
L 40.789491 22.774018 
L 40.870657 22.672453 
L 40.911241 22.698635 
L 40.918004 22.667834 
L 40.958588 22.602888 
L 41.087102 22.43452 
L 41.141213 22.492426 
L 41.979936 22.1555 
L 41.154741 22.529774 
L 41.983318 22.180418 
L 42.040811 22.258878 
L 42.10845 22.193722 
L 42.118595 22.167718 
L 42.165943 22.258222 
L 42.21329 22.212629 
L 42.233582 22.265251 
L 42.257255 22.169934 
L 42.307984 22.182191 
L 42.422971 21.968178 
L 42.436498 21.975103 
L 42.446644 21.985391 
L 42.571776 21.879976 
L 42.575158 21.899072 
L 42.608978 21.795999 
L 42.669853 21.811939 
L 42.679998 21.826306 
L 43.112888 21.226585 
L 43.430791 19.423072 
L 43.454464 9.254546 
L 43.501811 21.901204 
L 43.528867 24.077918 
L 43.616798 23.271232 
L 43.816332 19.524719 
L 43.833242 9.191159 
L 43.894117 22.67064 
L 43.911027 24.382842 
L 44.005721 23.668369 
L 44.232312 19.029444 
L 44.24584 9.418517 
L 44.327006 24.386316 
L 44.387881 23.947755 
L 44.651673 19.422692 
L 44.668583 9.527326 
L 44.73284 24.055935 
L 44.74975 24.411663 
L 44.83768 23.736542 
L 45.08118 19.956276 
L 45.09809 15.057778 
L 45.104854 9.427721 
L 45.186021 24.491597 
L 45.199548 24.422683 
L 45.338208 23.274338 
L 45.571563 19.018782 
L 45.58509 9.383061 
L 45.662875 24.559364 
L 45.666257 24.561378 
L 45.686549 24.450408 
L 45.808299 23.619974 
L 46.119438 19.261159 
L 46.136348 9.42381 
L 46.200605 24.3807 
L 46.214132 24.586481 
L 46.302063 24.05807 
L 46.305445 24.064984 
L 46.335882 23.877724 
L 46.741716 19.121097 
L 46.758626 9.449869 
L 46.826265 24.56119 
L 46.833029 24.596224 
L 46.897286 24.280333 
L 47.21857 21.860176 
L 47.451925 18.791336 
L 47.465452 9.53976 
L 47.539855 24.584561 
L 47.543237 24.565279 
L 47.546619 24.581799 
L 47.60073 24.306102 
L 47.725862 23.534994 
L 48.145224 20.751826 
L 48.202717 20.497987 
L 48.294029 19.409772 
L 48.310939 12.494984 
L 48.317703 9.889869 
L 48.385342 24.419873 
L 48.402252 24.390871 
L 48.429307 24.251037 
L 49.11246 18.882789 
L 49.12937 10.051547 
L 49.193627 24.397241 
L 49.203773 24.444505 
L 49.264648 24.088762 
L 49.555495 22.138673 
L 49.917364 20.203764 
L 49.957947 19.717861 
L 49.978239 17.341693 
L 49.991766 9.98039 
L 50.059405 24.485623 
L 50.079697 24.430923 
L 50.915038 20.550051 
L 50.91842 20.557597 
L 51.378364 20.861452 
L 50.955621 20.503838 
L 51.385128 20.846682 
L 51.412184 20.80465 
L 51.469677 20.914567 
L 51.574517 20.932053 
L 51.530552 20.853392 
L 51.584663 20.920847 
L 51.686121 20.89445 
L 51.642156 20.965506 
L 51.699649 20.937082 
L 51.899184 21.132093 
L 51.716559 20.921807 
L 51.922858 21.115384 
L 51.933004 21.087197 
L 52.007406 21.179364 
L 52.024316 21.162379 
L 52.277962 21.413602 
L 52.281344 21.400261 
L 52.321927 21.498137 
L 52.365893 21.506758 
L 52.467351 21.665734 
L 52.491025 21.661807 
L 52.497789 21.639415 
L 52.558664 21.743307 
L 52.592483 21.705303 
L 52.775108 21.999851 
L 52.77849 21.996612 
L 52.876567 22.125751 
L 52.974643 22.197196 
L 52.998317 22.172677 
L 53.289164 22.582272 
L 53.008462 22.154138 
L 53.31622 22.559107 
L 53.343275 22.47719 
L 53.410914 22.59273 
L 53.414296 22.585585 
L 53.586775 23.155041 
L 53.596921 23.131888 
L 53.613831 23.081158 
L 53.698379 23.212785 
L 53.857331 23.408605 
L 53.92497 23.341689 
L 53.962171 23.433903 
L 54.334185 23.874488 
L 54.347713 23.84349 
L 54.361241 23.858699 
L 54.472845 23.837402 
L 54.577686 23.971189 
L 54.608123 23.917085 
L 54.611505 23.9063 
L 54.685908 24.019858 
L 54.68929 24.013685 
L 54.81104 24.15045 
L 54.699436 24.010942 
L 54.817804 24.133687 
L 54.821186 24.128703 
L 54.851623 24.19277 
L 54.892207 24.206596 
L 54.969991 24.249603 
L 54.986901 24.194607 
L 55.000429 24.197279 
L 55.024102 24.168921 
L 55.095123 24.267194 
L 55.132325 24.329791 
L 55.196582 24.22733 
L 55.203346 24.259515 
L 55.206728 24.238388 
L 55.291276 24.350402 
L 55.301422 24.347844 
L 55.308186 24.372782 
L 55.355533 24.266102 
L 55.399498 24.308256 
L 55.40288 24.291427 
L 55.460373 24.342129 
L 55.507721 24.320634 
L 55.595651 24.373456 
L 55.531394 24.310098 
L 55.622707 24.332103 
L 55.727547 24.330369 
L 55.686964 24.385148 
L 55.730929 24.340806 
L 55.798568 24.400008 
L 55.852679 24.371365 
L 55.872971 24.353698 
L 55.937228 24.410678 
L 55.95752 24.402741 
L 56.04545 24.45225 
L 55.977811 24.469022 
L 56.052214 24.458704 
L 56.28895 24.49337 
L 56.295714 24.471 
L 56.30586 24.43292 
L 56.363353 24.525785 
L 56.397173 24.525398 
L 56.495249 24.524083 
L 56.474957 24.44629 
L 56.498631 24.493446 
L 56.647437 24.412677 
L 56.654201 24.418974 
L 56.830062 24.343751 
L 56.857117 24.40559 
L 56.978867 24.464371 
L 57.276479 24.615031 
L 57.283243 24.59637 
L 57.384701 24.503334 
L 57.401611 24.53038 
L 57.462486 24.629971 
L 57.516597 24.554659 
L 57.618055 24.509532 
L 57.631583 24.563904 
L 57.702604 24.618008 
L 57.668784 24.551069 
L 57.746569 24.607041 
L 57.807444 24.715425 
L 57.888611 24.790146 
L 57.848028 24.701213 
L 57.92243 24.752904 
L 59.048619 24.753333 
L 59.129785 24.74641 
L 59.143313 24.79294 
L 59.153459 24.779156 
L 59.22448 24.805488 
L 59.177132 24.741251 
L 59.265063 24.778071 
L 59.339466 24.766596 
L 59.292119 24.737243 
L 59.359758 24.731494 
L 59.424015 24.718037 
L 59.396959 24.779394 
L 59.461216 24.767801 
L 59.55591 24.762067 
L 59.566056 24.742941 
L 59.57282 24.715657 
L 59.620167 24.788838 
L 59.670897 24.765937 
L 59.768973 24.775396 
L 59.714862 24.735009 
L 59.782501 24.745676 
L 59.907633 24.7422 
L 59.836612 24.793476 
L 59.911015 24.748886 
L 59.992182 24.805402 
L 59.927925 24.744992 
L 60.022619 24.748948 
L 60.042911 24.796766 
L 60.130841 24.7402 
L 60.144369 24.697724 
L 60.171425 24.76163 
L 60.242446 24.73009 
L 60.249209 24.783701 
L 60.350668 24.733116 
L 60.4758 24.691893 
L 60.364196 24.76127 
L 60.482564 24.708433 
L 60.543439 24.805864 
L 60.600932 24.788537 
L 60.695626 24.728973 
L 60.722682 24.744883 
L 60.739592 24.770567 
L 60.803849 24.711216 
L 60.834286 24.739587 
L 60.942508 24.729038 
L 60.85796 24.803341 
L 60.94589 24.741093 
L 61.591842 24.798716 
L 61.669627 24.801971 
L 61.649335 24.739902 
L 61.686537 24.758748 
L 61.774467 24.725894 
L 61.798141 24.74879 
L 61.909745 24.767995 
L 61.845488 24.70768 
L 61.913127 24.762307 
L 62.041641 24.710889 
L 63.63792 24.701835 
L 63.641302 24.696231 
L 63.678503 24.780317 
L 63.715704 24.779837 
L 63.837454 24.837268 
L 63.749524 24.748259 
L 63.844218 24.81912 
L 63.949059 24.723775 
L 63.979496 24.734179 
L 64.033607 24.78021 
L 63.98626 24.71576 
L 64.0911 24.722114 
L 64.287253 24.734291 
L 64.290635 24.711958 
L 64.334601 24.700884 
L 64.324455 24.750552 
L 64.388712 24.763593 
L 64.500316 24.79063 
L 64.425913 24.706966 
L 64.503698 24.784239 
L 64.513844 24.809869 
L 64.564573 24.658488 
L 64.567955 24.681458 
L 64.591628 24.709045 
L 64.686323 24.616376 
L 64.801309 24.695754 
L 64.808073 24.676844 
L 64.882476 24.63985 
L 64.858802 24.700799 
L 64.919677 24.669634 
L 65.01099 24.737018 
L 64.970406 24.645837 
L 65.034663 24.693088 
L 65.139504 24.58117 
L 65.048191 24.723278 
L 65.183469 24.649288 
L 65.22067 24.691676 
L 65.240962 24.626559 
L 65.298455 24.666302 
L 65.403296 24.697998 
L 65.325511 24.639321 
L 65.410059 24.651807 
L 65.501372 24.697507 
L 65.416823 24.665779 
L 65.504754 24.71109 
L 65.606212 24.697961 
L 65.585921 24.636995 
L 65.609594 24.680058 
L 65.711053 24.708437 
L 65.663705 24.624332 
L 65.721199 24.652426 
L 65.761782 24.573258 
L 65.727962 24.665023 
L 65.846331 24.630674 
L 65.853094 24.655397 
L 65.900442 24.574908 
L 65.947789 24.575403 
L 66.049247 24.648189 
L 66.052629 24.664429 
L 66.127032 24.502948 
L 66.137178 24.542827 
L 66.248782 24.53311 
L 66.181143 24.617968 
L 66.252164 24.535009 
L 66.637706 24.451975 
L 66.739164 24.459785 
L 66.695199 24.503359 
L 66.745928 24.473274 
L 66.854151 24.510129 
L 66.881206 24.458221 
L 66.88797 24.435059 
L 66.958991 24.589521 
L 66.999574 24.572957 
L 67.016484 24.521823 
L 67.036776 24.519413 
L 67.155144 24.455304 
L 67.158526 24.457079 
L 67.266748 24.507245 
L 67.273512 24.493503 
L 67.418936 24.416435 
L 67.283658 24.523703 
L 67.422318 24.429841 
L 67.466283 24.450131 
L 67.435845 24.417445 
L 67.510248 24.37318 
L 67.642144 24.279323 
L 67.557595 24.398196 
L 67.655672 24.303493 
L 68.403082 24.101234 
L 68.436901 24.036859 
L 68.501158 24.139713 
L 68.511304 24.109609 
L 68.558651 24.150292 
L 68.585707 24.066875 
L 68.62629 24.101834 
L 68.76495 24.020678 
L 68.639818 24.107533 
L 68.768332 24.023488 
L 68.775096 24.017668 
L 68.893464 24.098377 
L 68.923902 24.105635 
L 69.02536 24.003351 
L 69.092999 24.014113 
L 69.126818 23.957186 
L 69.42443 23.814802 
L 69.444721 23.874415 
L 69.522506 23.759845 
L 69.718659 23.57272 
L 69.735569 23.61105 
L 69.793062 23.435907 
L 69.904666 23.381227 
L 69.921576 23.429229 
L 69.92834 23.454768 
L 69.999361 23.3177 
L 70.01627 23.319335 
L 70.263152 23.469027 
L 70.266534 23.447421 
L 70.357847 23.389821 
L 70.273298 23.455634 
L 70.388284 23.440006 
L 70.395048 23.458704 
L 70.462687 23.352449 
L 70.476215 23.357666 
L 71.473889 22.903767 
L 71.480653 22.925234 
L 71.588875 22.962688 
L 71.534764 22.898361 
L 71.599021 22.931347 
L 71.859431 22.708133 
L 71.862813 22.724753 
L 71.947362 22.762637 
L 71.974417 22.723878 
L 72.437744 22.573499 
L 72.579786 22.426251 
L 72.583168 22.456014 
L 72.593313 22.447934 
L 72.637279 22.562127 
L 72.650806 22.563067 
L 72.715063 22.713221 
L 72.765793 22.627421 
L 72.897689 22.478453 
L 72.924744 22.537601 
L 72.941654 22.575261 
L 73.002529 22.480587 
L 73.029584 22.504317 
L 73.175008 22.423399 
L 73.036348 22.522604 
L 73.205446 22.466151 
L 73.266321 22.53226 
L 73.320432 22.503184 
L 73.445564 22.433479 
L 73.45571 22.465058 
L 73.516585 22.373805 
L 73.662008 22.12242 
L 73.6823 22.15595 
L 73.749939 22.113093 
L 73.712738 22.110548 
L 73.763467 22.097097 
L 73.891981 21.944517 
L 73.902127 21.976442 
L 73.915654 21.995326 
L 73.979911 21.896025 
L 73.993439 21.917082 
L 74.135481 21.803487 
L 74.142245 21.822042 
L 74.199738 21.67498 
L 74.345162 21.49644 
L 74.206502 21.692271 
L 74.351925 21.508433 
L 74.355307 21.531514 
L 74.436474 21.363324 
L 74.439856 21.363486 
L 74.504113 21.245495 
L 74.805106 20.345883 
L 74.852454 18.999079 
L 74.872745 9.352628 
L 74.93362 23.969355 
L 74.943766 24.068166 
L 75.018169 23.449303 
L 75.224468 19.945459 
L 75.241377 12.522303 
L 75.248141 9.23044 
L 75.329308 24.357965 
L 75.339454 24.323183 
L 75.474732 22.995832 
L 75.643829 19.362396 
L 75.657357 9.38844 
L 75.728378 24.211928 
L 75.735141 24.359639 
L 75.81969 23.736528 
L 75.951586 21.935299 
L 76.06319 17.870905 
L 76.073336 9.486057 
L 76.151121 24.382301 
L 76.168031 24.311163 
L 76.398003 21.558176 
L 76.492697 19.174232 
L 76.506225 9.450297 
L 76.580628 24.408025 
L 76.58401 24.440877 
L 76.648267 24.036512 
L 76.956024 19.283114 
L 76.969552 9.451817 
L 77.040573 24.408536 
L 77.047337 24.508276 
L 77.131885 24.017902 
L 77.473462 19.580929 
L 77.493754 9.478225 
L 77.547865 22.287958 
L 77.571538 24.551231 
L 77.662851 24.036619 
L 77.798129 22.920752 
L 78.072066 18.191487 
L 78.082212 9.462576 
L 78.159997 24.589553 
L 78.173525 24.548029 
L 78.663907 20.711299 
L 78.741692 19.853548 
L 78.761983 15.931381 
L 78.772129 9.593987 
L 78.84315 24.524883 
L 78.863442 24.47562 
L 79.100178 22.862742 
L 79.499248 19.543255 
L 79.516157 13.15181 
L 79.522921 9.720521 
L 79.600706 24.478938 
L 79.610852 24.434102 
L 79.678491 24.044576 
L 79.969338 21.935212 
L 80.036977 21.46525 
L 80.300769 18.71179 
L 80.317679 9.838981 
L 80.3887 24.462288 
L 80.419137 24.366314 
L 80.960248 20.985113 
L 81.237568 19.442711 
L 81.25786 12.020634 
L 81.264624 10.19624 
L 81.335645 24.419174 
L 81.339026 24.409161 
L 81.815881 21.411809 
L 82.093201 20.0993 
L 82.133784 19.233899 
L 82.154076 10.004131 
L 82.201423 22.832307 
L 82.23186 24.547723 
L 82.316409 24.11705 
L 82.624166 22.421524 
L 82.850756 21.577741 
L 82.854138 21.581045 
L 82.877812 21.4594 
L 82.969125 21.266754 
L 83.019854 21.283555 
L 83.202479 21.137166 
L 83.232916 21.133181 
L 83.280264 21.066072 
L 83.297173 21.078625 
L 83.554201 21.187617 
L 83.696243 21.366461 
L 83.7605 21.32715 
L 83.811229 21.354499 
L 84.02091 21.615719 
L 84.024292 21.607511 
L 84.122368 21.624464 
L 84.139278 21.644501 
L 84.311757 21.924081 
L 84.321903 21.893824 
L 84.325285 21.888934 
L 84.376014 21.981232 
L 84.406452 21.964242 
L 84.409834 21.963203 
L 84.41998 22.049238 
L 84.423361 22.056148 
L 84.548494 22.187818 
L 84.555257 22.179916 
L 84.609369 22.288416 
L 84.710827 22.400072 
L 84.734501 22.376595 
L 84.737882 22.372857 
L 84.78523 22.477523 
L 84.788612 22.478499 
L 85.921564 23.649429 
L 85.924946 23.6463 
L 85.928328 23.625427 
L 85.979057 23.717149 
L 86.026404 23.701424 
L 86.144772 23.78794 
L 86.154918 23.757019 
L 86.168446 23.720843 
L 86.236085 23.8298 
L 86.26314 23.780416 
L 86.526932 23.884271 
L 86.604717 23.89807 
L 86.537078 23.864399 
L 86.62839 23.848914 
L 86.631772 23.841082 
L 86.67912 23.949955 
L 86.712939 23.922059 
L 86.763668 24.008155 
L 86.834689 23.958335 
L 87.538134 24.383651 
L 86.858363 23.877353 
L 87.551662 24.346022 
L 87.656502 24.303323 
L 87.602391 24.372052 
L 87.666648 24.324093 
L 87.741051 24.329121 
L 87.690322 24.285361 
L 87.771488 24.289674 
L 87.89662 24.377184 
L 87.927058 24.326934 
L 87.933822 24.308763 
L 87.991315 24.413466 
L 88.01837 24.393573 
L 88.086009 24.529104 
L 88.136739 24.48535 
L 88.272016 24.400951 
L 88.153648 24.514486 
L 88.285544 24.424485 
L 88.305836 24.458159 
L 88.366711 24.377629 
L 88.393766 24.403357 
L 88.420822 24.359839 
L 88.508753 24.393276 
L 88.613593 24.46167 
L 88.545954 24.368742 
L 88.630503 24.403377 
L 88.802982 24.321386 
L 88.806364 24.328598 
L 89.005899 24.502556 
L 89.016045 24.49327 
L 89.127649 24.455683 
L 89.080302 24.576689 
L 89.131031 24.460804 
L 89.222343 24.582501 
L 89.252781 24.564681 
L 89.296746 24.526381 
L 89.327184 24.683399 
L 89.333947 24.670207 
L 89.455698 24.77829 
L 89.624795 24.738001 
L 89.689052 24.773523 
L 89.712725 24.714895 
L 89.736399 24.754907 
L 89.800656 24.717576 
L 89.814184 24.814141 
L 89.841239 24.782969 
L 89.908878 24.776729 
L 89.925788 24.71132 
L 89.939316 24.731221 
L 90.03401 24.733173 
L 90.010337 24.808025 
L 90.044156 24.764439 
L 90.737455 24.747668 
L 90.757747 24.713608 
L 90.808476 24.797724 
L 90.849059 24.751005 
L 91.001247 24.769694 
L 91.004629 24.792392 
L 91.068886 24.770721 
L 91.068886 24.770721 
" clip-path="url(#pa8bb4c173f)" style="fill: none; stroke: #000000; stroke-width: 0.6; stroke-linecap: square"/>
   </g>
   <g id="line2d_2">
    <path d="M 9.905557 42.164518 
L 10.057745 42.010917 
L 10.098328 42.059717 
L 10.24037 42.186675 
L 10.115238 42.047353 
L 10.250516 42.178869 
L 10.581946 42.232955 
L 10.58871 42.19167 
L 10.598856 42.213684 
L 10.737516 42.047538 
L 10.86603 42.100809 
L 10.788245 42.017169 
L 10.869412 42.090817 
L 10.889703 42.060668 
L 10.940433 42.202027 
L 10.967488 42.147543 
L 10.977634 42.178933 
L 11.065565 42.119967 
L 11.079092 42.145965 
L 11.200842 42.230981 
L 11.116294 42.120593 
L 11.204224 42.221456 
L 11.35303 42.112263 
L 11.359794 42.116253 
L 11.366558 42.162401 
L 11.403759 42.065185 
L 11.468016 42.085809 
L 11.545801 42.053885 
L 11.572857 42.116958 
L 11.664169 42.197983 
L 11.708134 42.17698 
L 12.330413 41.968654 
L 12.354086 42.03607 
L 12.394669 42.073864 
L 12.431871 42.004005 
L 12.462308 42.028798 
L 12.888434 41.878901 
L 12.901961 41.824568 
L 12.9696 41.952774 
L 12.996656 41.909027 
L 13.060913 41.957601 
L 13.00342 41.925427 
L 13.077823 41.987728 
L 13.09135 41.937978 
L 13.165753 41.938197 
L 13.189427 41.880467 
L 13.226628 42.000296 
L 13.273976 41.957292 
L 13.38558 42.013826 
L 13.344996 41.921894 
L 13.399108 41.995531 
L 13.470128 41.928927 
L 13.52424 41.988413 
L 13.673045 42.11459 
L 13.835379 41.949989 
L 13.848906 41.967062 
L 13.943601 41.981981 
L 13.967275 41.918941 
L 14.021386 41.855549 
L 14.082261 41.903417 
L 14.183719 42.015833 
L 14.09917 41.896859 
L 14.224302 41.980335 
L 14.390018 42.050358 
L 14.511768 42.005937 
L 14.525296 42.019159 
L 14.599698 41.928091 
L 14.60308 41.934694 
L 14.697775 41.892949 
L 14.623372 41.94379 
L 14.718067 41.912093 
L 14.74174 41.860808 
L 14.833053 41.910727 
L 14.843199 41.907415 
L 14.870254 42.002859 
L 14.8804 42.011492 
L 15.090081 42.012972 
L 15.096845 41.959851 
L 15.235504 41.887708 
L 15.242268 41.905717 
L 15.347109 41.969925 
L 15.360636 41.925767 
L 15.492532 41.927948 
L 15.411366 41.876546 
L 15.495914 41.923488 
L 15.580463 41.80222 
L 15.617664 41.88905 
L 15.715741 41.958555 
L 15.64472 41.88423 
L 15.729269 41.931793 
L 15.803671 41.918048 
L 15.739414 41.960814 
L 15.834109 41.956978 
L 15.986296 41.913423 
L 15.989678 41.879336 
L 16.118192 41.806839 
L 16.128338 41.817506 
L 16.219651 41.918093 
L 16.256852 41.89259 
L 16.415804 41.718583 
L 16.419186 41.723277 
L 16.517262 41.931885 
L 16.557845 41.905617 
L 16.632248 41.848119 
L 16.595047 41.939807 
L 16.679595 41.883983 
L 16.710033 41.918854 
L 16.74047 41.859436 
L 16.7912 41.886005 
L 16.808109 41.901493 
L 16.845311 41.813777 
L 16.868984 41.814936 
L 16.885894 41.765472 
L 16.936623 41.851668 
L 16.980589 41.814828 
L 17.092193 41.78949 
L 17.014408 41.86191 
L 17.098957 41.821033 
L 17.186887 41.811494 
L 17.129394 41.771344 
L 17.200415 41.78828 
L 17.210561 41.749512 
L 17.298492 41.824161 
L 17.312019 41.792573 
L 17.362749 41.695977 
L 17.318783 41.798617 
L 17.440533 41.76084 
L 17.596103 42.030274 
L 17.599485 42.029105 
L 17.724617 41.955611 
L 17.880186 41.783056 
L 17.890332 41.808147 
L 17.897096 41.830344 
L 17.937679 41.741671 
L 17.995173 41.776673 
L 18.103395 41.732875 
L 18.001936 41.795019 
L 18.133832 41.794953 
L 18.160888 41.826443 
L 18.231909 41.768306 
L 18.245437 41.805532 
L 18.2522 41.77212 
L 18.336749 41.913138 
L 18.42468 41.978178 
L 18.380714 41.902163 
L 18.451735 41.965867 
L 18.475409 41.977209 
L 18.51261 41.87883 
L 18.522756 41.885151 
L 18.539666 41.81459 
L 18.641124 41.870092 
L 18.678326 41.894845 
L 18.729055 41.796899 
L 18.739201 41.806611 
L 18.820367 41.745083 
L 18.844041 41.839738 
L 18.877861 41.866366 
L 18.860951 41.804086 
L 18.935354 41.775905 
L 18.972555 41.799328 
L 19.05034 41.769998 
L 19.121361 41.80498 
L 19.161944 41.755598 
L 19.41559 41.662958 
L 19.178854 41.807637 
L 19.422354 41.682981 
L 19.517048 41.759176 
L 19.540722 41.729267 
L 19.625271 41.600768 
L 19.665854 41.642809 
L 19.69291 41.67021 
L 19.753785 41.573033 
L 20.061542 41.575762 
L 20.064924 41.552108 
L 20.183292 41.399653 
L 20.193438 41.410541 
L 20.964521 41.1971 
L 21.08289 41.090244 
L 21.089653 41.106215 
L 21.096417 41.137894 
L 21.180966 40.987972 
L 21.184348 40.989082 
L 21.316244 40.866803 
L 21.251987 41.03318 
L 21.323008 40.877708 
L 21.424466 40.867129 
L 21.437994 40.837285 
L 21.458286 40.874379 
L 21.644293 40.757845 
L 21.647675 40.792654 
L 21.715313 40.723816 
L 21.749133 40.723331 
L 21.891175 40.587355 
L 21.908084 40.642748 
L 22.033216 40.710849 
L 21.924994 40.634877 
L 22.036598 40.707585 
L 22.060272 40.716943 
L 22.171876 40.572891 
L 22.303772 40.440657 
L 22.310536 40.42337 
L 22.368029 40.52528 
L 22.401849 40.497829 
L 22.763717 40.127492 
L 22.811064 40.234572 
L 22.878703 40.140311 
L 22.902377 40.150308 
L 23.013981 40.065769 
L 23.078238 40.004959 
L 23.030891 40.089234 
L 23.145877 40.046112 
L 23.22028 40.087043 
L 23.260863 40.058656 
L 23.338648 40.088532 
L 23.271009 40.038522 
L 23.365703 40.014731 
L 23.389377 40.055436 
L 23.500981 39.907463 
L 23.680224 39.687971 
L 23.686988 39.70272 
L 23.730953 39.743498 
L 23.801974 39.705118 
L 23.805356 39.661511 
L 23.862849 39.790156 
L 23.910197 39.736538 
L 24.015037 39.648064 
L 23.927106 39.744919 
L 24.028565 39.67277 
L 24.143551 39.626867 
L 24.146933 39.611234 
L 24.265301 39.517056 
L 24.272065 39.537083 
L 24.586586 39.253165 
L 24.660989 39.259963 
L 24.610259 39.221005 
L 24.694808 39.237854 
L 24.80303 39.149805 
L 24.961982 38.942191 
L 24.965364 38.961073 
L 25.060058 38.868862 
L 25.06344 38.903139 
L 25.222392 38.765894 
L 25.239301 38.810563 
L 25.246065 38.834132 
L 25.313704 38.638314 
L 25.317086 38.639097 
L 25.540295 37.518858 
L 25.563968 34.818534 
L 25.577496 26.736485 
L 25.648517 39.994064 
L 25.668809 39.836709 
L 25.817614 36.318098 
L 25.831142 27.752571 
L 25.902163 40.537501 
L 25.919073 40.322515 
L 26.067878 37.108688 
L 26.084788 27.827175 
L 26.145663 39.298763 
L 26.159191 40.730817 
L 26.253885 39.12272 
L 26.338434 35.816047 
L 26.34858 27.814044 
L 26.422983 40.874502 
L 26.443274 40.645851 
L 26.60899 36.424631 
L 26.622518 27.820264 
L 26.69692 41.026008 
L 26.707066 40.924007 
L 26.882927 37.495796 
L 26.899837 33.391745 
L 26.906601 27.602552 
L 26.981004 41.180055 
L 27.004677 40.959035 
L 27.173775 37.870924 
L 27.20083 34.536525 
L 27.207594 27.521551 
L 27.285379 41.339739 
L 27.305671 41.153229 
L 27.451094 38.827183 
L 27.522115 36.068736 
L 27.532261 27.351395 
L 27.613428 41.450857 
L 27.623574 41.370907 
L 27.789289 38.910349 
L 27.867074 36.277827 
L 27.87722 27.293449 
L 27.958386 41.557482 
L 27.968532 41.47286 
L 28.066609 40.257886 
L 28.232324 36.559053 
L 28.245852 27.221565 
L 28.327018 41.620388 
L 28.428477 40.489812 
L 28.604338 37.621236 
L 28.62463 34.297442 
L 28.631394 27.180109 
L 28.71256 41.678543 
L 28.72947 41.572701 
L 29.033845 36.645757 
L 29.047373 27.090135 
L 29.125158 41.682679 
L 29.12854 41.698412 
L 29.165741 41.379339 
L 29.405859 38.375429 
L 29.463352 36.502925 
L 29.47688 27.070336 
L 29.554665 41.72287 
L 29.558047 41.701626 
L 29.710234 40.117024 
L 29.909769 36.707492 
L 29.923297 27.070399 
L 29.9977 41.698146 
L 30.001082 41.726844 
L 30.055193 41.292386 
L 30.37986 36.291561 
L 30.393388 27.085666 
L 30.46779 41.722226 
L 30.477936 41.682269 
L 30.596304 40.496797 
L 30.856714 36.624764 
L 30.870242 27.1214 
L 30.944645 41.703155 
L 30.948027 41.701393 
L 31.120506 40.000348 
L 31.343715 35.643424 
L 31.35386 27.070809 
L 31.431645 41.73198 
L 31.445173 41.66097 
L 31.786749 38.127062 
L 31.844243 36.620371 
L 31.861152 27.183128 
L 31.932173 41.675135 
L 31.935555 41.688036 
L 31.972757 41.39737 
L 32.27375 38.427608 
L 32.287278 38.933325 
L 32.425937 39.781744 
L 32.432701 39.767221 
L 32.618708 40.153496 
L 32.76075 40.491172 
L 33.068507 41.430332 
L 33.119236 41.492303 
L 33.122618 41.524102 
L 33.28157 41.907395 
L 33.284952 41.89642 
L 33.426993 42.07589 
L 33.295098 41.882433 
L 33.443903 42.040794 
L 33.880174 42.243055 
L 33.897084 42.194338 
L 34.005306 42.164863 
L 33.957959 42.2131 
L 34.01207 42.169302 
L 34.160876 42.223555 
L 34.16764 42.190032 
L 34.174404 42.17192 
L 34.265716 42.255007 
L 34.269098 42.243288 
L 34.37732 42.182724 
L 34.404376 42.199641 
L 34.51598 42.265865 
L 34.424668 42.163306 
L 34.539654 42.226789 
L 34.597147 42.261421 
L 34.701987 42.139334 
L 34.827119 42.170496 
L 34.894758 42.14385 
L 34.854175 42.201076 
L 34.928578 42.201005 
L 35.01989 42.278803 
L 35.050328 42.232303 
L 35.182224 42.176572 
L 35.094293 42.305237 
L 35.188987 42.189949 
L 35.324265 42.237625 
L 35.195751 42.172413 
L 35.334411 42.226465 
L 35.466307 42.153123 
L 35.374995 42.253002 
L 35.469689 42.155293 
L 35.486599 42.187119 
L 35.55762 42.118698 
L 35.577911 42.138063 
L 35.794356 42.197803 
L 35.591439 42.118572 
L 35.797738 42.185171 
L 35.872141 42.150926 
L 35.892432 42.222736 
L 35.90596 42.184537 
L 35.966835 42.246944 
L 35.933016 42.172782 
L 36.0108 42.158693 
L 36.085203 42.074419 
L 36.024328 42.168399 
L 36.115641 42.177333 
L 36.18328 42.210651 
L 36.139314 42.125746 
L 36.223863 42.153571 
L 36.338849 42.135472 
L 36.281356 42.238725 
L 36.348995 42.177647 
L 36.42678 42.180017 
L 36.40987 42.111877 
L 36.450453 42.154131 
L 36.463981 42.118221 
L 36.51471 42.208243 
L 36.558676 42.168795 
L 36.585731 42.143208 
L 36.649988 42.233101 
L 36.65337 42.248202 
L 36.677044 42.177197 
L 36.754829 42.210619 
L 36.907016 42.157592 
L 36.923926 42.199383 
L 36.93069 42.211841 
L 36.978037 42.056849 
L 36.984801 42.064359 
L 37.025384 42.042412 
L 37.065968 42.132859 
L 37.167426 42.227727 
L 37.194482 42.190072 
L 37.272266 42.189374 
L 37.292558 42.241504 
L 37.299322 42.259805 
L 37.360197 42.108998 
L 37.383871 42.067518 
L 37.444746 42.189745 
L 37.461655 42.158166 
L 37.475183 42.162993 
L 37.502239 42.073614 
L 37.549586 42.089472 
L 37.820142 42.205869 
L 37.941892 42.12175 
L 37.948656 42.132058 
L 38.016295 42.161644 
L 38.050114 42.090011 
L 38.053496 42.097027 
L 38.188774 42.175954 
L 38.19892 42.159667 
L 38.364635 42.100303 
L 38.374781 42.117536 
L 38.469475 42.144424 
L 38.384927 42.10701 
L 38.493149 42.121217 
L 38.68592 42.20576 
L 38.723121 42.149266 
L 38.821198 42.149989 
L 38.767087 42.211422 
L 38.827962 42.169217 
L 38.844871 42.178702 
L 38.905746 42.091188 
L 38.92942 42.052148 
L 38.959858 42.173889 
L 39.007205 42.136547 
L 39.145865 42.200535 
L 39.162774 42.150245 
L 39.169538 42.121611 
L 39.196594 42.221984 
L 39.260851 42.204909 
L 39.463768 42.152753 
L 39.484059 42.122114 
L 39.514497 42.179266 
L 39.568608 42.16766 
L 39.615955 42.223748 
L 39.67683 42.17515 
L 39.801962 42.078205 
L 39.805344 42.084028 
L 39.92033 42.129537 
L 39.930476 42.116859 
L 40.018407 42.102466 
L 39.987969 42.165808 
L 40.038698 42.130251 
L 40.136775 42.213904 
L 40.157067 42.165011 
L 40.170594 42.140053 
L 40.231469 42.197271 
L 40.265289 42.180645 
L 40.464824 42.135838 
L 40.468206 42.144058 
L 40.535845 42.214863 
L 40.478351 42.125142 
L 40.576428 42.123605 
L 40.630539 42.065834 
L 40.586574 42.137622 
L 40.691414 42.142293 
L 40.809782 42.193929 
L 40.755671 42.107939 
L 40.819928 42.171966 
L 40.82331 42.162347 
L 40.84022 42.248121 
L 40.918004 42.220758 
L 41.303546 42.225907 
L 41.361039 42.245837 
L 41.32722 42.185555 
L 41.405005 42.190017 
L 41.482789 42.158116 
L 41.43206 42.211453 
L 41.519991 42.185237 
L 41.69247 42.100891 
L 41.702616 42.07688 
L 41.790547 42.163011 
L 41.793929 42.158919 
L 42.169325 42.133406 
L 42.192998 42.074682 
L 42.253873 42.190979 
L 42.280929 42.127722 
L 42.406061 42.20257 
L 42.571776 42.156851 
L 42.433116 42.244024 
L 42.588686 42.190684 
L 42.598832 42.21601 
L 42.659707 42.069467 
L 42.676617 42.091283 
L 42.801749 42.030397 
L 42.811894 42.067173 
L 42.940408 42.135643 
L 42.950554 42.12591 
L 43.055395 42.094059 
L 43.008047 42.183444 
L 43.062158 42.113943 
L 43.085832 42.146481 
L 43.153471 42.043603 
L 43.160235 42.05096 
L 43.295513 41.993243 
L 43.30904 42.007444 
L 43.329332 41.986031 
L 43.508575 42.122164 
L 43.522103 42.093053 
L 43.613416 42.15245 
L 43.72502 42.204695 
L 43.62018 42.144669 
L 43.752075 42.175448 
L 43.796041 42.112079 
L 43.853534 42.209046 
L 43.856916 42.196008 
L 43.911027 42.226333 
L 43.870444 42.169245 
L 43.95161 42.135541 
L 44.07336 42.084046 
L 44.093652 42.145835 
L 44.151145 42.143317 
L 44.181583 42.07151 
L 44.184965 42.080592 
L 44.242458 42.011626 
L 44.201874 42.085637 
L 44.296569 42.075445 
L 44.357444 42.120846 
L 44.33377 42.029849 
L 44.408173 42.076385 
L 44.469048 42.11798 
L 44.506249 42.041495 
L 44.516395 42.058331 
L 44.628 42.025497 
L 44.543451 42.076898 
L 44.631381 42.039524 
L 44.634763 42.028388 
L 44.712548 42.137918 
L 44.729458 42.093447 
L 44.841062 42.007306 
L 44.915465 41.948132 
L 44.952666 42.003022 
L 45.033833 41.915737 
L 45.077798 41.955558 
L 45.199548 42.073096 
L 45.094708 41.927713 
L 45.21984 42.041669 
L 45.243514 41.979909 
L 45.301007 42.060793 
L 45.331444 42.021829 
L 45.351736 42.046436 
L 45.422757 41.926207 
L 45.429521 41.955467 
L 45.432903 41.918999 
L 45.534361 42.022162 
L 45.578326 42.01243 
L 45.615528 42.083194 
L 45.625674 42.074188 
L 45.662875 42.128749 
L 45.713604 42.009818 
L 45.727132 42.019729 
L 45.737278 42.004639 
L 45.771097 42.106979 
L 45.82859 42.058132 
L 45.838736 42.0806 
L 45.909757 41.974771 
L 45.919903 41.987746 
L 46.129584 41.80376 
L 46.26148 41.953471 
L 46.268243 41.927068 
L 46.376466 41.929055 
L 46.318973 41.984092 
L 46.379848 41.930636 
L 46.484688 42.017436 
L 46.535417 41.92706 
L 46.636876 41.855357 
L 46.657167 41.864263 
L 46.897286 42.028726 
L 46.931105 42.110808 
L 46.988598 41.998213 
L 47.00889 42.027772 
L 47.13064 41.894198 
L 47.14755 41.923359 
L 47.282827 41.979121 
L 47.198279 41.882094 
L 47.286209 41.973575 
L 47.627786 41.818705 
L 47.644696 41.877501 
L 47.664987 41.908972 
L 47.712335 41.812422 
L 47.746154 41.823297 
L 47.854376 41.811995 
L 47.790119 41.858398 
L 47.86114 41.833853 
L 47.98289 41.906497 
L 47.888196 41.763999 
L 47.989654 41.884644 
L 48.067439 41.86247 
L 48.080967 41.938329 
L 48.091113 41.92015 
L 48.13846 41.954159 
L 48.192571 41.862411 
L 48.246682 41.776685 
L 48.304175 41.867329 
L 48.354904 41.914968 
L 48.36505 41.957642 
L 48.449599 42.007619 
L 48.392106 41.942046 
L 48.480036 41.978497 
L 48.591641 41.86145 
L 48.598404 41.901488 
L 48.618696 41.925417 
L 48.666043 41.845575 
L 48.703245 41.879936 
L 48.824995 41.823044 
L 48.845287 41.842409 
L 48.848669 41.856512 
L 48.916307 41.774675 
L 48.943363 41.791194 
L 48.983946 41.833973 
L 49.071877 41.794835 
L 49.082023 41.786318 
L 49.224065 41.942675 
L 49.25112 41.8994 
L 49.335669 41.964015 
L 49.447273 42.007453 
L 49.457419 41.987126 
L 49.504766 42.024302 
L 49.565641 41.954986 
L 49.714447 41.810825 
L 49.721211 41.8296 
L 49.724593 41.84845 
L 49.809141 41.713373 
L 49.856489 41.766875 
L 49.934273 41.699812 
L 50.099989 41.959232 
L 50.103371 41.951973 
L 50.116898 41.872677 
L 50.13719 41.989947 
L 50.211593 41.950857 
L 50.265704 41.98134 
L 50.313051 41.903254 
L 50.570079 41.796389 
L 50.576843 41.82824 
L 50.607281 41.874739 
L 50.678301 41.789002 
L 50.999586 41.737795 
L 51.226177 41.674959 
L 51.229559 41.698911 
L 51.320871 41.616599 
L 51.334399 41.652705 
L 51.462913 41.530567 
L 51.476441 41.506543 
L 51.554226 41.601389 
L 51.560989 41.587829 
L 51.621864 41.673411 
L 51.679358 41.596414 
L 51.77067 41.571908 
L 51.794344 41.592468 
L 51.838309 41.603742 
L 51.872128 41.510538 
L 51.878892 41.521811 
L 51.90933 41.455259 
L 51.976969 41.567344 
L 51.980351 41.566804 
L 51.987115 41.586384 
L 52.044608 41.494018 
L 52.078427 41.515032 
L 53.366949 41.051645 
L 53.465025 40.9265 
L 53.373713 41.059228 
L 53.488699 40.973184 
L 53.583393 40.949972 
L 53.512372 40.903342 
L 53.590157 40.932893 
L 53.684852 40.803559 
L 53.711907 40.871166 
L 53.725435 40.892765 
L 53.782928 40.808813 
L 53.809984 40.821833 
L 53.948644 40.709946 
L 53.857331 40.857681 
L 53.975699 40.748034 
L 54.070394 40.805953 
L 54.006137 40.726822 
L 54.090685 40.775209 
L 54.249637 40.530058 
L 54.276692 40.578296 
L 54.296984 40.49774 
L 54.361241 40.529826 
L 54.554012 40.392098 
L 54.814422 40.430456 
L 54.841477 40.434767 
L 54.902352 40.341099 
L 55.095123 40.340551 
L 55.101887 40.315291 
L 55.213491 40.276222 
L 55.115415 40.345448 
L 55.220255 40.303338 
L 55.389353 40.257399 
L 55.392735 40.262677 
L 55.399498 40.23041 
L 55.470519 40.193131 
L 55.497575 40.091784 
L 55.585506 40.155309 
L 55.636235 40.174099 
L 55.66329 40.092772 
L 55.6802 40.106023 
L 55.839151 39.900749 
L 55.714019 40.122553 
L 55.862825 39.912163 
L 55.950756 39.970076 
L 55.876353 39.903867 
L 55.971047 39.928505 
L 56.099561 39.810045 
L 56.204402 39.89444 
L 56.221311 39.877932 
L 56.370117 39.628501 
L 56.397173 39.653179 
L 56.711694 39.54829 
L 56.434374 39.752791 
L 56.718458 39.573702 
L 56.80977 39.648486 
L 56.84359 39.557081 
L 56.999159 39.397595 
L 57.002541 39.406581 
L 57.005923 39.410062 
L 57.03636 39.327671 
L 57.07018 39.32269 
L 57.083708 39.336277 
L 57.235895 39.109369 
L 57.276479 39.168402 
L 57.333972 39.067155 
L 57.486159 38.78987 
L 57.57409 38.608024 
L 57.591 38.622958 
L 57.831118 37.186647 
L 57.848028 32.490135 
L 57.858173 26.758627 
L 57.929194 39.978816 
L 57.949486 39.80446 
L 58.078 37.706686 
L 58.101674 35.748019 
L 58.111819 27.708456 
L 58.18284 40.512523 
L 58.206514 40.226204 
L 58.35532 36.60239 
L 58.368847 27.805863 
L 58.44325 40.715541 
L 58.450014 40.638073 
L 58.551472 38.846609 
L 58.622493 35.233096 
L 58.632639 27.886892 
L 58.70366 40.863976 
L 58.727334 40.602169 
L 58.889667 36.729483 
L 58.903195 27.747927 
L 58.977598 41.013055 
L 58.98098 40.996855 
L 59.099348 39.00861 
L 59.173751 36.586059 
L 59.187278 27.659376 
L 59.261681 41.172413 
L 59.268445 41.137847 
L 59.471362 37.09632 
L 59.488272 27.495711 
L 59.549147 39.228668 
L 59.562674 41.308787 
L 59.660751 40.041275 
L 59.796029 36.726479 
L 59.809556 27.380967 
L 59.887341 41.429222 
L 59.924543 41.054074 
L 60.137605 36.787684 
L 60.151133 27.274949 
L 60.225536 41.52056 
L 60.228918 41.546046 
L 60.276265 41.081584 
L 60.377723 39.61732 
L 60.502855 36.653138 
L 60.516383 27.217887 
L 60.594168 41.59777 
L 60.715918 40.255137 
L 60.888397 36.268505 
L 60.898543 27.212793 
L 60.97971 41.655403 
L 60.989856 41.594841 
L 61.128515 39.979928 
L 61.300995 34.966324 
L 61.311141 27.154403 
L 61.388925 41.686748 
L 61.405835 41.556831 
L 61.547877 39.963084 
L 61.72712 36.187787 
L 61.740648 27.180187 
L 61.815051 41.687181 
L 61.828578 41.626228 
L 62.163391 37.214109 
L 62.180301 27.729437 
L 62.183683 27.095629 
L 62.237794 37.228158 
L 62.258086 41.71046 
L 62.35278 40.868301 
L 62.6301 36.204585 
L 62.643627 27.127656 
L 62.721412 41.719451 
L 62.728176 41.67472 
L 63.106954 37.170322 
L 63.123864 28.184641 
L 63.127246 27.141059 
L 63.191503 41.364385 
L 63.201649 41.674267 
L 63.292961 40.883136 
L 63.445149 39.172171 
L 63.489114 39.656597 
L 63.735996 39.479979 
L 63.756288 39.567807 
L 63.925385 40.018406 
L 63.935531 40.003809 
L 64.703233 42.076039 
L 64.726906 41.988264 
L 64.814837 42.090187 
L 64.835129 42.039144 
L 64.862184 42.14955 
L 64.916295 42.133361 
L 64.970406 42.195084 
L 65.021136 42.096491 
L 65.109066 42.172708 
L 65.129358 42.110273 
L 65.247726 42.203177 
L 65.257872 42.177956 
L 65.264636 42.1552 
L 65.315365 42.221494 
L 65.366094 42.191197 
L 65.372858 42.186179 
L 65.518282 42.211358 
L 65.538573 42.147808 
L 65.629886 42.197752 
L 65.738108 42.169809 
L 65.748254 42.18728 
L 65.751636 42.216543 
L 65.836185 42.140695 
L 65.856476 42.189755 
L 65.981608 42.089579 
L 65.991754 42.116411 
L 66.177761 42.210096 
L 66.181143 42.206195 
L 66.313039 42.051607 
L 66.316421 42.056224 
L 66.36715 42.207598 
L 66.441553 42.107671 
L 66.600505 42.184926 
L 66.617414 42.146437 
L 66.664762 42.107977 
L 66.641088 42.180909 
L 66.725637 42.163258 
L 66.884588 42.154939 
L 66.7324 42.182106 
L 66.88797 42.177612 
L 66.901498 42.218872 
L 66.945463 42.150873 
L 66.999574 42.179919 
L 71.30141 42.176438 
L 71.331847 42.212792 
L 71.369049 42.165599 
L 71.413014 42.175246 
L 71.507709 42.232403 
L 71.453597 42.138316 
L 71.541528 42.169381 
L 71.626077 42.073188 
L 71.663278 42.132122 
L 71.744445 42.200048 
L 71.710625 42.07679 
L 71.781646 42.164053 
L 71.879723 42.2007 
L 71.903396 42.178194 
L 71.991327 42.157548 
L 71.913542 42.189599 
L 72.015001 42.186703 
L 72.410688 42.075456 
L 72.035292 42.231534 
L 72.41407 42.082313 
L 72.444508 42.177935 
L 72.539202 42.140379 
L 74.270759 42.190946 
L 74.274141 42.19964 
L 74.328252 42.082485 
L 74.348544 42.098008 
L 74.385745 42.165534 
L 74.46353 42.056367 
L 74.838926 41.987282 
L 74.84569 41.953374 
L 74.923474 42.09945 
L 74.937002 42.070244 
L 74.957294 42.137723 
L 75.051988 42.076271 
L 75.758815 42.116715 
L 75.839982 42.156753 
L 75.877183 42.112671 
L 75.894093 42.129959 
L 76.012461 42.057412 
L 76.032753 42.092898 
L 76.103774 41.974967 
L 76.107156 41.984667 
L 76.110538 41.970223 
L 76.191704 42.095542 
L 76.255961 42.144954 
L 76.30669 42.076289 
L 76.458878 42.123836 
L 76.465642 42.101205 
L 76.570482 41.995138 
L 76.587392 42.032821 
L 76.86133 41.951593 
L 76.98308 41.871158 
L 77.091302 41.992205 
L 77.010135 41.845674 
L 77.108212 41.944989 
L 77.415969 41.961908 
L 77.507281 41.960948 
L 77.524191 41.990309 
L 77.622268 42.106494 
L 77.547865 41.964662 
L 77.645941 42.077893 
L 77.781219 41.937545 
L 77.801511 41.959095 
L 77.808275 41.986002 
L 77.899587 41.872199 
L 78.136323 42.09348 
L 78.146469 42.071902 
L 78.542157 41.885537 
L 78.660525 41.853556 
L 78.572594 41.947068 
L 78.663907 41.879928 
L 78.758601 41.884021 
L 78.680817 41.895945 
L 78.768747 41.906255 
L 78.893879 41.995172 
L 78.904025 41.975881 
L 79.029157 41.922429 
L 79.123852 41.827305 
L 79.144143 41.866792 
L 79.24222 41.933699 
L 79.262511 41.90239 
L 79.509394 41.768892 
L 79.272657 41.915468 
L 79.536449 41.813837 
L 79.631144 41.969935 
L 79.546595 41.803379 
L 79.658199 41.881914 
L 79.739366 41.865504 
L 79.705546 41.934943 
L 79.769803 41.896818 
L 79.773185 41.91867 
L 79.844206 41.850364 
L 79.878026 41.896416 
L 79.881408 41.884261 
L 79.95581 42.019857 
L 79.959192 42.015419 
L 80.050505 42.016495 
L 79.999776 41.978944 
L 80.070797 41.985418 
L 80.415755 41.906787 
L 80.419137 41.918591 
L 80.449575 41.963738 
L 80.496922 41.859836 
L 80.527359 41.882255 
L 80.605144 41.986718 
L 80.642346 41.921686 
L 80.666019 41.946149 
L 80.781005 41.781621 
L 80.784387 41.795969 
L 80.828353 41.708719 
L 80.885846 41.747864 
L 81.038033 41.854929 
L 80.916283 41.708396 
L 81.041415 41.83652 
L 81.176693 41.69551 
L 81.068471 41.857233 
L 81.180075 41.701661 
L 81.244332 41.647988 
L 81.372846 41.840162 
L 81.46754 41.797637 
L 81.413429 41.883761 
L 81.487832 41.824386 
L 81.612964 41.935589 
L 81.700895 41.871388 
L 81.629874 41.963714 
L 81.731332 41.877823 
L 81.771916 41.9266 
L 81.809117 41.816554 
L 81.819263 41.816058 
L 81.876756 41.725022 
L 81.930867 41.795964 
L 81.937631 41.822141 
L 82.198041 41.837139 
L 82.309645 41.909015 
L 82.329937 41.887634 
L 82.350228 41.840307 
L 82.428013 41.929166 
L 82.434777 41.927625 
L 82.455069 41.913903 
L 82.49227 42.021399 
L 82.495652 42.023581 
L 82.566673 42.12392 
L 82.50918 42.011337 
L 82.627548 42.063357 
L 82.830465 41.86647 
L 82.840611 41.880775 
L 82.85752 41.902891 
L 82.90825 41.847797 
L 82.945451 41.852792 
L 83.053673 41.696564 
L 83.087493 41.737669 
L 83.13484 41.804615 
L 83.185569 41.704871 
L 83.195715 41.728627 
L 83.263354 41.73917 
L 83.209243 41.709572 
L 83.300555 41.699602 
L 83.53391 41.665852 
L 83.581257 41.780474 
L 83.65566 41.726648 
L 83.953271 41.592587 
L 83.956653 41.603619 
L 83.990472 41.624707 
L 84.024292 41.562083 
L 84.058111 41.565804 
L 84.257646 41.353751 
L 84.075021 41.578285 
L 84.26441 41.392693 
L 84.605987 41.366171 
L 84.707445 41.127222 
L 84.737882 41.1662 
L 84.829195 41.18406 
L 84.754792 41.142895 
L 84.846105 41.14578 
L 84.920508 41.029064 
L 84.984765 41.090123 
L 85.052404 41.13995 
L 85.096369 41.113349 
L 85.211355 40.84188 
L 85.265466 40.904559 
L 85.339869 40.935158 
L 85.356779 40.871392 
L 85.373688 40.89359 
L 85.485293 40.791561 
L 85.495438 40.836668 
L 85.995967 40.662328 
L 86.006112 40.716912 
L 86.087279 40.584964 
L 86.090661 40.589308 
L 86.171828 40.48439 
L 86.229321 40.531363 
L 86.290196 40.535829 
L 86.26314 40.503981 
L 86.320633 40.494266 
L 86.442383 40.395527 
L 86.55737 40.320434 
L 86.564133 40.337843 
L 86.621627 40.3563 
L 86.655446 40.2774 
L 86.66221 40.292335 
L 86.804252 40.085121 
L 86.699411 40.318957 
L 86.814398 40.104823 
L 86.932766 40.026845 
L 86.831307 40.1367 
L 86.966585 40.099845 
L 86.986877 40.136985 
L 87.639592 39.792119 
L 87.642974 39.8242 
L 87.737669 39.688246 
L 88.008225 39.489444 
L 88.028516 39.511926 
L 88.086009 39.538978 
L 88.129975 39.473864 
L 88.17394 39.489532 
L 88.261871 39.364335 
L 88.268634 39.382444 
L 88.711669 39.080285 
L 88.843565 38.835505 
L 88.853711 38.844994 
L 88.901058 38.766446 
L 88.92135 38.776133 
L 89.022808 38.662318 
L 89.097211 38.460731 
L 89.124267 38.47966 
L 89.2866 36.995583 
L 89.310274 26.779789 
L 89.367767 39.189128 
L 89.381295 39.951447 
L 89.472607 38.706855 
L 89.550392 35.714072 
L 89.560538 27.746133 
L 89.634941 40.480607 
L 89.655232 40.198479 
L 89.800656 36.703549 
L 89.814184 27.837594 
L 89.885205 40.689432 
L 89.891969 40.652626 
L 89.990045 38.927237 
L 90.064448 35.36467 
L 90.074594 27.890811 
L 90.145615 40.846421 
L 90.169288 40.567113 
L 90.307948 37.805778 
L 90.331622 35.953715 
L 90.341767 27.772937 
L 90.41617 41.003953 
L 90.436462 40.780575 
L 90.605559 37.159161 
L 90.622469 27.654623 
L 90.683344 38.959224 
L 90.700254 41.148955 
L 90.794948 39.732964 
L 90.909934 36.292375 
L 90.92008 27.546678 
L 90.997865 41.302221 
L 91.011393 41.191558 
L 91.068886 40.426707 
L 91.068886 40.426707 
" clip-path="url(#pa8bb4c173f)" style="fill: none; stroke: #000000; stroke-width: 0.6; stroke-linecap: square"/>
   </g>
   <g id="line2d_3">
    <path d="M 9.905557 56.140115 
L 9.908939 56.144054 
L 9.949522 56.033446 
L 10.172731 54.440894 
L 10.186259 44.152904 
L 10.270807 57.92434 
L 10.338446 57.256757 
L 10.602238 55.988439 
L 10.893085 57.456501 
L 11.014835 59.662399 
L 11.018217 59.659053 
L 11.024981 59.651007 
L 11.082474 59.774204 
L 11.089238 59.772884 
L 11.285391 59.952202 
L 11.288773 59.93647 
L 11.376704 60.021929 
L 11.383468 60.023204 
L 11.488308 60.011663 
L 11.430815 60.051108 
L 11.498454 60.034142 
L 11.525509 60.011827 
L 11.626968 60.052797 
L 11.765627 60.020211 
L 11.633732 60.062193 
L 11.779155 60.051016 
L 11.799447 60.082548 
L 11.826503 60.017586 
L 11.887378 60.032934 
L 11.96178 60.027541 
L 11.897523 60.041492 
L 11.992218 60.067899 
L 12.137642 60.035239 
L 12.22219 60.069081 
L 12.191753 59.998699 
L 12.249246 60.031327 
L 13.00342 60.007221 
L 13.030475 60.047196 
L 13.115024 60.012977 
L 13.189427 59.979117 
L 13.233392 60.0388 
L 13.311177 59.99276 
L 13.35176 60.014001 
L 13.497184 60.038477 
L 13.503948 60.032315 
L 13.605406 59.978716 
L 13.62908 60.023684 
L 13.76774 60.0689 
L 13.700101 59.955097 
L 13.771122 60.058201 
L 14.346053 60.012273 
L 14.349434 60.029518 
L 14.471185 60.046473 
L 14.373108 59.996224 
L 14.477948 60.03086 
L 14.586171 60.017007 
L 14.545587 60.071694 
L 14.589553 60.02365 
L 16.365074 60.058054 
L 16.439477 60.080549 
L 16.463151 59.995786 
L 16.466533 59.984918 
L 16.534172 60.077386 
L 16.564609 60.038123 
L 17.413478 60.019997 
L 17.514936 59.965454 
L 17.460825 60.036829 
L 17.528464 59.995264 
L 17.653596 60.035092 
L 17.78211 59.995447 
L 17.893714 60.058531 
L 17.900478 60.045201 
L 18.012082 60.055425 
L 17.968117 60.015334 
L 18.015464 60.038617 
L 18.032374 60.051265 
L 18.137214 60.038349 
L 18.228527 59.957052 
L 18.14736 60.056801 
L 18.282638 60.018345 
L 18.394242 60.025139 
L 18.296166 59.988368 
L 18.397624 60.023122 
L 18.451735 60.002461 
L 18.428062 60.069948 
L 18.509228 60.02328 
L 18.647888 60.018259 
L 18.745965 60.047176 
L 18.759492 60.004506 
L 18.769638 59.974495 
L 18.925208 60.062805 
L 19.023284 59.982444 
L 18.938736 60.087778 
L 19.057104 60.009539 
L 19.189 60.061869 
L 19.124743 59.95026 
L 19.192382 60.040056 
L 19.26002 60.055409 
L 19.222819 60.004267 
L 19.303986 60.017332 
L 19.327659 60.082925 
L 19.412208 60.006584 
L 19.52043 60.107122 
L 19.530576 60.099261 
L 19.963465 60.05607 
L 20.017576 60.080542 
L 20.061542 59.998152 
L 20.064924 60.004186 
L 20.247549 60.121047 
L 20.254313 60.104056 
L 20.315188 60.007999 
L 20.369299 60.029061 
L 20.416646 60.070586 
L 20.453847 59.992534 
L 20.477521 60.028021 
L 20.54516 60.037093 
L 20.565452 60.10197 
L 20.754841 59.969999 
L 20.77175 59.986542 
L 20.785278 60.068195 
L 20.879973 59.990506 
L 20.913792 59.981219 
L 20.954376 60.100303 
L 20.984813 60.015984 
L 21.086271 60.031256 
L 21.03216 59.968987 
L 21.096417 60.016957 
L 21.143765 60.053982 
L 21.164056 59.964345 
L 21.194494 59.967552 
L 21.241841 59.918786 
L 21.306098 59.976487 
L 21.417702 60.016207 
L 21.441376 59.997064 
L 21.519161 59.964244 
L 21.556362 59.984935 
L 21.613855 60.004925 
L 21.583418 59.954804 
L 21.651056 59.928506 
L 21.661202 59.894674 
L 21.725459 60.035878 
L 21.759279 59.929688 
L 21.837064 59.982327 
L 21.884411 59.960948 
L 22.009543 59.88784 
L 22.327446 59.871756 
L 22.368029 59.940654 
L 22.442432 59.916837 
L 23.46378 59.805528 
L 23.494217 59.761291 
L 23.56862 59.842684 
L 23.572002 59.840736 
L 23.727571 59.58686 
L 23.730953 59.593606 
L 23.785065 59.602723 
L 23.805356 59.6789 
L 23.808738 59.691963 
L 23.883141 59.604481 
L 23.900051 59.605744 
L 24.356614 59.512825 
L 24.542621 59.283767 
L 24.546003 59.296884 
L 24.644079 59.334618 
L 24.657607 59.30194 
L 24.701572 59.270698 
L 24.667753 59.313836 
L 24.762447 59.322014 
L 24.857142 59.370831 
L 24.81994 59.284815 
L 24.870669 59.333142 
L 25.005947 59.152709 
L 25.087114 59.16672 
L 25.107406 59.10543 
L 25.110788 59.115557 
L 25.175045 59.16279 
L 25.208864 59.068848 
L 25.290031 58.929375 
L 25.21901 59.074343 
L 25.354288 58.98915 
L 25.864962 58.840971 
L 25.885253 58.86561 
L 25.963038 58.762042 
L 26.108462 58.634179 
L 26.118608 58.659207 
L 26.149045 58.675554 
L 26.186246 58.561803 
L 26.20992 58.585523 
L 26.220066 58.596575 
L 26.409455 58.516605 
L 26.446656 58.494361 
L 26.534587 58.640953 
L 26.537969 58.663628 
L 26.615754 58.569749 
L 26.636045 58.568114 
L 26.676629 58.548924 
L 26.693538 58.485344 
L 26.798379 58.393497 
L 26.811907 58.401881 
L 26.916747 58.392183 
L 26.842344 58.36018 
L 26.920129 58.382159 
L 27.018205 58.222278 
L 27.062171 58.308224 
L 27.065552 58.32779 
L 27.136573 58.241951 
L 27.170393 58.296506 
L 27.325962 58.230262 
L 27.180539 58.322627 
L 27.332726 58.244077 
L 27.488296 58.372712 
L 27.515351 58.343735 
L 27.589754 58.437144 
L 27.623574 58.460345 
L 27.677685 58.375224 
L 27.691213 58.392398 
L 28.063227 58.280283 
L 28.134248 58.187293 
L 28.178213 58.271905 
L 28.205268 58.283348 
L 28.232324 58.197818 
L 28.279671 58.226743 
L 28.387893 58.155814 
L 28.398039 58.178122 
L 28.594192 58.124709 
L 28.604338 58.140511 
L 28.695651 58.169896 
L 28.638158 58.112755 
L 28.719324 58.138517 
L 28.800491 58.171934 
L 28.742998 58.07581 
L 28.827546 58.108362 
L 28.908713 58.009428 
L 28.837692 58.11015 
L 28.942533 58.058102 
L 28.979734 58.085629 
L 29.016935 58.033858 
L 29.043991 58.033032 
L 29.162359 57.950933 
L 29.182651 58.056571 
L 29.270581 57.951484 
L 29.382186 57.888402 
L 29.38895 57.916036 
L 29.395713 57.91216 
L 29.514082 57.96845 
L 29.679797 57.760218 
L 29.689943 57.792167 
L 29.774491 57.835575 
L 29.801547 57.789581 
L 29.903005 57.587039 
L 29.808311 57.793492 
L 29.967262 57.686158 
L 29.970644 57.702959 
L 30.061957 57.606258 
L 30.065339 57.610781 
L 30.095776 57.63978 
L 30.278401 57.521004 
L 30.376478 57.489146 
L 30.383242 57.476354 
L 30.457645 57.474966 
L 30.4847 57.507453 
L 30.603068 57.619862 
L 30.609832 57.596224 
L 30.853332 57.514006 
L 31.002138 57.288721 
L 31.02243 57.33448 
L 31.086687 57.377311 
L 31.134034 57.343001 
L 31.313277 57.189888 
L 31.333569 57.237716 
L 31.411353 57.11628 
L 31.414735 57.127584 
L 31.424881 57.132527 
L 31.604124 56.925404 
L 31.685291 56.947646 
L 31.627798 56.891052 
L 31.715729 56.905983 
L 32.016722 56.600979 
L 31.729256 56.942792 
L 32.020104 56.606267 
L 32.047159 56.610355 
L 32.091125 56.487845 
L 32.266986 54.769236 
L 32.280514 43.757629 
L 32.371826 55.222333 
L 32.385354 56.413658 
L 32.48343 55.786628 
L 32.557833 54.489517 
L 32.571361 45.781058 
L 32.649146 56.679939 
L 32.65591 56.659199 
L 32.814861 54.247731 
L 32.828389 45.62267 
L 32.906174 57.04779 
L 32.91632 56.966047 
L 33.078653 54.298702 
L 33.088799 45.281776 
L 33.173347 57.456839 
L 33.180111 57.402341 
L 33.362736 54.430104 
L 33.372882 44.965441 
L 33.460813 57.806289 
L 33.464195 57.818211 
L 33.487868 57.543895 
L 33.673876 54.519415 
L 33.684021 44.733526 
L 33.771952 58.041155 
L 33.778716 58.10331 
L 33.839591 57.385013 
L 34.008688 55.015732 
L 34.025598 44.53323 
L 34.103383 56.402103 
L 34.11691 58.287559 
L 34.214987 57.219168 
L 34.380702 53.534289 
L 34.387466 44.463148 
L 34.482161 58.414592 
L 34.485543 58.410654 
L 34.603911 57.109855 
L 34.769626 54.068048 
L 34.779772 44.365202 
L 34.874466 58.480346 
L 34.904904 58.172987 
L 35.172078 55.141927 
L 35.185606 47.227315 
L 35.188987 44.314825 
L 35.2803 58.489413 
L 35.283682 58.518226 
L 35.334411 57.999485 
L 35.466307 56.669262 
L 35.611731 54.385954 
L 35.621877 44.265152 
L 35.713189 58.527859 
L 35.716571 58.536303 
L 35.740245 58.311428 
L 36.064912 54.029254 
L 36.075057 44.249037 
L 36.16637 58.521673 
L 36.169752 58.510288 
L 36.524856 55.016152 
L 36.538384 44.863864 
L 36.541766 44.225332 
L 36.606023 52.363186 
L 36.633079 58.50665 
L 36.748065 57.347556 
L 37.008475 54.717367 
L 37.022002 44.20033 
L 37.099787 57.768145 
L 37.113315 58.476688 
L 37.208009 57.53502 
L 37.505621 53.898226 
L 37.515767 44.214018 
L 37.607079 58.435773 
L 37.610461 58.418664 
L 38.002767 54.274449 
L 38.012913 44.187684 
L 38.104225 58.400365 
L 38.141427 58.044294 
L 38.378163 56.212624 
L 38.411982 56.04643 
L 38.486385 55.491363 
L 38.510059 53.952242 
L 38.520205 44.189527 
L 38.608135 58.379427 
L 38.614899 58.363151 
L 38.905746 56.073796 
L 38.953094 55.885267 
L 39.020733 54.774254 
L 39.03426 44.181656 
L 39.108663 56.928604 
L 39.125573 58.347085 
L 39.220267 57.411667 
L 39.453622 55.98307 
L 39.504351 55.66449 
L 39.541552 54.358109 
L 39.551698 44.186922 
L 39.639629 58.333992 
L 39.643011 58.333617 
L 40.065754 54.507603 
L 40.079282 44.2106 
L 40.160449 58.218172 
L 40.167212 58.290991 
L 40.234851 57.613775 
L 40.512171 55.941897 
L 40.559518 55.724027 
L 40.606865 54.823113 
L 40.623775 44.209232 
L 40.694796 56.873688 
L 40.711706 58.238329 
L 40.8064 57.301971 
L 41.076956 55.900584 
L 41.080338 55.90254 
L 41.093866 55.798134 
L 41.151359 54.982554 
L 41.164887 45.83288 
L 41.168268 44.149869 
L 41.249435 58.090216 
L 41.256199 58.215038 
L 41.337366 57.42286 
L 41.699234 54.416354 
L 41.712762 44.215434 
L 41.797311 58.198487 
L 41.864949 57.546919 
L 42.044193 56.301775 
L 42.047575 56.318105 
L 42.216672 55.777039 
L 42.287693 54.528925 
L 42.301221 44.164489 
L 42.382387 58.057635 
L 42.385769 58.089622 
L 42.43988 57.575923 
L 42.693526 56.050363 
L 42.818658 55.9099 
L 42.835568 55.949041 
L 43.126415 56.889382 
L 43.133179 56.867917 
L 43.136561 56.866084 
L 43.156853 56.956378 
L 43.684437 60.013866 
L 43.6912 60.012079 
L 43.772367 59.975424 
L 43.714874 60.030401 
L 43.806187 60.00679 
L 43.921173 60.03657 
L 43.927937 60.030476 
L 43.954992 60.076457 
L 44.093652 60.042943 
L 44.144381 60.062414 
L 44.103798 60.03151 
L 44.19511 60.024076 
L 44.303333 59.989303 
L 44.24584 60.057868 
L 44.310097 60.000936 
L 44.401409 60.068922 
L 44.421701 59.999388 
L 44.546833 60.07668 
L 44.553597 60.060973 
L 44.607708 60.019577 
L 44.621236 60.087139 
L 44.661819 60.083375 
L 44.753132 60.083245 
L 44.695638 60.020615 
L 44.766659 60.063667 
L 44.776805 60.072304 
L 44.895173 60.013146 
L 44.922229 60.083124 
L 45.013541 60.062925 
L 45.138673 59.994256 
L 45.263805 60.080098 
L 45.273951 60.047737 
L 45.385556 60.001143 
L 45.34159 60.071201 
L 45.395701 60.027574 
L 45.453194 60.094073 
L 45.517451 60.072819 
L 45.63582 59.979651 
L 45.652729 60.029908 
L 45.686549 60.058385 
L 45.75757 59.991676 
L 46.126202 60.038273 
L 46.268243 59.991284 
L 46.136348 60.047515 
L 46.281771 60.013577 
L 46.417049 60.061684 
L 46.423813 60.041186 
L 46.498216 59.968899 
L 46.467778 60.069033 
L 46.535417 60.049022 
L 46.599674 60.044031 
L 46.579383 60.08266 
L 46.64364 60.065689 
L 46.755244 60.027318 
L 46.762008 60.006816 
L 46.772153 59.971358 
L 46.789063 60.03338 
L 46.873612 60.012916 
L 46.910813 60.05825 
L 46.924341 59.997825 
L 46.988598 60.0201 
L 47.005508 59.973997 
L 47.056237 60.056772 
L 47.09682 60.034552 
L 47.232098 60.044579 
L 47.259154 59.983824 
L 47.34032 60.056343 
L 47.414723 60.025103 
L 47.39105 60.071624 
L 47.451925 60.049677 
L 47.458689 60.076495 
L 47.509418 60.004207 
L 47.563529 60.052056 
L 47.648078 60.059236 
L 47.61764 59.993849 
L 47.668369 60.027099 
L 47.685279 59.993347 
L 47.73939 60.076703 
L 47.779973 60.033519 
L 47.928779 60.003053 
L 47.938925 60.012465 
L 48.047147 60.062657 
L 48.009946 59.976109 
L 48.053911 60.038834 
L 48.165515 59.985064 
L 48.080967 60.068622 
L 48.172279 60.003622 
L 48.27712 60.070377 
L 48.182425 59.996966 
L 48.294029 60.050422 
L 48.419161 60.009776 
L 48.510474 60.069874 
L 48.446217 59.995907 
L 48.540911 60.023397 
L 48.672807 59.991442 
L 48.689717 60.028251 
L 48.740446 60.030679 
L 48.750592 59.966599 
L 48.794557 59.998741 
L 48.831759 59.968317 
L 48.848669 60.032901 
L 48.899398 60.021648 
L 49.038058 60.050875 
L 49.044821 60.034427 
L 49.068495 59.979972 
L 49.122606 60.075465 
L 49.156426 60.01511 
L 49.257884 60.064862 
L 49.166571 60.003431 
L 49.26803 60.014303 
L 49.531822 60.000677 
L 49.643426 59.979994 
L 49.61637 60.060947 
L 49.653572 59.989736 
L 49.77194 60.057501 
L 49.890308 59.976397 
L 49.9106 60.020111 
L 51.067225 60.05965 
L 51.148392 60.093686 
L 51.172066 60.009297 
L 51.185593 60.029968 
L 51.24985 59.949933 
L 51.270142 59.963496 
L 51.310725 59.951875 
L 51.358073 60.037296 
L 51.364837 60.018406 
L 51.429094 60.110885 
L 51.496732 60.055393 
L 51.530552 60.101408 
L 51.567753 60.015699 
L 51.594809 60.025866 
L 51.669212 59.961962 
L 51.706413 60.000848 
L 51.814635 60.077311 
L 51.828163 60.067803 
L 51.889038 60.070491 
L 51.861983 60.045045 
L 51.922858 60.0159 
L 52.024316 59.972166 
L 51.976969 60.040875 
L 52.041226 59.979432 
L 52.146066 60.058832 
L 52.16974 60.020997 
L 52.294872 59.956008 
L 52.179886 60.037323 
L 52.298254 59.964483 
L 52.406476 60.040223 
L 52.332073 59.919551 
L 52.423386 59.984446 
L 52.649976 59.975683 
L 52.65674 59.994588 
L 52.764962 60.089726 
L 52.714233 59.974179 
L 52.785254 60.06724 
L 52.937442 59.942956 
L 52.798782 60.086781 
L 52.954351 60.001512 
L 52.978025 59.987573 
L 53.103157 60.106337 
L 53.17756 60.01208 
L 53.109921 60.11327 
L 53.241817 60.09303 
L 53.26549 60.047438 
L 53.370331 60.061915 
L 53.532664 59.970396 
L 53.536046 59.992661 
L 53.623977 59.850944 
L 53.627359 59.860014 
L 53.667942 59.931663 
L 53.671324 59.959976 
L 53.711907 60.034677 
L 53.762636 59.900092 
L 53.7694 59.933128 
L 53.843803 59.862152 
L 53.881005 59.909829 
L 53.90806 59.930459 
L 53.931734 59.870234 
L 53.975699 59.853944 
L 54.121123 59.800823 
L 54.039956 59.948909 
L 54.127887 59.809651 
L 54.320658 59.925057 
L 54.15156 59.770751 
L 54.327421 59.912688 
L 54.41197 59.85091 
L 54.44579 59.898329 
L 54.956464 59.761781 
L 54.963227 59.786045 
L 55.024102 59.845372 
L 55.074832 59.804796 
L 55.128943 59.710299 
L 55.196582 59.730845 
L 55.31495 59.778351 
L 55.227019 59.676909 
L 55.335241 59.761526 
L 55.426554 59.732366 
L 55.460373 59.76487 
L 55.534776 59.818378 
L 55.561832 59.736295 
L 55.585506 59.748386 
L 55.683582 59.650626 
L 55.829006 59.58432 
L 55.832388 59.605397 
L 55.900027 59.588847 
L 55.876353 59.542959 
L 55.920318 59.538065 
L 56.035304 59.463576 
L 56.116471 59.422281 
L 56.069124 59.50983 
L 56.153672 59.464221 
L 56.160436 59.501017 
L 56.214548 59.44391 
L 56.265277 59.459937 
L 56.376881 59.473473 
L 56.383645 59.427646 
L 56.417464 59.467961 
L 56.512159 59.42176 
L 56.58318 59.448667 
L 56.53245 59.405663 
L 56.623763 59.412823 
L 56.667728 59.380123 
L 56.715076 59.484383 
L 56.718458 59.479325 
L 56.738749 59.511641 
L 56.772569 59.425395 
L 56.80977 59.414128 
L 56.955194 59.34334 
L 56.968722 59.35858 
L 57.597764 58.900472 
L 57.621437 58.959567 
L 57.736423 59.002484 
L 57.739805 58.97185 
L 57.760097 58.983245 
L 57.868319 58.887746 
L 57.935958 58.999758 
L 57.990069 58.945765 
L 58.575146 58.425176 
L 58.629257 58.498797 
L 58.636021 58.477597 
L 58.751007 58.512852 
L 58.85923 58.484379 
L 58.865993 58.512931 
L 58.879521 58.547549 
L 58.933632 58.394642 
L 59.028327 58.327415 
L 59.055382 58.342942 
L 59.156841 58.324224 
L 59.099348 58.309051 
L 59.163605 58.310418 
L 59.271827 58.297781 
L 59.214334 58.362702 
L 59.278591 58.303487 
L 59.281973 58.31136 
L 59.349612 58.208157 
L 59.356376 58.211051 
L 59.36314 58.183224 
L 59.420633 58.252641 
L 59.461216 58.239475 
L 59.542383 58.230141 
L 59.518709 58.192322 
L 59.55591 58.182425 
L 59.667515 58.19022 
L 59.616785 58.26237 
L 59.670897 58.201901 
L 59.748681 58.16558 
L 59.785883 58.228563 
L 59.93807 58.298538 
L 59.944834 58.276069 
L 60.080112 58.118946 
L 60.171425 58.094577 
L 60.120695 58.069158 
L 60.184952 58.073039 
L 60.421689 57.871751 
L 60.573876 57.712878 
L 60.59755 57.746771 
L 60.685481 57.765314 
L 60.658425 57.698605 
L 60.705772 57.728772 
L 60.844432 57.516206 
L 60.918835 57.591462 
L 60.922217 57.600561 
L 60.969564 57.476464 
L 61.006765 57.524527 
L 61.013529 57.474366 
L 61.10146 57.564862 
L 61.114988 57.547206 
L 61.138661 57.562029 
L 61.233356 57.538129 
L 61.355106 57.591191 
L 61.358488 57.586219 
L 61.36187 57.573516 
L 61.402453 57.683235 
L 61.46671 57.603463 
L 61.534349 57.576926 
L 61.497148 57.539452 
L 61.554641 57.5328 
L 61.669627 57.422763 
L 61.574932 57.562408 
L 61.703446 57.472387 
L 61.730502 57.542814 
L 61.801523 57.423983 
L 61.808287 57.438776 
L 61.943565 57.281141 
L 62.007822 57.342532 
L 61.95371 57.268098 
L 62.051787 57.256755 
L 62.187065 57.183641 
L 62.207356 57.214272 
L 62.24794 57.16453 
L 62.318961 57.204947 
L 62.420419 57.199992 
L 62.362926 57.236975 
L 62.430565 57.217493 
L 62.437329 57.257488 
L 62.484676 57.132374 
L 62.535405 57.164435 
L 62.592898 57.051562 
L 62.731558 56.959144 
L 62.73494 56.963362 
L 62.816107 57.008803 
L 62.846544 56.940496 
L 62.998732 56.771915 
L 63.096808 56.719995 
L 63.272669 56.486412 
L 63.276051 56.499447 
L 63.330163 56.299808 
L 63.435003 55.008781 
L 63.451913 43.763564 
L 63.539843 54.361822 
L 63.556753 56.397673 
L 63.654829 55.744198 
L 63.72585 54.354742 
L 63.739378 45.812896 
L 63.817163 56.670875 
L 63.823927 56.635504 
L 63.979496 53.759972 
L 63.989642 45.598845 
L 64.067427 57.026472 
L 64.084337 56.891816 
L 64.233142 54.821945 
L 64.250052 45.252661 
L 64.321073 56.61979 
L 64.331219 57.442353 
L 64.429295 56.360493 
L 64.520608 54.491749 
L 64.534135 44.957097 
L 64.618684 57.80944 
L 64.622066 57.811628 
L 64.632212 57.694175 
L 64.828365 54.6824 
L 64.841892 44.698095 
L 64.923059 57.775393 
L 64.933205 58.102345 
L 65.021136 57.06589 
L 65.166559 54.526448 
L 65.176705 44.563746 
L 65.264636 58.153269 
L 65.2714 58.288625 
L 65.352566 57.393546 
L 65.535191 53.492273 
L 65.541955 44.454556 
L 65.640032 58.404352 
L 65.815893 56.484129 
L 65.920733 54.387803 
L 65.930879 44.352674 
L 66.022192 58.458476 
L 66.025574 58.489283 
L 66.076303 57.96905 
L 66.329949 54.816848 
L 66.343477 44.300613 
L 66.421261 56.408362 
L 66.438171 58.505072 
L 66.532866 57.521043 
L 66.76622 53.568269 
L 66.772984 44.312078 
L 66.87106 58.526387 
L 67.212637 54.736305 
L 67.226165 44.239888 
L 67.303949 57.411638 
L 67.317477 58.525897 
L 67.415554 57.53536 
L 67.679345 54.910235 
L 67.692873 44.264799 
L 67.770658 57.032177 
L 67.787568 58.491039 
L 67.882262 57.538562 
L 68.088561 55.953778 
L 68.108853 55.837749 
L 68.159582 54.562128 
L 68.17311 44.252706 
L 68.254276 58.289066 
L 68.264422 58.470926 
L 68.345589 57.656272 
L 68.653346 54.441777 
L 68.663492 44.221575 
L 68.751422 58.411641 
L 68.754804 58.429837 
L 68.795388 58.051394 
L 69.143728 54.403502 
L 69.153874 44.199911 
L 69.241805 58.420371 
L 69.248569 58.435859 
L 69.275624 58.162386 
L 69.552944 56.064196 
L 69.627346 55.545522 
L 69.654402 53.689 
L 69.664548 44.205106 
L 69.752479 58.40393 
L 69.759242 58.368449 
L 70.168458 54.528177 
L 70.181986 44.20448 
L 70.263152 58.248522 
L 70.269916 58.346729 
L 70.347701 57.585089 
L 70.601347 55.939847 
L 70.665604 54.989128 
L 70.682514 44.174626 
L 70.753535 54.802099 
L 70.770444 58.38845 
L 70.868521 57.431022 
L 71.003799 56.457378 
L 71.206715 54.264652 
L 71.216861 44.153308 
L 71.304792 58.309379 
L 71.308174 58.306168 
L 71.396104 57.455206 
L 71.599021 56.121638 
L 71.602403 56.122499 
L 71.737681 55.126185 
L 71.751209 51.343595 
L 71.757973 44.158879 
L 71.845903 58.260296 
L 71.856049 58.196878 
L 72.190862 55.950924 
L 72.251737 55.658717 
L 72.29232 54.813707 
L 72.30923 44.215473 
L 72.380251 57.060154 
L 72.39716 58.206924 
L 72.491855 57.275766 
L 72.823286 54.568631 
L 72.836814 44.181475 
L 72.91798 58.167158 
L 72.924744 58.23234 
L 72.992383 57.561057 
L 73.246029 56.055588 
L 73.249411 56.063687 
L 73.391453 55.397455 
L 73.411744 53.98585 
L 73.42189 44.133526 
L 73.509821 58.114492 
L 73.516585 58.079612 
L 73.790522 56.108431 
L 73.919036 55.763143 
L 73.993439 54.298314 
L 74.006967 44.236041 
L 74.088134 58.040011 
L 74.094898 58.020986 
L 74.243703 56.713538 
L 74.419564 56.057266 
L 74.487203 56.042251 
L 74.426328 56.066904 
L 74.524405 56.096197 
L 74.876127 58.973618 
L 75.008023 59.816658 
L 75.014787 59.784829 
L 75.082426 59.889284 
L 75.106099 59.889546 
L 75.237995 59.993351 
L 75.305634 60.027795 
L 75.356363 59.983059 
L 75.424002 60.054741 
L 75.47135 60.019973 
L 75.569426 60.023514 
L 75.491641 60.079744 
L 75.586336 60.058145 
L 75.5931 60.105004 
L 75.620155 60.04914 
L 75.69794 60.068147 
L 75.904239 60.088741 
L 75.914385 60.06021 
L 75.961732 59.99589 
L 76.029371 60.023654 
L 76.113919 60.082349 
L 76.151121 60.06112 
L 76.249197 60.016714 
L 76.225524 60.087571 
L 76.262725 60.049808 
L 76.387857 60.055928 
L 76.276253 60.066679 
L 76.391239 60.058577 
L 76.512989 60.054102 
L 76.411531 60.020839 
L 76.526517 60.037589 
L 76.614448 60.006248 
L 76.651649 60.030262 
L 76.749725 60.067926 
L 76.712524 60.013283 
L 76.763253 60.043596 
L 76.793691 60.061193 
L 76.874857 60.023166 
L 76.922205 60.08752 
L 76.993226 60.054069 
L 77.125121 60.02008 
L 77.128503 60.028783 
L 77.229962 60.073778 
L 77.196142 60.01822 
L 77.24349 60.070461 
L 77.378767 60.008015 
L 77.388913 60.027885 
L 77.896205 60.05435 
L 77.997664 60.057684 
L 77.950316 60.007694 
L 78.004427 60.036277 
L 78.011191 60.054648 
L 78.159997 60.015544 
L 78.220872 60.048874 
L 78.173525 60.002426 
L 78.268219 60.010465 
L 78.274983 59.962457 
L 78.33924 60.043151 
L 78.376442 60.0327 
L 78.538775 60.027316 
L 78.650379 60.061155 
L 78.596268 59.990085 
L 78.653761 60.042945 
L 78.758601 60.07108 
L 78.684199 60.018118 
L 78.778893 60.038088 
L 78.883733 60.006476 
L 78.900643 60.022456 
L 78.910789 60.062206 
L 78.995338 59.952352 
L 79.012247 60.01825 
L 79.171199 60.013172 
L 79.184727 60.038236 
L 79.269275 60.055085 
L 79.296331 60.030858 
L 79.38088 59.983687 
L 79.316623 60.04852 
L 79.407935 60.038852 
L 79.50263 60.10808 
L 79.472192 60.019111 
L 79.522921 60.064938 
L 79.651435 59.980873 
L 79.675109 60.003145 
L 80.956867 60.003656 
L 81.061707 60.016762 
L 80.987304 60.072455 
L 81.065089 60.019401 
L 81.251096 60.078765 
L 81.075235 59.995508 
L 81.25786 60.071464 
L 81.355936 59.964356 
L 81.393138 59.978627 
L 81.443867 60.095499 
L 81.51827 60.028379 
L 81.717804 60.024164 
L 81.815881 60.072243 
L 81.788825 59.974693 
L 81.832791 60.049272 
L 81.957923 60.031109 
L 81.8497 60.086023 
L 81.961305 60.041262 
L 81.995124 60.084356 
L 82.055999 59.976817 
L 82.14393 59.996385 
L 82.072909 60.008785 
L 82.154076 60.006885 
L 82.235242 60.060684 
L 82.262298 60.001635 
L 82.448305 59.973277 
L 82.488888 59.972275 
L 82.539617 60.024537 
L 82.553145 59.998141 
L 82.657986 60.037431 
L 82.668131 60.019945 
L 83.841667 59.966848 
L 83.895778 59.970275 
L 83.926215 60.04012 
L 84.017528 60.119382 
L 83.956653 60.019987 
L 84.047965 60.070913 
L 84.135896 60.019049 
L 84.15957 60.065037 
L 84.186625 60.02789 
L 84.2475 60.143998 
L 84.261028 60.11995 
L 84.315139 60.136741 
L 84.355723 60.054007 
L 84.359105 60.056036 
L 84.453799 59.950999 
L 84.477473 59.99332 
L 85.204591 59.902285 
L 85.228265 59.843755 
L 85.275612 59.932618 
L 85.316195 59.892239 
L 85.37707 59.841253 
L 85.326341 59.934891 
L 85.4278 59.877307 
L 85.539404 59.94646 
L 85.552932 59.92782 
L 85.610425 59.979099 
L 85.664536 59.923325 
L 85.718647 59.999577 
L 85.681446 59.913809 
L 85.782904 59.95792 
L 85.877598 59.85947 
L 85.89789 59.888959 
L 85.901272 59.907685 
L 85.985821 59.803508 
L 86.006112 59.872347 
L 86.134626 59.824579 
L 86.144772 59.849297 
L 86.259758 59.955527 
L 86.273286 59.93383 
L 86.388272 59.990817 
L 86.391654 60.011692 
L 86.560752 59.962025 
L 86.658828 59.876548 
L 86.689266 59.919271 
L 86.709557 59.959103 
L 86.746759 59.891148 
L 86.794106 59.888028 
L 86.915856 59.821121 
L 86.827925 59.922088 
L 86.936148 59.86487 
L 87.017314 59.890799 
L 86.949675 59.85334 
L 87.04437 59.84552 
L 87.213467 59.779408 
L 87.06128 59.888222 
L 87.220231 59.798818 
L 87.226995 59.823888 
L 87.250669 59.705311 
L 87.30478 59.709108 
L 87.44344 59.561043 
L 87.450203 59.569753 
L 87.473877 59.600951 
L 87.544898 59.497954 
L 87.551662 59.506414 
L 87.659884 59.484073 
L 87.575335 59.536331 
L 87.666648 59.529179 
L 88.123211 59.481915 
L 88.204377 59.497232 
L 88.133357 59.452974 
L 88.238197 59.464049 
L 88.512135 59.220402 
L 88.52228 59.262717 
L 88.603447 59.367854 
L 88.654176 59.355154 
L 88.786072 59.229481 
L 88.792836 59.245817 
L 88.961933 59.218593 
L 89.114121 59.017204 
L 89.127649 59.038343 
L 89.432024 58.976466 
L 89.526718 58.920993 
L 89.462461 59.013705 
L 89.540246 59.002092 
L 89.760073 58.943068 
L 89.54701 59.031035 
L 89.766837 58.959615 
L 89.776982 58.981104 
L 89.851385 58.858543 
L 89.858149 58.869692 
L 90.044156 58.56833 
L 90.284274 58.531302 
L 90.301184 58.571833 
L 90.406024 58.542577 
L 90.412788 58.512155 
L 90.517629 58.445692 
L 90.53792 58.496538 
L 90.703636 58.525678 
L 90.794948 58.425446 
L 90.713782 58.541117 
L 90.835532 58.457717 
L 91.001247 58.339572 
L 91.065504 58.303221 
L 91.024921 58.353837 
L 91.068886 58.309058 
" clip-path="url(#pa8bb4c173f)" style="fill: none; stroke: #000000; stroke-width: 0.6; stroke-linecap: square"/>
   </g>
   <g id="line2d_4">
    <path d="M 95.127221 15.313171 
L 95.127221 8.552195 
" clip-path="url(#pa8bb4c173f)" style="fill: none; stroke: #000000; stroke-width: 1.5; stroke-linecap: square"/>
   </g>
  </g>
 </g>
 <defs>
  <clipPath id="pa8bb4c173f">
   <rect x="7.2" y="7.2" width="89.28" height="55.44"/>
  </clipPath>
 </defs>
</svg>
