<?xml version="1.0" encoding="utf-8" standalone="no"?>
<!DOCTYPE svg PUBLIC "-//W3C//DTD SVG 1.1//EN"
  "http://www.w3.org/Graphics/SVG/1.1/DTD/svg11.dtd">
<svg xmlns:xlink="http://www.w3.org/1999/xlink" width="101.70625pt" height="94.87625pt" viewBox="0 0 101.70625 94.87625" xmlns="http://www.w3.org/2000/svg" version="1.1">
 <metadata>
  <rdf:RDF xmlns:dc="http://purl.org/dc/elements/1.1/" xmlns:cc="http://creativecommons.org/ns#" xmlns:rdf="http://www.w3.org/1999/02/22-rdf-syntax-ns#">
   <cc:Work>
    <dc:type rdf:resource="http://purl.org/dc/dcmitype/StillImage"/>
    <dc:date>2022-05-10T16:56:00.980633</dc:date>
    <dc:format>image/svg+xml</dc:format>
    <dc:creator>
     <cc:Agent>
      <dc:title>Matplotlib v3.5.1, https://matplotlib.org/</dc:title>
     </cc:Agent>
    </dc:creator>
   </cc:Work>
  </rdf:RDF>
 </metadata>
 <defs>
  <style type="text/css">*{stroke-linejoin: round; stroke-linecap: butt}</style>
 </defs>
 <g id="figure_1">
  <g id="patch_1">
   <path d="M 0 94.87625 
L 101.70625 94.87625 
L 101.70625 0 
L 0 0 
z
" style="fill: #ffffff"/>
  </g>
  <g id="axes_1">
   <g id="patch_2">
    <path d="M 27.54625 62.64 
L 94.50625 62.64 
L 94.50625 7.2 
L 27.54625 7.2 
z
" style="fill: #ffffff"/>
   </g>
   <g id="patch_3">
    <path d="M 34.594671 62.64 
L 35.651934 62.64 
L 35.651934 58.373333 
L 34.594671 58.373333 
z
" clip-path="url(#p2be4b87f2f)" style="opacity: 0.6"/>
   </g>
   <g id="patch_4">
    <path d="M 35.651934 62.64 
L 36.709197 62.64 
L 36.709197 61.44 
L 35.651934 61.44 
z
" clip-path="url(#p2be4b87f2f)" style="opacity: 0.6"/>
   </g>
   <g id="patch_5">
    <path d="M 36.709197 62.64 
L 37.76646 62.64 
L 37.76646 62.24 
L 36.709197 62.24 
z
" clip-path="url(#p2be4b87f2f)" style="opacity: 0.6"/>
   </g>
   <g id="patch_6">
    <path d="M 37.76646 62.64 
L 38.823724 62.64 
L 38.823724 62.306667 
L 37.76646 62.306667 
z
" clip-path="url(#p2be4b87f2f)" style="opacity: 0.6"/>
   </g>
   <g id="patch_7">
    <path d="M 38.823724 62.64 
L 39.880987 62.64 
L 39.880987 62.506667 
L 38.823724 62.506667 
z
" clip-path="url(#p2be4b87f2f)" style="opacity: 0.6"/>
   </g>
   <g id="patch_8">
    <path d="M 39.880987 62.64 
L 40.93825 62.64 
L 40.93825 61.973333 
L 39.880987 61.973333 
z
" clip-path="url(#p2be4b87f2f)" style="opacity: 0.6"/>
   </g>
   <g id="patch_9">
    <path d="M 40.93825 62.64 
L 41.995513 62.64 
L 41.995513 61.973333 
L 40.93825 61.973333 
z
" clip-path="url(#p2be4b87f2f)" style="opacity: 0.6"/>
   </g>
   <g id="patch_10">
    <path d="M 41.995513 62.64 
L 43.052777 62.64 
L 43.052777 61.173333 
L 41.995513 61.173333 
z
" clip-path="url(#p2be4b87f2f)" style="opacity: 0.6"/>
   </g>
   <g id="patch_11">
    <path d="M 43.052777 62.64 
L 44.11004 62.64 
L 44.11004 59.64 
L 43.052777 59.64 
z
" clip-path="url(#p2be4b87f2f)" style="opacity: 0.6"/>
   </g>
   <g id="patch_12">
    <path d="M 44.110039 62.64 
L 45.167302 62.64 
L 45.167302 58.64 
L 44.110039 58.64 
z
" clip-path="url(#p2be4b87f2f)" style="opacity: 0.6"/>
   </g>
   <g id="patch_13">
    <path d="M 45.167303 62.64 
L 46.224566 62.64 
L 46.224566 58.373333 
L 45.167303 58.373333 
z
" clip-path="url(#p2be4b87f2f)" style="opacity: 0.6"/>
   </g>
   <g id="patch_14">
    <path d="M 46.224565 62.64 
L 47.281828 62.64 
L 47.281828 55.706667 
L 46.224565 55.706667 
z
" clip-path="url(#p2be4b87f2f)" style="opacity: 0.6"/>
   </g>
   <g id="patch_15">
    <path d="M 47.281829 62.64 
L 48.339092 62.64 
L 48.339092 55.906667 
L 47.281829 55.906667 
z
" clip-path="url(#p2be4b87f2f)" style="opacity: 0.6"/>
   </g>
   <g id="patch_16">
    <path d="M 48.339093 62.64 
L 49.396355 62.64 
L 49.396355 54.64 
L 48.339093 54.64 
z
" clip-path="url(#p2be4b87f2f)" style="opacity: 0.6"/>
   </g>
   <g id="patch_17">
    <path d="M 49.396355 62.64 
L 50.453618 62.64 
L 50.453618 52.24 
L 49.396355 52.24 
z
" clip-path="url(#p2be4b87f2f)" style="opacity: 0.6"/>
   </g>
   <g id="patch_18">
    <path d="M 50.453618 62.64 
L 51.510882 62.64 
L 51.510882 50.84 
L 50.453618 50.84 
z
" clip-path="url(#p2be4b87f2f)" style="opacity: 0.6"/>
   </g>
   <g id="patch_19">
    <path d="M 51.510882 62.64 
L 52.568144 62.64 
L 52.568144 51.306667 
L 51.510882 51.306667 
z
" clip-path="url(#p2be4b87f2f)" style="opacity: 0.6"/>
   </g>
   <g id="patch_20">
    <path d="M 52.568144 62.64 
L 53.625408 62.64 
L 53.625408 48.173333 
L 52.568144 48.173333 
z
" clip-path="url(#p2be4b87f2f)" style="opacity: 0.6"/>
   </g>
   <g id="patch_21">
    <path d="M 53.62541 62.64 
L 54.682672 62.64 
L 54.682672 49.24 
L 53.62541 49.24 
z
" clip-path="url(#p2be4b87f2f)" style="opacity: 0.6"/>
   </g>
   <g id="patch_22">
    <path d="M 54.68267 62.64 
L 55.739934 62.64 
L 55.739934 46.64 
L 54.68267 46.64 
z
" clip-path="url(#p2be4b87f2f)" style="opacity: 0.6"/>
   </g>
   <g id="patch_23">
    <path d="M 55.739934 62.64 
L 56.797198 62.64 
L 56.797198 45.44 
L 55.739934 45.44 
z
" clip-path="url(#p2be4b87f2f)" style="opacity: 0.6"/>
   </g>
   <g id="patch_24">
    <path d="M 56.797198 62.64 
L 57.85446 62.64 
L 57.85446 46.84 
L 56.797198 46.84 
z
" clip-path="url(#p2be4b87f2f)" style="opacity: 0.6"/>
   </g>
   <g id="patch_25">
    <path d="M 57.85446 62.64 
L 58.911724 62.64 
L 58.911724 46.04 
L 57.85446 46.04 
z
" clip-path="url(#p2be4b87f2f)" style="opacity: 0.6"/>
   </g>
   <g id="patch_26">
    <path d="M 58.911726 62.64 
L 59.968988 62.64 
L 59.968988 45.973333 
L 58.911726 45.973333 
z
" clip-path="url(#p2be4b87f2f)" style="opacity: 0.6"/>
   </g>
   <g id="patch_27">
    <path d="M 59.968986 62.64 
L 61.02625 62.64 
L 61.02625 46.906667 
L 59.968986 46.906667 
z
" clip-path="url(#p2be4b87f2f)" style="opacity: 0.6"/>
   </g>
   <g id="patch_28">
    <path d="M 61.02625 62.64 
L 62.083514 62.64 
L 62.083514 45.173333 
L 61.02625 45.173333 
z
" clip-path="url(#p2be4b87f2f)" style="opacity: 0.6"/>
   </g>
   <g id="patch_29">
    <path d="M 62.083514 62.64 
L 63.140778 62.64 
L 63.140778 45.573333 
L 62.083514 45.573333 
z
" clip-path="url(#p2be4b87f2f)" style="opacity: 0.6"/>
   </g>
   <g id="patch_30">
    <path d="M 63.140778 62.64 
L 64.198038 62.64 
L 64.198038 44.306667 
L 63.140778 44.306667 
z
" clip-path="url(#p2be4b87f2f)" style="opacity: 0.6"/>
   </g>
   <g id="patch_31">
    <path d="M 64.198038 62.64 
L 65.255302 62.64 
L 65.255302 43.44 
L 64.198038 43.44 
z
" clip-path="url(#p2be4b87f2f)" style="opacity: 0.6"/>
   </g>
   <g id="patch_32">
    <path d="M 65.255305 62.64 
L 66.312569 62.64 
L 66.312569 45.04 
L 65.255305 45.04 
z
" clip-path="url(#p2be4b87f2f)" style="opacity: 0.6"/>
   </g>
   <g id="patch_33">
    <path d="M 66.312566 62.64 
L 67.36983 62.64 
L 67.36983 45.706667 
L 66.312566 45.706667 
z
" clip-path="url(#p2be4b87f2f)" style="opacity: 0.6"/>
   </g>
   <g id="patch_34">
    <path d="M 67.369833 62.64 
L 68.427097 62.64 
L 68.427097 43.773333 
L 67.369833 43.773333 
z
" clip-path="url(#p2be4b87f2f)" style="opacity: 0.6"/>
   </g>
   <g id="patch_35">
    <path d="M 68.427093 62.64 
L 69.484354 62.64 
L 69.484354 42.84 
L 68.427093 42.84 
z
" clip-path="url(#p2be4b87f2f)" style="opacity: 0.6"/>
   </g>
   <g id="patch_36">
    <path d="M 69.484354 62.64 
L 70.541618 62.64 
L 70.541618 42.573333 
L 69.484354 42.573333 
z
" clip-path="url(#p2be4b87f2f)" style="opacity: 0.6"/>
   </g>
   <g id="patch_37">
    <path d="M 70.541621 62.64 
L 71.598885 62.64 
L 71.598885 41.773333 
L 70.541621 41.773333 
z
" clip-path="url(#p2be4b87f2f)" style="opacity: 0.6"/>
   </g>
   <g id="patch_38">
    <path d="M 71.598882 62.64 
L 72.656145 62.64 
L 72.656145 42.573333 
L 71.598882 42.573333 
z
" clip-path="url(#p2be4b87f2f)" style="opacity: 0.6"/>
   </g>
   <g id="patch_39">
    <path d="M 72.656149 62.64 
L 73.713413 62.64 
L 73.713413 42.906667 
L 72.656149 42.906667 
z
" clip-path="url(#p2be4b87f2f)" style="opacity: 0.6"/>
   </g>
   <g id="patch_40">
    <path d="M 73.713409 62.64 
L 74.77067 62.64 
L 74.77067 45.506667 
L 73.713409 45.506667 
z
" clip-path="url(#p2be4b87f2f)" style="opacity: 0.6"/>
   </g>
   <g id="patch_41">
    <path d="M 74.77067 62.64 
L 75.827934 62.64 
L 75.827934 44.773333 
L 74.77067 44.773333 
z
" clip-path="url(#p2be4b87f2f)" style="opacity: 0.6"/>
   </g>
   <g id="patch_42">
    <path d="M 75.827937 62.64 
L 76.885201 62.64 
L 76.885201 44.306667 
L 75.827937 44.306667 
z
" clip-path="url(#p2be4b87f2f)" style="opacity: 0.6"/>
   </g>
   <g id="patch_43">
    <path d="M 76.885197 62.64 
L 77.942461 62.64 
L 77.942461 44.64 
L 76.885197 44.64 
z
" clip-path="url(#p2be4b87f2f)" style="opacity: 0.6"/>
   </g>
   <g id="patch_44">
    <path d="M 77.942465 62.64 
L 78.999728 62.64 
L 78.999728 43.573333 
L 77.942465 43.573333 
z
" clip-path="url(#p2be4b87f2f)" style="opacity: 0.6"/>
   </g>
   <g id="patch_45">
    <path d="M 78.999725 62.64 
L 80.056985 62.64 
L 80.056985 45.706667 
L 78.999725 45.706667 
z
" clip-path="url(#p2be4b87f2f)" style="opacity: 0.6"/>
   </g>
   <g id="patch_46">
    <path d="M 80.056985 62.64 
L 81.114249 62.64 
L 81.114249 46.373333 
L 80.056985 46.373333 
z
" clip-path="url(#p2be4b87f2f)" style="opacity: 0.6"/>
   </g>
   <g id="patch_47">
    <path d="M 81.114253 62.64 
L 82.171517 62.64 
L 82.171517 49.173333 
L 81.114253 49.173333 
z
" clip-path="url(#p2be4b87f2f)" style="opacity: 0.6"/>
   </g>
   <g id="patch_48">
    <path d="M 82.171513 62.64 
L 83.228777 62.64 
L 83.228777 49.173333 
L 82.171513 49.173333 
z
" clip-path="url(#p2be4b87f2f)" style="opacity: 0.6"/>
   </g>
   <g id="patch_49">
    <path d="M 83.22878 62.64 
L 84.286044 62.64 
L 84.286044 50.573333 
L 83.22878 50.573333 
z
" clip-path="url(#p2be4b87f2f)" style="opacity: 0.6"/>
   </g>
   <g id="patch_50">
    <path d="M 84.286041 62.64 
L 85.343301 62.64 
L 85.343301 50.64 
L 84.286041 50.64 
z
" clip-path="url(#p2be4b87f2f)" style="opacity: 0.6"/>
   </g>
   <g id="patch_51">
    <path d="M 85.343301 62.64 
L 86.400565 62.64 
L 86.400565 50.84 
L 85.343301 50.84 
z
" clip-path="url(#p2be4b87f2f)" style="opacity: 0.6"/>
   </g>
   <g id="patch_52">
    <path d="M 86.400568 62.64 
L 87.457832 62.64 
L 87.457832 9.84 
L 86.400568 9.84 
z
" clip-path="url(#p2be4b87f2f)" style="opacity: 0.6"/>
   </g>
   <g id="matplotlib.axis_1">
    <g id="xtick_1">
     <g id="line2d_1">
      <defs>
       <path id="mfff37dc856" d="M 0 0 
L 0 3.5 
" style="stroke: #000000; stroke-width: 1.5"/>
      </defs>
      <g>
       <use xlink:href="#mfff37dc856" x="34.594671" y="62.64" style="stroke: #000000; stroke-width: 1.5"/>
      </g>
     </g>
     <g id="text_1">
      <text style="font: 8px 'Arial'; text-anchor: middle" x="34.594671" y="75.36625" transform="rotate(-0, 34.594671, 75.36625)">0</text>
     </g>
    </g>
    <g id="xtick_2">
     <g id="line2d_2">
      <g>
       <use xlink:href="#mfff37dc856" x="87.457829" y="62.64" style="stroke: #000000; stroke-width: 1.5"/>
      </g>
     </g>
     <g id="text_2">
      <text style="font: 8px 'Arial'; text-anchor: middle" x="87.457829" y="75.36625" transform="rotate(-0, 87.457829, 75.36625)">15</text>
     </g>
    </g>
    <g id="text_3">
     <!-- AB/PD $\overline{g}_{\mathrm{KCa}}$ -->
     <g transform="translate(39.90625 85.19625)">
      <text>
       <tspan style="font: 8px 'Arial'" x="0 5.335938 10.671875 12.894531 18.230469 24.007812 26.230469" y="-0.7699999999999996 -0.7699999999999996 -0.7699999999999996 -0.7699999999999996 -0.7699999999999996 -0.7699999999999996 -1.25">AB/PD g</tspan>
       <tspan style="font: 5.6px 'DejaVu Sans'" x="30.819075 34.491341 38.401497" y="1.6195000000000004">KCa</tspan>
      </text>
      <rect x="26.230469" y="-7" width="4.449219" height="0.5"/>
     </g>
    </g>
   </g>
   <g id="matplotlib.axis_2">
    <g id="ytick_1">
     <g id="line2d_3">
      <defs>
       <path id="m4d4b84f0cd" d="M 0 0 
L -3.5 0 
" style="stroke: #000000; stroke-width: 1.5"/>
      </defs>
      <g>
       <use xlink:href="#m4d4b84f0cd" x="27.54625" y="62.64" style="stroke: #000000; stroke-width: 1.5"/>
      </g>
     </g>
     <g id="text_4">
      <text style="font: 8px 'Arial'; text-anchor: end" x="20.54625" y="65.503125" transform="rotate(-0, 20.54625, 65.503125)">0</text>
     </g>
    </g>
    <g id="ytick_2">
     <g id="line2d_4">
      <g>
       <use xlink:href="#m4d4b84f0cd" x="27.54625" y="29.306667" style="stroke: #000000; stroke-width: 1.5"/>
      </g>
     </g>
     <g id="text_5">
      <text style="font: 8px 'Arial'; text-anchor: end" x="20.54625" y="32.169792" transform="rotate(-0, 20.54625, 32.169792)">500</text>
     </g>
    </g>
   </g>
   <g id="patch_53">
    <path d="M 27.54625 62.64 
L 27.54625 7.2 
" style="fill: none; stroke: #000000; stroke-width: 1.5; stroke-linejoin: miter; stroke-linecap: square"/>
   </g>
   <g id="patch_54">
    <path d="M 27.54625 62.64 
L 94.50625 62.64 
" style="fill: none; stroke: #000000; stroke-width: 1.5; stroke-linejoin: miter; stroke-linecap: square"/>
   </g>
  </g>
 </g>
 <defs>
  <clipPath id="p2be4b87f2f">
   <rect x="27.54625" y="7.2" width="66.96" height="55.44"/>
  </clipPath>
 </defs>
</svg>
