<?xml version="1.0" encoding="utf-8" standalone="no"?>
<!DOCTYPE svg PUBLIC "-//W3C//DTD SVG 1.1//EN"
  "http://www.w3.org/Graphics/SVG/1.1/DTD/svg11.dtd">
<svg xmlns:xlink="http://www.w3.org/1999/xlink" width="103.68pt" height="69.84pt" viewBox="0 0 103.68 69.84" xmlns="http://www.w3.org/2000/svg" version="1.1">
 <metadata>
  <rdf:RDF xmlns:dc="http://purl.org/dc/elements/1.1/" xmlns:cc="http://creativecommons.org/ns#" xmlns:rdf="http://www.w3.org/1999/02/22-rdf-syntax-ns#">
   <cc:Work>
    <dc:type rdf:resource="http://purl.org/dc/dcmitype/StillImage"/>
    <dc:date>2022-05-08T14:49:29.220152</dc:date>
    <dc:format>image/svg+xml</dc:format>
    <dc:creator>
     <cc:Agent>
      <dc:title>Matplotlib v3.5.1, https://matplotlib.org/</dc:title>
     </cc:Agent>
    </dc:creator>
   </cc:Work>
  </rdf:RDF>
 </metadata>
 <defs>
  <style type="text/css">*{stroke-linejoin: round; stroke-linecap: butt}</style>
 </defs>
 <g id="figure_1">
  <g id="patch_1">
   <path d="M 0 69.84 
L 103.68 69.84 
L 103.68 0 
L 0 0 
z
" style="fill: #ffffff"/>
  </g>
  <g id="axes_1">
   <g id="patch_2">
    <path d="M 7.2 62.64 
L 96.48 62.64 
L 96.48 7.2 
L 7.2 7.2 
z
" style="fill: #ffffff"/>
   </g>
   <g id="matplotlib.axis_1"/>
   <g id="matplotlib.axis_2"/>
   <g id="line2d_1">
    <path d="M 9.905557 24.331394 
L 10.030689 24.435294 
L 9.935995 24.296451 
L 10.037453 24.421807 
L 10.142293 24.251624 
L 10.172731 24.280605 
L 10.257279 24.259172 
L 10.22346 24.311226 
L 10.287717 24.275341 
L 10.348592 24.211403 
L 10.412849 24.315456 
L 10.517689 24.296082 
L 10.521071 24.318351 
L 10.649585 24.421276 
L 10.656349 24.418343 
L 10.663113 24.410339 
L 10.730752 24.503597 
L 10.737516 24.500003 
L 10.740898 24.510902 
L 10.811919 24.371397 
L 10.930287 24.307636 
L 10.835592 24.392726 
L 10.933669 24.317633 
L 10.937051 24.327505 
L 11.00469 24.189612 
L 11.089238 24.045234 
L 11.143349 24.097772 
L 11.410523 23.959594 
L 11.160259 24.134712 
L 11.413905 23.973395 
L 11.552565 24.062073 
L 11.606676 24.023141 
L 11.583002 24.104444 
L 11.654023 24.102821 
L 11.674315 24.044832 
L 11.758864 24.05591 
L 11.975308 23.916651 
L 12.090294 23.934057 
L 12.093676 23.921762 
L 12.218808 23.850477 
L 12.22219 23.852931 
L 12.310121 23.955977 
L 12.354086 23.923842 
L 12.458926 23.795417 
L 12.4826 23.837561 
L 12.966218 23.934167 
L 13.084587 24.022117 
L 13.087968 24.01894 
L 13.182663 24.03708 
L 13.192809 23.997325 
L 13.243538 23.823942 
L 13.321323 23.894642 
L 13.399108 23.9194 
L 13.344996 23.859887 
L 13.422781 23.851036 
L 13.534385 23.819776 
L 13.446455 23.881359 
L 13.558059 23.853417 
L 13.700101 23.840392 
L 13.760976 23.754665 
L 13.710247 23.845357 
L 13.808323 23.838504 
L 13.875962 23.971062 
L 13.933455 23.904235 
L 14.031531 23.91504 
L 14.051823 23.855848 
L 14.058587 23.831254 
L 14.112698 23.93009 
L 14.136372 23.923849 
L 14.268268 23.889349 
L 14.27165 23.874648 
L 14.332525 23.818026 
L 14.386636 23.869175 
L 14.548969 23.945231 
L 14.555733 23.937543 
L 14.565879 23.876585 
L 14.667337 23.907656 
L 14.704539 23.936277 
L 14.75865 23.858722 
L 14.768796 23.867197 
L 14.856726 23.810535 
L 14.812761 23.90977 
L 14.890546 23.869168 
L 14.904074 23.901644 
L 14.975095 23.763443 
L 14.988622 23.805032 
L 15.049497 23.902003 
L 15.069789 23.870869 
L 15.218595 23.960427 
L 15.364018 23.806084 
L 15.38431 23.835459 
L 15.424893 23.76221 
L 15.475623 23.806785 
L 15.499296 23.794909 
L 15.536498 23.896476 
L 15.556789 23.889267 
L 15.648102 23.950447 
L 15.651484 23.973535 
L 15.668393 23.946658 
L 15.763088 23.980583 
L 15.894984 23.946212 
L 15.898366 23.955727 
L 16.006588 23.967495 
L 15.966005 23.920606 
L 16.016734 23.952769 
L 16.118192 23.90405 
L 16.145248 23.987574 
L 16.206123 24.102773 
L 16.155394 23.982149 
L 16.256852 23.976997 
L 16.402276 24.092038 
L 16.266998 23.960649 
L 16.405658 24.076296 
L 16.699887 24.039356 
L 16.818255 24.206234 
L 16.845311 24.153359 
L 16.875748 24.104024 
L 16.943387 24.198544 
L 16.950151 24.189616 
L 17.061755 24.317524 
L 17.098957 24.255777 
L 17.180123 24.281274 
L 17.13954 24.317824 
L 17.190269 24.318184 
L 17.264672 24.384811 
L 17.318783 24.32996 
L 17.430388 24.281477 
L 17.352603 24.378912 
L 17.437151 24.304355 
L 17.457443 24.336984 
L 17.494644 24.231654 
L 17.53861 24.260295 
L 17.609631 24.253326 
L 17.552138 24.223515 
L 17.629922 24.201497 
L 17.697561 24.227387 
L 17.785492 24.086793 
L 17.883568 24.118621 
L 17.839603 24.148714 
L 17.88695 24.121091 
L 17.900478 24.150079 
L 17.971499 24.06303 
L 17.991791 24.079814 
L 18.123687 23.972522 
L 18.137214 23.992127 
L 18.177798 24.050852 
L 18.258964 24.014286 
L 18.353659 24.01156 
L 18.272492 23.966543 
L 18.373951 23.978406 
L 18.380714 23.959344 
L 18.431444 24.021707 
L 18.475409 24.009938 
L 18.492319 24.032649 
L 18.559958 23.921386 
L 18.576867 23.963607 
L 18.580249 23.959761 
L 18.620833 24.061963 
L 18.641124 24.054263 
L 18.793312 24.05631 
L 18.847423 23.944705 
L 18.901534 24.066617 
L 19.043576 24.148886 
L 19.077395 24.063959 
L 19.090923 24.026756 
L 19.15518 24.153081 
L 19.503521 24.090195 
L 19.506903 24.072606 
L 19.588069 24.2238 
L 19.591451 24.213315 
L 19.604979 24.243228 
L 19.689528 24.160673 
L 19.824805 23.925179 
L 19.838333 23.94721 
L 19.905972 24.068915 
L 19.953319 23.94623 
L 20.017576 23.886057 
L 20.061542 23.963861 
L 20.619563 24.200656 
L 20.071688 23.93912 
L 20.629709 24.176139 
L 20.633091 24.155067 
L 20.714257 24.266586 
L 20.731167 24.237815 
L 20.758223 24.241035 
L 20.795424 24.150194 
L 20.863063 24.143306 
L 20.842771 24.199022 
L 20.896882 24.185142 
L 20.907028 24.227305 
L 20.957757 24.143797 
L 21.001723 24.157634 
L 21.373737 24.037927 
L 21.377119 24.052014 
L 21.44814 24.207908 
L 21.498869 24.19426 
L 21.630765 24.256622 
L 21.546216 24.119043 
L 21.661202 24.207905 
L 21.772807 24.173822 
L 21.711932 24.237252 
L 21.77957 24.188653 
L 21.887793 24.254351 
L 21.826918 24.177956 
L 21.894557 24.232762 
L 22.03998 24.17973 
L 22.067036 24.21243 
L 22.131293 24.284285 
L 22.182022 24.264673 
L 22.236133 24.246601 
L 22.202314 24.290957 
L 22.286862 24.289084 
L 22.293626 24.313383 
L 22.351119 24.221322 
L 22.378175 24.222152 
L 22.540508 24.025784 
L 22.685932 24.109059 
L 22.692696 24.097947 
L 22.770481 24.04231 
L 22.811064 24.107127 
L 23.358939 24.322612 
L 23.46378 24.343641 
L 23.382613 24.274637 
L 23.470544 24.325313 
L 23.548328 24.370561 
L 23.477307 24.314182 
L 23.599058 24.312743 
L 23.643023 24.290945 
L 23.670078 24.352623 
L 23.70728 24.33727 
L 23.886523 24.471207 
L 23.720808 24.325268 
L 23.893287 24.461442 
L 23.974454 24.427252 
L 23.93387 24.485111 
L 24.011655 24.451824 
L 24.556148 24.215731 
L 24.579822 24.141334 
L 24.667753 24.176649 
L 24.691426 24.257841 
L 24.759065 24.109424 
L 24.772593 24.147698 
L 24.823322 24.111442 
L 24.887579 24.164441 
L 24.978892 24.168638 
L 24.992419 24.126328 
L 25.026239 24.052832 
L 25.073586 24.142854 
L 25.107406 24.089027 
L 25.120933 24.101436 
L 25.168281 23.966085 
L 25.296795 23.965256 
L 25.408399 23.963637 
L 25.330614 23.905327 
L 25.411781 23.960152 
L 25.526767 23.923462 
L 25.435454 23.987495 
L 25.530149 23.931075 
L 25.682336 24.043862 
L 25.81085 23.982005 
L 25.817614 24.005772 
L 25.892017 23.922363 
L 25.915691 23.949734 
L 26.118608 23.743242 
L 26.132135 23.779624 
L 26.176101 23.931995 
L 26.257267 23.904516 
L 26.406073 24.053621 
L 26.47033 24.006114 
L 26.527823 24.069887 
L 26.717212 23.892937 
L 26.740886 23.947417 
L 26.794997 23.974349 
L 26.83558 23.896543 
L 26.943802 23.844198 
L 26.95733 23.85684 
L 27.048643 23.806235 
L 27.085844 23.881563 
L 27.089226 23.90347 
L 27.177157 23.801836 
L 27.187303 23.821319 
L 27.265087 23.812594 
L 27.285379 23.780094 
L 27.342872 23.745407 
L 27.363164 23.807147 
L 27.390219 23.801828 
L 27.393601 23.821214 
L 27.434185 23.73107 
L 27.49506 23.761461 
L 27.589754 23.80115 
L 27.518733 23.736136 
L 27.613428 23.74078 
L 27.779143 23.783631 
L 27.623574 23.713221 
L 27.785907 23.765039 
L 27.833254 23.659107 
L 27.897511 23.767621 
L 27.975296 23.869175 
L 27.924567 23.756891 
L 28.015879 23.82811 
L 28.056463 23.781168 
L 28.026025 23.843365 
L 28.134248 23.809752 
L 28.195123 23.813666 
L 28.154539 23.781891 
L 28.222178 23.746078 
L 28.360838 23.683958 
L 28.367602 23.706089 
L 28.445387 23.753087 
L 28.384512 23.666974 
L 28.482588 23.700301 
L 28.702414 23.8316 
L 28.523171 23.648988 
L 28.71256 23.812928 
L 28.797109 23.747486 
L 28.722706 23.833457 
L 28.83431 23.767778 
L 28.962824 23.788316 
L 28.864748 23.713251 
L 28.966206 23.760502 
L 28.976352 23.730336 
L 29.060901 23.869115 
L 29.158977 23.915221 
L 29.189415 23.898927 
L 29.192797 23.890277 
L 29.240144 24.008976 
L 29.263818 24.008245 
L 29.277345 24.032163 
L 29.314547 23.978008 
L 29.361894 23.97392 
L 29.47688 23.928605 
L 29.392332 24.023322 
L 29.480262 23.94142 
L 29.595248 24.127368 
L 29.612158 24.10582 
L 29.683179 24.023651 
L 29.730526 24.046743 
L 29.994318 24.083244 
L 29.9977 24.104485 
L 30.034901 24.172688 
L 30.109304 24.120979 
L 30.132978 24.088012 
L 30.190471 24.231364 
L 30.197235 24.220519 
L 30.285165 24.223266 
L 30.207381 24.249618 
L 30.295311 24.259894 
L 30.312221 24.321983 
L 30.373096 24.185775 
L 30.37986 24.185945 
L 30.450881 24.092794 
L 30.390006 24.18876 
L 30.504992 24.136277 
L 30.576013 24.16562 
L 30.609832 24.103529 
L 30.653797 24.048322 
L 30.697763 24.141278 
L 30.721436 24.095864 
L 30.927735 24.145775 
L 30.931117 24.126581 
L 31.012284 24.133782 
L 30.968318 24.186546 
L 31.025812 24.181664 
L 31.100214 24.244316 
L 31.147562 24.196811 
L 31.26593 24.119423 
L 31.357242 24.165053 
L 31.320041 24.08619 
L 31.394444 24.117874 
L 31.546631 23.87171 
L 31.597361 23.800021 
L 31.668381 23.831249 
L 31.813805 23.905983 
L 31.918645 23.926438 
L 31.87468 23.834089 
L 31.932173 23.892346 
L 31.935555 23.879643 
L 32.003194 24.030145 
L 32.094507 24.076279 
L 32.11818 24.065025 
L 32.277132 24.082599 
L 32.280514 24.072423 
L 32.321097 23.987915 
L 32.405646 24.006058 
L 32.436083 24.065265 
L 32.520632 24.028364 
L 32.53416 24.043813 
L 32.554451 23.998974 
L 32.625472 24.004802 
L 32.632236 23.97472 
L 32.672819 24.044933 
L 32.730313 24.04857 
L 32.737076 24.063662 
L 32.811479 23.961168 
L 32.821625 23.963624 
L 32.912938 23.929038 
L 32.875736 23.981402 
L 32.933229 23.943275 
L 33.041452 24.025105 
L 32.953521 23.923484 
L 33.051597 24.017577 
L 33.210549 24.024953 
L 33.213931 24.010727 
L 33.298479 24.134575 
L 33.366118 24.130845 
L 33.332299 24.103038 
L 33.389792 24.086536 
L 33.501396 23.999415 
L 33.518306 24.019355 
L 33.619764 24.061631 
L 33.552125 23.982299 
L 33.633292 24.016339 
L 33.782098 23.799465 
L 33.849737 23.895878 
L 33.903848 23.852005 
L 33.978251 23.813324 
L 34.018834 23.875764 
L 34.022216 23.882647 
L 34.066181 23.764222 
L 34.096619 23.784281 
L 34.113529 23.757209 
L 34.174404 23.873414 
L 34.181167 23.869338 
L 34.299536 23.912374 
L 34.397612 23.917028 
L 34.384084 23.965602 
L 34.41114 23.924087 
L 34.505834 23.980944 
L 34.458487 23.915818 
L 34.519362 23.929392 
L 34.522744 23.917421 
L 34.559945 23.995903 
L 34.62082 23.978099 
L 34.982689 24.19128 
L 34.996217 24.167127 
L 35.128112 24.022028 
L 35.138258 24.050742 
L 35.17546 24.100705 
L 35.148404 24.039257 
L 35.236335 24.006697 
L 35.351321 23.945541 
L 35.358085 23.948686 
L 35.476453 23.996448 
L 35.422342 23.90797 
L 35.479835 23.98302 
L 35.584675 23.959182 
L 35.489981 23.992853 
L 35.591439 23.997271 
L 35.638786 24.026391 
L 35.669224 23.926253 
L 35.787592 23.828681 
L 35.689516 23.948308 
L 35.80112 23.851076 
L 35.88905 23.946588 
L 35.895814 23.939613 
L 36.031092 24.026639 
L 36.034474 24.006001 
L 36.112259 24.14579 
L 36.125787 24.130786 
L 36.450453 24.389199 
L 36.467363 24.349078 
L 36.470745 24.339382 
L 36.551912 24.443387 
L 36.639842 24.454253 
L 36.619551 24.375775 
L 36.656752 24.415712 
L 36.781884 24.353331 
L 36.788648 24.374696 
L 36.812322 24.276967 
L 36.886724 24.312705 
L 36.981419 24.325948 
L 36.944218 24.248366 
L 36.998329 24.299967 
L 37.113315 24.121683 
L 37.136989 24.161762 
L 37.353433 24.228515 
L 37.387253 24.30283 
L 37.468419 24.255599 
L 37.93851 24.314687 
L 37.962183 24.298452 
L 38.053496 24.352926 
L 38.178628 24.230547 
L 38.307142 24.158624 
L 38.202302 24.255556 
L 38.313906 24.173865 
L 38.368017 24.155751 
L 38.330816 24.191668 
L 38.415364 24.216771 
L 38.560788 24.435701 
L 38.56417 24.429639 
L 38.618281 24.368143 
L 38.675774 24.425972 
L 38.787378 24.48126 
L 38.811052 24.410109 
L 38.871927 24.315787 
L 38.922656 24.378745 
L 38.939566 24.416394 
L 39.003823 24.269505 
L 39.007205 24.291183 
L 39.105281 24.264918 
L 39.030878 24.330002 
L 39.135719 24.332321 
L 39.284524 24.438603 
L 39.352163 24.363437 
L 39.402893 24.378163 
L 39.423184 24.401003 
L 39.494205 24.30807 
L 39.497587 24.314923 
L 39.643011 24.292388 
L 39.568608 24.387815 
L 39.646393 24.296657 
L 39.730941 24.376537 
L 39.666684 24.237508 
L 39.768143 24.302776 
L 39.801962 24.237613 
L 39.883129 24.28591 
L 39.947386 24.329548 
L 39.910184 24.268657 
L 40.001497 24.278919 
L 40.099573 24.281234 
L 40.015025 24.301179 
L 40.106337 24.292231 
L 40.224705 24.419661 
L 40.116483 24.288665 
L 40.234851 24.411014 
L 40.322782 24.318886 
L 40.356601 24.33851 
L 40.431004 24.449597 
L 40.366747 24.33083 
L 40.478351 24.380688 
L 40.485115 24.391173 
L 40.640685 24.310587 
L 40.674504 24.371777 
L 40.745525 24.266829 
L 40.752289 24.237496 
L 40.813164 24.330896 
L 40.843602 24.319954 
L 40.880803 24.352697 
L 40.92815 24.242103 
L 40.934914 24.25745 
L 41.104012 24.183586 
L 41.107393 24.199691 
L 41.198706 24.237647 
L 41.137831 24.169702 
L 41.22238 24.21688 
L 41.729672 24.143419 
L 41.892005 24.336902 
L 41.760109 24.115539 
L 41.93597 24.306404 
L 42.105068 24.235398 
L 41.946116 24.32805 
L 42.118595 24.286408 
L 42.209908 24.415948 
L 42.132123 24.280382 
L 42.257255 24.371881 
L 42.379005 24.406178 
L 42.284311 24.319457 
L 42.392533 24.372887 
L 42.500755 24.31035 
L 42.504137 24.287379 
L 42.59545 24.410124 
L 42.598832 24.404198 
L 42.7172 24.326258 
L 42.751019 24.403031 
L 42.767929 24.427279 
L 42.808512 24.369477 
L 42.859242 24.388836 
L 43.129797 24.254089 
L 43.143325 24.275158 
L 43.434173 24.082289 
L 43.505193 24.05191 
L 43.535631 24.118205 
L 43.582978 24.1824 
L 43.660763 24.162185 
L 43.721638 24.116375 
L 43.752075 24.200007 
L 43.768985 24.179931 
L 43.890735 24.197486 
L 43.904263 24.171978 
L 43.954992 24.124843 
L 44.009103 24.196846 
L 44.012485 24.180602 
L 44.374354 24.24578 
L 44.411555 24.140676 
L 44.492722 24.172313 
L 44.661819 24.018248 
L 44.665201 24.019749 
L 44.739604 23.983178 
L 44.780187 24.073933 
L 45.071035 24.074882 
L 45.145437 24.02248 
L 45.196167 24.148098 
L 45.213076 24.129156 
L 45.290861 24.228065 
L 45.37541 24.265 
L 45.321299 24.195045 
L 45.412611 24.247236 
L 45.500542 24.15255 
L 45.439667 24.250577 
L 45.527597 24.201076 
L 45.578326 24.237145 
L 45.629056 24.150638 
L 45.693313 24.172923 
L 45.63582 24.133269 
L 45.716986 24.10014 
L 45.818445 24.090246 
L 45.791389 24.122311 
L 45.831972 24.093501 
L 45.882702 24.123271 
L 45.872556 24.150014 
L 45.909757 24.168716 
L 45.957104 24.274303 
L 46.024743 24.213971 
L 46.112674 24.170376 
L 46.13973 24.191796 
L 46.281771 24.305094 
L 46.160021 24.181465 
L 46.285153 24.295075 
L 46.521889 24.280293 
L 46.535417 24.341122 
L 46.599674 24.235461 
L 46.630112 24.260526 
L 46.755244 24.340437 
L 46.775535 24.383427 
L 46.839792 24.273566 
L 46.968306 24.196046 
L 46.883758 24.298573 
L 46.971688 24.200925 
L 46.981834 24.224905 
L 47.063001 24.083031 
L 47.167841 24.099982 
L 47.13064 24.142954 
L 47.171223 24.102691 
L 47.188133 24.141583 
L 47.2693 24.05644 
L 47.272682 24.056244 
L 47.286209 24.024804 
L 47.323411 24.117443 
L 47.380904 24.079655 
L 47.445161 24.101862 
L 47.468834 24.155528 
L 47.472216 24.163323 
L 47.5128 24.04479 
L 47.543237 24.052855 
L 47.607494 24.008242 
L 47.644696 24.085681 
L 47.779973 24.147476 
L 47.671751 24.071134 
L 47.783355 24.132516 
L 47.800265 24.10692 
L 47.867904 24.194971 
L 47.87805 24.190257 
L 47.969362 24.253395 
L 47.993036 24.188136 
L 48.033619 24.170343 
L 48.026856 24.206858 
L 48.097876 24.197441 
L 48.219627 24.35534 
L 48.111404 24.182185 
L 48.22639 24.335397 
L 48.297411 24.385429 
L 48.341377 24.288196 
L 48.473272 24.396014 
L 48.361668 24.260053 
L 48.480036 24.383499 
L 48.615314 24.25873 
L 48.496946 24.390192 
L 48.618696 24.260825 
L 48.64237 24.302163 
L 48.703245 24.191709 
L 48.706627 24.202226 
L 48.787793 24.101065 
L 48.824995 24.140275 
L 48.889252 24.168977 
L 48.956891 24.092354 
L 49.075259 24.133279 
L 49.082023 24.127263 
L 49.095551 24.106579 
L 49.173335 24.191191 
L 49.183481 24.166555 
L 49.244356 24.190881 
L 49.264648 24.119831 
L 49.28494 24.126297 
L 49.349197 23.939522 
L 49.423599 24.025277 
L 49.426981 24.053609 
L 49.52844 23.9908 
L 49.690773 23.876244 
L 49.548731 24.006653 
L 49.704301 23.907955 
L 49.751648 23.983656 
L 49.974857 23.682506 
L 50.025586 23.796669 
L 49.981621 23.677718 
L 50.099989 23.747528 
L 50.198065 23.762418 
L 50.147336 23.664505 
L 50.218357 23.724003 
L 50.340107 23.677886 
L 50.444947 23.753745 
L 50.451711 23.722544 
L 50.455093 23.698532 
L 50.543024 23.859089 
L 50.546406 23.863729 
L 50.597135 23.778646 
L 50.610663 23.775509 
L 50.756086 23.600988 
L 50.76285 23.584025 
L 50.904892 23.658991 
L 50.986059 23.647033 
L 50.938711 23.685625 
L 51.013114 23.680118 
L 51.131482 23.646254 
L 51.019878 23.699919 
L 51.151774 23.712208 
L 51.280288 23.829555 
L 51.287052 23.783578 
L 51.341163 23.740156 
L 51.378364 23.85673 
L 51.496732 23.927852 
L 51.506878 23.903642 
L 51.642156 23.859242 
L 51.675976 23.92813 
L 51.767288 23.948086 
L 51.716559 23.872616 
L 51.780816 23.891214 
L 51.784198 23.902732 
L 51.851837 23.827619 
L 51.885656 23.856612 
L 51.966823 23.896355 
L 51.997261 23.852005 
L 52.064899 23.897299 
L 52.03108 23.840704 
L 52.115629 23.880181 
L 52.15283 23.830937 
L 52.183268 23.908771 
L 52.223851 23.904819 
L 52.376038 24.057625 
L 52.477497 23.95011 
L 52.50117 23.983848 
L 52.51808 23.997733 
L 52.568809 23.922576 
L 52.595865 23.920239 
L 52.670268 23.785795 
L 52.724379 23.857846 
L 52.805546 23.945562 
L 52.839365 23.879437 
L 52.947587 23.869396 
L 52.856275 23.926101 
L 52.957733 23.877557 
L 53.018608 24.041045 
L 53.079483 24.001054 
L 53.218143 24.127208 
L 53.235053 24.08167 
L 53.353421 24.113248 
L 53.285782 24.03662 
L 53.356803 24.100407 
L 53.373713 24.069251 
L 53.42106 24.166554 
L 53.461643 24.137017 
L 53.471789 24.094097 
L 53.569866 24.143458 
L 53.593539 24.182617 
L 53.66456 24.084172 
L 53.688234 24.040002 
L 53.749109 24.137653 
L 53.766018 24.14077 
L 54.212435 24.080523 
L 54.310512 24.147521 
L 54.246255 24.054309 
L 54.330803 24.109085 
L 54.408588 24.117105 
L 54.378151 24.189338 
L 54.42888 24.157947 
L 54.472845 24.22787 
L 54.520192 24.09219 
L 54.530338 24.097635 
L 54.574304 24.191379 
L 54.665616 24.130245 
L 55.135707 24.218744 
L 55.139089 24.196706 
L 55.247311 24.080253 
L 55.149234 24.212186 
L 55.274366 24.14746 
L 55.358915 24.186481 
L 55.29804 24.1171 
L 55.382589 24.160655 
L 55.389353 24.129481 
L 55.477283 24.261043 
L 55.480665 24.249537 
L 55.57536 24.272998 
L 55.534776 24.307442 
L 55.585506 24.282631 
L 55.595651 24.294817 
L 55.619325 24.199089 
L 55.639617 24.199744 
L 55.676818 24.118338 
L 55.757985 24.181028 
L 56.133381 24.314436 
L 56.221311 24.339432 
L 56.207784 24.280947 
L 56.248367 24.331559 
L 56.268659 24.302859 
L 56.329534 24.406986 
L 56.336298 24.386921 
L 56.383645 24.33046 
L 56.447902 24.38171 
L 56.660964 24.371999 
L 56.664346 24.359552 
L 56.759041 24.259399 
L 56.789478 24.306619 
L 56.816534 24.307863 
L 56.846971 24.388647 
L 56.877409 24.36602 
L 56.999159 24.416266 
L 56.904465 24.345034 
L 57.002541 24.394268 
L 57.783771 23.927951 
L 57.810826 24.004453 
L 57.949486 24.131942 
L 57.95625 24.127813 
L 58.020507 23.993305 
L 58.084764 24.117241 
L 58.169312 24.187868 
L 58.206514 24.167718 
L 58.243715 24.1058 
L 58.318118 24.164031 
L 58.463542 24.271863 
L 58.47707 24.248221 
L 58.575146 24.24462 
L 58.588674 24.289106 
L 58.70366 24.398036 
L 58.710424 24.356229 
L 58.811882 24.257891 
L 58.852466 24.297669 
L 59.200806 24.430833 
L 59.271827 24.507225 
L 59.214334 24.427308 
L 59.309028 24.431824 
L 59.383431 24.409014 
L 59.369903 24.458612 
L 59.417251 24.444547 
L 59.427396 24.476752 
L 59.454452 24.402894 
L 59.515327 24.388857 
L 59.582966 24.316185 
L 59.623549 24.390859 
L 59.819702 24.52172 
L 59.843376 24.485124 
L 59.917779 24.380947 
L 59.968508 24.420426 
L 60.009091 24.483199 
L 60.046293 24.370286 
L 60.07673 24.396685 
L 60.117314 24.468953 
L 60.19848 24.409521 
L 60.303321 24.260212 
L 60.208626 24.419484 
L 60.33714 24.312155 
L 60.482564 24.31164 
L 60.350668 24.281851 
L 60.489328 24.263944 
L 60.590786 24.2307 
L 60.509619 24.278515 
L 60.607696 24.244925 
L 60.611078 24.253683 
L 60.675335 24.138318 
L 60.685481 24.146729 
L 61.010147 24.035776 
L 61.013529 24.05206 
L 61.142043 24.187366 
L 61.155571 24.165985 
L 61.267175 24.134066 
L 61.226592 24.232925 
L 61.270557 24.138016 
L 61.273939 24.160593 
L 61.365252 24.041554 
L 61.459946 24.072012 
L 61.392307 24.08333 
L 61.46671 24.078938 
L 61.470092 24.096099 
L 61.534349 23.980295 
L 61.564787 24.011591 
L 61.791377 24.032212 
L 61.798141 23.984382 
L 61.845488 23.957333 
L 61.818433 24.006684 
L 61.902981 24.016289 
L 61.980766 23.984398 
L 61.926655 23.966604 
L 61.997676 23.967483 
L 62.014585 23.942296 
L 62.088988 24.020261 
L 62.105898 23.991473 
L 62.21412 24.079229 
L 62.237794 24.028797 
L 62.318961 24.041498 
L 62.332488 24.090021 
L 62.359544 24.150302 
L 62.423801 24.060634 
L 62.440711 24.066175 
L 62.599662 24.166504 
L 62.799197 23.989687 
L 62.809343 23.995501 
L 62.880364 23.95169 
L 62.920947 24.01412 
L 62.944621 23.979709 
L 62.988586 24.092214 
L 63.01226 24.082471 
L 63.106954 24.138103 
L 63.029169 24.059231 
L 63.13401 24.096481 
L 63.225322 24.102341 
L 63.201649 24.14751 
L 63.23885 24.117947 
L 63.276051 24.149721 
L 63.320017 24.096607 
L 63.353836 24.135832 
L 63.3606 24.126137 
L 63.401183 24.227631 
L 63.421475 24.213665 
L 63.472204 24.262054 
L 63.435003 24.192132 
L 63.533079 24.206503 
L 63.688649 24.108829 
L 63.580427 24.241344 
L 63.692031 24.116549 
L 63.74276 24.158151 
L 63.790107 24.04324 
L 63.820545 24.038938 
L 63.844218 24.140229 
L 63.861128 24.13562 
L 63.955823 24.175073 
L 63.918621 24.080481 
L 63.972732 24.130601 
L 64.168885 23.935205 
L 64.185795 23.991735 
L 64.266962 23.845493 
L 64.283871 23.788902 
L 64.378566 23.843128 
L 64.402239 23.90796 
L 64.49017 23.835873 
L 64.513844 23.825797 
L 64.564573 23.926922 
L 64.574719 23.929631 
L 64.581483 23.937874 
L 64.642358 23.827702 
L 64.652504 23.8502 
L 64.679559 23.772228 
L 64.747198 23.922073 
L 64.760726 23.873565 
L 65.311983 23.842829 
L 65.37624 23.888066 
L 65.322129 23.861303 
L 65.386386 23.908711 
L 65.477698 24.007144 
L 65.504754 23.938408 
L 65.592685 23.968243 
L 65.606212 23.998935 
L 65.629886 24.050035 
L 65.697525 23.935412 
L 65.704289 23.966734 
L 65.734726 23.907056 
L 65.795601 24.006131 
L 65.812511 23.971048 
L 65.86324 23.902078 
L 65.920733 23.97161 
L 65.947789 23.926098 
L 65.998518 24.042827 
L 66.028956 23.996456 
L 66.174379 24.147973 
L 66.204817 24.08169 
L 66.316421 24.094805 
L 66.225109 24.049692 
L 66.329949 24.043359 
L 66.461845 23.990336 
L 66.478754 24.017829 
L 66.532866 24.046638 
L 66.563303 23.965819 
L 66.586977 23.992832 
L 66.597123 23.946395 
L 66.685053 24.057435 
L 66.803421 24.109557 
L 66.806803 24.10287 
L 66.952227 24.165627 
L 67.060449 24.173394 
L 66.99281 24.130343 
L 67.067213 24.167866 
L 67.11456 24.22531 
L 67.195727 24.112437 
L 67.341151 24.048642 
L 67.216019 24.1365 
L 67.358061 24.101507 
L 67.706401 24.191341 
L 67.750366 24.216729 
L 67.79095 24.149172 
L 67.814623 24.180472 
L 67.858589 24.227406 
L 67.939755 24.136729 
L 67.990484 24.088253 
L 68.047978 24.166844 
L 68.12238 24.217381 
L 68.142672 24.12258 
L 68.146054 24.125345 
L 68.247512 24.067209 
L 68.206929 24.1761 
L 68.267804 24.099769 
L 68.453811 24.087509 
L 68.562033 24.263867 
L 68.582325 24.225261 
L 68.700693 24.186835 
L 68.592471 24.234756 
L 68.710839 24.209444 
L 68.754804 24.250683 
L 68.737895 24.187143 
L 68.805534 24.162567 
L 68.883318 24.114002 
L 68.913756 24.157556 
L 68.92052 24.195863 
L 68.994923 24.087412 
L 69.018596 24.118408 
L 69.607055 23.8491 
L 69.038888 24.193186 
L 69.637492 23.919081 
L 69.840409 24.018223 
L 69.644256 23.913788 
L 69.843791 24.013798 
L 69.874229 24.001094 
L 69.921576 24.110944 
L 69.931722 24.095168 
L 70.158312 23.925852 
L 70.175222 23.98509 
L 70.327409 24.144344 
L 70.344319 24.127581 
L 70.469451 24.06332 
L 70.374757 24.176884 
L 70.472833 24.073655 
L 70.513416 23.99795 
L 70.584437 24.063356 
L 70.706187 23.929366 
L 70.709569 23.944268 
L 70.81441 23.979591 
L 70.760298 23.901866 
L 70.821174 23.972436 
L 70.926014 23.950265 
L 70.895576 24.04306 
L 70.929396 23.970411 
L 71.027472 24.116463 
L 70.959833 23.946137 
L 71.05791 24.045032 
L 71.118785 24.117358 
L 71.16275 24.057994 
L 71.254063 24.071002 
L 71.193188 23.965768 
L 71.270972 24.04884 
L 71.40625 24.025196 
L 71.304792 24.081155 
L 71.419778 24.044727 
L 71.477271 24.052633 
L 71.456979 23.994818 
L 71.507709 23.980458 
L 71.575348 23.989534 
L 71.531382 24.010032 
L 71.609167 24.021964 
L 71.730917 24.105708 
L 71.879723 24.010404 
L 71.916924 24.045099 
L 71.984563 23.964512 
L 72.15366 23.782738 
L 72.021764 23.999209 
L 72.157042 23.800943 
L 72.268647 23.853823 
L 72.207772 23.754945 
L 72.278792 23.841104 
L 72.363341 23.844471 
L 72.29232 23.891963 
L 72.370105 23.891837 
L 72.539202 24.071224 
L 72.542584 24.057796 
L 72.630515 24.102383 
L 72.65757 24.03596 
L 72.735355 24.061553 
L 72.698154 24.008194 
L 72.765793 24.018235 
L 72.863869 23.934634 
L 72.782702 24.036607 
L 72.884161 23.971682 
L 73.026203 24.06416 
L 73.158098 24.022761 
L 73.16148 24.048193 
L 73.232501 23.96667 
L 73.266321 24.004028 
L 73.293376 23.964913 
L 73.354251 24.067618 
L 73.428654 24.10619 
L 73.452328 23.993283 
L 73.540258 23.977898 
L 73.513203 24.042131 
L 73.553786 24.030399 
L 73.580842 23.99782 
L 73.705974 24.095926 
L 73.858161 24.218956 
L 73.881835 24.164877 
L 73.929182 24.142898 
L 73.976529 24.21969 
L 73.979911 24.191471 
L 73.993439 24.260159 
L 74.04755 24.157647 
L 74.091516 24.186846 
L 74.240321 24.146769 
L 74.247085 24.159984 
L 74.335016 24.216652 
L 74.277523 24.145602 
L 74.365453 24.200517 
L 74.409419 24.139722 
L 74.470294 24.235747 
L 74.774669 24.42122 
L 74.808488 24.457353 
L 74.865981 24.352309 
L 74.882891 24.410055 
L 74.906565 24.352996 
L 74.984349 24.444832 
L 74.987731 24.442292 
L 75.112863 24.45459 
L 75.237995 24.329825 
L 75.136537 24.518722 
L 75.244759 24.353623 
L 75.271815 24.334309 
L 75.410475 24.478021 
L 75.413857 24.456094 
L 75.444294 24.507297 
L 75.518697 24.479809 
L 75.613391 24.525923 
L 75.640447 24.460858 
L 75.80278 24.338717 
L 75.897475 24.358911 
L 75.81969 24.317663 
L 75.914385 24.33227 
L 76.090246 24.329218 
L 76.100392 24.302898 
L 76.117301 24.270956 
L 76.171413 24.331445 
L 76.211996 24.296515 
L 76.310072 24.273667 
L 76.239051 24.26793 
L 76.316836 24.264684 
L 76.394621 24.160141 
L 76.44535 24.180835 
L 76.550191 24.260179 
L 76.475788 24.155438 
L 76.563718 24.234077 
L 76.597538 24.171674 
L 76.648267 24.245193 
L 76.678704 24.183414 
L 76.776781 24.326594 
L 76.702378 24.177573 
L 76.807218 24.2927 
L 76.888385 24.211721 
L 76.918823 24.283437 
L 77.054101 24.334137 
L 77.118358 24.375128 
L 77.175851 24.292728 
L 77.196142 24.285494 
L 77.229962 24.375893 
L 77.250253 24.369716 
L 77.338184 24.348404 
L 77.355094 24.326286 
L 77.514045 24.246593 
L 77.642559 24.30664 
L 77.527573 24.226543 
L 77.662851 24.238056 
L 77.83533 24.064794 
L 77.845476 24.074571 
L 78.535393 24.281142 
L 78.579358 24.335592 
L 78.630088 24.228536 
L 78.633469 24.232751 
L 78.646997 24.198431 
L 78.707872 24.30849 
L 78.73831 24.255754 
L 78.880352 24.398032 
L 78.897261 24.362788 
L 78.9649 24.477529 
L 78.978428 24.468529 
L 78.995338 24.435864 
L 79.123852 24.472272 
L 79.130616 24.42855 
L 79.205018 24.532144 
L 79.232074 24.485477 
L 79.374116 24.409533 
L 79.377498 24.424061 
L 79.4519 24.549871 
L 79.407935 24.417273 
L 79.509394 24.525757 
L 79.62438 24.471931 
L 79.519539 24.543782 
L 79.637907 24.48964 
L 80.084324 24.337822 
L 80.09447 24.37122 
L 80.195929 24.433123 
L 80.118144 24.316847 
L 80.226366 24.409349 
L 80.25004 24.383733 
L 80.310915 24.527754 
L 80.314297 24.528145 
L 80.916283 24.434581 
L 81.004214 24.480881 
L 80.977158 24.364405 
L 81.024505 24.412967 
L 81.443867 24.260967 
L 81.038033 24.456616 
L 81.447249 24.271707 
L 81.454013 24.284287 
L 81.538561 24.204013 
L 81.653547 24.221272 
L 81.667075 24.261001 
L 81.707659 24.343834 
L 81.765152 24.238478 
L 81.775298 24.239353 
L 81.778679 24.221688 
L 81.792207 24.268242 
L 81.876756 24.270166 
L 81.97145 24.388106 
L 81.991742 24.30472 
L 82.12702 24.243944 
L 82.130402 24.259287 
L 82.23186 24.246735 
L 82.140548 24.233928 
L 82.238624 24.213506 
L 82.323173 24.154336 
L 82.356992 24.167248 
L 82.455069 24.258316 
L 82.400958 24.146269 
L 82.471978 24.195019 
L 82.522708 24.172365 
L 82.542999 24.248256 
L 82.573437 24.250021 
L 82.87443 24.165368 
L 82.881194 24.186733 
L 83.023236 24.397461 
L 83.026618 24.385137 
L 83.172041 24.262782 
L 83.043527 24.408555 
L 83.178805 24.265312 
L 83.232916 24.165058 
L 83.36143 24.045625 
L 83.418923 24.064579 
L 83.435833 24.110038 
L 83.486562 24.164973 
L 83.544055 24.085673 
L 83.716535 24.182252 
L 83.733444 24.143581 
L 83.801083 24.170975 
L 83.861958 24.05286 
L 83.922833 24.129936 
L 83.980327 24.079833 
L 84.10884 23.957767 
L 84.122368 23.983088 
L 84.250882 24.095954 
L 84.318521 24.16003 
L 84.261028 24.085054 
L 84.372632 24.072461 
L 84.484237 24.00538 
L 84.487618 24.01201 
L 84.585695 24.01034 
L 84.558639 23.951967 
L 84.592459 23.984783 
L 84.781848 23.886531 
L 84.798758 23.973812 
L 84.863015 24.023763 
L 84.900216 23.959196 
L 84.940799 23.894702 
L 85.01182 23.941501 
L 85.147098 23.984512 
L 85.566459 23.785789 
L 85.573223 23.815288 
L 85.576605 23.831482 
L 85.634098 23.736599 
L 85.681446 23.805129 
L 85.806578 23.729928 
L 85.816723 23.750054 
L 85.955383 23.814731 
L 85.992585 23.764739 
L 86.026404 23.842411 
L 86.070369 23.814784 
L 86.17521 23.931085 
L 86.205647 23.923521 
L 86.307106 24.008696 
L 86.337543 23.953401 
L 86.340925 23.937562 
L 86.388272 24.026583 
L 86.43562 24.001047 
L 86.50664 24.066084 
L 86.550606 24.016624 
L 86.608099 24.007669 
L 86.567515 24.059632 
L 86.66221 24.034801 
L 86.723085 24.158967 
L 86.780578 24.084457 
L 86.90571 23.95036 
L 86.912474 23.958356 
L 86.92262 23.989148 
L 87.000405 23.834761 
L 87.02746 23.772599 
L 87.091717 23.881292 
L 87.108627 23.841036 
L 87.345363 24.000666 
L 87.352127 23.985337 
L 87.358891 23.968213 
L 87.413002 24.07216 
L 87.450203 24.041288 
L 87.473877 24.0858 
L 87.538134 23.973464 
L 87.761342 23.986926 
L 87.768106 24.012154 
L 87.79178 24.030436 
L 87.845891 23.940755 
L 87.872947 23.983042 
L 87.940586 23.902904 
L 87.883093 23.987688 
L 87.987933 23.990494 
L 88.065718 24.069993 
L 88.119829 24.001728 
L 88.244961 23.818904 
L 88.251725 23.837238 
L 88.349801 23.857891 
L 88.376857 23.796859 
L 88.5561 23.747665 
L 88.667704 23.861408 
L 88.67785 23.856505 
L 88.681232 23.830573 
L 88.735343 23.926022 
L 88.78269 23.909788 
L 88.90444 23.83755 
L 88.81651 23.920447 
L 88.907822 23.846729 
L 89.0431 23.921989 
L 89.053246 23.871035 
L 89.070156 23.849382 
L 89.114121 23.949208 
L 89.154704 23.90669 
L 89.252781 23.955499 
L 89.16485 23.892119 
L 89.276454 23.920145 
L 89.432024 24.009341 
L 89.44217 23.952669 
L 89.536864 24.018806 
L 89.543628 23.995756 
L 89.645087 24.063674 
L 89.665378 24.047578 
L 89.780364 24.061205 
L 89.783746 24.049296 
L 89.895351 23.936033 
L 89.915642 23.977112 
L 90.020483 23.920719 
L 90.047538 23.966193 
L 90.324858 24.207369 
L 90.054302 23.953001 
L 90.348531 24.155881 
L 90.517629 24.062613 
L 90.521011 24.067114 
L 90.625851 24.162088 
L 90.57174 24.055622 
L 90.639379 24.14176 
L 90.750983 24.061235 
L 90.683344 24.188906 
L 90.761129 24.079895 
L 90.852441 24.077359 
L 90.784802 24.057775 
L 90.865969 24.044132 
L 91.038448 24.038906 
L 91.04183 24.060201 
L 91.068886 24.013368 
L 91.068886 24.013368 
" clip-path="url(#p1b83fcaf55)" style="fill: none; stroke: #000000; stroke-width: 0.6; stroke-linecap: square"/>
   </g>
   <g id="line2d_2">
    <path d="M 9.905557 40.183042 
L 10.20655 40.416561 
L 10.209932 40.401991 
L 10.216696 40.382593 
L 10.308009 40.458251 
L 10.311391 40.457158 
L 10.375648 40.562064 
L 10.443286 40.521944 
L 10.578564 40.415021 
L 10.98778 40.66826 
L 11.021599 40.572236 
L 11.106148 40.594056 
L 11.139967 40.519999 
L 11.288773 40.605653 
L 11.292155 40.585574 
L 11.427433 40.460638 
L 11.447725 40.431398 
L 11.501836 40.528783 
L 11.539037 40.484241 
L 11.555947 40.464102 
L 11.660787 40.526803 
L 12.059857 40.450076 
L 12.08353 40.473358 
L 12.144405 40.397262 
L 12.178225 40.29008 
L 12.25601 40.385627 
L 12.404815 40.333846 
L 12.425107 40.364948 
L 12.513038 40.444811 
L 12.543475 40.411957 
L 12.557003 40.395904 
L 12.675371 40.456717 
L 12.763302 40.413057 
L 12.722718 40.479343 
L 12.797121 40.445998 
L 12.800503 40.442231 
L 12.824177 40.49242 
L 12.871524 40.522297 
L 12.895198 40.523972 
L 12.929017 40.420627 
L 12.952691 40.440168 
L 13.010184 40.436491 
L 13.050767 40.487578 
L 13.054149 40.483373 
L 13.135316 40.52464 
L 13.074441 40.456223 
L 13.165753 40.488199 
L 13.277357 40.491431 
L 13.223246 40.404929 
L 13.280739 40.476049 
L 13.395726 40.371861 
L 13.402489 40.391491 
L 13.459983 40.377787 
L 13.470128 40.432669 
L 13.503948 40.42677 
L 13.662899 40.587524 
L 13.791413 40.507868 
L 13.689955 40.629094 
L 13.798177 40.525622 
L 13.892872 40.505011 
L 13.815087 40.576583 
L 13.899636 40.555853 
L 13.906399 40.582241 
L 13.960511 40.488301 
L 14.004476 40.522795 
L 14.092407 40.521556 
L 14.051823 40.478641 
L 14.109316 40.483632 
L 14.325761 40.456205 
L 14.444129 40.354557 
L 14.447511 40.366335 
L 14.694393 40.604051 
L 14.454275 40.356145 
L 14.704539 40.57998 
L 14.714685 40.587529 
L 14.893928 40.443736 
L 14.924365 40.452481 
L 14.964949 40.360665 
L 14.992004 40.390184 
L 15.086699 40.344145 
L 15.10699 40.358083 
L 15.194921 40.376668 
L 15.164484 40.301094 
L 15.215213 40.334237 
L 15.377546 40.420518 
L 15.50606 40.541015 
L 15.387692 40.413488 
L 15.509442 40.525621 
L 15.570317 40.580115 
L 15.573699 40.610048 
L 15.621046 40.692287 
L 15.685303 40.632296 
L 15.796907 40.552022 
L 15.739414 40.662408 
L 15.803671 40.581673 
L 15.844255 40.683268 
L 15.864546 40.6713 
L 15.87131 40.689684 
L 15.88822 40.614604 
L 15.969387 40.650712 
L 16.111428 40.57812 
L 15.99306 40.713891 
L 16.11481 40.579643 
L 16.128338 40.611425 
L 16.16554 40.530265 
L 16.219651 40.545536 
L 16.310963 40.518772 
L 16.226415 40.528276 
L 16.317727 40.476119 
L 16.490206 40.349482 
L 16.493588 40.372475 
L 16.584901 40.452608 
L 16.61872 40.412904 
L 16.622102 40.396838 
L 16.686359 40.47967 
L 16.716797 40.470944 
L 16.781054 40.475693 
L 16.814873 40.406833 
L 16.841929 40.431206 
L 16.967061 40.328939 
L 16.980589 40.347096 
L 17.041464 40.283319 
L 17.068519 40.289041 
L 17.203797 40.155979 
L 17.207179 40.162822 
L 17.470971 40.193654 
L 17.616395 40.335465 
L 17.64345 40.334078 
L 17.670506 40.437033 
L 17.700943 40.404111 
L 17.832839 40.440532 
L 17.727999 40.364517 
L 17.846367 40.406544 
L 17.934298 40.318988 
L 17.968117 40.355987 
L 17.971499 40.378959 
L 18.062811 40.281644 
L 18.069575 40.301993 
L 18.2522 40.11606 
L 18.282638 40.094792 
L 18.377332 40.203429 
L 18.759492 40.451596 
L 18.769638 40.409021 
L 18.77302 40.3984 
L 18.847423 40.496124 
L 18.871097 40.451565 
L 19.002993 40.4515 
L 19.019902 40.401528 
L 19.192382 40.329087 
L 19.253257 40.334553 
L 19.226201 40.299499 
L 19.287076 40.290673 
L 19.331041 40.226129 
L 19.395298 40.309267 
L 19.425736 40.345439 
L 19.473083 40.243244 
L 19.500139 40.267662 
L 19.513666 40.211002 
L 19.601597 40.28637 
L 19.611743 40.258148 
L 19.740257 40.421382 
L 19.621889 40.246812 
L 19.753785 40.356644 
L 19.943174 40.220106 
L 19.78084 40.38669 
L 19.956701 40.267564 
L 20.108889 40.457283 
L 20.321952 40.370179 
L 20.338861 40.395288 
L 20.524868 40.508019 
L 20.548542 40.450696 
L 20.633091 40.377061 
L 20.663528 40.41894 
L 20.876591 40.190974 
L 20.883355 40.211738 
L 20.978049 40.304923 
L 21.008487 40.286229 
L 21.018633 40.23899 
L 21.089653 40.315343 
L 21.116709 40.288796 
L 21.174202 40.370432 
L 21.238459 40.322459 
L 21.451522 40.421768 
L 21.458286 40.404734 
L 21.512397 40.380536 
L 21.542834 40.472083 
L 21.559744 40.450675 
L 21.563126 40.458994 
L 21.613855 40.309223 
L 21.624001 40.328551 
L 21.793098 40.189985 
L 21.664584 40.352442 
L 21.806626 40.210632 
L 21.91823 40.355319 
L 21.928376 40.389789 
L 22.019689 40.307659 
L 22.121147 40.252958 
L 22.134675 40.293038 
L 22.256425 40.327467 
L 22.290244 40.436574 
L 22.357883 40.594746 
L 22.418758 40.536065 
L 22.43905 40.519145 
L 22.493161 40.618548 
L 22.499925 40.596774 
L 22.503307 40.611565 
L 22.547272 40.521815 
L 22.601383 40.561508 
L 22.69946 40.539922 
L 22.672404 40.584736 
L 22.709606 40.570029 
L 22.851647 40.585335 
L 22.763717 40.51994 
L 22.858411 40.579667 
L 22.939578 40.515796 
L 22.973397 40.577309 
L 23.128967 40.37241 
L 23.149259 40.396987 
L 23.311592 40.584208 
L 23.372467 40.456491 
L 23.436724 40.512187 
L 23.592294 40.447837 
L 23.595676 40.461299 
L 23.632877 40.350963 
L 23.680224 40.357455 
L 23.754627 40.337017 
L 23.70728 40.378437 
L 23.788447 40.373001 
L 23.930488 40.449662 
L 23.815502 40.355896 
L 23.944016 40.431161 
L 24.011655 40.385122 
L 24.05562 40.437592 
L 24.136787 40.472818 
L 24.109731 40.394492 
L 24.167225 40.434595 
L 24.305884 40.51486 
L 24.326176 40.498127 
L 24.370141 40.400528 
L 24.427634 40.555334 
L 24.518947 40.499748 
L 24.43778 40.574581 
L 24.552766 40.515089 
L 24.671135 40.561777 
L 24.589968 40.505277 
L 24.674516 40.543447 
L 24.701572 40.622907 
L 24.765829 40.495541 
L 24.830086 40.43608 
L 24.877433 40.472399 
L 24.948454 40.402715 
L 24.982274 40.450645 
L 25.053294 40.520303 
L 25.110788 40.402468 
L 25.229156 40.466593 
L 25.131079 40.366204 
L 25.239301 40.460468 
L 25.266357 40.442465 
L 25.320468 40.536981 
L 25.503093 40.587648 
L 25.520003 40.519496 
L 25.607934 40.495819 
L 25.597788 40.560065 
L 25.624843 40.550158 
L 25.628225 40.563246 
L 25.702628 40.464724 
L 25.72292 40.496187 
L 25.777031 40.536472 
L 25.854816 40.413134 
L 26.250503 40.550032 
L 26.274177 40.590722 
L 26.372253 40.512335 
L 26.500767 40.617228 
L 26.504149 40.602868 
L 26.642809 40.436541 
L 26.534587 40.642327 
L 26.656337 40.448822 
L 26.683393 40.477908 
L 26.788233 40.375232 
L 26.923511 40.48475 
L 26.950566 40.449674 
L 26.984386 40.551938 
L 27.024969 40.517253 
L 27.156865 40.598855 
L 27.160247 40.592445 
L 27.248178 40.655749 
L 27.173775 40.5675 
L 27.281997 40.628952 
L 27.390219 40.515471 
L 27.410511 40.531602 
L 27.532261 40.607143 
L 27.569462 40.544457 
L 27.802817 40.323532 
L 27.816345 40.348114 
L 27.911039 40.471652 
L 27.82649 40.341924 
L 27.941477 40.421443 
L 28.063227 40.322481 
L 28.110574 40.340572 
L 28.161303 40.263499 
L 28.320255 40.347734 
L 28.394657 40.425471 
L 28.3304 40.33934 
L 28.438623 40.385507 
L 28.584046 40.365726 
L 28.604338 40.406885 
L 28.678741 40.260966 
L 28.739616 40.163962 
L 28.797109 40.236726 
L 28.881658 40.314331 
L 29.003408 40.393679 
L 28.932387 40.28208 
L 29.00679 40.384758 
L 29.098102 40.442661 
L 29.158977 40.58471 
L 29.223234 40.573553 
L 29.331456 40.586961 
L 29.304401 40.53295 
L 29.341602 40.582353 
L 29.432915 40.428912 
L 29.470116 40.485909 
L 29.503936 40.425678 
L 29.574957 40.506624 
L 29.669651 40.590412 
L 29.588484 40.498425 
L 29.693325 40.539732 
L 29.791401 40.45188 
L 29.828603 40.493174 
L 30.068721 40.614517 
L 30.075485 40.579089 
L 30.190471 40.50957 
L 30.207381 40.548696 
L 30.227672 40.58184 
L 30.281783 40.473778 
L 30.410297 40.433043 
L 30.521902 40.411951 
L 30.528665 40.385393 
L 30.674089 40.250856 
L 30.677471 40.259085 
L 30.785693 40.272069 
L 30.795839 40.246974 
L 30.809367 40.202692 
L 30.907443 40.236033 
L 31.14418 40.466387 
L 31.150944 40.448884 
L 31.421499 40.428466 
L 31.573687 40.263005 
L 31.577069 40.311201 
L 31.861152 40.331974 
L 31.878062 40.398129 
L 31.976138 40.3691 
L 32.03025 40.357877 
L 32.074215 40.4385 
L 32.307569 40.529391 
L 32.080979 40.415324 
L 32.331243 40.493139 
L 32.358298 40.479984 
L 32.3955 40.548325 
L 32.425937 40.535113 
L 32.486812 40.559758 
L 32.51725 40.482913 
L 32.530778 40.481672 
L 32.791188 40.440943 
L 32.794569 40.450508 
L 32.912938 40.539034 
L 32.919702 40.518032 
L 33.02116 40.42372 
L 33.048215 40.467795 
L 33.193639 40.44427 
L 33.197021 40.45131 
L 33.335681 40.476786 
L 33.227459 40.41305 
L 33.339063 40.468255 
L 33.372882 40.42396 
L 33.362736 40.403135 
L 33.379646 40.398206 
L 33.450667 40.23341 
L 33.504778 40.250919 
L 33.613 40.39906 
L 33.62991 40.330675 
L 33.677257 40.367964 
L 33.687403 40.41576 
L 33.795626 40.529908 
L 33.700931 40.408983 
L 33.826063 40.502599 
L 33.853119 40.429505 
L 33.913994 40.56258 
L 33.944431 40.588417 
L 33.974869 40.513041 
L 34.01207 40.506107 
L 34.204841 40.360329 
L 34.228515 40.410481 
L 34.265716 40.350063 
L 34.390848 40.512328 
L 34.472015 40.438637 
L 34.41114 40.541107 
L 34.509216 40.479364 
L 34.566709 40.490761 
L 34.593765 40.405074 
L 34.688459 40.253081 
L 34.729043 40.291718 
L 34.877848 40.324374 
L 34.955633 40.136132 
L 35.00298 40.171423 
L 35.128112 40.219971 
L 35.131494 40.23812 
L 35.168696 40.27625 
L 35.205897 40.194031 
L 35.246481 40.253342 
L 35.408814 40.248195 
L 35.452779 40.179997 
L 35.520418 40.223408 
L 35.635404 40.158282 
L 35.648932 40.135293 
L 35.730099 40.256586 
L 35.90596 40.188312 
L 35.736863 40.268439 
L 35.909342 40.201025 
L 35.933016 40.24666 
L 36.000655 40.155327 
L 36.020946 40.198746 
L 36.024328 40.187021 
L 36.078439 40.298245 
L 36.125787 40.231363 
L 36.352377 40.013702 
L 36.359141 40.049748 
L 36.470745 40.087819 
L 36.389578 40.007061 
L 36.494419 40.063074 
L 36.518092 39.98315 
L 36.595877 40.126247 
L 36.741301 40.210901 
L 36.771738 40.154371 
L 36.852905 40.210287 
L 36.883343 40.207246 
L 36.93069 40.137992 
L 37.022002 40.073054 
L 37.05244 40.081276 
L 37.170808 40.111434 
L 37.065968 40.108441 
L 37.177572 40.132662 
L 37.29594 40.194163 
L 37.299322 40.181305 
L 37.363579 40.30049 
L 37.383871 40.290747 
L 37.394016 40.312589 
L 37.471801 40.19629 
L 37.512385 40.180664 
L 37.55635 40.244778 
L 37.576642 40.222972 
L 37.637517 40.320401 
L 37.735593 40.396984 
L 37.671336 40.290598 
L 37.755885 40.365334 
L 38.02644 40.360171 
L 38.154954 40.250775 
L 38.256413 40.358371 
L 38.307142 40.283899 
L 38.337579 40.225644 
L 38.405218 40.327581 
L 38.4086 40.321953 
L 38.851635 40.270983 
L 38.980149 40.21169 
L 39.027496 40.274293 
L 39.08499 40.189784 
L 39.091753 40.220103 
L 39.122191 40.276532 
L 39.213504 40.235101 
L 39.257469 40.256944 
L 39.325108 40.227646 
L 39.440094 40.223566 
L 39.348781 40.199033 
L 39.446858 40.210769 
L 39.484059 40.248534 
L 39.470531 40.26189 
L 39.507733 40.299174 
L 39.605809 40.39308 
L 39.517879 40.292088 
L 39.632865 40.359944 
L 39.643011 40.340579 
L 39.686976 40.414894 
L 39.717414 40.417792 
L 39.737705 40.387031 
L 39.856073 40.563524 
L 39.991351 40.422013 
L 40.038698 40.527596 
L 40.04208 40.533068 
L 40.065754 40.42545 
L 40.099573 40.429454 
L 40.244997 40.258517 
L 40.343074 40.285544 
L 40.326164 40.238003 
L 40.356601 40.254768 
L 40.66774 40.206981 
L 40.782727 40.328875 
L 40.786109 40.319822 
L 40.951824 40.128903 
L 40.989025 40.176434 
L 41.009317 40.199543 
L 41.087102 40.12311 
L 41.093866 40.146575 
L 41.229144 40.017781 
L 41.340748 40.076297 
L 41.347512 40.073192 
L 41.421914 40.116026 
L 41.43206 40.148592 
L 41.618067 40.384339 
L 41.716144 40.300696 
L 41.749963 40.319114 
L 41.864949 40.372998 
L 41.780401 40.250106 
L 41.871713 40.367234 
L 41.993463 40.205217 
L 42.003609 40.210879 
L 42.152415 40.096244 
L 42.176088 40.123714 
L 42.284311 40.280453 
L 42.402679 40.360407 
L 42.406061 40.354593 
L 42.527811 40.332804 
L 42.412825 40.370159 
L 42.534575 40.346845 
L 42.703672 40.430467 
L 42.713818 40.386596 
L 42.784839 40.467341 
L 42.811894 40.437131 
L 43.045249 40.444091 
L 43.166999 40.342308 
L 43.363152 40.282671 
L 43.366534 40.29332 
L 43.495048 40.410277 
L 43.613416 40.382083 
L 43.501811 40.415203 
L 43.626943 40.407698 
L 43.687818 40.413665 
L 43.718256 40.347916 
L 43.721638 40.355465 
L 43.782513 40.342046 
L 43.745312 40.393755 
L 43.826478 40.392143 
L 44.286423 40.486078 
L 44.381117 40.557475 
L 44.347298 40.464436 
L 44.408173 40.549478 
L 44.506249 40.541937 
L 44.435229 40.616728 
L 44.519777 40.560831 
L 44.580652 40.603326 
L 44.634763 40.581753 
L 44.726076 40.477673 
L 44.688875 40.592065 
L 44.756514 40.503504 
L 44.857972 40.630859 
L 44.803861 40.477823 
L 44.898555 40.613857 
L 45.050743 40.529053 
L 45.060889 40.552461 
L 45.21984 40.618839 
L 45.240132 40.587996 
L 45.287479 40.622187 
L 45.304389 40.665187 
L 45.382174 40.685637 
L 45.338208 40.638755 
L 45.415993 40.658056 
L 45.493778 40.712303 
L 45.429521 40.630957 
L 45.527597 40.675208 
L 45.649347 40.580852 
L 45.652729 40.587561 
L 45.696695 40.638809 
L 45.75757 40.563696 
L 45.760952 40.566568 
L 45.835354 40.510652 
L 45.872556 40.566863 
L 45.980778 40.601093 
L 45.943577 40.528784 
L 45.98416 40.585305 
L 46.197223 40.557185 
L 46.200605 40.54757 
L 46.288535 40.539358 
L 46.224278 40.58346 
L 46.308827 40.559903 
L 46.376466 40.592806 
L 46.352792 40.526307 
L 46.417049 40.532885 
L 46.48807 40.453272 
L 46.535417 40.520575 
L 46.650403 40.508279 
L 46.660549 40.542758 
L 46.772153 40.547188 
L 46.71466 40.489558 
L 46.775535 40.539848 
L 46.792445 40.495797 
L 46.87023 40.63791 
L 46.873612 40.632643 
L 47.069765 40.459778 
L 47.154313 40.383863 
L 47.174605 40.501252 
L 47.272682 40.535164 
L 47.289591 40.482996 
L 47.377522 40.453148 
L 47.299737 40.488697 
L 47.394432 40.498745 
L 47.441779 40.540451 
L 47.49589 40.448346 
L 47.499272 40.453474 
L 47.610876 40.413062 
L 47.556765 40.479086 
L 47.614258 40.435908 
L 47.783355 40.482114 
L 47.793501 40.468356 
L 47.935543 40.316771 
L 47.972744 40.355967 
L 48.101258 40.472806 
L 47.989654 40.344584 
L 48.111404 40.456642 
L 48.310939 40.343347 
L 48.317703 40.350688 
L 48.341377 40.288642 
L 48.561203 40.368033 
L 48.571349 40.336417 
L 48.618696 40.448856 
L 48.669425 40.380933 
L 48.896016 40.319668 
L 48.899398 40.334799 
L 49.02453 40.451662 
L 49.061731 40.413759 
L 49.153044 40.463517 
L 49.176717 40.425967 
L 49.274794 40.50998 
L 49.301849 40.491617 
L 49.376252 40.558711 
L 49.440509 40.451046 
L 49.447273 40.493667 
L 49.531822 40.391475 
L 49.545349 40.408529 
L 49.65019 40.344839 
L 49.562259 40.424442 
L 49.663718 40.377369 
L 49.775322 40.382209 
L 49.727975 40.312482 
L 49.778704 40.369846 
L 49.903836 40.246554 
L 49.78885 40.381143 
L 49.9106 40.26286 
L 49.927509 40.316974 
L 50.187919 40.257912 
L 50.27585 40.412434 
L 50.309669 40.384596 
L 50.417892 40.341246 
L 50.357017 40.414115 
L 50.431419 40.381265 
L 50.712121 40.417741 
L 50.718885 40.387986 
L 50.908274 40.269084 
L 50.928565 40.33013 
L 51.097663 40.579458 
L 51.107809 40.571685 
L 51.209267 40.525921 
L 51.226177 40.571871 
L 51.232941 40.598479 
L 51.320871 40.521891 
L 51.334399 40.548795 
L 51.574517 40.442531 
L 51.696267 40.383991 
L 51.699649 40.394317 
L 51.703031 40.421765 
L 51.757142 40.27763 
L 51.807872 40.375492 
L 51.889038 40.307497 
L 51.89242 40.292228 
L 51.936385 40.249557 
L 52.004024 40.304423 
L 52.602629 40.29414 
L 52.619539 40.250175 
L 52.693941 40.342683 
L 52.710851 40.320955 
L 52.842747 40.141442 
L 52.879948 40.174751 
L 52.91715 40.293689 
L 53.079483 40.447608 
L 53.086247 40.439283 
L 53.170796 40.497129 
L 53.194469 40.452232 
L 53.292546 40.557242 
L 53.218143 40.444989 
L 53.312838 40.518216 
L 53.427824 40.45357 
L 53.434588 40.472486 
L 53.552956 40.512502 
L 53.776164 40.576192 
L 53.89115 40.668416 
L 53.894532 40.661589 
L 53.897914 40.645371 
L 53.958789 40.769553 
L 53.992609 40.730878 
L 54.026428 40.742415 
L 54.077157 40.66221 
L 54.202289 40.497066 
L 54.253019 40.528983 
L 54.259783 40.576333 
L 54.296984 40.488209 
L 54.364623 40.552013 
L 54.499901 40.402284 
L 54.391678 40.566642 
L 54.510047 40.423387 
L 54.604741 40.386022 
L 54.526956 40.433175 
L 54.625033 40.427904 
L 54.895588 40.317124 
L 54.631797 40.442168 
L 54.902352 40.340257 
L 55.05454 40.42215 
L 54.91588 40.320404 
L 55.068068 40.40407 
L 55.112033 40.371606 
L 55.162762 40.476583 
L 55.169526 40.487553 
L 55.227019 40.33208 
L 55.230401 40.33658 
L 55.291276 40.399885 
L 55.345387 40.297302 
L 55.382589 40.338005 
L 55.443464 40.243526 
L 55.446846 40.247184 
L 55.714019 40.212204 
L 55.717401 40.22597 
L 55.815478 40.262677 
L 55.761367 40.200264 
L 55.825624 40.225793 
L 55.9237 40.186038 
L 55.933846 40.225048 
L 56.04545 40.293862 
L 56.072506 40.274212 
L 56.086034 40.238872 
L 56.177346 40.312564 
L 56.349825 40.558495 
L 56.376881 40.544729 
L 56.478339 40.423981 
L 56.512159 40.445349 
L 56.633909 40.503705 
L 56.637291 40.523769 
L 56.667728 40.533846 
L 56.718458 40.442071 
L 56.735367 40.485567 
L 56.745513 40.499235 
L 56.863881 40.438354 
L 56.96534 40.446166 
L 56.911228 40.369174 
L 56.972103 40.422952 
L 57.032979 40.500395 
L 57.110763 40.563772 
L 57.144583 40.499513 
L 57.249423 40.427538 
L 57.188548 40.531381 
L 57.269715 40.453247 
L 57.286624 40.483284 
L 57.367791 40.375997 
L 57.563944 40.249855 
L 57.381319 40.394497 
L 57.591 40.274471 
L 57.719514 40.386512 
L 57.597764 40.268944 
L 57.729659 40.376495 
L 57.8345 40.296614 
L 57.861555 40.329301 
L 57.952868 40.417783 
L 57.868319 40.323492 
L 57.976542 40.337666 
L 58.121965 40.326071 
L 58.247097 40.347442 
L 58.260625 40.321152 
L 58.335028 40.37928 
L 58.375611 40.27066 
L 58.382375 40.311667 
L 58.419576 40.204543 
L 58.473688 40.246859 
L 58.561618 40.144477 
L 58.588674 40.198335 
L 58.713806 40.340107 
L 58.737479 40.31546 
L 58.828792 40.247833 
L 58.747625 40.344009 
L 58.872757 40.323433 
L 58.970834 40.392179 
L 58.984362 40.351378 
L 59.112875 40.245013 
L 59.011417 40.361182 
L 59.116257 40.247678 
L 59.19066 40.359154 
L 59.251535 40.332614 
L 59.325938 40.234596 
L 59.258299 40.341963 
L 59.376667 40.314933 
L 59.380049 40.335182 
L 59.46798 40.195066 
L 59.498417 40.21263 
L 59.58973 40.142303 
L 59.823084 40.277811 
L 59.829848 40.270906 
L 59.83323 40.257655 
L 59.873813 40.369776 
L 59.927925 40.311185 
L 59.958362 40.371343 
L 59.93807 40.304899 
L 60.046293 40.325826 
L 60.130841 40.325325 
L 60.07673 40.376237 
L 60.147751 40.369265 
L 60.306703 40.307949 
L 60.32023 40.268761 
L 60.398015 40.375904 
L 60.408161 40.360625 
L 60.465654 40.378884 
L 60.482564 40.282025 
L 60.485946 40.288982 
L 60.496092 40.271095 
L 60.56373 40.385144 
L 60.709154 40.536932 
L 60.726064 40.511073 
L 60.844432 40.407676 
L 60.871488 40.466713 
L 60.949272 40.584828 
L 60.986474 40.520171 
L 61.277321 40.573319 
L 61.287467 40.542427 
L 61.351724 40.572108 
L 61.402453 40.514817 
L 61.409217 40.506534 
L 61.530967 40.619847 
L 61.656099 40.564697 
L 61.564787 40.646021 
L 61.662863 40.589883 
L 61.666245 40.594908 
L 61.723738 40.501841 
L 61.730502 40.49928 
L 61.794759 40.492623 
L 61.821814 40.563038 
L 61.825196 40.555491 
L 61.923273 40.5286 
L 61.86578 40.467464 
L 61.926655 40.51253 
L 62.12619 40.398384 
L 62.197211 40.438995 
L 62.251322 40.38661 
L 62.379836 40.457388 
L 62.274995 40.350382 
L 62.386599 40.436878 
L 62.461002 40.423962 
L 62.406891 40.469067 
L 62.484676 40.502875 
L 62.674065 40.627949 
L 62.704502 40.534071 
L 62.822871 40.461658 
L 62.714648 40.541059 
L 62.829634 40.470726 
L 62.924329 40.405264 
L 62.893891 40.500057 
L 62.951385 40.445937 
L 63.032551 40.480494 
L 62.96153 40.427589 
L 63.076517 40.450513 
L 63.086662 40.476012 
L 63.276051 40.342019 
L 63.37751 40.384478 
L 63.394419 40.364799 
L 63.458676 40.196295 
L 63.51617 40.297421 
L 63.607482 40.411857 
L 63.634538 40.369713 
L 63.74276 40.35102 
L 63.675121 40.411428 
L 63.746142 40.359774 
L 63.823927 40.404966 
L 63.773197 40.429382 
L 63.827309 40.417736 
L 63.837454 40.458792 
L 63.88142 40.399201 
L 63.935531 40.417272 
L 64.148594 40.256786 
L 63.952441 40.434044 
L 64.151975 40.261507 
L 64.297399 40.404318 
L 64.307545 40.387248 
L 64.429295 40.291069 
L 64.321073 40.431616 
L 64.442823 40.34079 
L 64.574719 40.394988 
L 64.669413 40.372867 
L 64.591628 40.36994 
L 64.679559 40.35641 
L 64.743816 40.312454 
L 64.720142 40.364056 
L 64.791163 40.340769 
L 64.804691 40.351195 
L 64.85542 40.251728 
L 64.858802 40.253709 
L 64.912913 40.148484 
L 64.97717 40.183142 
L 64.983934 40.203347 
L 65.058337 40.082349 
L 65.082011 40.032209 
L 65.139504 40.106887 
L 65.173323 40.070678 
L 65.240962 40.149938 
L 65.291691 40.089729 
L 65.355948 40.210396 
L 65.366094 40.195023 
L 65.433733 40.30485 
L 65.437115 40.33203 
L 65.535191 40.256961 
L 65.538573 40.259686 
L 65.988372 40.221625 
L 66.089831 40.259833 
L 66.012046 40.20886 
L 66.099977 40.221246 
L 67.019866 40.347517 
L 67.023248 40.330297 
L 67.077359 40.183252 
L 67.144998 40.273681 
L 67.368206 40.347335 
L 67.37497 40.329414 
L 67.493338 40.29084 
L 67.51363 40.332244 
L 67.577887 40.228099 
L 67.594797 40.234972 
L 67.679345 40.252842 
L 67.631998 40.28441 
L 67.692873 40.28452 
L 67.743602 40.343756 
L 67.699637 40.275213 
L 67.818005 40.263774 
L 67.926228 40.219933 
L 67.943137 40.235367 
L 68.064887 40.219916 
L 68.068269 40.195573 
L 68.152818 40.37129 
L 68.301624 40.468901 
L 68.335443 40.44189 
L 68.338825 40.42969 
L 68.433519 40.497135 
L 68.595853 40.429581 
L 68.609381 40.481488 
L 68.612763 40.483846 
L 68.633054 40.391322 
L 68.656728 40.388029 
L 68.741277 40.329632 
L 68.680402 40.398516 
L 68.768332 40.382248 
L 68.819061 40.403052 
L 68.829207 40.358283 
L 68.869791 40.349643 
L 69.00845 40.290048 
L 69.015214 40.300375 
L 69.021978 40.351558 
L 69.103145 40.224423 
L 69.120055 40.251981 
L 69.248569 40.360518 
L 69.262096 40.311949 
L 69.292534 40.280137 
L 69.346645 40.406049 
L 69.350027 40.40317 
L 69.51236 40.442916 
L 69.522506 40.400694 
L 69.908048 40.503452 
L 69.918194 40.474995 
L 69.955395 40.394038 
L 70.026416 40.499215 
L 70.029798 40.507735 
L 70.070381 40.427822 
L 70.117729 40.441279 
L 70.131256 40.427261 
L 70.205659 40.505732 
L 70.266534 40.455052 
L 70.317264 40.522697 
L 70.418722 40.461731 
L 70.354465 40.558298 
L 70.435632 40.511377 
L 70.76368 40.535803 
L 70.878667 40.585231 
L 70.804264 40.517021 
L 70.882049 40.573889 
L 70.969979 40.524543 
L 70.973361 40.495044 
L 71.020708 40.478951 
L 71.068056 40.554492 
L 71.071438 40.54691 
L 71.152604 40.572394 
L 71.081583 40.53936 
L 71.193188 40.531155 
L 71.230389 40.518886 
L 71.26759 40.583605 
L 71.294646 40.576218 
L 71.453597 40.588246 
L 71.308174 40.624445 
L 71.460361 40.616716 
L 71.480653 40.654476 
L 71.548292 40.555719 
L 71.555056 40.555646 
L 71.622695 40.587252 
L 71.686952 40.516767 
L 71.913542 40.27355 
L 71.693716 40.524733 
L 71.920306 40.283379 
L 72.042056 40.423799 
L 72.045438 40.416588 
L 72.140133 40.500997 
L 72.062348 40.403317 
L 72.180716 40.484851 
L 72.251737 40.432772 
L 72.288938 40.473889 
L 72.383633 40.532883 
L 72.403924 40.507973 
L 72.495237 40.604328 
L 72.515529 40.640674 
L 72.600077 40.561801 
L 73.124279 40.384406 
L 73.134425 40.409036 
L 73.259557 40.470782 
L 73.479383 40.404503 
L 73.482765 40.414246 
L 73.601133 40.411178 
L 73.618043 40.357313 
L 73.746557 40.298498 
L 73.69921 40.397847 
L 73.753321 40.310094 
L 73.83787 40.380791 
L 73.875071 40.346239 
L 73.881835 40.337505 
L 74.04755 40.520154 
L 74.077988 40.54037 
L 74.165918 40.451566 
L 74.30796 40.496862 
L 74.318106 40.458213 
L 74.321488 40.445823 
L 74.368835 40.523795 
L 74.4128 40.532732 
L 74.558224 40.499031 
L 74.649537 40.468491 
L 74.575134 40.512476 
L 74.669828 40.513225 
L 74.81187 40.57739 
L 74.815252 40.563719 
L 74.889655 40.564269 
L 74.84569 40.593918 
L 74.913329 40.593465 
L 74.93362 40.664232 
L 75.028315 40.603993 
L 75.170356 40.606593 
L 75.038461 40.581295 
L 75.173738 40.585647 
L 75.217704 40.503196 
L 75.292107 40.55845 
L 75.545752 40.654282 
L 75.549134 40.641318 
L 75.691176 40.478509 
L 75.701322 40.501306 
L 75.741905 40.419239 
L 75.823072 40.523901 
L 75.911003 40.527992 
L 75.921149 40.472297 
L 76.032753 40.400988 
L 75.934676 40.507318 
L 76.073336 40.484335 
L 76.110538 40.529415 
L 76.18494 40.491978 
L 76.492697 40.510442 
L 76.607684 40.552773 
L 76.536663 40.465434 
L 76.614448 40.535956 
L 76.678704 40.470666 
L 76.72267 40.555595 
L 76.776781 40.599452 
L 76.871475 40.512077 
L 76.976316 40.55752 
L 76.979698 40.572503 
L 76.98308 40.582117 
L 77.016899 40.524649 
L 77.074392 40.526387 
L 77.19276 40.500327 
L 77.118358 40.590412 
L 77.196142 40.50443 
L 77.263781 40.520033 
L 77.284073 40.440787 
L 77.287455 40.442507 
L 77.297601 40.406349 
L 77.351712 40.493512 
L 77.399059 40.438406 
L 77.409205 40.450337 
L 77.622268 40.359626 
L 77.629031 40.389554 
L 77.700052 40.299018 
L 77.727108 40.320368 
L 77.740636 40.294733 
L 77.794747 40.409639 
L 77.801511 40.39599 
L 77.825184 40.379208 
L 77.933407 40.499693 
L 77.946934 40.508836 
L 78.072066 40.451874 
L 78.085594 40.446395 
L 78.105886 40.387572 
L 78.146469 40.375592 
L 78.285129 40.304868 
L 78.190434 40.409623 
L 78.298657 40.328554 
L 78.430553 40.448204 
L 78.454226 40.436715 
L 78.643615 40.323729 
L 78.667289 40.362732 
L 78.836386 40.435627 
L 78.900643 40.469731 
L 78.94799 40.423795 
L 78.988574 40.398726 
L 79.039303 40.463789 
L 79.052831 40.453102 
L 79.191491 40.534167 
L 79.08665 40.404987 
L 79.194873 40.523312 
L 79.238838 40.386206 
L 79.309859 40.468536 
L 79.33015 40.418483 
L 79.387643 40.547182 
L 79.391025 40.540534 
L 79.397789 40.555316 
L 79.434991 40.43083 
L 79.472192 40.44724 
L 79.580414 40.502163 
L 79.587178 40.537564 
L 79.651435 40.446732 
L 79.688637 40.479737 
L 79.820533 40.397983 
L 79.878026 40.360178 
L 79.83406 40.414871 
L 79.928755 40.421014 
L 79.98963 40.433648 
L 80.016685 40.35802 
L 80.077561 40.312089 
L 80.036977 40.391732 
L 80.12829 40.368912 
L 80.209456 40.449261 
L 80.243276 40.424636 
L 80.45972 40.307782 
L 80.500304 40.250317 
L 80.567943 40.332545 
L 80.645727 40.383514 
L 80.682929 40.353078 
L 80.801297 40.327196 
L 80.764096 40.432298 
L 80.804679 40.356794 
L 80.923047 40.332047 
L 80.811443 40.368383 
L 80.943339 40.383738 
L 80.99745 40.353512 
L 81.065089 40.453759 
L 81.10229 40.421622 
L 81.166547 40.500642 
L 81.22404 40.421887 
L 81.298443 40.501558 
L 81.369464 40.528104 
L 81.39652 40.453719 
L 81.399902 40.457716 
L 81.525034 40.388277 
L 81.589291 40.423396 
L 81.545325 40.43937 
L 81.609582 40.459567 
L 81.785443 40.574481 
L 81.805735 40.5447 
L 81.836173 40.475196 
L 81.88352 40.612582 
L 81.930867 40.645638 
L 81.907193 40.570671 
L 81.998506 40.605675 
L 82.018798 40.593123 
L 82.042471 40.513046 
L 82.137166 40.394436 
L 82.164221 40.439988 
L 82.292735 40.503689 
L 82.296117 40.497198 
L 82.431395 40.405082 
L 82.309645 40.510959 
L 82.434777 40.426429 
L 82.542999 40.614483 
L 82.444923 40.42002 
L 82.586965 40.550171 
L 82.745916 40.624774 
L 82.759444 40.58684 
L 82.864284 40.484698 
L 82.887958 40.496729 
L 82.986034 40.493578 
L 82.921777 40.526443 
L 82.999562 40.50657 
L 83.050291 40.459446 
L 83.026618 40.435873 
L 83.063819 40.422566 
L 83.144986 40.375967 
L 83.172041 40.42166 
L 83.2735 40.449146 
L 83.216007 40.381212 
L 83.280264 40.415269 
L 83.371576 40.376998 
L 83.320847 40.444377 
L 83.385104 40.427905 
L 83.432451 40.475956 
L 83.466271 40.359966 
L 83.489944 40.399713 
L 83.807847 40.55534 
L 83.814611 40.544454 
L 83.845049 40.52202 
L 83.872104 40.589529 
L 83.91607 40.591446 
L 83.960035 40.625383 
L 83.993854 40.528766 
L 84.007382 40.550558 
L 84.010764 40.529469 
L 84.041202 40.603974 
L 84.115604 40.55986 
L 84.436889 40.418167 
L 84.534966 40.319954 
L 84.484237 40.433511 
L 84.555257 40.35456 
L 84.683771 40.266442 
L 84.568785 40.367148 
L 84.693917 40.31217 
L 84.815667 40.468831 
L 84.876542 40.370706 
L 84.917126 40.307403 
L 84.991528 40.341463 
L 85.157244 40.245107 
L 85.160626 40.260902 
L 85.322959 40.370618 
L 85.390598 40.42506 
L 85.353397 40.327763 
L 85.437945 40.383311 
L 85.488675 40.373623 
L 85.458237 40.420551 
L 85.539404 40.430688 
L 86.012876 40.394549 
L 86.01964 40.436855 
L 86.023022 40.457367 
L 86.094043 40.37685 
L 86.127862 40.426826 
L 86.76705 40.313841 
L 86.966585 40.253241 
L 86.980113 40.299583 
L 86.986877 40.334199 
L 87.078189 40.228809 
L 87.186412 40.15998 
L 87.145828 40.260158 
L 87.193175 40.178229 
L 87.429912 40.366682 
L 87.450203 40.392728 
L 87.490787 40.331395 
L 87.534752 40.345771 
L 87.649738 40.301746 
L 87.666648 40.327625 
L 87.697085 40.335887 
L 87.717377 40.235356 
L 87.815454 40.19653 
L 87.839127 40.211765 
L 87.869565 40.188824 
L 87.916912 40.287129 
L 87.920294 40.286041 
L 88.025134 40.35759 
L 88.038662 40.322563 
L 88.075863 40.270436 
L 88.116447 40.361489 
L 88.146884 40.36001 
L 88.238197 40.264496 
L 88.268634 40.299976 
L 88.309218 40.29481 
L 88.336273 40.217126 
L 88.343037 40.215713 
L 88.495225 40.159602 
L 88.498607 40.176473 
L 88.931496 40.365126 
L 89.039718 40.297177 
L 89.049864 40.317653 
L 89.168232 40.378411 
L 89.171614 40.366534 
L 89.279836 40.421714 
L 89.30351 40.369652 
L 89.435406 40.259993 
L 89.570684 40.195678 
L 89.523336 40.296813 
L 89.574066 40.201055 
L 89.695816 40.324369 
L 89.70258 40.321681 
L 90.061066 40.23225 
L 90.098267 40.188074 
L 90.165906 40.276707 
L 90.436462 40.343761 
L 90.439844 40.315773 
L 90.504101 40.303726 
L 90.480427 40.344684 
L 90.541302 40.345961 
L 90.55483 40.385071 
L 90.625851 40.311413 
L 90.649525 40.32358 
L 90.771275 40.280015 
L 90.65967 40.345598 
L 90.778039 40.307828 
L 90.889643 40.355608 
L 90.896407 40.354481 
L 90.97081 40.376186 
L 90.940372 40.412938 
L 90.991101 40.401338 
L 91.062122 40.453094 
L 91.011393 40.383272 
L 91.068886 40.447564 
" clip-path="url(#p1b83fcaf55)" style="fill: none; stroke: #000000; stroke-width: 0.6; stroke-linecap: square"/>
   </g>
   <g id="line2d_3">
    <path d="M 9.905557 58.167898 
L 10.155821 56.983212 
L 10.159203 57.004785 
L 10.236988 56.78855 
L 10.60562 55.641215 
L 10.639439 53.599495 
L 10.649585 43.885416 
L 10.740898 58.969609 
L 10.74428 58.959143 
L 11.177169 56.803976 
L 11.204224 56.816449 
L 11.207606 56.831685 
L 11.271863 56.626344 
L 11.298919 56.669254 
L 11.576238 54.979174 
L 11.589766 46.13763 
L 11.593148 43.902909 
L 11.681079 58.929831 
L 11.687843 58.983575 
L 11.748718 58.487246 
L 11.809593 58.013232 
L 11.985454 57.074673 
L 11.988836 57.082177 
L 12.191753 56.727426 
L 12.195135 56.731739 
L 12.208662 56.753473 
L 12.266156 56.589698 
L 12.570531 54.88479 
L 12.58744 43.87787 
L 12.658461 56.389737 
L 12.678753 58.929619 
L 12.773447 58.169445 
L 12.983128 57.034199 
L 13.365288 56.213427 
L 13.503948 54.729726 
L 13.520858 43.919863 
L 13.591878 57.126044 
L 13.608788 58.955142 
L 13.703483 58.212066 
L 13.906399 57.0804 
L 14.423837 55.774401 
L 14.464421 54.874709 
L 14.48133 43.877521 
L 14.552351 55.727173 
L 14.572643 58.978682 
L 14.667337 58.212723 
L 14.86349 57.150196 
L 14.907456 57.035561 
L 15.063025 56.718341 
L 15.441803 55.299902 
L 15.458713 53.228146 
L 15.468859 43.887627 
L 15.560171 58.925595 
L 15.563553 58.908379 
L 15.681921 57.949728 
L 15.844255 57.113964 
L 15.847637 57.127412 
L 15.90513 56.929044 
L 15.908512 56.930199 
L 16.104665 56.579201 
L 16.108047 56.59226 
L 16.172303 56.465205 
L 16.185831 56.464902 
L 16.331255 55.769409 
L 16.368456 54.688082 
L 16.381984 43.864978 
L 16.459769 58.03078 
L 16.480061 59.026328 
L 16.571373 58.254687 
L 16.892658 56.820088 
L 16.902804 56.844191 
L 16.973825 56.691034 
L 17.065137 56.519645 
L 17.220707 56.137712 
L 17.29511 55.571916 
L 17.322165 53.891029 
L 17.332311 43.865757 
L 17.423624 58.99354 
L 17.427006 58.992524 
L 17.558901 57.960209 
L 17.744909 57.061567 
L 17.79902 56.883026 
L 17.917388 56.694788 
L 17.947825 56.712942 
L 17.978263 56.60906 
L 18.208235 56.146419 
L 17.991791 56.622562 
L 18.214999 56.162688 
L 18.245437 56.195876 
L 18.275874 56.052611 
L 18.353659 55.220161 
L 18.370569 50.243957 
L 18.377332 43.870997 
L 18.468645 58.920953 
L 18.475409 58.892688 
L 18.816985 56.881691 
L 18.833895 56.869487 
L 18.850805 56.784287 
L 18.864333 56.792373 
L 18.986083 56.634849 
L 18.989465 56.647856 
L 19.060486 56.493205 
L 19.06725 56.511015 
L 19.074013 56.533922 
L 19.107833 56.385394 
L 19.111215 56.392131 
L 19.29384 54.901993 
L 19.31075 43.8763 
L 19.381771 55.613283 
L 19.402062 58.96582 
L 19.496757 58.216418 
L 19.523812 58.004313 
L 19.848479 56.7011 
L 19.855243 56.73105 
L 19.90259 56.62352 
L 20.088597 56.325828 
L 20.098743 56.342664 
L 20.102125 56.357102 
L 20.163 56.154103 
L 20.250931 55.261758 
L 20.26784 51.919772 
L 20.274604 43.863292 
L 20.365917 58.972897 
L 20.372681 58.962546 
L 20.687202 57.049435 
L 20.697348 57.051453 
L 20.724403 56.933065 
L 20.741313 56.927504 
L 21.18773 55.557691 
L 21.214785 53.742897 
L 21.224931 43.889489 
L 21.316244 58.929991 
L 21.319626 58.924573 
L 21.722077 56.78618 
L 21.725459 56.790167 
L 21.735605 56.800313 
L 21.789716 56.685042 
L 21.931758 56.355563 
L 22.026453 56.081334 
L 22.127911 54.908859 
L 22.144821 43.898994 
L 22.215842 56.179856 
L 22.236133 58.947189 
L 22.330828 58.183222 
L 22.574328 56.930451 
L 23.037654 55.456091 
L 23.061328 52.164258 
L 23.068092 43.914186 
L 23.159405 58.961443 
L 23.166168 58.939772 
L 23.494217 56.95672 
L 23.497599 56.9585 
L 23.507745 56.969321 
L 23.55171 56.861214 
L 23.558474 56.862719 
L 23.56862 56.865306 
L 23.774919 56.391028 
L 23.805356 56.299239 
L 23.96769 54.817529 
L 23.984599 43.898365 
L 24.05562 56.346649 
L 24.075912 59.002917 
L 24.170606 58.241596 
L 24.356614 57.202335 
L 24.359995 57.217455 
L 24.424252 57.002585 
L 24.427634 57.004704 
L 24.458072 56.912324 
L 24.606878 56.639389 
L 24.931544 55.185825 
L 24.945072 52.663177 
L 24.955218 43.910732 
L 25.046531 58.988421 
L 25.049912 58.966263 
L 25.668809 56.408764 
L 25.672191 56.414362 
L 25.841288 55.829937 
L 25.895399 54.667779 
L 25.908927 43.916048 
L 25.98333 57.587297 
L 26.003621 58.946331 
L 26.094934 58.183306 
L 26.43651 56.785203 
L 26.849108 55.511303 
L 26.872782 53.269251 
L 26.882927 43.877784 
L 26.97424 58.997177 
L 26.977622 58.977508 
L 27.045261 58.439714 
L 27.258323 57.125665 
L 27.261705 57.137202 
L 27.315817 56.973845 
L 27.329344 56.996022 
L 27.525497 56.616103 
L 27.532261 56.635554 
L 27.610046 56.502668 
L 27.809581 55.285938 
L 27.82649 51.14325 
L 27.833254 43.854885 
L 27.927949 59.024765 
L 27.931331 58.995322 
L 28.283053 56.989016 
L 28.499498 56.541471 
L 28.516407 56.560853 
L 28.563755 56.539105 
L 28.580664 56.471158 
L 28.776817 55.883496 
L 28.827546 54.853346 
L 28.844456 43.873001 
L 28.915477 55.752241 
L 28.939151 58.970793 
L 29.030463 58.208827 
L 29.084574 57.835267 
L 29.257054 57.050524 
L 29.375422 56.806188 
L 29.517464 56.625136 
L 29.659505 56.274201 
L 29.774491 54.67059 
L 29.788019 43.85639 
L 29.865804 58.015577 
L 29.882714 59.038087 
L 29.977408 58.247312 
L 30.061957 57.658495 
L 30.244582 56.985542 
L 30.437353 56.556665 
L 30.454263 56.58407 
L 30.528665 56.500777 
L 30.538811 56.513957 
L 30.660561 56.310758 
L 30.775548 55.03983 
L 30.789075 46.658686 
L 30.795839 43.886345 
L 30.88377 58.979016 
L 30.887152 58.999377 
L 30.934499 58.63517 
L 31.164471 57.179047 
L 31.462083 56.570645 
L 31.512812 56.445779 
L 31.763076 54.67865 
L 31.776604 43.890281 
L 31.851006 57.30004 
L 31.867916 58.958121 
L 31.962611 58.195414 
L 32.020104 57.762874 
L 32.358298 56.673991 
L 32.405646 56.59806 
L 32.409028 56.579368 
L 32.53416 56.359556 
L 32.544305 56.369386 
L 32.703257 55.50222 
L 32.726931 53.389852 
L 32.737076 43.881355 
L 32.828389 58.96847 
L 32.831771 58.963061 
L 32.845299 58.855541 
L 33.119236 57.072891 
L 33.399938 56.497979 
L 33.40332 56.499478 
L 33.42023 56.524253 
L 33.460813 56.404239 
L 33.619764 55.952249 
L 33.687403 54.745995 
L 33.704313 43.90137 
L 33.775334 56.950076 
L 33.795626 58.95939 
L 33.886938 58.202662 
L 34.100001 57.032075 
L 34.103383 57.043414 
L 34.187931 56.866292 
L 34.370556 56.423561 
L 34.37732 56.444563 
L 34.448341 56.272651 
L 34.451723 56.28111 
L 34.614057 54.566068 
L 34.627584 43.890847 
L 34.705369 58.454747 
L 34.718897 58.932128 
L 34.810209 58.201645 
L 35.358085 56.421912 
L 35.361467 56.426791 
L 35.391904 56.29509 
L 35.503508 55.008715 
L 35.517036 46.22611 
L 35.520418 43.899082 
L 35.608349 58.949859 
L 35.615113 59.021408 
L 35.686134 58.475149 
L 35.933016 57.07543 
L 35.93978 57.082232 
L 36.460599 55.73176 
L 36.494419 54.904014 
L 36.511328 43.858493 
L 36.582349 55.108863 
L 36.606023 58.999046 
L 36.697336 58.252218 
L 37.123461 56.743757 
L 37.492093 55.465459 
L 37.515767 53.061662 
L 37.525912 43.897265 
L 37.617225 58.953509 
L 37.620607 58.944149 
L 38.110989 56.678446 
L 38.114371 56.685642 
L 38.117753 56.707071 
L 38.205684 56.571539 
L 38.455948 55.411413 
L 38.476239 52.967583 
L 38.486385 43.90039 
L 38.58108 58.947044 
L 39.020733 56.775898 
L 39.027496 56.806445 
L 39.095135 56.696189 
L 39.409656 54.964937 
L 39.426566 43.889059 
L 39.497587 55.154875 
L 39.521261 58.964223 
L 39.612573 58.203526 
L 39.92033 56.817395 
L 39.923712 56.826161 
L 40.015025 56.721625 
L 40.160449 56.390937 
L 40.194268 56.463279 
L 40.244997 56.308805 
L 40.403949 54.716969 
L 40.417476 43.909477 
L 40.491879 57.067712 
L 40.512171 58.948602 
L 40.603483 58.203828 
L 40.857129 56.8895 
L 40.860511 56.894277 
L 40.863893 56.903672 
L 40.934914 56.780275 
L 40.985643 56.763739 
L 40.941678 56.765896 
L 41.002553 56.696697 
L 41.202088 56.251338 
L 41.31031 55.663582 
L 41.347512 54.439999 
L 41.361039 43.890645 
L 41.442206 58.762179 
L 41.452352 58.947086 
L 41.536901 58.235881 
L 42.243727 55.22738 
L 42.260637 49.529881 
L 42.267401 43.880797 
L 42.358714 58.990837 
L 42.365477 58.965667 
L 42.974228 56.472711 
L 42.980992 56.488818 
L 43.014811 56.479623 
L 43.041867 56.399118 
L 43.123033 56.158134 
L 43.231256 54.772296 
L 43.248165 43.901792 
L 43.319186 56.807418 
L 43.339478 58.959963 
L 43.430791 58.222751 
L 43.681055 57.004988 
L 43.95161 56.502182 
L 43.961756 56.512597 
L 43.995576 56.403503 
L 44.181583 54.137695 
L 44.191728 43.887608 
L 44.283041 58.972411 
L 44.286423 58.977624 
L 44.306715 58.84685 
L 44.540069 57.306146 
L 44.783569 56.735983 
L 44.786951 56.742791 
L 44.824152 56.581402 
L 44.827534 56.58296 
L 45.08118 55.765754 
L 45.128528 53.851761 
L 45.138673 43.879256 
L 45.233368 58.958797 
L 45.561417 56.980968 
L 45.564799 56.989515 
L 45.8455 56.443964 
L 45.855646 56.460681 
L 45.859028 56.465803 
L 45.886084 56.32218 
L 46.10591 54.606789 
L 46.119438 43.896512 
L 46.197223 58.421639 
L 46.21075 58.936506 
L 46.302063 58.183992 
L 46.532035 56.982167 
L 46.603056 56.884491 
L 46.812737 56.353295 
L 46.816119 56.354294 
L 46.849938 56.413006 
L 46.904049 56.271934 
L 46.917577 56.287334 
L 47.00889 55.792218 
L 47.049473 54.871042 
L 47.066383 43.880091 
L 47.137404 56.065557 
L 47.161077 58.950046 
L 47.25239 58.170938 
L 47.631168 56.701238 
L 47.648078 56.728663 
L 47.712335 56.60856 
L 47.965981 55.4462 
L 47.986272 53.755487 
L 47.996418 43.872832 
L 48.087731 58.985078 
L 48.091113 58.967532 
L 48.165515 58.355751 
L 48.463127 56.909318 
L 48.662661 56.544844 
L 48.710009 56.448732 
L 48.929835 54.557352 
L 48.943363 43.875467 
L 49.021148 58.390193 
L 49.034676 58.979908 
L 49.12937 58.232615 
L 49.315377 57.156718 
L 49.318759 57.166838 
L 49.687391 56.321883 
L 49.690773 56.337146 
L 49.758412 56.237118 
L 49.886926 54.523916 
L 49.900454 43.874182 
L 49.978239 58.438958 
L 49.995148 58.955241 
L 50.086461 58.226068 
L 50.299523 57.086201 
L 50.302905 57.109432 
L 50.384072 56.922231 
L 50.543024 56.532267 
L 50.576843 56.593107 
L 50.580225 56.599579 
L 50.630954 56.461311 
L 50.651246 56.503708 
L 50.908274 55.272963 
L 50.925184 51.457079 
L 50.931947 43.869331 
L 51.026642 58.948844 
L 51.030024 58.92959 
L 51.378364 56.90921 
L 51.381746 56.912196 
L 51.588045 56.395805 
L 51.611719 56.416727 
L 51.615101 56.42326 
L 51.645538 56.308333 
L 51.679358 56.312277 
L 51.75376 56.212883 
L 51.885656 55.123689 
L 51.899184 52.005053 
L 51.905948 43.90093 
L 51.997261 58.928039 
L 52.004024 58.893115 
L 52.081809 58.225242 
L 52.348983 56.841986 
L 52.355747 56.843314 
L 52.386184 56.732351 
L 52.572191 56.435835 
L 52.575573 56.440801 
L 52.609393 56.321157 
L 52.825837 54.168386 
L 52.839365 43.935267 
L 52.927296 58.930376 
L 52.930678 58.936125 
L 52.950969 58.785101 
L 53.268872 56.909302 
L 53.272254 56.916148 
L 53.275636 56.930755 
L 53.336511 56.70547 
L 53.339893 56.721323 
L 53.617213 56.196744 
L 53.718671 55.411315 
L 53.738963 53.500137 
L 53.749109 43.879113 
L 53.840421 58.994864 
L 53.843803 58.990178 
L 53.938498 58.206862 
L 54.178616 56.995608 
L 54.181998 56.997966 
L 54.67238 55.918623 
L 54.726491 54.986879 
L 54.743401 43.881426 
L 54.814422 54.70571 
L 54.838095 58.969017 
L 54.929408 58.226307 
L 55.17629 56.939865 
L 55.186436 56.953082 
L 55.264221 56.755026 
L 55.40288 56.595431 
L 55.500957 56.321683 
L 55.649762 55.364324 
L 55.670054 51.441424 
L 55.676818 43.881919 
L 55.771513 58.988941 
L 55.774895 58.958455 
L 55.90679 57.9144 
L 56.133381 56.929146 
L 56.136763 56.951024 
L 56.197638 56.804681 
L 56.228075 56.827095 
L 56.559506 55.697948 
L 56.593326 54.861504 
L 56.610235 43.882037 
L 56.681256 55.92278 
L 56.701548 58.983396 
L 56.796242 58.213374 
L 57.560562 55.084534 
L 57.57409 50.757039 
L 57.580854 43.885161 
L 57.672166 58.935414 
L 57.67893 58.909105 
L 58.209896 56.686449 
L 58.213278 56.703618 
L 58.280917 56.491745 
L 58.541327 54.79512 
L 58.558236 43.900497 
L 58.629257 56.938167 
L 58.646167 58.936439 
L 58.740861 58.187653 
L 59.163605 56.574956 
L 59.166987 56.57753 
L 59.170369 56.581542 
L 59.221098 56.473053 
L 59.22448 56.473771 
L 59.268445 56.41457 
L 59.231244 56.456102 
L 59.275209 56.375641 
L 59.393577 55.902701 
L 59.447688 54.992541 
L 59.461216 46.373291 
L 59.464598 43.92488 
L 59.552529 58.94534 
L 59.562674 58.973253 
L 59.610022 58.568954 
L 59.975272 56.868823 
L 59.978654 56.896342 
L 60.063202 56.725638 
L 60.222154 56.340972 
L 60.347286 55.880252 
L 60.401397 54.419361 
L 60.414925 43.887435 
L 60.496092 58.77387 
L 60.509619 58.977901 
L 60.594168 58.288614 
L 60.868106 56.996935 
L 60.87487 56.999598 
L 60.949272 56.822068 
L 61.229974 56.314404 
L 61.236738 56.328046 
L 61.341578 55.930972 
L 61.402453 54.16923 
L 61.412599 43.904727 
L 61.503912 58.953996 
L 61.510675 58.965723 
L 61.537731 58.728164 
L 61.882689 56.895694 
L 61.889453 56.903241 
L 61.950328 56.801581 
L 61.963856 56.813144 
L 62.339252 55.481127 
L 62.362926 53.385662 
L 62.373072 43.884327 
L 62.464384 58.969425 
L 62.467766 58.955246 
L 62.880364 56.780549 
L 62.893891 56.78961 
L 62.897273 56.799928 
L 62.968294 56.675839 
L 63.110336 56.350643 
L 63.113718 56.366066 
L 63.154301 56.265542 
L 63.289579 55.33378 
L 63.306489 53.707701 
L 63.316635 43.874039 
L 63.411329 58.974182 
L 63.803635 56.845968 
L 63.908475 56.702852 
L 64.053899 56.32286 
L 64.057281 56.34401 
L 64.226378 55.340446 
L 64.243288 53.720045 
L 64.253434 43.886131 
L 64.348128 58.956195 
L 64.679559 56.960771 
L 64.689705 56.967918 
L 64.743816 56.887599 
L 64.709997 56.89431 
L 64.747198 56.869876 
L 65.156414 55.613762 
L 65.186851 54.441031 
L 65.200379 43.903857 
L 65.281546 58.777749 
L 65.288309 58.927866 
L 65.372858 58.258437 
L 65.927497 56.361403 
L 65.930879 56.375208 
L 65.998518 56.199882 
L 66.008664 56.221092 
L 66.133796 54.948333 
L 66.150706 43.87556 
L 66.221727 55.447594 
L 66.242018 58.969187 
L 66.336713 58.204109 
L 66.634324 56.874519 
L 66.637706 56.876092 
L 66.641088 56.892377 
L 66.701963 56.688035 
L 66.823713 56.52721 
L 66.827095 56.530455 
L 66.958991 56.245872 
L 67.101033 54.257688 
L 67.11456 43.911266 
L 67.199109 58.917898 
L 67.205873 58.95455 
L 67.263366 58.474782 
L 67.503484 57.085672 
L 67.65229 56.772662 
L 67.659054 56.785678 
L 67.665818 56.797124 
L 67.733457 56.695054 
L 68.044596 55.433215 
L 68.064887 53.829562 
L 68.075033 43.875249 
L 68.169728 58.954775 
L 68.52145 56.940372 
L 68.802152 56.387393 
L 68.812297 56.39582 
L 68.819061 56.412268 
L 68.893464 56.288713 
L 69.018596 55.661921 
L 69.052416 54.148093 
L 69.062561 43.899088 
L 69.153874 58.949489 
L 69.157256 58.954172 
L 69.177548 58.808247 
L 69.461631 57.036147 
L 69.465013 57.03716 
L 69.945249 55.226725 
L 69.958777 53.435173 
L 69.968923 43.89537 
L 70.060236 58.967727 
L 70.063618 58.950828 
L 70.631785 56.626349 
L 70.648694 56.654945 
L 70.706187 56.493111 
L 70.712951 56.49289 
L 70.909104 55.584977 
L 70.93616 53.97251 
L 70.946306 43.863837 
L 71.037618 58.97242 
L 71.041 58.977865 
L 71.061292 58.816788 
L 71.470507 56.774351 
L 71.473889 56.781117 
L 71.480653 56.808903 
L 71.558438 56.600854 
L 71.56182 56.605016 
L 71.78841 56.092861 
L 71.903396 54.483453 
L 71.916924 43.882488 
L 71.998091 58.741829 
L 72.008237 58.942627 
L 72.096167 58.216208 
L 72.332904 56.984782 
L 72.789466 55.869612 
L 72.843577 53.987038 
L 72.853723 43.864329 
L 72.945036 58.99122 
L 72.948418 58.993313 
L 72.961946 58.900927 
L 73.286612 56.972285 
L 73.289994 56.979158 
L 73.293376 56.990679 
L 73.357633 56.838257 
L 73.513203 56.503181 
L 73.530113 56.526468 
L 73.533494 56.545072 
L 73.607897 56.395255 
L 73.614661 56.406101 
L 73.844634 54.723378 
L 73.861543 43.906148 
L 73.932564 57.076637 
L 73.952856 58.951747 
L 74.044168 58.193113 
L 74.277523 57.009993 
L 74.280905 57.014146 
L 74.311342 56.890517 
L 74.314724 56.90154 
L 74.483821 56.557096 
L 74.493967 56.563972 
L 74.554842 56.46519 
L 74.791578 54.571486 
L 74.805106 43.881032 
L 74.882891 58.418398 
L 74.896419 58.95424 
L 74.991113 58.173669 
L 75.312398 56.761507 
L 75.657357 56.048074 
L 75.721614 55.349688 
L 75.738523 53.156828 
L 75.748669 43.881789 
L 75.839982 59.006283 
L 75.843364 58.99296 
L 76.455496 56.508672 
L 76.465642 56.515902 
L 76.502843 56.394017 
L 76.614448 56.012066 
L 76.702378 54.947405 
L 76.715906 45.600889 
L 76.719288 43.891492 
L 76.800455 58.665094 
L 76.8106 58.946888 
L 76.901913 58.221068 
L 77.300983 56.693598 
L 77.564774 55.931368 
L 77.615504 55.256911 
L 77.632413 51.325583 
L 77.639177 43.879141 
L 77.733872 58.98462 
L 77.737254 58.98337 
L 78.034865 57.106267 
L 78.038247 57.107143 
L 78.291893 56.575932 
L 78.298657 56.580081 
L 78.312185 56.610339 
L 78.379823 56.418589 
L 78.383205 56.424909 
L 78.58274 55.221997 
L 78.596268 53.354831 
L 78.606414 43.882161 
L 78.697726 58.973384 
L 78.701108 58.954865 
L 78.839768 57.844144 
L 79.032539 56.979811 
L 79.401171 56.253605 
L 79.533067 55.101655 
L 79.546595 50.560913 
L 79.553359 43.878582 
L 79.644671 58.977726 
L 79.651435 58.936598 
L 79.664963 58.824512 
L 80.030213 56.854913 
L 80.135054 56.719164 
L 80.486776 55.496811 
L 80.51045 54.052625 
L 80.520595 43.912003 
L 80.611908 58.955474 
L 80.730276 57.991115 
L 80.902755 57.087984 
L 81.01436 56.801477 
L 81.190221 56.506676 
L 81.203749 56.532286 
L 81.210513 56.548528 
L 81.261242 56.42083 
L 81.413429 55.663464 
L 81.443867 54.3451 
L 81.457395 43.886801 
L 81.541943 58.910442 
L 81.552089 58.982235 
L 81.619728 58.419867 
L 81.863228 56.987709 
L 82.066145 56.671642 
L 82.37052 55.090095 
L 82.384048 49.911204 
L 82.390812 43.886924 
L 82.482124 58.969604 
L 82.488888 58.947557 
L 82.789881 57.071835 
L 82.816937 57.070739 
L 82.840611 56.976951 
L 82.843993 56.97746 
L 83.263354 55.977499 
L 83.324229 54.754312 
L 83.341139 43.907989 
L 83.41216 56.479636 
L 83.432451 58.997133 
L 83.527146 58.245691 
L 83.706389 57.180001 
L 83.709771 57.197518 
L 83.713153 57.20244 
L 83.753736 57.068072 
L 83.77741 57.054961 
L 83.784174 57.001647 
L 83.801083 56.976873 
L 84.027674 56.550415 
L 84.031056 56.569851 
L 84.10884 56.386828 
L 84.230591 56.005517 
L 84.308375 54.99232 
L 84.321903 46.744526 
L 84.328667 43.910535 
L 84.416598 58.933872 
L 84.41998 58.949038 
L 84.460563 58.621513 
L 85.052404 56.394568 
L 85.251938 55.595275 
L 85.282376 53.395691 
L 85.292522 43.883169 
L 85.383834 58.934069 
L 85.387216 58.921618 
L 85.424418 58.622829 
L 85.708501 57.005512 
L 85.904654 56.653424 
L 86.151536 56.215616 
L 86.28005 55.112193 
L 86.293578 50.254549 
L 86.300342 43.853215 
L 86.395036 58.96171 
L 86.398418 58.94037 
L 86.790724 56.838564 
L 86.80087 56.846414 
L 86.838071 56.729245 
L 87.088335 56.143185 
L 87.091717 56.152918 
L 87.095099 56.154174 
L 87.108627 56.044764 
L 87.112009 56.043717 
L 87.203321 54.640362 
L 87.216849 43.88691 
L 87.294634 58.33399 
L 87.311544 58.958969 
L 87.402856 58.199156 
L 87.91353 56.506901 
L 88.058954 56.134117 
L 88.062336 56.137007 
L 88.177322 54.707187 
L 88.194232 43.931437 
L 88.265252 57.468745 
L 88.282162 58.91891 
L 88.376857 58.150867 
L 88.640649 56.873966 
L 88.64403 56.883519 
L 88.809746 56.637175 
L 88.819892 56.65701 
L 88.887531 56.478937 
L 89.070156 55.055473 
L 89.083683 48.205838 
L 89.090447 43.899466 
L 89.185142 58.983348 
L 89.58083 56.824596 
L 89.587593 56.833714 
L 89.624795 56.874049 
L 89.655232 56.752878 
L 90.037392 55.268919 
L 90.054302 52.31146 
L 90.061066 43.914109 
L 90.152378 58.971368 
L 90.159142 58.931058 
L 90.544684 56.809508 
L 90.997865 55.242594 
L 91.014775 51.734593 
L 91.021539 43.891787 
L 91.068886 50.744542 
" clip-path="url(#p1b83fcaf55)" style="fill: none; stroke: #000000; stroke-width: 0.6; stroke-linecap: square"/>
   </g>
   <g id="line2d_4">
    <path d="M 95.127221 15.313171 
L 95.127221 8.552195 
" clip-path="url(#p1b83fcaf55)" style="fill: none; stroke: #000000; stroke-width: 1.5; stroke-linecap: square"/>
   </g>
  </g>
 </g>
 <defs>
  <clipPath id="p1b83fcaf55">
   <rect x="7.2" y="7.2" width="89.28" height="55.44"/>
  </clipPath>
 </defs>
</svg>
