<?xml version="1.0" encoding="utf-8" standalone="no"?>
<!DOCTYPE svg PUBLIC "-//W3C//DTD SVG 1.1//EN"
  "http://www.w3.org/Graphics/SVG/1.1/DTD/svg11.dtd">
<svg xmlns:xlink="http://www.w3.org/1999/xlink" width="103.68pt" height="69.84pt" viewBox="0 0 103.68 69.84" xmlns="http://www.w3.org/2000/svg" version="1.1">
 <metadata>
  <rdf:RDF xmlns:dc="http://purl.org/dc/elements/1.1/" xmlns:cc="http://creativecommons.org/ns#" xmlns:rdf="http://www.w3.org/1999/02/22-rdf-syntax-ns#">
   <cc:Work>
    <dc:type rdf:resource="http://purl.org/dc/dcmitype/StillImage"/>
    <dc:date>2022-05-10T10:56:12.876709</dc:date>
    <dc:format>image/svg+xml</dc:format>
    <dc:creator>
     <cc:Agent>
      <dc:title>Matplotlib v3.5.1, https://matplotlib.org/</dc:title>
     </cc:Agent>
    </dc:creator>
   </cc:Work>
  </rdf:RDF>
 </metadata>
 <defs>
  <style type="text/css">*{stroke-linejoin: round; stroke-linecap: butt}</style>
 </defs>
 <g id="figure_1">
  <g id="patch_1">
   <path d="M 0 69.84 
L 103.68 69.84 
L 103.68 0 
L 0 0 
z
" style="fill: #ffffff"/>
  </g>
  <g id="axes_1">
   <g id="patch_2">
    <path d="M 7.2 62.64 
L 96.48 62.64 
L 96.48 7.2 
L 7.2 7.2 
z
" style="fill: #ffffff"/>
   </g>
   <g id="matplotlib.axis_1"/>
   <g id="matplotlib.axis_2"/>
   <g id="line2d_1">
    <path d="M 9.905557 24.740274 
L 10.007015 24.672167 
L 9.96305 24.766466 
L 10.020543 24.705154 
L 10.044217 24.657362 
L 10.078036 24.762482 
L 10.111856 24.759495 
L 10.176113 24.81546 
L 10.220078 24.757259 
L 10.270807 24.685303 
L 10.331682 24.743002 
L 10.700314 24.689621 
L 10.703696 24.703798 
L 10.767953 24.814473 
L 10.825446 24.779402 
L 10.933669 24.717914 
L 10.943815 24.673941 
L 10.991162 24.782744 
L 11.045273 24.712487 
L 11.143349 24.703025 
L 11.116294 24.777414 
L 11.153495 24.723343 
L 11.265099 24.76117 
L 11.23128 24.692795 
L 11.268481 24.759249 
L 11.295537 24.708426 
L 11.380086 24.747293 
L 11.437579 24.825557 
L 11.505218 24.771104 
L 11.610058 24.731941 
L 11.552565 24.795952 
L 11.616822 24.74402 
L 11.73519 24.810774 
L 11.738572 24.804612 
L 11.863704 24.749425 
L 11.877232 24.769317 
L 12.695663 24.762368 
L 12.70919 24.806492 
L 12.722718 24.741983 
L 12.807267 24.760458 
L 12.918871 24.68815 
L 12.814031 24.762397 
L 12.929017 24.698344 
L 12.939163 24.673079 
L 13.00342 24.779093 
L 13.115024 24.813822 
L 13.060913 24.750662 
L 13.128552 24.796782 
L 13.24692 24.696371 
L 13.355142 24.789819 
L 13.372052 24.780168 
L 13.50733 24.691475 
L 13.537767 24.777071 
L 13.554677 24.816017 
L 13.605406 24.710711 
L 13.639226 24.741697 
L 13.777886 24.632156 
L 13.784649 24.642125 
L 13.953747 24.771221 
L 13.963893 24.73774 
L 14.004476 24.686203 
L 14.075497 24.719178 
L 14.176955 24.791271 
L 14.190483 24.756753 
L 14.288559 24.717064 
L 14.291941 24.703454 
L 14.308851 24.678593 
L 14.373108 24.767042 
L 14.400164 24.715513 
L 15.15772 24.594097 
L 15.22874 24.535731 
L 15.269324 24.587801 
L 15.374164 24.608088 
L 15.326817 24.547191 
L 15.38431 24.598261 
L 15.458713 24.520485 
L 15.40122 24.612144 
L 15.499296 24.596202 
L 15.519588 24.636459 
L 15.570317 24.52042 
L 15.604137 24.566998 
L 15.793526 24.442554 
L 15.621046 24.602222 
L 15.803671 24.503462 
L 15.834109 24.556079 
L 15.911894 24.473541 
L 16.00997 24.435329 
L 15.945713 24.506838 
L 16.020116 24.483473 
L 16.023498 24.492972 
L 16.097901 24.390675 
L 16.101283 24.395777 
L 16.135102 24.313938 
L 16.168922 24.413175 
L 16.212887 24.398727 
L 16.263616 24.455145 
L 16.307581 24.356245 
L 16.317727 24.370561 
L 16.381984 24.286951 
L 16.429331 24.381978 
L 16.551081 24.393597 
L 16.564609 24.37799 
L 16.584901 24.399857 
L 16.750616 24.230594 
L 16.777672 24.296706 
L 16.838547 24.172724 
L 16.848693 24.177277 
L 16.933241 24.043263 
L 16.980589 24.097817 
L 17.068519 24.098918 
L 17.011026 24.061698 
L 17.092193 24.079114 
L 17.115867 24.035829 
L 17.159832 24.128693 
L 17.200415 24.103241 
L 17.301874 24.131094 
L 17.308637 24.148755 
L 17.359367 24.288524 
L 17.427006 24.218745 
L 17.433769 24.245297 
L 17.50479 24.126513 
L 17.528464 24.165304 
L 17.64345 24.146643 
L 17.541992 24.132682 
L 17.646832 24.127271 
L 17.650214 24.079491 
L 17.714471 24.177873 
L 17.755054 24.160907 
L 17.829457 24.120127 
L 17.839603 24.090102 
L 17.964735 23.957351 
L 17.971499 23.974776 
L 18.018846 24.041304 
L 18.069575 23.93276 
L 18.076339 23.941824 
L 18.18118 23.948076 
L 18.113541 23.8874 
L 18.201471 23.931584 
L 18.323221 23.798996 
L 18.333367 23.817633 
L 18.492319 23.824861 
L 18.495701 23.804246 
L 18.607305 23.650388 
L 18.630978 23.665274 
L 18.729055 23.69119 
L 18.654652 23.616484 
L 18.742583 23.661067 
L 20.156236 23.041918 
L 20.247549 23.136844 
L 20.277986 23.106477 
L 20.305042 23.09186 
L 20.359153 23.183706 
L 20.376063 23.145642 
L 20.467375 23.158373 
L 20.430174 23.122076 
L 20.484285 23.127065 
L 20.633091 23.158356 
L 20.65 23.139338 
L 20.751459 23.129563 
L 20.680438 23.182236 
L 20.761605 23.136852 
L 21.035542 22.813931 
L 21.079508 22.854295 
L 21.113327 22.933128 
L 21.201258 22.876632 
L 21.306098 22.850946 
L 21.262133 22.917674 
L 21.312862 22.868365 
L 21.407556 22.902845 
L 21.366973 22.824248 
L 21.421084 22.849377 
L 21.505633 22.733227 
L 21.542834 22.8241 
L 21.556362 22.849126 
L 21.894557 22.646828 
L 22.009543 22.734078 
L 21.945286 22.619112 
L 22.019689 22.726792 
L 22.134675 22.670658 
L 22.144821 22.696838 
L 22.303772 22.819921 
L 22.496543 22.557566 
L 22.506689 22.577066 
L 22.858411 22.367751 
L 22.871939 22.392391 
L 22.898995 22.315541 
L 22.980161 22.375034 
L 23.068092 22.347021 
L 23.08162 22.427245 
L 23.088384 22.450225 
L 23.162786 22.336448 
L 23.179696 22.378928 
L 23.304828 22.249926 
L 23.189842 22.382365 
L 23.314974 22.283053 
L 23.331884 22.300403 
L 23.372467 22.181664 
L 23.396141 22.201992 
L 23.460398 22.096429 
L 23.619349 21.971399 
L 23.490835 22.165198 
L 23.656551 22.011996 
L 23.727571 21.954132 
L 23.69037 21.941381 
L 23.730953 21.938938 
L 23.862849 21.691232 
L 23.869613 21.705143 
L 23.937252 21.615568 
L 23.954162 21.631929 
L 24.143551 21.40401 
L 24.305884 20.701732 
L 24.343086 19.466839 
L 24.356614 8.582291 
L 24.451308 19.581081 
L 24.468218 22.45979 
L 24.562912 20.974856 
L 24.610259 18.035613 
L 24.620405 9.570562 
L 24.718482 22.680248 
L 24.725246 22.785621 
L 24.789503 21.66349 
L 24.863905 19.182594 
L 24.874051 9.666206 
L 24.968746 21.010708 
L 24.982274 22.98669 
L 25.076968 21.264794 
L 25.131079 18.971765 
L 25.141225 9.565157 
L 25.23592 20.524597 
L 25.252829 23.204411 
L 25.347524 21.550771 
L 25.415163 18.72662 
L 25.425309 9.435808 
L 25.523385 21.899968 
L 25.540295 23.444366 
L 25.631607 21.994332 
L 25.72292 18.84348 
L 25.733066 9.302368 
L 25.831142 20.766329 
L 25.848052 23.650103 
L 25.942746 22.376689 
L 26.061114 18.78162 
L 26.07126 9.20362 
L 26.169337 20.677075 
L 26.189628 23.814205 
L 26.280941 22.722591 
L 26.43651 18.349571 
L 26.446656 9.140697 
L 26.544733 22.170205 
L 26.565024 23.944736 
L 26.656337 22.934171 
L 26.85249 19.644737 
L 26.866018 9.075497 
L 26.95733 18.623526 
L 26.981004 24.000099 
L 27.072316 23.123867 
L 27.332726 19.428311 
L 27.346254 9.073679 
L 27.434185 20.353897 
L 27.457858 23.975599 
L 27.549171 23.104354 
L 27.87722 19.936195 
L 27.890747 16.152951 
L 27.897511 9.093114 
L 27.995588 23.799245 
L 28.002352 23.872397 
L 28.073372 23.228096 
L 28.387893 20.625 
L 28.394657 20.627407 
L 28.492734 19.570386 
L 28.509644 9.146976 
L 28.584046 19.541086 
L 28.604338 23.729083 
L 28.699033 22.845028 
L 29.135304 19.382518 
L 29.152213 9.2057 
L 29.226616 21.980455 
L 29.246908 23.673142 
L 29.33822 22.770469 
L 29.662887 20.537992 
L 29.666269 20.555234 
L 29.727144 20.339119 
L 29.777873 18.704898 
L 29.788019 9.165932 
L 29.879332 23.66414 
L 29.886096 23.709382 
L 29.943589 23.167626 
L 30.237818 20.923234 
L 30.2412 20.929911 
L 30.247964 20.956191 
L 30.302075 20.737754 
L 30.325749 20.760705 
L 30.393388 20.714505 
L 30.437353 20.774629 
L 30.471172 20.758685 
L 30.697763 21.304598 
L 30.701145 21.291639 
L 30.775548 21.4449 
L 31.002138 21.946377 
L 31.008902 21.933313 
L 31.076541 22.067796 
L 31.079923 22.063156 
L 31.137416 22.163039 
L 31.140798 22.157676 
L 31.316659 22.669383 
L 31.478992 23.03128 
L 31.661617 23.617833 
L 31.668381 23.599973 
L 32.503722 25.665962 
L 32.595035 25.692176 
L 32.520632 25.691929 
L 32.60518 25.724235 
L 32.723549 25.814513 
L 32.740458 25.781301 
L 32.875736 25.635894 
L 32.8825 25.649425 
L 33.007632 25.744194 
L 32.892646 25.625349 
L 33.031306 25.705097 
L 33.153056 25.656914 
L 33.284952 25.819405 
L 33.180111 25.641867 
L 33.295098 25.807607 
L 33.389792 25.674271 
L 33.430375 25.708866 
L 33.457431 25.742783 
L 33.518306 25.609999 
L 33.528452 25.623843 
L 33.599473 25.523263 
L 33.650202 25.625402 
L 33.92414 25.336887 
L 33.937667 25.353943 
L 33.998542 25.331419 
L 34.056035 25.410202 
L 34.16764 25.463 
L 34.231897 25.496589 
L 34.181167 25.448364 
L 34.265716 25.429282 
L 34.316445 25.310175 
L 34.387466 25.37531 
L 34.390848 25.389954 
L 34.472015 25.314039 
L 34.488925 25.348107 
L 34.583619 25.286784 
L 34.603911 25.332945 
L 34.816973 25.141912 
L 34.823737 25.155485 
L 35.063855 24.936001 
L 35.145022 24.984614 
L 35.17546 24.932609 
L 35.41896 24.724502 
L 35.422342 24.73393 
L 35.544092 24.785616 
L 35.550856 24.792487 
L 35.740245 24.731451 
L 35.743627 24.750761 
L 35.818029 24.598337 
L 35.834939 24.629575 
L 35.943161 24.648509 
L 35.946543 24.613064 
L 35.953307 24.581947 
L 35.980363 24.682756 
L 36.054766 24.643028 
L 36.146078 24.635863 
L 36.071675 24.62825 
L 36.16637 24.612931 
L 36.240773 24.467111 
L 36.294884 24.567847 
L 36.321939 24.641776 
L 36.386196 24.540927 
L 36.399724 24.547335 
L 36.491037 24.473555 
L 36.518092 24.485854 
L 36.524856 24.510329 
L 36.606023 24.43043 
L 36.626315 24.462355 
L 36.639842 24.444293 
L 36.704099 24.527685 
L 36.714245 24.512505 
L 36.798794 24.568572 
L 36.825849 24.512472 
L 36.890106 24.420358 
L 36.9476 24.473608 
L 37.082877 24.58436 
L 36.984801 24.458955 
L 37.086259 24.571445 
L 37.187718 24.558375 
L 37.14037 24.641463 
L 37.197864 24.571896 
L 37.238447 24.603632 
L 37.272266 24.504176 
L 37.309468 24.571598 
L 37.549586 24.756007 
L 37.552968 24.774239 
L 37.647662 24.718621 
L 37.654426 24.718339 
L 37.664572 24.679589 
L 37.705155 24.797304 
L 37.762649 24.735189 
L 37.813378 24.786907 
L 37.850579 24.72169 
L 37.874253 24.751458 
L 37.992621 24.738379 
L 38.006149 24.770703 
L 38.009531 24.794473 
L 38.104225 24.72159 
L 38.110989 24.728615 
L 38.357871 24.749098 
L 38.439038 24.816982 
L 38.469475 24.758566 
L 38.611517 24.801923 
L 38.712975 24.710114 
L 38.729885 24.731347 
L 38.827962 24.788982 
L 38.767087 24.708553 
L 38.848253 24.764882 
L 38.91251 24.743353 
L 38.892219 24.80767 
L 38.953094 24.791297 
L 39.05117 24.785714 
L 38.970003 24.749269 
L 39.057934 24.760251 
L 39.308198 24.78107 
L 39.355545 24.80135 
L 39.379219 24.739761 
L 39.419802 24.773543 
L 39.426566 24.748494 
L 39.484059 24.829932 
L 39.524643 24.813258 
L 39.619337 24.739051 
L 39.646393 24.800523 
L 39.818872 24.711672 
L 39.8324 24.7365 
L 39.947386 24.784029 
L 39.889893 24.69732 
L 39.95415 24.77327 
L 40.008261 24.732419 
L 40.069136 24.758312 
L 40.16383 24.811939 
L 40.089428 24.734069 
L 40.177358 24.752156 
L 40.211178 24.706338 
L 40.272053 24.820022 
L 40.275435 24.809784 
L 40.288962 24.819122 
L 40.316018 24.75722 
L 40.373511 24.76923 
L 40.471588 24.722551 
L 40.434386 24.791598 
L 40.485115 24.741622 
L 40.573046 24.825176 
L 40.603483 24.766441 
L 40.70156 24.71746 
L 40.617011 24.793403 
L 40.71847 24.766877 
L 40.762435 24.799851 
L 40.725234 24.761377 
L 40.830074 24.760853 
L 40.846984 24.716693 
L 40.911241 24.805309 
L 40.941678 24.760288 
L 41.012699 24.781229 
L 40.972116 24.743366 
L 41.0499 24.752622 
L 41.127685 24.789275 
L 41.175032 24.726505 
L 41.215616 24.770843 
L 41.286637 24.72609 
L 41.445588 24.696774 
L 41.44897 24.714752 
L 41.533519 24.798259 
L 41.580866 24.783824 
L 41.702616 24.714605 
L 41.70938 24.727593 
L 41.804074 24.835107 
L 41.834512 24.775842 
L 41.966408 24.690526 
L 41.96979 24.694848 
L 42.07463 24.835627 
L 41.979936 24.674527 
L 42.118595 24.72409 
L 42.169325 24.811329 
L 42.2302 24.727655 
L 42.280929 24.767939 
L 42.331658 24.710532 
L 42.338422 24.712058 
L 42.399297 24.744848 
L 42.45679 24.657984 
L 42.524429 24.788834 
L 42.57854 24.749074 
L 42.585304 24.757804 
L 42.619123 24.665216 
L 42.659707 24.676704 
L 42.730728 24.646557 
L 42.771311 24.696379 
L 42.909971 24.807527 
L 42.916735 24.780239 
L 42.9607 24.807464 
L 43.014811 24.721317 
L 43.190672 24.600781 
L 43.038485 24.761132 
L 43.207582 24.618592 
L 43.302277 24.699377 
L 43.231256 24.612775 
L 43.32595 24.649215 
L 43.474756 24.550854 
L 43.349624 24.678297 
L 43.518721 24.618274 
L 43.562686 24.701161 
L 43.623561 24.610548 
L 43.657381 24.579393 
L 43.694582 24.689546 
L 43.728402 24.642187 
L 43.84677 24.602399 
L 43.853534 24.580238 
L 43.927937 24.501569 
L 43.965138 24.55027 
L 44.012485 24.483994 
L 44.110562 24.585833 
L 44.225548 24.56512 
L 44.134235 24.612208 
L 44.22893 24.579288 
L 44.276277 24.519793 
L 44.327006 24.623681 
L 44.441992 24.689695 
L 44.33377 24.610361 
L 44.462284 24.657531 
L 44.502868 24.591742 
L 44.533305 24.694863 
L 44.567125 24.677044 
L 44.685493 24.69191 
L 44.817389 24.557745 
L 44.82077 24.581528 
L 44.945902 24.661873 
L 44.864736 24.556583 
L 44.949284 24.643553 
L 45.030451 24.646997 
L 44.969576 24.608647 
L 45.060889 24.609601 
L 45.162347 24.567984 
L 45.13191 24.632139 
L 45.182639 24.583356 
L 45.317917 24.578998 
L 45.196167 24.542298 
L 45.331444 24.543066 
L 45.46334 24.382546 
L 45.470104 24.430247 
L 45.473486 24.45319 
L 45.544507 24.382571 
L 45.571563 24.388332 
L 45.669639 24.40962 
L 45.625674 24.456994 
L 45.676403 24.422384 
L 45.831972 24.391382 
L 45.835354 24.378463 
L 46.00107 24.258681 
L 45.869174 24.400517 
L 46.007834 24.275063 
L 46.082236 24.357122 
L 46.112674 24.245266 
L 46.116056 24.256084 
L 46.214132 24.158803 
L 46.217514 24.151936 
L 46.26148 24.296762 
L 46.268243 24.290361 
L 46.302063 24.33126 
L 46.359556 24.22741 
L 46.501598 24.12819 
L 46.613202 24.222512 
L 46.616584 24.200066 
L 46.74848 24.078382 
L 46.846556 24.101825 
L 46.76539 24.1163 
L 46.856702 24.130668 
L 46.907431 24.089347 
L 46.971688 24.141728 
L 47.174605 24.047602 
L 47.326793 23.852417 
L 47.465452 23.977603 
L 47.566911 23.923061 
L 47.577057 23.957339 
L 47.658223 24.006403 
L 47.583821 23.955275 
L 47.688661 23.958239 
L 47.790119 23.90591 
L 47.803647 23.915362 
L 47.871286 23.934944 
L 47.840849 23.864027 
L 47.911869 23.904285 
L 48.432689 23.687559 
L 48.682953 23.391259 
L 48.459745 23.702912 
L 48.703245 23.425212 
L 48.777648 23.350021 
L 48.784412 23.318481 
L 48.838523 23.379359 
L 48.88587 23.362767 
L 49.021148 23.302313 
L 49.044821 23.391094 
L 49.122606 23.263511 
L 49.125988 23.254469 
L 49.173335 23.35011 
L 49.213919 23.321793 
L 49.23421 23.350064 
L 49.271412 23.253004 
L 49.301849 23.250789 
L 49.410072 23.175939 
L 49.430363 23.190985 
L 49.525058 23.226524 
L 49.477711 23.124922 
L 49.538586 23.178597 
L 49.690773 23.232365 
L 49.822669 23.158741 
L 49.826051 23.165591 
L 49.873398 23.106966 
L 49.917364 23.101669 
L 50.103371 23.021301 
L 50.181155 23.059378 
L 50.231885 22.949679 
L 50.343489 22.916042 
L 50.350253 22.884709 
L 50.461857 22.824406 
L 50.367162 22.906138 
L 50.472003 22.865732 
L 50.475385 22.902671 
L 50.559933 22.796681 
L 50.580225 22.840397 
L 50.739176 22.761983 
L 50.874454 22.736948 
L 50.877836 22.751588 
L 50.969149 22.78888 
L 51.00635 22.738244 
L 51.070607 22.694063 
L 51.016496 22.712893 
L 51.080753 22.655205 
L 51.097663 22.699932 
L 51.185593 22.680036 
L 51.320871 22.776358 
L 51.358073 22.734223 
L 51.486587 22.651882 
L 51.398656 22.769957 
L 51.496732 22.673604 
L 51.574517 22.76507 
L 51.615101 22.657608 
L 51.642156 22.689068 
L 51.743615 22.606329 
L 51.814635 22.546769 
L 51.861983 22.634358 
L 52.335455 22.221218 
L 51.87551 22.650933 
L 52.369275 22.261719 
L 52.447059 22.287858 
L 52.403094 22.233683 
L 52.480879 22.260383 
L 52.589101 22.150005 
L 52.507934 22.272459 
L 52.606011 22.157407 
L 52.612775 22.161695 
L 52.646594 22.061126 
L 52.660122 22.057473 
L 52.866421 22.005312 
L 52.998317 21.845733 
L 53.069337 21.757841 
L 53.207997 21.506827 
L 53.43797 20.167244 
L 53.451497 18.448321 
L 53.461643 8.582917 
L 53.55972 21.432639 
L 53.573247 22.493518 
L 53.667942 20.997563 
L 53.715289 19.217271 
L 53.725435 9.536131 
L 53.82013 21.733261 
L 53.833657 22.808209 
L 53.92497 21.140561 
L 53.975699 19.021612 
L 53.985845 9.626266 
L 54.080539 21.360444 
L 54.094067 23.002814 
L 54.188762 21.294053 
L 54.246255 18.655033 
L 54.256401 9.558621 
L 54.351095 21.165801 
L 54.368005 23.229373 
L 54.462699 21.585542 
L 54.53372 17.937744 
L 54.543866 9.451846 
L 54.641942 22.485389 
L 54.65547 23.451809 
L 54.750165 22.01259 
L 54.841477 19.411274 
L 54.855005 9.322022 
L 54.9497 19.392315 
L 54.973373 23.653257 
L 55.064686 22.359875 
L 55.183054 19.558985 
L 55.196582 9.205663 
L 55.291276 18.857359 
L 55.311568 23.82076 
L 55.406262 22.709296 
L 55.561832 19.635837 
L 55.57536 9.133824 
L 55.670054 19.249904 
L 55.693728 23.918626 
L 55.78504 22.936682 
L 55.991339 19.051427 
L 56.001485 9.082055 
L 56.096179 21.259539 
L 56.119853 23.986715 
L 56.207784 23.093186 
L 56.478339 19.096206 
L 56.488485 9.081015 
L 56.579798 22.236809 
L 56.600089 23.958493 
L 56.691402 23.074699 
L 57.046506 19.119451 
L 57.060034 9.156702 
L 57.144583 23.113574 
L 57.161492 23.792041 
L 57.252805 22.892834 
L 57.547034 20.538027 
L 57.563944 20.447005 
L 57.607909 19.533789 
L 57.624819 9.14721 
L 57.702604 20.931561 
L 57.726278 23.803101 
L 57.81759 22.915363 
L 57.861555 22.464599 
L 58.118583 20.746767 
L 58.233569 20.621901 
L 58.270771 20.696031 
L 58.429722 20.953625 
L 58.439868 20.943262 
L 58.487215 21.062544 
L 58.490597 21.059819 
L 58.727334 21.618567 
L 58.991125 22.095996 
L 59.559292 23.708661 
L 59.596494 23.827625 
L 59.785883 24.461945 
L 60.384487 25.662916 
L 60.428453 25.625044 
L 60.529911 25.551278 
L 60.462272 25.666287 
L 60.546821 25.581665 
L 60.641515 25.523861 
L 60.665189 25.56992 
L 60.827522 25.772731 
L 60.830904 25.769046 
L 60.861342 25.709841 
L 60.908689 25.838991 
L 60.932363 25.838778 
L 61.020293 25.713185 
L 61.06764 25.771623 
L 61.074404 25.789409 
L 61.148807 25.673152 
L 61.534349 25.540577 
L 61.537731 25.548572 
L 61.564787 25.536404 
L 61.581696 25.474805 
L 61.598606 25.464031 
L 61.679773 25.422669 
L 61.652717 25.488179 
L 61.71021 25.455246 
L 61.852252 25.498372 
L 61.859016 25.491638 
L 61.86578 25.477653 
L 61.896217 25.561638 
L 61.960474 25.539253 
L 62.10928 25.49505 
L 61.974002 25.5665 
L 62.12619 25.563908 
L 62.160009 25.606654 
L 62.217502 25.480035 
L 62.220884 25.496562 
L 62.291905 25.390831 
L 62.339252 25.438469 
L 62.826253 24.897175 
L 62.356162 25.467106 
L 62.849926 24.923444 
L 62.927711 24.97989 
L 62.968294 24.953236 
L 63.073135 24.929332 
L 62.981822 24.966469 
L 63.08328 24.959562 
L 63.147537 24.977334 
L 63.177975 24.898022 
L 63.323399 24.686702 
L 63.330163 24.706822 
L 63.462058 24.809767 
L 63.553371 24.855112 
L 63.478968 24.853706 
L 63.556753 24.885632 
L 63.583808 24.89935 
L 63.624392 24.765483 
L 63.641302 24.801272 
L 63.827309 24.71381 
L 63.830691 24.734936 
L 63.952441 24.778563 
L 63.955823 24.765924 
L 64.087718 24.61924 
L 63.972732 24.782231 
L 64.10801 24.62934 
L 64.22976 24.682614 
L 64.12492 24.607016 
L 64.236524 24.65195 
L 64.706615 24.490023 
L 64.814837 24.361845 
L 64.835129 24.376735 
L 65.447261 24.13269 
L 65.464171 24.178 
L 65.467553 24.191572 
L 65.548719 24.066189 
L 65.552101 24.074804 
L 65.633268 24.001853 
L 65.660323 24.084161 
L 65.687379 24.116449 
L 65.731344 23.997201 
L 65.751636 24.000082 
L 66.072921 24.263428 
L 66.076303 24.251248 
L 66.201435 24.183167 
L 66.208199 24.198186 
L 66.242018 24.285338 
L 66.329949 24.231321 
L 66.346859 24.248529 
L 66.448317 24.186285 
L 67.699637 23.739616 
L 67.746984 23.643176 
L 67.709783 23.747711 
L 67.821387 23.702191 
L 67.828151 23.726291 
L 67.905936 23.606136 
L 67.9127 23.608036 
L 67.926228 23.650444 
L 67.949901 23.559978 
L 68.004012 23.556377 
L 68.118998 23.53745 
L 68.027686 23.585143 
L 68.12238 23.538591 
L 68.24413 23.607727 
L 68.26104 23.560452 
L 68.430138 23.3218 
L 68.271186 23.577765 
L 68.450429 23.373231 
L 68.457193 23.381305 
L 68.474103 23.287601 
L 68.50454 23.283982 
L 68.572179 23.175966 
L 68.518068 23.298256 
L 68.616145 23.265473 
L 68.761568 23.130925 
L 68.76495 23.136651 
L 68.859645 23.182257 
L 68.883318 23.139336 
L 68.967867 23.075415 
L 68.998304 23.126477 
L 69.00845 23.108059 
L 69.092999 23.194629 
L 69.18093 23.197646 
L 69.201221 23.258665 
L 69.204603 23.271531 
L 69.282388 23.167518 
L 69.292534 23.182065 
L 69.380464 23.051492 
L 69.414284 23.098507 
L 69.458249 23.019484 
L 69.427812 23.045656 
L 69.461631 22.998141 
L 69.583381 22.925725 
L 69.630728 22.845116 
L 69.738951 23.031626 
L 69.867465 22.975253 
L 69.874229 22.992752 
L 70.01627 23.116867 
L 70.192132 23.213964 
L 70.039944 23.087918 
L 70.202277 23.18876 
L 70.209041 23.154288 
L 70.283444 23.301887 
L 70.439014 23.427524 
L 70.503271 23.397318 
L 70.554 23.464322 
L 70.824555 23.275488 
L 70.851611 23.318013 
L 70.878667 23.353991 
L 70.939542 23.281444 
L 70.959833 23.294195 
L 71.051146 23.328608 
L 71.081583 23.311204 
L 71.19657 23.327406 
L 71.095111 23.285066 
L 71.199952 23.319115 
L 71.31832 23.286906 
L 71.220243 23.35048 
L 71.321702 23.29219 
L 71.456979 23.468318 
L 71.460361 23.456157 
L 71.734299 23.287261 
L 71.741063 23.311863 
L 71.812084 23.341842 
L 71.791792 23.283079 
L 71.839139 23.283064 
L 71.869577 23.173125 
L 71.954126 23.247792 
L 72.180716 23.25292 
L 72.18748 23.229202 
L 72.228063 23.287583 
L 72.319376 23.170602 
L 72.370105 23.253698 
L 72.437744 23.194754 
L 72.529056 23.16098 
L 72.539202 23.14687 
L 72.650806 23.075439 
L 72.660952 23.087322 
L 72.806376 23.163647 
L 72.681244 23.054178 
L 72.81314 23.153465 
L 72.948418 23.096214 
L 72.826668 23.173177 
L 72.955182 23.108102 
L 72.999147 23.211574 
L 73.070168 23.140525 
L 73.202064 22.998472 
L 73.229119 23.047802 
L 73.320432 22.996148 
L 73.66539 22.997909 
L 73.695828 23.031102 
L 73.753321 22.927237 
L 73.871689 23.014175 
L 73.885217 23.030758 
L 73.94271 22.941658 
L 73.976529 22.983481 
L 74.162536 22.833878 
L 73.990057 23.001066 
L 74.176064 22.869836 
L 74.331634 23.09406 
L 74.365453 23.056083 
L 74.385745 23.008945 
L 74.443238 23.091182 
L 74.470294 23.061664 
L 74.581898 23.134815 
L 74.58528 23.12582 
L 74.592044 23.106749 
L 74.656301 23.265323 
L 74.659683 23.259981 
L 74.720558 23.348192 
L 74.761141 23.203695 
L 74.764523 23.216241 
L 74.774669 23.23807 
L 74.832162 23.125552 
L 74.84569 23.125487 
L 74.855835 23.076259 
L 74.893037 23.163867 
L 74.960676 23.099384 
L 75.082426 23.285308 
L 75.099336 23.24036 
L 75.153447 23.110294 
L 75.170356 23.141529 
L 75.295488 23.016924 
L 75.413857 23.044567 
L 75.369891 22.966294 
L 75.424002 23.030581 
L 75.647211 23.052988 
L 75.670885 23.085069 
L 75.691176 23.01257 
L 75.755433 23.026227 
L 75.8366 22.914873 
L 75.938058 22.914538 
L 75.850128 22.962752 
L 75.948204 22.94204 
L 76.019225 22.951227 
L 75.985406 22.903498 
L 76.046281 22.909739 
L 76.151121 22.856004 
L 76.093628 22.937164 
L 76.161267 22.894971 
L 76.310072 23.01126 
L 76.171413 22.852669 
L 76.333746 22.975384 
L 76.408149 22.902196 
L 76.441968 23.000532 
L 76.536663 22.991939 
L 76.465642 22.940084 
L 76.553572 22.9595 
L 76.682086 23.020382 
L 76.692232 23.001144 
L 76.824128 23.127412 
L 76.928969 23.050834 
L 76.952642 23.133871 
L 77.138649 23.289959 
L 76.96617 23.09078 
L 77.152177 23.273584 
L 77.260399 23.193133 
L 77.273927 23.197174 
L 77.378767 23.237628 
L 77.304365 23.145995 
L 77.399059 23.222618 
L 77.409205 23.18858 
L 77.480226 23.292249 
L 77.48699 23.31359 
L 77.517427 23.219567 
L 77.57492 23.220456 
L 77.693288 23.159473 
L 77.723726 23.240774 
L 77.801511 23.268834 
L 77.774455 23.191889 
L 77.831948 23.236595 
L 77.83533 23.22799 
L 77.872532 23.315017 
L 77.923261 23.299769 
L 78.031483 23.328545 
L 77.95708 23.269226 
L 78.041629 23.323433 
L 78.092358 23.273013 
L 78.156615 23.325746 
L 78.285129 23.436895 
L 78.295275 23.433005 
L 78.474518 23.521664 
L 78.592886 23.598204 
L 78.606414 23.585581 
L 78.731546 23.386326 
L 78.745074 23.399082 
L 78.951372 23.552635 
L 78.985192 23.498328 
L 79.032539 23.413049 
L 79.110324 23.487399 
L 79.113706 23.506156 
L 79.171199 23.419868 
L 79.211782 23.425482 
L 79.374116 23.542858 
L 79.38088 23.539468 
L 79.391025 23.551208 
L 79.509394 23.538025 
L 79.631144 23.660999 
L 79.634526 23.654261 
L 79.644671 23.625849 
L 79.675109 23.6996 
L 79.742748 23.664413 
L 79.813769 23.776768 
L 79.888172 23.738813 
L 79.993012 23.785029 
L 79.901699 23.706877 
L 80.020067 23.733641 
L 80.189165 23.588722 
L 80.314297 23.662198 
L 80.385318 23.648991 
L 80.405609 23.586925 
L 80.452957 23.601565 
L 80.534123 23.503651 
L 80.655873 23.559258 
L 80.551033 23.47604 
L 80.666019 23.542174 
L 80.784387 23.420156 
L 80.693075 23.56685 
L 80.808061 23.42772 
L 80.889228 23.462561 
L 80.848644 23.388298 
L 80.916283 23.407923 
L 80.946721 23.447809 
L 81.038033 23.339889 
L 81.088762 23.310702 
L 81.048179 23.305908 
L 81.115818 23.260772 
L 81.440485 23.194702 
L 81.545325 23.084032 
L 81.562235 23.093822 
L 81.629874 23.147857 
L 81.599436 23.084272 
L 81.673839 23.094841 
L 81.788825 23.120759 
L 81.690749 23.126589 
L 81.792207 23.132261 
L 81.981596 23.213278 
L 81.798971 23.114149 
L 81.991742 23.190412 
L 82.018798 23.166343 
L 82.042471 23.223139 
L 82.103346 23.183641 
L 82.12702 23.243931 
L 82.170985 23.164445 
L 82.211569 23.165859 
L 82.532854 23.178514 
L 82.651222 23.217988 
L 82.657986 23.193289 
L 82.732388 23.250322 
L 82.762826 23.218785 
L 83.611694 23.088092 
L 83.65566 23.00258 
L 83.719917 23.096269 
L 83.757118 23.144796 
L 83.74359 23.074863 
L 83.834903 23.119125 
L 83.902542 23.109651 
L 83.932979 23.068968 
L 84.004 23.03489 
L 83.973563 23.098766 
L 84.044584 23.073699 
L 84.179861 23.014085 
L 84.081785 23.137835 
L 84.186625 23.020633 
L 84.190007 23.045471 
L 84.250882 22.930112 
L 84.284702 22.9377 
L 84.673626 22.990079 
L 84.731119 22.930743 
L 84.683771 22.997978 
L 84.781848 22.992009 
L 84.842723 23.010854 
L 84.805521 22.969543 
L 84.876542 22.953994 
L 84.879924 22.928327 
L 84.944181 23.025359 
L 84.988147 22.947709 
L 85.262084 22.960576 
L 85.370306 23.000173 
L 85.37707 22.980877 
L 85.539404 22.915264 
L 85.552932 22.941449 
L 85.718647 22.954365 
L 85.732175 22.893173 
L 85.904654 22.941664 
L 85.9148 22.981706 
L 85.985821 22.849574 
L 85.999348 22.878251 
L 86.05346 22.837444 
L 86.077133 22.92211 
L 86.100807 22.920808 
L 86.293578 22.886011 
L 86.29696 22.874826 
L 86.303724 22.852792 
L 86.340925 22.904667 
L 86.398418 22.900137 
L 86.499877 22.969656 
L 86.513404 22.949604 
L 86.520168 22.933383 
L 86.665592 22.921662 
L 86.760286 22.908664 
L 86.780578 22.920182 
L 86.821161 22.993411 
L 86.892182 22.918972 
L 87.01055 22.847144 
L 87.020696 22.861894 
L 87.084953 22.931929 
L 87.030842 22.848164 
L 87.135682 22.857076 
L 87.484023 22.60088 
L 87.649738 22.693742 
L 87.494169 22.576731 
L 87.65312 22.681684 
L 87.778252 22.546161 
L 87.900002 22.722182 
L 87.91353 22.709672 
L 88.058954 22.615724 
L 88.072482 22.623659 
L 88.17394 22.531887 
L 88.204377 22.503099 
L 88.258489 22.605115 
L 88.265252 22.600246 
L 88.349801 22.706675 
L 88.282162 22.57659 
L 88.383621 22.673702 
L 88.420822 22.590364 
L 88.498607 22.639396 
L 89.174996 22.442738 
L 89.178378 22.465485 
L 89.283218 22.567666 
L 89.306892 22.530219 
L 89.398204 22.470802 
L 89.327184 22.56887 
L 89.421878 22.523249 
L 89.719489 22.583257 
L 89.729635 22.544446 
L 89.841239 22.434211 
L 89.743163 22.553029 
L 89.878441 22.461342 
L 89.993427 22.529361 
L 89.935934 22.411165 
L 90.000191 22.516438 
L 90.006955 22.548732 
L 90.18958 22.55388 
L 90.236927 22.64418 
L 90.297802 22.54604 
L 90.544684 22.195723 
L 90.304566 22.553616 
L 90.558212 22.249005 
L 90.585268 22.178789 
L 90.686726 22.196409 
L 90.818622 22.100233 
L 91.004629 21.889287 
L 91.04183 21.822257 
L 91.068886 21.828333 
" clip-path="url(#pcea70fc5bf)" style="fill: none; stroke: #000000; stroke-width: 0.6; stroke-linecap: square"/>
   </g>
   <g id="line2d_2">
    <path d="M 9.905557 38.075902 
L 9.99687 37.992529 
L 9.915703 38.094744 
L 10.037453 38.030863 
L 10.253897 38.427964 
L 10.355356 38.425349 
L 10.287717 38.466784 
L 10.365502 38.450417 
L 10.507543 38.580684 
L 10.514307 38.564212 
L 10.609002 38.526568 
L 10.541363 38.611402 
L 10.636057 38.58523 
L 10.646203 38.563681 
L 10.757807 38.597256 
L 10.859266 38.535037 
L 10.767953 38.611598 
L 10.876176 38.560216 
L 10.879558 38.567605 
L 10.933669 38.425552 
L 11.254954 37.536876 
L 11.285391 34.314128 
L 11.298919 27.019877 
L 11.380086 41.315088 
L 11.38685 41.287272 
L 12.059857 38.36817 
L 12.10044 38.200229 
L 12.198517 37.18323 
L 12.215426 32.492073 
L 12.225572 26.899354 
L 12.310121 41.543098 
L 12.316885 41.505585 
L 12.347322 41.338423 
L 12.540093 40.42318 
L 12.959455 39.478511 
L 12.9696 39.515231 
L 12.983128 39.530829 
L 13.044003 39.411983 
L 13.186045 39.303516 
L 13.199573 39.34713 
L 13.470128 39.265406 
L 13.476892 39.29652 
L 13.747448 39.533294 
L 13.757594 39.50692 
L 13.85567 39.528488 
L 13.825233 39.593114 
L 13.862434 39.541487 
L 14.034913 39.745003 
L 13.882726 39.524684 
L 14.051823 39.684983 
L 14.055205 39.663721 
L 14.139754 39.791669 
L 14.143136 39.790853 
L 14.251358 40.043366 
L 14.275032 40.016097 
L 14.278414 40.009343 
L 14.349434 40.108839 
L 14.450893 40.134184 
L 14.413691 40.072986 
L 14.464421 40.112397 
L 14.494858 40.112738 
L 14.518532 40.212941 
L 14.525296 40.194619 
L 14.660574 40.449566 
L 14.663955 40.441455 
L 14.819525 40.693578 
L 14.968331 40.856417 
L 15.005532 40.819173 
L 15.090081 40.823861 
L 15.01906 40.858018 
L 15.110372 40.862579 
L 15.225359 41.000385 
L 15.252414 40.963436 
L 15.810435 41.513099 
L 15.830727 41.481282 
L 15.928803 41.423584 
L 15.851019 41.492424 
L 15.945713 41.449218 
L 15.949095 41.459667 
L 15.996442 41.376595 
L 16.040408 41.381708 
L 16.084373 41.332154 
L 16.050553 41.394424 
L 16.155394 41.356991 
L 16.25347 41.439945 
L 16.294054 41.420283 
L 16.574755 41.38961 
L 16.584901 41.376967 
L 16.65254 41.442811 
L 16.676213 41.422549 
L 16.716797 41.470003 
L 16.77429 41.373181 
L 16.777672 41.389452 
L 16.885894 41.334459 
L 16.804727 41.437862 
L 16.909568 41.36033 
L 17.007644 41.414639 
L 16.923096 41.352545 
L 17.031318 41.378114 
L 17.166596 41.293652 
L 17.26129 41.248852 
L 17.298492 41.299874 
L 17.366131 41.364153 
L 17.41686 41.340686 
L 17.53861 41.399757 
L 17.562283 41.347829 
L 17.690797 41.259059 
L 17.694179 41.265702 
L 17.809165 41.33083 
L 17.734763 41.237978 
L 17.815929 41.312675 
L 17.957971 41.361071 
L 17.961353 41.37831 
L 18.140596 41.482327 
L 18.2522 41.495542 
L 18.14736 41.475398 
L 18.255582 41.476092 
L 18.262346 41.463102 
L 18.309694 41.560506 
L 18.363805 41.603637 
L 18.417916 41.535351 
L 18.431444 41.551347 
L 18.475409 41.443504 
L 18.485555 41.444178 
L 18.51261 41.392612 
L 18.543048 41.485412 
L 18.597159 41.425668 
L 18.674944 41.348776 
L 18.708763 41.390316 
L 18.796694 41.259494 
L 18.975937 41.270559 
L 19.026666 41.450383 
L 19.111215 41.399432 
L 19.226201 41.318827 
L 19.236347 41.336403 
L 19.351333 41.203059 
L 19.452791 41.249757 
L 19.381771 41.154491 
L 19.462937 41.247683 
L 19.567778 41.205593 
L 19.483229 41.264681 
L 19.581305 41.233833 
L 19.699673 41.273245 
L 19.706437 41.253105 
L 19.828187 41.168715 
L 19.726729 41.271992 
L 19.838333 41.172406 
L 19.953319 41.074817 
L 19.973611 41.113824 
L 20.095361 41.291088 
L 19.990521 41.100578 
L 20.119035 41.196296 
L 20.203583 41.122764 
L 20.237403 41.146582 
L 20.250931 41.164787 
L 20.298278 41.062394 
L 20.335479 41.080503 
L 20.342243 41.069276 
L 20.399736 41.157665 
L 20.4065 41.146466 
L 20.42341 41.193419 
L 20.487667 41.077437 
L 20.507959 41.080798 
L 20.54516 41.004505 
L 20.57898 41.129118 
L 20.616181 41.102364 
L 20.68382 41.163046 
L 20.731167 41.111512 
L 20.866445 41.038541 
L 20.754841 41.143248 
L 20.873209 41.046336 
L 20.964521 41.106637 
L 20.988195 41.052371 
L 21.022014 41.044258 
L 21.055834 41.140365 
L 21.184348 41.26546 
L 21.18773 41.245959 
L 21.245223 41.199704 
L 21.29257 41.264924 
L 21.299334 41.290692 
L 21.350063 41.221718 
L 21.400792 41.25512 
L 22.131293 41.262692 
L 22.246279 41.311074 
L 22.151585 41.226475 
L 22.256425 41.293257 
L 22.297008 41.254586 
L 22.354501 41.328678 
L 22.401849 41.357664 
L 22.445814 41.282502 
L 22.45596 41.284339 
L 22.811064 41.172998 
L 22.851647 41.274742 
L 22.929432 41.181584 
L 22.986925 41.307523 
L 23.068092 41.19435 
L 23.088384 41.1785 
L 23.112057 41.24654 
L 23.16955 41.222721 
L 23.331884 41.446862 
L 23.338648 41.422048 
L 23.372467 41.462712 
L 23.450252 41.429359 
L 23.528037 41.513534 
L 23.575384 41.482505 
L 23.886523 41.397337 
L 23.910197 41.428092 
L 23.974454 41.329044 
L 23.987981 41.338404 
L 24.113113 41.239444 
L 24.008273 41.381667 
L 24.150315 41.30148 
L 24.153697 41.309706 
L 24.187516 41.190137 
L 24.238245 41.250664 
L 24.295738 41.230319 
L 24.255155 41.269853 
L 24.343086 41.267113 
L 24.502037 41.510588 
L 24.512183 41.506501 
L 24.596732 41.578258 
L 24.600114 41.595209 
L 24.728628 41.721372 
L 24.73201 41.698599 
L 24.782739 41.787921 
L 24.833468 41.738187 
L 24.985656 41.900847 
L 24.989037 41.886708 
L 25.046531 41.957307 
L 25.087114 41.933252 
L 25.09726 41.961492 
L 25.154753 41.870926 
L 25.178426 41.866916 
L 25.269739 41.854887 
L 25.23592 41.901387 
L 25.283267 41.889246 
L 25.374579 41.868906 
L 25.384725 41.842633 
L 25.516621 41.782097 
L 25.411781 41.863181 
L 25.523385 41.793969 
L 25.678955 41.766934 
L 25.831142 41.770371 
L 25.702628 41.707774 
L 25.837906 41.729277 
L 25.885253 41.632872 
L 25.956274 41.684881 
L 25.963038 41.704671 
L 26.034059 41.558757 
L 26.040823 41.595494 
L 26.044205 41.580428 
L 26.101698 41.682867 
L 26.135517 41.668009 
L 26.250503 41.736621 
L 26.257267 41.702719 
L 26.328288 41.610142 
L 26.368872 41.704097 
L 26.395927 41.669198 
L 26.385781 41.71718 
L 26.473712 41.73882 
L 26.581934 41.770167 
L 26.483858 41.729371 
L 26.585316 41.741895 
L 26.666483 41.768495 
L 26.69692 41.714644 
L 26.81867 41.870021 
L 26.822052 41.840244 
L 26.943802 41.717097 
L 26.950566 41.730328 
L 27.139955 41.806896 
L 27.146719 41.792088 
L 27.271851 41.648997 
L 27.281997 41.652733 
L 27.325962 41.725912 
L 27.396983 41.687327 
L 27.407129 41.655163 
L 27.447712 41.746525 
L 27.501824 41.724014 
L 27.674303 41.619508 
L 27.697976 41.563507 
L 27.775761 41.692978 
L 27.779143 41.666423 
L 27.782525 41.656449 
L 27.809581 41.756916 
L 27.867074 41.741465 
L 28.009115 41.764502 
L 27.880602 41.715755 
L 28.015879 41.74867 
L 28.124102 41.691931 
L 28.022643 41.754245 
L 28.147775 41.737611 
L 28.350692 41.647779 
L 28.475824 41.524374 
L 28.482588 41.530951 
L 28.577282 41.639901 
L 28.60772 41.621042 
L 28.719324 41.515399 
L 28.736234 41.549135 
L 28.898567 41.673012 
L 28.76329 41.534016 
L 28.901949 41.669567 
L 29.023699 41.579776 
L 28.942533 41.700142 
L 29.030463 41.587191 
L 29.12854 41.614533 
L 29.054137 41.564258 
L 29.138686 41.566478 
L 29.277345 41.509026 
L 29.158977 41.58635 
L 29.290873 41.528681 
L 29.453207 41.557687 
L 29.470116 41.522183 
L 29.5107 41.503582 
L 29.547901 41.552298 
L 29.574957 41.553016 
L 29.578339 41.558807 
L 29.639214 41.449319 
L 29.642596 41.468173 
L 29.713616 41.317171 
L 29.777873 41.355742 
L 29.815075 41.441013 
L 29.889478 41.378095 
L 29.89286 41.36563 
L 29.943589 41.426042 
L 29.987554 41.415734 
L 30.007846 41.368315 
L 30.122832 41.554518 
L 30.180325 41.51218 
L 30.220908 41.597496 
L 30.349422 41.66976 
L 30.461027 41.581982 
L 30.471172 41.595935 
L 30.494846 41.511827 
L 30.538811 41.61837 
L 30.589541 41.542407 
L 30.60645 41.580413 
L 30.687617 41.505044 
L 30.694381 41.506374 
L 30.748492 41.563337 
L 30.826277 41.507024 
L 30.836423 41.556701 
L 30.90068 41.445621 
L 30.920971 41.440852 
L 31.289603 41.218536 
L 30.948027 41.473089 
L 31.303131 41.236181 
L 31.407972 41.244715 
L 31.418117 41.213012 
L 31.783368 40.974557 
L 31.810423 41.023816 
L 31.827333 41.006834 
L 31.959229 41.185499 
L 32.287278 41.040792 
L 32.290659 41.055912 
L 32.297423 41.086501 
L 32.381972 40.961115 
L 32.385354 40.979627 
L 32.392118 40.94355 
L 32.466521 41.051213 
L 32.469903 41.049427 
L 32.476667 41.079446 
L 32.564597 40.952507 
L 32.62209 40.91217 
L 32.669437 40.989548 
L 32.98734 40.753561 
L 33.169966 40.546685 
L 33.173347 40.560313 
L 33.227459 40.435316 
L 33.254514 40.434296 
L 33.274806 40.465748 
L 33.318771 40.360907 
L 33.376264 40.373839 
L 33.433757 40.330836 
L 33.437139 40.341357 
L 33.511542 40.21915 
L 33.518306 40.231068 
L 33.582563 40.311466 
L 33.633292 40.227443 
L 33.697549 40.183041 
L 33.640056 40.230692 
L 33.75166 40.208958 
L 33.758424 40.222395 
L 33.822681 40.101931 
L 33.836209 40.103205 
L 33.876792 40.056554 
L 33.941049 40.148506 
L 33.961341 40.203291 
L 34.039126 40.069794 
L 34.096619 40.088159 
L 34.130438 40.024171 
L 34.15073 40.066554 
L 34.67155 39.812579 
L 34.762862 39.675759 
L 34.806828 39.71525 
L 34.823737 39.744597 
L 34.904904 39.665352 
L 34.925196 39.677509 
L 35.026654 39.58785 
L 35.226189 39.551642 
L 35.26339 39.49015 
L 35.2803 39.571312 
L 35.337793 39.542574 
L 35.358085 39.592275 
L 35.442633 39.527026 
L 35.449397 39.545537 
L 35.510272 39.499308 
L 35.462925 39.570055 
L 35.564383 39.518988 
L 35.713189 39.40858 
L 35.577911 39.527629 
L 35.719953 39.442673 
L 35.807884 39.491288 
L 35.7673 39.39348 
L 35.834939 39.467976 
L 36.105495 39.395802 
L 36.234009 39.284612 
L 36.257682 39.338198 
L 36.328703 39.237356 
L 36.332085 39.244099 
L 36.491037 39.108758 
L 36.511328 39.121822 
L 36.582349 39.0298 
L 36.602641 39.011493 
L 36.63646 39.090373 
L 36.677044 39.087799 
L 36.731155 39.050319 
L 36.710863 39.004263 
L 36.748065 39.013169 
L 36.805558 38.923123 
L 36.876579 38.961728 
L 36.886724 38.978748 
L 36.950981 38.863794 
L 36.971273 38.89102 
L 37.390634 37.770276 
L 37.431218 35.875023 
L 37.448128 26.771278 
L 37.529294 40.554852 
L 37.532676 40.547426 
L 37.840433 36.91347 
L 37.857343 26.957365 
L 37.924982 39.888849 
L 37.941892 41.1247 
L 38.036586 40.334332 
L 38.171864 38.91887 
L 38.283468 36.831167 
L 38.300378 27.052548 
L 38.371399 40.886672 
L 38.381545 41.349029 
L 38.476239 40.672777 
L 38.79076 36.808867 
L 38.80767 27.038156 
L 38.875309 40.677431 
L 38.888837 41.478557 
L 38.986913 40.838949 
L 39.372455 37.099002 
L 39.392747 26.982676 
L 39.453622 38.818391 
L 39.477295 41.571304 
L 39.568608 41.019887 
L 39.632865 40.658675 
L 39.913566 38.857304 
L 40.031935 37.918095 
L 40.079282 36.156565 
L 40.09281 26.990287 
L 40.177358 41.604428 
L 40.238233 41.266548 
L 40.911241 37.39559 
L 40.931532 34.64775 
L 40.941678 27.079748 
L 41.026227 41.615147 
L 41.032991 41.57701 
L 41.486171 39.730646 
L 41.560574 39.587206 
L 42.023901 38.394367 
L 42.118595 38.515982 
L 42.253873 38.740334 
L 42.274165 38.70907 
L 42.314748 38.676291 
L 42.338422 38.7465 
L 42.379005 38.74076 
L 42.395915 38.742325 
L 42.446644 38.635803 
L 42.460172 38.624094 
L 42.514283 38.758006 
L 43.095978 39.298163 
L 42.534575 38.723184 
L 43.109506 39.279464 
L 43.112888 39.268899 
L 43.183908 39.383841 
L 43.194054 39.359812 
L 43.32595 39.631304 
L 43.34286 39.600031 
L 43.420645 39.560426 
L 43.440936 39.630404 
L 43.451082 39.605264 
L 43.701346 39.784886 
L 43.748694 39.764764 
L 43.792659 39.859534 
L 43.941464 40.187478 
L 44.184965 40.437497 
L 44.191728 40.417143 
L 44.303333 40.384057 
L 44.327006 40.451488 
L 44.411555 40.670453 
L 44.485958 40.634709 
L 44.553597 40.624615 
L 44.57727 40.687228 
L 44.73284 40.989308 
L 44.753132 40.9734 
L 44.922229 41.095366 
L 44.770041 40.961109 
L 44.928993 41.069282 
L 44.962812 41.066347 
L 44.996632 41.139768 
L 45.104854 41.193632 
L 45.108236 41.175958 
L 45.172493 41.098359 
L 45.223222 41.163991 
L 45.541125 41.332954 
L 45.652729 41.364407 
L 45.622292 41.31587 
L 45.656111 41.354271 
L 45.669639 41.377629 
L 45.700077 41.28283 
L 45.72375 41.271315 
L 45.744042 41.240457 
L 45.811681 41.370656 
L 45.821827 41.357788 
L 45.825209 41.369374 
L 45.869174 41.307835 
L 45.930049 41.334963 
L 46.058563 41.24511 
L 46.061945 41.255843 
L 46.156639 41.338781 
L 46.078855 41.220845 
L 46.180313 41.313412 
L 46.288535 41.264585 
L 46.190459 41.320882 
L 46.302063 41.292664 
L 46.410285 41.319085 
L 46.417049 41.338615 
L 46.423813 41.36694 
L 46.484688 41.298405 
L 46.518508 41.311047 
L 46.532035 41.29313 
L 46.599674 41.408805 
L 46.603056 41.398458 
L 46.711278 41.457744 
L 46.623348 41.381062 
L 46.728188 41.416727 
L 46.85332 41.335463 
L 46.772153 41.472513 
L 46.856702 41.349524 
L 47.039327 41.435491 
L 46.87023 41.331983 
L 47.066383 41.391079 
L 47.157695 41.354042 
L 47.167841 41.42328 
L 47.171223 41.422621 
L 47.289591 41.390288 
L 47.211807 41.472754 
L 47.299737 41.407361 
L 47.411341 41.511797 
L 47.34032 41.388315 
L 47.424869 41.503763 
L 47.492508 41.545552 
L 47.539855 41.468214 
L 47.543237 41.464504 
L 47.573675 41.528934 
L 47.610876 41.545398 
L 47.715717 41.627762 
L 47.627786 41.531908 
L 47.729244 41.598154 
L 47.766446 41.522913 
L 47.786737 41.627637 
L 47.830703 41.630636 
L 47.955835 41.758924 
L 47.857758 41.603272 
L 47.976126 41.749638 
L 48.111404 41.652888 
L 47.98289 41.756138 
L 48.128314 41.675573 
L 48.148606 41.730073 
L 48.233154 41.642934 
L 48.449599 41.661361 
L 48.456363 41.642448 
L 48.696481 41.429684 
L 48.750592 41.492483 
L 48.919689 41.659798 
L 48.767502 41.482189 
L 48.926453 41.644109 
L 49.038058 41.497655 
L 49.048203 41.530855 
L 49.443891 41.371033 
L 49.596079 41.354733 
L 49.457419 41.401021 
L 49.606224 41.366044 
L 49.826051 41.351271 
L 49.832815 41.372167 
L 49.957947 41.389769 
L 49.85987 41.345701 
L 49.964711 41.38269 
L 50.106753 41.244162 
L 50.130426 41.284202 
L 50.211593 41.246044 
L 50.245412 41.305847 
L 50.367162 41.208903 
L 50.370544 41.216741 
L 50.373926 41.200405 
L 50.41451 41.328692 
L 50.465239 41.288178 
L 50.637718 41.450425 
L 50.472003 41.279042 
L 50.647864 41.424022 
L 50.739176 41.327344 
L 50.793288 41.387796 
L 50.864308 41.425372 
L 50.894746 41.356216 
L 51.013114 41.262231 
L 51.019878 41.293864 
L 51.073989 41.385832 
L 51.1281 41.308535 
L 51.155156 41.228777 
L 51.229559 41.363348 
L 51.232941 41.361162 
L 51.354691 41.307269 
L 51.30058 41.40051 
L 51.358073 41.328994 
L 51.452767 41.273404 
L 51.479823 41.36639 
L 51.489969 41.381022 
L 51.625246 41.289441 
L 51.973587 41.22934 
L 52.054754 41.210878 
L 52.037844 41.256818 
L 52.081809 41.252681 
L 52.200177 41.304825 
L 52.095337 41.242553 
L 52.203559 41.292732 
L 52.29149 41.380817 
L 52.328691 41.267976 
L 52.491025 41.161036 
L 52.335455 41.286119 
L 52.507934 41.234154 
L 52.612775 41.395139 
L 52.629684 41.380829 
L 52.744671 41.406063 
L 52.649976 41.373624 
L 52.748053 41.396548 
L 52.76158 41.366821 
L 52.788636 41.42495 
L 52.852893 41.4338 
L 52.876567 41.451448 
L 52.90024 41.353531 
L 52.940824 41.368301 
L 52.998317 41.339575 
L 53.032136 41.431451 
L 53.035518 41.423973 
L 53.062574 41.460801 
L 53.106539 41.396896 
L 53.147122 41.425778 
L 53.174178 41.391187 
L 53.235053 41.468201 
L 53.255345 41.438083 
L 53.454879 41.290272 
L 53.488699 41.348799 
L 53.678088 41.659652 
L 53.694998 41.624921 
L 53.698379 41.614099 
L 53.762636 41.723401 
L 53.78631 41.702519 
L 53.911442 41.816576 
L 53.928352 41.792697 
L 54.033192 41.752009 
L 53.968935 41.81581 
L 54.039956 41.777192 
L 54.100831 41.726257 
L 54.15156 41.749931 
L 54.253019 41.801791 
L 54.175234 41.831573 
L 54.256401 41.816866 
L 54.337567 41.893921 
L 54.280074 41.8043 
L 54.371387 41.851739 
L 54.577686 41.799698 
L 54.581067 41.808747 
L 54.597977 41.856696 
L 54.682526 41.768541 
L 54.685908 41.782728 
L 54.767075 41.651287 
L 54.824568 41.68744 
L 54.953082 41.768935 
L 54.851623 41.674887 
L 54.959845 41.759577 
L 54.963227 41.746261 
L 54.983519 41.834062 
L 55.064686 41.786765 
L 55.142471 41.817737 
L 55.169526 41.740963 
L 55.470519 41.897083 
L 55.477283 41.878515 
L 55.480665 41.85383 
L 55.571978 41.992308 
L 55.937228 41.920554 
L 55.94061 41.933555 
L 55.977811 41.988279 
L 56.018395 41.913171 
L 56.048832 41.912159 
L 56.150291 41.917474 
L 56.089416 41.869938 
L 56.1672 41.88955 
L 56.20102 41.854849 
L 56.238221 41.941471 
L 56.275423 41.890049 
L 56.326152 41.877603 
L 56.417464 42.035515 
L 56.53245 41.933373 
L 56.535832 41.938541 
L 56.54936 41.974811 
L 56.613617 41.885976 
L 56.640673 41.89675 
L 56.765805 41.810675 
L 56.775951 41.869759 
L 56.874027 41.790339 
L 56.985631 41.618688 
L 56.880791 41.806519 
L 57.046506 41.680262 
L 57.269715 41.803272 
L 57.340736 41.754282 
L 57.374555 41.833663 
L 57.486159 41.958894 
L 57.391465 41.812709 
L 57.499687 41.906855 
L 57.611291 41.792411 
L 57.509833 41.918212 
L 57.628201 41.802106 
L 57.766861 41.883183 
L 57.773625 41.856756 
L 57.827736 41.824505 
L 57.804062 41.877313 
L 57.885229 41.856493 
L 57.888611 41.864602 
L 57.942722 41.75857 
L 57.963014 41.769775 
L 58.000215 41.723455 
L 58.074618 41.775445 
L 58.118583 41.816656 
L 58.179458 41.764905 
L 58.297826 41.649812 
L 58.301208 41.663553 
L 58.419576 41.713767 
L 58.436486 41.676048 
L 58.521035 41.769729 
L 58.544709 41.820677 
L 58.602202 41.711841 
L 58.615729 41.718883 
L 58.72057 41.676051 
L 58.727334 41.713453 
L 58.801736 41.767827 
L 58.838938 41.708908 
L 58.940396 41.630771 
L 58.882903 41.743551 
L 58.960688 41.648343 
L 58.987743 41.691366 
L 59.099348 41.546868 
L 59.160223 41.697311 
L 59.227862 41.640298 
L 59.268445 41.547817 
L 59.393577 41.420023 
L 59.396959 41.443367 
L 59.45107 41.487815 
L 59.505181 41.435109 
L 59.535619 41.354273 
L 59.515327 41.444693 
L 59.623549 41.440659 
L 59.677661 41.505577 
L 59.725008 41.415977 
L 59.731772 41.424877 
L 59.86705 41.471672 
L 59.887341 41.424781 
L 60.019237 41.339397 
L 60.09364 41.44618 
L 60.137605 41.407062 
L 60.140987 41.387469 
L 60.222154 41.471322 
L 60.242446 41.447873 
L 60.245827 41.460176 
L 60.32023 41.350172 
L 60.33714 41.381893 
L 60.472418 41.248263 
L 60.489328 41.265518 
L 60.655043 41.223575 
L 60.658425 41.202 
L 60.678717 41.11791 
L 60.742974 41.265699 
L 60.753119 41.261483 
L 60.949272 41.367459 
L 60.807231 41.190306 
L 60.952654 41.353785 
L 61.060877 41.289003 
L 61.077786 41.307511 
L 61.175863 41.308851 
L 61.098078 41.274186 
L 61.186009 41.289603 
L 61.189391 41.292969 
L 61.233356 41.195577 
L 61.24012 41.199777 
L 61.372016 41.082172 
L 61.378779 41.09181 
L 61.382161 41.125642 
L 61.463328 41.037967 
L 61.48362 41.076745 
L 61.503912 41.004428 
L 61.598606 41.049435 
L 61.615516 41.077917 
L 61.821814 40.99939 
L 61.974002 41.080782 
L 62.041641 41.033601 
L 62.07546 41.117652 
L 62.190447 41.197105 
L 62.112662 41.102974 
L 62.203974 41.174141 
L 62.288523 41.162299 
L 62.312197 41.114562 
L 62.50835 41.014933 
L 62.325724 41.137411 
L 62.528641 41.087602 
L 62.589516 41.117932 
L 62.636864 41.06998 
L 62.728176 41.0557 
L 62.663919 41.039107 
L 62.73494 41.016593 
L 62.833016 40.961741 
L 62.853308 41.026279 
L 62.85669 41.056624 
L 62.883746 40.955079 
L 62.964912 41.031709 
L 63.086662 40.924042 
L 63.276051 41.104283 
L 63.336926 41.065819 
L 63.37751 41.144318 
L 63.380892 41.139562 
L 63.445149 41.274613 
L 63.509406 41.153292 
L 63.590572 41.045437 
L 63.624392 41.081549 
L 63.658211 41.129148 
L 63.705559 41.029282 
L 63.72585 41.029898 
L 63.918621 41.096134 
L 63.769816 40.969521 
L 63.928767 41.050101 
L 64.057281 40.941686 
L 64.070809 40.963488 
L 64.304163 41.072711 
L 64.354892 41.043729 
L 64.432677 41.191358 
L 64.517226 41.175125 
L 64.534135 41.132628 
L 64.689705 41.160522 
L 64.76749 41.240932 
L 64.713379 41.153062 
L 64.804691 41.206555 
L 64.950115 41.097082 
L 65.021136 41.012925 
L 65.071865 41.02806 
L 65.193615 40.910177 
L 65.213907 40.967621 
L 65.295073 41.043849 
L 65.332275 41.011919 
L 65.403296 40.924528 
L 65.437115 41.044553 
L 65.545337 41.150697 
L 65.572393 41.067025 
L 65.579157 41.042839 
L 65.609594 41.112206 
L 65.680615 41.076809 
L 65.812511 41.144527 
L 65.822657 41.115517 
L 66.022192 41.119565 
L 66.093213 40.988885 
L 66.160852 41.066742 
L 66.258928 40.910091 
L 66.340095 40.835052 
L 66.373914 40.874686 
L 66.377296 40.882076 
L 66.444935 40.764618 
L 66.532866 40.770187 
L 66.468609 40.808082 
L 66.546393 40.805245 
L 66.657998 40.767084 
L 66.668143 40.738107 
L 66.705345 40.717055 
L 66.74931 40.82023 
L 66.756074 40.795859 
L 66.823713 40.902749 
L 66.762838 40.794741 
L 66.877824 40.877461 
L 66.881206 40.859939 
L 66.942081 40.931416 
L 66.979283 40.915805 
L 67.036776 41.044287 
L 67.101033 40.971876 
L 67.16529 41.001971 
L 67.212637 40.940685 
L 67.364824 40.839413 
L 67.368206 40.844314 
L 67.40879 40.896786 
L 67.445991 40.790688 
L 67.462901 40.790579 
L 67.523776 40.654251 
L 67.594797 40.70583 
L 67.604943 40.727772 
L 67.65229 40.644044 
L 67.692873 40.669697 
L 67.753748 40.642504 
L 67.787568 40.710996 
L 67.801095 40.695833 
L 68.379408 40.937084 
L 68.413228 40.846222 
L 68.50454 40.832039 
L 68.436901 40.880846 
L 68.524832 40.85588 
L 68.585707 40.902706 
L 68.629672 40.826103 
L 68.670256 40.763736 
L 68.754804 40.82176 
L 68.771714 40.834924 
L 68.792006 40.768087 
L 68.846117 40.766717 
L 68.866409 40.767915 
L 68.900228 40.861328 
L 68.910374 40.859884 
L 69.015214 40.948412 
L 68.923902 40.845258 
L 69.035506 40.922361 
L 69.038888 40.91808 
L 69.089617 41.003749 
L 69.116673 40.985419 
L 69.255332 41.206281 
L 69.272242 41.187326 
L 69.343263 41.206251 
L 69.292534 41.16721 
L 69.370319 41.147524 
L 69.471777 41.082196 
L 69.488687 41.091302 
L 69.623965 41.111097 
L 69.63411 41.141638 
L 69.66793 41.201545 
L 69.701749 41.08187 
L 69.738951 41.111558 
L 69.816735 40.997973 
L 69.864083 41.061539 
L 69.874229 41.091628 
L 69.938486 40.956905 
L 69.955395 40.967144 
L 70.080527 40.96093 
L 70.083909 40.978633 
L 70.222569 41.040603 
L 70.367993 41.295784 
L 70.381521 41.27614 
L 70.753535 41.449928 
L 70.760298 41.440684 
L 70.905722 41.280605 
L 70.770444 41.455888 
L 70.915868 41.306325 
L 71.007181 41.411619 
L 71.027472 41.348244 
L 71.098493 41.311905 
L 71.142458 41.330905 
L 71.155986 41.349484 
L 71.294646 41.303328 
L 71.396104 41.412725 
L 71.314938 41.297718 
L 71.413014 41.351063 
L 71.507709 41.322368 
L 71.477271 41.387324 
L 71.521236 41.357104 
L 71.639605 41.386131 
L 71.653132 41.370896 
L 71.659896 41.375392 
L 71.80532 41.215962 
L 71.859431 41.27646 
L 71.913542 41.213673 
L 71.940598 41.162088 
L 72.004855 41.247706 
L 72.018383 41.229542 
L 72.072494 41.333904 
L 72.133369 41.248236 
L 72.272028 41.239515 
L 72.173952 41.300694 
L 72.27541 41.257993 
L 72.725209 41.173662 
L 72.728591 41.162515 
L 72.809758 41.275138 
L 72.81314 41.252177 
L 72.894307 41.302807 
L 72.823286 41.235062 
L 72.921362 41.224467 
L 73.063404 41.136507 
L 73.171626 41.198823 
L 73.181772 41.162285 
L 73.293376 41.095923 
L 73.198682 41.180388 
L 73.306904 41.115625 
L 73.432036 41.090165 
L 73.435418 41.073505 
L 73.567314 40.945598 
L 73.57746 40.957144 
L 74.030641 41.261415 
L 74.04755 41.225693 
L 74.061078 41.238184 
L 74.199738 41.103298 
L 74.270759 41.153134 
L 74.297814 41.051822 
L 74.30796 41.085839 
L 74.368835 41.042408 
L 74.355307 41.011072 
L 74.378981 41.008563 
L 74.534551 40.87238 
L 74.55146 40.890952 
L 74.656301 40.929708 
L 74.575134 40.880149 
L 74.666446 40.912276 
L 74.852454 40.783301 
L 74.879509 40.838407 
L 74.991113 40.866607 
L 75.004641 40.840859 
L 75.08919 40.81351 
L 75.021551 40.864942 
L 75.116245 40.846713 
L 75.234613 40.926243 
L 75.123009 40.837356 
L 75.251523 40.887919 
L 75.292107 40.848206 
L 75.342836 40.96465 
L 75.3496 40.934618 
L 75.352982 40.946314 
L 75.413857 40.788746 
L 75.430766 40.825571 
L 75.664121 40.867464 
L 75.779107 40.921009 
L 75.687794 40.858531 
L 75.782489 40.898516 
L 75.887329 40.862562 
L 75.900857 40.889907 
L 76.015843 40.973478 
L 76.025989 40.953634 
L 76.245815 41.035394 
L 76.283017 41.051503 
L 76.360802 40.973844 
L 76.441968 40.957562 
L 76.377711 41.030704 
L 76.465642 40.998177 
L 76.492697 41.049663 
L 76.553572 40.977352 
L 76.570482 40.979549 
L 76.698996 40.850214 
L 76.617829 40.992952 
L 76.702378 40.85191 
L 76.732816 40.877291 
L 76.803837 40.806007 
L 77.077774 40.616153 
L 77.108212 40.676986 
L 77.246871 40.804113 
L 77.263781 40.791216 
L 77.267163 40.769963 
L 77.34833 40.848554 
L 77.36524 40.848507 
L 77.984136 40.971159 
L 78.031483 40.925993 
L 78.072066 40.984579 
L 78.09574 40.968942 
L 78.410261 41.012259 
L 78.545539 41.254658 
L 78.640233 41.300792 
L 78.579358 41.179858 
L 78.670671 41.218855 
L 78.822858 41.127183 
L 78.839768 41.165531 
L 78.849914 41.181178 
L 78.907407 41.000757 
L 79.015629 40.959985 
L 79.019011 40.942976 
L 79.10356 40.899579 
L 79.042685 40.98914 
L 79.137379 40.911908 
L 79.313241 40.680952 
L 79.445137 40.603085 
L 79.465428 40.644318 
L 79.600706 40.807338 
L 79.72922 40.825812 
L 79.60747 40.819711 
L 79.735984 40.837681 
L 79.854352 40.922554 
L 79.86788 40.902781 
L 79.921991 41.030993 
L 79.945665 41.025903 
L 80.047123 41.120955 
L 80.060651 41.054265 
L 80.080942 41.025216 
L 80.135054 41.156132 
L 80.331206 41.157123 
L 80.446193 41.053907 
L 80.449575 41.06375 
L 80.469866 41.092551 
L 80.523977 40.987501 
L 80.544269 40.991594 
L 80.642346 40.980475 
L 80.581471 40.939203 
L 80.652491 40.967761 
L 80.77086 41.023325 
L 80.89261 41.211155 
L 80.933193 41.189077 
L 80.96363 41.111411 
L 81.051561 41.130997 
L 81.180075 41.01945 
L 81.112436 41.147438 
L 81.183457 41.027258 
L 81.268006 41.124203 
L 81.298443 41.093082 
L 81.342408 41.009826 
L 81.389756 41.13595 
L 81.497978 41.280797 
L 81.508124 41.218006 
L 81.62311 41.148065 
L 81.64002 41.164784 
L 81.653547 41.183618 
L 81.721186 41.071011 
L 81.809117 41.000593 
L 81.76177 41.113341 
L 81.839555 41.0548 
L 81.957923 41.111937 
L 81.90043 41.01567 
L 81.961305 41.101321 
L 82.012034 41.017329 
L 82.062763 41.146609 
L 82.069527 41.119649 
L 82.11011 41.082482 
L 82.198041 41.179421 
L 82.24877 41.119279 
L 82.204805 41.183091 
L 82.319791 41.146581 
L 82.384048 41.24416 
L 82.428013 41.111017 
L 82.52609 40.991951 
L 82.438159 41.119678 
L 82.563291 41.040331 
L 82.678277 41.119095 
L 82.695187 41.095978 
L 82.698569 41.081231 
L 82.759444 41.176688 
L 82.800027 41.128071 
L 82.806791 41.142954 
L 82.87443 41.002011 
L 82.884576 41.01738 
L 82.97927 40.942335 
L 82.89134 41.026532 
L 83.016472 40.987971 
L 83.124694 41.104506 
L 83.13484 41.067007 
L 83.263354 41.119068 
L 83.297173 41.070479 
L 83.317465 41.170798 
L 83.347903 41.175598 
L 83.452743 41.257189 
L 83.469653 41.236233 
L 83.527146 41.158364 
L 83.486562 41.240429 
L 83.588021 41.198461 
L 83.740208 41.024443 
L 83.74359 41.025545 
L 83.821375 41.014249 
L 83.787556 40.924486 
L 83.838285 40.967255 
L 83.926215 40.909027 
L 83.956653 40.958568 
L 84.047965 40.957384 
L 83.966799 40.930195 
L 84.061493 40.922325 
L 84.091931 40.891567 
L 84.146042 40.976825 
L 84.15957 40.962405 
L 84.311757 41.09703 
L 84.436889 41.093248 
L 84.345577 41.158895 
L 84.443653 41.111953 
L 84.568785 41.113904 
L 84.460563 41.065667 
L 84.575549 41.097227 
L 84.656716 41.111072 
L 84.697299 41.027303 
L 84.825813 41.121746 
L 84.964473 41.009585 
L 84.998292 41.080459 
L 85.069313 41.074028 
L 85.025348 41.037706 
L 85.082841 41.018995 
L 85.218119 40.750489 
L 85.235029 40.788744 
L 85.370306 40.897788 
L 85.28914 40.718285 
L 85.373688 40.889086 
L 85.383834 40.883328 
L 85.525876 41.026162 
L 85.596897 41.014356 
L 85.569841 41.067735 
L 85.630716 41.048852 
L 85.688209 41.007132 
L 85.745702 41.091083 
L 85.749084 41.084135 
L 85.762612 41.170004 
L 85.823487 41.184461 
L 86.117717 41.148601 
L 86.12448 41.123582 
L 86.195501 41.255968 
L 86.202265 41.228981 
L 86.219175 41.262318 
L 86.28005 41.135878 
L 86.293578 41.145947 
L 86.489731 40.900335 
L 86.499877 40.940004 
L 86.787342 41.242168 
L 86.797488 41.217691 
L 86.946293 41.071412 
L 87.017314 41.102 
L 87.051134 41.049016 
L 87.054516 41.054567 
L 87.068043 41.083537 
L 87.260814 40.973058 
L 87.264196 41.011064 
L 87.358891 40.866241 
L 87.362273 40.872725 
L 87.754579 40.95707 
L 87.768106 40.940436 
L 87.893238 41.114708 
L 88.19085 41.067098 
L 88.228051 41.079597 
L 88.305836 41.028843 
L 88.359947 41.034021 
L 88.393766 40.974487 
L 88.410676 40.992337 
L 88.532426 41.102692 
L 88.562864 41.037987 
L 88.67785 41.015103 
L 88.627121 41.087751 
L 88.681232 41.024076 
L 88.698142 41.034821 
L 88.748871 40.946782 
L 88.775926 40.965648 
L 88.934878 40.852042 
L 88.941642 40.861907 
L 89.036336 40.940153 
L 89.070156 40.914914 
L 89.161468 40.931747 
L 89.080302 40.955203 
L 89.174996 40.982176 
L 89.18176 41.005498 
L 89.242635 40.915196 
L 89.276454 40.931053 
L 89.418496 40.940894 
L 89.469225 40.987393 
L 89.435406 40.929289 
L 89.526718 40.933181 
L 89.648469 40.932714 
L 89.68567 40.982154 
L 89.736399 40.882373 
L 89.760073 40.925927 
L 89.908878 40.853874 
L 89.787128 41.000779 
L 89.91226 40.857844 
L 90.044156 40.859955 
L 90.05092 40.888626 
L 90.216635 41.110193 
L 90.220017 41.09212 
L 90.32824 41.013302 
L 90.233545 41.105575 
L 90.345149 41.034203 
L 90.581886 41.082104 
L 90.592032 41.029177 
L 90.703636 40.916507 
L 90.740837 40.939774 
L 90.896407 41.004502 
L 90.899789 40.98747 
L 91.031685 40.892955 
L 91.035066 40.92313 
L 91.068886 40.83584 
L 91.068886 40.83584 
" clip-path="url(#pcea70fc5bf)" style="fill: none; stroke: #000000; stroke-width: 0.6; stroke-linecap: square"/>
   </g>
   <g id="line2d_3">
    <path d="M 9.905557 57.314219 
L 9.976578 57.364506 
L 10.003633 57.285596 
L 10.007015 57.290025 
L 10.115238 57.21353 
L 10.074654 57.316467 
L 10.128765 57.222452 
L 10.20655 57.277047 
L 10.152439 57.206055 
L 10.24037 57.244476 
L 10.426377 57.244582 
L 10.429759 57.224019 
L 10.521071 57.191015 
L 10.480488 57.244607 
L 10.541363 57.204664 
L 10.649585 57.214119 
L 10.595474 57.158787 
L 10.652967 57.197127 
L 10.696932 57.222605 
L 10.767953 57.177646 
L 10.798391 57.231752 
L 10.818683 57.153648 
L 10.876176 57.160706 
L 10.889703 57.13693 
L 10.920141 57.187079 
L 10.98778 57.158532 
L 11.12644 57.177882 
L 11.133204 57.15089 
L 11.238044 57.097561 
L 11.194079 57.203759 
L 11.24819 57.111471 
L 11.339502 57.130925 
L 11.309065 57.068974 
L 11.359794 57.116128 
L 11.488308 56.962203 
L 11.383468 57.159608 
L 11.49169 56.96899 
L 11.603294 57.010408 
L 11.566093 56.929489 
L 11.606676 57.009558 
L 11.643877 56.970599 
L 11.667551 57.053393 
L 11.721662 57.030909 
L 11.836648 57.085202 
L 11.73519 57.012465 
L 11.843412 57.080055 
L 11.846794 57.090587 
L 11.931343 57.013109 
L 11.941489 57.024983 
L 12.080148 56.908666 
L 12.107204 56.947849 
L 12.110586 56.968504 
L 12.157933 56.842235 
L 12.201899 56.861469 
L 12.337176 56.769675 
L 12.340558 56.775287 
L 12.391288 56.647528 
L 12.401433 56.667374 
L 12.509656 56.523409 
L 12.513038 56.533832 
L 12.631406 56.294871 
L 12.648315 56.319485 
L 12.776829 56.061125 
L 12.84785 55.25102 
L 12.861378 51.229178 
L 12.868142 43.763033 
L 12.966218 58.194161 
L 13.307795 55.397039 
L 13.324705 53.019007 
L 13.331469 44.093164 
L 13.426163 58.79731 
L 13.432927 58.747032 
L 13.531003 57.832672 
L 13.865816 54.421971 
L 13.875962 44.009047 
L 13.967275 58.965452 
L 13.970656 59.000401 
L 14.031531 58.49556 
L 14.464421 55.658774 
L 14.491476 54.084789 
L 14.501622 43.965654 
L 14.596317 59.096 
L 14.640282 58.754759 
L 14.917601 56.867004 
L 14.920983 56.873554 
L 15.127282 56.03771 
L 15.181393 55.539568 
L 15.201685 53.925437 
L 15.211831 43.932834 
L 15.306525 59.149929 
L 15.343727 58.86024 
L 15.577081 57.19367 
L 15.580463 57.199506 
L 15.614282 57.051952 
L 15.854401 56.331872 
L 15.867928 56.31036 
L 15.881456 56.235406 
L 15.99306 55.31759 
L 16.006588 53.151081 
L 16.013352 43.887065 
L 16.111428 59.177806 
L 16.476679 56.935787 
L 16.480061 56.946913 
L 16.527408 56.787001 
L 16.544318 56.808001 
L 16.713415 56.430827 
L 16.716797 56.434608 
L 16.750616 56.339412 
L 16.767526 56.338606 
L 16.906186 54.883996 
L 16.919714 43.844719 
L 16.994116 56.352491 
L 17.014408 59.177484 
L 17.109103 58.408549 
L 17.312019 57.146848 
L 17.339075 57.098494 
L 17.328929 57.093059 
L 17.345839 57.051925 
L 17.5217 56.707628 
L 17.717853 56.432386 
L 17.721235 56.435003 
L 17.744909 56.335927 
L 17.930916 54.576377 
L 17.944443 43.861727 
L 18.02561 58.843804 
L 18.039138 59.144792 
L 18.127068 58.386495 
L 18.394242 56.931179 
L 18.881242 55.854423 
L 18.918444 55.070392 
L 18.931972 44.690476 
L 18.935354 43.837565 
L 19.002993 53.28859 
L 19.030048 59.138481 
L 19.124743 58.338659 
L 19.317514 57.129407 
L 19.452791 56.78476 
L 19.469701 56.802815 
L 19.473083 56.809942 
L 19.527194 56.695499 
L 19.540722 56.706824 
L 19.78084 56.277144 
L 19.784222 56.288384 
L 19.790986 56.313115 
L 19.838333 56.134572 
L 19.929646 54.835343 
L 19.943174 43.824763 
L 20.017576 56.519909 
L 20.037868 59.151537 
L 20.129181 58.368862 
L 20.4065 56.914824 
L 20.595889 56.619373 
L 20.599271 56.628475 
L 20.633091 56.525535 
L 20.663528 56.516527 
L 20.78866 56.397875 
L 21.022014 55.74189 
L 21.059216 54.665671 
L 21.072744 43.836023 
L 21.150528 58.4633 
L 21.164056 59.092664 
L 21.258751 58.267992 
L 21.488723 56.94422 
L 21.624001 56.670063 
L 21.627383 56.675747 
L 21.725459 56.572362 
L 21.891175 56.15476 
L 21.989251 54.922561 
L 22.006161 43.877745 
L 22.077182 56.035091 
L 22.100855 59.138189 
L 22.192168 58.34776 
L 22.466106 56.881838 
L 22.486397 56.896345 
L 22.547272 56.784376 
L 22.554036 56.801146 
L 22.767099 56.594763 
L 22.794154 56.615383 
L 22.827974 56.512677 
L 22.83812 56.515612 
L 22.953106 56.218733 
L 23.078238 54.258628 
L 23.088384 43.807587 
L 23.179696 59.115602 
L 23.183078 59.133895 
L 23.227043 58.781908 
L 23.544946 56.919631 
L 23.697134 56.684203 
L 23.737717 56.698022 
L 23.788447 56.609057 
L 23.79521 56.6133 
L 23.910197 56.422381 
L 23.825648 56.622695 
L 23.920342 56.443624 
L 24.092822 56.14446 
L 24.099586 56.151778 
L 24.197662 55.7977 
L 24.238245 54.647878 
L 24.251773 43.83497 
L 24.329558 58.517105 
L 24.343086 59.045637 
L 24.434398 58.254116 
L 24.735391 56.761477 
L 24.755683 56.803425 
L 24.762447 56.831146 
L 24.809794 56.709854 
L 24.85376 56.733392 
L 24.955218 56.662868 
L 24.870669 56.792424 
L 24.995801 56.696442 
L 25.093878 56.782787 
L 25.019475 56.681267 
L 25.114169 56.723467 
L 25.415163 56.497844 
L 25.131079 56.741011 
L 25.435454 56.524275 
L 25.47942 56.583716 
L 25.550441 56.516362 
L 25.614698 56.58171 
L 25.662045 56.482411 
L 25.675573 56.455339 
L 25.736448 56.571647 
L 25.73983 56.558111 
L 25.773649 56.507919 
L 25.875107 56.625371 
L 26.020531 56.640299 
L 26.023913 56.617244 
L 26.057732 56.605615 
L 26.094934 56.695004 
L 26.199774 56.881835 
L 26.22683 56.842647 
L 26.236976 56.819942 
L 26.301233 56.950877 
L 26.307997 56.94973 
L 26.31476 56.966138 
L 26.392545 56.877025 
L 26.412837 56.913018 
L 26.433129 56.869751 
L 26.514295 56.980542 
L 26.517677 56.977582 
L 26.551497 57.073912 
L 26.568406 57.058118 
L 26.680011 57.151686 
L 26.690156 57.145966 
L 26.69692 57.129075 
L 26.764559 57.259601 
L 26.781469 57.258248 
L 26.784851 57.25044 
L 26.822052 57.367224 
L 26.845726 57.371968 
L 27.041879 57.669964 
L 27.048643 57.664884 
L 27.07908 57.622727 
L 27.136573 57.729563 
L 27.312435 58.058227 
L 27.32258 58.054072 
L 27.47815 58.184591 
L 27.572844 58.320217 
L 27.603282 58.295348 
L 27.630338 58.279779 
L 27.694594 58.365657 
L 27.853546 58.548777 
L 27.883983 58.534704 
L 27.900893 58.487129 
L 27.971914 58.572187 
L 27.995588 58.519422 
L 28.147775 58.709003 
L 28.168067 58.691151 
L 28.191741 58.784326 
L 28.249234 58.757413 
L 28.60772 58.84898 
L 28.611102 58.817919 
L 28.678741 58.816246 
L 28.702414 58.877455 
L 28.715942 58.907225 
L 28.786963 58.792152 
L 28.827546 58.770744 
L 28.864748 58.873751 
L 29.057519 58.962507 
L 29.060901 58.947186 
L 29.155595 58.890847 
L 29.270581 58.825685 
L 29.206324 58.904703 
L 29.273963 58.831392 
L 29.290873 58.838298 
L 29.35513 58.718758 
L 29.375422 58.681535 
L 29.791401 58.881021 
L 29.930061 58.723791 
L 29.940207 58.751842 
L 30.109304 58.80248 
L 30.116068 58.794943 
L 30.217526 58.757783 
L 30.160033 58.833633 
L 30.231054 58.771387 
L 30.339276 58.881556 
L 30.356186 58.857368 
L 30.423825 58.914987 
L 30.46779 58.88833 
L 30.471172 58.896353 
L 30.532047 58.766875 
L 30.535429 58.767027 
L 30.569249 58.808463 
L 30.667325 58.776472 
L 30.890534 59.051558 
L 30.677471 58.752304 
L 30.914207 59.002082 
L 30.978464 58.964776 
L 30.924353 59.012519 
L 31.015666 59.049266 
L 31.025812 59.07071 
L 31.049485 58.964279 
L 31.117124 59.01684 
L 31.140798 59.052862 
L 31.235492 58.994911 
L 31.411353 59.143525 
L 31.252402 58.98428 
L 31.418117 59.105683 
L 31.550013 59.109567 
L 31.553395 59.10064 
L 31.627798 59.095029 
L 31.597361 59.126822 
L 31.661617 59.12507 
L 31.932173 59.032085 
L 31.99643 58.9021 
L 32.053923 58.977941 
L 32.381972 58.845658 
L 32.486812 58.77823 
L 32.446229 58.894045 
L 32.503722 58.818041 
L 32.561215 58.853821 
L 32.520632 58.784777 
L 32.615326 58.809029 
L 32.730313 58.74074 
L 32.74384 58.753705 
L 32.845299 58.755348 
L 32.811479 58.690858 
L 32.852063 58.727026 
L 33.044834 58.635285 
L 33.10909 58.556173 
L 33.163202 58.601681 
L 33.28157 58.675452 
L 33.312007 58.655934 
L 33.437139 58.524431 
L 33.349209 58.670091 
L 33.443903 58.557797 
L 33.592709 58.540235 
L 33.470959 58.603461 
L 33.596091 58.544636 
L 33.687403 58.493072 
L 33.602855 58.527092 
L 33.690785 58.469072 
L 33.856501 58.294511 
L 33.866646 58.304755 
L 33.917376 58.302466 
L 33.87341 58.295393 
L 33.941049 58.226336 
L 34.059417 58.068065 
L 34.066181 58.077529 
L 34.069563 58.103421 
L 34.147348 57.998298 
L 34.16764 58.034666 
L 34.245424 58.023491 
L 34.258952 58.072738 
L 34.27248 58.060889 
L 34.942105 57.949892 
L 34.948869 57.983341 
L 34.959015 57.960795 
L 35.094293 58.056271 
L 35.161932 58.066299 
L 35.17546 58.137628 
L 35.283682 58.157723 
L 35.202515 58.099045 
L 35.290446 58.13035 
L 35.439251 57.904808 
L 35.533946 57.889394 
L 35.500127 57.769667 
L 35.54071 57.865499 
L 35.601585 57.847511 
L 35.632022 57.916578 
L 35.64555 57.897941 
L 35.848467 57.905797 
L 35.858613 57.868894 
L 35.933016 57.817949 
L 35.865377 57.876054 
L 35.983745 57.843565 
L 36.267828 57.906077 
L 35.990509 57.822164 
L 36.281356 57.847209 
L 36.291502 57.875614 
L 36.44369 57.736709 
L 36.467363 57.862542 
L 36.558676 57.771677 
L 36.643224 57.695286 
L 36.744683 57.614417 
L 36.761592 57.655602 
L 36.89687 57.569349 
L 36.768356 57.665506 
L 36.900252 57.585823 
L 36.950981 57.52815 
L 37.130225 57.723755 
L 37.218155 57.672714 
L 37.143752 57.747151 
L 37.241829 57.723942 
L 37.268884 57.815334 
L 37.343287 57.699798 
L 37.465037 57.592279 
L 37.468419 57.595338 
L 37.509003 57.630478 
L 37.559732 57.512801 
L 37.576642 57.571179 
L 37.630753 57.622435 
L 37.664572 57.501177 
L 37.772794 57.434013 
L 37.684864 57.526607 
L 37.796468 57.457993 
L 37.874253 57.530964 
L 37.914836 57.463946 
L 38.050114 57.40572 
L 38.056878 57.419873 
L 38.18201 57.442827 
L 38.067024 57.408397 
L 38.19892 57.418357 
L 38.354489 57.311783 
L 38.364635 57.327581 
L 38.483003 57.430719 
L 38.4086 57.318612 
L 38.489767 57.414471 
L 38.584462 57.360339 
L 38.499913 57.428654 
L 38.608135 57.369796 
L 38.726503 57.461939 
L 38.740031 57.429335 
L 38.80767 57.290366 
L 38.861781 57.311523 
L 39.419802 57.222852 
L 39.57199 57.154469 
L 39.578754 57.164284 
L 39.622719 57.093186 
L 39.690358 57.145315 
L 39.842546 57.194694 
L 39.930476 57.092567 
L 39.957532 57.150115 
L 39.984587 57.184725 
L 40.062372 57.116151 
L 40.065754 57.123042 
L 40.184122 57.120406 
L 40.187504 57.110232 
L 40.272053 57.171462 
L 40.305872 57.081797 
L 40.623775 56.79113 
L 40.745525 56.680319 
L 40.633921 56.810232 
L 40.762435 56.701996 
L 40.867275 56.648889 
L 40.769199 56.711821 
L 40.884185 56.694893 
L 40.985643 56.68374 
L 40.94506 56.630595 
L 40.995789 56.673649 
L 41.005935 56.691955 
L 41.178414 56.532647 
L 41.215616 56.562059 
L 41.266345 56.45077 
L 41.273109 56.453782 
L 41.482789 54.679298 
L 41.496317 43.761542 
L 41.580866 57.907731 
L 41.591012 58.24877 
L 41.682324 57.450567 
L 41.946116 54.47905 
L 41.956262 44.107966 
L 42.044193 58.709731 
L 42.050956 58.791789 
L 42.121977 58.154697 
L 42.453408 55.406402 
L 42.470318 51.81536 
L 42.477082 44.043807 
L 42.571776 59.026555 
L 42.575158 59.021579 
L 43.06554 54.820949 
L 43.079068 43.980304 
L 43.156853 57.998541 
L 43.173763 59.120366 
L 43.268457 58.338255 
L 43.555923 56.609251 
L 43.748694 54.781536 
L 43.762221 43.934027 
L 43.840006 58.177307 
L 43.856916 59.187402 
L 43.95161 58.427171 
L 44.144381 57.137031 
L 44.147763 57.146239 
L 44.191728 56.948009 
L 44.19511 56.952225 
L 44.232312 56.838325 
L 44.418319 56.258249 
L 44.421701 56.26004 
L 44.431847 56.270499 
L 44.479194 56.073755 
L 44.533305 55.725644 
L 44.563743 54.089899 
L 44.573888 43.891946 
L 44.665201 59.152123 
L 44.668583 59.148076 
L 44.736222 58.612528 
L 44.939139 57.222595 
L 44.942521 57.235279 
L 44.989868 57.024594 
L 44.996632 57.025279 
L 45.277333 56.297904 
L 45.378792 55.831657 
L 45.419375 54.651846 
L 45.432903 43.883666 
L 45.514069 58.871703 
L 45.527597 59.177716 
L 45.615528 58.432862 
L 46.095764 56.525262 
L 46.102528 56.529152 
L 46.170167 56.244111 
L 46.298681 55.419346 
L 46.315591 52.911808 
L 46.322355 43.856475 
L 46.417049 59.191143 
L 46.420431 59.185162 
L 46.528653 58.286586 
L 46.73157 57.085381 
L 46.876994 56.771391 
L 46.88714 56.774721 
L 46.893904 56.780976 
L 46.910813 56.705537 
L 46.944633 56.69456 
L 47.14755 56.244307 
L 47.194897 56.000165 
L 47.262536 54.855383 
L 47.276063 43.844197 
L 47.350466 56.666952 
L 47.370758 59.17547 
L 47.462071 58.418304 
L 47.746154 56.950501 
L 47.752918 56.930924 
L 47.810411 56.873114 
L 47.989654 56.468483 
L 47.9998 56.482933 
L 48.266974 55.207765 
L 48.280502 48.996128 
L 48.287265 43.855771 
L 48.38196 59.170881 
L 48.936599 56.638114 
L 48.939981 56.646742 
L 48.956891 56.676499 
L 49.031294 56.583043 
L 49.034676 56.586334 
L 49.244356 55.28376 
L 49.257884 51.680801 
L 49.264648 43.824133 
L 49.359342 59.195699 
L 49.362724 59.191873 
L 49.873398 56.743008 
L 49.886926 56.706394 
L 49.961329 56.669395 
L 50.093225 56.39663 
L 50.110134 56.43236 
L 50.113516 56.434671 
L 50.140572 56.363146 
L 50.17101 56.339587 
L 50.302905 55.624255 
L 50.326579 53.498561 
L 50.336725 43.846429 
L 50.431419 59.156054 
L 50.472003 58.821608 
L 50.691829 57.232393 
L 50.695211 57.239993 
L 50.864308 56.853141 
L 50.86769 56.867956 
L 50.871072 56.879942 
L 50.945475 56.738349 
L 51.124718 56.484078 
L 51.259996 56.254254 
L 51.263378 56.270073 
L 51.331017 56.061338 
L 51.358073 55.944556 
L 51.412184 54.344035 
L 51.42233 43.825978 
L 51.513642 59.102095 
L 51.517024 59.12884 
L 51.571135 58.67931 
L 51.963441 56.76779 
L 52.433532 55.477943 
L 52.453823 52.947963 
L 52.460587 43.848928 
L 52.5519 59.089853 
L 52.558664 59.076608 
L 53.00508 56.794943 
L 53.164032 56.530387 
L 53.167414 56.54501 
L 53.231671 56.417846 
L 53.434588 54.316201 
L 53.444734 43.834833 
L 53.536046 59.113285 
L 53.54281 59.134605 
L 53.576629 58.834398 
L 53.874241 57.000995 
L 53.887768 57.013366 
L 54.056866 56.729202 
L 54.06363 56.752409 
L 54.097449 56.774644 
L 54.161706 56.688672 
L 54.259783 56.769869 
L 54.181998 56.655106 
L 54.293602 56.710008 
L 54.408588 56.625628 
L 54.756929 56.070333 
L 54.844859 54.770264 
L 54.858387 43.792793 
L 54.936172 58.123686 
L 54.953082 59.053252 
L 55.047776 58.220661 
L 55.304804 56.800524 
L 55.308186 56.802417 
L 55.321714 56.755529 
L 55.348769 56.71303 
L 55.470519 56.643527 
L 55.392735 56.756715 
L 55.473901 56.65129 
L 55.477283 56.664774 
L 55.555068 56.564344 
L 55.57536 56.599218 
L 55.724165 56.406032 
L 55.744457 56.430918 
L 55.805332 56.470929 
L 55.778276 56.391206 
L 55.842533 56.376206 
L 55.883117 56.419228 
L 55.960902 56.336032 
L 56.190874 55.616155 
L 56.214548 54.349017 
L 56.224693 43.810571 
L 56.316006 58.995586 
L 56.319388 59.012559 
L 56.359971 58.672544 
L 56.657582 56.760691 
L 56.667728 56.770777 
L 56.67111 56.790423 
L 56.742131 56.579809 
L 56.745513 56.589844 
L 56.884173 56.45492 
L 56.769187 56.603282 
L 56.890937 56.465385 
L 56.917992 56.491577 
L 56.982249 56.362556 
L 57.124291 56.193228 
L 57.202076 55.987576 
L 57.269715 55.117077 
L 57.283243 46.397498 
L 57.286624 43.843271 
L 57.374555 58.955649 
L 57.384701 59.016175 
L 57.445576 58.453171 
L 57.722896 56.790205 
L 57.743187 56.826948 
L 57.942722 56.530307 
L 57.946104 56.549477 
L 58.291063 55.972656 
L 58.35532 54.684092 
L 58.368847 43.830116 
L 58.446632 58.368286 
L 58.463542 59.048366 
L 58.554854 58.220789 
L 58.72057 57.111093 
L 58.872757 56.762842 
L 59.079056 56.486774 
L 59.095966 56.504202 
L 59.109494 56.539947 
L 59.170369 56.40614 
L 59.197424 56.443468 
L 59.22448 56.463799 
L 59.244771 56.377755 
L 59.295501 56.394633 
L 59.48489 55.864988 
L 59.528855 54.121335 
L 59.539001 43.804078 
L 59.630313 59.049191 
L 59.633695 59.071415 
L 59.681042 58.655257 
L 60.151133 56.641052 
L 60.157897 56.649993 
L 60.191716 56.666604 
L 60.212008 56.571374 
L 60.269501 56.635775 
L 60.306703 56.589007 
L 60.323612 56.545228 
L 60.431835 56.493172 
L 60.35405 56.565363 
L 60.438598 56.507562 
L 60.44198 56.519182 
L 60.506237 56.354227 
L 60.553585 56.222392 
L 60.756501 55.134293 
L 60.770029 47.873687 
L 60.776793 43.850748 
L 60.868106 58.993982 
L 60.871488 58.97887 
L 61.243502 56.701926 
L 61.253647 56.715817 
L 61.273939 56.650236 
L 61.300995 56.622864 
L 61.358488 56.488598 
L 61.422745 56.569964 
L 61.558023 56.524369 
L 61.564787 56.542685 
L 61.574932 56.573181 
L 61.60537 56.466137 
L 61.652717 56.472377 
L 61.801523 56.178201 
L 61.886071 55.894263 
L 61.933419 54.566299 
L 61.946946 43.830059 
L 62.028113 58.735518 
L 62.041641 59.031695 
L 62.129572 58.254326 
L 62.332488 56.915748 
L 62.609808 56.544768 
L 62.616572 56.553292 
L 62.680829 56.49197 
L 62.650391 56.458604 
L 62.687593 56.473928 
L 62.964912 55.361303 
L 62.981822 52.162211 
L 62.988586 43.818152 
L 63.079898 59.065106 
L 63.086662 59.044585 
L 63.150919 58.486079 
L 63.391038 56.953952 
L 63.394419 56.957411 
L 63.431621 56.838888 
L 64.135066 56.09271 
L 64.226378 53.968115 
L 64.236524 43.808038 
L 64.331219 59.044664 
L 64.838511 56.548182 
L 64.865566 56.568498 
L 64.99408 56.580842 
L 65.007608 56.539202 
L 65.129358 56.372482 
L 65.139504 56.37473 
L 65.386386 55.153276 
L 65.399914 47.967932 
L 65.406678 43.838744 
L 65.49799 59.020617 
L 65.501372 59.014829 
L 65.589303 58.235425 
L 65.771928 57.045216 
L 65.778692 57.049276 
L 65.920733 56.708046 
L 65.924115 56.712948 
L 66.069539 56.572604 
L 66.076303 56.590681 
L 66.083067 56.62517 
L 66.167615 56.484785 
L 66.170997 56.485378 
L 66.252164 56.513793 
L 66.282602 56.459092 
L 66.319803 56.433178 
L 66.306275 56.418553 
L 66.350241 56.379499 
L 66.53963 55.340142 
L 66.553157 53.410331 
L 66.563303 43.832941 
L 66.654616 59.061662 
L 66.657998 59.056072 
L 66.678289 58.911173 
L 66.965755 56.949077 
L 67.019866 56.88248 
L 67.023248 56.851972 
L 67.111178 56.719515 
L 67.151762 56.743178 
L 67.219401 56.730087 
L 67.172053 56.709264 
L 67.232929 56.695747 
L 67.351297 56.504375 
L 67.361442 56.527245 
L 67.364824 56.542399 
L 67.398644 56.461222 
L 67.456137 56.449053 
L 67.608325 56.214569 
L 67.615088 56.226076 
L 67.659054 56.041542 
L 67.723311 54.495243 
L 67.733457 43.825558 
L 67.821387 58.942655 
L 67.831533 59.07664 
L 67.909318 58.393557 
L 68.115617 57.006294 
L 68.12238 56.977174 
L 68.17311 56.9084 
L 68.78186 56.103509 
L 68.866409 54.885196 
L 68.879936 43.808506 
L 68.954339 55.353245 
L 68.974631 59.077163 
L 69.069325 58.270786 
L 69.316207 56.949183 
L 69.593527 56.620633 
L 69.603673 56.631708 
L 69.613819 56.656684 
L 69.654402 56.580745 
L 69.705131 56.58287 
L 69.864083 56.303644 
L 69.952013 56.327671 
L 69.91143 56.269661 
L 69.972305 56.288821 
L 70.158312 55.329248 
L 70.17184 53.347483 
L 70.181986 43.829218 
L 70.273298 59.016887 
L 70.27668 59.014243 
L 70.378139 58.105567 
L 70.706187 56.689844 
L 70.736625 56.7082 
L 70.777208 56.621636 
L 70.800882 56.653927 
L 70.942924 56.462332 
L 70.953069 56.512544 
L 71.041 56.386202 
L 71.071438 56.419631 
L 71.250681 55.547799 
L 71.270972 53.856131 
L 71.281118 43.820891 
L 71.375813 59.087791 
L 71.818848 56.738743 
L 71.82223 56.739481 
L 72.028528 56.454414 
L 71.835757 56.774257 
L 72.03191 56.462276 
L 72.052202 56.459831 
L 72.096167 56.366344 
L 72.305848 55.436826 
L 72.322758 53.891497 
L 72.332904 43.841582 
L 72.424216 59.053897 
L 72.427598 59.03906 
L 72.478327 58.603553 
L 72.799612 56.8203 
L 72.806376 56.829232 
L 72.853723 56.706921 
L 73.080314 56.657208 
L 73.120897 56.691453 
L 73.185154 56.619717 
L 73.208828 56.635354 
L 73.259557 56.536134 
L 73.262939 56.534437 
L 73.269703 56.549938 
L 73.448946 56.215133 
L 73.526731 55.621197 
L 73.550404 54.085763 
L 73.56055 43.796675 
L 73.655245 59.092663 
L 73.658626 59.097469 
L 73.675536 58.950864 
L 74.192974 56.662339 
L 74.514259 56.392484 
L 74.524405 56.432787 
L 74.537932 56.454869 
L 74.578516 56.327495 
L 74.696884 56.141587 
L 74.791578 55.224052 
L 74.805106 50.310764 
L 74.81187 43.811042 
L 74.906565 59.042324 
L 74.909947 59.023912 
L 75.336072 56.708585 
L 75.3496 56.723765 
L 75.396947 56.647017 
L 75.430766 56.654446 
L 75.582954 56.506407 
L 75.73176 56.319202 
L 75.735141 56.334608 
L 75.799398 56.109243 
L 75.887329 55.445454 
L 75.904239 54.102274 
L 75.914385 43.816469 
L 76.005697 59.050227 
L 76.009079 59.063971 
L 76.046281 58.760776 
L 76.283017 57.092992 
L 76.289781 57.089173 
L 76.313454 56.989412 
L 76.519753 56.613401 
L 76.533281 56.649503 
L 76.573864 56.666284 
L 76.604302 56.569789 
L 76.638121 56.629543 
L 76.763253 56.443243 
L 76.766635 56.451498 
L 77.033809 56.211189 
L 77.131885 54.631268 
L 77.145413 43.807717 
L 77.22658 58.647141 
L 77.240108 59.073984 
L 77.33142 58.284478 
L 77.524191 57.034391 
L 77.69667 56.672061 
L 77.737254 56.72279 
L 77.777837 56.608625 
L 77.781219 56.62404 
L 77.879295 56.551049 
L 77.899587 56.560553 
L 78.014573 56.51318 
L 77.916497 56.582446 
L 78.021337 56.52145 
L 78.085594 56.456109 
L 78.038247 56.487882 
L 78.09574 56.438113 
L 78.268219 55.227364 
L 78.281747 49.842081 
L 78.288511 43.816025 
L 78.383205 59.080281 
L 78.386587 59.07465 
L 78.670671 57.007628 
L 78.674053 57.029193 
L 78.677435 57.035315 
L 78.724782 56.892619 
L 78.863442 56.681329 
L 78.866824 56.681966 
L 78.904025 56.692983 
L 78.920935 56.637366 
L 78.975046 56.662863 
L 79.083268 56.472185 
L 79.12047 56.49143 
L 79.123852 56.515542 
L 79.205018 56.379847 
L 79.215164 56.387289 
L 79.414699 55.377314 
L 79.431609 49.866186 
L 79.438373 43.812906 
L 79.533067 59.089587 
L 79.536449 59.08501 
L 79.905081 56.809241 
L 79.928755 56.844242 
L 79.982866 56.721904 
L 79.986248 56.725981 
L 80.016685 56.74908 
L 80.107998 56.641488 
L 80.11138 56.644519 
L 80.151963 56.548592 
L 80.158727 56.551851 
L 80.192547 56.569644 
L 80.307533 56.34402 
L 80.540887 55.941201 
L 80.59838 54.577361 
L 80.611908 43.83712 
L 80.693075 58.768587 
L 80.706603 59.023717 
L 80.791151 58.251811 
L 81.112436 56.722523 
L 81.376228 56.487263 
L 81.399902 56.521019 
L 81.433721 56.583642 
L 81.50136 56.458948 
L 81.602818 56.386792 
L 81.62311 56.403701 
L 81.876756 55.388658 
L 81.893666 52.441124 
L 81.90043 43.803876 
L 81.995124 59.01965 
L 81.998506 59.010099 
L 82.062763 58.42787 
L 82.323173 56.842258 
L 82.468597 56.606972 
L 82.573437 56.586299 
L 82.512562 56.543338 
L 82.576819 56.572867 
L 82.90825 55.987283 
L 82.972507 54.850725 
L 82.986034 43.825372 
L 83.060437 56.496642 
L 83.080729 59.046788 
L 83.172041 58.239022 
L 83.577875 56.583384 
L 83.581257 56.59059 
L 84.02091 55.983728 
L 84.088549 54.767261 
L 84.102077 43.815564 
L 84.179861 58.32915 
L 84.193389 59.030491 
L 84.288084 58.215496 
L 84.565403 56.809267 
L 84.808903 56.563732 
L 84.812285 56.575353 
L 84.863015 56.610887 
L 84.819049 56.565444 
L 84.90698 56.526036 
L 85.052404 56.395701 
L 85.055785 56.404795 
L 85.123424 56.271267 
L 85.265466 55.152345 
L 85.278994 46.67596 
L 85.282376 43.820923 
L 85.373688 59.025904 
L 85.37707 59.066906 
L 85.441327 58.531828 
L 85.647626 57.08943 
L 85.651008 57.093128 
L 85.809959 56.720718 
L 85.813341 56.728035 
L 85.88098 56.628054 
L 85.894508 56.646667 
L 86.026404 56.496887 
L 85.918182 56.67102 
L 86.05346 56.515982 
L 86.134626 56.470859 
L 86.138008 56.442259 
L 86.151536 56.458224 
L 86.256376 56.397354 
L 86.273286 56.420198 
L 86.330779 56.305367 
L 86.340925 56.314482 
L 86.493113 55.011885 
L 86.510022 43.807107 
L 86.581043 54.656884 
L 86.604717 59.041925 
L 86.696029 58.237011 
L 87.007168 56.700624 
L 87.02746 56.731339 
L 87.139064 56.591261 
L 87.646356 55.806673 
L 87.683558 54.861761 
L 87.697085 43.821039 
L 87.771488 56.469537 
L 87.795162 59.015745 
L 87.883093 58.201359 
L 88.272016 56.608279 
L 88.366711 56.620105 
L 88.299072 56.574997 
L 88.380239 56.590867 
L 88.532426 56.433145 
L 88.579773 56.46119 
L 88.623739 56.350755 
L 88.880767 55.627065 
L 88.90444 54.116859 
L 88.914586 43.809932 
L 89.005899 59.019603 
L 89.022808 58.934934 
L 89.310274 56.926384 
L 89.482753 56.611896 
L 89.516573 56.647589 
L 89.567302 56.572852 
L 89.587593 56.581456 
L 89.952844 55.916075 
L 90.000191 54.979924 
L 90.017101 43.833929 
L 90.091503 57.126571 
L 90.111795 59.07821 
L 90.203108 58.259432 
L 90.497337 56.791631 
L 90.504101 56.796249 
L 90.625851 56.680845 
L 90.761129 56.605459 
L 90.771275 56.610882 
L 90.849059 56.48352 
L 90.97081 56.272743 
L 90.997865 56.278258 
L 91.001247 56.28827 
L 91.068886 56.14205 
L 91.068886 56.14205 
" clip-path="url(#pcea70fc5bf)" style="fill: none; stroke: #000000; stroke-width: 0.6; stroke-linecap: square"/>
   </g>
   <g id="line2d_4">
    <path d="M 95.127221 15.313171 
L 95.127221 8.552195 
" clip-path="url(#pcea70fc5bf)" style="fill: none; stroke: #000000; stroke-width: 1.5; stroke-linecap: square"/>
   </g>
  </g>
 </g>
 <defs>
  <clipPath id="pcea70fc5bf">
   <rect x="7.2" y="7.2" width="89.28" height="55.44"/>
  </clipPath>
 </defs>
</svg>
