<?xml version="1.0" encoding="utf-8" standalone="no"?>
<!DOCTYPE svg PUBLIC "-//W3C//DTD SVG 1.1//EN"
  "http://www.w3.org/Graphics/SVG/1.1/DTD/svg11.dtd">
<svg xmlns:xlink="http://www.w3.org/1999/xlink" width="103.68pt" height="69.84pt" viewBox="0 0 103.68 69.84" xmlns="http://www.w3.org/2000/svg" version="1.1">
 <metadata>
  <rdf:RDF xmlns:dc="http://purl.org/dc/elements/1.1/" xmlns:cc="http://creativecommons.org/ns#" xmlns:rdf="http://www.w3.org/1999/02/22-rdf-syntax-ns#">
   <cc:Work>
    <dc:type rdf:resource="http://purl.org/dc/dcmitype/StillImage"/>
    <dc:date>2022-05-18T12:01:34.359676</dc:date>
    <dc:format>image/svg+xml</dc:format>
    <dc:creator>
     <cc:Agent>
      <dc:title>Matplotlib v3.5.1, https://matplotlib.org/</dc:title>
     </cc:Agent>
    </dc:creator>
   </cc:Work>
  </rdf:RDF>
 </metadata>
 <defs>
  <style type="text/css">*{stroke-linejoin: round; stroke-linecap: butt}</style>
 </defs>
 <g id="figure_1">
  <g id="patch_1">
   <path d="M 0 69.84 
L 103.68 69.84 
L 103.68 0 
L 0 0 
L 0 69.84 
z
" style="fill: none"/>
  </g>
  <g id="axes_1">
   <g id="patch_2">
    <path d="M 7.2 62.64 
L 96.48 62.64 
L 96.48 7.2 
L 7.2 7.2 
L 7.2 62.64 
z
" style="fill: none"/>
   </g>
   <g id="matplotlib.axis_1"/>
   <g id="matplotlib.axis_2"/>
   <g id="line2d_1">
    <path d="M 9.905557 23.808744 
L 9.96305 23.736795 
L 10.027307 23.758063 
L 10.091564 23.752875 
L 10.111856 23.819853 
L 10.220078 23.826091 
L 10.182877 23.726027 
L 10.22346 23.81991 
L 10.331682 23.739243 
L 10.243752 23.835053 
L 10.358738 23.782685 
L 10.443286 23.839999 
L 10.477106 23.748724 
L 10.521071 23.742089 
L 10.561655 23.813504 
L 10.676641 23.929501 
L 10.58871 23.798167 
L 10.690169 23.922557 
L 10.828828 23.792748 
L 10.842356 23.822444 
L 10.920141 23.869553 
L 10.957342 23.84969 
L 11.062183 23.80021 
L 11.07571 23.839874 
L 11.096002 23.874334 
L 11.136585 23.774964 
L 11.156877 23.775234 
L 11.288773 23.659397 
L 11.295537 23.661651 
L 11.305683 23.691276 
L 11.390231 23.582373 
L 11.518745 23.482092 
L 11.525509 23.498426 
L 11.589766 23.532129 
L 11.552565 23.462335 
L 11.623586 23.457767 
L 11.667551 23.362794 
L 11.738572 23.423872 
L 11.748718 23.445043 
L 11.816357 23.335029 
L 11.84003 23.37959 
L 12.269537 23.278463 
L 11.850176 23.413488 
L 12.272919 23.297351 
L 12.384524 23.339061 
L 12.299975 23.288433 
L 12.387906 23.326715 
L 12.472454 23.344519 
L 12.418343 23.284429 
L 12.496128 23.312842 
L 12.577295 23.250031 
L 12.580677 23.233288 
L 12.715954 23.094393 
L 12.597586 23.252685 
L 12.722718 23.123714 
L 12.753156 23.148792 
L 12.786975 23.060996 
L 12.830941 23.127806 
L 12.891816 22.997022 
L 12.956073 23.084601 
L 13.087968 23.208235 
L 13.098114 23.19199 
L 13.223246 23.113324 
L 13.121788 23.225813 
L 13.226628 23.121086 
L 13.416017 22.862314 
L 13.453219 22.895061 
L 13.547913 22.942016 
L 13.50733 22.863649 
L 13.561441 22.89496 
L 13.618934 22.798354 
L 13.642608 22.919328 
L 13.669663 22.905304 
L 13.673045 22.910551 
L 13.696719 22.847428 
L 13.740684 22.82929 
L 13.794795 22.870045 
L 13.869198 22.743878 
L 13.913163 22.785182 
L 13.882726 22.72864 
L 13.97742 22.750146 
L 14.089025 22.706379 
L 14.045059 22.831657 
L 14.095788 22.717406 
L 14.356198 22.585647 
L 14.390018 22.608983 
L 14.484712 22.46151 
L 14.596317 22.486122 
L 14.511768 22.422683 
L 14.613226 22.445625 
L 14.72483 22.244659 
L 14.751886 22.276538 
L 14.992004 22.15561 
L 15.01906 22.191334 
L 15.137428 22.040965 
L 15.259178 22.057203 
L 15.154338 22.003354 
L 15.26256 22.045831 
L 15.269324 22.054577 
L 15.316671 21.940812 
L 15.323435 21.952939 
L 15.441803 21.914067 
L 15.377546 22.004827 
L 15.451949 21.918511 
L 15.512824 21.931055 
L 15.529734 21.855128 
L 15.533116 21.853557 
L 15.64472 21.69511 
L 15.671775 21.727473 
L 15.928803 21.45366 
L 15.678539 21.735878 
L 15.942331 21.468999 
L 15.945713 21.486971 
L 16.016734 21.335446 
L 16.02688 21.342795 
L 16.28729 19.169344 
L 16.300817 8.695535 
L 16.381984 24.119925 
L 16.527408 22.65124 
L 16.686359 19.203227 
L 16.696505 8.992381 
L 16.784436 24.419521 
L 16.787818 24.430855 
L 16.825019 24.188652 
L 16.956915 22.84222 
L 17.119248 20.056171 
L 17.132776 15.660992 
L 17.13954 9.117511 
L 17.234235 24.491378 
L 17.237617 24.473991 
L 17.474353 22.042951 
L 17.599485 18.514418 
L 17.609631 9.144004 
L 17.700943 24.563469 
L 17.704325 24.553916 
L 17.998554 21.685743 
L 18.110159 18.408612 
L 18.120305 9.098761 
L 18.204853 24.624314 
L 18.214999 24.613485 
L 18.522756 22.014336 
L 18.678326 18.821578 
L 18.688472 9.007827 
L 18.776402 24.681143 
L 18.779784 24.677878 
L 18.938736 23.658695 
L 19.327659 19.645844 
L 19.344569 9.018314 
L 19.405444 22.43235 
L 19.4325 24.679968 
L 19.52043 24.173593 
L 19.625271 23.443215 
L 20.051396 19.232011 
L 20.064924 8.976878 
L 20.142708 24.644113 
L 20.14609 24.682132 
L 20.220493 24.312132 
L 20.501195 22.448754 
L 20.761605 21.049111 
L 20.900264 20.089285 
L 20.920556 18.424519 
L 20.930702 9.029437 
L 21.011869 24.616094 
L 21.022014 24.570082 
L 21.126855 23.898878 
L 21.596945 20.999063 
L 21.600327 21.005654 
L 21.634147 20.830924 
L 21.738987 19.369516 
L 21.755897 9.067201 
L 21.820154 24.312449 
L 21.840445 24.647745 
L 21.924994 24.148466 
L 22.598001 20.579826 
L 22.635203 20.4077 
L 22.679168 19.635412 
L 22.692696 13.555418 
L 22.69946 9.088023 
L 22.777245 24.5854 
L 22.794154 24.503925 
L 22.895613 23.849911 
L 23.298064 21.478899 
L 23.301446 21.481475 
L 23.572002 20.41273 
L 23.615967 19.418675 
L 23.632877 9.01462 
L 23.69037 23.567853 
L 23.710662 24.641381 
L 23.801974 24.135692 
L 24.363377 21.316928 
L 24.701572 20.696399 
L 24.752301 20.718381 
L 24.786121 20.631533 
L 24.887579 20.512637 
L 24.904489 20.522865 
L 24.968746 20.513084 
L 24.928162 20.547095 
L 25.005947 20.560659 
L 25.662045 21.575766 
L 25.675573 21.526485 
L 25.682336 21.503707 
L 25.719538 21.61152 
L 25.780413 21.549783 
L 25.96642 21.795359 
L 25.973184 21.791119 
L 26.027295 21.871864 
L 26.047587 21.844192 
L 26.152427 21.97863 
L 26.223448 21.989627 
L 26.186246 22.035371 
L 26.257267 22.013781 
L 26.422983 22.343781 
L 26.433129 22.313086 
L 26.510913 22.407876 
L 26.663101 22.782958 
L 26.676629 22.768045 
L 26.680011 22.752971 
L 26.744268 22.912127 
L 26.754413 22.912493 
L 27.116282 23.501652 
L 27.146719 23.489764 
L 27.167011 23.545588 
L 27.204212 23.55687 
L 27.383455 23.86307 
L 27.396983 23.849461 
L 27.58299 24.228342 
L 27.735178 24.412472 
L 27.82649 24.401658 
L 27.806199 24.447258 
L 27.840018 24.437485 
L 28.032789 24.618468 
L 28.039553 24.585323 
L 28.168067 24.569101 
L 28.188359 24.616262 
L 28.272907 24.649058 
L 28.22556 24.577304 
L 28.303345 24.613202 
L 28.310109 24.597215 
L 28.38113 24.709408 
L 28.394657 24.702949 
L 28.431859 24.649057 
L 28.709178 24.869151 
L 28.814019 24.812804 
L 28.719324 24.898365 
L 28.830928 24.838005 
L 28.922241 24.958325 
L 28.976352 24.932224 
L 28.98988 24.868562 
L 29.054137 24.951993 
L 29.084574 24.936676 
L 29.135304 25.036726 
L 29.192797 24.921255 
L 29.314547 25.031567 
L 29.324693 25.077602 
L 29.365276 24.998686 
L 29.422769 25.006258 
L 29.5107 25.028151 
L 29.456589 24.982533 
L 29.534373 25.008298 
L 29.551283 24.988254 
L 29.612158 25.117524 
L 29.656123 25.156622 
L 29.713616 25.085752 
L 29.72038 25.097796 
L 29.879332 25.011677 
L 29.7542 25.137742 
L 29.896242 25.04883 
L 30.024755 25.082803 
L 30.034901 25.031915 
L 30.132978 25.045908 
L 30.045047 25.057283 
L 30.139742 25.068505 
L 30.210763 25.098716 
L 30.146506 25.064503 
L 30.247964 25.050451 
L 30.36295 24.927306 
L 30.25811 25.059822 
L 30.376478 25.003928 
L 30.457645 25.037498 
L 30.410297 24.986633 
L 30.4847 24.979569 
L 30.491464 24.946031 
L 30.565867 25.024223 
L 30.596304 24.98035 
L 30.714673 24.991163 
L 30.721436 24.966446 
L 30.833041 24.893691 
L 30.843186 24.920127 
L 31.025812 25.02612 
L 30.84995 24.908509 
L 31.049485 24.982357 
L 31.140798 24.967087 
L 31.161089 25.000829 
L 31.167853 25.051388 
L 31.252402 24.947578 
L 31.262548 24.953728 
L 31.272694 24.973964 
L 31.313277 24.868935 
L 31.320041 24.864037 
L 31.441791 24.785496 
L 31.336951 24.87085 
L 31.451937 24.797112 
L 31.478992 24.810687 
L 31.543249 24.72612 
L 31.654854 24.705223 
L 31.566923 24.754035 
L 31.658236 24.732727 
L 31.773222 24.862538 
L 31.783368 24.831215 
L 31.881444 24.816615 
L 31.847625 24.896321 
L 31.894972 24.82833 
L 31.942319 24.883341 
L 31.976138 24.79574 
L 32.009958 24.838562 
L 32.091125 24.756722 
L 32.124944 24.807056 
L 32.141854 24.841535 
L 32.219639 24.744796 
L 32.260222 24.695496 
L 32.310951 24.785728 
L 32.321097 24.782081 
L 32.449611 24.795755 
L 32.341389 24.718398 
L 32.456375 24.769707 
L 32.53416 24.66513 
L 32.625472 24.694494 
L 32.649146 24.630334 
L 32.730313 24.712508 
L 32.764132 24.637722 
L 32.8825 24.592802 
L 32.912938 24.562366 
L 32.980577 24.660742 
L 32.983958 24.646175 
L 33.034688 24.631699 
L 33.088799 24.679663 
L 33.220695 24.785723 
L 33.224077 24.76746 
L 33.349209 24.666794 
L 33.447285 24.714066 
L 33.355973 24.660194 
L 33.460813 24.660926 
L 33.582563 24.562913 
L 33.616382 24.69136 
L 33.700931 24.613586 
L 33.775334 24.582271 
L 33.809153 24.639124 
L 33.903848 24.560888 
L 33.954577 24.648504 
L 34.042508 24.794647 
L 33.968105 24.644808 
L 34.076327 24.730956 
L 34.093237 24.745479 
L 34.201459 24.623072 
L 34.282626 24.669483 
L 34.316445 24.623583 
L 34.390848 24.619638 
L 34.333355 24.681065 
L 34.407758 24.685894 
L 34.488925 24.782909 
L 34.529508 24.739368 
L 34.617439 24.713416 
L 34.647876 24.777882 
L 34.925196 24.795484 
L 35.074001 24.589376 
L 35.195751 24.653597 
L 35.087529 24.580984 
L 35.202515 24.640206 
L 35.216043 24.609991 
L 35.303974 24.692102 
L 35.307356 24.687586 
L 35.43587 24.612511 
L 35.439251 24.633933 
L 35.550856 24.72549 
L 35.55762 24.723192 
L 35.571147 24.671711 
L 35.672606 24.720997 
L 35.67937 24.727608 
L 35.723335 24.567435 
L 35.750391 24.588913 
L 35.841703 24.518023 
L 35.909342 24.409164 
L 35.976981 24.449199 
L 35.993891 24.487616 
L 36.064912 24.392721 
L 36.078439 24.395913 
L 36.261064 24.185139 
L 36.267828 24.216828 
L 36.589113 24.155174 
L 36.595877 24.196357 
L 36.599259 24.205471 
L 36.626315 24.086297 
L 36.680426 24.109034 
L 36.825849 24.018807 
L 36.68719 24.129801 
L 36.832613 24.047646 
L 36.839377 24.092842 
L 36.917162 23.864663 
L 36.920544 23.86753 
L 36.934072 23.871532 
L 37.05244 23.739823 
L 37.116697 23.775767 
L 37.160662 23.733613 
L 37.17419 23.714736 
L 37.238447 23.86132 
L 37.245211 23.830933 
L 37.27903 23.856687 
L 37.316232 23.762645 
L 37.346669 23.804133 
L 37.397398 23.748278 
L 37.441364 23.845595 
L 37.448128 23.843716 
L 37.525912 23.970975 
L 37.57326 23.952038 
L 37.603697 23.989299 
L 37.688246 23.931465 
L 37.759267 23.958281 
L 37.722065 23.880127 
L 37.793086 23.907494 
L 37.908072 23.805895 
L 37.918218 23.838307 
L 37.948656 23.851455 
L 37.992621 23.758568 
L 37.996003 23.76352 
L 38.131281 23.657324 
L 38.269941 23.74577 
L 38.276704 23.712897 
L 38.388309 23.648428 
L 38.300378 23.720435 
L 38.395073 23.666331 
L 38.543878 23.812926 
L 38.577698 23.7474 
L 38.645337 23.704391 
L 38.692684 23.721748 
L 38.699448 23.760437 
L 38.770469 23.609322 
L 38.787378 23.632792 
L 38.868545 23.586598 
L 38.892219 23.665975 
L 38.895601 23.654622 
L 39.071462 23.662441 
L 39.074844 23.679414 
L 39.115427 23.659005 
L 39.18983 23.693546 
L 39.960914 23.709391 
L 40.086046 23.542317 
L 40.096192 23.591551 
L 40.21456 23.658809 
L 40.106337 23.584538 
L 40.217942 23.653319 
L 40.322782 23.656193 
L 40.329546 23.626713 
L 40.904477 23.455772 
L 40.907859 23.480626 
L 41.012699 23.515833 
L 40.921386 23.430136 
L 41.029609 23.496508 
L 41.459116 23.150854 
L 41.469262 23.202872 
L 41.496317 23.28602 
L 41.57072 23.170031 
L 41.699234 23.00344 
L 41.58763 23.174926 
L 41.702616 23.010886 
L 41.719526 23.037284 
L 41.783783 22.964079 
L 41.804074 22.973541 
L 41.915679 22.980464 
L 41.854804 23.018672 
L 41.919061 22.999895 
L 41.973172 22.991881 
L 42.003609 22.928801 
L 42.149033 22.763219 
L 42.152415 22.772237 
L 42.223436 22.790578 
L 42.169325 22.745119 
L 42.250491 22.724521 
L 42.328276 22.810429 
L 42.355332 22.832826 
L 42.389151 22.754348 
L 42.429734 22.76072 
L 42.433116 22.756637 
L 42.477082 22.844081 
L 42.493991 22.839338 
L 42.61236 22.971394 
L 42.629269 22.931813 
L 42.73411 22.905113 
L 42.690144 23.006406 
L 42.740874 22.916208 
L 42.82204 22.913002 
L 42.781457 22.847798 
L 42.845714 22.884228 
L 42.852478 22.895315 
L 42.987756 22.805063 
L 43.058776 22.818243 
L 43.079068 22.762155 
L 43.092596 22.767759 
L 43.329332 22.553557 
L 43.339478 22.571343 
L 43.454464 22.651157 
L 43.349624 22.552107 
L 43.457846 22.643076 
L 43.532249 22.618211 
L 43.522103 22.682907 
L 43.566068 22.660121 
L 43.599888 22.71985 
L 43.664145 22.60981 
L 43.992194 22.349433 
L 44.154527 22.202472 
L 44.168055 22.269463 
L 44.252604 22.132135 
L 44.255985 22.147201 
L 44.370972 21.936706 
L 44.387881 21.990091 
L 45.027069 20.633509 
L 45.074416 19.310209 
L 45.087944 8.726359 
L 45.162347 24.045371 
L 45.169111 24.13709 
L 45.246896 23.495397 
L 45.382174 21.784496 
L 45.483632 19.111806 
L 45.493778 8.99558 
L 45.58509 24.409596 
L 45.676403 23.697447 
L 45.923285 19.155291 
L 45.933431 9.109884 
L 46.021361 24.456599 
L 46.024743 24.463986 
L 46.055181 24.279558 
L 46.373084 20.046065 
L 46.386612 15.861779 
L 46.393376 9.131777 
L 46.484688 24.537134 
L 46.491452 24.506757 
L 46.745098 22.07471 
L 46.883758 19.278224 
L 46.893904 9.112884 
L 46.978452 24.566324 
L 46.985216 24.593128 
L 47.046091 24.238343 
L 47.438397 19.319299 
L 47.451925 9.08567 
L 47.529709 24.557949 
L 47.539855 24.636901 
L 47.614258 24.209822 
L 48.060675 19.038801 
L 48.070821 9.006837 
L 48.158751 24.68778 
L 48.446217 22.727916 
L 48.760738 17.738523 
L 48.770884 9.039268 
L 48.85205 24.679764 
L 48.865578 24.637174 
L 49.065113 23.361806 
L 49.399926 21.213827 
L 49.403308 21.214813 
L 49.525058 20.482242 
L 49.569023 19.369893 
L 49.582551 9.027664 
L 49.653572 24.444454 
L 49.663718 24.628606 
L 49.75503 24.140091 
L 50.174391 21.420954 
L 50.177773 21.431131 
L 50.221739 21.233042 
L 50.225121 21.23371 
L 50.404364 19.730457 
L 50.417892 13.237993 
L 50.424655 9.019421 
L 50.50244 24.638076 
L 50.515968 24.6145 
L 50.965767 21.795786 
L 50.982677 21.732524 
L 50.989441 21.690333 
L 51.226177 20.784006 
L 51.259996 20.749964 
L 51.26676 20.681482 
L 51.351309 20.287827 
L 51.38851 19.269606 
L 51.40542 9.158235 
L 51.469677 24.378857 
L 51.479823 24.551956 
L 51.564371 24.028881 
L 51.703031 23.047399 
L 51.922858 21.652931 
L 52.261052 19.594945 
L 52.277962 9.080677 
L 52.335455 22.842896 
L 52.362511 24.651195 
L 52.450441 24.128416 
L 52.974643 21.405097 
L 52.978025 21.410923 
L 53.015226 21.262875 
L 53.018608 21.264326 
L 53.174178 20.965959 
L 53.187706 20.975792 
L 53.228289 20.872138 
L 53.251963 20.866555 
L 53.50899 20.047836 
L 53.532664 18.28156 
L 53.546192 9.238333 
L 53.617213 24.548505 
L 53.634123 24.507229 
L 54.256401 21.24935 
L 54.44579 20.878803 
L 54.449172 20.899859 
L 54.530338 20.790193 
L 54.547248 20.812503 
L 54.696054 20.682953 
L 54.577686 20.823263 
L 54.699436 20.697672 
L 54.878679 20.939604 
L 54.723109 20.645769 
L 54.888825 20.927234 
L 54.922644 20.928666 
L 54.946318 20.99654 
L 54.966609 21.001298 
L 55.081596 21.175211 
L 55.091741 21.142733 
L 55.095123 21.137366 
L 55.125561 21.231802 
L 55.162762 21.238153 
L 55.396117 21.571228 
L 55.467137 21.551086 
L 55.4367 21.592497 
L 55.504339 21.594783 
L 55.511103 21.581207 
L 55.69711 21.90474 
L 55.83577 22.152537 
L 55.839151 22.141352 
L 55.903408 22.128772 
L 55.869589 22.16957 
L 55.94061 22.175933 
L 56.187492 22.492908 
L 56.244985 22.48846 
L 56.272041 22.56901 
L 56.278805 22.567542 
L 56.606853 22.95998 
L 56.664346 23.109835 
L 56.82668 23.383423 
L 56.833444 23.379864 
L 57.016069 23.61067 
L 57.103999 23.714793 
L 57.29677 24.066042 
L 57.134437 23.697157 
L 57.303534 24.060873 
L 57.482777 24.311689 
L 57.317062 24.028477 
L 57.516597 24.275886 
L 57.597764 24.389956 
L 57.729659 24.538369 
L 57.614673 24.381983 
L 57.733041 24.519512 
L 57.790534 24.614796 
L 57.902139 24.712977 
L 57.912285 24.689092 
L 58.067854 24.521946 
L 57.929194 24.707459 
L 58.074618 24.538873 
L 58.155785 24.561653 
L 58.091528 24.504634 
L 58.18284 24.509652 
L 58.314736 24.365699 
L 58.324882 24.379306 
L 58.402667 24.471819 
L 58.439868 24.39773 
L 58.507507 24.351044 
L 58.551472 24.429952 
L 58.740861 24.617798 
L 58.565 24.419799 
L 58.774681 24.572885 
L 58.852466 24.562805 
L 58.828792 24.636203 
L 58.879521 24.605675 
L 59.072292 24.567846 
L 59.133167 24.503584 
L 59.177132 24.60474 
L 59.386813 24.413449 
L 59.417251 24.4676 
L 59.424015 24.497068 
L 59.498417 24.352337 
L 59.501799 24.356024 
L 59.569438 24.391691 
L 59.522091 24.407446 
L 59.586348 24.424919 
L 59.731772 24.535222 
L 59.81632 24.604105 
L 59.853522 24.498405 
L 60.012473 24.54017 
L 60.022619 24.498834 
L 60.090258 24.588563 
L 60.117314 24.570657 
L 60.127459 24.52367 
L 60.276265 24.535951 
L 61.027057 24.334439 
L 61.030439 24.355805 
L 61.06764 24.393718 
L 61.114988 24.290905 
L 61.121752 24.291732 
L 61.226592 24.212213 
L 61.135279 24.29848 
L 61.250266 24.274831 
L 61.321286 24.256135 
L 61.304377 24.213291 
L 61.348342 24.226494 
L 61.514057 24.211882 
L 61.517439 24.199086 
L 61.656099 24.060002 
L 61.747412 24.141957 
L 61.700064 24.046384 
L 61.771085 24.089928 
L 61.899599 23.925185 
L 61.902981 23.936114 
L 61.990912 23.970114 
L 62.021349 23.945066 
L 62.119426 24.008304 
L 62.149863 23.964348 
L 62.23103 23.916117 
L 62.200592 23.989478 
L 62.258086 23.985796 
L 62.268231 23.954163 
L 62.295287 24.047382 
L 62.359544 24.030328 
L 62.481294 24.085729 
L 62.373072 23.993975 
L 62.488058 24.064907 
L 62.690975 24.052058 
L 62.494822 24.086184 
L 62.694357 24.058976 
L 62.71803 24.047308 
L 62.833016 24.212672 
L 62.97844 24.092078 
L 62.991968 24.124359 
L 63.076517 24.049546 
L 63.106954 24.145429 
L 63.232086 24.098117 
L 63.235468 24.104533 
L 63.313253 24.132011 
L 63.340308 24.083563 
L 63.451913 24.020601 
L 63.455295 24.02528 
L 63.46544 24.052356 
L 63.539843 23.919681 
L 63.549989 23.956509 
L 63.850982 23.942637 
L 63.891566 23.972016 
L 63.949059 23.903256 
L 63.955823 23.918756 
L 64.111392 23.763456 
L 64.118156 23.769358 
L 64.219614 23.821191 
L 64.168885 23.70885 
L 64.239906 23.778582 
L 64.361656 23.739501 
L 64.36842 23.744445 
L 64.452969 23.784874 
L 64.395476 23.717365 
L 64.480024 23.752619 
L 64.503698 23.685513 
L 64.561191 23.8331 
L 64.618684 23.851412 
L 64.588247 23.789054 
L 64.662649 23.795263 
L 64.770872 23.716982 
L 64.787781 23.737217 
L 64.858802 23.693548 
L 64.902768 23.800738 
L 65.031281 23.669622 
L 64.923059 23.825262 
L 65.044809 23.685581 
L 65.159795 23.767227 
L 65.169941 23.74699 
L 65.173323 23.730178 
L 65.261254 23.804326 
L 65.2714 23.8047 
L 65.284927 23.816818 
L 65.352566 23.707057 
L 65.355948 23.712274 
L 65.372858 23.756156 
L 65.477698 23.690003 
L 65.484462 23.709134 
L 65.572393 23.609633 
L 65.711053 23.531157 
L 65.72458 23.549964 
L 65.778692 23.537868 
L 65.761782 23.48938 
L 65.822657 23.502843 
L 65.998518 23.317546 
L 66.005282 23.34774 
L 66.10674 23.402604 
L 66.039101 23.289519 
L 66.120268 23.364044 
L 66.255546 23.241428 
L 66.296129 23.340564 
L 66.363768 23.210914 
L 66.526102 23.197061 
L 66.529484 23.18091 
L 66.678289 22.981039 
L 66.681671 22.999036 
L 66.729019 23.055042 
L 66.776366 22.933497 
L 66.779748 22.936394 
L 66.847387 22.811351 
L 66.894734 22.905076 
L 67.016484 22.855578 
L 67.111178 22.755297 
L 67.134852 22.775353 
L 67.188963 22.844858 
L 67.222783 22.763432 
L 67.246456 22.776295 
L 67.314095 22.747305 
L 67.27013 22.840217 
L 67.347915 22.806371 
L 67.388498 22.844387 
L 67.435845 22.750144 
L 67.452755 22.77405 
L 67.517012 22.748938 
L 67.493338 22.817553 
L 67.571123 22.782318 
L 67.608325 22.776849 
L 67.642144 22.711372 
L 67.760512 22.619317 
L 67.662436 22.730514 
L 67.763894 22.624136 
L 67.824769 22.583881 
L 67.797714 22.549853 
L 67.834915 22.538492 
L 67.865352 22.482135 
L 67.929609 22.631956 
L 68.075033 22.861222 
L 68.085179 22.845832 
L 68.149436 22.818723 
L 68.186637 22.880058 
L 68.190019 22.879042 
L 68.230603 22.956069 
L 68.274568 22.836924 
L 68.29486 22.862158 
L 68.369262 22.91471 
L 68.413228 22.821515 
L 68.419992 22.841406 
L 68.507922 22.719391 
L 68.653346 22.701366 
L 68.758186 22.693211 
L 68.768332 22.667239 
L 68.829207 22.582418 
L 68.900228 22.606502 
L 68.964485 22.599774 
L 68.988159 22.533216 
L 69.082853 22.474566 
L 69.120055 22.516296 
L 69.136964 22.535268 
L 69.170784 22.441212 
L 69.218131 22.462008 
L 69.319589 22.464541 
L 69.282388 22.388174 
L 69.333117 22.4366 
L 69.471777 22.271486 
L 69.498833 22.296681 
L 69.590145 22.33601 
L 69.54618 22.276471 
L 69.613819 22.299085 
L 70.161694 21.89839 
L 70.25977 21.854087 
L 70.266534 21.884158 
L 70.269916 21.932711 
L 70.327409 21.834067 
L 70.374757 21.849005 
L 70.618257 21.575135 
L 70.736625 21.427272 
L 70.740007 21.42859 
L 71.017326 21.296999 
L 71.243917 19.517052 
L 71.260827 8.71775 
L 71.325084 23.60379 
L 71.341993 24.273091 
L 71.433306 23.523821 
L 71.673424 20.16466 
L 71.686952 18.28686 
L 71.693716 8.97606 
L 71.78841 24.575013 
L 71.791792 24.565307 
L 72.177334 19.744421 
L 72.190862 9.034305 
L 72.258501 20.550202 
L 72.285556 24.631456 
L 72.373487 24.06419 
L 72.681244 20.868477 
L 72.731973 18.244273 
L 72.742119 9.042172 
L 72.833432 24.677148 
L 72.836814 24.651629 
L 72.894307 24.319011 
L 73.337342 18.638841 
L 73.347487 8.967229 
L 73.435418 24.717525 
L 73.442182 24.688148 
L 73.499675 24.393853 
L 74.034023 19.054647 
L 74.044168 8.981779 
L 74.132099 24.728403 
L 74.135481 24.732286 
L 74.159155 24.60547 
L 74.338398 23.505757 
L 74.608953 21.646973 
L 74.869363 19.397469 
L 74.882891 9.017773 
L 74.95053 24.265523 
L 74.96744 24.674102 
L 75.058752 24.176715 
L 75.711468 19.886564 
L 75.724996 17.435292 
L 75.735141 9.007598 
L 75.812926 24.673838 
L 75.829836 24.626396 
L 75.931294 24.004477 
L 76.161267 22.512452 
L 76.665177 19.392662 
L 76.682086 9.027561 
L 76.742961 24.091926 
L 76.759871 24.653132 
L 76.851184 24.131587 
L 77.419351 21.153882 
L 77.422733 21.157156 
L 77.459934 21.039624 
L 77.662851 19.976216 
L 77.683143 16.924772 
L 77.693288 9.059298 
L 77.771073 24.620184 
L 77.787983 24.564644 
L 78.35615 21.381626 
L 78.623324 20.704821 
L 78.646997 20.726783 
L 78.650379 20.742048 
L 78.724782 20.582339 
L 78.829622 19.09122 
L 78.84315 9.185295 
L 78.917553 24.579077 
L 78.924317 24.593086 
L 78.944609 24.473972 
L 79.056213 23.728761 
L 79.320005 22.056047 
L 79.631144 21.012184 
L 79.637907 21.016942 
L 79.644671 21.030375 
L 79.708928 20.886133 
L 79.715692 20.898602 
L 79.945665 20.523178 
L 80.009922 20.338032 
L 80.060651 19.138119 
L 80.077561 9.18706 
L 80.145199 24.535055 
L 80.155345 24.581971 
L 80.226366 24.168792 
L 80.845262 21.122065 
L 80.85879 21.155453 
L 81.021124 20.950065 
L 81.024505 20.961722 
L 81.149637 21.061346 
L 81.254478 21.11607 
L 81.274769 21.062111 
L 81.311971 21.024652 
L 81.359318 21.135099 
L 81.372846 21.119374 
L 81.51827 21.198499 
L 81.393138 21.107134 
L 81.531797 21.175939 
L 81.548707 21.178808 
L 81.579145 21.299337 
L 82.603874 22.548985 
L 82.722243 22.650112 
L 82.63093 22.524789 
L 82.725624 22.648905 
L 82.986034 22.920274 
L 83.131458 23.259412 
L 83.486562 23.835561 
L 83.493326 23.813387 
L 83.560965 23.93051 
L 83.699625 24.150584 
L 83.703007 24.131002 
L 83.709771 24.104859 
L 83.790938 24.247368 
L 83.872104 24.340044 
L 83.909306 24.299731 
L 83.943125 24.220576 
L 84.024292 24.272564 
L 84.129132 24.389564 
L 84.152806 24.329973 
L 84.727737 24.669173 
L 84.856251 24.68755 
L 84.859633 24.684511 
L 84.863015 24.668444 
L 84.957709 24.743692 
L 84.961091 24.738292 
L 85.106515 24.862186 
L 85.113279 24.856243 
L 85.231647 24.872659 
L 85.235029 24.883473 
L 85.265466 24.941809 
L 85.346633 24.901503 
L 85.370306 24.862649 
L 85.421036 24.950158 
L 85.454855 24.91168 
L 85.51573 24.977519 
L 85.566459 24.920068 
L 85.640862 24.887808 
L 85.576605 24.924216 
L 85.6713 24.940538 
L 85.749084 25.04177 
L 85.809959 24.957394 
L 85.924946 24.914367 
L 85.826869 24.975077 
L 85.928328 24.922945 
L 85.968911 24.989619 
L 86.009494 24.842346 
L 86.195501 24.95763 
L 86.209029 24.912192 
L 86.269904 24.862227 
L 86.317251 24.93473 
L 86.334161 24.900998 
L 86.411946 25.01557 
L 86.50664 25.011311 
L 86.422092 24.992635 
L 86.52355 24.962978 
L 86.621627 24.927055 
L 86.547224 25.005776 
L 86.635154 24.965948 
L 86.76705 24.890457 
L 86.6453 24.978181 
L 86.773814 24.893777 
L 87.216849 25.006132 
L 87.318308 25.046242 
L 87.247287 24.978902 
L 87.328453 25.021445 
L 87.44344 24.904517 
L 87.456967 24.916105 
L 87.524606 24.944558 
L 87.511078 24.892239 
L 87.56519 24.903628 
L 87.690322 24.707439 
L 87.727523 24.756301 
L 87.80869 24.817081 
L 87.835745 24.771608 
L 87.933822 24.632478 
L 87.954113 24.645476 
L 87.977787 24.678624 
L 88.021752 24.532778 
L 88.048808 24.529985 
L 88.15703 24.490962 
L 88.163794 24.508655 
L 88.241579 24.415519 
L 88.288926 24.47409 
L 88.711669 24.234198 
L 88.302454 24.506264 
L 88.735343 24.276076 
L 88.775926 24.286763 
L 88.802982 24.189995 
L 88.806364 24.194235 
L 88.890913 24.259864 
L 88.928114 24.169048 
L 89.016045 24.304344 
L 88.93826 24.156648 
L 89.07692 24.185934 
L 89.262927 24.236237 
L 89.083683 24.177589 
L 89.269691 24.20737 
L 89.367767 24.187849 
L 89.289982 24.237628 
L 89.374531 24.215534 
L 89.384677 24.260359 
L 89.40835 24.18212 
L 89.482753 24.204894 
L 89.925788 24.313437 
L 89.92917 24.289122 
L 89.969753 24.311761 
L 90.057684 24.206743 
L 90.06783 24.241116 
L 90.118559 24.130014 
L 90.169288 24.204192 
L 90.179434 24.167829 
L 90.267365 24.265218 
L 90.362059 24.282 
L 90.284274 24.227138 
L 90.385733 24.255321 
L 90.558212 24.298866 
L 90.683344 24.43432 
L 90.696872 24.424951 
L 90.991101 24.246919 
L 90.997865 24.260838 
L 91.011393 24.281149 
L 91.024921 24.234516 
L 91.068886 24.240786 
" clip-path="url(#p17377dae03)" style="fill: none; stroke: #000000; stroke-width: 0.6; stroke-linecap: square"/>
   </g>
   <g id="line2d_2">
    <path d="M 9.905557 42.232144 
L 9.939376 42.270008 
L 10.030689 42.208045 
L 10.152439 42.284549 
L 10.159203 42.297766 
L 10.199786 42.173282 
L 10.375648 42.159428 
L 10.389175 42.19138 
L 10.48387 42.225982 
L 10.416231 42.147261 
L 10.497398 42.165827 
L 11.809593 41.88245 
L 11.812975 41.869118 
L 11.877232 42.007428 
L 11.897523 41.98709 
L 11.971926 41.960909 
L 11.914433 41.949976 
L 11.988836 41.935808 
L 12.103822 41.873534 
L 11.998982 41.945532 
L 12.113968 41.881971 
L 12.127496 41.886797 
L 12.171461 41.772546 
L 12.293211 41.774124 
L 12.184989 41.82047 
L 12.296593 41.776716 
L 12.387906 41.814535 
L 12.340558 41.733069 
L 12.408197 41.77496 
L 12.479218 41.69446 
L 12.51642 41.78799 
L 12.63817 41.782215 
L 12.641552 41.771735 
L 12.688899 41.666874 
L 12.756538 41.713789 
L 12.891816 41.6724 
L 12.780211 41.732055 
L 12.895198 41.69615 
L 12.918871 41.708415 
L 12.9696 41.608194 
L 12.983128 41.640044 
L 13.067677 41.45952 
L 13.115024 41.534903 
L 13.236774 41.50889 
L 13.155607 41.616538 
L 13.240156 41.520094 
L 13.338233 41.567776 
L 13.358524 41.556152 
L 13.480274 41.500112 
L 13.405871 41.582225 
L 13.487038 41.503995 
L 13.571587 41.473446 
L 13.531003 41.449506 
L 13.578351 41.438947 
L 13.618934 41.437224 
L 13.639226 41.347053 
L 13.679809 41.257758 
L 13.747448 41.353409 
L 13.75083 41.369893 
L 13.842143 41.269655 
L 13.984184 41.099157 
L 13.862434 41.282674 
L 13.990948 41.11825 
L 14.072115 41.115792 
L 14.095788 41.089697 
L 14.22092 40.996794 
L 14.224302 41.000989 
L 14.258122 41.050901 
L 14.295323 40.959903 
L 14.325761 40.977966 
L 14.450893 40.797428 
L 14.461039 40.817093 
L 14.582789 40.908133 
L 14.505004 40.796958 
L 14.606462 40.890975 
L 14.721449 40.812523 
L 14.623372 40.923048 
L 14.72483 40.831879 
L 14.728212 40.845423 
L 14.77556 40.762878 
L 14.819525 40.765655 
L 15.364018 40.517259 
L 15.3674 40.542124 
L 15.479005 40.566112 
L 15.414748 40.488714 
L 15.48915 40.558292 
L 15.911894 40.648491 
L 15.918658 40.630597 
L 16.047171 40.526229 
L 16.050553 40.54187 
L 16.053935 40.551996 
L 16.128338 40.439524 
L 16.138484 40.457265 
L 16.182449 40.412853 
L 16.233179 40.507193 
L 16.246706 40.481481 
L 16.645776 41.483889 
L 16.659304 41.458862 
L 16.682977 41.394747 
L 16.716797 41.496826 
L 16.764144 41.491331 
L 16.858839 41.547063 
L 16.7912 41.424534 
L 16.89604 41.475847 
L 16.909568 41.449624 
L 16.963679 41.503631 
L 17.00088 41.502721 
L 17.098957 41.555101 
L 17.129394 41.526156 
L 17.132776 41.496611 
L 17.210561 41.614732 
L 17.230853 41.605859 
L 17.312019 41.597641 
L 17.26129 41.668206 
L 17.335693 41.645748 
L 17.366131 41.69171 
L 17.396568 41.60247 
L 17.437151 41.603372 
L 17.50479 41.469896 
L 17.447297 41.622702 
L 17.572429 41.51282 
L 17.738145 41.674777 
L 17.592721 41.496271 
L 17.741527 41.672049 
L 17.870041 41.613499 
L 17.978263 41.688607 
L 17.883568 41.605592 
L 17.988409 41.657572 
L 17.991791 41.624941 
L 18.035756 41.727577 
L 18.096631 41.671239 
L 18.120305 41.617659 
L 18.160888 41.706897 
L 18.214999 41.652864 
L 18.329985 41.71065 
L 18.360423 41.660895 
L 18.40777 41.692236 
L 18.485555 41.588709 
L 18.66818 41.471603 
L 18.678326 41.448389 
L 18.745965 41.556078 
L 18.762874 41.551346 
L 19.175472 41.632567 
L 19.189 41.581363 
L 19.273548 41.433272 
L 19.202527 41.592634 
L 19.334423 41.457635 
L 19.456173 41.583682 
L 20.19682 41.602316 
L 20.28475 41.666152 
L 20.223875 41.584136 
L 20.31857 41.626278 
L 20.342243 41.633939 
L 20.365917 41.560248 
L 20.4065 41.567899 
L 20.531632 41.444948 
L 20.420028 41.583903 
L 20.555306 41.499446 
L 20.734549 41.41321 
L 20.859681 41.328039 
L 20.866445 41.350765 
L 21.03216 41.591537 
L 20.903646 41.278806 
L 21.042306 41.561595 
L 21.06598 41.629129 
L 21.150528 41.608303 
L 21.160674 41.662594 
L 21.235077 41.575267 
L 21.262133 41.648934 
L 21.350063 41.604671 
L 21.30948 41.674979 
L 21.377119 41.633869 
L 21.380501 41.638736 
L 21.43123 41.529939 
L 21.44814 41.552964 
L 21.607091 41.388957 
L 21.624001 41.399597 
L 21.881029 41.671869 
L 21.644293 41.37871 
L 21.884411 41.66268 
L 21.945286 41.615531 
L 21.921612 41.673163 
L 21.992633 41.666512 
L 22.087328 41.672015 
L 22.060272 41.580867 
L 22.094091 41.626447 
L 22.293626 41.420839 
L 22.297008 41.434684 
L 22.641967 41.3306 
L 22.652113 41.385853 
L 22.750189 41.610864 
L 22.784008 41.550235 
L 22.78739 41.547649 
L 22.814446 41.663895 
L 23.189842 41.759361 
L 23.20337 41.710728 
L 23.223662 41.744336 
L 23.358939 41.549443 
L 23.409669 41.521507 
L 23.42996 41.475321 
L 23.538183 41.393786 
L 23.55171 41.427804 
L 23.626113 41.330476 
L 23.686988 41.560083 
L 23.947398 41.675455 
L 23.954162 41.654651 
L 24.015037 41.545548 
L 24.082676 41.583089 
L 24.153697 41.627962 
L 24.190898 41.570367 
L 24.508801 41.472544 
L 24.532475 41.510459 
L 24.59335 41.416998 
L 24.610259 41.416171 
L 24.735391 41.325711 
L 24.742155 41.336804 
L 24.755683 41.402845 
L 24.860524 41.382772 
L 25.002565 41.300785 
L 25.114169 41.295416 
L 25.022857 41.324737 
L 25.120933 41.318671 
L 25.161517 41.386051 
L 25.23592 41.321274 
L 25.337378 41.314715 
L 25.266357 41.363277 
L 25.350906 41.331496 
L 25.509857 41.305776 
L 25.618079 41.204137 
L 25.631607 41.249324 
L 25.638371 41.256171 
L 25.733066 41.269012 
L 25.807468 41.29226 
L 25.756739 41.243189 
L 25.84467 41.28324 
L 25.996857 41.22666 
L 26.007003 41.20193 
L 26.040823 41.318705 
L 26.101698 41.257571 
L 26.145663 41.313257 
L 26.108462 41.245794 
L 26.196392 41.209622 
L 26.33167 41.177449 
L 26.20992 41.22666 
L 26.335052 41.188041 
L 26.433129 41.19568 
L 26.402691 41.135967 
L 26.443274 41.176761 
L 26.737504 41.089199 
L 26.784851 40.97691 
L 26.859254 41.035829 
L 26.960712 41.103404 
L 27.001296 41.084287 
L 27.143337 41.130439 
L 27.295525 40.952362 
L 27.424039 40.820893 
L 27.336108 41.01498 
L 27.437567 40.842321 
L 27.559317 40.919082 
L 27.447712 40.833292 
L 27.569462 40.882613 
L 27.681067 40.767691 
L 27.701358 40.791097 
L 27.72165 40.77987 
L 27.833254 40.889745 
L 27.907657 40.798223 
L 27.846782 40.904127 
L 27.94824 40.912946 
L 27.99897 40.915005 
L 28.015879 40.850642 
L 28.053081 40.879719 
L 28.130866 40.958326 
L 28.171449 40.852312 
L 28.279671 40.842017 
L 28.299963 40.88466 
L 28.34731 40.956974 
L 28.421713 40.905229 
L 28.50288 40.864879 
L 28.442005 40.940737 
L 28.533317 40.898352 
L 28.59081 40.944479 
L 28.546845 40.8514 
L 28.651685 40.904542 
L 28.71256 40.997245 
L 28.715942 41.011983 
L 28.780199 40.884537 
L 28.803873 40.899986 
L 28.905331 40.865698 
L 28.837692 40.978993 
L 28.925623 40.900652 
L 28.996644 40.914384 
L 28.942533 40.861344 
L 29.023699 40.84551 
L 29.152213 40.965893 
L 29.196179 40.935202 
L 29.236762 40.911544 
L 29.284109 40.980062 
L 29.297637 40.975561 
L 29.38895 41.053828 
L 29.426151 41.021873 
L 29.47688 41.019035 
L 29.449825 41.069223 
L 29.524227 41.064483 
L 29.571575 41.098552 
L 29.541137 41.006433 
L 29.629068 41.02856 
L 29.63245 41.017009 
L 29.689943 41.099973 
L 29.733908 41.047584 
L 29.73729 41.065871 
L 29.831985 40.977952 
L 29.909769 40.881492 
L 29.838748 40.987324 
L 29.974026 40.976124 
L 30.095776 41.020324 
L 30.099158 41.018086 
L 30.25811 41.133241 
L 30.116068 40.982562 
L 30.264874 41.10144 
L 30.366332 41.063459 
L 30.325749 41.150507 
L 30.37986 41.083502 
L 30.663943 41.071609 
L 30.670707 41.098677 
L 30.799221 41.118449 
L 30.690999 41.079454 
L 30.805985 41.102905 
L 31.046103 40.963034 
L 30.816131 41.12305 
L 31.052867 40.983936 
L 31.161089 41.039207 
L 31.096832 40.937336 
L 31.177999 40.998153 
L 31.364006 41.10841 
L 31.377534 41.094834 
L 31.407972 41.075816 
L 31.47561 41.137071 
L 31.482374 41.130251 
L 31.49252 41.142959 
L 31.61427 41.088649 
L 31.627798 41.10449 
L 31.698819 40.99239 
L 31.702201 40.999068 
L 31.759694 40.992046 
L 31.796895 41.051046 
L 31.854388 41.109271 
L 31.89159 41.015713 
L 31.905118 41.046476 
L 32.03025 40.992748 
L 32.037014 41.001612 
L 32.13509 41.014891 
L 32.097889 40.94857 
L 32.152 41.00446 
L 32.206111 40.995306 
L 32.246694 41.072085 
L 32.449611 41.151691 
L 32.456375 41.13682 
L 32.595035 40.989829 
L 32.601799 41.021166 
L 32.666056 41.149342 
L 32.784424 41.199204 
L 32.686347 41.121654 
L 32.791188 41.191285 
L 32.889264 41.088929 
L 32.936611 41.137208 
L 32.953521 41.165126 
L 32.970431 41.080626 
L 33.034688 41.085183 
L 33.088799 41.060958 
L 33.10909 41.124178 
L 33.14291 41.105566 
L 33.251132 41.079562 
L 33.180111 41.152508 
L 33.261278 41.088025 
L 33.383028 41.159665 
L 33.460813 41.072325 
L 33.501396 41.140484 
L 33.636674 41.312485 
L 33.643438 41.294851 
L 33.778716 41.379328 
L 33.99516 41.272639 
L 33.998542 41.289655 
L 34.279244 41.267953 
L 34.309681 41.24273 
L 34.357029 41.325365 
L 34.384084 41.283875 
L 34.448341 41.28201 
L 34.475397 41.20847 
L 34.553182 41.211585 
L 34.573473 41.259494 
L 34.789918 41.203249 
L 34.580237 41.271192 
L 34.7933 41.212299 
L 34.830501 41.247057 
L 34.857557 41.182417 
L 34.908286 41.229859 
L 35.070619 41.285954 
L 35.087529 41.247403 
L 35.199133 41.205771 
L 35.151786 41.287477 
L 35.205897 41.209005 
L 35.287064 41.163026 
L 35.222807 41.13877 
L 35.290446 41.156699 
L 35.405432 41.061278 
L 35.408814 41.075863 
L 35.584675 41.160227 
L 35.703043 41.219921 
L 35.713189 41.225384 
L 35.828175 41.178662 
L 35.92287 41.211072 
L 35.946543 41.201974 
L 35.970217 41.155483 
L 35.997273 41.262907 
L 36.04462 41.251872 
L 36.169752 41.313059 
L 36.261064 41.392789 
L 36.18328 41.293136 
L 36.301648 41.354511 
L 36.308412 41.340899 
L 36.355759 41.421708 
L 36.403106 41.385301 
L 36.413252 41.389535 
L 36.453835 41.303951 
L 36.491037 41.317854 
L 36.704099 41.432639 
L 36.80894 41.515915 
L 36.825849 41.464828 
L 36.832613 41.474786 
L 36.971273 41.466527 
L 36.991565 41.523506 
L 37.059204 41.423401 
L 37.082877 41.481009 
L 37.170808 41.302327 
L 37.211391 41.41531 
L 38.300378 41.415571 
L 38.435656 41.249118 
L 38.337579 41.455249 
L 38.439038 41.275554 
L 38.526968 41.36502 
L 38.449184 41.25183 
L 38.567552 41.32882 
L 38.665628 41.277439 
L 38.577698 41.342302 
L 38.68592 41.335921 
L 38.794142 41.445791 
L 38.82458 41.434877 
L 38.953094 41.380924 
L 38.966621 41.366556 
L 39.101899 41.523285 
L 39.15601 41.414121 
L 39.220267 41.49992 
L 39.29467 41.523967 
L 39.227031 41.5264 
L 39.314962 41.560709 
L 39.426566 41.590248 
L 39.440094 41.559588 
L 39.457004 41.492714 
L 39.548316 41.554315 
L 39.636247 41.652907 
L 39.565226 41.544024 
L 39.670066 41.622028 
L 39.768143 41.770249 
L 39.883129 42.272274 
L 39.893275 42.269678 
L 39.981205 42.282627 
L 39.93724 42.25961 
L 40.001497 42.25321 
L 40.031935 42.178953 
L 40.116483 42.25096 
L 40.231469 42.248001 
L 40.143539 42.286696 
L 40.244997 42.274343 
L 40.346456 42.308793 
L 40.278817 42.262646 
L 40.363365 42.29361 
L 40.485115 42.232355 
L 40.775963 42.318726 
L 40.786109 42.270564 
L 40.857129 42.224092 
L 40.82331 42.302958 
L 40.904477 42.245345 
L 46.034889 42.091731 
L 46.072091 42.069315 
L 46.078855 42.120538 
L 46.136348 42.114488 
L 46.163403 42.135495 
L 46.220896 42.042772 
L 46.241188 42.103673 
L 46.275007 42.088638 
L 46.291917 42.144872 
L 46.34941 42.126578 
L 46.555709 42.112145 
L 46.559091 42.09803 
L 46.674077 41.962702 
L 46.582764 42.127211 
L 46.687605 41.972659 
L 46.721424 41.938543 
L 46.775535 42.02913 
L 46.799209 41.98574 
L 46.839792 41.989603 
L 46.883758 41.916748 
L 46.88714 41.899518 
L 46.968306 42.01709 
L 46.988598 41.9303 
L 47.106966 41.983613 
L 47.019036 41.914987 
L 47.110348 41.979477 
L 47.232098 41.990823 
L 47.13064 41.960196 
L 47.23548 41.981086 
L 47.292973 41.864318 
L 47.35723 41.928969 
L 47.519564 41.833927 
L 47.533091 41.8496 
L 47.577057 41.830303 
L 47.65146 41.899207 
L 47.800265 41.812439 
L 47.803647 41.817867 
L 47.918633 41.84417 
L 47.928779 41.826633 
L 48.050529 41.737633 
L 48.053911 41.748014 
L 48.62546 41.645393 
L 48.65928 41.663752 
L 48.753974 41.531075 
L 48.767502 41.504009 
L 48.828377 41.6416 
L 48.896016 41.68459 
L 48.933217 41.638292 
L 49.00762 41.591073 
L 48.980564 41.653707 
L 49.044821 41.622406 
L 49.071877 41.678595 
L 49.136134 41.582382 
L 49.149662 41.605731 
L 49.220683 41.570496 
L 49.16319 41.622305 
L 49.254502 41.618715 
L 49.257884 41.641466 
L 49.322141 41.495231 
L 49.349197 41.511928 
L 49.352579 41.5215 
L 49.383016 41.457904 
L 49.440509 41.446332 
L 49.572405 41.420316 
L 49.582551 41.432863 
L 49.711065 41.634241 
L 49.721211 41.613633 
L 49.839579 41.665194 
L 49.846343 41.654003 
L 49.954565 41.625985 
L 49.870016 41.667107 
L 49.961329 41.636217 
L 49.964711 41.648471 
L 50.022204 41.539785 
L 50.042496 41.54339 
L 50.164246 41.369681 
L 50.174391 41.38469 
L 50.340107 41.528175 
L 50.208211 41.358064 
L 50.343489 41.521674 
L 50.515968 41.566277 
L 50.526114 41.525872 
L 50.566697 41.477072 
L 50.614044 41.593899 
L 50.617426 41.59335 
L 51.026642 41.59873 
L 51.090899 41.432979 
L 51.14501 41.511059 
L 51.205885 41.523521 
L 51.172066 41.489706 
L 51.243086 41.469662 
L 51.324253 41.368473 
L 51.3716 41.386379 
L 51.466295 41.560586 
L 51.564371 41.756064 
L 51.618483 41.722646 
L 51.750378 41.558611 
L 51.75376 41.591603 
L 51.828163 41.521286 
L 51.878892 41.542918 
L 52.017552 41.621935 
L 52.037844 41.574874 
L 52.115629 41.522786 
L 52.156212 41.564952 
L 52.223851 41.456175 
L 52.277962 41.570297 
L 52.29149 41.536879 
L 52.348983 41.623099 
L 52.37942 41.611234 
L 52.846129 41.512259 
L 52.984789 41.414987 
L 53.089629 41.42763 
L 53.062574 41.361631 
L 53.096393 41.400694 
L 53.302692 41.316629 
L 53.312838 41.349881 
L 53.417678 41.35152 
L 53.431206 41.320834 
L 53.481935 41.260684 
L 53.5259 41.384056 
L 53.532664 41.370935 
L 53.809984 41.67637 
L 53.816748 41.661707 
L 53.92497 41.642967 
L 53.864095 41.693404 
L 53.928352 41.643688 
L 54.026428 41.676919 
L 53.975699 41.614549 
L 54.039956 41.644911 
L 54.060248 41.642514 
L 54.094067 41.545253 
L 54.097449 41.545467 
L 54.202289 41.539611 
L 54.148178 41.601238 
L 54.205671 41.549535 
L 54.212435 41.562836 
L 54.266546 41.458214 
L 54.29022 41.470601 
L 54.510047 41.421081 
L 54.564158 41.486904 
L 54.631797 41.375372 
L 54.834713 41.422363 
L 54.848241 41.379704 
L 55.034248 41.149042 
L 54.855005 41.385871 
L 55.068068 41.192022 
L 55.112033 41.238185 
L 55.169526 41.162562 
L 55.17629 41.172795 
L 55.291276 41.124237 
L 55.1932 41.239617 
L 55.304804 41.152132 
L 55.392735 41.228181 
L 55.41979 41.16446 
L 55.450228 41.124479 
L 55.484047 41.237129 
L 55.494193 41.225621 
L 55.54154 41.264606 
L 55.595651 41.194358 
L 55.602415 41.205901 
L 55.609179 41.181259 
L 55.683582 41.290901 
L 55.707256 41.221686 
L 55.710638 41.241256 
L 55.795186 41.090177 
L 55.916936 40.990089 
L 56.015013 40.987223 
L 55.947374 40.957207 
L 56.025159 40.957151 
L 56.160436 40.821079 
L 56.194256 40.851895 
L 56.380263 40.933065 
L 56.20102 40.839383 
L 56.387027 40.917177 
L 56.46143 40.830261 
L 56.414082 40.922251 
L 56.498631 40.912412 
L 56.667728 40.796411 
L 56.70493 40.8536 
L 56.803006 40.903231 
L 56.82668 40.88958 
L 56.921374 40.937417 
L 56.836826 40.915654 
L 56.924756 40.943303 
L 56.94843 41.011955 
L 57.03636 40.956752 
L 57.090472 40.996829 
L 57.151347 40.911738 
L 57.161492 40.94888 
L 57.235895 40.828288 
L 57.252805 40.840986 
L 57.533507 40.810879 
L 57.536889 40.794714 
L 57.621437 40.926626 
L 57.716132 40.924859 
L 57.689076 40.879418 
L 57.729659 40.910056 
L 57.854791 40.796379 
L 58.003597 40.954857 
L 57.915667 40.757069 
L 58.010361 40.927402 
L 58.165931 40.780903 
L 58.822028 41.013405 
L 58.82541 41.045019 
L 58.84232 41.004089 
L 58.93025 40.996034 
L 59.089202 40.953387 
L 59.183896 40.901675 
L 59.146695 41.022949 
L 59.204188 40.913016 
L 59.325938 40.831952 
L 59.227862 40.948572 
L 59.336084 40.863225 
L 59.45107 40.929732 
L 59.386813 40.838658 
L 59.454452 40.926757 
L 59.46798 40.907478 
L 59.525473 40.962721 
L 59.559292 40.943316 
L 59.684424 41.052495 
L 59.613404 40.888728 
L 59.687806 41.04567 
L 59.772355 40.970676 
L 59.812938 41.00066 
L 59.829848 41.008905 
L 59.877195 40.935404 
L 59.900869 40.959086 
L 60.022619 40.840615 
L 60.144369 40.92244 
L 60.803849 41.127935 
L 60.807231 41.108695 
L 60.915453 41.041771 
L 60.84105 41.113962 
L 60.922217 41.059618 
L 61.087932 41.208199 
L 61.098078 41.199054 
L 61.280703 41.102794 
L 61.297613 41.143451 
L 61.405835 41.091894 
L 61.419363 41.100348 
L 61.456564 41.026267 
L 61.497148 41.031214 
L 61.541113 40.966606 
L 61.618898 41.009499 
L 61.659481 41.057495 
L 61.679773 40.978137 
L 61.730502 41.005687 
L 61.757557 40.964826 
L 61.818433 41.083917 
L 61.906363 41.194067 
L 61.835342 41.078143 
L 61.946946 41.182411 
L 62.017967 41.088795 
L 62.088988 41.166971 
L 62.176919 41.11677 
L 62.21412 41.210261 
L 62.227648 41.181551 
L 62.278377 41.289312 
L 62.322343 41.232314 
L 62.35278 41.260096 
L 62.410273 41.174478 
L 62.430565 41.220437 
L 62.494822 41.113901 
L 62.461002 41.235252 
L 62.555697 41.183985 
L 62.586134 41.145779 
L 62.565843 41.20124 
L 62.660537 41.226185 
L 62.812725 41.362168 
L 62.690975 41.201851 
L 62.822871 41.331911 
L 63.039315 41.137721 
L 63.194885 41.022741 
L 63.232086 41.094287 
L 63.350454 41.163343 
L 63.353836 41.159057 
L 63.363982 41.193852 
L 63.374128 41.126945 
L 63.441767 41.094353 
L 63.49926 41.077752 
L 63.475586 41.122034 
L 63.546607 41.10871 
L 63.570281 41.170345 
L 63.644684 41.069545 
L 63.648065 41.070346 
L 63.712322 41.114336 
L 63.75967 41.079146 
L 63.878038 40.994918 
L 63.790107 41.102479 
L 63.905093 41.044544 
L 64.114774 41.18316 
L 63.918621 41.03079 
L 64.131684 41.128204 
L 64.175649 41.173816 
L 64.266962 41.129234 
L 64.300781 41.23707 
L 64.392094 41.16395 
L 64.449587 41.103185 
L 64.402239 41.170711 
L 64.500316 41.180775 
L 64.50708 41.19628 
L 64.513844 41.148632 
L 64.574719 41.11023 
L 64.642358 41.091266 
L 64.601774 41.148819 
L 64.672795 41.141557 
L 64.73367 41.218892 
L 64.693087 41.11953 
L 64.791163 41.179849 
L 64.906149 41.20908 
L 64.831747 41.11699 
L 64.919677 41.176412 
L 64.926441 41.155928 
L 64.990698 41.299629 
L 65.004226 41.281664 
L 65.092157 41.248721 
L 65.044809 41.185488 
L 65.095538 41.233562 
L 65.213907 41.119603 
L 65.230816 41.160814 
L 65.406678 41.318378 
L 65.410059 41.29911 
L 65.525046 41.197807 
L 65.423587 41.321657 
L 65.548719 41.226395 
L 65.61974 41.270092 
L 65.650178 41.196709 
L 65.694143 41.219969 
L 65.768546 41.167564 
L 65.836185 41.249584 
L 65.890296 41.216624 
L 66.299511 41.246341 
L 66.387442 41.186892 
L 66.407734 41.23647 
L 66.424643 41.281066 
L 66.482136 41.18899 
L 66.519338 41.23019 
L 66.543011 41.199653 
L 66.576831 41.29699 
L 66.620796 41.277933 
L 66.735782 41.283025 
L 66.664762 41.205748 
L 66.739164 41.267337 
L 66.816949 41.284367 
L 66.796657 41.324708 
L 66.833859 41.307285 
L 66.948845 41.38816 
L 66.958991 41.360075 
L 67.188963 41.376326 
L 67.192345 41.362459 
L 67.195727 41.332914 
L 67.273512 41.45368 
L 67.293804 41.441924 
L 67.402026 41.444595 
L 67.341151 41.402883 
L 67.405408 41.43511 
L 67.432463 41.420944 
L 67.456137 41.488976 
L 67.489956 41.498418 
L 67.557595 41.52637 
L 67.581269 41.467964 
L 67.598179 41.477976 
L 67.89579 41.452062 
L 67.902554 41.49059 
L 68.010776 41.621576 
L 67.919464 41.477586 
L 68.041214 41.597784 
L 68.115617 41.485367 
L 68.047978 41.603587 
L 68.169728 41.574568 
L 68.281332 41.584487 
L 68.203547 41.542659 
L 68.284714 41.58192 
L 68.443665 41.676643 
L 68.453811 41.658463 
L 68.484249 41.56275 
L 68.551888 41.699562 
L 68.558651 41.693301 
L 68.697311 42.290699 
L 68.704075 42.284406 
L 68.883318 42.232643 
L 68.8867 42.255112 
L 68.930666 42.287812 
L 68.974631 42.18268 
L 68.994923 42.230444 
L 69.120055 42.295443 
L 69.136964 42.271804 
L 69.207985 42.23113 
L 69.224895 42.300167 
L 69.245187 42.292383 
L 71.260827 42.254976 
L 71.325084 42.290434 
L 71.369049 42.254793 
L 71.436688 42.247143 
L 71.396104 42.310995 
L 71.473889 42.290242 
L 71.646368 42.239131 
L 71.653132 42.248518 
L 71.768118 42.269335 
L 71.7715 42.2663 
L 71.839139 42.169985 
L 71.886487 42.24213 
L 72.052202 42.196664 
L 72.17057 42.166547 
L 72.288938 42.221004 
L 72.315994 42.156321 
L 72.380251 42.276694 
L 72.393779 42.25677 
L 72.444508 42.305433 
L 72.512147 42.245481 
L 72.556112 42.294804 
L 72.573022 42.219311 
L 72.623751 42.254506 
L 72.728591 42.221865 
L 72.671098 42.28463 
L 72.738737 42.245081 
L 72.83005 42.259672 
L 72.816522 42.198946 
L 72.846959 42.232453 
L 72.860487 42.201668 
L 72.921362 42.29497 
L 72.955182 42.25457 
L 73.144571 42.166639 
L 73.147953 42.17149 
L 73.225737 42.277632 
L 73.259557 42.185948 
L 73.388071 42.24452 
L 73.472619 42.306167 
L 73.503057 42.286053 
L 73.607897 42.209502 
L 73.509821 42.287799 
L 73.621425 42.265746 
L 73.709356 42.21132 
L 73.655245 42.281362 
L 73.736411 42.251803 
L 73.83787 42.24823 
L 73.82096 42.207262 
L 73.841252 42.229987 
L 73.851397 42.248269 
L 73.966384 42.230304 
L 73.969766 42.247425 
L 74.013731 42.172036 
L 74.071224 42.188315 
L 74.155773 42.268633 
L 74.189592 42.207388 
L 74.196356 42.196453 
L 74.345162 42.194712 
L 74.426328 42.154641 
L 74.456766 42.182795 
L 74.534551 42.205273 
L 74.558224 42.139256 
L 74.561606 42.1476 
L 74.625863 42.219816 
L 74.56837 42.131719 
L 74.686738 42.154873 
L 74.903183 42.100793 
L 74.953912 42.207389 
L 75.014787 42.106726 
L 75.092572 42.058262 
L 75.041842 42.15762 
L 75.133155 42.104234 
L 75.532225 42.054929 
L 75.542371 42.078971 
L 75.606628 41.978665 
L 75.626919 41.9867 
L 75.738523 41.904312 
L 75.674266 42.015138 
L 75.748669 41.939527 
L 75.772343 42.068773 
L 75.880565 42.005295 
L 75.961732 42.075655 
L 75.998933 41.969879 
L 76.036135 42.039588 
L 76.107156 41.941518 
L 76.20185 41.913169 
L 76.157885 41.8671 
L 76.205232 41.900164 
L 76.3236 41.77071 
L 76.347274 41.785139 
L 76.35742 41.844789 
L 76.431822 41.715371 
L 76.458878 41.795047 
L 76.46226 41.806813 
L 76.502843 41.73934 
L 76.556954 41.742425 
L 76.614448 41.717231 
L 76.644885 41.790441 
L 76.665177 41.763586 
L 76.709142 41.812566 
L 76.719288 41.845815 
L 76.780163 41.871978 
L 76.756489 41.794047 
L 76.82751 41.827019 
L 76.895149 41.79607 
L 76.874857 41.850901 
L 76.928969 41.861914 
L 77.037191 41.968589 
L 77.057482 41.923464 
L 77.273927 41.770929 
L 77.280691 41.789491 
L 77.290837 41.789431 
L 77.338184 41.701002 
L 77.443024 41.607537 
L 77.456552 41.62873 
L 77.558011 41.619626 
L 77.568156 41.595591 
L 77.645941 41.53392 
L 77.578302 41.607914 
L 77.689906 41.562798 
L 78.004427 41.78252 
L 78.028101 41.752068 
L 78.264837 41.519109 
L 78.315566 41.503001 
L 78.386587 41.542697 
L 78.400115 41.482506 
L 78.504955 41.553815 
L 78.515101 41.566832 
L 78.589504 41.47373 
L 78.596268 41.488719 
L 78.7214 41.372389 
L 78.849914 41.362424 
L 78.86006 41.430327 
L 78.870206 41.411567 
L 79.022393 41.68422 
L 79.316623 41.56724 
L 79.323386 41.594972 
L 79.33015 41.620197 
L 79.367352 41.520123 
L 79.424845 41.53868 
L 79.512775 41.588231 
L 79.431609 41.528675 
L 79.536449 41.535132 
L 79.654817 41.438895 
L 79.661581 41.443852 
L 79.807005 41.287347 
L 79.952429 41.251176 
L 79.95581 41.259389 
L 80.077561 41.37573 
L 80.087706 41.36527 
L 80.256804 41.627806 
L 80.270331 41.594915 
L 80.344734 41.691588 
L 80.348116 41.698746 
L 80.395463 41.545392 
L 80.584852 41.404744 
L 80.594998 41.425326 
L 80.682929 41.501553 
L 80.706603 41.449985 
L 80.757332 41.439702 
L 80.781005 41.520579 
L 80.794533 41.515375 
L 80.835116 41.564765 
L 80.882464 41.443737 
L 80.895992 41.491117 
L 81.024505 41.383414 
L 81.085381 41.404446 
L 81.122582 41.333179 
L 81.125964 41.341498 
L 81.295061 41.1107 
L 81.335645 41.14891 
L 81.494596 41.169425 
L 81.50136 41.146076 
L 81.643402 41.153983 
L 81.541943 41.207939 
L 81.646784 41.159857 
L 81.724568 41.21274 
L 81.683985 41.146297 
L 81.76177 41.201556 
L 81.910575 41.01593 
L 81.785443 41.209432 
L 81.913957 41.022431 
L 81.98836 41.093996 
L 81.927485 41.018999 
L 82.025562 41.047046 
L 82.147312 40.986988 
L 82.154076 40.991378 
L 82.269062 40.956529 
L 82.296117 40.994733 
L 82.363756 40.914897 
L 82.37052 40.926456 
L 82.421249 40.884813 
L 82.40434 40.935814 
L 82.47536 40.943302 
L 82.573437 41.081545 
L 82.607256 41.042748 
L 82.681659 40.956582 
L 82.698569 40.906108 
L 82.76959 41.002161 
L 82.786499 40.996468 
L 82.918395 41.003125 
L 82.925159 40.993348 
L 83.043527 40.8738 
L 83.046909 40.885496 
L 83.124694 40.821712 
L 83.158514 40.889851 
L 83.290409 40.789711 
L 83.293791 40.797927 
L 83.368194 40.876723 
L 83.41216 40.84904 
L 83.425687 40.885564 
L 83.503472 40.788196 
L 83.618458 40.722978 
L 83.527146 40.812488 
L 83.62184 40.738198 
L 83.706389 40.750405 
L 83.686097 40.69217 
L 83.726681 40.702921 
L 84.233972 40.697513 
L 84.267792 40.748981 
L 84.298229 40.639233 
L 84.338813 40.662985 
L 84.342195 40.648292 
L 84.409834 40.725939 
L 84.440271 40.709793 
L 84.775084 40.698095 
L 84.927271 40.581572 
L 84.988147 40.574654 
L 84.944181 40.548735 
L 85.005056 40.506598 
L 85.032112 40.443195 
L 85.120042 40.508794 
L 85.258702 40.710534 
L 85.13357 40.488766 
L 85.316195 40.677229 
L 85.414272 40.598924 
L 85.329723 40.709557 
L 85.437945 40.656253 
L 85.617189 40.60554 
L 85.451473 40.676833 
L 85.630716 40.63158 
L 85.789668 40.787011 
L 85.806578 40.736308 
L 85.928328 40.739984 
L 85.935091 40.770223 
L 86.087279 40.779522 
L 86.104189 40.751924 
L 86.405182 40.833079 
L 86.537078 40.95022 
L 86.54046 40.940189 
L 86.6453 40.94308 
L 86.550606 40.924944 
L 86.652064 40.922853 
L 86.861745 40.976385 
L 86.868509 40.965718 
L 86.885418 40.924387 
L 86.936148 41.042598 
L 86.980113 40.974627 
L 86.986877 41.00026 
L 87.030842 40.881556 
L 87.074807 40.922843 
L 87.084953 40.912663 
L 87.1323 41.038376 
L 87.135682 41.035345 
L 87.145828 41.027044 
L 87.321689 41.193049 
L 87.328453 41.140176 
L 87.385946 41.218525 
L 87.436676 41.155748 
L 87.511078 41.223693 
L 87.561808 41.200056 
L 87.642974 41.109022 
L 87.68694 41.131317 
L 87.832363 41.185611 
L 87.900002 41.114513 
L 87.869565 41.225718 
L 87.933822 41.234455 
L 88.197614 41.019049 
L 87.950731 41.256254 
L 88.217905 41.049763 
L 88.349801 41.1906 
L 88.353183 41.183664 
L 88.356565 41.192947 
L 88.424204 41.081216 
L 88.430968 41.080491 
L 88.485079 41.053294 
L 88.515516 41.12774 
L 88.545954 41.079992 
L 88.610211 41.137258 
L 88.654176 41.060851 
L 88.671086 41.010261 
L 88.752253 41.099612 
L 88.755635 41.09487 
L 88.874003 41.178338 
L 88.890913 41.151797 
L 88.897676 41.114216 
L 88.968697 41.214535 
L 88.995753 41.18416 
L 89.100593 41.217274 
L 89.134413 41.183015 
L 89.283218 41.033321 
L 89.178378 41.207585 
L 89.300128 41.060737 
L 89.371149 41.148029 
L 89.418496 41.102857 
L 89.773601 41.13006 
L 89.793892 41.090579 
L 89.841239 41.19463 
L 89.854767 41.187647 
L 89.976517 41.287656 
L 89.993427 41.287628 
L 90.010337 41.224655 
L 90.054302 41.219991 
L 90.081358 41.161047 
L 90.15576 41.261137 
L 90.165906 41.217534 
L 90.260601 41.08872 
L 90.301184 41.126059 
L 90.406024 41.204556 
L 90.419552 41.171862 
L 90.534538 41.24796 
L 90.443226 41.151157 
L 90.551448 41.232529 
L 90.564976 41.243152 
L 90.720545 41.088305 
L 90.828768 41.1092 
L 90.747601 41.057579 
L 90.842296 41.074624 
L 90.886261 40.984684 
L 90.943754 41.10532 
L 90.9539 41.073326 
L 91.051976 41.227833 
L 90.967428 41.049089 
L 91.068886 41.210198 
" clip-path="url(#p17377dae03)" style="fill: none; stroke: #000000; stroke-width: 0.6; stroke-linecap: square"/>
   </g>
   <g id="line2d_3">
    <path d="M 9.905557 56.324281 
L 9.99687 56.208843 
L 10.11862 56.184314 
L 10.132147 56.209479 
L 10.155821 56.224998 
L 10.20655 56.146177 
L 10.230224 56.15473 
L 10.297863 56.154989 
L 10.270807 56.200039 
L 10.318154 56.206834 
L 10.402703 56.249967 
L 10.382411 56.173205 
L 10.426377 56.216613 
L 10.480488 56.249088 
L 10.541363 56.158655 
L 10.561655 56.171769 
L 10.639439 56.101023 
L 11.112912 56.233911 
L 11.254954 56.471342 
L 11.315829 56.446532 
L 11.346266 56.534487 
L 11.356412 56.516845 
L 11.549183 56.905227 
L 11.559329 56.888522 
L 11.911051 57.402107 
L 11.924579 57.381965 
L 12.056475 57.311635 
L 11.931343 57.399898 
L 12.059857 57.32294 
L 12.120732 57.423765 
L 12.178225 57.374715 
L 12.34394 57.61697 
L 12.195135 57.350566 
L 12.347322 57.612824 
L 12.431871 57.566953 
L 12.398051 57.628281 
L 12.458926 57.608371 
L 12.584058 57.75062 
L 12.58744 57.743727 
L 12.62126 57.822693 
L 12.671989 57.823477 
L 12.814031 57.970429 
L 12.922253 57.940943 
L 12.841086 57.919349 
L 12.929017 57.927696 
L 12.932399 57.911218 
L 12.9696 58.023435 
L 13.023712 58.006853 
L 13.10826 58.014993 
L 13.030475 58.015253 
L 13.12517 58.047735 
L 13.240156 58.14758 
L 13.253684 58.124325 
L 13.794795 58.121105 
L 13.906399 58.055512 
L 13.913163 58.084448 
L 13.984184 58.094387 
L 13.997712 58.027003 
L 14.014622 58.041947 
L 14.170191 58.062781 
L 14.031531 58.019542 
L 14.180337 58.041502 
L 14.329143 57.859171 
L 14.342671 57.877056 
L 14.464421 57.919719 
L 14.511768 57.852589 
L 14.538823 57.854352 
L 14.548969 57.81714 
L 14.613226 57.900583 
L 14.650428 57.850415 
L 14.674101 57.883941 
L 14.72483 57.730291 
L 14.731594 57.763113 
L 14.74174 57.754027 
L 14.812761 57.842781 
L 14.822907 57.836541 
L 14.914219 57.881434 
L 14.860108 57.806447 
L 14.937893 57.847634 
L 15.03597 57.805235 
L 14.988622 57.864911 
L 15.056261 57.835408 
L 15.066407 57.811626 
L 15.103608 57.893355 
L 15.14081 57.906645 
L 15.3674 57.913254 
L 15.380928 57.904663 
L 15.438421 58.004827 
L 15.451949 57.983514 
L 15.566935 58.068218 
L 15.468859 57.973191 
L 15.580463 58.050594 
L 16.442859 57.910398 
L 16.588283 58.021779 
L 16.449623 57.897909 
L 16.615338 57.978861 
L 16.676213 57.986382 
L 16.696505 58.060978 
L 16.703269 58.043097 
L 16.858839 58.074915 
L 16.723561 58.016021 
L 16.865602 58.042802 
L 17.021172 57.866843 
L 17.065137 57.898354 
L 17.102339 57.79753 
L 17.109103 57.773967 
L 17.183505 57.894583 
L 17.200415 57.890749 
L 17.332311 57.958153 
L 17.210561 57.884243 
L 17.355985 57.942734 
L 17.437151 57.846862 
L 17.477735 57.890509 
L 17.761818 57.817293 
L 17.829457 57.899033 
L 17.876804 57.828259 
L 17.951207 57.897233 
L 17.985027 57.848621 
L 18.123687 57.996953 
L 18.137214 57.986527 
L 18.184562 58.06362 
L 18.214999 58.062165 
L 18.225145 58.054964 
L 18.380714 58.210033 
L 18.509228 58.129435 
L 18.455117 58.253909 
L 18.515992 58.144325 
L 18.630978 58.230066 
L 18.63436 58.2209 
L 18.749347 58.315694 
L 18.77302 58.299769 
L 18.888006 58.201723 
L 18.78993 58.302555 
L 18.898152 58.21284 
L 19.023284 58.093236 
L 19.03343 58.124382 
L 19.036812 58.144264 
L 19.124743 58.064293 
L 19.134888 58.065682 
L 19.27693 57.969551 
L 19.280312 57.970679 
L 19.381771 57.97002 
L 19.303986 57.922897 
L 19.388534 57.950699 
L 19.564396 57.764609 
L 19.567778 57.769273 
L 19.604979 57.751725 
L 19.69291 57.810649 
L 19.784222 57.69928 
L 19.709819 57.818848 
L 19.81466 57.754587 
L 19.841715 57.772381 
L 19.885681 57.696173 
L 19.9195 57.723387 
L 20.010813 57.673503 
L 20.037868 57.681443 
L 20.14609 57.743623 
L 20.152854 57.737625 
L 20.450466 57.995045 
L 20.453847 57.987314 
L 20.754841 57.827335 
L 20.470757 58.014029 
L 20.768368 57.84727 
L 20.812334 57.894368 
L 20.856299 57.79512 
L 20.930702 57.677474 
L 20.971285 57.78507 
L 20.988195 57.737169 
L 21.059216 57.831375 
L 21.072744 57.801734 
L 21.106563 57.908499 
L 21.194494 57.865665 
L 21.468431 58.098615 
L 21.624001 57.965631 
L 21.640911 58.012691 
L 21.725459 58.023199 
L 21.681494 57.963509 
L 21.752515 57.999866 
L 21.766043 58.013133 
L 21.928376 57.855661 
L 21.955432 57.930707 
L 22.043362 57.862341 
L 22.090709 57.960556 
L 22.205696 58.019419 
L 22.327446 57.907446 
L 22.428904 57.933505 
L 22.374793 57.846491 
L 22.43905 57.924999 
L 22.564182 57.812338 
L 22.570946 57.821528 
L 22.652113 57.880638 
L 22.685932 57.81603 
L 22.851647 57.787553 
L 22.861793 57.801574 
L 23.010599 57.945218 
L 23.375849 57.948265 
L 23.467162 57.904768 
L 23.416432 57.95636 
L 23.487453 57.932404 
L 23.494217 57.943836 
L 23.555092 57.819379 
L 23.565238 57.827838 
L 23.622731 57.699656 
L 23.693752 57.752688 
L 23.714044 57.672086 
L 23.747863 57.659878 
L 23.883141 57.603484 
L 24.130023 57.530464 
L 23.900051 57.630826 
L 24.136787 57.559081 
L 24.234863 57.603145 
L 24.180752 57.48954 
L 24.258537 57.577639 
L 24.370141 57.642343 
L 24.495273 57.792134 
L 24.387051 57.619689 
L 24.515565 57.728142 
L 24.617023 57.712063 
L 24.542621 57.76298 
L 24.623787 57.737858 
L 24.759065 57.70504 
L 24.762447 57.690967 
L 24.857142 57.620687 
L 24.880815 57.65612 
L 24.934926 57.670932 
L 24.951836 57.609403 
L 24.978892 57.611438 
L 25.104024 57.469747 
L 25.114169 57.494635 
L 25.117551 57.47937 
L 25.195336 57.624168 
L 25.364434 57.752517 
L 25.2021 57.612957 
L 25.377961 57.720951 
L 25.482802 57.574037 
L 25.530149 57.619064 
L 25.563968 57.678999 
L 25.543677 57.593708 
L 25.638371 57.604832 
L 25.787177 57.503559 
L 25.86158 57.477807 
L 25.892017 57.529934 
L 25.986712 57.598184 
L 26.010385 57.562067 
L 26.145663 57.432191 
L 26.023913 57.581799 
L 26.165955 57.451315 
L 26.534587 57.279928 
L 26.541351 57.298733 
L 26.663101 57.432924 
L 26.680011 57.411418 
L 26.720594 57.496443 
L 26.764559 57.468818 
L 26.805143 57.506963 
L 26.81867 57.452199 
L 26.876163 57.494189 
L 26.950566 57.429686 
L 26.981004 57.533785 
L 27.092608 57.656801 
L 27.1129 57.639276 
L 27.210976 57.628703 
L 27.139955 57.701624 
L 27.23465 57.649221 
L 27.315817 57.678581 
L 27.329344 57.596604 
L 27.336108 57.59831 
L 27.620192 57.450845 
L 27.657393 57.397637 
L 27.72165 57.525233 
L 27.725032 57.521886 
L 27.819727 57.607108 
L 27.748706 57.485269 
L 27.836636 57.525034 
L 27.958386 57.370434 
L 27.968532 57.406745 
L 28.063227 57.423526 
L 28.012497 57.374792 
L 28.073372 57.374981 
L 28.076754 57.373016 
L 28.107192 57.458868 
L 28.117338 57.453996 
L 28.12072 57.487807 
L 28.168067 57.399414 
L 28.222178 57.408384 
L 28.303345 57.453718 
L 28.245852 57.360637 
L 28.337164 57.403929 
L 28.726088 57.350928 
L 28.72947 57.360193 
L 28.807255 57.449237 
L 28.739616 57.357296 
L 28.85122 57.413706 
L 28.929005 57.370082 
L 28.888422 57.442653 
L 28.962824 57.430422 
L 28.966206 57.451511 
L 29.054137 57.327088 
L 29.057519 57.331481 
L 29.253672 57.255392 
L 29.33822 57.244002 
L 29.351748 57.32496 
L 29.382186 57.373458 
L 29.412623 57.260648 
L 29.456589 57.307768 
L 29.524227 57.373856 
L 29.591866 57.219948 
L 29.645977 57.160571 
L 29.700089 57.209833 
L 29.818457 57.093611 
L 29.838748 57.129665 
L 29.906387 57.182772 
L 29.85904 57.115311 
L 29.946971 57.106178 
L 29.98079 57.089222 
L 30.021374 57.181107 
L 30.038283 57.172532 
L 30.085631 57.206793 
L 30.149887 57.159763 
L 30.163415 57.129811 
L 30.234436 57.279019 
L 30.244582 57.24957 
L 30.335895 57.269651 
L 30.25811 57.237185 
L 30.356186 57.228875 
L 30.39677 57.30785 
L 30.477936 57.203393 
L 30.511756 57.229842 
L 30.552339 57.15826 
L 30.579395 57.16855 
L 30.619978 57.146576 
L 30.633506 57.210481 
L 30.674089 57.218607 
L 30.724818 57.300202 
L 30.792457 57.269415 
L 30.836423 57.328947 
L 30.846568 57.369441 
L 30.941263 57.327486 
L 31.049485 57.295067 
L 30.978464 57.349827 
L 31.056249 57.301826 
L 31.076541 57.258293 
L 31.14418 57.364032 
L 31.147562 57.360263 
L 31.228728 57.459651 
L 31.289603 57.550846 
L 31.336951 57.437741 
L 31.360624 57.405602 
L 31.401208 57.521422 
L 31.407972 57.552322 
L 31.458701 57.468603 
L 31.506048 57.481609 
L 31.827333 57.247514 
L 31.837479 57.284407 
L 31.840861 57.294898 
L 31.898354 57.221608 
L 31.935555 57.231672 
L 32.351535 57.024323 
L 31.942319 57.244608 
L 32.354916 57.030687 
L 32.36168 57.025274 
L 32.524014 57.106983 
L 32.642382 57.025202 
L 32.537542 57.13272 
L 32.649146 57.042802 
L 32.662674 57.08588 
L 32.713403 57.130878 
L 32.737076 57.155634 
L 32.801333 57.058293 
L 32.889264 56.993973 
L 32.933229 56.95547 
L 32.973813 57.015914 
L 32.997486 57.002337 
L 33.051597 57.014742 
L 33.082035 56.951648 
L 33.105709 56.977769 
L 33.176729 56.920599 
L 33.230841 56.993486 
L 33.237604 57.030631 
L 33.315389 56.934136 
L 33.328917 56.944148 
L 33.379646 56.986795 
L 33.342445 56.974196 
L 33.38641 57.013035 
L 33.514924 57.160275 
L 33.76857 57.219447 
L 33.775334 57.187268 
L 33.842973 57.297538 
L 33.866646 57.293146 
L 33.947813 57.336105 
L 33.991778 57.305793 
L 34.042508 57.265879 
L 34.005306 57.316674 
L 34.106765 57.274678 
L 34.123674 57.240923 
L 34.27248 57.251903 
L 34.275862 57.232314 
L 34.367175 57.319369 
L 34.380702 57.263004 
L 34.49907 57.30615 
L 34.505834 57.277525 
L 34.509216 57.266638 
L 34.556564 57.391677 
L 34.600529 57.320557 
L 34.634348 57.358585 
L 34.695223 57.239423 
L 34.698605 57.245077 
L 34.783154 57.211049 
L 34.732425 57.210678 
L 34.7933 57.185929 
L 34.901522 57.168938 
L 34.871085 57.240337 
L 34.908286 57.173618 
L 34.928578 57.129697 
L 35.026654 57.219923 
L 35.145022 57.173606 
L 35.165314 57.231081 
L 35.249862 57.221454 
L 35.219425 57.147022 
L 35.270154 57.205213 
L 35.378376 57.114979 
L 35.391904 57.11969 
L 35.395286 57.134441 
L 35.483217 57.026188 
L 35.743627 56.870378 
L 35.868759 56.765033 
L 35.872141 56.756006 
L 35.919488 56.842295 
L 35.970217 56.806534 
L 36.058148 56.905496 
L 35.980363 56.779826 
L 36.091967 56.849327 
L 36.115641 56.775494 
L 36.190044 56.906275 
L 36.193426 56.894031 
L 36.291502 56.845959 
L 36.325321 56.87591 
L 36.420016 56.937384 
L 36.450453 56.913687 
L 36.541766 56.825967 
L 36.56544 56.875157 
L 36.677044 56.937018 
L 36.700717 56.874108 
L 36.964509 56.970366 
L 37.082877 57.046284 
L 37.201246 56.916173 
L 37.231683 57.000328 
L 37.350051 57.070827 
L 37.353433 57.065564 
L 37.468419 57.073504 
L 37.363579 57.049195 
L 37.481947 57.038303 
L 37.64428 56.993249 
L 37.647662 57.017976 
L 37.664572 57.049804 
L 37.701774 57.006946 
L 37.759267 57.028425 
L 37.894544 57.002905 
L 37.897926 57.021431 
L 37.972329 57.075915 
L 37.941892 56.993161 
L 38.002767 56.990178 
L 38.236121 56.833934 
L 38.256413 56.870989 
L 38.259795 56.879911 
L 38.313906 56.775982 
L 38.337579 56.774365 
L 38.398454 56.710117 
L 38.455948 56.787061 
L 38.597989 56.896536 
L 38.618281 56.836136 
L 38.658864 56.784088 
L 38.729885 56.819558 
L 38.797524 56.874297 
L 38.841489 56.811985 
L 38.922656 56.724748 
L 38.956476 56.769276 
L 39.064698 56.631666 
L 39.095135 56.579707 
L 39.176302 56.619073 
L 39.20674 56.653479 
L 39.257469 56.554536 
L 39.260851 56.557317 
L 39.281142 56.603725 
L 39.392747 56.404767 
L 39.43333 56.432391 
L 39.487441 56.341778 
L 39.707268 55.798069 
L 39.757997 54.447202 
L 39.771525 43.883879 
L 39.856073 57.233134 
L 40.167212 54.57296 
L 40.184122 44.799292 
L 40.255143 57.77818 
L 40.278817 57.602563 
L 40.529081 55.956809 
L 40.535845 55.966685 
L 40.569664 55.795618 
L 40.630539 54.912643 
L 40.644067 49.793418 
L 40.650831 44.477723 
L 40.725234 58.046421 
L 40.748907 57.843781 
L 40.965352 56.279298 
L 41.131067 55.225852 
L 41.151359 51.618696 
L 41.158123 44.39221 
L 41.235907 58.223064 
L 41.256199 58.034064 
L 41.733054 53.931655 
L 41.743199 44.411496 
L 41.820984 58.248967 
L 41.834512 58.156141 
L 42.098304 56.394676 
L 42.416207 54.669527 
L 42.433116 44.231446 
L 42.497373 57.946691 
L 42.507519 58.25727 
L 42.59545 57.45026 
L 42.598832 57.455262 
L 42.933644 56.188851 
L 42.937026 56.191545 
L 42.953936 56.148638 
L 43.038485 56.126523 
L 43.288749 55.126414 
L 43.305659 53.170476 
L 43.315804 44.14527 
L 43.390207 58.207703 
L 43.410499 58.03455 
L 43.528867 57.02163 
L 43.684437 56.37558 
L 43.6912 56.395217 
L 43.694582 56.407815 
L 43.768985 56.261185 
L 43.782513 56.285253 
L 43.840006 56.186427 
L 43.914409 56.045298 
L 43.958374 56.142192 
L 43.971902 56.169452 
L 44.029395 56.076683 
L 44.032777 56.079194 
L 44.134235 55.918958 
L 44.157909 55.940553 
L 44.283041 55.738775 
L 44.330388 55.41301 
L 44.360826 53.973301 
L 44.374354 44.122673 
L 44.448756 58.146341 
L 44.462284 58.029866 
L 44.722694 56.330846 
L 44.891791 56.119196 
L 44.949284 56.220432 
L 44.952666 56.224494 
L 44.986486 56.140588 
L 45.027069 56.141842 
L 45.077798 56.12538 
L 45.125146 56.209782 
L 45.128528 56.199354 
L 45.270569 56.311221 
L 45.273951 56.30037 
L 45.307771 56.38803 
L 45.348354 56.367238 
L 45.37541 56.388372 
L 45.439667 56.302355 
L 45.449812 56.321767 
L 45.493778 56.318838 
L 45.466722 56.395302 
L 45.530979 56.414561 
L 45.649347 56.559397 
L 45.574945 56.392281 
L 45.659493 56.552456 
L 45.666257 56.533478 
L 45.744042 56.660693 
L 45.747424 56.656305 
L 46.200605 57.240805 
L 45.767715 56.633355 
L 46.21075 57.234732 
L 46.214132 57.225129 
L 46.268243 57.356157 
L 46.285153 57.352362 
L 46.305445 57.347122 
L 46.427195 57.51213 
L 46.454251 57.436892 
L 46.518508 57.614553 
L 46.755244 57.837678 
L 46.778917 57.821564 
L 46.805973 57.7683 
L 46.880376 57.866483 
L 46.988598 57.930052 
L 47.012272 57.897604 
L 47.090056 57.930888 
L 47.056237 57.947463 
L 47.103584 57.956054 
L 47.232098 58.110574 
L 47.242244 58.088092 
L 47.462071 58.179399 
L 47.492508 58.119189 
L 47.516182 58.081918 
L 47.580439 58.227783 
L 47.678515 58.203767 
L 47.681897 58.184104 
L 47.708953 58.151971 
L 47.688661 58.190579 
L 47.793501 58.188914 
L 47.949071 58.385645 
L 48.114786 58.270143 
L 47.965981 58.439741 
L 48.135078 58.300099 
L 48.256828 58.325868 
L 48.26021 58.313545 
L 48.510474 58.113834 
L 48.544293 58.194279 
L 48.669425 58.252777 
L 48.578113 58.165339 
L 48.672807 58.244315 
L 49.454037 58.175317 
L 49.525058 58.075496 
L 49.579169 58.136555 
L 49.677245 58.115261 
L 49.656954 58.060653 
L 49.684009 58.108468 
L 49.809141 57.995886 
L 49.741502 58.13628 
L 49.826051 58.003347 
L 49.9106 58.014931 
L 49.886926 58.038871 
L 49.934273 58.027369 
L 50.106753 58.113155 
L 50.113516 58.10085 
L 50.221739 58.063997 
L 50.143954 58.141736 
L 50.228503 58.068633 
L 50.400982 57.934357 
L 50.529496 57.821224 
L 50.53626 57.825111 
L 50.563315 57.849154 
L 50.634336 57.774506 
L 50.637718 57.776341 
L 50.67492 57.788491 
L 50.715503 57.708049 
L 50.735795 57.726645 
L 50.76285 57.684723 
L 50.810197 57.772585 
L 50.840635 57.763047 
L 51.019878 57.703755 
L 51.02326 57.709547 
L 51.057079 57.763817 
L 51.094281 57.649718 
L 51.131482 57.693054 
L 51.175448 57.656302 
L 51.229559 57.756266 
L 51.358073 57.865543 
L 51.462913 57.832811 
L 51.398656 57.880929 
L 51.473059 57.851468 
L 51.503496 57.907099 
L 51.574517 57.81715 
L 51.581281 57.828149 
L 51.675976 57.900388 
L 51.713177 57.85698 
L 51.736851 57.82257 
L 51.807872 57.935012 
L 51.946531 57.983851 
L 51.949913 57.982051 
L 52.081809 57.848447 
L 51.960059 57.986735 
L 52.105483 57.879587 
L 52.156212 57.91125 
L 52.203559 57.841916 
L 52.217087 57.882065 
L 52.247525 57.85925 
L 52.294872 57.94591 
L 52.315163 57.934714 
L 52.318545 57.943565 
L 52.372657 57.806338 
L 52.386184 57.810483 
L 52.592483 57.966603 
L 52.734525 57.839269 
L 52.646594 58.018024 
L 52.741289 57.859511 
L 52.744671 57.873373 
L 52.832601 57.772405 
L 52.890094 57.854387 
L 52.991553 57.951589 
L 53.00508 57.913354 
L 53.106539 57.824835 
L 53.028754 57.971571 
L 53.130213 57.874948 
L 53.258726 57.897148 
L 53.147122 57.840709 
L 53.262108 57.891715 
L 53.458261 57.803654 
L 53.461643 57.813457 
L 53.529282 57.90331 
L 53.576629 57.858257 
L 53.644268 57.903513 
L 53.603685 57.933009 
L 53.654414 57.937315 
L 53.66456 57.961815 
L 53.735581 57.840239 
L 53.742345 57.848667 
L 53.864095 57.792632 
L 53.887768 57.810669 
L 53.992609 57.862797 
L 54.002755 57.848531 
L 54.02981 57.891375 
L 54.009519 57.836854 
L 54.100831 57.800608 
L 54.340949 57.728228 
L 54.357859 57.768259 
L 54.391678 57.833288 
L 54.452554 57.724861 
L 54.462699 57.73545 
L 54.723109 57.59184 
L 54.503283 57.783205 
L 54.733255 57.636358 
L 54.824568 57.800631 
L 54.878679 57.759708 
L 55.084977 57.62662 
L 55.098505 57.682776 
L 55.118797 57.665186 
L 55.213491 57.703658 
L 55.267603 57.729246 
L 55.301422 57.647137 
L 55.318332 57.665902 
L 55.385971 57.661838 
L 55.342005 57.710771 
L 55.429936 57.704726 
L 55.4367 57.733294 
L 55.494193 57.583643 
L 55.52463 57.651855 
L 55.54154 57.628817 
L 55.57536 57.695737 
L 55.626089 57.687896 
L 55.666672 57.768995 
L 55.744457 57.689877 
L 55.80195 57.721287 
L 55.845915 57.655041 
L 55.950756 57.593746 
L 55.964283 57.602649 
L 56.214548 57.802148 
L 55.994721 57.577077 
L 56.221311 57.785307 
L 56.28895 57.726967 
L 56.336298 57.763003 
L 56.349825 57.787044 
L 56.42761 57.646983 
L 56.525687 57.524781 
L 56.54936 57.52877 
L 56.647437 57.601703 
L 56.569652 57.48031 
L 56.674492 57.562153 
L 56.79286 57.546714 
L 56.718458 57.649517 
L 56.806388 57.590064 
L 56.907847 57.583921 
L 56.833444 57.537827 
L 56.917992 57.566289 
L 57.046506 57.518755 
L 56.945048 57.581776 
L 57.049888 57.526245 
L 57.137819 57.607722 
L 57.083708 57.504765 
L 57.185166 57.562151 
L 57.19193 57.531212 
L 57.279861 57.647061 
L 57.421902 57.577419 
L 57.448958 57.592599 
L 57.563944 57.467468 
L 57.915667 57.471187 
L 57.919048 57.498998 
L 58.040799 57.57337 
L 58.09491 57.448686 
L 58.189604 57.529516 
L 58.382375 57.505 
L 58.439868 57.429388 
L 58.500743 57.451673 
L 58.541327 57.425459 
L 58.622493 57.534509 
L 58.818646 57.33535 
L 58.838938 57.372117 
L 58.886285 57.283828 
L 58.96407 57.458179 
L 59.06891 57.352633 
L 58.98098 57.46991 
L 59.08582 57.365516 
L 59.248153 57.464093 
L 59.349612 57.385735 
L 59.383431 57.424392 
L 59.417251 57.475483 
L 59.478126 57.367415 
L 59.48489 57.388271 
L 59.610022 57.27868 
L 59.657369 57.363606 
L 59.701334 57.245392 
L 59.735154 57.321304 
L 59.758827 57.283339 
L 59.863668 57.369893 
L 59.951598 57.28331 
L 59.978654 57.327374 
L 60.042911 57.347966 
L 60.069966 57.263743 
L 60.07673 57.270123 
L 60.553585 57.370488 
L 60.560348 57.397794 
L 60.644897 57.293215 
L 60.651661 57.30009 
L 60.790321 57.269778 
L 60.793703 57.278248 
L 60.861342 57.321807 
L 60.905307 57.268674 
L 61.087932 57.092575 
L 61.213064 57.172189 
L 61.273939 57.106887 
L 61.219828 57.183599 
L 61.321286 57.194451 
L 61.46671 57.260115 
L 61.487002 57.311244 
L 61.520821 57.184891 
L 61.568168 57.200152 
L 61.686537 57.152995 
L 61.585078 57.207614 
L 61.693301 57.173379 
L 61.801523 57.154166 
L 61.815051 57.130831 
L 61.855634 57.098383 
L 61.906363 57.196194 
L 61.909745 57.196646 
L 62.00444 57.105274 
L 62.122808 57.020427 
L 62.021349 57.119437 
L 62.12619 57.023076 
L 62.210738 56.970093 
L 62.237794 57.04687 
L 62.305433 56.971358 
L 62.342634 57.070441 
L 62.346016 57.059298 
L 63.002114 57.352379 
L 63.008878 57.329455 
L 63.035933 57.297209 
L 63.103572 57.413236 
L 63.110336 57.368664 
L 63.150919 57.493073 
L 63.228704 57.407685 
L 63.313253 57.448127 
L 63.245614 57.386372 
L 63.34369 57.394376 
L 63.455295 57.384324 
L 63.407947 57.46726 
L 63.458676 57.386287 
L 63.526315 57.393769 
L 63.539843 57.314429 
L 63.563517 57.365905 
L 63.695413 57.300273 
L 63.705559 57.32056 
L 63.786725 57.352024 
L 63.74276 57.250029 
L 63.820545 57.306923 
L 63.861128 57.223175 
L 63.935531 57.265371 
L 63.938913 57.284344 
L 64.030225 57.169173 
L 64.135066 57.101862 
L 64.155357 57.120051 
L 64.253434 57.045431 
L 64.179031 57.160822 
L 64.300781 57.119855 
L 64.452969 57.144904 
L 64.456351 57.138717 
L 64.469878 57.216321 
L 64.547663 57.198408 
L 64.726906 57.186493 
L 64.561191 57.165466 
L 64.73367 57.170648 
L 64.88924 57.201952 
L 64.912913 57.234507 
L 64.939969 57.176737 
L 64.99408 57.184923 
L 65.041427 57.139687 
L 65.01099 57.196376 
L 65.112448 57.184301 
L 65.22067 57.201616 
L 65.227434 57.181421 
L 65.230816 57.166576 
L 65.295073 57.308836 
L 65.315365 57.27817 
L 65.335657 57.315833 
L 65.399914 57.146733 
L 65.437115 57.087166 
L 65.504754 57.1752 
L 65.508136 57.187163 
L 65.599448 57.102092 
L 65.680615 57.14103 
L 65.663705 57.075803 
L 65.711053 57.112192 
L 65.72458 57.06984 
L 65.805747 57.142384 
L 65.815893 57.143706 
L 66.519338 56.996059 
L 66.529484 57.017228 
L 66.607268 56.872573 
L 66.61065 56.873057 
L 66.742546 56.856904 
L 66.624178 56.890188 
L 66.745928 56.86021 
L 66.894734 56.928577 
L 66.772984 56.81779 
L 66.901498 56.911262 
L 67.016484 56.810099 
L 66.942081 56.936736 
L 67.023248 56.832695 
L 67.077359 56.923358 
L 67.138234 56.803692 
L 67.25322 56.678771 
L 67.263366 56.757793 
L 67.293804 56.828549 
L 67.347915 56.716155 
L 67.385116 56.792554 
L 67.500102 56.727379 
L 67.510248 56.742095 
L 67.631998 56.844443 
L 67.642144 56.81769 
L 67.662436 56.859925 
L 67.767276 56.7289 
L 68.098707 56.580815 
L 68.24413 56.332907 
L 68.38279 56.200073 
L 68.321915 56.392492 
L 68.386172 56.212023 
L 68.403082 56.213348 
L 68.433519 56.114592 
L 68.531596 55.444998 
L 68.55527 54.058666 
L 68.568797 43.87011 
L 68.649964 57.202715 
L 68.656728 57.184551 
L 68.944193 55.376559 
L 68.971249 54.183345 
L 68.984777 44.757007 
L 69.055798 57.766193 
L 69.069325 57.676326 
L 69.431194 53.987046 
L 69.441339 44.5695 
L 69.519124 58.025147 
L 69.532652 57.935922 
L 69.816735 56.004133 
L 69.914812 55.469783 
L 69.945249 54.018975 
L 69.958777 44.475514 
L 70.03318 58.191554 
L 70.046708 58.087327 
L 70.361229 56.149095 
L 70.435632 55.906376 
L 70.53709 53.590009 
L 70.547236 44.290749 
L 70.621639 58.244746 
L 70.64193 58.108941 
L 70.926014 56.373065 
L 71.02409 56.121923 
L 71.169514 55.826526 
L 71.233771 55.258216 
L 71.254063 53.766425 
L 71.264208 44.301479 
L 71.338611 58.23408 
L 71.355521 58.11101 
L 71.64975 56.352369 
L 71.801938 56.180097 
L 71.852667 56.228315 
L 71.815466 56.156953 
L 71.896632 56.137402 
L 71.930452 56.147499 
L 72.028528 56.05097 
L 72.04882 56.085958 
L 72.113077 55.944955 
L 72.123223 55.974597 
L 72.305848 55.452122 
L 72.336285 54.49451 
L 72.353195 44.122814 
L 72.424216 58.109938 
L 72.441126 58.002492 
L 72.721827 56.259394 
L 72.884161 56.058585 
L 72.887543 56.07863 
L 73.063404 56.146585 
L 72.897689 56.05111 
L 73.066786 56.137937 
L 73.218973 55.808622 
L 73.229119 55.814488 
L 73.273085 55.679593 
L 73.33396 54.946662 
L 73.347487 51.795704 
L 73.357633 44.183989 
L 73.432036 58.095789 
L 73.452328 57.908141 
L 73.834488 56.12664 
L 73.83787 56.148274 
L 73.946092 56.03426 
L 73.963002 56.081653 
L 74.030641 56.167895 
L 74.084752 56.133527 
L 74.105043 56.106512 
L 74.165918 56.235269 
L 74.172682 56.233999 
L 74.375599 56.502176 
L 74.253849 56.197583 
L 74.378981 56.497876 
L 74.676592 56.664936 
L 74.825398 56.943065 
L 74.886273 56.92358 
L 74.849072 56.968082 
L 74.93362 56.964851 
L 75.413857 57.526012 
L 75.495023 57.387095 
L 75.532225 57.45041 
L 75.674266 57.609877 
L 75.542371 57.442495 
L 75.677648 57.58348 
L 75.775725 57.588987 
L 75.701322 57.628312 
L 75.782489 57.616382 
L 76.009079 57.921246 
L 76.012461 57.909695 
L 76.110538 57.905836 
L 76.120683 57.940851 
L 76.161267 57.964403 
L 76.134211 57.929478 
L 76.211996 57.881936 
L 76.614448 57.960918 
L 76.627975 57.943551 
L 76.749725 58.048836 
L 76.756489 58.022105 
L 76.817364 58.137455 
L 76.834274 58.123805 
L 76.915441 58.21405 
L 76.942496 58.233642 
L 76.979698 58.128735 
L 77.010135 58.159812 
L 77.10483 58.172757 
L 77.118358 58.203635 
L 77.128503 58.227775 
L 77.213052 58.116825 
L 77.263781 58.049601 
L 77.324656 58.123856 
L 77.69667 58.150441 
L 77.882677 58.315021 
L 77.889441 58.305243 
L 77.97399 58.221823 
L 78.014573 58.257322 
L 78.11265 58.299615 
L 78.048393 58.242921 
L 78.132941 58.269684 
L 78.237782 58.238813 
L 78.203962 58.309654 
L 78.244546 58.256433 
L 78.305421 58.288137 
L 78.342622 58.187473 
L 78.528629 58.086748 
L 78.643615 57.964344 
L 78.653761 57.968343 
L 78.785657 57.988014 
L 78.795803 57.956932 
L 78.910789 57.915411 
L 78.805949 57.968773 
L 78.914171 57.954992 
L 79.08665 58.082859 
L 79.090032 58.080368 
L 79.374116 58.038999 
L 79.465428 57.949192 
L 79.407935 58.04666 
L 79.492484 57.972131 
L 79.779949 57.725894 
L 79.854352 57.756263 
L 79.915227 57.610163 
L 80.033595 57.713965 
L 79.938901 57.58648 
L 80.043741 57.6879 
L 80.280477 57.873904 
L 80.307533 57.848055 
L 80.588234 57.785782 
L 80.611908 57.85399 
L 80.622054 57.846185 
L 80.73704 57.90146 
L 80.879082 57.910483 
L 80.75395 57.925419 
L 80.885846 57.926311 
L 81.048179 57.973069 
L 80.926429 57.84363 
L 81.054943 57.944808 
L 81.105672 57.898849 
L 81.061707 57.958918 
L 81.166547 57.965705 
L 81.173311 57.959578 
L 81.359318 58.07838 
L 81.50136 57.934863 
L 81.508124 57.946873 
L 81.589291 57.73946 
L 81.609582 57.776851 
L 81.724568 57.648929 
L 81.859846 57.789928 
L 81.76177 57.623595 
L 81.869992 57.758766 
L 81.995124 57.650108 
L 81.998506 57.65846 
L 82.02218 57.633881 
L 82.137166 57.655107 
L 82.299499 57.581014 
L 82.302881 57.588302 
L 82.428013 57.656886 
L 82.434777 57.643418 
L 82.532854 57.55079 
L 82.563291 57.566827 
L 82.911632 57.869253 
L 82.918395 57.849844 
L 83.077347 57.778315 
L 82.955597 57.881509 
L 83.080729 57.784294 
L 83.124694 57.702169 
L 83.192333 57.776156 
L 83.195715 57.763034 
L 83.283646 57.861158 
L 83.293791 57.825151 
L 83.432451 57.890768 
L 83.435833 57.888269 
L 83.588021 57.663394 
L 83.726681 57.484647 
L 83.598167 57.671473 
L 83.736826 57.50198 
L 83.753736 57.532819 
L 83.872104 57.453127 
L 83.98709 57.563441 
L 83.997236 57.532088 
L 84.095313 57.552915 
L 84.105459 57.589816 
L 84.183243 57.62556 
L 84.14266 57.569406 
L 84.220445 57.619316 
L 84.416598 57.674819 
L 84.41998 57.660685 
L 84.426743 57.633874 
L 84.494382 57.7247 
L 84.521438 57.698394 
L 84.585695 57.64984 
L 84.643188 57.727506 
L 84.78523 57.580517 
L 84.788612 57.589461 
L 84.825813 57.626505 
L 84.869778 57.528774 
L 84.886688 57.537196 
L 84.944181 57.475163 
L 84.920508 57.575745 
L 84.988147 57.566427 
L 85.018584 57.636997 
L 85.099751 57.559997 
L 85.218119 57.534652 
L 85.136952 57.592521 
L 85.221501 57.543667 
L 85.27223 57.609922 
L 85.326341 57.503617 
L 85.525876 57.387395 
L 85.350015 57.545391 
L 85.529258 57.389859 
L 85.681446 57.445937 
L 85.546168 57.356864 
L 85.688209 57.411565 
L 85.701737 57.383 
L 85.732175 57.478068 
L 85.789668 57.462687 
L 85.874216 57.531763 
L 85.813341 57.455399 
L 85.9148 57.502412 
L 86.012876 57.464486 
L 85.952001 57.432596 
L 86.016258 57.453295 
L 86.148154 57.270442 
L 86.1583 57.296129 
L 86.209029 57.180396 
L 86.212411 57.184705 
L 86.327397 57.115674 
L 86.249612 57.20415 
L 86.344307 57.125154 
L 86.445765 57.163199 
L 86.38489 57.086607 
L 86.459293 57.116946 
L 86.658828 57.099331 
L 86.66221 57.119823 
L 86.699411 57.168774 
L 86.67912 57.105282 
L 86.763668 57.093731 
L 86.76705 57.070706 
L 86.831307 57.180374 
L 86.871891 57.104377 
L 86.909092 57.175234 
L 86.966585 57.055153 
L 86.973349 57.010433 
L 87.071425 57.135384 
L 87.18303 57.229067 
L 87.128919 57.111037 
L 87.199939 57.20967 
L 87.463731 57.211799 
L 87.467113 57.235808 
L 87.578717 57.294366 
L 87.582099 57.27361 
L 87.690322 57.265878 
L 87.632829 57.32691 
L 87.693704 57.269342 
L 87.805308 57.299556 
L 87.727523 57.216089 
L 87.80869 57.276815 
L 87.940586 57.218001 
L 88.299072 57.295144 
L 88.407294 57.346087 
L 88.349801 57.252893 
L 88.420822 57.336749 
L 88.664322 57.321153 
L 88.701524 57.255577 
L 88.78269 57.303219 
L 88.786072 57.296856 
L 88.809746 57.417863 
L 88.843565 57.404186 
L 88.857093 57.448687 
L 88.924732 57.274567 
L 88.928114 57.2769 
L 88.972079 57.239456 
L 89.012663 57.305446 
L 89.036336 57.300771 
L 89.14794 57.452317 
L 89.0431 57.277316 
L 89.225725 57.361061 
L 89.357621 57.209245 
L 89.367767 57.219785 
L 89.401586 57.197773 
L 89.445552 57.280881 
L 89.472607 57.245444 
L 89.492899 57.268654 
L 89.516573 57.199234 
L 89.574066 57.205925 
L 89.692434 57.150873 
L 89.888587 57.226658 
L 89.729635 57.109378 
L 89.891969 57.219673 
L 89.895351 57.20019 
L 89.92917 57.285619 
L 89.993427 57.251819 
L 90.013719 57.274491 
L 90.037392 57.223155 
L 90.098267 57.225148 
L 90.176052 57.166193 
L 90.20649 57.241277 
L 90.490573 57.258264 
L 90.493955 57.222106 
L 90.504101 57.221715 
L 90.531156 57.316771 
L 90.561594 57.310679 
L 90.635997 57.254183 
L 90.679962 57.312051 
L 90.79833 57.14303 
L 90.808476 57.156799 
L 91.018157 57.197285 
L 91.028303 57.169605 
L 91.062122 57.124033 
L 91.068886 57.140544 
" clip-path="url(#p17377dae03)" style="fill: none; stroke: #000000; stroke-width: 0.6; stroke-linecap: square"/>
   </g>
   <g id="line2d_4">
    <path d="M 95.127221 15.313171 
L 95.127221 8.552195 
" clip-path="url(#p17377dae03)" style="fill: none; stroke: #000000; stroke-width: 1.5; stroke-linecap: square"/>
   </g>
  </g>
 </g>
 <defs>
  <clipPath id="p17377dae03">
   <rect x="7.2" y="7.2" width="89.28" height="55.44"/>
  </clipPath>
 </defs>
</svg>
