<?xml version="1.0" encoding="utf-8" standalone="no"?>
<!DOCTYPE svg PUBLIC "-//W3C//DTD SVG 1.1//EN"
  "http://www.w3.org/Graphics/SVG/1.1/DTD/svg11.dtd">
<svg xmlns:xlink="http://www.w3.org/1999/xlink" width="103.68pt" height="69.84pt" viewBox="0 0 103.68 69.84" xmlns="http://www.w3.org/2000/svg" version="1.1">
 <metadata>
  <rdf:RDF xmlns:dc="http://purl.org/dc/elements/1.1/" xmlns:cc="http://creativecommons.org/ns#" xmlns:rdf="http://www.w3.org/1999/02/22-rdf-syntax-ns#">
   <cc:Work>
    <dc:type rdf:resource="http://purl.org/dc/dcmitype/StillImage"/>
    <dc:date>2022-05-18T12:00:17.527127</dc:date>
    <dc:format>image/svg+xml</dc:format>
    <dc:creator>
     <cc:Agent>
      <dc:title>Matplotlib v3.5.1, https://matplotlib.org/</dc:title>
     </cc:Agent>
    </dc:creator>
   </cc:Work>
  </rdf:RDF>
 </metadata>
 <defs>
  <style type="text/css">*{stroke-linejoin: round; stroke-linecap: butt}</style>
 </defs>
 <g id="figure_1">
  <g id="patch_1">
   <path d="M 0 69.84 
L 103.68 69.84 
L 103.68 0 
L 0 0 
L 0 69.84 
z
" style="fill: none"/>
  </g>
  <g id="axes_1">
   <g id="patch_2">
    <path d="M 7.2 62.64 
L 96.48 62.64 
L 96.48 7.2 
L 7.2 7.2 
L 7.2 62.64 
z
" style="fill: none"/>
   </g>
   <g id="matplotlib.axis_1"/>
   <g id="matplotlib.axis_2"/>
   <g id="line2d_1">
    <path d="M 9.905557 22.577976 
L 10.111856 22.232926 
L 10.115238 22.235472 
L 10.142293 22.282095 
L 10.199786 22.193517 
L 10.220078 22.205052 
L 10.291099 22.186837 
L 10.247134 22.282775 
L 10.321536 22.238654 
L 10.348592 22.287663 
L 10.412849 22.182603 
L 10.419613 22.186053 
L 10.568419 21.968277 
L 10.581946 21.996942 
L 10.669877 21.913706 
L 10.673259 21.92707 
L 10.83221 21.634455 
L 10.889703 21.532629 
L 11.12644 20.643253 
L 11.160259 18.954812 
L 11.170405 8.567709 
L 11.265099 20.395145 
L 11.292155 24.182522 
L 11.380086 23.291739 
L 11.528891 20.055583 
L 11.542419 8.760998 
L 11.650641 17.653595 
L 11.681079 24.486268 
L 11.782537 23.580064 
L 11.951635 19.438458 
L 11.96178 8.797702 
L 12.066621 17.320005 
L 12.10044 24.602386 
L 12.212044 23.655869 
L 12.303357 22.292089 
L 12.398051 19.395771 
L 12.408197 8.771808 
L 12.509656 17.028163 
L 12.546857 24.725483 
L 12.671989 23.791126 
L 12.885052 20.111403 
L 12.901961 8.743087 
L 13.006802 18.193262 
L 13.044003 24.813066 
L 13.128552 24.295095 
L 13.372052 21.463654 
L 13.446455 19.281546 
L 13.456601 8.711368 
L 13.558059 18.197949 
L 13.59526 24.874718 
L 13.679809 24.390096 
L 13.811705 23.333136 
L 14.09917 18.509471 
L 14.109316 8.705602 
L 14.207393 20.984025 
L 14.23783 24.867604 
L 14.322379 24.435514 
L 14.420455 23.715207 
L 14.873636 20.042714 
L 14.887164 13.223828 
L 14.893928 8.689492 
L 14.988622 23.316759 
L 15.015678 24.848363 
L 15.103608 24.366251 
L 15.796907 19.479869 
L 15.810435 8.691889 
L 15.894984 20.035462 
L 15.925421 24.81813 
L 16.00997 24.323537 
L 16.219651 22.655496 
L 16.449623 21.363322 
L 16.676213 19.6013 
L 16.689741 8.679559 
L 16.777672 21.05195 
L 16.811491 24.848104 
L 16.892658 24.396045 
L 17.403332 21.360979 
L 17.406714 21.367137 
L 17.454061 21.238851 
L 17.460825 21.23838 
L 17.599485 20.975405 
L 17.619777 20.998323 
L 17.90386 20.411065 
L 17.934298 18.899359 
L 17.944443 8.696668 
L 18.035756 24.004081 
L 18.05943 24.827412 
L 18.14736 24.300269 
L 18.258964 23.417704 
L 18.502464 21.72726 
L 18.505846 21.733792 
L 19.01652 20.03345 
L 19.030048 17.251159 
L 19.040194 8.685857 
L 19.134888 24.480743 
L 19.151798 24.867136 
L 19.243111 24.364537 
L 19.378389 23.306703 
L 19.628653 21.792463 
L 19.632035 21.808677 
L 19.818042 21.304161 
L 19.845097 21.336181 
L 19.868771 21.263993 
L 19.912736 21.247787 
L 20.112271 21.436448 
L 20.420028 21.776342 
L 20.42341 21.754844 
L 20.497813 21.965308 
L 20.501195 21.953051 
L 20.629709 22.128485 
L 20.646618 22.117719 
L 20.697348 22.115243 
L 20.656764 22.135732 
L 20.721021 22.180473 
L 20.863063 22.481552 
L 20.879973 22.466579 
L 20.886737 22.446261 
L 20.954376 22.627852 
L 21.089653 22.785907 
L 21.096417 22.770569 
L 21.120091 22.754286 
L 21.366973 23.223554 
L 21.383883 23.214215 
L 21.451522 23.299727 
L 21.465049 23.286972 
L 21.722077 23.838199 
L 21.725459 23.829771 
L 21.786334 23.926951 
L 21.864119 24.046179 
L 21.901321 24.027729 
L 21.924994 24.015546 
L 21.972341 24.146153 
L 22.121147 24.349223 
L 22.324064 24.548855 
L 22.127911 24.345741 
L 22.327446 24.546194 
L 22.368029 24.489244 
L 22.415376 24.585335 
L 22.432286 24.576348 
L 22.635203 24.772898 
L 22.645349 24.741085 
L 22.750189 24.677958 
L 22.763717 24.696373 
L 22.932814 24.672198 
L 22.777245 24.714308 
L 22.94296 24.697135 
L 23.500981 24.920692 
L 23.511127 24.889101 
L 23.558474 24.931679 
L 23.639641 24.775033 
L 23.710662 24.753599 
L 23.764773 24.839879 
L 23.866231 24.715128 
L 23.913579 24.77615 
L 24.031947 24.818294 
L 23.954162 24.718825 
L 24.035329 24.816809 
L 24.126641 24.731966 
L 24.048856 24.834343 
L 24.157079 24.763418 
L 24.272065 24.814277 
L 24.17737 24.721566 
L 24.275447 24.809032 
L 24.359995 24.72718 
L 24.31603 24.82246 
L 24.397197 24.753427 
L 24.481746 24.757216 
L 24.498655 24.822164 
L 24.610259 24.851653 
L 24.620405 24.829427 
L 24.735391 24.812754 
L 24.701572 24.871025 
L 24.738773 24.817579 
L 24.863905 24.862141 
L 24.779357 24.774088 
L 24.874051 24.831512 
L 24.995801 24.741187 
L 25.002565 24.749893 
L 25.049912 24.729122 
L 25.117551 24.778453 
L 25.239301 24.64212 
L 25.242683 24.651136 
L 25.347524 24.661233 
L 25.286649 24.73323 
L 25.354288 24.67694 
L 25.438836 24.743261 
L 25.469274 24.682549 
L 25.574114 24.618098 
L 25.547059 24.727166 
L 25.58426 24.644916 
L 25.634989 24.686914 
L 25.678955 24.586598 
L 25.763503 24.5265 
L 25.797323 24.559437 
L 25.905545 24.573763 
L 25.841288 24.510067 
L 25.925837 24.553038 
L 26.426365 24.529084 
L 26.45342 24.501897 
L 26.521059 24.597761 
L 26.598844 24.636122 
L 26.571788 24.580614 
L 26.625899 24.576335 
L 26.707066 24.545156 
L 26.737504 24.582026 
L 26.845726 24.782586 
L 26.896455 24.765457 
L 26.943802 24.661264 
L 26.903219 24.771874 
L 27.028351 24.749309 
L 27.146719 24.732321 
L 27.065552 24.796927 
L 27.163629 24.756864 
L 27.271851 24.774399 
L 27.214358 24.719908 
L 27.285379 24.76384 
L 27.396983 24.735858 
L 27.359782 24.791618 
L 27.403747 24.757287 
L 27.46124 24.71384 
L 27.545789 24.788143 
L 27.579608 24.809347 
L 27.664157 24.770873 
L 27.745324 24.767791 
L 27.677685 24.742289 
L 27.758851 24.71664 
L 27.772379 24.6606 
L 27.840018 24.792939 
L 27.846782 24.78038 
L 27.856928 24.810408 
L 27.880602 24.757237 
L 27.951622 24.757112 
L 28.009115 24.722367 
L 27.988824 24.771334 
L 28.056463 24.788365 
L 28.354074 24.725624 
L 28.357456 24.741212 
L 28.425095 24.776056 
L 28.377748 24.734504 
L 28.46906 24.734299 
L 28.584046 24.704276 
L 28.479206 24.750745 
L 28.604338 24.724419 
L 29.030463 24.782186 
L 29.152213 24.701165 
L 29.290873 24.77686 
L 29.307783 24.73803 
L 29.351748 24.804445 
L 29.402477 24.761228 
L 29.480262 24.790454 
L 29.449825 24.703502 
L 29.507318 24.727423 
L 29.61554 24.74209 
L 29.629068 24.726018 
L 29.693325 24.684132 
L 29.656123 24.759469 
L 29.740672 24.715348 
L 29.750818 24.691059 
L 29.916533 24.812084 
L 29.957117 24.785752 
L 29.974026 24.723993 
L 29.98079 24.739732 
L 30.007846 24.675855 
L 30.068721 24.767539 
L 30.089012 24.766477 
L 30.335895 24.700544 
L 30.11945 24.814893 
L 30.339276 24.710895 
L 30.417061 24.800527 
L 30.461027 24.780651 
L 31.056249 24.743046 
L 31.100214 24.768582 
L 31.069777 24.730278 
L 31.164471 24.725983 
L 31.191527 24.766819 
L 31.28284 24.741876 
L 31.313277 24.81497 
L 31.401208 24.776493 
L 32.415792 24.699667 
L 32.493576 24.662786 
L 32.425937 24.711657 
L 32.530778 24.712641 
L 32.669437 24.7459 
L 32.679583 24.730643 
L 32.872354 24.70343 
L 32.686347 24.760596 
L 32.875736 24.722957 
L 32.946757 24.761944 
L 32.906174 24.698933 
L 32.980577 24.684566 
L 33.132764 24.742115 
L 33.136146 24.754468 
L 33.14291 24.782721 
L 33.234223 24.682057 
L 33.342445 24.665951 
L 33.295098 24.615467 
L 33.345827 24.662103 
L 33.352591 24.632995 
L 33.410084 24.714755 
L 33.454049 24.680744 
L 33.54198 24.69735 
L 33.460813 24.689325 
L 33.552125 24.73163 
L 33.619764 24.726231 
L 33.650202 24.670501 
L 33.761806 24.551856 
L 33.771952 24.606243 
L 34.431431 24.606603 
L 34.495688 24.622173 
L 34.455105 24.645567 
L 34.526126 24.661232 
L 34.590383 24.67805 
L 34.570091 24.637297 
L 34.630966 24.631094 
L 34.908286 24.38412 
L 34.921814 24.43905 
L 35.15855 24.343345 
L 34.928578 24.457001 
L 35.195751 24.426751 
L 35.293828 24.404495 
L 35.29721 24.393136 
L 35.320883 24.415325 
L 35.422342 24.313341 
L 35.544092 24.439372 
L 35.43587 24.293533 
L 35.554238 24.415248 
L 35.757154 24.274108 
L 35.763918 24.295599 
L 35.919488 24.462568 
L 35.960071 24.42666 
L 36.034474 24.503345 
L 36.071675 24.457148 
L 36.190044 24.467784 
L 36.13255 24.408864 
L 36.196807 24.449954 
L 36.203571 24.460038 
L 36.321939 24.462716 
L 36.44369 24.469385 
L 36.463981 24.433546 
L 36.582349 24.333665 
L 36.585731 24.3419 
L 36.737919 24.425029 
L 36.761592 24.385969 
L 36.89687 24.23753 
L 37.008475 24.233277 
L 36.91378 24.212323 
L 37.011857 24.210502 
L 37.103169 24.077003 
L 37.15728 24.106567 
L 37.289176 24.082471 
L 37.170808 24.139631 
L 37.302704 24.126926 
L 37.316232 24.140618 
L 37.360197 23.973726 
L 37.370343 23.988835 
L 37.458273 23.933628 
L 37.481947 23.965065 
L 37.509003 23.993603 
L 37.634135 23.904164 
L 37.640899 23.912636 
L 37.684864 23.827865 
L 37.711919 23.820595 
L 37.793086 23.869216 
L 37.826906 23.801281 
L 37.884399 23.830048 
L 37.857343 23.762951 
L 37.9216 23.755077 
L 38.073788 23.502831 
L 38.411982 23.336919 
L 38.435656 23.40675 
L 38.516823 23.465347 
L 38.554024 23.394212 
L 38.976767 23.062147 
L 38.993677 23.092723 
L 39.08499 23.208922 
L 39.112045 23.165025 
L 39.257469 23.027465 
L 39.277761 23.013275 
L 39.385983 23.076596 
L 39.446858 23.060248 
L 39.413038 23.112025 
L 39.494205 23.100506 
L 39.561844 23.09256 
L 39.531406 23.028125 
L 39.578754 23.047514 
L 39.582136 23.01594 
L 39.605809 23.058482 
L 39.690358 23.040677 
L 39.71065 23.018232 
L 39.785052 23.113395 
L 39.795198 23.087219 
L 40.096192 22.883631 
L 40.102955 22.904144 
L 40.33631 22.995842 
L 40.339692 22.982966 
L 40.410713 23.020546 
L 40.454678 22.94317 
L 40.461442 22.97251 
L 40.552754 22.879784 
L 40.559518 22.846797 
L 40.617011 22.941385 
L 40.660977 22.902028 
L 40.721852 22.876841 
L 40.677886 22.922853 
L 40.765817 22.95015 
L 40.769199 22.961588 
L 40.816546 22.845845 
L 40.853747 22.884013 
L 40.995789 22.686476 
L 40.999171 22.706063 
L 41.080338 22.600407 
L 41.10063 22.650371 
L 41.198706 22.705052 
L 41.202088 22.733882 
L 41.256199 22.642485 
L 41.361039 22.550737 
L 41.381331 22.568673 
L 41.499699 22.564185 
L 41.574102 22.560804 
L 41.547046 22.498895 
L 41.601158 22.51506 
L 41.641741 22.531063 
L 41.672178 22.444519 
L 41.689088 22.439675 
L 41.83113 22.386574 
L 41.837894 22.398069 
L 41.908915 22.418976 
L 41.854804 22.382945 
L 41.946116 22.375611 
L 41.956262 22.349063 
L 42.030665 22.470292 
L 42.040811 22.498158 
L 42.088158 22.415205 
L 42.138887 22.445966 
L 42.233582 22.539799 
L 42.260637 22.460911 
L 42.280929 22.474635 
L 42.43988 22.280228 
L 42.541339 22.305524 
L 42.490609 22.221026 
L 42.551485 22.260943 
L 42.575158 22.250665 
L 42.592068 22.167889 
L 42.605596 22.173849 
L 42.608978 22.155967 
L 42.663089 22.219623 
L 42.713818 22.18829 
L 42.720582 22.191801 
L 42.751019 22.09744 
L 42.784839 22.102753 
L 42.903207 21.950686 
L 42.950554 22.017107 
L 42.987756 22.043743 
L 43.024957 21.889922 
L 43.079068 21.885357 
L 43.09936 21.821127 
L 43.2042 21.679368 
L 43.224492 21.733131 
L 43.227874 21.737594 
L 43.261693 21.618104 
L 43.407117 21.352949 
L 43.417263 21.349709 
L 43.440936 21.283887 
L 43.467992 21.259754 
L 43.562686 20.853196 
L 43.613416 19.811154 
L 43.630325 8.579922 
L 43.721638 19.197599 
L 43.748694 24.199629 
L 43.836624 23.285798 
L 43.988812 19.880696 
L 44.002339 8.759433 
L 44.110562 17.994055 
L 44.137617 24.498466 
L 44.232312 23.688421 
L 44.310097 22.542206 
L 44.411555 19.423477 
L 44.421701 8.789089 
L 44.523159 16.912251 
L 44.560361 24.61076 
L 44.692257 23.47768 
L 44.864736 19.119421 
L 44.874882 8.772157 
L 44.97634 17.21936 
L 45.010159 24.727555 
L 45.128528 23.904675 
L 45.3585 19.537492 
L 45.368646 8.73396 
L 45.473486 17.73818 
L 45.507306 24.827361 
L 45.602 24.272001 
L 45.777861 22.432127 
L 45.923285 19.677329 
L 45.936813 8.718166 
L 46.034889 17.692617 
L 46.068709 24.874735 
L 46.166785 24.353456 
L 46.582764 19.856866 
L 46.596292 8.687736 
L 46.694369 19.147427 
L 46.724806 24.8792 
L 46.809355 24.459083 
L 46.880376 23.969307 
L 46.961542 23.343496 
L 47.313265 21.067337 
L 47.387668 20.565875 
L 47.421487 19.033807 
L 47.431633 8.681785 
L 47.526328 23.34241 
L 47.553383 24.837415 
L 47.641314 24.337949 
L 47.834085 22.838648 
L 48.084349 21.308229 
L 48.087731 21.31066 
L 48.108022 21.205639 
L 48.114786 21.212242 
L 48.317703 18.597933 
L 48.327849 8.692933 
L 48.422543 24.101646 
L 48.446217 24.801797 
L 48.534148 24.277235 
L 48.60855 23.725454 
L 49.044821 21.131653 
L 49.254502 20.7 
L 49.311995 19.361792 
L 49.325523 8.683871 
L 49.410072 21.481376 
L 49.440509 24.833534 
L 49.525058 24.360556 
L 50.042496 21.194829 
L 50.198065 20.860985 
L 50.279232 20.479851 
L 50.313051 18.109093 
L 50.323197 8.678158 
L 50.417892 24.311765 
L 50.438183 24.877427 
L 50.529496 24.363546 
L 51.033406 21.457435 
L 51.090899 21.483992 
L 51.121336 21.406769 
L 51.138246 21.417895 
L 51.175448 21.309018 
L 51.222795 21.249144 
L 51.192357 21.314135 
L 51.287052 21.313129 
L 51.628628 21.546553 
L 51.77067 21.73634 
L 51.774052 21.721024 
L 51.855219 21.866221 
L 51.858601 21.861662 
L 51.89242 21.973638 
L 52.007406 22.158685 
L 52.020934 22.153052 
L 52.071663 22.320385 
L 52.233997 22.606088 
L 52.237379 22.601046 
L 52.261052 22.566921 
L 52.301636 22.678297 
L 52.467351 23.027956 
L 52.497789 23.025403 
L 52.541754 23.119249 
L 52.545136 23.11987 
L 52.710851 23.424299 
L 52.744671 23.482384 
L 52.717615 23.445027 
L 52.751435 23.515954 
L 52.930678 23.833494 
L 52.937442 23.823635 
L 52.940824 23.813234 
L 52.974643 23.875998 
L 53.032136 23.885219 
L 53.197851 24.22813 
L 53.042282 23.881429 
L 53.214761 24.218404 
L 53.475171 24.446351 
L 53.586775 24.763699 
L 53.623977 24.701648 
L 53.644268 24.669845 
L 53.701761 24.772166 
L 53.705143 24.77249 
L 53.82013 24.84137 
L 53.755873 24.761792 
L 53.823511 24.836929 
L 53.935116 24.718369 
L 53.853949 24.845516 
L 53.948644 24.744892 
L 54.043338 24.764421 
L 53.982463 24.824889 
L 54.06363 24.795894 
L 54.165088 24.993638 
L 54.094067 24.78795 
L 54.205671 24.931938 
L 54.875297 24.865515 
L 54.926026 24.89359 
L 54.980137 24.835301 
L 55.162762 24.846168 
L 54.986901 24.811434 
L 55.166144 24.817244 
L 55.196582 24.758294 
L 55.274366 24.79405 
L 55.308186 24.86561 
L 55.355533 24.744274 
L 55.379207 24.766776 
L 55.490811 24.751785 
L 55.497575 24.756448 
L 55.595651 24.783364 
L 55.531394 24.737023 
L 55.615943 24.758085 
L 55.727547 24.70898 
L 55.734311 24.72917 
L 55.798568 24.763712 
L 55.842533 24.703071 
L 55.977811 24.796251 
L 55.987957 24.779132 
L 56.70493 24.5891 
L 56.830062 24.523764 
L 56.742131 24.613877 
L 56.836826 24.54584 
L 57.012687 24.641333 
L 57.026215 24.626123 
L 57.131055 24.600827 
L 57.141201 24.648337 
L 57.266333 24.72787 
L 57.276479 24.720122 
L 57.384701 24.590685 
L 57.401611 24.613463 
L 57.462486 24.707149 
L 57.513215 24.633954 
L 57.618055 24.54393 
L 57.631583 24.593334 
L 57.702604 24.629121 
L 57.668784 24.570963 
L 57.743187 24.612152 
L 57.777007 24.618584 
L 57.807444 24.702811 
L 57.915667 24.755708 
L 57.848028 24.691932 
L 57.919048 24.72278 
L 58.422958 24.803115 
L 58.517653 24.822587 
L 58.450014 24.750113 
L 58.527799 24.781496 
L 58.619111 24.723323 
L 58.646167 24.760209 
L 58.987743 24.764992 
L 59.109494 24.739071 
L 58.994507 24.773222 
L 59.112875 24.741819 
L 59.268445 24.802544 
L 59.288737 24.761837 
L 59.383431 24.691166 
L 59.302264 24.774697 
L 59.403723 24.744264 
L 59.57282 24.691362 
L 59.582966 24.717828 
L 59.691188 24.776136 
L 59.708098 24.757481 
L 59.799411 24.732201 
L 59.819702 24.76842 
L 60.127459 24.765175 
L 60.134223 24.72826 
L 60.242446 24.700133 
L 60.171425 24.741979 
L 60.245827 24.733471 
L 60.333758 24.756257 
L 60.259355 24.709412 
L 60.35405 24.71522 
L 60.425071 24.769618 
L 60.469036 24.715178 
L 60.4758 24.672222 
L 60.543439 24.800789 
L 60.573876 24.776606 
L 60.658425 24.785075 
L 60.627987 24.735609 
L 60.675335 24.751373 
L 60.803849 24.694903 
L 60.922217 24.774026 
L 60.9628 24.724216 
L 61.027057 24.674457 
L 61.077786 24.712745 
L 61.087932 24.703156 
L 61.22321 24.746824 
L 61.304377 24.705266 
L 61.257029 24.765032 
L 61.334814 24.719423 
L 61.436273 24.754898 
L 61.368634 24.66605 
L 61.459946 24.73651 
L 61.470092 24.700986 
L 61.564787 24.777735 
L 61.926655 24.711493 
L 61.933419 24.735014 
L 62.863454 24.732208 
L 62.968294 24.718647 
L 62.907419 24.802122 
L 62.981822 24.731364 
L 63.167829 24.766545 
L 63.262524 24.762833 
L 63.20503 24.700437 
L 63.272669 24.729819 
L 63.303107 24.682231 
L 63.333544 24.765203 
L 63.387656 24.727759 
L 63.49926 24.836536 
L 63.526315 24.821344 
L 63.641302 24.677511 
L 63.664975 24.723222 
L 63.776579 24.754372 
L 63.678503 24.7678 
L 63.779961 24.757867 
L 63.837454 24.859786 
L 63.908475 24.799865 
L 63.98626 24.726597 
L 64.023461 24.771604 
L 64.050517 24.78364 
L 64.114774 24.721029 
L 64.165503 24.629593 
L 64.239906 24.696628 
L 64.354892 24.748516 
L 64.50708 24.80583 
L 64.513844 24.826819 
L 64.571337 24.66947 
L 64.59501 24.707369 
L 64.730288 24.613511 
L 64.858802 24.688421 
L 64.862184 24.684434 
L 65.176705 24.618536 
L 65.190233 24.665761 
L 65.305219 24.670966 
L 65.240962 24.622444 
L 65.308601 24.669466 
L 65.443879 24.639536 
L 65.460789 24.668676 
L 65.521664 24.737394 
L 65.579157 24.685065 
L 65.663705 24.647964 
L 65.606212 24.719419 
L 65.690761 24.673155 
L 65.711053 24.734336 
L 65.744872 24.599352 
L 65.795601 24.629899 
L 65.853094 24.680136 
L 65.805747 24.617215 
L 65.913969 24.619375 
L 65.968081 24.552967 
L 65.934261 24.647073 
L 66.025574 24.636209 
L 66.052629 24.691802 
L 66.12365 24.543233 
L 66.127032 24.532608 
L 66.181143 24.646781 
L 66.221727 24.5841 
L 66.329949 24.630681 
L 66.248782 24.563442 
L 66.343477 24.614914 
L 66.444935 24.662111 
L 66.4889 24.60186 
L 66.614032 24.493528 
L 66.543011 24.625974 
L 66.617414 24.497457 
L 66.779748 24.555028 
L 66.793276 24.533786 
L 66.88797 24.488628 
L 66.854151 24.562346 
L 66.901498 24.525494 
L 66.962373 24.653091 
L 67.023248 24.590347 
L 67.354679 24.573429 
L 67.476429 24.499692 
L 67.486574 24.507816 
L 67.584651 24.517791 
L 67.520394 24.453818 
L 67.594797 24.499176 
L 67.696255 24.341439 
L 67.723311 24.368733 
L 67.882262 24.431259 
L 67.889026 24.415059 
L 68.037832 24.268805 
L 68.203547 24.449598 
L 68.206929 24.436435 
L 68.379408 24.306736 
L 68.396318 24.301138 
L 68.406464 24.235585 
L 68.419992 24.214706 
L 68.436901 24.19506 
L 68.501158 24.301255 
L 68.52145 24.262493 
L 68.558651 24.31565 
L 68.585707 24.234093 
L 68.6432 24.278687 
L 68.724367 24.308307 
L 68.775096 24.197719 
L 68.893464 24.287504 
L 68.900228 24.264981 
L 69.16402 24.135388 
L 68.913756 24.289521 
L 69.170784 24.14675 
L 69.238423 24.155283 
L 69.201221 24.073433 
L 69.26886 24.098246 
L 69.383846 23.998823 
L 69.427812 24.054053 
L 69.444721 24.097959 
L 69.525888 23.979676 
L 69.52927 23.982476 
L 69.718659 23.805442 
L 69.728805 23.830453 
L 69.735569 23.844143 
L 69.799826 23.657364 
L 69.857319 23.582384 
L 69.809972 23.679374 
L 69.91143 23.631179 
L 69.92834 23.687435 
L 69.999361 23.550243 
L 70.012888 23.572169 
L 70.080527 23.55635 
L 70.043326 23.596901 
L 70.117729 23.588541 
L 70.219187 23.729828 
L 70.246243 23.695497 
L 70.357847 23.628591 
L 70.263152 23.70503 
L 70.374757 23.657599 
L 70.499889 23.597498 
L 70.594583 23.579775 
L 70.52018 23.628254 
L 70.608111 23.590981 
L 70.635166 23.631853 
L 70.685896 23.556115 
L 70.716333 23.588107 
L 70.854993 23.459096 
L 70.858375 23.466025 
L 70.865139 23.493133 
L 70.93616 23.386034 
L 70.956451 23.414807 
L 71.210097 23.164011 
L 70.966597 23.426212 
L 71.213479 23.171694 
L 71.30141 23.278892 
L 71.254063 23.152384 
L 71.338611 23.21338 
L 71.413014 23.125195 
L 71.352139 23.222764 
L 71.460361 23.171921 
L 71.832375 23.014923 
L 72.018383 22.990424 
L 72.021764 22.997383 
L 72.042056 23.066281 
L 72.123223 22.981252 
L 72.129987 22.981337 
L 72.173952 22.937959 
L 72.20439 23.017292 
L 72.238209 22.994643 
L 72.248355 23.014263 
L 72.319376 22.903308 
L 72.32614 22.910547 
L 72.39716 22.908611 
L 72.424216 22.861568 
L 72.43098 22.885774 
L 72.667716 22.900765 
L 72.715063 23.006119 
L 72.775938 22.881978 
L 73.080314 22.797917 
L 73.175008 22.763719 
L 73.134425 22.842502 
L 73.191918 22.799363 
L 73.273085 22.884583 
L 73.320432 22.864219 
L 73.445564 22.815107 
L 73.347487 22.877571 
L 73.448946 22.820677 
L 73.476001 22.889083 
L 73.540258 22.715396 
L 73.550404 22.738725 
L 73.662008 22.538884 
L 73.692446 22.576654 
L 73.891981 22.399958 
L 73.895363 22.414955 
L 73.922418 22.453314 
L 73.979911 22.369829 
L 74.003585 22.395634 
L 74.507495 21.908869 
L 74.656301 21.709839 
L 74.676592 21.732766 
L 74.679974 21.744576 
L 74.750995 21.636629 
L 74.767905 21.650187 
L 74.964058 21.397975 
L 74.96744 21.403544 
L 75.004641 21.260029 
L 75.028315 21.295021 
L 75.170356 20.281103 
L 75.187266 17.792472 
L 75.197412 8.580841 
L 75.295488 23.189368 
L 75.312398 24.132709 
L 75.403711 23.196589 
L 75.549134 19.144829 
L 75.55928 8.776401 
L 75.660739 17.023897 
L 75.694558 24.438031 
L 75.81969 23.159375 
L 75.951586 20.112788 
L 75.968496 8.822176 
L 76.076718 18.293769 
L 76.103774 24.564964 
L 76.195086 23.822072 
L 76.374329 20.653633 
L 76.394621 17.569681 
L 76.401385 8.786424 
L 76.502843 16.99257 
L 76.543427 24.679602 
L 76.665177 23.698802 
L 76.86133 20.294251 
L 76.874857 13.996942 
L 76.881621 8.756417 
L 76.98308 17.507398 
L 77.016899 24.78031 
L 77.121739 24.105183 
L 77.405823 19.669801 
L 77.419351 8.73546 
L 77.520809 18.352973 
L 77.554629 24.843261 
L 77.639177 24.378126 
L 77.787983 23.084829 
L 78.028101 19.686583 
L 78.041629 8.702203 
L 78.139705 18.994288 
L 78.170143 24.874625 
L 78.254691 24.443608 
L 78.447462 22.908055 
L 78.677435 21.213226 
L 78.772129 20.464756 
L 78.795803 18.739023 
L 78.805949 8.704331 
L 78.900643 22.864379 
L 78.931081 24.815727 
L 79.015629 24.340196 
L 79.035921 24.211512 
L 79.353824 21.779789 
L 79.556741 20.901677 
L 79.634526 19.800499 
L 79.651435 8.694405 
L 79.735984 18.872017 
L 79.766421 24.816799 
L 79.854352 24.338421 
L 80.452957 20.83648 
L 80.456338 20.848766 
L 80.51045 20.639716 
L 80.554415 19.979192 
L 80.567943 14.938468 
L 80.574707 8.69928 
L 80.672783 24.45221 
L 80.686311 24.795532 
L 80.774241 24.308778 
L 80.777623 24.310859 
L 81.004214 22.517628 
L 81.22404 21.339905 
L 81.247714 21.23961 
L 81.504742 19.346337 
L 81.51827 8.691976 
L 81.602818 21.735186 
L 81.629874 24.833831 
L 81.717804 24.357621 
L 82.194659 21.404457 
L 82.198041 21.407556 
L 82.228478 21.326411 
L 82.252152 21.319583 
L 82.397576 21.096349 
L 82.400958 21.099231 
L 82.482124 21.068415 
L 82.522708 21.15637 
L 82.546381 21.131076 
L 83.936361 23.533998 
L 84.091931 23.752434 
L 84.095313 23.724749 
L 84.179861 23.939677 
L 84.345577 24.232365 
L 84.348959 24.228133 
L 84.430125 24.412179 
L 84.433507 24.395316 
L 84.548494 24.540858 
L 84.558639 24.534249 
L 84.562021 24.526868 
L 84.61275 24.666027 
L 84.619514 24.660651 
L 84.75141 24.77178 
L 84.639806 24.648747 
L 84.754792 24.76828 
L 84.815667 24.867352 
L 85.079459 24.919211 
L 85.089605 24.883593 
L 85.170772 25.006593 
L 85.177536 25.003839 
L 85.400744 25.077013 
L 85.451473 25.089514 
L 85.478529 25.028285 
L 85.505584 25.03723 
L 85.559695 25.057402 
L 85.596897 24.972193 
L 85.999348 24.893718 
L 86.110953 24.835315 
L 86.01964 24.916678 
L 86.114335 24.849398 
L 86.12448 24.879631 
L 86.168446 24.780317 
L 86.215793 24.805056 
L 86.269904 24.766871 
L 86.276668 24.725975 
L 86.398418 24.65137 
L 86.344307 24.770938 
L 86.4018 24.658441 
L 86.564133 24.616811 
L 86.567515 24.594279 
L 86.584425 24.607987 
L 86.712939 24.563827 
L 86.739995 24.628115 
L 86.807634 24.524019 
L 86.821161 24.548061 
L 86.942911 24.405515 
L 86.953057 24.454607 
L 87.071425 24.515472 
L 87.074807 24.505109 
L 87.189794 24.51428 
L 87.193175 24.527114 
L 87.325071 24.656036 
L 87.338599 24.632556 
L 87.477259 24.577572 
L 87.355509 24.650772 
L 87.484023 24.59962 
L 87.504315 24.688825 
L 87.571953 24.575488 
L 87.595627 24.611719 
L 87.67003 24.57525 
L 87.68694 24.533099 
L 87.771488 24.503801 
L 87.717377 24.561112 
L 87.795162 24.534923 
L 87.818836 24.596742 
L 87.906766 24.550881 
L 87.933822 24.484645 
L 88.01837 24.551532 
L 88.086009 24.678511 
L 88.136739 24.62924 
L 88.272016 24.522205 
L 88.153648 24.65627 
L 88.288926 24.553731 
L 88.390384 24.52492 
L 88.397148 24.488132 
L 88.495225 24.456544 
L 88.407294 24.498371 
L 88.512135 24.469986 
L 88.613593 24.508824 
L 88.545954 24.429606 
L 88.627121 24.472189 
L 88.687996 24.371744 
L 88.745489 24.410925 
L 88.836801 24.307844 
L 88.890913 24.403851 
L 88.93826 24.47289 
L 89.009281 24.441653 
L 89.127649 24.39401 
L 89.080302 24.520826 
L 89.137795 24.429235 
L 89.222343 24.50872 
L 89.252781 24.484852 
L 89.333947 24.401365 
L 89.367767 24.462585 
L 89.550392 24.753775 
L 89.553774 24.751302 
L 89.665378 24.720481 
L 89.567302 24.789634 
L 89.675524 24.736731 
L 89.766837 24.78261 
L 89.712725 24.701545 
L 89.79051 24.740261 
L 89.800656 24.708145 
L 89.817566 24.815072 
L 89.888587 24.786795 
L 90.077976 24.752969 
L 90.165906 24.719691 
L 90.186198 24.747025 
L 90.29442 24.793692 
L 90.236927 24.724465 
L 90.304566 24.764448 
L 90.564976 24.807039 
L 90.612323 24.816362 
L 90.585268 24.778461 
L 90.663052 24.755875 
L 90.784802 24.721541 
L 90.700254 24.806266 
L 90.805094 24.766674 
L 90.886261 24.791325 
L 90.865969 24.73623 
L 90.913316 24.781277 
L 90.97081 24.711315 
L 91.014775 24.817625 
L 91.018157 24.828329 
L 91.068886 24.791627 
L 91.068886 24.791627 
" clip-path="url(#pfe51bfd207)" style="fill: none; stroke: #000000; stroke-width: 0.6; stroke-linecap: square"/>
   </g>
   <g id="line2d_2">
    <path d="M 9.905557 41.788395 
L 10.152439 41.653631 
L 10.155821 41.681647 
L 10.274189 41.7439 
L 10.176113 41.672346 
L 10.277571 41.729854 
L 10.301245 41.707354 
L 10.358738 41.820247 
L 10.37903 41.774127 
L 10.561655 41.913002 
L 10.690169 41.77775 
L 10.581946 41.92184 
L 10.707078 41.838542 
L 10.720606 41.842439 
L 10.737516 41.769845 
L 10.778099 41.768239 
L 10.798391 41.71735 
L 10.86603 41.79977 
L 10.889703 41.760578 
L 10.940433 41.853424 
L 11.00469 41.787186 
L 11.167023 41.771738 
L 11.180551 41.836662 
L 11.285391 41.919309 
L 11.302301 41.892592 
L 11.403759 41.868887 
L 11.325974 41.953858 
L 11.427433 41.907559 
L 11.454488 41.95302 
L 11.47478 41.871222 
L 11.535655 41.886071 
L 11.545801 41.858396 
L 11.589766 41.990859 
L 11.616822 41.96942 
L 11.938107 41.979982 
L 11.941489 41.967719 
L 12.015892 41.879443 
L 12.066621 41.919257 
L 12.113968 41.953774 
L 12.171461 41.909736 
L 12.2391 41.919913 
L 12.296593 41.815078 
L 12.394669 41.907159 
L 12.327031 41.796303 
L 12.421725 41.854553 
L 12.543475 41.913615 
L 12.560385 41.885449 
L 12.567149 41.855465 
L 12.607732 41.918081 
L 12.668607 41.882286 
L 12.729482 41.887776 
L 12.763302 41.832395 
L 12.901961 41.641478 
L 12.918871 41.70763 
L 13.037239 41.802772 
L 12.942545 41.687999 
L 13.040621 41.798648 
L 13.189427 41.691323 
L 13.050767 41.812768 
L 13.206337 41.739625 
L 13.260448 41.807084 
L 13.324705 41.77536 
L 13.531003 41.891535 
L 13.673045 42.033456 
L 13.689955 42.00838 
L 13.835379 41.864979 
L 13.848906 41.881374 
L 13.943601 41.895545 
L 13.967275 41.832672 
L 14.021386 41.760426 
L 14.085643 41.816855 
L 14.09917 41.800245 
L 14.244594 41.919851 
L 14.247976 41.906197 
L 14.288559 41.993768 
L 14.335907 41.986134 
L 14.35958 41.949547 
L 14.454275 42.004866 
L 14.572643 41.930348 
L 14.579407 41.933041 
L 14.697775 41.857537 
L 14.931129 41.883966 
L 14.937893 41.845528 
L 14.98524 41.819434 
L 15.029206 41.927361 
L 15.039351 41.901486 
L 15.083317 41.94555 
L 15.117136 41.813928 
L 15.144192 41.864847 
L 15.235504 41.826739 
L 15.252414 41.884379 
L 15.391074 41.908621 
L 15.259178 41.849194 
L 15.404602 41.87121 
L 15.925421 41.80989 
L 15.986296 41.810649 
L 16.006588 41.729902 
L 16.020116 41.770143 
L 16.118192 41.734807 
L 16.053935 41.792419 
L 16.13172 41.761685 
L 16.223033 41.872743 
L 16.260234 41.848772 
L 16.415804 41.697288 
L 16.27038 41.863652 
L 16.442859 41.732396 
L 16.74047 41.65677 
L 16.753998 41.690029 
L 16.808109 41.745917 
L 16.868984 41.688136 
L 16.885894 41.64368 
L 16.936623 41.746038 
L 16.973825 41.718989 
L 17.2782 41.763417 
L 17.298492 41.804712 
L 17.362749 41.681223 
L 17.379658 41.709918 
L 17.481117 41.719599 
L 17.403332 41.749832 
L 17.484499 41.735839 
L 17.731381 41.734326 
L 17.734763 41.721395 
L 17.873422 41.51286 
L 17.876804 41.516487 
L 17.937679 41.442949 
L 17.897096 41.546813 
L 17.985027 41.513067 
L 18.120305 41.667665 
L 18.123687 41.658999 
L 18.16427 41.748002 
L 18.204853 41.748707 
L 18.340131 41.901349 
L 18.231909 41.730117 
L 18.377332 41.831043 
L 18.603923 41.706377 
L 18.39086 41.855178 
L 18.607305 41.720928 
L 18.610687 41.731465 
L 18.624215 41.677264 
L 18.701999 41.65796 
L 19.019902 41.55305 
L 19.209291 41.807276 
L 19.030048 41.539156 
L 19.212673 41.796426 
L 19.385152 41.737347 
L 19.388534 41.750387 
L 19.517048 41.88784 
L 19.540722 41.864653 
L 19.625271 41.752314 
L 19.557632 41.87032 
L 19.665854 41.799904 
L 19.69291 41.830743 
L 19.753785 41.739377 
L 19.757167 41.740298 
L 19.784222 41.694543 
L 19.845097 41.863533 
L 19.993903 41.728257 
L 20.004049 41.756824 
L 20.05816 41.771623 
L 20.07507 41.674392 
L 20.183292 41.586654 
L 20.19682 41.59656 
L 20.798806 41.549342 
L 20.802188 41.567335 
L 20.80557 41.585602 
L 20.893501 41.481917 
L 21.028778 41.34015 
L 21.03216 41.344523 
L 21.045688 41.375944 
L 21.133619 41.28177 
L 21.231695 41.176364 
L 21.258751 41.215313 
L 21.56989 40.90741 
L 21.573272 40.927143 
L 21.610473 40.995155 
L 21.69164 40.926177 
L 21.891175 40.763106 
L 21.945286 40.842112 
L 22.060272 40.898178 
L 21.958814 40.832858 
L 22.0738 40.868975 
L 22.205696 40.683266 
L 22.209078 40.699469 
L 22.276717 40.698378 
L 22.303772 40.627079 
L 22.310536 40.609567 
L 22.368029 40.711797 
L 22.401849 40.685743 
L 22.763717 40.304903 
L 22.767099 40.318305 
L 22.811064 40.410918 
L 22.777245 40.308472 
L 22.878703 40.316933 
L 22.902377 40.32671 
L 23.013981 40.24263 
L 23.078238 40.181643 
L 23.030891 40.266141 
L 23.142495 40.221685 
L 23.352175 40.264658 
L 23.358939 40.252761 
L 23.504363 40.103431 
L 23.507745 40.107756 
L 23.818884 39.893039 
L 23.859467 39.997549 
L 23.862849 40.013382 
L 23.893287 39.943432 
L 23.957544 39.946464 
L 24.015037 39.892805 
L 24.07253 39.918634 
L 24.075912 39.939891 
L 24.160461 39.816928 
L 24.170606 39.858084 
L 24.224718 39.791034 
L 24.288975 39.812467 
L 24.292357 39.824254 
L 24.373523 39.718778 
L 24.376905 39.721993 
L 24.43778 39.758718 
L 24.481746 39.675447 
L 24.610259 39.5952 
L 24.488509 39.683819 
L 24.633933 39.63671 
L 24.644079 39.61175 
L 24.779357 39.637361 
L 24.843614 39.562204 
L 24.894343 39.574302 
L 25.060058 39.509622 
L 25.070204 39.543471 
L 25.239301 39.672696 
L 25.246065 39.706467 
L 25.313704 39.622963 
L 25.344142 39.639808 
L 25.469274 39.672817 
L 25.35767 39.611603 
L 25.482802 39.608133 
L 25.817614 39.353108 
L 25.489566 39.621737 
L 25.82776 39.371519 
L 25.912309 39.353106 
L 25.875107 39.288075 
L 25.929219 39.327026 
L 26.003621 39.317133 
L 25.94951 39.277634 
L 26.020531 39.273618 
L 26.132135 39.220779 
L 26.037441 39.294009 
L 26.142281 39.244649 
L 26.419601 38.660888 
L 26.734122 37.194604 
L 26.751031 34.821369 
L 26.767941 26.809153 
L 26.855872 38.991847 
L 26.916747 38.34636 
L 26.987768 37.166271 
L 27.008059 32.259032 
L 27.014823 28.693608 
L 27.092608 39.383453 
L 27.109518 39.208599 
L 27.231268 36.330115 
L 27.248178 28.514257 
L 27.32258 39.759047 
L 27.325962 39.745748 
L 27.37331 39.030437 
L 27.471386 36.327019 
L 27.484914 28.154743 
L 27.566081 40.132951 
L 27.569462 40.121744 
L 27.725032 36.922981 
L 27.741942 27.82911 
L 27.809581 38.933368 
L 27.82649 40.490721 
L 27.917803 39.083623 
L 28.012497 36.040199 
L 28.026025 27.574073 
L 28.110574 40.77895 
L 28.113956 40.768821 
L 28.283053 38.119482 
L 28.323637 36.17839 
L 28.337164 27.353979 
L 28.421713 40.98436 
L 28.425095 40.980772 
L 28.661831 36.928537 
L 28.678741 27.213004 
L 28.749762 39.673931 
L 28.766671 41.084617 
L 28.861366 39.970255 
L 29.040609 35.443886 
L 29.050755 27.152223 
L 29.138686 41.15866 
L 29.145449 41.116305 
L 29.392332 38.155908 
L 29.443061 36.384254 
L 29.456589 27.127592 
L 29.537755 41.110682 
L 29.544519 41.162176 
L 29.605394 40.541259 
L 29.879332 36.371936 
L 29.89286 27.194851 
L 29.974026 41.109203 
L 29.977408 41.14415 
L 30.034901 40.625474 
L 30.302075 37.959329 
L 30.356186 36.000026 
L 30.369714 27.295356 
L 30.454263 41.02248 
L 30.46779 40.943218 
L 30.843186 35.344254 
L 30.856714 27.32249 
L 30.937881 40.997857 
L 30.944645 40.978423 
L 31.357242 35.943884 
L 31.374152 27.412146 
L 31.455319 40.952828 
L 31.502666 40.50815 
L 31.911882 36.020792 
L 31.928791 27.516931 
L 32.006576 40.793663 
L 32.01334 40.802146 
L 32.033632 40.60477 
L 32.294041 38.493234 
L 32.3955 38.750766 
L 32.486812 38.743774 
L 32.503722 38.768663 
L 32.62209 38.843589 
L 32.628854 38.822666 
L 32.632236 38.798285 
L 32.699875 39.037634 
L 32.706639 39.028664 
L 32.862208 39.394043 
L 32.868972 39.380799 
L 33.071889 39.892701 
L 33.082035 39.87688 
L 33.731369 41.324347 
L 33.738133 41.319827 
L 33.795626 41.437725 
L 33.934285 41.674379 
L 34.100001 41.905333 
L 34.231897 42.010276 
L 34.373938 42.113823 
L 34.438195 42.068744 
L 34.475397 42.160662 
L 34.614057 42.240322 
L 34.630966 42.268251 
L 34.975925 42.123696 
L 35.094293 42.29569 
L 35.104439 42.281581 
L 35.391904 42.188753 
L 35.395286 42.197433 
L 35.398668 42.214763 
L 35.466307 42.111435 
L 35.493363 42.127924 
L 35.64555 42.029038 
L 35.648932 42.045271 
L 35.672606 42.080935 
L 35.709807 41.997958 
L 35.753772 42.022123 
L 35.872141 41.960466 
L 35.973599 42.06869 
L 36.000655 42.002912 
L 36.085203 41.863485 
L 36.139314 41.878769 
L 36.311794 41.986811 
L 36.463981 41.875211 
L 36.470745 41.898199 
L 36.518092 41.974977 
L 36.578967 41.883611 
L 36.988183 41.854652 
L 37.025384 41.792698 
L 37.005093 41.863469 
L 37.099787 41.847449 
L 37.167426 41.888206 
L 37.130225 41.818813 
L 37.221537 41.870945 
L 37.238447 41.837073 
L 37.299322 41.955595 
L 37.333141 41.876418 
L 37.444746 41.916531 
L 37.370343 41.784609 
L 37.458273 41.904228 
L 37.630753 41.724373 
L 37.640899 41.74435 
L 37.742357 41.896573 
L 37.769412 41.868978 
L 37.847197 41.810186 
L 37.79985 41.895502 
L 37.884399 41.858908 
L 38.046732 41.755516 
L 38.073788 41.736294 
L 38.121135 41.812391 
L 38.151572 41.785396 
L 38.266559 41.820656 
L 38.280086 41.7822 
L 38.401836 41.736789 
L 38.411982 41.747133 
L 38.841489 41.777784 
L 38.959858 41.823912 
L 38.92942 41.692087 
L 38.966621 41.811019 
L 39.071462 41.748242 
L 38.993677 41.837659 
L 39.081608 41.792164 
L 39.196594 41.837716 
L 39.169538 41.733896 
L 39.199976 41.825071 
L 39.342018 41.793124 
L 39.348781 41.802973 
L 39.419802 41.849736 
L 39.379219 41.783865 
L 39.463768 41.816448 
L 39.497587 41.783019 
L 39.514497 41.839778 
L 39.568608 41.832885 
L 39.615955 41.906839 
L 39.686976 41.868628 
L 39.839164 41.743759 
L 39.92033 41.747718 
L 39.900039 41.697414 
L 39.947386 41.734326 
L 40.018407 41.727182 
L 39.987969 41.783483 
L 40.048844 41.765743 
L 40.136775 41.826459 
L 40.157067 41.772996 
L 40.221324 41.74068 
L 40.272053 41.763995 
L 40.549372 41.916627 
L 40.282199 41.747433 
L 40.566282 41.892017 
L 40.681268 41.774829 
L 40.694796 41.790095 
L 40.71847 41.826473 
L 40.755671 41.731001 
L 40.803018 41.771948 
L 40.921386 41.891459 
L 40.955206 41.792346 
L 41.114157 41.719477 
L 41.31031 41.860155 
L 41.164887 41.656526 
L 41.323838 41.842838 
L 41.32722 41.82695 
L 41.361039 41.911198 
L 41.425296 41.895006 
L 41.567338 41.89256 
L 41.57072 41.877222 
L 41.702616 41.790579 
L 41.712762 41.818471 
L 41.773637 41.737043 
L 41.804074 41.753336 
L 41.905533 41.662268 
L 41.820984 41.772299 
L 41.922443 41.700653 
L 42.017137 41.802488 
L 42.040811 41.732336 
L 42.05772 41.704597 
L 42.118595 41.817976 
L 42.121977 41.810954 
L 42.2302 41.875087 
L 42.192998 41.755417 
L 42.240345 41.871012 
L 42.43988 41.956526 
L 42.470318 41.890276 
L 42.571776 41.867157 
L 42.507519 41.929482 
L 42.581922 41.884853 
L 42.598832 41.929973 
L 42.649561 41.781538 
L 42.801749 41.61098 
L 42.80513 41.612412 
L 42.940408 41.702538 
L 42.947172 41.689502 
L 43.085832 41.762926 
L 42.953936 41.684632 
L 43.09936 41.744406 
L 43.173763 41.664537 
L 43.227874 41.695828 
L 43.508575 41.828221 
L 43.234638 41.686218 
L 43.518721 41.808387 
L 43.555923 41.774619 
L 43.616798 41.825856 
L 43.623561 41.822817 
L 43.772367 42.016892 
L 43.796041 41.986931 
L 43.853534 42.113089 
L 43.873826 42.083274 
L 43.911027 42.155826 
L 43.965138 42.042728 
L 43.982048 42.056093 
L 44.151145 42.104235 
L 44.178201 42.053346 
L 44.242458 41.969705 
L 44.296569 42.007128 
L 44.357444 42.037164 
L 44.33377 41.950736 
L 44.404791 41.996745 
L 44.438611 42.038108 
L 44.526541 41.971556 
L 44.661819 42.026318 
L 44.712548 42.086946 
L 44.776805 41.974936 
L 44.915465 41.846703 
L 44.790333 41.993008 
L 44.935757 41.866661 
L 45.006778 41.923152 
L 45.050743 41.868884 
L 45.094708 41.8529 
L 45.071035 41.892026 
L 45.155583 41.88793 
L 45.199548 41.964934 
L 45.243514 41.867543 
L 45.267187 41.891403 
L 45.351736 41.92978 
L 45.37541 41.846739 
L 45.432903 41.820816 
L 45.470104 41.90067 
L 45.490396 41.876835 
L 45.608764 42.01388 
L 45.662875 42.081276 
L 45.70684 41.968293 
L 45.710222 41.968271 
L 45.737278 41.946623 
L 45.771097 42.048046 
L 45.811681 42.008991 
L 45.899611 41.964268 
L 45.906375 41.93221 
L 45.913139 41.947994 
L 46.038271 41.835792 
L 46.045035 41.860589 
L 46.136348 41.775928 
L 46.271625 41.777621 
L 46.281771 41.801701 
L 46.396757 41.813689 
L 46.406903 41.793517 
L 46.782299 41.841254 
L 46.843174 41.820037 
L 46.920959 42.006509 
L 47.276063 41.853313 
L 47.279445 41.862748 
L 47.360612 41.943622 
L 47.299737 41.847948 
L 47.39105 41.910039 
L 47.506036 41.746999 
L 47.5128 41.75553 
L 47.560147 41.805134 
L 47.61764 41.699954 
L 47.65146 41.775022 
L 47.752918 41.663912 
L 47.823939 41.710898 
L 47.864522 41.68909 
L 47.888196 41.605713 
L 47.942307 41.718627 
L 47.965981 41.721612 
L 48.111404 41.828201 
L 48.354904 41.802249 
L 48.358286 41.815458 
L 48.449599 41.905054 
L 48.480036 41.882255 
L 48.591641 41.766128 
L 48.598404 41.805626 
L 48.618696 41.830355 
L 48.666043 41.74956 
L 48.703245 41.783408 
L 48.824995 41.721401 
L 48.845287 41.741917 
L 48.848669 41.756307 
L 48.916307 41.672647 
L 48.943363 41.689198 
L 49.058349 41.702304 
L 48.983946 41.733064 
L 49.061731 41.711404 
L 49.474329 41.874467 
L 49.504766 41.913229 
L 49.545349 41.84288 
L 49.579169 41.854456 
L 49.65019 41.74584 
L 49.711065 41.772612 
L 49.819287 41.633203 
L 49.724593 41.801399 
L 49.849725 41.687095 
L 49.957947 41.704104 
L 49.924127 41.648692 
L 49.961329 41.6931 
L 50.089843 41.68056 
L 49.971475 41.722279 
L 50.096607 41.730875 
L 50.13719 41.758047 
L 50.116898 41.648258 
L 50.198065 41.687351 
L 50.357017 41.637266 
L 50.208211 41.703139 
L 50.373926 41.668711 
L 50.50244 41.727228 
L 50.543024 41.681845 
L 50.600517 41.801612 
L 50.603899 41.794709 
L 50.685065 41.74594 
L 50.715503 41.806911 
L 50.769614 41.716095 
L 50.816961 41.830393 
L 50.860927 41.9116 
L 50.911656 41.774471 
L 50.915038 41.777066 
L 51.057079 41.64907 
L 50.952239 41.836127 
L 51.063843 41.660204 
L 51.121336 41.735029 
L 51.175448 41.669812 
L 51.320871 41.622737 
L 51.205885 41.703371 
L 51.324253 41.628217 
L 51.334399 41.65784 
L 51.385128 41.554882 
L 51.412184 41.550115 
L 51.500114 41.495038 
L 51.432475 41.594121 
L 51.52717 41.537456 
L 51.621864 41.647782 
L 51.652302 41.597591 
L 51.77067 41.547475 
L 51.784198 41.553711 
L 51.838309 41.5793 
L 51.872128 41.484448 
L 51.878892 41.494973 
L 51.90933 41.4231 
L 51.983733 41.535159 
L 51.987115 41.546382 
L 52.044608 41.451787 
L 52.078427 41.471104 
L 53.390622 40.962359 
L 53.519136 40.839442 
L 53.522518 40.855551 
L 53.583393 40.88251 
L 53.556338 40.823225 
L 53.623977 40.818084 
L 53.684852 40.731673 
L 53.654414 40.82987 
L 53.742345 40.784214 
L 53.782928 40.735761 
L 53.853949 40.781452 
L 53.860713 40.783894 
L 53.894532 40.708056 
L 53.904678 40.700604 
L 53.948644 40.638295 
L 53.92497 40.712291 
L 54.019664 40.664477 
L 54.209053 40.594594 
L 54.337567 40.439111 
L 54.347713 40.443261 
L 54.455935 40.523253 
L 54.401824 40.411286 
L 54.469463 40.493166 
L 54.486373 40.505248 
L 54.648706 40.335439 
L 54.740019 40.365361 
L 54.682526 40.284543 
L 54.763693 40.326222 
L 54.767075 40.303905 
L 54.817804 40.397764 
L 54.875297 40.329079 
L 54.997047 40.392951 
L 55.02072 40.336958 
L 55.105269 40.29104 
L 55.07145 40.370416 
L 55.132325 40.331391 
L 55.473901 40.204228 
L 55.497575 40.127005 
L 55.588887 40.206265 
L 56.1672 39.931616 
L 56.180728 39.96805 
L 56.204402 39.990241 
L 56.255131 39.892129 
L 56.370117 39.738558 
L 56.403937 39.794588 
L 56.447902 39.869003 
L 56.522305 39.8012 
L 56.644055 39.69128 
L 56.539214 39.820891 
L 56.650819 39.69767 
L 56.786096 39.803766 
L 56.681256 39.684086 
L 56.79286 39.799611 
L 56.799624 39.812455 
L 58.010361 38.668022 
L 58.270771 37.388013 
L 58.291063 35.492737 
L 58.307972 26.749684 
L 58.392521 39.02377 
L 58.395903 39.010328 
L 58.399285 39.012139 
L 58.409431 38.917896 
L 58.541327 36.736885 
L 58.561618 28.630404 
L 58.625875 39.035528 
L 58.636021 39.393922 
L 58.723952 38.172591 
L 58.781445 35.707279 
L 58.794973 28.468448 
L 58.869375 39.746194 
L 58.882903 39.645579 
L 59.018181 36.497998 
L 59.035091 28.208485 
L 59.112875 40.129321 
L 59.248153 37.789984 
L 59.278591 35.331291 
L 59.288737 27.817527 
L 59.369903 40.456017 
L 59.383431 40.340383 
L 59.55591 36.157315 
L 59.569438 27.564521 
L 59.653987 40.771773 
L 59.657369 40.73851 
L 59.823084 38.179701 
L 59.86705 35.910931 
L 59.877195 27.400498 
L 59.965126 40.964274 
L 59.968508 40.940027 
L 60.174807 37.87734 
L 60.205244 35.900017 
L 60.21539 27.304166 
L 60.303321 41.091053 
L 60.306703 41.080519 
L 60.452126 39.178062 
L 60.570494 36.025313 
L 60.584022 27.196494 
L 60.671953 41.15719 
L 60.928981 38.041665 
L 60.972946 36.23174 
L 60.986474 27.14794 
L 61.071022 41.150044 
L 61.098078 40.937606 
L 61.399071 35.960634 
L 61.412599 27.149123 
L 61.497148 41.171053 
L 61.50053 41.153245 
L 61.62228 39.864688 
L 61.86578 35.209164 
L 61.879308 27.28538 
L 61.963856 41.076228 
L 61.967238 41.050836 
L 61.990912 40.816947 
L 62.349398 36.305577 
L 62.366308 27.290453 
L 62.444093 40.98487 
L 62.447475 41.028605 
L 62.50835 40.445559 
L 62.866836 35.750607 
L 62.880364 27.386401 
L 62.96153 40.931341 
L 62.968294 40.92354 
L 63.019023 40.414434 
L 63.411329 35.821686 
L 63.428239 27.480371 
L 63.509406 40.872421 
L 63.512788 40.882428 
L 63.536461 40.645757 
L 63.834073 38.750013 
L 63.840836 38.764823 
L 63.993024 38.639242 
L 64.026843 38.74361 
L 64.135066 38.968655 
L 64.155357 38.926606 
L 64.189177 38.91715 
L 64.233142 38.991215 
L 64.243288 38.994749 
L 64.395476 39.386613 
L 64.821601 40.486117 
L 64.828365 40.455462 
L 64.885858 40.678652 
L 64.902768 40.670274 
L 65.14965 41.089481 
L 65.322129 41.502511 
L 65.332275 41.485058 
L 65.508136 41.805959 
L 65.538573 41.785346 
L 65.646796 41.875556 
L 65.656942 41.839949 
L 65.744872 41.950079 
L 65.748254 41.946595 
L 65.866622 42.037339 
L 65.981608 41.892809 
L 65.995136 41.913322 
L 66.113504 42.00079 
L 66.116886 41.996487 
L 66.14056 41.972599 
L 66.177761 42.029578 
L 66.225109 42.005565 
L 66.255546 42.009876 
L 66.282602 41.898318 
L 66.289366 41.910375 
L 66.313039 41.889149 
L 66.353622 41.998815 
L 66.36715 42.037548 
L 66.428025 41.881729 
L 66.438171 41.879453 
L 67.060449 42.044189 
L 67.144998 42.113528 
L 67.080741 42.034616 
L 67.178817 42.074833 
L 68.068269 41.849075 
L 68.169728 41.917753 
L 68.105471 41.811378 
L 68.196783 41.908636 
L 68.298242 41.918297 
L 68.318533 41.957118 
L 68.321915 41.983744 
L 68.413228 41.916479 
L 68.423374 41.921445 
L 68.50454 41.831381 
L 68.558651 41.896248 
L 68.629672 41.917552 
L 68.649964 41.861547 
L 68.663492 41.860691 
L 69.028742 42.021735 
L 68.687165 41.811267 
L 69.04227 41.982149 
L 69.16402 41.909404 
L 69.05918 42.014508 
L 69.187693 41.941566 
L 69.191075 41.946309 
L 69.262096 41.862537 
L 69.343263 41.752534 
L 69.279006 41.879238 
L 69.387228 41.81074 
L 69.39061 41.827526 
L 69.478541 41.726208 
L 69.485305 41.741139 
L 69.505596 41.719682 
L 69.549562 41.839137 
L 69.552944 41.839095 
L 69.681458 41.90698 
L 69.559708 41.823194 
L 69.698367 41.884826 
L 69.782916 41.825154 
L 69.820117 41.845841 
L 69.857319 41.852958 
L 69.89452 41.774281 
L 69.921576 41.806619 
L 70.006124 41.766313 
L 70.03318 41.821711 
L 70.043326 41.867275 
L 70.117729 41.742619 
L 70.144784 41.812147 
L 70.151548 41.841771 
L 70.222569 41.773592 
L 70.253007 41.787408 
L 70.648694 41.687368 
L 70.655458 41.723139 
L 70.682514 41.778584 
L 70.740007 41.694915 
L 70.76368 41.711098 
L 70.865139 41.605859 
L 70.81441 41.740157 
L 70.892194 41.643671 
L 71.013944 41.729435 
L 71.122167 41.667798 
L 71.135695 41.704609 
L 71.142458 41.70922 
L 71.193188 41.620294 
L 71.220243 41.649064 
L 71.240535 41.625939 
L 71.314938 41.742687 
L 71.609167 41.787571 
L 71.615931 41.757196 
L 71.710625 41.678133 
L 71.727535 41.745792 
L 71.913542 41.853959 
L 71.930452 41.805046 
L 72.011619 41.890875 
L 72.018383 41.876962 
L 72.15366 41.920214 
L 72.157042 41.903025 
L 72.190862 41.928372 
L 72.288938 41.799029 
L 72.471563 41.572581 
L 72.491855 41.626535 
L 72.637279 41.538732 
L 72.65757 41.608381 
L 72.833432 41.863136 
L 72.836814 41.858253 
L 72.880779 41.796875 
L 72.948418 41.843816 
L 73.043112 41.896354 
L 72.968709 41.831929 
L 73.063404 41.846778 
L 73.168244 41.689453 
L 73.087078 41.862 
L 73.202064 41.767618 
L 73.229119 41.773773 
L 73.249411 41.699255 
L 73.30014 41.728242 
L 73.4388 41.590583 
L 73.448946 41.572867 
L 73.570696 41.645234 
L 73.668772 41.622845 
L 73.597751 41.690203 
L 73.689064 41.648922 
L 73.810814 41.64516 
L 73.824342 41.613357 
L 73.898745 41.714284 
L 74.067842 41.741679 
L 74.179446 41.606764 
L 74.209884 41.650196 
L 74.642773 41.563363 
L 74.652919 41.60257 
L 74.754377 41.739888 
L 74.774669 41.67493 
L 74.896419 41.594348 
L 74.957294 41.648 
L 75.008023 41.589206 
L 75.058752 41.526375 
L 75.123009 41.576683 
L 75.839982 42.03996 
L 75.850128 42.005508 
L 75.860273 42.031675 
L 75.97526 41.978888 
L 76.042899 42.018539 
L 76.083482 41.960185 
L 76.161267 41.895666 
L 76.191704 41.979587 
L 76.272871 42.046058 
L 76.316836 41.9906 
L 76.408149 41.996894 
L 76.360802 42.080705 
L 76.425059 42.046802 
L 76.458878 42.087213 
L 76.533281 42.019535 
L 76.695614 41.946208 
L 76.813982 41.873659 
L 76.824128 41.89119 
L 76.857948 41.865437 
L 76.834274 41.866607 
L 76.878239 41.811351 
L 76.922205 41.843843 
L 76.996607 41.759407 
L 77.037191 41.722961 
L 77.08792 41.815563 
L 77.196142 41.951695 
L 77.10483 41.786991 
L 77.219816 41.942868 
L 77.463316 41.904496 
L 77.466698 41.917645 
L 77.635795 42.039323 
L 77.473462 41.912619 
L 77.652705 42.009929 
L 77.781219 41.879084 
L 77.784601 41.885041 
L 77.950316 41.840096 
L 77.804893 41.920934 
L 77.967226 41.868667 
L 77.9909 41.838498 
L 78.092358 42.018613 
L 78.136323 42.04931 
L 78.203962 41.979165 
L 78.329094 42.116458 
L 78.46099 41.893975 
L 78.481282 41.938041 
L 78.589504 41.927641 
L 78.545539 41.863191 
L 78.592886 41.91007 
L 78.660525 41.824212 
L 78.714636 41.868239 
L 78.805949 41.895483 
L 78.728164 41.852926 
L 78.82624 41.878678 
L 78.866824 41.828224 
L 78.893879 41.904716 
L 78.937845 41.860976 
L 79.123852 41.733673 
L 79.164435 41.818467 
L 79.24222 41.851863 
L 79.2084 41.79963 
L 79.279421 41.82291 
L 79.38088 41.694358 
L 79.292949 41.864714 
L 79.411317 41.758884 
L 79.421463 41.809159 
L 79.509394 41.695311 
L 79.516157 41.706245 
L 79.563505 41.653368 
L 79.526303 41.722187 
L 79.614234 41.736186 
L 79.62438 41.757882 
L 79.661581 41.658533 
L 79.722456 41.712914 
L 79.800241 41.750819 
L 79.735984 41.684652 
L 79.837442 41.71747 
L 79.844206 41.705724 
L 79.908463 41.844389 
L 79.911845 41.842913 
L 80.064033 41.963692 
L 79.928755 41.832333 
L 80.074179 41.945416 
L 80.209456 41.794327 
L 80.084324 41.976972 
L 80.23313 41.824944 
L 80.236512 41.848767 
L 80.327825 41.734673 
L 80.33797 41.704035 
L 80.425901 41.788837 
L 80.561179 41.655203 
L 80.59838 41.747067 
L 80.645727 41.729706 
L 80.713366 41.78313 
L 80.838498 41.614561 
L 80.862172 41.647035 
L 80.916283 41.628059 
L 80.89261 41.67734 
L 80.96363 41.672709 
L 81.068471 41.812627 
L 81.092144 41.757634 
L 81.227422 41.633999 
L 81.234186 41.621178 
L 81.372846 41.600849 
L 81.46754 41.484549 
L 81.497978 41.521145 
L 81.629874 41.752759 
L 81.700895 41.717299 
L 81.74486 41.743359 
L 81.771916 41.816449 
L 81.836173 41.659822 
L 81.842936 41.671498 
L 81.90043 41.655538 
L 81.859846 41.69782 
L 81.934249 41.729936 
L 81.941013 41.768838 
L 82.035707 41.645808 
L 82.039089 41.672031 
L 82.062763 41.716442 
L 82.103346 41.638425 
L 82.150694 41.694055 
L 82.177749 41.657489 
L 82.238624 41.718324 
L 82.262298 41.702835 
L 82.26568 41.712704 
L 82.343465 41.608017 
L 82.367138 41.588039 
L 82.377284 41.64041 
L 82.448305 41.630717 
L 82.607256 41.894571 
L 82.651222 41.823158 
L 82.657986 41.830963 
L 82.830465 41.693008 
L 82.85752 41.731016 
L 82.918395 41.675639 
L 82.938687 41.699689 
L 83.053673 41.521425 
L 83.087493 41.555603 
L 83.13484 41.620943 
L 83.185569 41.518302 
L 83.195715 41.540984 
L 83.263354 41.546806 
L 83.209243 41.520902 
L 83.300555 41.505605 
L 83.53391 41.439203 
L 83.537292 41.460933 
L 83.63875 41.556714 
L 83.665806 41.520493 
L 83.706389 41.542209 
L 83.787556 41.470058 
L 83.875486 41.44491 
L 83.885632 41.417412 
L 84.024292 41.388218 
L 84.027674 41.40296 
L 84.146042 41.262112 
L 84.257646 41.165243 
L 84.176479 41.304823 
L 84.267792 41.20333 
L 84.538348 41.224227 
L 84.707445 40.946783 
L 84.548494 41.235947 
L 84.720973 41.00255 
L 84.829195 40.98997 
L 84.731119 40.96793 
L 84.835959 40.963138 
L 84.920508 40.823919 
L 84.967855 40.872196 
L 85.184299 40.748901 
L 85.211355 40.631561 
L 85.302668 40.681905 
L 85.339869 40.71625 
L 85.390598 40.620225 
L 85.407508 40.656587 
L 85.536022 40.574064 
L 85.542786 40.580277 
L 85.752466 40.387036 
L 85.566459 40.59481 
L 85.755848 40.392833 
L 85.816723 40.338317 
L 85.874216 40.383193 
L 85.908036 40.349975 
L 85.975675 40.425729 
L 86.114335 40.380874 
L 86.171828 40.278964 
L 86.232703 40.338081 
L 86.361217 40.211081 
L 86.472821 40.180352 
L 86.391654 40.242198 
L 86.479585 40.204404 
L 86.980113 39.924377 
L 86.986877 39.977339 
L 87.020696 39.957848 
L 87.000405 39.934791 
L 87.047752 39.887885 
L 87.402856 39.615785 
L 87.416384 39.638261 
L 87.51446 39.733188 
L 87.555044 39.712427 
L 87.93044 39.464384 
L 87.933822 39.476387 
L 88.008225 39.36693 
L 88.021752 39.38554 
L 88.086009 39.420996 
L 88.129975 39.359179 
L 88.244961 39.25512 
L 88.17394 39.377691 
L 88.258489 39.2682 
L 88.380239 39.200311 
L 88.285544 39.288979 
L 88.390384 39.217684 
L 88.471551 39.244837 
L 88.410676 39.187897 
L 88.501989 39.206118 
L 88.613593 39.170993 
L 88.545954 39.237654 
L 88.623739 39.197907 
L 88.637267 39.222288 
L 89.246017 38.216511 
L 89.361003 36.342886 
L 89.381295 26.781163 
L 89.45908 38.89484 
L 89.469225 38.98902 
L 89.536864 38.297113 
L 89.614649 36.4624 
L 89.631559 28.655165 
L 89.705962 39.383287 
L 89.709344 39.382637 
L 89.760073 38.685948 
L 89.851385 35.282391 
L 89.861531 28.557041 
L 89.939316 39.733339 
L 89.956226 39.540374 
L 90.08474 36.577406 
L 90.101649 28.194084 
L 90.176052 40.073392 
L 90.179434 40.11141 
L 90.226781 39.426704 
L 90.345149 34.693652 
L 90.355295 27.81467 
L 90.436462 40.466354 
L 90.44999 40.343246 
L 90.622469 36.042495 
L 90.635997 27.599052 
L 90.717164 40.749136 
L 90.723927 40.719486 
L 90.903171 37.870026 
L 90.930226 36.522533 
L 90.943754 27.3419 
L 91.024921 40.87845 
L 91.031685 40.960456 
L 91.068886 40.54832 
L 91.068886 40.54832 
" clip-path="url(#pfe51bfd207)" style="fill: none; stroke: #000000; stroke-width: 0.6; stroke-linecap: square"/>
   </g>
   <g id="line2d_3">
    <path d="M 9.905557 57.189484 
L 9.976578 56.837394 
L 10.135529 56.419256 
L 10.149057 56.426411 
L 10.581946 55.061772 
L 10.602238 51.718239 
L 10.612384 44.304484 
L 10.686787 58.883001 
L 10.707078 58.733236 
L 10.97087 56.811776 
L 11.045273 56.562017 
L 11.163641 56.342366 
L 11.167023 56.440382 
L 11.329356 59.516329 
L 11.505218 60.398121 
L 11.5086 60.391592 
L 11.545801 60.500931 
L 11.738572 60.961464 
L 11.741954 60.949248 
L 11.880614 61.079953 
L 11.904287 61.043832 
L 11.917815 61.053374 
L 12.002364 61.060004 
L 12.056475 61.051839 
L 12.120732 61.142115 
L 12.198517 61.060562 
L 12.147787 61.161221 
L 12.2391 61.104454 
L 12.272919 61.144374 
L 12.252628 61.100042 
L 12.354086 61.11933 
L 12.455545 61.075455 
L 12.475836 61.094002 
L 12.573913 61.198957 
L 12.519802 61.082844 
L 12.600968 61.174779 
L 12.70919 61.047562 
L 12.736246 61.07062 
L 12.912107 61.177968 
L 12.918871 61.161667 
L 13.064295 61.093032 
L 12.929017 61.191292 
L 13.074441 61.12555 
L 13.101496 61.143564 
L 13.128552 61.08546 
L 13.169135 61.072091 
L 13.564823 61.102934 
L 13.656135 61.106098 
L 13.605406 61.03948 
L 13.673045 61.078791 
L 13.706865 60.977099 
L 13.679809 61.086406 
L 13.774504 61.106696 
L 13.794795 61.159415 
L 13.879344 61.065088 
L 13.913163 61.031891 
L 13.963893 61.133188 
L 13.970656 61.151242 
L 14.01124 61.070103 
L 14.068733 61.100961 
L 14.126226 61.048349 
L 14.082261 61.118075 
L 14.183719 61.101421 
L 14.281796 61.135517 
L 14.200629 61.083419 
L 14.288559 61.089954 
L 14.379872 61.042277 
L 14.396782 61.091018 
L 14.447511 61.141571 
L 14.403546 61.077903 
L 14.508386 61.100181 
L 14.816143 61.105514 
L 14.819525 61.085852 
L 14.998768 61.023554 
L 15.012296 61.066268 
L 15.022442 61.106919 
L 15.069789 61.029263 
L 15.117136 61.029487 
L 15.188157 61.11259 
L 15.252414 61.030856 
L 15.316671 61.018892 
L 15.292997 61.070561 
L 15.357254 61.067406 
L 15.374164 61.013798 
L 15.438421 61.143368 
L 15.495914 61.148887 
L 15.465477 61.121377 
L 15.533116 61.090718 
L 15.681921 61.008784 
L 15.685303 61.015141 
L 15.746178 61.051486 
L 15.722505 60.998884 
L 15.793526 60.988256 
L 15.796907 60.970294 
L 15.861164 61.04725 
L 15.901748 61.008511 
L 16.118192 61.100793 
L 16.229797 60.950037 
L 16.239942 60.985117 
L 16.354929 60.98189 
L 16.361692 61.012259 
L 16.439477 61.106781 
L 16.483443 61.069176 
L 16.534172 61.11681 
L 16.611957 61.037765 
L 16.639012 61.053344 
L 16.686359 60.956578 
L 16.689741 60.949666 
L 16.710033 61.04921 
L 16.75738 61.049442 
L 16.825019 61.067699 
L 16.845311 60.99147 
L 16.862221 61.016008 
L 17.024554 61.021608 
L 16.875748 61.045218 
L 17.027936 61.045388 
L 17.098957 61.109872 
L 17.13954 61.043308 
L 17.146304 61.013425 
L 17.268054 61.070646 
L 17.389804 61.032574 
L 17.646832 60.954726 
L 17.650214 60.96475 
L 17.673888 60.991034 
L 17.741527 60.916544 
L 17.758436 60.957009 
L 17.839603 60.911546 
L 17.870041 60.964556 
L 17.968117 60.99579 
L 17.927534 61.024921 
L 17.978263 61.004869 
L 18.14736 61.089867 
L 18.154124 61.077034 
L 18.326603 60.934228 
L 18.329985 60.945022 
L 18.465263 61.078248 
L 18.343513 60.92087 
L 18.472027 61.065054 
L 18.590395 61.012769 
L 18.499083 61.075203 
L 18.593777 61.016053 
L 18.718909 61.057553 
L 18.779784 60.970146 
L 18.786548 60.931711 
L 18.884624 61.009286 
L 19.03343 60.914007 
L 19.060486 60.956358 
L 19.124743 60.902846 
L 19.205909 61.016315 
L 19.307368 60.980862 
L 19.26002 61.030891 
L 19.314132 61.026135 
L 19.533958 61.101088 
L 19.544104 61.085406 
L 19.662472 60.959847 
L 19.669236 60.963256 
L 19.750403 60.895598 
L 19.787604 60.946019 
L 19.811278 60.885768 
L 19.899208 60.944601 
L 20.017576 60.993686 
L 20.027722 60.95502 
L 20.132563 60.866845 
L 20.14609 60.892335 
L 20.247549 61.020441 
L 20.261077 60.967756 
L 20.315188 60.896768 
L 20.379445 60.917377 
L 20.453847 60.855061 
L 20.416646 60.940178 
L 20.501195 60.897065 
L 20.606035 60.945475 
L 20.629709 60.931835 
L 20.660146 60.935017 
L 20.70073 60.850671 
L 20.707493 60.857246 
L 20.913792 60.760733 
L 20.94423 60.830384 
L 20.954376 60.878666 
L 21.03216 60.736551 
L 21.045688 60.748912 
L 21.143765 60.806905 
L 21.157292 60.75686 
L 21.248605 60.649304 
L 21.282424 60.666499 
L 21.339917 60.771288 
L 21.407556 60.707821 
L 21.485341 60.69403 
L 21.454904 60.655686 
L 21.509015 60.668558 
L 21.539452 60.694179 
L 21.644293 60.604722 
L 21.725459 60.698249 
L 21.661202 60.565309 
L 21.755897 60.600886 
L 21.782952 60.620942 
L 21.870883 60.584519 
L 21.904702 60.521201 
L 21.979105 60.570027 
L 22.083946 60.42717 
L 21.992633 60.575355 
L 22.111001 60.432055 
L 22.124529 60.490788 
L 22.171876 60.398657 
L 22.219223 60.416415 
L 22.368029 60.519588 
L 22.249661 60.375728 
L 22.381557 60.503839 
L 23.680224 60.09175 
L 23.747863 60.003027 
L 23.79521 60.066672 
L 23.856085 60.087149 
L 23.900051 60.025317 
L 24.285593 59.931695 
L 24.31603 59.966029 
L 24.414107 59.828049 
L 25.256211 59.398783 
L 25.290031 59.326418 
L 25.364434 59.402466 
L 25.46251 59.367922 
L 25.377961 59.360428 
L 25.469274 59.355125 
L 25.597788 59.265793 
L 25.516621 59.367615 
L 25.60117 59.272603 
L 25.73983 59.192597 
L 25.658663 59.305199 
L 25.746593 59.203294 
L 25.868343 59.245277 
L 26.091552 59.038194 
L 26.094934 59.040564 
L 26.45342 58.854638 
L 26.537969 59.008977 
L 26.588698 58.953974 
L 26.842344 58.674501 
L 26.849108 58.705792 
L 26.916747 58.701837 
L 26.872782 58.672737 
L 26.94042 58.646182 
L 27.018205 58.525878 
L 27.062171 58.609666 
L 27.065552 58.628934 
L 27.136573 58.537809 
L 27.170393 58.589733 
L 27.325962 58.506315 
L 27.180539 58.614916 
L 27.33949 58.527933 
L 27.566081 58.658356 
L 27.569462 58.655557 
L 27.728414 58.555379 
L 27.593136 58.674959 
L 27.741942 58.598701 
L 28.036171 58.487871 
L 28.134248 58.296295 
L 28.168067 58.377688 
L 29.507318 57.853581 
L 29.5107 57.867014 
L 29.514082 57.872546 
L 29.544519 57.815849 
L 29.595248 57.797914 
L 29.679797 57.640179 
L 29.733908 57.662421 
L 29.774491 57.705546 
L 29.831985 57.582558 
L 30.031519 57.486263 
L 30.034901 57.501729 
L 30.166797 57.392451 
L 30.39677 57.277323 
L 30.400152 57.286321 
L 30.535429 57.437422 
L 30.545575 57.434358 
L 30.569249 57.36515 
L 30.653797 57.455987 
L 30.657179 57.43908 
L 30.724818 57.44203 
L 30.680853 57.390051 
L 30.741728 57.376581 
L 30.765402 57.40627 
L 30.880388 57.219936 
L 30.941263 57.190864 
L 30.907443 57.174723 
L 30.961555 57.144118 
L 31.123888 57.087277 
L 31.12727 57.102382 
L 31.147562 57.038429 
L 31.228728 57.057453 
L 31.438409 56.829641 
L 31.563541 56.689231 
L 31.85777 56.464471 
L 31.986284 56.347317 
L 32.27375 55.105425 
L 32.290659 53.329124 
L 32.304187 44.014901 
L 32.381972 57.910402 
L 32.3955 57.811178 
L 32.635618 55.067841 
L 32.649146 52.98437 
L 32.659292 44.639088 
L 32.733694 58.56051 
L 32.753986 58.421311 
L 33.014396 54.875402 
L 33.031306 44.538334 
L 33.095563 56.351056 
L 33.112472 58.864739 
L 33.207167 57.881352 
L 33.325535 56.473097 
L 33.42023 54.487665 
L 33.433757 44.468725 
L 33.50816 58.894938 
L 33.518306 59.026627 
L 33.596091 58.269925 
L 33.859883 54.648615 
L 33.87341 44.459847 
L 33.941049 58.007756 
L 33.957959 59.116866 
L 34.052654 58.250887 
L 34.343501 53.710735 
L 34.353647 44.343369 
L 34.434813 59.191225 
L 34.444959 59.146321 
L 34.854175 55.08947 
L 34.871085 49.386222 
L 34.877848 44.339897 
L 34.959015 59.19467 
L 34.972543 59.097656 
L 35.40205 55.211369 
L 35.422342 51.677526 
L 35.429106 44.362343 
L 35.510272 59.213953 
L 35.527182 59.088061 
L 35.733481 57.300783 
L 35.956689 55.819324 
L 36.004037 55.328125 
L 36.02771 53.598691 
L 36.037856 44.313442 
L 36.115641 59.177325 
L 36.129169 59.11655 
L 36.67028 54.846289 
L 36.683808 49.888624 
L 36.690572 44.329255 
L 36.764974 59.10948 
L 36.785266 59.020558 
L 37.255357 55.823201 
L 37.326378 54.722513 
L 37.346669 44.32873 
L 37.404162 57.657214 
L 37.421072 59.170682 
L 37.515767 58.388464 
L 37.850579 56.195241 
L 37.853961 56.197382 
L 37.857343 56.199848 
L 37.877635 56.078796 
L 37.928364 55.863758 
L 38.019677 55.019999 
L 38.036586 51.928178 
L 38.046732 44.353173 
L 38.124517 59.072566 
L 38.141427 58.959062 
L 38.401836 56.965502 
L 38.729885 55.591359 
L 38.773851 54.592347 
L 38.79076 44.382036 
L 38.851635 58.291377 
L 38.865163 59.053897 
L 38.959858 58.270894 
L 39.325108 56.20786 
L 39.524643 54.784498 
L 39.53817 50.356455 
L 39.544934 44.395893 
L 39.622719 59.050702 
L 39.639629 58.945496 
L 40.001497 56.472284 
L 40.160449 56.094254 
L 40.295726 54.752899 
L 40.312636 45.020347 
L 40.316018 44.250716 
L 40.370129 55.721462 
L 40.390421 59.074259 
L 40.485115 58.287134 
L 40.799636 56.545764 
L 41.117539 55.558208 
L 41.175032 53.916067 
L 41.18856 44.368977 
L 41.262963 58.941903 
L 41.273109 58.881506 
L 41.523373 56.94547 
L 41.594394 56.651183 
L 41.760109 56.227653 
L 42.034047 55.347906 
L 42.067866 53.997655 
L 42.081394 44.380486 
L 42.159179 58.918976 
L 42.162561 58.904019 
L 42.713818 56.132524 
L 42.7172 56.13869 
L 42.720582 56.145837 
L 42.764547 56.015203 
L 42.784839 56.02749 
L 42.879533 55.925047 
L 43.018193 55.723901 
L 43.150089 54.550746 
L 43.170381 44.382731 
L 43.224492 57.517902 
L 43.244784 58.820718 
L 43.336096 57.991416 
L 43.610034 56.427021 
L 43.623561 56.429135 
L 43.785895 59.207733 
L 44.097034 60.589383 
L 44.100416 60.582184 
L 44.800479 61.190889 
L 44.803861 61.176285 
L 44.895173 61.09327 
L 44.918847 61.154066 
L 45.013541 61.155042 
L 44.972958 61.122492 
L 45.027069 61.130705 
L 45.226604 61.068603 
L 45.351736 61.169484 
L 45.470104 61.198272 
L 45.385556 61.091656 
L 45.483632 61.14764 
L 45.517451 61.173179 
L 45.625674 61.021642 
L 45.716986 61.132821 
L 45.63582 61.008134 
L 45.760952 61.052645 
L 45.865792 61.047142 
L 45.808299 61.135883 
L 45.872556 61.063015 
L 45.963868 61.153198 
L 46.007834 61.10657 
L 46.129584 61.09752 
L 46.014598 61.116354 
L 46.132966 61.103615 
L 46.231042 61.131368 
L 46.166785 61.050086 
L 46.247952 61.120608 
L 46.400139 61.038615 
L 46.467778 61.10932 
L 46.501598 60.984529 
L 46.680841 61.188546 
L 46.71466 61.136603 
L 46.772153 61.025169 
L 46.829647 61.094291 
L 46.910813 61.147886 
L 46.83641 61.078466 
L 46.941251 61.095208 
L 47.00889 61.009156 
L 47.069765 61.083233 
L 47.174605 61.082676 
L 47.13064 61.028341 
L 47.177987 61.063614 
L 47.313265 60.993508 
L 47.208425 61.10485 
L 47.333557 61.009329 
L 47.468834 61.124808 
L 47.475598 61.105514 
L 47.820557 61.092274 
L 47.935543 61.026015 
L 47.847612 61.10277 
L 47.942307 61.041578 
L 48.047147 61.039696 
L 48.009946 60.951053 
L 48.053911 61.020022 
L 48.168897 60.94639 
L 48.080967 61.060717 
L 48.175661 60.973735 
L 48.321085 60.999065 
L 48.195953 61.018035 
L 48.327849 61.012272 
L 48.510474 61.162116 
L 48.52062 61.138851 
L 48.801321 60.936766 
L 48.831759 60.914634 
L 48.848669 60.979051 
L 48.90278 60.981622 
L 49.021148 61.048703 
L 49.027912 61.040731 
L 49.207155 61.023351 
L 49.210537 61.003407 
L 49.257884 61.077429 
L 49.311995 61.038939 
L 49.342433 61.086448 
L 49.420217 61.035627 
L 49.558877 60.972921 
L 49.498002 61.097497 
L 49.569023 60.980849 
L 49.694155 61.041893 
L 49.585933 60.972272 
L 49.697537 61.041043 
L 49.822669 61.002258 
L 49.707683 61.046434 
L 49.829433 61.019965 
L 49.954565 61.061549 
L 49.890308 60.944501 
L 49.961329 61.041648 
L 50.072933 60.946861 
L 50.089843 60.981261 
L 50.096607 60.993531 
L 50.174391 60.913948 
L 50.184537 60.941325 
L 50.272468 60.877567 
L 50.208211 60.992004 
L 50.296142 60.916718 
L 50.444947 61.064706 
L 50.455093 61.047794 
L 50.563315 61.014498 
L 50.573461 60.991781 
L 50.603899 60.932761 
L 50.681683 60.997492 
L 50.701975 60.984684 
L 50.803433 61.011384 
L 50.921802 60.972236 
L 50.837253 61.03933 
L 50.925184 60.980627 
L 51.070607 61.037597 
L 50.959003 60.915946 
L 51.073989 61.021502 
L 51.148392 61.071357 
L 51.219413 60.932283 
L 51.331017 60.810223 
L 51.385128 60.880684 
L 51.54408 61.03699 
L 51.547462 61.035151 
L 51.669212 60.837892 
L 51.696267 60.878543 
L 51.814635 60.948426 
L 51.706413 60.86427 
L 51.818017 60.935877 
L 52.075045 60.813838 
L 51.838309 60.961555 
L 52.078427 60.829732 
L 52.146066 60.879915 
L 52.193413 60.844901 
L 52.230615 60.850145 
L 52.315163 60.721344 
L 52.355747 60.66441 
L 52.406476 60.775308 
L 52.43015 60.714054 
L 52.484261 60.740819 
L 52.521462 60.676958 
L 52.541754 60.698668 
L 52.629684 60.653947 
L 52.65674 60.687455 
L 52.764962 60.785664 
L 52.714233 60.66701 
L 52.788636 60.764646 
L 52.81231 60.755329 
L 52.876567 60.825267 
L 52.893476 60.795232 
L 52.93406 60.685776 
L 52.937442 60.654537 
L 52.961115 60.729837 
L 53.042282 60.694888 
L 53.502227 60.608947 
L 53.623977 60.422797 
L 53.519136 60.625022 
L 53.644268 60.461811 
L 53.661178 60.458229 
L 53.694998 60.564126 
L 53.708525 60.560498 
L 53.711907 60.583147 
L 53.793074 60.418284 
L 53.799838 60.422342 
L 53.809984 60.43582 
L 53.921588 60.397339 
L 54.056866 60.362016 
L 54.06363 60.32935 
L 54.15156 60.219592 
L 54.188762 60.253189 
L 54.635179 60.210301 
L 54.750165 60.125301 
L 54.675762 60.229335 
L 54.753547 60.133609 
L 54.831331 60.174906 
L 54.770456 60.100497 
L 54.858387 60.117486 
L 54.91588 60.046783 
L 54.875297 60.124049 
L 54.963227 60.125588 
L 55.024102 60.1769 
L 55.03763 60.111896 
L 55.074832 60.129686 
L 55.1932 60.036169 
L 55.199964 60.046965 
L 55.365679 60.002808 
L 55.206728 60.054767 
L 55.375825 60.023181 
L 55.396117 60.003522 
L 55.500957 60.073973 
L 55.609179 59.946985 
L 55.534776 60.086586 
L 55.626089 59.95361 
L 56.042068 59.692843 
L 56.116471 59.648809 
L 56.069124 59.738373 
L 56.153672 59.688923 
L 56.160436 59.725219 
L 56.214548 59.664638 
L 56.261895 59.676712 
L 56.589944 59.596285 
L 56.667728 59.561737 
L 56.684638 59.628884 
L 56.694784 59.626388 
L 56.904465 59.484646 
L 56.735367 59.681747 
L 56.928138 59.514377 
L 57.002541 59.509146 
L 57.022833 59.454213 
L 57.117527 59.44921 
L 57.127673 59.424557 
L 57.266333 59.248631 
L 57.279861 59.273177 
L 57.361027 59.150599 
L 57.506451 59.0501 
L 57.367791 59.171353 
L 57.550416 59.128603 
L 57.682312 59.158054 
L 57.594382 59.037898 
L 57.692458 59.151248 
L 57.814208 59.044789 
L 58.047562 59.013997 
L 58.050944 58.983743 
L 58.196368 58.753446 
L 58.203132 58.758276 
L 58.270771 58.842887 
L 58.318118 58.762463 
L 58.392521 58.758173 
L 58.351938 58.717869 
L 58.419576 58.741371 
L 58.531181 58.504639 
L 58.54809 58.540827 
L 58.666459 58.567807 
L 58.575146 58.484329 
L 58.669841 58.563913 
L 58.784827 58.537124 
L 58.788209 58.54293 
L 58.879521 58.586844 
L 58.832174 58.521215 
L 58.896431 58.518309 
L 58.899813 58.521182 
L 58.937014 58.410488 
L 58.94716 58.419553 
L 59.072292 58.366921 
L 59.099348 58.334688 
L 59.19066 58.355634 
L 59.214334 58.380878 
L 59.319174 58.246704 
L 59.36314 58.189756 
L 59.325938 58.261939 
L 59.437542 58.246839 
L 59.542383 58.223281 
L 59.45107 58.217224 
L 59.545765 58.194221 
L 59.809556 58.202534 
L 59.897487 58.274229 
L 59.860286 58.180553 
L 59.924543 58.219028 
L 60.019237 58.1652 
L 60.140987 57.991623 
L 60.154515 58.01022 
L 60.225536 57.996434 
L 60.195098 57.970322 
L 60.249209 57.953382 
L 60.573876 57.604999 
L 60.266119 57.965582 
L 60.577258 57.614419 
L 60.611078 57.678369 
L 60.658425 57.586 
L 60.692244 57.637176 
L 60.844432 57.400565 
L 60.851196 57.44716 
L 60.922217 57.483983 
L 60.85796 57.443626 
L 60.956036 57.415183 
L 61.013529 57.354546 
L 61.064258 57.422008 
L 61.202918 57.433942 
L 61.273939 57.483947 
L 61.22321 57.414218 
L 61.321286 57.45279 
L 61.36187 57.439585 
L 61.392307 57.516428 
L 61.402453 57.544356 
L 61.48362 57.41915 
L 61.490384 57.433931 
L 61.595224 57.363195 
L 61.60537 57.394022 
L 61.656099 57.302865 
L 61.669627 57.261635 
L 61.730502 57.378907 
L 61.767703 57.29677 
L 61.784613 57.301932 
L 61.828578 57.202347 
L 61.83196 57.217047 
L 61.95371 57.084913 
L 61.963856 57.110787 
L 62.007822 57.157816 
L 61.984148 57.086053 
L 62.055169 57.065525 
L 62.153245 57.014627 
L 62.166773 57.06286 
L 62.291905 56.978276 
L 62.376454 57.014245 
L 62.332488 57.030228 
L 62.386599 57.026405 
L 62.437329 57.060908 
L 62.477912 56.946742 
L 62.481294 56.956536 
L 62.599662 56.826294 
L 62.498204 56.977761 
L 62.609808 56.838103 
L 62.890509 56.644445 
L 63.005496 56.593258 
L 62.944621 56.707536 
L 63.008878 56.618461 
L 63.01226 56.629125 
L 63.039315 56.563966 
L 63.106954 56.57125 
L 63.296343 56.398701 
L 63.299725 56.412142 
L 63.46544 55.989636 
L 63.468822 55.993596 
L 63.506024 55.881471 
L 63.600718 53.899832 
L 63.614246 43.982727 
L 63.695413 57.888771 
L 63.702177 57.835164 
L 63.935531 55.126805 
L 63.952441 52.009914 
L 63.959205 44.602528 
L 64.036989 58.595081 
L 64.057281 58.429683 
L 64.317691 54.6407 
L 64.331219 44.526131 
L 64.402239 58.462129 
L 64.415767 58.900726 
L 64.50708 57.965839 
L 64.730288 53.714253 
L 64.740434 44.445478 
L 64.824983 59.04883 
L 64.835129 58.964056 
L 65.173323 53.962218 
L 65.183469 44.388347 
L 65.268018 59.14899 
L 65.274782 59.108341 
L 65.339039 58.51595 
L 65.660323 54.374692 
L 65.673851 44.350167 
L 65.751636 59.169329 
L 65.755018 59.195201 
L 65.805747 58.763314 
L 66.177761 54.981818 
L 66.191289 51.040872 
L 66.198053 44.299011 
L 66.27922 59.228285 
L 66.296129 59.113023 
L 66.76622 53.832531 
L 66.776366 44.350802 
L 66.857532 59.207728 
L 66.867678 59.125605 
L 66.931935 58.566659 
L 67.25322 56.159407 
L 67.354679 55.359328 
L 67.381734 53.183061 
L 67.39188 44.284901 
L 67.469665 59.178566 
L 67.486574 59.083322 
L 67.861971 56.393981 
L 68.03445 55.017286 
L 68.05136 50.345871 
L 68.058123 44.30961 
L 68.135908 59.131294 
L 68.1562 58.998731 
L 68.714221 55.100076 
L 68.731131 53.413827 
L 68.741277 44.377391 
L 68.819061 59.115742 
L 68.832589 59.024737 
L 69.197839 56.441733 
L 69.201221 56.446117 
L 69.235041 56.318833 
L 69.421048 55.235527 
L 69.444721 52.316148 
L 69.454867 44.272333 
L 69.52927 59.099895 
L 69.549562 58.985584 
L 69.938486 56.347937 
L 70.121111 55.748278 
L 70.192132 54.236122 
L 70.209041 44.370091 
L 70.283444 59.055893 
L 70.317264 58.802774 
L 70.679132 56.355702 
L 70.682514 56.36963 
L 70.685896 56.372487 
L 70.706187 56.262451 
L 70.716333 56.262497 
L 70.953069 54.819021 
L 70.966597 50.991554 
L 70.976743 44.380277 
L 71.051146 59.018824 
L 71.071438 58.859242 
L 71.588875 56.059438 
L 71.730917 55.328506 
L 71.757973 54.074972 
L 71.7715 44.322631 
L 71.849285 59.029357 
L 71.852667 59.017911 
L 72.366723 56.107073 
L 72.444508 55.853476 
L 72.576404 54.322612 
L 72.593313 44.319823 
L 72.660952 58.939537 
L 72.664334 58.98288 
L 72.731973 58.448746 
L 72.968709 56.809261 
L 72.972091 56.811748 
L 73.246029 56.116409 
L 73.252793 56.125603 
L 73.506439 54.993028 
L 73.523349 52.237076 
L 73.533494 44.264071 
L 73.607897 58.951963 
L 73.628189 58.810115 
L 73.946092 56.648411 
L 73.979911 56.553224 
L 74.162536 56.169035 
L 74.524405 55.413908 
L 74.554842 54.880548 
L 74.571752 50.352643 
L 74.581898 44.363661 
L 74.652919 58.862043 
L 74.67321 58.722841 
L 74.940384 56.751423 
L 75.187266 56.327694 
L 75.586336 60.62614 
L 75.728378 61.036462 
L 75.81969 60.969027 
L 75.8366 61.031487 
L 75.904239 61.105874 
L 75.846746 61.023257 
L 75.948204 61.037897 
L 75.961732 60.996265 
L 76.046281 61.074463 
L 76.053044 61.065162 
L 76.113919 61.167941 
L 76.171413 61.105613 
L 76.255961 61.109232 
L 76.225524 61.197823 
L 76.272871 61.148891 
L 76.367565 61.197223 
L 76.303308 61.13443 
L 76.398003 61.16497 
L 76.469024 61.063073 
L 76.529899 61.115281 
L 76.550191 61.100453 
L 76.648267 61.137967 
L 76.712524 61.105541 
L 76.685468 61.177145 
L 76.756489 61.161088 
L 76.874857 61.10095 
L 76.885003 61.106818 
L 76.993226 61.170143 
L 77.006753 61.164307 
L 77.223198 61.093938 
L 77.240108 61.134907 
L 77.260399 61.16491 
L 77.338184 61.055757 
L 77.476844 61.073447 
L 77.48699 61.059538 
L 77.510663 61.04215 
L 77.568156 61.150003 
L 77.57492 61.132956 
L 77.615504 61.153408 
L 77.662851 61.090381 
L 77.676379 61.098711 
L 77.781219 61.047872 
L 77.689906 61.110117 
L 77.794747 61.076531 
L 77.906351 61.123742 
L 77.81842 61.038113 
L 77.909733 61.110226 
L 77.987518 61.049231 
L 78.024719 61.078165 
L 78.149851 61.122637 
L 78.031483 61.053369 
L 78.153233 61.120535 
L 78.274983 61.022891 
L 78.285129 61.041899 
L 78.572594 61.086599 
L 78.579358 61.069564 
L 78.630088 61.014138 
L 78.690963 61.057137 
L 78.816095 61.110212 
L 78.714636 61.019163 
L 78.822858 61.09261 
L 79.10356 61.116519 
L 79.106942 61.145437 
L 79.164435 61.07427 
L 79.211782 61.090439 
L 79.269275 61.112216 
L 79.320005 61.089285 
L 79.38088 60.988348 
L 79.434991 61.069667 
L 79.472192 61.034682 
L 79.506012 61.135434 
L 79.543213 61.091964 
L 79.549977 61.117866 
L 79.627762 60.963832 
L 79.651435 60.938985 
L 79.688637 61.01652 
L 79.722456 61.008135 
L 79.827296 61.080815 
L 79.85097 61.060371 
L 79.962574 61.117628 
L 79.976102 61.076632 
L 80.074179 61.016498 
L 80.09447 61.050721 
L 80.175637 61.054969 
L 80.158727 60.983986 
L 80.195929 61.006739 
L 80.304151 61.01162 
L 80.256804 61.088183 
L 80.310915 61.015155 
L 80.480012 60.942393 
L 80.486776 60.93279 
L 80.622054 61.110882 
L 80.726894 61.019725 
L 80.757332 61.085607 
L 80.916283 61.10896 
L 80.919665 61.094515 
L 80.96363 61.003151 
L 81.031269 61.086271 
L 81.166547 61.051506 
L 81.173311 61.024504 
L 81.237568 61.113762 
L 81.271388 61.082997 
L 81.274769 61.085275 
L 81.308589 60.995748 
L 81.315353 60.999763 
L 81.393138 60.908761 
L 81.423575 60.991983 
L 81.457395 61.100794 
L 81.541943 61.069558 
L 81.846318 61.086344 
L 81.8497 61.108326 
L 81.890284 61.036798 
L 81.954541 61.059137 
L 82.059381 60.960913 
L 81.995124 61.104848 
L 82.089819 60.969096 
L 82.14393 60.950245 
L 82.120256 60.996309 
L 82.194659 60.996244 
L 82.24877 61.071136 
L 82.302881 60.985199 
L 82.360374 61.037499 
L 82.424631 60.949521 
L 82.553145 60.867751 
L 82.573437 60.916107 
L 82.898104 60.752724 
L 82.904868 60.784402 
L 82.982652 60.878623 
L 83.040145 60.817988 
L 83.121312 60.749869 
L 83.155132 60.784005 
L 83.574493 60.733199 
L 83.669187 60.681299 
L 83.588021 60.759867 
L 83.696243 60.711505 
L 83.797701 60.727929 
L 83.730063 60.686631 
L 83.811229 60.709365 
L 83.98709 60.692764 
L 84.000618 60.737353 
L 84.078403 60.808768 
L 84.12575 60.74988 
L 84.196771 60.711841 
L 84.230591 60.787289 
L 84.389542 60.654391 
L 84.52482 60.559888 
L 84.548494 60.511532 
L 84.64657 60.552942 
L 84.761556 60.388036 
L 84.815667 60.443224 
L 84.940799 60.561717 
L 84.988147 60.467518 
L 85.055785 60.476417 
L 85.106515 60.383312 
L 85.120042 60.423195 
L 85.187681 60.301721 
L 85.201209 60.309823 
L 86.364599 60.156068 
L 86.459293 60.112027 
L 86.486349 60.212213 
L 86.638536 60.074876 
L 86.709557 60.109005 
L 86.658828 60.034435 
L 86.743377 60.048501 
L 86.777196 60.072898 
L 86.882036 59.938976 
L 86.990259 59.988884 
L 87.000405 59.981247 
L 87.037606 59.933168 
L 87.017314 59.991303 
L 87.108627 59.989272 
L 87.122155 60.003558 
L 87.14921 59.899926 
L 87.16612 59.892733 
L 87.362273 59.714493 
L 87.419766 59.663576 
L 87.423148 59.627721 
L 87.467113 59.638148 
L 87.555044 59.528896 
L 87.659884 59.502525 
L 87.575335 59.56273 
L 87.680176 59.540922 
L 87.747815 59.580056 
L 87.710613 59.51826 
L 87.788398 59.531228 
L 88.004843 59.399574 
L 88.086009 59.386996 
L 88.031898 59.444133 
L 88.106301 59.42848 
L 88.204377 59.464991 
L 88.221287 59.439577 
L 88.407294 59.178217 
L 88.711669 59.263436 
L 88.718433 59.251638 
L 88.826656 59.159553 
L 88.846947 59.202196 
L 88.931496 59.173961 
L 88.907822 59.106504 
L 88.941642 59.156016 
L 89.114121 58.923747 
L 89.124267 58.944019 
L 89.347475 58.874646 
L 89.526718 58.796271 
L 89.543628 58.872775 
L 89.54701 58.904072 
L 89.628177 58.800201 
L 89.645087 58.809176 
L 89.719489 58.769577 
L 89.763455 58.798522 
L 89.776982 58.827812 
L 89.844621 58.714777 
L 89.848003 58.715231 
L 90.006955 58.454021 
L 90.03401 58.435649 
L 90.013719 58.434147 
L 90.057684 58.357576 
L 90.115177 58.280536 
L 90.17267 58.358065 
L 90.247073 58.294293 
L 90.291038 58.396982 
L 90.321476 58.43727 
L 90.422934 58.303539 
L 90.581886 58.35188 
L 90.429698 58.289114 
L 90.595413 58.326432 
L 90.673198 58.29276 
L 90.612323 58.344308 
L 90.707018 58.311654 
L 90.737455 58.342305 
L 90.774657 58.226181 
L 90.791566 58.228949 
L 90.805094 58.246584 
L 90.926844 58.149325 
L 90.967428 58.158621 
L 91.004629 58.094695 
L 91.031685 58.120908 
L 91.065504 58.075104 
L 91.068886 58.080746 
" clip-path="url(#pfe51bfd207)" style="fill: none; stroke: #000000; stroke-width: 0.6; stroke-linecap: square"/>
   </g>
   <g id="line2d_4">
    <path d="M 95.127221 15.313171 
L 95.127221 8.552195 
" clip-path="url(#pfe51bfd207)" style="fill: none; stroke: #000000; stroke-width: 1.5; stroke-linecap: square"/>
   </g>
  </g>
 </g>
 <defs>
  <clipPath id="pfe51bfd207">
   <rect x="7.2" y="7.2" width="89.28" height="55.44"/>
  </clipPath>
 </defs>
</svg>
