<?xml version="1.0" encoding="utf-8" standalone="no"?>
<!DOCTYPE svg PUBLIC "-//W3C//DTD SVG 1.1//EN"
  "http://www.w3.org/Graphics/SVG/1.1/DTD/svg11.dtd">
<svg xmlns:xlink="http://www.w3.org/1999/xlink" width="103.68pt" height="69.84pt" viewBox="0 0 103.68 69.84" xmlns="http://www.w3.org/2000/svg" version="1.1">
 <metadata>
  <rdf:RDF xmlns:dc="http://purl.org/dc/elements/1.1/" xmlns:cc="http://creativecommons.org/ns#" xmlns:rdf="http://www.w3.org/1999/02/22-rdf-syntax-ns#">
   <cc:Work>
    <dc:type rdf:resource="http://purl.org/dc/dcmitype/StillImage"/>
    <dc:date>2022-05-08T14:49:29.027950</dc:date>
    <dc:format>image/svg+xml</dc:format>
    <dc:creator>
     <cc:Agent>
      <dc:title>Matplotlib v3.5.1, https://matplotlib.org/</dc:title>
     </cc:Agent>
    </dc:creator>
   </cc:Work>
  </rdf:RDF>
 </metadata>
 <defs>
  <style type="text/css">*{stroke-linejoin: round; stroke-linecap: butt}</style>
 </defs>
 <g id="figure_1">
  <g id="patch_1">
   <path d="M 0 69.84 
L 103.68 69.84 
L 103.68 0 
L 0 0 
z
" style="fill: #ffffff"/>
  </g>
  <g id="axes_1">
   <g id="patch_2">
    <path d="M 7.2 62.64 
L 96.48 62.64 
L 96.48 7.2 
L 7.2 7.2 
z
" style="fill: #ffffff"/>
   </g>
   <g id="matplotlib.axis_1"/>
   <g id="matplotlib.axis_2"/>
   <g id="line2d_1">
    <path d="M 9.905557 24.741408 
L 10.044217 24.548095 
L 10.057745 24.579619 
L 10.149057 24.557328 
L 10.11862 24.520759 
L 10.162585 24.537865 
L 10.209932 24.529743 
L 10.250516 24.610021 
L 10.274189 24.700433 
L 10.341828 24.563486 
L 10.358738 24.593092 
L 10.48387 24.511569 
L 10.436523 24.633898 
L 10.487252 24.518847 
L 10.554891 24.543503 
L 10.510925 24.55312 
L 10.585328 24.568546 
L 10.636057 24.631501 
L 10.696932 24.562396 
L 10.700314 24.554615 
L 10.754426 24.658906 
L 10.778099 24.638357 
L 10.822064 24.580234 
L 10.896467 24.684693 
L 11.217752 24.546869 
L 11.238044 24.580885 
L 11.309065 24.662421 
L 11.35303 24.612919 
L 11.390231 24.581921 
L 11.586384 24.73648 
L 11.769009 24.600482 
L 11.789301 24.638806 
L 11.907669 24.705249 
L 11.850176 24.601236 
L 11.914433 24.69439 
L 12.005746 24.732499 
L 12.046329 24.612519 
L 12.093676 24.591941 
L 12.168079 24.674819 
L 12.2391 24.653918 
L 12.266156 24.720903 
L 12.272919 24.697722 
L 12.418343 24.792189 
L 12.425107 24.784511 
L 12.513038 24.731514 
L 12.448781 24.796129 
L 12.536711 24.787379 
L 12.594204 24.788083 
L 12.628024 24.740448 
L 12.641552 24.755932 
L 12.753156 24.726072 
L 12.763302 24.744195 
L 12.783593 24.823944 
L 12.871524 24.730055 
L 12.874906 24.719716 
L 12.949309 24.812253 
L 12.962836 24.808274 
L 13.470128 24.788865 
L 13.493802 24.811543 
L 13.520858 24.731012 
L 13.561441 24.74984 
L 13.571587 24.723664 
L 13.635844 24.811533 
L 13.673045 24.747264 
L 13.784649 24.786002 
L 13.791413 24.783786 
L 13.899636 24.728284 
L 13.831997 24.787941 
L 13.906399 24.739246 
L 14.051823 24.802341 
L 14.055205 24.796431 
L 14.275032 24.762364 
L 14.298705 24.804823 
L 14.329143 24.702899 
L 14.390018 24.767632 
L 14.417073 24.712215 
L 14.488094 24.80451 
L 14.494858 24.793037 
L 14.589553 24.793002 
L 14.528678 24.765965 
L 14.599698 24.768921 
L 14.623372 24.734785 
L 14.667337 24.795494 
L 14.704539 24.786564 
L 14.738358 24.79821 
L 14.755268 24.713349 
L 14.802615 24.730981 
L 14.934511 24.755783 
L 15.029206 24.725897 
L 14.951421 24.772244 
L 15.049497 24.751823 
L 15.181393 24.744113 
L 15.272706 24.684549 
L 15.296379 24.722295 
L 15.374164 24.667017 
L 15.309907 24.746596 
L 15.404602 24.736597 
L 15.53988 24.83106 
L 15.543261 24.8099 
L 15.614282 24.761698 
L 15.577081 24.722036 
L 15.617664 24.726688 
L 15.796907 24.738388 
L 15.830727 24.764688 
L 15.894984 24.696125 
L 15.901748 24.708164 
L 16.023498 24.651345 
L 16.037026 24.669622 
L 16.141866 24.67253 
L 16.067463 24.606484 
L 16.145248 24.651645 
L 16.23656 24.581852 
L 16.256852 24.657429 
L 16.432713 24.744433 
L 16.500352 24.791055 
L 16.463151 24.722265 
L 16.540936 24.734421 
L 16.666068 24.67303 
L 16.716797 24.745054 
L 16.75738 24.62149 
L 16.764144 24.620686 
L 16.882512 24.507047 
L 16.91295 24.538817 
L 16.983971 24.497531 
L 16.987353 24.473318 
L 16.990734 24.447724 
L 17.075283 24.576088 
L 17.085429 24.571482 
L 17.17336 24.60898 
L 17.112485 24.611585 
L 17.180123 24.629063 
L 17.24438 24.65498 
L 17.217325 24.571077 
L 17.2782 24.583398 
L 17.433769 24.469599 
L 17.308637 24.662875 
L 17.440533 24.491967 
L 17.545374 24.527997 
L 17.562283 24.484896 
L 17.62654 24.430982 
L 17.680652 24.487165 
L 18.143978 24.615194 
L 18.154124 24.595128 
L 18.198089 24.663762 
L 18.248819 24.640052 
L 18.2522 24.643409 
L 18.289402 24.551627 
L 18.313075 24.555508 
L 18.373951 24.491469 
L 18.42468 24.569733 
L 18.441589 24.62543 
L 18.502464 24.535073 
L 18.52952 24.541982 
L 18.566721 24.489859 
L 18.624215 24.608106 
L 18.627596 24.604966 
L 18.664798 24.608475 
L 18.688472 24.539064 
L 18.718909 24.542152 
L 18.827131 24.531012 
L 18.833895 24.545592 
L 18.925208 24.586893 
L 18.948881 24.582264 
L 18.952263 24.594443 
L 19.03343 24.475893 
L 19.06725 24.428877 
L 19.151798 24.455607 
L 19.185618 24.403915 
L 19.212673 24.47324 
L 19.263402 24.460472 
L 19.435882 24.339842 
L 19.442646 24.351028 
L 19.459555 24.401747 
L 19.486611 24.295546 
L 19.557632 24.36478 
L 19.669236 24.388017 
L 19.574541 24.38639 
L 19.672618 24.401401 
L 19.682764 24.411495 
L 19.743639 24.310889 
L 19.760549 24.32378 
L 19.76393 24.317681 
L 19.79775 24.394069 
L 19.841715 24.404162 
L 19.929646 24.464831 
L 19.960083 24.422214 
L 20.064924 24.344335 
L 19.966847 24.428652 
L 20.081833 24.376648 
L 20.085215 24.393995 
L 20.176528 24.291166 
L 20.183292 24.324393 
L 20.217111 24.29113 
L 20.291514 24.289554 
L 20.345625 24.203233 
L 20.386209 24.313855 
L 20.403118 24.277837 
L 20.426792 24.305637 
L 20.494431 24.174645 
L 20.606035 24.137702 
L 20.514723 24.199279 
L 20.612799 24.153966 
L 20.66691 24.178316 
L 20.626327 24.127487 
L 20.704112 24.114233 
L 20.798806 24.045937 
L 20.82248 24.079223 
L 21.120091 24.107099 
L 21.224931 24.160576 
L 21.126855 24.104831 
L 21.235077 24.119917 
L 21.404174 23.929131 
L 21.421084 23.949468 
L 21.424466 23.966713 
L 21.475195 23.895841 
L 21.525924 23.914852 
L 21.664584 23.963286 
L 21.667966 23.982797 
L 21.816772 24.087509 
L 21.688258 23.959821 
L 21.826918 24.064461 
L 21.955432 23.964732 
L 21.982487 24.020741 
L 22.111001 24.03441 
L 22.114383 24.010804 
L 22.124529 23.979651 
L 22.19555 24.054254 
L 22.222605 24.015975 
L 22.888849 24.337131 
L 23.020745 24.251001 
L 23.030891 24.285386 
L 23.122203 24.349035 
L 23.166168 24.280125 
L 23.22028 24.251437 
L 23.183078 24.308461 
L 23.277773 24.293036 
L 23.281155 24.297409 
L 23.328502 24.199491 
L 23.335266 24.195117 
L 23.389377 24.144233 
L 23.41305 24.226821 
L 23.450252 24.171799 
L 23.453634 24.181738 
L 23.521273 24.075038 
L 23.534801 24.081425 
L 23.544946 24.051819 
L 23.626113 24.170403 
L 23.791828 24.427796 
L 23.79521 24.415617 
L 24.133405 24.337574 
L 24.140169 24.355084 
L 24.201044 24.399623 
L 24.255155 24.365813 
L 24.366759 24.491472 
L 24.427634 24.374119 
L 24.525711 24.379919 
L 24.441162 24.406281 
L 24.532475 24.410203 
L 24.610259 24.432973 
L 24.562912 24.38135 
L 24.637315 24.373096 
L 24.73201 24.369768 
L 24.691426 24.447887 
L 24.745537 24.405962 
L 25.161517 24.57227 
L 25.178426 24.589524 
L 25.259593 24.49805 
L 25.262975 24.508654 
L 25.269739 24.490527 
L 25.337378 24.564377 
L 25.361052 24.562808 
L 25.47942 24.52095 
L 25.482802 24.514277 
L 25.557204 24.511333 
L 25.506475 24.547121 
L 25.574114 24.572737 
L 25.580878 24.560583 
L 25.820996 24.590447 
L 25.837906 24.65146 
L 25.946128 24.553156 
L 26.064496 24.586854 
L 25.952892 24.546706 
L 26.067878 24.570294 
L 26.098316 24.559103 
L 26.118608 24.659613 
L 26.247121 24.75473 
L 26.412837 24.639782 
L 26.57517 24.816856 
L 26.446656 24.629002 
L 26.578552 24.810241 
L 26.723976 24.66293 
L 26.740886 24.680775 
L 26.862636 24.656061 
L 26.8694 24.679851 
L 26.950566 24.55246 
L 26.953948 24.558138 
L 27.116282 24.74875 
L 27.150101 24.698755 
L 27.221122 24.682948 
L 27.180539 24.728869 
L 27.25156 24.741696 
L 27.305671 24.750595 
L 27.281997 24.698531 
L 27.349636 24.703982 
L 27.451094 24.653481 
L 27.363164 24.70899 
L 27.468004 24.658855 
L 27.549171 24.702794 
L 27.58299 24.680306 
L 27.883983 24.751741 
L 27.961768 24.716292 
L 27.988824 24.781319 
L 28.026025 24.834378 
L 28.100428 24.750572 
L 28.201886 24.743079 
L 28.20865 24.759103 
L 28.255998 24.73064 
L 28.327018 24.7719 
L 28.455532 24.720252 
L 28.462296 24.771268 
L 28.563755 24.73783 
L 28.570519 24.728537 
L 28.682123 24.715338 
L 28.597574 24.800366 
L 28.685505 24.725524 
L 29.804929 24.791157 
L 29.879332 24.71065 
L 29.916533 24.799533 
L 29.960499 24.768692 
L 30.034901 24.811997 
L 30.285165 24.749689 
L 30.366332 24.800038 
L 30.400152 24.786558 
L 30.464409 24.803805 
L 30.444117 24.72695 
L 30.50161 24.758482 
L 30.589541 24.712455 
L 30.542193 24.790292 
L 30.619978 24.744247 
L 30.738346 24.856949 
L 30.626742 24.739883 
L 30.768784 24.812944 
L 30.795839 24.734413 
L 30.843186 24.84 
L 30.887152 24.781343 
L 31.032575 24.794287 
L 30.907443 24.754721 
L 31.035957 24.783861 
L 31.042721 24.77466 
L 31.100214 24.871164 
L 31.120506 24.877496 
L 31.14418 24.875535 
L 31.147562 24.819729 
L 31.171235 24.792184 
L 31.174617 24.773834 
L 31.26593 24.876645 
L 31.269312 24.865706 
L 31.272694 24.873407 
L 31.343715 24.766529 
L 31.40459 24.675442 
L 31.462083 24.704382 
L 31.506048 24.843761 
L 31.580451 24.767565 
L 31.641326 24.724109 
L 31.695437 24.757092 
L 31.756312 24.817863 
L 31.813805 24.783525 
L 31.945701 24.625157 
L 31.949083 24.640792 
L 32.03025 24.639225 
L 31.989666 24.670351 
L 32.057305 24.663149 
L 32.141854 24.700112 
L 32.121562 24.610218 
L 32.175673 24.663471 
L 32.310951 24.482579 
L 32.351535 24.538925 
L 32.405646 24.422244 
L 32.409028 24.411328 
L 32.476667 24.496969 
L 32.507104 24.458779 
L 32.510486 24.474481 
L 32.578125 24.393498 
L 32.608562 24.420652 
L 32.689729 24.380473 
L 32.713403 24.461194 
L 32.737076 24.417871 
L 32.86559 24.576618 
L 32.973813 24.530309 
L 32.983958 24.541512 
L 33.528452 24.526351 
L 33.653584 24.399884 
L 33.656966 24.400707 
L 33.863265 24.343239 
L 33.893702 24.256093 
L 33.978251 24.311065 
L 34.069563 24.346852 
L 34.001924 24.280709 
L 34.100001 24.305387 
L 34.181167 24.281782 
L 34.123674 24.355977 
L 34.211605 24.299005 
L 34.485543 24.315907 
L 34.53289 24.370714 
L 34.664786 24.219631 
L 34.789918 24.237982 
L 34.796682 24.213056 
L 34.867703 24.141128 
L 34.904904 24.225929 
L 35.087529 24.278028 
L 34.925196 24.175418 
L 35.104439 24.245787 
L 35.212661 24.226557 
L 35.17546 24.343031 
L 35.219425 24.240591 
L 35.307356 24.23737 
L 35.331029 24.194557 
L 35.452779 24.082791 
L 35.5238 24.010574 
L 35.567765 24.077404 
L 35.672606 24.158501 
L 35.689516 24.097744 
L 35.743627 24.180569 
L 35.696279 24.091183 
L 35.814648 24.110453 
L 35.872141 24.063805 
L 35.838321 24.141957 
L 35.92287 24.125536 
L 36.085203 23.914845 
L 35.936398 24.152658 
L 36.122405 23.964389 
L 36.139314 23.962022 
L 36.247537 24.080455 
L 36.460599 24.193259 
L 36.467363 24.230604 
L 36.541766 24.15158 
L 36.572203 24.199088 
L 36.660134 24.116275 
L 36.68719 24.155934 
L 36.805558 24.211133 
L 36.737919 24.101815 
L 36.80894 24.203478 
L 36.893488 24.166884 
L 36.900252 24.232022 
L 36.917162 24.204435 
L 37.008475 24.282906 
L 37.03553 24.243105 
L 37.180954 24.126167 
L 37.275648 24.096288 
L 37.204627 24.199801 
L 37.292558 24.121206 
L 37.377107 24.178153 
L 37.333141 24.078971 
L 37.410926 24.134469 
L 37.515767 24.035276 
L 37.53944 24.080906 
L 37.552968 24.123699 
L 37.593551 24.003886 
L 37.617225 23.994183 
L 37.752503 23.919826 
L 37.833669 23.98737 
L 37.789704 23.863943 
L 37.870871 23.957618 
L 38.178628 23.943295 
L 38.185392 23.9672 
L 38.391691 24.115839 
L 38.401836 24.091035 
L 38.489767 24.010083 
L 38.411982 24.102401 
L 38.516823 24.055884 
L 38.574316 24.060834 
L 38.594607 23.992912 
L 38.597989 23.975797 
L 38.6521 24.109815 
L 38.689302 24.086407 
L 38.800906 24.055818 
L 38.726503 24.144235 
L 38.80767 24.074705 
L 38.838108 24.124791 
L 38.905746 24.007867 
L 38.915892 24.000758 
L 38.966621 24.117624 
L 39.03426 24.159036 
L 39.057934 24.060473 
L 39.06808 24.06757 
L 39.071462 24.053853 
L 39.132337 24.145729 
L 39.162774 24.13539 
L 39.32849 24.241399 
L 39.186448 24.095683 
L 39.342018 24.232014 
L 39.399511 24.193453 
L 39.358927 24.265487 
L 39.446858 24.260478 
L 39.558462 24.316514 
L 39.460386 24.258199 
L 39.565226 24.306625 
L 39.67683 24.278268 
L 39.697122 24.327327 
L 39.707268 24.36736 
L 39.764761 24.281278 
L 39.805344 24.312213 
L 39.92033 24.288309 
L 39.845927 24.334111 
L 39.923712 24.294847 
L 40.04208 24.390572 
L 40.048844 24.369846 
L 40.086046 24.333895 
L 40.265289 24.471105 
L 40.400567 24.465962 
L 40.410713 24.503638 
L 40.505407 24.536387 
L 40.478351 24.465958 
L 40.525699 24.491409 
L 40.813164 24.466841 
L 40.887567 24.349976 
L 40.931532 24.403776 
L 41.036373 24.386475 
L 41.012699 24.340441 
L 41.039755 24.370002 
L 41.31031 24.461444 
L 41.435442 24.500284 
L 41.350894 24.416007 
L 41.438824 24.496083 
L 41.46588 24.451666 
L 41.533519 24.614327 
L 41.557192 24.69781 
L 41.695852 24.563104 
L 41.824366 24.688288 
L 41.827748 24.671438 
L 41.868331 24.769121 
L 41.922443 24.750959 
L 42.121977 24.691396 
L 41.929206 24.760099 
L 42.125359 24.703091 
L 42.159179 24.780681 
L 42.243727 24.723879 
L 42.379005 24.784678 
L 42.257255 24.705274 
L 42.395915 24.746083 
L 42.514283 24.611505 
L 42.517665 24.619529 
L 42.56163 24.669691 
L 42.602214 24.589568 
L 42.625887 24.595631 
L 42.707054 24.485935 
L 42.754401 24.553285 
L 42.85586 24.63696 
L 42.926881 24.741909 
L 42.97761 24.701053 
L 43.112888 24.754236 
L 43.11627 24.743827 
L 43.153471 24.625778 
L 43.234638 24.686686 
L 43.356388 24.830421 
L 43.248165 24.682154 
L 43.363152 24.818041 
L 43.437554 24.761972 
L 43.478138 24.793222 
L 43.589742 24.791119 
L 43.593124 24.804161 
L 43.599888 24.829734 
L 43.643853 24.72801 
L 43.697964 24.764533 
L 43.806187 24.724528 
L 43.721638 24.780262 
L 43.82986 24.752851 
L 43.853534 24.746242 
L 43.948228 24.803432 
L 44.032777 24.730608 
L 44.063215 24.75372 
L 44.164673 24.755996 
L 44.127471 24.731791 
L 44.171437 24.743345 
L 44.269513 24.73454 
L 44.198492 24.800539 
L 44.289805 24.751888 
L 44.313479 24.819391 
L 44.408173 24.796804 
L 44.597562 24.745756 
L 44.604326 24.758854 
L 44.726076 24.814483 
L 44.844444 24.779589 
L 44.952666 24.797056 
L 44.918847 24.740801 
L 44.95943 24.783547 
L 45.08118 24.755372 
L 44.972958 24.793943 
L 45.084562 24.774649 
L 45.148819 24.834016 
L 45.094708 24.742843 
L 45.199548 24.772887 
L 45.297625 24.759262 
L 45.209694 24.812669 
L 45.311153 24.774203 
L 45.382174 24.778694 
L 45.321299 24.764842 
L 45.412611 24.726033 
L 45.415993 24.699803 
L 45.473486 24.799904 
L 45.517451 24.781549 
L 45.730514 24.729484 
L 45.74066 24.776597 
L 45.82859 24.870091 
L 45.777861 24.736553 
L 45.859028 24.815843 
L 45.977396 24.711313 
L 45.994306 24.723953 
L 46.011216 24.742512 
L 46.126202 24.734144 
L 46.275007 24.789655 
L 46.335882 24.843619 
L 46.389994 24.760296 
L 46.410285 24.793522 
L 46.447487 24.685248 
L 46.477924 24.695858 
L 46.484688 24.672553 
L 46.559091 24.785524 
L 46.562473 24.782746 
L 46.897286 24.734512 
L 46.971688 24.77011 
L 46.951397 24.714424 
L 47.00889 24.747846 
L 47.13064 24.655893 
L 47.14755 24.664548 
L 47.255772 24.77376 
L 47.282827 24.754043 
L 47.418105 24.641335 
L 47.421487 24.650542 
L 47.607494 24.546789 
L 47.610876 24.552261 
L 47.729244 24.640448 
L 47.631168 24.505055 
L 47.732626 24.633565 
L 47.840849 24.621457 
L 47.793501 24.665339 
L 47.84423 24.632654 
L 47.867904 24.655114 
L 47.901724 24.593376 
L 47.945689 24.591779 
L 48.229772 24.545207 
L 48.2433 24.603739 
L 48.351522 24.601648 
L 48.358286 24.565892 
L 48.36505 24.554978 
L 48.419161 24.667115 
L 48.452981 24.62674 
L 48.513856 24.676123 
L 48.564585 24.635845 
L 48.655898 24.5843 
L 48.591641 24.668353 
L 48.679571 24.654052 
L 48.770884 24.664999 
L 48.703245 24.603216 
L 48.784412 24.628432 
L 48.855432 24.597268 
L 48.818231 24.65312 
L 48.896016 24.634543 
L 48.950127 24.673243 
L 48.906162 24.627857 
L 49.014384 24.641518 
L 49.092169 24.593348 
L 49.122606 24.66216 
L 49.153044 24.7149 
L 49.217301 24.60454 
L 49.230828 24.554983 
L 49.278176 24.634958 
L 49.328905 24.585321 
L 49.332287 24.608813 
L 49.396544 24.517079 
L 49.433745 24.546409 
L 49.673863 24.42744 
L 49.741502 24.544001 
L 49.798995 24.526481 
L 49.815905 24.493383 
L 49.886926 24.59452 
L 49.897072 24.626043 
L 49.974857 24.487951 
L 49.981621 24.489111 
L 50.099989 24.419561 
L 50.12028 24.431123 
L 50.177773 24.477216 
L 50.218357 24.39981 
L 50.228503 24.413702 
L 50.343489 24.375489 
L 50.353635 24.334724 
L 50.488912 24.250652 
L 50.539642 24.306367 
L 50.603899 24.283576 
L 50.705357 24.219278 
L 50.718885 24.254633 
L 50.79667 24.257861 
L 50.759468 24.211435 
L 50.820343 24.218158 
L 50.850781 24.122441 
L 50.935329 24.199532 
L 50.945475 24.163309 
L 51.097663 24.295964 
L 51.381746 24.203133 
L 51.503496 24.122606 
L 51.425712 24.257568 
L 51.513642 24.128185 
L 51.588045 24.161162 
L 51.608337 24.072366 
L 51.63201 24.017556 
L 51.615101 24.086955 
L 51.706413 24.114904 
L 51.709795 24.13928 
L 51.784198 24.015434 
L 51.80449 24.032554 
L 52.054754 23.927201 
L 52.068281 23.945962 
L 52.142684 23.828151 
L 52.149448 23.843992 
L 52.294872 23.868547 
L 52.16974 23.80995 
L 52.298254 23.852127 
L 52.967879 24.072414 
L 53.096393 24.161004 
L 53.099775 24.156918 
L 53.458261 24.051418 
L 53.478553 24.097004 
L 53.583393 24.202957 
L 53.596921 24.171155 
L 53.674706 24.186 
L 53.701761 24.125583 
L 53.728817 24.14163 
L 53.82013 24.088219 
L 53.935116 24.167885 
L 53.975699 24.124558 
L 54.006137 24.104017 
L 54.033192 24.206891 
L 54.080539 24.159991 
L 54.232727 24.164958 
L 54.236109 24.173156 
L 54.330803 24.342023 
L 54.364623 24.284954 
L 54.469463 24.221861 
L 54.493137 24.253419 
L 54.608123 24.296407 
L 54.513429 24.20905 
L 54.611505 24.293947 
L 55.257457 24.336987 
L 55.264221 24.366676 
L 55.335241 24.269467 
L 55.348769 24.267591 
L 55.382589 24.242072 
L 55.433318 24.32312 
L 55.443464 24.319987 
L 55.676818 24.445495 
L 55.683582 24.430553 
L 55.78504 24.353389 
L 55.808714 24.377145 
L 55.859443 24.4507 
L 55.916936 24.366646 
L 56.04545 24.336309 
L 55.974429 24.424562 
L 56.048832 24.344662 
L 56.153672 24.522789 
L 56.187492 24.484583 
L 56.211166 24.433841 
L 56.282186 24.557214 
L 56.28895 24.538403 
L 56.434374 24.729367 
L 56.556124 24.614703 
L 56.474957 24.768833 
L 56.559506 24.630777 
L 57.019451 24.580982 
L 57.151347 24.698858 
L 57.043124 24.548878 
L 57.154729 24.696913 
L 57.171638 24.653361 
L 57.235895 24.781505 
L 57.262951 24.709836 
L 57.300152 24.724436 
L 57.333972 24.66406 
L 57.364409 24.659576 
L 57.472632 24.631139 
L 57.374555 24.662973 
L 57.482777 24.651488 
L 57.604527 24.696189 
L 57.614673 24.659477 
L 57.692458 24.654407 
L 57.634965 24.697375 
L 57.719514 24.682752 
L 57.783771 24.707777 
L 57.746569 24.653005 
L 57.8345 24.682134 
L 57.898757 24.681518 
L 57.844646 24.708894 
L 57.93934 24.693324 
L 57.986687 24.809858 
L 58.057708 24.781776 
L 58.105055 24.730954 
L 58.165931 24.775256 
L 58.206514 24.869679 
L 58.243715 24.719101 
L 58.274153 24.750271 
L 58.422958 24.71925 
L 58.446632 24.767169 
L 58.480452 24.853542 
L 58.571764 24.813486 
L 58.693514 24.73738 
L 58.707042 24.753467 
L 58.82541 24.782572 
L 58.828792 24.781104 
L 58.865993 24.714783 
L 58.940396 24.782632 
L 59.041855 24.799911 
L 58.950542 24.773029 
L 59.058764 24.789488 
L 59.092584 24.803623 
L 59.180514 24.725007 
L 59.302264 24.797136 
L 59.430778 24.781752 
L 59.315792 24.766605 
L 59.43416 24.768895 
L 59.498417 24.755085 
L 59.518709 24.805744 
L 59.545765 24.777871 
L 59.978654 24.775928 
L 60.053057 24.736247 
L 60.009091 24.786499 
L 60.09364 24.759446 
L 60.242446 24.78606 
L 60.35405 24.715837 
L 60.255973 24.792582 
L 60.367578 24.744251 
L 60.428453 24.746926 
L 60.452126 24.808714 
L 60.455508 24.835677 
L 60.509619 24.744014 
L 60.556967 24.768046 
L 60.644897 24.777791 
L 60.573876 24.785357 
L 60.658425 24.795318 
L 60.661807 24.817095 
L 60.753119 24.745567 
L 60.766647 24.768281 
L 60.803849 24.81889 
L 60.881633 24.779888 
L 60.989856 24.7215 
L 60.891779 24.790954 
L 61.003383 24.747274 
L 61.341578 24.727389 
L 61.372016 24.714334 
L 61.382161 24.772285 
L 61.4498 24.737328 
L 61.534349 24.796604 
L 61.558023 24.751308 
L 61.642571 24.708907 
L 61.595224 24.787454 
L 61.669627 24.7367 
L 61.791377 24.754959 
L 61.696682 24.673238 
L 61.804905 24.72421 
L 61.818433 24.702151 
L 61.869162 24.800172 
L 61.902981 24.790056 
L 61.980766 24.801859 
L 62.007822 24.750873 
L 62.163391 24.580103 
L 62.166773 24.60507 
L 62.261467 24.652134 
L 62.264849 24.6598 
L 62.379836 24.691124 
L 62.383218 24.688238 
L 62.393363 24.624394 
L 62.45762 24.700872 
L 62.494822 24.663829 
L 62.521877 24.700372 
L 62.575988 24.633868 
L 62.599662 24.658366 
L 62.677447 24.588558 
L 62.714648 24.619544 
L 62.782287 24.573668 
L 62.75185 24.674277 
L 62.826253 24.622222 
L 62.914183 24.70601 
L 62.96153 24.678369 
L 63.079898 24.508479 
L 63.090044 24.516041 
L 63.171211 24.45734 
L 63.201649 24.522645 
L 63.313253 24.532475 
L 63.228704 24.559474 
L 63.316635 24.543414 
L 63.478968 24.751119 
L 63.597336 24.783815 
L 63.614246 24.771793 
L 63.668357 24.730891 
L 63.70894 24.830309 
L 63.715704 24.810231 
L 63.75967 24.868219 
L 63.830691 24.842324 
L 63.945677 24.70225 
L 63.844218 24.864459 
L 63.959205 24.707304 
L 63.965968 24.724577 
L 63.999788 24.641588 
L 64.050517 24.654058 
L 64.118156 24.473641 
L 64.172267 24.570594 
L 64.452969 24.514533 
L 64.459733 24.486789 
L 64.540899 24.622598 
L 64.554427 24.586061 
L 64.652504 24.58754 
L 64.588247 24.520812 
L 64.662649 24.55878 
L 64.801309 24.337144 
L 64.676177 24.582679 
L 64.835129 24.351577 
L 65.044809 24.541681 
L 64.85542 24.318596 
L 65.058337 24.53043 
L 65.200379 24.38077 
L 65.217289 24.40136 
L 65.284927 24.463434 
L 65.315365 24.34417 
L 65.464171 24.149355 
L 65.501372 24.235985 
L 65.579157 24.164417 
L 65.839567 24.081035 
L 65.846331 24.10534 
L 65.873386 24.158289 
L 65.951171 24.071778 
L 66.076303 23.979089 
L 66.083067 23.986404 
L 66.593741 24.164428 
L 66.597123 24.129216 
L 66.705345 24.109098 
L 66.708727 24.111079 
L 66.779748 24.161915 
L 66.837241 24.126531 
L 67.033394 24.215665 
L 67.168672 24.335653 
L 67.216019 24.384143 
L 67.290422 24.322121 
L 67.347915 24.347435 
L 67.324241 24.288027 
L 67.398644 24.31065 
L 67.500102 24.170252 
L 67.527158 24.234269 
L 67.642144 24.322863 
L 67.571123 24.204656 
L 67.645526 24.315484 
L 67.733457 24.287367 
L 67.689491 24.370189 
L 67.75713 24.312823 
L 68.068269 24.294829 
L 68.176492 24.367099 
L 68.186637 24.345636 
L 68.264422 24.280661 
L 68.301624 24.342822 
L 68.379408 24.334747 
L 68.365881 24.286849 
L 68.3997 24.287994 
L 68.568797 24.14153 
L 68.41661 24.319761 
L 68.575561 24.174002 
L 68.585707 24.14855 
L 68.737895 24.302302 
L 68.988159 24.313857 
L 68.991541 24.331929 
L 68.998304 24.369186 
L 69.04227 24.272786 
L 69.103145 24.34563 
L 69.228277 24.137235 
L 69.123436 24.355602 
L 69.238423 24.163756 
L 69.295916 24.235378 
L 69.356791 24.177876 
L 69.410902 24.142435 
L 69.451485 24.211801 
L 69.468395 24.18517 
L 69.708513 24.194614 
L 69.728805 24.139759 
L 69.820117 24.152929 
L 70.067 24.466237 
L 70.070381 24.460953 
L 70.127875 24.343771 
L 70.202277 24.400656 
L 70.361229 24.55133 
L 70.209041 24.388499 
L 70.367993 24.521551 
L 70.503271 24.407231 
L 70.384902 24.556331 
L 70.513416 24.434301 
L 70.635166 24.534577 
L 70.64193 24.52035 
L 70.800882 24.482591 
L 70.804264 24.472147 
L 70.861757 24.364194 
L 70.922632 24.41868 
L 71.034236 24.443094 
L 70.959833 24.393949 
L 71.037618 24.44073 
L 71.19657 24.318553 
L 71.05791 24.47951 
L 71.230389 24.37963 
L 71.379195 24.531291 
L 71.446834 24.459243 
L 71.392722 24.548173 
L 71.494181 24.52191 
L 71.602403 24.582793 
L 71.504327 24.506701 
L 71.612549 24.553937 
L 71.66666 24.599202 
L 71.730917 24.522149 
L 71.78841 24.454991 
L 71.852667 24.558949 
L 71.896632 24.566282 
L 71.930452 24.638108 
L 72.133369 24.750232 
L 71.947362 24.584138 
L 72.150278 24.702879 
L 72.224681 24.721872 
L 72.234827 24.78178 
L 72.251737 24.817885 
L 72.278792 24.741542 
L 72.339667 24.749838 
L 72.464799 24.658112 
L 72.660952 24.625243 
L 72.772557 24.524658 
L 72.782702 24.536727 
L 72.826668 24.544199 
L 72.877397 24.479237 
L 72.887543 24.513325 
L 72.972091 24.526132 
L 72.961946 24.561969 
L 72.985619 24.548006 
L 73.093841 24.729417 
L 73.124279 24.688105 
L 73.168244 24.737235 
L 73.208828 24.637787 
L 73.239265 24.676608 
L 73.296758 24.702527 
L 73.259557 24.728815 
L 73.313668 24.742198 
L 73.398217 24.758633 
L 73.357633 24.721185 
L 73.42189 24.727975 
L 74.050932 24.75506 
L 74.162536 24.727118 
L 74.094898 24.826958 
L 74.172682 24.741642 
L 74.176064 24.753791 
L 74.250467 24.668414 
L 74.270759 24.685817 
L 74.395891 24.6913 
L 74.314724 24.589555 
L 74.399273 24.680459 
L 74.561606 24.636676 
L 74.4128 24.714924 
L 74.56837 24.68102 
L 74.598808 24.732143 
L 74.676592 24.666312 
L 74.679974 24.656617 
L 74.754377 24.776716 
L 75.214322 24.750681 
L 75.322544 24.748121 
L 75.285343 24.816639 
L 75.325926 24.756103 
L 75.42062 24.769462 
L 75.376655 24.727573 
L 75.434148 24.732297 
L 75.535607 24.801138 
L 75.566044 24.764634 
L 75.667503 24.750763 
L 75.57619 24.783187 
L 75.687794 24.792203 
L 75.691176 24.809369 
L 75.789253 24.73953 
L 75.914385 24.765349 
L 75.81969 24.717288 
L 75.917767 24.754808 
L 75.954968 24.722402 
L 75.982024 24.812427 
L 76.015843 24.79594 
L 76.046281 24.817623 
L 76.036135 24.770704 
L 76.124065 24.790598 
L 76.147739 24.805914 
L 76.242433 24.754956 
L 76.343892 24.778211 
L 76.289781 24.732551 
L 76.35742 24.76042 
L 76.5671 24.788302 
L 76.570482 24.759268 
L 76.675323 24.732101 
L 76.611066 24.768182 
L 76.685468 24.735424 
L 76.841038 24.726046 
L 76.847802 24.677702 
L 76.905295 24.813063 
L 76.945878 24.772228 
L 77.060864 24.841815 
L 76.969552 24.763015 
L 77.067628 24.828428 
L 77.152177 24.727212 
L 77.185996 24.768587 
L 77.300983 24.7198 
L 77.31451 24.757315 
L 77.503899 24.660452 
L 77.510663 24.695074 
L 77.629031 24.757679 
L 77.737254 24.717409 
L 77.639177 24.763681 
L 77.744018 24.727544 
L 77.919879 24.749038 
L 77.930025 24.725189 
L 77.97399 24.68881 
L 77.953698 24.745114 
L 78.045011 24.716322 
L 78.109268 24.82794 
L 78.163379 24.790435 
L 78.295275 24.713954 
L 78.176907 24.802387 
L 78.308803 24.746182 
L 78.312185 24.755025 
L 78.33924 24.650557 
L 78.400115 24.696094 
L 78.508337 24.65338 
L 78.464372 24.75973 
L 78.515101 24.674478 
L 78.694344 24.624241 
L 78.714636 24.687798 
L 78.819476 24.839371 
L 78.839768 24.774245 
L 78.904025 24.743937 
L 78.951372 24.781844 
L 79.012247 24.841806 
L 79.056213 24.746949 
L 79.127234 24.687771 
L 79.184727 24.745619 
L 79.211782 24.75045 
L 79.24222 24.655964 
L 79.245602 24.635252 
L 79.313241 24.710352 
L 79.34706 24.703199 
L 79.384262 24.766509 
L 79.462046 24.676803 
L 79.472192 24.698608 
L 79.549977 24.578061 
L 79.553359 24.584436 
L 79.698783 24.638227 
L 79.702164 24.63402 
L 79.810387 24.520662 
L 79.827296 24.552251 
L 79.97272 24.632165 
L 79.979484 24.617118 
L 80.026831 24.527257 
L 80.09447 24.598734 
L 80.392082 24.460485 
L 80.530741 24.661797 
L 80.402227 24.433069 
L 80.544269 24.599235 
L 80.804679 24.462193 
L 80.561179 24.618186 
L 80.811443 24.496535 
L 80.99745 24.603515 
L 80.838498 24.465115 
L 81.004214 24.585144 
L 81.125964 24.542108 
L 81.132728 24.546679 
L 81.156401 24.602322 
L 81.207131 24.499864 
L 81.247714 24.559678 
L 81.278151 24.466658 
L 81.352554 24.594372 
L 81.355936 24.596781 
L 81.382992 24.509658 
L 81.494596 24.416182 
L 81.504742 24.42278 
L 81.51827 24.366275 
L 81.650166 24.357376 
L 81.660311 24.374984 
L 81.819263 24.217068 
L 81.880138 24.176135 
L 81.826027 24.236213 
L 81.927485 24.234046 
L 81.961305 24.27665 
L 82.028944 24.187344 
L 82.032325 24.164938 
L 82.096582 24.260597 
L 82.130402 24.251696 
L 82.174367 24.208149 
L 82.275826 24.293378 
L 82.373902 24.180462 
L 82.282589 24.298774 
L 82.407722 24.19741 
L 82.421249 24.252083 
L 82.515944 24.17512 
L 82.519326 24.210643 
L 82.64784 24.271516 
L 82.607256 24.161247 
L 82.651222 24.267165 
L 82.705333 24.248289 
L 82.671513 24.2854 
L 82.762826 24.265679 
L 82.837229 24.334099 
L 82.877812 24.273647 
L 83.01309 24.062127 
L 83.016472 24.064828 
L 83.050291 24.090032 
L 83.111166 23.998562 
L 83.205861 23.935804 
L 83.226153 23.954515 
L 83.402014 24.240543 
L 83.540674 24.218791 
L 83.418923 24.252363 
L 83.544055 24.221539 
L 83.642132 24.319256 
L 83.672569 24.239951 
L 83.730063 24.141827 
L 83.787556 24.207652 
L 84.179861 24.151808 
L 84.183243 24.163971 
L 84.311757 24.311627 
L 84.396306 24.196008 
L 84.436889 24.25659 
L 84.491 24.366178 
L 84.551875 24.295194 
L 84.605987 24.267375 
L 84.64657 24.339416 
L 84.744646 24.502563 
L 84.66348 24.305576 
L 84.781848 24.453851 
L 84.805521 24.369544 
L 84.859633 24.538041 
L 84.879924 24.522962 
L 84.903598 24.549656 
L 84.964473 24.471354 
L 84.974619 24.475488 
L 85.055785 24.367216 
L 85.113279 24.3893 
L 85.11666 24.392774 
L 85.153862 24.292338 
L 85.164008 24.295066 
L 85.16739 24.280764 
L 85.245174 24.366862 
L 85.268848 24.323538 
L 85.441327 24.403175 
L 85.738939 24.578359 
L 85.823487 24.50828 
L 85.843779 24.612235 
L 85.847161 24.603661 
L 85.894508 24.524336 
L 85.89789 24.50294 
L 86.080515 24.483369 
L 86.188737 24.593999 
L 86.198883 24.538059 
L 86.239467 24.477653 
L 86.286814 24.578077 
L 86.317251 24.509844 
L 86.422092 24.575972 
L 86.327397 24.501039 
L 86.43562 24.543952 
L 86.550606 24.368553 
L 86.442383 24.553056 
L 86.601335 24.392284 
L 86.665592 24.485767 
L 86.625009 24.385205 
L 86.719703 24.422677 
L 86.797488 24.416889 
L 86.76705 24.351913 
L 86.817779 24.403894 
L 86.8888 24.481825 
L 86.936148 24.338425 
L 87.013932 24.392577 
L 86.980113 24.329502 
L 87.04437 24.344108 
L 87.122155 24.306775 
L 87.101863 24.365926 
L 87.159356 24.33783 
L 87.254051 24.403828 
L 87.186412 24.298061 
L 87.281106 24.382612 
L 87.399474 24.213227 
L 87.416384 24.240597 
L 87.44344 24.205336 
L 87.544898 24.300564 
L 87.747815 24.359453 
L 87.761342 24.404252 
L 87.839127 24.314547 
L 87.859419 24.364861 
L 87.940586 24.299823 
L 87.981169 24.365911 
L 88.106301 24.373404 
L 87.987933 24.359028 
L 88.109683 24.367454 
L 88.194232 24.323703 
L 88.160412 24.395307 
L 88.217905 24.377024 
L 88.5561 24.470689 
L 88.559482 24.46145 
L 88.606829 24.338096 
L 88.657558 24.486356 
L 88.664322 24.486287 
L 88.857093 24.660812 
L 88.671086 24.480141 
L 88.880767 24.591861 
L 89.016045 24.520531 
L 88.901058 24.623998 
L 89.0431 24.548481 
L 89.080302 24.52291 
L 89.174996 24.607021 
L 89.289982 24.510851 
L 89.300128 24.535698 
L 89.347475 24.532593 
L 89.323802 24.586946 
L 89.394823 24.587289 
L 89.44217 24.536974 
L 89.513191 24.596906 
L 89.543628 24.570222 
L 89.590975 24.65867 
L 89.705962 24.719897 
L 89.648469 24.63111 
L 89.709344 24.709314 
L 89.749927 24.618048 
L 89.827712 24.686773 
L 89.919024 24.732982 
L 89.942698 24.664712 
L 90.125323 24.597972 
L 90.135469 24.666185 
L 90.186198 24.729873 
L 90.223399 24.603088 
L 90.240309 24.615859 
L 90.247073 24.593595 
L 90.307948 24.704224 
L 90.345149 24.654356 
L 90.453372 24.648353 
L 90.460136 24.600079 
L 90.4669 24.564045 
L 90.504101 24.632912 
L 90.57174 24.577396 
L 90.69349 24.605759 
L 90.696872 24.613664 
L 90.747601 24.67123 
L 90.764511 24.587892 
L 90.808476 24.621106 
L 90.974191 24.782998 
L 90.977573 24.775217 
L 91.045212 24.730043 
L 91.068886 24.763532 
" clip-path="url(#pa52ba5b104)" style="fill: none; stroke: #000000; stroke-width: 0.6; stroke-linecap: square"/>
   </g>
   <g id="line2d_2">
    <path d="M 9.905557 39.58171 
L 9.986724 39.626262 
L 10.013779 39.561589 
L 10.138911 39.447253 
L 10.142293 39.463791 
L 10.236988 39.499308 
L 10.196404 39.403752 
L 10.253897 39.453163 
L 10.321536 39.344612 
L 10.37903 39.381338 
L 10.568419 39.386111 
L 10.575182 39.360636 
L 10.636057 39.253339 
L 10.696932 39.270849 
L 10.747662 39.330834 
L 10.808537 39.275725 
L 10.845738 39.24753 
L 10.872794 39.293876 
L 10.916759 39.281948 
L 11.234662 39.059625 
L 10.933669 39.311862 
L 11.261717 39.101809 
L 11.275245 39.122581 
L 11.325974 39.040556 
L 11.366558 39.092223 
L 11.478162 38.988778 
L 11.495072 39.001473 
L 11.654023 38.930055 
L 12.13426 38.068046 
L 12.272919 36.127233 
L 12.296593 27.658329 
L 12.381142 36.684943 
L 12.401433 36.9332 
L 12.462308 35.915687 
L 12.49951 34.275227 
L 12.580677 35.543362 
L 12.634788 35.348486 
L 12.756538 35.327753 
L 12.925635 35.438479 
L 12.979746 35.391722 
L 13.030475 35.463449 
L 13.037239 35.440223 
L 13.223246 35.564513 
L 13.233392 35.543555 
L 13.240156 35.508665 
L 13.301031 35.603931 
L 13.334851 35.595687 
L 13.476892 35.697402 
L 13.99433 36.407928 
L 14.390018 38.173858 
L 14.3934 38.151629 
L 14.467803 38.38538 
L 14.643664 39.045011 
L 15.063025 40.109182 
L 15.073171 40.115007 
L 15.110372 40.19744 
L 15.117136 40.197212 
L 15.249032 40.505116 
L 15.252414 40.504322 
L 15.529734 41.330613 
L 15.533116 41.322756 
L 15.593991 41.574171 
L 15.800289 42.122377 
L 15.803671 42.120056 
L 15.911894 42.396727 
L 16.060699 42.643983 
L 16.097901 42.613926 
L 16.206123 42.71339 
L 16.368456 42.656261 
L 16.39213 42.696469 
L 16.473297 42.769244 
L 16.446241 42.677952 
L 16.503734 42.69085 
L 16.818255 42.632685 
L 16.821637 42.649398 
L 16.906186 42.524058 
L 17.088811 42.388247 
L 17.095575 42.411998 
L 17.126012 42.422653 
L 17.163214 42.294001 
L 17.186887 42.323272 
L 17.322165 42.28613 
L 17.359367 42.245597 
L 17.41686 42.326887 
L 17.430388 42.291193 
L 17.535228 42.30922 
L 17.484499 42.251422 
L 17.541992 42.288309 
L 17.562283 42.271442 
L 17.616395 42.354016 
L 17.640068 42.338673 
L 17.694179 42.342591 
L 17.714471 42.284847 
L 17.74829 42.304369 
L 17.751672 42.309624 
L 17.78211 42.214908 
L 17.822693 42.232143 
L 17.991791 42.003583 
L 17.998554 42.018196 
L 18.066193 41.863505 
L 18.069575 41.879913 
L 18.113541 41.846126 
L 18.083103 41.894283 
L 18.177798 41.902298 
L 18.309694 41.876927 
L 18.194707 41.93097 
L 18.313075 41.889681 
L 18.316457 41.903253 
L 18.394242 41.802657 
L 18.411152 41.835651 
L 18.536284 41.77294 
L 18.455117 41.887137 
L 18.539666 41.793364 
L 18.549812 41.833564 
L 18.617451 41.703947 
L 18.630978 41.702073 
L 18.661416 41.711241 
L 18.75611 41.660161 
L 18.766256 41.685247 
L 19.358097 41.160563 
L 19.378389 41.192551 
L 19.449409 41.078067 
L 19.767312 40.834085 
L 19.462937 41.091163 
L 19.78084 40.884862 
L 19.824805 40.882771 
L 19.865389 40.802569 
L 19.960083 40.774106 
L 19.875535 40.817287 
L 19.993903 40.835418 
L 20.037868 40.773349 
L 20.129181 40.841151 
L 20.294896 40.742965 
L 20.382827 40.751602 
L 20.342243 40.68694 
L 20.396354 40.72454 
L 20.538396 40.507456 
L 20.54516 40.525562 
L 20.602653 40.411995 
L 20.622945 40.416895 
L 20.727785 40.413483 
L 20.633091 40.424734 
L 20.737931 40.4232 
L 20.748077 40.464113 
L 20.839389 40.355871 
L 20.842771 40.367508 
L 20.930702 40.355728 
L 20.900264 40.406664 
L 20.950994 40.380685 
L 21.485341 40.359389 
L 21.488723 40.369615 
L 21.532688 40.232728 
L 21.590181 40.328649 
L 21.664584 40.252701 
L 21.627383 40.358727 
L 21.698404 40.330094 
L 21.738987 40.384682 
L 21.782952 40.305388 
L 21.806626 40.324455 
L 21.901321 40.235148 
L 21.820154 40.338353 
L 21.955432 40.269123 
L 22.009543 40.316889 
L 22.05689 40.23755 
L 22.060272 40.23897 
L 22.087328 40.217696 
L 22.121147 40.304034 
L 22.16173 40.291813 
L 22.368029 40.202121 
L 22.452578 40.252522 
L 22.486397 40.13586 
L 22.537126 40.098872 
L 22.570946 40.162881 
L 22.604765 40.114448 
L 22.784008 39.888938 
L 22.618293 40.121221 
L 22.78739 39.89601 
L 22.90914 39.994479 
L 22.858411 39.835409 
L 22.92605 39.972639 
L 22.946342 39.980281 
L 23.078238 39.838607 
L 23.271009 39.909766 
L 23.281155 39.892047 
L 23.396141 39.807331 
L 23.30821 39.90822 
L 23.409669 39.837506 
L 23.534801 39.948253 
L 23.629495 39.912078 
L 23.578766 40.002669 
L 23.656551 39.93296 
L 23.947398 39.790713 
L 23.960926 39.853761 
L 23.974454 39.893115 
L 24.062384 39.779648 
L 24.19428 39.746128 
L 24.099586 39.835706 
L 24.214572 39.783297 
L 24.363377 39.817933 
L 24.2281 39.754577 
L 24.366759 39.806126 
L 24.485127 39.639292 
L 24.498655 39.6517 
L 24.748919 39.618853 
L 24.755683 39.628963 
L 24.907871 39.492897 
L 24.968746 39.590595 
L 25.019475 39.485694 
L 25.120933 39.462293 
L 25.033003 39.488634 
L 25.134461 39.470229 
L 25.793941 39.371075 
L 25.878489 39.435023 
L 25.837906 39.353161 
L 25.912309 39.390817 
L 26.013767 39.399891 
L 25.963038 39.287254 
L 26.023913 39.386689 
L 26.067878 39.288979 
L 26.142281 39.321226 
L 26.375635 39.276762 
L 26.385781 39.295892 
L 26.422983 39.308857 
L 26.463566 39.201654 
L 26.477094 39.232482 
L 26.578552 39.114912 
L 26.605608 39.156262 
L 26.615754 39.179936 
L 26.652955 39.079114 
L 26.686774 39.071739 
L 26.906601 38.804408 
L 27.035115 38.715728 
L 27.109518 38.679158 
L 27.055407 38.676852 
L 27.123046 38.652021 
L 27.258323 38.416728 
L 27.278615 38.467467 
L 27.285379 38.497847 
L 27.3564 38.33549 
L 27.366546 38.356278 
L 27.491678 37.949201 
L 27.579608 36.34324 
L 27.606664 27.517047 
L 27.687831 36.771835 
L 27.708122 37.082275 
L 27.772379 35.960813 
L 27.806199 34.081901 
L 27.890747 35.546453 
L 28.080136 35.304314 
L 28.137629 35.366531 
L 28.154539 35.357766 
L 28.25938 35.410514 
L 28.617866 35.607521 
L 28.732852 35.692395 
L 28.668595 35.566231 
L 28.736234 35.671271 
L 28.827546 35.718041 
L 28.83431 35.747447 
L 28.979734 35.915445 
L 28.993262 35.911091 
L 29.054137 35.830533 
L 29.09472 35.947987 
L 29.25029 36.199078 
L 29.314547 36.198529 
L 29.33822 36.27147 
L 29.764346 38.308651 
L 29.828603 38.507921 
L 31.079923 41.954851 
L 31.225346 42.350827 
L 31.47561 42.767761 
L 31.242256 42.334087 
L 31.478992 42.762215 
L 31.563541 42.717544 
L 31.597361 42.747244 
L 31.671763 42.842485 
L 31.719111 42.823163 
L 31.739402 42.833233 
L 31.851006 42.741676 
L 31.952465 42.763737 
L 31.888208 42.660308 
L 31.962611 42.759643 
L 32.037014 42.695352 
L 32.077597 42.734594 
L 32.084361 42.750215 
L 32.13509 42.617697 
L 32.158764 42.622769 
L 32.172291 42.665772 
L 32.283896 42.669722 
L 32.358298 42.640672 
L 32.314333 42.627927 
L 32.371826 42.605716 
L 32.48343 42.432614 
L 32.507104 42.452309 
L 32.537542 42.401291 
L 32.547687 42.361091 
L 32.618708 42.289255 
L 32.662674 42.327312 
L 32.706639 42.333401 
L 32.733694 42.262463 
L 32.747222 42.261379 
L 32.923083 42.110076 
L 32.757368 42.291182 
L 32.943375 42.140476 
L 33.088799 42.129617 
L 33.095563 42.103241 
L 33.257896 41.970805 
L 33.271424 41.985906 
L 33.312007 42.075552 
L 33.38641 41.974443 
L 33.393174 41.992969 
L 33.426993 41.860992 
L 33.545362 41.742075 
L 33.548744 41.746259 
L 34.01207 41.348761 
L 34.035744 41.374006 
L 34.039126 41.398497 
L 34.11691 41.283043 
L 34.137202 41.317038 
L 34.143966 41.321451 
L 34.350265 41.131704 
L 34.421286 41.188264 
L 34.458487 41.109567 
L 34.546418 40.985299 
L 34.583619 41.052199 
L 34.587001 41.056092 
L 34.63773 40.972355 
L 34.65464 40.975523 
L 34.688459 40.922211 
L 34.766244 40.962261 
L 34.806828 40.993752 
L 34.860939 40.868833 
L 34.887994 40.898557 
L 34.982689 40.838943 
L 35.046946 40.797077 
L 35.05371 40.758956 
L 35.145022 40.678727 
L 35.178842 40.710629 
L 35.26339 40.650085 
L 35.195751 40.759284 
L 35.310738 40.72086 
L 35.432488 40.835413 
L 35.446015 40.820764 
L 35.67937 40.701623 
L 35.706425 40.736142 
L 35.7673 40.632504 
L 35.777446 40.637905 
L 35.875523 40.535224 
L 35.902578 40.550831 
L 35.946543 40.577826 
L 36.024328 40.548332 
L 36.031092 40.557979 
L 36.078439 40.472133 
L 36.125787 40.519916 
L 36.247537 40.402411 
L 36.254301 40.414172 
L 36.389578 40.494955 
L 36.301648 40.37606 
L 36.39296 40.490211 
L 37.221537 40.219479 
L 37.231683 40.184978 
L 37.302704 40.281224 
L 37.329759 40.231655 
L 37.346669 40.250529 
L 37.421072 40.135439 
L 37.583405 40.10356 
L 37.688246 40.166953 
L 37.610461 40.07838 
L 37.698392 40.133426 
L 37.989239 40.301808 
L 38.002767 40.260074 
L 38.016295 40.282505 
L 38.202302 40.050505 
L 38.384927 40.101667 
L 38.212447 40.035703 
L 38.395073 40.08589 
L 38.466093 40.099241 
L 38.432274 40.151245 
L 38.483003 40.154666 
L 38.625045 40.237591 
L 38.692684 40.204784 
L 38.709594 40.166167 
L 38.787378 40.064952 
L 38.841489 40.077382 
L 38.92942 40.036154 
L 38.851635 40.053545 
L 38.936184 40.017759 
L 39.101899 39.782776 
L 39.125573 39.808144 
L 39.186448 39.814836 
L 39.166156 39.735636 
L 39.220267 39.751386 
L 39.406274 39.665365 
L 39.260851 39.838682 
L 39.41642 39.695393 
L 39.53817 39.74505 
L 39.470531 39.653731 
L 39.548316 39.738582 
L 39.639629 39.694142 
L 39.663302 39.727221 
L 39.69374 39.789522 
L 39.778289 39.748431 
L 39.869601 39.632162 
L 39.906803 39.654254 
L 40.021789 39.791844 
L 40.048844 39.759767 
L 40.660977 39.679043 
L 40.789491 39.54021 
L 40.792872 39.542368 
L 41.046518 39.605494 
L 40.809782 39.50967 
L 41.056664 39.57579 
L 41.168268 39.497646 
L 41.08372 39.583729 
L 41.175032 39.51498 
L 41.181796 39.55767 
L 41.273109 39.441953 
L 41.279873 39.459629 
L 41.43206 39.488191 
L 41.442206 39.456919 
L 41.594394 39.311046 
L 41.601158 39.323875 
L 41.607922 39.348868 
L 41.678942 39.23351 
L 41.702616 39.263146 
L 41.705998 39.276208 
L 41.773637 39.190294 
L 41.797311 39.201968 
L 41.922443 39.056548 
L 41.929206 39.085566 
L 42.047575 39.042314 
L 41.966408 39.154115 
L 42.054338 39.052784 
L 42.192998 39.002361 
L 42.19638 38.992675 
L 42.220054 38.940776 
L 42.260637 39.009571 
L 42.311366 38.966398 
L 42.412825 39.003125 
L 42.43988 38.974545 
L 42.521047 38.891401 
L 42.565012 38.902139 
L 42.639415 38.891901 
L 42.592068 38.937832 
L 42.669853 38.932555 
L 42.744255 38.900012 
L 42.710436 38.846097 
L 42.754401 38.866637 
L 42.859242 38.678094 
L 42.886297 38.715992 
L 42.889679 38.733497 
L 42.950554 38.624453 
L 42.980992 38.628408 
L 43.143325 38.382733 
L 43.146707 38.393932 
L 43.197436 38.19977 
L 43.207582 38.220761 
L 43.281985 37.958161 
L 43.369916 36.397661 
L 43.396971 27.529807 
L 43.478138 36.69866 
L 43.498429 37.01362 
L 43.562686 35.827248 
L 43.596506 34.207213 
L 43.677673 35.529585 
L 43.809569 35.287822 
L 43.860298 35.338684 
L 43.998958 35.38453 
L 44.100416 35.45508 
L 44.026013 35.373507 
L 44.117326 35.432451 
L 44.144381 35.395329 
L 44.198492 35.498617 
L 44.218784 35.49075 
L 44.425083 35.621422 
L 44.428465 35.614925 
L 44.438611 35.566629 
L 44.509631 35.664278 
L 44.529923 35.63999 
L 44.651673 35.743903 
L 44.685493 35.750405 
L 44.671965 35.770463 
L 44.73284 35.803611 
L 44.857972 35.955687 
L 44.874882 35.925623 
L 44.952666 36.028748 
L 45.067653 36.289351 
L 45.128528 36.232251 
L 45.155583 36.232782 
L 45.186021 36.326021 
L 45.96725 39.642927 
L 45.970632 39.635924 
L 45.974014 39.628712 
L 46.028125 39.763925 
L 46.220896 40.360149 
L 46.555709 41.241432 
L 46.562473 41.229262 
L 46.60982 41.364876 
L 46.755244 41.813962 
L 46.778917 41.786335 
L 46.924341 42.180317 
L 47.157695 42.568166 
L 47.164459 42.546863 
L 47.276063 42.599959 
L 47.401195 42.748742 
L 47.543237 42.847969 
L 47.546619 42.871317 
L 47.641314 42.766439 
L 47.702189 42.822492 
L 47.763064 42.700464 
L 47.847612 42.74196 
L 47.796883 42.670676 
L 47.874668 42.707998 
L 48.219627 42.517536 
L 48.22639 42.550802 
L 48.287265 42.399649 
L 48.314321 42.40391 
L 48.402252 42.442438 
L 48.321085 42.391482 
L 48.442835 42.377995 
L 48.62546 42.198069 
L 48.628842 42.21396 
L 48.696481 42.213379 
L 48.713391 42.127952 
L 48.737064 42.087613 
L 48.821613 42.09165 
L 48.943363 42.018589 
L 48.946745 42.040996 
L 49.044821 41.960266 
L 49.582551 41.694114 
L 49.585933 41.715986 
L 49.606224 41.77754 
L 49.687391 41.64612 
L 49.690773 41.658631 
L 49.77194 41.548715 
L 49.775322 41.557837 
L 50.157482 41.20413 
L 50.184537 41.238634 
L 50.231885 41.146796 
L 50.262322 41.177775 
L 50.387454 41.1059 
L 50.394218 41.107678 
L 50.451711 41.035497 
L 50.580225 40.891007 
L 50.678301 40.884614 
L 50.603899 40.937749 
L 50.688447 40.902557 
L 50.776378 40.961783 
L 50.725649 40.856886 
L 50.800052 40.896632 
L 50.925184 40.752509 
L 50.935329 40.778151 
L 50.955621 40.797426 
L 51.026642 40.715241 
L 51.033406 40.737715 
L 51.151774 40.615189 
L 51.168684 40.650371 
L 51.253232 40.75272 
L 51.199121 40.618253 
L 51.30058 40.713108 
L 51.459531 40.49784 
L 51.500114 40.532526 
L 51.537316 40.445333 
L 51.557607 40.453861 
L 51.689503 40.429197 
L 51.577899 40.484687 
L 51.692885 40.446544 
L 51.696267 40.476597 
L 51.780816 40.372721 
L 51.797726 40.402756 
L 51.831545 40.364907 
L 51.861983 40.486187 
L 51.868747 40.487083 
L 52.173122 40.470697 
L 52.176504 40.486202 
L 52.233997 40.361072 
L 52.267816 40.38978 
L 52.27458 40.392738 
L 52.301636 40.329389 
L 52.342219 40.316711 
L 52.420004 40.264613 
L 52.372657 40.344459 
L 52.453823 40.29166 
L 52.548518 40.429845 
L 52.572191 40.37795 
L 52.663504 40.348077 
L 52.595865 40.398798 
L 52.680414 40.399494 
L 52.704087 40.451536 
L 52.751435 40.321486 
L 52.768344 40.325742 
L 52.832601 40.242339 
L 52.890094 40.283803 
L 52.984789 40.334308 
L 52.930678 40.245765 
L 53.00508 40.316915 
L 53.113303 40.234598 
L 53.123449 40.257659 
L 53.262108 40.136809 
L 53.268872 40.130563 
L 53.394004 40.214698 
L 53.596921 40.096828 
L 53.654414 40.05708 
L 53.708525 40.102562 
L 53.752491 40.13591 
L 53.796456 40.049234 
L 53.806602 40.053634 
L 53.89115 40.013902 
L 53.911442 40.082717 
L 53.921588 40.046372 
L 54.141414 39.963628 
L 54.259783 40.038856 
L 54.378151 39.903331 
L 54.384915 39.92767 
L 54.469463 39.835908 
L 54.513429 39.845927 
L 54.554012 39.926407 
L 54.631797 39.879342 
L 54.780602 39.756079 
L 54.787366 39.775803 
L 54.858387 39.679754 
L 54.865151 39.690084 
L 54.885443 39.662394 
L 54.969991 39.748021 
L 55.081596 39.749226 
L 54.980137 39.736459 
L 55.091741 39.717603 
L 55.172908 39.611749 
L 55.230401 39.729394 
L 55.31495 39.786029 
L 55.250693 39.679851 
L 55.352151 39.774698 
L 55.375825 39.720058 
L 55.426554 39.817423 
L 55.456992 39.804981 
L 55.548304 39.715667 
L 55.649762 39.632521 
L 55.561832 39.751514 
L 55.690346 39.700636 
L 55.693728 39.717207 
L 55.774895 39.585662 
L 55.866207 39.491193 
L 55.900027 39.49636 
L 55.94061 39.487234 
L 55.913554 39.464503 
L 55.981193 39.42985 
L 56.018395 39.372364 
L 56.07927 39.48531 
L 56.082652 39.460717 
L 56.190874 39.507436 
L 56.099561 39.434684 
L 56.20102 39.487899 
L 56.207784 39.462933 
L 56.268659 39.577689 
L 56.292332 39.565933 
L 56.502013 39.315707 
L 56.525687 39.385262 
L 56.556124 39.48795 
L 56.623763 39.356198 
L 56.637291 39.391931 
L 56.742131 39.315193 
L 56.975485 39.151258 
L 56.995777 39.176883 
L 57.093854 39.195025 
L 57.009305 39.138369 
L 57.107381 39.154945 
L 57.229131 39.077309 
L 57.249423 39.068166 
L 57.361027 39.149229 
L 57.432048 39.063463 
L 57.479395 39.104988 
L 57.553798 39.168945 
L 57.601145 39.110109 
L 57.692458 38.974436 
L 57.631583 39.127055 
L 57.726278 39.015534 
L 57.753333 39.035855 
L 57.804062 38.947256 
L 57.902139 38.750547 
L 57.95625 38.773303 
L 58.196368 38.549093 
L 57.979923 38.795516 
L 58.203132 38.561504 
L 58.351938 38.295955 
L 58.35532 38.300906 
L 58.537945 36.315993 
L 58.565 27.561958 
L 58.646167 36.716233 
L 58.666459 37.048882 
L 58.730716 35.861991 
L 58.764535 34.151928 
L 58.845702 35.560958 
L 58.970834 35.291056 
L 58.991125 35.332425 
L 59.075674 35.370815 
L 59.001271 35.32403 
L 59.106112 35.336018 
L 59.265063 35.455343 
L 59.271827 35.440787 
L 59.285355 35.419238 
L 59.366521 35.49447 
L 59.373285 35.482026 
L 59.495035 35.556281 
L 59.566056 35.533831 
L 59.545765 35.607624 
L 59.596494 35.608319 
L 59.664133 35.599135 
L 59.637077 35.673143 
L 59.704716 35.639321 
L 59.887341 35.851246 
L 59.890723 35.841039 
L 59.914397 35.780231 
L 59.975272 35.915979 
L 59.992182 35.905529 
L 60.147751 36.11975 
L 60.228918 36.231701 
L 60.56373 37.654756 
L 60.726064 38.343425 
L 61.158953 39.767395 
L 61.175863 39.739323 
L 61.229974 39.889784 
L 61.233356 39.883247 
L 61.50053 40.539511 
L 61.510675 40.518491 
L 61.558023 40.645576 
L 61.60537 40.781014 
L 61.791377 41.380563 
L 61.794759 41.376841 
L 62.396745 42.524732 
L 62.400127 42.52101 
L 62.477912 42.51566 
L 62.501586 42.565833 
L 62.636864 42.661788 
L 62.640245 42.660584 
L 62.731558 42.627672 
L 62.697739 42.694466 
L 62.75185 42.638464 
L 62.833016 42.739858 
L 62.866836 42.681184 
L 62.931093 42.772754 
L 62.96153 42.725442 
L 63.032551 42.751544 
L 63.005496 42.660933 
L 63.069753 42.713118 
L 63.411329 42.44654 
L 63.543225 42.324488 
L 63.546607 42.344841 
L 63.549989 42.351702 
L 63.624392 42.259032 
L 63.661593 42.212199 
L 63.715704 42.301868 
L 63.739378 42.232232 
L 63.803635 42.295589 
L 63.857746 42.259202 
L 64.601774 41.497117 
L 64.615302 41.541184 
L 64.632212 41.567216 
L 64.709997 41.45519 
L 64.831747 41.363888 
L 64.723524 41.474207 
L 64.858802 41.380213 
L 64.936587 41.451996 
L 64.902768 41.359826 
L 64.97717 41.409534 
L 64.980552 41.416655 
L 65.000844 41.347437 
L 65.071865 41.355892 
L 65.082011 41.364096 
L 65.301837 41.204464 
L 65.318747 41.179374 
L 65.416823 41.236128 
L 65.596067 41.149578 
L 65.599448 41.157741 
L 65.60283 41.175396 
L 65.683997 41.046866 
L 65.694143 41.080409 
L 65.846331 40.916054 
L 65.707671 41.087618 
L 65.859858 40.961133 
L 65.937643 41.007878 
L 65.89706 40.915665 
L 65.968081 40.948785 
L 66.110122 40.838271 
L 66.113504 40.839341 
L 66.282602 40.9017 
L 66.336713 40.913154 
L 66.302893 40.857755 
L 66.387442 40.878352 
L 66.499046 40.772524 
L 66.515956 40.786338 
L 66.708727 40.551557 
L 66.729019 40.591665 
L 66.837241 40.620394 
L 66.776366 40.528163 
L 66.844005 40.603995 
L 66.931935 40.48572 
L 66.975901 40.547431 
L 67.175435 40.657656 
L 66.982664 40.53006 
L 67.188963 40.625417 
L 67.310713 40.407417 
L 67.317477 40.429518 
L 67.442609 40.302999 
L 67.324241 40.43262 
L 67.456137 40.322029 
L 67.517012 40.262196 
L 67.577887 40.35332 
L 67.662436 40.29324 
L 67.692873 40.334297 
L 67.801095 40.278604 
L 67.811241 40.314386 
L 67.9127 40.402393 
L 67.929609 40.381931 
L 68.01754 40.41843 
L 67.943137 40.419654 
L 68.027686 40.456548 
L 68.1562 40.467962 
L 68.037832 40.441142 
L 68.159582 40.460889 
L 68.223839 40.363842 
L 68.281332 40.395938 
L 68.284714 40.418441 
L 68.365881 40.285428 
L 68.379408 40.308242 
L 68.511304 40.3541 
L 68.41661 40.275488 
L 68.514686 40.345146 
L 68.605999 40.288569 
L 68.575561 40.355628 
L 68.62629 40.330779 
L 68.910374 40.321143 
L 68.998304 40.205034 
L 68.954339 40.327036 
L 69.032124 40.227081 
L 69.292534 39.967234 
L 69.295916 39.986062 
L 69.299298 40.011513 
L 69.370319 39.863155 
L 69.400756 39.943012 
L 69.508978 40.006316 
L 69.525888 39.953464 
L 69.623965 39.899893 
L 69.640874 39.926562 
L 69.75586 39.867427 
L 69.759242 39.853956 
L 69.837027 39.867206 
L 69.796444 39.886994 
L 69.860701 39.898261 
L 69.874229 39.918978 
L 69.931722 39.791181 
L 70.019652 39.73481 
L 69.982451 39.806909 
L 70.039944 39.800801 
L 70.107583 39.880294 
L 70.151548 39.799513 
L 70.161694 39.802722 
L 70.192132 39.705483 
L 70.198895 39.708781 
L 70.225951 39.643933 
L 70.269916 39.781869 
L 70.303736 39.741285 
L 70.418722 39.799434 
L 70.422104 39.788608 
L 70.719715 39.838198 
L 70.726479 39.842572 
L 70.753535 39.781569 
L 70.800882 39.757748 
L 71.808702 39.635654 
L 71.82223 39.605241 
L 71.900014 39.705463 
L 71.913542 39.679759 
L 72.011619 39.618842 
L 71.923688 39.689902 
L 72.03191 39.642939 
L 72.055584 39.598832 
L 72.136751 39.606707 
L 72.180716 39.66114 
L 72.255119 39.570508 
L 72.393779 39.481186 
L 72.265265 39.579672 
L 72.39716 39.486322 
L 72.444508 39.516333 
L 72.485091 39.424305 
L 72.502001 39.464191 
L 72.542584 39.418955 
L 72.583168 39.503489 
L 72.610223 39.466073 
L 72.613605 39.474801 
L 72.637279 39.38275 
L 72.704918 39.409799 
L 72.836814 39.303286 
L 72.711682 39.414227 
L 72.840195 39.310171 
L 73.171626 39.030262 
L 73.1953 39.095511 
L 73.323814 39.222569 
L 73.327196 39.218215 
L 73.452328 39.074273 
L 73.45571 39.094094 
L 73.57746 39.057659 
L 73.462474 39.100507 
L 73.597751 39.079539 
L 73.634953 39.015936 
L 73.71612 39.117758 
L 73.871689 39.091404 
L 73.875071 39.085475 
L 74.067842 38.867095 
L 74.108425 38.930464 
L 74.111807 38.938323 
L 74.172682 38.821751 
L 74.318106 38.646296 
L 74.321488 38.65857 
L 74.358689 38.635871 
L 74.375599 38.560572 
L 74.389127 38.566904 
L 74.575134 38.157822 
L 74.578516 38.178313 
L 74.632627 37.867571 
L 74.717176 36.458546 
L 74.744231 27.522399 
L 74.825398 36.617689 
L 74.842308 36.959721 
L 74.913329 35.799245 
L 74.947148 34.202311 
L 75.028315 35.51636 
L 75.08919 35.341748 
L 75.183884 35.311409 
L 75.112863 35.348902 
L 75.207558 35.318436 
L 75.57619 35.494569 
L 75.711468 35.589953 
L 75.623537 35.466166 
L 75.71485 35.584808 
L 75.758815 35.566282 
L 75.785871 35.611924 
L 75.81969 35.608779 
L 75.951586 35.728593 
L 75.95835 35.725816 
L 75.982024 35.69918 
L 76.015843 35.80314 
L 76.066572 35.749793 
L 76.21876 35.990314 
L 76.222142 35.979013 
L 76.293163 36.065139 
L 76.313454 36.050323 
L 76.387857 36.168721 
L 76.533281 36.429858 
L 76.536663 36.42342 
L 76.587392 36.551655 
L 77.405823 39.908126 
L 77.412587 39.903694 
L 77.443024 40.012346 
L 77.463316 40.021349 
L 77.622268 40.398627 
L 77.808275 40.936221 
L 78.116032 41.831141 
L 78.329094 42.364941 
L 78.400115 42.364463 
L 78.383205 42.406771 
L 78.430553 42.408657 
L 78.58274 42.560636 
L 78.450844 42.390833 
L 78.586122 42.557548 
L 78.589504 42.547879 
L 78.640233 42.625203 
L 78.677435 42.619059 
L 78.795803 42.71163 
L 78.799185 42.704561 
L 78.887115 42.661715 
L 78.86006 42.749713 
L 78.907407 42.714291 
L 79.025775 42.733341 
L 78.975046 42.609084 
L 79.029157 42.73068 
L 79.188109 42.565178 
L 79.2084 42.610143 
L 79.235456 42.635129 
L 79.279421 42.523431 
L 79.303095 42.556808 
L 79.455282 42.423916 
L 79.458664 42.430038 
L 79.512775 42.440458 
L 79.549977 42.370613 
L 79.60747 42.397603 
L 79.671727 42.315765 
L 79.708928 42.302564 
L 79.735984 42.211061 
L 80.148581 41.984827 
L 80.290623 41.833959 
L 80.304151 41.852559 
L 80.395463 41.841962 
L 80.331206 41.887635 
L 80.412373 41.872749 
L 80.432665 41.837521 
L 80.419137 41.836445 
L 80.442811 41.774686 
L 80.540887 41.71022 
L 80.469866 41.808595 
L 80.557797 41.759753 
L 80.618672 41.785507 
L 80.584852 41.732819 
L 80.662637 41.724862 
L 80.679547 41.682307 
L 80.764096 41.782784 
L 80.767478 41.767583 
L 80.804679 41.812381 
L 80.855408 41.684842 
L 80.85879 41.687602 
L 80.933193 41.597067 
L 80.973776 41.638088 
L 81.349172 41.298312 
L 81.352554 41.312043 
L 81.433721 41.205814 
L 81.558853 41.144623 
L 81.474304 41.239151 
L 81.565617 41.162092 
L 81.650166 41.266574 
L 81.680603 41.181236 
L 81.88352 40.922072 
L 81.90043 40.948686 
L 81.930867 40.965571 
L 81.913957 40.915683 
L 81.991742 40.885995 
L 82.018798 40.912232 
L 82.154076 40.748372 
L 82.181131 40.706548 
L 82.272444 40.799153 
L 82.384048 40.718822 
L 82.400958 40.759858 
L 82.800027 40.61752 
L 82.806791 40.630359 
L 82.820319 40.68893 
L 82.901486 40.561716 
L 83.01309 40.471557 
L 83.026618 40.50365 
L 83.043527 40.54488 
L 83.10102 40.465112 
L 83.128076 40.458017 
L 83.243062 40.38049 
L 83.15175 40.467379 
L 83.253208 40.40727 
L 83.270118 40.427698 
L 83.337757 40.335161 
L 83.344521 40.35075 
L 83.351285 40.325299 
L 83.408778 40.404819 
L 83.449361 40.371307 
L 83.466271 40.395474 
L 83.523764 40.278093 
L 83.547437 40.293816 
L 83.63875 40.219009 
L 83.642132 40.205987 
L 83.719917 40.162447 
L 83.703007 40.22697 
L 83.753736 40.198599 
L 83.821375 40.182187 
L 83.841667 40.226328 
L 83.905924 40.412658 
L 83.960035 40.316492 
L 83.963417 40.30844 
L 84.004 40.41793 
L 84.058111 40.357487 
L 84.098695 40.380192 
L 84.152806 40.308806 
L 84.166334 40.337482 
L 84.220445 40.360494 
L 84.328667 40.157003 
L 84.788612 39.94091 
L 84.900216 39.835105 
L 84.805521 39.973147 
L 84.910362 39.864287 
L 84.950945 39.878778 
L 84.988147 39.811058 
L 85.008438 39.814033 
L 85.096369 39.877333 
L 85.13357 39.769015 
L 85.241792 39.9123 
L 85.275612 39.877222 
L 85.326341 39.849483 
L 85.373688 39.923895 
L 85.539404 39.994913 
L 85.569841 39.931896 
L 85.698355 39.849164 
L 85.579987 39.960532 
L 85.705119 39.882008 
L 85.715265 39.853207 
L 85.891126 39.898873 
L 85.894508 39.880205 
L 85.985821 39.975642 
L 85.989203 39.975762 
L 86.033168 40.01453 
L 86.134626 39.899512 
L 86.148154 39.956734 
L 86.225939 39.837723 
L 86.239467 39.856581 
L 86.844835 39.855974 
L 87.04437 40.000888 
L 87.064662 39.974894 
L 87.105245 39.910559 
L 87.128919 39.993829 
L 87.176266 39.969904 
L 87.233759 40.005535 
L 87.281106 39.943083 
L 87.497551 39.822856 
L 87.507697 39.871928 
L 87.642974 40.01896 
L 87.646356 39.992994 
L 87.852655 39.779841 
L 87.883093 39.836249 
L 87.974405 39.866099 
L 87.94735 39.799254 
L 87.998079 39.84028 
L 88.163794 39.599066 
L 88.008225 39.855359 
L 88.19085 39.645498 
L 88.248343 39.703224 
L 88.29569 39.631283 
L 88.299072 39.633375 
L 88.43435 39.473236 
L 88.45126 39.515846 
L 88.535808 39.560442 
L 88.566246 39.526849 
L 88.586537 39.566565 
L 88.684614 39.493239 
L 88.691378 39.533848 
L 88.786072 39.440216 
L 88.789454 39.447821 
L 88.870621 39.350461 
L 89.218961 39.143757 
L 89.242635 39.190905 
L 89.394823 39.258432 
L 89.262927 39.146654 
L 89.401586 39.23957 
L 89.543628 39.071162 
L 89.54701 39.080131 
L 89.631559 38.992919 
L 89.712725 38.902661 
L 89.729635 38.873168 
L 89.766837 38.948067 
L 89.810802 38.935556 
L 89.915642 39.009888 
L 89.861531 38.923318 
L 89.92917 38.980384 
L 90.013719 38.97477 
L 89.935934 38.994001 
L 90.030628 39.012333 
L 90.05092 39.070658 
L 90.128705 38.956628 
L 90.135469 38.965578 
L 90.348531 38.782851 
L 90.351913 38.790673 
L 90.524393 38.662894 
L 90.686726 38.26454 
L 90.690108 38.269583 
L 90.740837 38.147132 
L 90.862587 36.699 
L 90.893025 27.473191 
L 90.97081 36.559808 
L 90.994483 37.06962 
L 91.062122 35.860971 
L 91.068886 35.461681 
L 91.068886 35.461681 
" clip-path="url(#pa52ba5b104)" style="fill: none; stroke: #000000; stroke-width: 0.6; stroke-linecap: square"/>
   </g>
   <g id="line2d_3">
    <path d="M 9.905557 56.169145 
L 9.973196 56.032534 
L 10.11862 54.941076 
L 10.135529 43.893252 
L 10.213314 55.420248 
L 10.230224 58.245865 
L 10.324918 57.394844 
L 10.406085 56.845468 
L 10.561655 56.331516 
L 10.565037 56.344204 
L 10.629294 56.190609 
L 10.636057 56.200496 
L 10.872794 55.317145 
L 10.889703 51.77227 
L 10.896467 43.922137 
L 10.991162 58.219999 
L 10.994544 58.218814 
L 11.325974 56.345233 
L 11.775773 55.755761 
L 11.809593 54.749299 
L 11.823121 43.849395 
L 11.904287 56.129617 
L 11.921197 58.228352 
L 12.015892 57.35975 
L 12.242482 56.258849 
L 12.245864 56.259305 
L 12.479218 55.874915 
L 12.4826 55.877712 
L 12.502892 55.763064 
L 12.546857 54.981563 
L 12.563767 43.931907 
L 12.641552 55.957833 
L 12.661843 58.234846 
L 12.753156 57.399699 
L 12.983128 56.344669 
L 13.000038 56.34984 
L 13.094732 56.215535 
L 13.145462 56.261022 
L 13.152225 56.256033 
L 13.297649 56.37777 
L 13.321323 56.30158 
L 13.412635 56.350872 
L 13.480274 56.390603 
L 13.544531 56.333557 
L 13.892872 56.687821 
L 13.903018 56.666134 
L 13.913163 56.65363 
L 13.97742 56.768071 
L 13.980802 56.764131 
L 14.244594 57.237275 
L 14.247976 57.234352 
L 14.251358 57.214551 
L 14.332525 57.382343 
L 14.335907 57.37559 
L 14.518532 57.577919 
L 14.356198 57.359927 
L 14.525296 57.558315 
L 14.6369 57.520085 
L 14.559115 57.598347 
L 14.640282 57.536453 
L 14.734976 57.637833 
L 14.877018 57.798311 
L 14.751886 57.621625 
L 14.883782 57.787037 
L 14.964949 57.756748 
L 14.924365 57.846957 
L 14.988622 57.803915 
L 15.073171 57.971065 
L 15.1239 57.935934 
L 15.14081 57.905262 
L 15.78338 58.365844 
L 15.796907 58.337329 
L 15.864546 58.448133 
L 15.878074 58.437989 
L 16.371838 58.604855 
L 16.398894 58.51767 
L 16.402276 58.501542 
L 16.486825 58.616564 
L 16.571373 58.665476 
L 16.500352 58.590759 
L 16.595047 58.602263 
L 16.622102 58.579343 
L 16.66945 58.660538 
L 16.696505 58.651917 
L 16.855457 58.805055 
L 16.865602 58.781246 
L 16.902804 58.829745 
L 16.990734 58.703064 
L 17.403332 58.728869 
L 17.487881 58.739447 
L 17.443915 58.671288 
L 17.508172 58.71733 
L 17.5217 58.721867 
L 17.650214 58.539259 
L 17.694179 58.497404 
L 17.656978 58.543757 
L 17.761818 58.559457 
L 17.856513 58.53391 
L 17.866659 58.497978 
L 17.910624 58.462285 
L 17.954589 58.547542 
L 17.971499 58.539689 
L 18.076339 58.558689 
L 18.02561 58.455859 
L 18.096631 58.536627 
L 18.14736 58.442938 
L 18.208235 58.523516 
L 18.262346 58.516657 
L 18.28602 58.447567 
L 18.30293 58.388484 
L 18.380714 58.495864 
L 18.39086 58.491148 
L 18.468645 58.560143 
L 18.509228 58.523887 
L 18.52952 58.533681 
L 18.556576 58.432534 
L 18.603923 58.421826 
L 18.654652 58.487124 
L 18.729055 58.527044 
L 18.674944 58.473267 
L 18.769638 58.493079 
L 18.837277 58.473654 
L 18.857569 58.41379 
L 18.904916 58.338655 
L 18.952263 58.473544 
L 18.955645 58.473387 
L 19.053722 58.505383 
L 19.023284 58.455281 
L 19.06725 58.46798 
L 19.13827 58.381319 
L 19.178854 58.46442 
L 19.39868 58.41162 
L 19.439264 58.372621 
L 19.418972 58.420751 
L 19.506903 58.437882 
L 19.510284 58.445927 
L 19.564396 58.331018 
L 19.574541 58.327682 
L 19.682764 58.298376 
L 19.591451 58.344719 
L 19.689528 58.312861 
L 19.719965 58.35502 
L 19.78084 58.264884 
L 19.794368 58.275213 
L 20.436938 58.518051 
L 20.453847 58.47357 
L 20.619563 58.301188 
L 20.622945 58.311189 
L 20.707493 58.305366 
L 20.66691 58.269213 
L 20.731167 58.285483 
L 21.038924 57.997691 
L 21.069362 58.062538 
L 21.072744 58.073489 
L 21.130237 57.982405 
L 21.164056 58.011696 
L 21.194494 57.975764 
L 21.221549 58.05951 
L 21.265515 58.051753 
L 21.810008 57.910753 
L 21.928376 57.812902 
L 22.009543 57.825434 
L 21.968959 57.739955 
L 22.033216 57.794547 
L 22.104237 57.752103 
L 22.131293 57.853846 
L 22.222605 57.963019 
L 22.253043 57.876361 
L 22.357883 57.871895 
L 22.273335 57.88984 
L 22.368029 57.879342 
L 22.418758 57.950397 
L 22.462724 57.843956 
L 22.476251 57.856797 
L 22.550654 57.882722 
L 22.581092 57.824096 
L 22.69946 57.717807 
L 22.591238 57.829401 
L 22.702842 57.721546 
L 22.817828 57.76623 
L 22.946342 57.742031 
L 22.949724 57.756674 
L 23.074856 57.809583 
L 23.20337 57.933362 
L 23.210134 57.925111 
L 23.369085 57.676025 
L 23.409669 57.643708 
L 23.379231 57.689947 
L 23.477307 57.690064 
L 23.548328 57.725762 
L 23.572002 57.659229 
L 23.588912 57.683476 
L 23.717426 57.693672 
L 23.720808 57.661188 
L 23.727571 57.677878 
L 23.889905 57.50462 
L 23.903433 57.544502 
L 23.987981 57.43267 
L 24.126641 57.321384 
L 24.008273 57.45973 
L 24.146933 57.33212 
L 24.295738 57.499887 
L 24.309266 57.48641 
L 24.68128 57.638605 
L 24.319412 57.457294 
L 24.684662 57.633584 
L 24.775975 57.582339 
L 24.69819 57.653103 
L 24.80303 57.643345 
L 24.934926 57.655774 
L 24.94169 57.615401 
L 25.046531 57.503517 
L 25.060058 57.511889 
L 25.154753 57.477051 
L 25.18519 57.515899 
L 25.191954 57.536793 
L 25.279885 57.447174 
L 25.286649 57.420983 
L 25.317086 57.492634 
L 25.384725 57.481785 
L 25.415163 57.449157 
L 25.503093 57.469285 
L 25.611316 57.442748 
L 25.624843 57.455209 
L 25.763503 57.501422 
L 25.834524 57.481068 
L 25.854816 57.549741 
L 25.868343 57.519393 
L 25.902163 57.57816 
L 25.925837 57.497025 
L 25.979948 57.542509 
L 26.044205 57.515919 
L 26.020531 57.494217 
L 26.067878 57.484313 
L 26.149045 57.406354 
L 26.189628 57.424788 
L 26.318142 57.326124 
L 26.392545 57.206597 
L 26.446656 57.292255 
L 26.463566 57.332699 
L 26.541351 57.201 
L 26.544733 57.218338 
L 26.781469 56.897017 
L 26.784851 56.915211 
L 26.85249 56.822296 
L 26.879545 56.827949 
L 26.994532 56.772321 
L 26.95733 56.869134 
L 27.004677 56.801942 
L 27.041879 56.820295 
L 27.085844 56.752841 
L 27.1129 56.780067 
L 27.221122 56.77004 
L 27.238032 56.734475 
L 27.359782 56.69594 
L 27.254941 56.767853 
L 27.366546 56.727256 
L 27.390219 56.771889 
L 27.44433 56.672188 
L 27.468004 56.68548 
L 27.667539 56.528657 
L 27.515351 56.723251 
L 27.681067 56.542057 
L 27.684449 56.561793 
L 27.768997 56.41884 
L 27.961768 55.526303 
L 27.978678 54.159863 
L 27.988824 43.753239 
L 28.083518 56.413792 
L 28.097046 57.080398 
L 28.191741 56.434972 
L 28.354074 54.134314 
L 28.36422 44.498235 
L 28.458914 57.647887 
L 28.709178 55.688661 
L 28.742998 53.558523 
L 28.753144 44.354682 
L 28.847838 58.036819 
L 28.85122 58.036319 
L 28.959442 57.036015 
L 29.169123 54.439935 
L 29.179269 44.199074 
L 29.270581 58.034105 
L 29.280727 58.279656 
L 29.368658 57.470643 
L 29.642596 53.572425 
L 29.649359 44.135974 
L 29.747436 58.395258 
L 29.750818 58.431304 
L 29.811693 57.893575 
L 30.11945 55.9004 
L 30.163415 55.289547 
L 30.176943 52.783855 
L 30.183707 44.052443 
L 30.285165 58.476887 
L 30.342658 57.959745 
L 30.619978 56.266842 
L 30.718054 55.81175 
L 30.755256 54.869414 
L 30.768784 43.987641 
L 30.84995 55.365718 
L 30.870242 58.511197 
L 30.961555 57.680188 
L 31.26593 56.210306 
L 31.401208 54.93784 
L 31.414735 43.966464 
L 31.495902 55.284362 
L 31.516194 58.494458 
L 31.610888 57.656687 
L 31.830715 56.479005 
L 31.972757 56.224914 
L 31.986284 56.240872 
L 32.01334 56.13977 
L 32.124944 54.63619 
L 32.138472 43.935117 
L 32.223021 57.923863 
L 32.236548 58.437761 
L 32.327861 57.63187 
L 32.62209 56.29555 
L 32.628854 56.298887 
L 32.689729 56.099616 
L 32.794569 55.665604 
L 32.825007 54.304866 
L 32.835153 43.936161 
L 32.926465 58.340459 
L 32.933229 58.428421 
L 33.007632 57.752611 
L 33.288334 56.390795 
L 33.295098 56.400706 
L 33.298479 56.402449 
L 33.328917 56.317615 
L 33.339063 56.304222 
L 33.345827 56.306527 
L 33.548744 55.14867 
L 33.562271 47.073553 
L 33.565653 43.930924 
L 33.660348 58.375375 
L 33.670494 58.42332 
L 33.727987 57.870792 
L 34.04589 56.367468 
L 34.103383 56.350898 
L 34.123674 56.286817 
L 34.130438 56.291464 
L 34.326591 54.473073 
L 34.336737 43.934239 
L 34.424668 58.027862 
L 34.438195 58.377287 
L 34.526126 57.594705 
L 34.749334 56.443313 
L 34.837265 56.340915 
L 35.111203 54.726655 
L 35.12473 43.893358 
L 35.205897 56.955899 
L 35.222807 58.349035 
L 35.317501 57.488379 
L 35.851849 54.929621 
L 35.868759 43.93711 
L 35.946543 55.464603 
L 35.966835 58.379455 
L 36.058148 57.554022 
L 36.332085 56.375296 
L 36.335467 56.390198 
L 36.423398 56.279283 
L 36.572203 56.087004 
L 36.578967 56.104705 
L 36.633079 55.94697 
L 36.639842 55.960754 
L 36.710863 55.26726 
L 36.724391 53.10143 
L 36.731155 43.899993 
L 36.829231 58.293206 
L 36.832613 58.288079 
L 37.29594 56.159381 
L 37.31285 56.184986 
L 37.471801 55.45709 
L 37.492093 51.680232 
L 37.498857 43.893661 
L 37.596933 58.333121 
L 38.04335 56.270971 
L 38.046732 56.285835 
L 38.121135 56.188218 
L 38.138045 56.192881 
L 38.317288 55.275227 
L 38.330816 52.688783 
L 38.337579 43.866565 
L 38.439038 58.304216 
L 38.510059 57.647934 
L 38.723121 56.478105 
L 38.729885 56.483788 
L 39.010587 55.873661 
L 39.071462 54.969644 
L 39.088372 43.927644 
L 39.166156 55.780149 
L 39.183066 58.300621 
L 39.277761 57.459739 
L 39.541552 56.365022 
L 39.544934 56.375502 
L 39.734323 56.135311 
L 39.747851 56.152942 
L 39.900039 54.788578 
L 39.913566 43.868474 
L 39.994733 56.376054 
L 40.011643 58.297817 
L 40.106337 57.460386 
L 40.288962 56.492437 
L 40.508789 56.153744 
L 40.525699 56.166813 
L 40.529081 56.185442 
L 40.613629 56.053376 
L 40.623775 56.094009 
L 40.816546 54.474623 
L 40.830074 43.897712 
L 40.914623 57.907314 
L 40.924768 58.195879 
L 41.016081 57.356694 
L 41.104012 56.763706 
L 41.279873 56.208426 
L 41.361039 56.223253 
L 41.320456 56.179591 
L 41.377949 56.180189 
L 41.557192 54.401346 
L 41.567338 43.90692 
L 41.658651 58.179428 
L 41.665415 58.292306 
L 41.743199 57.584248 
L 42.030665 56.265906 
L 42.034047 56.278757 
L 42.098304 56.183977 
L 42.135505 56.231925 
L 42.186234 56.171288 
L 42.223436 56.278964 
L 42.247109 56.223328 
L 42.253873 56.243802 
L 42.280929 56.149616 
L 42.355332 56.201302 
L 42.541339 54.705556 
L 42.554866 43.840579 
L 42.639415 57.453408 
L 42.652943 58.223468 
L 42.747637 57.367771 
L 42.947172 56.326866 
L 42.950554 56.354939 
L 43.035103 56.169795 
L 43.224492 54.458903 
L 43.234638 43.973488 
L 43.322568 58.03876 
L 43.332714 58.280442 
L 43.420645 57.491775 
L 43.623561 56.496482 
L 43.738548 56.295585 
L 43.775749 56.352024 
L 43.887353 56.418112 
L 43.802805 56.322943 
L 43.894117 56.371899 
L 43.975284 56.309667 
L 44.005721 56.383225 
L 44.215402 56.632448 
L 44.015867 56.358218 
L 44.249222 56.513879 
L 44.323624 56.579754 
L 44.327006 56.595515 
L 44.475812 56.659824 
L 44.496104 56.628025 
L 44.509631 56.60053 
L 44.580652 56.70996 
L 44.584034 56.692316 
L 44.763277 56.958277 
L 44.773423 56.94103 
L 44.776805 56.921558 
L 44.861354 56.985735 
L 44.878264 56.954793 
L 45.013541 57.078601 
L 44.905319 56.946177 
L 45.016923 57.065516 
L 45.047361 57.049599 
L 45.101472 57.159108 
L 45.21984 57.240414 
L 45.115 57.146434 
L 45.23675 57.192606 
L 45.263805 57.165425 
L 45.314535 57.24864 
L 45.348354 57.185824 
L 45.896229 57.747604 
L 45.899611 57.744369 
L 45.960486 57.725737 
L 45.936813 57.79186 
L 46.011216 57.749048 
L 46.136348 57.853409 
L 46.305445 58.010042 
L 46.315591 57.982012 
L 46.318973 57.9631 
L 46.389994 58.193148 
L 46.734952 58.46267 
L 46.762008 58.373728 
L 46.893904 58.265509 
L 46.917577 58.296314 
L 47.100202 58.324805 
L 47.154313 58.315164 
L 47.191515 58.382118 
L 47.221952 58.397082 
L 47.2693 58.282542 
L 47.363994 58.187931 
L 47.387668 58.23982 
L 47.949071 58.540544 
L 47.959217 58.507478 
L 48.053911 58.413135 
L 47.976126 58.524317 
L 48.091113 58.464067 
L 48.192571 58.541961 
L 48.212863 58.514886 
L 48.290647 58.477791 
L 48.239918 58.56163 
L 48.327849 58.559891 
L 48.392106 58.499539 
L 48.442835 58.584058 
L 48.581495 58.651149 
L 48.595023 58.621904 
L 48.679571 58.54544 
L 48.716773 58.554866 
L 48.74721 58.546879 
L 48.787793 58.651791 
L 48.808085 58.621775 
L 49.031294 58.837187 
L 48.821613 58.606178 
L 49.051585 58.781884 
L 49.095551 58.770538 
L 49.139516 58.843119 
L 49.14628 58.839366 
L 49.230828 58.885505 
L 49.183481 58.787941 
L 49.25112 58.828841 
L 49.328905 58.826929 
L 49.295085 58.904057 
L 49.35596 58.85695 
L 49.684009 58.781901 
L 49.711065 58.804969 
L 49.798995 58.70787 
L 49.920745 58.823412 
L 49.842961 58.672846 
L 49.930891 58.796849 
L 50.042496 58.813754 
L 50.045877 58.804014 
L 50.147336 58.697757 
L 50.167628 58.744127 
L 50.252176 58.846512 
L 50.285996 58.787671 
L 50.309669 58.761974 
L 50.370544 58.878728 
L 50.387454 58.842554 
L 50.390836 58.851007 
L 50.448329 58.730764 
L 50.461857 58.730968 
L 50.556551 58.756351 
L 50.50244 58.76776 
L 50.559933 58.7742 
L 50.590371 58.816247 
L 50.576843 58.750058 
L 50.664774 58.747433 
L 50.732413 58.67399 
L 50.678301 58.756205 
L 50.776378 58.745631 
L 50.793288 58.814982 
L 50.877836 58.705886 
L 50.8846 58.68802 
L 50.938711 58.75579 
L 50.986059 58.719053 
L 51.030024 58.724896 
L 51.00635 58.684636 
L 51.084135 58.673029 
L 51.121336 58.639317 
L 51.114573 58.694734 
L 51.192357 58.700152 
L 51.273524 58.768828 
L 51.310725 58.740616 
L 51.659066 58.413479 
L 51.672594 58.427048 
L 51.675976 58.448638 
L 51.77067 58.364445 
L 51.801108 58.394185 
L 51.895802 58.299033 
L 51.899184 58.318516 
L 51.990497 58.225541 
L 52.125774 58.086408 
L 52.15283 58.004942 
L 52.210323 58.169613 
L 52.213705 58.164147 
L 52.369275 58.285664 
L 52.487643 58.191068 
L 52.37942 58.293648 
L 52.494407 58.224283 
L 52.589101 58.3373 
L 52.612775 58.302182 
L 52.707469 58.210389 
L 52.731143 58.244355 
L 52.829219 58.157712 
L 52.944205 57.962757 
L 52.961115 57.972271 
L 52.978025 57.993186 
L 53.032136 57.871162 
L 53.052428 57.889524 
L 53.14374 57.813659 
L 53.096393 57.915234 
L 53.174178 57.838988 
L 53.17756 57.847188 
L 53.235053 57.74751 
L 53.262108 57.77306 
L 53.2824 57.707986 
L 53.322983 57.795015 
L 53.373713 57.774485 
L 53.448115 57.631264 
L 53.522518 57.679714 
L 53.569866 57.706624 
L 53.593539 57.626649 
L 53.627359 57.644864 
L 53.745727 57.595827 
L 53.654414 57.665745 
L 53.749109 57.60785 
L 53.755873 57.630385 
L 53.806602 57.530393 
L 53.840421 57.547868 
L 53.931734 57.536466 
L 53.867477 57.582218 
L 53.948644 57.559997 
L 53.952025 57.56848 
L 53.989227 57.49873 
L 54.053484 57.5242 
L 54.121123 57.524283 
L 54.077157 57.556991 
L 54.15156 57.573972 
L 54.161706 57.571639 
L 54.195526 57.485269 
L 54.202289 57.488818 
L 54.317276 57.366841 
L 54.32404 57.375583 
L 54.44579 57.381305 
L 54.462699 57.433198 
L 54.648706 57.541261 
L 54.476227 57.416822 
L 54.65547 57.511727 
L 54.831331 57.476657 
L 54.838095 57.497861 
L 54.89897 57.53888 
L 54.9497 57.479762 
L 54.990283 57.440303 
L 55.061304 57.499977 
L 55.233783 57.602349 
L 55.088359 57.454425 
L 55.257457 57.561207 
L 55.385971 57.394319 
L 55.389353 57.395149 
L 55.446846 57.345431 
L 55.507721 57.437875 
L 55.642999 57.336635 
L 55.521249 57.462079 
L 55.649762 57.357764 
L 55.653144 57.352476 
L 55.707256 57.430346 
L 55.727547 57.42016 
L 55.734311 57.44032 
L 55.815478 57.367876 
L 55.829006 57.376931 
L 55.83577 57.355611 
L 55.916936 57.500579 
L 55.954138 57.45968 
L 56.008249 57.559287 
L 56.038686 57.608852 
L 56.113089 57.530619 
L 56.133381 57.542906 
L 56.326152 57.323826 
L 56.353207 57.39279 
L 56.430992 57.278822 
L 56.535832 57.313416 
L 56.552742 57.266955 
L 56.664346 57.227396 
L 56.586562 57.28651 
L 56.667728 57.231352 
L 56.765805 57.275828 
L 56.786096 57.25586 
L 56.867263 57.184954 
L 56.904465 57.222225 
L 56.968722 57.201511 
L 57.026215 57.262341 
L 57.097236 57.209118 
L 57.046506 57.303403 
L 57.127673 57.296208 
L 57.256187 57.499323 
L 57.262951 57.472632 
L 57.333972 57.433828 
L 57.354263 57.546404 
L 57.364409 57.518611 
L 57.594382 57.797176 
L 57.634965 57.739698 
L 57.729659 57.699368 
L 57.672166 57.788725 
L 57.749951 57.720568 
L 57.783771 57.709472 
L 57.814208 57.816959 
L 57.824354 57.805116 
L 57.858173 57.850683 
L 57.902139 57.762688 
L 57.932576 57.795848 
L 58.098292 57.700312 
L 58.19975 57.800252 
L 58.21666 57.784751 
L 58.602202 57.735759 
L 58.730716 57.675071 
L 58.734098 57.695704 
L 58.849084 57.761792 
L 58.852466 57.752513 
L 58.926868 57.733221 
L 58.940396 57.806636 
L 58.984362 57.834064 
L 59.028327 57.758574 
L 59.041855 57.761574 
L 59.386813 57.663669 
L 59.390195 57.670798 
L 59.505181 57.767381 
L 59.410487 57.645658 
L 59.522091 57.755667 
L 59.647223 57.896935 
L 59.687806 57.865373 
L 59.755445 57.811598 
L 59.792647 57.901266 
L 59.856904 57.878336 
L 59.911015 57.960873 
L 60.042911 57.803951 
L 60.056439 57.823739 
L 60.090258 57.882204 
L 60.168043 57.830615 
L 60.286411 57.742148 
L 60.289793 57.745308 
L 60.377723 57.759869 
L 60.316848 57.687873 
L 60.391251 57.715707 
L 60.408161 57.668726 
L 60.465654 57.843707 
L 60.553585 57.863944 
L 60.506237 57.819307 
L 60.573876 57.830401 
L 60.665189 57.636769 
L 60.709154 57.720429 
L 61.34496 57.671931 
L 61.358488 57.660836 
L 61.490384 57.691966 
L 61.524203 57.705648 
L 61.629044 57.620721 
L 61.74403 57.681013 
L 61.760939 57.651523 
L 62.099134 57.731831 
L 62.166773 57.833203 
L 62.224266 57.806306 
L 62.332488 57.834831 
L 62.312197 57.766016 
L 62.342634 57.823351 
L 62.386599 57.767508 
L 62.498204 57.833134 
L 62.640245 57.698421 
L 62.707884 57.764666 
L 62.741704 57.676655 
L 62.826253 57.494923 
L 62.863454 57.565179 
L 62.97844 57.599027 
L 62.981822 57.610099 
L 63.029169 57.634355 
L 62.988586 57.589391 
L 63.056225 57.545686 
L 63.062989 57.509534 
L 63.140774 57.679715 
L 63.147537 57.647287 
L 63.245614 57.665177 
L 63.228704 57.581492 
L 63.259142 57.635874 
L 63.363982 57.626153 
L 63.333544 57.712353 
L 63.367364 57.654414 
L 63.438385 57.676594 
L 63.418093 57.62067 
L 63.48235 57.630894 
L 63.556753 57.711988 
L 63.600718 57.595604 
L 63.62101 57.615807 
L 63.675121 57.548137 
L 63.702177 57.555519 
L 63.722468 57.505729 
L 63.766434 57.588957 
L 63.810399 57.583282 
L 64.033607 57.544314 
L 64.036989 57.523898 
L 64.182413 57.368167 
L 64.250052 57.330303 
L 64.287253 57.402263 
L 64.327837 57.427558 
L 64.354892 57.338656 
L 64.392094 57.375015 
L 64.517226 57.300767 
L 64.412385 57.418598 
L 64.520608 57.304582 
L 64.62883 57.343476 
L 64.554427 57.215173 
L 64.64574 57.324981 
L 65.230816 57.164999 
L 65.349184 57.149681 
L 65.278164 57.24807 
L 65.35933 57.170889 
L 65.447261 57.282092 
L 65.48108 57.225249 
L 65.599448 57.296084 
L 65.49799 57.19379 
L 65.616358 57.240115 
L 65.937643 56.987018 
L 65.626504 57.273275 
L 65.957935 57.038598 
L 66.005282 56.984754 
L 66.072921 57.060502 
L 66.292747 57.094264 
L 66.316421 57.143724 
L 66.397588 57.028334 
L 66.938699 56.588312 
L 67.117942 55.637433 
L 67.138234 53.808781 
L 67.14838 43.747369 
L 67.246456 56.693515 
L 67.256602 57.119355 
L 67.354679 56.502963 
L 67.523776 53.864036 
L 67.533922 44.499214 
L 67.625234 57.638448 
L 67.628616 57.632272 
L 67.645526 57.51655 
L 67.9127 53.866615 
L 67.922846 44.338152 
L 68.01754 58.022758 
L 68.020922 58.036017 
L 68.05136 57.747861 
L 68.338825 54.506776 
L 68.348971 44.203607 
L 68.440283 58.004226 
L 68.450429 58.283036 
L 68.53836 57.461044 
L 68.815679 53.857341 
L 68.825825 44.142275 
L 68.92052 58.367979 
L 68.927284 58.420341 
L 68.988159 57.85068 
L 69.214749 56.287259 
L 69.292534 55.890392 
L 69.339881 54.692061 
L 69.353409 44.075516 
L 69.437957 57.670535 
L 69.454867 58.466723 
L 69.54618 57.639829 
L 69.935104 53.994524 
L 69.945249 44.003472 
L 70.039944 58.464147 
L 70.046708 58.48474 
L 70.083909 58.142031 
L 70.361229 56.42805 
L 70.371375 56.435804 
L 70.395048 56.331102 
L 70.554 55.082891 
L 70.57091 43.966565 
L 70.648694 54.248235 
L 70.668986 58.50381 
L 70.76368 57.671415 
L 71.020708 56.410335 
L 71.02409 56.411513 
L 71.274354 54.830677 
L 71.287882 43.926615 
L 71.369049 56.478212 
L 71.385959 58.442441 
L 71.480653 57.599577 
L 71.754591 56.336942 
L 71.94398 55.821314 
L 71.987945 54.896565 
L 72.001473 43.912527 
L 72.082639 55.655142 
L 72.099549 58.44877 
L 72.194244 57.619435 
L 72.265265 57.112425 
L 72.268647 57.114254 
L 72.464799 56.375167 
L 72.478327 56.38746 
L 72.525674 56.241451 
L 72.542584 56.272499 
L 72.718445 54.86167 
L 72.731973 43.909905 
L 72.81314 56.038671 
L 72.83005 58.441199 
L 72.924744 57.610358 
L 73.526731 54.936378 
L 73.54364 43.913666 
L 73.621425 55.518491 
L 73.641717 58.362858 
L 73.733029 57.542188 
L 73.95962 56.403347 
L 74.223411 55.936239 
L 74.280905 54.857173 
L 74.294432 43.896868 
L 74.375599 55.94399 
L 74.395891 58.3804 
L 74.487203 57.567034 
L 74.669828 56.578126 
L 74.825398 56.203295 
L 74.835544 56.227754 
L 75.05537 55.979369 
L 74.855835 56.242362 
L 75.062134 56.005544 
L 75.116245 55.878686 
L 75.170356 55.116138 
L 75.183884 47.223254 
L 75.187266 43.91156 
L 75.281961 58.23796 
L 75.285343 58.270066 
L 75.339454 57.785094 
L 75.599864 56.339865 
L 75.826454 55.910887 
L 75.897475 54.694908 
L 75.911003 43.92132 
L 75.992169 57.179889 
L 76.005697 58.319836 
L 76.103774 57.471628 
L 76.296545 56.432329 
L 76.299927 56.434753 
L 76.509607 56.210768 
L 76.516371 56.221251 
L 76.594156 56.221293 
L 76.553572 56.177542 
L 76.617829 56.199192 
L 76.749725 56.012273 
L 76.753107 56.024472 
L 76.756489 56.030495 
L 76.786927 55.861547 
L 76.834274 55.037667 
L 76.851184 43.850553 
L 76.93235 56.317305 
L 76.952642 58.256988 
L 77.043955 57.408183 
L 77.236726 56.368054 
L 77.240108 56.390718 
L 77.514045 55.058048 
L 77.527573 45.055018 
L 77.530955 43.935296 
L 77.605358 53.551531 
L 77.629031 58.319762 
L 77.723726 57.4453 
L 77.963844 56.367244 
L 77.977372 56.370733 
L 77.9909 56.375331 
L 78.014573 56.296125 
L 78.031483 56.282287 
L 78.143087 56.211195 
L 78.159997 56.220853 
L 78.20058 56.24971 
L 78.25131 56.123583 
L 78.254691 56.130743 
L 78.389969 54.892921 
L 78.403497 43.871019 
L 78.484664 55.094439 
L 78.501574 58.301405 
L 78.59965 57.418452 
L 78.890497 56.232998 
L 78.920935 56.259105 
L 78.978428 56.155718 
L 78.98181 56.165824 
L 79.164435 54.505106 
L 79.177963 43.934064 
L 79.262511 57.943266 
L 79.272657 58.297206 
L 79.36397 57.462537 
L 79.830678 56.076555 
L 79.840824 56.09812 
L 79.908463 55.904817 
L 79.969338 55.097697 
L 79.979484 52.8404 
L 79.986248 43.88886 
L 80.084324 58.276548 
L 80.087706 58.270211 
L 80.544269 56.219544 
L 80.567943 56.222556 
L 80.608526 56.133179 
L 80.622054 56.156987 
L 80.845262 54.841748 
L 80.85879 43.861182 
L 80.939957 55.972105 
L 80.956867 58.251988 
L 81.051561 57.39986 
L 81.264624 56.342903 
L 81.278151 56.346581 
L 81.305207 56.233854 
L 81.51827 56.072695 
L 81.636638 55.841116 
L 81.690749 54.762279 
L 81.704277 43.866741 
L 81.785443 56.629829 
L 81.798971 58.220739 
L 81.897048 57.357462 
L 82.167603 56.227684 
L 82.279208 56.135135 
L 82.296117 56.169813 
L 82.319791 56.221851 
L 82.384048 56.095688 
L 82.549763 55.492699 
L 82.570055 53.470498 
L 82.580201 43.884106 
L 82.674895 58.233234 
L 82.678277 58.235112 
L 82.688423 58.153136 
L 82.952215 56.441229 
L 83.121312 56.116559 
L 83.259972 55.31768 
L 83.2735 53.81336 
L 83.283646 43.933678 
L 83.37834 58.294811 
L 83.381722 58.307421 
L 83.41216 58.031427 
L 83.625222 56.59312 
L 83.861958 56.275218 
L 83.875486 56.229567 
L 83.926215 56.350068 
L 83.973563 56.269073 
L 84.02091 56.221279 
L 84.095313 56.30518 
L 84.122368 56.308018 
L 84.149424 56.387818 
L 84.277938 56.55855 
L 84.396306 56.617299 
L 84.409834 56.589333 
L 84.592459 56.532305 
L 84.605987 56.598142 
L 84.775084 56.906177 
L 84.778466 56.903295 
L 84.812285 56.88204 
L 84.869778 57.006314 
L 84.87316 56.989169 
L 84.947563 57.028736 
L 84.903598 57.057723 
L 84.964473 57.048981 
L 85.02873 57.174553 
L 85.076077 57.263796 
L 85.15048 57.221435 
L 85.157244 57.200797 
L 85.207973 57.36073 
L 85.228265 57.345429 
L 85.356779 57.55134 
L 85.370306 57.52864 
L 85.380452 57.524053 
L 85.53264 57.642712 
L 85.546168 57.619583 
L 85.62057 57.737458 
L 85.623952 57.731259 
L 86.00273 58.075733 
L 85.634098 57.718073 
L 86.016258 57.996766 
L 86.026404 57.981223 
L 86.083897 58.085267 
L 86.094043 58.079205 
L 86.259758 58.396701 
L 86.303724 58.337143 
L 86.381508 58.412845 
L 86.672356 58.52103 
L 86.685884 58.469783 
L 86.726467 58.416846 
L 86.777196 58.550918 
L 86.780578 58.536785 
L 86.848217 58.631163 
L 86.892182 58.531472 
L 86.980113 58.562888 
L 86.959821 58.596848 
L 86.986877 58.583608 
L 87.064662 58.601232 
L 87.034224 58.523106 
L 87.084953 58.552934 
L 87.091717 58.530352 
L 87.16612 58.614206 
L 87.189794 58.582529 
L 87.521224 58.65713 
L 87.527988 58.639077 
L 87.538134 58.615308 
L 87.605773 58.727219 
L 87.63621 58.658657 
L 87.798544 58.699346 
L 87.649738 58.63117 
L 87.805308 58.681515 
L 87.822218 58.659381 
L 87.883093 58.774539 
L 87.910148 58.753011 
L 87.954113 58.83816 
L 87.981169 58.805737 
L 87.984551 58.824055 
L 88.028516 58.745408 
L 88.089391 58.803042 
L 88.160412 58.725386 
L 88.116447 58.821835 
L 88.207759 58.748237 
L 88.224669 58.779462 
L 88.258489 58.677953 
L 88.3126 58.711301 
L 88.501989 58.63882 
L 88.512135 58.672611 
L 88.5561 58.73779 
L 88.630503 58.702922 
L 88.738725 58.632129 
L 88.650794 58.73528 
L 88.752253 58.65647 
L 89.012663 58.801865 
L 89.019426 58.830351 
L 89.083683 58.704312 
L 89.100593 58.7239 
L 89.212197 58.666833 
L 89.151322 58.753468 
L 89.218961 58.671274 
L 89.330566 58.600262 
L 89.340711 58.638517 
L 89.411732 58.538815 
L 89.482753 58.614611 
L 89.597739 58.671914 
L 89.523336 58.563632 
L 89.601121 58.670146 
L 89.739781 58.752263 
L 89.641705 58.627658 
L 89.743163 58.739292 
L 89.868295 58.47501 
L 89.878441 58.50084 
L 89.932552 58.544612 
L 89.966371 58.428203 
L 90.03401 58.26876 
L 90.08474 58.338674 
L 90.199726 58.367653 
L 90.145615 58.282357 
L 90.203108 58.355195 
L 90.291038 58.264566 
L 90.318094 58.335688 
L 90.443226 58.463058 
L 90.561594 58.40657 
L 90.564976 58.410713 
L 90.673198 58.373781 
L 90.686726 58.391019 
L 90.757747 58.419957 
L 90.788184 58.34364 
L 91.068886 58.213847 
L 91.068886 58.213847 
" clip-path="url(#pa52ba5b104)" style="fill: none; stroke: #000000; stroke-width: 0.6; stroke-linecap: square"/>
   </g>
   <g id="line2d_4">
    <path d="M 95.127221 15.313171 
L 95.127221 8.552195 
" clip-path="url(#pa52ba5b104)" style="fill: none; stroke: #000000; stroke-width: 1.5; stroke-linecap: square"/>
   </g>
  </g>
 </g>
 <defs>
  <clipPath id="pa52ba5b104">
   <rect x="7.2" y="7.2" width="89.28" height="55.44"/>
  </clipPath>
 </defs>
</svg>
