<?xml version="1.0" encoding="utf-8" standalone="no"?>
<!DOCTYPE svg PUBLIC "-//W3C//DTD SVG 1.1//EN"
  "http://www.w3.org/Graphics/SVG/1.1/DTD/svg11.dtd">
<svg xmlns:xlink="http://www.w3.org/1999/xlink" width="103.68pt" height="69.84pt" viewBox="0 0 103.68 69.84" xmlns="http://www.w3.org/2000/svg" version="1.1">
 <metadata>
  <rdf:RDF xmlns:dc="http://purl.org/dc/elements/1.1/" xmlns:cc="http://creativecommons.org/ns#" xmlns:rdf="http://www.w3.org/1999/02/22-rdf-syntax-ns#">
   <cc:Work>
    <dc:type rdf:resource="http://purl.org/dc/dcmitype/StillImage"/>
    <dc:date>2022-05-08T14:49:29.120362</dc:date>
    <dc:format>image/svg+xml</dc:format>
    <dc:creator>
     <cc:Agent>
      <dc:title>Matplotlib v3.5.1, https://matplotlib.org/</dc:title>
     </cc:Agent>
    </dc:creator>
   </cc:Work>
  </rdf:RDF>
 </metadata>
 <defs>
  <style type="text/css">*{stroke-linejoin: round; stroke-linecap: butt}</style>
 </defs>
 <g id="figure_1">
  <g id="patch_1">
   <path d="M 0 69.84 
L 103.68 69.84 
L 103.68 0 
L 0 0 
z
" style="fill: #ffffff"/>
  </g>
  <g id="axes_1">
   <g id="patch_2">
    <path d="M 7.2 62.64 
L 96.48 62.64 
L 96.48 7.2 
L 7.2 7.2 
z
" style="fill: #ffffff"/>
   </g>
   <g id="matplotlib.axis_1"/>
   <g id="matplotlib.axis_2"/>
   <g id="line2d_1">
    <path d="M 9.905557 14.344597 
L 9.96305 23.76892 
L 10.074654 22.519899 
L 10.3283 20.628603 
L 10.436523 19.927937 
L 10.453432 18.097345 
L 10.463578 9.268694 
L 10.554891 23.603792 
L 10.558273 23.565304 
L 10.964106 19.119234 
L 10.977634 9.175789 
L 11.062183 23.700508 
L 11.068947 23.799822 
L 11.143349 23.037513 
L 11.417287 20.775344 
L 11.552565 20.590965 
L 11.599912 20.739428 
L 11.843412 21.461427 
L 11.846794 21.444486 
L 11.931343 21.56577 
L 12.228954 22.317333 
L 12.242482 22.303284 
L 12.293211 22.458914 
L 12.303357 22.45519 
L 12.719336 23.727094 
L 12.88167 24.317038 
L 12.891816 24.301651 
L 12.918871 24.395787 
L 13.084587 25.076994 
L 13.09135 25.069366 
L 13.098114 25.046882 
L 13.145462 25.203906 
L 13.338233 25.592017 
L 13.341614 25.589253 
L 13.564823 25.888297 
L 13.578351 25.863756 
L 13.598642 25.809527 
L 13.64599 25.915801 
L 13.696719 25.85434 
L 13.71701 25.896591 
L 13.76774 25.799505 
L 13.791413 25.805619 
L 13.852288 25.767864 
L 13.906399 25.813928 
L 14.021386 25.844512 
L 14.02815 25.82674 
L 14.322379 25.926815 
L 14.325761 25.915987 
L 14.396782 25.966166 
L 14.437365 25.900837 
L 14.555733 25.949478 
L 14.450893 25.88834 
L 14.559115 25.948561 
L 14.670719 25.798691 
L 14.684247 25.861991 
L 14.785706 25.90063 
L 14.701157 25.848894 
L 14.805997 25.847916 
L 14.816143 25.874299 
L 14.944657 25.721474 
L 14.948039 25.726729 
L 14.971713 25.670186 
L 15.032588 25.657306 
L 15.48915 25.445965 
L 15.64472 25.293352 
L 15.509442 25.453788 
L 15.651484 25.30568 
L 15.78338 25.399382 
L 15.922039 25.286913 
L 15.925421 25.297473 
L 15.972769 25.272321 
L 16.013352 25.36557 
L 16.016734 25.356045 
L 16.091137 25.41293 
L 16.145248 25.323822 
L 16.195977 25.354505 
L 16.283908 25.198013 
L 16.28729 25.206939 
L 16.341401 25.098167 
L 16.378602 25.145014 
L 16.527408 25.063084 
L 16.551081 25.093039 
L 16.595047 25.004938 
L 16.63563 25.051492 
L 17.2782 24.691278 
L 16.666068 25.108315 
L 17.284964 24.710277 
L 17.308637 24.684815 
L 17.406714 24.75225 
L 17.535228 24.795663 
L 17.423624 24.721261 
L 17.558901 24.761056 
L 17.569047 24.706823 
L 17.656978 24.819831 
L 17.66036 24.818153 
L 17.690797 24.798707 
L 17.856513 24.958185 
L 17.951207 24.834885 
L 17.978263 24.871099 
L 18.113541 24.91851 
L 18.116923 24.90777 
L 18.485555 24.646781 
L 18.51261 24.687705 
L 18.522756 24.705586 
L 18.603923 24.590101 
L 18.776402 24.611221 
L 18.904916 24.749731 
L 18.931972 24.679105 
L 18.979319 24.776568 
L 19.01652 24.739685 
L 19.084159 24.829817 
L 19.131506 24.746444 
L 19.232965 24.753761 
L 19.249875 24.741365 
L 19.388534 24.643471 
L 19.408826 24.728598 
L 19.503521 24.708693 
L 19.449409 24.674595 
L 19.506903 24.679161 
L 19.527194 24.642605 
L 19.601597 24.740943 
L 19.76393 24.792727 
L 19.767312 24.778705 
L 19.784222 24.801678 
L 19.956701 24.730011 
L 20.07507 24.786505 
L 20.078451 24.778814 
L 20.206965 24.748652 
L 20.169764 24.843243 
L 20.210347 24.762545 
L 20.244167 24.805523 
L 20.325334 24.78125 
L 20.433556 24.749818 
L 20.382827 24.808024 
L 20.44032 24.754215 
L 20.555306 24.790857 
L 20.558688 24.788987 
L 20.896882 24.787155 
L 20.923938 24.803313 
L 20.991577 24.715665 
L 20.998341 24.731667 
L 21.099799 24.758047 
L 21.035542 24.80616 
L 21.106563 24.769204 
L 21.140383 24.775786 
L 21.157292 24.713899 
L 21.20464 24.7178 
L 21.208022 24.706872 
L 21.231695 24.810112 
L 21.299334 24.784615 
L 21.343299 24.725383 
L 21.441376 24.799069 
L 21.55298 24.719102 
L 21.563126 24.728291 
L 21.664584 24.788874 
L 21.634147 24.703167 
L 21.678112 24.766366 
L 21.752515 24.719865 
L 21.718695 24.796685 
L 21.793098 24.739455 
L 22.111001 24.834996 
L 22.131293 24.766599 
L 22.171876 24.704043 
L 22.232751 24.803113 
L 22.236133 24.795566 
L 22.411994 24.724503 
L 22.506689 24.719581 
L 22.445814 24.767042 
L 22.520217 24.741651 
L 22.641967 24.778241 
L 22.533744 24.772485 
L 22.648731 24.796564 
L 22.66564 24.831953 
L 22.69946 24.746534 
L 22.750189 24.772953 
L 22.767099 24.69958 
L 22.865175 24.747878 
L 22.970016 24.866968 
L 23.003835 24.808071 
L 23.115439 24.731542 
L 23.013981 24.815497 
L 23.132349 24.751128 
L 23.166168 24.799199 
L 23.281155 24.679525 
L 23.389377 24.840283 
L 23.419814 24.810824 
L 23.538183 24.7283 
L 23.653169 24.701009 
L 23.666696 24.728701 
L 23.862849 24.833832 
L 23.91696 24.777107 
L 23.964308 24.868312 
L 23.974454 24.839216 
L 24.143551 24.707597 
L 24.160461 24.744266 
L 24.170606 24.774433 
L 24.238245 24.709371 
L 24.272065 24.746645 
L 24.329558 24.767021 
L 24.359995 24.685179 
L 24.383669 24.639756 
L 24.461454 24.742736 
L 24.620405 24.698507 
L 24.633933 24.737378 
L 24.735391 24.866373 
L 24.759065 24.795133 
L 25.611316 24.784297 
L 25.70601 24.792726 
L 25.648517 24.751149 
L 25.72292 24.763981 
L 25.946128 24.753435 
L 26.061114 24.786238 
L 26.000239 24.736286 
L 26.067878 24.772811 
L 26.182865 24.753546 
L 26.098316 24.83108 
L 26.186246 24.769585 
L 26.236976 24.798912 
L 26.203156 24.753939 
L 26.297851 24.783343 
L 26.301233 24.790342 
L 26.375635 24.696805 
L 26.379017 24.708559 
L 26.43651 24.687344 
L 26.45342 24.778772 
L 26.483858 24.740303 
L 26.585316 24.770992 
L 26.598844 24.731575 
L 26.60899 24.701273 
L 26.656337 24.795311 
L 26.700302 24.793091 
L 26.784851 24.734627 
L 26.822052 24.769001 
L 26.930275 24.775715 
L 26.862636 24.717891 
L 26.943802 24.73803 
L 26.964094 24.710098 
L 27.035115 24.811828 
L 27.038497 24.798772 
L 27.153483 24.784114 
L 27.048643 24.785145 
L 27.156865 24.761507 
L 27.271851 24.643001 
L 27.278615 24.669445 
L 28.083518 24.653351 
L 28.164685 24.584609 
L 28.191741 24.667469 
L 28.262761 24.758891 
L 28.198504 24.655479 
L 28.313491 24.652291 
L 28.458914 24.528609 
L 28.462296 24.555907 
L 28.526553 24.623181 
L 28.573901 24.573763 
L 28.584046 24.544714 
L 28.631394 24.622427 
L 28.675359 24.618649 
L 29.470116 24.796404 
L 29.49379 24.766812 
L 29.524227 24.857655 
L 29.568193 24.861043 
L 29.581721 24.899589 
L 29.642596 24.815118 
L 29.679797 24.859266 
L 29.733908 24.872633 
L 29.760964 24.796476 
L 29.764346 24.798603 
L 29.906387 24.605632 
L 29.909769 24.617069 
L 29.977408 24.544293 
L 30.007846 24.573049 
L 30.082249 24.506566 
L 30.055193 24.585306 
L 30.126214 24.539912 
L 30.220908 24.520137 
L 30.170179 24.48246 
L 30.227672 24.500277 
L 30.281783 24.442455 
L 30.349422 24.504581 
L 30.406915 24.576148 
L 30.454263 24.475784 
L 30.464409 24.509283 
L 30.508374 24.428562 
L 30.592922 24.524837 
L 30.613214 24.50228 
L 30.711291 24.536913 
L 30.829659 24.505713 
L 30.721436 24.542423 
L 30.833041 24.509944 
L 30.84995 24.509942 
L 30.887152 24.403992 
L 30.904062 24.422181 
L 30.944645 24.463673 
L 31.039339 24.37944 
L 31.042721 24.383073 
L 31.056249 24.329641 
L 31.103596 24.288078 
L 31.194909 24.133239 
L 31.23211 24.171403 
L 31.242256 24.189087 
L 31.320041 24.083765 
L 31.435027 23.963701 
L 31.326805 24.085981 
L 31.451937 23.992407 
L 31.573687 24.025718 
L 31.472228 23.966439 
L 31.597361 23.991921 
L 31.681909 23.871003 
L 31.715729 23.937827 
L 31.729256 23.978228 
L 31.803659 23.872413 
L 31.935555 23.70429 
L 31.827333 23.902299 
L 31.952465 23.737743 
L 32.043777 23.700216 
L 32.064069 23.750731 
L 32.108034 23.806125 
L 32.162146 23.688089 
L 32.283896 23.652676 
L 32.314333 23.701045 
L 32.452993 23.893862 
L 32.578125 23.865699 
L 32.503722 23.932857 
L 32.581507 23.870377 
L 32.615326 23.88878 
L 32.65591 23.762056 
L 32.662674 23.772543 
L 32.848681 23.792918 
L 32.89941 23.731605 
L 32.946757 23.835883 
L 32.960285 23.791114 
L 33.00425 23.839233 
L 33.058361 23.737575 
L 33.061743 23.747441 
L 33.268042 23.810088 
L 33.078653 23.701946 
L 33.28157 23.779124 
L 33.426993 23.621461 
L 33.437139 23.646009 
L 33.511542 23.670846 
L 33.538598 23.59509 
L 33.619764 23.623479 
L 33.575799 23.577456 
L 33.650202 23.579703 
L 33.734751 23.496344 
L 33.771952 23.538507 
L 33.920758 23.642017 
L 33.930903 23.603352 
L 34.414522 23.384443 
L 34.421286 23.395072 
L 34.441577 23.404275 
L 34.472015 23.312972 
L 34.509216 23.327315 
L 34.570091 23.199513 
L 34.641112 23.30872 
L 34.67155 23.195294 
L 34.725661 23.246277 
L 34.729043 23.23011 
L 34.800064 23.383858 
L 34.810209 23.384685 
L 34.891376 23.387542 
L 34.864321 23.438467 
L 34.908286 23.440249 
L 34.921814 23.433404 
L 34.935341 23.352854 
L 34.938723 23.360296 
L 35.026654 23.329363 
L 34.982689 23.4036 
L 35.050328 23.353124 
L 35.172078 23.252225 
L 35.178842 23.274955 
L 35.246481 23.14724 
L 35.310738 23.193689 
L 35.361467 23.224553 
L 35.38514 23.137107 
L 35.412196 23.161358 
L 35.496745 23.116659 
L 35.456161 23.191443 
L 35.527182 23.152791 
L 35.659078 23.244025 
L 35.567765 23.112942 
L 35.669224 23.239994 
L 35.845085 23.188415 
L 35.956689 23.117673 
L 35.875523 23.199005 
L 35.966835 23.136836 
L 36.02771 23.168962 
L 35.973599 23.130636 
L 36.075057 23.112366 
L 36.193426 23.014599 
L 36.200189 23.038088 
L 36.507947 23.354335 
L 36.220481 22.998477 
L 36.54853 23.297121 
L 36.656752 23.253029 
L 36.575585 23.330909 
L 36.67028 23.269579 
L 36.677044 23.300514 
L 36.764974 23.184601 
L 36.927308 23.212951 
L 36.93069 23.186933 
L 36.934072 23.141189 
L 37.042294 23.159435 
L 37.187718 23.040128 
L 37.194482 23.050601 
L 37.322996 23.059726 
L 37.208009 23.024052 
L 37.333141 23.045 
L 37.454891 22.906766 
L 37.458273 22.917192 
L 37.637517 22.738996 
L 37.735593 22.599124 
L 37.762649 22.625899 
L 37.766031 22.641858 
L 37.850579 22.523323 
L 37.860725 22.553696 
L 37.999385 22.435477 
L 38.009531 22.469622 
L 38.046732 22.390446 
L 38.104225 22.391304 
L 38.229357 22.258023 
L 38.236121 22.26977 
L 38.249649 22.288653 
L 38.96324 21.000227 
L 39.047788 19.845668 
L 39.064698 8.585995 
L 39.152629 18.860154 
L 39.169538 22.151342 
L 39.264233 20.518026 
L 39.29467 18.496113 
L 39.304816 9.956255 
L 39.396129 22.41641 
L 39.399511 22.392852 
L 39.473913 20.87511 
L 39.517879 17.90389 
L 39.528025 10.16404 
L 39.619337 22.605843 
L 39.622719 22.583799 
L 39.741087 19.154108 
L 39.754615 10.085598 
L 39.842546 22.728349 
L 39.849309 22.832702 
L 39.913566 21.591216 
L 39.981205 18.958474 
L 39.991351 9.842208 
L 40.086046 23.047805 
L 40.089428 23.112173 
L 40.146921 22.167473 
L 40.241615 18.30796 
L 40.251761 9.663769 
L 40.346456 23.225579 
L 40.353219 23.365727 
L 40.427622 22.159889 
L 40.522317 19.225348 
L 40.532463 9.48246 
L 40.623775 21.543429 
L 40.640685 23.589157 
L 40.735379 22.083031 
L 40.833456 17.645446 
L 40.84022 9.362137 
L 40.938296 23.357466 
L 40.948442 23.754937 
L 41.036373 22.561544 
L 41.164887 19.427781 
L 41.178414 9.288866 
L 41.266345 20.234805 
L 41.286637 23.885465 
L 41.377949 22.731954 
L 41.530137 19.079481 
L 41.540283 9.18602 
L 41.634977 23.270839 
L 41.651887 23.957115 
L 41.739817 22.919814 
L 41.925824 19.309357 
L 41.93597 9.170439 
L 42.027283 22.649803 
L 42.044193 24.000852 
L 42.138887 22.954306 
L 42.358714 19.392177 
L 42.372241 9.154889 
L 42.45679 22.235992 
L 42.4737 23.972927 
L 42.568394 22.936567 
L 42.659707 21.801003 
L 42.825422 19.195125 
L 42.835568 9.179885 
L 42.923499 23.333898 
L 42.937026 23.934762 
L 43.028339 22.953704 
L 43.332714 19.517711 
L 43.346242 9.216257 
L 43.424027 21.543916 
L 43.444318 23.815397 
L 43.535631 22.80667 
L 43.867062 18.203873 
L 43.877207 9.214975 
L 43.971902 23.742623 
L 44.414937 19.571913 
L 44.431847 9.254142 
L 44.502868 21.334337 
L 44.523159 23.665637 
L 44.614472 22.655752 
L 44.969576 18.578094 
L 44.979722 9.220124 
L 45.071035 23.698033 
L 45.074416 23.679351 
L 45.158965 22.754347 
L 45.503924 20.548631 
L 45.561417 20.654727 
L 45.727132 21.078363 
L 45.730514 21.076169 
L 45.794771 21.238846 
L 46.004452 21.721316 
L 46.007834 21.710458 
L 46.061945 21.873962 
L 46.072091 21.853352 
L 46.302063 22.501925 
L 46.308827 22.485178 
L 46.34941 22.674934 
L 46.359556 22.660078 
L 46.559091 23.206694 
L 46.562473 23.200058 
L 46.565855 23.172535 
L 46.640258 23.477734 
L 46.812737 24.126588 
L 47.019036 24.862503 
L 47.025799 24.856027 
L 47.360612 25.674413 
L 47.418105 25.642539 
L 47.502654 25.679014 
L 47.506036 25.708129 
L 47.63455 25.801843 
L 47.705571 25.941517 
L 47.763064 25.851045 
L 47.884814 25.763704 
L 47.888196 25.766986 
L 47.979508 25.820608 
L 48.003182 25.783336 
L 48.199335 25.723602 
L 48.223008 25.790836 
L 48.324467 25.829576 
L 48.26021 25.749563 
L 48.334613 25.801781 
L 48.344759 25.769879 
L 48.436071 25.883466 
L 48.439453 25.892021 
L 48.493564 25.739664 
L 48.649134 25.504967 
L 48.655898 25.546705 
L 48.78103 25.578657 
L 48.791175 25.611853 
L 48.862196 25.501001 
L 48.882488 25.509365 
L 48.983946 25.47508 
L 48.919689 25.548337 
L 48.994092 25.490244 
L 49.038058 25.541227 
L 49.085405 25.425822 
L 49.095551 25.446131 
L 49.16319 25.406704 
L 49.125988 25.468589 
L 49.207155 25.45868 
L 49.261266 25.505678 
L 49.328905 25.477921 
L 49.460801 25.325121 
L 49.464183 25.330147 
L 49.491238 25.328066 
L 49.525058 25.207073 
L 49.558877 25.283099 
L 49.646808 25.341709 
L 49.704301 25.235637 
L 49.758412 25.269303 
L 49.802377 25.207534 
L 49.815905 25.231213 
L 49.913982 25.210562 
L 49.842961 25.249856 
L 49.927509 25.220912 
L 49.99853 25.26797 
L 49.944419 25.213654 
L 50.039114 25.21064 
L 50.127044 25.202484 
L 50.099989 25.256116 
L 50.150718 25.223303 
L 50.285996 25.203883 
L 50.289378 25.194565 
L 50.309669 25.16826 
L 50.357017 25.2958 
L 50.367162 25.282568 
L 50.370544 25.29317 
L 50.438183 25.148215 
L 50.441565 25.154221 
L 50.647864 24.918871 
L 50.67492 24.918632 
L 50.688447 24.985375 
L 50.729031 24.996166 
L 50.742558 25.031396 
L 50.810197 24.907751 
L 50.816961 24.946128 
L 50.86769 24.96154 
L 50.948857 24.838949 
L 50.986059 24.86613 
L 51.002968 24.801475 
L 51.053697 24.8062 
L 51.172066 24.73266 
L 51.188975 24.780317 
L 51.192357 24.792673 
L 51.280288 24.698624 
L 51.435857 24.574077 
L 51.297198 24.719065 
L 51.442621 24.591724 
L 51.726705 24.61452 
L 51.828163 24.533348 
L 51.784198 24.64342 
L 51.845073 24.580289 
L 51.949913 24.718877 
L 51.970205 24.683219 
L 52.105483 24.599907 
L 52.112247 24.602277 
L 52.244143 24.592884 
L 52.247525 24.586064 
L 52.250906 24.568618 
L 52.321927 24.711986 
L 52.338837 24.681522 
L 52.342219 24.695922 
L 52.41324 24.544142 
L 52.426768 24.573024 
L 52.50117 24.569383 
L 52.463969 24.482449 
L 52.521462 24.510785 
L 52.558664 24.569932 
L 52.633066 24.523853 
L 52.653358 24.565635 
L 52.690559 24.462824 
L 52.734525 24.477844 
L 52.741289 24.46453 
L 52.984789 24.662688 
L 53.02199 24.576382 
L 53.096393 24.649283 
L 53.167414 24.653372 
L 53.133594 24.60641 
L 53.191088 24.59534 
L 53.224907 24.56358 
L 53.248581 24.638045 
L 53.292546 24.644075 
L 53.363567 24.630562 
L 53.390622 24.689369 
L 53.441352 24.759078 
L 53.400768 24.678436 
L 53.502227 24.688108 
L 53.623977 24.778224 
L 53.644268 24.719837 
L 53.654414 24.686122 
L 53.718671 24.758104 
L 53.749109 24.737821 
L 53.78631 24.823694 
L 53.864095 24.754963 
L 54.02981 24.776731 
L 54.036574 24.767369 
L 54.107595 24.726427 
L 54.067012 24.77908 
L 54.148178 24.767442 
L 54.232727 24.82658 
L 54.178616 24.748627 
L 54.259783 24.780955 
L 54.286838 24.709586 
L 54.368005 24.802897 
L 54.503283 24.743696 
L 54.51681 24.775978 
L 55.084977 24.744862 
L 55.108651 24.685094 
L 55.145852 24.807491 
L 55.179672 24.796649 
L 55.227019 24.812599 
L 55.1932 24.765365 
L 55.270985 24.738959 
L 55.352151 24.727442 
L 55.28113 24.743537 
L 55.375825 24.775554 
L 55.602415 24.799059 
L 55.605797 24.793361 
L 55.714019 24.734223 
L 55.612561 24.804975 
L 55.754603 24.766832 
L 55.832388 24.710718 
L 55.872971 24.794744 
L 56.231457 24.734839 
L 56.234839 24.692258 
L 56.316006 24.780657 
L 56.33968 24.755603 
L 56.535832 24.794403 
L 56.542596 24.748002 
L 56.569652 24.687912 
L 56.610235 24.802376 
L 56.650819 24.768349 
L 56.759041 24.753023 
L 56.701548 24.803393 
L 56.769187 24.759271 
L 56.870645 24.774765 
L 56.823298 24.82611 
L 56.877409 24.783696 
L 57.29677 24.743798 
L 57.404993 24.720449 
L 57.310298 24.756814 
L 57.411757 24.739746 
L 57.54027 24.787212 
L 57.645111 24.813105 
L 57.584236 24.771107 
L 57.651875 24.796608 
L 57.783771 24.639637 
L 57.888611 24.614028 
L 57.820972 24.705108 
L 57.895375 24.65014 
L 58.006979 24.805137 
L 58.020507 24.781994 
L 58.047562 24.707693 
L 58.135493 24.775035 
L 58.206514 24.783275 
L 58.186222 24.723078 
L 58.240333 24.744206 
L 58.345174 24.668716 
L 58.301208 24.764884 
L 58.358701 24.674838 
L 58.389139 24.608555 
L 58.47707 24.727959 
L 58.551472 24.769637 
L 58.575146 24.69759 
L 58.58191 24.679115 
L 58.666459 24.76562 
L 58.676604 24.749243 
L 58.933632 24.69028 
L 58.937014 24.697225 
L 59.062146 24.804454 
L 59.150077 24.715786 
L 59.092584 24.82659 
L 59.194042 24.777044 
L 60.73621 24.716373 
L 60.82414 24.686295 
L 60.753119 24.755977 
L 60.854578 24.70619 
L 60.885015 24.793851 
L 60.97971 24.742134 
L 61.087932 24.711088 
L 61.016911 24.777951 
L 61.094696 24.733136 
L 61.189391 24.794413 
L 61.152189 24.706443 
L 61.209682 24.749896 
L 61.307759 24.708677 
L 61.246884 24.778112 
L 61.324668 24.733764 
L 61.426127 24.798901 
L 61.432891 24.81365 
L 61.490384 24.698564 
L 61.514057 24.722196 
L 61.693301 24.74777 
L 61.696682 24.768187 
L 61.774467 24.688958 
L 61.798141 24.716818 
L 61.936801 24.81436 
L 62.034877 24.793422 
L 61.980766 24.715338 
L 62.038259 24.778721 
L 62.078842 24.7501 
L 62.153245 24.787715 
L 62.234412 24.8411 
L 62.264849 24.797994 
L 62.356162 24.734346 
L 62.389981 24.803435 
L 62.400127 24.819963 
L 62.450856 24.7286 
L 62.494822 24.768491 
L 62.575988 24.710521 
L 62.518495 24.785009 
L 62.619954 24.732041 
L 62.71803 24.768955 
L 62.697739 24.708755 
L 62.73494 24.750985 
L 62.954766 24.616384 
L 62.998732 24.550406 
L 63.062989 24.605434 
L 63.167829 24.67539 
L 63.10019 24.571802 
L 63.181357 24.63958 
L 63.316635 24.788367 
L 63.333544 24.73839 
L 63.401183 24.644903 
L 63.441767 24.728916 
L 63.495878 24.777773 
L 63.543225 24.701555 
L 63.546607 24.704894 
L 63.654829 24.686915 
L 63.610864 24.773029 
L 63.658211 24.709977 
L 64.456351 24.548838 
L 64.534135 24.44039 
L 64.584865 24.50314 
L 64.62883 24.605622 
L 64.71676 24.573742 
L 64.923059 24.392723 
L 64.933205 24.398731 
L 64.936587 24.418368 
L 64.960261 24.315375 
L 65.034663 24.346454 
L 65.065101 24.406355 
L 65.119212 24.286264 
L 65.136122 24.213224 
L 65.22067 24.368234 
L 65.342421 24.367777 
L 65.345802 24.390591 
L 65.49799 24.574985 
L 65.362712 24.362934 
L 65.525046 24.533437 
L 65.609594 24.49133 
L 65.558865 24.580721 
L 65.63665 24.53184 
L 65.748254 24.546513 
L 65.643414 24.507604 
L 65.765164 24.501217 
L 66.116886 24.096725 
L 66.12365 24.120332 
L 66.133796 24.086539 
L 66.242018 24.044176 
L 66.252164 24.050784 
L 66.390824 23.891054 
L 66.509192 23.87029 
L 66.526102 23.948843 
L 66.553157 23.993924 
L 66.62756 23.904052 
L 66.989428 23.847582 
L 67.013102 23.833966 
L 67.060449 23.916409 
L 67.094269 23.881813 
L 67.121324 23.865418 
L 67.23631 24.000318 
L 67.358061 23.910687 
L 67.510248 23.802422 
L 67.520394 23.812429 
L 67.571123 23.728887 
L 67.686109 23.834006 
L 67.818005 23.679532 
L 68.335443 23.317264 
L 68.440283 23.370771 
L 68.450429 23.35335 
L 68.6432 23.238075 
L 68.463957 23.365299 
L 68.653346 23.268162 
L 68.771714 23.378758 
L 68.66011 23.264952 
L 68.785242 23.318507 
L 68.856263 23.323696 
L 68.805534 23.350463 
L 68.8867 23.38139 
L 68.913756 23.422953 
L 68.988159 23.323982 
L 68.991541 23.334421 
L 69.079471 23.346936 
L 69.011832 23.364958 
L 69.092999 23.366248 
L 69.096381 23.386413 
L 69.191075 23.29883 
L 69.309444 23.283378 
L 69.346645 23.302527 
L 69.400756 23.209455 
L 69.404138 23.215289 
L 69.522506 23.161921 
L 69.52927 23.166655 
L 69.701749 23.272052 
L 69.705131 23.25688 
L 69.796444 23.099315 
L 69.830263 23.135951 
L 69.92834 23.263799 
L 69.985833 23.182139 
L 70.134638 23.025955 
L 70.13802 23.028016 
L 70.15493 23.015292 
L 70.330791 23.130567 
L 70.472833 22.996215 
L 70.482979 22.991319 
L 70.608111 23.109726 
L 70.726479 22.997581 
L 70.729861 23.000248 
L 71.122167 22.86395 
L 71.125549 22.873062 
L 71.128931 22.901696 
L 71.220243 22.745582 
L 71.223625 22.754287 
L 71.26759 22.63799 
L 71.294646 22.633671 
L 71.842521 22.221867 
L 71.311556 22.67103 
L 71.852667 22.257177 
L 71.91016 22.255231 
L 71.933834 22.166749 
L 72.106313 22.068185 
L 72.119841 22.128911 
L 72.15366 22.039907 
L 72.221299 22.081031 
L 72.322758 22.092788 
L 72.346431 22.034953 
L 72.485091 21.680494 
L 72.508765 21.70549 
L 72.512147 21.715294 
L 72.576404 21.58807 
L 72.586549 21.592122 
L 72.853723 20.144418 
L 72.867251 18.458234 
L 72.877397 8.582861 
L 72.975473 21.981445 
L 72.982237 22.184162 
L 73.060022 20.884339 
L 73.103987 19.220943 
L 73.117515 9.996995 
L 73.202064 22.22079 
L 73.208828 22.404917 
L 73.28323 20.938922 
L 73.327196 18.760941 
L 73.337342 10.118333 
L 73.432036 22.585263 
L 73.536876 20.18702 
L 73.553786 18.306986 
L 73.563932 10.068155 
L 73.658626 22.819467 
L 73.733029 21.348931 
L 73.790522 18.612429 
L 73.800668 9.859217 
L 73.895363 23.072457 
L 73.898745 23.099078 
L 73.935946 22.52051 
L 74.04755 18.609628 
L 74.057696 9.657613 
L 74.152391 23.198997 
L 74.159155 23.359477 
L 74.233557 22.155756 
L 74.328252 18.915592 
L 74.338398 9.473439 
L 74.433092 23.102271 
L 74.44662 23.583898 
L 74.531169 22.240315 
L 74.632627 19.571718 
L 74.646155 9.356985 
L 74.734085 19.430332 
L 74.754377 23.757932 
L 74.849072 22.40724 
L 74.970822 18.660648 
L 74.980967 9.273172 
L 75.075662 23.275125 
L 75.08919 23.876344 
L 75.180502 22.711627 
L 75.329308 19.629761 
L 75.342836 9.19493 
L 75.430766 19.80226 
L 75.45444 23.958625 
L 75.545752 22.835839 
L 75.724996 19.695026 
L 75.738523 9.160679 
L 75.826454 20.940346 
L 75.846746 23.98933 
L 75.938058 22.962165 
L 76.134211 20.401664 
L 76.161267 17.720968 
L 76.168031 9.160242 
L 76.266107 23.873883 
L 76.272871 23.979532 
L 76.347274 23.21297 
L 76.624593 19.046274 
L 76.634739 9.15067 
L 76.726052 23.695625 
L 76.736198 23.922555 
L 76.820746 23.025128 
L 77.125121 18.991807 
L 77.135267 9.187218 
L 77.22658 23.768241 
L 77.236726 23.857223 
L 77.304365 23.118503 
L 77.601976 20.490719 
L 77.662851 19.29208 
L 77.676379 9.227888 
L 77.754163 23.012664 
L 77.767691 23.725213 
L 77.862386 22.686362 
L 78.173525 19.283185 
L 78.187053 9.186178 
L 78.268219 23.408672 
L 78.281747 23.792117 
L 78.369678 22.838005 
L 78.643615 20.629795 
L 78.677435 20.539476 
L 78.653761 20.587472 
L 78.680817 20.525736 
L 78.751838 20.40105 
L 78.687581 20.530013 
L 78.802567 20.531743 
L 79.008865 21.184228 
L 79.012247 21.17817 
L 79.062977 21.300895 
L 79.066359 21.300449 
L 79.262511 21.867451 
L 79.326768 22.007794 
L 79.776567 23.241884 
L 80.199311 24.755893 
L 80.513832 25.467951 
L 80.530741 25.462701 
L 80.764096 25.761686 
L 80.767478 25.758824 
L 80.824971 25.838029 
L 80.868936 25.785376 
L 80.98054 25.830109 
L 80.916283 25.760907 
L 80.987304 25.828617 
L 81.078617 25.737108 
L 81.112436 25.782597 
L 81.227422 25.840558 
L 81.230804 25.839661 
L 81.295061 25.893524 
L 81.325499 25.78568 
L 81.328881 25.790757 
L 82.282589 25.670876 
L 82.414485 25.577876 
L 82.417867 25.582882 
L 82.444923 25.613641 
L 82.495652 25.44059 
L 82.512562 25.491917 
L 82.668131 25.390279 
L 82.772972 25.437671 
L 82.691805 25.36469 
L 82.783118 25.417537 
L 82.806791 25.34725 
L 82.87443 25.454947 
L 82.89134 25.420147 
L 82.942069 25.446618 
L 82.918395 25.36388 
L 82.992798 25.382897 
L 83.016472 25.340638 
L 83.046909 25.41829 
L 83.104402 25.391053 
L 83.165277 25.497755 
L 83.222771 25.432922 
L 83.324229 25.305198 
L 83.337757 25.345047 
L 83.351285 25.388558 
L 83.429069 25.29969 
L 83.503472 25.188669 
L 83.550819 25.239469 
L 83.554201 25.261694 
L 83.608312 25.179964 
L 83.652278 25.187748 
L 83.780792 25.133251 
L 83.811229 25.214652 
L 83.814611 25.233257 
L 83.878868 25.073413 
L 83.895778 25.087785 
L 84.034438 24.831996 
L 84.03782 24.835003 
L 84.102077 24.800936 
L 84.139278 24.870488 
L 84.166334 24.927845 
L 84.203535 24.848566 
L 84.254264 24.878702 
L 84.304993 24.916627 
L 84.372632 24.833663 
L 84.413216 24.854452 
L 84.453799 24.757078 
L 84.474091 24.779482 
L 84.599223 24.673455 
L 84.605987 24.69794 
L 84.673626 24.813615 
L 84.731119 24.760611 
L 84.846105 24.821216 
L 84.744646 24.738721 
L 84.869778 24.786625 
L 84.974619 24.698228 
L 84.988147 24.726028 
L 85.04564 24.747437 
L 85.008438 24.679805 
L 85.092987 24.693311 
L 85.187681 24.577296 
L 85.201209 24.562867 
L 85.218119 24.632923 
L 85.282376 24.631081 
L 85.390598 24.657262 
L 85.312813 24.567896 
L 85.407508 24.635045 
L 85.41089 24.622612 
L 85.444709 24.729496 
L 85.512348 24.670961 
L 85.623952 24.710799 
L 85.630716 24.683871 
L 85.667918 24.652679 
L 85.850543 24.823744 
L 85.9148 24.78441 
L 85.955383 24.870304 
L 86.256376 24.610892 
L 86.28005 24.65852 
L 86.621627 24.822476 
L 86.760286 24.891129 
L 86.648682 24.775642 
L 86.763668 24.869387 
L 86.902328 24.761537 
L 86.90571 24.779474 
L 86.980113 24.678418 
L 87.000405 24.703489 
L 87.142446 24.612033 
L 87.007168 24.711262 
L 87.152592 24.647392 
L 87.159356 24.660041 
L 87.172884 24.617094 
L 87.247287 24.600928 
L 87.348745 24.554437 
L 87.318308 24.639012 
L 87.358891 24.596535 
L 87.39271 24.669739 
L 87.470495 24.591497 
L 87.473877 24.585513 
L 87.524606 24.704535 
L 87.534752 24.700726 
L 87.585481 24.728479 
L 87.619301 24.6528 
L 87.639592 24.668667 
L 87.781634 24.556811 
L 87.903384 24.645018 
L 87.923676 24.574114 
L 88.004843 24.670338 
L 88.119829 24.822577 
L 88.126593 24.806521 
L 88.231433 24.73955 
L 88.170558 24.818695 
L 88.251725 24.756366 
L 88.356565 24.801949 
L 88.268634 24.749644 
L 88.366711 24.79591 
L 88.512135 24.745756 
L 88.52228 24.761033 
L 88.616975 24.760738 
L 88.559482 24.726541 
L 88.630503 24.74561 
L 88.633885 24.720554 
L 88.674468 24.805107 
L 88.738725 24.760555 
L 88.877385 24.818276 
L 88.890913 24.80551 
L 88.992371 24.697091 
L 89.019426 24.761814 
L 89.110739 24.767534 
L 89.029572 24.741532 
L 89.124267 24.725556 
L 89.161468 24.728367 
L 89.137795 24.745802 
L 89.215579 24.788582 
L 89.435406 24.754853 
L 89.44217 24.768275 
L 89.45908 24.82002 
L 89.496281 24.73428 
L 89.557156 24.798617 
L 89.658614 24.752267 
L 89.682288 24.769932 
L 89.820948 24.847338 
L 89.709344 24.742185 
L 89.827712 24.835048 
L 89.973135 24.700741 
L 90.054302 24.802721 
L 90.088122 24.715871 
L 90.118559 24.670452 
L 90.192962 24.757888 
L 90.838914 24.767366 
L 90.943754 24.736605 
L 90.957282 24.74208 
L 91.068886 24.745609 
L 91.068886 24.745609 
" clip-path="url(#pd5db991b1a)" style="fill: none; stroke: #000000; stroke-width: 0.6; stroke-linecap: square"/>
   </g>
   <g id="line2d_2">
    <path d="M 9.905557 41.342659 
L 9.919085 41.312501 
L 10.007015 41.397048 
L 10.010397 41.395627 
L 10.017161 41.401781 
L 10.172731 41.239237 
L 10.24037 41.327733 
L 10.196404 41.230108 
L 10.287717 41.255483 
L 10.301245 41.266141 
L 10.351974 41.192017 
L 10.382411 41.208563 
L 10.480488 41.125896 
L 10.429759 41.227919 
L 10.510925 41.167079 
L 10.521071 41.20938 
L 10.598856 41.068838 
L 10.609002 41.088559 
L 10.62253 41.072599 
L 10.686787 41.18962 
L 10.700314 41.170373 
L 10.791627 41.209213 
L 10.72737 41.102865 
L 10.801773 41.134615 
L 10.815301 41.156612 
L 10.926905 41.066488 
L 10.947196 41.032934 
L 11.10953 41.25732 
L 11.265099 41.297998 
L 11.440961 41.437459 
L 11.45787 41.415077 
L 12.313503 41.130372 
L 12.330413 41.203642 
L 12.333794 41.221598 
L 12.414961 41.070409 
L 12.418343 41.076662 
L 12.567149 40.975756 
L 12.570531 40.994195 
L 12.600968 40.996436 
L 12.641552 40.918871 
L 12.661843 40.928268 
L 12.803885 40.735413 
L 12.824177 40.756719 
L 12.827559 40.783242 
L 12.905343 40.636578 
L 12.925635 40.678055 
L 13.199573 40.387436 
L 13.202955 40.420396 
L 13.257066 40.450595 
L 13.216482 40.394356 
L 13.297649 40.379252 
L 13.416017 40.329986 
L 13.49042 40.452335 
L 13.541149 40.412666 
L 13.602024 40.293669 
L 13.764358 40.320594 
L 13.76774 40.33913 
L 13.774504 40.3563 
L 13.852288 40.256651 
L 13.859052 40.266258 
L 13.869198 40.257018 
L 13.943601 40.343308 
L 13.960511 40.303183 
L 13.963893 40.319653 
L 14.021386 40.232609 
L 14.065351 40.270984 
L 14.305469 40.210386 
L 14.400164 40.319298 
L 14.427219 40.296151 
L 14.494858 40.275326 
L 14.535441 40.326147 
L 14.667337 40.391629 
L 14.582789 40.289115 
L 14.670719 40.376407 
L 14.674101 40.362568 
L 14.697775 40.443089 
L 14.768796 40.42648 
L 14.778942 40.44982 
L 14.836435 40.370802 
L 14.870254 40.384238 
L 15.347109 40.14938 
L 15.465477 40.33908 
L 15.482386 40.336034 
L 15.614282 40.180088 
L 15.688685 40.183358 
L 15.641338 40.14059 
L 15.705595 40.123998 
L 15.810435 40.072427 
L 15.729269 40.178565 
L 15.834109 40.091739 
L 15.966005 40.135474 
L 15.969387 40.150721 
L 15.999824 40.155721 
L 16.047171 40.067142 
L 16.057317 40.079706 
L 16.354929 39.841133 
L 16.084373 40.112691 
L 16.358311 39.848384 
L 16.365074 39.859612 
L 16.398894 39.784828 
L 16.456387 39.80907 
L 16.551081 39.709118 
L 16.574755 39.746909 
L 16.581519 39.758352 
L 16.655922 39.638102 
L 16.666068 39.668943 
L 16.689741 39.715247 
L 16.760762 39.728759 
L 16.781054 39.792756 
L 16.865602 39.70466 
L 16.892658 39.714299 
L 16.987353 39.630395 
L 17.142922 39.631361 
L 17.24438 39.663696 
L 17.193651 39.615392 
L 17.257908 39.649198 
L 17.342457 39.492156 
L 17.389804 39.530874 
L 17.440533 39.534232 
L 17.464207 39.450356 
L 17.467589 39.435233 
L 17.548756 39.504629 
L 17.565665 39.499284 
L 17.694179 39.350173 
L 17.727999 39.395459 
L 17.74829 39.451247 
L 17.832839 39.352824 
L 17.897096 39.35434 
L 17.839603 39.334886 
L 17.910624 39.280285 
L 17.944443 39.25805 
L 18.005318 39.325958 
L 18.022228 39.299637 
L 18.242055 39.446449 
L 18.245437 39.408839 
L 18.363805 39.338157 
L 18.255582 39.415771 
L 18.373951 39.343075 
L 18.404388 39.249625 
L 18.543048 39.079284 
L 18.438208 39.267684 
L 18.549812 39.101898 
L 19.13827 38.807342 
L 19.270166 38.606679 
L 19.523812 37.778357 
L 19.557632 35.585588 
L 19.57116 26.625795 
L 19.64218 41.699966 
L 19.65909 41.64642 
L 19.753785 41.080122 
L 19.983757 39.722317 
L 20.291514 38.340146 
L 20.321952 38.237102 
L 20.392972 37.228601 
L 20.409882 28.40909 
L 20.416646 26.765702 
L 20.491049 41.973611 
L 20.56207 41.612832 
L 20.741313 40.702901 
L 21.44814 37.441325 
L 21.465049 34.727241 
L 21.475195 26.698321 
L 21.55298 42.135556 
L 21.56989 42.096175 
L 21.620619 41.814098 
L 22.354501 40.020664 
L 22.368029 40.050347 
L 22.384939 40.061976 
L 22.435668 39.955062 
L 22.706224 39.386633 
L 22.723133 39.393043 
L 22.760335 39.267966 
L 22.912522 39.134903 
L 22.915904 39.142318 
L 22.922668 39.155248 
L 22.990307 39.027037 
L 23.010599 39.025833 
L 23.030891 38.935187 
L 23.0478 38.931923 
L 23.149259 38.938244 
L 23.132349 38.969941 
L 23.152641 38.962381 
L 23.16955 38.974618 
L 23.227043 38.875367 
L 23.257481 38.922717 
L 23.271009 38.932416 
L 23.321738 38.81888 
L 23.32512 38.82076 
L 23.399523 38.751329 
L 23.355557 38.838162 
L 23.440106 38.820744 
L 23.575384 38.891404 
L 23.480689 38.793915 
L 23.578766 38.885595 
L 23.781683 38.858408 
L 23.822266 38.824246 
L 23.835794 38.898333 
L 23.900051 38.856291 
L 24.021801 38.955582 
L 23.930488 38.837809 
L 24.035329 38.946544 
L 24.096204 38.982002 
L 24.136787 38.912648 
L 24.265301 38.765984 
L 24.275447 38.793141 
L 24.288975 38.87788 
L 24.366759 38.731165 
L 24.376905 38.736142 
L 24.491891 38.651881 
L 24.393815 38.750584 
L 24.502037 38.688549 
L 24.549384 38.724814 
L 24.57644 38.612148 
L 24.583204 38.633967 
L 24.603496 38.555174 
L 24.69819 38.609959 
L 24.857142 38.732318 
L 24.863905 38.74057 
L 24.904489 38.60174 
L 24.907871 38.602575 
L 25.060058 38.535143 
L 25.06344 38.543188 
L 25.090496 38.577879 
L 25.154753 38.457236 
L 25.34076 37.202159 
L 25.35767 30.760105 
L 25.364434 26.749095 
L 25.4456 42.060353 
L 25.455746 42.031606 
L 25.868343 40.517053 
L 25.871725 40.518793 
L 25.969802 40.651456 
L 26.023913 40.598143 
L 26.037441 40.551271 
L 26.118608 40.630093 
L 26.132135 40.592542 
L 26.240358 40.673878 
L 26.169337 40.572578 
L 26.260649 40.66301 
L 26.568406 40.983809 
L 26.57517 40.973272 
L 26.683393 40.971474 
L 26.588698 41.027333 
L 26.686774 40.983477 
L 26.822052 41.163783 
L 26.83558 41.158063 
L 26.838962 41.140424 
L 26.923511 41.219884 
L 26.937039 41.210742 
L 26.994532 41.176723 
L 26.964094 41.255749 
L 27.058789 41.225691 
L 27.190684 41.30936 
L 27.072316 41.206534 
L 27.207594 41.251874 
L 27.23465 41.210095 
L 27.295525 41.321236 
L 27.488296 41.470928 
L 27.498442 41.448572 
L 27.501824 41.440262 
L 27.576226 41.544599 
L 27.596518 41.497434 
L 27.613428 41.527413 
L 27.657393 41.434355 
L 27.701358 41.471515 
L 28.002352 41.628375 
L 28.117338 41.736115 
L 28.009115 41.625529 
L 28.127484 41.714203 
L 28.174831 41.628147 
L 28.249234 41.662458 
L 28.289817 41.749334 
L 28.370984 41.732403 
L 28.465678 41.633398 
L 28.387893 41.750973 
L 28.48597 41.704114 
L 28.614484 41.838282 
L 28.62463 41.81734 
L 28.759908 41.654757 
L 28.651685 41.827731 
L 28.766671 41.673554 
L 28.966206 41.637677 
L 28.780199 41.702357 
L 28.97297 41.665494 
L 29.121776 41.846682 
L 29.131922 41.827898 
L 29.175887 41.821961 
L 29.192797 41.889695 
L 29.219852 41.887814 
L 29.2672 41.952109 
L 29.324693 41.852265 
L 29.351748 41.811094 
L 29.45997 41.908646 
L 29.497172 41.86253 
L 29.547901 41.941358 
L 29.564811 41.940531 
L 29.568193 41.942779 
L 29.61554 41.843316 
L 29.622304 41.860251 
L 29.750818 41.749349 
L 29.811693 41.725385 
L 29.831985 41.82046 
L 29.862422 41.757975 
L 29.987554 41.819694 
L 29.909769 41.70437 
L 29.994318 41.801444 
L 30.092394 41.788583 
L 30.004464 41.81627 
L 30.109304 41.84675 
L 30.261492 41.938537 
L 30.264874 41.932398 
L 30.39677 41.837849 
L 30.910825 41.688211 
L 31.029194 41.623536 
L 31.130652 41.621155 
L 31.093451 41.658971 
L 31.137416 41.625501 
L 31.181381 41.659797 
L 31.218583 41.573411 
L 31.242256 41.591206 
L 31.306513 41.576554 
L 31.269312 41.643519 
L 31.340333 41.618027 
L 31.401208 41.71723 
L 31.458701 41.657154 
L 31.489138 41.63998 
L 31.536485 41.715881 
L 31.563541 41.685894 
L 31.681909 41.846602 
L 31.698819 41.814745 
L 31.817187 41.702587 
L 31.844243 41.722047 
L 31.942319 41.791693 
L 31.962611 41.752837 
L 32.084361 41.61669 
L 32.101271 41.626578 
L 32.233166 41.564618 
L 32.148618 41.651446 
L 32.236548 41.58096 
L 32.243312 41.578733 
L 32.37859 41.668572 
L 32.503722 41.773889 
L 32.3955 41.652499 
L 32.520632 41.693806 
L 32.527396 41.700552 
L 32.642382 41.628284 
L 32.757368 41.709574 
L 32.720167 41.597841 
L 32.764132 41.707379 
L 32.855445 41.6386 
L 32.8825 41.695897 
L 32.896028 41.735123 
L 32.933229 41.668366 
L 32.994104 41.689668 
L 33.082035 41.660156 
L 33.02116 41.640782 
L 33.092181 41.647035 
L 33.139528 41.578858 
L 33.10909 41.674182 
L 33.203785 41.635325 
L 33.312007 41.743537 
L 33.220695 41.614386 
L 33.322153 41.694648 
L 33.474341 41.744474 
L 33.328917 41.68677 
L 33.487868 41.719975 
L 33.552125 41.631382 
L 33.613 41.684659 
L 33.761806 41.862431 
L 33.626528 41.655526 
L 33.782098 41.795124 
L 33.900466 41.626107 
L 33.917376 41.67047 
L 34.015452 41.82193 
L 33.937667 41.649011 
L 34.049272 41.773248 
L 34.089855 41.81829 
L 34.164258 41.75791 
L 34.181167 41.748758 
L 34.296154 41.825329 
L 34.421286 41.700519 
L 34.438195 41.766012 
L 34.908286 41.694678 
L 34.921814 41.652317 
L 34.996217 41.770373 
L 35.009744 41.747428 
L 35.107821 41.760531 
L 35.101057 41.710371 
L 35.121349 41.738173 
L 35.188987 41.667606 
L 35.232953 41.718017 
L 35.337793 41.752533 
L 35.351321 41.727745 
L 35.466307 41.619856 
L 35.473071 41.625824 
L 35.611731 41.455952 
L 35.50689 41.642938 
L 35.638786 41.514171 
L 35.716571 41.449337 
L 35.763918 41.549635 
L 35.7673 41.54281 
L 35.807884 41.66579 
L 35.858613 41.59663 
L 35.92287 41.62791 
L 35.88905 41.566246 
L 35.966835 41.589098 
L 35.973599 41.565501 
L 36.051384 41.6663 
L 36.068293 41.638815 
L 36.135932 41.69022 
L 36.081821 41.610947 
L 36.179898 41.630533 
L 36.261064 41.599613 
L 36.291502 41.619615 
L 36.42678 41.796028 
L 36.436926 41.728504 
L 36.474127 41.712664 
L 36.518092 41.798847 
L 36.538384 41.780215 
L 36.54853 41.82006 
L 36.602641 41.696783 
L 36.639842 41.735264 
L 36.683808 41.792735 
L 36.863051 41.558546 
L 36.866433 41.570843 
L 36.923926 41.490134 
L 36.961127 41.511054 
L 37.015238 41.488254 
L 37.059204 41.559023 
L 37.06935 41.547665 
L 37.241829 41.779906 
L 37.302704 41.645324 
L 37.383871 41.594686 
L 37.414308 41.625226 
L 37.45151 41.691574 
L 37.529294 41.643673 
L 37.617225 41.619222 
L 37.552968 41.57098 
L 37.627371 41.59755 
L 37.681482 41.647591 
L 37.749121 41.551888 
L 37.884399 41.634758 
L 37.755885 41.541711 
L 37.887781 41.626963 
L 37.891163 41.619575 
L 37.948656 41.717322 
L 37.979093 41.677548 
L 38.06026 41.73564 
L 38.100843 41.702462 
L 38.19892 41.606118 
L 38.222593 41.680921 
L 38.232739 41.719495 
L 38.310524 41.632934 
L 38.334198 41.66252 
L 38.347725 41.647917 
L 38.415364 41.752015 
L 38.418746 41.735591 
L 38.479621 41.784492 
L 38.44242 41.720553 
L 38.53035 41.746769 
L 38.740031 41.587352 
L 38.811052 41.712303 
L 38.861781 41.644577 
L 38.878691 41.572548 
L 38.973385 41.638585 
L 39.074844 41.631926 
L 38.986913 41.60122 
L 39.081608 41.616236 
L 39.135719 41.585055 
L 39.159392 41.686849 
L 39.162774 41.683108 
L 39.267615 41.84282 
L 39.318344 41.80512 
L 39.524643 41.737915 
L 39.541552 41.779276 
L 39.663302 41.87703 
L 39.670066 41.851237 
L 39.795198 41.764569 
L 39.801962 41.795993 
L 39.933858 41.698015 
L 40.048844 41.732371 
L 40.173976 41.921567 
L 40.184122 41.897975 
L 40.282199 41.819429 
L 40.194268 41.920006 
L 40.3194 41.884775 
L 40.407331 42.039041 
L 40.329546 41.879146 
L 40.471588 41.954163 
L 40.59672 41.823587 
L 40.600102 41.836599 
L 40.650831 41.833342 
L 40.674504 41.893964 
L 40.677886 41.92843 
L 40.769199 41.760573 
L 40.897713 41.652142 
L 40.904477 41.676517 
L 41.046518 41.822339 
L 41.060046 41.813169 
L 41.229144 41.767536 
L 41.242671 41.79256 
L 41.296782 41.851669 
L 41.34413 41.712854 
L 41.611303 41.56329 
L 41.638359 41.634586 
L 41.641741 41.649492 
L 41.72629 41.534677 
L 41.895387 41.380417 
L 41.912297 41.440885 
L 41.949498 41.476836 
L 42.010373 41.388795 
L 42.105068 41.360333 
L 42.017137 41.3993 
L 42.132123 41.376605 
L 42.162561 41.451155 
L 42.253873 41.40842 
L 42.355332 41.40543 
L 42.270783 41.425367 
L 42.365477 41.438897 
L 42.426353 41.495646 
L 42.389151 41.427639 
L 42.483846 41.460482 
L 42.690144 41.11963 
L 42.710436 41.142913 
L 42.727346 41.189841 
L 42.815276 41.108384 
L 42.882915 41.077806 
L 42.835568 41.143149 
L 42.930263 41.107452 
L 43.041867 41.003538 
L 43.08245 41.052132 
L 43.09936 41.094945 
L 43.173763 41.012672 
L 43.18729 41.011739 
L 43.292131 41.008727 
L 43.231256 40.980414 
L 43.298895 40.992046 
L 43.34286 40.946163 
L 43.386825 41.049076 
L 43.488284 41.059236 
L 43.403735 41.027628 
L 43.498429 41.052259 
L 43.539013 40.96833 
L 43.579596 41.075449 
L 43.60327 41.069321 
L 43.606652 41.09776 
L 43.697964 40.985201 
L 43.704728 40.985103 
L 43.72502 41.043313 
L 43.81295 40.959902 
L 43.816332 40.94723 
L 43.894117 41.07053 
L 43.907645 41.033483 
L 43.961756 41.027351 
L 43.927937 41.072335 
L 44.002339 41.092833 
L 44.157909 41.0558 
L 44.171437 41.091039 
L 44.205256 41.12379 
L 44.242458 41.035339 
L 44.279659 41.072791 
L 44.394645 40.982845 
L 44.408173 41.000675 
L 44.421701 41.033807 
L 44.506249 40.938751 
L 44.509631 40.950754 
L 44.621236 40.889307 
L 44.553597 40.973405 
L 44.648291 40.917674 
L 44.671965 40.872797 
L 44.786951 40.963544 
L 44.915465 40.884383 
L 45.125146 40.995314 
L 44.922229 40.867563 
L 45.142055 40.947936 
L 45.263805 40.928547 
L 45.172493 41.004887 
L 45.267187 40.938928 
L 45.3585 40.983144 
L 45.365264 40.996006 
L 45.415993 41.060823 
L 45.459958 40.931896 
L 45.466722 40.954047 
L 45.595236 40.893677 
L 45.598618 40.896586 
L 45.686549 40.923061 
L 45.612146 40.868905 
L 45.696695 40.870029 
L 45.842118 40.618245 
L 46.075473 40.764997 
L 46.082236 40.7448 
L 46.231042 40.577664 
L 46.099146 40.758591 
L 46.258098 40.612152 
L 46.275007 40.648783 
L 46.305445 40.554114 
L 46.359556 40.554422 
L 46.393376 40.523299 
L 46.437341 40.64148 
L 46.467778 40.561172 
L 46.47116 40.584085 
L 46.569237 40.494464 
L 46.728188 40.632964 
L 46.738334 40.595906 
L 46.829647 40.60859 
L 46.802591 40.661438 
L 46.843174 40.624984 
L 46.866848 40.650398 
L 46.920959 40.54152 
L 46.931105 40.543556 
L 46.941251 40.56053 
L 47.076529 40.515641 
L 47.100202 40.555771 
L 47.181369 40.491837 
L 47.529709 40.296361 
L 47.188133 40.50859 
L 47.543237 40.323198 
L 47.546619 40.32837 
L 47.597348 40.215438 
L 47.60073 40.218185 
L 47.624404 40.193017 
L 47.678515 40.282255 
L 47.702189 40.252746 
L 47.732626 40.309715 
L 47.766446 40.234823 
L 47.817175 40.255496 
L 47.925397 40.245098 
L 47.823939 40.263399 
L 47.938925 40.278678 
L 48.020092 40.406626 
L 48.040383 40.46782 
L 48.118168 40.330038 
L 48.2433 40.268546 
L 48.158751 40.39627 
L 48.263592 40.301408 
L 48.38196 40.302814 
L 48.385342 40.267866 
L 48.547675 40.170035 
L 48.551057 40.172772 
L 48.638988 40.238736 
L 48.662661 40.187317 
L 48.720155 40.234119 
L 48.753974 40.12816 
L 48.946745 39.951989 
L 49.031294 40.030026 
L 49.061731 39.998724 
L 49.153044 39.992867 
L 49.095551 39.948873 
L 49.166571 39.962856 
L 49.173335 39.967881 
L 49.298467 39.922142 
L 49.322141 39.906354 
L 49.426981 39.989241 
L 49.477711 39.888573 
L 49.552113 39.994967 
L 49.629898 40.138518 
L 49.562259 39.988081 
L 49.717829 40.047794 
L 49.731356 40.009323 
L 49.792232 40.143697 
L 49.809141 40.117053 
L 49.880162 40.176148 
L 49.836197 40.097856 
L 49.920745 40.12701 
L 50.106753 39.941512 
L 50.110134 39.955606 
L 50.235266 39.957938 
L 50.143954 39.895597 
L 50.24203 39.932243 
L 50.296142 39.963838 
L 50.357017 39.894231 
L 50.394218 39.959634 
L 50.455093 39.859359 
L 50.465239 39.897161 
L 50.539642 39.82043 
L 50.580225 39.87054 
L 50.610663 39.907741 
L 50.681683 39.898618 
L 50.725649 39.934162 
L 50.783142 39.841187 
L 50.877836 39.75944 
L 50.904892 39.771306 
L 51.080753 39.544253 
L 51.807872 39.564808 
L 51.811253 39.580428 
L 51.868747 39.505559 
L 51.90933 39.517104 
L 52.020934 39.404388 
L 52.034462 39.409388 
L 52.037844 39.415199 
L 52.098719 39.311895 
L 52.105483 39.312926 
L 52.176504 39.255244 
L 52.233997 39.278061 
L 52.281344 39.34831 
L 52.244143 39.266291 
L 52.345601 39.271054 
L 52.467351 39.241111 
L 52.386184 39.308874 
L 52.470733 39.266283 
L 52.666886 39.234953 
L 52.670268 39.218683 
L 52.792018 39.083316 
L 52.822455 39.124888 
L 52.90024 39.119154 
L 52.910386 39.056217 
L 53.093011 38.879384 
L 52.920532 39.065349 
L 53.096393 38.892116 
L 53.133594 38.929113 
L 53.184324 38.863213 
L 53.211379 38.915289 
L 53.218143 38.927751 
L 53.563102 38.601224 
L 53.847185 37.126128 
L 53.864095 28.827777 
L 53.870859 26.685509 
L 53.948644 41.670828 
L 54.618269 38.129115 
L 54.679144 36.586161 
L 54.692672 26.680112 
L 54.770456 42.027878 
L 54.77722 42.047099 
L 54.824568 41.783622 
L 55.115415 40.504954 
L 55.41979 39.618057 
L 55.528012 39.274119 
L 55.534776 39.278106 
L 56.035304 37.916592 
L 56.089416 35.914262 
L 56.102943 26.896411 
L 56.177346 42.079039 
L 56.187492 42.01235 
L 56.336298 41.298737 
L 56.512159 40.727373 
L 56.515541 40.731584 
L 56.53245 40.75649 
L 56.603471 40.591872 
L 57.536889 39.112879 
L 57.57409 39.139134 
L 57.607909 39.105116 
L 57.69584 39.165773 
L 57.837882 38.86363 
L 58.030653 38.467423 
L 58.084764 38.526004 
L 58.040799 38.463543 
L 58.138875 38.459714 
L 58.230188 38.372906 
L 58.250479 38.432538 
L 58.466924 38.783419 
L 58.470306 38.733793 
L 58.571764 38.862214 
L 58.646167 39.012496 
L 58.68675 39.048276 
L 58.730716 38.969893 
L 58.744243 38.994755 
L 58.798354 38.90409 
L 58.85923 38.926498 
L 58.879521 38.949462 
L 58.974216 38.934347 
L 58.98098 38.966944 
L 59.065528 38.868098 
L 59.46798 38.277689 
L 59.579584 37.231245 
L 59.596494 30.455562 
L 59.603258 26.665379 
L 59.684424 42.109058 
L 59.691188 42.080406 
L 60.289793 40.296476 
L 61.202918 39.300351 
L 61.22321 39.373336 
L 61.399071 39.345685 
L 61.402453 39.322585 
L 61.463328 39.287745 
L 61.432891 39.331518 
L 61.507293 39.341141 
L 61.581696 39.454888 
L 61.618898 39.359591 
L 61.71021 39.321562 
L 61.737266 39.366107 
L 61.845488 39.477138 
L 61.852252 39.501948 
L 61.919891 39.422542 
L 61.950328 39.437055 
L 61.960474 39.430293 
L 62.295287 40.338118 
L 62.461002 40.809731 
L 62.464384 40.801574 
L 62.467766 40.793573 
L 62.528641 40.914711 
L 62.535405 40.90584 
L 62.707884 41.179256 
L 62.721412 41.170169 
L 62.931093 41.590577 
L 62.944621 41.561695 
L 62.96153 41.510012 
L 63.029169 41.602098 
L 63.052843 41.557939 
L 63.184739 41.655247 
L 63.296343 41.635977 
L 63.316635 41.695368 
L 63.485732 41.865061 
L 63.323399 41.676011 
L 63.49926 41.856335 
L 63.502642 41.8509 
L 63.539843 41.963301 
L 63.560135 41.965069 
L 63.840836 41.835585 
L 63.979496 41.79734 
L 63.982878 41.806558 
L 64.077573 41.837145 
L 64.094482 41.803089 
L 64.222996 41.70569 
L 64.233142 41.746847 
L 64.324455 41.665165 
L 64.331219 41.675228 
L 64.415767 41.736191 
L 64.341364 41.662565 
L 64.459733 41.666855 
L 64.480024 41.592817 
L 64.534135 41.715053 
L 64.567955 41.687198 
L 64.730288 41.762552 
L 64.737052 41.747136 
L 64.838511 41.714877 
L 64.794545 41.769109 
L 64.845274 41.755965 
L 64.852038 41.757511 
L 64.868948 41.824677 
L 64.882476 41.847893 
L 64.990698 41.871178 
L 64.953497 41.792236 
L 64.997462 41.851252 
L 65.119212 41.856218 
L 65.0279 41.816518 
L 65.122594 41.85219 
L 65.230816 41.702935 
L 65.251108 41.729018 
L 65.900442 41.939914 
L 65.971463 42.030684 
L 66.03572 41.912458 
L 66.079685 41.880122 
L 66.130414 41.964887 
L 66.198053 41.928009 
L 66.255546 42.040442 
L 66.350241 41.920862 
L 66.485518 41.862059 
L 66.387442 41.974361 
L 66.4889 41.865221 
L 66.590359 41.880646 
L 66.536248 41.847832 
L 66.600505 41.851748 
L 66.634324 41.788381 
L 66.614032 41.794034 
L 66.637706 41.755902 
L 66.695199 41.700826 
L 66.752692 41.738606 
L 66.800039 41.75278 
L 66.833859 41.678847 
L 66.877824 41.737664 
L 66.948845 41.664348 
L 67.090887 41.772755 
L 66.986046 41.616169 
L 67.104415 41.741752 
L 67.121324 41.688896 
L 67.209255 41.787412 
L 67.212637 41.76167 
L 67.216019 41.748271 
L 67.280276 41.83071 
L 67.314095 41.794129 
L 67.327623 41.82762 
L 67.415554 41.745431 
L 67.544068 41.646423 
L 67.550831 41.665155 
L 67.699637 41.716957 
L 67.713165 41.757032 
L 67.75713 41.805445 
L 67.851825 41.889845 
L 67.875498 41.843002 
L 68.01754 41.674025 
L 68.047978 41.735132 
L 68.129144 41.788938 
L 68.054741 41.716816 
L 68.159582 41.738107 
L 68.257658 41.602021 
L 68.281332 41.629807 
L 68.494394 41.745432 
L 68.497776 41.741013 
L 68.602617 41.83946 
L 68.649964 41.879372 
L 68.700693 41.803795 
L 68.707457 41.816225 
L 68.727749 41.788048 
L 68.78186 41.949873 
L 68.785242 41.938794 
L 68.788624 41.948852 
L 68.822443 41.873973 
L 68.876554 41.885962 
L 68.896846 41.79701 
L 68.991541 41.868751 
L 69.120055 41.88053 
L 69.00845 41.821232 
L 69.133582 41.85495 
L 69.143728 41.865732 
L 69.272242 41.710072 
L 69.377082 41.704182 
L 69.397374 41.678499 
L 69.492069 41.666139 
L 69.417666 41.721505 
L 69.505596 41.701275 
L 70.083909 41.671723 
L 70.222569 41.570208 
L 70.229333 41.576134 
L 70.347701 41.662486 
L 70.290208 41.564744 
L 70.351083 41.639906 
L 70.895576 41.6195 
L 70.980125 41.706127 
L 70.915868 41.612437 
L 71.010563 41.67306 
L 71.07482 41.581803 
L 71.122167 41.664215 
L 71.818848 41.79137 
L 71.903396 41.924787 
L 71.937216 41.830566 
L 71.994709 41.701265 
L 72.069112 41.765773 
L 72.221299 41.7614 
L 72.288938 41.805441 
L 72.319376 41.70902 
L 72.322758 41.72173 
L 72.444508 41.702908 
L 72.451272 41.719707 
L 72.498619 41.634113 
L 72.542584 41.640348 
L 72.545966 41.623968 
L 72.620369 41.723544 
L 72.644043 41.671511 
L 72.735355 41.686445 
L 72.69139 41.626512 
L 72.752265 41.649722 
L 72.789466 41.662734 
L 72.809758 41.560244 
L 72.846959 41.591856 
L 72.870633 41.54794 
L 72.928126 41.66102 
L 72.9518 41.639155 
L 73.296758 41.892484 
L 72.968709 41.609742 
L 73.310286 41.853107 
L 73.323814 41.838477 
L 73.364397 41.947246 
L 73.394835 41.932544 
L 73.482765 41.931944 
L 73.499675 41.902444 
L 73.604515 41.875313 
L 73.547022 41.947037 
L 73.611279 41.88521 
L 73.628189 41.921997 
L 73.709356 41.817059 
L 73.831106 41.76228 
L 73.780377 41.835395 
L 73.834488 41.763151 
L 73.993439 41.62928 
L 73.996821 41.609975 
L 74.094898 41.693693 
L 74.223411 41.57205 
L 74.335016 41.386964 
L 74.355307 41.449113 
L 74.524405 41.542433 
L 74.55146 41.473782 
L 74.639391 41.300634 
L 74.69012 41.329027 
L 74.727321 41.380906 
L 74.764523 41.27814 
L 74.791578 41.294503 
L 74.798342 41.305085 
L 74.970822 41.188259 
L 75.075662 41.271982 
L 75.004641 41.182011 
L 75.085808 41.220051 
L 75.197412 41.189514 
L 75.102718 41.228264 
L 75.204176 41.202679 
L 75.22785 41.188583 
L 75.31578 41.219755 
L 75.376655 41.060737 
L 75.427384 41.177008 
L 75.562662 41.342387 
L 75.630301 41.311246 
L 75.657357 41.368389 
L 75.670885 41.362246 
L 75.68103 41.378803 
L 75.711468 41.275653 
L 75.768961 41.29909 
L 75.799398 41.311233 
L 75.779107 41.278693 
L 75.846746 41.24114 
L 75.911003 41.139293 
L 75.961732 41.20287 
L 76.333746 41.112469 
L 76.34051 41.067993 
L 76.425059 41.288806 
L 76.519753 41.309032 
L 76.482552 41.256548 
L 76.533281 41.280667 
L 76.614448 41.277492 
L 76.556954 41.303675 
L 76.634739 41.296661 
L 76.644885 41.324526 
L 76.72267 41.196127 
L 76.736198 41.231569 
L 76.763253 41.296457 
L 76.851184 41.236538 
L 76.96617 41.181281 
L 76.891767 41.258652 
L 76.979698 41.209757 
L 77.043955 41.283727 
L 77.077774 41.191595 
L 77.094684 41.233394 
L 77.131885 41.21552 
L 77.165705 41.31361 
L 77.355094 41.360652 
L 77.20967 41.238916 
L 77.36524 41.339853 
L 77.507281 41.11903 
L 77.612122 41.059572 
L 77.639177 41.089726 
L 77.771073 41.079754 
L 77.774455 41.053044 
L 77.828566 40.961632 
L 77.875913 41.080428 
L 77.886059 41.046618 
L 78.028101 41.09523 
L 78.058539 41.136219 
L 78.139705 41.092762 
L 78.207344 41.068647 
L 78.254691 41.121388 
L 78.413643 41.309412 
L 78.521865 41.186676 
L 78.542157 41.21381 
L 78.626706 41.244746 
L 78.58274 41.201289 
L 78.653761 41.211803 
L 78.694344 41.166223 
L 78.75522 41.244869 
L 78.792421 41.321218 
L 78.856678 41.214831 
L 78.863442 41.222958 
L 78.927699 41.167945 
L 78.995338 41.294276 
L 79.10356 41.099878 
L 79.123852 41.105635 
L 79.289567 40.952364 
L 79.411317 41.02135 
L 79.306477 40.928202 
L 79.414699 40.996123 
L 79.566887 40.897773 
L 79.428227 41.00875 
L 79.583796 40.921049 
L 79.739366 41.099224 
L 79.894935 40.930097 
L 79.915227 40.958558 
L 79.976102 40.84431 
L 80.077561 40.870716 
L 80.030213 40.897881 
L 80.080942 40.885672 
L 80.523977 40.633979 
L 80.652491 40.558166 
L 80.781005 40.483344 
L 80.794533 40.54288 
L 80.821589 40.611244 
L 80.848644 40.496728 
L 80.902755 40.517177 
L 81.007596 40.405407 
L 81.027887 40.427992 
L 81.142874 40.499702 
L 81.095526 40.406263 
L 81.149637 40.463092 
L 81.3627 40.329547 
L 81.159783 40.472545 
L 81.366082 40.333124 
L 81.470922 40.371539 
L 81.403283 40.280806 
L 81.481068 40.345115 
L 81.6062 40.289681 
L 81.494596 40.372323 
L 81.616346 40.307315 
L 81.714423 40.334546 
L 81.64002 40.288589 
L 81.72795 40.289807 
L 82.086437 40.069796 
L 82.093201 40.076521 
L 82.201423 40.14441 
L 82.211569 40.140263 
L 82.346846 40.250097 
L 82.350228 40.234401 
L 82.380666 40.333248 
L 82.438159 40.335777 
L 82.49227 40.385289 
L 82.549763 40.341704 
L 82.712097 40.224089 
L 82.867666 40.057108 
L 82.729006 40.234172 
L 82.871048 40.070039 
L 83.070583 40.077725 
L 83.077347 40.042635 
L 83.087493 40.050677 
L 83.236298 39.929634 
L 83.364812 39.996405 
L 83.253208 39.906191 
L 83.368194 39.993953 
L 83.48318 39.872521 
L 83.527146 39.909753 
L 83.618458 39.961483 
L 83.642132 39.916619 
L 83.665806 39.897217 
L 83.736826 39.971975 
L 83.746972 39.944522 
L 83.753736 39.949796 
L 83.797701 39.846341 
L 83.817993 39.855764 
L 83.929597 39.649552 
L 83.953271 39.680991 
L 84.047965 39.678868 
L 84.03782 39.629981 
L 84.061493 39.662434 
L 84.190007 39.531025 
L 84.220445 39.56563 
L 84.332049 39.686496 
L 84.237354 39.561954 
L 84.345577 39.674457 
L 84.491 39.64487 
L 84.599223 39.6811 
L 84.565403 39.601685 
L 84.602605 39.659498 
L 85.698355 39.514141 
L 85.701737 39.486412 
L 85.799814 39.55809 
L 85.803196 39.557242 
L 85.93171 39.491019 
L 85.833633 39.570409 
L 85.938473 39.502809 
L 85.941855 39.512575 
L 86.009494 39.405244 
L 86.029786 39.428421 
L 86.134626 39.405272 
L 86.056842 39.457151 
L 86.14139 39.417879 
L 86.276668 39.506391 
L 86.28005 39.504607 
L 86.479585 39.302645 
L 86.493113 39.318366 
L 86.50664 39.324338 
L 86.543842 39.251059 
L 86.574279 39.246901 
L 86.635154 39.186072 
L 86.581043 39.259881 
L 86.685884 39.238126 
L 86.739995 39.307007 
L 86.807634 39.261661 
L 86.926002 39.145741 
L 86.932766 39.158762 
L 87.068043 39.028261 
L 87.071425 39.032171 
L 87.162738 38.910763 
L 87.291252 38.776649 
L 87.193175 38.920901 
L 87.298016 38.786814 
L 87.362273 38.857104 
L 87.406238 38.749521 
L 87.477259 38.73437 
L 87.433294 38.777334 
L 87.524606 38.763392 
L 87.527988 38.775023 
L 87.602391 38.635384 
L 87.605773 38.649664 
L 87.839127 38.350601 
L 87.981169 37.509968 
L 88.001461 35.48354 
L 88.014988 26.652702 
L 88.089391 41.720544 
L 88.102919 41.678742 
L 88.586537 39.175154 
L 88.623739 39.063304 
L 88.850329 37.585302 
L 88.870621 35.557495 
L 88.880767 26.684407 
L 88.961933 42.045896 
L 88.972079 42.014937 
L 89.289982 40.555685 
L 89.293364 40.562126 
L 89.296746 40.564826 
L 89.32042 40.449094 
L 89.323802 40.44881 
L 90.263983 37.511617 
L 90.287656 34.717615 
L 90.297802 26.90741 
L 90.372205 42.101367 
L 90.389115 42.012507 
L 90.436462 41.789578 
L 90.707018 40.846421 
L 90.7104 40.851427 
L 90.717164 40.850192 
L 90.740837 40.753762 
L 90.747601 40.759415 
L 90.903171 40.529913 
L 90.906553 40.531847 
L 90.916698 40.561419 
L 90.991101 40.446466 
L 91.068886 40.2644 
L 91.068886 40.2644 
" clip-path="url(#pd5db991b1a)" style="fill: none; stroke: #000000; stroke-width: 0.6; stroke-linecap: square"/>
   </g>
   <g id="line2d_3">
    <path d="M 9.905557 60.978315 
L 10.074654 61.042483 
L 10.098328 61.001579 
L 10.280953 60.996881 
L 10.314773 61.03759 
L 10.37903 60.978497 
L 10.392557 61.003833 
L 10.761189 60.900141 
L 10.771335 60.976382 
L 10.774717 60.988977 
L 10.795009 60.931715 
L 10.876176 60.94081 
L 10.940433 60.948459 
L 10.889703 60.978605 
L 10.964106 60.982696 
L 11.035127 61.066602 
L 10.984398 60.974225 
L 11.07571 60.981146 
L 11.082474 60.968336 
L 11.153495 61.06056 
L 11.183933 61.000484 
L 11.271863 60.983222 
L 11.24819 60.923853 
L 11.295537 60.963406 
L 11.569475 61.079879 
L 11.583002 61.043431 
L 11.714898 60.990608 
L 11.71828 60.993922 
L 11.755482 60.982176 
L 11.843412 61.066664 
L 11.894141 61.075282 
L 11.921197 60.988917 
L 11.924579 60.987979 
L 11.958398 60.861668 
L 12.036183 60.974629 
L 12.218808 60.89018 
L 12.22219 60.873041 
L 12.306739 60.980372 
L 12.313503 60.980522 
L 12.492746 61.086337 
L 12.49951 61.072813 
L 12.62126 61.011821 
L 12.513038 61.099958 
L 12.628024 61.026519 
L 12.746392 61.04328 
L 12.658461 60.995274 
L 12.753156 61.023381 
L 12.901961 60.918066 
L 13.152225 60.780301 
L 13.155607 60.797549 
L 13.270594 60.883803 
L 13.277357 60.850893 
L 13.358524 60.741493 
L 13.416017 60.794423 
L 13.520858 60.895412 
L 13.544531 60.858058 
L 13.683191 60.611053 
L 13.706865 60.656391 
L 13.980802 60.835118 
L 13.99433 60.809694 
L 14.153282 60.659924 
L 14.173573 60.679821 
L 14.190483 60.668294 
L 14.224302 60.585022 
L 14.403546 60.347351 
L 14.413691 60.359273 
L 14.51515 60.537228 
L 14.542205 60.506495 
L 14.576025 60.486883 
L 14.606462 60.540365 
L 14.640282 60.553592 
L 14.694393 60.576779 
L 14.674101 60.533914 
L 14.748504 60.538743 
L 14.772178 60.513867 
L 14.833053 60.609424 
L 14.839817 60.595848 
L 14.907456 60.5706 
L 14.958185 60.627526 
L 15.1239 60.524966 
L 15.134046 60.55838 
L 15.303143 60.531611 
L 15.360636 60.489182 
L 15.330199 60.552178 
L 15.414748 60.53422 
L 15.53988 60.428374 
L 15.475623 60.578137 
L 15.550025 60.459158 
L 15.651484 60.519041 
L 15.665012 60.480423 
L 15.671775 60.497396 
L 16.764144 59.867604 
L 16.882512 59.808451 
L 16.885894 59.816369 
L 16.892658 59.852848 
L 16.973825 59.734795 
L 16.983971 59.763444 
L 17.082047 59.590019 
L 17.126012 59.611207 
L 17.129394 59.620387 
L 17.183505 59.543215 
L 17.220707 59.560326 
L 17.312019 59.447138 
L 17.349221 59.476654 
L 17.372894 59.475102 
L 17.430388 59.398015 
L 17.440533 59.40875 
L 17.572429 59.340783 
L 17.575811 59.354623 
L 17.623158 59.278437 
L 17.67727 59.308624 
L 17.680652 59.288306 
L 17.758436 59.374623 
L 17.778728 59.362309 
L 17.961353 59.351411 
L 17.968117 59.327211 
L 17.978263 59.372202 
L 18.116923 59.275636 
L 18.255582 59.35441 
L 18.133832 59.254809 
L 18.265728 59.331464 
L 18.40777 59.154348 
L 18.465263 59.194704 
L 18.478791 59.228607 
L 18.492319 59.186455 
L 18.573485 59.179187 
L 18.590395 59.171446 
L 18.641124 59.273666 
L 18.647888 59.271921 
L 18.695235 59.319158 
L 18.718909 59.225689 
L 18.752729 59.240647 
L 18.871097 59.152705 
L 18.783166 59.252216 
L 18.877861 59.163785 
L 18.881242 59.178442 
L 18.965791 59.079112 
L 18.979319 59.126215 
L 19.17209 58.908474 
L 19.178854 58.938297 
L 19.192382 58.956337 
L 19.256639 58.780737 
L 19.266784 58.807565 
L 19.358097 58.873084 
L 19.395298 58.770625 
L 19.489993 58.633214 
L 19.52043 58.6893 
L 19.628653 58.677924 
L 19.638798 58.647461 
L 20.386209 58.432573 
L 20.389591 58.443982 
L 20.399736 58.474993 
L 20.474139 58.356532 
L 20.480903 58.377787 
L 20.920556 58.284518 
L 20.923938 58.293174 
L 20.974667 58.333406 
L 21.025396 58.26096 
L 21.028778 58.26523 
L 21.089653 58.207952 
L 21.062598 58.291869 
L 21.140383 58.278788 
L 21.15391 58.292747 
L 21.221549 58.187662 
L 21.241841 58.233584 
L 22.0738 57.831318 
L 22.087328 57.876321 
L 22.121147 57.964534 
L 22.202314 57.924169 
L 22.246279 57.828034 
L 22.3173 57.905131 
L 22.405231 57.874839 
L 22.340974 57.870226 
L 22.415376 57.839534 
L 22.510071 57.78605 
L 22.462724 57.895999 
L 22.533744 57.824251 
L 22.611529 57.899458 
L 22.554036 57.806472 
L 22.648731 57.850059 
L 22.723133 57.885706 
L 22.743425 57.802977 
L 22.756953 57.826562 
L 23.118821 57.565997 
L 23.125585 57.591809 
L 23.240571 57.75737 
L 23.257481 57.732687 
L 23.801974 57.429827 
L 23.818884 57.419153 
L 23.859467 57.516296 
L 23.883141 57.506801 
L 23.889905 57.530328 
L 23.971072 57.418545 
L 23.981217 57.424316 
L 23.991363 57.387596 
L 24.065766 57.356189 
L 24.123259 57.210211 
L 24.180752 57.294855 
L 24.309266 57.22718 
L 24.19428 57.319212 
L 24.312648 57.230171 
L 24.444544 57.271714 
L 24.447926 57.256438 
L 24.539239 57.150889 
L 24.495273 57.2705 
L 24.566294 57.202041 
L 24.600114 57.258949 
L 24.647461 57.102553 
L 24.650843 57.107616 
L 24.911253 56.820066 
L 24.921399 56.829449 
L 24.948454 56.843712 
L 24.978892 56.76183 
L 25.093878 56.535028 
L 25.110788 56.551264 
L 25.256211 56.348317 
L 25.259593 56.350957 
L 25.262975 56.36438 
L 25.327232 56.184924 
L 25.415163 55.044077 
L 25.42869 46.494082 
L 25.435454 43.800783 
L 25.523385 56.792661 
L 25.526767 56.849877 
L 25.604552 56.30156 
L 25.726302 54.82607 
L 25.743211 45.167272 
L 25.81085 56.587711 
L 25.820996 57.353168 
L 25.919073 56.412955 
L 26.030677 54.123462 
L 26.040823 44.89386 
L 26.125371 57.788864 
L 26.132135 57.728756 
L 26.34858 54.599768 
L 26.362108 44.686945 
L 26.439892 57.971712 
L 26.450038 58.13042 
L 26.527823 57.24607 
L 26.69692 53.99453 
L 26.707066 44.536546 
L 26.794997 58.389697 
L 26.801761 58.347459 
L 27.065552 54.973247 
L 27.082462 44.433163 
L 27.153483 54.99344 
L 27.170393 58.539679 
L 27.265087 57.53396 
L 27.47815 53.940184 
L 27.488296 44.358656 
L 27.576226 58.604338 
L 27.58299 58.569686 
L 27.890747 55.323027 
L 27.907657 52.295022 
L 27.914421 44.278814 
L 28.005734 58.668045 
L 28.012497 58.61882 
L 28.357456 54.445391 
L 28.367602 44.28157 
L 28.455532 58.692125 
L 28.458914 58.700584 
L 28.482588 58.483317 
L 28.783581 55.899429 
L 28.841074 54.991497 
L 28.854602 46.095008 
L 28.857984 44.225586 
L 28.942533 58.623131 
L 28.945915 58.639225 
L 28.983116 58.292296 
L 29.344984 54.684174 
L 29.358512 44.188384 
L 29.432915 58.103564 
L 29.446443 58.644908 
L 29.537755 57.738321 
L 29.872568 53.895022 
L 29.882714 44.176589 
L 29.970644 58.61129 
L 29.977408 58.559095 
L 30.261492 56.246846 
L 30.369714 55.633171 
L 30.403533 54.553748 
L 30.417061 44.173256 
L 30.494846 58.481223 
L 30.50161 58.5917 
L 30.576013 57.849157 
L 30.948027 54.944282 
L 30.961555 46.1898 
L 30.964937 44.165089 
L 31.049485 58.570418 
L 31.052867 58.576022 
L 31.069777 58.425911 
L 31.394444 56.098724 
L 31.533104 54.772364 
L 31.550013 44.201375 
L 31.617652 57.528921 
L 31.63118 58.469216 
L 31.725874 57.545883 
L 32.101271 54.300124 
L 32.114798 44.210878 
L 32.195965 58.489888 
L 32.199347 58.479851 
L 32.696493 54.757778 
L 32.713403 44.175782 
L 32.781042 57.555524 
L 32.794569 58.423069 
L 32.889264 57.49457 
L 33.085417 56.235271 
L 33.224077 55.673243 
L 33.261278 55.112766 
L 33.274806 52.498403 
L 33.28157 44.177324 
L 33.366118 58.47034 
L 33.379646 58.378247 
L 33.626528 56.419509 
L 33.802389 55.837498 
L 33.870028 55.29009 
L 33.886938 53.852763 
L 33.897084 44.121612 
L 33.978251 58.411017 
L 33.991778 58.319306 
L 34.28939 56.19335 
L 34.296154 56.210996 
L 34.350265 55.974253 
L 34.475397 54.217519 
L 34.488925 44.211829 
L 34.570091 58.397582 
L 34.573473 58.381459 
L 35.090911 54.887948 
L 35.107821 44.147963 
L 35.17546 56.846629 
L 35.192369 58.358599 
L 35.287064 57.395936 
L 35.696279 54.713063 
L 35.713189 44.188184 
L 35.780828 57.668234 
L 35.794356 58.335396 
L 35.88905 57.409178 
L 36.169752 55.990578 
L 36.176516 55.99706 
L 36.18328 56.002517 
L 36.301648 55.559555 
L 36.338849 54.305888 
L 36.352377 44.138664 
L 36.433544 58.322506 
L 36.436926 58.313398 
L 36.883343 55.693595 
L 36.920544 55.326761 
L 36.940836 53.767288 
L 36.950981 44.117129 
L 37.03553 58.358395 
L 37.045676 58.285799 
L 37.31285 56.28734 
L 37.424454 55.975486 
L 37.458273 56.025599 
L 37.651044 55.37548 
L 37.674718 54.13085 
L 37.688246 44.127701 
L 37.769412 58.195157 
L 37.776176 58.141339 
L 38.124517 55.924624 
L 38.236121 54.580365 
L 38.249649 44.175272 
L 38.324052 58.150942 
L 38.334198 58.32172 
L 38.415364 57.518904 
L 38.621663 56.221969 
L 38.983531 54.925324 
L 38.997059 49.123535 
L 39.003823 44.121682 
L 39.08499 58.155518 
L 39.098517 58.04948 
L 39.31158 56.660995 
L 39.314962 56.666285 
L 39.352163 56.64138 
L 39.53817 57.233463 
L 40.015025 59.675275 
L 40.275435 60.584017 
L 40.410713 60.863983 
L 40.569664 60.988183 
L 40.576428 60.975975 
L 40.627157 60.913244 
L 40.694796 61.006608 
L 40.738761 61.07953 
L 40.813164 61.034009 
L 40.826692 61.003197 
L 40.860511 61.073911 
L 40.918004 61.055271 
L 40.94506 61.120459 
L 41.032991 61.083408 
L 41.168268 61.230536 
L 41.225762 61.170544 
L 41.388095 61.045359 
L 41.239289 61.188546 
L 41.391477 61.057407 
L 41.516609 61.082627 
L 41.418533 61.013868 
L 41.523373 61.054202 
L 41.628213 60.965443 
L 41.55381 61.075177 
L 41.651887 61.021435 
L 41.655269 61.044193 
L 41.736435 60.965005 
L 41.760109 61.011552 
L 41.766873 60.965307 
L 41.837894 61.039256 
L 41.868331 61.018701 
L 41.986699 61.164177 
L 42.040811 61.072496 
L 42.078012 61.007542 
L 42.159179 61.075529 
L 42.186234 61.017242 
L 42.236964 61.021405 
L 42.341804 60.961783 
L 42.257255 61.049696 
L 42.35195 60.982267 
L 42.493991 60.927989 
L 42.375623 61.028591 
L 42.504137 60.943262 
L 42.514283 60.967929 
L 42.598832 60.904048 
L 42.61236 60.933593 
L 42.636033 60.9106 
L 42.690144 60.994017 
L 42.713818 60.976453 
L 42.933644 60.999713 
L 42.94379 60.970419 
L 43.038485 60.932245 
L 42.957318 60.994406 
L 43.052013 60.988981 
L 43.143325 61.03362 
L 43.079068 60.949927 
L 43.163617 60.981488 
L 43.34286 60.977482 
L 43.180527 61.020796 
L 43.346242 60.991776 
L 43.471374 61.091275 
L 43.491666 61.059754 
L 43.542395 60.990774 
L 43.498429 61.072216 
L 43.62018 61.075913 
L 43.768985 61.17362 
L 43.907645 61.003808 
L 43.921173 61.019938 
L 44.032777 61.093434 
L 44.066596 61.019075 
L 44.154527 60.950366 
L 44.184965 60.998942 
L 44.188347 60.996196 
L 44.22893 61.101677 
L 44.252604 61.137822 
L 44.306715 61.032642 
L 44.340534 61.093039 
L 44.590798 61.033827 
L 44.712548 60.985453 
L 44.71593 60.999595 
L 44.790333 61.007019 
L 44.729458 60.962713 
L 44.810625 60.94921 
L 44.847826 60.90727 
L 44.895173 60.982374 
L 44.918847 60.954828 
L 44.932375 61.000636 
L 44.983104 60.867867 
L 45.003396 60.880539 
L 45.006778 60.87371 
L 45.08118 60.972238 
L 45.189403 61.083849 
L 45.216458 61.146545 
L 45.290861 61.045142 
L 45.297625 61.062827 
L 45.429521 60.994685 
L 45.487014 60.942587 
L 45.537743 60.98499 
L 45.61891 60.964354 
L 45.649347 60.975554 
L 45.737278 61.040936 
L 45.693313 60.959111 
L 45.764333 60.989294 
L 45.875938 60.850323 
L 45.886084 60.864369 
L 45.977396 60.929861 
L 46.021361 60.8683 
L 46.112674 60.733295 
L 46.149875 60.760286 
L 46.281771 60.846178 
L 46.291917 60.825097 
L 46.308827 60.778884 
L 46.386612 60.889925 
L 46.477924 60.854882 
L 46.400139 60.835235 
L 46.484688 60.839013 
L 46.515126 60.795197 
L 46.579383 60.895394 
L 46.586146 60.870296 
L 46.606438 60.893786 
L 46.674077 60.784612 
L 46.684223 60.806908 
L 46.687605 60.813868 
L 46.738334 60.673233 
L 46.87023 60.618845 
L 46.88714 60.661879 
L 46.944633 60.64901 
L 47.00889 60.713971 
L 47.066383 60.661807 
L 47.035945 60.723525 
L 47.13064 60.682378 
L 47.188133 60.710278 
L 47.225334 60.599368 
L 47.228716 60.600065 
L 47.377522 60.682859 
L 47.380904 60.662786 
L 47.502654 60.61525 
L 47.65146 60.774068 
L 47.698807 60.678361 
L 47.719098 60.686039 
L 47.827321 60.573752 
L 48.033619 60.493997 
L 48.043765 60.51505 
L 48.229772 60.656274 
L 48.280502 60.720525 
L 48.317703 60.621903 
L 48.344759 60.672988 
L 48.36505 60.711129 
L 48.463127 60.669923 
L 48.635606 60.601363 
L 48.65928 60.548489 
L 48.720155 60.678709 
L 48.743828 60.624193 
L 48.916307 60.61426 
L 48.946745 60.651773 
L 49.041439 60.543329 
L 49.088787 60.48982 
L 49.156426 60.531638 
L 49.247738 60.489456 
L 49.274794 60.518764 
L 49.376252 60.558153 
L 49.281558 60.516112 
L 49.396544 60.542661 
L 49.498002 60.378857 
L 49.52844 60.487147 
L 49.660336 60.397123 
L 49.785468 60.301495 
L 49.717829 60.409546 
L 49.78885 60.303479 
L 49.866634 60.355371 
L 49.907218 60.312633 
L 50.062787 60.127955 
L 50.083079 60.156975 
L 50.187919 60.145235 
L 50.099989 60.116471 
L 50.201447 60.118 
L 50.377308 60.01486 
L 50.38069 60.020768 
L 50.620808 60.024263 
L 50.627572 59.967293 
L 50.722267 59.8648 
L 50.661392 59.978142 
L 50.749322 59.899979 
L 50.830489 59.824966 
L 50.965767 59.670788 
L 51.063843 59.705284 
L 51.073989 59.65448 
L 51.28367 59.406088 
L 51.303962 59.479848 
L 51.398656 59.537702 
L 51.368218 59.439325 
L 51.418948 59.513761 
L 51.489969 59.527698 
L 51.459531 59.594363 
L 51.513642 59.556235 
L 51.530552 59.581847 
L 51.557607 59.521183 
L 51.615101 59.516965 
L 51.662448 59.405821 
L 51.760524 59.250211 
L 51.784198 59.308845 
L 51.821399 59.318888 
L 51.872128 59.250935 
L 51.889038 59.286229 
L 51.905948 59.31882 
L 52.119011 59.062124 
L 52.125774 59.084261 
L 52.210323 58.955601 
L 52.355747 58.94908 
L 52.220469 58.927859 
L 52.359129 58.934782 
L 52.369275 58.910793 
L 52.423386 58.974956 
L 52.463969 58.952768 
L 52.497789 58.98211 
L 52.558664 58.879482 
L 53.870859 58.14916 
L 53.901296 58.225981 
L 53.975699 58.118539 
L 53.979081 58.131762 
L 54.175234 58.072286 
L 54.18538 58.096159 
L 54.330803 58.242949 
L 54.344331 58.235512 
L 54.368005 58.275837 
L 54.466081 58.167516 
L 54.665616 58.256347 
L 54.679144 58.215561 
L 54.68929 58.164449 
L 54.79413 58.195373 
L 54.976755 58.06941 
L 54.855005 58.286626 
L 54.986901 58.093033 
L 55.024102 58.140639 
L 55.084977 58.043345 
L 55.105269 58.009866 
L 55.172908 58.100194 
L 55.179672 58.090496 
L 55.335241 58.258768 
L 55.365679 58.282468 
L 55.446846 58.26567 
L 55.588887 58.193728 
L 55.467137 58.281345 
L 55.592269 58.1997 
L 55.714019 58.22643 
L 55.724165 58.181536 
L 55.832388 58.012493 
L 55.730929 58.194987 
L 55.862825 58.03346 
L 56.153672 58.133412 
L 56.1672 58.078694 
L 56.359971 57.95619 
L 56.366735 57.973621 
L 56.4107 58.05326 
L 56.454666 57.942947 
L 56.478339 58.004556 
L 56.857117 57.909072 
L 56.94843 57.91753 
L 56.921374 57.862713 
L 56.961958 57.889955 
L 57.107381 57.766939 
L 57.137819 57.733397 
L 57.222368 57.798734 
L 57.553798 57.700713 
L 57.560562 57.728981 
L 57.570708 57.78812 
L 57.665402 57.709723 
L 57.672166 57.73961 
L 57.746569 57.661299 
L 57.797298 57.727019 
L 57.919048 57.774125 
L 57.810826 57.706397 
L 57.925812 57.76165 
L 58.013743 57.628516 
L 58.057708 57.655291 
L 58.179458 57.811597 
L 58.074618 57.639017 
L 58.223424 57.753364 
L 58.318118 57.785453 
L 58.250479 57.836718 
L 58.328264 57.812897 
L 58.385757 57.867468 
L 58.446632 57.843703 
L 58.561618 57.733608 
L 58.575146 57.756788 
L 58.595438 57.777051 
L 58.639403 57.694094 
L 58.656313 57.68707 
L 58.723952 57.648568 
L 58.761153 57.723119 
L 58.889667 57.720724 
L 58.896431 57.697182 
L 58.926868 57.616559 
L 59.004653 57.712195 
L 59.099348 57.792535 
L 59.018181 57.691996 
L 59.119639 57.718878 
L 59.214334 57.683693 
L 59.227862 57.662602 
L 59.315792 57.656914 
L 59.241389 57.678859 
L 59.325938 57.717509 
L 59.396959 57.737603 
L 59.410487 57.660091 
L 59.417251 57.671906 
L 59.501799 57.635193 
L 59.478126 57.691874 
L 59.528855 57.67642 
L 59.582966 57.614097 
L 59.643841 57.672509 
L 59.667515 57.64518 
L 59.779119 57.70238 
L 59.856904 57.781256 
L 59.894105 57.697425 
L 60.387869 57.586918 
L 60.452126 57.530101 
L 60.499473 57.58642 
L 60.631369 57.564452 
L 60.634751 57.578249 
L 60.638133 57.610616 
L 60.692244 57.444417 
L 60.732828 57.462446 
L 60.830904 57.523714 
L 60.854578 57.43551 
L 60.972946 57.28025 
L 60.97971 57.288957 
L 61.000002 57.244653 
L 61.091314 57.27351 
L 61.175863 57.244125 
L 61.189391 57.21122 
L 61.324668 57.0891 
L 61.436273 56.9795 
L 61.558023 56.891518 
L 61.456564 57.008474 
L 61.564787 56.895738 
L 61.666245 56.739029 
L 61.801523 56.550651 
L 61.828578 56.430161 
L 61.842106 56.438138 
L 62.034877 55.428559 
L 62.055169 52.536066 
L 62.065315 43.79083 
L 62.156627 56.85226 
L 62.163391 56.845989 
L 62.35278 55.202644 
L 62.373072 52.357982 
L 62.379836 45.123503 
L 62.461002 57.370365 
L 62.477912 57.218416 
L 62.677447 54.091529 
L 62.687593 44.818357 
L 62.768759 57.823496 
L 62.778905 57.765053 
L 63.002114 54.948644 
L 63.015642 45.664803 
L 63.019023 44.617109 
L 63.090044 56.075795 
L 63.106954 58.150783 
L 63.201649 57.100324 
L 63.370746 53.547396 
L 63.380892 44.532747 
L 63.468822 58.373088 
L 63.475586 58.320611 
L 63.752906 54.462599 
L 63.763052 44.410515 
L 63.850982 58.516672 
L 63.857746 58.516714 
L 63.867892 58.425844 
L 64.175649 53.471734 
L 64.185795 44.368213 
L 64.273726 58.593341 
L 64.280489 58.554818 
L 64.618684 54.005391 
L 64.62883 44.255267 
L 64.71676 58.631184 
L 64.723524 58.606804 
L 65.095538 54.052104 
L 65.105684 44.214117 
L 65.193615 58.611022 
L 65.200379 58.585829 
L 65.349184 57.087212 
L 65.589303 52.627373 
L 65.596067 44.201738 
L 65.683997 58.638482 
L 65.694143 58.577328 
L 66.113504 53.783433 
L 66.12365 44.188089 
L 66.208199 58.583965 
L 66.218345 58.51162 
L 66.647852 54.471963 
L 66.66138 44.184394 
L 66.742546 58.549759 
L 66.745928 58.583215 
L 66.800039 58.023794 
L 67.063831 56.180599 
L 67.067213 56.192141 
L 67.11456 55.958851 
L 67.199109 54.530799 
L 67.212637 44.1448 
L 67.290422 58.451021 
L 67.297185 58.55098 
L 67.37497 57.783042 
L 67.682727 55.970332 
L 67.763894 54.998214 
L 67.777422 48.075276 
L 67.784186 44.185241 
L 67.865352 58.513052 
L 67.87888 58.419122 
L 68.200165 56.156783 
L 68.359117 54.314912 
L 68.372644 44.184973 
L 68.453811 58.459268 
L 68.457193 58.440273 
L 68.944193 54.723075 
L 68.961103 44.206941 
L 69.028742 57.616235 
L 69.045652 58.41898 
L 69.136964 57.476053 
L 69.187693 57.06202 
L 69.461631 55.967186 
L 69.549562 55.61142 
L 69.590145 53.866042 
L 69.600291 44.12993 
L 69.681458 58.343224 
L 69.694985 58.249547 
L 69.982451 56.184674 
L 70.144784 55.100223 
L 70.158312 52.597312 
L 70.165076 44.192156 
L 70.249625 58.432745 
L 70.263152 58.343198 
L 70.530326 56.315459 
L 70.564146 56.18727 
L 70.807646 54.651237 
L 70.824555 44.184349 
L 70.895576 58.101067 
L 70.90234 58.299499 
L 70.990271 57.464193 
L 71.199952 56.185525 
L 71.233771 56.092817 
L 71.382577 53.852217 
L 71.392722 44.147846 
L 71.477271 58.386565 
L 71.487417 58.316865 
L 71.781646 56.252548 
L 71.785028 56.252887 
L 71.842521 56.082206 
L 72.04882 54.995843 
L 72.062348 50.542847 
L 72.069112 44.100843 
L 72.150278 58.258641 
L 72.167188 58.137026 
L 72.441126 56.245056 
L 72.606841 55.388634 
L 72.630515 53.457539 
L 72.640661 44.138785 
L 72.721827 58.404505 
L 72.735355 58.32848 
L 72.955182 56.820085 
L 72.958564 56.847893 
L 73.005911 56.739274 
L 73.076932 56.790839 
L 73.289994 57.687976 
L 73.969766 60.624712 
L 73.979911 60.613438 
L 74.030641 60.634974 
L 73.996821 60.663057 
L 74.057696 60.691599 
L 74.233557 61.024849 
L 74.240321 61.020001 
L 74.284287 61.033589 
L 74.260613 61.061697 
L 74.335016 61.078218 
L 74.832162 61.066806 
L 74.838926 61.106046 
L 74.906565 60.987232 
L 74.923474 61.001236 
L 75.106099 60.909159 
L 75.119627 60.945727 
L 75.288725 60.984725 
L 75.292107 61.002813 
L 75.33269 61.119442 
L 75.407093 61.043305 
L 75.488259 61.065476 
L 75.528843 60.963525 
L 75.677648 61.034046 
L 75.589718 60.928887 
L 75.684412 61.028126 
L 75.711468 61.007662 
L 75.748669 61.101344 
L 75.785871 61.085875 
L 75.907621 61.049306 
L 75.826454 61.11553 
L 75.911003 61.059659 
L 76.34051 60.970899 
L 76.347274 61.008245 
L 76.425059 61.109594 
L 76.455496 61.000393 
L 76.458878 60.995195 
L 76.499461 61.104548 
L 76.536663 61.07228 
L 76.540045 61.082672 
L 76.594156 60.983167 
L 76.638121 61.028069 
L 76.780163 61.002744 
L 76.682086 61.066847 
L 76.783545 61.024924 
L 76.959406 61.125421 
L 76.8106 60.986899 
L 76.969552 61.114021 
L 77.08792 60.943557 
L 77.016899 61.136799 
L 77.094684 60.97209 
L 77.216434 60.916658 
L 77.219816 60.919064 
L 77.24349 60.908886 
L 77.263781 60.972024 
L 77.304365 60.987246 
L 77.564774 61.091338 
L 77.571538 61.073609 
L 77.581684 61.026531 
L 77.645941 61.123301 
L 77.686524 61.07693 
L 77.703434 61.107792 
L 77.750781 61.002066 
L 77.787983 61.032218 
L 77.902969 61.053581 
L 77.801511 61.057504 
L 77.909733 61.06981 
L 77.933407 61.075772 
L 77.967226 60.962035 
L 77.997664 60.989671 
L 78.129559 60.917446 
L 78.132941 60.938721 
L 78.281747 61.066953 
L 78.285129 61.050808 
L 78.389969 60.971985 
L 78.291893 61.055222 
L 78.417025 60.996009 
L 78.427171 60.97363 
L 78.532011 61.041735 
L 78.646997 60.86883 
L 78.660525 60.914495 
L 78.785657 61.032365 
L 78.674053 60.899051 
L 78.795803 60.992752 
L 78.924317 60.99777 
L 78.849914 61.077225 
L 78.931081 61.01793 
L 79.015629 61.04009 
L 78.944609 60.990232 
L 79.049449 61.019955 
L 79.194873 60.946899 
L 79.211782 60.984649 
L 79.218546 61.001928 
L 79.292949 60.889454 
L 79.309859 60.937132 
L 79.397789 60.802857 
L 79.472192 60.856102 
L 79.533067 60.937457 
L 79.59056 60.882062 
L 79.668345 60.835086 
L 79.610852 60.90092 
L 79.702164 60.901697 
L 79.769803 60.890663 
L 79.739366 60.831768 
L 79.800241 60.851394 
L 80.202693 60.981059 
L 80.260186 60.868973 
L 80.300769 60.994823 
L 80.310915 60.990355 
L 80.317679 61.009123 
L 80.84188 60.709484 
L 80.868936 60.675534 
L 80.960248 60.753145 
L 81.173311 60.67317 
L 81.200367 60.719736 
L 81.25786 60.760774 
L 81.298443 60.672847 
L 81.301825 60.677048 
L 81.548707 60.726331 
L 81.565617 60.677195 
L 81.609582 60.639288 
L 81.650166 60.717374 
L 81.677221 60.671459 
L 81.687367 60.710361 
L 81.765152 60.590401 
L 81.768534 60.613642 
L 81.86661 60.508642 
L 81.88352 60.582366 
L 82.045853 60.559279 
L 82.093201 60.626151 
L 82.167603 60.535716 
L 82.242006 60.542867 
L 82.262298 60.452833 
L 82.26568 60.460964 
L 82.373902 60.311382 
L 82.417867 60.357302 
L 82.847375 60.42366 
L 82.850756 60.412684 
L 82.931923 60.328679 
L 82.89134 60.426263 
L 82.965743 60.387208 
L 83.121312 60.255697 
L 83.270118 60.283084 
L 83.324229 60.208488 
L 83.37834 60.290788 
L 83.530528 60.423514 
L 83.537292 60.418333 
L 83.652278 60.255138 
L 83.682715 60.32872 
L 83.757118 60.384065 
L 83.723299 60.298803 
L 83.801083 60.33825 
L 84.004 60.155795 
L 83.811229 60.376382 
L 84.010764 60.176776 
L 84.034438 60.194473 
L 84.088549 60.097024 
L 84.112222 60.132481 
L 84.379396 59.885162 
L 84.122368 60.154627 
L 84.41998 59.974964 
L 84.447035 60.090022 
L 84.52482 59.954899 
L 84.531584 59.977071 
L 84.697299 59.808241 
L 84.704063 59.82158 
L 84.720973 59.846567 
L 84.758174 59.774077 
L 84.815667 59.806626 
L 84.835959 59.849816 
L 84.978001 59.768986 
L 85.059167 59.87224 
L 85.096369 59.814994 
L 85.15048 59.826814 
L 85.221501 59.72312 
L 85.228265 59.726141 
L 85.282376 59.645257 
L 85.306049 59.65532 
L 85.373688 59.590733 
L 85.319577 59.671995 
L 85.424418 59.620606 
L 85.495438 59.701445 
L 85.458237 59.601981 
L 85.53264 59.60486 
L 85.664536 59.487911 
L 85.701737 59.549954 
L 85.799814 59.540906 
L 85.722029 59.515768 
L 85.806578 59.510826 
L 85.972293 59.325738 
L 86.252994 59.140734 
L 86.391654 58.888259 
L 86.526932 58.80123 
L 86.415328 58.948392 
L 86.550606 58.843616 
L 86.553988 58.855905 
L 86.591189 58.757338 
L 86.652064 58.805722 
L 86.787342 58.676382 
L 87.105245 58.657256 
L 87.237141 58.53373 
L 87.291252 58.57871 
L 87.328453 58.475594 
L 87.341981 58.507286 
L 87.713995 58.287405 
L 87.845891 58.128409 
L 87.862801 58.159144 
L 87.93044 58.013187 
L 87.937204 58.022984 
L 87.964259 58.054107 
L 88.01837 57.950703 
L 88.021752 57.95271 
L 88.163794 57.849518 
L 88.170558 57.856379 
L 88.29569 57.925683 
L 88.299072 57.911272 
L 88.41744 57.81421 
L 88.444496 57.838482 
L 88.461405 57.882118 
L 88.525662 57.789743 
L 88.549336 57.799169 
L 88.667704 57.840992 
L 88.67785 57.813968 
L 88.735343 57.899631 
L 88.830038 57.76718 
L 88.975461 57.880522 
L 89.012663 57.845529 
L 89.093829 57.793494 
L 89.022808 57.861213 
L 89.117503 57.848289 
L 89.154704 57.955892 
L 89.222343 57.799804 
L 89.317038 57.82578 
L 89.229107 57.795961 
L 89.333947 57.794318 
L 89.377913 57.712953 
L 89.452316 57.780652 
L 89.523336 57.718055 
L 89.584212 57.813943 
L 89.858149 57.77263 
L 89.959608 57.768225 
L 89.868295 57.795771 
L 89.966371 57.789972 
L 89.996809 57.819563 
L 90.037392 57.705183 
L 90.054302 57.729437 
L 90.132087 57.727154 
L 90.08474 57.763986 
L 90.159142 57.767249 
L 90.409406 57.832765 
L 90.41617 57.812726 
L 90.439844 57.786533 
L 90.463518 57.870724 
L 90.527775 57.825338 
L 90.663052 57.668095 
L 90.541302 57.866857 
L 90.686726 57.721428 
L 90.79833 57.764603 
L 90.801712 57.746707 
L 90.943754 57.679151 
L 90.947136 57.684719 
L 91.05874 57.6602 
L 91.008011 57.741501 
L 91.068886 57.668855 
" clip-path="url(#pd5db991b1a)" style="fill: none; stroke: #000000; stroke-width: 0.6; stroke-linecap: square"/>
   </g>
   <g id="line2d_4">
    <path d="M 95.127221 15.313171 
L 95.127221 8.552195 
" clip-path="url(#pd5db991b1a)" style="fill: none; stroke: #000000; stroke-width: 1.5; stroke-linecap: square"/>
   </g>
  </g>
 </g>
 <defs>
  <clipPath id="pd5db991b1a">
   <rect x="7.2" y="7.2" width="89.28" height="55.44"/>
  </clipPath>
 </defs>
</svg>
