<?xml version="1.0" encoding="utf-8" standalone="no"?>
<!DOCTYPE svg PUBLIC "-//W3C//DTD SVG 1.1//EN"
  "http://www.w3.org/Graphics/SVG/1.1/DTD/svg11.dtd">
<svg xmlns:xlink="http://www.w3.org/1999/xlink" width="103.68pt" height="69.84pt" viewBox="0 0 103.68 69.84" xmlns="http://www.w3.org/2000/svg" version="1.1">
 <metadata>
  <rdf:RDF xmlns:dc="http://purl.org/dc/elements/1.1/" xmlns:cc="http://creativecommons.org/ns#" xmlns:rdf="http://www.w3.org/1999/02/22-rdf-syntax-ns#">
   <cc:Work>
    <dc:type rdf:resource="http://purl.org/dc/dcmitype/StillImage"/>
    <dc:date>2022-05-08T14:54:09.858835</dc:date>
    <dc:format>image/svg+xml</dc:format>
    <dc:creator>
     <cc:Agent>
      <dc:title>Matplotlib v3.5.1, https://matplotlib.org/</dc:title>
     </cc:Agent>
    </dc:creator>
   </cc:Work>
  </rdf:RDF>
 </metadata>
 <defs>
  <style type="text/css">*{stroke-linejoin: round; stroke-linecap: butt}</style>
 </defs>
 <g id="figure_1">
  <g id="patch_1">
   <path d="M 0 69.84 
L 103.68 69.84 
L 103.68 0 
L 0 0 
z
" style="fill: #ffffff"/>
  </g>
  <g id="axes_1">
   <g id="patch_2">
    <path d="M 7.2 62.64 
L 96.48 62.64 
L 96.48 7.2 
L 7.2 7.2 
z
" style="fill: #ffffff"/>
   </g>
   <g id="matplotlib.axis_1"/>
   <g id="matplotlib.axis_2"/>
   <g id="line2d_1">
    <path d="M 9.905557 25.4634 
L 10.108474 25.169957 
L 10.324918 25.261694 
L 10.348592 25.299901 
L 10.412849 25.21282 
L 10.419613 25.218435 
L 10.548127 25.0591 
L 10.561655 25.073232 
L 10.642821 25.108117 
L 10.568419 25.061821 
L 10.683405 25.054046 
L 10.83221 24.920967 
L 10.835592 24.925271 
L 11.038509 24.780691 
L 11.055419 24.825975 
L 11.163641 24.838412 
L 11.190697 24.79933 
L 11.302301 24.739769 
L 11.204224 24.818177 
L 11.319211 24.754357 
L 11.410523 24.787664 
L 11.339502 24.741214 
L 11.430815 24.745776 
L 11.552565 24.684952 
L 11.559329 24.729253 
L 11.640495 24.743604 
L 11.620204 24.683166 
L 11.664169 24.699032 
L 11.667551 24.693777 
L 11.71828 24.789177 
L 11.745336 24.756595 
L 11.796065 24.842141 
L 11.853558 24.759637 
L 11.988836 24.667873 
L 11.992218 24.691061 
L 12.086912 24.70463 
L 12.029419 24.6488 
L 12.107204 24.689626 
L 12.212044 24.622108 
L 12.127496 24.695833 
L 12.228954 24.652579 
L 12.526565 24.622616 
L 12.567149 24.603875 
L 12.60435 24.695222 
L 12.634788 24.628298 
L 12.644934 24.67088 
L 12.668607 24.610306 
L 12.746392 24.622403 
L 12.854614 24.590514 
L 12.824177 24.670106 
L 12.861378 24.598441 
L 12.929017 24.6905 
L 12.979746 24.634274 
L 13.317941 24.625717 
L 13.466746 24.788631 
L 13.47351 24.782774 
L 13.50733 24.748146 
L 13.568205 24.821583 
L 13.571587 24.807291 
L 13.625698 24.869081 
L 13.679809 24.792265 
L 13.76774 24.720075 
L 13.811705 24.833033 
L 13.943601 24.713811 
L 13.950365 24.720224 
L 13.957129 24.708011 
L 14.109316 24.750546 
L 14.112698 24.735211 
L 14.173573 24.823375 
L 14.204011 24.805901 
L 14.210775 24.831702 
L 14.302087 24.727788 
L 14.305469 24.749571 
L 14.450893 24.681113 
L 14.312233 24.766285 
L 14.477948 24.720609 
L 14.582789 24.754716 
L 14.49824 24.682811 
L 14.589553 24.731003 
L 14.694393 24.679184 
L 14.711303 24.729374 
L 14.745122 24.704677 
L 14.839817 24.767684 
L 14.893928 24.673578 
L 14.937893 24.792094 
L 14.948039 24.780338 
L 15.046115 24.783711 
L 14.998768 24.709236 
L 15.059643 24.766787 
L 15.174629 24.778302 
L 15.069789 24.747657 
L 15.188157 24.749784 
L 15.225359 24.720519 
L 15.282852 24.825087 
L 15.289616 24.808914 
L 15.411366 24.794589 
L 15.336963 24.868879 
L 15.414748 24.807869 
L 15.512824 24.809354 
L 15.441803 24.759329 
L 15.52297 24.782681 
L 15.607518 24.70647 
L 15.53988 24.801574 
L 15.64472 24.732416 
L 15.695449 24.687124 
L 15.759706 24.763761 
L 15.999824 24.767067 
L 16.077609 24.723376 
L 16.04379 24.778882 
L 16.108047 24.780385 
L 16.209505 24.788195 
L 16.223033 24.750975 
L 16.361692 24.699637 
L 16.378602 24.749304 
L 16.486825 24.814142 
L 16.398894 24.724175 
L 16.49697 24.782205 
L 16.760762 24.771377 
L 16.862221 24.777298 
L 16.87913 24.757392 
L 17.004262 24.660461 
L 17.109103 24.764263 
L 17.132776 24.728665 
L 17.26129 24.71358 
L 17.183505 24.775887 
L 17.274818 24.7379 
L 17.714471 24.698752 
L 17.744909 24.745853 
L 17.802402 24.650899 
L 17.815929 24.660324 
L 17.829457 24.585336 
L 17.883568 24.688465 
L 17.92077 24.692288 
L 17.988409 24.706765 
L 17.930916 24.67464 
L 18.032374 24.684679 
L 18.093249 24.711982 
L 18.066193 24.752686 
L 18.120305 24.752796 
L 18.441589 24.714557 
L 18.448353 24.755706 
L 18.543048 24.750682 
L 18.455117 24.746032 
L 18.553194 24.716068 
L 18.830513 24.801488 
L 18.89477 24.817201 
L 18.921826 24.7611 
L 18.938736 24.777355 
L 19.202527 24.628363 
L 19.331041 24.79792 
L 19.344569 24.788119 
L 19.442646 24.712603 
L 19.459555 24.773311 
L 19.79775 24.693501 
L 19.818042 24.672797 
L 19.845097 24.739421 
L 19.905972 24.708303 
L 20.203583 24.816349 
L 20.210347 24.806112 
L 20.217111 24.77586 
L 20.298278 24.872828 
L 20.311806 24.859196 
L 20.436938 24.742527 
L 20.470757 24.795901 
L 20.491049 24.833867 
L 20.572216 24.751027 
L 20.710875 24.629031 
L 20.768368 24.702206 
L 20.852917 24.720649 
L 20.781896 24.656757 
L 20.873209 24.677279 
L 20.92732 24.725752 
L 21.008487 24.618821 
L 21.08289 24.606645 
L 21.055834 24.555726 
L 21.109945 24.570348 
L 21.120091 24.508704 
L 21.180966 24.60732 
L 21.221549 24.561529 
L 21.245223 24.602075 
L 21.316244 24.495271 
L 21.323008 24.513582 
L 21.427848 24.454383 
L 21.465049 24.408642 
L 21.505633 24.491743 
L 21.53607 24.468515 
L 21.600327 24.57048 
L 21.651056 24.515741 
L 21.776188 24.489582 
L 21.701786 24.567688 
L 21.782952 24.513158 
L 21.789716 24.562385 
L 21.837064 24.469007 
L 21.881029 24.478282 
L 21.93514 24.404467 
L 21.985869 24.507237 
L 21.989251 24.502137 
L 22.046744 24.539391 
L 22.0738 24.43586 
L 22.090709 24.469079 
L 22.097473 24.451329 
L 22.168494 24.521679 
L 22.192168 24.518137 
L 22.324064 24.502862 
L 22.33421 24.480645 
L 22.388321 24.406378 
L 22.459342 24.478024 
L 22.564182 24.576784 
L 22.493161 24.456584 
L 22.57771 24.533805 
L 22.719752 24.415716 
L 22.723133 24.441338 
L 22.750189 24.359614 
L 22.827974 24.387458 
L 22.986925 24.287996 
L 23.007217 24.337952 
L 23.068092 24.422585 
L 23.118821 24.37186 
L 23.230425 24.316395 
L 23.159405 24.389086 
L 23.237189 24.319673 
L 23.41305 24.421001 
L 23.250717 24.30259 
L 23.419814 24.404899 
L 23.524655 24.349205 
L 23.541564 24.368488 
L 23.548328 24.388686 
L 24.045474 24.247747 
L 24.059002 24.271141 
L 24.126641 24.165093 
L 24.146933 24.193984 
L 24.17737 24.152465 
L 24.160461 24.219135 
L 24.258537 24.203281 
L 24.339704 24.253475 
L 24.356614 24.174838 
L 24.458072 24.156927 
L 24.376905 24.210476 
L 24.464836 24.175234 
L 24.535857 24.296008 
L 24.583204 24.22684 
L 24.701572 24.306405 
L 24.721864 24.271891 
L 24.779357 24.213994 
L 24.762447 24.278883 
L 24.833468 24.24529 
L 24.863905 24.307401 
L 24.92478 24.213671 
L 24.94169 24.217032 
L 25.08035 24.221476 
L 25.087114 24.200788 
L 25.266357 24.114263 
L 25.296795 24.162271 
L 25.347524 24.109774 
L 25.415163 24.20274 
L 25.574114 24.0626 
L 25.58426 24.088719 
L 25.634989 24.127619 
L 25.675573 24.037495 
L 25.763503 23.949368 
L 25.800705 23.981339 
L 25.905545 23.971639 
L 25.841288 23.920428 
L 25.912309 23.950651 
L 25.942746 23.917787 
L 25.976566 24.025105 
L 26.000239 24.003478 
L 26.054351 24.051113 
L 26.111844 23.98986 
L 26.240358 23.913347 
L 26.294469 23.928331 
L 26.280941 23.873727 
L 26.34858 23.891872 
L 26.45342 23.799654 
L 26.483858 23.834826 
L 26.59208 23.860787 
L 26.531205 23.90513 
L 26.595462 23.873402 
L 26.598844 23.892519 
L 26.656337 23.769704 
L 26.690156 23.778905 
L 26.903219 23.822532 
L 26.920129 23.759175 
L 26.994532 23.617373 
L 27.052025 23.670169 
L 27.369928 23.614845 
L 27.46124 23.533829 
L 27.491678 23.55574 
L 27.511969 23.536102 
L 27.630338 23.656328 
L 27.796053 23.469749 
L 27.647247 23.66568 
L 27.809581 23.50599 
L 27.927949 23.574658 
L 27.931331 23.570079 
L 27.944859 23.575807 
L 28.069991 23.500761 
L 28.151157 23.519625 
L 28.110574 23.449263 
L 28.181595 23.493429 
L 28.327018 23.447483 
L 28.425095 23.44114 
L 28.354074 23.41099 
L 28.435241 23.430636 
L 28.482588 23.386318 
L 28.462296 23.374631 
L 28.489352 23.342648 
L 28.611102 23.27876 
L 28.533317 23.378947 
L 28.617866 23.285272 
L 28.661831 23.37375 
L 28.72947 23.294633 
L 28.810637 23.391428 
L 28.736234 23.287576 
L 28.857984 23.364484 
L 28.88504 23.323997 
L 28.935769 23.443222 
L 28.959442 23.428316 
L 28.993262 23.483788 
L 29.057519 23.388214 
L 29.064283 23.405297 
L 29.213088 23.26923 
L 29.223234 23.292069 
L 29.747436 22.939941 
L 29.808311 22.916254 
L 29.845512 22.992373 
L 29.852276 22.974903 
L 29.933443 23.057949 
L 29.85904 22.969999 
L 29.977408 22.994957 
L 30.045047 22.833458 
L 30.149887 22.914854 
L 30.160033 22.951947 
L 30.214144 22.830829 
L 30.244582 22.862692 
L 30.329131 22.739683 
L 30.376478 22.780635 
L 30.657179 22.742067 
L 30.690999 22.78765 
L 30.836423 22.619026 
L 30.934499 22.59764 
L 30.948027 22.56131 
L 31.046103 22.448022 
L 31.076541 22.455144 
L 31.208437 22.376508 
L 31.28284 22.338877 
L 31.313277 22.417261 
L 31.316659 22.401005 
L 31.380916 22.310751 
L 31.421499 22.361831 
L 31.959229 22.020646 
L 31.965993 22.049333 
L 31.982902 22.083662 
L 31.972757 22.038979 
L 32.057305 22.003187 
L 32.189201 21.871807 
L 32.554451 20.517839 
L 32.578125 19.098818 
L 32.588271 8.58385 
L 32.686347 18.900458 
L 32.713403 23.442028 
L 32.801333 22.270374 
L 32.902792 19.437045 
L 32.912938 9.004958 
L 33.017778 17.506906 
L 33.044834 23.60909 
L 33.149674 22.127961 
L 33.240986 19.119559 
L 33.251132 9.123332 
L 33.352591 17.253735 
L 33.383028 23.701641 
L 33.494632 22.121032 
L 33.585945 19.478209 
L 33.599473 9.111926 
L 33.700931 17.49649 
L 33.731369 23.848398 
L 33.836209 22.534855 
L 33.957959 19.073371 
L 33.968105 9.042354 
L 34.069563 17.258886 
L 34.103383 24.008527 
L 34.214987 22.800671 
L 34.363793 19.423992 
L 34.37732 8.99466 
L 34.475397 17.200739 
L 34.505834 24.156625 
L 34.624202 23.126497 
L 34.712133 21.995787 
L 34.827119 19.309488 
L 34.837265 8.925367 
L 34.938723 17.737279 
L 34.965779 24.274994 
L 35.067237 23.573335 
L 35.371613 19.683515 
L 35.38514 8.877778 
L 35.483217 18.462984 
L 35.513654 24.365819 
L 35.601585 23.794031 
L 36.034474 20.546566 
L 36.068293 19.090336 
L 36.078439 8.864786 
L 36.173134 21.600276 
L 36.200189 24.325728 
L 36.28812 23.800405 
L 36.907016 19.522506 
L 36.920544 8.864929 
L 37.005093 19.140561 
L 37.03553 24.308108 
L 37.120079 23.822527 
L 37.465037 21.553279 
L 37.525912 21.324135 
L 37.78294 19.693095 
L 37.79985 8.82397 
L 37.881017 18.740343 
L 37.908072 24.351179 
L 37.999385 23.833616 
L 38.844871 19.394556 
L 38.858399 8.816262 
L 38.942948 21.86128 
L 38.973385 24.371204 
L 39.057934 23.866256 
L 39.409656 21.848582 
L 39.413038 21.851665 
L 39.43333 21.751871 
L 39.585518 21.22275 
L 39.649775 21.139279 
L 39.768143 21.032313 
L 39.788434 21.052613 
L 39.852691 20.937722 
L 39.947386 20.832106 
L 39.981205 20.859848 
L 40.414094 21.773727 
L 40.431004 21.747405 
L 40.512171 21.837513 
L 40.518935 21.832749 
L 41.144595 22.919614 
L 41.293401 23.240175 
L 41.716144 24.073677 
L 41.966408 24.581215 
L 42.10845 24.87384 
L 42.111832 24.86507 
L 42.307984 25.152799 
L 42.419589 25.085223 
L 42.35195 25.174271 
L 42.422971 25.086893 
L 42.541339 25.228588 
L 42.565012 25.185248 
L 42.608978 25.142207 
L 42.575158 25.204715 
L 42.659707 25.236918 
L 42.70029 25.288497 
L 42.751019 25.205041 
L 42.771311 25.236347 
L 42.80513 25.212626 
L 42.828804 25.275705 
L 42.882915 25.234609 
L 42.987756 25.350367 
L 42.903207 25.186291 
L 43.014811 25.281609 
L 43.126415 25.184148 
L 43.133179 25.20442 
L 43.23802 25.286571 
L 43.163617 25.19043 
L 43.251547 25.248301 
L 43.30904 25.176219 
L 43.369916 25.203669 
L 43.427409 25.189261 
L 43.396971 25.225383 
L 43.471374 25.247261 
L 43.589742 25.228101 
L 43.596506 25.23503 
L 43.647235 25.26137 
L 43.610034 25.220531 
L 43.70811 25.235222 
L 43.792659 25.249559 
L 43.799423 25.287341 
L 43.81295 25.336585 
L 43.883971 25.205212 
L 43.911027 25.290144 
L 43.917791 25.269008 
L 43.998958 25.370815 
L 44.09027 25.26952 
L 44.215402 25.192213 
L 44.218784 25.224054 
L 44.232312 25.200546 
L 44.337152 25.265981 
L 44.45552 25.170651 
L 44.381117 25.30964 
L 44.458902 25.184474 
L 44.61109 25.038039 
L 44.624618 25.101751 
L 44.74975 25.137969 
L 44.759895 25.110107 
L 44.895173 24.966122 
L 44.898555 24.973828 
L 44.949284 24.996467 
L 44.979722 24.941967 
L 45.003396 24.948195 
L 45.09809 24.837754 
L 45.121764 24.879327 
L 45.209694 24.939565 
L 45.175875 24.86175 
L 45.23675 24.905928 
L 45.372028 24.867884 
L 45.466722 24.899143 
L 45.395701 24.853321 
L 45.490396 24.885512 
L 45.520833 24.912899 
L 45.568181 24.803342 
L 45.581708 24.834178 
L 45.659493 24.712722 
L 45.703458 24.78862 
L 45.825209 24.813964 
L 45.82859 24.820719 
L 45.946959 24.869599 
L 45.859028 24.783646 
L 45.950341 24.858391 
L 46.24457 24.623731 
L 46.376466 24.525282 
L 46.264862 24.652708 
L 46.38323 24.552291 
L 46.420431 24.581537 
L 46.474542 24.515665 
L 46.48807 24.520872 
L 46.630112 24.607792 
L 46.657167 24.644462 
L 46.684223 24.554145 
L 46.745098 24.629448 
L 46.809355 24.592634 
L 46.76539 24.65792 
L 46.839792 24.68132 
L 46.937869 24.632373 
L 46.954779 24.693047 
L 46.998744 24.642512 
L 47.063001 24.705142 
L 47.174605 24.751151 
L 47.13064 24.6713 
L 47.181369 24.749651 
L 47.343702 24.791403 
L 47.360612 24.732509 
L 47.462071 24.698906 
L 47.407959 24.746211 
L 47.472216 24.732665 
L 47.553383 24.803195 
L 47.489126 24.718377 
L 47.614258 24.745657 
L 47.73939 24.688528 
L 47.803647 24.699371 
L 47.752918 24.714938 
L 47.823939 24.76128 
L 47.87805 24.794656 
L 47.898342 24.722813 
L 47.925397 24.728177 
L 47.955835 24.786676 
L 48.033619 24.752421 
L 48.179043 24.809751 
L 48.22639 24.731511 
L 48.290647 24.812853 
L 48.337995 24.817759 
L 48.354904 24.749462 
L 48.385342 24.761469 
L 48.39887 24.709494 
L 48.469891 24.789468 
L 48.493564 24.787245 
L 48.557821 24.742834 
L 48.60855 24.771564 
L 48.787793 24.776387 
L 48.791175 24.766537 
L 48.90278 24.680308 
L 48.916307 24.69812 
L 49.00762 24.702072 
L 48.99071 24.758146 
L 49.021148 24.736234 
L 49.153044 24.849734 
L 49.281558 24.697492 
L 49.295085 24.728433 
L 49.301849 24.719063 
L 49.558877 24.80218 
L 49.619752 24.734241 
L 49.670481 24.786052 
L 49.849725 24.722206 
L 49.856489 24.729088 
L 49.941037 24.754119 
L 49.961329 24.699347 
L 49.974857 24.724651 
L 50.076315 24.724702 
L 50.201447 24.735937 
L 50.204829 24.741575 
L 50.214975 24.758863 
L 50.282614 24.680917 
L 50.306287 24.698541 
L 50.390836 24.598083 
L 50.421274 24.6853 
L 50.563315 24.772842 
L 50.566697 24.768708 
L 50.583607 24.777415 
L 50.6411 24.676701 
L 50.695211 24.64108 
L 50.742558 24.721555 
L 50.74594 24.739237 
L 50.830489 24.664759 
L 50.850781 24.70532 
L 50.854163 24.682849 
L 50.925184 24.747706 
L 50.959003 24.712953 
L 51.385128 24.738138 
L 51.449385 24.702485 
L 51.476441 24.796745 
L 51.489969 24.773514 
L 51.625246 24.693889 
L 51.638774 24.729239 
L 51.642156 24.753089 
L 51.686121 24.661679 
L 51.746996 24.708323 
L 51.824781 24.633604 
L 51.868747 24.713551 
L 51.899184 24.772907 
L 51.933004 24.696081 
L 51.980351 24.707809 
L 52.078427 24.786279 
L 51.993879 24.674417 
L 52.112247 24.744694 
L 52.585719 24.684134 
L 52.592483 24.652793 
L 52.660122 24.725332 
L 52.690559 24.709261 
L 52.704087 24.696366 
L 52.842747 24.738436 
L 52.991553 24.622696 
L 53.126831 24.573889 
L 53.136976 24.58842 
L 53.262108 24.675324 
L 53.289164 24.64378 
L 53.38724 24.432925 
L 53.414296 24.475551 
L 53.576629 24.787625 
L 53.586775 24.813903 
L 53.613831 24.703204 
L 53.634123 24.708431 
L 53.644268 24.670061 
L 53.708525 24.747343 
L 53.745727 24.703539 
L 53.874241 24.650769 
L 53.884387 24.663315 
L 53.935116 24.530485 
L 53.975699 24.606485 
L 54.077157 24.590451 
L 54.006137 24.528824 
L 54.090685 24.548859 
L 54.100831 24.534841 
L 54.158324 24.696527 
L 54.161706 24.685682 
L 54.165088 24.716576 
L 54.259783 24.601918 
L 54.263165 24.606847 
L 54.310512 24.609618 
L 54.351095 24.54047 
L 54.354477 24.547561 
L 54.746783 24.374457 
L 54.851623 24.482402 
L 54.865151 24.474489 
L 54.969991 24.477232 
L 54.976755 24.446671 
L 55.024102 24.369203 
L 55.095123 24.434038 
L 55.132325 24.482147 
L 55.189818 24.366829 
L 55.1932 24.380526 
L 55.196582 24.354583 
L 55.291276 24.443087 
L 55.294658 24.433185 
L 55.308186 24.460471 
L 55.355533 24.338903 
L 55.379207 24.361164 
L 55.490811 24.34565 
L 55.500957 24.356712 
L 55.83577 24.315213 
L 55.920318 24.30416 
L 55.883117 24.334814 
L 55.943992 24.323043 
L 56.106325 24.468906 
L 56.170582 24.414506 
L 56.217929 24.461974 
L 56.221311 24.471701 
L 56.258513 24.365075 
L 56.299096 24.357918 
L 56.30586 24.334162 
L 56.363353 24.420702 
L 56.397173 24.417188 
L 56.495249 24.40639 
L 56.474957 24.330842 
L 56.498631 24.375445 
L 56.674492 24.221061 
L 56.677874 24.224862 
L 56.681256 24.250239 
L 56.772569 24.171076 
L 56.789478 24.228335 
L 56.830062 24.13704 
L 56.928138 24.209367 
L 57.012687 24.244078 
L 56.958576 24.173024 
L 57.046506 24.22571 
L 57.063416 24.176926 
L 57.147965 24.261824 
L 57.151347 24.247409 
L 57.266333 24.324217 
L 57.290006 24.283663 
L 57.384701 24.183561 
L 57.411757 24.249992 
L 57.462486 24.298078 
L 57.516597 24.21271 
L 57.618055 24.120478 
L 57.634965 24.197513 
L 57.702604 24.195553 
L 57.668784 24.141348 
L 57.733041 24.144592 
L 57.797298 24.216912 
L 57.915667 24.314008 
L 58.017125 24.23972 
L 58.027271 24.267827 
L 58.078 24.329377 
L 58.04418 24.259088 
L 58.149021 24.30647 
L 58.274153 24.150004 
L 58.382375 24.131058 
L 58.328264 24.188671 
L 58.385757 24.141276 
L 58.517653 24.269023 
L 58.392521 24.13438 
L 58.531181 24.219584 
L 58.636021 24.14591 
L 58.649549 24.171128 
L 58.801736 24.002298 
L 58.805118 24.005162 
L 59.031709 24.112848 
L 58.835556 23.976163 
L 59.041855 24.103114 
L 59.197424 24.045449 
L 59.200806 24.064798 
L 59.268445 24.141767 
L 59.322556 24.087019 
L 59.812938 23.801607 
L 59.83323 23.837577 
L 59.951598 23.890738 
L 60.022619 23.887313 
L 59.992182 23.940753 
L 60.056439 23.923569 
L 60.124077 23.917883 
L 60.137605 23.851052 
L 60.357432 23.666892 
L 60.147751 23.856813 
L 60.360814 23.681256 
L 60.398015 23.709034 
L 60.455508 23.631932 
L 60.509619 23.559623 
L 60.570494 23.608393 
L 60.600932 23.651604 
L 60.627987 23.593709 
L 60.678717 23.589368 
L 60.820758 23.448097 
L 61.023675 23.303763 
L 61.128515 23.1987 
L 61.148807 23.218006 
L 61.155571 23.242083 
L 61.202918 23.104473 
L 61.229974 23.116068 
L 61.290849 23.133839 
L 61.32805 23.077279 
L 61.503912 22.901196 
L 61.618898 22.982499 
L 61.632425 22.971996 
L 61.737266 22.928124 
L 61.649335 22.940481 
L 61.740648 22.914391 
L 61.892835 22.710917 
L 61.764321 22.928514 
L 61.896217 22.716134 
L 61.909745 22.743077 
L 61.960474 22.661977 
L 62.007822 22.712523 
L 62.21412 22.446786 
L 62.308815 22.375312 
L 62.251322 22.477475 
L 62.329106 22.416297 
L 62.761996 22.300042 
L 62.765377 22.313684 
L 62.853308 22.209519 
L 63.144155 21.971238 
L 62.907419 22.250874 
L 63.147537 21.974807 
L 63.171211 21.991862 
L 63.208412 21.869654 
L 63.292961 21.760095 
L 63.387656 21.651315 
L 63.424857 21.678044 
L 63.49926 21.687154 
L 63.455295 21.627212 
L 63.529697 21.648587 
L 63.62101 21.30947 
L 63.783343 20.058751 
L 63.796871 13.742724 
L 63.803635 8.583692 
L 63.901711 20.349009 
L 63.922003 23.394329 
L 64.013316 22.182876 
L 64.10801 19.683264 
L 64.121538 9.015299 
L 64.226378 17.955382 
L 64.250052 23.54372 
L 64.348128 22.14397 
L 64.439441 19.311582 
L 64.449587 9.18133 
L 64.551045 17.261041 
L 64.578101 23.624575 
L 64.689705 22.013892 
L 64.777636 18.332191 
L 64.787781 9.157041 
L 64.885858 17.142935 
L 64.916295 23.766762 
L 65.034663 22.150552 
L 65.13274 18.41907 
L 65.142886 9.091343 
L 65.240962 17.053233 
L 65.274782 23.940615 
L 65.39315 22.533352 
L 65.521664 19.010256 
L 65.53181 9.013188 
L 65.633268 17.394043 
L 65.663705 24.078632 
L 65.771928 23.065897 
L 65.954553 19.763173 
L 65.968081 8.958839 
L 66.072921 18.486505 
L 66.099977 24.213347 
L 66.191289 23.503253 
L 66.441553 20.573502 
L 66.468609 18.82326 
L 66.478754 8.908471 
L 66.576831 18.146403 
L 66.603887 24.299652 
L 66.698581 23.68377 
L 67.063831 20.401279 
L 67.087505 18.362604 
L 67.097651 8.885234 
L 67.195727 22.587256 
L 67.219401 24.328628 
L 67.310713 23.772626 
L 67.905936 19.106109 
L 67.919464 8.890729 
L 68.007394 22.72445 
L 68.027686 24.24373 
L 68.12238 23.6711 
L 68.396318 21.697024 
L 68.558651 21.015324 
L 68.714221 19.784497 
L 68.727749 10.37213 
L 68.731131 8.864249 
L 68.815679 19.439412 
L 68.846117 24.316119 
L 68.930666 23.797979 
L 69.079471 22.786221 
L 69.42443 21.124373 
L 69.434576 21.145971 
L 69.569853 20.733297 
L 69.718659 19.890498 
L 69.732187 16.498779 
L 69.742333 8.858864 
L 69.837027 24.128469 
L 69.850555 24.327838 
L 69.935104 23.807525 
L 70.513416 20.994134 
L 70.516798 20.997432 
L 70.52018 21.019039 
L 70.594583 20.884284 
L 70.614875 20.91723 
L 70.736625 20.815462 
L 70.746771 20.82987 
L 70.767062 20.809133 
L 71.270972 21.614258 
L 71.392722 21.836356 
L 71.399486 21.809245 
L 71.446834 21.906753 
L 71.588875 22.241118 
L 71.605785 22.215637 
L 72.136751 23.240406 
L 72.143515 23.231795 
L 72.160424 23.303612 
L 72.177334 23.331322 
L 72.39716 23.846651 
L 72.478327 23.893513 
L 72.43098 23.91265 
L 72.481709 23.905596 
L 72.701536 24.66013 
L 72.789466 24.680297 
L 72.755647 24.748857 
L 72.799612 24.69267 
L 72.941654 24.969843 
L 72.958564 24.954773 
L 73.137807 25.162523 
L 72.965327 24.950206 
L 73.141189 25.156337 
L 73.175008 25.121851 
L 73.218973 25.246697 
L 73.232501 25.241565 
L 73.347487 25.363959 
L 73.371161 25.34488 
L 73.476001 25.4394 
L 73.519967 25.324326 
L 73.733029 25.20131 
L 73.807432 25.221634 
L 73.834488 25.172327 
L 73.851397 25.121601 
L 73.915654 25.21287 
L 73.939328 25.197778 
L 74.115189 25.180647 
L 74.223411 25.061335 
L 74.236939 25.106457 
L 74.44662 24.969308 
L 74.250467 25.116573 
L 74.453384 24.977272 
L 74.460148 24.992159 
L 74.534551 24.867598 
L 74.558224 24.84315 
L 74.619099 24.929556 
L 74.636009 24.908429 
L 74.84569 24.830291 
L 74.855835 24.849011 
L 74.953912 24.983072 
L 74.984349 24.97153 
L 75.051988 24.999161 
L 74.997877 24.903316 
L 75.095954 24.942329 
L 75.099336 24.927208 
L 75.160211 25.005548 
L 75.19403 25.008788 
L 75.278579 25.031454 
L 75.22785 24.982424 
L 75.295488 24.976792 
L 75.457822 24.759011 
L 75.302252 24.984142 
L 75.467968 24.792687 
L 75.582954 24.816051 
L 75.542371 24.752855 
L 75.586336 24.810837 
L 75.735141 24.837833 
L 75.738523 24.833238 
L 75.779107 24.775749 
L 75.850128 24.813348 
L 75.856892 24.833771 
L 75.917767 24.73648 
L 75.944822 24.753026 
L 75.95835 24.727517 
L 75.978642 24.803408 
L 76.053044 24.775216 
L 76.124065 24.808821 
L 76.059808 24.767715 
L 76.164649 24.735572 
L 76.326982 24.702831 
L 76.337128 24.721101 
L 76.435204 24.783003 
L 76.398003 24.689544 
L 76.452114 24.758533 
L 76.475788 24.810073 
L 76.560336 24.740196 
L 76.68885 24.747277 
L 76.692232 24.7388 
L 76.756489 24.65988 
L 76.807218 24.701735 
L 76.925587 24.70419 
L 76.854566 24.774312 
L 76.939114 24.728746 
L 77.047337 24.784385 
L 77.060864 24.773823 
L 77.175851 24.724757 
L 77.118358 24.839083 
L 77.179233 24.743955 
L 77.206288 24.800501 
L 77.270545 24.718136 
L 77.287455 24.722351 
L 77.449788 24.821075 
L 77.561392 24.77369 
L 77.564774 24.782715 
L 77.601976 24.744643 
L 77.683143 24.782407 
L 77.798129 24.788145 
L 77.706816 24.756603 
L 77.804893 24.775756 
L 77.838712 24.774389 
L 77.886059 24.833888 
L 77.906351 24.819675 
L 78.014573 24.767752 
L 78.017955 24.744222 
L 78.072066 24.725925 
L 78.105886 24.803912 
L 78.116032 24.780259 
L 78.193816 24.81862 
L 78.129559 24.771873 
L 78.224254 24.758902 
L 78.281747 24.826723 
L 78.2344 24.743187 
L 78.35615 24.744229 
L 78.488046 24.685042 
L 78.491428 24.692581 
L 78.833004 24.775263 
L 78.883733 24.83376 
L 78.853296 24.766036 
L 78.941227 24.768821 
L 79.052831 24.701263 
L 79.062977 24.71466 
L 79.123852 24.772231 
L 79.073122 24.705086 
L 79.184727 24.726524 
L 79.296331 24.665687 
L 79.303095 24.670078 
L 79.458664 24.807148 
L 79.462046 24.798291 
L 79.583796 24.67463 
L 79.668345 24.801793 
L 79.597324 24.671943 
L 79.705546 24.768595 
L 79.725838 24.831326 
L 79.803623 24.716139 
L 79.813769 24.75456 
L 80.25004 24.706706 
L 80.253422 24.717954 
L 80.307533 24.71929 
L 80.26695 24.681095 
L 80.327825 24.640002 
L 80.344734 24.672144 
L 80.452957 24.689025 
L 80.473248 24.747339 
L 80.567943 24.71817 
L 80.625436 24.67431 
L 80.676165 24.737607 
L 80.750568 24.809256 
L 80.689693 24.725238 
L 80.784387 24.73122 
L 80.838498 24.683038 
L 80.89261 24.76494 
L 81.261242 24.657945 
L 81.311971 24.650289 
L 81.349172 24.746429 
L 81.386374 24.778412 
L 81.426957 24.676181 
L 81.443867 24.648047 
L 81.504742 24.798226 
L 81.511506 24.797806 
L 81.572381 24.836363 
L 81.525034 24.773213 
L 81.609582 24.735867 
L 81.626492 24.699708 
L 81.711041 24.796419 
L 81.876756 24.776054 
L 81.944395 24.7803 
L 81.961305 24.724732 
L 81.981596 24.737174 
L 81.98836 24.745757 
L 82.008652 24.65441 
L 82.076291 24.676286 
L 82.214951 24.675067 
L 82.093201 24.657467 
L 82.218333 24.670581 
L 82.323173 24.645194 
L 82.245388 24.705846 
L 82.333319 24.649376 
L 82.411103 24.735081 
L 82.451687 24.694808 
L 82.549763 24.705417 
L 82.529472 24.762813 
L 82.553145 24.734743 
L 82.657986 24.770817 
L 82.63093 24.706349 
L 82.664749 24.748681 
L 82.783118 24.674892 
L 82.685041 24.754224 
L 82.789881 24.696859 
L 82.904868 24.682147 
L 82.854138 24.751415 
L 82.911632 24.686677 
L 83.002944 24.779438 
L 82.962361 24.677151 
L 83.03 24.745839 
L 83.124694 24.755594 
L 83.053673 24.786849 
L 83.131458 24.779174 
L 83.13484 24.796246 
L 83.216007 24.708031 
L 83.232916 24.736653 
L 83.364812 24.641585 
L 83.374958 24.680506 
L 83.388486 24.702752 
L 83.435833 24.61366 
L 83.48318 24.6707 
L 83.530528 24.632101 
L 83.591403 24.666568 
L 83.696243 24.723943 
L 83.706389 24.671504 
L 83.719917 24.68927 
L 83.841667 24.625363 
L 83.946507 24.776377 
L 83.970181 24.743484 
L 84.095313 24.624907 
L 84.105459 24.658537 
L 84.193389 24.697834 
L 84.122368 24.604322 
L 84.217063 24.655337 
L 84.261028 24.728669 
L 84.308375 24.691897 
L 84.409834 24.651469 
L 84.426743 24.74623 
L 84.440271 24.777323 
L 84.480855 24.682847 
L 84.528202 24.708787 
L 84.54173 24.685959 
L 84.61275 24.772337 
L 84.636424 24.734222 
L 84.731119 24.683946 
L 84.666862 24.807269 
L 84.754792 24.72396 
L 84.879924 24.708962 
L 84.89007 24.721764 
L 84.947563 24.809511 
L 85.008438 24.745393 
L 85.089605 24.596334 
L 85.136952 24.661926 
L 85.299286 24.623515 
L 85.363543 24.591786 
L 85.390598 24.668155 
L 85.400744 24.669086 
L 85.404126 24.684318 
L 85.478529 24.600486 
L 85.49882 24.611939 
L 86.1583 24.306866 
L 86.283432 24.201232 
L 86.188737 24.33436 
L 86.317251 24.231664 
L 86.344307 24.263323 
L 86.398418 24.141753 
L 86.41871 24.190535 
L 86.516786 24.104334 
L 86.54046 24.128133 
L 86.631772 24.015909 
L 86.689266 24.073755 
L 86.763668 24.094058 
L 86.709557 24.041022 
L 86.797488 24.040948 
L 86.92262 23.87422 
L 86.929384 23.88195 
L 86.936148 23.868194 
L 87.091717 23.953055 
L 87.101863 23.914456 
L 87.162738 23.99461 
L 87.196557 23.977104 
L 87.355509 24.083068 
L 87.365655 24.054879 
L 87.433294 23.9854 
L 87.385946 24.062118 
L 87.480641 24.022277 
L 87.602391 24.053621 
L 87.619301 24.00793 
L 87.690322 23.937188 
L 87.737669 23.95544 
L 87.818836 24.000879 
L 87.771488 23.912406 
L 87.856037 23.952851 
L 87.866183 23.932912 
L 88.004843 23.957455 
L 88.011607 23.928314 
L 88.086009 24.0587 
L 88.102919 24.020071 
L 88.153648 24.034349 
L 88.187468 23.949927 
L 88.532426 23.768681 
L 88.562864 23.784071 
L 88.66094 23.693332 
L 88.731961 23.671599 
L 88.687996 23.630431 
L 88.755635 23.632512 
L 88.833419 23.503194 
L 88.836801 23.495207 
L 88.897676 23.577577 
L 88.92135 23.569664 
L 88.93826 23.608359 
L 88.985607 23.534181 
L 89.022808 23.535347 
L 89.127649 23.434982 
L 89.080302 23.586288 
L 89.141177 23.491404 
L 89.168232 23.513169 
L 89.2866 23.373606 
L 89.384677 23.340579 
L 89.333947 23.301936 
L 89.388059 23.330552 
L 89.58083 23.264016 
L 89.394823 23.338827 
L 89.584212 23.284068 
L 89.587593 23.292935 
L 89.645087 23.194902 
L 89.661996 23.191323 
L 89.689052 23.199891 
L 89.793892 23.108926 
L 89.800656 23.082132 
L 89.831094 23.204581 
L 89.878441 23.162867 
L 89.908878 23.190822 
L 89.942698 23.079047 
L 89.979899 23.116345 
L 90.010337 23.170558 
L 89.986663 23.102316 
L 90.08474 23.092597 
L 90.165906 23.003762 
L 90.199726 23.063918 
L 90.348531 22.940441 
L 90.426316 22.977389 
L 90.365441 22.912754 
L 90.463518 22.955531 
L 90.531156 22.910691 
L 90.477045 22.971964 
L 90.564976 22.984614 
L 90.612323 23.020825 
L 90.585268 22.971239 
L 90.679962 22.993056 
L 90.784802 22.909385 
L 90.713782 23.030747 
L 90.801712 22.944349 
L 90.913316 22.954007 
L 90.92008 22.943772 
L 90.987719 22.84457 
L 91.028303 22.948857 
L 91.068886 22.952405 
L 91.068886 22.952405 
" clip-path="url(#p91cba67ecc)" style="fill: none; stroke: #000000; stroke-width: 0.6; stroke-linecap: square"/>
   </g>
   <g id="line2d_2">
    <path d="M 9.905557 39.825538 
L 10.152439 39.620136 
L 10.165967 39.669082 
L 10.341828 39.736627 
L 10.46696 39.834855 
L 10.473724 39.823054 
L 10.619148 39.93353 
L 10.652967 39.841951 
L 10.808537 39.653098 
L 11.298919 39.557732 
L 11.471398 39.425484 
L 11.545801 39.347214 
L 11.586384 39.4172 
L 11.606676 39.406094 
L 11.704752 39.503682 
L 11.853558 39.462923 
L 11.860322 39.476761 
L 11.863704 39.489365 
L 11.944871 39.37643 
L 11.948253 39.3789 
L 12.039565 39.255147 
L 12.080148 39.284533 
L 12.08353 39.292678 
L 12.141024 39.221119 
L 12.168079 39.210343 
L 12.269537 39.111278 
L 12.330413 39.018393 
L 12.387906 39.089432 
L 12.506274 39.071615 
L 12.513038 39.024622 
L 12.614496 38.954962 
L 12.631406 38.970521 
L 12.736246 38.888786 
L 12.908725 38.494398 
L 12.915489 38.504227 
L 12.922253 38.541828 
L 13.006802 38.402175 
L 13.233392 36.951544 
L 13.253684 30.777909 
L 13.26383 27.314273 
L 13.348378 38.636315 
L 13.358524 38.695508 
L 13.412635 38.301776 
L 13.534385 36.021653 
L 13.554677 29.368843 
L 13.62908 38.938028 
L 13.632462 38.933186 
L 13.649372 38.830502 
L 13.784649 36.41054 
L 13.804941 29.141848 
L 13.875962 39.216487 
L 13.882726 39.261625 
L 13.940219 38.632406 
L 14.041677 36.118756 
L 14.058587 28.72639 
L 14.136372 39.658734 
L 14.258122 38.094564 
L 14.315615 35.916944 
L 14.329143 28.279887 
L 14.410309 40.04396 
L 14.413691 40.037356 
L 14.582789 37.719308 
L 14.616608 34.400443 
L 14.626754 27.829895 
L 14.711303 40.3983 
L 14.721449 40.338206 
L 14.948039 36.552735 
L 14.964949 27.582725 
L 15.039351 40.333731 
L 15.052879 40.621129 
L 15.137428 39.698055 
L 15.313289 37.568434 
L 15.340345 35.315497 
L 15.353872 27.53893 
L 15.438421 40.666742 
L 15.441803 40.651843 
L 15.715741 37.891076 
L 15.763088 35.802365 
L 15.776616 27.581413 
L 15.861164 40.681208 
L 15.925421 40.130005 
L 16.239942 36.793462 
L 16.263616 27.73429 
L 16.321109 38.447138 
L 16.348165 40.547975 
L 16.436095 39.764929 
L 16.699887 37.734931 
L 16.74047 36.870327 
L 16.767526 27.828788 
L 16.821637 38.11342 
L 16.855457 40.505922 
L 16.936623 39.822353 
L 17.180123 38.173065 
L 17.183505 38.179265 
L 17.301874 37.150706 
L 17.325547 33.04088 
L 17.339075 28.111512 
L 17.423624 40.334351 
L 17.819311 37.761479 
L 17.856513 37.382109 
L 17.88695 35.440949 
L 17.90386 27.953503 
L 17.985027 40.365797 
L 17.988409 40.387539 
L 18.039138 40.021843 
L 18.265728 38.604785 
L 18.306312 38.531276 
L 18.282638 38.528627 
L 18.309694 38.513554 
L 18.583631 37.038034 
L 18.607305 32.627138 
L 18.620833 28.274138 
L 18.705381 40.118601 
L 18.735819 39.931488 
L 19.019902 38.412726 
L 19.023284 38.414324 
L 19.165326 38.125493 
L 19.17209 38.148829 
L 19.209291 38.157071 
L 19.249875 38.070631 
L 19.314132 37.983343 
L 19.256639 38.082704 
L 19.375007 37.997573 
L 19.391916 38.034865 
L 19.395298 38.067736 
L 19.594833 40.208337 
L 19.598215 40.205672 
L 19.922882 41.272717 
L 19.929646 41.265953 
L 19.976993 41.376144 
L 20.05816 41.567234 
L 20.105507 41.560137 
L 20.108889 41.54184 
L 20.17991 41.71786 
L 20.186674 41.712291 
L 20.365917 41.998266 
L 20.369299 41.992474 
L 20.433556 42.028789 
L 20.396354 42.07272 
L 20.443702 42.073902 
L 20.511341 42.123569 
L 20.460611 42.020324 
L 20.551924 42.079609 
L 20.555306 42.05414 
L 20.619563 42.163374 
L 20.653382 42.153273 
L 20.785278 42.262494 
L 20.717639 42.130842 
L 20.78866 42.255254 
L 20.80557 42.296959 
L 20.92732 42.157962 
L 20.991577 42.123578 
L 21.042306 42.168629 
L 21.096417 42.189024 
L 21.08289 42.133673 
L 21.137001 42.117853 
L 21.201258 42.078831 
L 21.147146 42.122345 
L 21.245223 42.142834 
L 21.312862 42.055053 
L 21.410938 42.044265 
L 21.356827 42.113655 
L 21.421084 42.066013 
L 21.458286 42.103284 
L 21.505633 42.01349 
L 21.522543 42.026485 
L 21.529306 41.997858 
L 21.610473 42.148659 
L 21.613855 42.143097 
L 22.361265 42.099844 
L 22.368029 42.132731 
L 22.466106 42.046418 
L 22.554036 41.905547 
L 22.5608 41.880684 
L 22.591238 41.94949 
L 22.655495 41.941222 
L 22.770481 41.986301 
L 22.736661 41.91741 
L 22.773863 41.982788 
L 22.777245 41.968492 
L 22.811064 42.092606 
L 22.871939 42.031562 
L 22.993689 42.044642 
L 22.888849 42.00611 
L 23.003835 42.035556 
L 23.078238 41.965883 
L 23.118821 42.019631 
L 23.22028 42.0689 
L 23.135731 42.015024 
L 23.233807 42.044479 
L 23.301446 42.010137 
L 23.321738 42.076745 
L 23.345412 42.045127 
L 23.41305 42.077797 
L 23.369085 42.00225 
L 23.457016 42.032557 
L 23.680224 41.913024 
L 23.693752 41.955925 
L 23.798592 41.995404 
L 23.710662 41.941855 
L 23.81212 41.958257 
L 23.852704 42.063195 
L 23.937252 42.037533 
L 23.893287 42.008866 
L 23.954162 42.016612 
L 24.045474 41.974351 
L 24.079294 42.015064 
L 24.143551 42.026528 
L 24.160461 41.96342 
L 24.17737 41.988509 
L 24.187516 41.964355 
L 24.245009 42.062051 
L 24.282211 42.023741 
L 24.556148 41.922043 
L 24.292357 42.043085 
L 24.562912 41.964976 
L 24.708336 41.989969 
L 24.573058 41.940353 
L 24.718482 41.965822 
L 25.23592 42.189871 
L 25.246065 42.23539 
L 25.313704 42.128756 
L 25.333996 42.134016 
L 26.047587 42.035857 
L 26.050969 42.058568 
L 26.115226 42.07832 
L 26.07126 42.017158 
L 26.159191 42.045376 
L 26.480476 41.784789 
L 26.497386 41.831742 
L 26.619136 42.095367 
L 26.639427 42.086974 
L 26.71383 42.030545 
L 26.649573 42.101444 
L 26.767941 42.070897 
L 26.889691 42.137883 
L 26.842344 42.049185 
L 26.896455 42.130353 
L 26.903219 42.1403 
L 27.092608 41.893789 
L 27.292143 42.068793 
L 27.305671 42.01897 
L 27.369928 42.110347 
L 27.403747 42.049363 
L 27.491678 42.163993 
L 27.518733 42.119015 
L 27.555935 42.068694 
L 27.633719 42.097624 
L 27.691213 42.014006 
L 27.758851 42.02775 
L 27.829872 42.073341 
L 27.867074 42.02558 
L 28.005734 41.9128 
L 28.009115 41.918357 
L 28.127484 41.960704 
L 28.144393 41.927319 
L 28.168067 41.986859 
L 28.239088 41.965088 
L 28.516407 42.167791 
L 28.529935 42.125268 
L 28.71256 41.982286 
L 28.540081 42.136207 
L 28.719324 42.000077 
L 28.76329 42.063801 
L 28.797109 41.886154 
L 28.817401 41.910273 
L 29.574957 41.874031 
L 29.693325 41.81383 
L 29.59863 41.893256 
L 29.700089 41.836645 
L 29.811693 41.90163 
L 29.815075 41.922362 
L 29.828603 41.955158 
L 29.855658 41.874148 
L 29.916533 41.890041 
L 30.028137 41.819806 
L 29.960499 41.929546 
L 30.038283 41.854944 
L 30.193853 41.999661 
L 30.217526 41.967743 
L 30.271638 41.940524 
L 30.308839 42.052723 
L 30.474554 42.023161 
L 30.335895 42.081942 
L 30.477936 42.027762 
L 30.545575 42.057857 
L 30.494846 42.013043 
L 30.589541 42.018078 
L 31.103596 41.856488 
L 31.113742 41.919125 
L 31.228728 42.024063 
L 31.235492 42.011202 
L 31.276076 42.048004 
L 31.37077 41.939535 
L 31.458701 42.023739 
L 31.462083 42.05102 
L 31.560159 41.95392 
L 31.64809 41.979136 
L 31.577069 41.93593 
L 31.675145 41.919974 
L 31.702201 41.934999 
L 31.796895 41.83896 
L 31.834097 41.896291 
L 31.898354 41.804215 
L 32.097889 41.652017 
L 31.905118 41.813308 
L 32.101271 41.668829 
L 32.425937 41.763223 
L 32.429319 41.733152 
L 32.51725 41.818534 
L 32.53416 41.789842 
L 32.666056 41.720168 
L 32.669437 41.727824 
L 32.679583 41.76997 
L 32.750604 41.703848 
L 32.781042 41.724797 
L 32.923083 41.66935 
L 32.936611 41.685533 
L 33.034688 41.727817 
L 33.011014 41.641039 
L 33.051597 41.716211 
L 33.295098 41.70943 
L 33.301861 41.742211 
L 33.305243 41.755408 
L 33.389792 41.649888 
L 33.406702 41.710023 
L 33.54198 41.572787 
L 33.545362 41.587058 
L 33.623146 41.48676 
L 33.636674 41.510165 
L 33.778716 41.445803 
L 33.667112 41.554618 
L 33.78548 41.460378 
L 33.880174 41.485376 
L 33.826063 41.402442 
L 33.897084 41.437262 
L 34.005306 41.380615 
L 34.015452 41.385988 
L 34.123674 41.433122 
L 34.13382 41.395757 
L 34.465251 41.334001 
L 34.140584 41.420938 
L 34.482161 41.407364 
L 34.526126 41.377152 
L 34.630966 41.478994 
L 34.75948 41.303809 
L 34.962397 41.25788 
L 34.769626 41.322915 
L 34.965779 41.267732 
L 35.111203 41.448963 
L 35.131494 41.416685 
L 35.266772 41.332308 
L 35.148404 41.428131 
L 35.273536 41.358287 
L 35.398668 41.411634 
L 35.41896 41.385065 
L 35.425724 41.390977 
L 35.601585 41.229826 
L 35.672606 41.266582 
L 35.699661 41.191125 
L 35.703043 41.196689 
L 35.719953 41.211755 
L 35.845085 41.150833 
L 35.973599 41.222069 
L 35.872141 41.119078 
L 35.990509 41.161251 
L 36.139314 40.980119 
L 36.311794 41.069367 
L 36.315176 41.062607 
L 36.40987 40.955222 
L 36.440308 40.986888 
L 36.518092 41.05398 
L 36.463981 40.953342 
L 36.56544 41.010238 
L 36.633079 40.946669 
L 36.65337 41.033179 
L 36.680426 40.97034 
L 36.77512 41.029365 
L 36.795412 40.980828 
L 36.829231 41.010895 
L 36.907016 40.971054 
L 36.93069 41.03805 
L 36.991565 40.860155 
L 37.005093 40.892449 
L 37.025384 40.823065 
L 37.116697 40.885127 
L 37.299322 41.020048 
L 37.130225 40.858036 
L 37.350051 40.950916 
L 37.377107 40.833751 
L 37.380489 40.847934 
L 37.383871 40.82684 
L 37.444746 40.93054 
L 37.485329 40.885701 
L 37.630753 40.660917 
L 37.654426 40.73095 
L 37.742357 40.811241 
L 37.769412 40.78274 
L 37.847197 40.74975 
L 37.820142 40.82231 
L 37.874253 40.791536 
L 37.979093 40.850098 
L 37.989239 40.826575 
L 38.016295 40.845253 
L 38.151572 40.748745 
L 38.266559 40.749222 
L 38.276704 40.719674 
L 38.401836 40.631359 
L 38.415364 40.638504 
L 38.513441 40.668629 
L 38.42551 40.625586 
L 38.526968 40.621947 
L 38.729885 40.526158 
L 38.533732 40.634964 
L 38.756941 40.582124 
L 38.844871 40.599989 
L 38.821198 40.566292 
L 38.868545 40.579733 
L 38.92942 40.498625 
L 38.959858 40.632895 
L 38.973385 40.600395 
L 39.047788 40.665074 
L 39.088372 40.63653 
L 39.169538 40.580292 
L 39.193212 40.678212 
L 39.29467 40.73886 
L 39.223649 40.642792 
L 39.318344 40.722437 
L 39.457004 40.708139 
L 39.46715 40.701542 
L 39.575372 40.767249 
L 39.720795 40.628811 
L 39.615955 40.800136 
L 39.727559 40.649383 
L 39.764761 40.684351 
L 39.801962 40.570748 
L 39.829018 40.596043 
L 40.089428 40.525316 
L 40.106337 40.566294 
L 40.136775 40.592939 
L 40.170594 40.505919 
L 40.207796 40.513104 
L 40.393803 40.519228 
L 40.403949 40.470096 
L 40.485115 40.471325 
L 40.437768 40.515587 
L 40.505407 40.509047 
L 40.627157 40.429197 
L 40.644067 40.442204 
L 40.745525 40.379509 
L 40.765817 40.330975 
L 40.84022 40.446438 
L 40.843602 40.439299 
L 40.924768 40.485231 
L 40.968734 40.388683 
L 41.120921 40.309308 
L 41.18856 40.226621 
L 41.235907 40.311348 
L 41.273109 40.263165 
L 41.306928 40.341612 
L 41.347512 40.320126 
L 41.44897 40.363049 
L 41.384713 40.305329 
L 41.462498 40.33996 
L 41.584248 40.245351 
L 41.597776 40.311524 
L 41.739817 40.221162 
L 41.844658 40.10457 
L 41.858186 40.142899 
L 41.912297 40.060369 
L 41.868331 40.161659 
L 41.973172 40.160397 
L 42.081394 40.181877 
L 42.047575 40.098355 
L 42.084776 40.172795 
L 42.125359 40.188608 
L 42.209908 40.059709 
L 42.328276 40.196166 
L 42.355332 40.158828 
L 42.392533 40.0883 
L 42.43988 40.205872 
L 42.466936 40.147002 
L 42.571776 40.118866 
L 42.507519 40.178555 
L 42.585304 40.143783 
L 42.598832 40.183758 
L 42.652943 40.023635 
L 42.656325 40.024088 
L 42.80513 39.838874 
L 42.669853 40.031438 
L 42.811894 39.864807 
L 42.940408 39.910414 
L 42.950554 39.902933 
L 43.055395 39.910607 
L 43.008047 39.98222 
L 43.058776 39.923154 
L 43.085832 39.974567 
L 43.153471 39.879423 
L 43.160235 39.885529 
L 43.332714 39.775743 
L 43.454464 39.858649 
L 43.457846 39.845716 
L 43.555923 39.740291 
L 43.58636 39.776779 
L 43.890735 39.878003 
L 43.911027 39.915626 
L 43.965138 39.804578 
L 43.992194 39.802778 
L 44.056451 39.74292 
L 44.110562 39.829362 
L 44.242458 39.670015 
L 44.269513 39.705357 
L 44.634763 39.599002 
L 44.712548 39.701455 
L 44.746368 39.607111 
L 44.797097 39.608139 
L 44.824152 39.532892 
L 44.935757 39.414546 
L 44.830916 39.543879 
L 44.962812 39.428568 
L 45.006778 39.430129 
L 44.972958 39.407802 
L 45.030451 39.357488 
L 45.094708 39.311651 
L 45.071035 39.362348 
L 45.142055 39.345917 
L 45.148819 39.333464 
L 45.277333 39.308956 
L 45.432903 39.180948 
L 45.301007 39.355481 
L 45.443049 39.211435 
L 45.561417 39.306311 
L 45.571563 39.300054 
L 45.578326 39.279064 
L 45.662875 39.393874 
L 45.673021 39.362121 
L 45.774479 39.367273 
L 45.730514 39.264325 
L 45.784625 39.345156 
L 45.855646 39.348428 
L 45.804917 39.330339 
L 45.87932 39.294964 
L 46.160021 38.93674 
L 46.163403 38.946393 
L 46.22766 38.869058 
L 46.254716 38.872306 
L 46.318973 38.873892 
L 46.271625 38.84465 
L 46.339264 38.815118 
L 46.417049 38.741486 
L 46.454251 38.807777 
L 46.484688 38.803512 
L 46.508362 38.724231 
L 46.657167 38.473068 
L 46.839792 38.077093 
L 46.978452 36.608017 
L 47.005508 27.366318 
L 47.073147 38.054973 
L 47.09682 38.572719 
L 47.181369 37.940086 
L 47.259154 36.166217 
L 47.279445 29.530727 
L 47.353848 38.847726 
L 47.360612 38.868963 
L 47.380904 38.657761 
L 47.506036 35.668631 
L 47.522946 29.33257 
L 47.597348 39.133877 
L 47.604112 39.116821 
L 47.61764 38.995054 
L 47.749536 36.148513 
L 47.766446 28.855668 
L 47.84423 39.553868 
L 47.864522 39.403208 
L 48.01671 35.213374 
L 48.030238 28.301214 
L 48.111404 40.012535 
L 48.118168 39.949135 
L 48.304175 36.79837 
L 48.324467 27.888664 
L 48.388724 38.989182 
L 48.409015 40.350693 
L 48.500328 39.22716 
L 48.638988 35.827204 
L 48.652516 27.615791 
L 48.740446 40.591343 
L 49.011002 36.702206 
L 49.031294 27.566959 
L 49.098933 39.984308 
L 49.115842 40.67405 
L 49.207155 39.777349 
L 49.433745 36.577771 
L 49.454037 27.552019 
L 49.521676 40.15167 
L 49.538586 40.707982 
L 49.626516 39.849061 
L 49.900454 36.379315 
L 49.920745 27.696196 
L 49.991766 40.453367 
L 50.005294 40.608847 
L 50.083079 39.957334 
L 50.41451 35.2416 
L 50.428037 27.784543 
L 50.512586 40.539172 
L 50.515968 40.536069 
L 50.553169 40.265858 
L 50.840635 38.369113 
L 50.989441 36.818817 
L 51.016496 27.983012 
L 51.070607 38.395779 
L 51.104427 40.377516 
L 51.185593 39.689109 
L 51.493351 38.011034 
L 51.540698 37.91545 
L 51.692885 37.191275 
L 51.726705 37.603149 
L 51.976969 39.909913 
L 52.957733 42.127002 
L 52.974643 42.115224 
L 52.978025 42.105554 
L 53.011844 42.19128 
L 53.062574 42.192984 
L 53.109921 42.148284 
L 53.174178 42.179577 
L 53.187706 42.131157 
L 53.2824 42.196117 
L 53.826893 42.142346 
L 53.860713 42.198468 
L 53.837039 42.130823 
L 53.94188 42.130745 
L 54.050102 42.144392 
L 54.06363 42.184417 
L 54.070394 42.22139 
L 54.107595 42.137992 
L 54.16847 42.1424 
L 54.205671 42.104408 
L 54.175234 42.124613 
L 54.222581 42.056869 
L 54.296984 41.979193 
L 54.337567 42.017342 
L 54.455935 42.175863 
L 54.469463 42.147313 
L 54.574304 42.021504 
L 54.486373 42.162482 
L 54.618269 42.076383 
L 54.740019 42.115557 
L 54.682526 42.020878 
L 54.743401 42.09998 
L 54.767075 42.056276 
L 54.817804 42.150177 
L 54.855005 42.115113 
L 54.926026 42.035493 
L 54.993665 42.181329 
L 55.07145 42.171109 
L 55.024102 42.103258 
L 55.095123 42.130404 
L 55.155998 42.15895 
L 55.213491 42.089383 
L 55.294658 42.124102 
L 55.240547 42.078147 
L 55.321714 42.074357 
L 55.497575 41.958543 
L 55.348769 42.117146 
L 55.52463 42.009178 
L 55.636235 42.117606 
L 55.646381 42.095383 
L 55.781658 42.041787 
L 55.78504 42.043879 
L 56.099561 41.961182 
L 56.204402 42.064378 
L 56.221311 42.049517 
L 56.370117 41.941542 
L 56.569652 42.064611 
L 56.573034 42.049277 
L 56.782714 42.084294 
L 56.80977 42.110375 
L 56.863881 41.983162 
L 56.870645 41.98672 
L 56.928138 41.942561 
L 56.884173 42.017051 
L 56.985631 41.985363 
L 57.08709 42.018035 
L 56.992395 41.976734 
L 57.110763 41.972934 
L 57.235895 41.9312 
L 57.151347 42.050039 
L 57.242659 41.954436 
L 57.398229 41.951144 
L 57.577472 41.821826 
L 57.682312 41.935293 
L 57.702604 41.92001 
L 57.719514 41.877719 
L 57.763479 41.930921 
L 57.807444 41.926814 
L 57.820972 41.980606 
L 57.919048 41.935673 
L 58.030653 41.964541 
L 58.040799 41.918409 
L 58.19975 41.931733 
L 58.203132 41.91731 
L 58.328264 41.898131 
L 58.223424 41.948503 
L 58.33841 41.905844 
L 58.429722 41.820794 
L 58.487215 41.722223 
L 58.541327 41.826185 
L 58.663077 41.965999 
L 58.673222 41.961038 
L 58.872757 41.970783 
L 58.896431 42.051744 
L 58.991125 42.033825 
L 59.166987 42.048731 
L 59.183896 42.004835 
L 59.295501 41.949023 
L 59.298883 41.951625 
L 59.43416 42.108709 
L 59.437542 42.085797 
L 59.46798 42.109565 
L 59.613404 41.993956 
L 59.697952 42.065315 
L 59.725008 42.003659 
L 59.799411 41.994698 
L 59.762209 42.033072 
L 59.829848 42.033095 
L 59.853522 42.061156 
L 59.900869 41.975658 
L 59.931306 41.991317 
L 60.07673 41.887636 
L 60.431835 41.967752 
L 60.445362 41.930308 
L 60.543439 41.85836 
L 60.472418 41.943095 
L 60.570494 41.870425 
L 60.726064 41.993924 
L 60.627987 41.82868 
L 60.742974 41.984665 
L 60.871488 41.777702 
L 60.87487 41.779239 
L 60.99662 41.871897 
L 61.003383 41.852821 
L 61.006765 41.830059 
L 61.047349 41.9221 
L 61.104842 41.919206 
L 61.192772 42.002628 
L 61.158953 41.901539 
L 61.22321 41.966203 
L 61.284085 42.050406 
L 61.351724 41.999846 
L 61.503912 41.908521 
L 61.716974 42.075194 
L 61.760939 41.934686 
L 61.862398 41.901146 
L 61.798141 41.969652 
L 61.875926 41.912907 
L 61.889453 41.943962 
L 61.940183 41.842718 
L 61.977384 41.889959 
L 62.021349 41.839492 
L 62.078842 41.95179 
L 62.082224 41.940369 
L 62.433947 42.012948 
L 62.484676 42.03195 
L 62.569225 41.912735 
L 62.674065 41.949976 
L 62.636864 41.867832 
L 62.690975 41.943018 
L 62.833016 41.808179 
L 62.83978 41.842465 
L 62.900655 41.925474 
L 62.849926 41.833291 
L 62.975058 41.882926 
L 63.046079 41.818816 
L 63.079898 41.922588 
L 63.140774 41.976264 
L 63.093426 41.895096 
L 63.181357 41.89584 
L 63.235468 41.85899 
L 63.286197 41.936929 
L 63.309871 41.996166 
L 63.384274 41.866015 
L 63.387656 41.879119 
L 63.431621 41.950494 
L 63.502642 41.884366 
L 63.51617 41.93862 
L 63.563517 41.971098 
L 63.58719 41.896843 
L 63.688649 41.981508 
L 63.756288 41.922954 
L 63.729232 42.017533 
L 63.807017 41.933062 
L 63.830691 41.920188 
L 63.850982 41.978286 
L 63.898329 41.990958 
L 63.905093 42.016135 
L 63.993024 41.907985 
L 63.999788 41.927808 
L 64.354892 41.862709 
L 64.409003 41.822377 
L 64.463115 41.846933 
L 64.540899 41.998303 
L 64.591628 41.943831 
L 64.638976 41.893594 
L 64.686323 41.990766 
L 64.696469 41.97026 
L 64.703233 41.99712 
L 64.730288 41.887421 
L 64.787781 41.904207 
L 64.916295 41.825996 
L 64.970406 41.844108 
L 65.01099 41.748046 
L 65.136122 41.607512 
L 65.142886 41.618513 
L 65.193615 41.666526 
L 65.25449 41.610356 
L 65.362712 41.550826 
L 65.383004 41.561176 
L 65.585921 41.543455 
L 65.704289 41.43218 
L 65.707671 41.446684 
L 65.836185 41.372469 
L 65.853094 41.409239 
L 65.866622 41.415344 
L 65.913969 41.291837 
L 66.042483 41.18172 
L 65.930879 41.297363 
L 66.049247 41.20545 
L 66.167615 41.228094 
L 66.214963 41.230579 
L 66.248782 41.174539 
L 66.258928 41.185479 
L 66.316421 41.031118 
L 66.380678 41.087546 
L 66.38406 41.089499 
L 66.411116 40.993872 
L 66.421261 40.98572 
L 66.485518 40.887964 
L 66.519338 41.027377 
L 66.52272 41.037217 
L 66.563303 40.957243 
L 66.614032 40.967487 
L 66.759456 40.997972 
L 66.762838 41.014413 
L 66.779748 41.0347 
L 66.844005 40.943118 
L 66.860914 40.966235 
L 66.962373 40.93645 
L 66.901498 41.002116 
L 66.969137 40.97478 
L 67.172053 41.121076 
L 66.982664 40.946147 
L 67.202491 41.063786 
L 67.212637 41.058919 
L 67.23631 41.128909 
L 67.276894 41.143884 
L 67.303949 41.187107 
L 67.368206 41.054322 
L 67.418936 41.0329 
L 67.473047 41.088063 
L 67.479811 41.067905 
L 67.594797 41.055367 
L 67.6692 40.905642 
L 67.719929 40.922355 
L 67.804477 40.951446 
L 67.767276 40.890283 
L 67.821387 40.895224 
L 67.89579 40.778569 
L 67.932991 40.885577 
L 67.956665 40.863186 
L 68.041214 40.897564 
L 68.105471 40.838877 
L 68.085179 40.907972 
L 68.152818 40.871541 
L 68.27795 40.955049 
L 68.321915 40.983227 
L 68.413228 40.921389 
L 68.41661 40.944967 
L 68.50454 40.832412 
L 68.52145 40.902963 
L 68.802152 40.821977 
L 68.805534 40.850723 
L 68.913756 40.979667 
L 68.950957 40.951719 
L 68.954339 40.940858 
L 69.028742 41.044439 
L 69.049034 40.996331 
L 69.116673 41.036428 
L 69.157256 40.987682 
L 69.26886 40.893813 
L 69.18093 41.009291 
L 69.275624 40.931509 
L 69.279006 40.940039 
L 69.343263 40.812853 
L 69.353409 40.827107 
L 69.454867 40.824738 
L 69.475159 40.769539 
L 69.505596 40.719569 
L 69.569853 40.821101 
L 69.579999 40.804733 
L 69.593527 40.816895 
L 69.718659 40.753588 
L 69.735569 40.724051 
L 69.857319 40.799061 
L 69.901284 40.731429 
L 69.968923 40.794315 
L 70.097437 40.815032 
L 70.110965 40.779695 
L 70.117729 40.756031 
L 70.151548 40.86265 
L 70.209041 40.83681 
L 70.212423 40.845438 
L 70.286826 40.74419 
L 70.290208 40.753249 
L 70.439014 40.612135 
L 70.449159 40.654196 
L 70.648694 40.518584 
L 70.65884 40.572968 
L 70.682514 40.605653 
L 70.740007 40.516602 
L 70.760298 40.527612 
L 70.821174 40.550559 
L 70.848229 40.47429 
L 70.865139 40.414573 
L 70.91925 40.501117 
L 70.956451 40.472784 
L 70.973361 40.509894 
L 71.05791 40.410061 
L 71.193188 40.241791 
L 71.203333 40.252913 
L 71.31832 40.301551 
L 71.254063 40.212866 
L 71.325084 40.288371 
L 71.463743 40.256626 
L 71.331847 40.309001 
L 71.477271 40.277967 
L 71.507709 40.364585 
L 71.595639 40.328376 
L 71.710625 40.220129 
L 71.734299 40.305468 
L 71.839139 40.341102 
L 71.761355 40.294139 
L 71.849285 40.328365 
L 71.930452 40.263735 
L 71.971035 40.309409 
L 72.15366 40.357919 
L 71.991327 40.282197 
L 72.160424 40.322476 
L 72.637279 39.824786 
L 72.190862 40.366906 
L 72.711682 39.944508 
L 72.833432 40.022642 
L 72.731973 39.934551 
L 72.836814 40.017338 
L 72.880779 39.947262 
L 72.9518 39.997477 
L 73.043112 40.045217 
L 72.968709 39.975989 
L 73.070168 39.991243 
L 73.371161 39.761755 
L 73.465856 39.699252 
L 73.40498 39.777323 
L 73.482765 39.727634 
L 73.519967 39.761723 
L 73.550404 39.688268 
L 73.594369 39.730196 
L 73.658626 39.65034 
L 73.790522 39.511622 
L 73.90889 39.55992 
L 73.824342 39.475719 
L 73.912272 39.551677 
L 73.986675 39.61989 
L 74.030641 39.529218 
L 74.054314 39.554394 
L 74.125335 39.487517 
L 74.179446 39.400361 
L 74.240321 39.445034 
L 74.351925 39.338098 
L 74.274141 39.487629 
L 74.365453 39.376678 
L 74.385745 39.422319 
L 74.42971 39.286328 
L 74.453384 39.298837 
L 74.619099 39.167613 
L 74.622481 39.181497 
L 74.713794 39.249913 
L 74.642773 39.17707 
L 74.740849 39.225935 
L 74.781433 39.124178 
L 75.079044 38.787265 
L 74.788197 39.128258 
L 75.082426 38.794415 
L 75.214322 38.741988 
L 75.356363 38.472771 
L 75.484877 38.17647 
L 75.647211 36.391178 
L 75.670885 27.356834 
L 75.745287 38.439561 
L 75.758815 38.633705 
L 75.839982 38.114311 
L 75.938058 34.81577 
L 75.951586 29.427146 
L 76.032753 38.885644 
L 76.039517 38.822719 
L 76.161267 37.2289 
L 76.188322 33.774389 
L 76.198468 29.462668 
L 76.272871 39.088513 
L 76.289781 38.977889 
L 76.398003 37.444372 
L 76.42844 34.64613 
L 76.441968 29.104585 
L 76.516371 39.437313 
L 76.529899 39.321302 
L 76.671941 36.678166 
L 76.692232 28.568299 
L 76.756489 39.245059 
L 76.770017 39.839535 
L 76.857948 38.681695 
L 76.952642 35.207025 
L 76.96617 28.14899 
L 77.047337 40.21366 
L 77.054101 40.1671 
L 77.202906 38.149715 
L 77.257017 35.631223 
L 77.270545 27.738333 
L 77.355094 40.509444 
L 77.358476 40.495157 
L 77.544483 38.14115 
L 77.605358 35.845334 
L 77.618886 27.600536 
L 77.703434 40.653449 
L 77.706816 40.63331 
L 77.987518 36.812945 
L 78.007809 27.567358 
L 78.072066 39.087333 
L 78.092358 40.703326 
L 78.183671 39.789372 
L 78.420407 35.626246 
L 78.433935 27.523339 
L 78.518483 40.718784 
L 78.521865 40.70807 
L 78.890497 36.012271 
L 78.907407 27.618744 
L 78.988574 40.656878 
L 78.991956 40.669093 
L 79.025775 40.377413 
L 79.391025 36.664135 
L 79.414699 27.756535 
L 79.475574 39.591061 
L 79.499248 40.59427 
L 79.587178 39.849321 
L 79.847588 38.054955 
L 79.979484 36.707511 
L 80.00654 28.26132 
L 80.060651 38.815122 
L 80.084324 40.280787 
L 80.175637 39.544703 
L 80.395463 38.230517 
L 80.527359 37.14591 
L 80.547651 35.20028 
L 80.564561 28.068569 
L 80.645727 40.317345 
L 80.649109 40.341501 
L 80.699839 39.934579 
L 81.031269 38.120022 
L 81.038033 38.130884 
L 81.085381 37.92897 
L 81.173311 36.570941 
L 81.200367 28.225158 
L 81.254478 38.975263 
L 81.278151 40.245744 
L 81.369464 39.565729 
L 81.673839 38.124179 
L 81.853082 36.697182 
L 81.880138 28.353126 
L 81.934249 38.499356 
L 81.964687 40.121306 
L 82.049235 39.541961 
L 82.384048 38.078997 
L 82.438159 37.979841 
L 82.458451 37.934237 
L 82.546381 38.004427 
L 82.607256 38.088718 
L 82.664749 38.031775 
L 82.800027 38.007583 
L 82.810173 38.030684 
L 83.006326 38.376563 
L 83.182187 39.020331 
L 83.388486 40.848482 
L 83.391868 40.841006 
L 83.672569 41.781314 
L 83.750354 41.914242 
L 83.875486 42.02304 
L 83.763882 41.903388 
L 83.878868 42.017192 
L 83.889014 42.007669 
L 83.956653 42.118881 
L 84.075021 42.205932 
L 84.085167 42.20361 
L 84.149424 42.100659 
L 84.206917 42.13216 
L 84.36925 42.318487 
L 84.220445 42.119585 
L 84.38616 42.310481 
L 84.453799 42.327918 
L 84.504528 42.268555 
L 84.62966 42.140451 
L 84.707445 42.050706 
L 84.758174 42.114252 
L 84.829195 42.180859 
L 84.869778 42.121032 
L 84.917126 42.083325 
L 84.957709 42.172815 
L 84.971237 42.160327 
L 85.147098 42.190317 
L 85.15048 42.167871 
L 85.211355 41.975811 
L 85.278994 42.097014 
L 85.390598 42.08389 
L 85.339869 42.150247 
L 85.39398 42.087727 
L 85.502202 42.133803 
L 85.505584 42.116422 
L 85.607043 42.029355 
L 85.566459 42.134058 
L 85.634098 42.045782 
L 85.644244 42.08205 
L 85.678064 41.994269 
L 85.738939 42.027959 
L 85.816723 41.989246 
L 85.847161 42.043792 
L 85.975675 42.164645 
L 86.114335 42.118423 
L 86.171828 42.027799 
L 86.229321 42.091644 
L 86.290196 42.106706 
L 86.324015 42.04009 
L 86.327397 42.055174 
L 86.364599 41.980678 
L 86.442383 42.018266 
L 86.449147 42.005775 
L 86.499877 42.064069 
L 86.543842 42.047674 
L 86.621627 42.102386 
L 86.55737 42.032663 
L 86.655446 42.037589 
L 86.699411 42.096325 
L 86.746759 41.978808 
L 86.777196 41.908862 
L 86.831307 41.990456 
L 86.858363 41.957833 
L 86.990259 42.052454 
L 86.919238 41.917754 
L 86.997023 42.022269 
L 87.071425 41.916626 
L 87.013932 42.036698 
L 87.115391 41.990802 
L 87.159356 41.917561 
L 87.233759 42.001075 
L 87.362273 41.947217 
L 87.369037 41.91589 
L 87.456967 42.033622 
L 87.588863 42.050712 
L 87.690322 41.968641 
L 87.710613 41.980611 
L 87.754579 41.893342 
L 87.781634 41.846685 
L 87.852655 41.979737 
L 87.856037 41.976674 
L 87.903384 42.020987 
L 87.960877 41.999129 
L 88.075863 42.049462 
L 88.004843 41.96543 
L 88.079245 42.043054 
L 88.086009 42.049908 
L 88.265252 41.948351 
L 88.292308 41.988466 
L 88.329509 41.918666 
L 88.376857 41.944008 
L 88.454641 41.96437 
L 88.393766 41.971525 
L 88.461405 41.995896 
L 88.579773 42.108509 
L 88.589919 42.074822 
L 88.769162 41.936769 
L 88.600065 42.110469 
L 88.779308 41.974416 
L 88.802982 41.980904 
L 88.830038 41.895563 
L 88.867239 41.921781 
L 88.90444 41.903635 
L 88.95517 42.0058 
L 88.961933 41.989235 
L 89.005899 42.0535 
L 89.063392 41.953449 
L 89.083683 41.934296 
L 89.127649 42.058383 
L 89.16485 42.021693 
L 89.293364 42.047798 
L 89.222343 41.971372 
L 89.300128 42.038839 
L 89.313656 42.007554 
L 89.391441 42.155206 
L 89.415114 42.165091 
L 89.540246 42.040128 
L 89.604503 42.072987 
L 89.584212 41.997164 
L 89.638323 42.012544 
L 89.675524 41.988049 
L 89.733017 42.076551 
L 89.739781 42.06591 
L 89.831094 42.084438 
L 89.770219 42.019201 
L 89.851385 42.055199 
L 89.973135 41.938562 
L 89.976517 41.923999 
L 90.06783 41.994004 
L 90.179434 42.052781 
L 90.186198 42.050514 
L 90.960664 41.904785 
L 91.068886 41.989494 
L 91.068886 41.989494 
" clip-path="url(#p91cba67ecc)" style="fill: none; stroke: #000000; stroke-width: 0.6; stroke-linecap: square"/>
   </g>
   <g id="line2d_3">
    <path d="M 9.905557 59.840077 
L 9.939376 59.863034 
L 10.010397 59.817055 
L 10.013779 59.819457 
L 10.132147 59.825501 
L 10.040835 59.790628 
L 10.135529 59.822958 
L 10.893085 59.376941 
L 10.149057 59.853916 
L 10.909995 59.429335 
L 10.95396 59.472868 
L 10.920141 59.41147 
L 11.018217 59.42036 
L 11.167023 59.242503 
L 11.258336 59.27714 
L 11.285391 59.238933 
L 11.329356 59.20254 
L 11.383468 59.255774 
L 11.396995 59.225754 
L 11.505218 59.287186 
L 11.403759 59.220146 
L 11.532273 59.245236 
L 11.643877 59.163037 
L 11.542419 59.249947 
L 11.654023 59.177681 
L 11.7521 59.197752 
L 11.681079 59.133732 
L 11.758864 59.16078 
L 11.769009 59.139676 
L 11.802829 59.225718 
L 11.863704 59.191718 
L 11.880614 59.198864 
L 11.924579 59.10873 
L 11.955016 59.128743 
L 12.056475 59.014395 
L 12.086912 59.033683 
L 12.147787 59.083944 
L 12.188371 59.000652 
L 12.286447 58.961983 
L 12.22219 59.008781 
L 12.303357 58.977666 
L 12.401433 58.909211 
L 12.519802 58.813643 
L 12.529947 58.853026 
L 12.739628 58.740431 
L 12.824177 58.687046 
L 12.793739 58.763353 
L 12.854614 58.745262 
L 13.118406 58.660816 
L 13.267212 58.460366 
L 13.277357 58.484044 
L 13.531003 58.327794 
L 13.551295 58.35936 
L 13.622316 58.247109 
L 13.632462 58.275304 
L 13.740684 58.129801 
L 13.656135 58.294154 
L 13.76774 58.21207 
L 13.923309 58.153412 
L 13.794795 58.271194 
L 13.926691 58.164258 
L 13.970656 58.257509 
L 14.048441 58.228856 
L 14.163427 58.139596 
L 14.082261 58.232928 
L 14.166809 58.147296 
L 14.275032 58.189349 
L 14.281796 58.187736 
L 14.379872 58.046756 
L 14.403546 58.074584 
L 14.447511 58.142989 
L 14.518532 58.097906 
L 14.910838 58.119394 
L 14.914219 58.133924 
L 14.988622 57.976518 
L 15.137428 57.884701 
L 15.022442 58.03441 
L 15.167865 57.921096 
L 15.188157 57.945074 
L 15.255796 57.820571 
L 15.357254 57.816574 
L 15.269324 57.806096 
L 15.364018 57.800608 
L 15.374164 57.756357 
L 15.445185 57.900997 
L 15.451949 57.894918 
L 15.495914 57.937899 
L 15.550025 57.855174 
L 15.681921 57.751429 
L 15.746178 57.776545 
L 15.78338 57.728555 
L 15.908512 57.61687 
L 16.057317 57.714796 
L 16.060699 57.703072 
L 16.321109 57.394705 
L 16.331255 57.40939 
L 16.341401 57.451841 
L 16.432713 57.464614 
L 16.534172 57.551784 
L 16.466533 57.447986 
L 16.551081 57.522924 
L 16.574755 57.557224 
L 16.649158 57.468751 
L 16.65254 57.476906 
L 16.865602 57.344983 
L 16.868984 57.351975 
L 16.875748 57.370363 
L 16.943387 57.279316 
L 16.977207 57.331733 
L 17.024554 57.28045 
L 17.075283 57.377259 
L 17.085429 57.353441 
L 17.098957 57.387506 
L 17.146304 57.296247 
L 17.17336 57.291268 
L 17.2782 57.291574 
L 17.268054 57.33669 
L 17.281582 57.304341 
L 17.38304 57.327706 
L 17.396568 57.293539 
L 17.481117 57.185477 
L 17.498026 57.200275 
L 17.613013 57.119559 
L 17.734763 57.080028 
L 17.741527 57.041933 
L 17.917388 57.055253 
L 17.755054 57.082344 
L 17.924152 57.07459 
L 17.927534 57.095274 
L 17.968117 57.04284 
L 18.035756 57.072017 
L 18.100013 57.115108 
L 18.143978 57.077264 
L 18.14736 57.103932 
L 18.231909 56.911134 
L 18.39086 56.730231 
L 18.238673 56.916166 
L 18.417916 56.782161 
L 18.505846 56.845335 
L 18.451735 56.775458 
L 18.52952 56.807035 
L 18.654652 56.785456 
L 18.556576 56.832643 
L 18.658034 56.803755 
L 18.783166 56.717237 
L 18.874479 56.663305 
L 18.898152 56.69553 
L 18.938736 56.731165 
L 19.361479 55.469439 
L 19.388534 54.03844 
L 19.402062 43.842173 
L 19.489993 57.743708 
L 19.564396 57.049909 
L 19.730111 54.225838 
L 19.740257 44.528004 
L 19.828187 58.450875 
L 19.831569 58.454777 
L 19.845097 58.34605 
L 20.105507 52.898956 
L 20.112271 44.400033 
L 20.206965 58.794778 
L 20.210347 58.780575 
L 20.501195 55.394941 
L 20.521486 53.094016 
L 20.531632 44.350012 
L 20.622945 58.958552 
L 20.626327 58.951752 
L 20.737931 57.815747 
L 20.978049 54.698474 
L 20.991577 44.232697 
L 21.06598 56.293099 
L 21.086271 59.060105 
L 21.177584 58.216949 
L 21.485341 54.292797 
L 21.498869 44.22959 
L 21.583418 59.045263 
L 21.590181 59.11325 
L 21.661202 58.488592 
L 21.867501 56.734606 
L 22.046744 54.411323 
L 22.060272 44.153162 
L 22.141439 58.964518 
L 22.151585 59.114436 
L 22.232751 58.413624 
L 22.604765 55.852278 
L 22.608147 55.855894 
L 22.625057 55.723748 
L 22.672404 54.353 
L 22.685932 44.133715 
L 22.767099 58.991738 
L 22.777245 59.070731 
L 22.848265 58.44513 
L 23.183078 56.243192 
L 23.213516 56.137012 
L 23.257481 55.887748 
L 23.338648 54.657218 
L 23.355557 44.135503 
L 23.423196 57.380338 
L 23.443488 59.035344 
L 23.534801 58.239945 
L 24.045474 54.816619 
L 24.065766 44.163241 
L 24.130023 56.776171 
L 24.153697 58.984819 
L 24.241627 58.214638 
L 24.552766 56.344314 
L 24.566294 56.346699 
L 24.586586 56.248213 
L 24.806412 53.850185 
L 24.81994 44.153862 
L 24.904489 58.917173 
L 24.907871 58.90219 
L 25.060058 57.610539 
L 25.290031 56.349513 
L 25.293413 56.361986 
L 25.381343 56.146108 
L 25.384725 56.151621 
L 25.570732 53.978116 
L 25.58426 44.11605 
L 25.665427 58.914422 
L 25.668809 58.91398 
L 25.692482 58.742881 
L 26.067878 56.411017 
L 26.31476 55.497644 
L 26.351962 54.096764 
L 26.36549 44.112568 
L 26.450038 58.910346 
L 26.524441 58.286529 
L 26.771323 56.688776 
L 26.981004 56.079271 
L 27.180539 55.464678 
L 27.214358 54.104641 
L 27.227886 44.123179 
L 27.309053 58.835186 
L 27.312435 58.842086 
L 27.336108 58.655161 
L 27.613428 56.741642 
L 27.670921 56.520641 
L 27.779143 56.291482 
L 27.806199 56.316124 
L 27.809581 56.334832 
L 27.890747 56.16168 
L 27.894129 56.164376 
L 27.911039 56.079897 
L 27.944859 56.066028 
L 28.100428 55.085057 
L 28.117338 51.031874 
L 28.127484 44.084966 
L 28.212032 58.878707 
L 28.222178 58.818424 
L 28.513025 56.737018 
L 28.661831 56.366542 
L 28.665213 56.37499 
L 28.854602 56.038268 
L 28.675359 56.386082 
L 28.861366 56.053422 
L 28.905331 55.965944 
L 28.918859 55.967954 
L 29.054137 55.653483 
L 29.057519 55.666752 
L 29.098102 55.389666 
L 29.12854 53.501909 
L 29.142068 44.112713 
L 29.223234 58.759066 
L 29.229998 58.733152 
L 29.304401 58.051866 
L 29.578339 56.484404 
L 29.581721 56.485119 
L 29.639214 56.28736 
L 29.757582 56.157444 
L 29.767728 56.166728 
L 29.774491 56.176909 
L 29.828603 56.024704 
L 30.011228 54.92065 
L 30.024755 51.999511 
L 30.034901 44.108715 
L 30.116068 58.774429 
L 30.129596 58.705029 
L 30.457645 56.566483 
L 30.461027 56.586225 
L 30.46779 56.591274 
L 30.511756 56.492187 
L 30.538811 56.504889 
L 30.670707 56.313581 
L 30.734964 56.266517 
L 30.741728 56.22154 
L 30.765402 56.239247 
L 30.890534 56.010967 
L 31.093451 54.700018 
L 31.113742 44.065946 
L 31.174617 55.594882 
L 31.198291 58.724055 
L 31.289603 57.857625 
L 31.577069 56.411809 
L 31.803659 56.214388 
L 31.945701 56.170815 
L 31.949083 56.188567 
L 32.067451 56.330568 
L 32.070833 56.327714 
L 32.097889 56.274384 
L 32.141854 56.346871 
L 32.179055 56.338832 
L 32.270368 56.395275 
L 32.189201 56.375066 
L 32.27375 56.406233 
L 32.388736 56.574049 
L 32.402264 56.564757 
L 32.405646 56.54375 
L 32.48343 56.727627 
L 32.601799 57.614932 
L 32.794569 60.31436 
L 32.885882 60.590148 
L 33.054979 60.953233 
L 33.061743 60.909923 
L 33.153056 61.054422 
L 33.284952 60.977694 
L 33.295098 60.993101 
L 33.315389 61.034205 
L 33.396556 60.963701 
L 33.406702 60.989042 
L 33.494632 60.929417 
L 33.426993 61.02097 
L 33.52507 60.966357 
L 33.62991 61.023927 
L 33.579181 60.921599 
L 33.653584 60.977685 
L 33.775334 60.91167 
L 33.660348 60.991588 
L 33.782098 60.922918 
L 33.87341 60.997596 
L 33.910612 60.974109 
L 33.937667 61.021922 
L 34.02898 60.942169 
L 34.066181 60.998082 
L 34.140584 60.94898 
L 34.184549 60.910025 
L 34.245424 60.984957 
L 34.25557 61.026172 
L 34.346883 60.91444 
L 34.357029 60.938246 
L 34.400994 60.858267 
L 34.448341 60.883397 
L 34.451723 60.867699 
L 34.495688 60.974033 
L 34.546418 60.953511 
L 34.647876 60.899685 
L 34.570091 60.976367 
L 34.681696 60.946146 
L 34.75948 60.914666 
L 34.729043 60.874671 
L 34.773008 60.893187 
L 34.77639 60.869467 
L 34.871085 60.959742 
L 34.925196 61.000687 
L 34.972543 60.907601 
L 35.013126 60.966963 
L 35.168696 60.855207 
L 35.273536 60.868809 
L 35.239717 60.825312 
L 35.2803 60.861083 
L 35.368231 60.780908 
L 35.307356 60.883995 
L 35.391904 60.837777 
L 35.439251 60.925746 
L 35.50689 60.8817 
L 35.608349 60.927839 
L 35.62864 60.91704 
L 35.824793 60.961909 
L 35.638786 60.904797 
L 35.831557 60.948773 
L 36.115641 60.914989 
L 36.142696 60.927904 
L 36.240773 60.83957 
L 36.325321 60.900429 
L 36.257682 60.833107 
L 36.362523 60.859387 
L 36.372669 60.815678 
L 36.399724 60.899693 
L 36.470745 60.867597 
L 36.609405 60.944602 
L 36.487655 60.8534 
L 36.619551 60.925286 
L 36.849523 60.73909 
L 36.67028 60.971202 
L 36.856287 60.743581 
L 36.974655 60.890817 
L 36.988183 60.86553 
L 37.221537 60.939156 
L 37.005093 60.837917 
L 37.224919 60.919161 
L 37.231683 60.923596 
L 37.373725 60.852602 
L 37.529294 60.943448 
L 37.542822 60.904876 
L 37.69501 60.776432 
L 37.708537 60.805952 
L 37.772794 60.728083 
L 37.793086 60.722749 
L 37.796468 60.704324 
L 37.857343 60.777683 
L 37.894544 60.758524 
L 38.02644 60.89268 
L 38.046732 60.868992 
L 38.127899 60.794814 
L 38.168482 60.804164 
L 38.310524 60.886526 
L 38.428892 60.891796 
L 38.340961 60.849054 
L 38.432274 60.881606 
L 38.543878 60.806184 
L 38.570934 60.829616 
L 38.68592 60.890967 
L 38.621663 60.780357 
L 38.689302 60.867628 
L 38.706212 60.908986 
L 38.756941 60.791052 
L 38.777232 60.729914 
L 38.827962 60.864818 
L 38.861781 60.823797 
L 39.230413 60.796856 
L 39.325108 60.813139 
L 39.348781 60.777039 
L 39.440094 60.785616 
L 39.396129 60.827535 
L 39.45024 60.805392 
L 39.551698 60.824474 
L 39.514497 60.761426 
L 39.561844 60.795987 
L 39.565226 60.784368 
L 39.643011 60.887425 
L 39.649775 60.882368 
L 39.653157 60.893941 
L 39.727559 60.786508 
L 39.730941 60.786597 
L 39.79858 60.750705 
L 39.839164 60.795756 
L 39.906803 60.729338 
L 39.910184 60.704656 
L 39.987969 60.628724 
L 40.025171 60.645622 
L 40.133393 60.76028 
L 40.038698 60.61854 
L 40.167212 60.714794 
L 40.228087 60.618761 
L 40.272053 60.5602 
L 40.349837 60.592704 
L 40.363365 60.606477 
L 40.414094 60.550677 
L 40.45806 60.577431 
L 40.556136 60.605996 
L 40.498643 60.633784 
L 40.559518 60.621554 
L 40.816546 60.680308 
L 40.819928 60.694815 
L 40.880803 60.550558 
L 40.904477 60.570791 
L 40.92815 60.56564 
L 40.951824 60.463148 
L 40.965352 60.479453 
L 40.975498 60.452726 
L 41.063428 60.549364 
L 41.080338 60.593451 
L 41.104012 60.504902 
L 41.164887 60.507886 
L 41.739817 60.250903 
L 41.17165 60.528488 
L 41.743199 60.269307 
L 41.942734 60.251363 
L 42.017137 60.192693 
L 41.96979 60.263023 
L 42.054338 60.228652 
L 42.084776 60.259646 
L 42.155797 60.18674 
L 42.328276 60.110833 
L 42.169325 60.208205 
L 42.338422 60.142158 
L 42.450026 60.187343 
L 42.412825 60.121151 
L 42.45679 60.173687 
L 42.558248 60.18697 
L 42.510901 60.101502 
L 42.565012 60.160872 
L 42.713818 60.046652 
L 42.7172 60.057073 
L 42.811894 60.05198 
L 42.764547 59.992165 
L 42.82204 60.03591 
L 42.957318 59.989852 
L 42.842332 60.095387 
L 42.967464 60.005386 
L 43.068922 60.019428 
L 43.041867 59.951806 
L 43.079068 60.008472 
L 43.319186 59.882004 
L 43.109506 60.048585 
L 43.322568 59.900201 
L 43.383443 59.953247 
L 43.420645 59.847812 
L 43.552541 59.589477 
L 43.434173 59.854866 
L 43.562686 59.608291 
L 43.566068 59.62584 
L 43.643853 59.466719 
L 43.647235 59.469191 
L 43.775749 59.447579 
L 43.714874 59.55073 
L 43.785895 59.460885 
L 44.026013 59.489084 
L 44.036159 59.468702 
L 44.381117 59.008855 
L 44.401409 59.067542 
L 44.475812 58.954555 
L 44.485958 58.967808 
L 44.516395 58.938658 
L 44.546833 59.006579 
L 44.597562 58.971118 
L 44.607708 58.952671 
L 44.665201 59.101851 
L 44.685493 59.062933 
L 44.857972 59.179676 
L 44.695638 59.048773 
L 44.885027 59.123403 
L 45.003396 59.114778 
L 44.922229 59.164133 
L 45.006778 59.116368 
L 45.013541 59.139825 
L 45.050743 59.057941 
L 45.091326 59.047083 
L 45.226604 58.9138 
L 45.229986 58.934997 
L 45.361882 59.015776 
L 45.243514 58.91982 
L 45.368646 58.966862 
L 45.429521 58.926438 
L 45.470104 59.016729 
L 45.48025 58.97051 
L 45.936813 58.710726 
L 45.940195 58.721947 
L 45.974014 58.748025 
L 46.024743 58.661119 
L 46.170167 58.552676 
L 46.041653 58.669032 
L 46.173549 58.557639 
L 46.231042 58.604731 
L 46.268243 58.523823 
L 46.278389 58.525947 
L 46.494834 58.397586 
L 46.501598 58.356503 
L 46.586146 58.478525 
L 46.599674 58.447868 
L 46.680841 58.543768 
L 46.718042 58.474563 
L 47.00889 58.258581 
L 47.035945 58.295987 
L 47.086674 58.32801 
L 47.13064 58.243175 
L 47.144168 58.271895 
L 47.448543 58.134969 
L 47.455307 58.166779 
L 47.566911 58.21056 
L 47.577057 58.20271 
L 47.685279 58.13763 
L 47.590584 58.222229 
L 47.705571 58.165408 
L 47.955835 58.03974 
L 48.020092 57.930555 
L 48.077585 57.974092 
L 48.080967 57.992839 
L 48.162133 57.848355 
L 48.233154 57.780183 
L 48.195953 57.874739 
L 48.273738 57.832756 
L 48.375196 57.822574 
L 48.344759 57.790406 
L 48.378578 57.814679 
L 48.446217 57.786511 
L 48.392106 57.842601 
L 48.490182 57.821264 
L 48.510474 57.901301 
L 48.605168 57.867161 
L 48.750592 57.660953 
L 48.770884 57.668772 
L 48.774266 57.676019 
L 48.828377 57.550023 
L 48.88587 57.51798 
L 48.916307 57.590842 
L 48.939981 57.541859 
L 49.068495 57.480095 
L 48.970419 57.563319 
L 49.071877 57.483053 
L 49.149662 57.53144 
L 49.122606 57.566114 
L 49.156426 57.541486 
L 49.257884 57.59977 
L 49.210537 57.521374 
L 49.271412 57.561175 
L 49.342433 57.624105 
L 49.386398 57.592114 
L 49.464183 57.509049 
L 49.501384 57.555691 
L 49.504766 57.563843 
L 49.558877 57.418869 
L 49.565641 57.425585 
L 49.660336 57.347813 
L 49.61637 57.4528 
L 49.694155 57.395076 
L 50.955621 56.72709 
L 51.009732 56.643679 
L 51.067225 56.727414 
L 51.148392 56.795078 
L 51.172066 56.713049 
L 51.17883 56.724336 
L 51.486587 56.213722 
L 51.489969 56.219182 
L 51.608337 55.93693 
L 51.679358 54.931219 
L 51.692885 49.047827 
L 51.699649 43.852413 
L 51.78758 57.745597 
L 51.794344 57.730217 
L 51.851837 57.171965 
L 52.024316 54.994659 
L 52.037844 49.275177 
L 52.044608 44.501485 
L 52.132538 58.446448 
L 52.139302 58.411313 
L 52.403094 54.118321 
L 52.41324 44.396363 
L 52.504552 58.743082 
L 52.521462 58.631031 
L 52.606011 57.709965 
L 52.808928 54.417792 
L 52.822455 44.359735 
L 52.903622 58.642888 
L 52.91715 58.934968 
L 53.001699 58.0911 
L 53.109921 56.961173 
L 53.262108 53.799259 
L 53.272254 44.251306 
L 53.363567 59.045826 
L 53.366949 59.042859 
L 53.468407 58.073934 
L 53.752491 54.453104 
L 53.766018 44.20901 
L 53.847185 58.888633 
L 53.860713 59.109275 
L 53.945262 58.339118 
L 54.300366 54.591811 
L 54.313894 44.169759 
L 54.388297 58.030803 
L 54.405206 59.09836 
L 54.499901 58.280505 
L 54.719727 56.554936 
L 54.888825 54.417501 
L 54.902352 44.142354 
L 54.980137 58.834229 
L 54.990283 59.103108 
L 55.078214 58.355032 
L 55.480665 55.779832 
L 55.534776 54.882489 
L 55.555068 44.168659 
L 55.619325 55.757149 
L 55.642999 59.035436 
L 55.734311 58.242842 
L 55.971047 56.596295 
L 56.214548 54.510733 
L 56.231457 44.18855 
L 56.302478 58.560889 
L 56.319388 59.00512 
L 56.407318 58.244352 
L 56.728603 56.379912 
L 56.731985 56.39083 
L 56.772569 56.152779 
L 56.853735 55.753056 
L 56.911228 54.895232 
L 56.924756 48.603781 
L 56.93152 44.114392 
L 57.019451 59.020533 
L 57.026215 58.98703 
L 57.580854 55.922991 
L 57.618055 55.813276 
L 57.709368 54.816631 
L 57.722896 48.179187 
L 57.729659 44.137448 
L 57.810826 58.895158 
L 57.820972 58.873441 
L 58.142257 56.559368 
L 58.42634 55.557963 
L 58.466924 54.038763 
L 58.480452 44.111355 
L 58.565 58.932834 
L 58.595438 58.719062 
L 58.916723 56.53485 
L 58.953924 56.414869 
L 59.129785 56.007143 
L 59.133167 56.011118 
L 59.166987 55.901822 
L 59.173751 55.903295 
L 59.292119 54.980728 
L 59.305646 52.550689 
L 59.315792 44.105051 
L 59.400341 58.876868 
L 59.410487 58.822607 
L 59.704716 56.710283 
L 59.708098 56.711902 
L 59.731772 56.615366 
L 59.975272 56.019918 
L 59.978654 56.026272 
L 60.042911 55.81531 
L 60.107168 55.214218 
L 60.127459 52.41973 
L 60.137605 44.072397 
L 60.222154 58.92389 
L 60.2323 58.846786 
L 60.543439 56.667494 
L 60.546821 56.679436 
L 60.61446 56.525619 
L 60.844432 55.84456 
L 60.847814 55.865581 
L 60.868106 55.864938 
L 60.905307 55.749249 
L 60.972946 54.914387 
L 60.986474 51.458592 
L 60.99662 44.1276 
L 61.081168 58.853832 
L 61.091314 58.784913 
L 61.388925 56.749564 
L 61.392307 56.76403 
L 61.395689 56.770964 
L 61.432891 56.617912 
L 61.595224 56.228359 
L 61.601988 56.240425 
L 61.60537 56.248102 
L 61.652717 56.103323 
L 61.656099 56.109466 
L 61.777849 55.994131 
L 61.886071 55.6326 
L 61.940183 54.460672 
L 61.957092 44.0784 
L 62.028113 58.458274 
L 62.038259 58.801008 
L 62.129572 57.996764 
L 62.427183 56.4876 
L 62.433947 56.51587 
L 62.47453 56.356721 
L 62.643627 56.05305 
L 62.694357 56.101202 
L 62.663919 56.02876 
L 62.75185 56.012523 
L 62.893891 55.874996 
L 62.816107 56.055774 
L 62.914183 55.890845 
L 62.944621 55.94318 
L 63.005496 55.832117 
L 63.015642 55.861909 
L 63.225322 54.99747 
L 63.242232 51.426492 
L 63.252378 44.105852 
L 63.336926 58.61943 
L 63.347072 58.545073 
L 63.563517 56.826372 
L 63.739378 56.35485 
L 63.786725 56.270638 
L 63.810399 56.799906 
L 63.982878 59.087175 
L 64.084337 59.569154 
L 64.294017 60.440542 
L 64.297399 60.436111 
L 64.554427 60.915373 
L 64.61192 60.846311 
L 64.62883 60.884168 
L 64.75058 60.873185 
L 64.831747 60.903518 
L 64.852038 60.844889 
L 64.858802 60.849373 
L 64.923059 60.840331 
L 64.875712 60.900083 
L 64.970406 60.886195 
L 65.119212 61.013295 
L 65.136122 60.94402 
L 65.217289 60.977712 
L 65.14965 60.967246 
L 65.230816 61.01124 
L 65.342421 61.050052 
L 65.274782 60.987519 
L 65.345802 61.03371 
L 66.076303 60.961029 
L 66.099977 60.980966 
L 66.170997 60.882162 
L 66.313039 60.918908 
L 66.316421 60.930841 
L 66.380678 60.984333 
L 66.428025 60.942135 
L 66.739164 61.000283 
L 66.441553 60.902748 
L 66.745928 60.966825 
L 66.874442 60.848478 
L 66.881206 60.869973 
L 66.982664 60.912376 
L 66.88797 60.861796 
L 67.016484 60.864602 
L 67.073977 60.922119 
L 67.057067 60.944873 
L 67.080741 60.952854 
L 67.216019 60.981648 
L 67.090887 60.933535 
L 67.229547 60.961677 
L 67.361442 60.907405 
L 67.364824 60.912025 
L 67.435845 60.9534 
L 67.415554 60.88961 
L 67.469665 60.892749 
L 67.584651 60.857512 
L 67.527158 60.920233 
L 67.591415 60.867313 
L 67.662436 60.917768 
L 67.706401 60.88152 
L 67.763894 60.816741 
L 67.814623 60.895304 
L 67.943137 60.986973 
L 67.821387 60.888767 
L 67.956665 60.963115 
L 68.020922 61.022661 
L 68.071651 60.942274 
L 68.125762 60.955573 
L 68.17311 60.893959 
L 68.176492 60.907996 
L 68.223839 60.855273 
L 68.193401 60.933233 
L 68.291478 60.885182 
L 68.29486 60.877778 
L 68.359117 60.980737 
L 68.369262 60.96944 
L 68.386172 60.9972 
L 68.467339 60.899787 
L 68.470721 60.902662 
L 68.531596 60.869568 
L 68.541742 60.823866 
L 68.646582 60.822846 
L 68.612763 60.884644 
L 68.649964 60.830548 
L 68.768332 60.894622 
L 68.78186 60.883733 
L 68.846117 60.988539 
L 68.940811 61.020573 
L 68.866409 60.970929 
L 68.954339 60.984151 
L 69.011832 61.02952 
L 69.082853 60.880682 
L 69.092999 60.92119 
L 69.184312 60.854838 
L 69.191075 60.856413 
L 69.316207 60.927306 
L 69.434576 60.814774 
L 69.566471 60.853927 
L 69.444721 60.805013 
L 69.569853 60.829656 
L 69.68484 60.751309 
L 69.613819 60.852073 
L 69.688222 60.753838 
L 69.735569 60.758436 
L 69.759242 60.839157 
L 69.857319 60.856264 
L 69.799826 60.797851 
L 69.867465 60.822156 
L 69.874229 60.803521 
L 69.904666 60.862924 
L 69.972305 60.843055 
L 70.100819 60.911548 
L 70.175222 60.826666 
L 70.117729 60.932092 
L 70.229333 60.857462 
L 70.337555 60.906167 
L 70.283444 60.777199 
L 70.347701 60.891906 
L 70.459305 60.85862 
L 70.408576 60.922301 
L 70.462687 60.871335 
L 70.466069 60.880203 
L 70.510034 60.743897 
L 70.530326 60.754999 
L 70.65884 60.654621 
L 70.560764 60.81011 
L 70.668986 60.668126 
L 71.003799 60.691597 
L 71.007181 60.677885 
L 71.07482 60.643057 
L 71.034236 60.702515 
L 71.112021 60.695409 
L 71.125549 60.753812 
L 71.155986 60.635552 
L 71.223625 60.704219 
L 71.341993 60.738395 
L 71.362285 60.687453 
L 71.984563 60.502345 
L 72.099549 60.350678 
L 72.113077 60.375007 
L 72.27541 60.480789 
L 72.278792 60.473404 
L 72.356577 60.426231 
L 72.363341 60.387857 
L 72.461417 60.314837 
L 72.485091 60.34755 
L 72.495237 60.392643 
L 72.56964 60.320656 
L 72.596695 60.346004 
L 72.600077 60.354135 
L 72.650806 60.277602 
L 72.688008 60.286696 
L 72.79623 60.184041 
L 72.728591 60.327258 
L 72.806376 60.221969 
L 72.928126 60.284253 
L 72.938272 60.246474 
L 73.066786 60.189477 
L 72.948418 60.253201 
L 73.070168 60.199218 
L 73.114133 60.080885 
L 73.208828 60.17019 
L 73.320432 60.232033 
L 73.327196 60.205597 
L 73.367779 60.240067 
L 73.344105 60.145707 
L 73.408362 60.142709 
L 73.540258 60.009908 
L 73.675536 60.046233 
L 73.557168 60.054195 
L 73.678918 60.056279 
L 73.722883 60.06926 
L 73.760085 59.957279 
L 73.868307 59.868434 
L 73.770231 59.960284 
L 73.888599 59.88622 
L 73.902127 59.935113 
L 74.000203 59.892819 
L 74.365453 59.798185 
L 74.368835 59.816852 
L 74.395891 59.751345 
L 74.470294 59.770831 
L 74.564988 59.67781 
L 74.602189 59.698126 
L 74.622481 59.720472 
L 74.69012 59.626595 
L 74.703648 59.644443 
L 74.713794 59.656646 
L 74.737467 59.593865 
L 74.798342 59.599948 
L 74.947148 59.445388 
L 74.974204 59.478044 
L 75.014787 59.402724 
L 75.051988 59.405234 
L 75.106099 59.352583 
L 75.173738 59.369996 
L 75.234613 59.347686 
L 75.21094 59.327685 
L 75.261669 59.31405 
L 75.396947 59.166603 
L 75.407093 59.189953 
L 75.538989 59.185182 
L 75.552516 59.160843 
L 75.57619 59.113291 
L 75.650593 59.205514 
L 75.657357 59.196064 
L 75.728378 59.297304 
L 75.782489 59.203871 
L 75.927912 59.147373 
L 75.931294 59.151756 
L 75.968496 59.031129 
L 75.985406 59.046684 
L 76.130829 58.997993 
L 76.144357 59.014522 
L 76.225524 59.068135 
L 76.174794 58.971938 
L 76.249197 58.983777 
L 76.337128 59.005061 
L 76.276253 59.019486 
L 76.347274 59.037884 
L 76.394621 59.045707 
L 76.418295 58.978975 
L 76.435204 58.97554 
L 76.550191 58.86686 
L 76.570482 58.894709 
L 76.685468 58.897247 
L 76.614448 58.824795 
L 76.695614 58.875631 
L 76.770017 58.827498 
L 76.8106 58.840201 
L 76.824128 58.853587 
L 76.972934 58.796517 
L 76.993226 58.830083 
L 77.067628 58.716943 
L 77.098066 58.784673 
L 77.182614 58.702044 
L 77.33142 58.626001 
L 77.449788 58.466843 
L 77.459934 58.506484 
L 77.547865 58.424395 
L 77.59183 58.475289 
L 77.689906 58.428718 
L 77.693288 58.423165 
L 77.825184 58.28514 
L 78.268219 58.167407 
L 78.393351 58.024058 
L 78.396733 58.02642 
L 78.572594 58.040814 
L 78.413643 57.984967 
L 78.586122 58.000265 
L 78.684199 57.945681 
L 78.697726 57.989319 
L 78.816095 58.008957 
L 78.714636 57.927373 
L 78.819476 58.000813 
L 78.883733 57.953475 
L 78.934463 57.998659 
L 78.958136 58.002814 
L 78.995338 57.848011 
L 79.002102 57.864961 
L 79.133997 57.953619 
L 79.035921 57.831494 
L 79.150907 57.923815 
L 79.171199 57.893467 
L 79.218546 57.945532 
L 79.262511 57.925698 
L 79.289567 57.931643 
L 79.353824 57.87062 
L 79.38088 57.792491 
L 79.475574 57.824294 
L 79.549977 57.922053 
L 79.593942 57.834516 
L 79.722456 57.657398 
L 79.72922 57.677387 
L 79.74613 57.726917 
L 79.790095 57.645215 
L 79.844206 57.667178 
L 79.935519 57.646201 
L 79.894935 57.700399 
L 79.952429 57.65617 
L 79.962574 57.702042 
L 80.043741 57.578947 
L 80.050505 57.581572 
L 80.206074 57.494613 
L 80.256804 57.573744 
L 80.324443 57.457943 
L 80.408991 57.487114 
L 80.432665 57.435167 
L 80.486776 57.343146 
L 80.554415 57.391013 
L 80.622054 57.489799 
L 80.679547 57.463929 
L 80.726894 57.373676 
L 80.797915 57.422058 
L 80.916283 57.476275 
L 80.929811 57.437052 
L 81.075235 57.365822 
L 81.085381 57.392803 
L 81.190221 57.42164 
L 81.129346 57.371801 
L 81.196985 57.408258 
L 81.406665 57.241511 
L 81.210513 57.442413 
L 81.454013 57.381313 
L 81.457395 57.40526 
L 81.558853 57.331555 
L 81.653547 57.42808 
L 81.683985 57.355467 
L 81.788825 57.23063 
L 81.690749 57.369936 
L 81.822645 57.305213 
L 81.8497 57.34867 
L 81.86661 57.280405 
L 81.934249 57.301255 
L 81.995124 57.342196 
L 82.096582 57.150493 
L 82.24877 57.216628 
L 82.14393 57.119061 
L 82.252152 57.204291 
L 82.651222 56.76252 
L 82.654604 56.771298 
L 82.678277 56.787859 
L 82.749298 56.688744 
L 82.901486 56.333132 
L 82.918395 56.385735 
L 82.999562 56.233169 
L 83.144986 55.301616 
L 83.165277 52.96803 
L 83.175423 43.829217 
L 83.266736 57.777058 
L 83.270118 57.759442 
L 83.344521 57.045838 
L 83.517 53.896184 
L 83.527146 44.453565 
L 83.615076 58.459006 
L 83.62184 58.418914 
L 83.875486 55.348187 
L 83.892396 53.630049 
L 83.902542 44.403387 
L 83.993854 58.777074 
L 83.997236 58.769716 
L 84.298229 55.100584 
L 84.311757 50.248485 
L 84.318521 44.312207 
L 84.413216 58.939095 
L 84.416598 58.915025 
L 84.731119 55.579033 
L 84.758174 53.38875 
L 84.76832 44.272859 
L 84.863015 59.06971 
L 85.25532 54.345186 
L 85.268848 44.24551 
L 85.353397 59.049094 
L 85.360161 59.100906 
L 85.4278 58.520369 
L 85.755848 55.831175 
L 85.809959 53.584599 
L 85.820105 44.152583 
L 85.911418 59.115826 
L 85.9148 59.092633 
L 85.965529 58.682634 
L 86.205647 56.754314 
L 86.361217 55.797379 
L 86.41871 54.657886 
L 86.43562 44.176869 
L 86.503258 57.025996 
L 86.52355 59.062318 
L 86.614863 58.270687 
L 87.013932 55.743458 
L 87.047752 55.325703 
L 87.071425 52.955809 
L 87.081571 44.143276 
L 87.169502 59.032688 
L 87.176266 58.995464 
L 87.250669 58.326172 
L 87.751197 54.708742 
L 87.768106 44.139958 
L 87.835745 57.436806 
L 87.852655 59.000675 
L 87.94735 58.192961 
L 88.43435 54.280063 
L 88.447878 44.089217 
L 88.529044 59.017809 
L 88.535808 59.06341 
L 88.600065 58.527541 
L 88.901058 56.591116 
L 88.951788 56.459633 
L 89.032954 56.137446 
L 89.222343 54.818907 
L 89.235871 47.866094 
L 89.242635 44.126016 
L 89.327184 58.923624 
L 89.333947 58.885206 
L 89.793892 56.25443 
L 89.797274 56.255878 
L 89.834476 56.13311 
L 89.966371 54.879248 
L 89.979899 48.103603 
L 89.986663 44.0709 
L 90.074594 59.003886 
L 90.077976 58.987365 
L 90.142233 58.414171 
L 90.385733 56.783853 
L 90.578504 56.3273 
L 90.581886 56.334021 
L 90.632615 56.189982 
L 90.805094 55.753459 
L 90.882879 54.157201 
L 90.896407 44.074347 
L 90.977573 58.849639 
L 90.980955 58.863259 
L 91.018157 58.572155 
L 91.068886 58.088891 
L 91.068886 58.088891 
" clip-path="url(#p91cba67ecc)" style="fill: none; stroke: #000000; stroke-width: 0.6; stroke-linecap: square"/>
   </g>
   <g id="line2d_4">
    <path d="M 95.127221 15.313171 
L 95.127221 8.552195 
" clip-path="url(#p91cba67ecc)" style="fill: none; stroke: #000000; stroke-width: 1.5; stroke-linecap: square"/>
   </g>
  </g>
 </g>
 <defs>
  <clipPath id="p91cba67ecc">
   <rect x="7.2" y="7.2" width="89.28" height="55.44"/>
  </clipPath>
 </defs>
</svg>
