<?xml version="1.0" encoding="utf-8" standalone="no"?>
<!DOCTYPE svg PUBLIC "-//W3C//DTD SVG 1.1//EN"
  "http://www.w3.org/Graphics/SVG/1.1/DTD/svg11.dtd">
<svg xmlns:xlink="http://www.w3.org/1999/xlink" width="114.84pt" height="78.156pt" viewBox="0 0 114.84 78.156" xmlns="http://www.w3.org/2000/svg" version="1.1">
 <metadata>
  <rdf:RDF xmlns:dc="http://purl.org/dc/elements/1.1/" xmlns:cc="http://creativecommons.org/ns#" xmlns:rdf="http://www.w3.org/1999/02/22-rdf-syntax-ns#">
   <cc:Work>
    <dc:type rdf:resource="http://purl.org/dc/dcmitype/StillImage"/>
    <dc:date>2022-04-28T15:12:49.036710</dc:date>
    <dc:format>image/svg+xml</dc:format>
    <dc:creator>
     <cc:Agent>
      <dc:title>Matplotlib v3.5.1, https://matplotlib.org/</dc:title>
     </cc:Agent>
    </dc:creator>
   </cc:Work>
  </rdf:RDF>
 </metadata>
 <defs>
  <style type="text/css">*{stroke-linejoin: round; stroke-linecap: butt}</style>
 </defs>
 <g id="figure_1">
  <g id="patch_1">
   <path d="M 0 78.156 
L 114.84 78.156 
L 114.84 0 
L 0 0 
z
" style="fill: #ffffff"/>
  </g>
  <g id="axes_1">
   <g id="patch_2">
    <path d="M 7.2 70.956 
L 107.64 70.956 
L 107.64 7.2 
L 7.2 7.2 
z
" style="fill: #ffffff"/>
   </g>
   <g id="PolyCollection_1">
    <defs>
     <path id="mc10b9b894b" d="M 30.978916 -22.704649 
L 30.978916 -8.586 
L 31.164049 -8.586 
L 31.349182 -8.586 
L 31.534314 -8.586 
L 31.719447 -8.586 
L 31.90458 -8.586 
L 32.089712 -8.586 
L 32.274845 -8.586 
L 32.459978 -8.586 
L 32.64511 -8.586 
L 32.830243 -8.586 
L 33.015376 -8.586 
L 33.200508 -8.586 
L 33.385641 -8.586 
L 33.570774 -8.586 
L 33.755906 -8.586 
L 33.941039 -8.586 
L 34.126172 -8.586 
L 34.311304 -8.586 
L 34.496437 -8.586 
L 34.68157 -8.586 
L 34.866702 -8.586 
L 35.051835 -8.586 
L 35.236968 -8.586 
L 35.4221 -8.586 
L 35.607233 -8.586 
L 35.792366 -8.586 
L 35.977498 -8.586 
L 36.162631 -8.586 
L 36.347764 -8.586 
L 36.532896 -8.586 
L 36.718029 -8.586 
L 36.903162 -8.586 
L 37.088294 -8.586 
L 37.273427 -8.586 
L 37.45856 -8.586 
L 37.643692 -8.586 
L 37.828825 -8.586 
L 38.013958 -8.586 
L 38.19909 -8.586 
L 38.384223 -8.586 
L 38.569356 -8.586 
L 38.754488 -8.586 
L 38.939621 -8.586 
L 39.124754 -8.586 
L 39.309886 -8.586 
L 39.495019 -8.586 
L 39.680152 -8.586 
L 39.865284 -8.586 
L 40.050417 -8.586 
L 40.23555 -8.586 
L 40.420682 -8.586 
L 40.605815 -8.586 
L 40.790948 -8.586 
L 40.97608 -8.586 
L 41.161213 -8.586 
L 41.346345 -8.586 
L 41.531478 -8.586 
L 41.716611 -8.586 
L 41.901743 -8.586 
L 42.086876 -8.586 
L 42.272009 -8.586 
L 42.457141 -8.586 
L 42.642274 -8.586 
L 42.827407 -8.586 
L 43.012539 -8.586 
L 43.197672 -8.586 
L 43.382805 -8.586 
L 43.567937 -8.586 
L 43.75307 -8.586 
L 43.938203 -8.586 
L 44.123335 -8.586 
L 44.308468 -8.586 
L 44.493601 -8.586 
L 44.678733 -8.586 
L 44.863866 -8.586 
L 45.048999 -8.586 
L 45.234131 -8.586 
L 45.419264 -8.586 
L 45.604397 -8.586 
L 45.789529 -8.586 
L 45.974662 -8.586 
L 46.159795 -8.586 
L 46.344927 -8.586 
L 46.53006 -8.586 
L 46.715193 -8.586 
L 46.715193 -23.0493 
L 46.715193 -23.0493 
L 46.53006 -23.49278 
L 46.344927 -23.939163 
L 46.159795 -24.387834 
L 45.974662 -24.83816 
L 45.789529 -25.289485 
L 45.604397 -25.741136 
L 45.419264 -26.19243 
L 45.234131 -26.64266 
L 45.048999 -27.091113 
L 44.863866 -27.537053 
L 44.678733 -27.979746 
L 44.493601 -28.418441 
L 44.308468 -28.852385 
L 44.123335 -29.280819 
L 43.938203 -29.702975 
L 43.75307 -30.118094 
L 43.567937 -30.525411 
L 43.382805 -30.924173 
L 43.197672 -31.313621 
L 43.012539 -31.69301 
L 42.827407 -32.061613 
L 42.642274 -32.418699 
L 42.457141 -32.763563 
L 42.272009 -33.095517 
L 42.086876 -33.413887 
L 41.901743 -33.718036 
L 41.716611 -34.007316 
L 41.531478 -34.281148 
L 41.346345 -34.53895 
L 41.161213 -34.780177 
L 40.97608 -35.004322 
L 40.790948 -35.210908 
L 40.605815 -35.39949 
L 40.420682 -35.569665 
L 40.23555 -35.721064 
L 40.050417 -35.853357 
L 39.865284 -35.966252 
L 39.680152 -36.059511 
L 39.495019 -36.132922 
L 39.309886 -36.186327 
L 39.124754 -36.219605 
L 38.939621 -36.232688 
L 38.754488 -36.225545 
L 38.569356 -36.198186 
L 38.384223 -36.150675 
L 38.19909 -36.083115 
L 38.013958 -35.995656 
L 37.828825 -35.888485 
L 37.643692 -35.761835 
L 37.45856 -35.615985 
L 37.273427 -35.451247 
L 37.088294 -35.267978 
L 36.903162 -35.066574 
L 36.718029 -34.84746 
L 36.532896 -34.611107 
L 36.347764 -34.358009 
L 36.162631 -34.0887 
L 35.977498 -33.803746 
L 35.792366 -33.503722 
L 35.607233 -33.189261 
L 35.4221 -32.860994 
L 35.236968 -32.519583 
L 35.051835 -32.165708 
L 34.866702 -31.800069 
L 34.68157 -31.423379 
L 34.496437 -31.036364 
L 34.311304 -30.639758 
L 34.126172 -30.234307 
L 33.941039 -29.820768 
L 33.755906 -29.399884 
L 33.570774 -28.972416 
L 33.385641 -28.53912 
L 33.200508 -28.100744 
L 33.015376 -27.658034 
L 32.830243 -27.211729 
L 32.64511 -26.762559 
L 32.459978 -26.311245 
L 32.274845 -25.858488 
L 32.089712 -25.404979 
L 31.90458 -24.951399 
L 31.719447 -24.498398 
L 31.534314 -24.046617 
L 31.349182 -23.596669 
L 31.164049 -23.149157 
L 30.978916 -22.704649 
z
" style="stroke: #808080; stroke-opacity: 0.5"/>
    </defs>
    <g clip-path="url(#p3664b27dc3)">
     <use xlink:href="#mc10b9b894b" x="0" y="78.156" style="fill: #808080; fill-opacity: 0.5; stroke: #808080; stroke-opacity: 0.5"/>
    </g>
   </g>
   <g id="PolyCollection_2">
    <defs>
     <path id="m896454fdfc" d="M 61.537025 -23.062895 
L 61.537025 -8.586 
L 61.721522 -8.586 
L 61.906018 -8.586 
L 62.090515 -8.586 
L 62.275011 -8.586 
L 62.459507 -8.586 
L 62.644004 -8.586 
L 62.8285 -8.586 
L 63.012996 -8.586 
L 63.197493 -8.586 
L 63.381989 -8.586 
L 63.566485 -8.586 
L 63.750982 -8.586 
L 63.935478 -8.586 
L 64.119974 -8.586 
L 64.304471 -8.586 
L 64.488967 -8.586 
L 64.673463 -8.586 
L 64.85796 -8.586 
L 65.042456 -8.586 
L 65.226952 -8.586 
L 65.411449 -8.586 
L 65.595945 -8.586 
L 65.780441 -8.586 
L 65.964938 -8.586 
L 66.149434 -8.586 
L 66.333931 -8.586 
L 66.518427 -8.586 
L 66.702923 -8.586 
L 66.88742 -8.586 
L 67.071916 -8.586 
L 67.256412 -8.586 
L 67.440909 -8.586 
L 67.625405 -8.586 
L 67.809901 -8.586 
L 67.994398 -8.586 
L 68.178894 -8.586 
L 68.36339 -8.586 
L 68.547887 -8.586 
L 68.732383 -8.586 
L 68.916879 -8.586 
L 69.101376 -8.586 
L 69.285872 -8.586 
L 69.470368 -8.586 
L 69.654865 -8.586 
L 69.839361 -8.586 
L 70.023857 -8.586 
L 70.208354 -8.586 
L 70.39285 -8.586 
L 70.577347 -8.586 
L 70.761843 -8.586 
L 70.946339 -8.586 
L 71.130836 -8.586 
L 71.315332 -8.586 
L 71.499828 -8.586 
L 71.684325 -8.586 
L 71.868821 -8.586 
L 72.053317 -8.586 
L 72.237814 -8.586 
L 72.42231 -8.586 
L 72.606806 -8.586 
L 72.791303 -8.586 
L 72.975799 -8.586 
L 73.160295 -8.586 
L 73.344792 -8.586 
L 73.529288 -8.586 
L 73.713784 -8.586 
L 73.898281 -8.586 
L 74.082777 -8.586 
L 74.267274 -8.586 
L 74.45177 -8.586 
L 74.636266 -8.586 
L 74.820763 -8.586 
L 75.005259 -8.586 
L 75.189755 -8.586 
L 75.374252 -8.586 
L 75.558748 -8.586 
L 75.743244 -8.586 
L 75.927741 -8.586 
L 76.112237 -8.586 
L 76.296733 -8.586 
L 76.48123 -8.586 
L 76.665726 -8.586 
L 76.850222 -8.586 
L 77.034719 -8.586 
L 77.219215 -8.586 
L 77.403711 -8.586 
L 77.588208 -8.586 
L 77.772704 -8.586 
L 77.9572 -8.586 
L 78.141697 -8.586 
L 78.326193 -8.586 
L 78.51069 -8.586 
L 78.695186 -8.586 
L 78.879682 -8.586 
L 79.064179 -8.586 
L 79.248675 -8.586 
L 79.433171 -8.586 
L 79.617668 -8.586 
L 79.802164 -8.586 
L 79.98666 -8.586 
L 80.171157 -8.586 
L 80.355653 -8.586 
L 80.540149 -8.586 
L 80.724646 -8.586 
L 80.909142 -8.586 
L 81.093638 -8.586 
L 81.278135 -8.586 
L 81.462631 -8.586 
L 81.647127 -8.586 
L 81.831624 -8.586 
L 82.01612 -8.586 
L 82.200616 -8.586 
L 82.385113 -8.586 
L 82.569609 -8.586 
L 82.754106 -8.586 
L 82.938602 -8.586 
L 83.123098 -8.586 
L 83.307595 -8.586 
L 83.492091 -8.586 
L 83.676587 -8.586 
L 83.861084 -8.586 
L 83.861084 -23.178528 
L 83.861084 -23.178528 
L 83.676587 -23.831789 
L 83.492091 -24.502632 
L 83.307595 -25.190847 
L 83.123098 -25.896128 
L 82.938602 -26.618184 
L 82.754106 -27.356593 
L 82.569609 -28.110963 
L 82.385113 -28.880775 
L 82.200616 -29.665517 
L 82.01612 -30.464584 
L 81.831624 -31.277325 
L 81.647127 -32.103026 
L 81.462631 -32.940954 
L 81.278135 -33.79027 
L 81.093638 -34.650139 
L 80.909142 -35.519602 
L 80.724646 -36.39772 
L 80.540149 -37.283443 
L 80.355653 -38.175721 
L 80.171157 -39.073421 
L 79.98666 -39.975359 
L 79.802164 -40.880349 
L 79.617668 -41.787105 
L 79.433171 -42.69436 
L 79.248675 -43.600765 
L 79.064179 -44.504962 
L 78.879682 -45.405545 
L 78.695186 -46.301092 
L 78.51069 -47.190155 
L 78.326193 -48.07127 
L 78.141697 -48.942943 
L 77.9572 -49.803674 
L 77.772704 -50.651967 
L 77.588208 -51.486315 
L 77.403711 -52.305191 
L 77.219215 -53.107102 
L 77.034719 -53.890553 
L 76.850222 -54.654058 
L 76.665726 -55.396153 
L 76.48123 -56.115407 
L 76.296733 -56.810401 
L 76.112237 -57.479761 
L 75.927741 -58.122132 
L 75.743244 -58.736232 
L 75.558748 -59.320795 
L 75.374252 -59.874622 
L 75.189755 -60.396557 
L 75.005259 -60.885508 
L 74.820763 -61.340449 
L 74.636266 -61.760415 
L 74.45177 -62.144508 
L 74.267274 -62.491912 
L 74.082777 -62.801864 
L 73.898281 -63.073711 
L 73.713784 -63.306855 
L 73.529288 -63.500787 
L 73.344792 -63.655089 
L 73.160295 -63.769416 
L 72.975799 -63.843527 
L 72.791303 -63.877254 
L 72.606806 -63.870521 
L 72.42231 -63.823349 
L 72.237814 -63.735843 
L 72.053317 -63.608186 
L 71.868821 -63.440666 
L 71.684325 -63.233644 
L 71.499828 -62.987576 
L 71.315332 -62.702998 
L 71.130836 -62.380526 
L 70.946339 -62.020854 
L 70.761843 -61.624762 
L 70.577347 -61.193094 
L 70.39285 -60.726773 
L 70.208354 -60.226785 
L 70.023857 -59.694181 
L 69.839361 -59.130077 
L 69.654865 -58.535634 
L 69.470368 -57.912078 
L 69.285872 -57.260695 
L 69.101376 -56.582788 
L 68.916879 -55.879715 
L 68.732383 -55.152877 
L 68.547887 -54.403689 
L 68.36339 -53.633605 
L 68.178894 -52.844094 
L 67.994398 -52.036644 
L 67.809901 -51.212762 
L 67.625405 -50.373961 
L 67.440909 -49.521752 
L 67.256412 -48.657646 
L 67.071916 -47.783157 
L 66.88742 -46.899782 
L 66.702923 -46.009005 
L 66.518427 -45.112293 
L 66.333931 -44.211107 
L 66.149434 -43.306856 
L 65.964938 -42.400951 
L 65.780441 -41.494741 
L 65.595945 -40.589561 
L 65.411449 -39.68671 
L 65.226952 -38.787429 
L 65.042456 -37.892943 
L 64.85796 -37.004411 
L 64.673463 -36.122959 
L 64.488967 -35.249657 
L 64.304471 -34.385535 
L 64.119974 -33.53156 
L 63.935478 -32.688657 
L 63.750982 -31.857695 
L 63.566485 -31.039497 
L 63.381989 -30.234823 
L 63.197493 -29.444387 
L 63.012996 -28.66885 
L 62.8285 -27.908813 
L 62.644004 -27.164834 
L 62.459507 -26.437418 
L 62.275011 -25.727015 
L 62.090515 -25.034033 
L 61.906018 -24.358822 
L 61.721522 -23.701684 
L 61.537025 -23.062895 
z
" style="stroke: #808080; stroke-opacity: 0.5"/>
    </defs>
    <g clip-path="url(#p3664b27dc3)">
     <use xlink:href="#m896454fdfc" x="0" y="78.156" style="fill: #808080; fill-opacity: 0.5; stroke: #808080; stroke-opacity: 0.5"/>
    </g>
   </g>
   <g id="PathCollection_1">
    <defs>
     <path id="m82e563ab6b" d="M 0 1.118034 
C 0.296506 1.118034 0.580908 1.000231 0.790569 0.790569 
C 1.000231 0.580908 1.118034 0.296506 1.118034 0 
C 1.118034 -0.296506 1.000231 -0.580908 0.790569 -0.790569 
C 0.580908 -1.000231 0.296506 -1.118034 0 -1.118034 
C -0.296506 -1.118034 -0.580908 -1.000231 -0.790569 -0.790569 
C -1.000231 -0.580908 -1.118034 -0.296506 -1.118034 0 
C -1.118034 0.296506 -1.000231 0.580908 -0.790569 0.790569 
C -0.580908 1.000231 -0.296506 1.118034 0 1.118034 
z
" style="stroke: #d7301f"/>
    </defs>
    <g clip-path="url(#p3664b27dc3)">
     <use xlink:href="#m82e563ab6b" x="31.20523" y="69.4314" style="fill: #d7301f; stroke: #d7301f"/>
     <use xlink:href="#m82e563ab6b" x="31.025855" y="69.4314" style="fill: #d7301f; stroke: #d7301f"/>
     <use xlink:href="#m82e563ab6b" x="37.125177" y="69.4314" style="fill: #d7301f; stroke: #d7301f"/>
     <use xlink:href="#m82e563ab6b" x="35.885401" y="69.4314" style="fill: #d7301f; stroke: #d7301f"/>
     <use xlink:href="#m82e563ab6b" x="42.870333" y="69.4314" style="fill: #d7301f; stroke: #d7301f"/>
     <use xlink:href="#m82e563ab6b" x="36.511163" y="69.4314" style="fill: #d7301f; stroke: #d7301f"/>
     <use xlink:href="#m82e563ab6b" x="41.986034" y="69.4314" style="fill: #d7301f; stroke: #d7301f"/>
     <use xlink:href="#m82e563ab6b" x="37.75329" y="69.4314" style="fill: #d7301f; stroke: #d7301f"/>
     <use xlink:href="#m82e563ab6b" x="40.619461" y="69.4314" style="fill: #d7301f; stroke: #d7301f"/>
     <use xlink:href="#m82e563ab6b" x="45.220418" y="69.4314" style="fill: #d7301f; stroke: #d7301f"/>
     <use xlink:href="#m82e563ab6b" x="33.113677" y="69.4314" style="fill: #d7301f; stroke: #d7301f"/>
     <use xlink:href="#m82e563ab6b" x="45.122536" y="69.4314" style="fill: #d7301f; stroke: #d7301f"/>
     <use xlink:href="#m82e563ab6b" x="39.183457" y="69.4314" style="fill: #d7301f; stroke: #d7301f"/>
     <use xlink:href="#m82e563ab6b" x="75.612125" y="69.4314" style="fill: #d7301f; stroke: #d7301f"/>
     <use xlink:href="#m82e563ab6b" x="73.398491" y="69.4314" style="fill: #d7301f; stroke: #d7301f"/>
     <use xlink:href="#m82e563ab6b" x="76.972268" y="69.4314" style="fill: #d7301f; stroke: #d7301f"/>
     <use xlink:href="#m82e563ab6b" x="75.622003" y="69.4314" style="fill: #d7301f; stroke: #d7301f"/>
     <use xlink:href="#m82e563ab6b" x="71.178161" y="69.4314" style="fill: #d7301f; stroke: #d7301f"/>
     <use xlink:href="#m82e563ab6b" x="67.615856" y="69.4314" style="fill: #d7301f; stroke: #d7301f"/>
     <use xlink:href="#m82e563ab6b" x="76.444224" y="69.4314" style="fill: #d7301f; stroke: #d7301f"/>
     <use xlink:href="#m82e563ab6b" x="74.394207" y="69.4314" style="fill: #d7301f; stroke: #d7301f"/>
     <use xlink:href="#m82e563ab6b" x="76.17462" y="69.4314" style="fill: #d7301f; stroke: #d7301f"/>
     <use xlink:href="#m82e563ab6b" x="62.703118" y="69.4314" style="fill: #d7301f; stroke: #d7301f"/>
     <use xlink:href="#m82e563ab6b" x="61.906396" y="69.4314" style="fill: #d7301f; stroke: #d7301f"/>
     <use xlink:href="#m82e563ab6b" x="80.776349" y="69.4314" style="fill: #d7301f; stroke: #d7301f"/>
     <use xlink:href="#m82e563ab6b" x="73.209943" y="69.4314" style="fill: #d7301f; stroke: #d7301f"/>
     <use xlink:href="#m82e563ab6b" x="64.520875" y="69.4314" style="fill: #d7301f; stroke: #d7301f"/>
     <use xlink:href="#m82e563ab6b" x="72.605813" y="69.4314" style="fill: #d7301f; stroke: #d7301f"/>
     <use xlink:href="#m82e563ab6b" x="71.080276" y="69.4314" style="fill: #d7301f; stroke: #d7301f"/>
     <use xlink:href="#m82e563ab6b" x="69.988498" y="69.4314" style="fill: #d7301f; stroke: #d7301f"/>
     <use xlink:href="#m82e563ab6b" x="76.312829" y="69.4314" style="fill: #d7301f; stroke: #d7301f"/>
     <use xlink:href="#m82e563ab6b" x="69.96548" y="69.4314" style="fill: #d7301f; stroke: #d7301f"/>
     <use xlink:href="#m82e563ab6b" x="74.028282" y="69.4314" style="fill: #d7301f; stroke: #d7301f"/>
     <use xlink:href="#m82e563ab6b" x="69.592315" y="69.4314" style="fill: #d7301f; stroke: #d7301f"/>
     <use xlink:href="#m82e563ab6b" x="68.762096" y="69.4314" style="fill: #d7301f; stroke: #d7301f"/>
     <use xlink:href="#m82e563ab6b" x="68.881939" y="69.4314" style="fill: #d7301f; stroke: #d7301f"/>
     <use xlink:href="#m82e563ab6b" x="65.025022" y="69.4314" style="fill: #d7301f; stroke: #d7301f"/>
     <use xlink:href="#m82e563ab6b" x="70.494123" y="69.4314" style="fill: #d7301f; stroke: #d7301f"/>
     <use xlink:href="#m82e563ab6b" x="65.249124" y="69.4314" style="fill: #d7301f; stroke: #d7301f"/>
     <use xlink:href="#m82e563ab6b" x="72.061958" y="69.4314" style="fill: #d7301f; stroke: #d7301f"/>
     <use xlink:href="#m82e563ab6b" x="72.006808" y="69.4314" style="fill: #d7301f; stroke: #d7301f"/>
     <use xlink:href="#m82e563ab6b" x="77.28514" y="69.4314" style="fill: #d7301f; stroke: #d7301f"/>
     <use xlink:href="#m82e563ab6b" x="66.968121" y="69.4314" style="fill: #d7301f; stroke: #d7301f"/>
     <use xlink:href="#m82e563ab6b" x="72.644214" y="69.4314" style="fill: #d7301f; stroke: #d7301f"/>
     <use xlink:href="#m82e563ab6b" x="67.562568" y="69.4314" style="fill: #d7301f; stroke: #d7301f"/>
     <use xlink:href="#m82e563ab6b" x="73.892213" y="69.4314" style="fill: #d7301f; stroke: #d7301f"/>
     <use xlink:href="#m82e563ab6b" x="76.839336" y="69.4314" style="fill: #d7301f; stroke: #d7301f"/>
     <use xlink:href="#m82e563ab6b" x="76.954611" y="69.4314" style="fill: #d7301f; stroke: #d7301f"/>
     <use xlink:href="#m82e563ab6b" x="70.97432" y="69.4314" style="fill: #d7301f; stroke: #d7301f"/>
     <use xlink:href="#m82e563ab6b" x="72.301847" y="69.4314" style="fill: #d7301f; stroke: #d7301f"/>
    </g>
   </g>
   <g id="PathCollection_2">
    <defs>
     <path id="m846459ec77" d="M 0 1.118034 
C 0.296506 1.118034 0.580908 1.000231 0.790569 0.790569 
C 1.000231 0.580908 1.118034 0.296506 1.118034 0 
C 1.118034 -0.296506 1.000231 -0.580908 0.790569 -0.790569 
C 0.580908 -1.000231 0.296506 -1.118034 0 -1.118034 
C -0.296506 -1.118034 -0.580908 -1.000231 -0.790569 -0.790569 
C -1.000231 -0.580908 -1.118034 -0.296506 -1.118034 0 
C -1.118034 0.296506 -1.000231 0.580908 -0.790569 0.790569 
C -0.580908 1.000231 -0.296506 1.118034 0 1.118034 
z
" style="stroke: #0570b0"/>
    </defs>
    <g clip-path="url(#p3664b27dc3)">
     <use xlink:href="#m846459ec77" x="28.301902" y="69.4314" style="fill: #0570b0; stroke: #0570b0"/>
     <use xlink:href="#m846459ec77" x="51.35306" y="69.4314" style="fill: #0570b0; stroke: #0570b0"/>
     <use xlink:href="#m846459ec77" x="48.584392" y="69.4314" style="fill: #0570b0; stroke: #0570b0"/>
     <use xlink:href="#m846459ec77" x="48.217167" y="69.4314" style="fill: #0570b0; stroke: #0570b0"/>
     <use xlink:href="#m846459ec77" x="49.549388" y="69.4314" style="fill: #0570b0; stroke: #0570b0"/>
     <use xlink:href="#m846459ec77" x="47.335481" y="69.4314" style="fill: #0570b0; stroke: #0570b0"/>
     <use xlink:href="#m846459ec77" x="52.380959" y="69.4314" style="fill: #0570b0; stroke: #0570b0"/>
     <use xlink:href="#m846459ec77" x="88.20946" y="69.4314" style="fill: #0570b0; stroke: #0570b0"/>
     <use xlink:href="#m846459ec77" x="88.211566" y="69.4314" style="fill: #0570b0; stroke: #0570b0"/>
     <use xlink:href="#m846459ec77" x="59.91112" y="69.4314" style="fill: #0570b0; stroke: #0570b0"/>
    </g>
   </g>
   <g id="matplotlib.axis_1"/>
   <g id="matplotlib.axis_2"/>
   <g id="line2d_1">
    <path d="M 11.765455 69.560726 
L 16.88901 69.425914 
L 19.267806 69.146331 
L 20.914663 68.738545 
L 22.195551 68.221717 
L 23.47644 67.460658 
L 24.574344 66.561503 
L 25.672252 65.390644 
L 26.770154 63.915099 
L 28.051044 61.786695 
L 29.514917 58.838748 
L 31.344758 54.559331 
L 34.638474 46.732621 
L 35.736378 44.652278 
L 36.651299 43.30854 
L 37.383236 42.540015 
L 38.115172 42.072885 
L 38.664124 41.930455 
L 39.213077 41.969673 
L 39.76203 42.189748 
L 40.493967 42.75651 
L 41.225903 43.61705 
L 42.140824 45.060483 
L 43.238728 47.231827 
L 44.885586 51.064887 
L 48.179301 58.876799 
L 49.643174 61.714749 
L 50.741079 63.428181 
L 51.838984 64.744979 
L 52.753905 65.523978 
L 53.668826 66.003579 
L 54.400762 66.1647 
L 55.132699 66.120348 
L 55.864636 65.861153 
L 56.596572 65.375375 
L 57.328509 64.64914 
L 58.24343 63.379818 
L 59.158349 61.680602 
L 60.07327 59.525256 
L 61.171175 56.314825 
L 62.269079 52.428985 
L 63.549969 47.116503 
L 65.37981 38.46929 
L 68.307557 24.522395 
L 69.405461 20.243922 
L 70.320382 17.429227 
L 71.052319 15.775474 
L 71.601271 14.922356 
L 72.150223 14.420157 
L 72.699176 14.278746 
L 73.065144 14.386584 
L 73.614097 14.849145 
L 74.16305 15.664088 
L 74.894986 17.270492 
L 75.626923 19.419768 
L 76.541843 22.759847 
L 77.822732 28.352326 
L 83.312258 53.653368 
L 84.593144 57.975116 
L 85.691051 60.981068 
L 86.788954 63.373177 
L 87.886861 65.215333 
L 88.984764 66.589438 
L 90.082671 67.583003 
L 91.180574 68.279809 
L 92.461466 68.815969 
L 93.925341 69.179403 
L 95.938162 69.423536 
L 99.048893 69.542978 
L 103.074545 69.567785 
L 103.074545 69.567785 
" clip-path="url(#p3664b27dc3)" style="fill: none; stroke: #000000; stroke-width: 1.5; stroke-linecap: square"/>
   </g>
   <g id="line2d_2">
    <path d="M 35.438182 69.57 
L 35.438182 7.2 
" clip-path="url(#p3664b27dc3)" style="fill: none; stroke: #008000; stroke-width: 1.5; stroke-linecap: square"/>
   </g>
  </g>
 </g>
 <defs>
  <clipPath id="p3664b27dc3">
   <rect x="7.2" y="7.2" width="100.44" height="63.756"/>
  </clipPath>
 </defs>
</svg>
