<?xml version='1.0' encoding='ASCII' standalone='yes'?>
<svg xmlns="http://www.w3.org/2000/svg" xmlns:xlink="http://www.w3.org/1999/xlink" version="1.1" width="3.611cm" viewBox="0 0 3.611cm 5.8cm" height="5.8cm">
  <g>
    <g transform="translate(-10, 0) scale(1) ">
      <g transform="translate(0, 0) scale(1) translate(0, 0) scale(1.25) "><metadata>
  <rdf:RDF xmlns:dc="http://purl.org/dc/elements/1.1/" xmlns:cc="http://creativecommons.org/ns#" xmlns:rdf="http://www.w3.org/1999/02/22-rdf-syntax-ns#">
   <cc:Work>
    <dc:type rdf:resource="http://purl.org/dc/dcmitype/StillImage"/>
    <dc:date>2022-07-31T16:23:44.861356</dc:date>
    <dc:format>image/svg+xml</dc:format>
    <dc:creator>
     <cc:Agent>
      <dc:title>Matplotlib v3.5.1, https://matplotlib.org/</dc:title>
     </cc:Agent>
    </dc:creator>
   </cc:Work>
  </rdf:RDF>
 </metadata>
 <defs>
  <style type="text/css">*{stroke-linejoin: round; stroke-linecap: butt}</style>
 </defs>
 <g id="figure_1">
  <g id="patch_1">
   <path d="M 0 58.752  L 126 58.752  L 126 0  L 0 0  z " style="fill: #ffffff"/>
  </g>
  <g id="axes_1">
   <g id="patch_2">
    <path d="M 7.2 51.552  L 118.8 51.552  L 118.8 7.2  L 7.2 7.2  z " style="fill: #ffffff"/>
   </g>
   <g id="matplotlib.axis_1"/>
   <g id="matplotlib.axis_2"/>
   <g id="line2d_1">
    <path d="M 12.272727 49.536  L 35.044088 49.444981  L 35.654036 49.186245  L 36.060667 48.76527  L 36.467297 47.971453  L 36.873928 46.601024  L 37.280561 44.431985  L 37.890507 39.312714  L 38.500455 31.970363  L 39.923666 13.374216  L 40.330297 10.363473  L 40.533615 9.545933  L 40.73693 9.216  L 40.940245 9.372528  L 41.14356 9.996825  L 41.550191 12.498398  L 42.160139 18.546797  L 42.56677 23.35744  L 42.770085 49.536  L 83.229915 49.536  L 83.43323 23.35744  L 84.246491 14.271207  L 84.653124 11.05456  L 85.059755 9.372528  L 85.26307 9.216  L 85.466388 9.54594  L 85.669703 10.363473  L 86.076336 13.374245  L 86.686282 20.565984  L 88.109491 39.312695  L 88.719439 44.431985  L 89.329388 47.372312  L 89.736018 48.426787  L 90.142649 49.011342  L 90.752594 49.390263  L 91.565858 49.516667  L 94.615594 49.536  L 113.727273 49.536  L 113.727273 49.536  " clip-path="url(#p998470aee8)" style="fill: none; stroke: #000000; stroke-width: 1.5; stroke-linecap: square"/>
   </g>
   <g id="line2d_2">
    <path d="M 12.272727 49.536  L 22.235195 49.536  L 22.43851 41.971649  L 42.56677 41.971649  L 42.770085 49.536  L 83.229915 49.536  L 83.43323 41.971649  L 103.561485 41.971649  L 103.7648 49.536  L 113.727273 49.536  L 113.727273 49.536  " clip-path="url(#p998470aee8)" style="fill: none; stroke: #808080; stroke-width: 1.5; stroke-linecap: square"/>
   </g>
  </g>
 </g>
 <defs>
  <clipPath id="p998470aee8">
   <rect x="7.2" y="7.2" width="111.6" height="44.352"/>
  </clipPath>
 </defs>
</g>
      <text x="11" y="12.0" font-size="7.7pt" font-family="Arial" font-weight="normal" letter-spacing="0" text-anchor="start" fill="black">Ground</text>
      <text x="11" y="26.0" font-size="7.7pt" font-family="Arial" font-weight="normal" letter-spacing="0" text-anchor="start" fill="black">truth</text>
    </g>
    <g transform="translate(-10, 75) scale(1) ">
      <g transform="translate(0, 0) scale(1) translate(0, 0) scale(1.25) "><metadata>
  <rdf:RDF xmlns:dc="http://purl.org/dc/elements/1.1/" xmlns:cc="http://creativecommons.org/ns#" xmlns:rdf="http://www.w3.org/1999/02/22-rdf-syntax-ns#">
   <cc:Work>
    <dc:type rdf:resource="http://purl.org/dc/dcmitype/StillImage"/>
    <dc:date>2022-05-02T18:39:21.699219</dc:date>
    <dc:format>image/svg+xml</dc:format>
    <dc:creator>
     <cc:Agent>
      <dc:title>Matplotlib v3.5.1, https://matplotlib.org/</dc:title>
     </cc:Agent>
    </dc:creator>
   </cc:Work>
  </rdf:RDF>
 </metadata>
 <defs>
  <style type="text/css">*{stroke-linejoin: round; stroke-linecap: butt}</style>
 </defs>
 <g id="figure_1">
  <g id="patch_1">
   <path d="M 0 58.752  L 126 58.752  L 126 0  L 0 0  z " style="fill: #ffffff"/>
  </g>
  <g id="axes_1">
   <g id="patch_2">
    <path d="M 7.2 51.552  L 118.8 51.552  L 118.8 7.2  L 7.2 7.2  z " style="fill: #ffffff"/>
   </g>
   <g id="matplotlib.axis_1"/>
   <g id="matplotlib.axis_2"/>
   <g id="line2d_1">
    <path d="M 12.272727 49.477703  L 16.339042 49.525906  L 33.01093 49.45929  L 34.840773 49.314397  L 35.450718 49.084624  L 35.654036 48.887523  L 36.263982 47.928382  L 36.873928 46.721074  L 37.280561 45.471641  L 37.890507 42.644357  L 38.70377 37.172955  L 40.330297 25.379447  L 40.533615 24.853999  L 40.73693 24.692965  L 40.940245 24.888069  L 41.346876 26.214432  L 41.956822 29.758729  L 42.56677 34.154841  L 43.176717 40.244735  L 43.786664 43.623505  L 44.803243 47.330613  L 45.616506 48.827577  L 46.023137 49.13436  L 46.8364 49.33928  L 48.666241 49.44884  L 53.95245 49.450745  L 58.018764 49.287643  L 59.441974 49.042489  L 60.255237 48.662545  L 60.661869 48.249994  L 61.0685 47.363002  L 61.271816 46.425578  L 61.475132 44.499671  L 61.678447 39.14446  L 61.881763 9.216  L 62.49171 45.467961  L 62.898342 48.126123  L 63.304973 48.88071  L 63.711604 49.157447  L 64.524868 49.361962  L 66.35471 49.475539  L 71.844235 49.498904  L 77.740391 49.309771  L 79.1636 48.999006  L 79.976863 48.648325  L 80.58681 48.101545  L 81.196757 47.170833  L 81.603389 46.205164  L 82.010021 44.829012  L 82.619968 41.696031  L 83.229915 37.097986  L 84.043176 30.661848  L 84.449809 29.288379  L 85.059755 23.657849  L 85.26307 23.435146  L 85.466388 24.228119  L 87.296228 38.004267  L 88.516122 45.577792  L 89.12607 47.836175  L 89.532703 48.634228  L 89.939333 49.088021  L 90.549279 49.412816  L 91.362543 49.531121  L 113.727273 49.535413  L 113.727273 49.535413  " clip-path="url(#p6369742de6)" style="fill: none; stroke: #000000; stroke-width: 1.5; stroke-linecap: square"/>
   </g>
  </g>
 </g>
 <defs>
  <clipPath id="p6369742de6">
   <rect x="7.2" y="7.2" width="111.6" height="44.352"/>
  </clipPath>
 </defs>
</g>
      <text x="11" y="12.0" font-size="7.7pt" font-family="Arial" font-weight="normal" letter-spacing="0" text-anchor="start" fill="black">APT</text>
    </g>
    <g transform="translate(-10, 150) scale(1) ">
      <g transform="translate(0, 0) scale(1) translate(0, 0) scale(1.25) "><metadata>
  <rdf:RDF xmlns:dc="http://purl.org/dc/elements/1.1/" xmlns:cc="http://creativecommons.org/ns#" xmlns:rdf="http://www.w3.org/1999/02/22-rdf-syntax-ns#">
   <cc:Work>
    <dc:type rdf:resource="http://purl.org/dc/dcmitype/StillImage"/>
    <dc:date>2022-05-02T18:44:48.925479</dc:date>
    <dc:format>image/svg+xml</dc:format>
    <dc:creator>
     <cc:Agent>
      <dc:title>Matplotlib v3.5.1, https://matplotlib.org/</dc:title>
     </cc:Agent>
    </dc:creator>
   </cc:Work>
  </rdf:RDF>
 </metadata>
 <defs>
  <style type="text/css">*{stroke-linejoin: round; stroke-linecap: butt}</style>
 </defs>
 <g id="figure_1">
  <g id="patch_1">
   <path d="M 0 58.752  L 126 58.752  L 126 0  L 0 0  z " style="fill: #ffffff"/>
  </g>
  <g id="axes_1">
   <g id="patch_2">
    <path d="M 7.2 51.552  L 118.8 51.552  L 118.8 7.2  L 7.2 7.2  z " style="fill: #ffffff"/>
   </g>
   <g id="matplotlib.axis_1"/>
   <g id="matplotlib.axis_2"/>
   <g id="line2d_1">
    <path d="M 12.272727 49.535984  L 34.230827 49.430222  L 35.247403 49.246174  L 35.857351 48.951878  L 36.263982 48.559138  L 36.670612 47.843518  L 37.077243 46.53642  L 37.483876 44.223749  L 37.890507 40.466601  L 40.330297 12.118307  L 40.73693 9.661952  L 40.940245 9.216  L 41.14356 9.309872  L 41.346876 9.927287  L 41.753506 12.566182  L 42.160139 16.66062  L 42.56677 23.040538  L 42.770085 40.768774  L 42.973401 46.627833  L 43.176717 48.108897  L 43.583348 48.98587  L 43.989979 49.252703  L 44.803243 49.430577  L 46.633084 49.502873  L 55.985607 49.535999  L 82.416652 49.467973  L 82.619968 49.168059  L 83.0266 43.810962  L 83.43323 33.17694  L 84.043176 13.949237  L 84.246491 11.30192  L 84.449809 11.855596  L 84.85644 19.03905  L 85.059755 14.323347  L 85.26307 13.279596  L 85.466388 15.226436  L 85.669703 19.036174  L 86.076336 18.355932  L 86.279651 19.391253  L 86.686282 24.532221  L 87.296228 33.659707  L 88.109491 39.592387  L 89.12607 46.945963  L 89.532703 48.300089  L 89.939333 48.941912  L 90.345964 49.239933  L 90.955912 49.425139  L 92.379121 49.524105  L 100.715067 49.535969  L 113.727273 49.535964  L 113.727273 49.535964  " clip-path="url(#pe0f30bd3f4)" style="fill: none; stroke: #000000; stroke-width: 1.5; stroke-linecap: square"/>
   </g>
  </g>
 </g>
 <defs>
  <clipPath id="pe0f30bd3f4">
   <rect x="7.2" y="7.2" width="111.6" height="44.352"/>
  </clipPath>
 </defs>
</g>
      <text x="11" y="12.0" font-size="7.7pt" font-family="Arial" font-weight="normal" letter-spacing="0" text-anchor="start" fill="black">TSNPE</text>
    </g>
  </g>
</svg>
